<?xml version="1.0" encoding="UTF-8" standalone="no"?>
<!-- Created with Inkscape (http://www.inkscape.org/) -->

<svg
   xmlns:dc="http://purl.org/dc/elements/1.1/"
   xmlns:cc="http://creativecommons.org/ns#"
   xmlns:rdf="http://www.w3.org/1999/02/22-rdf-syntax-ns#"
   xmlns:svg="http://www.w3.org/2000/svg"
   xmlns="http://www.w3.org/2000/svg"
   xmlns:sodipodi="http://sodipodi.sourceforge.net/DTD/sodipodi-0.dtd"
   xmlns:inkscape="http://www.inkscape.org/namespaces/inkscape"
   width="300mm"
   height="300mm"
   viewBox="0 0 300 300"
   version="1.1"
   id="svg4553"
   sodipodi:docname="Follower-1.svg"
   inkscape:version="0.92.1 r15371">
  <defs
     id="defs4547" />
  <sodipodi:namedview
     id="base"
     pagecolor="#ffffff"
     bordercolor="#666666"
     borderopacity="1.0"
     inkscape:pageopacity="0.0"
     inkscape:pageshadow="2"
     inkscape:zoom="0.49497475"
     inkscape:cx="477.81129"
     inkscape:cy="524.06459"
     inkscape:document-units="mm"
     inkscape:current-layer="layer1"
     showgrid="false"
     inkscape:window-width="1920"
     inkscape:window-height="1017"
     inkscape:window-x="-8"
     inkscape:window-y="-8"
     inkscape:window-maximized="1" />
  <metadata
     id="metadata4550">
    <rdf:RDF>
      <cc:Work
         rdf:about="">
        <dc:format>image/svg+xml</dc:format>
        <dc:type
           rdf:resource="http://purl.org/dc/dcmitype/StillImage" />
        <dc:title></dc:title>
      </cc:Work>
    </rdf:RDF>
  </metadata>
  <g
     inkscape:label="Layer 1"
     inkscape:groupmode="layer"
     id="layer1"
     transform="translate(0,3)">
    <path
       style="fill:none;stroke:#000000;stroke-width:0.26458332px;stroke-linecap:butt;stroke-linejoin:miter;stroke-opacity:1"
       d="M 25.872771,-21.33193 316.91444,383.85855"
       id="path5102"
       inkscape:connector-curvature="0" />
    <path
       style="fill:none;stroke:#000000;stroke-width:0.26458332px;stroke-linecap:butt;stroke-linejoin:miter;stroke-opacity:1"
       d="M -57.281993,365.7157 270.80134,-16.796215"
       id="path5104"
       inkscape:connector-curvature="0" />
    <path
       style="fill:none;stroke:#000000;stroke-width:0.26458332px;stroke-linecap:butt;stroke-linejoin:miter;stroke-opacity:1"
       d="M 168.74777,-16.796215 165.72396,355.88831"
       id="path5106"
       inkscape:connector-curvature="0" />
    <path
       style="fill:none;stroke:#000000;stroke-width:0.26458332px;stroke-linecap:butt;stroke-linejoin:miter;stroke-opacity:1"
       d="M 3.9501528,172.19188 325.98586,171.43593"
       id="path5108"
       inkscape:connector-curvature="0" />
    <path
       style="fill:none;stroke:#000000;stroke-width:0.26458332px;stroke-linecap:butt;stroke-linejoin:miter;stroke-opacity:1"
       d="M 81.813246,-26.623596 415.18825,288.60855"
       id="path5110"
       inkscape:connector-curvature="0" />
    <path
       style="fill:none;stroke:#000000;stroke-width:0.26458332px;stroke-linecap:butt;stroke-linejoin:miter;stroke-opacity:1"
       d="M 260.21801,387.63831 -8.9010382,5.126404"
       id="path5112"
       inkscape:connector-curvature="0" />
    <path
       style="fill:none;stroke:#000000;stroke-width:0.26458332px;stroke-linecap:butt;stroke-linejoin:miter;stroke-opacity:1"
       d="M 372.85492,91.304975 -31.57961,416.36449"
       id="path5114"
       inkscape:connector-curvature="0" />
    <path
       style="fill:none;stroke:#000000;stroke-width:0.26458332px;stroke-linecap:butt;stroke-linejoin:miter;stroke-opacity:1"
       d="m 211.83706,-28.1355 10.58333,485.32141"
       id="path5116"
       inkscape:connector-curvature="0" />
    <path
       style="fill:none;stroke:#000000;stroke-width:0.26458332px;stroke-linecap:butt;stroke-linejoin:miter;stroke-opacity:1"
       d="m 102.22396,-112.80216 2.26786,553.35713"
       id="path5118"
       inkscape:connector-curvature="0" />
    <path
       style="fill:none;stroke:#000000;stroke-width:0.26458332px;stroke-linecap:butt;stroke-linejoin:miter;stroke-opacity:1"
       d="M -100.37127,68.626402 228.46801,442.06688"
       id="path5120"
       inkscape:connector-curvature="0" />
    <path
       style="fill:none;stroke:#000000;stroke-width:0.26458332px;stroke-linecap:butt;stroke-linejoin:miter;stroke-opacity:1"
       d="M 152.87277,-75.004547 372.09895,191.84664"
       id="path5122"
       inkscape:connector-curvature="0" />
    <path
       style="fill:none;stroke:#000000;stroke-width:0.26458332px;stroke-linecap:butt;stroke-linejoin:miter;stroke-opacity:1"
       d="M 244.34301,-70.468832 -109.4427,272.73355"
       id="path5124"
       inkscape:connector-curvature="0" />
    <path
       style="fill:none;stroke:#000000;stroke-width:0.26458332px;stroke-linecap:butt;stroke-linejoin:miter;stroke-opacity:1"
       d="M 343.37277,20.245452 -25.53199,389.15022"
       id="path5126"
       inkscape:connector-curvature="0" />
    <path
       style="fill:none;stroke:#000000;stroke-width:0.26458332px;stroke-linecap:butt;stroke-linejoin:miter;stroke-opacity:1"
       d="M 213.81562,-116.73322 -124.01306,174.05602"
       id="path5679"
       inkscape:connector-curvature="0" />
    <path
       style="fill:none;stroke:#000000;stroke-width:0.26458332px;stroke-linecap:butt;stroke-linejoin:miter;stroke-opacity:1"
       d="M 490.70685,106.7041 -43.832203,481.9505"
       id="path5681"
       inkscape:connector-curvature="0" />
    <path
       style="fill:#cdcdcd;fill-opacity:1;stroke:#6f6f6f;stroke-width:4.04697323;stroke-miterlimit:4;stroke-dasharray:none;stroke-dashoffset:0;stroke-opacity:1"
       d="m 163.55036,306.18918 c -39.3871,-56.12571 -73.129318,-104.01502 -74.982698,-106.4207 -2.15134,-2.79242 18.155748,-22.73823 56.162268,-55.16309 32.74263,-27.93403 60.75261,-51.421591 62.2444,-52.194589 1.49178,-0.772997 29.47129,35.869179 62.17667,81.427059 32.70539,45.55788 65.4529,91.08864 72.77225,101.17945 l 13.3079,18.34695 -60.03393,57.43583 -60.03393,57.43584 z"
       id="path5683"
       inkscape:connector-curvature="0"
       transform="matrix(0.26458333,0,0,0.26458333,0,-3)" />
    <path
       style="fill:#cdcdcd;fill-opacity:1;stroke:#6f6f6f;stroke-width:4.04697323;stroke-miterlimit:4;stroke-dasharray:none;stroke-dashoffset:0;stroke-opacity:1"
       d="M 285.50418,187.72573 C 246.28735,133.13866 215.27232,86.742871 216.58187,84.623967 c 1.30956,-2.118904 33.83928,-30.972174 72.28827,-64.118378 l 69.90726,-60.265829 12.38408,12.854863 12.38408,12.854864 2.89405,136.557003 2.89405,136.557 -13.52642,13.95573 c -7.43953,7.67565 -14.75792,13.95573 -16.26309,13.95573 -1.50516,0 -34.82315,-44.66215 -74.03997,-99.24922 z"
       id="path5685"
       inkscape:connector-curvature="0"
       transform="matrix(0.26458333,0,0,0.26458333,0,-3)" />
    <path
       style="fill:#cdcdcd;fill-opacity:1;stroke:#6f6f6f;stroke-width:4.04697323;stroke-miterlimit:4;stroke-dasharray:none;stroke-dashoffset:0;stroke-opacity:1"
       d="m -112.07438,570.28904 c -44.83663,-50.93876 -86.10312,-98.06128 -91.7033,-104.71672 l -10.18215,-12.1008 144.202139,-124.22854 C 9.5534863,260.91729 76.795931,204.81824 79.669964,204.57844 c 4.301763,-0.35893 144.392986,192.50573 149.367306,205.63512 1.32831,3.50598 -248.782624,248.70771 -256.642015,251.60463 -1.62167,0.59773 -39.633008,-40.59039 -84.469635,-91.52915 z"
       id="path5687"
       inkscape:connector-curvature="0"
       transform="matrix(0.26458333,0,0,0.26458333,0,-3)" />
    <path
       style="fill:#cdcdcd;fill-opacity:1;stroke:#6f6f6f;stroke-width:4.04697323;stroke-miterlimit:4;stroke-dasharray:none;stroke-dashoffset:0;stroke-opacity:1"
       d="M 161.20676,880.18925 C 103.57504,815.95088 -18.461875,676.86518 -21.18213,672.3203 c -2.617886,-4.37385 248.17298,-252.00522 255.22052,-252.00522 1.77669,0 37.16958,48.16776 78.65085,107.03947 57.3094,81.33554 75.4205,109.94955 75.4205,119.15804 v 12.11858 l -188.89852,1.09104 -188.898527,1.09104 188.898527,0.96922 188.89852,0.96922 -0.004,11.11168 c -0.004,8.64755 -20.69788,35.30493 -93.31401,120.20815 -51.31948,60.00306 -95.5896,111.48395 -98.37804,114.402 -4.13378,4.32592 -10.63401,-0.89645 -35.20511,-28.28427 z"
       id="path5689"
       inkscape:connector-curvature="0"
       transform="matrix(0.26458333,0,0,0.26458333,0,-3)" />
    <path
       style="fill:#cdcdcd;fill-opacity:1;stroke:#6f6f6f;stroke-width:4.04697323;stroke-miterlimit:4;stroke-dasharray:none;stroke-dashoffset:0;stroke-opacity:1"
       d="m 286.59997,1023.337 c -16.93951,-19.4239 -44.59485,-50.98648 -61.45631,-70.13905 l -30.65722,-34.82285 95.8015,-111.89572 95.8015,-111.89572 1.06083,148.60354 1.06084,148.60353 -33.29651,33.47037 c -18.31308,18.4087 -34.24579,33.4528 -35.40602,33.4312 -1.16023,-0.021 -15.96911,-15.9314 -32.90861,-35.3553 z"
       id="path5691"
       inkscape:connector-curvature="0"
       transform="matrix(0.26458333,0,0,0.26458333,0,-3)" />
    <path
       style="fill:#cdcdcd;fill-opacity:1;stroke:#6f6f6f;stroke-width:4.04697323;stroke-miterlimit:4;stroke-dasharray:none;stroke-dashoffset:0;stroke-opacity:1"
       d="m 394.80923,933.16602 c -1.46238,-27.19724 -2.64984,-93.25722 -2.63881,-146.79995 0.0196,-94.98203 0.24203,-97.62777 9.14333,-108.75089 l 9.12325,-11.40048 60.5572,86.01192 c 33.30647,47.30656 61.04879,87.89313 61.64961,90.19238 0.60083,2.29925 -29.56791,34.78408 -67.04164,72.18851 l -68.13406,68.00805 z"
       id="path5693"
       inkscape:connector-curvature="0"
       transform="matrix(0.26458333,0,0,0.26458333,0,-3)" />
    <path
       style="fill:#cdcdcd;fill-opacity:1;stroke:#6f6f6f;stroke-width:4.04697323;stroke-miterlimit:4;stroke-dasharray:none;stroke-dashoffset:0;stroke-opacity:1"
       d="m 356.95652,1102.9133 -33.17353,-38.1209 31.15323,-31.4306 31.15322,-31.4305 3.04308,59.7148 c 4.51227,88.5447 6.61683,85.8455 -32.176,41.2672 z"
       id="path5695"
       inkscape:connector-curvature="0"
       transform="matrix(0.26458333,0,0,0.26458333,0,-3)" />
    <path
       style="fill:#cdcdcd;fill-opacity:1;stroke:#6f6f6f;stroke-width:4.04697323;stroke-miterlimit:4;stroke-dasharray:none;stroke-dashoffset:0;stroke-opacity:1"
       d="m 400.98453,1154.8428 c -3.37093,-3.3709 -4.79357,-28.2499 -4.79357,-83.8295 v -79.03607 l 71.72084,-71.39014 71.72083,-71.39014 43.8018,62.5156 c 24.40258,34.82827 42.84671,65.00454 41.64528,68.13542 -1.18609,3.09091 -48.17102,42.37773 -104.41096,87.30403 -56.23994,44.9263 -105.09758,84.1142 -108.57254,87.0843 -4.8737,4.1656 -7.414,4.3042 -11.11168,0.6065 z"
       id="path5697"
       inkscape:connector-curvature="0"
       transform="matrix(0.26458333,0,0,0.26458333,0,-3)" />
    <path
       style="fill:#cdcdcd;fill-opacity:1;stroke:#6f6f6f;stroke-width:4.04697323;stroke-miterlimit:4;stroke-dasharray:none;stroke-dashoffset:0;stroke-opacity:1"
       d="m 483.06408,1246.4283 c -37.7797,-43.263 -69.19597,-80.1634 -69.81392,-82.0009 -0.61795,-1.8374 39.38409,-35.7984 88.89343,-75.469 49.50933,-39.6705 97.74464,-78.3748 107.18956,-86.0095 l 17.17259,-13.88126 -0.16181,142.91826 -0.16182,142.9182 -35.10938,24.2437 c -19.31015,13.334 -36.05637,24.6255 -37.21382,25.0921 -1.15745,0.4667 -33.01512,-34.5485 -70.79483,-77.8116 z"
       id="path5699"
       inkscape:connector-curvature="0"
       transform="matrix(0.26458333,0,0,0.26458333,0,-3)" />
    <path
       style="fill:#cdcdcd;fill-opacity:1;stroke:#6f6f6f;stroke-width:4.04697323;stroke-miterlimit:4;stroke-dasharray:none;stroke-dashoffset:0;stroke-opacity:1"
       d="m 630.54635,1127.6603 c 0,-77.9129 1.36371,-141.57878 3.03046,-141.47977 1.66675,0.099 20.30407,25.02007 41.41626,55.38017 21.11219,30.36 50.60706,72.7745 65.54415,94.2543 l 27.15836,39.0543 -63.52385,44.2875 c -34.93812,24.3581 -65.79669,45.6096 -68.57461,47.2254 -4.00044,2.327 -5.05077,-26.5209 -5.05077,-138.7219 z"
       id="path5701"
       inkscape:connector-curvature="0"
       transform="matrix(0.26458333,0,0,0.26458333,0,-3)" />
    <path
       style="fill:#cdcdcd;fill-opacity:1;stroke:#6f6f6f;stroke-width:4.04697323;stroke-miterlimit:4;stroke-dasharray:none;stroke-dashoffset:0;stroke-opacity:1"
       d="m 705.4139,1076.7775 c -36.73248,-52.0618 -66.78632,-95.40799 -66.78632,-96.32489 0,-0.91691 22.27386,-19.46704 49.49747,-41.22251 27.22361,-21.75548 57.04797,-45.6618 66.27635,-53.12516 l 16.77887,-13.56975 24.48562,33.91781 24.48563,33.91781 2.78433,96.82569 2.78434,96.8258 -26.75998,18.7065 -26.75999,18.7066 z"
       id="path5703"
       inkscape:connector-curvature="0"
       transform="matrix(0.26458333,0,0,0.26458333,0,-3)" />
    <path
       style="fill:#cdcdcd;fill-opacity:1;stroke:#6f6f6f;stroke-width:4.04697323;stroke-miterlimit:4;stroke-dasharray:none;stroke-dashoffset:0;stroke-opacity:1"
       d="m 827.67073,1041.4225 c -1.01085,-49.37193 -1.62103,-90.1334 -1.35596,-90.581 0.26507,-0.4476 20.16345,26.51648 44.21861,59.9202 l 43.73666,60.734 -9.4574,6.7499 c -5.20157,3.7124 -24.27288,17.1436 -42.3807,29.847 l -32.92329,23.0972 z"
       id="path5705"
       inkscape:connector-curvature="0"
       transform="matrix(0.26458333,0,0,0.26458333,0,-3)" />
    <path
       style="fill:#cdcdcd;fill-opacity:1;stroke:#6f6f6f;stroke-width:4.04697323;stroke-miterlimit:4;stroke-dasharray:none;stroke-dashoffset:0;stroke-opacity:1"
       d="M 896.39621,1037.7459 C 884.4677,1021.5088 863.41023,992.48553 849.60183,973.24979 L 824.49564,938.27573 V 883.98626 829.6968 L 928.44132,746.22425 1032.387,662.75169 h 33.9675 33.9676 l 50.4402,47.47717 c 27.7422,26.11244 65.8817,62.02337 84.7544,79.80205 l 34.314,32.32488 -172.6156,121.21831 c -94.9386,66.6701 -174.08156,121.7753 -175.87319,122.4561 -1.79162,0.6807 -13.01719,-12.0472 -24.9457,-28.2843 z"
       id="path5707"
       inkscape:connector-curvature="0"
       transform="matrix(0.26458333,0,0,0.26458333,0,-3)" />
    <path
       style="fill:#cdcdcd;fill-opacity:1;stroke:#6f6f6f;stroke-width:4.04697323;stroke-miterlimit:4;stroke-dasharray:none;stroke-dashoffset:0;stroke-opacity:1"
       d="m 1192.1831,742.07962 -81.9701,-77.30762 62.2023,-2.18076 62.2023,-2.18075 -64.0683,-0.84971 -64.0683,-0.8497 -15.7338,-12.46136 c -8.6535,-6.85375 -15.7337,-13.80216 -15.7337,-15.44093 0,-2.45013 113.4647,-95.11886 137.779,-112.52665 6.318,-4.52337 16.4338,6.34108 94.0545,101.01525 47.8363,58.34607 87.4102,107.90203 87.942,110.12437 0.5318,2.22234 -26.3936,23.37371 -59.8344,47.00304 l -60.8014,42.96244 z"
       id="path5709"
       inkscape:connector-curvature="0"
       transform="matrix(0.26458333,0,0,0.26458333,0,-3)" />
    <path
       style="fill:#cdcdcd;fill-opacity:1;stroke:#6f6f6f;stroke-width:4.04697323;stroke-miterlimit:4;stroke-dasharray:none;stroke-dashoffset:0;stroke-opacity:1"
       d="m 992.18097,553.10392 c -42.22438,-39.87255 -77.23065,-73.80165 -77.79172,-75.39799 -0.56107,-1.59635 33.07701,-36.82302 74.75129,-78.28149 l 75.77136,-75.37905 75.5766,92.30535 75.5765,92.30534 -69.5156,55.44086 c -38.2336,30.49247 -71.3339,56.80473 -73.5562,58.4717 -2.2756,1.70686 -37.5771,-28.63769 -80.81223,-69.46472 z"
       id="path5711"
       inkscape:connector-curvature="0"
       transform="matrix(0.26458333,0,0,0.26458333,0,-3)" />
    <path
       style="fill:#cdcdcd;fill-opacity:1;stroke:#6f6f6f;stroke-width:4.04697323;stroke-miterlimit:4;stroke-dasharray:none;stroke-dashoffset:0;stroke-opacity:1"
       d="m 860.09207,427.28697 -47.23609,-45.35769 -1.77772,-90.19411 -1.77772,-90.19411 39.50059,-45.95788 39.50059,-45.95787 84.19252,102.601 c 46.30586,56.43055 84.68396,104.07535 85.28466,105.87733 0.6006,1.80198 -33.0051,37.31089 -74.67933,78.90868 l -75.77142,75.63234 z"
       id="path5713"
       inkscape:connector-curvature="0"
       transform="matrix(0.26458333,0,0,0.26458333,0,-3)" />
    <path
       style="fill:#cdcdcd;fill-opacity:1;stroke:#6f6f6f;stroke-width:4.04697323;stroke-miterlimit:4;stroke-dasharray:none;stroke-dashoffset:0;stroke-opacity:1"
       d="m 510.51982,500.56024 c -8.73415,-11.91097 -38.94035,-53.74547 -67.12487,-92.96556 l -51.2446,-71.30925 V 300.4496 264.61377 l 43.43656,-42.38481 c 23.89011,-23.31165 55.57873,-54.00876 70.41915,-68.21581 l 26.98259,-25.83098 13.42351,11.19871 c 7.38294,6.15929 30.36342,27.53734 51.06775,47.50678 l 37.64424,36.30808 -2.86989,90.10356 -2.8699,90.10357 -44.23299,51.89267 c -64.91417,76.15511 -55.96163,70.72532 -74.63155,45.2647 z"
       id="path5715"
       inkscape:connector-curvature="0"
       transform="matrix(0.26458333,0,0,0.26458333,0,-3)" />
    <path
       style="fill:#cdcdcd;fill-opacity:1;stroke:#6f6f6f;stroke-width:4.04697323;stroke-miterlimit:4;stroke-dasharray:none;stroke-dashoffset:0;stroke-opacity:1"
       d="m 584.86967,167.95198 -47.69698,-45.12962 47.69698,-46.213084 47.69699,-46.213077 1.14035,47.705141 c 0.6272,26.23783 0.6272,67.34205 0,91.34271 l -1.14035,43.63756 z"
       id="path5717"
       inkscape:connector-curvature="0"
       transform="matrix(0.26458333,0,0,0.26458333,0,-3)" />
    <path
       style="fill:#cdcdcd;fill-opacity:1;stroke:#6f6f6f;stroke-width:4.04697323;stroke-miterlimit:4;stroke-dasharray:none;stroke-dashoffset:0;stroke-opacity:1"
       d="M 678.02352,256.31508 638.62758,217.79664 V 122.01548 26.234322 l 49.86542,-49.745702 49.86542,-49.7457 30.61706,37.684503 30.61705,37.6845047 2.58575,98.9949523 2.58575,98.99495 -40.18977,46.31633 c -22.10439,25.47399 -41.75691,46.78862 -43.67229,47.36586 -1.91537,0.57723 -21.21067,-16.28379 -42.87845,-37.46894 z"
       id="path5719"
       inkscape:connector-curvature="0"
       transform="matrix(0.26458333,0,0,0.26458333,0,-3)" />
    <path
       style="fill:#cdcdcd;fill-opacity:1;stroke:#6f6f6f;stroke-width:4.04697323;stroke-miterlimit:4;stroke-dasharray:none;stroke-dashoffset:0;stroke-opacity:1"
       d="m 766.78237,339.73293 c -21.74179,-20.79461 -39.0154,-39.31725 -38.3858,-41.16141 0.62961,-1.84417 17.50921,-22.69041 37.51023,-46.32497 l 36.36549,-42.97194 3.10035,47.94154 c 1.70519,26.36785 2.61432,64.22785 2.0203,84.13335 l -1.08004,36.19181 z"
       id="path5721"
       inkscape:connector-curvature="0"
       transform="matrix(0.26458333,0,0,0.26458333,0,-3)" />
    <path
       style="fill:#cdcdcd;fill-opacity:1;stroke:#6f6f6f;stroke-width:4.04697323;stroke-miterlimit:4;stroke-dasharray:none;stroke-dashoffset:0;stroke-opacity:1"
       d="m 636.03656,381.92928 c 1.37614,-8.88934 2.52209,-47.65696 2.54655,-86.15027 l 0.0445,-69.98784 40.07712,37.43435 40.07713,37.43435 -38.71407,44.67532 c -21.29273,24.57142 -40.47338,46.49359 -42.62367,48.71592 -2.52842,2.61315 -3.02567,-1.66924 -1.40753,-12.12183 z"
       id="path5723"
       inkscape:connector-curvature="0"
       transform="matrix(0.26458333,0,0,0.26458333,0,-3)" />
    <path
       style="fill:#cdcdcd;fill-opacity:1;stroke:#6f6f6f;stroke-width:4.04697323;stroke-miterlimit:4;stroke-dasharray:none;stroke-dashoffset:0;stroke-opacity:1"
       d="m 634.58697,532.19758 v -126.5135 l 43.30882,-50.73925 43.30883,-50.73926 42.94757,40.13152 42.94757,40.13151 2.62224,57.31919 c 1.44224,31.52555 2.6289,72.80418 2.63703,91.73029 l 0.0148,34.41109 -45.52009,45.39096 -45.52008,45.39095 H 677.9603 634.58697 Z"
       id="path5725"
       inkscape:connector-curvature="0"
       transform="matrix(0.26458333,0,0,0.26458333,0,-3)" />
    <path
       style="fill:#cdcdcd;fill-opacity:1;stroke:#6f6f6f;stroke-width:4.04697323;stroke-miterlimit:4;stroke-dasharray:none;stroke-dashoffset:0;stroke-opacity:1"
       d="m 815.48411,478.32371 c -1.12407,-46.34993 -1.77851,-84.6263 -1.4543,-85.05861 0.32421,-0.43231 20.53983,18.06681 44.9236,41.10915 l 44.33413,41.89517 -42.87983,43.16344 -42.87983,43.16344 z"
       id="path5727"
       inkscape:connector-curvature="0"
       transform="matrix(0.26458333,0,0,0.26458333,0,-3)" />
    <path
       style="fill:#cdcdcd;fill-opacity:1;stroke:#6f6f6f;stroke-width:4.04697323;stroke-miterlimit:4;stroke-dasharray:none;stroke-dashoffset:0;stroke-opacity:1"
       d="m 818.49028,615.72312 -2.93007,-42.98796 46.17775,-46.17775 46.17774,-46.17774 77.48797,73.33161 c 42.61843,40.33239 77.39413,74.54757 77.27943,76.03373 -0.1147,1.48616 -7.5844,8.6115 -16.5994,15.83409 l -16.3908,13.13198 H 925.55661 821.42034 Z"
       id="path5729"
       inkscape:connector-curvature="0"
       transform="matrix(0.26458333,0,0,0.26458333,0,-3)" />
    <path
       style="fill:#cdcdcd;fill-opacity:1;stroke:#6f6f6f;stroke-width:4.04697323;stroke-miterlimit:4;stroke-dasharray:none;stroke-dashoffset:0;stroke-opacity:1"
       d="m 823.0118,801.49571 c -1.40622,-10.25949 -2.55677,-45.67396 -2.55677,-78.69882 v -60.0452 h 101.82338 c 56.66281,0 100.12089,1.5321 97.98479,3.45443 -7.9148,7.12273 -185.85392,148.6084 -190.18034,151.21911 -2.95132,1.78093 -5.39952,-3.73431 -7.07106,-15.92952 z"
       id="path5731"
       inkscape:connector-curvature="0"
       transform="matrix(0.26458333,0,0,0.26458333,0,-3)" />
    <path
       style="fill:#cdcdcd;fill-opacity:1;stroke:#6f6f6f;stroke-width:4.04697323;stroke-miterlimit:4;stroke-dasharray:none;stroke-dashoffset:0;stroke-opacity:1"
       d="m 762.63747,851.69828 c -5.39816,-7.24902 -28.92677,-39.80706 -52.28581,-72.3512 l -42.47098,-59.17116 28.90503,-28.71211 28.90502,-28.71212 h 45.36185 45.36184 v 83.89589 83.89588 l -21.98106,17.16743 -21.98107,17.16743 z"
       id="path5733"
       inkscape:connector-curvature="0"
       transform="matrix(0.26458333,0,0,0.26458333,0,-3)" />
    <path
       style="fill:#cdcdcd;fill-opacity:1;stroke:#6f6f6f;stroke-width:4.04697323;stroke-miterlimit:4;stroke-dasharray:none;stroke-dashoffset:0;stroke-opacity:1"
       d="m 1052.7901,646.58925 c 8.3894,-6.66701 16.4814,-12.12183 17.9824,-12.12183 1.501,0 7.9551,5.45482 14.3425,12.12183 l 11.6134,12.12183 h -29.5958 -29.5958 z"
       id="path5735"
       inkscape:connector-curvature="0"
       transform="matrix(0.26458333,0,0,0.26458333,0,-3)" />
    <path
       style="fill:#cdcdcd;fill-opacity:1;stroke:#6f6f6f;stroke-width:4.04697323;stroke-miterlimit:4;stroke-dasharray:none;stroke-dashoffset:0;stroke-opacity:1"
       d="m 770.02322,618.18557 c 22.18166,-22.28904 40.67931,-38.19894 41.10588,-35.35534 0.42658,2.84359 1.46433,21.08008 2.30612,40.52551 l 1.53052,35.35534 h -42.63641 -42.63641 z"
       id="path5737"
       inkscape:connector-curvature="0"
       transform="matrix(0.26458333,0,0,0.26458333,0,-3)" />
    <path
       style="fill:#cdcdcd;fill-opacity:1;stroke:#6f6f6f;stroke-width:4.04697323;stroke-miterlimit:4;stroke-dasharray:none;stroke-dashoffset:0;stroke-opacity:1"
       d="m 649.22116,694.03143 c -8.04881,-11.6865 -14.63419,-23.50529 -14.63419,-26.26396 0,-3.66681 11.10729,-5.01578 41.29952,-5.01578 h 41.29953 l -26.03051,26.26397 c -14.31679,14.44518 -26.31619,26.26396 -26.66534,26.26396 -0.34915,0 -7.22021,-9.56168 -15.26901,-21.24819 z"
       id="path5739"
       inkscape:connector-curvature="0"
       transform="matrix(0.26458333,0,0,0.26458333,0,-3)" />
    <path
       style="fill:#cdcdcd;fill-opacity:1;stroke:#6f6f6f;stroke-width:4.04697323;stroke-miterlimit:4;stroke-dasharray:none;stroke-dashoffset:0;stroke-opacity:1"
       d="m 477.55719,752.7376 -61.78384,-87.9656 102.33574,-1.08234 c 92.62441,-0.97963 102.81504,-0.42704 107.3865,5.82304 3.16231,4.32349 5.05076,20.61585 5.05076,43.57466 v 36.66927 l -45.60266,45.47329 -45.60265,45.47329 z"
       id="path5741"
       inkscape:connector-curvature="0"
       transform="matrix(0.26458333,0,0,0.26458333,0,-3)" />
    <path
       style="fill:#cdcdcd;fill-opacity:1;stroke:#6f6f6f;stroke-width:4.04697323;stroke-miterlimit:4;stroke-dasharray:none;stroke-dashoffset:0;stroke-opacity:1"
       d="m 583.54593,903.77878 -40.93951,-58.26768 43.29882,-43.16456 43.29882,-43.16456 -1.58576,96.23667 c -0.87216,52.93017 -1.93385,98.57468 -2.35931,101.43224 -0.42545,2.85756 -19.19633,-21.02488 -41.71306,-53.07211 z"
       id="path5743"
       inkscape:connector-curvature="0"
       transform="matrix(0.26458333,0,0,0.26458333,0,-3)" />
    <path
       style="fill:#cdcdcd;fill-opacity:1;stroke:#6f6f6f;stroke-width:4.04697323;stroke-miterlimit:4;stroke-dasharray:none;stroke-dashoffset:0;stroke-opacity:1"
       d="m 632.77005,863.77205 2.70931,-110.10663 14.70609,-14.99474 14.70609,-14.99475 35.04077,49.33993 c 19.27243,27.13697 42.50392,59.72298 51.62553,72.41336 l 16.58475,23.07342 -65.74308,52.68802 c -36.15869,28.97841 -67.22711,52.68802 -69.04092,52.68802 -1.81382,0 -2.07866,-49.54799 -0.58854,-110.10663 z"
       id="path5745"
       inkscape:connector-curvature="0"
       transform="matrix(0.26458333,0,0,0.26458333,0,-3)" />
    <path
       style="fill:#cdcdcd;fill-opacity:1;stroke:#6f6f6f;stroke-width:4.04697323;stroke-miterlimit:4;stroke-dasharray:none;stroke-dashoffset:0;stroke-opacity:1"
       d="m 797.01029,900.13754 -21.24406,-29.29442 19.31394,-17.08949 c 10.62267,-9.39922 20.67765,-17.12689 22.34441,-17.1726 1.66675,-0.0457 3.03045,20.82706 3.03045,46.38392 0,25.55686 -0.49515,46.46701 -1.10034,46.46701 -0.60519,0 -10.66017,-13.18249 -22.3444,-29.29442 z"
       id="path5747"
       inkscape:connector-curvature="0"
       transform="matrix(0.26458333,0,0,0.26458333,0,-3)" />
    <path
       style="fill:#cdcdcd;fill-opacity:1;stroke:#6f6f6f;stroke-width:4.04697323;stroke-miterlimit:4;stroke-dasharray:none;stroke-dashoffset:0;stroke-opacity:1"
       d="m 634.58697,716.21207 c 0,-16.06919 0.88333,-29.21672 1.96297,-29.21672 1.07964,0 6.84696,7.3802 12.81628,16.40045 l 10.8533,16.40044 -12.81628,12.81628 -12.81627,12.81627 z"
       id="path5749"
       inkscape:connector-curvature="0"
       transform="matrix(0.26458333,0,0,0.26458333,0,-3)" />
    <path
       style="fill:#cdcdcd;fill-opacity:1;stroke:#6f6f6f;stroke-width:4.04697323;stroke-miterlimit:4;stroke-dasharray:none;stroke-dashoffset:0;stroke-opacity:1"
       d="m 424.99255,650.85319 c 9.36353,-13.27253 98.34182,-116.89624 100.59841,-117.15646 2.41478,-0.27847 88.79295,119.04351 88.79295,122.65773 0,1.29614 -43.86036,2.35662 -97.46748,2.35662 -95.75076,0 -97.36985,-0.1384 -91.92388,-7.85789 z"
       id="path5751"
       inkscape:connector-curvature="0"
       transform="matrix(0.26458333,0,0,0.26458333,0,-3)" />
    <path
       style="fill:#cdcdcd;fill-opacity:1;stroke:#6f6f6f;stroke-width:4.04697323;stroke-miterlimit:4;stroke-dasharray:none;stroke-dashoffset:0;stroke-opacity:1"
       d="m 401.19006,644.39544 c -9.11143,-13.96448 -9.13937,-14.50166 -8.08122,-155.38254 l 1.06182,-141.36962 63.63961,88.56987 c 35.00179,48.71343 63.63961,89.72386 63.63961,91.13428 0,2.17029 -85.1179,103.11292 -104.67966,124.14123 -6.02106,6.47245 -7.02808,6.01398 -15.58016,-7.09322 z"
       id="path5753"
       inkscape:connector-curvature="0"
       transform="matrix(0.26458333,0,0,0.26458333,0,-3)" />
    <path
       style="fill:#cdcdcd;fill-opacity:1;stroke:#6f6f6f;stroke-width:4.04697323;stroke-miterlimit:4;stroke-dasharray:none;stroke-dashoffset:0;stroke-opacity:1"
       d="M 312.61346,518.56689 239.13747,414.25417 288.3698,364.47706 c 27.07777,-27.37741 54.07118,-53.29672 59.98535,-57.59846 l 10.75304,-7.82136 14.55291,19.82504 14.55291,19.82503 -1.06229,142.08615 -1.06228,142.08615 z"
       id="path5755"
       inkscape:connector-curvature="0"
       transform="matrix(0.26458333,0,0,0.26458333,0,-3)" />
    <path
       style="fill:#cdcdcd;fill-opacity:1;stroke:#6f6f6f;stroke-width:4.04697323;stroke-miterlimit:4;stroke-dasharray:none;stroke-dashoffset:0;stroke-opacity:1"
       d="m 373.81087,310.99242 -11.35733,-16.38861 12.8281,-12.8281 12.8281,-12.8281 v 29.21672 c 0,16.06919 -0.66185,29.21672 -1.47077,29.21672 -0.80893,0 -6.58158,-7.37488 -12.8281,-16.38863 z"
       id="path5757"
       inkscape:connector-curvature="0"
       transform="matrix(0.26458333,0,0,0.26458333,0,-3)" />
    <path
       style="fill:none;stroke:#000000;stroke-width:0.26458332px;stroke-linecap:butt;stroke-linejoin:miter;stroke-opacity:1"
       d="M -145.39462,3.0035222 449.01281,-18.37804"
       id="path5759"
       inkscape:connector-curvature="0" />
    <path
       style="fill:none;stroke:#000000;stroke-width:0.26458332px;stroke-linecap:butt;stroke-linejoin:miter;stroke-opacity:1"
       d="m 305.75633,-75.03918 8.55263,422.28586"
       id="path5761"
       inkscape:connector-curvature="0" />
    <path
       style="fill:none;stroke:#000000;stroke-width:0.26458332px;stroke-linecap:butt;stroke-linejoin:miter;stroke-opacity:1"
       d="m -35.279578,304.48353 423.354928,1.0691"
       id="path5765"
       inkscape:connector-curvature="0" />
    <path
       style="fill:none;stroke:#000000;stroke-width:0.26458332px;stroke-linecap:butt;stroke-linejoin:miter;stroke-opacity:1"
       d="M -3.2072344,-35.48329 -6.4144686,338.69405"
       id="path5767"
       inkscape:connector-curvature="0" />
    <path
       style="fill:#cdcdcd;fill-opacity:1;stroke:#6f6f6f;stroke-width:4.04697323;stroke-miterlimit:4;stroke-dasharray:none;stroke-dashoffset:0;stroke-opacity:1"
       d="M 163.85588,301.19127 C 126.07617,246.94522 95.165506,200.30474 95.165506,197.54576 c 0,-4.61419 93.092594,-88.23858 107.172954,-96.27267 6.39474,-3.648764 16.92541,9.62542 110.26465,138.99144 l 37.72396,52.28454 -54.26877,52.77133 c -29.84782,29.02423 -56.3485,53.16029 -58.89041,53.63568 -2.5419,0.4754 -35.53231,-43.51877 -73.31201,-97.76481 z"
       id="path5769"
       inkscape:connector-curvature="0"
       transform="matrix(0.26458333,0,0,0.26458333,0,-3)" />
    <path
       style="fill:#cdcdcd;fill-opacity:1;stroke:#6f6f6f;stroke-width:4.04697323;stroke-miterlimit:4;stroke-dasharray:none;stroke-dashoffset:0;stroke-opacity:1"
       d="m 392.15035,125.32129 c 0,-123.4705668 0.36855,-129.9714569 7.07107,-124.72792588 3.88909,3.04251968 34.81803,31.76633788 68.73099,63.83070788 l 61.65992,58.298848 -9.13199,9.80904 c -5.02259,5.39497 -35.95154,35.28805 -68.73099,66.42907 l -59.599,56.62004 z"
       id="path5771"
       inkscape:connector-curvature="0"
       transform="matrix(0.26458333,0,0,0.26458333,0,-3)" />
    <path
       style="fill:#cdcdcd;fill-opacity:1;stroke:#6f6f6f;stroke-width:4.04697323;stroke-miterlimit:4;stroke-dasharray:none;stroke-dashoffset:0;stroke-opacity:1"
       d="m 466.13916,55.603198 -65.41225,-61.5724907 16.92493,-2.5097329 c 9.30871,-1.3803532 61.92722,-3.8370684 116.93002,-5.4593684 l 100.00511,-2.949635 V 3.124724 23.137477 l -50.12522,47.06592 C 556.89288,96.089655 533.70988,117.24825 532.94397,117.2225 532.17806,117.19664 502.1159,89.468069 466.13916,55.603198 Z"
       id="path5773"
       inkscape:connector-curvature="0"
       transform="matrix(0.26458333,0,0,0.26458333,0,-3)" />
    <path
       style="fill:#cdcdcd;fill-opacity:1;stroke:#6f6f6f;stroke-width:4.04697323;stroke-miterlimit:4;stroke-dasharray:none;stroke-dashoffset:0;stroke-opacity:1"
       d="m 808.3332,138.10475 c 0,-30.7777 -1.1989,-73.057822 -2.66422,-93.955831 l -2.66422,-37.9963812 41.1246,49.8827142 41.1246,49.882718 -25.19895,28.90918 c -13.85942,15.90005 -31.16659,35.73295 -38.46038,44.07311 l -13.26143,15.16393 z"
       id="path5775"
       inkscape:connector-curvature="0"
       transform="matrix(0.26458333,0,0,0.26458333,0,-3)" />
    <path
       style="fill:#cdcdcd;fill-opacity:1;stroke:#6f6f6f;stroke-width:4.04697323;stroke-miterlimit:4;stroke-dasharray:none;stroke-dashoffset:0;stroke-opacity:1"
       d="M 845.70885,50.13222 C 815.12352,12.636921 804.29259,-3.6006438 804.29259,-11.958427 v -11.317455 l 75.76144,-2.491142 c 41.6688,-1.370128 86.29331,-3.220078 99.16558,-4.110999 l 23.40419,-1.619856 -21.57123,24.8861236 C 969.18842,7.0756112 943.46642,36.911683 923.89256,59.690623 c -19.57385,22.77894 -35.85401,41.370927 -36.17814,41.315517 -0.32413,-0.0554 -19.22663,-22.948665 -42.00557,-50.87392 z"
       id="path5777"
       inkscape:connector-curvature="0"
       transform="matrix(0.26458333,0,0,0.26458333,0,-3)" />
    <path
       style="fill:#cdcdcd;fill-opacity:1;stroke:#6f6f6f;stroke-width:4.04697323;stroke-miterlimit:4;stroke-dasharray:none;stroke-dashoffset:0;stroke-opacity:1"
       d="m 978.67768,211.66697 c -47.0765,-57.30628 -85.11613,-105.52542 -84.5325,-107.15364 0.58363,-1.62821 26.51699,-32.95512 57.62968,-69.61535 l 56.56854,-66.654963 32.7065,-0.238138 c 17.9885,-0.130976 51.8025,-1.40654 75.1421,-2.834587 l 42.4357,-2.596451 2.3657,126.845211 2.3657,126.845218 -49.5439,49.79798 -49.5439,49.79797 z"
       id="path5779"
       inkscape:connector-curvature="0"
       transform="matrix(0.26458333,0,0,0.26458333,0,-3)" />
    <path
       style="fill:#cdcdcd;fill-opacity:1;stroke:#6f6f6f;stroke-width:4.04697323;stroke-miterlimit:4;stroke-dasharray:none;stroke-dashoffset:0;stroke-opacity:1"
       d="m 1116.8429,380.06424 -49.0844,-59.69452 47.4359,-47.31229 47.4358,-47.31229 2.8409,105.85745 c 1.5624,58.22159 2.3042,106.37466 1.6484,107.00681 -0.6557,0.63216 -23.2803,-25.71317 -50.2766,-58.54516 z"
       id="path5781"
       inkscape:connector-curvature="0"
       transform="matrix(0.26458333,0,0,0.26458333,0,-3)" />
    <path
       style="fill:#cdcdcd;fill-opacity:1;stroke:#6f6f6f;stroke-width:4.04697323;stroke-miterlimit:4;stroke-dasharray:none;stroke-dashoffset:0;stroke-opacity:1"
       d="m 956.07138,1121.325 c -16.82144,-23.3543 -31.03362,-44.0664 -31.58262,-46.0268 -1.18452,-4.23 247.27744,-179.75994 250.24654,-176.79078 1.1219,1.12186 2.8185,49.90458 3.7703,108.40608 0.9518,58.5014 2.3928,117.7304 3.2022,131.62 l 1.4716,25.2539 h -98.2618 -98.26177 z"
       id="path5783"
       inkscape:connector-curvature="0"
       transform="matrix(0.26458333,0,0,0.26458333,0,-3)" />
    <path
       style="fill:#cdcdcd;fill-opacity:1;stroke:#6f6f6f;stroke-width:4.04697323;stroke-miterlimit:4;stroke-dasharray:none;stroke-dashoffset:0;stroke-opacity:1"
       d="m 7.3594043,1136.5132 c 11.0383127,-12.7784 55.8739117,-65.0538 99.6346657,-116.1675 43.76075,-51.11373 81.09374,-93.47961 82.9622,-94.14641 1.86845,-0.6668 30.99488,30.07418 64.72541,68.31329 l 61.32822,69.52562 -47.72958,47.8543 -47.72957,47.8542 H 103.92024 -12.710255 Z"
       id="path5785"
       inkscape:connector-curvature="0"
       transform="matrix(0.26458333,0,0,0.26458333,0,-3)" />
    <path
       style="fill:#cdcdcd;fill-opacity:1;stroke:#6f6f6f;stroke-width:4.04697323;stroke-miterlimit:4;stroke-dasharray:none;stroke-dashoffset:0;stroke-opacity:1"
       d="m 272.95235,1115.3 c 24.36989,-24.4457 45.41006,-44.4467 46.75592,-44.4467 4.02288,0 72.44208,79.8656 72.44208,84.5615 0,2.9394 -26.27988,4.3319 -81.75344,4.3319 h -81.75345 z"
       id="path5787"
       inkscape:connector-curvature="0"
       transform="matrix(0.26458333,0,0,0.26458333,0,-3)" />
    <path
       style="fill:#cdcdcd;fill-opacity:1;stroke:#6f6f6f;stroke-width:4.04697323;stroke-miterlimit:4;stroke-dasharray:none;stroke-dashoffset:0;stroke-opacity:1"
       d="m 828.69018,1150.6554 c 0.14101,-12.0302 3.66561,-15.5899 42.00886,-42.4264 23.02022,-16.112 43.46635,-29.2945 45.43586,-29.2945 2.91449,0 48.19332,60.8332 59.39755,79.8021 2.34278,3.9663 -13.11729,5.0508 -72.00644,5.0508 h -74.98976 z"
       id="path5789"
       inkscape:connector-curvature="0"
       transform="matrix(0.26458333,0,0,0.26458333,0,-3)" />
    <path
       style="fill:#cdcdcd;fill-opacity:1;stroke:#6f6f6f;stroke-width:4.04697323;stroke-miterlimit:4;stroke-dasharray:none;stroke-dashoffset:0;stroke-opacity:1"
       d="m -19.434982,1007.4435 c 0.306295,-84.01956 1.670003,-189.93205 3.030458,-235.36109 l 2.473556,-82.59827 98.994949,112.60585 c 54.447219,61.93322 98.804939,114.63716 98.572709,117.11987 -0.23221,2.4827 -46.14366,57.72255 -102.025406,122.75524 l -101.603168,118.2412 z"
       id="path5791"
       inkscape:connector-curvature="0"
       transform="matrix(0.26458333,0,0,0.26458333,0,-3)" />
    <path
       style="fill:#cdcdcd;fill-opacity:1;stroke:#6f6f6f;stroke-width:4.04697323;stroke-miterlimit:4;stroke-dasharray:none;stroke-dashoffset:0;stroke-opacity:1"
       d="m -11.910663,169.41708 c 0,-56.09007 0.75689,-101.22434 1.681979,-100.298367 3.9453224,3.949094 84.319483,119.247727 85.809935,123.096387 1.359423,3.5103 -40.043271,41.52899 -78.2121851,71.8196 l -9.2797289,7.36434 z"
       id="path5793"
       inkscape:connector-curvature="0"
       transform="matrix(0.26458333,0,0,0.26458333,0,-3)" />
    <path
       style="fill:#cdcdcd;fill-opacity:1;stroke:#6f6f6f;stroke-width:4.04697323;stroke-miterlimit:4;stroke-dasharray:none;stroke-dashoffset:0;stroke-opacity:1"
       d="M 34.894714,123.7241 -11.910663,57.389204 V 30.760719 4.1322327 h 35.736922 c 19.65531,0 54.758393,-1.1638391 78.006851,-2.5863093 l 42.26993,-2.5863091 29.06932,40.7156847 c 15.98812,22.393627 29.06932,42.4453 29.06932,44.559275 0,3.366778 -103.447609,95.283936 -115.829186,102.918656 -3.030575,1.86871 -21.416947,-20.76875 -51.51778,-63.42913 z"
       id="path5795"
       inkscape:connector-curvature="0"
       transform="matrix(0.26458333,0,0,0.26458333,0,-3)" />
    <path
       style="fill:#cdcdcd;fill-opacity:1;stroke:#6f6f6f;stroke-width:4.04697323;stroke-miterlimit:4;stroke-dasharray:none;stroke-dashoffset:0;stroke-opacity:1"
       d="M 180.61008,42.126672 C 165.37921,20.949178 153.77997,2.7597514 154.83399,1.7057227 c 1.05403,-1.05402833 36.24409,-2.9795056 78.20014,-4.2788381 66.7049,-2.0657776 75.52266,-1.626535 70.2228,3.49803946 C 290.6758,13.089958 211.36131,80.897947 209.86565,80.767516 209.00597,80.692543 195.84096,63.304165 180.61008,42.126672 Z"
       id="path5797"
       inkscape:connector-curvature="0"
       transform="matrix(0.26458333,0,0,0.26458333,0,-3)" />
    <path
       style="fill:#cdcdcd;fill-opacity:1;stroke:#6f6f6f;stroke-width:4.04697323;stroke-miterlimit:4;stroke-dasharray:none;stroke-dashoffset:0;stroke-opacity:1"
       d=""
       id="path5799"
       inkscape:connector-curvature="0"
       transform="matrix(0.26458333,0,0,0.26458333,0,-3)" />
    <path
       style="fill:#cdcdcd;fill-opacity:1;stroke:#6f6f6f;stroke-width:4.04697323;stroke-miterlimit:4;stroke-dasharray:none;stroke-dashoffset:0;stroke-opacity:1"
       d=""
       id="path5801"
       inkscape:connector-curvature="0"
       transform="matrix(0.26458333,0,0,0.26458333,0,-3)" />
    <path
       style="fill:#cdcdcd;fill-opacity:1;stroke:#6f6f6f;stroke-width:4.04697323;stroke-miterlimit:4;stroke-dasharray:none;stroke-dashoffset:0;stroke-opacity:1"
       d=""
       id="path5803"
       inkscape:connector-curvature="0"
       transform="matrix(0.26458333,0,0,0.26458333,0,-3)" />
    <path
       style="fill:#cdcdcd;fill-opacity:1;stroke:#6f6f6f;stroke-width:4.04697323;stroke-miterlimit:4;stroke-dasharray:none;stroke-dashoffset:0;stroke-opacity:1"
       d="m 392.15035,-39.646178 v -28.533541 l 100.958,-87.082641 c 55.5269,-47.89544 102.34747,-86.99102 104.04571,-86.87906 1.69825,0.11196 33.5766,37.54865 70.84079,83.19264 l 67.75307,82.989076 -27.34697,25.729264 c -26.23829,24.686169 -28.19709,25.736344 -48.31626,25.903835 l -20.96929,0.174566 -1.58498,-15.152288 -1.58498,-15.152288 -0.67924,16.642429 -0.67923,16.642429 -104.04572,2.726082 c -57.22514,1.499346 -111.77338,3.762649 -121.2183,5.029562 l -17.1726,2.303479 z"
       id="path5805"
       inkscape:connector-curvature="0"
       transform="matrix(0.26458333,0,0,0.26458333,0,-3)" />
    <path
       style="fill:#cdcdcd;fill-opacity:1;stroke:#6f6f6f;stroke-width:1.43082106;stroke-miterlimit:4;stroke-dasharray:none;stroke-dashoffset:0;stroke-opacity:1"
       d="M 638.95415,-0.2860983 V -18.998875 h 6.92339 c 3.80787,0 12.96858,-0.397969 20.35714,-0.884376 l 13.43375,-0.884375 -12.14285,12.4175354 C 660.847,-1.5204454 651.68629,7.2982731 647.16843,11.247063 l -8.21428,7.179617 z"
       id="path5807"
       inkscape:connector-curvature="0"
       transform="matrix(0.26458333,0,0,0.26458333,0,-3)" />
    <path
       style="fill:#cdcdcd;fill-opacity:1;stroke:#6f6f6f;stroke-width:1.43082106;stroke-miterlimit:4;stroke-dasharray:none;stroke-dashoffset:0;stroke-opacity:1"
       d="m 391.81129,648.58171 v -10.99084 l 7.14286,10.13836 c 3.92857,5.5761 7.14285,10.52198 7.14285,10.99084 0,0.46887 -3.21428,0.85248 -7.14285,0.85248 h -7.14286 z"
       id="path5809"
       inkscape:connector-curvature="0"
       transform="matrix(0.26458333,0,0,0.26458333,0,-3)" />
    <path
       style="fill:#cdcdcd;fill-opacity:1;stroke:#6f6f6f;stroke-width:1.43082106;stroke-miterlimit:4;stroke-dasharray:none;stroke-dashoffset:0;stroke-opacity:1"
       d="m 391.81129,671.71541 v -9.28571 h 8.69223 8.69223 l -8.1524,9.28571 c -4.48382,5.10714 -8.39533,9.28571 -8.69223,9.28571 -0.29691,0 -0.53983,-4.17857 -0.53983,-9.28571 z"
       id="path5811"
       inkscape:connector-curvature="0"
       transform="matrix(0.26458333,0,0,0.26458333,0,-3)" />
    <path
       style="fill:#cdcdcd;fill-opacity:1;stroke:#6f6f6f;stroke-width:1.43082106;stroke-miterlimit:4;stroke-dasharray:none;stroke-dashoffset:0;stroke-opacity:1"
       d="m 790.50177,1163.3383 c 0.32738,-0.2859 5.41666,-3.91 11.30952,-8.0535 5.89286,-4.1434 13.76786,-9.7499 17.5,-12.4589 l 6.78571,-4.9253 v 12.9789 12.9788 h -18.09523 c -9.95238,0 -17.82738,-0.234 -17.5,-0.52 z"
       id="path5813"
       inkscape:connector-curvature="0"
       transform="matrix(0.26458333,0,0,0.26458333,0,-3)" />
    <path
       style="fill:#cdcdcd;fill-opacity:1;stroke:#6f6f6f;stroke-width:1.01174331;stroke-miterlimit:4;stroke-dasharray:none;stroke-dashoffset:0;stroke-opacity:1"
       d="m 395.02929,1162.6609 c 0.97227,-0.254 2.56326,-0.254 3.53553,0 0.97227,0.2541 0.17678,0.462 -1.76776,0.462 -1.94455,0 -2.74004,-0.2079 -1.76777,-0.462 z"
       id="path5815"
       inkscape:connector-curvature="0"
       transform="matrix(0.26458333,0,0,0.26458333,0,-3)" />
    <path
       style="fill:#cdcdcd;fill-opacity:1;stroke:#6f6f6f;stroke-width:1.01174331;stroke-miterlimit:4;stroke-dasharray:none;stroke-dashoffset:0;stroke-opacity:1"
       d="m 392.50391,1145.8495 c -0.41669,-1.0177 -0.70781,-4.1997 -0.64694,-7.071 l 0.11068,-5.2207 0.91631,4.5457 c 1.0964,5.4391 0.83733,10.7193 -0.38005,7.746 z"
       id="path5817"
       inkscape:connector-curvature="0"
       transform="matrix(0.26458333,0,0,0.26458333,0,-3)" />
    <path
       style="fill:#cdcdcd;fill-opacity:1;stroke:#6f6f6f;stroke-width:1.01174331;stroke-miterlimit:4;stroke-dasharray:none;stroke-dashoffset:0;stroke-opacity:1"
       d="m 377.38548,1162.6114 c 2.93544,-0.2047 7.48113,-0.2026 10.10153,0 2.6204,0.2074 0.21867,0.3749 -5.33717,0.3722 -5.55583,0 -7.6998,-0.1722 -4.76436,-0.3769 z"
       id="path5819"
       inkscape:connector-curvature="0"
       transform="matrix(0.26458333,0,0,0.26458333,0,-3)" />
    <path
       style="fill:#cdcdcd;fill-opacity:1;stroke:#6f6f6f;stroke-width:1.01174331;stroke-miterlimit:4;stroke-dasharray:none;stroke-dashoffset:0;stroke-opacity:1"
       d="m 628.39712,966.37752 c 0,-2.50013 0.19699,-3.52291 0.43777,-2.27284 0.24077,1.25006 0.24077,3.29562 0,4.54569 -0.24078,1.25006 -0.43777,0.22728 -0.43777,-2.27285 z"
       id="path5821"
       inkscape:connector-curvature="0"
       transform="matrix(0.26458333,0,0,0.26458333,0,-3)" />
    <path
       style="fill:#ebebeb;fill-opacity:1;stroke:#6f6f6f;stroke-width:1.01174331;stroke-miterlimit:4;stroke-dasharray:none;stroke-dashoffset:0;stroke-opacity:1"
       d="m 631.44136,667.87744 c 0.008,-2.77791 0.20377,-3.79444 0.43595,-2.25895 0.23219,1.5355 0.22599,3.80834 -0.0138,5.05076 -0.23977,1.24243 -0.42974,-0.0139 -0.42216,-2.79181 z"
       id="path5823"
       inkscape:connector-curvature="0"
       transform="matrix(0.26458333,0,0,0.26458333,0,-3)" />
    <path
       style="fill:#ffffff;fill-opacity:1;stroke:#6f6f6f;stroke-width:2.02348661;stroke-miterlimit:4;stroke-dasharray:none;stroke-dashoffset:0;stroke-opacity:1"
       d="m -54.173012,630.45499 c -14.021598,-15.2528 -46.750538,-51.89509 -72.730978,-81.42729 -86.4286,-98.24411 -83.54204,-94.73659 -80.3815,-97.67294 1.56186,-1.45107 39.20524,-33.8521 83.65196,-72.00227 44.446707,-38.15018 86.601175,-74.38907 93.67659,-80.53087 l 12.864392,-11.1669 -1.47037,181.7776 c -1.291421,159.6548 -1.850183,182.20789 -4.591216,185.31314 -1.716467,1.94455 -3.661797,3.51448 -4.322956,3.48873 -0.661157,-0.0257 -12.674323,-12.52638 -26.695922,-27.7792 z"
       id="path5825"
       inkscape:connector-curvature="0"
       transform="matrix(0.26458333,0,0,0.26458333,0,-3)" />
    <path
       style="fill:#ffffff;fill-opacity:1;stroke:#6f6f6f;stroke-width:2.02348661;stroke-miterlimit:4;stroke-dasharray:none;stroke-dashoffset:0;stroke-opacity:1"
       d="m 394.57472,-40.31279 v -26.337267 l 77.27667,-66.419513 c 118.9131,-102.20615 124.8258,-107.00298 127.51645,-103.45099 1.25848,1.66135 9.7975,11.7596 18.97561,22.44055 9.1781,10.68095 38.56336,46.09595 65.30058,78.70001 l 48.61313,59.280095 -15.80311,14.756578 c -33.76516,31.529117 -39.48838,34.708653 -62.51416,34.729624 l -12.36586,0.01212 -1.39353,-14.142136 c -1.01633,-10.314116 -2.18071,-14.142136 -4.30165,-14.142136 -2.25131,-8.48e-4 -2.90813,3.166295 -2.90813,14.022055 0,8.714014 -0.91625,14.589183 -2.4202,15.518665 -1.3311,0.822668 -29.74164,2.212173 -63.13453,3.087773 -79.53123,2.08542 -158.47445,5.408478 -166.46903,7.007388 l -6.37224,1.274449 z"
       id="path5827"
       inkscape:connector-curvature="0"
       transform="matrix(0.26458333,0,0,0.26458333,0,-3)" />
    <path
       style="fill:#ffffff;fill-opacity:1;stroke:#6f6f6f;stroke-width:2.02348661;stroke-miterlimit:4;stroke-dasharray:none;stroke-dashoffset:0;stroke-opacity:1"
       d="m 1172.3922,498.63786 v -38.85714 l 18.6878,22.74696 c 10.2783,12.51083 18.8798,23.76259 19.1144,25.00393 0.4236,2.24112 -28.9298,26.55871 -34.7585,28.79539 -2.6464,1.01553 -3.0437,-3.90416 -3.0437,-37.68914 z"
       id="path5829"
       inkscape:connector-curvature="0"
       transform="matrix(0.26458333,0,0,0.26458333,0,-3)" />
    <path
       style="fill:#ffffff;fill-opacity:1;stroke:#6f6f6f;stroke-width:2.02348661;stroke-miterlimit:4;stroke-dasharray:none;stroke-dashoffset:0;stroke-opacity:1"
       d="m 1225.4864,769.72014 -48.8982,-45.77923 -0.078,-29.7995 -0.078,-29.7995 h 28.165 c 17.7687,0 28.6566,-0.79535 29.4968,-2.15472 0.7324,-1.18509 0.9875,-2.49882 0.567,-2.91939 -0.4206,-0.42057 -13.5717,-1.39858 -29.2246,-2.17335 l -28.4599,-1.40868 -1.2823,-15.16965 c -0.7053,-8.3433 -1.2823,-31.79669 -1.2823,-52.11863 v -36.94898 l 19.698,-15.25463 c 10.8338,-8.39005 20.7399,-15.26341 22.0134,-15.27413 3.7418,-0.0315 29.3834,28.39392 69.3748,76.90654 52.0596,63.15222 105.0864,129.38479 105.0864,131.25709 0,2.53461 -32.4494,27.50425 -73.7411,56.74329 -21.1122,14.94976 -39.3024,27.7419 -40.4226,28.42703 -1.1203,0.68511 -24.041,-19.35501 -50.935,-44.53356 z"
       id="path5831"
       inkscape:connector-curvature="0"
       transform="matrix(0.26458333,0,0,0.26458333,0,-3)" />
    <path
       style="fill:#ffffff;fill-opacity:1;stroke:#6f6f6f;stroke-width:2.02348661;stroke-miterlimit:4;stroke-dasharray:none;stroke-dashoffset:0;stroke-opacity:1"
       d="m 1179.5428,835.65516 c -0.7626,-24.7743 -1.0924,-56.17952 -0.733,-69.78938 l 0.6534,-24.74521 41.9214,39.51284 c 23.0567,21.73207 41.9213,40.28243 41.9213,41.22304 0,1.40131 -76.2628,56.26913 -80.9574,58.24542 -0.7806,0.3286 -2.0432,-19.67242 -2.8057,-44.44671 z"
       id="path5833"
       inkscape:connector-curvature="0"
       transform="matrix(0.26458333,0,0,0.26458333,0,-3)" />
    <path
       style="fill:#ffffff;fill-opacity:1;stroke:#6f6f6f;stroke-width:2.02348661;stroke-miterlimit:4;stroke-dasharray:none;stroke-dashoffset:0;stroke-opacity:1"
       d="m 977.87241,1146.6898 c -14.15507,-19.1424 -45.78865,-64.2123 -48.10295,-68.5346 -1.48702,-2.7773 3.50054,-7.3048 27.97759,-25.3971 41.94094,-31.0008 134.40915,-96.43592 177.36335,-125.51112 l 36.2716,-24.55189 1.3584,12.64832 c 0.7471,6.95657 2.3591,60.83259 3.5822,119.72449 1.2231,58.8919 2.7745,111.3946 3.4476,116.6726 l 1.2238,9.5965 h -96.1453 -96.14523 z"
       id="path5835"
       inkscape:connector-curvature="0"
       transform="matrix(0.26458333,0,0,0.26458333,0,-3)" />
    <path
       style="fill:#ffffff;fill-opacity:1;stroke:#6f6f6f;stroke-width:2.02348661;stroke-miterlimit:4;stroke-dasharray:none;stroke-dashoffset:0;stroke-opacity:1"
       d="m 634.30058,1228.7563 c -0.73142,-18.5457 -1.32986,-40.3928 -1.32986,-48.5491 v -14.8296 h 62.3971 62.39711 l 2.97329,4.5457 c 2.92284,4.4685 1.91024,5.2827 -59.67599,47.9822 -34.4571,23.8901 -63.27535,43.6917 -64.04053,44.0034 -0.76519,0.3118 -1.98969,-14.6069 -2.72112,-33.1526 z"
       id="path5837"
       inkscape:connector-curvature="0"
       transform="matrix(0.26458333,0,0,0.26458333,0,-3)" />
    <path
       style="fill:#ffffff;fill-opacity:1;stroke:#6f6f6f;stroke-width:2.02348661;stroke-miterlimit:4;stroke-dasharray:none;stroke-dashoffset:0;stroke-opacity:1"
       d="m 548.11791,1314.864 c -2.77792,-3.166 -16.78469,-18.7765 -31.12616,-34.6899 -30.2598,-33.5766 -98.17337,-112.286 -98.17337,-113.7794 0,-0.5594 45.91143,-1.0171 102.02541,-1.0171 H 622.8692 v 54.2182 54.2183 l -34.20773,23.5635 c -18.81425,12.9599 -34.49687,23.4913 -34.85027,23.4031 -0.35339,-0.088 -2.91537,-2.7506 -5.69329,-5.9167 z"
       id="path5839"
       inkscape:connector-curvature="0"
       transform="matrix(0.26458333,0,0,0.26458333,0,-3)" />
    <path
       style="fill:#ffffff;fill-opacity:1;stroke:#6f6f6f;stroke-width:2.02348661;stroke-miterlimit:4;stroke-dasharray:none;stroke-dashoffset:0;stroke-opacity:1"
       d="m 334.19446,-15.058332 c 2.90381,-2.460166 9.54304,-8.031133 14.75385,-12.379925 l 9.47419,-7.906894 11.09489,10.937352 11.09489,10.937352 -10.69645,1.315427 c -5.88305,0.723485 -17.51498,1.372642 -25.84874,1.442573 l -15.15228,0.127137 5.27965,-4.47303 z"
       id="path5841"
       inkscape:connector-curvature="0"
       transform="matrix(0.26458333,0,0,0.26458333,0,-3)" />
    <path
       style="fill:#bababa;fill-opacity:1;stroke:#6f6f6f;stroke-width:2.02348661;stroke-miterlimit:4;stroke-dasharray:none;stroke-dashoffset:0;stroke-opacity:1"
       d="m 715.66604,-46.007424 23.14235,-22.466018 16.4642,20.430429 16.46421,20.430431 -10.28912,1.328116 c -5.65901,0.730463 -23.48196,1.64648 -39.60655,2.035589 l -29.31744,0.707472 z"
       id="path5843"
       inkscape:connector-curvature="0"
       transform="matrix(0.26458333,0,0,0.26458333,0,-3)" />
    <path
       style="fill:#ffffff;fill-opacity:1;stroke:#6f6f6f;stroke-width:2.02348661;stroke-miterlimit:4;stroke-dasharray:none;stroke-dashoffset:0;stroke-opacity:1"
       d="m 960.57313,1119.0691 c -15.72849,-22.1362 -28.59726,-41.1145 -28.59726,-42.174 0,-1.0595 7.04582,-7.3629 15.65737,-14.0076 32.26581,-24.8961 186.85346,-133.86228 215.97846,-152.23941 l 6.3718,-4.02044 1.2061,18.76326 c 0.6633,10.31979 2.1094,59.21987 3.2136,108.66679 1.1042,49.447 2.5354,97.8586 3.1804,107.5813 l 1.1728,17.6777 h -94.793 -94.79302 z"
       id="path5845"
       inkscape:connector-curvature="0"
       transform="matrix(0.26458333,0,0,0.26458333,0,-3)" />
    <path
       style="fill:#ffffff;fill-opacity:1;stroke:#6f6f6f;stroke-width:2.02348661;stroke-miterlimit:4;stroke-dasharray:none;stroke-dashoffset:0;stroke-opacity:1"
       d="m 717.84662,-45.721446 20.34926,-20.276933 5.95502,7.071068 c 3.27527,3.889087 10.05513,12.221094 15.06636,18.515571 l 9.11134,11.444501 -14.64593,1.148996 c -8.05526,0.631947 -23.99229,1.424559 -35.41562,1.761362 l -20.76969,0.612367 z"
       id="path5847"
       inkscape:connector-curvature="0"
       transform="matrix(0.26458333,0,0,0.26458333,0,-3)" />
    <path
       style="fill:#cdcdcd;fill-opacity:1;stroke:#6f6f6f;stroke-width:2.02348661;stroke-miterlimit:4;stroke-dasharray:none;stroke-dashoffset:0;stroke-opacity:1"
       d="m 961.6986,1117.3444 -27.85597,-39.8501 8.66307,-7.6328 c 14.66857,-12.9241 220.8705,-159.04237 224.4404,-159.04237 1.9133,0 3.4232,32.60257 5.4267,117.17767 1.0924,46.1135 2.5424,94.0705 3.2224,106.5711 l 1.2362,22.7285 -93.6384,-0.051 -93.63843,-0.051 z"
       id="path5849"
       inkscape:connector-curvature="0"
       transform="matrix(0.26458333,0,0,0.26458333,0,-3)" />
  </g>
</svg>
