<?xml version="1.0" standalone="no"?>
<!-- the width and height set the total pixel output of the image in the browser -->
<!-- whatever is within the viewbox will be remapped to show in this size -->
<svg width="1000" height="1000" viewBox="1 0  1200 1200"  version="1.1" xmlns="http://www.w3.org/2000/svg" xmlns:xlink="http://www.w3.org/1999/xlink">
 <desc>ID (and file name) = Fol_.93_0.svg  mode = Single Point </desc> 
<g transform = "scale(1 1)">

<text x = "-850" y="50" transform="rotate(-90)"  font-family="sans-serif" font-size="40" stroke ="lightgray" fill="none"> PointDistanceFollower   Jan 31 2020</text>
 <text x="200"  y="30"  font-family="sans-serif" font-size="20" >Fol_.93_0.svg</text>
<text x="300" y="60"   font-family="sans-serif" font-size="20" fill="lightblue">  S6  </text>
<text x="300" y="85"   font-family="sans-serif" font-size="20" fill="olive">  CS6Dist  </text>
<text x="300" y="110"   font-family="sans-serif" font-size="20" fill="black">  LM  </text>



 <!--DISTANCE PLOT BEGINS   mode = Single Point-->


<!-- the following will scale and place the distance plot -->
<g transform="translate(150,975) scale(1 -1)">
   <polyline fill="none" stroke=" lightblue " stroke-width=" 12 " stroke-dasharray = " 10,5 " points=" 7.92079,0 15.8416,21.4192 23.7624,42.8383 31.6832,64.2575 39.604,85.6767 47.5248,107.096 55.4455,128.515 63.3663,149.934 71.2871,156.174 79.2079,163.4 87.1287,172.992 95.0495,187.24 102.97,205.72 110.891,226.19 118.812,248.158 126.733,271.26 134.653,295.231 142.574,319.874 150.495,345.046 158.416,370.64 166.337,396.573 174.257,422.783 182.178,449.221 190.099,475.85 198.02,502.64 205.941,529.565 213.861,556.606 221.782,583.748 229.703,610.976 237.624,638.28 245.545,640.261 253.465,633.571 261.386,628.069 269.307,623.786 277.228,620.746 285.149,618.968 293.069,618.463 300.99,619.234 308.911,621.276 316.832,624.578 324.752,629.118 332.673,634.871 340.594,641.804 348.515,649.878 356.436,659.053 364.356,669.283 372.277,680.52 380.198,692.715 388.119,705.819 396.04,719.782 403.96,719.782 411.881,705.819 419.802,692.715 427.723,680.52 435.644,669.283 443.564,659.053 451.485,649.878 459.406,641.804 467.327,634.871 475.248,629.118 483.168,624.578 491.089,621.276 499.01,619.234 506.931,618.463 514.851,618.968 522.772,620.746 530.693,623.786 538.614,628.069 546.535,633.571 554.455,640.261 562.376,638.28 570.297,610.976 578.218,583.748 586.139,556.606 594.059,529.565 601.98,502.64 609.901,475.85 617.822,449.221 625.743,422.783 633.663,396.573 641.584,370.64 649.505,345.046 657.426,319.874 665.347,295.231 673.267,271.26 681.188,248.158 689.109,226.19 697.03,205.72 704.95,187.24 712.871,172.992 720.792,163.4 728.713,156.174 736.634,149.934 744.554,128.515 752.475,107.096 760.396,85.6767 768.317,64.2575 776.238,42.8383 784.158,21.4192 792.079,0 " />

   <polyline fill="none" stroke=" olive " stroke-width=" 3 " stroke-dasharray = " 5,10 " points=" 7.92079,3.05176e-05 15.8416,21.4192 23.7624,42.8383 31.6832,64.2575 39.604,85.6767 47.5248,107.096 55.4455,128.515 63.3663,149.934 71.2871,164.061 79.2079,168.4 87.1287,174.558 95.0495,187.24 102.97,205.72 110.891,226.19 118.812,248.158 126.733,271.26 134.653,295.231 142.574,319.874 150.495,345.046 158.416,370.64 166.337,396.573 174.257,422.783 182.178,449.221 190.099,475.85 198.02,502.64 205.941,529.565 213.861,556.606 221.782,583.748 229.703,610.976 237.624,638.28 245.545,640.261 253.465,633.571 261.386,628.069 269.307,623.786 277.228,620.746 285.149,618.968 293.069,618.463 300.99,619.234 308.911,621.276 316.832,624.578 324.752,629.118 332.673,634.871 340.594,641.804 348.515,649.878 356.436,659.053 364.356,669.283 372.277,680.52 380.198,692.715 388.119,705.819 396.04,719.782 403.96,719.782 411.881,705.819 419.802,692.715 427.723,680.52 435.644,669.283 443.564,659.053 451.485,649.878 459.406,641.804 467.327,634.871 475.248,629.118 483.168,624.578 491.089,621.276 499.01,619.234 506.931,618.463 514.851,618.968 522.772,620.746 530.693,623.786 538.614,628.069 546.535,633.571 554.455,640.261 562.376,638.28 570.297,610.976 578.218,583.748 586.139,556.606 594.059,529.565 601.98,502.64 609.901,475.85 617.822,449.221 625.743,422.783 633.663,396.573 641.584,370.64 649.505,345.046 657.426,319.874 665.347,295.231 673.267,271.26 681.188,248.158 689.109,226.19 697.03,205.72 704.95,187.24 712.871,174.558 720.792,168.4 728.713,164.061 736.634,149.934 744.554,128.515 752.475,107.096 760.396,85.6767 768.317,64.2575 776.238,42.8383 784.158,21.4192 792.079,3.05176e-05 " />

   <polyline fill="none" stroke=" black " stroke-width=" 3 " stroke-dasharray = "  " points=" 7.92079,0 15.8416,21.4192 23.7624,42.8383 31.6832,64.2575 39.604,85.6767 47.5248,107.096 55.4455,128.515 63.3663,147.66 71.2871,150.826 79.2079,158.974 87.1287,171.394 95.0495,187.24 102.97,205.72 110.891,226.19 118.812,248.158 126.733,271.26 134.653,295.231 142.574,319.874 150.495,345.046 158.416,370.64 166.337,396.573 174.257,422.783 182.178,449.221 190.099,475.85 198.02,502.64 205.941,529.565 213.861,553.011 221.782,570.47 229.703,588.191 237.624,606.151 245.545,624.329 253.465,633.571 261.386,628.069 269.307,623.786 277.228,620.746 285.149,618.968 293.069,618.463 300.99,619.234 308.911,621.276 316.832,624.578 324.752,629.118 332.673,634.871 340.594,641.804 348.515,649.878 356.436,659.053 364.356,669.283 372.277,680.52 380.198,692.715 388.119,705.819 396.04,719.782 403.96,719.782 411.881,705.819 419.802,692.715 427.723,680.52 435.644,669.283 443.564,659.053 451.485,649.878 459.406,641.804 467.327,634.871 475.248,629.118 483.168,624.578 491.089,621.276 499.01,619.234 506.931,618.463 514.851,618.968 522.772,620.746 530.693,623.786 538.614,628.069 546.535,633.571 554.455,624.329 562.376,606.151 570.297,588.191 578.218,570.47 586.139,553.011 594.059,529.565 601.98,502.64 609.901,475.85 617.822,449.221 625.743,422.783 633.663,396.573 641.584,370.64 649.505,345.046 657.426,319.874 665.347,295.231 673.267,271.26 681.188,248.158 689.109,226.19 697.03,205.72 704.95,187.24 712.871,171.394 720.792,158.974 728.713,150.826 736.634,147.66 744.554,128.515 752.475,107.096 760.396,85.6767 768.317,64.2575 776.238,42.8383 784.158,21.4192 792.079,0 " />


<!--Draw Glitches -->

<line fill="none" stroke="black" stroke-width="4" x1="744.554" y1="118.515" x2="744.554" y2="68.515"  stroke-dasharray = "10,5" />
<text transform="scale(1,-1)" font-family="sans-serif" font-size="30" stroke = "rgb(0,0,0)" line = "rgb(0,0,0)"  fill = "lightblue" x="749.554" y="-68.515" >93</text>

<!-- -->


<!--Draw Glitches -->

<line fill="none" stroke="black" stroke-width="4" x1="744.554" y1="118.515" x2="744.554" y2="68.515"  stroke-dasharray = "10,5" />
<text transform="scale(1,-1)" font-family="sans-serif" font-size="30" stroke = "rgb(0,0,0)" line = "rgb(0,0,0)"  fill = "black" x="749.554" y="-68.515" >93</text>

<!-- -->


<!--Draw the X and Y axes -->
<polyline fill="none" stroke="black" stroke-width="6"  points=" 800,0 0,0 0, 800" />
<polyline fill="none" stroke="black" stroke-width="1"  points=" 0 800  800 800  800 0" />
<!-- -->


<!--Draw labels and tics for X axis -->

<line fill="none" stroke="black"  stroke-width="6"  x1="0.5" y1="0" x2="0.5" y2="-20" />
<text transform="scale(1,-1)" font-family="sans-serif" font-size="30" x="-24.5" y="45" >0</text>
<line fill="none" stroke="black"  stroke-width="6"  x1="158.916" y1="0" x2="158.916" y2="-20" />
<text transform="scale(1,-1)" font-family="sans-serif" font-size="30" x="133.916" y="45" >20</text>
<line fill="none" stroke="black"  stroke-width="6"  x1="317.332" y1="0" x2="317.332" y2="-20" />
<text transform="scale(1,-1)" font-family="sans-serif" font-size="30" x="292.332" y="45" >40</text>
<line fill="none" stroke="black"  stroke-width="6"  x1="475.748" y1="0" x2="475.748" y2="-20" />
<text transform="scale(1,-1)" font-family="sans-serif" font-size="30" x="450.748" y="45" >60</text>
<line fill="none" stroke="black"  stroke-width="6"  x1="634.163" y1="0" x2="634.163" y2="-20" />
<text transform="scale(1,-1)" font-family="sans-serif" font-size="30" x="609.163" y="45" >80</text>
<line fill="none" stroke="black"  stroke-width="6"  x1="792.579" y1="0" x2="792.579" y2="-20" />
<text transform="scale(1,-1)" font-family="sans-serif" font-size="30" x="767.579" y="45" >100</text>


<!--Draw labels and tics for Y axis -->

<line fill="none" stroke="black" stroke-width="6" x1="0.0" y1="0" x2="-20" y2="0" />
<text transform="scale(1,-1)" text-anchor="end" font-family="sans-serif" font-size="30" x="-25" y="10" >0</text>
<line fill="none" stroke="black" stroke-width="6" x1="0.0" y1="160" x2="-20" y2="160" />
<text transform="scale(1,-1)" text-anchor="end" font-family="sans-serif" font-size="30" x="-25" y="-150" >5</text>
<line fill="none" stroke="black" stroke-width="6" x1="0.0" y1="320" x2="-20" y2="320" />
<text transform="scale(1,-1)" text-anchor="end" font-family="sans-serif" font-size="30" x="-25" y="-310" >10</text>
<line fill="none" stroke="black" stroke-width="6" x1="0.0" y1="480" x2="-20" y2="480" />
<text transform="scale(1,-1)" text-anchor="end" font-family="sans-serif" font-size="30" x="-25" y="-470" >15</text>
<line fill="none" stroke="black" stroke-width="6" x1="0.0" y1="640" x2="-20" y2="640" />
<text transform="scale(1,-1)" text-anchor="end" font-family="sans-serif" font-size="30" x="-25" y="-630" >20</text>
<line fill="none" stroke="black" stroke-width="6" x1="0.0" y1="800" x2="-20" y2="800" />
<text transform="scale(1,-1)" text-anchor="end" font-family="sans-serif" font-size="30" x="-25" y="-790" >25</text>

-->
</g>
</g>
<!-- Run Constants
PRINTDISTANCEDATA bool true
GLITCHESONLY bool false
PERTURBBY double 0.05
GLITCHLEVEL double 3
BOUNDARYWINDOW double 0.065
STEPSPERFRAME int 100
TRIALS int 1
ALLBLACK bool true
FILEPREFIX string Fol
NIGGLISELLINGFIRST bool false
ENABLE DistanceEnableString 
DISABLE DistanceDisableString 
GRAPHSIZE int 0
BORDER int 0
PLOTSIZE int 0
AXISWIDTH int 6
TICLENGTH int 20
VECTOR g6 
FOLLOWERMODE FollowerMode point
FIXRANDOMSEED fixRandomSeed true
RANDOMSEED int 18
TIMESTAMP bool false
END end 


-->
</svg>
