<?xml version="1.0" standalone="no"?>
<!-- the width and height set the total pixel output of the image in the browser -->
<!-- whatever is within the viewbox will be remapped to show in this size -->
<svg width="900" height="900" viewBox="1 0900 900"  version="1.1" xmlns="http://www.w3.org/2000/svg" xmlns:xlink="http://www.w3.org/1999/xlink">
 <desc>ID (and file name) = LINE3_RAND%_.27_0.svg  mode = LINE3 </desc> 
<g transform = "scale(1 1)">

<text x = "-850" y="50" transform="rotate(-90)"  font-family="sans-serif" font-size="40" stroke ="lightgray" fill="none"> PointDistanceFollower   Jun 17 2018</text>
 <text x="140"  y="30"  font-family="sans-serif" font-size="20" >LINE3_RAND%_.27_0.svg  &#160;&#160;&#160;&#160;&#160; Wall time passed: 61 msec.</text>
<text x="300" y="60"   font-family="sans-serif" font-size="20" fill="lightblue">S6  lightblue     msec  59</text>
<text x="300" y="85"   font-family="sans-serif" font-size="20" fill="olive">CS6Dist  olive     msec  2</text>



 <!--DISTANCE PLOT BEGINS   mode = LINE3-->


<!-- the following will scale and place the distance plot -->
<g transform="translate(150,850) scale(1 -1)">
   <polyline fill="none" stroke=" lightblue " stroke-width=" 12 " points=" 6.93069,30.488 13.8614,43.8012 20.7921,45.9156 27.7228,50.8861 34.6535,58.6351 41.5842,69.047 48.5149,81.9765 55.4455,83.3628 62.3762,78.6234 69.3069,76.5781 76.2376,77.2559 83.1683,80.6472 90.099,86.7042 97.0297,95.344 103.96,106.454 110.891,119.901 117.822,135.532 124.752,153.189 131.683,172.709 138.614,193.934 145.545,216.71 152.475,240.892 159.406,266.344 166.337,292.944 173.267,298.969 180.198,295.361 187.129,292.667 194.059,290.897 200.99,290.057 207.921,290.15 214.851,291.175 221.782,293.13 228.713,296.006 235.644,299.795 242.574,304.482 249.505,310.053 256.436,316.488 263.366,323.768 270.297,331.869 277.228,340.769 284.158,350.441 291.089,359.214 298.02,367.567 304.95,376.681 311.881,386.53 318.812,397.092 325.743,408.339 332.673,420.249 339.604,432.793 346.535,445.948 353.465,444.538 360.396,443.689 367.327,443.619 374.257,444.33 381.188,445.818 388.119,448.08 395.05,451.11 401.98,454.902 408.911,459.446 415.842,464.732 422.772,470.746 429.703,477.476 436.634,484.906 443.564,493.022 450.495,501.805 457.426,511.238 464.356,521.304 471.287,531.979 478.218,542.121 485.149,552.863 492.079,564.186 499.01,576.071 505.941,588.502 512.871,601.457 519.802,614.92 526.733,628.872 533.663,641.151 540.594,627.747 547.525,614.992 554.455,602.91 561.386,591.523 568.317,580.854 575.248,570.923 582.178,561.752 589.109,553.361 596.04,545.769 602.97,538.993 609.901,533.05 616.832,527.955 623.762,523.719 630.693,520.355 637.624,517.87 644.554,516.271 651.485,515.563 658.416,515.747 665.347,516.822 672.277,518.787 679.208,521.635 686.139,525.36 693.069,529.951 " />

   <polyline fill="none" stroke=" olive " stroke-width=" 3 " points=" 6.93069,30.488 13.8614,43.8012 20.7921,45.9156 27.7228,50.8861 34.6535,58.6351 41.5842,69.047 48.5149,81.9765 55.4455,97.2573 62.3762,114.711 69.3069,118.334 76.2376,122.044 83.1683,128.549 90.099,130.051 97.0297,135.641 103.96,144.341 110.891,155.458 117.822,168.511 124.752,183.165 131.683,199.18 138.614,216.384 145.545,234.646 152.475,253.865 159.406,273.962 166.337,294.873 173.267,298.969 180.198,295.361 187.129,292.667 194.059,290.897 200.99,290.057 207.921,290.15 214.851,291.175 221.782,293.13 228.713,296.006 235.644,299.795 242.574,304.482 249.505,310.053 256.436,316.488 263.366,323.768 270.297,331.869 277.228,340.769 284.158,350.441 291.089,359.214 298.02,367.567 304.95,376.681 311.881,386.53 318.812,397.092 325.743,408.339 332.673,420.249 339.604,432.793 346.535,445.948 353.465,444.538 360.396,443.689 367.327,443.619 374.257,444.33 381.188,445.818 388.119,448.08 395.05,451.11 401.98,454.902 408.911,459.446 415.842,464.732 422.772,470.746 429.703,477.476 436.634,484.906 443.564,493.022 450.495,501.805 457.426,511.238 464.356,521.304 471.287,531.979 478.218,542.121 485.149,552.863 492.079,564.186 499.01,576.071 505.941,588.502 512.871,601.457 519.802,614.92 526.733,628.872 533.663,641.529 540.594,633.254 547.525,625.875 554.455,619.439 561.386,613.993 568.317,609.586 575.248,606.265 582.178,604.076 589.109,603.063 596.04,603.269 602.97,604.729 609.901,602.942 616.832,596.262 623.762,590.443 630.693,585.502 637.624,581.45 644.554,578.299 651.485,576.058 658.416,574.733 665.347,574.328 672.277,574.843 679.208,576.279 686.139,578.63 693.069,581.889 " />


<!--Draw the X and Y axes -->
<polyline fill="none" stroke="black" stroke-width="6"  points=" 700,0 0,0 0, 700" />
<polyline fill="none" stroke="black" stroke-width="1"  points=" 0 700  700 700  700 0" />
<!-- -->


<!--Draw labels and tics for X axis -->

<line fill="none" stroke="black"  stroke-width="6"  x1="0.5" y1="0" x2="0.5" y2="-20" />
<text transform="scale(1,-1)" font-family="sans-serif" font-size="30" x="-24.5" y="45" >0</text>
<line fill="none" stroke="black"  stroke-width="6"  x1="139.114" y1="0" x2="139.114" y2="-20" />
<text transform="scale(1,-1)" font-family="sans-serif" font-size="30" x="114.114" y="45" >20</text>
<line fill="none" stroke="black"  stroke-width="6"  x1="277.728" y1="0" x2="277.728" y2="-20" />
<text transform="scale(1,-1)" font-family="sans-serif" font-size="30" x="252.728" y="45" >40</text>
<line fill="none" stroke="black"  stroke-width="6"  x1="416.342" y1="0" x2="416.342" y2="-20" />
<text transform="scale(1,-1)" font-family="sans-serif" font-size="30" x="391.342" y="45" >60</text>
<line fill="none" stroke="black"  stroke-width="6"  x1="554.955" y1="0" x2="554.955" y2="-20" />
<text transform="scale(1,-1)" font-family="sans-serif" font-size="30" x="529.955" y="45" >80</text>
<line fill="none" stroke="black"  stroke-width="6"  x1="693.569" y1="0" x2="693.569" y2="-20" />
<text transform="scale(1,-1)" font-family="sans-serif" font-size="30" x="668.569" y="45" >100</text>


<!--Draw labels and tics for Y axis -->

<line fill="none" stroke="black" stroke-width="6" x1="0.0" y1="0" x2="-20" y2="0" />
<text transform="scale(1,-1)" text-anchor="end" font-family="sans-serif" font-size="30" x="-25" y="10" >700</text>
<line fill="none" stroke="black" stroke-width="6" x1="0.0" y1="140" x2="-20" y2="140" />
<text transform="scale(1,-1)" text-anchor="end" font-family="sans-serif" font-size="30" x="-25" y="-130" >900</text>
<line fill="none" stroke="black" stroke-width="6" x1="0.0" y1="280" x2="-20" y2="280" />
<text transform="scale(1,-1)" text-anchor="end" font-family="sans-serif" font-size="30" x="-25" y="-270" >1100</text>
<line fill="none" stroke="black" stroke-width="6" x1="0.0" y1="420" x2="-20" y2="420" />
<text transform="scale(1,-1)" text-anchor="end" font-family="sans-serif" font-size="30" x="-25" y="-410" >1300</text>
<line fill="none" stroke="black" stroke-width="6" x1="0.0" y1="560" x2="-20" y2="560" />
<text transform="scale(1,-1)" text-anchor="end" font-family="sans-serif" font-size="30" x="-25" y="-550" >1500</text>
<line fill="none" stroke="black" stroke-width="6" x1="0.0" y1="700" x2="-20" y2="700" />
<text transform="scale(1,-1)" text-anchor="end" font-family="sans-serif" font-size="30" x="-25" y="-690" >1700</text>

-->
</g>
</g>
<!-- Run Constants
PRINTDISTANCEDATA bool true
GLITCHESONLY bool false
PERTURBBY double 20
GLITCHLEVEL double 3
BOUNDARYWINDOW double 0.065
STEPSPERFRAME int 100
TRIALS int 1
ALLBLACK bool true
FILEPREFIX string LINE3_RAND%
ENABLE DistanceEnableString 
DISABLE DistanceDisableString 
GRAPHSIZE int 0
BORDER int 0
PLOTSIZE int 0
AXISWIDTH int 6
TICLENGTH int 20
VECTOR g6 
FOLLOWERMODE FollowerMode line
FIXRANDOMSEED fixRandomSeed false
RANDOMSEED int 19191
TIMESTAMP bool false
END end 


-->
</svg>
