<?xml version="1.0" standalone="no"?>
<!-- the width and height set the total pixel output of the image in the browser -->
<!-- whatever is within the viewbox will be remapped to show in this size -->
<svg width="900" height="900" viewBox="1 0900 900"  version="1.1" xmlns="http://www.w3.org/2000/svg" xmlns:xlink="http://www.w3.org/1999/xlink">
 <desc>ID (and file name) = LINE3_RAND%_.78_0.svg  mode = LINE3 </desc> 
<g transform = "scale(1 1)">

<text x = "-850" y="50" transform="rotate(-90)"  font-family="sans-serif" font-size="40" stroke ="lightgray" fill="none"> PointDistanceFollower   Jun 17 2018</text>
 <text x="140"  y="30"  font-family="sans-serif" font-size="20" >LINE3_RAND%_.78_0.svg  &#160;&#160;&#160;&#160;&#160; Wall time passed: 67 msec.</text>
<text x="300" y="60"   font-family="sans-serif" font-size="20" fill="lightblue">S6  lightblue     msec  66</text>
<text x="300" y="85"   font-family="sans-serif" font-size="20" fill="olive">CS6Dist  olive     msec  1</text>



 <!--DISTANCE PLOT BEGINS   mode = LINE3-->


<!-- the following will scale and place the distance plot -->
<g transform="translate(150,850) scale(1 -1)">
   <polyline fill="none" stroke=" lightblue " stroke-width=" 12 " points=" 6.93069,137.965 13.8614,129.053 20.7921,120.755 27.7228,113.102 34.6535,106.124 41.5842,99.85 48.5149,94.3067 55.4455,89.52 62.3762,85.5126 69.3069,82.3046 76.2376,79.9123 83.1683,78.3482 90.099,77.6207 97.0297,77.7337 103.96,78.6865 110.891,80.4741 117.822,83.087 124.752,86.5115 131.683,90.7303 138.614,95.7227 145.545,101.465 152.475,107.931 159.406,115.093 166.337,122.922 173.267,131.388 180.198,140.46 187.129,150.107 194.059,160.3 200.99,171.008 207.921,182.203 214.851,193.856 221.782,205.941 228.713,215.362 235.644,217.053 242.574,219.385 249.505,222.35 256.436,225.94 263.366,230.143 270.297,234.946 277.228,240.337 284.158,246.3 291.089,252.82 298.02,259.879 304.95,266.085 311.881,272.663 318.812,279.627 325.743,286.965 332.673,294.665 339.604,302.716 346.535,311.105 353.465,319.82 360.396,328.849 367.327,338.181 374.257,347.804 381.188,357.707 388.119,367.878 395.05,378.308 401.98,382.73 408.911,383.332 415.842,384.323 422.772,385.703 429.703,387.468 436.634,389.617 443.564,392.146 450.495,395.052 457.426,398.329 464.356,401.975 471.287,405.983 478.218,410.348 485.149,415.064 492.079,420.126 499.01,425.526 505.941,431.259 512.871,437.317 519.802,443.692 526.733,450.379 533.663,457.369 540.594,464.655 547.525,472.229 554.455,480.085 561.386,488.214 568.317,496.608 575.248,505.261 582.178,514.165 589.109,523.313 596.04,532.697 602.97,542.31 609.901,552.145 616.832,562.196 623.762,572.455 630.693,582.916 637.624,593.572 644.554,604.418 651.485,615.446 658.416,626.652 665.347,638.029 672.277,649.572 679.208,661.275 686.139,673.133 693.069,691.707 " />

   <polyline fill="none" stroke=" olive " stroke-width=" 3 " points=" 6.93069,137.965 13.8614,129.053 20.7921,120.755 27.7228,113.102 34.6535,106.124 41.5842,99.85 48.5149,94.3067 55.4455,89.52 62.3762,85.5126 69.3069,82.3046 76.2376,79.9123 83.1683,78.3482 90.099,77.6207 97.0297,77.7337 103.96,78.6865 110.891,80.4741 117.822,83.087 124.752,86.5115 131.683,90.7303 138.614,95.7227 145.545,101.465 152.475,107.931 159.406,115.093 166.337,122.922 173.267,131.388 180.198,140.46 187.129,150.107 194.059,160.3 200.99,171.008 207.921,182.203 214.851,193.856 221.782,205.941 228.713,218.142 235.644,219.803 242.574,222.072 249.505,224.933 256.436,228.367 263.366,232.355 270.297,236.877 277.228,241.912 284.158,247.44 291.089,253.44 298.02,259.891 304.95,266.085 311.881,272.663 318.812,279.627 325.743,286.965 332.673,294.665 339.604,302.716 346.535,311.105 353.465,319.82 360.396,328.849 367.327,338.181 374.257,347.804 381.188,357.707 388.119,367.878 395.05,378.308 401.98,382.73 408.911,383.332 415.842,384.323 422.772,385.703 429.703,387.468 436.634,389.617 443.564,392.146 450.495,395.052 457.426,398.329 464.356,401.975 471.287,405.983 478.218,410.348 485.149,415.064 492.079,420.126 499.01,425.526 505.941,431.259 512.871,437.317 519.802,443.692 526.733,450.379 533.663,457.369 540.594,464.655 547.525,472.229 554.455,480.085 561.386,488.214 568.317,496.608 575.248,505.261 582.178,514.165 589.109,523.313 596.04,532.697 602.97,542.31 609.901,552.145 616.832,562.196 623.762,572.455 630.693,582.916 637.624,593.572 644.554,604.418 651.485,615.446 658.416,626.652 665.347,638.029 672.277,649.572 679.208,661.275 686.139,673.133 693.069,693.384 " />


<!--Draw the X and Y axes -->
<polyline fill="none" stroke="black" stroke-width="6"  points=" 700,0 0,0 0, 700" />
<polyline fill="none" stroke="black" stroke-width="1"  points=" 0 700  700 700  700 0" />
<!-- -->


<!--Draw labels and tics for X axis -->

<line fill="none" stroke="black"  stroke-width="6"  x1="0.5" y1="0" x2="0.5" y2="-20" />
<text transform="scale(1,-1)" font-family="sans-serif" font-size="30" x="-24.5" y="45" >0</text>
<line fill="none" stroke="black"  stroke-width="6"  x1="139.114" y1="0" x2="139.114" y2="-20" />
<text transform="scale(1,-1)" font-family="sans-serif" font-size="30" x="114.114" y="45" >20</text>
<line fill="none" stroke="black"  stroke-width="6"  x1="277.728" y1="0" x2="277.728" y2="-20" />
<text transform="scale(1,-1)" font-family="sans-serif" font-size="30" x="252.728" y="45" >40</text>
<line fill="none" stroke="black"  stroke-width="6"  x1="416.342" y1="0" x2="416.342" y2="-20" />
<text transform="scale(1,-1)" font-family="sans-serif" font-size="30" x="391.342" y="45" >60</text>
<line fill="none" stroke="black"  stroke-width="6"  x1="554.955" y1="0" x2="554.955" y2="-20" />
<text transform="scale(1,-1)" font-family="sans-serif" font-size="30" x="529.955" y="45" >80</text>
<line fill="none" stroke="black"  stroke-width="6"  x1="693.569" y1="0" x2="693.569" y2="-20" />
<text transform="scale(1,-1)" font-family="sans-serif" font-size="30" x="668.569" y="45" >100</text>


<!--Draw labels and tics for Y axis -->

<line fill="none" stroke="black" stroke-width="6" x1="0.0" y1="0" x2="-20" y2="0" />
<text transform="scale(1,-1)" text-anchor="end" font-family="sans-serif" font-size="30" x="-25" y="10" >500</text>
<line fill="none" stroke="black" stroke-width="6" x1="0.0" y1="77.7778" x2="-20" y2="77.7778" />
<text transform="scale(1,-1)" text-anchor="end" font-family="sans-serif" font-size="30" x="-25" y="-67.7778" >600</text>
<line fill="none" stroke="black" stroke-width="6" x1="0.0" y1="155.556" x2="-20" y2="155.556" />
<text transform="scale(1,-1)" text-anchor="end" font-family="sans-serif" font-size="30" x="-25" y="-145.556" >700</text>
<line fill="none" stroke="black" stroke-width="6" x1="0.0" y1="233.333" x2="-20" y2="233.333" />
<text transform="scale(1,-1)" text-anchor="end" font-family="sans-serif" font-size="30" x="-25" y="-223.333" >800</text>
<line fill="none" stroke="black" stroke-width="6" x1="0.0" y1="311.111" x2="-20" y2="311.111" />
<text transform="scale(1,-1)" text-anchor="end" font-family="sans-serif" font-size="30" x="-25" y="-301.111" >900</text>
<line fill="none" stroke="black" stroke-width="6" x1="0.0" y1="388.889" x2="-20" y2="388.889" />
<text transform="scale(1,-1)" text-anchor="end" font-family="sans-serif" font-size="30" x="-25" y="-378.889" >1000</text>
<line fill="none" stroke="black" stroke-width="6" x1="0.0" y1="466.667" x2="-20" y2="466.667" />
<text transform="scale(1,-1)" text-anchor="end" font-family="sans-serif" font-size="30" x="-25" y="-456.667" >1100</text>
<line fill="none" stroke="black" stroke-width="6" x1="0.0" y1="544.444" x2="-20" y2="544.444" />
<text transform="scale(1,-1)" text-anchor="end" font-family="sans-serif" font-size="30" x="-25" y="-534.444" >1200</text>
<line fill="none" stroke="black" stroke-width="6" x1="0.0" y1="622.222" x2="-20" y2="622.222" />
<text transform="scale(1,-1)" text-anchor="end" font-family="sans-serif" font-size="30" x="-25" y="-612.222" >1300</text>
<line fill="none" stroke="black" stroke-width="6" x1="0.0" y1="700" x2="-20" y2="700" />
<text transform="scale(1,-1)" text-anchor="end" font-family="sans-serif" font-size="30" x="-25" y="-690" >1400</text>

-->
</g>
</g>
<!-- Run Constants
PRINTDISTANCEDATA bool true
GLITCHESONLY bool false
PERTURBBY double 20
GLITCHLEVEL double 3
BOUNDARYWINDOW double 0.065
STEPSPERFRAME int 100
TRIALS int 1
ALLBLACK bool true
FILEPREFIX string LINE3_RAND%
ENABLE DistanceEnableString 
DISABLE DistanceDisableString 
GRAPHSIZE int 0
BORDER int 0
PLOTSIZE int 0
AXISWIDTH int 6
TICLENGTH int 20
VECTOR g6 
FOLLOWERMODE FollowerMode line
FIXRANDOMSEED fixRandomSeed false
RANDOMSEED int 19191
TIMESTAMP bool false
END end 


-->
</svg>
