<?xml version="1.0" standalone="no"?>
<!-- the width and height set the total pixel output of the image in the browser -->
<!-- whatever is within the viewbox will be remapped to show in this size -->
<svg width="900" height="900" viewBox="1 0900 900"  version="1.1" xmlns="http://www.w3.org/2000/svg" xmlns:xlink="http://www.w3.org/1999/xlink">
 <desc>ID (and file name) = LINE3_RAND%_.32_0.svg  mode = LINE3 </desc> 
<g transform = "scale(1 1)">

<text x = "-850" y="50" transform="rotate(-90)"  font-family="sans-serif" font-size="40" stroke ="lightgray" fill="none"> PointDistanceFollower   Jun 17 2018</text>
 <text x="140"  y="30"  font-family="sans-serif" font-size="20" >LINE3_RAND%_.32_0.svg  &#160;&#160;&#160;&#160;&#160; Wall time passed: 48 msec.</text>
<text x="300" y="60"   font-family="sans-serif" font-size="20" fill="lightblue">S6  lightblue     msec  47</text>
<text x="300" y="85"   font-family="sans-serif" font-size="20" fill="olive">CS6Dist  olive     msec  1</text>



 <!--DISTANCE PLOT BEGINS   mode = LINE3-->


<!-- the following will scale and place the distance plot -->
<g transform="translate(150,850) scale(1 -1)">
   <polyline fill="none" stroke=" lightblue " stroke-width=" 12 " points=" 6.93069,111.742 13.8614,100.234 20.7921,89.9875 27.7228,81.0877 34.6535,73.6129 41.5842,67.6343 48.5149,63.2122 55.4455,60.3932 62.3762,59.2082 69.3069,59.6703 76.2376,61.7743 83.1683,65.497 90.099,70.7986 97.0297,77.6244 103.96,85.9076 110.891,95.5723 117.822,106.537 124.752,118.715 131.683,132.022 138.614,146.371 145.545,161.68 152.475,177.87 159.406,194.867 166.337,212.602 173.267,231.011 180.198,250.035 187.129,269.62 194.059,289.149 200.99,303.498 207.921,318.592 214.851,334.383 221.782,350.827 228.713,367.881 235.644,385.503 242.574,403.656 249.505,422.304 256.436,441.413 263.366,460.951 270.297,480.891 277.228,501.203 284.158,521.864 291.089,542.849 298.02,564.138 304.95,581.089 311.881,598.324 318.812,615.989 325.743,634.064 332.673,647.886 339.604,647.709 346.535,647.809 353.465,648.186 360.396,648.84 367.327,649.345 374.257,643.29 381.188,635.28 388.119,625.662 395.05,616.237 401.98,607.011 408.911,597.99 415.842,589.179 422.772,580.583 429.703,572.209 436.634,564.063 443.564,556.15 450.495,548.476 " />

<line fill="none" stroke-dasharray = "10, 10"  stroke="orange" stroke-width="6" x1="457.426" y1="350" x2="693.069" y2="350" />
   <polyline fill="none" stroke=" olive " stroke-width=" 3 " points=" 6.93069,111.742 13.8614,100.234 20.7921,89.9875 27.7228,81.0877 34.6535,73.6129 41.5842,67.6343 48.5149,63.2122 55.4455,60.3932 62.3762,59.2082 69.3069,59.6703 76.2376,61.7743 83.1683,65.497 90.099,70.7986 97.0297,77.6244 103.96,85.9076 110.891,95.5723 117.822,106.537 124.752,118.715 131.683,132.022 138.614,146.371 145.545,161.68 152.475,177.87 159.406,194.867 166.337,212.602 173.267,231.011 180.198,250.035 187.129,269.62 194.059,289.149 200.99,303.498 207.921,318.592 214.851,334.383 221.782,350.827 228.713,367.881 235.644,385.503 242.574,403.656 249.505,422.304 256.436,441.413 263.366,460.951 270.297,480.891 277.228,501.203 284.158,521.864 291.089,542.849 298.02,564.138 304.95,585.71 311.881,605.083 318.812,620.237 325.743,635.866 332.673,647.886 339.604,647.709 346.535,647.809 353.465,648.186 360.396,648.84 367.327,649.345 374.257,643.29 381.188,635.28 388.119,625.662 395.05,616.237 401.98,607.011 408.911,597.99 415.842,589.179 422.772,580.583 429.703,572.209 436.634,564.063 443.564,556.15 450.495,548.476 " />

<line fill="none" stroke-dasharray = "10, 10"  stroke="orange" stroke-width="6" x1="457.426" y1="350" x2="693.069" y2="350" />

<!--Draw Glitches -->


<!-- -->


<!--Draw Glitches -->


<!-- -->


<!--Draw the X and Y axes -->
<polyline fill="none" stroke="black" stroke-width="6"  points=" 700,0 0,0 0, 700" />
<polyline fill="none" stroke="black" stroke-width="1"  points=" 0 700  700 700  700 0" />
<!-- -->


<!--Draw labels and tics for X axis -->

<line fill="none" stroke="black"  stroke-width="6"  x1="0.5" y1="0" x2="0.5" y2="-20" />
<text transform="scale(1,-1)" font-family="sans-serif" font-size="30" x="-24.5" y="45" >0</text>
<line fill="none" stroke="black"  stroke-width="6"  x1="139.114" y1="0" x2="139.114" y2="-20" />
<text transform="scale(1,-1)" font-family="sans-serif" font-size="30" x="114.114" y="45" >20</text>
<line fill="none" stroke="black"  stroke-width="6"  x1="277.728" y1="0" x2="277.728" y2="-20" />
<text transform="scale(1,-1)" font-family="sans-serif" font-size="30" x="252.728" y="45" >40</text>
<line fill="none" stroke="black"  stroke-width="6"  x1="416.342" y1="0" x2="416.342" y2="-20" />
<text transform="scale(1,-1)" font-family="sans-serif" font-size="30" x="391.342" y="45" >60</text>
<line fill="none" stroke="black"  stroke-width="6"  x1="554.955" y1="0" x2="554.955" y2="-20" />
<text transform="scale(1,-1)" font-family="sans-serif" font-size="30" x="529.955" y="45" >80</text>
<line fill="none" stroke="black"  stroke-width="6"  x1="693.569" y1="0" x2="693.569" y2="-20" />
<text transform="scale(1,-1)" font-family="sans-serif" font-size="30" x="668.569" y="45" >100</text>


<!--Draw labels and tics for Y axis -->

<line fill="none" stroke="black" stroke-width="6" x1="0.0" y1="0" x2="-20" y2="0" />
<text transform="scale(1,-1)" text-anchor="end" font-family="sans-serif" font-size="30" x="-25" y="10" >600</text>
<line fill="none" stroke="black" stroke-width="6" x1="0.0" y1="63.6364" x2="-20" y2="63.6364" />
<text transform="scale(1,-1)" text-anchor="end" font-family="sans-serif" font-size="30" x="-25" y="-53.6364" >700</text>
<line fill="none" stroke="black" stroke-width="6" x1="0.0" y1="127.273" x2="-20" y2="127.273" />
<text transform="scale(1,-1)" text-anchor="end" font-family="sans-serif" font-size="30" x="-25" y="-117.273" >800</text>
<line fill="none" stroke="black" stroke-width="6" x1="0.0" y1="190.909" x2="-20" y2="190.909" />
<text transform="scale(1,-1)" text-anchor="end" font-family="sans-serif" font-size="30" x="-25" y="-180.909" >900</text>
<line fill="none" stroke="black" stroke-width="6" x1="0.0" y1="254.545" x2="-20" y2="254.545" />
<text transform="scale(1,-1)" text-anchor="end" font-family="sans-serif" font-size="30" x="-25" y="-244.545" >1000</text>
<line fill="none" stroke="black" stroke-width="6" x1="0.0" y1="318.182" x2="-20" y2="318.182" />
<text transform="scale(1,-1)" text-anchor="end" font-family="sans-serif" font-size="30" x="-25" y="-308.182" >1100</text>
<line fill="none" stroke="black" stroke-width="6" x1="0.0" y1="381.818" x2="-20" y2="381.818" />
<text transform="scale(1,-1)" text-anchor="end" font-family="sans-serif" font-size="30" x="-25" y="-371.818" >1200</text>
<line fill="none" stroke="black" stroke-width="6" x1="0.0" y1="445.455" x2="-20" y2="445.455" />
<text transform="scale(1,-1)" text-anchor="end" font-family="sans-serif" font-size="30" x="-25" y="-435.455" >1300</text>
<line fill="none" stroke="black" stroke-width="6" x1="0.0" y1="509.091" x2="-20" y2="509.091" />
<text transform="scale(1,-1)" text-anchor="end" font-family="sans-serif" font-size="30" x="-25" y="-499.091" >1400</text>
<line fill="none" stroke="black" stroke-width="6" x1="0.0" y1="572.727" x2="-20" y2="572.727" />
<text transform="scale(1,-1)" text-anchor="end" font-family="sans-serif" font-size="30" x="-25" y="-562.727" >1500</text>
<line fill="none" stroke="black" stroke-width="6" x1="0.0" y1="636.364" x2="-20" y2="636.364" />
<text transform="scale(1,-1)" text-anchor="end" font-family="sans-serif" font-size="30" x="-25" y="-626.364" >1600</text>
<line fill="none" stroke="black" stroke-width="6" x1="0.0" y1="700" x2="-20" y2="700" />
<text transform="scale(1,-1)" text-anchor="end" font-family="sans-serif" font-size="30" x="-25" y="-690" >1700</text>

-->
</g>
</g>
<!-- Run Constants
PRINTDISTANCEDATA bool true
GLITCHESONLY bool false
PERTURBBY double 20
GLITCHLEVEL double 3
BOUNDARYWINDOW double 0.065
STEPSPERFRAME int 100
TRIALS int 1
ALLBLACK bool true
FILEPREFIX string LINE3_RAND%
ENABLE DistanceEnableString 
DISABLE DistanceDisableString 
GRAPHSIZE int 0
BORDER int 0
PLOTSIZE int 0
AXISWIDTH int 6
TICLENGTH int 20
VECTOR g6 
FOLLOWERMODE FollowerMode line
FIXRANDOMSEED fixRandomSeed false
RANDOMSEED int 19191
TIMESTAMP bool false
END end 


-->
</svg>
