<?xml version="1.0" standalone="no"?>
<!-- the width and height set the total pixel output of the image in the browser -->
<!-- whatever is within the viewbox will be remapped to show in this size -->
<svg width="900" height="900" viewBox="1 0900 900"  version="1.1" xmlns="http://www.w3.org/2000/svg" xmlns:xlink="http://www.w3.org/1999/xlink">
 <desc>ID (and file name) = LINE3_RAND%_.6_0.svg  mode = LINE3 </desc> 
<g transform = "scale(1 1)">

<text x = "-850" y="50" transform="rotate(-90)"  font-family="sans-serif" font-size="40" stroke ="lightgray" fill="none"> PointDistanceFollower   Jun 17 2018</text>
 <text x="140"  y="30"  font-family="sans-serif" font-size="20" >LINE3_RAND%_.6_0.svg  &#160;&#160;&#160;&#160;&#160; Wall time passed: 51 msec.</text>
<text x="300" y="60"   font-family="sans-serif" font-size="20" fill="lightblue">S6  lightblue     msec  50</text>
<text x="300" y="85"   font-family="sans-serif" font-size="20" fill="olive">CS6Dist  olive     msec  1</text>



 <!--DISTANCE PLOT BEGINS   mode = LINE3-->


<!-- the following will scale and place the distance plot -->
<g transform="translate(150,850) scale(1 -1)">
   <polyline fill="none" stroke=" lightblue " stroke-width=" 12 " points=" 6.93069,312.423 13.8614,302.728 20.7921,293.276 27.7228,284.08 34.6535,275.152 41.5842,266.507 48.5149,258.158 55.4455,250.121 62.3762,242.409 69.3069,235.038 76.2376,228.023 83.1683,221.38 90.099,215.124 97.0297,209.271 103.96,203.836 110.891,198.834 117.822,194.279 124.752,190.184 131.683,186.562 138.614,183.424 145.545,180.781 152.475,178.642 159.406,177.014 166.337,175.902 173.267,175.312 180.198,175.244 187.129,175.699 194.059,164.024 200.99,152.225 207.921,140.65 214.851,129.317 221.782,118.249 228.713,107.469 235.644,97.0028 242.574,86.8788 249.505,77.1277 256.436,67.7824 263.366,58.8784 270.297,50.4533 277.228,42.5468 284.158,35.2003 291.089,28.4561 298.02,22.3571 304.95,16.9454 311.881,12.2617 318.812,8.34386 325.743,5.22537 332.673,2.93446 339.604,1.49266 346.535,0.913917 353.465,1.20392 360.396,2.35981 367.327,4.37035 374.257,28.4008 381.188,59.4526 388.119,93.0933 395.05,128.656 401.98,165.661 408.911,203.682 415.842,241.93 422.772,280.844 429.703,320.293 436.634,342.425 443.564,358.367 450.495,384.705 457.426,366.561 464.356,361.429 471.287,451.178 478.218,580.749 485.149,686.464 " />

<line fill="none" stroke-dasharray = "10, 10"  stroke="orange" stroke-width="6" x1="492.079" y1="350" x2="693.069" y2="350" />
   <polyline fill="none" stroke=" olive " stroke-width=" 3 " points=" 6.93069,379.017 13.8614,367.799 20.7921,356.838 27.7228,346.148 34.6535,335.743 41.5842,325.637 48.5149,315.848 55.4455,306.39 62.3762,297.279 69.3069,288.533 76.2376,280.168 83.1683,272.2 90.099,264.647 97.0297,257.524 103.96,250.848 110.891,244.635 117.822,238.898 124.752,233.652 131.683,228.908 138.614,224.679 145.545,220.972 152.475,217.796 159.406,215.157 166.337,213.058 173.267,200.584 180.198,188.219 187.129,176.027 194.059,164.024 200.99,152.225 207.921,140.65 214.851,129.317 221.782,118.249 228.713,107.469 235.644,97.0028 242.574,86.8788 249.505,77.1277 256.436,67.7824 263.366,58.8784 270.297,50.4533 277.228,42.5468 284.158,35.2003 291.089,28.4561 298.02,22.3571 304.95,16.9454 311.881,12.2617 318.812,8.34386 325.743,5.22537 332.673,2.93446 339.604,1.49266 346.535,0.913917 353.465,1.20392 360.396,2.35981 367.327,4.37035 374.257,32.8901 381.188,63.3259 388.119,96.1662 395.05,130.773 401.98,166.698 408.911,203.682 415.842,241.93 422.772,280.844 429.703,320.293 436.634,347.831 443.564,365.121 450.495,386.669 457.426,374.23 464.356,361.429 471.287,458.391 478.218,580.749 485.149,686.464 " />

<line fill="none" stroke-dasharray = "10, 10"  stroke="orange" stroke-width="6" x1="492.079" y1="350" x2="693.069" y2="350" />

<!--Draw Glitches -->

<line fill="none" stroke="black" stroke-width="4" x1="478.218" y1="570.749" x2="478.218" y2="520.749"  stroke-dasharray = "10,5" />
<text transform="scale(1,-1)" font-family="sans-serif" font-size="30" stroke = "rgb(0,0,0)" line = "rgb(0,0,0)"  fill = "lightblue" x="483.218" y="-520.749" >68</text>

<!-- -->


<!--Draw Glitches -->

<line fill="none" stroke="black" stroke-width="4" x1="478.218" y1="570.749" x2="478.218" y2="520.749"  stroke-dasharray = "10,5" />
<text transform="scale(1,-1)" font-family="sans-serif" font-size="30" stroke = "rgb(0,0,0)" line = "rgb(0,0,0)"  fill = "olive" x="483.218" y="-520.749" >68</text>

<!-- -->


<!--Draw the X and Y axes -->
<polyline fill="none" stroke="black" stroke-width="6"  points=" 700,0 0,0 0, 700" />
<polyline fill="none" stroke="black" stroke-width="1"  points=" 0 700  700 700  700 0" />
<!-- -->


<!--Draw labels and tics for X axis -->

<line fill="none" stroke="black"  stroke-width="6"  x1="0.5" y1="0" x2="0.5" y2="-20" />
<text transform="scale(1,-1)" font-family="sans-serif" font-size="30" x="-24.5" y="45" >0</text>
<line fill="none" stroke="black"  stroke-width="6"  x1="139.114" y1="0" x2="139.114" y2="-20" />
<text transform="scale(1,-1)" font-family="sans-serif" font-size="30" x="114.114" y="45" >20</text>
<line fill="none" stroke="black"  stroke-width="6"  x1="277.728" y1="0" x2="277.728" y2="-20" />
<text transform="scale(1,-1)" font-family="sans-serif" font-size="30" x="252.728" y="45" >40</text>
<line fill="none" stroke="black"  stroke-width="6"  x1="416.342" y1="0" x2="416.342" y2="-20" />
<text transform="scale(1,-1)" font-family="sans-serif" font-size="30" x="391.342" y="45" >60</text>
<line fill="none" stroke="black"  stroke-width="6"  x1="554.955" y1="0" x2="554.955" y2="-20" />
<text transform="scale(1,-1)" font-family="sans-serif" font-size="30" x="529.955" y="45" >80</text>
<line fill="none" stroke="black"  stroke-width="6"  x1="693.569" y1="0" x2="693.569" y2="-20" />
<text transform="scale(1,-1)" font-family="sans-serif" font-size="30" x="668.569" y="45" >100</text>


<!--Draw labels and tics for Y axis -->

<line fill="none" stroke="black" stroke-width="6" x1="0.0" y1="0" x2="-20" y2="0" />
<text transform="scale(1,-1)" text-anchor="end" font-family="sans-serif" font-size="30" x="-25" y="10" >600</text>
<line fill="none" stroke="black" stroke-width="6" x1="0.0" y1="87.5" x2="-20" y2="87.5" />
<text transform="scale(1,-1)" text-anchor="end" font-family="sans-serif" font-size="30" x="-25" y="-77.5" >800</text>
<line fill="none" stroke="black" stroke-width="6" x1="0.0" y1="175" x2="-20" y2="175" />
<text transform="scale(1,-1)" text-anchor="end" font-family="sans-serif" font-size="30" x="-25" y="-165" >1000</text>
<line fill="none" stroke="black" stroke-width="6" x1="0.0" y1="262.5" x2="-20" y2="262.5" />
<text transform="scale(1,-1)" text-anchor="end" font-family="sans-serif" font-size="30" x="-25" y="-252.5" >1200</text>
<line fill="none" stroke="black" stroke-width="6" x1="0.0" y1="350" x2="-20" y2="350" />
<text transform="scale(1,-1)" text-anchor="end" font-family="sans-serif" font-size="30" x="-25" y="-340" >1400</text>
<line fill="none" stroke="black" stroke-width="6" x1="0.0" y1="437.5" x2="-20" y2="437.5" />
<text transform="scale(1,-1)" text-anchor="end" font-family="sans-serif" font-size="30" x="-25" y="-427.5" >1600</text>
<line fill="none" stroke="black" stroke-width="6" x1="0.0" y1="525" x2="-20" y2="525" />
<text transform="scale(1,-1)" text-anchor="end" font-family="sans-serif" font-size="30" x="-25" y="-515" >1800</text>
<line fill="none" stroke="black" stroke-width="6" x1="0.0" y1="612.5" x2="-20" y2="612.5" />
<text transform="scale(1,-1)" text-anchor="end" font-family="sans-serif" font-size="30" x="-25" y="-602.5" >2000</text>
<line fill="none" stroke="black" stroke-width="6" x1="0.0" y1="700" x2="-20" y2="700" />
<text transform="scale(1,-1)" text-anchor="end" font-family="sans-serif" font-size="30" x="-25" y="-690" >2200</text>

-->
</g>
</g>
<!-- Run Constants
PRINTDISTANCEDATA bool true
GLITCHESONLY bool false
PERTURBBY double 20
GLITCHLEVEL double 3
BOUNDARYWINDOW double 0.065
STEPSPERFRAME int 100
TRIALS int 1
ALLBLACK bool true
FILEPREFIX string LINE3_RAND%
ENABLE DistanceEnableString 
DISABLE DistanceDisableString 
GRAPHSIZE int 0
BORDER int 0
PLOTSIZE int 0
AXISWIDTH int 6
TICLENGTH int 20
VECTOR g6 
FOLLOWERMODE FollowerMode line
FIXRANDOMSEED fixRandomSeed false
RANDOMSEED int 19191
TIMESTAMP bool false
END end 


-->
</svg>
