<?xml version="1.0" standalone="no"?>
<!-- the width and height set the total pixel output of the image in the browser -->
<!-- whatever is within the viewbox will be remapped to show in this size -->
<svg width="900" height="900" viewBox="1 0900 900"  version="1.1" xmlns="http://www.w3.org/2000/svg" xmlns:xlink="http://www.w3.org/1999/xlink">
 <desc>ID (and file name) = LINE3_RAND%_.85_0.svg  mode = LINE3 </desc> 
<g transform = "scale(1 1)">

<text x = "-850" y="50" transform="rotate(-90)"  font-family="sans-serif" font-size="40" stroke ="lightgray" fill="none"> PointDistanceFollower   Jun 17 2018</text>
 <text x="140"  y="30"  font-family="sans-serif" font-size="20" >LINE3_RAND%_.85_0.svg  &#160;&#160;&#160;&#160;&#160; Wall time passed: 60 msec.</text>
<text x="300" y="60"   font-family="sans-serif" font-size="20" fill="lightblue">S6  lightblue     msec  58</text>
<text x="300" y="85"   font-family="sans-serif" font-size="20" fill="olive">CS6Dist  olive     msec  2</text>



 <!--DISTANCE PLOT BEGINS   mode = LINE3-->


<!-- the following will scale and place the distance plot -->
<g transform="translate(150,850) scale(1 -1)">
   <polyline fill="none" stroke=" lightblue " stroke-width=" 12 " points=" 6.93069,22.0323 13.8614,24.4138 20.7921,27.2504 27.7228,30.5382 34.6535,34.2728 41.5842,38.4495 48.5149,43.0628 55.4455,48.107 62.3762,53.5758 69.3069,59.4626 76.2376,65.7604 83.1683,72.4619 90.099,79.5595 97.0297,87.0454 103.96,94.9116 110.891,103.15 117.822,111.752 124.752,120.709 131.683,130.014 138.614,139.656 145.545,149.628 152.475,159.921 159.406,170.527 166.337,181.437 173.267,192.642 180.198,204.135 187.129,215.908 194.059,222.388 200.99,226.892 207.921,234.155 214.851,243.807 221.782,253.923 228.713,264.493 235.644,275.506 242.574,286.948 249.505,298.81 256.436,311.08 263.366,323.746 270.297,336.797 277.228,350.222 284.158,364.01 291.089,378.149 298.02,392.63 304.95,407.44 311.881,422.571 318.812,438.011 325.743,453.752 332.673,469.782 339.604,486.094 346.535,502.677 353.465,512.243 360.396,517.394 367.327,522.886 374.257,528.782 381.188,535.078 388.119,541.767 395.05,548.845 401.98,557.726 408.911,571.044 415.842,584.587 422.772,598.348 429.703,612.321 436.634,620.528 443.564,622.533 450.495,624.865 457.426,627.521 464.356,630.499 471.287,633.799 478.218,637.417 485.149,641.353 492.079,645.603 499.01,650.165 505.941,655.037 512.871,660.216 519.802,665.699 526.733,671.483 533.663,677.564 540.594,679.644 547.525,671.653 554.455,665.58 561.386,660.523 568.317,656.493 575.248,653.498 582.178,651.542 589.109,650.63 596.04,650.763 602.97,651.941 609.901,643.411 616.832,637.783 623.762,633.416 630.693,630.322 637.624,628.505 644.554,627.973 651.485,634.802 658.416,634.32 665.347,637.338 672.277,643.837 679.208,647.31 686.139,646.006 693.069,648.178 " />

   <polyline fill="none" stroke=" olive " stroke-width=" 3 " points=" 6.93069,22.0323 13.8614,24.4138 20.7921,27.2504 27.7228,30.5382 34.6535,34.2728 41.5842,38.4495 48.5149,43.0628 55.4455,48.107 62.3762,53.5758 69.3069,59.4626 76.2376,65.7604 83.1683,72.4619 90.099,79.5595 97.0297,87.0454 103.96,94.9116 110.891,103.15 117.822,111.752 124.752,120.709 131.683,130.014 138.614,139.656 145.545,149.628 152.475,159.921 159.406,170.527 166.337,181.437 173.267,192.642 180.198,204.135 187.129,215.908 194.059,222.759 200.99,227.005 207.921,234.155 214.851,243.807 221.782,253.923 228.713,264.493 235.644,275.506 242.574,286.948 249.505,298.81 256.436,311.08 263.366,323.746 270.297,336.797 277.228,350.222 284.158,364.01 291.089,378.149 298.02,392.63 304.95,407.44 311.881,422.571 318.812,438.011 325.743,453.752 332.673,469.782 339.604,486.094 346.535,502.677 353.465,512.315 360.396,517.394 367.327,522.886 374.257,528.782 381.188,535.078 388.119,541.767 395.05,548.845 401.98,557.856 408.911,571.683 415.842,585.729 422.772,599.988 429.703,614.454 436.634,620.528 443.564,622.533 450.495,624.865 457.426,627.521 464.356,630.499 471.287,633.799 478.218,637.417 485.149,641.353 492.079,645.603 499.01,650.165 505.941,655.037 512.871,660.216 519.802,665.699 526.733,671.483 533.663,677.564 540.594,680.226 547.525,671.653 554.455,665.58 561.386,660.523 568.317,656.493 575.248,653.498 582.178,651.542 589.109,650.63 596.04,650.763 602.97,651.941 609.901,643.411 616.832,637.783 623.762,633.416 630.693,630.322 637.624,628.505 644.554,627.973 651.485,634.802 658.416,634.32 665.347,637.338 672.277,643.837 679.208,647.31 686.139,646.006 693.069,648.178 " />


<!--Draw the X and Y axes -->
<polyline fill="none" stroke="black" stroke-width="6"  points=" 700,0 0,0 0, 700" />
<polyline fill="none" stroke="black" stroke-width="1"  points=" 0 700  700 700  700 0" />
<!-- -->


<!--Draw labels and tics for X axis -->

<line fill="none" stroke="black"  stroke-width="6"  x1="0.5" y1="0" x2="0.5" y2="-20" />
<text transform="scale(1,-1)" font-family="sans-serif" font-size="30" x="-24.5" y="45" >0</text>
<line fill="none" stroke="black"  stroke-width="6"  x1="139.114" y1="0" x2="139.114" y2="-20" />
<text transform="scale(1,-1)" font-family="sans-serif" font-size="30" x="114.114" y="45" >20</text>
<line fill="none" stroke="black"  stroke-width="6"  x1="277.728" y1="0" x2="277.728" y2="-20" />
<text transform="scale(1,-1)" font-family="sans-serif" font-size="30" x="252.728" y="45" >40</text>
<line fill="none" stroke="black"  stroke-width="6"  x1="416.342" y1="0" x2="416.342" y2="-20" />
<text transform="scale(1,-1)" font-family="sans-serif" font-size="30" x="391.342" y="45" >60</text>
<line fill="none" stroke="black"  stroke-width="6"  x1="554.955" y1="0" x2="554.955" y2="-20" />
<text transform="scale(1,-1)" font-family="sans-serif" font-size="30" x="529.955" y="45" >80</text>
<line fill="none" stroke="black"  stroke-width="6"  x1="693.569" y1="0" x2="693.569" y2="-20" />
<text transform="scale(1,-1)" font-family="sans-serif" font-size="30" x="668.569" y="45" >100</text>


<!--Draw labels and tics for Y axis -->

<line fill="none" stroke="black" stroke-width="6" x1="0.0" y1="0" x2="-20" y2="0" />
<text transform="scale(1,-1)" text-anchor="end" font-family="sans-serif" font-size="30" x="-25" y="10" >1700</text>
<line fill="none" stroke="black" stroke-width="6" x1="0.0" y1="116.667" x2="-20" y2="116.667" />
<text transform="scale(1,-1)" text-anchor="end" font-family="sans-serif" font-size="30" x="-25" y="-106.667" >1900</text>
<line fill="none" stroke="black" stroke-width="6" x1="0.0" y1="233.333" x2="-20" y2="233.333" />
<text transform="scale(1,-1)" text-anchor="end" font-family="sans-serif" font-size="30" x="-25" y="-223.333" >2100</text>
<line fill="none" stroke="black" stroke-width="6" x1="0.0" y1="350" x2="-20" y2="350" />
<text transform="scale(1,-1)" text-anchor="end" font-family="sans-serif" font-size="30" x="-25" y="-340" >2300</text>
<line fill="none" stroke="black" stroke-width="6" x1="0.0" y1="466.667" x2="-20" y2="466.667" />
<text transform="scale(1,-1)" text-anchor="end" font-family="sans-serif" font-size="30" x="-25" y="-456.667" >2500</text>
<line fill="none" stroke="black" stroke-width="6" x1="0.0" y1="583.333" x2="-20" y2="583.333" />
<text transform="scale(1,-1)" text-anchor="end" font-family="sans-serif" font-size="30" x="-25" y="-573.333" >2700</text>
<line fill="none" stroke="black" stroke-width="6" x1="0.0" y1="700" x2="-20" y2="700" />
<text transform="scale(1,-1)" text-anchor="end" font-family="sans-serif" font-size="30" x="-25" y="-690" >2900</text>

-->
</g>
</g>
<!-- Run Constants
PRINTDISTANCEDATA bool true
GLITCHESONLY bool false
PERTURBBY double 20
GLITCHLEVEL double 3
BOUNDARYWINDOW double 0.065
STEPSPERFRAME int 100
TRIALS int 1
ALLBLACK bool true
FILEPREFIX string LINE3_RAND%
ENABLE DistanceEnableString 
DISABLE DistanceDisableString 
GRAPHSIZE int 0
BORDER int 0
PLOTSIZE int 0
AXISWIDTH int 6
TICLENGTH int 20
VECTOR g6 
FOLLOWERMODE FollowerMode line
FIXRANDOMSEED fixRandomSeed false
RANDOMSEED int 19191
TIMESTAMP bool false
END end 


-->
</svg>
