<?xml version="1.0" standalone="no"?>
<!-- the width and height set the total pixel output of the image in the browser -->
<!-- whatever is within the viewbox will be remapped to show in this size -->
<svg width="900" height="900" viewBox="1 0900 900"  version="1.1" xmlns="http://www.w3.org/2000/svg" xmlns:xlink="http://www.w3.org/1999/xlink">
 <desc>ID (and file name) = LINE3_RAND%_.57_0.svg  mode = LINE3 </desc> 
<g transform = "scale(1 1)">

<text x = "-850" y="50" transform="rotate(-90)"  font-family="sans-serif" font-size="40" stroke ="lightgray" fill="none"> PointDistanceFollower   Jun 17 2018</text>
 <text x="140"  y="30"  font-family="sans-serif" font-size="20" >LINE3_RAND%_.57_0.svg  &#160;&#160;&#160;&#160;&#160; Wall time passed: 57 msec.</text>
<text x="300" y="60"   font-family="sans-serif" font-size="20" fill="lightblue">S6  lightblue     msec  55</text>
<text x="300" y="85"   font-family="sans-serif" font-size="20" fill="olive">CS6Dist  olive     msec  1</text>



 <!--DISTANCE PLOT BEGINS   mode = LINE3-->


<!-- the following will scale and place the distance plot -->
<g transform="translate(150,850) scale(1 -1)">
   <polyline fill="none" stroke=" lightblue " stroke-width=" 12 " points=" 6.93069,353.175 13.8614,336.602 20.7921,321.142 27.7228,306.827 34.6535,293.687 41.5842,281.752 48.5149,271.049 55.4455,261.603 62.3762,253.438 69.3069,246.573 76.2376,241.026 83.1683,236.812 90.099,229.722 97.0297,211.897 103.96,195.249 110.891,179.818 117.822,165.643 124.752,152.76 131.683,141.204 138.614,131.008 145.545,122.199 152.475,114.804 159.406,108.846 166.337,104.343 173.267,101.309 180.198,99.7528 187.129,99.68 194.059,101.091 200.99,103.98 207.921,108.34 214.851,114.156 221.782,121.41 228.713,130.081 235.644,140.143 242.574,151.567 249.505,164.322 256.436,178.372 263.366,193.681 270.297,210.211 277.228,227.922 284.158,246.774 291.089,266.726 298.02,287.735 304.95,290.046 311.881,280.989 318.812,273.202 325.743,266.702 332.673,261.506 339.604,257.626 346.535,255.074 353.465,253.855 360.396,253.972 367.327,255.426 374.257,255.057 381.188,239.768 388.119,225.688 395.05,212.851 401.98,201.288 408.911,191.029 415.842,182.102 422.772,174.53 429.703,168.335 436.634,163.533 443.564,160.139 450.495,158.163 457.426,157.61 464.356,158.481 471.287,160.775 478.218,164.485 485.149,169.599 492.079,176.104 499.01,183.981 505.941,193.208 512.871,203.761 519.802,215.611 526.733,228.729 533.663,243.082 540.594,258.637 547.525,265.071 554.455,270.476 561.386,277.18 568.317,285.166 575.248,294.416 582.178,304.908 589.109,316.617 596.04,329.517 602.97,343.581 609.901,358.778 616.832,375.077 623.762,392.448 630.693,410.856 637.624,430.27 644.554,450.655 651.485,471.979 658.416,494.207 665.347,517.306 672.277,541.245 679.208,565.989 686.139,591.509 693.069,617.772 " />

   <polyline fill="none" stroke=" olive " stroke-width=" 3 " points=" 6.93069,353.175 13.8614,336.602 20.7921,321.142 27.7228,306.827 34.6535,293.687 41.5842,281.752 48.5149,271.049 55.4455,261.603 62.3762,253.438 69.3069,246.573 76.2376,241.026 83.1683,236.812 90.099,229.722 97.0297,211.897 103.96,195.249 110.891,179.818 117.822,165.643 124.752,152.76 131.683,141.204 138.614,131.008 145.545,122.199 152.475,114.804 159.406,108.846 166.337,104.343 173.267,101.309 180.198,99.7528 187.129,99.68 194.059,101.091 200.99,103.98 207.921,108.34 214.851,114.156 221.782,121.41 228.713,130.081 235.644,140.143 242.574,151.567 249.505,164.322 256.436,178.372 263.366,193.681 270.297,210.211 277.228,227.922 284.158,246.774 291.089,266.726 298.02,287.735 304.95,309.761 311.881,332.763 318.812,356.7 325.743,376.945 332.673,370.135 339.604,348.365 346.535,327.58 353.465,307.818 360.396,289.119 367.327,271.519 374.257,255.057 381.188,239.768 388.119,225.688 395.05,212.851 401.98,201.288 408.911,191.029 415.842,182.102 422.772,174.53 429.703,168.335 436.634,163.533 443.564,160.139 450.495,158.163 457.426,157.61 464.356,158.481 471.287,160.775 478.218,164.485 485.149,169.599 492.079,176.104 499.01,183.981 505.941,193.208 512.871,203.761 519.802,215.611 526.733,228.729 533.663,243.082 540.594,258.637 547.525,275.357 554.455,293.206 561.386,312.146 568.317,332.139 575.248,353.148 582.178,375.134 589.109,398.058 596.04,421.884 602.97,446.575 609.901,472.094 616.832,487.448 623.762,498.72 630.693,510.792 637.624,523.641 644.554,537.241 651.485,551.571 658.416,566.609 665.347,582.335 672.277,598.728 679.208,615.771 686.139,633.445 693.069,651.733 " />


<!--Draw the X and Y axes -->
<polyline fill="none" stroke="black" stroke-width="6"  points=" 700,0 0,0 0, 700" />
<polyline fill="none" stroke="black" stroke-width="1"  points=" 0 700  700 700  700 0" />
<!-- -->


<!--Draw labels and tics for X axis -->

<line fill="none" stroke="black"  stroke-width="6"  x1="0.5" y1="0" x2="0.5" y2="-20" />
<text transform="scale(1,-1)" font-family="sans-serif" font-size="30" x="-24.5" y="45" >0</text>
<line fill="none" stroke="black"  stroke-width="6"  x1="139.114" y1="0" x2="139.114" y2="-20" />
<text transform="scale(1,-1)" font-family="sans-serif" font-size="30" x="114.114" y="45" >20</text>
<line fill="none" stroke="black"  stroke-width="6"  x1="277.728" y1="0" x2="277.728" y2="-20" />
<text transform="scale(1,-1)" font-family="sans-serif" font-size="30" x="252.728" y="45" >40</text>
<line fill="none" stroke="black"  stroke-width="6"  x1="416.342" y1="0" x2="416.342" y2="-20" />
<text transform="scale(1,-1)" font-family="sans-serif" font-size="30" x="391.342" y="45" >60</text>
<line fill="none" stroke="black"  stroke-width="6"  x1="554.955" y1="0" x2="554.955" y2="-20" />
<text transform="scale(1,-1)" font-family="sans-serif" font-size="30" x="529.955" y="45" >80</text>
<line fill="none" stroke="black"  stroke-width="6"  x1="693.569" y1="0" x2="693.569" y2="-20" />
<text transform="scale(1,-1)" font-family="sans-serif" font-size="30" x="668.569" y="45" >100</text>


<!--Draw labels and tics for Y axis -->

<line fill="none" stroke="black" stroke-width="6" x1="0.0" y1="0" x2="-20" y2="0" />
<text transform="scale(1,-1)" text-anchor="end" font-family="sans-serif" font-size="30" x="-25" y="10" >650</text>
<line fill="none" stroke="black" stroke-width="6" x1="0.0" y1="100" x2="-20" y2="100" />
<text transform="scale(1,-1)" text-anchor="end" font-family="sans-serif" font-size="30" x="-25" y="-90" >700</text>
<line fill="none" stroke="black" stroke-width="6" x1="0.0" y1="200" x2="-20" y2="200" />
<text transform="scale(1,-1)" text-anchor="end" font-family="sans-serif" font-size="30" x="-25" y="-190" >750</text>
<line fill="none" stroke="black" stroke-width="6" x1="0.0" y1="300" x2="-20" y2="300" />
<text transform="scale(1,-1)" text-anchor="end" font-family="sans-serif" font-size="30" x="-25" y="-290" >800</text>
<line fill="none" stroke="black" stroke-width="6" x1="0.0" y1="400" x2="-20" y2="400" />
<text transform="scale(1,-1)" text-anchor="end" font-family="sans-serif" font-size="30" x="-25" y="-390" >850</text>
<line fill="none" stroke="black" stroke-width="6" x1="0.0" y1="500" x2="-20" y2="500" />
<text transform="scale(1,-1)" text-anchor="end" font-family="sans-serif" font-size="30" x="-25" y="-490" >900</text>
<line fill="none" stroke="black" stroke-width="6" x1="0.0" y1="600" x2="-20" y2="600" />
<text transform="scale(1,-1)" text-anchor="end" font-family="sans-serif" font-size="30" x="-25" y="-590" >950</text>
<line fill="none" stroke="black" stroke-width="6" x1="0.0" y1="700" x2="-20" y2="700" />
<text transform="scale(1,-1)" text-anchor="end" font-family="sans-serif" font-size="30" x="-25" y="-690" >1000</text>

-->
</g>
</g>
<!-- Run Constants
PRINTDISTANCEDATA bool true
GLITCHESONLY bool false
PERTURBBY double 20
GLITCHLEVEL double 3
BOUNDARYWINDOW double 0.065
STEPSPERFRAME int 100
TRIALS int 1
ALLBLACK bool true
FILEPREFIX string LINE3_RAND%
ENABLE DistanceEnableString 
DISABLE DistanceDisableString 
GRAPHSIZE int 0
BORDER int 0
PLOTSIZE int 0
AXISWIDTH int 6
TICLENGTH int 20
VECTOR g6 
FOLLOWERMODE FollowerMode line
FIXRANDOMSEED fixRandomSeed false
RANDOMSEED int 19191
TIMESTAMP bool false
END end 


-->
</svg>
