<?xml version="1.0" standalone="no"?>
<!-- the width and height set the total pixel output of the image in the browser -->
<!-- whatever is within the viewbox will be remapped to show in this size -->
<svg width="1000" height="1000" viewBox="1 0  1200 1200"  version="1.1" xmlns="http://www.w3.org/2000/svg" xmlns:xlink="http://www.w3.org/1999/xlink">
 <desc>ID (and file name) = Fol_.84_0.svg  mode = Single Point </desc> 
<g transform = "scale(1 1)">

<text x = "-850" y="50" transform="rotate(-90)"  font-family="sans-serif" font-size="40" stroke ="lightgray" fill="none"> PointDistanceFollower   Jan 31 2020</text>
 <text x="200"  y="30"  font-family="sans-serif" font-size="20" >Fol_.84_0.svg</text>
<text x="300" y="60"   font-family="sans-serif" font-size="20" fill="lightblue">  S6  </text>
<text x="300" y="85"   font-family="sans-serif" font-size="20" fill="olive">  CS6Dist  </text>
<text x="300" y="110"   font-family="sans-serif" font-size="20" fill="black">  LM  </text>



 <!--DISTANCE PLOT BEGINS   mode = Single Point-->


<!-- the following will scale and place the distance plot -->
<g transform="translate(150,975) scale(1 -1)">
   <polyline fill="none" stroke=" lightblue " stroke-width=" 12 " stroke-dasharray = " 10,5 " points=" 7.92079,0 15.8416,38.9148 23.7624,77.8296 31.6832,116.744 39.604,155.659 47.5248,194.574 55.4455,233.489 63.3663,272.404 71.2871,311.318 79.2079,331.825 87.1287,339.202 95.0495,337.534 102.97,334.507 110.891,332.633 118.812,331.931 126.733,332.407 134.653,334.058 142.574,336.865 150.495,340.801 158.416,345.827 166.337,351.895 174.257,358.954 182.178,366.946 190.099,375.811 198.02,385.489 205.941,395.921 213.861,407.049 221.782,418.817 229.703,431.173 237.624,444.067 245.545,457.455 253.465,471.293 261.386,485.545 269.307,500.299 277.228,515.696 285.149,531.626 293.069,548.045 300.99,564.908 308.911,582.177 316.832,599.818 324.752,617.799 332.673,636.09 340.594,654.665 348.515,673.502 356.436,692.578 364.356,711.875 372.277,731.375 380.198,743.296 388.119,740.237 396.04,737.872 403.96,736.208 411.881,735.248 419.802,734.996 427.723,735.453 435.644,736.617 443.564,739.159 451.485,744.154 459.406,750.017 467.327,754.871 475.248,746.521 483.168,733.16 491.089,720.491 499.01,708.548 506.931,697.371 514.851,686.996 522.772,677.46 530.693,669.89 538.614,663.346 546.535,657.57 554.455,652.581 562.376,648.397 570.297,645.034 578.218,631.349 586.139,607.966 594.059,584.582 601.98,561.199 609.901,537.816 617.822,514.433 625.743,491.049 633.663,467.666 641.584,444.283 649.505,420.899 657.426,397.516 665.347,374.133 673.267,350.749 681.188,327.366 689.109,303.983 697.03,280.6 704.95,257.216 712.871,233.833 720.792,210.45 728.713,187.066 736.634,163.683 744.554,140.3 752.475,116.916 760.396,93.5332 768.317,70.1499 776.238,46.7666 784.158,23.3833 792.079,0 " />

   <polyline fill="none" stroke=" olive " stroke-width=" 3 " stroke-dasharray = " 5,10 " points=" 7.92079,0 15.8416,38.9148 23.7624,77.8296 31.6832,116.744 39.604,155.659 47.5248,194.574 55.4455,233.489 63.3663,272.404 71.2871,311.318 79.2079,337.143 87.1287,341.682 95.0495,337.534 102.97,334.507 110.891,332.633 118.812,331.931 126.733,332.407 134.653,334.058 142.574,336.865 150.495,340.801 158.416,345.827 166.337,351.895 174.257,358.954 182.178,366.946 190.099,375.811 198.02,385.489 205.941,395.921 213.861,407.049 221.782,418.817 229.703,431.173 237.624,444.067 245.545,457.455 253.465,471.293 261.386,485.545 269.307,500.899 277.228,517.488 285.149,534.651 293.069,552.339 300.99,570.509 308.911,589.12 316.832,608.135 324.752,627.52 332.673,647.245 340.594,667.282 348.515,687.605 356.436,708.192 364.356,729.021 372.277,747.039 380.198,743.296 388.119,740.237 396.04,737.872 403.96,736.208 411.881,735.248 419.802,734.996 427.723,735.453 435.644,736.617 443.564,740.458 451.485,749.881 459.406,760.145 467.327,769.364 475.248,764.861 483.168,748.491 491.089,732.835 499.01,717.926 506.931,703.801 514.851,690.493 522.772,678.035 530.693,669.89 538.614,663.346 546.535,657.57 554.455,652.581 562.376,648.397 570.297,645.034 578.218,631.349 586.139,607.966 594.059,584.582 601.98,561.199 609.901,537.816 617.822,514.433 625.743,491.049 633.663,467.666 641.584,444.283 649.505,420.899 657.426,397.516 665.347,374.133 673.267,350.749 681.188,327.366 689.109,303.983 697.03,280.6 704.95,257.216 712.871,233.833 720.792,210.45 728.713,187.066 736.634,163.683 744.554,140.3 752.475,116.916 760.396,93.5332 768.317,70.1499 776.238,46.7666 784.158,23.3833 792.079,0 " />

   <polyline fill="none" stroke=" black " stroke-width=" 3 " stroke-dasharray = "  " points=" 7.92079,0 15.8416,38.9148 23.7624,77.8296 31.6832,116.744 39.604,155.659 47.5248,194.574 55.4455,233.489 63.3663,272.404 71.2871,311.318 79.2079,346.911 87.1287,341.682 95.0495,337.534 102.97,334.507 110.891,332.633 118.812,331.931 126.733,332.407 134.653,334.058 142.574,336.865 150.495,340.801 158.416,345.827 166.337,351.895 174.257,358.954 182.178,366.946 190.099,375.811 198.02,385.489 205.941,395.921 213.861,407.049 221.782,418.817 229.703,431.173 237.624,444.067 245.545,457.455 253.465,471.293 261.386,485.545 269.307,500.173 277.228,515.147 285.149,530.437 293.069,546.016 300.99,561.861 308.911,577.949 316.832,594.26 324.752,610.778 332.673,627.485 340.594,644.367 348.515,661.41 356.436,678.603 364.356,695.934 372.277,713.393 380.198,730.97 388.119,739.113 396.04,736.676 403.96,734.976 411.881,734.017 419.802,733.802 427.723,734.331 435.644,735.605 443.564,737.617 451.485,740.363 459.406,743.835 467.327,746.368 475.248,735.144 483.168,723.919 491.089,713.284 499.01,703.265 506.931,693.891 514.851,685.186 522.772,677.177 530.693,669.89 538.614,663.346 546.535,657.57 554.455,652.581 562.376,648.397 570.297,645.034 578.218,631.349 586.139,607.966 594.059,584.582 601.98,561.199 609.901,537.816 617.822,514.433 625.743,491.049 633.663,467.666 641.584,444.283 649.505,420.899 657.426,397.516 665.347,374.133 673.267,350.749 681.188,327.366 689.109,303.983 697.03,280.6 704.95,257.216 712.871,233.833 720.792,210.45 728.713,187.066 736.634,163.683 744.554,140.3 752.475,116.916 760.396,93.5332 768.317,70.1499 776.238,46.7666 784.158,23.3833 792.079,0 " />


<!--Draw the X and Y axes -->
<polyline fill="none" stroke="black" stroke-width="6"  points=" 800,0 0,0 0, 800" />
<polyline fill="none" stroke="black" stroke-width="1"  points=" 0 800  800 800  800 0" />
<!-- -->


<!--Draw labels and tics for X axis -->

<line fill="none" stroke="black"  stroke-width="6"  x1="0.5" y1="0" x2="0.5" y2="-20" />
<text transform="scale(1,-1)" font-family="sans-serif" font-size="30" x="-24.5" y="45" >0</text>
<line fill="none" stroke="black"  stroke-width="6"  x1="158.916" y1="0" x2="158.916" y2="-20" />
<text transform="scale(1,-1)" font-family="sans-serif" font-size="30" x="133.916" y="45" >20</text>
<line fill="none" stroke="black"  stroke-width="6"  x1="317.332" y1="0" x2="317.332" y2="-20" />
<text transform="scale(1,-1)" font-family="sans-serif" font-size="30" x="292.332" y="45" >40</text>
<line fill="none" stroke="black"  stroke-width="6"  x1="475.748" y1="0" x2="475.748" y2="-20" />
<text transform="scale(1,-1)" font-family="sans-serif" font-size="30" x="450.748" y="45" >60</text>
<line fill="none" stroke="black"  stroke-width="6"  x1="634.163" y1="0" x2="634.163" y2="-20" />
<text transform="scale(1,-1)" font-family="sans-serif" font-size="30" x="609.163" y="45" >80</text>
<line fill="none" stroke="black"  stroke-width="6"  x1="792.579" y1="0" x2="792.579" y2="-20" />
<text transform="scale(1,-1)" font-family="sans-serif" font-size="30" x="767.579" y="45" >100</text>


<!--Draw labels and tics for Y axis -->

<line fill="none" stroke="black" stroke-width="6" x1="0.0" y1="0" x2="-20" y2="0" />
<text transform="scale(1,-1)" text-anchor="end" font-family="sans-serif" font-size="30" x="-25" y="10" >0</text>
<line fill="none" stroke="black" stroke-width="6" x1="0.0" y1="200" x2="-20" y2="200" />
<text transform="scale(1,-1)" text-anchor="end" font-family="sans-serif" font-size="30" x="-25" y="-190" >5</text>
<line fill="none" stroke="black" stroke-width="6" x1="0.0" y1="400" x2="-20" y2="400" />
<text transform="scale(1,-1)" text-anchor="end" font-family="sans-serif" font-size="30" x="-25" y="-390" >10</text>
<line fill="none" stroke="black" stroke-width="6" x1="0.0" y1="600" x2="-20" y2="600" />
<text transform="scale(1,-1)" text-anchor="end" font-family="sans-serif" font-size="30" x="-25" y="-590" >15</text>
<line fill="none" stroke="black" stroke-width="6" x1="0.0" y1="800" x2="-20" y2="800" />
<text transform="scale(1,-1)" text-anchor="end" font-family="sans-serif" font-size="30" x="-25" y="-790" >20</text>

-->
</g>
</g>
<!-- Run Constants
PRINTDISTANCEDATA bool true
GLITCHESONLY bool false
PERTURBBY double 0.05
GLITCHLEVEL double 3
BOUNDARYWINDOW double 0.065
STEPSPERFRAME int 100
TRIALS int 1
ALLBLACK bool true
FILEPREFIX string Fol
NIGGLISELLINGFIRST bool false
ENABLE DistanceEnableString 
DISABLE DistanceDisableString 
GRAPHSIZE int 0
BORDER int 0
PLOTSIZE int 0
AXISWIDTH int 6
TICLENGTH int 20
VECTOR g6 
FOLLOWERMODE FollowerMode point
FIXRANDOMSEED fixRandomSeed true
RANDOMSEED int 18
TIMESTAMP bool false
END end 


-->
</svg>
