<?xml version="1.0" standalone="no"?>
<!-- the width and height set the total pixel output of the image in the browser -->
<!-- whatever is within the viewbox will be remapped to show in this size -->
<svg width="1000" height="1000" viewBox="1 0  1200 1200"  version="1.1" xmlns="http://www.w3.org/2000/svg" xmlns:xlink="http://www.w3.org/1999/xlink">
 <desc>ID (and file name) = Fol_.60_0.svg  mode = Single Point </desc> 
<g transform = "scale(1 1)">

<text x = "-850" y="50" transform="rotate(-90)"  font-family="sans-serif" font-size="40" stroke ="lightgray" fill="none"> PointDistanceFollower   Jan 31 2020</text>
 <text x="200"  y="30"  font-family="sans-serif" font-size="20" >Fol_.60_0.svg</text>
<text x="300" y="60"   font-family="sans-serif" font-size="20" fill="lightblue">  S6  </text>
<text x="300" y="85"   font-family="sans-serif" font-size="20" fill="olive">  CS6Dist  </text>
<text x="300" y="110"   font-family="sans-serif" font-size="20" fill="black">  LM  </text>



 <!--DISTANCE PLOT BEGINS   mode = Single Point-->


<!-- the following will scale and place the distance plot -->
<g transform="translate(150,975) scale(1 -1)">
   <polyline fill="none" stroke=" lightblue " stroke-width=" 12 " stroke-dasharray = " 10,5 " points=" 7.92079,0 15.8416,30.7857 23.7624,61.5714 31.6832,92.3571 39.604,123.143 47.5248,153.929 55.4455,184.714 63.3663,215.5 71.2871,246.286 79.2079,277.071 87.1287,307.857 95.0495,338.643 102.97,369.428 110.891,400.214 118.812,431 126.733,461.786 134.653,492.571 142.574,523.357 150.495,528.153 158.416,521.993 166.337,517.594 174.257,515 182.178,514.24 190.099,515.321 198.02,518.231 205.941,522.941 213.861,529.403 221.782,537.552 229.703,547.314 237.624,558.604 245.545,571.332 253.465,585.403 261.386,600.724 269.307,618.99 277.228,639.711 285.149,661.558 293.069,684.423 300.99,708.206 308.911,732.819 316.832,746.108 324.752,757.1 332.673,769.46 340.594,783.125 348.515,794.522 356.436,772.73 364.356,751.866 372.277,732.012 380.198,713.251 388.119,695.671 396.04,679.365 403.96,664.425 411.881,650.947 419.802,639.022 427.723,628.74 435.644,620.18 443.564,613.417 451.485,608.509 459.406,605.503 467.327,604.425 475.248,605.287 483.168,608.08 491.089,612.778 499.01,619.337 506.931,627.7 514.851,637.795 522.772,649.541 530.693,652.043 538.614,647.566 546.535,643.873 554.455,640.977 562.376,638.888 570.297,637.616 578.218,618.1 586.139,595.208 594.059,572.315 601.98,549.423 609.901,526.53 617.822,503.637 625.743,480.745 633.663,457.852 641.584,434.96 649.505,412.067 657.426,389.174 665.347,366.282 673.267,343.389 681.188,320.497 689.109,297.604 697.03,274.711 704.95,251.819 712.871,228.926 720.792,206.033 728.713,183.141 736.634,160.248 744.554,137.356 752.475,114.463 760.396,91.5704 768.317,68.6778 776.238,45.7852 784.158,22.8926 792.079,0 " />

   <polyline fill="none" stroke=" olive " stroke-width=" 3 " stroke-dasharray = " 5,10 " points=" 7.92079,3.37175e-05 15.8416,30.7857 23.7624,61.5714 31.6832,92.3571 39.604,123.143 47.5248,153.929 55.4455,184.714 63.3663,215.5 71.2871,246.286 79.2079,277.071 87.1287,307.857 95.0495,338.643 102.97,369.428 110.891,400.214 118.812,431 126.733,461.786 134.653,492.571 142.574,523.357 150.495,554.143 158.416,584.928 166.337,584.362 174.257,585.72 182.178,589.17 190.099,593.871 198.02,590.911 205.941,589.221 213.861,588.706 221.782,589.27 229.703,590.821 237.624,593.274 245.545,596.547 253.465,600.566 261.386,605.263 269.307,618.99 277.228,639.711 285.149,661.558 293.069,684.423 300.99,708.206 308.911,732.819 316.832,746.108 324.752,757.1 332.673,769.46 340.594,783.125 348.515,794.522 356.436,772.73 364.356,751.866 372.277,732.012 380.198,713.251 388.119,695.671 396.04,679.365 403.96,664.425 411.881,650.947 419.802,639.022 427.723,628.74 435.644,620.18 443.564,613.417 451.485,608.509 459.406,605.503 467.327,604.425 475.248,605.287 483.168,608.08 491.089,612.778 499.01,619.337 506.931,627.7 514.851,637.795 522.772,649.541 530.693,658.652 538.614,665.312 546.535,672.364 554.455,679.821 562.376,663.886 570.297,640.993 578.218,618.1 586.139,595.208 594.059,572.315 601.98,549.423 609.901,526.53 617.822,503.637 625.743,480.745 633.663,457.852 641.584,434.96 649.505,412.067 657.426,389.174 665.347,366.282 673.267,343.389 681.188,320.497 689.109,297.604 697.03,274.711 704.95,251.819 712.871,228.926 720.792,206.033 728.713,183.141 736.634,160.248 744.554,137.356 752.475,114.463 760.396,91.5704 768.317,68.6778 776.238,45.7852 784.158,22.8926 792.079,3.37175e-05 " />

   <polyline fill="none" stroke=" black " stroke-width=" 3 " stroke-dasharray = "  " points=" 7.92079,0 15.8416,30.7857 23.7624,61.5714 31.6832,92.3571 39.604,123.143 47.5248,153.929 55.4455,184.714 63.3663,215.5 71.2871,246.286 79.2079,277.071 87.1287,307.857 95.0495,338.643 102.97,369.428 110.891,400.214 118.812,431 126.733,461.786 134.653,492.571 142.574,523.357 150.495,522.961 158.416,514.173 166.337,507.549 174.257,503.174 182.178,501.108 190.099,501.378 198.02,503.982 205.941,508.883 213.861,516.016 221.782,525.29 229.703,536.594 237.624,549.803 245.545,564.783 253.465,581.397 261.386,599.51 269.307,618.99 277.228,639.711 285.149,661.558 293.069,684.423 300.99,708.206 308.911,732.819 316.832,746.108 324.752,757.1 332.673,769.46 340.594,783.125 348.515,790.504 356.436,772.73 364.356,751.866 372.277,732.012 380.198,713.251 388.119,695.671 396.04,679.365 403.96,664.425 411.881,650.947 419.802,639.022 427.723,628.74 435.644,620.18 443.564,613.417 451.485,608.509 459.406,605.503 467.327,604.425 475.248,605.287 483.168,608.08 491.089,612.778 499.01,619.337 506.931,627.7 514.851,637.795 522.772,649.541 530.693,662.851 538.614,677.632 546.535,693.791 554.455,686.778 562.376,663.886 570.297,640.993 578.218,618.1 586.139,595.208 594.059,572.315 601.98,549.423 609.901,526.53 617.822,503.637 625.743,480.745 633.663,457.852 641.584,434.96 649.505,412.067 657.426,389.174 665.347,366.282 673.267,343.389 681.188,320.497 689.109,297.604 697.03,274.711 704.95,251.819 712.871,228.926 720.792,206.033 728.713,183.141 736.634,160.248 744.554,137.356 752.475,114.463 760.396,91.5704 768.317,68.6778 776.238,45.7852 784.158,22.8926 792.079,0 " />


<!--Draw the X and Y axes -->
<polyline fill="none" stroke="black" stroke-width="6"  points=" 800,0 0,0 0, 800" />
<polyline fill="none" stroke="black" stroke-width="1"  points=" 0 800  800 800  800 0" />
<!-- -->


<!--Draw labels and tics for X axis -->

<line fill="none" stroke="black"  stroke-width="6"  x1="0.5" y1="0" x2="0.5" y2="-20" />
<text transform="scale(1,-1)" font-family="sans-serif" font-size="30" x="-24.5" y="45" >0</text>
<line fill="none" stroke="black"  stroke-width="6"  x1="158.916" y1="0" x2="158.916" y2="-20" />
<text transform="scale(1,-1)" font-family="sans-serif" font-size="30" x="133.916" y="45" >20</text>
<line fill="none" stroke="black"  stroke-width="6"  x1="317.332" y1="0" x2="317.332" y2="-20" />
<text transform="scale(1,-1)" font-family="sans-serif" font-size="30" x="292.332" y="45" >40</text>
<line fill="none" stroke="black"  stroke-width="6"  x1="475.748" y1="0" x2="475.748" y2="-20" />
<text transform="scale(1,-1)" font-family="sans-serif" font-size="30" x="450.748" y="45" >60</text>
<line fill="none" stroke="black"  stroke-width="6"  x1="634.163" y1="0" x2="634.163" y2="-20" />
<text transform="scale(1,-1)" font-family="sans-serif" font-size="30" x="609.163" y="45" >80</text>
<line fill="none" stroke="black"  stroke-width="6"  x1="792.579" y1="0" x2="792.579" y2="-20" />
<text transform="scale(1,-1)" font-family="sans-serif" font-size="30" x="767.579" y="45" >100</text>


<!--Draw labels and tics for Y axis -->

<line fill="none" stroke="black" stroke-width="6" x1="0.0" y1="0" x2="-20" y2="0" />
<text transform="scale(1,-1)" text-anchor="end" font-family="sans-serif" font-size="30" x="-25" y="10" >0</text>
<line fill="none" stroke="black" stroke-width="6" x1="0.0" y1="200" x2="-20" y2="200" />
<text transform="scale(1,-1)" text-anchor="end" font-family="sans-serif" font-size="30" x="-25" y="-190" >2</text>
<line fill="none" stroke="black" stroke-width="6" x1="0.0" y1="400" x2="-20" y2="400" />
<text transform="scale(1,-1)" text-anchor="end" font-family="sans-serif" font-size="30" x="-25" y="-390" >4</text>
<line fill="none" stroke="black" stroke-width="6" x1="0.0" y1="600" x2="-20" y2="600" />
<text transform="scale(1,-1)" text-anchor="end" font-family="sans-serif" font-size="30" x="-25" y="-590" >6</text>
<line fill="none" stroke="black" stroke-width="6" x1="0.0" y1="800" x2="-20" y2="800" />
<text transform="scale(1,-1)" text-anchor="end" font-family="sans-serif" font-size="30" x="-25" y="-790" >8</text>

-->
</g>
</g>
<!-- Run Constants
PRINTDISTANCEDATA bool true
GLITCHESONLY bool false
PERTURBBY double 0.05
GLITCHLEVEL double 3
BOUNDARYWINDOW double 0.065
STEPSPERFRAME int 100
TRIALS int 1
ALLBLACK bool true
FILEPREFIX string Fol
NIGGLISELLINGFIRST bool false
ENABLE DistanceEnableString 
DISABLE DistanceDisableString 
GRAPHSIZE int 0
BORDER int 0
PLOTSIZE int 0
AXISWIDTH int 6
TICLENGTH int 20
VECTOR g6 
FOLLOWERMODE FollowerMode point
FIXRANDOMSEED fixRandomSeed true
RANDOMSEED int 18
TIMESTAMP bool false
END end 


-->
</svg>
