<?xml version="1.0" standalone="no"?>
<!-- the width and height set the total pixel output of the image in the browser -->
<!-- whatever is within the viewbox will be remapped to show in this size -->
<svg width="1000" height="1000" viewBox="1 0  1200 1200"  version="1.1" xmlns="http://www.w3.org/2000/svg" xmlns:xlink="http://www.w3.org/1999/xlink">
 <desc>ID (and file name) = Fol_.48_0.svg  mode = Single Point </desc> 
<g transform = "scale(1 1)">

<text x = "-850" y="50" transform="rotate(-90)"  font-family="sans-serif" font-size="40" stroke ="lightgray" fill="none"> PointDistanceFollower   Jan 31 2020</text>
 <text x="200"  y="30"  font-family="sans-serif" font-size="20" >Fol_.48_0.svg</text>
<text x="300" y="60"   font-family="sans-serif" font-size="20" fill="lightblue">  S6  </text>
<text x="300" y="85"   font-family="sans-serif" font-size="20" fill="olive">  CS6Dist  </text>
<text x="300" y="110"   font-family="sans-serif" font-size="20" fill="black">  LM  </text>



 <!--DISTANCE PLOT BEGINS   mode = Single Point-->


<!-- the following will scale and place the distance plot -->
<g transform="translate(150,975) scale(1 -1)">
   <polyline fill="none" stroke=" lightblue " stroke-width=" 12 " stroke-dasharray = " 10,5 " points=" 7.92079,0 15.8416,15.5372 23.7624,31.0744 31.6832,46.6115 39.604,62.1487 47.5248,77.6859 55.4455,93.2231 63.3663,108.76 71.2871,124.297 79.2079,139.835 87.1287,155.372 95.0495,170.909 102.97,186.446 110.891,201.983 118.812,217.521 126.733,233.058 134.653,248.595 142.574,264.132 150.495,279.669 158.416,295.206 166.337,310.744 174.257,326.281 182.178,341.818 190.099,357.355 198.02,372.892 205.941,388.429 213.861,403.967 221.782,419.504 229.703,435.041 237.624,450.578 245.545,466.115 253.465,481.653 261.386,497.19 269.307,512.727 277.228,528.264 285.149,543.801 293.069,557.53 300.99,570.459 308.911,583.617 316.832,596.987 324.752,610.555 332.673,624.31 340.594,638.238 348.515,652.33 356.436,666.573 364.356,680.959 372.277,695.48 380.198,710.126 388.119,724.89 396.04,739.765 403.96,739.765 411.881,724.89 419.802,710.126 427.723,695.48 435.644,680.959 443.564,666.573 451.485,652.33 459.406,638.238 467.327,624.31 475.248,610.555 483.168,596.987 491.089,583.617 499.01,570.459 506.931,557.53 514.851,543.801 522.772,528.264 530.693,512.727 538.614,497.19 546.535,481.653 554.455,466.115 562.376,450.578 570.297,435.041 578.218,419.504 586.139,403.967 594.059,388.429 601.98,372.892 609.901,357.355 617.822,341.818 625.743,326.281 633.663,310.744 641.584,295.206 649.505,279.669 657.426,264.132 665.347,248.595 673.267,233.058 681.188,217.521 689.109,201.983 697.03,186.446 704.95,170.909 712.871,155.372 720.792,139.835 728.713,124.297 736.634,108.76 744.554,93.2231 752.475,77.6859 760.396,62.1487 768.317,46.6115 776.238,31.0744 784.158,15.5372 792.079,0 " />

   <polyline fill="none" stroke=" olive " stroke-width=" 3 " stroke-dasharray = " 5,10 " points=" 7.92079,0 15.8416,15.5372 23.7624,31.0744 31.6832,46.6115 39.604,62.1487 47.5248,77.6859 55.4455,93.2231 63.3663,108.76 71.2871,124.297 79.2079,139.835 87.1287,155.372 95.0495,170.909 102.97,186.446 110.891,201.983 118.812,217.521 126.733,233.058 134.653,248.595 142.574,264.132 150.495,279.669 158.416,295.206 166.337,310.744 174.257,326.281 182.178,341.818 190.099,357.355 198.02,372.892 205.941,388.429 213.861,403.967 221.782,419.504 229.703,435.041 237.624,450.578 245.545,466.115 253.465,481.653 261.386,497.19 269.307,512.727 277.228,528.264 285.149,543.801 293.069,559.815 300.99,576.314 308.911,593.07 316.832,610.067 324.752,627.292 332.673,644.731 340.594,662.373 348.515,680.206 356.436,698.218 364.356,716.4 372.277,734.742 380.198,753.235 388.119,771.871 396.04,790.642 403.96,790.642 411.881,771.871 419.802,753.235 427.723,734.742 435.644,716.4 443.564,698.218 451.485,680.206 459.406,662.373 467.327,644.731 475.248,627.292 483.168,610.067 491.089,593.07 499.01,576.314 506.931,559.815 514.851,543.801 522.772,528.264 530.693,512.727 538.614,497.19 546.535,481.653 554.455,466.115 562.376,450.578 570.297,435.041 578.218,419.504 586.139,403.967 594.059,388.429 601.98,372.892 609.901,357.355 617.822,341.818 625.743,326.281 633.663,310.744 641.584,295.206 649.505,279.669 657.426,264.132 665.347,248.595 673.267,233.058 681.188,217.521 689.109,201.983 697.03,186.446 704.95,170.909 712.871,155.372 720.792,139.835 728.713,124.297 736.634,108.76 744.554,93.2231 752.475,77.6859 760.396,62.1487 768.317,46.6115 776.238,31.0744 784.158,15.5372 792.079,0 " />

   <polyline fill="none" stroke=" black " stroke-width=" 3 " stroke-dasharray = "  " points=" 7.92079,0 15.8416,15.5372 23.7624,31.0744 31.6832,46.6115 39.604,62.1487 47.5248,77.6859 55.4455,93.2231 63.3663,108.76 71.2871,124.297 79.2079,139.835 87.1287,155.372 95.0495,170.909 102.97,186.446 110.891,201.983 118.812,217.521 126.733,233.058 134.653,248.595 142.574,264.132 150.495,279.669 158.416,295.206 166.337,310.744 174.257,326.281 182.178,341.818 190.099,357.355 198.02,372.892 205.941,388.429 213.861,403.967 221.782,419.504 229.703,435.041 237.624,450.578 245.545,466.115 253.465,481.653 261.386,497.19 269.307,512.727 277.228,528.264 285.149,543.801 293.069,559.338 300.99,574.876 308.911,590.413 316.832,605.95 324.752,621.487 332.673,637.024 340.594,652.562 348.515,668.099 356.436,683.636 364.356,699.173 372.277,714.71 380.198,730.247 388.119,745.785 396.04,761.322 403.96,761.322 411.881,745.785 419.802,730.247 427.723,714.71 435.644,699.173 443.564,683.636 451.485,668.099 459.406,652.562 467.327,637.024 475.248,621.487 483.168,605.95 491.089,590.413 499.01,574.876 506.931,559.338 514.851,543.801 522.772,528.264 530.693,512.727 538.614,497.19 546.535,481.653 554.455,466.115 562.376,450.578 570.297,435.041 578.218,419.504 586.139,403.967 594.059,388.429 601.98,372.892 609.901,357.355 617.822,341.818 625.743,326.281 633.663,310.744 641.584,295.206 649.505,279.669 657.426,264.132 665.347,248.595 673.267,233.058 681.188,217.521 689.109,201.983 697.03,186.446 704.95,170.909 712.871,155.372 720.792,139.835 728.713,124.297 736.634,108.76 744.554,93.2231 752.475,77.6859 760.396,62.1487 768.317,46.6115 776.238,31.0744 784.158,15.5372 792.079,0 " />


<!--Draw the X and Y axes -->
<polyline fill="none" stroke="black" stroke-width="6"  points=" 800,0 0,0 0, 800" />
<polyline fill="none" stroke="black" stroke-width="1"  points=" 0 800  800 800  800 0" />
<!-- -->


<!--Draw labels and tics for X axis -->

<line fill="none" stroke="black"  stroke-width="6"  x1="0.5" y1="0" x2="0.5" y2="-20" />
<text transform="scale(1,-1)" font-family="sans-serif" font-size="30" x="-24.5" y="45" >0</text>
<line fill="none" stroke="black"  stroke-width="6"  x1="158.916" y1="0" x2="158.916" y2="-20" />
<text transform="scale(1,-1)" font-family="sans-serif" font-size="30" x="133.916" y="45" >20</text>
<line fill="none" stroke="black"  stroke-width="6"  x1="317.332" y1="0" x2="317.332" y2="-20" />
<text transform="scale(1,-1)" font-family="sans-serif" font-size="30" x="292.332" y="45" >40</text>
<line fill="none" stroke="black"  stroke-width="6"  x1="475.748" y1="0" x2="475.748" y2="-20" />
<text transform="scale(1,-1)" font-family="sans-serif" font-size="30" x="450.748" y="45" >60</text>
<line fill="none" stroke="black"  stroke-width="6"  x1="634.163" y1="0" x2="634.163" y2="-20" />
<text transform="scale(1,-1)" font-family="sans-serif" font-size="30" x="609.163" y="45" >80</text>
<line fill="none" stroke="black"  stroke-width="6"  x1="792.579" y1="0" x2="792.579" y2="-20" />
<text transform="scale(1,-1)" font-family="sans-serif" font-size="30" x="767.579" y="45" >100</text>


<!--Draw labels and tics for Y axis -->

<line fill="none" stroke="black" stroke-width="6" x1="0.0" y1="0" x2="-20" y2="0" />
<text transform="scale(1,-1)" text-anchor="end" font-family="sans-serif" font-size="30" x="-25" y="10" >0</text>
<line fill="none" stroke="black" stroke-width="6" x1="0.0" y1="133.333" x2="-20" y2="133.333" />
<text transform="scale(1,-1)" text-anchor="end" font-family="sans-serif" font-size="30" x="-25" y="-123.333" >1</text>
<line fill="none" stroke="black" stroke-width="6" x1="0.0" y1="266.667" x2="-20" y2="266.667" />
<text transform="scale(1,-1)" text-anchor="end" font-family="sans-serif" font-size="30" x="-25" y="-256.667" >2</text>
<line fill="none" stroke="black" stroke-width="6" x1="0.0" y1="400" x2="-20" y2="400" />
<text transform="scale(1,-1)" text-anchor="end" font-family="sans-serif" font-size="30" x="-25" y="-390" >3</text>
<line fill="none" stroke="black" stroke-width="6" x1="0.0" y1="533.333" x2="-20" y2="533.333" />
<text transform="scale(1,-1)" text-anchor="end" font-family="sans-serif" font-size="30" x="-25" y="-523.333" >4</text>
<line fill="none" stroke="black" stroke-width="6" x1="0.0" y1="666.667" x2="-20" y2="666.667" />
<text transform="scale(1,-1)" text-anchor="end" font-family="sans-serif" font-size="30" x="-25" y="-656.667" >5</text>
<line fill="none" stroke="black" stroke-width="6" x1="0.0" y1="800" x2="-20" y2="800" />
<text transform="scale(1,-1)" text-anchor="end" font-family="sans-serif" font-size="30" x="-25" y="-790" >6</text>

-->
</g>
</g>
<!-- Run Constants
PRINTDISTANCEDATA bool true
GLITCHESONLY bool false
PERTURBBY double 0.05
GLITCHLEVEL double 3
BOUNDARYWINDOW double 0.065
STEPSPERFRAME int 100
TRIALS int 1
ALLBLACK bool true
FILEPREFIX string Fol
NIGGLISELLINGFIRST bool false
ENABLE DistanceEnableString 
DISABLE DistanceDisableString 
GRAPHSIZE int 0
BORDER int 0
PLOTSIZE int 0
AXISWIDTH int 6
TICLENGTH int 20
VECTOR g6 
FOLLOWERMODE FollowerMode point
FIXRANDOMSEED fixRandomSeed true
RANDOMSEED int 18
TIMESTAMP bool false
END end 


-->
</svg>
