<?xml version="1.0" standalone="no"?>
<!-- the width and height set the total pixel output of the image in the browser -->
<!-- whatever is within the viewbox will be remapped to show in this size -->
<svg width="1000" height="1000" viewBox="1 0  1200 1200"  version="1.1" xmlns="http://www.w3.org/2000/svg" xmlns:xlink="http://www.w3.org/1999/xlink">
 <desc>ID (and file name) = Fol_.41_0.svg  mode = Single Point </desc> 
<g transform = "scale(1 1)">

<text x = "-850" y="50" transform="rotate(-90)"  font-family="sans-serif" font-size="40" stroke ="lightgray" fill="none"> PointDistanceFollower   Jan 31 2020</text>
 <text x="200"  y="30"  font-family="sans-serif" font-size="20" >Fol_.41_0.svg</text>
<text x="300" y="60"   font-family="sans-serif" font-size="20" fill="lightblue">  S6  </text>
<text x="300" y="85"   font-family="sans-serif" font-size="20" fill="olive">  CS6Dist  </text>
<text x="300" y="110"   font-family="sans-serif" font-size="20" fill="black">  LM  </text>



 <!--DISTANCE PLOT BEGINS   mode = Single Point-->


<!-- the following will scale and place the distance plot -->
<g transform="translate(150,975) scale(1 -1)">
   <polyline fill="none" stroke=" lightblue " stroke-width=" 12 " stroke-dasharray = " 10,5 " points=" 7.92079,0 15.8416,26.6092 23.7624,53.2184 31.6832,79.8277 39.604,106.437 47.5248,133.046 55.4455,159.655 63.3663,183.56 71.2871,201.702 79.2079,221.562 87.1287,242.717 95.0495,264.858 102.97,287.757 110.891,311.246 118.812,335.202 126.733,359.532 134.653,383.439 142.574,405.092 150.495,427.205 158.416,449.711 166.337,472.554 174.257,495.687 182.178,519.072 190.099,542.676 198.02,566.471 205.941,590.434 213.861,614.546 221.782,638.79 229.703,663.152 237.624,687.618 245.545,712.179 253.465,736.824 261.386,761.545 269.307,769.58 277.228,749.697 285.149,730.185 293.069,711.073 300.99,692.395 308.911,674.188 316.832,656.489 324.752,639.342 332.673,622.792 340.594,606.887 348.515,591.681 356.436,577.227 364.356,563.584 372.277,550.813 380.198,538.974 388.119,528.132 396.04,518.348 403.96,509.683 411.881,502.196 419.802,493.744 427.723,483.912 435.644,475.278 443.564,467.721 451.485,460.469 459.406,453.645 467.327,447.268 475.248,441.358 483.168,435.933 491.089,431.013 499.01,426.613 506.931,422.751 514.851,419.442 522.772,416.699 530.693,414.532 538.614,412.951 546.535,411.963 554.455,411.572 562.376,411.78 570.297,410.242 578.218,407.014 586.139,402.806 594.059,388.316 601.98,373.923 609.901,359.639 617.822,345.408 625.743,329.708 633.663,314.008 641.584,298.307 649.505,282.607 657.426,266.906 665.347,251.206 673.267,235.506 681.188,219.805 689.109,204.105 697.03,188.405 704.95,172.704 712.871,157.004 720.792,141.303 728.713,125.603 736.634,109.903 744.554,94.2023 752.475,78.5019 760.396,62.8015 768.317,47.1011 776.238,31.4008 784.158,15.7004 792.079,0 " />

   <polyline fill="none" stroke=" olive " stroke-width=" 3 " stroke-dasharray = " 5,10 " points=" 7.92079,0 15.8416,26.6092 23.7624,53.2184 31.6832,79.8277 39.604,106.437 47.5248,133.046 55.4455,159.655 63.3663,183.56 71.2871,201.702 79.2079,221.562 87.1287,242.717 95.0495,264.858 102.97,287.757 110.891,311.246 118.812,335.202 126.733,359.532 134.653,384.956 142.574,411.247 150.495,433.263 158.416,455.681 166.337,478.444 174.257,501.506 182.178,524.825 190.099,548.37 198.02,572.111 205.941,596.025 213.861,620.092 221.782,644.294 229.703,668.617 237.624,693.047 245.545,717.575 253.465,742.189 261.386,763.753 269.307,770.608 277.228,754.895 285.149,735.288 293.069,716.079 300.99,697.298 308.911,678.983 316.832,661.173 324.752,643.909 332.673,627.237 340.594,611.206 348.515,595.87 356.436,581.282 364.356,567.502 372.277,554.59 380.198,542.609 388.119,531.623 396.04,521.696 403.96,512.889 411.881,505.262 419.802,498.87 427.723,493.762 435.644,483.57 443.564,470.195 451.485,462.934 459.406,456.104 467.327,449.726 475.248,443.818 483.168,438.4 491.089,433.49 499.01,429.108 506.931,425.268 514.851,421.986 522.772,419.275 530.693,417.147 538.614,415.61 546.535,414.672 554.455,414.337 562.376,414.605 570.297,413.284 578.218,410.144 586.139,402.806 594.059,388.316 601.98,373.923 609.901,359.639 617.822,345.408 625.743,329.708 633.663,314.008 641.584,298.307 649.505,282.607 657.426,266.906 665.347,251.206 673.267,235.506 681.188,219.805 689.109,204.105 697.03,188.405 704.95,172.704 712.871,157.004 720.792,141.303 728.713,125.603 736.634,109.903 744.554,94.2023 752.475,78.5019 760.396,62.8015 768.317,47.1011 776.238,31.4008 784.158,15.7004 792.079,0 " />

   <polyline fill="none" stroke=" black " stroke-width=" 3 " stroke-dasharray = "  " points=" 7.92079,0 15.8416,26.6092 23.7624,53.2184 31.6832,79.8277 39.604,106.437 47.5248,133.046 55.4455,159.655 63.3663,183.56 71.2871,201.702 79.2079,221.562 87.1287,242.717 95.0495,264.858 102.97,287.757 110.891,311.246 118.812,335.202 126.733,359.532 134.653,384.163 142.574,409.043 150.495,434.128 158.416,459.384 166.337,484.785 174.257,510.31 182.178,535.939 190.099,561.66 198.02,587.46 205.941,613.33 213.861,639.26 221.782,665.243 229.703,691.274 237.624,714.176 245.545,730.165 253.465,746.702 261.386,763.753 269.307,770.608 277.228,757.99 285.149,746.051 293.069,734.824 300.99,724.343 308.911,714.639 316.832,705.746 324.752,697.694 332.673,690.512 340.594,682.377 348.515,672.518 356.436,663.579 364.356,655.6 372.277,648.615 380.198,642.656 388.119,637.753 396.04,633.93 403.96,631.207 411.881,629.597 419.802,629.109 427.723,629.747 435.644,631.506 443.564,634.377 451.485,638.346 459.406,642.436 467.327,627.194 475.248,611.975 483.168,596.781 491.089,581.614 499.01,566.476 506.931,551.369 514.851,536.296 522.772,521.261 530.693,506.265 538.614,491.314 546.535,476.411 554.455,461.561 562.376,446.769 570.297,432.041 578.218,417.385 586.139,402.806 594.059,388.316 601.98,373.923 609.901,359.639 617.822,345.408 625.743,329.708 633.663,314.008 641.584,298.307 649.505,282.607 657.426,266.906 665.347,251.206 673.267,235.506 681.188,219.805 689.109,204.105 697.03,188.405 704.95,172.704 712.871,157.004 720.792,141.303 728.713,125.603 736.634,109.903 744.554,94.2023 752.475,78.5019 760.396,62.8015 768.317,47.1011 776.238,31.4008 784.158,15.7004 792.079,0 " />


<!--Draw the X and Y axes -->
<polyline fill="none" stroke="black" stroke-width="6"  points=" 800,0 0,0 0, 800" />
<polyline fill="none" stroke="black" stroke-width="1"  points=" 0 800  800 800  800 0" />
<!-- -->


<!--Draw labels and tics for X axis -->

<line fill="none" stroke="black"  stroke-width="6"  x1="0.5" y1="0" x2="0.5" y2="-20" />
<text transform="scale(1,-1)" font-family="sans-serif" font-size="30" x="-24.5" y="45" >0</text>
<line fill="none" stroke="black"  stroke-width="6"  x1="158.916" y1="0" x2="158.916" y2="-20" />
<text transform="scale(1,-1)" font-family="sans-serif" font-size="30" x="133.916" y="45" >20</text>
<line fill="none" stroke="black"  stroke-width="6"  x1="317.332" y1="0" x2="317.332" y2="-20" />
<text transform="scale(1,-1)" font-family="sans-serif" font-size="30" x="292.332" y="45" >40</text>
<line fill="none" stroke="black"  stroke-width="6"  x1="475.748" y1="0" x2="475.748" y2="-20" />
<text transform="scale(1,-1)" font-family="sans-serif" font-size="30" x="450.748" y="45" >60</text>
<line fill="none" stroke="black"  stroke-width="6"  x1="634.163" y1="0" x2="634.163" y2="-20" />
<text transform="scale(1,-1)" font-family="sans-serif" font-size="30" x="609.163" y="45" >80</text>
<line fill="none" stroke="black"  stroke-width="6"  x1="792.579" y1="0" x2="792.579" y2="-20" />
<text transform="scale(1,-1)" font-family="sans-serif" font-size="30" x="767.579" y="45" >100</text>


<!--Draw labels and tics for Y axis -->

<line fill="none" stroke="black" stroke-width="6" x1="0.0" y1="0" x2="-20" y2="0" />
<text transform="scale(1,-1)" text-anchor="end" font-family="sans-serif" font-size="30" x="-25" y="10" >0</text>
<line fill="none" stroke="black" stroke-width="6" x1="0.0" y1="133.333" x2="-20" y2="133.333" />
<text transform="scale(1,-1)" text-anchor="end" font-family="sans-serif" font-size="30" x="-25" y="-123.333" >5</text>
<line fill="none" stroke="black" stroke-width="6" x1="0.0" y1="266.667" x2="-20" y2="266.667" />
<text transform="scale(1,-1)" text-anchor="end" font-family="sans-serif" font-size="30" x="-25" y="-256.667" >10</text>
<line fill="none" stroke="black" stroke-width="6" x1="0.0" y1="400" x2="-20" y2="400" />
<text transform="scale(1,-1)" text-anchor="end" font-family="sans-serif" font-size="30" x="-25" y="-390" >15</text>
<line fill="none" stroke="black" stroke-width="6" x1="0.0" y1="533.333" x2="-20" y2="533.333" />
<text transform="scale(1,-1)" text-anchor="end" font-family="sans-serif" font-size="30" x="-25" y="-523.333" >20</text>
<line fill="none" stroke="black" stroke-width="6" x1="0.0" y1="666.667" x2="-20" y2="666.667" />
<text transform="scale(1,-1)" text-anchor="end" font-family="sans-serif" font-size="30" x="-25" y="-656.667" >25</text>
<line fill="none" stroke="black" stroke-width="6" x1="0.0" y1="800" x2="-20" y2="800" />
<text transform="scale(1,-1)" text-anchor="end" font-family="sans-serif" font-size="30" x="-25" y="-790" >30</text>

-->
</g>
</g>
<!-- Run Constants
PRINTDISTANCEDATA bool true
GLITCHESONLY bool false
PERTURBBY double 0.05
GLITCHLEVEL double 3
BOUNDARYWINDOW double 0.065
STEPSPERFRAME int 100
TRIALS int 1
ALLBLACK bool true
FILEPREFIX string Fol
NIGGLISELLINGFIRST bool false
ENABLE DistanceEnableString 
DISABLE DistanceDisableString 
GRAPHSIZE int 0
BORDER int 0
PLOTSIZE int 0
AXISWIDTH int 6
TICLENGTH int 20
VECTOR g6 
FOLLOWERMODE FollowerMode point
FIXRANDOMSEED fixRandomSeed true
RANDOMSEED int 18
TIMESTAMP bool false
END end 


-->
</svg>
