<?xml version="1.0" standalone="no"?>
<!-- the width and height set the total pixel output of the image in the browser -->
<!-- whatever is within the viewbox will be remapped to show in this size -->
<svg width="1000" height="1000" viewBox="1 0  1200 1200"  version="1.1" xmlns="http://www.w3.org/2000/svg" xmlns:xlink="http://www.w3.org/1999/xlink">
 <desc>ID (and file name) = Fol_.0_0.svg  mode = Single Point </desc> 
<g transform = "scale(1 1)">

<text x = "-850" y="50" transform="rotate(-90)"  font-family="sans-serif" font-size="40" stroke ="lightgray" fill="none"> PointDistanceFollower   Jan 31 2020</text>
 <text x="200"  y="30"  font-family="sans-serif" font-size="20" >Fol_.0_0.svg</text>
<text x="300" y="60"   font-family="sans-serif" font-size="20" fill="lightblue">  S6  </text>
<text x="300" y="85"   font-family="sans-serif" font-size="20" fill="olive">  CS6Dist  </text>
<text x="300" y="110"   font-family="sans-serif" font-size="20" fill="black">  LM  </text>



 <!--DISTANCE PLOT BEGINS   mode = Single Point-->


<!-- the following will scale and place the distance plot -->
<g transform="translate(150,975) scale(1 -1)">
   <polyline fill="none" stroke=" lightblue " stroke-width=" 12 " stroke-dasharray = " 10,5 " points=" 7.92079,0 15.8416,56.1363 23.7624,91.9186 31.6832,119.76 39.604,152.347 47.5248,187.219 55.4455,223.307 63.3663,260.106 71.2871,297.352 79.2079,334.896 87.1287,372.648 95.0495,398.032 102.97,399.007 110.891,400.385 118.812,403.186 126.733,407.383 134.653,412.932 142.574,419.779 150.495,427.863 158.416,437.114 166.337,447.461 174.257,453.737 182.178,454.51 190.099,456.544 198.02,459.821 205.941,464.315 213.861,469.992 221.782,473.265 229.703,471.164 237.624,470.278 245.545,470.614 253.465,472.169 261.386,474.932 269.307,478.881 277.228,483.988 285.149,490.216 293.069,497.523 300.99,505.862 308.911,515.184 316.832,525.435 324.752,536.563 332.673,548.515 340.594,561.237 348.515,575.102 356.436,592.284 364.356,610.321 372.277,629.139 380.198,648.671 388.119,668.853 396.04,689.629 403.96,710.946 411.881,732.758 419.802,733.38 427.723,730.664 435.644,729.058 443.564,728.571 451.485,729.203 459.406,730.954 467.327,733.813 475.248,737.769 483.168,742.804 491.089,748.896 499.01,752.383 506.931,753.546 514.851,755.787 522.772,759.098 530.693,763.466 538.614,768.871 546.535,752.564 554.455,728.586 562.376,704.95 570.297,681.694 578.218,658.855 586.139,636.48 594.059,614.62 601.98,593.33 609.901,572.675 617.822,552.726 625.743,533.562 633.663,515.27 641.584,497.948 649.505,481.698 657.426,466.635 665.347,452.874 673.267,428.623 681.188,400.048 689.109,371.473 697.03,342.898 704.95,314.324 712.871,285.749 720.792,257.174 728.713,228.599 736.634,200.024 744.554,171.449 752.475,142.874 760.396,114.299 768.317,85.7246 776.238,57.1497 784.158,28.5749 792.079,0 " />

   <polyline fill="none" stroke=" olive " stroke-width=" 3 " stroke-dasharray = " 5,10 " points=" 7.92079,2.6974e-05 15.8416,56.1363 23.7624,99.2909 31.6832,137.154 39.604,167.814 47.5248,201.756 55.4455,237.346 63.3663,273.855 71.2871,310.919 79.2079,348.343 87.1287,386.012 95.0495,398.38 102.97,411.234 110.891,431.18 118.812,451.683 126.733,472.734 134.653,489.93 142.574,488.082 150.495,486.159 158.416,486.157 166.337,488.076 174.257,491.882 182.178,497.502 190.099,501.203 198.02,497.895 205.941,498.12 213.861,502.019 221.782,509.709 229.703,516.706 237.624,513.55 245.545,511.614 253.465,510.86 261.386,511.24 269.307,512.703 277.228,515.191 285.149,518.645 293.069,523.005 300.99,528.211 308.911,534.202 316.832,540.922 324.752,548.317 332.673,556.333 340.594,564.923 348.515,575.102 356.436,592.284 364.356,610.321 372.277,629.139 380.198,648.671 388.119,668.853 396.04,689.629 403.96,710.946 411.881,732.758 419.802,733.38 427.723,730.664 435.644,729.058 443.564,728.571 451.485,729.203 459.406,730.954 467.327,733.813 475.248,737.769 483.168,742.804 491.089,748.896 499.01,756.02 506.931,764.147 514.851,773.245 522.772,779.094 530.693,783.274 538.614,788.501 546.535,771.961 554.455,747.941 562.376,724.265 570.297,700.968 578.218,678.09 586.139,655.677 594.059,633.781 601.98,612.459 609.901,591.776 617.822,571.805 625.743,552.627 633.663,534.331 641.584,517.015 649.505,500.787 657.426,485.762 665.347,457.198 673.267,428.623 681.188,400.048 689.109,371.473 697.03,342.898 704.95,314.324 712.871,285.749 720.792,257.174 728.713,228.599 736.634,200.024 744.554,171.449 752.475,142.874 760.396,114.299 768.317,85.7246 776.238,57.1497 784.158,28.5749 792.079,2.6974e-05 " />

   <polyline fill="none" stroke=" black " stroke-width=" 3 " stroke-dasharray = "  " points=" 7.92079,0 15.8416,56.1363 23.7624,112.273 31.6832,168.409 39.604,224.545 47.5248,280.682 55.4455,336.818 63.3663,384.483 71.2871,382.212 79.2079,383.821 87.1287,389.263 95.0495,398.38 102.97,410.927 110.891,426.602 118.812,445.075 126.733,466.013 134.653,486.446 142.574,504.077 150.495,523.958 158.416,545.842 166.337,565.793 174.257,550.109 182.178,535.492 190.099,522.03 198.02,509.817 205.941,498.942 213.861,489.496 221.782,481.563 229.703,475.219 237.624,470.527 245.545,467.537 253.465,466.283 261.386,466.778 269.307,469.016 277.228,472.974 285.149,478.607 293.069,485.859 300.99,494.658 308.911,504.922 316.832,516.565 324.752,529.495 332.673,543.622 340.594,558.853 348.515,575.102 356.436,592.284 364.356,610.321 372.277,629.139 380.198,648.671 388.119,668.853 396.04,689.629 403.96,710.946 411.881,732.758 419.802,733.38 427.723,730.664 435.644,729.058 443.564,728.571 451.485,729.203 459.406,718.676 467.327,708.382 475.248,698.76 483.168,689.837 491.089,681.642 499.01,674.201 506.931,667.538 514.851,661.678 522.772,656.643 530.693,652.45 538.614,649.117 546.535,631.231 554.455,611.074 562.376,591.331 570.297,572.045 578.218,553.265 586.139,535.044 594.059,517.44 601.98,500.518 609.901,484.351 617.822,469.016 625.743,454.598 633.663,441.186 641.584,428.875 649.505,417.762 657.426,407.945 665.347,399.519 673.267,392.575 681.188,387.192 689.109,371.473 697.03,342.898 704.95,314.324 712.871,285.749 720.792,257.174 728.713,228.599 736.634,200.024 744.554,171.449 752.475,142.874 760.396,114.299 768.317,85.7246 776.238,57.1497 784.158,28.5749 792.079,0 " />


<!--Draw the X and Y axes -->
<polyline fill="none" stroke="black" stroke-width="6"  points=" 800,0 0,0 0, 800" />
<polyline fill="none" stroke="black" stroke-width="1"  points=" 0 800  800 800  800 0" />
<!-- -->


<!--Draw labels and tics for X axis -->

<line fill="none" stroke="black"  stroke-width="6"  x1="0.5" y1="0" x2="0.5" y2="-20" />
<text transform="scale(1,-1)" font-family="sans-serif" font-size="30" x="-24.5" y="45" >0</text>
<line fill="none" stroke="black"  stroke-width="6"  x1="158.916" y1="0" x2="158.916" y2="-20" />
<text transform="scale(1,-1)" font-family="sans-serif" font-size="30" x="133.916" y="45" >20</text>
<line fill="none" stroke="black"  stroke-width="6"  x1="317.332" y1="0" x2="317.332" y2="-20" />
<text transform="scale(1,-1)" font-family="sans-serif" font-size="30" x="292.332" y="45" >40</text>
<line fill="none" stroke="black"  stroke-width="6"  x1="475.748" y1="0" x2="475.748" y2="-20" />
<text transform="scale(1,-1)" font-family="sans-serif" font-size="30" x="450.748" y="45" >60</text>
<line fill="none" stroke="black"  stroke-width="6"  x1="634.163" y1="0" x2="634.163" y2="-20" />
<text transform="scale(1,-1)" font-family="sans-serif" font-size="30" x="609.163" y="45" >80</text>
<line fill="none" stroke="black"  stroke-width="6"  x1="792.579" y1="0" x2="792.579" y2="-20" />
<text transform="scale(1,-1)" font-family="sans-serif" font-size="30" x="767.579" y="45" >100</text>


<!--Draw labels and tics for Y axis -->

<line fill="none" stroke="black" stroke-width="6" x1="0.0" y1="0" x2="-20" y2="0" />
<text transform="scale(1,-1)" text-anchor="end" font-family="sans-serif" font-size="30" x="-25" y="10" >0</text>
<line fill="none" stroke="black" stroke-width="6" x1="0.0" y1="200" x2="-20" y2="200" />
<text transform="scale(1,-1)" text-anchor="end" font-family="sans-serif" font-size="30" x="-25" y="-190" >5</text>
<line fill="none" stroke="black" stroke-width="6" x1="0.0" y1="400" x2="-20" y2="400" />
<text transform="scale(1,-1)" text-anchor="end" font-family="sans-serif" font-size="30" x="-25" y="-390" >10</text>
<line fill="none" stroke="black" stroke-width="6" x1="0.0" y1="600" x2="-20" y2="600" />
<text transform="scale(1,-1)" text-anchor="end" font-family="sans-serif" font-size="30" x="-25" y="-590" >15</text>
<line fill="none" stroke="black" stroke-width="6" x1="0.0" y1="800" x2="-20" y2="800" />
<text transform="scale(1,-1)" text-anchor="end" font-family="sans-serif" font-size="30" x="-25" y="-790" >20</text>

-->
</g>
</g>
<!-- Run Constants
PRINTDISTANCEDATA bool true
GLITCHESONLY bool false
PERTURBBY double 0.05
GLITCHLEVEL double 3
BOUNDARYWINDOW double 0.065
STEPSPERFRAME int 100
TRIALS int 1
ALLBLACK bool true
FILEPREFIX string Fol
NIGGLISELLINGFIRST bool false
ENABLE DistanceEnableString 
DISABLE DistanceDisableString 
GRAPHSIZE int 0
BORDER int 0
PLOTSIZE int 0
AXISWIDTH int 6
TICLENGTH int 20
VECTOR g6 
FOLLOWERMODE FollowerMode point
FIXRANDOMSEED fixRandomSeed true
RANDOMSEED int 18
TIMESTAMP bool false
END end 


-->
</svg>
