<?xml version="1.0" standalone="no"?>
<!-- the width and height set the total pixel output of the image in the browser -->
<!-- whatever is within the viewbox will be remapped to show in this size -->
<svg width="1000" height="1000" viewBox="1 0  1200 1200"  version="1.1" xmlns="http://www.w3.org/2000/svg" xmlns:xlink="http://www.w3.org/1999/xlink">
 <desc>ID (and file name) = Fol_.20_0.svg  mode = Single Point </desc> 
<g transform = "scale(1 1)">

<text x = "-850" y="50" transform="rotate(-90)"  font-family="sans-serif" font-size="40" stroke ="lightgray" fill="none"> PointDistanceFollower   Jan 31 2020</text>
 <text x="200"  y="30"  font-family="sans-serif" font-size="20" >Fol_.20_0.svg</text>
<text x="300" y="60"   font-family="sans-serif" font-size="20" fill="lightblue">  S6  </text>
<text x="300" y="85"   font-family="sans-serif" font-size="20" fill="olive">  CS6Dist  </text>
<text x="300" y="110"   font-family="sans-serif" font-size="20" fill="black">  LM  </text>



 <!--DISTANCE PLOT BEGINS   mode = Single Point-->


<!-- the following will scale and place the distance plot -->
<g transform="translate(150,975) scale(1 -1)">
   <polyline fill="none" stroke=" lightblue " stroke-width=" 12 " stroke-dasharray = " 10,5 " points=" 7.92079,0 15.8416,26.4069 23.7624,52.8139 31.6832,79.2208 39.604,105.628 47.5248,132.035 55.4455,158.442 63.3663,184.849 71.2871,211.255 79.2079,237.662 87.1287,264.069 95.0495,290.476 102.97,316.883 110.891,343.29 118.812,369.697 126.733,396.104 134.653,422.511 142.574,448.918 150.495,475.325 158.416,501.732 166.337,528.139 174.257,554.546 182.178,580.953 190.099,607.36 198.02,633.766 205.941,654.142 213.861,661.218 221.782,669.262 229.703,678.239 237.624,688.114 245.545,698.847 253.465,699.674 261.386,693.514 269.307,688.003 277.228,683.157 285.149,678.99 293.069,675.515 300.99,672.742 308.911,670.68 316.832,669.335 324.752,668.713 332.673,668.814 340.594,669.639 348.515,671.186 356.436,673.448 364.356,676.419 372.277,680.089 380.198,684.448 388.119,689.482 396.04,695.176 403.96,701.515 411.881,708.481 419.802,716.056 427.723,724.221 435.644,732.956 443.564,742.241 451.485,752.055 459.406,748.678 467.327,743.195 475.248,738.328 483.168,734.088 491.089,730.487 499.01,727.534 506.931,725.238 514.851,710.605 522.772,690.302 530.693,669.999 538.614,649.696 546.535,629.393 554.455,609.09 562.376,588.787 570.297,568.484 578.218,548.181 586.139,527.878 594.059,507.575 601.98,487.272 609.901,466.969 617.822,446.666 625.743,426.363 633.663,406.06 641.584,385.757 649.505,365.454 657.426,345.151 665.347,324.848 673.267,304.545 681.188,284.242 689.109,263.939 697.03,243.636 704.95,223.333 712.871,203.03 720.792,182.727 728.713,162.424 736.634,142.121 744.554,121.818 752.475,101.515 760.396,81.2121 768.317,60.909 776.238,40.606 784.158,20.303 792.079,0 " />

   <polyline fill="none" stroke=" olive " stroke-width=" 3 " stroke-dasharray = " 5,10 " points=" 7.92079,0 15.8416,26.4069 23.7624,52.8139 31.6832,79.2208 39.604,105.628 47.5248,132.035 55.4455,158.442 63.3663,184.849 71.2871,211.255 79.2079,237.662 87.1287,264.069 95.0495,290.476 102.97,316.883 110.891,343.29 118.812,369.697 126.733,396.104 134.653,422.511 142.574,448.918 150.495,475.325 158.416,501.732 166.337,528.139 174.257,554.546 182.178,580.953 190.099,607.36 198.02,633.766 205.941,654.142 213.861,661.218 221.782,669.262 229.703,678.239 237.624,688.114 245.545,698.847 253.465,699.674 261.386,693.514 269.307,688.003 277.228,683.157 285.149,678.99 293.069,675.515 300.99,672.742 308.911,670.68 316.832,669.335 324.752,668.713 332.673,668.814 340.594,669.639 348.515,671.186 356.436,673.448 364.356,676.419 372.277,680.089 380.198,684.448 388.119,689.482 396.04,695.176 403.96,701.515 411.881,708.481 419.802,716.056 427.723,724.221 435.644,732.956 443.564,742.241 451.485,752.055 459.406,762.378 467.327,764.723 475.248,756.281 483.168,748.264 491.089,740.664 499.01,733.471 506.931,726.676 514.851,710.605 522.772,690.302 530.693,669.999 538.614,649.696 546.535,629.393 554.455,609.09 562.376,588.787 570.297,568.484 578.218,548.181 586.139,527.878 594.059,507.575 601.98,487.272 609.901,466.969 617.822,446.666 625.743,426.363 633.663,406.06 641.584,385.757 649.505,365.454 657.426,345.151 665.347,324.848 673.267,304.545 681.188,284.242 689.109,263.939 697.03,243.636 704.95,223.333 712.871,203.03 720.792,182.727 728.713,162.424 736.634,142.121 744.554,121.818 752.475,101.515 760.396,81.2121 768.317,60.909 776.238,40.606 784.158,20.303 792.079,0 " />

   <polyline fill="none" stroke=" black " stroke-width=" 3 " stroke-dasharray = "  " points=" 7.92079,0 15.8416,26.4069 23.7624,52.8139 31.6832,79.2208 39.604,105.628 47.5248,132.035 55.4455,158.442 63.3663,184.849 71.2871,211.255 79.2079,237.662 87.1287,264.069 95.0495,290.476 102.97,316.883 110.891,343.29 118.812,369.697 126.733,396.104 134.653,422.511 142.574,448.918 150.495,475.325 158.416,501.732 166.337,528.139 174.257,554.546 182.178,580.953 190.099,607.36 198.02,633.766 205.941,654.142 213.861,661.218 221.782,669.262 229.703,678.239 237.624,688.114 245.545,698.847 253.465,699.674 261.386,693.514 269.307,688.003 277.228,683.157 285.149,678.99 293.069,675.515 300.99,672.742 308.911,670.68 316.832,669.335 324.752,668.713 332.673,668.814 340.594,669.639 348.515,671.186 356.436,673.448 364.356,676.419 372.277,680.089 380.198,684.448 388.119,689.482 396.04,695.176 403.96,701.515 411.881,708.481 419.802,716.056 427.723,724.221 435.644,732.956 443.564,742.241 451.485,752.055 459.406,762.378 467.327,773.191 475.248,784.471 483.168,791.818 491.089,771.515 499.01,751.211 506.931,730.908 514.851,710.605 522.772,690.302 530.693,669.999 538.614,649.696 546.535,629.393 554.455,609.09 562.376,588.787 570.297,568.484 578.218,548.181 586.139,527.878 594.059,507.575 601.98,487.272 609.901,466.969 617.822,446.666 625.743,426.363 633.663,406.06 641.584,385.757 649.505,365.454 657.426,345.151 665.347,324.848 673.267,304.545 681.188,284.242 689.109,263.939 697.03,243.636 704.95,223.333 712.871,203.03 720.792,182.727 728.713,162.424 736.634,142.121 744.554,121.818 752.475,101.515 760.396,81.2121 768.317,60.909 776.238,40.606 784.158,20.303 792.079,0 " />


<!--Draw the X and Y axes -->
<polyline fill="none" stroke="black" stroke-width="6"  points=" 800,0 0,0 0, 800" />
<polyline fill="none" stroke="black" stroke-width="1"  points=" 0 800  800 800  800 0" />
<!-- -->


<!--Draw labels and tics for X axis -->

<line fill="none" stroke="black"  stroke-width="6"  x1="0.5" y1="0" x2="0.5" y2="-20" />
<text transform="scale(1,-1)" font-family="sans-serif" font-size="30" x="-24.5" y="45" >0</text>
<line fill="none" stroke="black"  stroke-width="6"  x1="158.916" y1="0" x2="158.916" y2="-20" />
<text transform="scale(1,-1)" font-family="sans-serif" font-size="30" x="133.916" y="45" >20</text>
<line fill="none" stroke="black"  stroke-width="6"  x1="317.332" y1="0" x2="317.332" y2="-20" />
<text transform="scale(1,-1)" font-family="sans-serif" font-size="30" x="292.332" y="45" >40</text>
<line fill="none" stroke="black"  stroke-width="6"  x1="475.748" y1="0" x2="475.748" y2="-20" />
<text transform="scale(1,-1)" font-family="sans-serif" font-size="30" x="450.748" y="45" >60</text>
<line fill="none" stroke="black"  stroke-width="6"  x1="634.163" y1="0" x2="634.163" y2="-20" />
<text transform="scale(1,-1)" font-family="sans-serif" font-size="30" x="609.163" y="45" >80</text>
<line fill="none" stroke="black"  stroke-width="6"  x1="792.579" y1="0" x2="792.579" y2="-20" />
<text transform="scale(1,-1)" font-family="sans-serif" font-size="30" x="767.579" y="45" >100</text>


<!--Draw labels and tics for Y axis -->

<line fill="none" stroke="black" stroke-width="6" x1="0.0" y1="0" x2="-20" y2="0" />
<text transform="scale(1,-1)" text-anchor="end" font-family="sans-serif" font-size="30" x="-25" y="10" >0</text>
<line fill="none" stroke="black" stroke-width="6" x1="0.0" y1="114.286" x2="-20" y2="114.286" />
<text transform="scale(1,-1)" text-anchor="end" font-family="sans-serif" font-size="30" x="-25" y="-104.286" >2</text>
<line fill="none" stroke="black" stroke-width="6" x1="0.0" y1="228.571" x2="-20" y2="228.571" />
<text transform="scale(1,-1)" text-anchor="end" font-family="sans-serif" font-size="30" x="-25" y="-218.571" >4</text>
<line fill="none" stroke="black" stroke-width="6" x1="0.0" y1="342.857" x2="-20" y2="342.857" />
<text transform="scale(1,-1)" text-anchor="end" font-family="sans-serif" font-size="30" x="-25" y="-332.857" >6</text>
<line fill="none" stroke="black" stroke-width="6" x1="0.0" y1="457.143" x2="-20" y2="457.143" />
<text transform="scale(1,-1)" text-anchor="end" font-family="sans-serif" font-size="30" x="-25" y="-447.143" >8</text>
<line fill="none" stroke="black" stroke-width="6" x1="0.0" y1="571.429" x2="-20" y2="571.429" />
<text transform="scale(1,-1)" text-anchor="end" font-family="sans-serif" font-size="30" x="-25" y="-561.429" >10</text>
<line fill="none" stroke="black" stroke-width="6" x1="0.0" y1="685.714" x2="-20" y2="685.714" />
<text transform="scale(1,-1)" text-anchor="end" font-family="sans-serif" font-size="30" x="-25" y="-675.714" >12</text>
<line fill="none" stroke="black" stroke-width="6" x1="0.0" y1="800" x2="-20" y2="800" />
<text transform="scale(1,-1)" text-anchor="end" font-family="sans-serif" font-size="30" x="-25" y="-790" >14</text>

-->
</g>
</g>
<!-- Run Constants
PRINTDISTANCEDATA bool true
GLITCHESONLY bool false
PERTURBBY double 0.05
GLITCHLEVEL double 3
BOUNDARYWINDOW double 0.065
STEPSPERFRAME int 100
TRIALS int 1
ALLBLACK bool true
FILEPREFIX string Fol
NIGGLISELLINGFIRST bool false
ENABLE DistanceEnableString 
DISABLE DistanceDisableString 
GRAPHSIZE int 0
BORDER int 0
PLOTSIZE int 0
AXISWIDTH int 6
TICLENGTH int 20
VECTOR g6 
FOLLOWERMODE FollowerMode point
FIXRANDOMSEED fixRandomSeed true
RANDOMSEED int 18
TIMESTAMP bool false
END end 


-->
</svg>
