<?xml version="1.0" standalone="no"?>
<!-- the width and height set the total pixel output of the image in the browser -->
<!-- whatever is within the viewbox will be remapped to show in this size -->
<svg width="1000" height="1000" viewBox="1 0 1000 1000"  version="1.1" xmlns="http://www.w3.org/2000/svg" xmlns:xlink="http://www.w3.org/1999/xlink">
 <desc>ID (and file name) = Fol_2018-02-06.14_48_08.92_0.svg </desc> 
 <text x="280"  y="30"  font-family="sans-serif" font-size="20" > Trial vector = 0  </text> 
 <text x="700" y="30" font-family="sans-serif" font-size="20">Wall time passed: 32504 msec.</text>
<text x="450" y="30" font-family="sans-serif" font-size="20" fill="black" > Plotting g5 vs. g4</text>
<text x="300" y="60"  font-family="sans-serif" font-size="20" > Beginning vector  -130.32958 -110.04843  87.65668 -144.09578 -150.46605  -6.22423 </text>
<text x="300" y="85"  font-family="sans-serif" font-size="20" > Beginning cell   12.90300  13.89744  15.70357   2.21078   2.14494   1.06005 </text>
<text x="300" y="110"  font-family="sans-serif" font-size="20" > Ending vector   85.20112  78.83084  22.39175 -267.71011 -286.67489 -348.34507 </text>
<text x="300" y="135"  font-family="sans-serif" font-size="20" > Ending cell   12.90300  13.38215  13.57620   1.08268   1.10401   1.44075 </text>

<text x="300" y="160"  font-family="sans-serif" font-size="20" > Glitch   39.48248  38.76554  36.23582 -241.48889 -257.78211 -275.77398  (117.072 )</text>
<text x="300" y="185"  font-family="sans-serif" font-size="20" > Glitch   37.30541  36.85767  36.89507 -240.24026 -256.40626 -272.31821  (122.311)</text>



 <!--DISTANCE PLOT BEGINS-->


<!-- the following will scale and place the distance plot -->
<g  transform="translate(0,50) ">
<g transform="translate(150,700) scale(1 -1)">
   <polyline fill="none" stroke="black" stroke-width="10" points=" 5.2 ,1.8702e-05  10.4 ,13.622  15.6 ,27.244  20.8 ,40.866  26 ,54.488  31.2 ,68.11  36.4 ,81.732  41.6 ,95.354  46.8 ,108.976  52 ,122.598  57.2 ,136.22  62.4 ,149.842  67.6 ,163.464  72.8 ,177.086  78 ,190.708  83.2 ,204.33  88.4 ,214.167  93.6 ,223.551  98.8 ,232.927  104 ,237.545  109.2 ,242.396  114.4 ,247.467  119.6 ,252.746  124.8 ,258.219  130 ,263.874  135.2 ,269.7  140.4 ,275.686  145.6 ,281.822  150.8 ,288.098  156 ,294.505  161.2 ,301.035  166.4 ,307.68  171.6 ,314.433  176.8 ,321.287  182 ,328.235  187.2 ,335.272  192.4 ,342.393  197.6 ,349.591  202.8 ,356.863  208 ,364.204  213.2 ,371.61  218.4 ,379.077  223.6 ,386.602  228.8 ,394.181  234 ,401.623  239.2 ,408.935  244.4 ,416.305  249.6 ,423.731  254.8 ,431.211  260 ,438.74  265.2 ,446.318  270.4 ,453.941  275.6 ,461.607  280.8 ,469.314  286 ,476.941  291.2 ,484.437  296.4 ,491.978  301.6 ,499.563  306.8 ,506.594  312 ,503.699  317.2 ,500.315  322.4 ,492.666  327.6 ,485.2  332.8 ,477.925  338 ,470.85  343.2 ,463.985  348.4 ,457.339  353.6 ,450.922  358.8 ,444.743  364 ,438.812  369.2 ,433.141  374.4 ,427.738  379.6 ,422.615  384.8 ,417.782  390 ,413.248  395.2 ,408.545  400.4 ,403.422  405.6 ,398.223  410.8 ,382.207  416 ,366.656  421.2 ,349.3  426.4 ,329.09  431.6 ,309.045  436.8 ,289.202  442 ,269.605  447.2 ,250.311  452.4 ,231.396  457.6 ,212.962  462.8 ,195.144  468 ,178.127  473.2 ,162.165  478.4 ,147.598  483.6 ,134.882  488.8 ,124.582  494 ,107.231  499.2 ,85.7844  504.4 ,64.3383  509.6 ,42.8922  514.8 ,21.4461  520 ,1.8702e-05  " />

<!--Draw the X and Y axes -->
<polyline fill="none" stroke="black" stroke-width="6"  points=" 600,0 0,0 0,520" />
<!-- -->

<line fill="none" stroke-width="3" boundary-string=""  stroke="lightblue" x1="0" y1="1.07369e-13" x2="5.2" y2="1.07369e-13" />
<line fill="none" stroke-width="3" boundary-string=""  stroke="lightblue" x1="5.2" y1="1.07369e-13" x2="10.4" y2="7.73222" />
<line fill="none" stroke-width="3" boundary-string=""  stroke="lightblue" x1="10.4" y1="7.73222" x2="15.6" y2="15.4644" />
<line fill="none" stroke-width="3" boundary-string=""  stroke="lightblue" x1="15.6" y1="15.4644" x2="20.8" y2="23.1967" />
<line fill="none" stroke-width="3" boundary-string=""  stroke="lightblue" x1="20.8" y1="23.1967" x2="26" y2="30.9289" />
<line fill="none" stroke-width="3" boundary-string=""  stroke="lightblue" x1="26" y1="30.9289" x2="31.2" y2="38.6611" />
<line fill="none" stroke-width="3" boundary-string=""  stroke="lightblue" x1="31.2" y1="38.6611" x2="36.4" y2="46.3933" />
<line fill="none" stroke-width="3" boundary-string=""  stroke="lightblue" x1="36.4" y1="46.3933" x2="41.6" y2="54.1256" />
<line fill="none" stroke-width="3" boundary-string=""  stroke="lightblue" x1="41.6" y1="54.1256" x2="46.8" y2="61.8578" />
<line fill="none" stroke-width="3" boundary-string=""  stroke="lightblue" x1="46.8" y1="61.8578" x2="52" y2="69.59" />
<line fill="none" stroke-width="3" boundary-string=""  stroke="lightblue" x1="52" y1="69.59" x2="57.2" y2="77.3222" />
<line fill="none" stroke-width="3" boundary-string=""  stroke="lightblue" x1="57.2" y1="77.3222" x2="62.4" y2="85.0545" />
<line fill="none" stroke-width="3" boundary-string=""  stroke="lightblue" x1="62.4" y1="85.0545" x2="67.6" y2="92.7867" />
<line fill="none" stroke-width="3" boundary-string=""  stroke="lightblue" x1="67.6" y1="92.7867" x2="72.8" y2="100.519" />
<line fill="none" stroke-width="3" boundary-string=""  stroke="lightblue" x1="72.8" y1="100.519" x2="78" y2="108.251" />
<line fill="none" stroke-width="3" boundary-string=""  stroke="lightblue" x1="78" y1="108.251" x2="83.2" y2="114.326" />
<line fill="none" stroke-width="3" boundary-string=""  stroke="lightblue" x1="83.2" y1="114.326" x2="88.4" y2="118.77" />
<line fill="none" stroke-width="3" boundary-string=""  stroke="lightblue" x1="88.4" y1="118.77" x2="93.6" y2="123.538" />
<line fill="none" stroke-width="3" boundary-string=""  stroke="lightblue" x1="93.6" y1="123.538" x2="98.8" y2="128.328" />
<line fill="none" stroke-width="3" boundary-string=""  stroke="lightblue" x1="98.8" y1="128.328" x2="104" y2="129.623" />
<line fill="none" stroke-width="3" boundary-string=""  stroke="lightblue" x1="104" y1="129.623" x2="109.2" y2="131.106" />
<line fill="none" stroke-width="3" boundary-string=""  stroke="lightblue" x1="109.2" y1="131.106" x2="114.4" y2="132.77" />
<line fill="none" stroke-width="3" boundary-string=""  stroke="lightblue" x1="114.4" y1="132.77" x2="119.6" y2="134.607" />
<line fill="none" stroke-width="3" boundary-string=""  stroke="lightblue" x1="119.6" y1="134.607" x2="124.8" y2="136.612" />
<line fill="none" stroke-width="3" boundary-string=""  stroke="lightblue" x1="124.8" y1="136.612" x2="130" y2="138.777" />
<line fill="none" stroke-width="3" boundary-string=""  stroke="lightblue" x1="130" y1="138.777" x2="135.2" y2="141.095" />
<line fill="none" stroke-width="3" boundary-string=""  stroke="lightblue" x1="135.2" y1="141.095" x2="140.4" y2="143.557" />
<line fill="none" stroke-width="3" boundary-string=""  stroke="lightblue" x1="140.4" y1="143.557" x2="145.6" y2="146.158" />
<line fill="none" stroke-width="3" boundary-string=""  stroke="lightblue" x1="145.6" y1="146.158" x2="150.8" y2="148.889" />
<line fill="none" stroke-width="3" boundary-string=""  stroke="lightblue" x1="150.8" y1="148.889" x2="156" y2="151.743" />
<line fill="none" stroke-width="3" boundary-string=""  stroke="lightblue" x1="156" y1="151.743" x2="161.2" y2="154.715" />
<line fill="none" stroke-width="3" boundary-string=""  stroke="lightblue" x1="161.2" y1="154.715" x2="166.4" y2="157.796" />
<line fill="none" stroke-width="3" boundary-string=""  stroke="lightblue" x1="166.4" y1="157.796" x2="171.6" y2="160.981" />
<line fill="none" stroke-width="3" boundary-string=""  stroke="lightblue" x1="171.6" y1="160.981" x2="176.8" y2="164.264" />
<line fill="none" stroke-width="3" boundary-string=""  stroke="lightblue" x1="176.8" y1="164.264" x2="182" y2="167.639" />
<line fill="none" stroke-width="3" boundary-string=""  stroke="lightblue" x1="182" y1="167.639" x2="187.2" y2="171.101" />
<line fill="none" stroke-width="3" boundary-string=""  stroke="lightblue" x1="187.2" y1="171.101" x2="192.4" y2="174.644" />
<line fill="none" stroke-width="3" boundary-string=""  stroke="lightblue" x1="192.4" y1="174.644" x2="197.6" y2="178.264" />
<line fill="none" stroke-width="3" boundary-string=""  stroke="lightblue" x1="197.6" y1="178.264" x2="202.8" y2="181.955" />
<line fill="none" stroke-width="3" boundary-string=""  stroke="lightblue" x1="202.8" y1="181.955" x2="208" y2="185.715" />
<line fill="none" stroke-width="3" boundary-string=""  stroke="lightblue" x1="208" y1="185.715" x2="213.2" y2="189.538" />
<line fill="none" stroke-width="3" boundary-string=""  stroke="lightblue" x1="213.2" y1="189.538" x2="218.4" y2="193.421" />
<line fill="none" stroke-width="3" boundary-string=""  stroke="lightblue" x1="218.4" y1="193.421" x2="223.6" y2="197.36" />
<line fill="none" stroke-width="3" boundary-string=""  stroke="lightblue" x1="223.6" y1="197.36" x2="228.8" y2="201.352" />
<line fill="none" stroke-width="3" boundary-string=""  stroke="lightblue" x1="228.8" y1="201.352" x2="234" y2="205.21" />
<line fill="none" stroke-width="3" boundary-string=""  stroke="lightblue" x1="234" y1="205.21" x2="239.2" y2="208.796" />
<line fill="none" stroke-width="3" boundary-string=""  stroke="lightblue" x1="239.2" y1="208.796" x2="244.4" y2="212.36" />
<line fill="none" stroke-width="3" boundary-string=""  stroke="lightblue" x1="244.4" y1="212.36" x2="249.6" y2="215.987" />
<line fill="none" stroke-width="3" boundary-string=""  stroke="lightblue" x1="249.6" y1="215.987" x2="254.8" y2="219.673" />
<line fill="none" stroke-width="3" boundary-string=""  stroke="lightblue" x1="254.8" y1="219.673" x2="260" y2="223.415" />
<line fill="none" stroke-width="3" boundary-string=""  stroke="lightblue" x1="260" y1="223.415" x2="265.2" y2="227.211" />
<line fill="none" stroke-width="3" boundary-string=""  stroke="lightblue" x1="265.2" y1="227.211" x2="270.4" y2="231.059" />
<line fill="none" stroke-width="3" boundary-string=""  stroke="lightblue" x1="270.4" y1="231.059" x2="275.6" y2="234.954" />
<line fill="none" stroke-width="3" boundary-string=""  stroke="lightblue" x1="275.6" y1="234.954" x2="280.8" y2="238.896" />
<line fill="none" stroke-width="3" boundary-string=""  stroke="lightblue" x1="280.8" y1="238.896" x2="286" y2="242.882" />
<line fill="none" stroke-width="3" boundary-string=""  stroke="lightblue" x1="286" y1="242.882" x2="291.2" y2="246.91" />
<line fill="none" stroke-width="3" boundary-string=""  stroke="lightblue" x1="291.2" y1="246.91" x2="296.4" y2="250.977" />
<line fill="none" stroke-width="3" boundary-string=""  stroke="lightblue" x1="296.4" y1="250.977" x2="301.6" y2="255.082" />
<line fill="none" stroke-width="3" boundary-string=""  stroke="lightblue" x1="301.6" y1="255.082" x2="306.8" y2="259.081" />
<line fill="none" stroke-width="3" boundary-string=""  stroke="lightblue" x1="306.8" y1="259.081" x2="312" y2="257.02" />
<line fill="none" stroke-width="3" boundary-string=""  stroke="lightblue" x1="312" y1="257.02" x2="317.2" y2="254.818" />
<line fill="none" stroke-width="3" boundary-string=""  stroke="lightblue" x1="317.2" y1="254.818" x2="322.4" y2="250.681" />
<line fill="none" stroke-width="3" boundary-string=""  stroke="lightblue" x1="322.4" y1="250.681" x2="327.6" y2="246.722" />
<line fill="none" stroke-width="3" boundary-string=""  stroke="lightblue" x1="327.6" y1="246.722" x2="332.8" y2="242.952" />
<line fill="none" stroke-width="3" boundary-string=""  stroke="lightblue" x1="332.8" y1="242.952" x2="338" y2="239.378" />
<line fill="none" stroke-width="3" boundary-string=""  stroke="lightblue" x1="338" y1="239.378" x2="343.2" y2="236.011" />
<line fill="none" stroke-width="3" boundary-string=""  stroke="lightblue" x1="343.2" y1="236.011" x2="348.4" y2="232.859" />
<line fill="none" stroke-width="3" boundary-string=""  stroke="lightblue" x1="348.4" y1="232.859" x2="353.6" y2="229.93" />
<line fill="none" stroke-width="3" boundary-string=""  stroke="lightblue" x1="353.6" y1="229.93" x2="358.8" y2="227.234" />
<line fill="none" stroke-width="3" boundary-string=""  stroke="lightblue" x1="358.8" y1="227.234" x2="364" y2="224.778" />
<line fill="none" stroke-width="3" boundary-string=""  stroke="lightblue" x1="364" y1="224.778" x2="369.2" y2="222.571" />
<line fill="none" stroke-width="3" boundary-string=""  stroke="lightblue" x1="369.2" y1="222.571" x2="374.4" y2="220.621" />
<line fill="none" stroke-width="3" boundary-string=""  stroke="lightblue" x1="374.4" y1="220.621" x2="379.6" y2="218.933" />
<line fill="none" stroke-width="3" boundary-string=""  stroke="lightblue" x1="379.6" y1="218.933" x2="384.8" y2="217.515" />
<line fill="none" stroke-width="3" boundary-string=""  stroke="lightblue" x1="384.8" y1="217.515" x2="390" y2="216.371" />
<line fill="none" stroke-width="3" boundary-string=""  stroke="lightblue" x1="390" y1="216.371" x2="395.2" y2="215.05" />
<line fill="none" stroke-width="3" boundary-string=""  stroke="lightblue" x1="395.2" y1="215.05" x2="400.4" y2="213.522" />
<line fill="none" stroke-width="3" boundary-string=""  stroke="lightblue" x1="400.4" y1="213.522" x2="405.6" y2="212.005" />
<line fill="none" stroke-width="3" boundary-string=""  stroke="lightblue" x1="405.6" y1="212.005" x2="410.8" y2="202.925" />
<line fill="none" stroke-width="3" boundary-string=""  stroke="lightblue" x1="410.8" y1="202.925" x2="416" y2="194.258" />
<line fill="none" stroke-width="3" boundary-string=""  stroke="lightblue" x1="416" y1="194.258" x2="421.2" y2="186.042" />
<line fill="none" stroke-width="3" boundary-string=""  stroke="lightblue" x1="421.2" y1="186.042" x2="426.4" y2="176.619" />
<line fill="none" stroke-width="3" boundary-string=""  stroke="lightblue" x1="426.4" y1="176.619" x2="431.6" y2="165.163" />
<line fill="none" stroke-width="3" boundary-string=""  stroke="lightblue" x1="431.6" y1="165.163" x2="436.8" y2="153.887" />
<line fill="none" stroke-width="3" boundary-string=""  stroke="lightblue" x1="436.8" y1="153.887" x2="442" y2="142.836" />
<line fill="none" stroke-width="3" boundary-string=""  stroke="lightblue" x1="442" y1="142.836" x2="447.2" y2="132.065" />
<line fill="none" stroke-width="3" boundary-string=""  stroke="lightblue" x1="447.2" y1="132.065" x2="452.4" y2="121.649" />
<line fill="none" stroke-width="3" boundary-string=""  stroke="lightblue" x1="452.4" y1="121.649" x2="457.6" y2="111.686" />
<line fill="none" stroke-width="3" boundary-string=""  stroke="lightblue" x1="457.6" y1="111.686" x2="462.8" y2="102.311" />
<line fill="none" stroke-width="3" boundary-string=""  stroke="lightblue" x1="462.8" y1="102.311" x2="468" y2="93.6994" />
<line fill="none" stroke-width="3" boundary-string=""  stroke="lightblue" x1="468" y1="93.6994" x2="473.2" y2="86.08" />
<line fill="none" stroke-width="3" boundary-string=""  stroke="lightblue" x1="473.2" y1="86.08" x2="478.4" y2="79.7383" />
<line fill="none" stroke-width="3" boundary-string=""  stroke="lightblue" x1="478.4" y1="79.7383" x2="483.6" y2="74.9991" />
<line fill="none" stroke-width="3" boundary-string=""  stroke="lightblue" x1="483.6" y1="74.9991" x2="488.8" y2="72.1788" />
<line fill="none" stroke-width="3" boundary-string=""  stroke="lightblue" x1="488.8" y1="72.1788" x2="494" y2="63.0708" />
<line fill="none" stroke-width="3" boundary-string=""  stroke="lightblue" x1="494" y1="63.0708" x2="499.2" y2="50.4567" />
<line fill="none" stroke-width="3" boundary-string=""  stroke="lightblue" x1="499.2" y1="50.4567" x2="504.4" y2="37.8425" />
<line fill="none" stroke-width="3" boundary-string=""  stroke="lightblue" x1="504.4" y1="37.8425" x2="509.6" y2="25.2283" />
<line fill="none" stroke-width="3" boundary-string=""  stroke="lightblue" x1="509.6" y1="25.2283" x2="514.8" y2="12.6142" />
<line fill="none" stroke-width="3" boundary-string=""  stroke="lightblue" x1="514.8" y1="12.6142" x2="520" y2="9.85286e-14" />

<!--Draw the X and Y axes -->
<polyline fill="none" stroke="black" stroke-width="6"  points=" 600,0 0,0 0,520" />
<!-- -->


<!--Draw labels and tics for X axis -->

<line fill="none" stroke="black"  stroke-width="6"  x1="0.5" y1="0" x2="0.5" y2="-20" />
<text transform="scale(1,-1)" font-family="sans-serif" font-size="30" x="-24.5" y="45" >0 </text>
<line fill="none" stroke="black"  stroke-width="6"  x1="104.5" y1="0" x2="104.5" y2="-20" />
<text transform="scale(1,-1)" font-family="sans-serif" font-size="30" x="79.5" y="45" >20 </text>
<line fill="none" stroke="black"  stroke-width="6"  x1="208.5" y1="0" x2="208.5" y2="-20" />
<text transform="scale(1,-1)" font-family="sans-serif" font-size="30" x="183.5" y="45" >40 </text>
<line fill="none" stroke="black"  stroke-width="6"  x1="312.5" y1="0" x2="312.5" y2="-20" />
<text transform="scale(1,-1)" font-family="sans-serif" font-size="30" x="287.5" y="45" >60 </text>
<line fill="none" stroke="black"  stroke-width="6"  x1="416.5" y1="0" x2="416.5" y2="-20" />
<text transform="scale(1,-1)" font-family="sans-serif" font-size="30" x="391.5" y="45" >80 </text>
<line fill="none" stroke="black"  stroke-width="6"  x1="520.5" y1="0" x2="520.5" y2="-20" />
<text transform="scale(1,-1)" font-family="sans-serif" font-size="30" x="495.5" y="45" >100 </text>


<!--Draw labels and tics for Y axis -->

<line fill="none" stroke="black" stroke-width="6" x1="0.0" y1="0" x2="-20" y2="0" />
<text transform="scale(1,-1)" text-anchor="end" font-family="sans-serif" font-size="30" x="-25" y="10" >0 </text>
<line fill="none" stroke="black" stroke-width="6" x1="0.0" y1="86.6667" x2="-20" y2="86.6667" />
<text transform="scale(1,-1)" text-anchor="end" font-family="sans-serif" font-size="30" x="-25" y="-76.6667" >50 </text>
<line fill="none" stroke="black" stroke-width="6" x1="0.0" y1="173.333" x2="-20" y2="173.333" />
<text transform="scale(1,-1)" text-anchor="end" font-family="sans-serif" font-size="30" x="-25" y="-163.333" >100 </text>
<line fill="none" stroke="black" stroke-width="6" x1="0.0" y1="260" x2="-20" y2="260" />
<text transform="scale(1,-1)" text-anchor="end" font-family="sans-serif" font-size="30" x="-25" y="-250" >150 </text>
<line fill="none" stroke="black" stroke-width="6" x1="0.0" y1="346.667" x2="-20" y2="346.667" />
<text transform="scale(1,-1)" text-anchor="end" font-family="sans-serif" font-size="30" x="-25" y="-336.667" >200 </text>
<line fill="none" stroke="black" stroke-width="6" x1="0.0" y1="433.333" x2="-20" y2="433.333" />
<text transform="scale(1,-1)" text-anchor="end" font-family="sans-serif" font-size="30" x="-25" y="-423.333" >250 </text>
<line fill="none" stroke="black" stroke-width="6" x1="0.0" y1="520" x2="-20" y2="520" />
<text transform="scale(1,-1)" text-anchor="end" font-family="sans-serif" font-size="30" x="-25" y="-510" >300 </text>


<!--Draw Glitches -->

<line fill="none" stroke="black" stroke-width="2" x1="405.6" y1="202.925" x2="405.6" y2="152.925" />
<text transform="scale(1,-1)" font-family="sans-serif" font-size="30" x="410.6" y="-142.925" >78 </text>
<line fill="none" stroke="black" stroke-width="2" x1="488.8" y1="63.0708" x2="488.8" y2="13.0708" />
<text transform="scale(1,-1)" font-family="sans-serif" font-size="30" x="493.8" y="-3.07081" >94 </text>

<!-- -->


<!-- Reduced vector followed by D7dist from the final reduced cell
-93.88091 -56.43909 -22.39175 -87.65668 -62.80937 -42.67290    (6.19437e-14,  1.07896e-05)   
-64.84446 -86.99744 -21.14312 -58.34696 -96.67744 -41.15506    (4.4609,  7.85885)   
-66.87955 -86.33820 -19.89449 -60.25484 -99.47396 -39.63723    (8.9218,  15.7177)   
-68.91463 -85.67896 -18.64586 -62.16271 -102.27049 -38.11939    (13.3827,  23.5765)   
-70.94972 -17.39723 -85.01972 -64.07058 -36.60156 -105.06701    (17.8436,  31.4354)   
-72.98481 -16.14860 -84.36047 -65.97845 -35.08372 -107.86353    (22.3045,  39.2942)   
-75.01990 -14.89997 -83.70123 -67.88632 -33.56588 -110.66006    (26.7654,  47.1531)   
-77.05499 -13.65134 -83.04199 -69.79419 -32.04805 -113.45658    (31.2263,  55.0119)   
-79.09008 -12.40271 -82.38275 -71.70206 -30.53021 -116.25311    (35.6872,  62.8708)   
-81.12517 -11.15408 -81.72351 -73.60994 -29.01238 -119.04963    (40.1481,  70.7296)   
-83.16026  -9.90545 -81.06427 -75.51781 -27.49454 -121.84616    (44.609,  78.5885)   
-85.19534  -8.65682 -80.40502 -77.42568 -25.97670 -124.64268    (49.0699,  86.4473)   
-87.23043  -7.40819 -79.74578 -79.33355 -24.45887 -127.43920    (53.5308,  94.3061)   
-89.26552  -6.15956 -79.08654 -81.24142 -22.94103 -130.23573    (57.9917,  102.165)   
-91.30061  -4.91093 -78.42730 -83.14929 -21.42320 -133.03225    (62.4526,  110.024)   
-93.33570  -3.66230 -77.76806 -85.05716 -19.90536 -135.82878    (65.9571,  117.883)   
-95.37079  -2.41367 -77.10882 -86.96504 -18.38752 -138.62530    (68.5209,  123.558)   
-97.40588  -1.16504 -76.44957 -88.87291 -16.86969 -141.42183    (71.2719,  128.972)   
-15.43544 -75.70675 -90.69719  -0.08359 -99.35738 -144.13476    (74.0353,  134.381)   
-15.16623 -73.79887 -91.35643  -1.33222 -100.14384 -145.68266    (74.7827,  137.045)   
-14.89703 -71.89100 -92.01568  -2.58085 -100.93030 -147.23055    (75.6381,  139.844)   
-14.62782 -69.98313 -92.67492  -3.82948 -101.71675 -148.77845    (76.5979,  142.77)   
-14.35861 -68.07526 -93.33416  -5.07810 -102.50321 -150.32634    (77.6581,  145.815)   
-14.08941 -66.16739 -93.99340  -6.32673 -103.28967 -151.87424    (78.8148,  148.973)   
-13.82020 -64.25952 -94.65264  -7.57536 -104.07613 -153.42213    (80.0638,  152.235)   
-13.55099 -62.35165 -95.31189  -8.82399 -104.86259 -154.97003    (81.4008,  155.596)   
-13.28179 -60.44377 -95.97113 -10.07262 -105.64905 -156.51792    (82.8215,  159.05)   
-13.01258 -58.53590 -96.63037 -11.32125 -106.43551 -158.06581    (84.3217,  162.59)   
-12.74337 -56.62803 -97.28961 -12.56988 -107.22197 -159.61371    (85.8973,  166.21)   
-12.47417 -54.72016 -97.94885 -13.81851 -108.00843 -161.16160    (87.5442,  169.907)   
-12.20496 -52.81229 -98.60809 -15.06714 -108.79489 -162.70950    (89.2585,  173.674)   
-11.93576 -50.90442 -99.26734 -16.31577 -109.58134 -164.25739    (91.0362,  177.508)   
-11.66655 -48.99655 -99.92658 -17.56440 -110.36780 -165.80529    (92.8739,  181.404)   
-11.39734 -47.08867 -100.58582 -18.81303 -111.15426 -167.35318    (94.7679,  185.358)   
-11.12814 -45.18080 -101.24506 -20.06166 -111.94072 -168.90108    (96.7151,  189.366)   
-10.85893 -101.90430 -43.27293 -21.31029 -170.44897 -112.72718    (98.7122,  193.426)   
-10.58972 -102.56355 -41.36506 -22.55892 -171.99687 -113.51364    (100.756,  197.534)   
-10.32052 -103.22279 -39.45719 -23.80755 -173.54476 -114.30010    (102.845,  201.687)   
-10.05131 -103.88203 -37.54932 -25.05618 -175.09265 -115.08656    (104.974,  205.883)   
 -9.78211 -104.54127 -35.64145 -26.30481 -176.64055 -115.87302    (107.143,  210.118)   
 -9.51290 -105.20051 -33.73357 -27.55344 -178.18844 -116.65948    (109.349,  214.391)   
 -9.24369 -105.85975 -31.82570 -28.80207 -179.73634 -117.44593    (111.589,  218.699)   
 -8.97449 -106.51900 -29.91783 -30.05070 -181.28423 -118.23239    (113.862,  223.04)   
 -8.70528 -107.17824 -28.00996 -31.29933 -182.83213 -119.01885    (116.165,  227.412)   
 -8.43607 -107.83748 -26.10209 -32.54796 -184.38002 -119.80531    (118.391,  231.706)   
 -8.16687 -108.49672 -24.19422 -33.79659 -185.92792 -120.59177    (120.459,  235.924)   
 -7.89766 -109.15596 -22.28635 -35.04522 -187.47581 -121.37823    (122.515,  240.176)   
 -7.62845 -109.81520 -20.37847 -36.29385 -189.02371 -122.16469    (124.608,  244.46)   
 -7.35925 -110.47445 -18.47060 -37.54248 -190.57160 -122.95115    (126.734,  248.775)   
 -7.09004 -111.13369 -16.56273 -38.79111 -192.11950 -123.73761    (128.893,  253.119)   
 -6.82084 -111.79293 -14.65486 -40.03974 -193.66739 -124.52407    (131.084,  257.491)   
 -6.55163 -112.45217 -12.74699 -41.28836 -195.21528 -125.31052    (133.303,  261.889)   
 -6.28242 -113.11141 -10.83912 -42.53699 -196.76318 -126.09698    (135.551,  266.312)   
 -6.01322 -113.77066  -8.93125 -43.78562 -198.31107 -126.88344    (137.825,  270.758)   
 -5.74401 -114.42990  -7.02337 -45.03425 -199.85897 -127.66990    (140.124,  275.158)   
 -5.47480 -115.08914  -5.11550 -46.28288 -201.40686 -128.45636    (142.448,  279.483)   
 -5.20560 -115.74838  -3.20763 -47.53151 -202.95476 -129.24282    (144.795,  283.834)   
 -4.93639 -116.40762  -1.29976 -48.78014 -204.50265 -130.02928    (147.163,  288.209)   
 -4.05907  -0.60811 -49.42066 -116.45875 -131.42385 -205.44243    (149.47,  292.266)   
 -1.88199  -2.51598 -48.76142 -115.21012 -134.11818 -205.08246    (148.281,  290.596)   
 -4.12877 -136.51743  -0.29508 -47.80709 -204.42740 -114.25658    (147.011,  288.643)   
 -3.85957 -137.03468  -2.47216 -44.97077 -201.89034 -115.18502    (144.623,  284.23)   
 -3.59036 -137.55193  -4.64924 -42.13446 -199.35329 -116.11347    (142.34,  279.923)   
 -3.32115 -138.06919  -6.82632 -39.29814 -196.81623 -117.04192    (140.164,  275.726)   
 -3.05195 -138.58644  -9.00339 -36.46182 -194.27918 -117.97037    (138.103,  271.644)   
 -2.78274 -139.10369 -11.18047 -33.62550 -191.74213 -118.89882    (136.16,  267.684)   
 -2.51353 -139.62094 -13.35755 -30.78918 -189.20507 -119.82726    (134.342,  263.849)   
 -2.24433 -140.13820 -15.53463 -27.95286 -186.66802 -120.75571    (132.652,  260.147)   
 -1.97512 -140.65545 -17.71171 -25.11654 -184.13096 -121.68416    (131.096,  256.582)   
 -1.70591 -141.17270 -19.88878 -22.28022 -181.59391 -122.61261    (129.68,  253.161)   
 -1.43671 -141.68995 -22.06586 -19.44390 -179.05685 -123.54106    (128.407,  249.889)   
 -1.16750 -142.20721 -24.24294 -16.60758 -176.51980 -124.46951    (127.281,  246.772)   
 -0.89830 -142.72446 -26.42002 -13.77126 -173.98274 -125.39795    (126.308,  243.817)   
 -0.62909 -143.24171 -28.59709 -10.93494 -171.44569 -126.32640    (125.489,  241.028)   
 -0.35988 -143.75896 -30.77417  -8.09862 -168.90863 -127.25485    (124.829,  238.413)   
 -0.09068 -144.27622 -32.95125  -5.26230 -166.37158 -128.18330    (124.068,  235.699)   
 -0.17853 -128.93322 -34.94980  -2.60451 -163.65600 -144.61494    (123.186,  232.744)   
 -0.44774 -129.59246 -36.85767  -0.03740 -160.84973 -144.86299    (122.311,  229.744)   
 -3.24666 -127.72198 -36.23582  -2.52972 -142.58132 -155.51376    (117.072,  220.504)   
 -6.08298 -125.81411 -35.57658  -5.09683 -140.26225 -150.14038    (112.072,  211.532)   
 -8.91930 -123.90624 -34.91734  -7.66394 -137.94318 -144.76701    (107.332,  201.519)   
-11.75562 -121.99837 -34.25810 -10.23106 -135.62412 -139.39363    (101.896,  189.859)   
-14.59194 -120.09050 -33.59886 -12.79817 -133.30505 -134.02026    (95.2862,  178.295)   
-17.42826 -118.18263 -32.93962 -15.36528 -130.98598 -128.64689    (88.7811,  166.848)   
-20.26458 -116.27476 -32.28037 -17.93240 -128.66692 -123.27351    (82.4053,  155.541)   
-23.10089 -114.36688 -31.62113 -20.49951 -126.34785 -117.90014    (76.1912,  144.41)   
-25.93721 -112.45901 -30.96189 -23.06662 -124.02878 -112.52676    (70.1819,  133.498)   
-28.77353 -110.55114 -30.30265 -25.63373 -121.70972 -107.15339    (64.4345,  122.863)   
-31.60985 -108.64327 -29.64341 -28.20085 -119.39065 -101.78002    (59.0258,  112.583)   
-34.44617 -106.73540 -28.98417 -30.76796 -117.07158 -96.40664    (54.0573,  102.766)   
-37.28249 -104.82753 -28.32492 -33.33507 -114.75251 -91.03327    (49.6615,  93.5565)   
-40.11881 -102.91966 -27.66568 -35.90219 -112.43345 -85.65989    (46.0029,  85.1529)   
-42.95513 -101.01178 -27.00644 -38.46930 -110.11438 -80.28652    (43.2687,  77.8164)   
-45.79145 -99.10391 -26.34720 -41.03641 -107.79531 -74.91314    (41.6416,  71.8745)   
-48.62777 -97.19604 -25.68796 -43.60353 -105.47625 -69.53977    (36.387,  61.8638)   
-51.46409 -95.28817 -25.02871 -46.17064 -103.15718 -64.16640    (29.1096,  49.491)   
-54.30041 -93.38030 -24.36947 -48.73775 -100.83811 -58.79302    (21.8322,  37.1183)   
-57.13673 -91.47243 -23.71023 -51.30487 -98.51905 -53.41965    (14.5548,  24.7455)   
-59.97305 -89.56456 -23.05099 -53.87198 -96.19998 -48.04627    (7.2774,  12.3728)   
-93.88091 -56.43909 -22.39175 -87.65668 -62.80937 -42.67290    (5.68434e-14,  1.07896e-05)   
-->
</g>
</g>
<!-- Run Constants
CIRCLEPLOT bool false
DISTANCEPLOT bool true
PRINTDISTANCEDATA bool true
GLITCHESONLY bool false
PLOT 2doubles 3 4
PERTURBBY double 0.05
GLITCHLEVEL double 3
BOUNDARYWINDOW double 0.065
FRAMESPERPATH int 200
STEPSPERFRAME int 100
TRIALS int 1
ALLBLACK bool false
FILEPREFIX string Fol
GRAPHSIZE int 0
BORDER int 0
PLOTSIZE int 0
CIRCLEPLOTSIZE int 2000
CIRCLERADIUS int 300
CIRCLESTROKEWIDTH int 30
G6LINEWIDTH int 3
DELONELINEWIDTH int 10
AXISWIDTH int 6
TICLENGTH int 20
VECTOR g6 
PERTURB g6Perturb 
MOVIEMODE MovieMode STAR
FOLLOWERMODE FollowerMode Follow
FIXRANDOMSEED fixRandomSeed true
RANDOMSEED int 18
TIMESTAMP bool true
END end 




-->
</svg>
