<?xml version="1.0" standalone="no"?>
<!-- the width and height set the total pixel output of the image in the browser -->
<!-- whatever is within the viewbox will be remapped to show in this size -->
<svg width="1000" height="1000" viewBox="1 0 1000 1000"  version="1.1" xmlns="http://www.w3.org/2000/svg" xmlns:xlink="http://www.w3.org/1999/xlink">
 <desc>ID (and file name) = Fol_2018-02-06.15_24_40.12_0.svg </desc> 
 <text x="280"  y="30"  font-family="sans-serif" font-size="20" > Trial vector = 0  </text> 
 <text x="700" y="30" font-family="sans-serif" font-size="20">Wall time passed: 30573 msec.</text>
<text x="450" y="30" font-family="sans-serif" font-size="20" fill="black" > Plotting g5 vs. g4</text>
<text x="300" y="60"  font-family="sans-serif" font-size="20" > Beginning vector  -159.16667  85.02790 -156.78953 -168.40540  89.86979 -147.98076 </text>
<text x="300" y="85"  font-family="sans-serif" font-size="20" > Beginning cell   15.49732  15.03617  14.90368   2.36067   1.19379   2.30886 </text>
<text x="300" y="110"  font-family="sans-serif" font-size="20" > Ending vector   74.13877  62.95286   4.84189 -197.66736 -231.65505 -359.21117 </text>
<text x="300" y="135"  font-family="sans-serif" font-size="20" > Ending cell   11.39617  12.35615  14.90368   1.15645   1.19109   1.53640 </text>

<text x="300" y="160"  font-family="sans-serif" font-size="20" > Glitch  -149.74019  84.13598 -150.25897 -169.58770  76.87888 -156.51532  (13.9348 )</text>
<text x="300" y="185"  font-family="sans-serif" font-size="20" > Glitch  -152.09681  84.35896 -151.89161 -169.29212  80.12661 -154.38168  (13.1338)</text>



 <!--DISTANCE PLOT BEGINS-->


<!-- the following will scale and place the distance plot -->
<g  transform="translate(0,50) ">
<g transform="translate(150,700) scale(1 -1)">
   <polyline fill="none" stroke="black" stroke-width="10" points=" 5.2 ,2.80529e-05  10.4 ,35.1188  15.6 ,61.1873  20.8 ,63.5696  26 ,71.024  31.2 ,82.1817  36.4 ,95.7568  41.6 ,110.865  46.8 ,126.96  52 ,143.597  57.2 ,158.315  62.4 ,173.82  67.6 ,189.919  72.8 ,206.473  78 ,223.382  83.2 ,240.569  88.4 ,257.98  93.6 ,275.572  98.8 ,292.09  104 ,298.906  109.2 ,306.724  114.4 ,315.469  119.6 ,325.065  124.8 ,335.441  130 ,346.525  135.2 ,358.253  140.4 ,370.562  145.6 ,383.398  150.8 ,396.708  156 ,410.447  161.2 ,424.574  166.4 ,439.05  171.6 ,453.842  176.8 ,468.921  182 ,484.259  187.2 ,495.455  192.4 ,492.924  197.6 ,490.767  202.8 ,488.991  208 ,487.598  213.2 ,486.593  218.4 ,485.978  223.6 ,485.755  228.8 ,485.923  234 ,486.483  239.2 ,487.432  244.4 ,488.77  249.6 ,486.295  254.8 ,482.424  260 ,478.92  265.2 ,475.79  270.4 ,473.042  275.6 ,470.682  280.8 ,468.717  286 ,467.152  291.2 ,465.99  296.4 ,465.234  301.6 ,464.887  306.8 ,464.95  312 ,465.422  317.2 ,466.301  322.4 ,467.587  327.6 ,469.275  332.8 ,471.36  338 ,473.839  343.2 ,476.704  348.4 ,479.949  353.6 ,483.567  358.8 ,480.577  364 ,469.757  369.2 ,459.32  374.4 ,449.296  379.6 ,437.059  384.8 ,420.397  390 ,403.752  395.2 ,387.128  400.4 ,370.527  405.6 ,353.953  410.8 ,337.409  416 ,320.899  421.2 ,304.43  426.4 ,288.008  431.6 ,271.643  436.8 ,255.344  442 ,239.126  447.2 ,223.007  452.4 ,207.008  457.6 ,191.16  462.8 ,175.505  468 ,160.099  473.2 ,145.022  478.4 ,130.386  483.6 ,116.36  488.8 ,103.192  494 ,91.2538  499.2 ,80.0659  504.4 ,63.3781  509.6 ,42.367  514.8 ,21.1835  520 ,0  " />

<!--Draw the X and Y axes -->
<polyline fill="none" stroke="black" stroke-width="6"  points=" 600,0 0,0 0,520" />
<!-- -->

<line fill="none" stroke-width="3" boundary-string=""  stroke="lightblue" x1="0" y1="1.65237e-13" x2="5.2" y2="1.65237e-13" />
<line fill="none" stroke-width="3" boundary-string=""  stroke="lightblue" x1="5.2" y1="1.65237e-13" x2="10.4" y2="20.8994" />
<line fill="none" stroke-width="3" boundary-string=""  stroke="lightblue" x1="10.4" y1="20.8994" x2="15.6" y2="36.208" />
<line fill="none" stroke-width="3" boundary-string=""  stroke="lightblue" x1="15.6" y1="36.208" x2="20.8" y2="34.1479" />
<line fill="none" stroke-width="3" boundary-string=""  stroke="lightblue" x1="20.8" y1="34.1479" x2="26" y2="36.2304" />
<line fill="none" stroke-width="3" boundary-string=""  stroke="lightblue" x1="26" y1="36.2304" x2="31.2" y2="41.8415" />
<line fill="none" stroke-width="3" boundary-string=""  stroke="lightblue" x1="31.2" y1="41.8415" x2="36.4" y2="49.8025" />
<line fill="none" stroke-width="3" boundary-string=""  stroke="lightblue" x1="36.4" y1="49.8025" x2="41.6" y2="59.1723" />
<line fill="none" stroke-width="3" boundary-string=""  stroke="lightblue" x1="41.6" y1="59.1723" x2="46.8" y2="69.3826" />
<line fill="none" stroke-width="3" boundary-string=""  stroke="lightblue" x1="46.8" y1="69.3826" x2="52" y2="80.0111" />
<line fill="none" stroke-width="3" boundary-string=""  stroke="lightblue" x1="52" y1="80.0111" x2="57.2" y2="88.8775" />
<line fill="none" stroke-width="3" boundary-string=""  stroke="lightblue" x1="57.2" y1="88.8775" x2="62.4" y2="98.4284" />
<line fill="none" stroke-width="3" boundary-string=""  stroke="lightblue" x1="62.4" y1="98.4284" x2="67.6" y2="108.483" />
<line fill="none" stroke-width="3" boundary-string=""  stroke="lightblue" x1="67.6" y1="108.483" x2="72.8" y2="118.914" />
<line fill="none" stroke-width="3" boundary-string=""  stroke="lightblue" x1="72.8" y1="118.914" x2="78" y2="129.63" />
<line fill="none" stroke-width="3" boundary-string=""  stroke="lightblue" x1="78" y1="129.63" x2="83.2" y2="140.567" />
<line fill="none" stroke-width="3" boundary-string=""  stroke="lightblue" x1="83.2" y1="140.567" x2="88.4" y2="151.675" />
<line fill="none" stroke-width="3" boundary-string=""  stroke="lightblue" x1="88.4" y1="151.675" x2="93.6" y2="162.921" />
<line fill="none" stroke-width="3" boundary-string=""  stroke="lightblue" x1="93.6" y1="162.921" x2="98.8" y2="173.248" />
<line fill="none" stroke-width="3" boundary-string=""  stroke="lightblue" x1="98.8" y1="173.248" x2="104" y2="175.359" />
<line fill="none" stroke-width="3" boundary-string=""  stroke="lightblue" x1="104" y1="175.359" x2="109.2" y2="178.264" />
<line fill="none" stroke-width="3" boundary-string=""  stroke="lightblue" x1="109.2" y1="178.264" x2="114.4" y2="181.926" />
<line fill="none" stroke-width="3" boundary-string=""  stroke="lightblue" x1="114.4" y1="181.926" x2="119.6" y2="186.3" />
<line fill="none" stroke-width="3" boundary-string=""  stroke="lightblue" x1="119.6" y1="186.3" x2="124.8" y2="191.336" />
<line fill="none" stroke-width="3" boundary-string=""  stroke="lightblue" x1="124.8" y1="191.336" x2="130" y2="196.985" />
<line fill="none" stroke-width="3" boundary-string=""  stroke="lightblue" x1="130" y1="196.985" x2="135.2" y2="203.195" />
<line fill="none" stroke-width="3" boundary-string=""  stroke="lightblue" x1="135.2" y1="203.195" x2="140.4" y2="209.916" />
<line fill="none" stroke-width="3" boundary-string=""  stroke="lightblue" x1="140.4" y1="209.916" x2="145.6" y2="217.101" />
<line fill="none" stroke-width="3" boundary-string=""  stroke="lightblue" x1="145.6" y1="217.101" x2="150.8" y2="224.705" />
<line fill="none" stroke-width="3" boundary-string=""  stroke="lightblue" x1="150.8" y1="224.705" x2="156" y2="232.687" />
<line fill="none" stroke-width="3" boundary-string=""  stroke="lightblue" x1="156" y1="232.687" x2="161.2" y2="241.01" />
<line fill="none" stroke-width="3" boundary-string=""  stroke="lightblue" x1="161.2" y1="241.01" x2="166.4" y2="249.639" />
<line fill="none" stroke-width="3" boundary-string=""  stroke="lightblue" x1="166.4" y1="249.639" x2="171.6" y2="258.545" />
<line fill="none" stroke-width="3" boundary-string=""  stroke="lightblue" x1="171.6" y1="258.545" x2="176.8" y2="267.698" />
<line fill="none" stroke-width="3" boundary-string=""  stroke="lightblue" x1="176.8" y1="267.698" x2="182" y2="277.076" />
<line fill="none" stroke-width="3" boundary-string=""  stroke="lightblue" x1="182" y1="277.076" x2="187.2" y2="283.848" />
<line fill="none" stroke-width="3" boundary-string=""  stroke="lightblue" x1="187.2" y1="283.848" x2="192.4" y2="281.635" />
<line fill="none" stroke-width="3" boundary-string=""  stroke="lightblue" x1="192.4" y1="281.635" x2="197.6" y2="279.746" />
<line fill="none" stroke-width="3" boundary-string=""  stroke="lightblue" x1="197.6" y1="279.746" x2="202.8" y2="278.186" />
<line fill="none" stroke-width="3" boundary-string=""  stroke="lightblue" x1="202.8" y1="278.186" x2="208" y2="276.961" />
<line fill="none" stroke-width="3" boundary-string=""  stroke="lightblue" x1="208" y1="276.961" x2="213.2" y2="276.076" />
<line fill="none" stroke-width="3" boundary-string=""  stroke="lightblue" x1="213.2" y1="276.076" x2="218.4" y2="275.534" />
<line fill="none" stroke-width="3" boundary-string=""  stroke="lightblue" x1="218.4" y1="275.534" x2="223.6" y2="275.337" />
<line fill="none" stroke-width="3" boundary-string=""  stroke="lightblue" x1="223.6" y1="275.337" x2="228.8" y2="275.485" />
<line fill="none" stroke-width="3" boundary-string=""  stroke="lightblue" x1="228.8" y1="275.485" x2="234" y2="275.979" />
<line fill="none" stroke-width="3" boundary-string=""  stroke="lightblue" x1="234" y1="275.979" x2="239.2" y2="276.815" />
<line fill="none" stroke-width="3" boundary-string=""  stroke="lightblue" x1="239.2" y1="276.815" x2="244.4" y2="277.992" />
<line fill="none" stroke-width="3" boundary-string=""  stroke="lightblue" x1="244.4" y1="277.992" x2="249.6" y2="275.813" />
<line fill="none" stroke-width="3" boundary-string=""  stroke="lightblue" x1="249.6" y1="275.813" x2="254.8" y2="272.393" />
<line fill="none" stroke-width="3" boundary-string=""  stroke="lightblue" x1="254.8" y1="272.393" x2="260" y2="269.283" />
<line fill="none" stroke-width="3" boundary-string=""  stroke="lightblue" x1="260" y1="269.283" x2="265.2" y2="266.495" />
<line fill="none" stroke-width="3" boundary-string=""  stroke="lightblue" x1="265.2" y1="266.495" x2="270.4" y2="264.037" />
<line fill="none" stroke-width="3" boundary-string=""  stroke="lightblue" x1="270.4" y1="264.037" x2="275.6" y2="261.921" />
<line fill="none" stroke-width="3" boundary-string=""  stroke="lightblue" x1="275.6" y1="261.921" x2="280.8" y2="260.153" />
<line fill="none" stroke-width="3" boundary-string=""  stroke="lightblue" x1="280.8" y1="260.153" x2="286" y2="258.741" />
<line fill="none" stroke-width="3" boundary-string=""  stroke="lightblue" x1="286" y1="258.741" x2="291.2" y2="257.691" />
<line fill="none" stroke-width="3" boundary-string=""  stroke="lightblue" x1="291.2" y1="257.691" x2="296.4" y2="257.008" />
<line fill="none" stroke-width="3" boundary-string=""  stroke="lightblue" x1="296.4" y1="257.008" x2="301.6" y2="256.694" />
<line fill="none" stroke-width="3" boundary-string=""  stroke="lightblue" x1="301.6" y1="256.694" x2="306.8" y2="256.75" />
<line fill="none" stroke-width="3" boundary-string=""  stroke="lightblue" x1="306.8" y1="256.75" x2="312" y2="257.177" />
<line fill="none" stroke-width="3" boundary-string=""  stroke="lightblue" x1="312" y1="257.177" x2="317.2" y2="257.973" />
<line fill="none" stroke-width="3" boundary-string=""  stroke="lightblue" x1="317.2" y1="257.973" x2="322.4" y2="259.134" />
<line fill="none" stroke-width="3" boundary-string=""  stroke="lightblue" x1="322.4" y1="259.134" x2="327.6" y2="260.655" />
<line fill="none" stroke-width="3" boundary-string=""  stroke="lightblue" x1="327.6" y1="260.655" x2="332.8" y2="262.53" />
<line fill="none" stroke-width="3" boundary-string=""  stroke="lightblue" x1="332.8" y1="262.53" x2="338" y2="264.751" />
<line fill="none" stroke-width="3" boundary-string=""  stroke="lightblue" x1="338" y1="264.751" x2="343.2" y2="267.311" />
<line fill="none" stroke-width="3" boundary-string=""  stroke="lightblue" x1="343.2" y1="267.311" x2="348.4" y2="270.198" />
<line fill="none" stroke-width="3" boundary-string=""  stroke="lightblue" x1="348.4" y1="270.198" x2="353.6" y2="273.404" />
<line fill="none" stroke-width="3" boundary-string=""  stroke="lightblue" x1="353.6" y1="273.404" x2="358.8" y2="272.475" />
<line fill="none" stroke-width="3" boundary-string=""  stroke="lightblue" x1="358.8" y1="272.475" x2="364" y2="266.597" />
<line fill="none" stroke-width="3" boundary-string=""  stroke="lightblue" x1="364" y1="266.597" x2="369.2" y2="260.987" />
<line fill="none" stroke-width="3" boundary-string=""  stroke="lightblue" x1="369.2" y1="260.987" x2="374.4" y2="255.666" />
<line fill="none" stroke-width="3" boundary-string=""  stroke="lightblue" x1="374.4" y1="255.666" x2="379.6" y2="250.649" />
<line fill="none" stroke-width="3" boundary-string=""  stroke="lightblue" x1="379.6" y1="250.649" x2="384.8" y2="242.525" />
<line fill="none" stroke-width="3" boundary-string=""  stroke="lightblue" x1="384.8" y1="242.525" x2="390" y2="232.44" />
<line fill="none" stroke-width="3" boundary-string=""  stroke="lightblue" x1="390" y1="232.44" x2="395.2" y2="222.37" />
<line fill="none" stroke-width="3" boundary-string=""  stroke="lightblue" x1="395.2" y1="222.37" x2="400.4" y2="212.317" />
<line fill="none" stroke-width="3" boundary-string=""  stroke="lightblue" x1="400.4" y1="212.317" x2="405.6" y2="202.283" />
<line fill="none" stroke-width="3" boundary-string=""  stroke="lightblue" x1="405.6" y1="202.283" x2="410.8" y2="192.27" />
<line fill="none" stroke-width="3" boundary-string=""  stroke="lightblue" x1="410.8" y1="192.27" x2="416" y2="182.283" />
<line fill="none" stroke-width="3" boundary-string=""  stroke="lightblue" x1="416" y1="182.283" x2="421.2" y2="172.326" />
<line fill="none" stroke-width="3" boundary-string=""  stroke="lightblue" x1="421.2" y1="172.326" x2="426.4" y2="162.405" />
<line fill="none" stroke-width="3" boundary-string=""  stroke="lightblue" x1="426.4" y1="162.405" x2="431.6" y2="152.526" />
<line fill="none" stroke-width="3" boundary-string=""  stroke="lightblue" x1="431.6" y1="152.526" x2="436.8" y2="142.698" />
<line fill="none" stroke-width="3" boundary-string=""  stroke="lightblue" x1="436.8" y1="142.698" x2="442" y2="132.933" />
<line fill="none" stroke-width="3" boundary-string=""  stroke="lightblue" x1="442" y1="132.933" x2="447.2" y2="123.245" />
<line fill="none" stroke-width="3" boundary-string=""  stroke="lightblue" x1="447.2" y1="123.245" x2="452.4" y2="113.655" />
<line fill="none" stroke-width="3" boundary-string=""  stroke="lightblue" x1="452.4" y1="113.655" x2="457.6" y2="104.189" />
<line fill="none" stroke-width="3" boundary-string=""  stroke="lightblue" x1="457.6" y1="104.189" x2="462.8" y2="94.8839" />
<line fill="none" stroke-width="3" boundary-string=""  stroke="lightblue" x1="462.8" y1="94.8839" x2="468" y2="85.7931" />
<line fill="none" stroke-width="3" boundary-string=""  stroke="lightblue" x1="468" y1="85.7931" x2="473.2" y2="76.9921" />
<line fill="none" stroke-width="3" boundary-string=""  stroke="lightblue" x1="473.2" y1="76.9921" x2="478.4" y2="68.5924" />
<line fill="none" stroke-width="3" boundary-string=""  stroke="lightblue" x1="478.4" y1="68.5924" x2="483.6" y2="60.7608" />
<line fill="none" stroke-width="3" boundary-string=""  stroke="lightblue" x1="483.6" y1="60.7608" x2="488.8" y2="53.7461" />
<line fill="none" stroke-width="3" boundary-string=""  stroke="lightblue" x1="488.8" y1="53.7461" x2="494" y2="47.4904" />
<line fill="none" stroke-width="3" boundary-string=""  stroke="lightblue" x1="494" y1="47.4904" x2="499.2" y2="39.2826" />
<line fill="none" stroke-width="3" boundary-string=""  stroke="lightblue" x1="499.2" y1="39.2826" x2="504.4" y2="32.2601" />
<line fill="none" stroke-width="3" boundary-string=""  stroke="lightblue" x1="504.4" y1="32.2601" x2="509.6" y2="21.6139" />
<line fill="none" stroke-width="3" boundary-string=""  stroke="lightblue" x1="509.6" y1="21.6139" x2="514.8" y2="10.8069" />
<line fill="none" stroke-width="3" boundary-string=""  stroke="lightblue" x1="514.8" y1="10.8069" x2="520" y2="1.47793e-13" />

<!--Draw the X and Y axes -->
<polyline fill="none" stroke="black" stroke-width="6"  points=" 600,0 0,0 0,520" />
<!-- -->


<!--Draw labels and tics for X axis -->

<line fill="none" stroke="black"  stroke-width="6"  x1="0.5" y1="0" x2="0.5" y2="-20" />
<text transform="scale(1,-1)" font-family="sans-serif" font-size="30" x="-24.5" y="45" >0 </text>
<line fill="none" stroke="black"  stroke-width="6"  x1="104.5" y1="0" x2="104.5" y2="-20" />
<text transform="scale(1,-1)" font-family="sans-serif" font-size="30" x="79.5" y="45" >20 </text>
<line fill="none" stroke="black"  stroke-width="6"  x1="208.5" y1="0" x2="208.5" y2="-20" />
<text transform="scale(1,-1)" font-family="sans-serif" font-size="30" x="183.5" y="45" >40 </text>
<line fill="none" stroke="black"  stroke-width="6"  x1="312.5" y1="0" x2="312.5" y2="-20" />
<text transform="scale(1,-1)" font-family="sans-serif" font-size="30" x="287.5" y="45" >60 </text>
<line fill="none" stroke="black"  stroke-width="6"  x1="416.5" y1="0" x2="416.5" y2="-20" />
<text transform="scale(1,-1)" font-family="sans-serif" font-size="30" x="391.5" y="45" >80 </text>
<line fill="none" stroke="black"  stroke-width="6"  x1="520.5" y1="0" x2="520.5" y2="-20" />
<text transform="scale(1,-1)" font-family="sans-serif" font-size="30" x="495.5" y="45" >100 </text>


<!--Draw labels and tics for Y axis -->

<line fill="none" stroke="black" stroke-width="6" x1="0.0" y1="0" x2="-20" y2="0" />
<text transform="scale(1,-1)" text-anchor="end" font-family="sans-serif" font-size="30" x="-25" y="10" >0 </text>
<line fill="none" stroke="black" stroke-width="6" x1="0.0" y1="130" x2="-20" y2="130" />
<text transform="scale(1,-1)" text-anchor="end" font-family="sans-serif" font-size="30" x="-25" y="-120" >50 </text>
<line fill="none" stroke="black" stroke-width="6" x1="0.0" y1="260" x2="-20" y2="260" />
<text transform="scale(1,-1)" text-anchor="end" font-family="sans-serif" font-size="30" x="-25" y="-250" >100 </text>
<line fill="none" stroke="black" stroke-width="6" x1="0.0" y1="390" x2="-20" y2="390" />
<text transform="scale(1,-1)" text-anchor="end" font-family="sans-serif" font-size="30" x="-25" y="-380" >150 </text>
<line fill="none" stroke="black" stroke-width="6" x1="0.0" y1="520" x2="-20" y2="520" />
<text transform="scale(1,-1)" text-anchor="end" font-family="sans-serif" font-size="30" x="-25" y="-510" >200 </text>


<!--Draw Glitches -->

<line fill="none" stroke="black" stroke-width="2" x1="20.8" y1="36.2304" x2="20.8" y2="-13.7696" />
<text transform="scale(1,-1)" font-family="sans-serif" font-size="30" x="25.8" y="23.7696" >4 </text>
<line fill="none" stroke="black" stroke-width="2" x1="379.6" y1="242.525" x2="379.6" y2="192.525" />
<text transform="scale(1,-1)" font-family="sans-serif" font-size="30" x="384.6" y="-182.525" >73 </text>

<!-- -->


<!-- Reduced vector followed by D7dist from the final reduced cell
-69.29688 -66.91975  -4.84189 -58.11097 -78.53561 -89.86979    (6.35529e-14,  1.07896e-05)   
-70.18799 -68.53483  -1.81715 -63.49234 -82.07891 -86.62206    (8.03825,  13.5072)   
-69.87149 -67.66610  -1.20760 -68.94232 -84.41461 -84.58194    (13.9261,  23.5336)   
-67.73785 -70.02273  -4.23235 -67.53266 -84.93317 -84.35896    (13.1338,  24.4499)   
-65.60421 -72.37935  -7.25709 -66.12300 -85.45172 -84.13598    (13.9348,  27.3169)   
-63.47057 -74.73597 -10.28184 -64.71333 -85.97028 -83.91300    (16.0929,  31.6084)   
-61.33693 -77.09259 -13.30658 -63.30367 -86.48883 -83.69002    (19.1548,  36.8295)   
-59.20329 -79.44921 -16.33133 -61.89401 -87.00739 -83.46703    (22.7586,  42.6403)   
-57.06965 -81.80583 -19.35607 -60.48435 -87.52595 -83.24405    (26.6856,  48.8306)   
-84.16245 -54.93601 -22.38082 -88.04450 -59.07469 -83.02107    (30.7735,  55.2296)   
-86.51907 -52.80237 -25.40556 -88.56306 -57.66503 -82.79809    (34.1837,  60.8905)   
-88.87569 -50.66873 -28.43031 -89.08161 -56.25537 -82.57511    (37.8571,  66.8539)   
-91.23231 -48.53509 -31.45505 -89.60017 -54.84571 -82.35213    (41.7243,  73.0459)   
-93.58893 -46.40145 -34.47980 -90.11872 -53.43605 -82.12915    (45.7362,  79.4129)   
-95.94555 -44.26781 -37.50455 -90.63728 -52.02639 -81.90617    (49.8578,  85.916)   
-98.30217 -42.13417 -40.52929 -91.15583 -50.61673 -81.68319    (54.0641,  92.5266)   
-100.65879 -40.00052 -43.55404 -91.67439 -49.20707 -81.46021    (58.3367,  99.2232)   
-47.79741 -92.19295 -46.57878 -37.86688 -103.01541 -81.23723    (62.6621,  105.989)   
-46.38775 -92.71150 -49.60353 -35.73324 -105.37203 -81.01425    (66.6337,  112.342)   
-44.97809 -93.23006 -52.62827 -33.59960 -107.72866 -80.79127    (67.4457,  114.964)   
-43.56843 -93.74861 -55.65302 -31.46596 -110.08528 -80.56829    (68.5632,  117.971)   
-42.15877 -94.26717 -58.67776 -29.33232 -112.44190 -80.34531    (69.9716,  121.334)   
-40.74911 -61.70251 -94.78572 -27.19868 -80.12233 -114.79852    (71.6538,  125.025)   
-39.33945 -64.72725 -95.30428 -25.06504 -79.89935 -117.15514    (73.591,  129.016)   
-79.67637 -22.93140 -95.82283 -67.75200 -37.92978 -119.51176    (75.7635,  133.279)   
-79.45339 -20.79776 -96.34139 -70.77675 -36.52012 -121.86838    (78.1519,  137.789)   
-79.23041 -18.66412 -96.85995 -73.80149 -35.11046 -124.22500    (80.7369,  142.524)   
-79.00743 -16.53048 -97.37850 -76.82624 -33.70080 -126.58162    (83.5002,  147.461)   
-78.78445 -14.39684 -97.89706 -79.85098 -32.29114 -128.93824    (86.4249,  152.58)   
-78.56147 -12.26320 -98.41561 -82.87573 -30.88148 -131.29486    (89.495,  157.864)   
-78.33849 -10.12956 -98.93417 -85.90047 -29.47182 -133.65148    (92.6961,  163.298)   
-78.11551  -7.99592 -99.45272 -88.92522 -28.06216 -136.00810    (96.0151,  168.865)   
-77.89253  -5.86228 -99.97128 -91.94996 -26.65250 -138.36472    (99.4402,  174.555)   
-77.66955  -3.72864 -100.48983 -94.97471 -25.24284 -140.72134    (102.961,  180.354)   
-77.44657  -1.59500 -101.00839 -97.99945 -23.83318 -143.07796    (106.568,  186.253)   
 -0.53864 -76.68495 -100.48556 -22.96216 -100.98830 -144.89594    (109.172,  190.56)   
 -2.67229 -74.32833 -101.37666 -23.68614 -99.37322 -145.11892    (108.321,  189.586)   
 -4.80593 -71.97171 -102.26777 -24.41012 -97.75813 -145.34190    (107.595,  188.757)   
 -6.93957 -69.61509 -103.15887 -25.13410 -96.14305 -145.56488    (106.995,  188.073)   
 -9.07321 -67.25846 -104.04998 -25.85808 -94.52796 -145.78786    (106.524,  187.538)   
-11.20685 -64.90184 -104.94108 -26.58206 -92.91288 -146.01084    (106.183,  187.151)   
-13.34049 -62.54522 -105.83219 -27.30604 -91.29779 -146.23382    (105.975,  186.915)   
-15.47413 -60.18860 -106.72329 -28.03002 -89.68271 -146.45680    (105.899,  186.829)   
-17.60777 -57.83198 -107.61440 -28.75400 -88.06762 -146.67978    (105.956,  186.893)   
-19.74141 -55.47536 -108.50550 -29.47798 -86.45254 -146.90276    (106.146,  187.109)   
-21.87505 -53.11874 -109.39661 -30.20196 -84.83745 -147.12574    (106.467,  187.474)   
-24.00869 -50.76212 -110.28771 -30.92594 -83.22237 -147.34872    (106.92,  187.988)   
-26.14233 -48.40550 -111.17882 -31.64992 -81.60728 -147.57170    (106.082,  187.037)   
-28.27597 -46.04888 -112.06992 -32.37390 -79.99220 -147.79468    (104.767,  185.548)   
-30.40961 -43.69226 -112.96103 -33.09788 -78.37711 -148.01766    (103.571,  184.2)   
-32.54325 -113.85213 -41.33564 -33.82186 -148.24064 -76.76203    (102.498,  182.996)   
-34.67689 -114.74324 -38.97902 -34.54584 -148.46362 -75.14694    (101.553,  181.939)   
-36.81053 -115.63434 -36.62240 -35.26982 -148.68660 -73.53186    (100.739,  181.032)   
-38.94417 -116.52545 -34.26578 -35.99380 -148.90958 -71.91677    (100.059,  180.276)   
-41.07781 -117.41655 -31.90916 -36.71778 -149.13256 -70.30169    (99.5158,  179.674)   
-43.21145 -118.30766 -29.55253 -37.44176 -149.35554 -68.68660    (99.112,  179.227)   
-45.34509 -119.19876 -27.19591 -38.16574 -149.57852 -67.07152    (98.8491,  178.936)   
-47.47874 -120.08986 -24.83929 -38.88972 -149.80150 -65.45643    (98.7283,  178.803)   
-49.61238 -120.98097 -22.48267 -39.61370 -150.02448 -63.84135    (98.7501,  178.827)   
-51.74602 -121.87207 -20.12605 -40.33768 -150.24746 -62.22626    (98.9143,  179.008)   
-53.87966 -122.76318 -17.76943 -41.06166 -150.47044 -60.61118    (99.2203,  179.347)   
-56.01330 -123.65428 -15.41281 -41.78564 -150.69342 -58.99609    (99.6667,  179.841)   
-58.14694 -124.54539 -13.05619 -42.50962 -150.91640 -57.38101    (100.252,  180.49)   
-60.28058 -125.43649 -10.69957 -43.23360 -151.13938 -55.76592    (100.973,  181.292)   
-62.41422 -126.32760  -8.34295 -43.95758 -151.36236 -54.15084    (101.827,  182.246)   
-64.54786 -127.21870  -5.98633 -44.68156 -151.58534 -52.53575    (102.812,  183.348)   
-66.68150 -128.10981  -3.62971 -45.40554 -151.80832 -50.92067    (103.922,  184.596)   
-68.81514 -129.00091  -1.27309 -46.12952 -152.03130 -49.30558    (105.155,  185.987)   
 -1.08353 -69.86525 -45.76997 -48.77403 -128.80849 -151.17075    (104.798,  184.837)   
 -3.44015 -69.64227 -44.13733 -49.51557 -127.34297 -149.03711    (102.537,  180.676)   
 -5.79677 -69.41929 -42.50469 -50.25710 -125.87746 -146.90347    (100.38,  176.662)   
 -8.15340 -69.19631 -40.87205 -50.99864 -124.41194 -144.76983    (98.3329,  172.806)   
-10.51002 -68.97333 -39.23941 -51.74017 -122.94642 -142.63619    (96.4036,  168.1)   
-12.86664 -68.75035 -37.60677 -52.48171 -121.48091 -140.50255    (93.2787,  161.691)   
-15.22326 -68.52737 -35.97412 -53.22325 -120.01539 -138.36891    (89.4001,  155.289)   
-17.57988 -68.30439 -34.34148 -53.96478 -118.54988 -136.23527    (85.5271,  148.896)   
-19.93650 -68.08141 -32.70884 -54.70632 -117.08436 -134.10163    (81.6604,  142.511)   
-22.29312 -67.85843 -31.07620 -55.44785 -115.61885 -131.96799    (77.801,  136.136)   
-24.64974 -67.63545 -29.44356 -56.18939 -114.15333 -129.83435    (73.95,  129.773)   
-27.00636 -67.41247 -27.81092 -56.93092 -112.68781 -127.70071    (70.1089,  123.423)   
-29.36298 -67.18949 -26.17828 -57.67246 -111.22230 -125.56707    (66.2792,  117.088)   
-31.71960 -66.96651 -24.54564 -58.41400 -109.75678 -123.43342    (62.4633,  110.772)   
-34.07622 -66.74353 -22.91300 -59.15553 -108.29127 -121.29978    (58.6637,  104.478)   
-36.43284 -66.52055 -21.28036 -59.89707 -106.82575 -119.16614    (54.8838,  98.2094)   
-38.78946 -66.29757 -19.64772 -60.63860 -105.36024 -117.03250    (51.1279,  91.9717)   
-41.14608 -66.07459 -18.01508 -61.38014 -103.89472 -114.89886    (47.4019,  85.7717)   
-43.50270 -65.85161 -16.38244 -62.12167 -102.42920 -112.76522    (43.7133,  79.6183)   
-45.85933 -65.62862 -14.74980 -62.86321 -100.96369 -110.63158    (40.0725,  73.5232)   
-48.21595 -65.40564 -13.11716 -63.60475 -99.49817 -108.49794    (36.4938,  67.5021)   
-50.57257 -65.18266 -11.48452 -64.34628 -98.03266 -106.36430    (32.9973,  61.5767)   
-52.92919 -64.95968  -9.85187 -65.08782 -96.56714 -104.23066    (29.6123,  55.7776)   
-55.28581 -64.73670  -8.21923 -65.82935 -95.10163 -102.09702    (26.3817,  50.1486)   
-57.64243 -64.51372  -6.58659 -66.57089 -93.63611 -99.96338    (23.3695,  44.7539)   
-59.99905 -64.29074  -4.95395 -67.31242 -92.17060 -97.82974    (20.6716,  39.6892)   
-62.35567 -64.06776  -3.32131 -68.05396 -90.70508 -95.69610    (18.2655,  35.0976)   
-64.71229 -63.84478  -1.68867 -68.79549 -89.23956 -93.56246    (15.1087,  30.7946)   
-67.06891 -63.62180  -0.05603 -69.53703 -87.77405 -91.42882    (12.4077,  24.3762)   
-67.84892 -68.70196  -1.57661 -61.82221 -84.73192 -90.87179    (8.31303,  16.295)   
-68.57290 -67.81085  -3.20925 -59.96659 -81.63377 -90.37079    (4.15652,  8.1475)   
-69.29688 -66.91975  -4.84189 -58.11097 -78.53561 -89.86979    (5.68434e-14,  0)   
-->
</g>
</g>
<!-- Run Constants
CIRCLEPLOT bool false
DISTANCEPLOT bool true
PRINTDISTANCEDATA bool true
GLITCHESONLY bool false
PLOT 2doubles 3 4
PERTURBBY double 0.05
GLITCHLEVEL double 3
BOUNDARYWINDOW double 0.065
FRAMESPERPATH int 200
STEPSPERFRAME int 100
TRIALS int 1
ALLBLACK bool false
FILEPREFIX string Fol
GRAPHSIZE int 0
BORDER int 0
PLOTSIZE int 0
CIRCLEPLOTSIZE int 2000
CIRCLERADIUS int 300
CIRCLESTROKEWIDTH int 30
G6LINEWIDTH int 3
DELONELINEWIDTH int 10
AXISWIDTH int 6
TICLENGTH int 20
VECTOR g6 
PERTURB g6Perturb 
MOVIEMODE MovieMode STAR
FOLLOWERMODE FollowerMode Follow
FIXRANDOMSEED fixRandomSeed true
RANDOMSEED int 18
TIMESTAMP bool true
END end 




-->
</svg>
