<?xml version="1.0" standalone="no"?>
<!-- the width and height set the total pixel output of the image in the browser -->
<!-- whatever is within the viewbox will be remapped to show in this size -->
<svg width="1000" height="1000" viewBox="1 0 1000 1000"  version="1.1" xmlns="http://www.w3.org/2000/svg" xmlns:xlink="http://www.w3.org/1999/xlink">
 <desc>ID (and file name) = Fol_2018-02-13.10_54_11.89_0.svg </desc> 
 <text x="280"  y="30"  font-family="sans-serif" font-size="20" > Trial vector = 0  </text> 
 <text x="700" y="30" font-family="sans-serif" font-size="20">Wall time passed: 31953 msec.</text>
<text x="450" y="30" font-family="sans-serif" font-size="20" fill="black" > Plotting g5 vs. g4</text>
<text x="300" y="60"  font-family="sans-serif" font-size="20" > Beginning vector  -3624.55702 -3121.05629 2887.79731 -2802.91491 -7729.22231 2580.29565 </text>
<text x="300" y="85"  font-family="sans-serif" font-size="20" > Beginning cell   55.10149  92.01077  64.53927   2.22732   2.64170   0.96479 </text>
<text x="300" y="110"  font-family="sans-serif" font-size="20" > Ending vector  233.25898 307.50166  84.88241 -1351.76303 -3354.31527 -5922.94628 </text>
<text x="300" y="135"  font-family="sans-serif" font-size="20" > Ending cell   30.97384  55.10149  73.36338   1.51306   1.43506   1.52104 </text>

<text x="300" y="160"  font-family="sans-serif" font-size="20" > Glitch  -78.48373  30.44647 311.38058 -1469.02782 -3707.84311 -5235.81562  (598.405 )</text>
<text x="300" y="185"  font-family="sans-serif" font-size="20" > Glitch  -117.45157  -4.18543 339.69285 -1483.68592 -3752.03409 -5149.92428  (686.077)</text>



 <!--DISTANCE PLOT BEGINS-->


<!-- the following will scale and place the distance plot -->
<g  transform="translate(0,50) ">
<g transform="translate(150,700) scale(1 -1)">
   <polyline fill="none" stroke="black" stroke-width="10" points=" 5.2 ,7.18155e-05  10.4 ,24.5636  15.6 ,49.1273  20.8 ,73.6909  26 ,98.2545  31.2 ,122.818  36.4 ,147.382  41.6 ,155.432  46.8 ,159.669  52 ,166.318  57.2 ,175.105  62.4 ,185.726  67.6 ,197.887  72.8 ,211.321  78 ,225.802  83.2 ,241.14  88.4 ,257.184  93.6 ,273.808  98.8 ,290.913  104 ,308.419  109.2 ,326.262  114.4 ,344.389  119.6 ,362.758  124.8 ,381.334  130 ,400.087  135.2 ,418.995  140.4 ,438.037  145.6 ,457.196  150.8 ,476.458  156 ,495.811  161.2 ,515.245  166.4 ,509.953  171.6 ,499.337  176.8 ,489.342  182 ,480.006  187.2 ,471.368  192.4 ,463.469  197.6 ,456.378  202.8 ,450.435  208 ,445.333  213.2 ,441.108  218.4 ,437.79  223.6 ,435.401  228.8 ,433.811  234 ,432.759  239.2 ,432.528  244.4 ,433.127  249.6 ,434.561  254.8 ,436.827  260 ,439.922  265.2 ,443.836  270.4 ,448.555  275.6 ,454.06  280.8 ,460.33  286 ,467.341  291.2 ,475.064  296.4 ,483.47  301.6 ,492.529  306.8 ,492.975  312 ,497.341  317.2 ,504.963  322.4 ,514.764  327.6 ,504.945  332.8 ,490.054  338 ,475.506  343.2 ,461.334  348.4 ,447.573  353.6 ,434.261  358.8 ,421.442  364 ,409.163  369.2 ,397.472  374.4 ,386.424  379.6 ,376.075  384.8 ,366.484  390 ,357.712  395.2 ,349.822  400.4 ,342.873  405.6 ,336.924  410.8 ,332.029  416 ,328.235  421.2 ,325.581  426.4 ,324.093  431.6 ,322.073  436.8 ,317.549  442 ,314.53  447.2 ,311.016  452.4 ,305.433  457.6 ,297.643  462.8 ,291.124  468 ,285.947  473.2 ,282.168  478.4 ,272.09  483.6 ,262.873  488.8 ,255.421  494 ,238.283  499.2 ,203.133  504.4 ,168.749  509.6 ,128.921  514.8 ,64.4604  520 ,7.18155e-05  " />

<!--Draw the X and Y axes -->
<polyline fill="none" stroke="black" stroke-width="6"  points=" 600,0 0,0 0,520" />
<!-- -->

<line fill="none" stroke-width="3" boundary-string=""  stroke="lightblue" x1="0" y1="6.78793e-13" x2="5.2" y2="6.78793e-13" />
<line fill="none" stroke-width="3" boundary-string=""  stroke="lightblue" x1="5.2" y1="6.78793e-13" x2="10.4" y2="16.6536" />
<line fill="none" stroke-width="3" boundary-string=""  stroke="lightblue" x1="10.4" y1="16.6536" x2="15.6" y2="33.3072" />
<line fill="none" stroke-width="3" boundary-string=""  stroke="lightblue" x1="15.6" y1="33.3072" x2="20.8" y2="49.9607" />
<line fill="none" stroke-width="3" boundary-string=""  stroke="lightblue" x1="20.8" y1="49.9607" x2="26" y2="66.6143" />
<line fill="none" stroke-width="3" boundary-string=""  stroke="lightblue" x1="26" y1="66.6143" x2="31.2" y2="83.2679" />
<line fill="none" stroke-width="3" boundary-string=""  stroke="lightblue" x1="31.2" y1="83.2679" x2="36.4" y2="99.9215" />
<line fill="none" stroke-width="3" boundary-string=""  stroke="lightblue" x1="36.4" y1="99.9215" x2="41.6" y2="105.049" />
<line fill="none" stroke-width="3" boundary-string=""  stroke="lightblue" x1="41.6" y1="105.049" x2="46.8" y2="107.532" />
<line fill="none" stroke-width="3" boundary-string=""  stroke="lightblue" x1="46.8" y1="107.532" x2="52" y2="111.797" />
<line fill="none" stroke-width="3" boundary-string=""  stroke="lightblue" x1="52" y1="111.797" x2="57.2" y2="117.649" />
<line fill="none" stroke-width="3" boundary-string=""  stroke="lightblue" x1="57.2" y1="117.649" x2="62.4" y2="124.866" />
<line fill="none" stroke-width="3" boundary-string=""  stroke="lightblue" x1="62.4" y1="124.866" x2="67.6" y2="133.226" />
<line fill="none" stroke-width="3" boundary-string=""  stroke="lightblue" x1="67.6" y1="133.226" x2="72.8" y2="142.528" />
<line fill="none" stroke-width="3" boundary-string=""  stroke="lightblue" x1="72.8" y1="142.528" x2="78" y2="152.601" />
<line fill="none" stroke-width="3" boundary-string=""  stroke="lightblue" x1="78" y1="152.601" x2="83.2" y2="163.3" />
<line fill="none" stroke-width="3" boundary-string=""  stroke="lightblue" x1="83.2" y1="163.3" x2="88.4" y2="174.512" />
<line fill="none" stroke-width="3" boundary-string=""  stroke="lightblue" x1="88.4" y1="174.512" x2="93.6" y2="186.144" />
<line fill="none" stroke-width="3" boundary-string=""  stroke="lightblue" x1="93.6" y1="186.144" x2="98.8" y2="198.121" />
<line fill="none" stroke-width="3" boundary-string=""  stroke="lightblue" x1="98.8" y1="198.121" x2="104" y2="210.385" />
<line fill="none" stroke-width="3" boundary-string=""  stroke="lightblue" x1="104" y1="210.385" x2="109.2" y2="222.888" />
<line fill="none" stroke-width="3" boundary-string=""  stroke="lightblue" x1="109.2" y1="222.888" x2="114.4" y2="235.593" />
<line fill="none" stroke-width="3" boundary-string=""  stroke="lightblue" x1="114.4" y1="235.593" x2="119.6" y2="248.468" />
<line fill="none" stroke-width="3" boundary-string=""  stroke="lightblue" x1="119.6" y1="248.468" x2="124.8" y2="261.488" />
<line fill="none" stroke-width="3" boundary-string=""  stroke="lightblue" x1="124.8" y1="261.488" x2="130" y2="274.633" />
<line fill="none" stroke-width="3" boundary-string=""  stroke="lightblue" x1="130" y1="274.633" x2="135.2" y2="287.885" />
<line fill="none" stroke-width="3" boundary-string=""  stroke="lightblue" x1="135.2" y1="287.885" x2="140.4" y2="301.231" />
<line fill="none" stroke-width="3" boundary-string=""  stroke="lightblue" x1="140.4" y1="301.231" x2="145.6" y2="314.658" />
<line fill="none" stroke-width="3" boundary-string=""  stroke="lightblue" x1="145.6" y1="314.658" x2="150.8" y2="328.156" />
<line fill="none" stroke-width="3" boundary-string=""  stroke="lightblue" x1="150.8" y1="328.156" x2="156" y2="341.718" />
<line fill="none" stroke-width="3" boundary-string=""  stroke="lightblue" x1="156" y1="341.718" x2="161.2" y2="355.335" />
<line fill="none" stroke-width="3" boundary-string=""  stroke="lightblue" x1="161.2" y1="355.335" x2="166.4" y2="351.011" />
<line fill="none" stroke-width="3" boundary-string=""  stroke="lightblue" x1="166.4" y1="351.011" x2="171.6" y2="342.784" />
<line fill="none" stroke-width="3" boundary-string=""  stroke="lightblue" x1="171.6" y1="342.784" x2="176.8" y2="334.964" />
<line fill="none" stroke-width="3" boundary-string=""  stroke="lightblue" x1="176.8" y1="334.964" x2="182" y2="327.58" />
<line fill="none" stroke-width="3" boundary-string=""  stroke="lightblue" x1="182" y1="327.58" x2="187.2" y2="320.661" />
<line fill="none" stroke-width="3" boundary-string=""  stroke="lightblue" x1="187.2" y1="320.661" x2="192.4" y2="314.238" />
<line fill="none" stroke-width="3" boundary-string=""  stroke="lightblue" x1="192.4" y1="314.238" x2="197.6" y2="308.32" />
<line fill="none" stroke-width="3" boundary-string=""  stroke="lightblue" x1="197.6" y1="308.32" x2="202.8" y2="302.698" />
<line fill="none" stroke-width="3" boundary-string=""  stroke="lightblue" x1="202.8" y1="302.698" x2="208" y2="297.615" />
<line fill="none" stroke-width="3" boundary-string=""  stroke="lightblue" x1="208" y1="297.615" x2="213.2" y2="293.099" />
<line fill="none" stroke-width="3" boundary-string=""  stroke="lightblue" x1="213.2" y1="293.099" x2="218.4" y2="289.176" />
<line fill="none" stroke-width="3" boundary-string=""  stroke="lightblue" x1="218.4" y1="289.176" x2="223.6" y2="285.87" />
<line fill="none" stroke-width="3" boundary-string=""  stroke="lightblue" x1="223.6" y1="285.87" x2="228.8" y2="283.204" />
<line fill="none" stroke-width="3" boundary-string=""  stroke="lightblue" x1="228.8" y1="283.204" x2="234" y2="281.195" />
<line fill="none" stroke-width="3" boundary-string=""  stroke="lightblue" x1="234" y1="281.195" x2="239.2" y2="279.858" />
<line fill="none" stroke-width="3" boundary-string=""  stroke="lightblue" x1="239.2" y1="279.858" x2="244.4" y2="279.201" />
<line fill="none" stroke-width="3" boundary-string=""  stroke="lightblue" x1="244.4" y1="279.201" x2="249.6" y2="279.231" />
<line fill="none" stroke-width="3" boundary-string=""  stroke="lightblue" x1="249.6" y1="279.231" x2="254.8" y2="279.947" />
<line fill="none" stroke-width="3" boundary-string=""  stroke="lightblue" x1="254.8" y1="279.947" x2="260" y2="281.343" />
<line fill="none" stroke-width="3" boundary-string=""  stroke="lightblue" x1="260" y1="281.343" x2="265.2" y2="283.41" />
<line fill="none" stroke-width="3" boundary-string=""  stroke="lightblue" x1="265.2" y1="283.41" x2="270.4" y2="286.133" />
<line fill="none" stroke-width="3" boundary-string=""  stroke="lightblue" x1="270.4" y1="286.133" x2="275.6" y2="289.493" />
<line fill="none" stroke-width="3" boundary-string=""  stroke="lightblue" x1="275.6" y1="289.493" x2="280.8" y2="293.469" />
<line fill="none" stroke-width="3" boundary-string=""  stroke="lightblue" x1="280.8" y1="293.469" x2="286" y2="298.036" />
<line fill="none" stroke-width="3" boundary-string=""  stroke="lightblue" x1="286" y1="298.036" x2="291.2" y2="303.167" />
<line fill="none" stroke-width="3" boundary-string=""  stroke="lightblue" x1="291.2" y1="303.167" x2="296.4" y2="308.834" />
<line fill="none" stroke-width="3" boundary-string=""  stroke="lightblue" x1="296.4" y1="308.834" x2="301.6" y2="315.008" />
<line fill="none" stroke-width="3" boundary-string=""  stroke="lightblue" x1="301.6" y1="315.008" x2="306.8" y2="321.661" />
<line fill="none" stroke-width="3" boundary-string=""  stroke="lightblue" x1="306.8" y1="321.661" x2="312" y2="328.762" />
<line fill="none" stroke-width="3" boundary-string=""  stroke="lightblue" x1="312" y1="328.762" x2="317.2" y2="336.284" />
<line fill="none" stroke-width="3" boundary-string=""  stroke="lightblue" x1="317.2" y1="336.284" x2="322.4" y2="344.198" />
<line fill="none" stroke-width="3" boundary-string=""  stroke="lightblue" x1="322.4" y1="344.198" x2="327.6" y2="338.193" />
<line fill="none" stroke-width="3" boundary-string=""  stroke="lightblue" x1="327.6" y1="338.193" x2="332.8" y2="326.783" />
<line fill="none" stroke-width="3" boundary-string=""  stroke="lightblue" x1="332.8" y1="326.783" x2="338" y2="315.568" />
<line fill="none" stroke-width="3" boundary-string=""  stroke="lightblue" x1="338" y1="315.568" x2="343.2" y2="304.571" />
<line fill="none" stroke-width="3" boundary-string=""  stroke="lightblue" x1="343.2" y1="304.571" x2="348.4" y2="293.814" />
<line fill="none" stroke-width="3" boundary-string=""  stroke="lightblue" x1="348.4" y1="293.814" x2="353.6" y2="283.326" />
<line fill="none" stroke-width="3" boundary-string=""  stroke="lightblue" x1="353.6" y1="283.326" x2="358.8" y2="273.137" />
<line fill="none" stroke-width="3" boundary-string=""  stroke="lightblue" x1="358.8" y1="273.137" x2="364" y2="263.282" />
<line fill="none" stroke-width="3" boundary-string=""  stroke="lightblue" x1="364" y1="263.282" x2="369.2" y2="253.801" />
<line fill="none" stroke-width="3" boundary-string=""  stroke="lightblue" x1="369.2" y1="253.801" x2="374.4" y2="244.736" />
<line fill="none" stroke-width="3" boundary-string=""  stroke="lightblue" x1="374.4" y1="244.736" x2="379.6" y2="236.136" />
<line fill="none" stroke-width="3" boundary-string=""  stroke="lightblue" x1="379.6" y1="236.136" x2="384.8" y2="228.052" />
<line fill="none" stroke-width="3" boundary-string=""  stroke="lightblue" x1="384.8" y1="228.052" x2="390" y2="220.543" />
<line fill="none" stroke-width="3" boundary-string=""  stroke="lightblue" x1="390" y1="220.543" x2="395.2" y2="213.668" />
<line fill="none" stroke-width="3" boundary-string=""  stroke="lightblue" x1="395.2" y1="213.668" x2="400.4" y2="204.78" />
<line fill="none" stroke-width="3" boundary-string=""  stroke="lightblue" x1="400.4" y1="204.78" x2="405.6" y2="194.682" />
<line fill="none" stroke-width="3" boundary-string=""  stroke="lightblue" x1="405.6" y1="194.682" x2="410.8" y2="185.071" />
<line fill="none" stroke-width="3" boundary-string=""  stroke="lightblue" x1="410.8" y1="185.071" x2="416" y2="176.024" />
<line fill="none" stroke-width="3" boundary-string=""  stroke="lightblue" x1="416" y1="176.024" x2="421.2" y2="167.635" />
<line fill="none" stroke-width="3" boundary-string=""  stroke="lightblue" x1="421.2" y1="167.635" x2="426.4" y2="160.007" />
<line fill="none" stroke-width="3" boundary-string=""  stroke="lightblue" x1="426.4" y1="160.007" x2="431.6" y2="153.252" />
<line fill="none" stroke-width="3" boundary-string=""  stroke="lightblue" x1="431.6" y1="153.252" x2="436.8" y2="147.491" />
<line fill="none" stroke-width="3" boundary-string=""  stroke="lightblue" x1="436.8" y1="147.491" x2="442" y2="142.845" />
<line fill="none" stroke-width="3" boundary-string=""  stroke="lightblue" x1="442" y1="142.845" x2="447.2" y2="139.424" />
<line fill="none" stroke-width="3" boundary-string=""  stroke="lightblue" x1="447.2" y1="139.424" x2="452.4" y2="137.321" />
<line fill="none" stroke-width="3" boundary-string=""  stroke="lightblue" x1="452.4" y1="137.321" x2="457.6" y2="136.597" />
<line fill="none" stroke-width="3" boundary-string=""  stroke="lightblue" x1="457.6" y1="136.597" x2="462.8" y2="137.273" />
<line fill="none" stroke-width="3" boundary-string=""  stroke="lightblue" x1="462.8" y1="137.273" x2="468" y2="139.328" />
<line fill="none" stroke-width="3" boundary-string=""  stroke="lightblue" x1="468" y1="139.328" x2="473.2" y2="142.704" />
<line fill="none" stroke-width="3" boundary-string=""  stroke="lightblue" x1="473.2" y1="142.704" x2="478.4" y2="124.468" />
<line fill="none" stroke-width="3" boundary-string=""  stroke="lightblue" x1="478.4" y1="124.468" x2="483.6" y2="121.369" />
<line fill="none" stroke-width="3" boundary-string=""  stroke="lightblue" x1="483.6" y1="121.369" x2="488.8" y2="119.895" />
<line fill="none" stroke-width="3" boundary-string=""  stroke="lightblue" x1="488.8" y1="119.895" x2="494" y2="111.257" />
<line fill="none" stroke-width="3" boundary-string=""  stroke="lightblue" x1="494" y1="111.257" x2="499.2" y2="97.8462" />
<line fill="none" stroke-width="3" boundary-string=""  stroke="lightblue" x1="499.2" y1="97.8462" x2="504.4" y2="86.0821" />
<line fill="none" stroke-width="3" boundary-string=""  stroke="lightblue" x1="504.4" y1="86.0821" x2="509.6" y2="71.105" />
<line fill="none" stroke-width="3" boundary-string=""  stroke="lightblue" x1="509.6" y1="71.105" x2="514.8" y2="35.5525" />
<line fill="none" stroke-width="3" boundary-string=""  stroke="lightblue" x1="514.8" y1="35.5525" x2="520" y2="9.24347e-13" />

<!--Draw the X and Y axes -->
<polyline fill="none" stroke="black" stroke-width="6"  points=" 600,0 0,0 0,520" />
<!-- -->


<!--Draw labels and tics for X axis -->

<line fill="none" stroke="black"  stroke-width="6"  x1="0.5" y1="0" x2="0.5" y2="-20" />
<text transform="scale(1,-1)" font-family="sans-serif" font-size="30" x="-24.5" y="45" >0 </text>
<line fill="none" stroke="black"  stroke-width="6"  x1="104.5" y1="0" x2="104.5" y2="-20" />
<text transform="scale(1,-1)" font-family="sans-serif" font-size="30" x="79.5" y="45" >20 </text>
<line fill="none" stroke="black"  stroke-width="6"  x1="208.5" y1="0" x2="208.5" y2="-20" />
<text transform="scale(1,-1)" font-family="sans-serif" font-size="30" x="183.5" y="45" >40 </text>
<line fill="none" stroke="black"  stroke-width="6"  x1="312.5" y1="0" x2="312.5" y2="-20" />
<text transform="scale(1,-1)" font-family="sans-serif" font-size="30" x="287.5" y="45" >60 </text>
<line fill="none" stroke="black"  stroke-width="6"  x1="416.5" y1="0" x2="416.5" y2="-20" />
<text transform="scale(1,-1)" font-family="sans-serif" font-size="30" x="391.5" y="45" >80 </text>
<line fill="none" stroke="black"  stroke-width="6"  x1="520.5" y1="0" x2="520.5" y2="-20" />
<text transform="scale(1,-1)" font-family="sans-serif" font-size="30" x="495.5" y="45" >100 </text>


<!--Draw labels and tics for Y axis -->

<line fill="none" stroke="black" stroke-width="6" x1="0.0" y1="0" x2="-20" y2="0" />
<text transform="scale(1,-1)" text-anchor="end" font-family="sans-serif" font-size="30" x="-25" y="10" >0 </text>
<line fill="none" stroke="black" stroke-width="6" x1="0.0" y1="104" x2="-20" y2="104" />
<text transform="scale(1,-1)" text-anchor="end" font-family="sans-serif" font-size="30" x="-25" y="-94" >500 </text>
<line fill="none" stroke="black" stroke-width="6" x1="0.0" y1="208" x2="-20" y2="208" />
<text transform="scale(1,-1)" text-anchor="end" font-family="sans-serif" font-size="30" x="-25" y="-198" >1000 </text>
<line fill="none" stroke="black" stroke-width="6" x1="0.0" y1="312" x2="-20" y2="312" />
<text transform="scale(1,-1)" text-anchor="end" font-family="sans-serif" font-size="30" x="-25" y="-302" >1500 </text>
<line fill="none" stroke="black" stroke-width="6" x1="0.0" y1="416" x2="-20" y2="416" />
<text transform="scale(1,-1)" text-anchor="end" font-family="sans-serif" font-size="30" x="-25" y="-406" >2000 </text>
<line fill="none" stroke="black" stroke-width="6" x1="0.0" y1="520" x2="-20" y2="520" />
<text transform="scale(1,-1)" text-anchor="end" font-family="sans-serif" font-size="30" x="-25" y="-510" >2500 </text>


<!--Draw Glitches -->

<line fill="none" stroke="black" stroke-width="2" x1="473.2" y1="124.468" x2="473.2" y2="74.4683" />
<text transform="scale(1,-1)" font-family="sans-serif" font-size="30" x="478.2" y="-64.4683" >91 </text>

<!-- -->


<!-- Reduced vector followed by D7dist from the final reduced cell
-148.37657 -651.87730 -84.88241 -222.61925 -2802.91491 -4926.30741    (3.26343e-12,  0.000345267)   
-155.71112 -654.87590 -71.22824 -293.85249 -2788.25681 -4896.77453    (80.0653,  118.094)   
-163.04566 -657.87451 -57.57406 -365.08572 -2773.59871 -4867.24165    (160.131,  236.189)   
-170.38021 -660.87311 -43.91989 -436.31895 -2758.94061 -4837.70877    (240.196,  354.283)   
-177.71475 -663.87172 -30.26572 -507.55218 -2744.28251 -4808.17589    (320.261,  472.378)   
-185.04930 -666.87032 -16.61155 -578.78542 -2729.62441 -4778.64301    (400.326,  590.472)   
-192.38384 -669.86893  -2.95738 -650.01865 -2714.96631 -4749.11012    (480.392,  708.566)   
-189.02159 -710.55509 -10.69680 -662.17074 -2689.61141 -4730.27404    (505.045,  747.268)   
-182.70196 -768.13415 -24.35097 -651.51517 -2661.29914 -4714.39533    (516.983,  767.639)   
-176.38234 -825.71321 -38.00514 -640.85961 -2632.98687 -4698.51662    (537.485,  799.606)   
-170.06271 -883.29227 -51.65931 -630.20404 -2604.67460 -4682.63792    (565.62,  841.851)   
-163.74308 -940.87133 -65.31348 -619.54847 -2576.36232 -4666.75921    (600.317,  892.914)   
-157.42346 -998.45039 -78.96766 -608.89291 -2548.05005 -4650.88050    (640.51,  951.378)   
-151.10383 -1056.02945 -92.62183 -598.23734 -2519.73778 -4635.00179    (685.232,  1015.97)   
-144.78420 -1113.60851 -106.27600 -587.58177 -2491.42551 -4619.12308    (733.656,  1085.58)   
-138.46458 -1171.18757 -119.93017 -576.92621 -2463.11324 -4603.24437    (785.097,  1159.33)   
-132.14495 -1228.76663 -133.58434 -566.27064 -2434.80096 -4587.36566    (839.001,  1236.46)   
-125.82532 -1286.34570 -147.23852 -555.61507 -2406.48869 -4571.48696    (894.922,  1316.38)   
-119.50570 -1343.92476 -160.89269 -544.95951 -2378.17642 -4555.60825    (952.504,  1398.62)   
-113.18607 -1401.50382 -174.54686 -534.30394 -2349.86415 -4539.72954    (1011.47,  1482.78)   
-106.86644 -1459.08288 -188.20103 -523.64837 -2321.55188 -4523.85083    (1071.58,  1568.57)   
-100.54682 -1516.66194 -201.85520 -512.99281 -2293.23961 -4507.97212    (1132.66,  1655.72)   
-94.22719 -1574.24100 -215.50938 -502.33724 -2264.92733 -4492.09341    (1194.56,  1744.03)   
-87.90756 -1631.82006 -229.16355 -491.68167 -2236.61506 -4476.21471    (1257.15,  1833.34)   
-81.58794 -1689.39912 -242.81772 -481.02611 -2208.30279 -4460.33600    (1320.35,  1923.5)   
-75.26831 -1746.97818 -256.47189 -470.37054 -2179.99052 -4444.45729    (1384.06,  2014.4)   
-1804.55724 -68.94868 -270.12606 -2151.67825 -459.71497 -4428.57858    (1448.22,  2105.94)   
-1862.13630 -62.62906 -283.78024 -2123.36598 -449.05941 -4412.69987    (1512.78,  2198.06)   
-1919.71536 -56.30943 -297.43441 -2095.05370 -438.40384 -4396.82116    (1577.67,  2290.66)   
-1977.29443 -49.98980 -311.08858 -2066.74143 -427.74827 -4380.94245    (1642.87,  2383.71)   
-2034.87349 -43.67018 -324.74275 -2038.42916 -417.09271 -4365.06375    (1708.34,  2477.14)   
-2092.45255 -37.35055 -338.39692 -2010.11689 -406.43714 -4349.18504    (1687.55,  2451.7)   
-2150.03161 -31.03092 -352.05110 -1981.80462 -395.78157 -4333.30633    (1648,  2400.66)   
-2207.61067 -24.71130 -365.70527 -1953.49234 -385.12601 -4317.42762    (1610.4,  2352.6)   
-2265.18973 -18.39167 -379.35944 -1925.18007 -374.47044 -4301.54891    (1574.9,  2307.72)   
-363.81487 -1896.86780 -393.01361 -12.07204 -2322.76879 -4285.67020    (1541.64,  2266.19)   
-353.15931 -1868.55553 -406.66778  -5.75242 -2380.34785 -4269.79150    (1510.76,  2228.21)   
-343.07095 -419.75475 -1839.67605  -0.56721 -2437.35970 -4253.34558    (1482.31,  2194.13)   
-338.73501 -427.08929 -1805.04415  -6.88684 -2488.61914 -4231.14724    (1455.28,  2165.55)   
-334.39907 -434.42384 -1770.41225 -13.20646 -2539.87857 -4208.94891    (1430.84,  2141.03)   
-330.06313 -441.75838 -1735.78035 -19.52609 -2591.13800 -4186.75057    (1409.13,  2120.71)   
-325.72719 -449.09293 -1701.14845 -25.84572 -2642.39744 -4164.55224    (1390.27,  2104.76)   
-321.39125 -456.42747 -1666.51655 -32.16534 -2693.65687 -4142.35390    (1374.38,  2093.28)   
-317.05531 -463.76202 -1631.88466 -38.48497 -2744.91631 -4120.15557    (1361.56,  2085.63)   
-312.71937 -471.09656 -1597.25276 -44.80460 -2796.17574 -4097.95723    (1351.9,  2080.57)   
-308.38343 -478.43111 -1562.62086 -51.12422 -2847.43518 -4075.75890    (1345.47,  2079.46)   
-304.04749 -485.76565 -1527.98896 -57.44385 -2898.69461 -4053.56056    (1342.31,  2082.34)   
-299.71155 -493.10020 -1493.35706 -63.76348 -2949.95404 -4031.36222    (1342.46,  2089.23)   
-295.37561 -500.43474 -1458.72516 -70.08310 -3001.21348 -4009.16389    (1345.9,  2100.13)   
-291.03967 -507.76929 -1424.09326 -76.40273 -3052.47291 -3986.96555    (1352.61,  2115.01)   
-286.70373 -1389.46137 -515.10383 -82.72236 -3964.76722 -3103.73235    (1362.55,  2133.83)   
-282.36779 -1354.82947 -522.43838 -89.04198 -3942.56888 -3154.99178    (1375.64,  2156.51)   
-278.03185 -1320.19757 -529.77292 -95.36161 -3920.37055 -3206.25121    (1391.79,  2182.98)   
-273.69591 -1285.56567 -537.10747 -101.68124 -3898.17221 -3257.51065    (1410.91,  2213.13)   
-269.35997 -1250.93377 -544.44201 -108.00087 -3875.97388 -3308.77008    (1432.86,  2246.83)   
-265.02404 -1216.30187 -551.77656 -114.32049 -3853.77554 -3360.02952    (1457.53,  2283.96)   
-260.68810 -1181.66998 -559.11111 -120.64012 -3831.57721 -3411.28895    (1484.78,  2324.38)   
-256.35216 -1147.03808 -566.44565 -126.95975 -3809.37887 -3462.54838    (1514.46,  2367.93)   
-252.01622 -1112.40618 -573.78020 -133.27937 -3787.18054 -3513.80782    (1546.44,  2370.07)   
-247.68028 -1077.77428 -581.11474 -139.59900 -3764.98220 -3565.06725    (1580.59,  2391.06)   
-243.34434 -1043.14238 -588.44929 -145.91863 -3742.78387 -3616.32669    (1616.75,  2427.71)   
-239.00840 -1008.51048 -595.78383 -152.23825 -3720.58553 -3667.58612    (1654.8,  2474.83)   
-234.67246 -973.87858 -603.11838 -158.55788 -3698.38720 -3718.84556    (1625.93,  2427.62)   
-230.33652 -939.24669 -610.45292 -164.87751 -3676.18886 -3770.10499    (1571.07,  2356.03)   
-226.00058 -904.61479 -617.78747 -171.19713 -3653.99053 -3821.36442    (1517.16,  2286.09)   
-221.66464 -869.98289 -625.12201 -177.51676 -3631.79219 -3872.62386    (1464.28,  2217.95)   
-217.32870 -835.35099 -632.45656 -183.83639 -3609.59386 -3923.88329    (1412.57,  2151.79)   
-212.99276 -800.71909 -639.79110 -190.15601 -3587.39552 -3975.14273    (1362.14,  2087.79)   
-208.65682 -766.08719 -647.12565 -196.47564 -3565.19719 -4026.40216    (1313.16,  2026.17)   
-204.32088 -731.45529 -654.46019 -202.79527 -3542.99885 -4077.66159    (1265.78,  1967.13)   
-199.98494 -696.82340 -661.79474 -209.11489 -3520.80052 -4128.92103    (1220.2,  1910.92)   
-195.64900 -662.19150 -669.12928 -215.43452 -3498.60218 -4180.18046    (1176.62,  1857.81)   
-191.31306 -627.55960 -676.46383 -221.75415 -3476.40384 -4231.43990    (1135.27,  1808.05)   
-186.97712 -592.92770 -683.79837 -228.07377 -3454.20551 -4282.69933    (1096.41,  1761.94)   
-182.64118 -558.29580 -691.13292 -234.39340 -3432.00717 -4333.95876    (1060.3,  1719.77)   
-178.30524 -523.66390 -698.46746 -240.71303 -3409.80884 -4385.21820    (1027.25,  1681.84)   
-173.96930 -489.03201 -705.80201 -247.03265 -3387.61050 -4436.47763    (984.518,  1648.43)   
-169.63336 -454.40011 -713.13656 -253.35228 -3365.41217 -4487.73707    (935.972,  1619.83)   
-165.29742 -419.76821 -720.47110 -259.67191 -3343.21383 -4538.99650    (889.763,  1596.29)   
-160.96148 -385.13631 -727.80565 -265.99153 -3321.01550 -4590.25594    (846.271,  1578.05)   
-156.62554 -350.50441 -735.14019 -272.31116 -3298.81716 -4641.51537    (805.939,  1565.29)   
-152.28960 -315.87251 -742.47474 -278.63079 -3276.61883 -4692.77480    (769.262,  1558.14)   
-147.95366 -281.24061 -749.80928 -284.95041 -3254.42049 -4744.03424    (736.787,  1548.43)   
-143.61772 -246.60872 -757.14383 -291.27004 -3232.22216 -4795.29367    (709.091,  1526.68)   
-139.28178 -211.97682 -764.47837 -297.58967 -3210.02382 -4846.55311    (686.754,  1512.16)   
-134.94584 -177.34492 -771.81292 -303.90929 -3187.82549 -4897.81254    (670.309,  1495.27)   
-130.60990 -142.71302 -779.14746 -310.22892 -3165.62715 -4949.07197    (660.199,  1468.43)   
-126.27396 -108.08112 -786.48201 -316.54855 -3143.42882 -5000.33141    (656.716,  1430.98)   
-121.93802 -73.44922 -793.81655 -322.86817 -3121.23048 -5051.59084    (659.965,  1399.64)   
-117.60208 -38.81732 -801.15110 -329.18780 -3099.03215 -5102.85028    (669.847,  1374.74)   
-113.26614  -4.18543 -808.48564 -335.50743 -3076.83381 -5154.10971    (686.077,  1356.58)   
-78.48373 -30.44647 -311.38058 -785.37372 -3085.08195 -5174.92267    (598.405,  1308.12)   
-39.51589 -65.07837 -283.06831 -758.07636 -3097.51551 -5191.55021    (583.506,  1263.81)   
 -0.54805 -99.71027 -254.75604 -730.77901 -3109.94908 -5208.17774    (576.42,  1227.99)   
-95.92238 -38.41979 -3083.96285 -188.02398 -741.90144 -5186.38549    (534.892,  1145.59)   
-91.58644 -77.38763 -3057.42858 -120.74387 -753.57193 -5164.04519    (470.415,  976.601)   
-87.25050 -116.35546 -3030.89430 -53.46376 -765.24241 -5141.70489    (413.856,  811.294)   
-13.81635 -763.09655 -141.50695 -96.73091 -2990.54368 -5105.54823    (341.851,  619.812)   
-81.09646 -707.48692 -113.19468 -159.67508 -2896.72929 -5015.92782    (170.926,  309.906)   
-148.37657 -651.87730 -84.88241 -222.61925 -2802.91491 -4926.30741    (4.44398e-12,  0.000345267)   
-->
</g>
</g>
<!-- Run Constants
CIRCLEPLOT bool false
DISTANCEPLOT bool true
PRINTDISTANCEDATA bool true
GLITCHESONLY bool false
PLOT 2doubles 3 4
PERTURBBY double 0.05
GLITCHLEVEL double 3
BOUNDARYWINDOW double 0.065
FRAMESPERPATH int 200
STEPSPERFRAME int 100
TRIALS int 1
ALLBLACK bool false
FILEPREFIX string Fol
GRAPHSIZE int 0
BORDER int 0
PLOTSIZE int 0
CIRCLEPLOTSIZE int 2000
CIRCLERADIUS int 300
CIRCLESTROKEWIDTH int 30
G6LINEWIDTH int 3
DELONELINEWIDTH int 10
AXISWIDTH int 6
TICLENGTH int 20
VECTOR g6 
PERTURB g6Perturb 
MOVIEMODE MovieMode STAR
FOLLOWERMODE FollowerMode Follow
FIXRANDOMSEED fixRandomSeed true
RANDOMSEED int 18
TIMESTAMP bool true
END end 




-->
</svg>
