<?xml version="1.0" standalone="no"?>
<!-- the width and height set the total pixel output of the image in the browser -->
<!-- whatever is within the viewbox will be remapped to show in this size -->
<svg width="1000" height="1000" viewBox="1 0 1000 1000"  version="1.1" xmlns="http://www.w3.org/2000/svg" xmlns:xlink="http://www.w3.org/1999/xlink">
 <desc>ID (and file name) = Fol_2018-02-06.15_24_09.11_0.svg </desc> 
 <text x="280"  y="30"  font-family="sans-serif" font-size="20" > Trial vector = 0  </text> 
 <text x="700" y="30" font-family="sans-serif" font-size="20">Wall time passed: 30353 msec.</text>
<text x="450" y="30" font-family="sans-serif" font-size="20" fill="black" > Plotting g5 vs. g4</text>
<text x="300" y="60"  font-family="sans-serif" font-size="20" > Beginning vector  -123.11655 -107.46351  68.07730 -84.13155 -115.44041  79.52688 </text>
<text x="300" y="85"  font-family="sans-serif" font-size="20" > Beginning cell   11.11385  13.05679  12.29037   2.44528   2.47631   1.08248 </text>
<text x="300" y="110"  font-family="sans-serif" font-size="20" > Ending vector  -35.91352  -4.60466 -11.44958 -43.58966 -27.93663 -79.52688 </text>
<text x="300" y="135"  font-family="sans-serif" font-size="20" > Ending cell    7.72295   8.67754  10.95651   1.95815   1.62524   1.74249 </text>




 <!--DISTANCE PLOT BEGINS-->


<!-- the following will scale and place the distance plot -->
<g  transform="translate(0,50) ">
<g transform="translate(150,700) scale(1 -1)">
   <polyline fill="none" stroke="black" stroke-width="10" points=" 5.2 ,0  10.4 ,27.1444  15.6 ,54.2888  20.8 ,81.4332  26 ,108.578  31.2 ,135.722  36.4 ,162.866  41.6 ,190.011  46.8 ,217.155  52 ,244.3  57.2 ,271.444  62.4 ,298.588  67.6 ,325.733  72.8 ,352.877  78 ,380.022  83.2 ,395.057  88.4 ,406.098  93.6 ,417.256  98.8 ,425.711  104 ,430.876  109.2 ,436.363  114.4 ,442.16  119.6 ,448.254  124.8 ,454.635  130 ,455.399  135.2 ,450.314  140.4 ,445.546  145.6 ,441.105  150.8 ,437.001  156 ,433.245  161.2 ,429.844  166.4 ,426.808  171.6 ,424.144  176.8 ,421.859  182 ,419.96  187.2 ,418.452  192.4 ,417.339  197.6 ,416.624  202.8 ,416.309  208 ,416.396  213.2 ,416.883  218.4 ,417.77  223.6 ,419.054  228.8 ,420.732  234 ,422.798  239.2 ,425.247  244.4 ,428.072  249.6 ,431.266  254.8 ,434.822  260 ,438.729  265.2 ,442.979  270.4 ,447.167  275.6 ,441.923  280.8 ,436.999  286 ,432.405  291.2 ,428.152  296.4 ,424.25  301.6 ,420.71  306.8 ,417.539  312 ,414.748  317.2 ,412.342  322.4 ,410.33  327.6 ,408.717  332.8 ,407.508  338 ,406.707  343.2 ,406.315  348.4 ,406.334  353.6 ,406.763  358.8 ,407.603  364 ,408.85  369.2 ,410.5  374.4 ,412.548  379.6 ,414.989  384.8 ,417.816  390 ,421.021  395.2 ,424.596  400.4 ,428.53  405.6 ,432.815  410.8 ,435.497  416 ,429.935  421.2 ,424.693  426.4 ,419.783  431.6 ,415.218  436.8 ,406.126  442 ,395.069  447.2 ,380.022  452.4 ,352.877  457.6 ,325.733  462.8 ,298.588  468 ,271.444  473.2 ,244.3  478.4 ,217.155  483.6 ,190.011  488.8 ,162.866  494 ,135.722  499.2 ,108.578  504.4 ,81.4332  509.6 ,54.2888  514.8 ,27.1444  520 ,4.00756e-05  " />

<!--Draw the X and Y axes -->
<polyline fill="none" stroke="black" stroke-width="6"  points=" 600,0 0,0 0,520" />
<!-- -->

<line fill="none" stroke-width="3" boundary-string=""  stroke="lightblue" x1="0" y1="3.50124e-13" x2="5.2" y2="3.50124e-13" />
<line fill="none" stroke-width="3" boundary-string=""  stroke="lightblue" x1="5.2" y1="3.50124e-13" x2="10.4" y2="18.2428" />
<line fill="none" stroke-width="3" boundary-string=""  stroke="lightblue" x1="10.4" y1="18.2428" x2="15.6" y2="36.4856" />
<line fill="none" stroke-width="3" boundary-string=""  stroke="lightblue" x1="15.6" y1="36.4856" x2="20.8" y2="54.7284" />
<line fill="none" stroke-width="3" boundary-string=""  stroke="lightblue" x1="20.8" y1="54.7284" x2="26" y2="72.9712" />
<line fill="none" stroke-width="3" boundary-string=""  stroke="lightblue" x1="26" y1="72.9712" x2="31.2" y2="91.214" />
<line fill="none" stroke-width="3" boundary-string=""  stroke="lightblue" x1="31.2" y1="91.214" x2="36.4" y2="109.457" />
<line fill="none" stroke-width="3" boundary-string=""  stroke="lightblue" x1="36.4" y1="109.457" x2="41.6" y2="127.7" />
<line fill="none" stroke-width="3" boundary-string=""  stroke="lightblue" x1="41.6" y1="127.7" x2="46.8" y2="145.942" />
<line fill="none" stroke-width="3" boundary-string=""  stroke="lightblue" x1="46.8" y1="145.942" x2="52" y2="164.185" />
<line fill="none" stroke-width="3" boundary-string=""  stroke="lightblue" x1="52" y1="164.185" x2="57.2" y2="182.428" />
<line fill="none" stroke-width="3" boundary-string=""  stroke="lightblue" x1="57.2" y1="182.428" x2="62.4" y2="200.671" />
<line fill="none" stroke-width="3" boundary-string=""  stroke="lightblue" x1="62.4" y1="200.671" x2="67.6" y2="218.914" />
<line fill="none" stroke-width="3" boundary-string=""  stroke="lightblue" x1="67.6" y1="218.914" x2="72.8" y2="237.156" />
<line fill="none" stroke-width="3" boundary-string=""  stroke="lightblue" x1="72.8" y1="237.156" x2="78" y2="255.399" />
<line fill="none" stroke-width="3" boundary-string=""  stroke="lightblue" x1="78" y1="255.399" x2="83.2" y2="264.938" />
<line fill="none" stroke-width="3" boundary-string=""  stroke="lightblue" x1="83.2" y1="264.938" x2="88.4" y2="271.655" />
<line fill="none" stroke-width="3" boundary-string=""  stroke="lightblue" x1="88.4" y1="271.655" x2="93.6" y2="278.511" />
<line fill="none" stroke-width="3" boundary-string=""  stroke="lightblue" x1="93.6" y1="278.511" x2="98.8" y2="285.494" />
<line fill="none" stroke-width="3" boundary-string=""  stroke="lightblue" x1="98.8" y1="285.494" x2="104" y2="292.563" />
<line fill="none" stroke-width="3" boundary-string=""  stroke="lightblue" x1="104" y1="292.563" x2="109.2" y2="296.601" />
<line fill="none" stroke-width="3" boundary-string=""  stroke="lightblue" x1="109.2" y1="296.601" x2="114.4" y2="300.863" />
<line fill="none" stroke-width="3" boundary-string=""  stroke="lightblue" x1="114.4" y1="300.863" x2="119.6" y2="305.339" />
<line fill="none" stroke-width="3" boundary-string=""  stroke="lightblue" x1="119.6" y1="305.339" x2="124.8" y2="310.02" />
<line fill="none" stroke-width="3" boundary-string=""  stroke="lightblue" x1="124.8" y1="310.02" x2="130" y2="310.58" />
<line fill="none" stroke-width="3" boundary-string=""  stroke="lightblue" x1="130" y1="310.58" x2="135.2" y2="306.85" />
<line fill="none" stroke-width="3" boundary-string=""  stroke="lightblue" x1="135.2" y1="306.85" x2="140.4" y2="303.35" />
<line fill="none" stroke-width="3" boundary-string=""  stroke="lightblue" x1="140.4" y1="303.35" x2="145.6" y2="300.087" />
<line fill="none" stroke-width="3" boundary-string=""  stroke="lightblue" x1="145.6" y1="300.087" x2="150.8" y2="297.07" />
<line fill="none" stroke-width="3" boundary-string=""  stroke="lightblue" x1="150.8" y1="297.07" x2="156" y2="294.306" />
<line fill="none" stroke-width="3" boundary-string=""  stroke="lightblue" x1="156" y1="294.306" x2="161.2" y2="291.802" />
<line fill="none" stroke-width="3" boundary-string=""  stroke="lightblue" x1="161.2" y1="291.802" x2="166.4" y2="289.566" />
<line fill="none" stroke-width="3" boundary-string=""  stroke="lightblue" x1="166.4" y1="289.566" x2="171.6" y2="287.602" />
<line fill="none" stroke-width="3" boundary-string=""  stroke="lightblue" x1="171.6" y1="287.602" x2="176.8" y2="285.917" />
<line fill="none" stroke-width="3" boundary-string=""  stroke="lightblue" x1="176.8" y1="285.917" x2="182" y2="284.516" />
<line fill="none" stroke-width="3" boundary-string=""  stroke="lightblue" x1="182" y1="284.516" x2="187.2" y2="283.402" />
<line fill="none" stroke-width="3" boundary-string=""  stroke="lightblue" x1="187.2" y1="283.402" x2="192.4" y2="282.58" />
<line fill="none" stroke-width="3" boundary-string=""  stroke="lightblue" x1="192.4" y1="282.58" x2="197.6" y2="282.053" />
<line fill="none" stroke-width="3" boundary-string=""  stroke="lightblue" x1="197.6" y1="282.053" x2="202.8" y2="281.82" />
<line fill="none" stroke-width="3" boundary-string=""  stroke="lightblue" x1="202.8" y1="281.82" x2="208" y2="281.884" />
<line fill="none" stroke-width="3" boundary-string=""  stroke="lightblue" x1="208" y1="281.884" x2="213.2" y2="282.244" />
<line fill="none" stroke-width="3" boundary-string=""  stroke="lightblue" x1="213.2" y1="282.244" x2="218.4" y2="282.899" />
<line fill="none" stroke-width="3" boundary-string=""  stroke="lightblue" x1="218.4" y1="282.899" x2="223.6" y2="283.847" />
<line fill="none" stroke-width="3" boundary-string=""  stroke="lightblue" x1="223.6" y1="283.847" x2="228.8" y2="285.085" />
<line fill="none" stroke-width="3" boundary-string=""  stroke="lightblue" x1="228.8" y1="285.085" x2="234" y2="286.609" />
<line fill="none" stroke-width="3" boundary-string=""  stroke="lightblue" x1="234" y1="286.609" x2="239.2" y2="288.415" />
<line fill="none" stroke-width="3" boundary-string=""  stroke="lightblue" x1="239.2" y1="288.415" x2="244.4" y2="290.497" />
<line fill="none" stroke-width="3" boundary-string=""  stroke="lightblue" x1="244.4" y1="290.497" x2="249.6" y2="292.85" />
<line fill="none" stroke-width="3" boundary-string=""  stroke="lightblue" x1="249.6" y1="292.85" x2="254.8" y2="295.467" />
<line fill="none" stroke-width="3" boundary-string=""  stroke="lightblue" x1="254.8" y1="295.467" x2="260" y2="298.341" />
<line fill="none" stroke-width="3" boundary-string=""  stroke="lightblue" x1="260" y1="298.341" x2="265.2" y2="301.465" />
<line fill="none" stroke-width="3" boundary-string=""  stroke="lightblue" x1="265.2" y1="301.465" x2="270.4" y2="304.541" />
<line fill="none" stroke-width="3" boundary-string=""  stroke="lightblue" x1="270.4" y1="304.541" x2="275.6" y2="300.689" />
<line fill="none" stroke-width="3" boundary-string=""  stroke="lightblue" x1="275.6" y1="300.689" x2="280.8" y2="297.069" />
<line fill="none" stroke-width="3" boundary-string=""  stroke="lightblue" x1="280.8" y1="297.069" x2="286" y2="293.688" />
<line fill="none" stroke-width="3" boundary-string=""  stroke="lightblue" x1="286" y1="293.688" x2="291.2" y2="290.556" />
<line fill="none" stroke-width="3" boundary-string=""  stroke="lightblue" x1="291.2" y1="290.556" x2="296.4" y2="287.68" />
<line fill="none" stroke-width="3" boundary-string=""  stroke="lightblue" x1="296.4" y1="287.68" x2="301.6" y2="285.069" />
<line fill="none" stroke-width="3" boundary-string=""  stroke="lightblue" x1="301.6" y1="285.069" x2="306.8" y2="282.728" />
<line fill="none" stroke-width="3" boundary-string=""  stroke="lightblue" x1="306.8" y1="282.728" x2="312" y2="280.666" />
<line fill="none" stroke-width="3" boundary-string=""  stroke="lightblue" x1="312" y1="280.666" x2="317.2" y2="278.889" />
<line fill="none" stroke-width="3" boundary-string=""  stroke="lightblue" x1="317.2" y1="278.889" x2="322.4" y2="277.401" />
<line fill="none" stroke-width="3" boundary-string=""  stroke="lightblue" x1="322.4" y1="277.401" x2="327.6" y2="276.208" />
<line fill="none" stroke-width="3" boundary-string=""  stroke="lightblue" x1="327.6" y1="276.208" x2="332.8" y2="275.313" />
<line fill="none" stroke-width="3" boundary-string=""  stroke="lightblue" x1="332.8" y1="275.313" x2="338" y2="274.72" />
<line fill="none" stroke-width="3" boundary-string=""  stroke="lightblue" x1="338" y1="274.72" x2="343.2" y2="274.43" />
<line fill="none" stroke-width="3" boundary-string=""  stroke="lightblue" x1="343.2" y1="274.43" x2="348.4" y2="274.444" />
<line fill="none" stroke-width="3" boundary-string=""  stroke="lightblue" x1="348.4" y1="274.444" x2="353.6" y2="274.762" />
<line fill="none" stroke-width="3" boundary-string=""  stroke="lightblue" x1="353.6" y1="274.762" x2="358.8" y2="275.383" />
<line fill="none" stroke-width="3" boundary-string=""  stroke="lightblue" x1="358.8" y1="275.383" x2="364" y2="276.306" />
<line fill="none" stroke-width="3" boundary-string=""  stroke="lightblue" x1="364" y1="276.306" x2="369.2" y2="277.526" />
<line fill="none" stroke-width="3" boundary-string=""  stroke="lightblue" x1="369.2" y1="277.526" x2="374.4" y2="279.041" />
<line fill="none" stroke-width="3" boundary-string=""  stroke="lightblue" x1="374.4" y1="279.041" x2="379.6" y2="280.845" />
<line fill="none" stroke-width="3" boundary-string=""  stroke="lightblue" x1="379.6" y1="280.845" x2="384.8" y2="282.933" />
<line fill="none" stroke-width="3" boundary-string=""  stroke="lightblue" x1="384.8" y1="282.933" x2="390" y2="285.299" />
<line fill="none" stroke-width="3" boundary-string=""  stroke="lightblue" x1="390" y1="285.299" x2="395.2" y2="287.935" />
<line fill="none" stroke-width="3" boundary-string=""  stroke="lightblue" x1="395.2" y1="287.935" x2="400.4" y2="290.835" />
<line fill="none" stroke-width="3" boundary-string=""  stroke="lightblue" x1="400.4" y1="290.835" x2="405.6" y2="293.99" />
<line fill="none" stroke-width="3" boundary-string=""  stroke="lightblue" x1="405.6" y1="293.99" x2="410.8" y2="295.964" />
<line fill="none" stroke-width="3" boundary-string=""  stroke="lightblue" x1="410.8" y1="295.964" x2="416" y2="291.869" />
<line fill="none" stroke-width="3" boundary-string=""  stroke="lightblue" x1="416" y1="291.869" x2="421.2" y2="288.006" />
<line fill="none" stroke-width="3" boundary-string=""  stroke="lightblue" x1="421.2" y1="288.006" x2="426.4" y2="284.385" />
<line fill="none" stroke-width="3" boundary-string=""  stroke="lightblue" x1="426.4" y1="284.385" x2="431.6" y2="278.511" />
<line fill="none" stroke-width="3" boundary-string=""  stroke="lightblue" x1="431.6" y1="278.511" x2="436.8" y2="271.655" />
<line fill="none" stroke-width="3" boundary-string=""  stroke="lightblue" x1="436.8" y1="271.655" x2="442" y2="264.938" />
<line fill="none" stroke-width="3" boundary-string=""  stroke="lightblue" x1="442" y1="264.938" x2="447.2" y2="255.399" />
<line fill="none" stroke-width="3" boundary-string=""  stroke="lightblue" x1="447.2" y1="255.399" x2="452.4" y2="237.156" />
<line fill="none" stroke-width="3" boundary-string=""  stroke="lightblue" x1="452.4" y1="237.156" x2="457.6" y2="218.914" />
<line fill="none" stroke-width="3" boundary-string=""  stroke="lightblue" x1="457.6" y1="218.914" x2="462.8" y2="200.671" />
<line fill="none" stroke-width="3" boundary-string=""  stroke="lightblue" x1="462.8" y1="200.671" x2="468" y2="182.428" />
<line fill="none" stroke-width="3" boundary-string=""  stroke="lightblue" x1="468" y1="182.428" x2="473.2" y2="164.185" />
<line fill="none" stroke-width="3" boundary-string=""  stroke="lightblue" x1="473.2" y1="164.185" x2="478.4" y2="145.942" />
<line fill="none" stroke-width="3" boundary-string=""  stroke="lightblue" x1="478.4" y1="145.942" x2="483.6" y2="127.7" />
<line fill="none" stroke-width="3" boundary-string=""  stroke="lightblue" x1="483.6" y1="127.7" x2="488.8" y2="109.457" />
<line fill="none" stroke-width="3" boundary-string=""  stroke="lightblue" x1="488.8" y1="109.457" x2="494" y2="91.214" />
<line fill="none" stroke-width="3" boundary-string=""  stroke="lightblue" x1="494" y1="91.214" x2="499.2" y2="72.9712" />
<line fill="none" stroke-width="3" boundary-string=""  stroke="lightblue" x1="499.2" y1="72.9712" x2="504.4" y2="54.7284" />
<line fill="none" stroke-width="3" boundary-string=""  stroke="lightblue" x1="504.4" y1="54.7284" x2="509.6" y2="36.4856" />
<line fill="none" stroke-width="3" boundary-string=""  stroke="lightblue" x1="509.6" y1="36.4856" x2="514.8" y2="18.2428" />
<line fill="none" stroke-width="3" boundary-string=""  stroke="lightblue" x1="514.8" y1="18.2428" x2="520" y2="0" />

<!--Draw the X and Y axes -->
<polyline fill="none" stroke="black" stroke-width="6"  points=" 600,0 0,0 0,520" />
<!-- -->


<!--Draw labels and tics for X axis -->

<line fill="none" stroke="black"  stroke-width="6"  x1="0.5" y1="0" x2="0.5" y2="-20" />
<text transform="scale(1,-1)" font-family="sans-serif" font-size="30" x="-24.5" y="45" >0 </text>
<line fill="none" stroke="black"  stroke-width="6"  x1="104.5" y1="0" x2="104.5" y2="-20" />
<text transform="scale(1,-1)" font-family="sans-serif" font-size="30" x="79.5" y="45" >20 </text>
<line fill="none" stroke="black"  stroke-width="6"  x1="208.5" y1="0" x2="208.5" y2="-20" />
<text transform="scale(1,-1)" font-family="sans-serif" font-size="30" x="183.5" y="45" >40 </text>
<line fill="none" stroke="black"  stroke-width="6"  x1="312.5" y1="0" x2="312.5" y2="-20" />
<text transform="scale(1,-1)" font-family="sans-serif" font-size="30" x="287.5" y="45" >60 </text>
<line fill="none" stroke="black"  stroke-width="6"  x1="416.5" y1="0" x2="416.5" y2="-20" />
<text transform="scale(1,-1)" font-family="sans-serif" font-size="30" x="391.5" y="45" >80 </text>
<line fill="none" stroke="black"  stroke-width="6"  x1="520.5" y1="0" x2="520.5" y2="-20" />
<text transform="scale(1,-1)" font-family="sans-serif" font-size="30" x="495.5" y="45" >100 </text>


<!--Draw labels and tics for Y axis -->

<line fill="none" stroke="black" stroke-width="6" x1="0.0" y1="0" x2="-20" y2="0" />
<text transform="scale(1,-1)" text-anchor="end" font-family="sans-serif" font-size="30" x="-25" y="10" >0 </text>
<line fill="none" stroke="black" stroke-width="6" x1="0.0" y1="74.2857" x2="-20" y2="74.2857" />
<text transform="scale(1,-1)" text-anchor="end" font-family="sans-serif" font-size="30" x="-25" y="-64.2857" >10 </text>
<line fill="none" stroke="black" stroke-width="6" x1="0.0" y1="148.571" x2="-20" y2="148.571" />
<text transform="scale(1,-1)" text-anchor="end" font-family="sans-serif" font-size="30" x="-25" y="-138.571" >20 </text>
<line fill="none" stroke="black" stroke-width="6" x1="0.0" y1="222.857" x2="-20" y2="222.857" />
<text transform="scale(1,-1)" text-anchor="end" font-family="sans-serif" font-size="30" x="-25" y="-212.857" >30 </text>
<line fill="none" stroke="black" stroke-width="6" x1="0.0" y1="297.143" x2="-20" y2="297.143" />
<text transform="scale(1,-1)" text-anchor="end" font-family="sans-serif" font-size="30" x="-25" y="-287.143" >40 </text>
<line fill="none" stroke="black" stroke-width="6" x1="0.0" y1="371.429" x2="-20" y2="371.429" />
<text transform="scale(1,-1)" text-anchor="end" font-family="sans-serif" font-size="30" x="-25" y="-361.429" >50 </text>
<line fill="none" stroke="black" stroke-width="6" x1="0.0" y1="445.714" x2="-20" y2="445.714" />
<text transform="scale(1,-1)" text-anchor="end" font-family="sans-serif" font-size="30" x="-25" y="-435.714" >60 </text>
<line fill="none" stroke="black" stroke-width="6" x1="0.0" y1="520" x2="-20" y2="520" />
<text transform="scale(1,-1)" text-anchor="end" font-family="sans-serif" font-size="30" x="-25" y="-510" >70 </text>


<!-- Reduced vector followed by D7dist from the final reduced cell
-35.91352  -4.60466 -11.44958 -43.58966 -27.93663 -79.52688    (4.71321e-14,  0)   
-36.63625  -5.80175 -10.64628 -44.31543 -28.50426 -77.92028    (2.45576,  3.65405)   
-37.35898  -6.99884  -9.84298 -45.04119 -29.07188 -76.31368    (4.91152,  7.30811)   
-38.08170  -8.19593  -9.03968 -45.76696 -29.63951 -74.70707    (7.36728,  10.9622)   
-38.80443  -9.39302  -8.23638 -46.49272 -30.20713 -73.10047    (9.82304,  14.6162)   
-39.52716 -10.59011  -7.43307 -47.21849 -30.77476 -71.49387    (12.2788,  18.2703)   
-40.24989 -11.78720  -6.62977 -47.94425 -31.34238 -69.88726    (14.7346,  21.9243)   
-40.97261 -12.98429  -5.82647 -48.67002 -31.91001 -68.28066    (17.1903,  25.5784)   
-41.69534 -14.18138  -5.02317 -49.39578 -32.47763 -66.67405    (19.6461,  29.2324)   
-42.41807 -15.37847  -4.21987 -50.12155 -33.04526 -65.06745    (22.1018,  32.8865)   
-43.14079 -16.57556  -3.41657 -50.84731 -33.61288 -63.46085    (24.5576,  36.5405)   
-43.86352 -17.77265  -2.61326 -51.57308 -34.18051 -61.85424    (27.0134,  40.1946)   
-44.58625 -18.96974  -1.80996 -52.29884 -34.74814 -60.24764    (29.4691,  43.8486)   
-45.30898 -20.16683  -1.00666 -53.02461 -35.31576 -58.64104    (31.9249,  47.5027)   
-46.03170 -21.36392  -0.20336 -53.75037 -35.88339 -57.03443    (34.3807,  51.1568)   
-35.85107 -21.96106  -0.59994 -53.87619 -46.15449 -56.02777    (35.6647,  53.1807)   
-35.61539 -22.35485  -1.40325 -53.79866 -46.07391 -55.22447    (36.569,  54.6671)   
-35.37971 -22.74864  -2.20655 -53.72112 -45.99334 -54.42117    (37.4919,  56.1691)   
-35.14404 -23.14243  -3.00985 -53.64358 -45.91276 -53.61787    (38.4319,  57.3073)   
-34.90836 -23.53621  -3.81315 -53.56605 -45.83219 -52.81456    (39.3835,  58.0026)   
-34.67269 -23.93000  -4.61645 -53.48851 -45.75161 -52.01126    (39.9271,  58.7412)   
-34.43701 -24.32379  -5.41976 -53.41097 -45.67104 -51.20796    (40.5008,  59.5215)   
-34.20133 -24.71758  -6.22306 -53.33344 -45.59046 -50.40466    (41.1033,  60.3419)   
-33.96566 -25.11137  -7.02636 -53.25590 -45.50989 -49.60136    (41.7334,  61.2008)   
-33.72998 -25.50515  -7.82966 -53.17836 -45.42931 -48.79806    (41.8088,  61.3037)   
-25.89894 -33.49430  -8.63296 -45.34874 -53.10083 -47.99475    (41.3068,  60.6192)   
-26.29273 -33.25863  -9.43626 -45.26816 -53.02329 -47.19145    (40.8356,  59.9773)   
-26.68652 -33.02295 -10.23957 -45.18759 -52.94575 -46.38815    (40.3964,  59.3795)   
-27.08031 -32.78727 -11.04287 -45.10702 -52.86822 -45.58485    (39.9902,  58.8271)   
-27.47409 -32.55160 -11.84617 -45.02644 -52.79068 -44.78155    (39.6182,  58.3214)   
-27.86788 -32.31592 -12.64947 -44.94587 -52.71314 -43.97824    (39.2811,  57.8636)   
-28.26167 -32.08024 -13.45277 -44.86529 -52.63561 -43.17494    (38.98,  57.4549)   
-28.65546 -31.84457 -14.25608 -44.78472 -52.55807 -42.37164    (38.7156,  57.0963)   
-29.04925 -31.60889 -15.05938 -44.70414 -52.48053 -41.56834    (38.4888,  56.7887)   
-29.44303 -31.37321 -15.86268 -44.62357 -52.40300 -40.76504    (38.3002,  56.5331)   
-29.83682 -31.13754 -16.66598 -44.54299 -52.32546 -39.96173    (38.1503,  56.3301)   
-30.23061 -30.90186 -17.46928 -44.46242 -52.24792 -39.15843    (38.0397,  56.1803)   
-30.62440 -18.27258 -30.66619 -44.38184 -38.35513 -52.17039    (37.9686,  56.084)   
-31.01818 -19.07589 -30.43051 -44.30127 -37.55183 -52.09285    (37.9373,  56.0417)   
-31.41197 -19.87919 -30.19483 -44.22069 -36.74853 -52.01531    (37.9459,  56.0533)   
-31.80576 -20.68249 -29.95916 -44.14012 -35.94523 -51.93777    (37.9944,  56.1189)   
-32.19955 -21.48579 -29.72348 -44.05954 -35.14192 -51.86024    (38.0826,  56.2383)   
-32.59334 -22.28909 -29.48780 -43.97897 -34.33862 -51.78270    (38.2102,  56.4112)   
-23.09240 -32.98712 -29.25213 -33.53532 -43.89840 -51.70516    (38.3768,  56.637)   
-23.89570 -33.38091 -29.01645 -32.73202 -43.81782 -51.62763    (38.582,  56.9151)   
-24.69900 -33.77470 -28.78077 -31.92872 -43.73725 -51.55009    (38.8251,  57.2447)   
-25.50230 -34.16849 -28.54510 -31.12541 -43.65667 -51.47255    (39.1054,  57.6251)   
-26.30560 -34.56228 -28.30942 -30.32211 -43.57610 -51.39502    (39.4221,  58.0551)   
-27.10891 -34.95606 -28.07374 -29.51881 -43.49552 -51.31748    (39.7744,  58.5337)   
-27.91221 -35.34985 -27.83807 -28.71551 -43.41495 -51.23994    (40.1613,  59.0597)   
-28.71551 -35.74364 -27.60239 -27.91221 -43.33437 -51.16241    (40.5818,  59.6318)   
-29.51881 -36.13743 -27.36672 -27.10891 -43.25380 -51.08487    (40.9959,  60.1956)   
-30.32211 -36.53121 -27.13104 -26.30560 -43.17322 -51.00733    (40.4774,  59.4897)   
-31.12541 -36.92500 -26.89536 -25.50230 -43.09265 -50.92980    (39.99,  58.8268)   
-43.01207 -24.69900 -26.65969 -37.31879 -31.92872 -50.85226    (39.535,  58.2084)   
-42.93150 -23.89570 -26.42401 -37.71258 -32.73202 -50.77472    (39.1133,  57.6358)   
-42.85092 -23.09240 -26.18833 -38.10637 -33.53532 -50.69719    (38.7262,  57.1106)   
-42.77035 -22.28909 -25.95266 -38.50015 -34.33862 -50.61965    (38.3746,  56.634)   
-42.68978 -21.48579 -25.71698 -38.89394 -35.14192 -50.54211    (38.0596,  56.2072)   
-42.60920 -20.68249 -25.48130 -39.28773 -35.94523 -50.46458    (37.782,  55.8314)   
-42.52863 -19.87919 -25.24563 -39.68152 -36.74853 -50.38704    (37.5427,  55.5076)   
-42.44805 -19.07589 -25.00995 -40.07531 -37.55183 -50.30950    (37.3424,  55.2368)   
-42.36748 -18.27258 -24.77427 -40.46909 -38.35513 -50.23197    (37.1818,  55.0197)   
-42.28690 -17.46928 -24.53860 -40.86288 -39.15843 -50.15443    (37.0614,  54.8569)   
-42.20633 -16.66598 -24.30292 -41.25667 -39.96173 -50.07689    (36.9815,  54.749)   
-42.12575 -15.86268 -24.06724 -41.65046 -40.76504 -49.99936    (36.9424,  54.6962)   
-42.04518 -23.83157 -15.05938 -42.04425 -49.92182 -41.56834    (36.9443,  54.6987)   
-41.96460 -23.59589 -14.25608 -42.43803 -49.84428 -42.37164    (36.9872,  54.7566)   
-41.88403 -23.36022 -13.45277 -42.83182 -49.76675 -43.17494    (37.0708,  54.8696)   
-41.80345 -23.12454 -12.64947 -43.22561 -49.68921 -43.97824    (37.195,  55.0375)   
-41.72288 -22.88886 -11.84617 -43.61940 -49.61167 -44.78155    (37.3593,  55.2596)   
-41.64230 -22.65319 -11.04287 -44.01318 -49.53414 -45.58485    (37.5632,  55.5353)   
-41.56173 -22.41751 -10.23957 -44.40697 -49.45660 -46.38815    (37.8061,  55.864)   
-41.48116 -22.18183  -9.43626 -44.80076 -49.37906 -47.19145    (38.0871,  56.2445)   
-41.40058 -21.94616  -8.63296 -45.19455 -49.30152 -47.99475    (38.4056,  56.676)   
-41.32001 -21.71048  -7.82966 -45.58834 -49.22399 -48.79806    (38.7605,  57.1571)   
-41.23943 -21.47480  -7.02636 -45.98212 -49.14645 -49.60136    (39.1509,  57.6868)   
-41.15886 -21.23913  -6.22306 -46.37591 -49.06891 -50.40466    (39.5756,  58.2636)   
-41.07828 -21.00345  -5.41976 -46.76970 -48.99138 -51.20796    (39.8413,  58.6246)   
-40.99771 -20.76777  -4.61645 -47.16349 -48.91384 -52.01126    (39.2901,  57.8758)   
-40.91713 -20.53210  -3.81315 -47.55728 -48.83630 -52.81456    (38.7701,  57.1702)   
-40.83656 -20.29642  -3.00985 -47.95106 -48.75877 -53.61787    (38.2826,  56.5093)   
-40.75598 -20.06074  -2.20655 -48.34485 -48.68123 -54.42117    (37.4919,  55.8948)   
-40.67541 -19.82507  -1.40325 -48.73864 -48.60369 -55.22447    (36.569,  54.6708)   
-40.59483 -19.58939  -0.59994 -49.13243 -48.52616 -56.02777    (35.6647,  53.1824)   
-48.24526 -19.15036  -0.20336 -49.32286 -40.31090 -57.03443    (34.3807,  51.1568)   
-47.36442 -18.11138  -1.00666 -48.91334 -39.42703 -58.64104    (31.9249,  47.5027)   
-46.48359 -17.07240  -1.80996 -48.50383 -38.54315 -60.24764    (29.4691,  43.8486)   
-45.60275 -16.03342  -2.61326 -48.09432 -37.65927 -61.85424    (27.0134,  40.1946)   
-44.72191 -14.99444  -3.41657 -47.68480 -36.77540 -63.46085    (24.5576,  36.5405)   
-43.84107 -13.95547  -4.21987 -47.27529 -35.89152 -65.06745    (22.1018,  32.8865)   
-42.96023 -12.91649  -5.02317 -46.86577 -35.00764 -66.67405    (19.6461,  29.2324)   
-42.07939 -11.87751  -5.82647 -46.45626 -34.12377 -68.28066    (17.1903,  25.5784)   
-41.19855 -10.83853  -6.62977 -46.04675 -33.23989 -69.88726    (14.7346,  21.9243)   
-40.31772  -9.79955  -7.43307 -45.63723 -32.35601 -71.49387    (12.2788,  18.2703)   
-39.43688  -8.76057  -8.23638 -45.22772 -31.47214 -73.10047    (9.82304,  14.6162)   
-38.55604  -7.72160  -9.03968 -44.81820 -30.58826 -74.70707    (7.36728,  10.9622)   
-37.67520  -6.68262  -9.84298 -44.40869 -29.70438 -76.31368    (4.91152,  7.30811)   
-36.79436  -5.64364 -10.64628 -43.99918 -28.82051 -77.92028    (2.45576,  3.65405)   
-35.91352  -4.60466 -11.44958 -43.58966 -27.93663 -79.52688    (0,  5.3948e-06)   
-->
</g>
</g>
<!-- Run Constants
CIRCLEPLOT bool false
DISTANCEPLOT bool true
PRINTDISTANCEDATA bool true
GLITCHESONLY bool false
PLOT 2doubles 3 4
PERTURBBY double 0.05
GLITCHLEVEL double 3
BOUNDARYWINDOW double 0.065
FRAMESPERPATH int 200
STEPSPERFRAME int 100
TRIALS int 1
ALLBLACK bool false
FILEPREFIX string Fol
GRAPHSIZE int 0
BORDER int 0
PLOTSIZE int 0
CIRCLEPLOTSIZE int 2000
CIRCLERADIUS int 300
CIRCLESTROKEWIDTH int 30
G6LINEWIDTH int 3
DELONELINEWIDTH int 10
AXISWIDTH int 6
TICLENGTH int 20
VECTOR g6 
PERTURB g6Perturb 
MOVIEMODE MovieMode STAR
FOLLOWERMODE FollowerMode Follow
FIXRANDOMSEED fixRandomSeed true
RANDOMSEED int 18
TIMESTAMP bool true
END end 




-->
</svg>
