<?xml version="1.0" standalone="no"?>
<!-- the width and height set the total pixel output of the image in the browser -->
<!-- whatever is within the viewbox will be remapped to show in this size -->
<svg width="1000" height="1000" viewBox="1 0 1000 1000"  version="1.1" xmlns="http://www.w3.org/2000/svg" xmlns:xlink="http://www.w3.org/1999/xlink">
 <desc>ID (and file name) = Fol_2018-02-13.10_32_39.48_0.svg </desc> 
 <text x="280"  y="30"  font-family="sans-serif" font-size="20" > Trial vector = 0  </text> 
 <text x="700" y="30" font-family="sans-serif" font-size="20">Wall time passed: 32653 msec.</text>
<text x="450" y="30" font-family="sans-serif" font-size="20" fill="black" > Plotting g5 vs. g4</text>
<text x="300" y="60"  font-family="sans-serif" font-size="20" > Beginning vector  704.45905 457.12646 1938.65498 -3367.62506 -8201.92383 -2343.39707 </text>
<text x="300" y="85"  font-family="sans-serif" font-size="20" > Beginning cell   31.17441  74.55743  34.37749   1.29237   1.13013   0.58432 </text>
<text x="300" y="110"  font-family="sans-serif" font-size="20" > Ending vector  209.79388   5.03227 457.12646 -1434.00236 -1848.73191 -1906.39055 </text>
<text x="300" y="135"  font-family="sans-serif" font-size="20" > Ending cell   31.17441  34.37749  41.12863   1.42187   1.56687   1.13013 </text>




 <!--DISTANCE PLOT BEGINS-->


<!-- the following will scale and place the distance plot -->
<g  transform="translate(0,50) ">
<g transform="translate(150,700) scale(1 -1)">
   <polyline fill="none" stroke="black" stroke-width="10" points=" 5.2 ,0  10.4 ,22.6856  15.6 ,45.3711  20.8 ,68.0567  26 ,90.7422  31.2 ,113.428  36.4 ,136.113  41.6 ,158.799  46.8 ,181.484  52 ,204.17  57.2 ,224.069  62.4 ,237.311  67.6 ,241.267  72.8 ,245.7  78 ,250.044  83.2 ,252.948  88.4 ,256.338  93.6 ,260.195  98.8 ,264.498  104 ,269.227  109.2 ,274.359  114.4 ,279.873  119.6 ,285.745  124.8 ,291.955  130 ,298.481  135.2 ,305.303  140.4 ,312.402  145.6 ,319.759  150.8 ,327.357  156 ,335.179  161.2 ,343.211  166.4 ,351.437  171.6 ,359.844  176.8 ,368.421  182 ,377.155  187.2 ,383.882  192.4 ,389.131  197.6 ,394.648  202.8 ,400.421  208 ,406.438  213.2 ,412.691  218.4 ,419.167  223.6 ,425.857  228.8 ,432.75  234 ,439.838  239.2 ,447.111  244.4 ,454.56  249.6 ,462.177  254.8 ,469.953  260 ,477.881  265.2 ,398.02  270.4 ,396.104  275.6 ,396.096  280.8 ,397.957  286 ,401.586  291.2 ,406.844  296.4 ,413.568  301.6 ,421.594  306.8 ,430.769  312 ,426.17  317.2 ,421.634  322.4 ,417.366  327.6 ,413.377  332.8 ,409.673  338 ,406.262  343.2 ,403.421  348.4 ,401.541  353.6 ,399.548  358.8 ,397.808  364 ,396.76  369.2 ,396.409  374.4 ,396.756  379.6 ,397.8  384.8 ,399.536  390 ,401.954  395.2 ,386.271  400.4 ,369.732  405.6 ,353.199  410.8 ,336.672  416 ,320.153  421.2 ,303.644  426.4 ,287.145  431.6 ,270.659  436.8 ,254.188  442 ,237.736  447.2 ,221.307  452.4 ,204.905  457.6 ,188.539  462.8 ,172.219  468 ,155.959  473.2 ,139.781  478.4 ,123.717  483.6 ,107.797  488.8 ,92.0553  494 ,76.7152  499.2 ,61.5778  504.4 ,47.8212  509.6 ,33.2043  514.8 ,16.6022  520 ,2.49359e-05  " />

<!--Draw the X and Y axes -->
<polyline fill="none" stroke="black" stroke-width="6"  points=" 600,0 0,0 0,520" />
<!-- -->

<line fill="none" stroke-width="3" boundary-string=""  stroke="lightblue" x1="0" y1="3.94114e-13" x2="5.2" y2="3.94114e-13" />
<line fill="none" stroke-width="3" boundary-string=""  stroke="lightblue" x1="5.2" y1="3.94114e-13" x2="10.4" y2="13.5901" />
<line fill="none" stroke-width="3" boundary-string=""  stroke="lightblue" x1="10.4" y1="13.5901" x2="15.6" y2="27.1801" />
<line fill="none" stroke-width="3" boundary-string=""  stroke="lightblue" x1="15.6" y1="27.1801" x2="20.8" y2="40.7702" />
<line fill="none" stroke-width="3" boundary-string=""  stroke="lightblue" x1="20.8" y1="40.7702" x2="26" y2="54.3602" />
<line fill="none" stroke-width="3" boundary-string=""  stroke="lightblue" x1="26" y1="54.3602" x2="31.2" y2="67.9503" />
<line fill="none" stroke-width="3" boundary-string=""  stroke="lightblue" x1="31.2" y1="67.9503" x2="36.4" y2="81.5403" />
<line fill="none" stroke-width="3" boundary-string=""  stroke="lightblue" x1="36.4" y1="81.5403" x2="41.6" y2="95.1304" />
<line fill="none" stroke-width="3" boundary-string=""  stroke="lightblue" x1="41.6" y1="95.1304" x2="46.8" y2="108.72" />
<line fill="none" stroke-width="3" boundary-string=""  stroke="lightblue" x1="46.8" y1="108.72" x2="52" y2="121.7" />
<line fill="none" stroke-width="3" boundary-string=""  stroke="lightblue" x1="52" y1="121.7" x2="57.2" y2="132.084" />
<line fill="none" stroke-width="3" boundary-string=""  stroke="lightblue" x1="57.2" y1="132.084" x2="62.4" y2="140.207" />
<line fill="none" stroke-width="3" boundary-string=""  stroke="lightblue" x1="62.4" y1="140.207" x2="67.6" y2="141.568" />
<line fill="none" stroke-width="3" boundary-string=""  stroke="lightblue" x1="67.6" y1="141.568" x2="72.8" y2="143.318" />
<line fill="none" stroke-width="3" boundary-string=""  stroke="lightblue" x1="72.8" y1="143.318" x2="78" y2="144.975" />
<line fill="none" stroke-width="3" boundary-string=""  stroke="lightblue" x1="78" y1="144.975" x2="83.2" y2="145.365" />
<line fill="none" stroke-width="3" boundary-string=""  stroke="lightblue" x1="83.2" y1="145.365" x2="88.4" y2="146.148" />
<line fill="none" stroke-width="3" boundary-string=""  stroke="lightblue" x1="88.4" y1="146.148" x2="93.6" y2="147.316" />
<line fill="none" stroke-width="3" boundary-string=""  stroke="lightblue" x1="93.6" y1="147.316" x2="98.8" y2="148.862" />
<line fill="none" stroke-width="3" boundary-string=""  stroke="lightblue" x1="98.8" y1="148.862" x2="104" y2="150.773" />
<line fill="none" stroke-width="3" boundary-string=""  stroke="lightblue" x1="104" y1="150.773" x2="109.2" y2="153.036" />
<line fill="none" stroke-width="3" boundary-string=""  stroke="lightblue" x1="109.2" y1="153.036" x2="114.4" y2="155.636" />
<line fill="none" stroke-width="3" boundary-string=""  stroke="lightblue" x1="114.4" y1="155.636" x2="119.6" y2="158.556" />
<line fill="none" stroke-width="3" boundary-string=""  stroke="lightblue" x1="119.6" y1="158.556" x2="124.8" y2="161.778" />
<line fill="none" stroke-width="3" boundary-string=""  stroke="lightblue" x1="124.8" y1="161.778" x2="130" y2="165.285" />
<line fill="none" stroke-width="3" boundary-string=""  stroke="lightblue" x1="130" y1="165.285" x2="135.2" y2="169.06" />
<line fill="none" stroke-width="3" boundary-string=""  stroke="lightblue" x1="135.2" y1="169.06" x2="140.4" y2="173.084" />
<line fill="none" stroke-width="3" boundary-string=""  stroke="lightblue" x1="140.4" y1="173.084" x2="145.6" y2="177.341" />
<line fill="none" stroke-width="3" boundary-string=""  stroke="lightblue" x1="145.6" y1="177.341" x2="150.8" y2="181.815" />
<line fill="none" stroke-width="3" boundary-string=""  stroke="lightblue" x1="150.8" y1="181.815" x2="156" y2="186.489" />
<line fill="none" stroke-width="3" boundary-string=""  stroke="lightblue" x1="156" y1="186.489" x2="161.2" y2="191.349" />
<line fill="none" stroke-width="3" boundary-string=""  stroke="lightblue" x1="161.2" y1="191.349" x2="166.4" y2="196.382" />
<line fill="none" stroke-width="3" boundary-string=""  stroke="lightblue" x1="166.4" y1="196.382" x2="171.6" y2="201.574" />
<line fill="none" stroke-width="3" boundary-string=""  stroke="lightblue" x1="171.6" y1="201.574" x2="176.8" y2="206.913" />
<line fill="none" stroke-width="3" boundary-string=""  stroke="lightblue" x1="176.8" y1="206.913" x2="182" y2="212.389" />
<line fill="none" stroke-width="3" boundary-string=""  stroke="lightblue" x1="182" y1="212.389" x2="187.2" y2="216.081" />
<line fill="none" stroke-width="3" boundary-string=""  stroke="lightblue" x1="187.2" y1="216.081" x2="192.4" y2="218.458" />
<line fill="none" stroke-width="3" boundary-string=""  stroke="lightblue" x1="192.4" y1="218.458" x2="197.6" y2="221.069" />
<line fill="none" stroke-width="3" boundary-string=""  stroke="lightblue" x1="197.6" y1="221.069" x2="202.8" y2="223.907" />
<line fill="none" stroke-width="3" boundary-string=""  stroke="lightblue" x1="202.8" y1="223.907" x2="208" y2="226.962" />
<line fill="none" stroke-width="3" boundary-string=""  stroke="lightblue" x1="208" y1="226.962" x2="213.2" y2="230.226" />
<line fill="none" stroke-width="3" boundary-string=""  stroke="lightblue" x1="213.2" y1="230.226" x2="218.4" y2="233.691" />
<line fill="none" stroke-width="3" boundary-string=""  stroke="lightblue" x1="218.4" y1="233.691" x2="223.6" y2="237.347" />
<line fill="none" stroke-width="3" boundary-string=""  stroke="lightblue" x1="223.6" y1="237.347" x2="228.8" y2="241.186" />
<line fill="none" stroke-width="3" boundary-string=""  stroke="lightblue" x1="228.8" y1="241.186" x2="234" y2="245.199" />
<line fill="none" stroke-width="3" boundary-string=""  stroke="lightblue" x1="234" y1="245.199" x2="239.2" y2="249.378" />
<line fill="none" stroke-width="3" boundary-string=""  stroke="lightblue" x1="239.2" y1="249.378" x2="244.4" y2="253.715" />
<line fill="none" stroke-width="3" boundary-string=""  stroke="lightblue" x1="244.4" y1="253.715" x2="249.6" y2="258.201" />
<line fill="none" stroke-width="3" boundary-string=""  stroke="lightblue" x1="249.6" y1="258.201" x2="254.8" y2="262.829" />
<line fill="none" stroke-width="3" boundary-string=""  stroke="lightblue" x1="254.8" y1="262.829" x2="260" y2="267.592" />
<line fill="none" stroke-width="3" boundary-string=""  stroke="lightblue" x1="260" y1="267.592" x2="265.2" y2="266.733" />
<line fill="none" stroke-width="3" boundary-string=""  stroke="lightblue" x1="265.2" y1="266.733" x2="270.4" y2="261.765" />
<line fill="none" stroke-width="3" boundary-string=""  stroke="lightblue" x1="270.4" y1="261.765" x2="275.6" y2="256.954" />
<line fill="none" stroke-width="3" boundary-string=""  stroke="lightblue" x1="275.6" y1="256.954" x2="280.8" y2="252.31" />
<line fill="none" stroke-width="3" boundary-string=""  stroke="lightblue" x1="280.8" y1="252.31" x2="286" y2="247.84" />
<line fill="none" stroke-width="3" boundary-string=""  stroke="lightblue" x1="286" y1="247.84" x2="291.2" y2="243.556" />
<line fill="none" stroke-width="3" boundary-string=""  stroke="lightblue" x1="291.2" y1="243.556" x2="296.4" y2="239.467" />
<line fill="none" stroke-width="3" boundary-string=""  stroke="lightblue" x1="296.4" y1="239.467" x2="301.6" y2="235.583" />
<line fill="none" stroke-width="3" boundary-string=""  stroke="lightblue" x1="301.6" y1="235.583" x2="306.8" y2="231.915" />
<line fill="none" stroke-width="3" boundary-string=""  stroke="lightblue" x1="306.8" y1="231.915" x2="312" y2="228.472" />
<line fill="none" stroke-width="3" boundary-string=""  stroke="lightblue" x1="312" y1="228.472" x2="317.2" y2="225.266" />
<line fill="none" stroke-width="3" boundary-string=""  stroke="lightblue" x1="317.2" y1="225.266" x2="322.4" y2="222.306" />
<line fill="none" stroke-width="3" boundary-string=""  stroke="lightblue" x1="322.4" y1="222.306" x2="327.6" y2="219.602" />
<line fill="none" stroke-width="3" boundary-string=""  stroke="lightblue" x1="327.6" y1="219.602" x2="332.8" y2="217.165" />
<line fill="none" stroke-width="3" boundary-string=""  stroke="lightblue" x1="332.8" y1="217.165" x2="338" y2="215.003" />
<line fill="none" stroke-width="3" boundary-string=""  stroke="lightblue" x1="338" y1="215.003" x2="343.2" y2="214.439" />
<line fill="none" stroke-width="3" boundary-string=""  stroke="lightblue" x1="343.2" y1="214.439" x2="348.4" y2="216.319" />
<line fill="none" stroke-width="3" boundary-string=""  stroke="lightblue" x1="348.4" y1="216.319" x2="353.6" y2="218.674" />
<line fill="none" stroke-width="3" boundary-string=""  stroke="lightblue" x1="353.6" y1="218.674" x2="358.8" y2="221.488" />
<line fill="none" stroke-width="3" boundary-string=""  stroke="lightblue" x1="358.8" y1="221.488" x2="364" y2="224.746" />
<line fill="none" stroke-width="3" boundary-string=""  stroke="lightblue" x1="364" y1="224.746" x2="369.2" y2="228.428" />
<line fill="none" stroke-width="3" boundary-string=""  stroke="lightblue" x1="369.2" y1="228.428" x2="374.4" y2="232.513" />
<line fill="none" stroke-width="3" boundary-string=""  stroke="lightblue" x1="374.4" y1="232.513" x2="379.6" y2="236.982" />
<line fill="none" stroke-width="3" boundary-string=""  stroke="lightblue" x1="379.6" y1="236.982" x2="384.8" y2="241.812" />
<line fill="none" stroke-width="3" boundary-string=""  stroke="lightblue" x1="384.8" y1="241.812" x2="390" y2="246.983" />
<line fill="none" stroke-width="3" boundary-string=""  stroke="lightblue" x1="390" y1="246.983" x2="395.2" y2="237.333" />
<line fill="none" stroke-width="3" boundary-string=""  stroke="lightblue" x1="395.2" y1="237.333" x2="400.4" y2="227.02" />
<line fill="none" stroke-width="3" boundary-string=""  stroke="lightblue" x1="400.4" y1="227.02" x2="405.6" y2="216.712" />
<line fill="none" stroke-width="3" boundary-string=""  stroke="lightblue" x1="405.6" y1="216.712" x2="410.8" y2="206.409" />
<line fill="none" stroke-width="3" boundary-string=""  stroke="lightblue" x1="410.8" y1="206.409" x2="416" y2="196.113" />
<line fill="none" stroke-width="3" boundary-string=""  stroke="lightblue" x1="416" y1="196.113" x2="421.2" y2="185.824" />
<line fill="none" stroke-width="3" boundary-string=""  stroke="lightblue" x1="421.2" y1="185.824" x2="426.4" y2="175.543" />
<line fill="none" stroke-width="3" boundary-string=""  stroke="lightblue" x1="426.4" y1="175.543" x2="431.6" y2="165.273" />
<line fill="none" stroke-width="3" boundary-string=""  stroke="lightblue" x1="431.6" y1="165.273" x2="436.8" y2="155.014" />
<line fill="none" stroke-width="3" boundary-string=""  stroke="lightblue" x1="436.8" y1="155.014" x2="442" y2="144.771" />
<line fill="none" stroke-width="3" boundary-string=""  stroke="lightblue" x1="442" y1="144.771" x2="447.2" y2="134.545" />
<line fill="none" stroke-width="3" boundary-string=""  stroke="lightblue" x1="447.2" y1="134.545" x2="452.4" y2="124.342" />
<line fill="none" stroke-width="3" boundary-string=""  stroke="lightblue" x1="452.4" y1="124.342" x2="457.6" y2="114.168" />
<line fill="none" stroke-width="3" boundary-string=""  stroke="lightblue" x1="457.6" y1="114.168" x2="462.8" y2="104.031" />
<line fill="none" stroke-width="3" boundary-string=""  stroke="lightblue" x1="462.8" y1="104.031" x2="468" y2="93.9422" />
<line fill="none" stroke-width="3" boundary-string=""  stroke="lightblue" x1="468" y1="93.9422" x2="473.2" y2="83.9204" />
<line fill="none" stroke-width="3" boundary-string=""  stroke="lightblue" x1="473.2" y1="83.9204" x2="478.4" y2="73.9924" />
<line fill="none" stroke-width="3" boundary-string=""  stroke="lightblue" x1="478.4" y1="73.9924" x2="483.6" y2="64.2015" />
<line fill="none" stroke-width="3" boundary-string=""  stroke="lightblue" x1="483.6" y1="64.2015" x2="488.8" y2="54.6217" />
<line fill="none" stroke-width="3" boundary-string=""  stroke="lightblue" x1="488.8" y1="54.6217" x2="494" y2="45.3867" />
<line fill="none" stroke-width="3" boundary-string=""  stroke="lightblue" x1="494" y1="45.3867" x2="499.2" y2="36.7574" />
<line fill="none" stroke-width="3" boundary-string=""  stroke="lightblue" x1="499.2" y1="36.7574" x2="504.4" y2="29.2744" />
<line fill="none" stroke-width="3" boundary-string=""  stroke="lightblue" x1="504.4" y1="29.2744" x2="509.6" y2="20.7234" />
<line fill="none" stroke-width="3" boundary-string=""  stroke="lightblue" x1="509.6" y1="20.7234" x2="514.8" y2="10.3617" />
<line fill="none" stroke-width="3" boundary-string=""  stroke="lightblue" x1="514.8" y1="10.3617" x2="520" y2="0" />

<!--Draw the X and Y axes -->
<polyline fill="none" stroke="black" stroke-width="6"  points=" 600,0 0,0 0,520" />
<!-- -->


<!--Draw labels and tics for X axis -->

<line fill="none" stroke="black"  stroke-width="6"  x1="0.5" y1="0" x2="0.5" y2="-20" />
<text transform="scale(1,-1)" font-family="sans-serif" font-size="30" x="-24.5" y="45" >0 </text>
<line fill="none" stroke="black"  stroke-width="6"  x1="104.5" y1="0" x2="104.5" y2="-20" />
<text transform="scale(1,-1)" font-family="sans-serif" font-size="30" x="79.5" y="45" >20 </text>
<line fill="none" stroke="black"  stroke-width="6"  x1="208.5" y1="0" x2="208.5" y2="-20" />
<text transform="scale(1,-1)" font-family="sans-serif" font-size="30" x="183.5" y="45" >40 </text>
<line fill="none" stroke="black"  stroke-width="6"  x1="312.5" y1="0" x2="312.5" y2="-20" />
<text transform="scale(1,-1)" font-family="sans-serif" font-size="30" x="287.5" y="45" >60 </text>
<line fill="none" stroke="black"  stroke-width="6"  x1="416.5" y1="0" x2="416.5" y2="-20" />
<text transform="scale(1,-1)" font-family="sans-serif" font-size="30" x="391.5" y="45" >80 </text>
<line fill="none" stroke="black"  stroke-width="6"  x1="520.5" y1="0" x2="520.5" y2="-20" />
<text transform="scale(1,-1)" font-family="sans-serif" font-size="30" x="495.5" y="45" >100 </text>


<!--Draw labels and tics for Y axis -->

<line fill="none" stroke="black" stroke-width="6" x1="0.0" y1="0" x2="-20" y2="0" />
<text transform="scale(1,-1)" text-anchor="end" font-family="sans-serif" font-size="30" x="-25" y="10" >0 </text>
<line fill="none" stroke="black" stroke-width="6" x1="0.0" y1="57.7778" x2="-20" y2="57.7778" />
<text transform="scale(1,-1)" text-anchor="end" font-family="sans-serif" font-size="30" x="-25" y="-47.7778" >200 </text>
<line fill="none" stroke="black" stroke-width="6" x1="0.0" y1="115.556" x2="-20" y2="115.556" />
<text transform="scale(1,-1)" text-anchor="end" font-family="sans-serif" font-size="30" x="-25" y="-105.556" >400 </text>
<line fill="none" stroke="black" stroke-width="6" x1="0.0" y1="173.333" x2="-20" y2="173.333" />
<text transform="scale(1,-1)" text-anchor="end" font-family="sans-serif" font-size="30" x="-25" y="-163.333" >600 </text>
<line fill="none" stroke="black" stroke-width="6" x1="0.0" y1="231.111" x2="-20" y2="231.111" />
<text transform="scale(1,-1)" text-anchor="end" font-family="sans-serif" font-size="30" x="-25" y="-221.111" >800 </text>
<line fill="none" stroke="black" stroke-width="6" x1="0.0" y1="288.889" x2="-20" y2="288.889" />
<text transform="scale(1,-1)" text-anchor="end" font-family="sans-serif" font-size="30" x="-25" y="-278.889" >1000 </text>
<line fill="none" stroke="black" stroke-width="6" x1="0.0" y1="346.667" x2="-20" y2="346.667" />
<text transform="scale(1,-1)" text-anchor="end" font-family="sans-serif" font-size="30" x="-25" y="-336.667" >1200 </text>
<line fill="none" stroke="black" stroke-width="6" x1="0.0" y1="404.444" x2="-20" y2="404.444" />
<text transform="scale(1,-1)" text-anchor="end" font-family="sans-serif" font-size="30" x="-25" y="-394.444" >1400 </text>
<line fill="none" stroke="black" stroke-width="6" x1="0.0" y1="462.222" x2="-20" y2="462.222" />
<text transform="scale(1,-1)" text-anchor="end" font-family="sans-serif" font-size="30" x="-25" y="-452.222" >1600 </text>
<line fill="none" stroke="black" stroke-width="6" x1="0.0" y1="520" x2="-20" y2="520" />
<text transform="scale(1,-1)" text-anchor="end" font-family="sans-serif" font-size="30" x="-25" y="-510" >1800 </text>


<!-- Reduced vector followed by D7dist from the final reduced cell
-204.76161  -5.03227 -514.71716 -452.09419 -519.92348 -1481.77051    (1.36424e-12,  0)   
-185.66008 -19.99720 -519.28377 -432.56265 -548.74064 -1501.55474    (47.0425,  78.5269)   
-166.55855 -34.96214 -523.85037 -413.03111 -577.55780 -1521.33898    (94.085,  157.054)   
-147.45702 -49.92707 -528.41698 -393.49957 -606.37496 -1541.12321    (141.128,  235.581)   
-128.35548 -64.89201 -532.98359 -373.96802 -635.19212 -1560.90744    (188.17,  314.108)   
-109.25395 -79.85694 -537.55020 -354.43648 -664.00928 -1580.69167    (235.213,  392.635)   
-90.15242 -94.82188 -542.11681 -334.90494 -692.82644 -1600.47591    (282.255,  471.162)   
-71.05088 -109.78681 -546.68341 -315.37340 -721.64360 -1620.26014    (329.298,  549.688)   
-51.94935 -124.75175 -551.25002 -295.84185 -750.46076 -1640.04437    (376.34,  628.215)   
-32.84782 -139.71668 -555.81663 -276.31031 -779.27792 -1659.82861    (421.27,  706.742)   
-13.74629 -154.68161 -560.38324 -256.77877 -808.09508 -1679.61284    (457.214,  775.625)   
 -5.35525 -164.29130 -831.55699 -242.60247 -559.59460 -1694.04182    (485.333,  821.462)   
-24.45678 -160.15470 -841.27262 -242.17246 -545.05968 -1694.72452    (490.044,  835.154)   
-43.55831 -156.01811 -850.98824 -241.74245 -530.52475 -1695.40722    (496.1,  850.499)   
-62.65984 -151.88151 -860.70387 -241.31244 -515.98983 -1696.08992    (501.838,  865.539)   
-81.76138 -147.74491 -870.41950 -240.88243 -501.45490 -1696.77262    (503.187,  875.589)   
-100.86291 -143.60831 -880.13512 -240.45243 -486.91998 -1697.45532    (505.895,  887.323)   
-119.96444 -139.47171 -889.85075 -240.02242 -472.38505 -1698.13802    (509.94,  900.674)   
-139.06598 -135.33511 -899.56638 -239.59241 -457.85013 -1698.82072    (515.291,  915.571)   
-158.16751 -131.19852 -909.28200 -239.16240 -443.31520 -1699.50342    (521.907,  931.94)   
-177.26904 -127.06192 -918.99763 -238.73239 -428.78028 -1700.18612    (529.741,  949.705)   
-196.37057 -122.92532 -928.71326 -238.30238 -414.24535 -1700.86882    (538.74,  968.79)   
-215.47211 -118.78872 -938.42888 -237.87237 -399.71043 -1701.55152    (548.847,  989.117)   
-234.57364 -114.65212 -948.14451 -237.44236 -385.17550 -1702.23422    (560.001,  1010.61)   
-253.67517 -110.51553 -957.86013 -237.01235 -370.64058 -1702.91692    (572.142,  1033.2)   
-272.77670 -106.37893 -967.57576 -236.58234 -356.10565 -1703.59962    (585.208,  1056.82)   
-291.87824 -102.24233 -977.29139 -236.15233 -341.57073 -1704.28232    (599.138,  1081.39)   
-310.97977 -98.10573 -987.00701 -235.72232 -327.03581 -1704.96502    (613.874,  1106.86)   
-330.08130 -93.96913 -996.72264 -235.29231 -312.50088 -1705.64772    (629.359,  1133.16)   
-349.18284 -89.83253 -1006.43827 -234.86230 -297.96596 -1706.33042    (645.539,  1160.24)   
-368.28437 -85.69594 -1016.15389 -234.43229 -283.43103 -1707.01312    (662.363,  1188.04)   
-387.38590 -81.55934 -1025.86952 -234.00228 -268.89611 -1707.69582    (679.784,  1216.51)   
-406.48743 -77.42274 -1035.58515 -233.57227 -254.36118 -1708.37852    (697.756,  1245.62)   
-239.82626 -233.14226 -1045.30077 -73.28614 -425.58897 -1709.06122    (716.239,  1275.3)   
-225.29133 -232.71225 -1055.01640 -69.14954 -444.69050 -1709.74392    (735.193,  1305.54)   
-210.75641 -232.28224 -1064.73203 -65.01294 -463.79203 -1710.42662    (747.971,  1328.82)   
-196.22148 -231.85223 -1074.44765 -60.87635 -482.89356 -1711.10932    (756.199,  1346.99)   
-181.68656 -231.42222 -1084.16328 -56.73975 -501.99510 -1711.79202    (765.239,  1366.09)   
-167.15163 -230.99221 -1093.87891 -52.60315 -521.09663 -1712.47472    (775.061,  1386.07)   
-152.61671 -230.56220 -1103.59453 -48.46655 -540.19816 -1713.15742    (785.637,  1406.9)   
-138.08178 -230.13219 -1113.31016 -44.32995 -559.29970 -1713.84012    (796.937,  1428.54)   
-123.54686 -229.70218 -1123.02579 -40.19336 -578.40123 -1714.52282    (808.93,  1450.96)   
-109.01194 -229.27217 -1132.74141 -36.05676 -597.50276 -1715.20552    (821.586,  1474.12)   
-94.47701 -228.84216 -1142.45704 -31.92016 -616.60429 -1715.88822    (834.874,  1497.98)   
-79.94209 -228.41215 -1152.17267 -27.78356 -635.70583 -1716.57092    (848.766,  1522.52)   
-65.40716 -227.98214 -1161.88829 -23.64696 -654.80736 -1717.25362    (863.232,  1547.69)   
-50.87224 -227.55213 -1171.60392 -19.51036 -673.90889 -1717.93632    (878.244,  1573.48)   
-36.33731 -227.12212 -1181.31954 -15.37377 -693.01042 -1718.61902    (893.773,  1599.84)   
-21.80239 -226.69211 -1191.03517 -11.23717 -712.11196 -1719.30172    (909.794,  1626.76)   
 -7.26746 -226.26210 -1200.75080  -7.10057 -731.21349 -1719.98442    (926.281,  1654.2)   
 -7.26746 -743.04756 -218.56463 -10.23143 -1713.39966 -1203.19896    (923.307,  1377.76)   
-21.80239 -747.61417 -203.59970 -20.62976 -1699.54743 -1198.37966    (906.11,  1371.13)   
-36.33731 -752.18078 -188.63476 -31.02809 -1685.69521 -1193.56037    (889.457,  1371.1)   
-50.87224 -756.74738 -173.66983 -41.42641 -1671.84298 -1188.74107    (873.379,  1377.54)   
-65.40716 -761.31399 -158.70489 -51.82474 -1657.99076 -1183.92177    (857.909,  1390.11)   
-79.94209 -765.88060 -143.73996 -62.22307 -1644.13853 -1179.10247    (843.079,  1408.31)   
-94.47701 -770.44721 -128.77502 -72.62139 -1630.28631 -1174.28317    (828.925,  1431.58)   
-109.01194 -775.01382 -113.81009 -83.01972 -1616.43408 -1169.46388    (815.48,  1459.36)   
-123.54686 -779.58042 -98.84515 -93.41804 -1602.58186 -1164.64458    (802.782,  1491.12)   
-138.08178 -784.14703 -83.88022 -103.81637 -1588.72963 -1159.82528    (790.865,  1475.2)   
-152.61671 -788.71364 -68.91529 -114.21470 -1574.87741 -1155.00598    (779.766,  1459.5)   
-167.15163 -793.28025 -53.95035 -124.61302 -1561.02518 -1150.18668    (769.521,  1444.73)   
-181.68656 -797.84686 -38.98542 -135.01135 -1547.17296 -1145.36738    (760.162,  1430.92)   
-196.22148 -802.41346 -24.02048 -145.40968 -1533.32074 -1140.54809    (751.725,  1418.1)   
-210.75641 -806.98007  -9.05555 -155.80800 -1519.46851 -1135.72879    (744.24,  1406.29)   
-219.38195  -5.90939 -160.29694 -805.63729 -1136.81888 -1499.70690    (742.291,  1396.46)   
-218.95194 -20.87432 -155.73033 -795.23897 -1146.96451 -1470.88974    (748.796,  1389.95)   
-218.52193 -35.83926 -151.16373 -784.84064 -1157.11015 -1442.07258    (756.947,  1383.05)   
-218.09192 -50.80419 -146.59712 -774.44231 -1167.25579 -1413.25542    (766.691,  1377.03)   
-217.66191 -65.76912 -142.03051 -764.04399 -1177.40142 -1384.43826    (777.967,  1373.4)   
-217.23190 -80.73406 -137.46390 -753.64566 -1187.54706 -1355.62110    (790.712,  1372.18)   
-216.80189 -95.69899 -132.89729 -743.24733 -1197.69269 -1326.80394    (804.854,  1373.39)   
-216.37188 -110.66393 -128.33069 -732.84901 -1207.83833 -1297.98678    (820.322,  1377)   
-215.94187 -125.62886 -123.76408 -722.45068 -1217.98397 -1269.16963    (837.042,  1383.01)   
-215.51186 -140.59380 -119.19747 -712.05236 -1228.12960 -1240.35247    (854.94,  1391.38)   
-215.08185 -155.55873 -114.63086 -701.65403 -1238.27524 -1211.53531    (821.536,  1337.09)   
-214.65184 -110.06425 -170.52367 -691.25570 -1182.71815 -1248.42088    (785.838,  1279.84)   
-214.22183 -105.49765 -185.48860 -680.85738 -1153.90099 -1258.56651    (750.157,  1222.61)   
-213.79182 -100.93104 -200.45353 -670.45905 -1125.08383 -1268.71215    (714.494,  1165.4)   
-213.36181 -96.36443 -215.41847 -660.06072 -1096.26667 -1278.85779    (678.852,  1108.22)   
-212.93180 -91.79782 -230.38340 -649.66240 -1067.44951 -1289.00342    (643.236,  1051.07)   
-212.50179 -87.23121 -245.34834 -639.26407 -1038.63235 -1299.14906    (607.649,  993.964)   
-212.07178 -82.66461 -260.31327 -628.86574 -1009.81519 -1309.29469    (572.098,  936.897)   
-211.64177 -78.09800 -275.27821 -618.46742 -980.99803 -1319.44033    (536.588,  879.883)   
-211.21176 -73.53139 -290.24314 -608.06909 -952.18087 -1329.58597    (501.13,  822.933)   
-210.78175 -68.96478 -305.20808 -597.67076 -923.36371 -1339.73160    (465.734,  766.061)   
-210.35174 -64.39817 -320.17301 -587.27244 -894.54655 -1349.87724    (430.416,  709.287)   
-209.92173 -59.83157 -335.13794 -576.87411 -865.72940 -1360.02288    (395.197,  652.635)   
-209.49172 -55.26496 -350.10288 -566.47579 -836.91224 -1370.16851    (360.106,  596.142)   
-209.06171 -50.69835 -365.06781 -556.07746 -808.09508 -1380.31415    (325.184,  539.858)   
-208.63170 -46.13174 -380.03275 -545.67913 -779.27792 -1390.45978    (290.494,  483.856)   
-208.20169 -41.56513 -394.99768 -535.28081 -750.46076 -1400.60542    (256.127,  428.251)   
-207.77168 -36.99853 -409.96262 -524.88248 -721.64360 -1410.75106    (222.236,  373.143)   
-207.34167 -32.43192 -424.92755 -514.48415 -692.82644 -1420.89669    (189.075,  318.653)   
-206.91166 -27.86531 -439.89249 -504.08583 -664.00928 -1431.04233    (157.108,  265.553)   
-206.48165 -23.29870 -454.85742 -493.68750 -635.19212 -1441.18797    (127.237,  213.154)   
-206.05164 -18.73209 -469.82236 -483.28917 -606.37496 -1451.33360    (101.334,  165.535)   
-205.62163 -14.16549 -484.78729 -472.89085 -577.55780 -1461.47924    (71.735,  114.938)   
-205.19162  -9.59888 -499.75222 -462.49252 -548.74064 -1471.62488    (35.8675,  57.469)   
-204.76161  -5.03227 -514.71716 -452.09419 -519.92348 -1481.77051    (0,  8.63167e-05)   
-->
</g>
</g>
<!-- Run Constants
CIRCLEPLOT bool false
DISTANCEPLOT bool true
PRINTDISTANCEDATA bool true
GLITCHESONLY bool false
PLOT 2doubles 3 4
PERTURBBY double 0.05
GLITCHLEVEL double 3
BOUNDARYWINDOW double 0.065
FRAMESPERPATH int 200
STEPSPERFRAME int 100
TRIALS int 1
ALLBLACK bool false
FILEPREFIX string Fol
GRAPHSIZE int 0
BORDER int 0
PLOTSIZE int 0
CIRCLEPLOTSIZE int 2000
CIRCLERADIUS int 300
CIRCLESTROKEWIDTH int 30
G6LINEWIDTH int 3
DELONELINEWIDTH int 10
AXISWIDTH int 6
TICLENGTH int 20
VECTOR g6 
PERTURB g6Perturb 
MOVIEMODE MovieMode STAR
FOLLOWERMODE FollowerMode Follow
FIXRANDOMSEED fixRandomSeed true
RANDOMSEED int 18
TIMESTAMP bool true
END end 




-->
</svg>
