<?xml version="1.0" standalone="no"?>
<!-- the width and height set the total pixel output of the image in the browser -->
<!-- whatever is within the viewbox will be remapped to show in this size -->
<svg width="1000" height="1000" viewBox="1 0 1000 1000"  version="1.1" xmlns="http://www.w3.org/2000/svg" xmlns:xlink="http://www.w3.org/1999/xlink">
 <desc>ID (and file name) = Fol_2018-02-08.13_35_23.0_4.svg </desc> 
 <text x="280"  y="30"  font-family="sans-serif" font-size="20" > Trial vector = 0  </text> 
 <text x="700" y="30" font-family="sans-serif" font-size="20">Wall time passed: 91452 msec.</text>
<text x="450" y="30" font-family="sans-serif" font-size="20" fill="black" > Plotting g5 vs. g4</text>
<text x="300" y="60"  font-family="sans-serif" font-size="20" > Beginning vector   66.78566  69.14626   3.41161 -182.97339 -177.56566 -6540.60828 </text>
<text x="300" y="85"  font-family="sans-serif" font-size="20" > Beginning cell   10.50788  10.36187  80.02922   1.49017   1.48848   1.53946 </text>
<text x="300" y="110"  font-family="sans-serif" font-size="20" > Ending vector   44.68086  43.99435   3.41161 -154.77435 -158.50799 -6446.09486 </text>
<text x="300" y="135"  font-family="sans-serif" font-size="20" > Ending cell   10.36187  10.50788  79.73343   1.51744   1.51752   1.53946 </text>




 <!--DISTANCE PLOT BEGINS-->


<!-- the following will scale and place the distance plot -->
<g  transform="translate(0,50) ">
<g transform="translate(150,700) scale(1 -1)">
   <polyline fill="none" stroke="black" stroke-width="10" points=" 10.4 ,0  20.8 ,20.3057  31.2 ,40.6115  41.6 ,60.9172  52 ,81.2229  62.4 ,101.529  72.8 ,121.834  83.2 ,142.14  93.6 ,162.446  104 ,182.752  114.4 ,203.057  124.8 ,223.363  135.2 ,243.669  145.6 ,263.975  156 ,284.28  166.4 ,304.586  176.8 ,324.892  187.2 ,345.197  197.6 ,365.503  208 ,385.809  218.4 ,406.115  228.8 ,426.42  239.2 ,446.726  249.6 ,467.032  260 ,487.338  270.4 ,487.338  280.8 ,467.032  291.2 ,446.726  301.6 ,426.42  312 ,406.115  322.4 ,385.809  332.8 ,365.503  343.2 ,345.197  353.6 ,324.892  364 ,304.586  374.4 ,284.28  384.8 ,263.975  395.2 ,243.669  405.6 ,223.363  416 ,203.057  426.4 ,182.752  436.8 ,162.446  447.2 ,142.14  457.6 ,121.834  468 ,101.529  478.4 ,81.2229  488.8 ,60.9172  499.2 ,40.6115  509.6 ,20.3057  520 ,0.00362723  " />

<!--Draw the X and Y axes -->
<polyline fill="none" stroke="black" stroke-width="6"  points=" 600,0 0,0 0,520" />
<!-- -->

<line fill="none" stroke-width="3" boundary-string=""  stroke="lightblue" x1="0" y1="2.03064e-11" x2="10.4" y2="2.03064e-11" />
<line fill="none" stroke-width="3" boundary-string=""  stroke="lightblue" x1="10.4" y1="2.03064e-11" x2="20.8" y2="14.3583" />
<line fill="none" stroke-width="3" boundary-string=""  stroke="lightblue" x1="20.8" y1="14.3583" x2="31.2" y2="28.7166" />
<line fill="none" stroke-width="3" boundary-string=""  stroke="lightblue" x1="31.2" y1="28.7166" x2="41.6" y2="43.075" />
<line fill="none" stroke-width="3" boundary-string=""  stroke="lightblue" x1="41.6" y1="43.075" x2="52" y2="57.4333" />
<line fill="none" stroke-width="3" boundary-string=""  stroke="lightblue" x1="52" y1="57.4333" x2="62.4" y2="71.7916" />
<line fill="none" stroke-width="3" boundary-string=""  stroke="lightblue" x1="62.4" y1="71.7916" x2="72.8" y2="86.1499" />
<line fill="none" stroke-width="3" boundary-string=""  stroke="lightblue" x1="72.8" y1="86.1499" x2="83.2" y2="100.508" />
<line fill="none" stroke-width="3" boundary-string=""  stroke="lightblue" x1="83.2" y1="100.508" x2="93.6" y2="114.867" />
<line fill="none" stroke-width="3" boundary-string=""  stroke="lightblue" x1="93.6" y1="114.867" x2="104" y2="129.225" />
<line fill="none" stroke-width="3" boundary-string=""  stroke="lightblue" x1="104" y1="129.225" x2="114.4" y2="143.583" />
<line fill="none" stroke-width="3" boundary-string=""  stroke="lightblue" x1="114.4" y1="143.583" x2="124.8" y2="157.942" />
<line fill="none" stroke-width="3" boundary-string=""  stroke="lightblue" x1="124.8" y1="157.942" x2="135.2" y2="172.3" />
<line fill="none" stroke-width="3" boundary-string=""  stroke="lightblue" x1="135.2" y1="172.3" x2="145.6" y2="186.658" />
<line fill="none" stroke-width="3" boundary-string=""  stroke="lightblue" x1="145.6" y1="186.658" x2="156" y2="201.017" />
<line fill="none" stroke-width="3" boundary-string=""  stroke="lightblue" x1="156" y1="201.017" x2="166.4" y2="215.375" />
<line fill="none" stroke-width="3" boundary-string=""  stroke="lightblue" x1="166.4" y1="215.375" x2="176.8" y2="229.733" />
<line fill="none" stroke-width="3" boundary-string=""  stroke="lightblue" x1="176.8" y1="229.733" x2="187.2" y2="244.091" />
<line fill="none" stroke-width="3" boundary-string=""  stroke="lightblue" x1="187.2" y1="244.091" x2="197.6" y2="258.45" />
<line fill="none" stroke-width="3" boundary-string=""  stroke="lightblue" x1="197.6" y1="258.45" x2="208" y2="272.808" />
<line fill="none" stroke-width="3" boundary-string=""  stroke="lightblue" x1="208" y1="272.808" x2="218.4" y2="287.166" />
<line fill="none" stroke-width="3" boundary-string=""  stroke="lightblue" x1="218.4" y1="287.166" x2="228.8" y2="301.525" />
<line fill="none" stroke-width="3" boundary-string=""  stroke="lightblue" x1="228.8" y1="301.525" x2="239.2" y2="315.883" />
<line fill="none" stroke-width="3" boundary-string=""  stroke="lightblue" x1="239.2" y1="315.883" x2="249.6" y2="330.241" />
<line fill="none" stroke-width="3" boundary-string=""  stroke="lightblue" x1="249.6" y1="330.241" x2="260" y2="344.6" />
<line fill="none" stroke-width="3" boundary-string=""  stroke="lightblue" x1="260" y1="344.6" x2="270.4" y2="344.6" />
<line fill="none" stroke-width="3" boundary-string=""  stroke="lightblue" x1="270.4" y1="344.6" x2="280.8" y2="330.241" />
<line fill="none" stroke-width="3" boundary-string=""  stroke="lightblue" x1="280.8" y1="330.241" x2="291.2" y2="315.883" />
<line fill="none" stroke-width="3" boundary-string=""  stroke="lightblue" x1="291.2" y1="315.883" x2="301.6" y2="301.525" />
<line fill="none" stroke-width="3" boundary-string=""  stroke="lightblue" x1="301.6" y1="301.525" x2="312" y2="287.166" />
<line fill="none" stroke-width="3" boundary-string=""  stroke="lightblue" x1="312" y1="287.166" x2="322.4" y2="272.808" />
<line fill="none" stroke-width="3" boundary-string=""  stroke="lightblue" x1="322.4" y1="272.808" x2="332.8" y2="258.45" />
<line fill="none" stroke-width="3" boundary-string=""  stroke="lightblue" x1="332.8" y1="258.45" x2="343.2" y2="244.091" />
<line fill="none" stroke-width="3" boundary-string=""  stroke="lightblue" x1="343.2" y1="244.091" x2="353.6" y2="229.733" />
<line fill="none" stroke-width="3" boundary-string=""  stroke="lightblue" x1="353.6" y1="229.733" x2="364" y2="215.375" />
<line fill="none" stroke-width="3" boundary-string=""  stroke="lightblue" x1="364" y1="215.375" x2="374.4" y2="201.017" />
<line fill="none" stroke-width="3" boundary-string=""  stroke="lightblue" x1="374.4" y1="201.017" x2="384.8" y2="186.658" />
<line fill="none" stroke-width="3" boundary-string=""  stroke="lightblue" x1="384.8" y1="186.658" x2="395.2" y2="172.3" />
<line fill="none" stroke-width="3" boundary-string=""  stroke="lightblue" x1="395.2" y1="172.3" x2="405.6" y2="157.942" />
<line fill="none" stroke-width="3" boundary-string=""  stroke="lightblue" x1="405.6" y1="157.942" x2="416" y2="143.583" />
<line fill="none" stroke-width="3" boundary-string=""  stroke="lightblue" x1="416" y1="143.583" x2="426.4" y2="129.225" />
<line fill="none" stroke-width="3" boundary-string=""  stroke="lightblue" x1="426.4" y1="129.225" x2="436.8" y2="114.867" />
<line fill="none" stroke-width="3" boundary-string=""  stroke="lightblue" x1="436.8" y1="114.867" x2="447.2" y2="100.508" />
<line fill="none" stroke-width="3" boundary-string=""  stroke="lightblue" x1="447.2" y1="100.508" x2="457.6" y2="86.1499" />
<line fill="none" stroke-width="3" boundary-string=""  stroke="lightblue" x1="457.6" y1="86.1499" x2="468" y2="71.7916" />
<line fill="none" stroke-width="3" boundary-string=""  stroke="lightblue" x1="468" y1="71.7916" x2="478.4" y2="57.4333" />
<line fill="none" stroke-width="3" boundary-string=""  stroke="lightblue" x1="478.4" y1="57.4333" x2="488.8" y2="43.075" />
<line fill="none" stroke-width="3" boundary-string=""  stroke="lightblue" x1="488.8" y1="43.075" x2="499.2" y2="28.7166" />
<line fill="none" stroke-width="3" boundary-string=""  stroke="lightblue" x1="499.2" y1="28.7166" x2="509.6" y2="14.3583" />
<line fill="none" stroke-width="3" boundary-string=""  stroke="lightblue" x1="509.6" y1="14.3583" x2="520" y2="2.21317e-11" />

<!--Draw the X and Y axes -->
<polyline fill="none" stroke="black" stroke-width="6"  points=" 600,0 0,0 0,520" />
<!-- -->


<!--Draw labels and tics for X axis -->

<line fill="none" stroke="black"  stroke-width="6"  x1="0.5" y1="0" x2="0.5" y2="-20" />
<text transform="scale(1,-1)" font-family="sans-serif" font-size="30" x="-24.5" y="45" >0 </text>
<line fill="none" stroke="black"  stroke-width="6"  x1="104.5" y1="0" x2="104.5" y2="-20" />
<text transform="scale(1,-1)" font-family="sans-serif" font-size="30" x="79.5" y="45" >10 </text>
<line fill="none" stroke="black"  stroke-width="6"  x1="208.5" y1="0" x2="208.5" y2="-20" />
<text transform="scale(1,-1)" font-family="sans-serif" font-size="30" x="183.5" y="45" >20 </text>
<line fill="none" stroke="black"  stroke-width="6"  x1="312.5" y1="0" x2="312.5" y2="-20" />
<text transform="scale(1,-1)" font-family="sans-serif" font-size="30" x="287.5" y="45" >30 </text>
<line fill="none" stroke="black"  stroke-width="6"  x1="416.5" y1="0" x2="416.5" y2="-20" />
<text transform="scale(1,-1)" font-family="sans-serif" font-size="30" x="391.5" y="45" >40 </text>
<line fill="none" stroke="black"  stroke-width="6"  x1="520.5" y1="0" x2="520.5" y2="-20" />
<text transform="scale(1,-1)" font-family="sans-serif" font-size="30" x="495.5" y="45" >50 </text>


<!--Draw labels and tics for Y axis -->

<line fill="none" stroke="black" stroke-width="6" x1="0.0" y1="0" x2="-20" y2="0" />
<text transform="scale(1,-1)" text-anchor="end" font-family="sans-serif" font-size="30" x="-25" y="10" >0 </text>
<line fill="none" stroke="black" stroke-width="6" x1="0.0" y1="74.2857" x2="-20" y2="74.2857" />
<text transform="scale(1,-1)" text-anchor="end" font-family="sans-serif" font-size="30" x="-25" y="-64.2857" >5 </text>
<line fill="none" stroke="black" stroke-width="6" x1="0.0" y1="148.571" x2="-20" y2="148.571" />
<text transform="scale(1,-1)" text-anchor="end" font-family="sans-serif" font-size="30" x="-25" y="-138.571" >10 </text>
<line fill="none" stroke="black" stroke-width="6" x1="0.0" y1="222.857" x2="-20" y2="222.857" />
<text transform="scale(1,-1)" text-anchor="end" font-family="sans-serif" font-size="30" x="-25" y="-212.857" >15 </text>
<line fill="none" stroke="black" stroke-width="6" x1="0.0" y1="297.143" x2="-20" y2="297.143" />
<text transform="scale(1,-1)" text-anchor="end" font-family="sans-serif" font-size="30" x="-25" y="-287.143" >20 </text>
<line fill="none" stroke="black" stroke-width="6" x1="0.0" y1="371.429" x2="-20" y2="371.429" />
<text transform="scale(1,-1)" text-anchor="end" font-family="sans-serif" font-size="30" x="-25" y="-361.429" >25 </text>
<line fill="none" stroke="black" stroke-width="6" x1="0.0" y1="445.714" x2="-20" y2="445.714" />
<text transform="scale(1,-1)" text-anchor="end" font-family="sans-serif" font-size="30" x="-25" y="-435.714" >30 </text>
<line fill="none" stroke="black" stroke-width="6" x1="0.0" y1="520" x2="-20" y2="520" />
<text transform="scale(1,-1)" text-anchor="end" font-family="sans-serif" font-size="30" x="-25" y="-510" >35 </text>


<!-- Reduced vector followed by D7dist from the final reduced cell
-41.26926 -63.37405  -3.41161 -40.58274 -65.73466 -6272.15605    (1.36677e-12,  0)   
-41.72037 -62.92293  -3.41161 -41.09605 -65.22135 -6272.15605    (0.966426,  1.36673)   
-42.17149 -62.47182  -3.41161 -41.60935 -64.70805 -6272.15605    (1.93285,  2.73346)   
-42.62261 -62.02070  -3.41161 -42.12265 -64.19475 -6272.15605    (2.89928,  4.1002)   
-43.07373 -61.56958  -3.41161 -42.63596 -63.68144 -6272.15605    (3.8657,  5.46693)   
-43.52485 -61.11846  -3.41161 -43.14926 -63.16814 -6272.15605    (4.83213,  6.83366)   
-43.97597 -60.66734  -3.41161 -43.66257 -62.65483 -6272.15605    (5.79855,  8.20039)   
-44.42708 -60.21622  -3.41161 -44.17587 -62.14153 -6272.15605    (6.76498,  9.56712)   
-44.87820 -59.76511  -3.41161 -44.68918 -61.62822 -6272.15605    (7.7314,  10.9339)   
-45.32932 -59.31399  -3.41161 -45.20248 -61.11492 -6272.15605    (8.69783,  12.3006)   
-45.78044 -58.86287  -3.41161 -45.71579 -60.60161 -6272.15605    (9.66426,  13.6673)   
-46.23156 -58.41175  -3.41161 -46.22909 -60.08831 -6272.15605    (10.6307,  15.0341)   
-46.68267 -57.96063  -3.41161 -46.74239 -59.57501 -6272.15605    (11.5971,  16.4008)   
-47.13379 -57.50951  -3.41161 -47.25570 -59.06170 -6272.15605    (12.5635,  17.7675)   
-47.58491 -57.05840  -3.41161 -47.76900 -58.54840 -6272.15605    (13.53,  19.1342)   
-48.03603 -56.60728  -3.41161 -48.28231 -58.03509 -6272.15605    (14.4964,  20.501)   
-48.48715 -56.15616  -3.41161 -48.79561 -57.52179 -6272.15605    (15.4628,  21.8677)   
-48.93827 -55.70504  -3.41161 -49.30892 -57.00848 -6272.15605    (16.4292,  23.2344)   
-49.38938 -55.25392  -3.41161 -49.82222 -56.49518 -6272.15605    (17.3957,  24.6012)   
-49.84050 -54.80280  -3.41161 -50.33553 -55.98187 -6272.15605    (18.3621,  25.9679)   
-50.29162 -54.35169  -3.41161 -50.84883 -55.46857 -6272.15605    (19.3285,  27.3346)   
-50.74274 -53.90057  -3.41161 -51.36213 -54.95527 -6272.15605    (20.2949,  28.7014)   
-51.19386 -53.44945  -3.41161 -51.87544 -54.44196 -6272.15605    (21.2614,  30.0681)   
-51.64498 -52.99833  -3.41161 -52.38874 -53.92866 -6272.15605    (22.2278,  31.4348)   
-52.09609 -52.54721  -3.41161 -52.90205 -53.41535 -6272.15605    (23.1942,  32.8016)   
-52.09609 -52.54721  -3.41161 -52.90205 -53.41535 -6272.15605    (23.1942,  32.8016)   
-51.64498 -52.99833  -3.41161 -52.38874 -53.92866 -6272.15605    (22.2278,  31.4348)   
-51.19386 -53.44945  -3.41161 -51.87544 -54.44196 -6272.15605    (21.2614,  30.0681)   
-50.74274 -53.90057  -3.41161 -51.36213 -54.95527 -6272.15605    (20.2949,  28.7014)   
-50.29162 -54.35169  -3.41161 -50.84883 -55.46857 -6272.15605    (19.3285,  27.3346)   
-49.84050 -54.80280  -3.41161 -50.33553 -55.98187 -6272.15605    (18.3621,  25.9679)   
-49.38938 -55.25392  -3.41161 -49.82222 -56.49518 -6272.15605    (17.3957,  24.6012)   
-48.93827 -55.70504  -3.41161 -49.30892 -57.00848 -6272.15605    (16.4292,  23.2344)   
-48.48715 -56.15616  -3.41161 -48.79561 -57.52179 -6272.15605    (15.4628,  21.8677)   
-48.03603 -56.60728  -3.41161 -48.28231 -58.03509 -6272.15605    (14.4964,  20.501)   
-47.58491 -57.05840  -3.41161 -47.76900 -58.54840 -6272.15605    (13.53,  19.1342)   
-47.13379 -57.50951  -3.41161 -47.25570 -59.06170 -6272.15605    (12.5635,  17.7675)   
-46.68267 -57.96063  -3.41161 -46.74239 -59.57501 -6272.15605    (11.5971,  16.4008)   
-46.23156 -58.41175  -3.41161 -46.22909 -60.08831 -6272.15605    (10.6307,  15.0341)   
-45.78044 -58.86287  -3.41161 -45.71579 -60.60161 -6272.15605    (9.66426,  13.6673)   
-45.32932 -59.31399  -3.41161 -45.20248 -61.11492 -6272.15605    (8.69783,  12.3006)   
-44.87820 -59.76511  -3.41161 -44.68918 -61.62822 -6272.15605    (7.7314,  10.9339)   
-44.42708 -60.21622  -3.41161 -44.17587 -62.14153 -6272.15605    (6.76498,  9.56712)   
-43.97597 -60.66734  -3.41161 -43.66257 -62.65483 -6272.15605    (5.79855,  8.20039)   
-43.52485 -61.11846  -3.41161 -43.14926 -63.16814 -6272.15605    (4.83213,  6.83366)   
-43.07373 -61.56958  -3.41161 -42.63596 -63.68144 -6272.15605    (3.8657,  5.46693)   
-42.62261 -62.02070  -3.41161 -42.12265 -64.19475 -6272.15605    (2.89928,  4.1002)   
-42.17149 -62.47182  -3.41161 -41.60935 -64.70805 -6272.15605    (1.93285,  2.73346)   
-41.72037 -62.92293  -3.41161 -41.09605 -65.22135 -6272.15605    (0.966426,  1.36673)   
-41.26926 -63.37405  -3.41161 -40.58274 -65.73466 -6272.15605    (1.48963e-12,  0.000244141)   
-->
</g>
</g>
<!-- Run Constants
CIRCLEPLOT bool false
DISTANCEPLOT bool true
PRINTDISTANCEDATA bool true
GLITCHESONLY bool false
PLOT 2doubles 3 4
PERTURBBY double 0.05
GLITCHLEVEL double 3
BOUNDARYWINDOW double 0.065
FRAMESPERPATH int 200
STEPSPERFRAME int 50
TRIALS int 5
ALLBLACK bool false
FILEPREFIX string Fol
GRAPHSIZE int 0
BORDER int 0
PLOTSIZE int 0
CIRCLEPLOTSIZE int 2000
CIRCLERADIUS int 300
CIRCLESTROKEWIDTH int 30
G6LINEWIDTH int 3
DELONELINEWIDTH int 10
AXISWIDTH int 6
TICLENGTH int 20
VECTOR g6 
PERTURB g6Perturb 
MOVIEMODE MovieMode STAR
FOLLOWERMODE FollowerMode Follow
FIXRANDOMSEED fixRandomSeed false
RANDOMSEED int 19191
TIMESTAMP bool true
END end 




-->
</svg>
