<?xml version="1.0" standalone="no"?>
<!-- the width and height set the total pixel output of the image in the browser -->
<!-- whatever is within the viewbox will be remapped to show in this size -->
<svg width="1000" height="1000" viewBox="1 0 1000 1000"  version="1.1" xmlns="http://www.w3.org/2000/svg" xmlns:xlink="http://www.w3.org/1999/xlink">
 <desc>ID (and file name) = Fol_2018-02-06.14_36_44.69_0.svg </desc> 
 <text x="280"  y="30"  font-family="sans-serif" font-size="20" > Trial vector = 0  </text> 
 <text x="700" y="30" font-family="sans-serif" font-size="20">Wall time passed: 25374 msec.</text>
<text x="450" y="30" font-family="sans-serif" font-size="20" fill="black" > Plotting g5 vs. g4</text>
<text x="300" y="60"  font-family="sans-serif" font-size="20" > Beginning vector  -62.50506 -135.39243  51.36163 -130.97167 -100.59200 -44.52742 </text>
<text x="300" y="85"  font-family="sans-serif" font-size="20" > Beginning cell   14.66296  10.57050  15.57000   1.96035   2.20563   1.23303 </text>
<text x="300" y="110"  font-family="sans-serif" font-size="20" > Ending vector  -79.61004 -51.36163 -11.14343 -49.23037 -95.88905 -84.03080 </text>
<text x="300" y="135"  font-family="sans-serif" font-size="20" > Ending cell   10.57050  13.66172  14.66296   1.97949   1.90856   1.64804 </text>




 <!--DISTANCE PLOT BEGINS-->


<!-- the following will scale and place the distance plot -->
<g  transform="translate(0,50) ">
<g transform="translate(150,700) scale(1 -1)">
   <polyline fill="none" stroke="black" stroke-width="10" points=" 5.2 ,0  10.4 ,15.1993  15.6 ,30.3985  20.8 ,45.5978  26 ,60.7971  31.2 ,75.9963  36.4 ,91.1956  41.6 ,106.395  46.8 ,121.594  52 ,136.793  57.2 ,151.993  62.4 ,167.192  67.6 ,182.391  72.8 ,197.59  78 ,212.79  83.2 ,227.989  88.4 ,243.188  93.6 ,258.388  98.8 ,273.587  104 ,288.786  109.2 ,303.985  114.4 ,319.185  119.6 ,334.384  124.8 ,349.583  130 ,364.782  135.2 ,379.982  140.4 ,395.181  145.6 ,410.38  150.8 ,425.579  156 ,440.779  161.2 ,455.978  166.4 ,457.124  171.6 ,454.033  176.8 ,451.432  182 ,449.331  187.2 ,447.736  192.4 ,446.653  197.6 ,446.086  202.8 ,446.036  208 ,446.504  213.2 ,447.487  218.4 ,448.984  223.6 ,450.988  228.8 ,453.493  234 ,456.49  239.2 ,459.971  244.4 ,463.923  249.6 ,468.336  254.8 ,473.196  260 ,478.49  265.2 ,484.203  270.4 ,490.32  275.6 ,496.828  280.8 ,503.71  286 ,510.952  291.2 ,505.144  296.4 ,493.668  301.6 ,482.397  306.8 ,471.348  312 ,460.535  317.2 ,449.976  322.4 ,439.688  327.6 ,429.692  332.8 ,420.008  338 ,410.659  343.2 ,401.667  348.4 ,393.058  353.6 ,384.856  358.8 ,377.089  364 ,369.784  369.2 ,362.968  374.4 ,356.671  379.6 ,350.919  384.8 ,345.74  390 ,341.16  395.2 ,337.204  400.4 ,333.893  405.6 ,331.247  410.8 ,329.283  416 ,328.011  421.2 ,327.441  426.4 ,327.576  431.6 ,313.325  436.8 ,294.894  442 ,276.463  447.2 ,258.032  452.4 ,239.601  457.6 ,221.17  462.8 ,202.739  468 ,184.309  473.2 ,165.878  478.4 ,147.447  483.6 ,129.016  488.8 ,110.585  494 ,92.1543  499.2 ,73.7234  504.4 ,55.2926  509.6 ,36.8617  514.8 ,18.4309  520 ,0  " />

<!--Draw the X and Y axes -->
<polyline fill="none" stroke="black" stroke-width="6"  points=" 600,0 0,0 0,520" />
<!-- -->

<line fill="none" stroke-width="3" boundary-string=""  stroke="lightblue" x1="0" y1="5.77675e-13" x2="5.2" y2="5.77675e-13" />
<line fill="none" stroke-width="3" boundary-string=""  stroke="lightblue" x1="5.2" y1="5.77675e-13" x2="10.4" y2="10.7031" />
<line fill="none" stroke-width="3" boundary-string=""  stroke="lightblue" x1="10.4" y1="10.7031" x2="15.6" y2="21.4063" />
<line fill="none" stroke-width="3" boundary-string=""  stroke="lightblue" x1="15.6" y1="21.4063" x2="20.8" y2="32.1094" />
<line fill="none" stroke-width="3" boundary-string=""  stroke="lightblue" x1="20.8" y1="32.1094" x2="26" y2="42.8126" />
<line fill="none" stroke-width="3" boundary-string=""  stroke="lightblue" x1="26" y1="42.8126" x2="31.2" y2="53.5157" />
<line fill="none" stroke-width="3" boundary-string=""  stroke="lightblue" x1="31.2" y1="53.5157" x2="36.4" y2="64.2188" />
<line fill="none" stroke-width="3" boundary-string=""  stroke="lightblue" x1="36.4" y1="64.2188" x2="41.6" y2="74.922" />
<line fill="none" stroke-width="3" boundary-string=""  stroke="lightblue" x1="41.6" y1="74.922" x2="46.8" y2="85.6251" />
<line fill="none" stroke-width="3" boundary-string=""  stroke="lightblue" x1="46.8" y1="85.6251" x2="52" y2="96.3283" />
<line fill="none" stroke-width="3" boundary-string=""  stroke="lightblue" x1="52" y1="96.3283" x2="57.2" y2="107.031" />
<line fill="none" stroke-width="3" boundary-string=""  stroke="lightblue" x1="57.2" y1="107.031" x2="62.4" y2="117.735" />
<line fill="none" stroke-width="3" boundary-string=""  stroke="lightblue" x1="62.4" y1="117.735" x2="67.6" y2="128.438" />
<line fill="none" stroke-width="3" boundary-string=""  stroke="lightblue" x1="67.6" y1="128.438" x2="72.8" y2="139.141" />
<line fill="none" stroke-width="3" boundary-string=""  stroke="lightblue" x1="72.8" y1="139.141" x2="78" y2="149.844" />
<line fill="none" stroke-width="3" boundary-string=""  stroke="lightblue" x1="78" y1="149.844" x2="83.2" y2="160.547" />
<line fill="none" stroke-width="3" boundary-string=""  stroke="lightblue" x1="83.2" y1="160.547" x2="88.4" y2="171.25" />
<line fill="none" stroke-width="3" boundary-string=""  stroke="lightblue" x1="88.4" y1="171.25" x2="93.6" y2="181.953" />
<line fill="none" stroke-width="3" boundary-string=""  stroke="lightblue" x1="93.6" y1="181.953" x2="98.8" y2="192.657" />
<line fill="none" stroke-width="3" boundary-string=""  stroke="lightblue" x1="98.8" y1="192.657" x2="104" y2="203.36" />
<line fill="none" stroke-width="3" boundary-string=""  stroke="lightblue" x1="104" y1="203.36" x2="109.2" y2="214.063" />
<line fill="none" stroke-width="3" boundary-string=""  stroke="lightblue" x1="109.2" y1="214.063" x2="114.4" y2="224.766" />
<line fill="none" stroke-width="3" boundary-string=""  stroke="lightblue" x1="114.4" y1="224.766" x2="119.6" y2="235.469" />
<line fill="none" stroke-width="3" boundary-string=""  stroke="lightblue" x1="119.6" y1="235.469" x2="124.8" y2="246.172" />
<line fill="none" stroke-width="3" boundary-string=""  stroke="lightblue" x1="124.8" y1="246.172" x2="130" y2="256.875" />
<line fill="none" stroke-width="3" boundary-string=""  stroke="lightblue" x1="130" y1="256.875" x2="135.2" y2="267.579" />
<line fill="none" stroke-width="3" boundary-string=""  stroke="lightblue" x1="135.2" y1="267.579" x2="140.4" y2="278.282" />
<line fill="none" stroke-width="3" boundary-string=""  stroke="lightblue" x1="140.4" y1="278.282" x2="145.6" y2="288.985" />
<line fill="none" stroke-width="3" boundary-string=""  stroke="lightblue" x1="145.6" y1="288.985" x2="150.8" y2="299.688" />
<line fill="none" stroke-width="3" boundary-string=""  stroke="lightblue" x1="150.8" y1="299.688" x2="156" y2="310.391" />
<line fill="none" stroke-width="3" boundary-string=""  stroke="lightblue" x1="156" y1="310.391" x2="161.2" y2="321.094" />
<line fill="none" stroke-width="3" boundary-string=""  stroke="lightblue" x1="161.2" y1="321.094" x2="166.4" y2="321.818" />
<line fill="none" stroke-width="3" boundary-string=""  stroke="lightblue" x1="166.4" y1="321.818" x2="171.6" y2="319.528" />
<line fill="none" stroke-width="3" boundary-string=""  stroke="lightblue" x1="171.6" y1="319.528" x2="176.8" y2="317.583" />
<line fill="none" stroke-width="3" boundary-string=""  stroke="lightblue" x1="176.8" y1="317.583" x2="182" y2="315.989" />
<line fill="none" stroke-width="3" boundary-string=""  stroke="lightblue" x1="182" y1="315.989" x2="187.2" y2="314.751" />
<line fill="none" stroke-width="3" boundary-string=""  stroke="lightblue" x1="187.2" y1="314.751" x2="192.4" y2="313.873" />
<line fill="none" stroke-width="3" boundary-string=""  stroke="lightblue" x1="192.4" y1="313.873" x2="197.6" y2="313.358" />
<line fill="none" stroke-width="3" boundary-string=""  stroke="lightblue" x1="197.6" y1="313.358" x2="202.8" y2="313.209" />
<line fill="none" stroke-width="3" boundary-string=""  stroke="lightblue" x1="202.8" y1="313.209" x2="208" y2="313.425" />
<line fill="none" stroke-width="3" boundary-string=""  stroke="lightblue" x1="208" y1="313.425" x2="213.2" y2="314.006" />
<line fill="none" stroke-width="3" boundary-string=""  stroke="lightblue" x1="213.2" y1="314.006" x2="218.4" y2="314.95" />
<line fill="none" stroke-width="3" boundary-string=""  stroke="lightblue" x1="218.4" y1="314.95" x2="223.6" y2="316.254" />
<line fill="none" stroke-width="3" boundary-string=""  stroke="lightblue" x1="223.6" y1="316.254" x2="228.8" y2="317.912" />
<line fill="none" stroke-width="3" boundary-string=""  stroke="lightblue" x1="228.8" y1="317.912" x2="234" y2="319.921" />
<line fill="none" stroke-width="3" boundary-string=""  stroke="lightblue" x1="234" y1="319.921" x2="239.2" y2="322.272" />
<line fill="none" stroke-width="3" boundary-string=""  stroke="lightblue" x1="239.2" y1="322.272" x2="244.4" y2="324.96" />
<line fill="none" stroke-width="3" boundary-string=""  stroke="lightblue" x1="244.4" y1="324.96" x2="249.6" y2="327.974" />
<line fill="none" stroke-width="3" boundary-string=""  stroke="lightblue" x1="249.6" y1="327.974" x2="254.8" y2="331.308" />
<line fill="none" stroke-width="3" boundary-string=""  stroke="lightblue" x1="254.8" y1="331.308" x2="260" y2="334.95" />
<line fill="none" stroke-width="3" boundary-string=""  stroke="lightblue" x1="260" y1="334.95" x2="265.2" y2="338.891" />
<line fill="none" stroke-width="3" boundary-string=""  stroke="lightblue" x1="265.2" y1="338.891" x2="270.4" y2="343.121" />
<line fill="none" stroke-width="3" boundary-string=""  stroke="lightblue" x1="270.4" y1="343.121" x2="275.6" y2="347.629" />
<line fill="none" stroke-width="3" boundary-string=""  stroke="lightblue" x1="275.6" y1="347.629" x2="280.8" y2="352.404" />
<line fill="none" stroke-width="3" boundary-string=""  stroke="lightblue" x1="280.8" y1="352.404" x2="286" y2="357.437" />
<line fill="none" stroke-width="3" boundary-string=""  stroke="lightblue" x1="286" y1="357.437" x2="291.2" y2="353.138" />
<line fill="none" stroke-width="3" boundary-string=""  stroke="lightblue" x1="291.2" y1="353.138" x2="296.4" y2="344.775" />
<line fill="none" stroke-width="3" boundary-string=""  stroke="lightblue" x1="296.4" y1="344.775" x2="301.6" y2="336.544" />
<line fill="none" stroke-width="3" boundary-string=""  stroke="lightblue" x1="301.6" y1="336.544" x2="306.8" y2="328.456" />
<line fill="none" stroke-width="3" boundary-string=""  stroke="lightblue" x1="306.8" y1="328.456" x2="312" y2="320.521" />
<line fill="none" stroke-width="3" boundary-string=""  stroke="lightblue" x1="312" y1="320.521" x2="317.2" y2="312.751" />
<line fill="none" stroke-width="3" boundary-string=""  stroke="lightblue" x1="317.2" y1="312.751" x2="322.4" y2="305.159" />
<line fill="none" stroke-width="3" boundary-string=""  stroke="lightblue" x1="322.4" y1="305.159" x2="327.6" y2="297.758" />
<line fill="none" stroke-width="3" boundary-string=""  stroke="lightblue" x1="327.6" y1="297.758" x2="332.8" y2="290.562" />
<line fill="none" stroke-width="3" boundary-string=""  stroke="lightblue" x1="332.8" y1="290.562" x2="338" y2="283.589" />
<line fill="none" stroke-width="3" boundary-string=""  stroke="lightblue" x1="338" y1="283.589" x2="343.2" y2="276.853" />
<line fill="none" stroke-width="3" boundary-string=""  stroke="lightblue" x1="343.2" y1="276.853" x2="348.4" y2="270.374" />
<line fill="none" stroke-width="3" boundary-string=""  stroke="lightblue" x1="348.4" y1="270.374" x2="353.6" y2="264.169" />
<line fill="none" stroke-width="3" boundary-string=""  stroke="lightblue" x1="353.6" y1="264.169" x2="358.8" y2="258.259" />
<line fill="none" stroke-width="3" boundary-string=""  stroke="lightblue" x1="358.8" y1="258.259" x2="364" y2="252.664" />
<line fill="none" stroke-width="3" boundary-string=""  stroke="lightblue" x1="364" y1="252.664" x2="369.2" y2="247.407" />
<line fill="none" stroke-width="3" boundary-string=""  stroke="lightblue" x1="369.2" y1="247.407" x2="374.4" y2="242.507" />
<line fill="none" stroke-width="3" boundary-string=""  stroke="lightblue" x1="374.4" y1="242.507" x2="379.6" y2="237.989" />
<line fill="none" stroke-width="3" boundary-string=""  stroke="lightblue" x1="379.6" y1="237.989" x2="384.8" y2="233.874" />
<line fill="none" stroke-width="3" boundary-string=""  stroke="lightblue" x1="384.8" y1="233.874" x2="390" y2="230.183" />
<line fill="none" stroke-width="3" boundary-string=""  stroke="lightblue" x1="390" y1="230.183" x2="395.2" y2="226.937" />
<line fill="none" stroke-width="3" boundary-string=""  stroke="lightblue" x1="395.2" y1="226.937" x2="400.4" y2="224.155" />
<line fill="none" stroke-width="3" boundary-string=""  stroke="lightblue" x1="400.4" y1="224.155" x2="405.6" y2="221.856" />
<line fill="none" stroke-width="3" boundary-string=""  stroke="lightblue" x1="405.6" y1="221.856" x2="410.8" y2="220.054" />
<line fill="none" stroke-width="3" boundary-string=""  stroke="lightblue" x1="410.8" y1="220.054" x2="416" y2="218.761" />
<line fill="none" stroke-width="3" boundary-string=""  stroke="lightblue" x1="416" y1="218.761" x2="421.2" y2="217.987" />
<line fill="none" stroke-width="3" boundary-string=""  stroke="lightblue" x1="421.2" y1="217.987" x2="426.4" y2="217.564" />
<line fill="none" stroke-width="3" boundary-string=""  stroke="lightblue" x1="426.4" y1="217.564" x2="431.6" y2="207.951" />
<line fill="none" stroke-width="3" boundary-string=""  stroke="lightblue" x1="431.6" y1="207.951" x2="436.8" y2="195.718" />
<line fill="none" stroke-width="3" boundary-string=""  stroke="lightblue" x1="436.8" y1="195.718" x2="442" y2="183.486" />
<line fill="none" stroke-width="3" boundary-string=""  stroke="lightblue" x1="442" y1="183.486" x2="447.2" y2="171.254" />
<line fill="none" stroke-width="3" boundary-string=""  stroke="lightblue" x1="447.2" y1="171.254" x2="452.4" y2="159.021" />
<line fill="none" stroke-width="3" boundary-string=""  stroke="lightblue" x1="452.4" y1="159.021" x2="457.6" y2="146.789" />
<line fill="none" stroke-width="3" boundary-string=""  stroke="lightblue" x1="457.6" y1="146.789" x2="462.8" y2="134.556" />
<line fill="none" stroke-width="3" boundary-string=""  stroke="lightblue" x1="462.8" y1="134.556" x2="468" y2="122.324" />
<line fill="none" stroke-width="3" boundary-string=""  stroke="lightblue" x1="468" y1="122.324" x2="473.2" y2="110.092" />
<line fill="none" stroke-width="3" boundary-string=""  stroke="lightblue" x1="473.2" y1="110.092" x2="478.4" y2="97.8592" />
<line fill="none" stroke-width="3" boundary-string=""  stroke="lightblue" x1="478.4" y1="97.8592" x2="483.6" y2="85.6268" />
<line fill="none" stroke-width="3" boundary-string=""  stroke="lightblue" x1="483.6" y1="85.6268" x2="488.8" y2="73.3944" />
<line fill="none" stroke-width="3" boundary-string=""  stroke="lightblue" x1="488.8" y1="73.3944" x2="494" y2="61.162" />
<line fill="none" stroke-width="3" boundary-string=""  stroke="lightblue" x1="494" y1="61.162" x2="499.2" y2="48.9296" />
<line fill="none" stroke-width="3" boundary-string=""  stroke="lightblue" x1="499.2" y1="48.9296" x2="504.4" y2="36.6972" />
<line fill="none" stroke-width="3" boundary-string=""  stroke="lightblue" x1="504.4" y1="36.6972" x2="509.6" y2="24.4648" />
<line fill="none" stroke-width="3" boundary-string=""  stroke="lightblue" x1="509.6" y1="24.4648" x2="514.8" y2="12.2324" />
<line fill="none" stroke-width="3" boundary-string=""  stroke="lightblue" x1="514.8" y1="12.2324" x2="520" y2="0" />

<!--Draw the X and Y axes -->
<polyline fill="none" stroke="black" stroke-width="6"  points=" 600,0 0,0 0,520" />
<!-- -->


<!--Draw labels and tics for X axis -->

<line fill="none" stroke="black"  stroke-width="6"  x1="0.5" y1="0" x2="0.5" y2="-20" />
<text transform="scale(1,-1)" font-family="sans-serif" font-size="30" x="-24.5" y="45" >0 </text>
<line fill="none" stroke="black"  stroke-width="6"  x1="104.5" y1="0" x2="104.5" y2="-20" />
<text transform="scale(1,-1)" font-family="sans-serif" font-size="30" x="79.5" y="45" >20 </text>
<line fill="none" stroke="black"  stroke-width="6"  x1="208.5" y1="0" x2="208.5" y2="-20" />
<text transform="scale(1,-1)" font-family="sans-serif" font-size="30" x="183.5" y="45" >40 </text>
<line fill="none" stroke="black"  stroke-width="6"  x1="312.5" y1="0" x2="312.5" y2="-20" />
<text transform="scale(1,-1)" font-family="sans-serif" font-size="30" x="287.5" y="45" >60 </text>
<line fill="none" stroke="black"  stroke-width="6"  x1="416.5" y1="0" x2="416.5" y2="-20" />
<text transform="scale(1,-1)" font-family="sans-serif" font-size="30" x="391.5" y="45" >80 </text>
<line fill="none" stroke="black"  stroke-width="6"  x1="520.5" y1="0" x2="520.5" y2="-20" />
<text transform="scale(1,-1)" font-family="sans-serif" font-size="30" x="495.5" y="45" >100 </text>


<!--Draw labels and tics for Y axis -->

<line fill="none" stroke="black" stroke-width="6" x1="0.0" y1="0" x2="-20" y2="0" />
<text transform="scale(1,-1)" text-anchor="end" font-family="sans-serif" font-size="30" x="-25" y="10" >0 </text>
<line fill="none" stroke="black" stroke-width="6" x1="0.0" y1="86.6667" x2="-20" y2="86.6667" />
<text transform="scale(1,-1)" text-anchor="end" font-family="sans-serif" font-size="30" x="-25" y="-76.6667" >10 </text>
<line fill="none" stroke="black" stroke-width="6" x1="0.0" y1="173.333" x2="-20" y2="173.333" />
<text transform="scale(1,-1)" text-anchor="end" font-family="sans-serif" font-size="30" x="-25" y="-163.333" >20 </text>
<line fill="none" stroke="black" stroke-width="6" x1="0.0" y1="260" x2="-20" y2="260" />
<text transform="scale(1,-1)" text-anchor="end" font-family="sans-serif" font-size="30" x="-25" y="-250" >30 </text>
<line fill="none" stroke="black" stroke-width="6" x1="0.0" y1="346.667" x2="-20" y2="346.667" />
<text transform="scale(1,-1)" text-anchor="end" font-family="sans-serif" font-size="30" x="-25" y="-336.667" >40 </text>
<line fill="none" stroke="black" stroke-width="6" x1="0.0" y1="433.333" x2="-20" y2="433.333" />
<text transform="scale(1,-1)" text-anchor="end" font-family="sans-serif" font-size="30" x="-25" y="-423.333" >50 </text>
<line fill="none" stroke="black" stroke-width="6" x1="0.0" y1="520" x2="-20" y2="520" />
<text transform="scale(1,-1)" text-anchor="end" font-family="sans-serif" font-size="30" x="-25" y="-510" >60 </text>


<!-- Reduced vector followed by D7dist from the final reduced cell
-79.61004 -51.36163 -11.14343 -49.23037 -95.88905 -84.03080    (6.66548e-14,  0)   
-79.41574 -50.73027 -11.94757 -49.81423 -95.65671 -83.81337    (1.23498,  1.75376)   
-79.22143 -50.09890 -12.75171 -50.39809 -95.42437 -83.59593    (2.46996,  3.50752)   
-79.02712 -49.46754 -13.55585 -50.98195 -95.19203 -83.37850    (3.70493,  5.26128)   
-78.83282 -48.83618 -14.35999 -51.56581 -94.95969 -83.16107    (4.93991,  7.01505)   
-78.63851 -48.20481 -15.16414 -52.14967 -94.72735 -82.94364    (6.17489,  8.76881)   
-78.44421 -47.57345 -15.96828 -52.73353 -94.49501 -82.72621    (7.40987,  10.5226)   
-78.24990 -46.94208 -16.77242 -53.31739 -94.26267 -82.50878    (8.64484,  12.2763)   
-78.05560 -46.31072 -17.57656 -53.90125 -94.03033 -82.29134    (9.87982,  14.0301)   
-77.86129 -45.67936 -18.38070 -54.48510 -93.79799 -82.07391    (11.1148,  15.7839)   
-77.66699 -45.04799 -19.18485 -55.06896 -93.56565 -81.85648    (12.3498,  17.5376)   
-77.47268 -44.41663 -19.98899 -55.65282 -93.33331 -81.63905    (13.5848,  19.2914)   
-77.27837 -43.78526 -20.79313 -56.23668 -93.10097 -81.42162    (14.8197,  21.0451)   
-77.08407 -43.15390 -21.59727 -56.82054 -92.86863 -81.20419    (16.0547,  22.7989)   
-76.88976 -42.52253 -22.40141 -57.40440 -92.63629 -80.98675    (17.2897,  24.5527)   
-76.69546 -41.89117 -23.20555 -57.98826 -92.40395 -80.76932    (18.5247,  26.3064)   
-76.50115 -41.25981 -24.00970 -58.57212 -92.17161 -80.55189    (19.7596,  28.0602)   
-76.30685 -40.62844 -24.81384 -59.15598 -91.93927 -80.33446    (20.9946,  29.8139)   
-76.11254 -39.99708 -25.61798 -59.73984 -91.70693 -80.11703    (22.2296,  31.5677)   
-75.91824 -39.36571 -26.42212 -60.32370 -91.47459 -79.89960    (23.4646,  33.3215)   
-75.72393 -27.22626 -38.73435 -60.90756 -79.68216 -91.24225    (24.6996,  35.0752)   
-75.52962 -28.03041 -38.10298 -61.49142 -79.46473 -91.00991    (25.9345,  36.829)   
-75.33532 -28.83455 -37.47162 -62.07528 -79.24730 -90.77757    (27.1695,  38.5828)   
-75.14101 -29.63869 -36.84026 -62.65914 -79.02987 -90.54523    (28.4045,  40.3365)   
-74.94671 -30.44283 -36.20889 -63.24300 -78.81244 -90.31289    (29.6395,  42.0903)   
-74.75240 -31.24697 -35.57753 -63.82686 -78.59501 -90.08055    (30.8744,  43.844)   
-74.55810 -32.05111 -34.94616 -64.41072 -78.37757 -89.84821    (32.1094,  45.5978)   
-74.36379 -32.85526 -34.31480 -64.99458 -78.16014 -89.61587    (33.3444,  47.3516)   
-74.16949 -33.65940 -33.68343 -65.57844 -77.94271 -89.38353    (34.5794,  49.1053)   
-73.97518 -34.46354 -33.05207 -66.16230 -77.72528 -89.15119    (35.8144,  50.8591)   
-73.78088 -35.26768 -32.42071 -66.74616 -77.50785 -88.91885    (37.0493,  52.6128)   
-73.58657 -36.07182 -31.78934 -67.33002 -77.29042 -88.68651    (37.1328,  52.7451)   
-73.39226 -36.87597 -31.15798 -67.91388 -77.07298 -88.45417    (36.8687,  52.3884)   
-73.19796 -37.68011 -30.52661 -68.49774 -76.85555 -88.22183    (36.6442,  52.0883)   
-73.00365 -38.48425 -29.89525 -69.08160 -76.63812 -87.98949    (36.4603,  51.8459)   
-72.80935 -39.28839 -29.26388 -69.66546 -76.42069 -87.75715    (36.3174,  51.6619)   
-72.61504 -40.09253 -28.63252 -70.24932 -76.20326 -87.52481    (36.2161,  51.5369)   
-72.42074 -40.89667 -28.00116 -70.83318 -75.98583 -87.29247    (36.1567,  51.4714)   
-72.22643 -41.70082 -27.36979 -71.41704 -75.76839 -87.06013    (36.1395,  51.4657)   
-72.03213 -42.50496 -26.73843 -72.00090 -75.55096 -86.82778    (36.1644,  51.5197)   
-71.83782 -43.30910 -26.10706 -72.58476 -75.33353 -86.59544    (36.2315,  51.6332)   
-71.64351 -44.11324 -25.47570 -73.16862 -75.11610 -86.36310    (36.3404,  51.8058)   
-71.44921 -44.91738 -24.84434 -73.75248 -74.89867 -86.13076    (36.4908,  52.0371)   
-71.25490 -45.72153 -24.21297 -74.33634 -74.68124 -85.89842    (36.6822,  52.3261)   
-71.06060 -46.52567 -23.58161 -74.92020 -74.46380 -85.66608    (36.914,  52.672)   
-70.86629 -47.32981 -22.95024 -75.50406 -74.24637 -85.43374    (37.1853,  53.0736)   
-70.67199 -48.13395 -22.31888 -76.08791 -74.02894 -85.20140    (37.4954,  53.5296)   
-70.47768 -48.93809 -21.68751 -76.67177 -73.81151 -84.96906    (37.8432,  54.0388)   
-70.28338 -49.74223 -21.05615 -77.25563 -73.59408 -84.73672    (38.2278,  54.5995)   
-70.08907 -50.54638 -20.42479 -77.83949 -73.37664 -84.50438    (38.648,  55.2103)   
-69.89476 -51.35052 -19.79342 -78.42335 -73.15921 -84.27204    (39.1028,  55.8695)   
-69.70046 -52.15466 -19.16206 -79.00721 -72.94178 -84.03970    (39.5909,  56.5754)   
-69.50615 -52.95880 -18.53069 -79.59107 -72.72435 -83.80736    (40.111,  57.3263)   
-69.31185 -53.76294 -17.89933 -80.17493 -72.50692 -83.57502    (40.6621,  58.1204)   
-69.11754 -54.56709 -17.26796 -80.75879 -72.28949 -83.34268    (41.2427,  58.956)   
-68.92324 -55.37123 -16.63660 -81.34265 -72.07205 -83.11034    (40.7467,  58.2858)   
-68.72893 -56.17537 -16.00524 -81.92651 -71.85462 -82.87800    (39.7817,  56.9617)   
-68.53463 -56.97951 -15.37387 -82.51037 -71.63719 -82.64566    (38.832,  55.6612)   
-57.78365 -68.34032 -14.74251 -71.41976 -83.09423 -82.41332    (37.8987,  54.3863)   
-58.58779 -68.14602 -14.11114 -71.20233 -83.67809 -82.18098    (36.9832,  53.1386)   
-59.39194 -67.95171 -13.47978 -70.98490 -84.26195 -81.94864    (36.0866,  51.9203)   
-60.19608 -67.75740 -12.84841 -70.76746 -84.84581 -81.71630    (35.2106,  50.7332)   
-61.00022 -67.56310 -12.21705 -70.55003 -85.42967 -81.48396    (34.3566,  49.5799)   
-61.80436 -67.36879 -11.58569 -70.33260 -86.01353 -81.25162    (33.5264,  48.4625)   
-62.60850 -67.17449 -10.95432 -70.11517 -86.59739 -81.01928    (32.7218,  47.3837)   
-63.41265 -66.98018 -10.32296 -69.89774 -87.18125 -80.78694    (31.9446,  46.3462)   
-64.21679 -66.78588  -9.69159 -69.68031 -87.76511 -80.55460    (31.197,  45.3528)   
-65.02093 -66.59157  -9.06023 -69.46287 -88.34897 -80.32226    (30.481,  44.4065)   
-65.82507 -66.39727  -8.42886 -69.24544 -88.93283 -80.08992    (29.7991,  43.5103)   
-66.62921 -66.20296  -7.79750 -69.02801 -89.51669 -79.85758    (29.1536,  42.6674)   
-67.43335 -66.00865  -7.16614 -68.81058 -90.10055 -79.62524    (28.5469,  41.881)   
-68.23750 -65.81435  -6.53477 -68.59315 -90.68441 -79.39290    (27.9816,  41.1543)   
-69.04164 -65.62004  -5.90341 -68.37572 -91.26827 -79.16056    (27.4603,  40.4906)   
-69.84578 -65.42574  -5.27204 -68.15828 -91.85213 -78.92822    (26.9854,  39.8931)   
-70.64992 -65.23143  -4.64068 -67.94085 -92.43599 -78.69588    (26.5595,  39.3646)   
-71.45406 -65.03713  -4.00932 -67.72342 -93.01985 -78.46354    (26.185,  38.9081)   
-72.25821 -64.84282  -3.37795 -67.50599 -93.60371 -78.23120    (25.8641,  38.5261)   
-73.06235 -64.64852  -2.74659 -67.28856 -94.18757 -77.99886    (25.5988,  38.2209)   
-73.86649 -64.45421  -2.11522 -67.07113 -94.77143 -77.76652    (25.3909,  37.9942)   
-74.67063 -64.25990  -1.48386 -66.85369 -95.35529 -77.53418    (25.2417,  37.8475)   
-75.47477 -64.06560  -0.85249 -66.63626 -95.93915 -77.30184    (25.1524,  37.7817)   
-76.27891 -63.87129  -0.22113 -66.41883 -96.52301 -77.06950    (25.1035,  37.7972)   
-76.67282 -65.79116  -0.41023 -63.26675 -96.69663 -77.24739    (23.9943,  36.1528)   
-76.84560 -64.94237  -1.04160 -62.44108 -96.64913 -77.64641    (22.5829,  34.0262)   
-77.01838 -64.09357  -1.67296 -61.61541 -96.60162 -78.04544    (21.1715,  31.8996)   
-77.19115 -63.24478  -2.30433 -60.78974 -96.55412 -78.44446    (19.76,  29.7729)   
-77.36393 -62.39598  -2.93569 -59.96407 -96.50661 -78.84349    (18.3486,  27.6463)   
-77.53671 -61.54718  -3.56706 -59.13840 -96.45911 -79.24251    (16.9372,  25.5196)   
-77.70949 -60.69839  -4.19842 -58.31273 -96.41160 -79.64153    (15.5257,  23.393)   
-77.88227 -59.84959  -4.82978 -57.48706 -96.36410 -80.04056    (14.1143,  21.2664)   
-78.05504 -59.00080  -5.46115 -56.66140 -96.31659 -80.43958    (12.7029,  19.1397)   
-78.22782 -58.15200  -6.09251 -55.83573 -96.26909 -80.83861    (11.2914,  17.0131)   
-78.40060 -57.30320  -6.72388 -55.01006 -96.22159 -81.23763    (9.88001,  14.8865)   
-78.57338 -56.45441  -7.35524 -54.18439 -96.17408 -81.63665    (8.46858,  12.7598)   
-78.74615 -55.60561  -7.98661 -53.35872 -96.12658 -82.03568    (7.05715,  10.6332)   
-78.91893 -54.75682  -8.61797 -52.53305 -96.07907 -82.43470    (5.64572,  8.50655)   
-79.09171 -53.90802  -9.24933 -51.70738 -96.03157 -82.83373    (4.23429,  6.37991)   
-79.26449 -53.05923  -9.88070 -50.88171 -95.98406 -83.23275    (2.82286,  4.25327)   
-79.43726 -52.21043 -10.51206 -50.05604 -95.93656 -83.63177    (1.41143,  2.12664)   
-79.61004 -51.36163 -11.14343 -49.23037 -95.88905 -84.03080    (0,  0)   
-->
</g>
</g>
<!-- Run Constants
CIRCLEPLOT bool false
DISTANCEPLOT bool true
PRINTDISTANCEDATA bool true
GLITCHESONLY bool false
PLOT 2doubles 3 4
PERTURBBY double 0.05
GLITCHLEVEL double 3
BOUNDARYWINDOW double 0.065
FRAMESPERPATH int 200
STEPSPERFRAME int 100
TRIALS int 1
ALLBLACK bool false
FILEPREFIX string Fol
GRAPHSIZE int 0
BORDER int 0
PLOTSIZE int 0
CIRCLEPLOTSIZE int 2000
CIRCLERADIUS int 300
CIRCLESTROKEWIDTH int 30
G6LINEWIDTH int 3
DELONELINEWIDTH int 10
AXISWIDTH int 6
TICLENGTH int 20
VECTOR g6 
PERTURB g6Perturb 
MOVIEMODE MovieMode STAR
FOLLOWERMODE FollowerMode Follow
FIXRANDOMSEED fixRandomSeed true
RANDOMSEED int 18
TIMESTAMP bool true
END end 




-->
</svg>
