<?xml version="1.0" standalone="no"?>
<!-- the width and height set the total pixel output of the image in the browser -->
<!-- whatever is within the viewbox will be remapped to show in this size -->
<svg width="1000" height="1000" viewBox="1 0 1000 1000"  version="1.1" xmlns="http://www.w3.org/2000/svg" xmlns:xlink="http://www.w3.org/1999/xlink">
 <desc>ID (and file name) = Fol_2018-02-06.14_10_35.18_0.svg </desc> 
 <text x="280"  y="30"  font-family="sans-serif" font-size="20" > Trial vector = 0  </text> 
 <text x="700" y="30" font-family="sans-serif" font-size="20">Wall time passed: 30173 msec.</text>
<text x="450" y="30" font-family="sans-serif" font-size="20" fill="black" > Plotting g5 vs. g4</text>
<text x="300" y="60"  font-family="sans-serif" font-size="20" > Beginning vector  -99.90867  85.31148 -118.73304 -79.38580  16.42720 -181.73087 </text>
<text x="300" y="85"  font-family="sans-serif" font-size="20" > Beginning cell   10.62108  14.22021  14.01171   2.09604   0.96032   2.47533 </text>
<text x="300" y="110"  font-family="sans-serif" font-size="20" > Ending vector  -27.49588  -8.67151  -5.92568 -62.95860 -79.38580 -102.34507 </text>
<text x="300" y="135"  font-family="sans-serif" font-size="20" > Ending cell    8.80658  10.62108  11.76913   1.79258   1.65456   1.63419 </text>




 <!--DISTANCE PLOT BEGINS-->


<!-- the following will scale and place the distance plot -->
<g  transform="translate(0,50) ">
<g transform="translate(150,700) scale(1 -1)">
   <polyline fill="none" stroke="black" stroke-width="10" points=" 5.2 ,4.95911e-05  10.4 ,17.6845  15.6 ,35.369  20.8 ,53.0535  26 ,70.738  31.2 ,88.4225  36.4 ,106.107  41.6 ,123.792  46.8 ,137.709  52 ,147.142  57.2 ,157.097  62.4 ,167.548  67.6 ,178.464  72.8 ,189.812  78 ,197.034  83.2 ,203.418  88.4 ,210.628  93.6 ,218.536  98.8 ,227.028  104 ,236.009  109.2 ,245.401  114.4 ,255.137  119.6 ,265.166  124.8 ,275.442  130 ,285.93  135.2 ,296.6  140.4 ,307.429  145.6 ,317.416  150.8 ,322.035  156 ,327.187  161.2 ,332.837  166.4 ,338.948  171.6 ,345.487  176.8 ,351.462  182 ,357.36  187.2 ,363.592  192.4 ,370.137  197.6 ,376.975  202.8 ,384.089  208 ,391.461  213.2 ,399.074  218.4 ,406.912  223.6 ,414.419  228.8 ,421.754  234 ,429.354  239.2 ,437.2  244.4 ,445.271  249.6 ,453.55  254.8 ,462.022  260 ,470.674  265.2 ,479.492  270.4 ,488.465  275.6 ,497.583  280.8 ,506.836  286 ,516.216  291.2 ,512.423  296.4 ,502.35  301.6 ,491.69  306.8 ,481.074  312 ,470.504  317.2 ,459.984  322.4 ,449.517  327.6 ,439.106  332.8 ,428.758  338 ,418.476  343.2 ,408.268  348.4 ,398.14  353.6 ,388.101  358.8 ,378.16  364 ,368.327  369.2 ,358.616  374.4 ,349.043  379.6 ,339.624  384.8 ,330.381  390 ,321.338  395.2 ,312.524  400.4 ,303.975  405.6 ,295.732  410.8 ,287.843  416 ,280.365  421.2 ,273.368  426.4 ,266.928  431.6 ,261.134  436.8 ,256.085  442 ,247.404  447.2 ,237.24  452.4 ,227.319  457.6 ,217.645  462.8 ,208.221  468 ,199.048  473.2 ,188.496  478.4 ,167.552  483.6 ,146.608  488.8 ,125.664  494 ,104.72  499.2 ,83.7759  504.4 ,62.8319  509.6 ,41.888  514.8 ,20.944  520 ,4.95911e-05  " />

<!--Draw the X and Y axes -->
<polyline fill="none" stroke="black" stroke-width="6"  points=" 600,0 0,0 0,520" />
<!-- -->

<line fill="none" stroke-width="3" boundary-string=""  stroke="lightblue" x1="0" y1="1.78875e-13" x2="5.2" y2="1.78875e-13" />
<line fill="none" stroke-width="3" boundary-string=""  stroke="lightblue" x1="5.2" y1="1.78875e-13" x2="10.4" y2="11.339" />
<line fill="none" stroke-width="3" boundary-string=""  stroke="lightblue" x1="10.4" y1="11.339" x2="15.6" y2="22.678" />
<line fill="none" stroke-width="3" boundary-string=""  stroke="lightblue" x1="15.6" y1="22.678" x2="20.8" y2="34.0171" />
<line fill="none" stroke-width="3" boundary-string=""  stroke="lightblue" x1="20.8" y1="34.0171" x2="26" y2="45.3561" />
<line fill="none" stroke-width="3" boundary-string=""  stroke="lightblue" x1="26" y1="45.3561" x2="31.2" y2="56.6951" />
<line fill="none" stroke-width="3" boundary-string=""  stroke="lightblue" x1="31.2" y1="56.6951" x2="36.4" y2="68.0341" />
<line fill="none" stroke-width="3" boundary-string=""  stroke="lightblue" x1="36.4" y1="68.0341" x2="41.6" y2="79.3731" />
<line fill="none" stroke-width="3" boundary-string=""  stroke="lightblue" x1="41.6" y1="79.3731" x2="46.8" y2="87.1303" />
<line fill="none" stroke-width="3" boundary-string=""  stroke="lightblue" x1="46.8" y1="87.1303" x2="52" y2="90.7175" />
<line fill="none" stroke-width="3" boundary-string=""  stroke="lightblue" x1="52" y1="90.7175" x2="57.2" y2="94.8926" />
<line fill="none" stroke-width="3" boundary-string=""  stroke="lightblue" x1="57.2" y1="94.8926" x2="62.4" y2="99.5815" />
<line fill="none" stroke-width="3" boundary-string=""  stroke="lightblue" x1="62.4" y1="99.5815" x2="67.6" y2="104.715" />
<line fill="none" stroke-width="3" boundary-string=""  stroke="lightblue" x1="67.6" y1="104.715" x2="72.8" y2="110.232" />
<line fill="none" stroke-width="3" boundary-string=""  stroke="lightblue" x1="72.8" y1="110.232" x2="78" y2="116.076" />
<line fill="none" stroke-width="3" boundary-string=""  stroke="lightblue" x1="78" y1="116.076" x2="83.2" y2="122.202" />
<line fill="none" stroke-width="3" boundary-string=""  stroke="lightblue" x1="83.2" y1="122.202" x2="88.4" y2="128.569" />
<line fill="none" stroke-width="3" boundary-string=""  stroke="lightblue" x1="88.4" y1="128.569" x2="93.6" y2="135.142" />
<line fill="none" stroke-width="3" boundary-string=""  stroke="lightblue" x1="93.6" y1="135.142" x2="98.8" y2="141.894" />
<line fill="none" stroke-width="3" boundary-string=""  stroke="lightblue" x1="98.8" y1="141.894" x2="104" y2="148.8" />
<line fill="none" stroke-width="3" boundary-string=""  stroke="lightblue" x1="104" y1="148.8" x2="109.2" y2="155.839" />
<line fill="none" stroke-width="3" boundary-string=""  stroke="lightblue" x1="109.2" y1="155.839" x2="114.4" y2="162.994" />
<line fill="none" stroke-width="3" boundary-string=""  stroke="lightblue" x1="114.4" y1="162.994" x2="119.6" y2="170.251" />
<line fill="none" stroke-width="3" boundary-string=""  stroke="lightblue" x1="119.6" y1="170.251" x2="124.8" y2="177.596" />
<line fill="none" stroke-width="3" boundary-string=""  stroke="lightblue" x1="124.8" y1="177.596" x2="130" y2="185.021" />
<line fill="none" stroke-width="3" boundary-string=""  stroke="lightblue" x1="130" y1="185.021" x2="135.2" y2="192.514" />
<line fill="none" stroke-width="3" boundary-string=""  stroke="lightblue" x1="135.2" y1="192.514" x2="140.4" y2="200.069" />
<line fill="none" stroke-width="3" boundary-string=""  stroke="lightblue" x1="140.4" y1="200.069" x2="145.6" y2="205.135" />
<line fill="none" stroke-width="3" boundary-string=""  stroke="lightblue" x1="145.6" y1="205.135" x2="150.8" y2="208.153" />
<line fill="none" stroke-width="3" boundary-string=""  stroke="lightblue" x1="150.8" y1="208.153" x2="156" y2="211.453" />
<line fill="none" stroke-width="3" boundary-string=""  stroke="lightblue" x1="156" y1="211.453" x2="161.2" y2="215.02" />
<line fill="none" stroke-width="3" boundary-string=""  stroke="lightblue" x1="161.2" y1="215.02" x2="166.4" y2="218.842" />
<line fill="none" stroke-width="3" boundary-string=""  stroke="lightblue" x1="166.4" y1="218.842" x2="171.6" y2="222.906" />
<line fill="none" stroke-width="3" boundary-string=""  stroke="lightblue" x1="171.6" y1="222.906" x2="176.8" y2="227.199" />
<line fill="none" stroke-width="3" boundary-string=""  stroke="lightblue" x1="176.8" y1="227.199" x2="182" y2="231.708" />
<line fill="none" stroke-width="3" boundary-string=""  stroke="lightblue" x1="182" y1="231.708" x2="187.2" y2="236.42" />
<line fill="none" stroke-width="3" boundary-string=""  stroke="lightblue" x1="187.2" y1="236.42" x2="192.4" y2="241.324" />
<line fill="none" stroke-width="3" boundary-string=""  stroke="lightblue" x1="192.4" y1="241.324" x2="197.6" y2="246.409" />
<line fill="none" stroke-width="3" boundary-string=""  stroke="lightblue" x1="197.6" y1="246.409" x2="202.8" y2="251.663" />
<line fill="none" stroke-width="3" boundary-string=""  stroke="lightblue" x1="202.8" y1="251.663" x2="208" y2="257.076" />
<line fill="none" stroke-width="3" boundary-string=""  stroke="lightblue" x1="208" y1="257.076" x2="213.2" y2="262.638" />
<line fill="none" stroke-width="3" boundary-string=""  stroke="lightblue" x1="213.2" y1="262.638" x2="218.4" y2="268.34" />
<line fill="none" stroke-width="3" boundary-string=""  stroke="lightblue" x1="218.4" y1="268.34" x2="223.6" y2="274.174" />
<line fill="none" stroke-width="3" boundary-string=""  stroke="lightblue" x1="223.6" y1="274.174" x2="228.8" y2="280.13" />
<line fill="none" stroke-width="3" boundary-string=""  stroke="lightblue" x1="228.8" y1="280.13" x2="234" y2="286.202" />
<line fill="none" stroke-width="3" boundary-string=""  stroke="lightblue" x1="234" y1="286.202" x2="239.2" y2="292.381" />
<line fill="none" stroke-width="3" boundary-string=""  stroke="lightblue" x1="239.2" y1="292.381" x2="244.4" y2="298.663" />
<line fill="none" stroke-width="3" boundary-string=""  stroke="lightblue" x1="244.4" y1="298.663" x2="249.6" y2="305.039" />
<line fill="none" stroke-width="3" boundary-string=""  stroke="lightblue" x1="249.6" y1="305.039" x2="254.8" y2="311.504" />
<line fill="none" stroke-width="3" boundary-string=""  stroke="lightblue" x1="254.8" y1="311.504" x2="260" y2="318.054" />
<line fill="none" stroke-width="3" boundary-string=""  stroke="lightblue" x1="260" y1="318.054" x2="265.2" y2="324.682" />
<line fill="none" stroke-width="3" boundary-string=""  stroke="lightblue" x1="265.2" y1="324.682" x2="270.4" y2="331.384" />
<line fill="none" stroke-width="3" boundary-string=""  stroke="lightblue" x1="270.4" y1="331.384" x2="275.6" y2="338.156" />
<line fill="none" stroke-width="3" boundary-string=""  stroke="lightblue" x1="275.6" y1="338.156" x2="280.8" y2="344.994" />
<line fill="none" stroke-width="3" boundary-string=""  stroke="lightblue" x1="280.8" y1="344.994" x2="286" y2="351.485" />
<line fill="none" stroke-width="3" boundary-string=""  stroke="lightblue" x1="286" y1="351.485" x2="291.2" y2="343.71" />
<line fill="none" stroke-width="3" boundary-string=""  stroke="lightblue" x1="291.2" y1="343.71" x2="296.4" y2="335.959" />
<line fill="none" stroke-width="3" boundary-string=""  stroke="lightblue" x1="296.4" y1="335.959" x2="301.6" y2="328.233" />
<line fill="none" stroke-width="3" boundary-string=""  stroke="lightblue" x1="301.6" y1="328.233" x2="306.8" y2="320.535" />
<line fill="none" stroke-width="3" boundary-string=""  stroke="lightblue" x1="306.8" y1="320.535" x2="312" y2="312.867" />
<line fill="none" stroke-width="3" boundary-string=""  stroke="lightblue" x1="312" y1="312.867" x2="317.2" y2="305.23" />
<line fill="none" stroke-width="3" boundary-string=""  stroke="lightblue" x1="317.2" y1="305.23" x2="322.4" y2="297.627" />
<line fill="none" stroke-width="3" boundary-string=""  stroke="lightblue" x1="322.4" y1="297.627" x2="327.6" y2="290.061" />
<line fill="none" stroke-width="3" boundary-string=""  stroke="lightblue" x1="327.6" y1="290.061" x2="332.8" y2="282.534" />
<line fill="none" stroke-width="3" boundary-string=""  stroke="lightblue" x1="332.8" y1="282.534" x2="338" y2="275.051" />
<line fill="none" stroke-width="3" boundary-string=""  stroke="lightblue" x1="338" y1="275.051" x2="343.2" y2="267.614" />
<line fill="none" stroke-width="3" boundary-string=""  stroke="lightblue" x1="343.2" y1="267.614" x2="348.4" y2="260.228" />
<line fill="none" stroke-width="3" boundary-string=""  stroke="lightblue" x1="348.4" y1="260.228" x2="353.6" y2="252.897" />
<line fill="none" stroke-width="3" boundary-string=""  stroke="lightblue" x1="353.6" y1="252.897" x2="358.8" y2="245.626" />
<line fill="none" stroke-width="3" boundary-string=""  stroke="lightblue" x1="358.8" y1="245.626" x2="364" y2="238.42" />
<line fill="none" stroke-width="3" boundary-string=""  stroke="lightblue" x1="364" y1="238.42" x2="369.2" y2="231.286" />
<line fill="none" stroke-width="3" boundary-string=""  stroke="lightblue" x1="369.2" y1="231.286" x2="374.4" y2="224.23" />
<line fill="none" stroke-width="3" boundary-string=""  stroke="lightblue" x1="374.4" y1="224.23" x2="379.6" y2="217.26" />
<line fill="none" stroke-width="3" boundary-string=""  stroke="lightblue" x1="379.6" y1="217.26" x2="384.8" y2="210.385" />
<line fill="none" stroke-width="3" boundary-string=""  stroke="lightblue" x1="384.8" y1="210.385" x2="390" y2="203.614" />
<line fill="none" stroke-width="3" boundary-string=""  stroke="lightblue" x1="390" y1="203.614" x2="395.2" y2="196.958" />
<line fill="none" stroke-width="3" boundary-string=""  stroke="lightblue" x1="395.2" y1="196.958" x2="400.4" y2="190.428" />
<line fill="none" stroke-width="3" boundary-string=""  stroke="lightblue" x1="400.4" y1="190.428" x2="405.6" y2="184.04" />
<line fill="none" stroke-width="3" boundary-string=""  stroke="lightblue" x1="405.6" y1="184.04" x2="410.8" y2="177.807" />
<line fill="none" stroke-width="3" boundary-string=""  stroke="lightblue" x1="410.8" y1="177.807" x2="416" y2="171.746" />
<line fill="none" stroke-width="3" boundary-string=""  stroke="lightblue" x1="416" y1="171.746" x2="421.2" y2="165.877" />
<line fill="none" stroke-width="3" boundary-string=""  stroke="lightblue" x1="421.2" y1="165.877" x2="426.4" y2="160.22" />
<line fill="none" stroke-width="3" boundary-string=""  stroke="lightblue" x1="426.4" y1="160.22" x2="431.6" y2="154.8" />
<line fill="none" stroke-width="3" boundary-string=""  stroke="lightblue" x1="431.6" y1="154.8" x2="436.8" y2="149.64" />
<line fill="none" stroke-width="3" boundary-string=""  stroke="lightblue" x1="436.8" y1="149.64" x2="442" y2="144.77" />
<line fill="none" stroke-width="3" boundary-string=""  stroke="lightblue" x1="442" y1="144.77" x2="447.2" y2="140.22" />
<line fill="none" stroke-width="3" boundary-string=""  stroke="lightblue" x1="447.2" y1="140.22" x2="452.4" y2="136.021" />
<line fill="none" stroke-width="3" boundary-string=""  stroke="lightblue" x1="452.4" y1="136.021" x2="457.6" y2="132.207" />
<line fill="none" stroke-width="3" boundary-string=""  stroke="lightblue" x1="457.6" y1="132.207" x2="462.8" y2="128.813" />
<line fill="none" stroke-width="3" boundary-string=""  stroke="lightblue" x1="462.8" y1="128.813" x2="468" y2="125.872" />
<line fill="none" stroke-width="3" boundary-string=""  stroke="lightblue" x1="468" y1="125.872" x2="473.2" y2="121.896" />
<line fill="none" stroke-width="3" boundary-string=""  stroke="lightblue" x1="473.2" y1="121.896" x2="478.4" y2="108.352" />
<line fill="none" stroke-width="3" boundary-string=""  stroke="lightblue" x1="478.4" y1="108.352" x2="483.6" y2="94.8083" />
<line fill="none" stroke-width="3" boundary-string=""  stroke="lightblue" x1="483.6" y1="94.8083" x2="488.8" y2="81.2643" />
<line fill="none" stroke-width="3" boundary-string=""  stroke="lightblue" x1="488.8" y1="81.2643" x2="494" y2="67.7202" />
<line fill="none" stroke-width="3" boundary-string=""  stroke="lightblue" x1="494" y1="67.7202" x2="499.2" y2="54.1762" />
<line fill="none" stroke-width="3" boundary-string=""  stroke="lightblue" x1="499.2" y1="54.1762" x2="504.4" y2="40.6321" />
<line fill="none" stroke-width="3" boundary-string=""  stroke="lightblue" x1="504.4" y1="40.6321" x2="509.6" y2="27.0881" />
<line fill="none" stroke-width="3" boundary-string=""  stroke="lightblue" x1="509.6" y1="27.0881" x2="514.8" y2="13.544" />
<line fill="none" stroke-width="3" boundary-string=""  stroke="lightblue" x1="514.8" y1="13.544" x2="520" y2="0" />

<!--Draw the X and Y axes -->
<polyline fill="none" stroke="black" stroke-width="6"  points=" 600,0 0,0 0,520" />
<!-- -->


<!--Draw labels and tics for X axis -->

<line fill="none" stroke="black"  stroke-width="6"  x1="0.5" y1="0" x2="0.5" y2="-20" />
<text transform="scale(1,-1)" font-family="sans-serif" font-size="30" x="-24.5" y="45" >0 </text>
<line fill="none" stroke="black"  stroke-width="6"  x1="104.5" y1="0" x2="104.5" y2="-20" />
<text transform="scale(1,-1)" font-family="sans-serif" font-size="30" x="79.5" y="45" >20 </text>
<line fill="none" stroke="black"  stroke-width="6"  x1="208.5" y1="0" x2="208.5" y2="-20" />
<text transform="scale(1,-1)" font-family="sans-serif" font-size="30" x="183.5" y="45" >40 </text>
<line fill="none" stroke="black"  stroke-width="6"  x1="312.5" y1="0" x2="312.5" y2="-20" />
<text transform="scale(1,-1)" font-family="sans-serif" font-size="30" x="287.5" y="45" >60 </text>
<line fill="none" stroke="black"  stroke-width="6"  x1="416.5" y1="0" x2="416.5" y2="-20" />
<text transform="scale(1,-1)" font-family="sans-serif" font-size="30" x="391.5" y="45" >80 </text>
<line fill="none" stroke="black"  stroke-width="6"  x1="520.5" y1="0" x2="520.5" y2="-20" />
<text transform="scale(1,-1)" font-family="sans-serif" font-size="30" x="495.5" y="45" >100 </text>


<!--Draw labels and tics for Y axis -->

<line fill="none" stroke="black" stroke-width="6" x1="0.0" y1="0" x2="-20" y2="0" />
<text transform="scale(1,-1)" text-anchor="end" font-family="sans-serif" font-size="30" x="-25" y="10" >0 </text>
<line fill="none" stroke="black" stroke-width="6" x1="0.0" y1="130" x2="-20" y2="130" />
<text transform="scale(1,-1)" text-anchor="end" font-family="sans-serif" font-size="30" x="-25" y="-120" >20 </text>
<line fill="none" stroke="black" stroke-width="6" x1="0.0" y1="260" x2="-20" y2="260" />
<text transform="scale(1,-1)" text-anchor="end" font-family="sans-serif" font-size="30" x="-25" y="-250" >40 </text>
<line fill="none" stroke="black" stroke-width="6" x1="0.0" y1="390" x2="-20" y2="390" />
<text transform="scale(1,-1)" text-anchor="end" font-family="sans-serif" font-size="30" x="-25" y="-380" >60 </text>
<line fill="none" stroke="black" stroke-width="6" x1="0.0" y1="520" x2="-20" y2="520" />
<text transform="scale(1,-1)" text-anchor="end" font-family="sans-serif" font-size="30" x="-25" y="-510" >80 </text>


<!-- Reduced vector followed by D7dist from the final reduced cell
-27.49588  -8.67151  -5.92568 -62.95860 -79.38580 -102.34507    (2.75192e-14,  7.62939e-06)   
-28.08913  -9.67278  -5.14229 -63.76047 -79.21987 -101.70913    (1.74446,  2.72069)   
-28.68237 -10.67406  -4.35889 -64.56235 -79.05394 -101.07318    (3.48893,  5.44139)   
-29.27562 -11.67533  -3.57550 -65.36423 -78.88801 -100.43724    (5.23339,  8.16208)   
-29.86887 -12.67660  -2.79211 -66.16610 -78.72208 -99.80129    (6.97786,  10.8828)   
-30.46211 -13.67787  -2.00872 -66.96798 -78.55614 -99.16534    (8.72232,  13.6035)   
-31.05536 -14.67915  -1.22533 -67.76986 -78.39021 -98.52940    (10.4668,  16.3242)   
-31.64861 -15.68042  -0.44193 -68.57173 -78.22428 -97.89345    (12.2113,  19.0449)   
-77.71689 -16.34024  -0.34146 -69.03215 -31.90040 -97.59897    (13.4047,  21.186)   
-76.76757 -16.55812  -1.12485 -69.05064 -31.71025 -97.74641    (13.9565,  22.6372)   
-75.81825 -16.77600  -1.90824 -69.06912 -31.52011 -97.89386    (14.5989,  24.1688)   
-74.86892 -16.99388  -2.69163 -69.08761 -31.32996 -98.04130    (15.3202,  25.7767)   
-73.91960 -17.21176  -3.47502 -69.10609 -31.13982 -98.18875    (16.11,  27.456)   
-72.97028 -17.42964  -4.25842 -69.12458 -30.94967 -98.33620    (16.9587,  29.2019)   
-72.02095 -17.64752  -5.04181 -69.14306 -30.75953 -98.48364    (17.8579,  30.3129)   
-71.07163 -17.86540  -5.82520 -69.16155 -30.56938 -98.63109    (18.8003,  31.295)   
-70.12231 -18.08328  -6.60859 -69.18003 -30.37924 -98.77854    (19.7798,  32.4044)   
-69.17298 -18.30116  -7.39198 -69.19852 -30.18909 -98.92598    (20.7912,  33.6209)   
-68.22366 -18.51904  -8.17537 -69.21700 -29.99895 -99.07343    (21.8299,  34.9274)   
-67.27434 -18.73692  -8.95877 -69.23549 -29.80880 -99.22087    (22.8923,  36.3091)   
-66.32502 -18.95481  -9.74216 -69.25397 -29.61865 -99.36832    (23.9752,  37.754)   
-65.37569 -19.17269 -10.52555 -69.27246 -29.42851 -99.51577    (25.076,  39.2519)   
-64.42637 -19.39057 -11.30894 -69.29094 -29.23836 -99.66321    (26.1924,  40.7947)   
-63.47705 -19.60845 -12.09233 -69.30943 -29.04822 -99.81066    (27.3225,  42.3757)   
-62.52772 -19.82633 -12.87573 -69.32791 -28.85807 -99.95811    (28.4647,  43.9892)   
-61.57840 -20.04421 -13.65912 -69.34640 -28.66793 -100.10555    (29.6175,  45.6308)   
-20.26209 -60.62908 -14.44251 -28.47778 -69.36488 -100.25300    (30.7799,  47.2968)   
-20.47997 -59.67975 -15.22590 -28.28764 -69.38337 -100.40045    (31.5592,  48.8332)   
-20.69785 -58.73043 -16.00929 -28.09749 -69.40185 -100.54789    (32.0236,  49.5439)   
-20.91573 -57.78111 -16.79268 -27.90735 -69.42034 -100.69534    (32.5312,  50.3365)   
-21.13361 -56.83178 -17.57608 -27.71720 -69.43882 -100.84278    (33.08,  51.2056)   
-21.35149 -55.88246 -18.35947 -27.52706 -69.45731 -100.99023    (33.668,  52.1458)   
-21.56938 -54.93314 -19.14286 -27.33691 -69.47579 -101.13768    (34.2932,  53.1518)   
-21.78726 -53.98381 -19.92625 -27.14677 -69.49428 -101.28512    (34.9537,  54.071)   
-22.00514 -53.03449 -20.70964 -26.95662 -69.51276 -101.43257    (35.6473,  54.9785)   
-22.22302 -52.08517 -21.49303 -26.76648 -69.53125 -101.58002    (36.3723,  55.9372)   
-22.44090 -51.13585 -22.27643 -26.57633 -69.54973 -101.72746    (37.1268,  56.9441)   
-22.65878 -50.18652 -23.05982 -26.38619 -69.56822 -101.87491    (37.9091,  57.9962)   
-22.87666 -49.23720 -23.84321 -26.19604 -69.58670 -102.02236    (38.7174,  59.0906)   
-23.09454 -48.28788 -24.62660 -26.00590 -69.60519 -102.16980    (39.5502,  60.2247)   
-23.31242 -47.33855 -25.40999 -25.81575 -69.62367 -102.31725    (40.4059,  61.396)   
-23.53030 -46.38923 -26.19339 -25.62561 -69.64216 -102.46469    (41.2831,  62.6019)   
-23.74818 -45.43991 -26.97678 -25.43546 -69.66064 -102.61214    (42.1806,  63.7568)   
-23.96606 -44.49058 -27.76017 -25.24532 -69.67913 -102.75959    (43.0969,  64.8852)   
-24.18395 -43.54126 -28.54356 -25.05517 -69.69761 -102.90703    (44.031,  66.0545)   
-24.40183 -42.59194 -29.32695 -24.86503 -69.71610 -103.05448    (44.9818,  67.2615)   
-24.61971 -41.64261 -30.11034 -24.67488 -69.73458 -103.20193    (45.9481,  68.5032)   
-24.83759 -40.69329 -30.89374 -24.48474 -69.75307 -103.34937    (46.9291,  69.7769)   
-25.05547 -39.74397 -31.67713 -24.29459 -69.77155 -103.49682    (47.9238,  71.0803)   
-25.27335 -38.79464 -32.46052 -24.10445 -69.79004 -103.64427    (48.9314,  72.4113)   
-25.49123 -37.84532 -33.24391 -23.91430 -69.80852 -103.79171    (49.9511,  73.768)   
-25.70911 -36.89600 -34.02730 -23.72416 -69.82701 -103.93916    (50.9822,  75.1485)   
-25.92699 -35.94668 -34.81070 -23.53401 -69.84549 -104.08660    (52.024,  76.5512)   
-26.14487 -34.99735 -35.59409 -23.34387 -69.86398 -104.23405    (53.076,  77.9748)   
-26.36275 -34.04803 -36.37748 -23.15372 -69.88246 -104.38150    (54.0746,  79.4178)   
-26.58064 -33.09871 -37.16087 -22.96357 -69.90095 -104.52894    (52.8785,  78.8344)   
-26.79852 -32.14938 -37.94426 -22.77343 -69.91943 -104.67639    (51.686,  77.2846)   
-27.01640 -31.20006 -38.72765 -22.58328 -69.93792 -104.82384    (50.4975,  75.6447)   
-27.23428 -30.25074 -39.51105 -22.39314 -69.95640 -104.97128    (49.3131,  74.0114)   
-27.45216 -29.30141 -40.29444 -22.20299 -69.97489 -105.11873    (48.1333,  72.3853)   
-27.67004 -28.35209 -41.07783 -22.01285 -69.99337 -105.26618    (46.9584,  70.7668)   
-27.88792 -27.40277 -41.86122 -21.82270 -70.01186 -105.41362    (45.7887,  69.1564)   
-28.10580 -26.45344 -42.64461 -21.63256 -70.03034 -105.56107    (44.6247,  67.5548)   
-28.32368 -25.50412 -43.42800 -21.44241 -70.04883 -105.70851    (43.4668,  65.9627)   
-28.54156 -24.55480 -44.21140 -21.25227 -70.06731 -105.85596    (42.3155,  64.381)   
-28.75944 -23.60547 -44.99479 -21.06212 -70.08580 -106.00341    (41.1714,  62.8105)   
-28.97732 -22.65615 -45.77818 -20.87198 -70.10428 -106.15085    (40.0351,  61.2524)   
-29.19521 -21.70683 -46.56157 -20.68183 -70.12277 -106.29830    (38.9072,  59.7078)   
-29.41309 -20.75751 -47.34496 -20.49169 -70.14125 -106.44575    (37.7885,  58.1784)   
-29.63097 -19.80818 -48.12836 -20.30154 -70.15974 -106.59319    (36.68,  56.6657)   
-29.84885 -18.85886 -48.91175 -20.11140 -70.17822 -106.74064    (35.5824,  55.1718)   
-30.06673 -17.90954 -49.69514 -19.92125 -70.19671 -106.88809    (34.4969,  53.6989)   
-30.28461 -16.96021 -50.47853 -19.73111 -70.21519 -107.03553    (33.4246,  52.2498)   
-30.50249 -16.01089 -51.26192 -19.54096 -70.23368 -107.18298    (32.3669,  50.8278)   
-30.72037 -15.06157 -52.04531 -19.35082 -70.25216 -107.33042    (31.3252,  49.4366)   
-30.93825 -52.82871 -14.11224 -19.16067 -107.47787 -70.27065    (30.3012,  48.0806)   
-31.15613 -53.61210 -13.16292 -18.97053 -107.62532 -70.28913    (29.2967,  46.7654)   
-31.37401 -54.39549 -12.21360 -18.78038 -107.77276 -70.30762    (28.3138,  45.4972)   
-31.59189 -55.17888 -11.26427 -18.59024 -107.92021 -70.32610    (27.3549,  44.2835)   
-31.80978 -55.96227 -10.31495 -18.40009 -108.06766 -70.34459    (26.4225,  43.1331)   
-32.02766 -56.74566  -9.36563 -18.20995 -108.21510 -70.36307    (25.5195,  42.0566)   
-32.24554 -57.52906  -8.41630 -18.01980 -108.36255 -70.38156    (24.6493,  41.0658)   
-32.46342 -58.31245  -7.46698 -17.82966 -108.51000 -70.40004    (23.8153,  40.1744)   
-32.68130 -59.09584  -6.51766 -17.63951 -108.65744 -70.41853    (23.0216,  39.3977)   
-32.89918 -59.87923  -5.56834 -17.44937 -108.80489 -70.43701    (22.2723,  38.0622)   
-33.11706 -60.66262  -4.61901 -17.25922 -108.95233 -70.45550    (21.5723,  36.4984)   
-33.33494 -61.44602  -3.66969 -17.06908 -109.09978 -70.47398    (20.9263,  34.9721)   
-33.55282 -62.22941  -2.72037 -16.87893 -109.24723 -70.49247    (20.3396,  33.4838)   
-33.77070 -63.01280  -1.77104 -16.68879 -109.39467 -70.51095    (19.8174,  32.034)   
-33.98858 -63.79619  -0.82172 -16.49864 -109.54212 -70.52944    (19.3649,  30.6227)   
-34.07886  -0.12760 -16.18089 -64.45198 -70.67553 -109.56196    (18.7533,  28.9994)   
-33.34742  -1.07693 -15.04142 -64.28605 -71.64334 -108.76009    (16.6696,  25.7772)   
-32.61598  -2.02625 -13.90196 -64.12012 -72.61114 -107.95821    (14.5859,  22.5551)   
-31.88453  -2.97557 -12.76249 -63.95418 -73.57895 -107.15633    (12.5022,  19.3329)   
-31.15309  -3.92490 -11.62302 -63.78825 -74.54676 -106.35446    (10.4185,  16.1108)   
-30.42165  -4.87422 -10.48355 -63.62232 -75.51457 -105.55258    (8.3348,  12.8886)   
-29.69021  -5.82354  -9.34408 -63.45639 -76.48238 -104.75070    (6.2511,  9.66645)   
-28.95876  -6.77287  -8.20461 -63.29046 -77.45018 -103.94883    (4.1674,  6.4443)   
-28.22732  -7.72219  -7.06515 -63.12453 -78.41799 -103.14695    (2.0837,  3.22215)   
-27.49588  -8.67151  -5.92568 -62.95860 -79.38580 -102.34507    (0,  7.62939e-06)   
-->
</g>
</g>
<!-- Run Constants
CIRCLEPLOT bool false
DISTANCEPLOT bool true
PRINTDISTANCEDATA bool true
GLITCHESONLY bool false
PLOT 2doubles 3 4
PERTURBBY double 0.05
GLITCHLEVEL double 3
BOUNDARYWINDOW double 0.065
FRAMESPERPATH int 200
STEPSPERFRAME int 100
TRIALS int 1
ALLBLACK bool false
FILEPREFIX string Fol
GRAPHSIZE int 0
BORDER int 0
PLOTSIZE int 0
CIRCLEPLOTSIZE int 2000
CIRCLERADIUS int 300
CIRCLESTROKEWIDTH int 30
G6LINEWIDTH int 3
DELONELINEWIDTH int 10
AXISWIDTH int 6
TICLENGTH int 20
VECTOR g6 
PERTURB g6Perturb 
MOVIEMODE MovieMode STAR
FOLLOWERMODE FollowerMode Follow
FIXRANDOMSEED fixRandomSeed true
RANDOMSEED int 18
TIMESTAMP bool true
END end 




-->
</svg>
