<?xml version="1.0" standalone="no"?>
<!-- the width and height set the total pixel output of the image in the browser -->
<!-- whatever is within the viewbox will be remapped to show in this size -->
<svg width="1000" height="1000" viewBox="1 0 1000 1000"  version="1.1" xmlns="http://www.w3.org/2000/svg" xmlns:xlink="http://www.w3.org/1999/xlink">
 <desc>ID (and file name) = Fol_2018-02-06.14_18_46.33_0.svg </desc> 
 <text x="280"  y="30"  font-family="sans-serif" font-size="20" > Trial vector = 0  </text> 
 <text x="700" y="30" font-family="sans-serif" font-size="20">Wall time passed: 26838 msec.</text>
<text x="450" y="30" font-family="sans-serif" font-size="20" fill="black" > Plotting g5 vs. g4</text>
<text x="300" y="60"  font-family="sans-serif" font-size="20" > Beginning vector    6.05605 -84.91910 -53.22585 -91.39207 -108.87816 -52.07063 </text>
<text x="300" y="85"  font-family="sans-serif" font-size="20" > Beginning cell   15.15048  12.49192  11.44263   1.52842   2.08270   1.85588 </text>
<text x="300" y="110"  font-family="sans-serif" font-size="20" > Ending vector  -47.16980 -46.01458  -6.05605 -78.86305 -102.82211 -97.44812 </text>
<text x="300" y="135"  font-family="sans-serif" font-size="20" > Ending cell   11.44263  12.49192  13.80697   1.84781   1.86633   1.61318 </text>




 <!--DISTANCE PLOT BEGINS-->


<!-- the following will scale and place the distance plot -->
<g  transform="translate(0,50) ">
<g transform="translate(150,700) scale(1 -1)">
   <polyline fill="none" stroke="black" stroke-width="10" points=" 5.2 ,0.000102011  10.4 ,19.8361  15.6 ,39.6722  20.8 ,59.5083  26 ,79.3444  31.2 ,99.1805  36.4 ,119.017  41.6 ,138.853  46.8 ,158.689  52 ,178.525  57.2 ,198.361  62.4 ,218.197  67.6 ,231.958  72.8 ,243.853  78 ,256.093  83.2 ,268.659  88.4 ,281.529  93.6 ,294.684  98.8 ,308.106  104 ,321.126  109.2 ,329.954  114.4 ,339.166  119.6 ,348.713  124.8 ,358.152  130 ,367.706  135.2 ,377.547  140.4 ,387.639  145.6 ,394.447  150.8 ,400.283  156 ,407.42  161.2 ,415.562  166.4 ,424.494  171.6 ,434.059  176.8 ,437.625  182 ,434.898  187.2 ,432.528  192.4 ,430.521  197.6 ,428.881  202.8 ,427.613  208 ,426.72  213.2 ,426.205  218.4 ,426.068  223.6 ,426.311  228.8 ,426.932  234 ,427.931  239.2 ,429.304  244.4 ,431.047  249.6 ,433.157  254.8 ,435.628  260 ,438.453  265.2 ,441.627  270.4 ,445.141  275.6 ,448.988  280.8 ,453.159  286 ,457.645  291.2 ,462.437  296.4 ,467.527  301.6 ,472.903  306.8 ,478.556  312 ,484.478  317.2 ,490.657  322.4 ,483.109  327.6 ,470.396  332.8 ,457.682  338 ,444.969  343.2 ,432.255  348.4 ,419.542  353.6 ,406.829  358.8 ,394.115  364 ,381.402  369.2 ,368.688  374.4 ,355.975  379.6 ,343.262  384.8 ,330.548  390 ,317.835  395.2 ,305.121  400.4 ,292.408  405.6 ,279.695  410.8 ,266.981  416 ,254.268  421.2 ,241.555  426.4 ,228.841  431.6 ,216.128  436.8 ,203.414  442 ,190.701  447.2 ,177.988  452.4 ,165.274  457.6 ,152.561  462.8 ,139.847  468 ,127.134  473.2 ,114.421  478.4 ,101.707  483.6 ,88.9938  488.8 ,76.2804  494 ,63.567  499.2 ,50.8536  504.4 ,38.1402  509.6 ,25.4268  514.8 ,12.7134  520 ,0.000102011  " />

<!--Draw the X and Y axes -->
<polyline fill="none" stroke="black" stroke-width="6"  points=" 600,0 0,0 0,520" />
<!-- -->

<line fill="none" stroke-width="3" boundary-string=""  stroke="lightblue" x1="0" y1="5.53969e-13" x2="5.2" y2="5.53969e-13" />
<line fill="none" stroke-width="3" boundary-string=""  stroke="lightblue" x1="5.2" y1="5.53969e-13" x2="10.4" y2="13.2832" />
<line fill="none" stroke-width="3" boundary-string=""  stroke="lightblue" x1="10.4" y1="13.2832" x2="15.6" y2="26.5664" />
<line fill="none" stroke-width="3" boundary-string=""  stroke="lightblue" x1="15.6" y1="26.5664" x2="20.8" y2="39.8495" />
<line fill="none" stroke-width="3" boundary-string=""  stroke="lightblue" x1="20.8" y1="39.8495" x2="26" y2="53.1327" />
<line fill="none" stroke-width="3" boundary-string=""  stroke="lightblue" x1="26" y1="53.1327" x2="31.2" y2="66.4159" />
<line fill="none" stroke-width="3" boundary-string=""  stroke="lightblue" x1="31.2" y1="66.4159" x2="36.4" y2="79.6991" />
<line fill="none" stroke-width="3" boundary-string=""  stroke="lightblue" x1="36.4" y1="79.6991" x2="41.6" y2="92.9822" />
<line fill="none" stroke-width="3" boundary-string=""  stroke="lightblue" x1="41.6" y1="92.9822" x2="46.8" y2="106.265" />
<line fill="none" stroke-width="3" boundary-string=""  stroke="lightblue" x1="46.8" y1="106.265" x2="52" y2="119.549" />
<line fill="none" stroke-width="3" boundary-string=""  stroke="lightblue" x1="52" y1="119.549" x2="57.2" y2="132.832" />
<line fill="none" stroke-width="3" boundary-string=""  stroke="lightblue" x1="57.2" y1="132.832" x2="62.4" y2="146.115" />
<line fill="none" stroke-width="3" boundary-string=""  stroke="lightblue" x1="62.4" y1="146.115" x2="67.6" y2="153.264" />
<line fill="none" stroke-width="3" boundary-string=""  stroke="lightblue" x1="67.6" y1="153.264" x2="72.8" y2="158.517" />
<line fill="none" stroke-width="3" boundary-string=""  stroke="lightblue" x1="72.8" y1="158.517" x2="78" y2="164.092" />
<line fill="none" stroke-width="3" boundary-string=""  stroke="lightblue" x1="78" y1="164.092" x2="83.2" y2="169.959" />
<line fill="none" stroke-width="3" boundary-string=""  stroke="lightblue" x1="83.2" y1="169.959" x2="88.4" y2="176.087" />
<line fill="none" stroke-width="3" boundary-string=""  stroke="lightblue" x1="88.4" y1="176.087" x2="93.6" y2="182.45" />
<line fill="none" stroke-width="3" boundary-string=""  stroke="lightblue" x1="93.6" y1="182.45" x2="98.8" y2="189.026" />
<line fill="none" stroke-width="3" boundary-string=""  stroke="lightblue" x1="98.8" y1="189.026" x2="104" y2="195.791" />
<line fill="none" stroke-width="3" boundary-string=""  stroke="lightblue" x1="104" y1="195.791" x2="109.2" y2="202.728" />
<line fill="none" stroke-width="3" boundary-string=""  stroke="lightblue" x1="109.2" y1="202.728" x2="114.4" y2="209.819" />
<line fill="none" stroke-width="3" boundary-string=""  stroke="lightblue" x1="114.4" y1="209.819" x2="119.6" y2="217.05" />
<line fill="none" stroke-width="3" boundary-string=""  stroke="lightblue" x1="119.6" y1="217.05" x2="124.8" y2="224.406" />
<line fill="none" stroke-width="3" boundary-string=""  stroke="lightblue" x1="124.8" y1="224.406" x2="130" y2="231.875" />
<line fill="none" stroke-width="3" boundary-string=""  stroke="lightblue" x1="130" y1="231.875" x2="135.2" y2="239.448" />
<line fill="none" stroke-width="3" boundary-string=""  stroke="lightblue" x1="135.2" y1="239.448" x2="140.4" y2="247.115" />
<line fill="none" stroke-width="3" boundary-string=""  stroke="lightblue" x1="140.4" y1="247.115" x2="145.6" y2="254.866" />
<line fill="none" stroke-width="3" boundary-string=""  stroke="lightblue" x1="145.6" y1="254.866" x2="150.8" y2="262.696" />
<line fill="none" stroke-width="3" boundary-string=""  stroke="lightblue" x1="150.8" y1="262.696" x2="156" y2="270.596" />
<line fill="none" stroke-width="3" boundary-string=""  stroke="lightblue" x1="156" y1="270.596" x2="161.2" y2="278.561" />
<line fill="none" stroke-width="3" boundary-string=""  stroke="lightblue" x1="161.2" y1="278.561" x2="166.4" y2="286.586" />
<line fill="none" stroke-width="3" boundary-string=""  stroke="lightblue" x1="166.4" y1="286.586" x2="171.6" y2="294.665" />
<line fill="none" stroke-width="3" boundary-string=""  stroke="lightblue" x1="171.6" y1="294.665" x2="176.8" y2="302.794" />
<line fill="none" stroke-width="3" boundary-string=""  stroke="lightblue" x1="176.8" y1="302.794" x2="182" y2="305.213" />
<line fill="none" stroke-width="3" boundary-string=""  stroke="lightblue" x1="182" y1="305.213" x2="187.2" y2="303.596" />
<line fill="none" stroke-width="3" boundary-string=""  stroke="lightblue" x1="187.2" y1="303.596" x2="192.4" y2="302.236" />
<line fill="none" stroke-width="3" boundary-string=""  stroke="lightblue" x1="192.4" y1="302.236" x2="197.6" y2="301.137" />
<line fill="none" stroke-width="3" boundary-string=""  stroke="lightblue" x1="197.6" y1="301.137" x2="202.8" y2="300.303" />
<line fill="none" stroke-width="3" boundary-string=""  stroke="lightblue" x1="202.8" y1="300.303" x2="208" y2="299.735" />
<line fill="none" stroke-width="3" boundary-string=""  stroke="lightblue" x1="208" y1="299.735" x2="213.2" y2="299.434" />
<line fill="none" stroke-width="3" boundary-string=""  stroke="lightblue" x1="213.2" y1="299.434" x2="218.4" y2="299.402" />
<line fill="none" stroke-width="3" boundary-string=""  stroke="lightblue" x1="218.4" y1="299.402" x2="223.6" y2="299.639" />
<line fill="none" stroke-width="3" boundary-string=""  stroke="lightblue" x1="223.6" y1="299.639" x2="228.8" y2="300.144" />
<line fill="none" stroke-width="3" boundary-string=""  stroke="lightblue" x1="228.8" y1="300.144" x2="234" y2="300.916" />
<line fill="none" stroke-width="3" boundary-string=""  stroke="lightblue" x1="234" y1="300.916" x2="239.2" y2="301.953" />
<line fill="none" stroke-width="3" boundary-string=""  stroke="lightblue" x1="239.2" y1="301.953" x2="244.4" y2="303.251" />
<line fill="none" stroke-width="3" boundary-string=""  stroke="lightblue" x1="244.4" y1="303.251" x2="249.6" y2="304.808" />
<line fill="none" stroke-width="3" boundary-string=""  stroke="lightblue" x1="249.6" y1="304.808" x2="254.8" y2="306.62" />
<line fill="none" stroke-width="3" boundary-string=""  stroke="lightblue" x1="254.8" y1="306.62" x2="260" y2="308.682" />
<line fill="none" stroke-width="3" boundary-string=""  stroke="lightblue" x1="260" y1="308.682" x2="265.2" y2="310.989" />
<line fill="none" stroke-width="3" boundary-string=""  stroke="lightblue" x1="265.2" y1="310.989" x2="270.4" y2="313.536" />
<line fill="none" stroke-width="3" boundary-string=""  stroke="lightblue" x1="270.4" y1="313.536" x2="275.6" y2="316.317" />
<line fill="none" stroke-width="3" boundary-string=""  stroke="lightblue" x1="275.6" y1="316.317" x2="280.8" y2="319.325" />
<line fill="none" stroke-width="3" boundary-string=""  stroke="lightblue" x1="280.8" y1="319.325" x2="286" y2="322.556" />
<line fill="none" stroke-width="3" boundary-string=""  stroke="lightblue" x1="286" y1="322.556" x2="291.2" y2="326.001" />
<line fill="none" stroke-width="3" boundary-string=""  stroke="lightblue" x1="291.2" y1="326.001" x2="296.4" y2="329.654" />
<line fill="none" stroke-width="3" boundary-string=""  stroke="lightblue" x1="296.4" y1="329.654" x2="301.6" y2="333.509" />
<line fill="none" stroke-width="3" boundary-string=""  stroke="lightblue" x1="301.6" y1="333.509" x2="306.8" y2="337.558" />
<line fill="none" stroke-width="3" boundary-string=""  stroke="lightblue" x1="306.8" y1="337.558" x2="312" y2="341.795" />
<line fill="none" stroke-width="3" boundary-string=""  stroke="lightblue" x1="312" y1="341.795" x2="317.2" y2="346.213" />
<line fill="none" stroke-width="3" boundary-string=""  stroke="lightblue" x1="317.2" y1="346.213" x2="322.4" y2="340.902" />
<line fill="none" stroke-width="3" boundary-string=""  stroke="lightblue" x1="322.4" y1="340.902" x2="327.6" y2="331.931" />
<line fill="none" stroke-width="3" boundary-string=""  stroke="lightblue" x1="327.6" y1="331.931" x2="332.8" y2="322.96" />
<line fill="none" stroke-width="3" boundary-string=""  stroke="lightblue" x1="332.8" y1="322.96" x2="338" y2="313.989" />
<line fill="none" stroke-width="3" boundary-string=""  stroke="lightblue" x1="338" y1="313.989" x2="343.2" y2="305.018" />
<line fill="none" stroke-width="3" boundary-string=""  stroke="lightblue" x1="343.2" y1="305.018" x2="348.4" y2="296.046" />
<line fill="none" stroke-width="3" boundary-string=""  stroke="lightblue" x1="348.4" y1="296.046" x2="353.6" y2="287.075" />
<line fill="none" stroke-width="3" boundary-string=""  stroke="lightblue" x1="353.6" y1="287.075" x2="358.8" y2="278.104" />
<line fill="none" stroke-width="3" boundary-string=""  stroke="lightblue" x1="358.8" y1="278.104" x2="364" y2="269.133" />
<line fill="none" stroke-width="3" boundary-string=""  stroke="lightblue" x1="364" y1="269.133" x2="369.2" y2="260.162" />
<line fill="none" stroke-width="3" boundary-string=""  stroke="lightblue" x1="369.2" y1="260.162" x2="374.4" y2="251.191" />
<line fill="none" stroke-width="3" boundary-string=""  stroke="lightblue" x1="374.4" y1="251.191" x2="379.6" y2="242.22" />
<line fill="none" stroke-width="3" boundary-string=""  stroke="lightblue" x1="379.6" y1="242.22" x2="384.8" y2="233.249" />
<line fill="none" stroke-width="3" boundary-string=""  stroke="lightblue" x1="384.8" y1="233.249" x2="390" y2="224.278" />
<line fill="none" stroke-width="3" boundary-string=""  stroke="lightblue" x1="390" y1="224.278" x2="395.2" y2="215.306" />
<line fill="none" stroke-width="3" boundary-string=""  stroke="lightblue" x1="395.2" y1="215.306" x2="400.4" y2="206.335" />
<line fill="none" stroke-width="3" boundary-string=""  stroke="lightblue" x1="400.4" y1="206.335" x2="405.6" y2="197.364" />
<line fill="none" stroke-width="3" boundary-string=""  stroke="lightblue" x1="405.6" y1="197.364" x2="410.8" y2="188.393" />
<line fill="none" stroke-width="3" boundary-string=""  stroke="lightblue" x1="410.8" y1="188.393" x2="416" y2="179.422" />
<line fill="none" stroke-width="3" boundary-string=""  stroke="lightblue" x1="416" y1="179.422" x2="421.2" y2="170.451" />
<line fill="none" stroke-width="3" boundary-string=""  stroke="lightblue" x1="421.2" y1="170.451" x2="426.4" y2="161.48" />
<line fill="none" stroke-width="3" boundary-string=""  stroke="lightblue" x1="426.4" y1="161.48" x2="431.6" y2="152.509" />
<line fill="none" stroke-width="3" boundary-string=""  stroke="lightblue" x1="431.6" y1="152.509" x2="436.8" y2="143.538" />
<line fill="none" stroke-width="3" boundary-string=""  stroke="lightblue" x1="436.8" y1="143.538" x2="442" y2="134.567" />
<line fill="none" stroke-width="3" boundary-string=""  stroke="lightblue" x1="442" y1="134.567" x2="447.2" y2="125.595" />
<line fill="none" stroke-width="3" boundary-string=""  stroke="lightblue" x1="447.2" y1="125.595" x2="452.4" y2="116.624" />
<line fill="none" stroke-width="3" boundary-string=""  stroke="lightblue" x1="452.4" y1="116.624" x2="457.6" y2="107.653" />
<line fill="none" stroke-width="3" boundary-string=""  stroke="lightblue" x1="457.6" y1="107.653" x2="462.8" y2="98.6821" />
<line fill="none" stroke-width="3" boundary-string=""  stroke="lightblue" x1="462.8" y1="98.6821" x2="468" y2="89.711" />
<line fill="none" stroke-width="3" boundary-string=""  stroke="lightblue" x1="468" y1="89.711" x2="473.2" y2="80.7399" />
<line fill="none" stroke-width="3" boundary-string=""  stroke="lightblue" x1="473.2" y1="80.7399" x2="478.4" y2="71.7688" />
<line fill="none" stroke-width="3" boundary-string=""  stroke="lightblue" x1="478.4" y1="71.7688" x2="483.6" y2="62.7977" />
<line fill="none" stroke-width="3" boundary-string=""  stroke="lightblue" x1="483.6" y1="62.7977" x2="488.8" y2="53.8266" />
<line fill="none" stroke-width="3" boundary-string=""  stroke="lightblue" x1="488.8" y1="53.8266" x2="494" y2="44.8555" />
<line fill="none" stroke-width="3" boundary-string=""  stroke="lightblue" x1="494" y1="44.8555" x2="499.2" y2="35.8844" />
<line fill="none" stroke-width="3" boundary-string=""  stroke="lightblue" x1="499.2" y1="35.8844" x2="504.4" y2="26.9133" />
<line fill="none" stroke-width="3" boundary-string=""  stroke="lightblue" x1="504.4" y1="26.9133" x2="509.6" y2="17.9422" />
<line fill="none" stroke-width="3" boundary-string=""  stroke="lightblue" x1="509.6" y1="17.9422" x2="514.8" y2="8.9711" />
<line fill="none" stroke-width="3" boundary-string=""  stroke="lightblue" x1="514.8" y1="8.9711" x2="520" y2="0" />

<!--Draw the X and Y axes -->
<polyline fill="none" stroke="black" stroke-width="6"  points=" 600,0 0,0 0,520" />
<!-- -->


<!--Draw labels and tics for X axis -->

<line fill="none" stroke="black"  stroke-width="6"  x1="0.5" y1="0" x2="0.5" y2="-20" />
<text transform="scale(1,-1)" font-family="sans-serif" font-size="30" x="-24.5" y="45" >0 </text>
<line fill="none" stroke="black"  stroke-width="6"  x1="104.5" y1="0" x2="104.5" y2="-20" />
<text transform="scale(1,-1)" font-family="sans-serif" font-size="30" x="79.5" y="45" >20 </text>
<line fill="none" stroke="black"  stroke-width="6"  x1="208.5" y1="0" x2="208.5" y2="-20" />
<text transform="scale(1,-1)" font-family="sans-serif" font-size="30" x="183.5" y="45" >40 </text>
<line fill="none" stroke="black"  stroke-width="6"  x1="312.5" y1="0" x2="312.5" y2="-20" />
<text transform="scale(1,-1)" font-family="sans-serif" font-size="30" x="287.5" y="45" >60 </text>
<line fill="none" stroke="black"  stroke-width="6"  x1="416.5" y1="0" x2="416.5" y2="-20" />
<text transform="scale(1,-1)" font-family="sans-serif" font-size="30" x="391.5" y="45" >80 </text>
<line fill="none" stroke="black"  stroke-width="6"  x1="520.5" y1="0" x2="520.5" y2="-20" />
<text transform="scale(1,-1)" font-family="sans-serif" font-size="30" x="495.5" y="45" >100 </text>


<!--Draw labels and tics for Y axis -->

<line fill="none" stroke="black" stroke-width="6" x1="0.0" y1="0" x2="-20" y2="0" />
<text transform="scale(1,-1)" text-anchor="end" font-family="sans-serif" font-size="30" x="-25" y="10" >0 </text>
<line fill="none" stroke="black" stroke-width="6" x1="0.0" y1="47.2727" x2="-20" y2="47.2727" />
<text transform="scale(1,-1)" text-anchor="end" font-family="sans-serif" font-size="30" x="-25" y="-37.2727" >5 </text>
<line fill="none" stroke="black" stroke-width="6" x1="0.0" y1="94.5455" x2="-20" y2="94.5455" />
<text transform="scale(1,-1)" text-anchor="end" font-family="sans-serif" font-size="30" x="-25" y="-84.5455" >10 </text>
<line fill="none" stroke="black" stroke-width="6" x1="0.0" y1="141.818" x2="-20" y2="141.818" />
<text transform="scale(1,-1)" text-anchor="end" font-family="sans-serif" font-size="30" x="-25" y="-131.818" >15 </text>
<line fill="none" stroke="black" stroke-width="6" x1="0.0" y1="189.091" x2="-20" y2="189.091" />
<text transform="scale(1,-1)" text-anchor="end" font-family="sans-serif" font-size="30" x="-25" y="-179.091" >20 </text>
<line fill="none" stroke="black" stroke-width="6" x1="0.0" y1="236.364" x2="-20" y2="236.364" />
<text transform="scale(1,-1)" text-anchor="end" font-family="sans-serif" font-size="30" x="-25" y="-226.364" >25 </text>
<line fill="none" stroke="black" stroke-width="6" x1="0.0" y1="283.636" x2="-20" y2="283.636" />
<text transform="scale(1,-1)" text-anchor="end" font-family="sans-serif" font-size="30" x="-25" y="-273.636" >30 </text>
<line fill="none" stroke="black" stroke-width="6" x1="0.0" y1="330.909" x2="-20" y2="330.909" />
<text transform="scale(1,-1)" text-anchor="end" font-family="sans-serif" font-size="30" x="-25" y="-320.909" >35 </text>
<line fill="none" stroke="black" stroke-width="6" x1="0.0" y1="378.182" x2="-20" y2="378.182" />
<text transform="scale(1,-1)" text-anchor="end" font-family="sans-serif" font-size="30" x="-25" y="-368.182" >40 </text>
<line fill="none" stroke="black" stroke-width="6" x1="0.0" y1="425.455" x2="-20" y2="425.455" />
<text transform="scale(1,-1)" text-anchor="end" font-family="sans-serif" font-size="30" x="-25" y="-415.455" >45 </text>
<line fill="none" stroke="black" stroke-width="6" x1="0.0" y1="472.727" x2="-20" y2="472.727" />
<text transform="scale(1,-1)" text-anchor="end" font-family="sans-serif" font-size="30" x="-25" y="-462.727" >50 </text>
<line fill="none" stroke="black" stroke-width="6" x1="0.0" y1="520" x2="-20" y2="520" />
<text transform="scale(1,-1)" text-anchor="end" font-family="sans-serif" font-size="30" x="-25" y="-510" >55 </text>


<!-- Reduced vector followed by D7dist from the final reduced cell
-47.16980 -46.01458  -6.05605 -78.86305 -102.82211 -97.44812    (5.85929e-14,  1.07896e-05)   
-47.23097 -47.01057  -5.51842 -79.00771 -103.29858 -96.78393    (1.40495,  2.09805)   
-47.29215 -48.00657  -4.98078 -79.15237 -103.77504 -96.11974    (2.8099,  4.1961)   
-47.35332 -49.00256  -4.44315 -79.29703 -104.25150 -95.45555    (4.21485,  6.29415)   
-47.41449 -49.99855  -3.90551 -79.44169 -104.72796 -94.79136    (5.61981,  8.3922)   
-47.47566 -50.99455  -3.36788 -79.58635 -105.20443 -94.12717    (7.02476,  10.4902)   
-47.53684 -51.99054  -2.83024 -79.73101 -105.68089 -93.46298    (8.42971,  12.5883)   
-47.59801 -52.98653  -2.29261 -79.87567 -106.15735 -92.79879    (9.83466,  14.6863)   
-47.65918 -53.98253  -1.75497 -80.02033 -106.63381 -92.13460    (11.2396,  16.7844)   
-47.72035 -54.97852  -1.21734 -80.16499 -107.11028 -91.47041    (12.6446,  18.8824)   
-47.78152 -55.97451  -0.67970 -80.30965 -107.58674 -90.80622    (14.0495,  20.9805)   
-47.84270 -56.97051  -0.14207 -80.45431 -108.06320 -90.14203    (15.4545,  23.0785)   
-47.50830 -80.20340  -0.39557 -57.57093 -108.14410 -89.87340    (16.2106,  24.534)   
-47.03184 -79.81042  -0.93320 -58.02929 -108.08293 -89.74685    (16.7662,  25.7921)   
-46.55538 -79.41745  -1.47084 -58.48765 -108.02175 -89.62029    (17.3559,  27.0868)   
-46.07891 -79.02447  -2.00847 -58.94601 -107.96058 -89.49373    (17.9764,  28.4158)   
-45.60245 -78.63150  -2.54611 -59.40437 -107.89941 -89.36718    (18.6246,  29.7771)   
-45.12599 -78.23853  -3.08374 -59.86273 -107.83824 -89.24062    (19.2976,  31.1685)   
-44.64953 -77.84555  -3.62138 -60.32109 -107.77706 -89.11407    (19.9931,  32.5881)   
-44.17306 -77.45258  -4.15901 -60.77944 -107.71589 -88.98751    (20.7087,  33.9653)   
-43.69660 -77.05960  -4.69665 -61.23780 -107.65472 -88.86096    (21.4424,  34.899)   
-43.22014 -76.66663  -5.23428 -61.69616 -107.59355 -88.73440    (22.1924,  35.8733)   
-42.74368 -76.27365  -5.77192 -62.15452 -107.53238 -88.60784    (22.9572,  36.8831)   
-42.26721 -75.88068  -6.30955 -62.61288 -107.47120 -88.48129    (23.7352,  37.8814)   
-41.79075 -75.48770  -6.84719 -63.07124 -107.41003 -88.35473    (24.5253,  38.892)   
-41.31429 -75.09473  -7.38482 -63.52959 -107.34886 -88.22818    (25.3262,  39.9328)   
-40.83783 -74.70175  -7.92245 -63.98795 -107.28769 -88.10162    (26.1371,  41.0003)   
-40.36136 -74.30878  -8.46009 -64.44631 -107.22651 -87.97506    (26.957,  41.7203)   
-39.88490 -73.91580  -8.99772 -64.90467 -107.16534 -87.84851    (27.7851,  42.3377)   
-39.40844 -73.52283  -9.53536 -65.36303 -107.10417 -87.72195    (28.6207,  43.0925)   
-38.93197 -73.12985 -10.07299 -65.82139 -107.04300 -87.59540    (29.4632,  43.9537)   
-38.45551 -72.73688 -10.61063 -66.27975 -106.98183 -87.46884    (30.3119,  44.8984)   
-37.97905 -72.34390 -11.14826 -66.73810 -106.92065 -87.34229    (31.1665,  45.91)   
-37.50259 -71.95093 -11.68590 -67.19646 -106.85948 -87.21573    (32.0263,  46.2873)   
-37.02612 -71.55795 -12.22353 -67.65482 -106.79831 -87.08917    (32.2822,  45.9989)   
-36.54966 -71.16498 -12.76117 -68.11318 -106.73714 -86.96262    (32.1111,  45.7482)   
-36.07320 -70.77200 -13.29880 -68.57154 -106.67596 -86.83606    (31.9673,  45.5359)   
-35.59674 -70.37903 -13.83644 -69.02990 -106.61479 -86.70951    (31.8511,  45.3624)   
-35.12027 -69.98605 -14.37407 -69.48826 -106.55362 -86.58295    (31.7628,  45.2283)   
-34.64381 -69.59308 -14.91171 -69.94661 -106.49245 -86.45639    (31.7027,  45.1338)   
-34.16735 -69.20010 -15.44934 -70.40497 -106.43128 -86.32984    (31.6709,  45.0793)   
-33.69089 -68.80713 -15.98698 -70.86333 -106.37010 -86.20328    (31.6676,  45.0649)   
-68.41415 -33.21442 -16.52461 -106.30893 -71.32169 -86.07673    (31.6926,  45.0906)   
-68.02118 -32.73796 -17.06225 -106.24776 -71.78005 -85.95017    (31.746,  45.1563)   
-67.62820 -32.26150 -17.59988 -106.18659 -72.23841 -85.82362    (31.8277,  45.2619)   
-67.23523 -31.78503 -18.13752 -106.12541 -72.69676 -85.69706    (31.9373,  45.4071)   
-66.84225 -31.30857 -18.67515 -106.06424 -73.15512 -85.57050    (32.0746,  45.5915)   
-66.44928 -30.83211 -19.21279 -106.00307 -73.61348 -85.44395    (32.2393,  45.8147)   
-66.05630 -30.35565 -19.75042 -105.94190 -74.07184 -85.31739    (32.4309,  46.076)   
-65.66333 -29.87918 -20.28806 -105.88072 -74.53020 -85.19084    (32.649,  46.3749)   
-65.27035 -29.40272 -20.82569 -105.81955 -74.98856 -85.06428    (32.893,  46.7105)   
-64.87738 -28.92626 -21.36333 -105.75838 -75.44692 -84.93773    (33.1624,  47.0822)   
-64.48440 -28.44980 -21.90096 -105.69721 -75.90527 -84.81117    (33.4566,  47.4891)   
-64.09143 -27.97333 -22.43860 -105.63604 -76.36363 -84.68461    (33.7748,  47.9303)   
-63.69845 -27.49687 -22.97623 -105.57486 -76.82199 -84.55806    (34.1165,  48.4048)   
-63.30548 -27.02041 -23.51387 -105.51369 -77.28035 -84.43150    (34.4809,  48.9117)   
-62.91250 -26.54395 -24.05150 -105.45252 -77.73871 -84.30495    (34.8673,  49.4499)   
-62.51953 -26.06748 -24.58914 -105.39135 -78.19707 -84.17839    (35.275,  50.0185)   
-62.12655 -25.59102 -25.12677 -105.33017 -78.65543 -84.05183    (35.7033,  50.6165)   
-61.73358 -25.11456 -25.66441 -105.26900 -79.11378 -83.92528    (36.1514,  51.2428)   
-61.34060 -24.63810 -26.20204 -105.20783 -79.57214 -83.79872    (36.6187,  51.8964)   
-60.94763 -24.16163 -26.73968 -105.14666 -80.03050 -83.67217    (36.0569,  51.0981)   
-60.55465 -27.27731 -23.68517 -105.08549 -83.54561 -80.48886    (35.1081,  49.7534)   
-60.16168 -27.81495 -23.20871 -105.02431 -83.41906 -80.94722    (34.1592,  48.4087)   
-59.76870 -28.35258 -22.73224 -104.96314 -83.29250 -81.40558    (33.2103,  47.064)   
-59.37573 -28.89022 -22.25578 -104.90197 -83.16594 -81.86393    (32.2615,  45.7193)   
-58.98275 -29.42785 -21.77932 -104.84080 -83.03939 -82.32229    (31.3126,  44.3746)   
-58.58978 -29.96549 -21.30286 -104.77962 -82.91283 -82.78065    (30.3637,  43.03)   
-58.19680 -30.50312 -20.82639 -104.71845 -82.78628 -83.23901    (29.4149,  41.6853)   
-57.80383 -31.04076 -20.34993 -104.65728 -82.65972 -83.69737    (28.466,  40.3406)   
-57.41085 -31.57839 -19.87347 -104.59611 -82.53317 -84.15573    (27.5171,  38.9959)   
-57.01788 -32.11602 -19.39701 -104.53494 -82.40661 -84.61409    (26.5683,  37.6512)   
-56.62490 -32.65366 -18.92054 -104.47376 -82.28005 -85.07244    (25.6194,  36.3065)   
-56.23193 -33.19129 -18.44408 -104.41259 -82.15350 -85.53080    (24.6705,  34.9618)   
-33.72893 -55.83895 -17.96762 -82.02694 -104.35142 -85.98916    (23.7217,  33.6171)   
-34.26656 -55.44598 -17.49116 -81.90039 -104.29025 -86.44752    (22.7728,  32.2725)   
-34.80420 -55.05300 -17.01469 -81.77383 -104.22907 -86.90588    (21.8239,  30.9278)   
-35.34183 -54.66003 -16.53823 -81.64727 -104.16790 -87.36424    (20.8751,  29.5831)   
-35.87947 -54.26705 -16.06177 -81.52072 -104.10673 -87.82259    (19.9262,  28.2384)   
-36.41710 -53.87408 -15.58531 -81.39416 -104.04556 -88.28095    (18.9773,  26.8937)   
-36.95474 -53.48110 -15.10884 -81.26761 -103.98439 -88.73931    (18.0285,  25.549)   
-37.49237 -53.08813 -14.63238 -81.14105 -103.92321 -89.19767    (17.0796,  24.2043)   
-38.03001 -52.69515 -14.15592 -81.01450 -103.86204 -89.65603    (16.1307,  22.8597)   
-38.56764 -52.30218 -13.67945 -80.88794 -103.80087 -90.11439    (15.1819,  21.515)   
-39.10528 -51.90920 -13.20299 -80.76138 -103.73970 -90.57275    (14.233,  20.1703)   
-39.64291 -51.51623 -12.72653 -80.63483 -103.67852 -91.03110    (13.2841,  18.8256)   
-40.18055 -51.12325 -12.25007 -80.50827 -103.61735 -91.48946    (12.3353,  17.4809)   
-40.71818 -50.73028 -11.77360 -80.38172 -103.55618 -91.94782    (11.3864,  16.1362)   
-41.25582 -50.33730 -11.29714 -80.25516 -103.49501 -92.40618    (10.4375,  14.7915)   
-41.79345 -49.94433 -10.82068 -80.12860 -103.43384 -92.86454    (9.48867,  13.4469)   
-42.33109 -49.55135 -10.34422 -80.00205 -103.37266 -93.32290    (8.5398,  12.1022)   
-42.86872 -49.15838  -9.86775 -79.87549 -103.31149 -93.78126    (7.59093,  10.7575)   
-43.40636 -48.76540  -9.39129 -79.74894 -103.25032 -94.23961    (6.64207,  9.4128)   
-43.94399 -48.37243  -8.91483 -79.62238 -103.18915 -94.69797    (5.6932,  8.06812)   
-44.48163 -47.97945  -8.43837 -79.49583 -103.12797 -95.15633    (4.74433,  6.72343)   
-45.01926 -47.58648  -7.96190 -79.36927 -103.06680 -95.61469    (3.79547,  5.37874)   
-45.55690 -47.19350  -7.48544 -79.24271 -103.00563 -96.07305    (2.8466,  4.03406)   
-46.09453 -46.80053  -7.00898 -79.11616 -102.94446 -96.53141    (1.89773,  2.68937)   
-46.63217 -46.40755  -6.53251 -78.98960 -102.88329 -96.98976    (0.948867,  1.34469)   
-47.16980 -46.01458  -6.05605 -78.86305 -102.82211 -97.44812    (0,  1.07896e-05)   
-->
</g>
</g>
<!-- Run Constants
CIRCLEPLOT bool false
DISTANCEPLOT bool true
PRINTDISTANCEDATA bool true
GLITCHESONLY bool false
PLOT 2doubles 3 4
PERTURBBY double 0.05
GLITCHLEVEL double 3
BOUNDARYWINDOW double 0.065
FRAMESPERPATH int 200
STEPSPERFRAME int 100
TRIALS int 1
ALLBLACK bool false
FILEPREFIX string Fol
GRAPHSIZE int 0
BORDER int 0
PLOTSIZE int 0
CIRCLEPLOTSIZE int 2000
CIRCLERADIUS int 300
CIRCLESTROKEWIDTH int 30
G6LINEWIDTH int 3
DELONELINEWIDTH int 10
AXISWIDTH int 6
TICLENGTH int 20
VECTOR g6 
PERTURB g6Perturb 
MOVIEMODE MovieMode STAR
FOLLOWERMODE FollowerMode Follow
FIXRANDOMSEED fixRandomSeed true
RANDOMSEED int 18
TIMESTAMP bool true
END end 




-->
</svg>
