<?xml version="1.0" standalone="no"?>
<!-- the width and height set the total pixel output of the image in the browser -->
<!-- whatever is within the viewbox will be remapped to show in this size -->
<svg width="1000" height="1000" viewBox="1 0 1000 1000"  version="1.1" xmlns="http://www.w3.org/2000/svg" xmlns:xlink="http://www.w3.org/1999/xlink">
 <desc>ID (and file name) = Fol_2018-02-13.10_49_29.80_0.svg </desc> 
 <text x="280"  y="30"  font-family="sans-serif" font-size="20" > Trial vector = 0  </text> 
 <text x="700" y="30" font-family="sans-serif" font-size="20">Wall time passed: 29967 msec.</text>
<text x="450" y="30" font-family="sans-serif" font-size="20" fill="black" > Plotting g5 vs. g4</text>
<text x="300" y="60"  font-family="sans-serif" font-size="20" > Beginning vector  870.72136  64.91123 660.44316 -1843.57671 -5230.99167 -1860.80591 </text>
<text x="300" y="85"  font-family="sans-serif" font-size="20" > Beginning cell   33.43983  60.82620  30.41666   1.08079   1.50693   1.24010 </text>
<text x="300" y="110"  font-family="sans-serif" font-size="20" > Ending vector  522.69040 119.36320  64.91123 -1109.44775 -1705.82396 -3452.76983 </text>
<text x="300" y="135"  font-family="sans-serif" font-size="20" > Ending cell   30.41666  33.43983  53.01619   1.27152   1.49671   1.50693 </text>




 <!--DISTANCE PLOT BEGINS-->


<!-- the following will scale and place the distance plot -->
<g  transform="translate(0,50) ">
<g transform="translate(150,700) scale(1 -1)">
   <polyline fill="none" stroke="black" stroke-width="10" points=" 5.2 ,3.52648e-05  10.4 ,11.8525  15.6 ,23.7051  20.8 ,35.5576  26 ,47.4102  31.2 ,59.2627  36.4 ,71.1152  41.6 ,82.9678  46.8 ,94.8203  52 ,106.673  57.2 ,118.525  62.4 ,130.378  67.6 ,142.23  72.8 ,154.083  78 ,165.936  83.2 ,177.788  88.4 ,189.641  93.6 ,201.493  98.8 ,213.346  104 ,225.198  109.2 ,237.051  114.4 ,248.903  119.6 ,259.032  124.8 ,262.338  130 ,264.855  135.2 ,266.132  140.4 ,267.927  145.6 ,270.231  150.8 ,273.03  156 ,276.31  161.2 ,280.053  166.4 ,284.242  171.6 ,288.857  176.8 ,293.877  182 ,299.283  187.2 ,305.054  192.4 ,311.169  197.6 ,317.61  202.8 ,324.355  208 ,331.388  213.2 ,338.689  218.4 ,346.242  223.6 ,354.031  228.8 ,362.04  234 ,370.256  239.2 ,378.664  244.4 ,387.252  249.6 ,396.01  254.8 ,404.924  260 ,413.986  265.2 ,423.186  270.4 ,432.516  275.6 ,441.966  280.8 ,451.529  286 ,461.199  291.2 ,470.968  296.4 ,480.832  301.6 ,489.964  306.8 ,478.197  312 ,466.457  317.2 ,454.746  322.4 ,443.066  327.6 ,431.421  332.8 ,419.815  338 ,408.255  343.2 ,396.748  348.4 ,385.305  353.6 ,373.943  358.8 ,362.684  364 ,351.562  369.2 ,340.63  374.4 ,329.974  379.6 ,318.171  384.8 ,306.384  390 ,294.614  395.2 ,282.864  400.4 ,271.137  405.6 ,259.436  410.8 ,247.767  416 ,236.136  421.2 ,224.55  426.4 ,213.021  431.6 ,201.563  436.8 ,190.198  442 ,178.955  447.2 ,167.879  452.4 ,157.04  457.6 ,146.553  462.8 ,135.453  468 ,122.608  473.2 ,109.98  478.4 ,97.6624  483.6 ,85.4546  488.8 ,73.2468  494 ,61.039  499.2 ,48.8312  504.4 ,36.6234  509.6 ,24.4156  514.8 ,12.2078  520 ,0  " />

<!--Draw the X and Y axes -->
<polyline fill="none" stroke="black" stroke-width="6"  points=" 600,0 0,0 0,520" />
<!-- -->

<line fill="none" stroke-width="3" boundary-string=""  stroke="lightblue" x1="0" y1="2.86317e-13" x2="5.2" y2="2.86317e-13" />
<line fill="none" stroke-width="3" boundary-string=""  stroke="lightblue" x1="5.2" y1="2.86317e-13" x2="10.4" y2="8.3795" />
<line fill="none" stroke-width="3" boundary-string=""  stroke="lightblue" x1="10.4" y1="8.3795" x2="15.6" y2="16.759" />
<line fill="none" stroke-width="3" boundary-string=""  stroke="lightblue" x1="15.6" y1="16.759" x2="20.8" y2="25.1385" />
<line fill="none" stroke-width="3" boundary-string=""  stroke="lightblue" x1="20.8" y1="25.1385" x2="26" y2="33.518" />
<line fill="none" stroke-width="3" boundary-string=""  stroke="lightblue" x1="26" y1="33.518" x2="31.2" y2="41.8975" />
<line fill="none" stroke-width="3" boundary-string=""  stroke="lightblue" x1="31.2" y1="41.8975" x2="36.4" y2="50.277" />
<line fill="none" stroke-width="3" boundary-string=""  stroke="lightblue" x1="36.4" y1="50.277" x2="41.6" y2="58.6565" />
<line fill="none" stroke-width="3" boundary-string=""  stroke="lightblue" x1="41.6" y1="58.6565" x2="46.8" y2="67.036" />
<line fill="none" stroke-width="3" boundary-string=""  stroke="lightblue" x1="46.8" y1="67.036" x2="52" y2="75.4155" />
<line fill="none" stroke-width="3" boundary-string=""  stroke="lightblue" x1="52" y1="75.4155" x2="57.2" y2="83.795" />
<line fill="none" stroke-width="3" boundary-string=""  stroke="lightblue" x1="57.2" y1="83.795" x2="62.4" y2="92.1745" />
<line fill="none" stroke-width="3" boundary-string=""  stroke="lightblue" x1="62.4" y1="92.1745" x2="67.6" y2="100.554" />
<line fill="none" stroke-width="3" boundary-string=""  stroke="lightblue" x1="67.6" y1="100.554" x2="72.8" y2="108.934" />
<line fill="none" stroke-width="3" boundary-string=""  stroke="lightblue" x1="72.8" y1="108.934" x2="78" y2="117.313" />
<line fill="none" stroke-width="3" boundary-string=""  stroke="lightblue" x1="78" y1="117.313" x2="83.2" y2="125.693" />
<line fill="none" stroke-width="3" boundary-string=""  stroke="lightblue" x1="83.2" y1="125.693" x2="88.4" y2="134.072" />
<line fill="none" stroke-width="3" boundary-string=""  stroke="lightblue" x1="88.4" y1="134.072" x2="93.6" y2="142.452" />
<line fill="none" stroke-width="3" boundary-string=""  stroke="lightblue" x1="93.6" y1="142.452" x2="98.8" y2="150.831" />
<line fill="none" stroke-width="3" boundary-string=""  stroke="lightblue" x1="98.8" y1="150.831" x2="104" y2="159.211" />
<line fill="none" stroke-width="3" boundary-string=""  stroke="lightblue" x1="104" y1="159.211" x2="109.2" y2="167.362" />
<line fill="none" stroke-width="3" boundary-string=""  stroke="lightblue" x1="109.2" y1="167.362" x2="114.4" y2="175.089" />
<line fill="none" stroke-width="3" boundary-string=""  stroke="lightblue" x1="114.4" y1="175.089" x2="119.6" y2="180.741" />
<line fill="none" stroke-width="3" boundary-string=""  stroke="lightblue" x1="119.6" y1="180.741" x2="124.8" y2="182.615" />
<line fill="none" stroke-width="3" boundary-string=""  stroke="lightblue" x1="124.8" y1="182.615" x2="130" y2="184.851" />
<line fill="none" stroke-width="3" boundary-string=""  stroke="lightblue" x1="130" y1="184.851" x2="135.2" y2="187.434" />
<line fill="none" stroke-width="3" boundary-string=""  stroke="lightblue" x1="135.2" y1="187.434" x2="140.4" y2="189.408" />
<line fill="none" stroke-width="3" boundary-string=""  stroke="lightblue" x1="140.4" y1="189.408" x2="145.6" y2="191.034" />
<line fill="none" stroke-width="3" boundary-string=""  stroke="lightblue" x1="145.6" y1="191.034" x2="150.8" y2="193.01" />
<line fill="none" stroke-width="3" boundary-string=""  stroke="lightblue" x1="150.8" y1="193.01" x2="156" y2="195.326" />
<line fill="none" stroke-width="3" boundary-string=""  stroke="lightblue" x1="156" y1="195.326" x2="161.2" y2="197.97" />
<line fill="none" stroke-width="3" boundary-string=""  stroke="lightblue" x1="161.2" y1="197.97" x2="166.4" y2="200.929" />
<line fill="none" stroke-width="3" boundary-string=""  stroke="lightblue" x1="166.4" y1="200.929" x2="171.6" y2="204.189" />
<line fill="none" stroke-width="3" boundary-string=""  stroke="lightblue" x1="171.6" y1="204.189" x2="176.8" y2="207.736" />
<line fill="none" stroke-width="3" boundary-string=""  stroke="lightblue" x1="176.8" y1="207.736" x2="182" y2="211.556" />
<line fill="none" stroke-width="3" boundary-string=""  stroke="lightblue" x1="182" y1="211.556" x2="187.2" y2="215.634" />
<line fill="none" stroke-width="3" boundary-string=""  stroke="lightblue" x1="187.2" y1="215.634" x2="192.4" y2="219.956" />
<line fill="none" stroke-width="3" boundary-string=""  stroke="lightblue" x1="192.4" y1="219.956" x2="197.6" y2="224.507" />
<line fill="none" stroke-width="3" boundary-string=""  stroke="lightblue" x1="197.6" y1="224.507" x2="202.8" y2="229.274" />
<line fill="none" stroke-width="3" boundary-string=""  stroke="lightblue" x1="202.8" y1="229.274" x2="208" y2="234.244" />
<line fill="none" stroke-width="3" boundary-string=""  stroke="lightblue" x1="208" y1="234.244" x2="213.2" y2="239.405" />
<line fill="none" stroke-width="3" boundary-string=""  stroke="lightblue" x1="213.2" y1="239.405" x2="218.4" y2="244.743" />
<line fill="none" stroke-width="3" boundary-string=""  stroke="lightblue" x1="218.4" y1="244.743" x2="223.6" y2="250.248" />
<line fill="none" stroke-width="3" boundary-string=""  stroke="lightblue" x1="223.6" y1="250.248" x2="228.8" y2="255.91" />
<line fill="none" stroke-width="3" boundary-string=""  stroke="lightblue" x1="228.8" y1="255.91" x2="234" y2="261.717" />
<line fill="none" stroke-width="3" boundary-string=""  stroke="lightblue" x1="234" y1="261.717" x2="239.2" y2="267.66" />
<line fill="none" stroke-width="3" boundary-string=""  stroke="lightblue" x1="239.2" y1="267.66" x2="244.4" y2="273.731" />
<line fill="none" stroke-width="3" boundary-string=""  stroke="lightblue" x1="244.4" y1="273.731" x2="249.6" y2="279.921" />
<line fill="none" stroke-width="3" boundary-string=""  stroke="lightblue" x1="249.6" y1="279.921" x2="254.8" y2="286.223" />
<line fill="none" stroke-width="3" boundary-string=""  stroke="lightblue" x1="254.8" y1="286.223" x2="260" y2="292.629" />
<line fill="none" stroke-width="3" boundary-string=""  stroke="lightblue" x1="260" y1="292.629" x2="265.2" y2="299.133" />
<line fill="none" stroke-width="3" boundary-string=""  stroke="lightblue" x1="265.2" y1="299.133" x2="270.4" y2="305.727" />
<line fill="none" stroke-width="3" boundary-string=""  stroke="lightblue" x1="270.4" y1="305.727" x2="275.6" y2="312.408" />
<line fill="none" stroke-width="3" boundary-string=""  stroke="lightblue" x1="275.6" y1="312.408" x2="280.8" y2="319.168" />
<line fill="none" stroke-width="3" boundary-string=""  stroke="lightblue" x1="280.8" y1="319.168" x2="286" y2="326.004" />
<line fill="none" stroke-width="3" boundary-string=""  stroke="lightblue" x1="286" y1="326.004" x2="291.2" y2="332.91" />
<line fill="none" stroke-width="3" boundary-string=""  stroke="lightblue" x1="291.2" y1="332.91" x2="296.4" y2="339.883" />
<line fill="none" stroke-width="3" boundary-string=""  stroke="lightblue" x1="296.4" y1="339.883" x2="301.6" y2="345.367" />
<line fill="none" stroke-width="3" boundary-string=""  stroke="lightblue" x1="301.6" y1="345.367" x2="306.8" y2="337.03" />
<line fill="none" stroke-width="3" boundary-string=""  stroke="lightblue" x1="306.8" y1="337.03" x2="312" y2="328.695" />
<line fill="none" stroke-width="3" boundary-string=""  stroke="lightblue" x1="312" y1="328.695" x2="317.2" y2="320.362" />
<line fill="none" stroke-width="3" boundary-string=""  stroke="lightblue" x1="317.2" y1="320.362" x2="322.4" y2="312.031" />
<line fill="none" stroke-width="3" boundary-string=""  stroke="lightblue" x1="322.4" y1="312.031" x2="327.6" y2="303.704" />
<line fill="none" stroke-width="3" boundary-string=""  stroke="lightblue" x1="327.6" y1="303.704" x2="332.8" y2="295.379" />
<line fill="none" stroke-width="3" boundary-string=""  stroke="lightblue" x1="332.8" y1="295.379" x2="338" y2="287.057" />
<line fill="none" stroke-width="3" boundary-string=""  stroke="lightblue" x1="338" y1="287.057" x2="343.2" y2="278.739" />
<line fill="none" stroke-width="3" boundary-string=""  stroke="lightblue" x1="343.2" y1="278.739" x2="348.4" y2="270.425" />
<line fill="none" stroke-width="3" boundary-string=""  stroke="lightblue" x1="348.4" y1="270.425" x2="353.6" y2="262.115" />
<line fill="none" stroke-width="3" boundary-string=""  stroke="lightblue" x1="353.6" y1="262.115" x2="358.8" y2="253.809" />
<line fill="none" stroke-width="3" boundary-string=""  stroke="lightblue" x1="358.8" y1="253.809" x2="364" y2="245.509" />
<line fill="none" stroke-width="3" boundary-string=""  stroke="lightblue" x1="364" y1="245.509" x2="369.2" y2="237.214" />
<line fill="none" stroke-width="3" boundary-string=""  stroke="lightblue" x1="369.2" y1="237.214" x2="374.4" y2="228.925" />
<line fill="none" stroke-width="3" boundary-string=""  stroke="lightblue" x1="374.4" y1="228.925" x2="379.6" y2="220.643" />
<line fill="none" stroke-width="3" boundary-string=""  stroke="lightblue" x1="379.6" y1="220.643" x2="384.8" y2="212.369" />
<line fill="none" stroke-width="3" boundary-string=""  stroke="lightblue" x1="384.8" y1="212.369" x2="390" y2="204.103" />
<line fill="none" stroke-width="3" boundary-string=""  stroke="lightblue" x1="390" y1="204.103" x2="395.2" y2="195.847" />
<line fill="none" stroke-width="3" boundary-string=""  stroke="lightblue" x1="395.2" y1="195.847" x2="400.4" y2="187.602" />
<line fill="none" stroke-width="3" boundary-string=""  stroke="lightblue" x1="400.4" y1="187.602" x2="405.6" y2="179.369" />
<line fill="none" stroke-width="3" boundary-string=""  stroke="lightblue" x1="405.6" y1="179.369" x2="410.8" y2="171.151" />
<line fill="none" stroke-width="3" boundary-string=""  stroke="lightblue" x1="410.8" y1="171.151" x2="416" y2="162.949" />
<line fill="none" stroke-width="3" boundary-string=""  stroke="lightblue" x1="416" y1="162.949" x2="421.2" y2="154.766" />
<line fill="none" stroke-width="3" boundary-string=""  stroke="lightblue" x1="421.2" y1="154.766" x2="426.4" y2="146.605" />
<line fill="none" stroke-width="3" boundary-string=""  stroke="lightblue" x1="426.4" y1="146.605" x2="431.6" y2="138.47" />
<line fill="none" stroke-width="3" boundary-string=""  stroke="lightblue" x1="431.6" y1="138.47" x2="436.8" y2="130.366" />
<line fill="none" stroke-width="3" boundary-string=""  stroke="lightblue" x1="436.8" y1="130.366" x2="442" y2="122.3" />
<line fill="none" stroke-width="3" boundary-string=""  stroke="lightblue" x1="442" y1="122.3" x2="447.2" y2="114.279" />
<line fill="none" stroke-width="3" boundary-string=""  stroke="lightblue" x1="447.2" y1="114.279" x2="452.4" y2="106.312" />
<line fill="none" stroke-width="3" boundary-string=""  stroke="lightblue" x1="452.4" y1="106.312" x2="457.6" y2="98.415" />
<line fill="none" stroke-width="3" boundary-string=""  stroke="lightblue" x1="457.6" y1="98.415" x2="462.8" y2="90.6041" />
<line fill="none" stroke-width="3" boundary-string=""  stroke="lightblue" x1="462.8" y1="90.6041" x2="468" y2="82.9044" />
<line fill="none" stroke-width="3" boundary-string=""  stroke="lightblue" x1="468" y1="82.9044" x2="473.2" y2="75.3499" />
<line fill="none" stroke-width="3" boundary-string=""  stroke="lightblue" x1="473.2" y1="75.3499" x2="478.4" y2="67.6439" />
<line fill="none" stroke-width="3" boundary-string=""  stroke="lightblue" x1="478.4" y1="67.6439" x2="483.6" y2="59.1884" />
<line fill="none" stroke-width="3" boundary-string=""  stroke="lightblue" x1="483.6" y1="59.1884" x2="488.8" y2="50.7329" />
<line fill="none" stroke-width="3" boundary-string=""  stroke="lightblue" x1="488.8" y1="50.7329" x2="494" y2="42.2774" />
<line fill="none" stroke-width="3" boundary-string=""  stroke="lightblue" x1="494" y1="42.2774" x2="499.2" y2="33.8219" />
<line fill="none" stroke-width="3" boundary-string=""  stroke="lightblue" x1="499.2" y1="33.8219" x2="504.4" y2="25.3665" />
<line fill="none" stroke-width="3" boundary-string=""  stroke="lightblue" x1="504.4" y1="25.3665" x2="509.6" y2="16.911" />
<line fill="none" stroke-width="3" boundary-string=""  stroke="lightblue" x1="509.6" y1="16.911" x2="514.8" y2="8.45549" />
<line fill="none" stroke-width="3" boundary-string=""  stroke="lightblue" x1="514.8" y1="8.45549" x2="520" y2="3.18847e-13" />

<!--Draw the X and Y axes -->
<polyline fill="none" stroke="black" stroke-width="6"  points=" 600,0 0,0 0,520" />
<!-- -->


<!--Draw labels and tics for X axis -->

<line fill="none" stroke="black"  stroke-width="6"  x1="0.5" y1="0" x2="0.5" y2="-20" />
<text transform="scale(1,-1)" font-family="sans-serif" font-size="30" x="-24.5" y="45" >0 </text>
<line fill="none" stroke="black"  stroke-width="6"  x1="104.5" y1="0" x2="104.5" y2="-20" />
<text transform="scale(1,-1)" font-family="sans-serif" font-size="30" x="79.5" y="45" >20 </text>
<line fill="none" stroke="black"  stroke-width="6"  x1="208.5" y1="0" x2="208.5" y2="-20" />
<text transform="scale(1,-1)" font-family="sans-serif" font-size="30" x="183.5" y="45" >40 </text>
<line fill="none" stroke="black"  stroke-width="6"  x1="312.5" y1="0" x2="312.5" y2="-20" />
<text transform="scale(1,-1)" font-family="sans-serif" font-size="30" x="287.5" y="45" >60 </text>
<line fill="none" stroke="black"  stroke-width="6"  x1="416.5" y1="0" x2="416.5" y2="-20" />
<text transform="scale(1,-1)" font-family="sans-serif" font-size="30" x="391.5" y="45" >80 </text>
<line fill="none" stroke="black"  stroke-width="6"  x1="520.5" y1="0" x2="520.5" y2="-20" />
<text transform="scale(1,-1)" font-family="sans-serif" font-size="30" x="495.5" y="45" >100 </text>


<!--Draw labels and tics for Y axis -->

<line fill="none" stroke="black" stroke-width="6" x1="0.0" y1="0" x2="-20" y2="0" />
<text transform="scale(1,-1)" text-anchor="end" font-family="sans-serif" font-size="30" x="-25" y="10" >0 </text>
<line fill="none" stroke="black" stroke-width="6" x1="0.0" y1="57.7778" x2="-20" y2="57.7778" />
<text transform="scale(1,-1)" text-anchor="end" font-family="sans-serif" font-size="30" x="-25" y="-47.7778" >200 </text>
<line fill="none" stroke="black" stroke-width="6" x1="0.0" y1="115.556" x2="-20" y2="115.556" />
<text transform="scale(1,-1)" text-anchor="end" font-family="sans-serif" font-size="30" x="-25" y="-105.556" >400 </text>
<line fill="none" stroke="black" stroke-width="6" x1="0.0" y1="173.333" x2="-20" y2="173.333" />
<text transform="scale(1,-1)" text-anchor="end" font-family="sans-serif" font-size="30" x="-25" y="-163.333" >600 </text>
<line fill="none" stroke="black" stroke-width="6" x1="0.0" y1="231.111" x2="-20" y2="231.111" />
<text transform="scale(1,-1)" text-anchor="end" font-family="sans-serif" font-size="30" x="-25" y="-221.111" >800 </text>
<line fill="none" stroke="black" stroke-width="6" x1="0.0" y1="288.889" x2="-20" y2="288.889" />
<text transform="scale(1,-1)" text-anchor="end" font-family="sans-serif" font-size="30" x="-25" y="-278.889" >1000 </text>
<line fill="none" stroke="black" stroke-width="6" x1="0.0" y1="346.667" x2="-20" y2="346.667" />
<text transform="scale(1,-1)" text-anchor="end" font-family="sans-serif" font-size="30" x="-25" y="-336.667" >1200 </text>
<line fill="none" stroke="black" stroke-width="6" x1="0.0" y1="404.444" x2="-20" y2="404.444" />
<text transform="scale(1,-1)" text-anchor="end" font-family="sans-serif" font-size="30" x="-25" y="-394.444" >1400 </text>
<line fill="none" stroke="black" stroke-width="6" x1="0.0" y1="462.222" x2="-20" y2="462.222" />
<text transform="scale(1,-1)" text-anchor="end" font-family="sans-serif" font-size="30" x="-25" y="-452.222" >1600 </text>
<line fill="none" stroke="black" stroke-width="6" x1="0.0" y1="520" x2="-20" y2="520" />
<text transform="scale(1,-1)" text-anchor="end" font-family="sans-serif" font-size="30" x="-25" y="-510" >1800 </text>


<!-- Reduced vector followed by D7dist from the final reduced cell
-595.53193 -54.45197 -64.91123 -805.81013 -457.77917 -2233.57387    (9.91099e-13,  0.00012207)   
-588.96643 -77.01332 -65.46125 -801.74464 -461.84465 -2217.57801    (29.006,  41.028)   
-582.40094 -99.57467 -66.01127 -797.67916 -465.91014 -2201.58215    (58.012,  82.056)   
-575.83545 -122.13602 -66.56129 -793.61367 -469.97562 -2185.58629    (87.0179,  123.084)   
-569.26995 -144.69738 -67.11131 -789.54819 -474.04111 -2169.59044    (116.024,  164.112)   
-562.70446 -167.25873 -67.66133 -785.48271 -478.10659 -2153.59458    (145.03,  205.14)   
-556.13896 -189.82008 -68.21135 -781.41722 -482.17207 -2137.59872    (174.036,  246.168)   
-549.57347 -212.38143 -68.76137 -777.35174 -486.23756 -2121.60286    (203.042,  287.196)   
-543.00798 -234.94279 -69.31139 -773.28625 -490.30304 -2105.60700    (232.048,  328.224)   
-536.44248 -257.50414 -69.86141 -769.22077 -494.36853 -2089.61114    (261.054,  369.252)   
-280.06549 -529.87699 -70.41143 -498.43401 -765.15529 -2073.61529    (290.06,  410.28)   
-302.62684 -523.31149 -70.96145 -502.49949 -761.08980 -2057.61943    (319.066,  451.308)   
-325.18819 -516.74600 -71.51147 -506.56498 -757.02432 -2041.62357    (348.072,  492.336)   
-347.74955 -510.18051 -72.06149 -510.63046 -752.95883 -2025.62771    (377.078,  533.364)   
-370.31090 -503.61501 -72.61151 -514.69595 -748.89335 -2009.63185    (406.084,  574.392)   
-392.87225 -497.04952 -73.16153 -518.76143 -744.82786 -1993.63599    (435.09,  615.42)   
-415.43360 -490.48403 -73.71155 -522.82691 -740.76238 -1977.64014    (464.096,  656.448)   
-437.99495 -483.91853 -74.26157 -526.89240 -736.69690 -1961.64428    (493.102,  697.476)   
-460.55631 -477.35304 -74.81159 -530.95788 -732.63141 -1945.64842    (522.108,  738.504)   
-483.11766 -470.78754 -75.36161 -535.02337 -728.56593 -1929.65256    (551.114,  779.532)   
-505.67901 -464.22205 -75.91163 -539.08885 -724.50044 -1913.65670    (579.329,  820.56)   
-528.24036 -457.65656 -76.46165 -543.15433 -720.43496 -1897.66084    (606.079,  861.588)   
-550.80172 -451.09106 -77.01167 -547.21982 -716.36948 -1881.66499    (625.642,  896.651)   
-573.36307 -444.52557 -77.56169 -551.28530 -712.30399 -1865.66913    (632.13,  908.094)   
-595.92442 -437.96007 -78.11171 -555.35079 -708.23851 -1849.67327    (639.868,  916.806)   
-618.48577 -431.39458 -78.66173 -559.41627 -704.17302 -1833.67741    (648.811,  921.225)   
-641.04712 -424.82909 -79.21175 -563.48176 -700.10754 -1817.68155    (655.643,  927.44)   
-663.60848 -418.26359 -79.76177 -567.54724 -696.04206 -1801.68569    (661.271,  935.415)   
-686.16983 -411.69810 -80.31179 -571.61272 -691.97657 -1785.68984    (668.112,  945.105)   
-708.73118 -405.13260 -80.86181 -575.67821 -687.91109 -1769.69398    (676.13,  956.458)   
-731.29253 -398.56711 -81.41183 -579.74369 -683.84560 -1753.69812    (685.282,  969.416)   
-753.85389 -392.00162 -81.96185 -583.80918 -679.78012 -1737.70226    (695.524,  983.915)   
-776.41524 -385.43612 -82.51187 -587.87466 -675.71464 -1721.70640    (706.809,  999.889)   
-798.97659 -378.87063 -83.06189 -591.94014 -671.64915 -1705.71054    (719.088,  1017.27)   
-821.53794 -372.30514 -83.61191 -596.00563 -667.58367 -1689.71469    (732.31,  1035.98)   
-844.09929 -365.73964 -84.16193 -600.07111 -663.51818 -1673.71883    (746.426,  1055.96)   
-866.66065 -359.17415 -84.71195 -604.13660 -659.45270 -1657.72297    (761.385,  1077.13)   
-889.22200 -352.60865 -85.26197 -608.20208 -655.38722 -1641.72711    (777.14,  1099.42)   
-911.78335 -346.04316 -85.81199 -612.26756 -651.32173 -1625.73125    (793.642,  1122.77)   
-647.25625 -616.33305 -86.36201 -339.47767 -934.34470 -1609.73539    (810.846,  1147.11)   
-643.19076 -620.39853 -86.91202 -332.91217 -956.90606 -1593.73954    (828.709,  1172.38)   
-639.12528 -624.46402 -87.46204 -326.34668 -979.46741 -1577.74368    (847.188,  1198.53)   
-635.05979 -628.52950 -88.01206 -319.78118 -1002.02876 -1561.74782    (866.245,  1225.49)   
-630.99431 -632.59498 -88.56208 -313.21569 -1024.59011 -1545.75196    (885.841,  1253.22)   
-626.92883 -636.66047 -89.11210 -306.65020 -1047.15146 -1529.75610    (905.943,  1281.65)   
-622.86334 -640.72595 -89.66212 -300.08470 -1069.71282 -1513.76024    (926.516,  1310.76)   
-618.79786 -644.79144 -90.21214 -293.51921 -1092.27417 -1497.76439    (947.531,  1340.49)   
-614.73237 -648.85692 -90.76216 -286.95371 -1114.83552 -1481.76853    (968.959,  1370.8)   
-610.66689 -652.92241 -91.31218 -280.38822 -1137.39687 -1465.77267    (990.772,  1401.66)   
-606.60141 -656.98789 -91.86220 -273.82273 -1159.95823 -1449.77681    (1012.95,  1433.03)   
-602.53592 -661.05337 -92.41222 -267.25723 -1182.51958 -1433.78095    (1035.46,  1464.88)   
-598.47044 -665.11886 -92.96224 -260.69174 -1205.08093 -1417.78509    (1058.29,  1497.17)   
-594.40495 -669.18434 -93.51226 -254.12625 -1227.64228 -1401.78924    (1081.41,  1529.88)   
-590.33947 -673.24983 -94.06228 -247.56075 -1250.20363 -1385.79338    (1104.81,  1562.99)   
-586.27399 -677.31531 -94.61230 -240.99526 -1272.76499 -1369.79752    (1128.48,  1596.46)   
-582.20850 -681.38079 -95.16232 -234.42976 -1295.32634 -1353.80166    (1152.38,  1630.28)   
-578.14302 -685.44628 -95.71234 -227.86427 -1317.88769 -1337.80580    (1176.52,  1664.42)   
-574.07753 -689.51176 -96.26236 -221.29878 -1340.44904 -1321.80994    (1195.5,  1696.03)   
-570.01205 -693.57725 -96.81238 -214.73328 -1363.01040 -1305.81409    (1166.64,  1655.3)   
-565.94657 -697.64273 -97.36240 -208.16779 -1385.57175 -1289.81823    (1137.79,  1614.66)   
-561.88108 -701.70821 -97.91242 -201.60229 -1408.13310 -1273.82237    (1108.94,  1574.12)   
-557.81560 -705.77370 -98.46244 -195.03680 -1430.69445 -1257.82651    (1080.11,  1533.69)   
-553.75011 -709.83918 -99.01246 -188.47131 -1453.25580 -1241.83065    (1051.28,  1493.38)   
-549.68463 -713.90467 -99.56248 -181.90581 -1475.81716 -1225.83479    (1022.47,  1453.21)   
-545.61914 -717.97015 -100.11250 -175.34032 -1498.37851 -1209.83894    (993.66,  1413.19)   
-541.55366 -722.03563 -100.66252 -168.77482 -1520.93986 -1193.84308    (964.867,  1373.36)   
-537.48818 -726.10112 -101.21254 -162.20933 -1543.50121 -1177.84722    (936.087,  1333.75)   
-533.42269 -730.16660 -101.76256 -155.64384 -1566.06257 -1161.85136    (907.321,  1294.42)   
-529.35721 -734.23209 -102.31258 -149.07834 -1588.62392 -1145.85550    (878.571,  1255.44)   
-525.29172 -738.29757 -102.86260 -142.51285 -1611.18527 -1129.85964    (849.838,  1216.94)   
-521.22624 -742.36305 -103.41262 -135.94736 -1633.74662 -1113.86379    (821.125,  1179.1)   
-517.16076 -746.42854 -103.96264 -129.38186 -1656.30797 -1097.86793    (792.433,  1142.22)   
-513.09527 -750.49402 -104.51266 -122.81637 -1678.86933 -1081.87207    (763.764,  1101.36)   
-509.02979 -754.55951 -105.06268 -116.25087 -1701.43068 -1065.87621    (735.122,  1060.56)   
-504.96430 -105.61270 -758.62499 -109.68538 -1049.88035 -1723.99203    (706.51,  1019.82)   
-500.89882 -106.16272 -762.69048 -103.11989 -1033.88449 -1746.55338    (677.931,  979.144)   
-496.83334 -106.71274 -766.75596 -96.55439 -1017.88864 -1769.11474    (649.391,  938.549)   
-492.76785 -107.26276 -770.82144 -89.98890 -1001.89278 -1791.67609    (620.893,  898.048)   
-488.70237 -107.81278 -774.88693 -83.42340 -985.89692 -1814.23744    (592.445,  857.655)   
-484.63688 -108.36280 -778.95241 -76.85791 -969.90106 -1836.79879    (564.053,  817.392)   
-480.57140 -108.91282 -783.01790 -70.29242 -953.90520 -1859.36014    (535.727,  777.288)   
-476.50592 -109.46284 -787.08338 -63.72692 -937.90934 -1881.92150    (507.478,  737.38)   
-472.44043 -110.01286 -791.14886 -57.16143 -921.91349 -1904.48285    (479.32,  697.719)   
-468.37495 -110.56288 -795.21435 -50.59593 -905.91763 -1927.04420    (451.269,  658.377)   
-464.30946 -111.11290 -799.27983 -44.03044 -889.92177 -1949.60555    (423.346,  619.458)   
-460.24398 -111.66292 -803.34532 -37.46495 -873.92591 -1972.16691    (395.58,  581.118)   
-456.17850 -112.21294 -807.41080 -30.89945 -857.93005 -1994.72826    (368.005,  543.6)   
-452.11301 -112.76296 -811.47628 -24.33396 -841.93419 -2017.28961    (340.667,  507.299)   
-448.04753 -113.31298 -815.54177 -17.76847 -825.93834 -2039.85096    (313.63,  468.876)   
-443.98204 -113.86300 -819.60725 -11.20297 -809.94248 -2062.41231    (286.977,  424.412)   
-439.91656 -114.41302 -823.67274  -4.63748 -793.94662 -2084.97367    (260.827,  380.701)   
-776.02275  -1.92802 -113.03502 -825.81020 -437.77909 -2105.60700    (234.152,  338.062)   
-753.46139  -8.49351 -107.01955 -823.31019 -440.27910 -2121.60286    (204.883,  295.804)   
-730.90004 -15.05900 -101.00407 -820.81018 -442.77911 -2137.59872    (175.614,  253.547)   
-708.33869 -21.62450 -94.98860 -818.31018 -445.27912 -2153.59458    (146.345,  211.289)   
-685.77734 -28.18999 -88.97313 -815.81017 -447.77913 -2169.59044    (117.076,  169.031)   
-663.21598 -34.75549 -82.95765 -813.31016 -450.27914 -2185.58629    (87.807,  126.773)   
-640.65463 -41.32098 -76.94218 -810.81015 -452.77915 -2201.58215    (58.538,  84.5155)   
-618.09328 -47.88647 -70.92670 -808.31014 -455.27916 -2217.57801    (29.269,  42.2578)   
-595.53193 -54.45197 -64.91123 -805.81013 -457.77917 -2233.57387    (1.1037e-12,  0)   
-->
</g>
</g>
<!-- Run Constants
CIRCLEPLOT bool false
DISTANCEPLOT bool true
PRINTDISTANCEDATA bool true
GLITCHESONLY bool false
PLOT 2doubles 3 4
PERTURBBY double 0.05
GLITCHLEVEL double 3
BOUNDARYWINDOW double 0.065
FRAMESPERPATH int 200
STEPSPERFRAME int 100
TRIALS int 1
ALLBLACK bool false
FILEPREFIX string Fol
GRAPHSIZE int 0
BORDER int 0
PLOTSIZE int 0
CIRCLEPLOTSIZE int 2000
CIRCLERADIUS int 300
CIRCLESTROKEWIDTH int 30
G6LINEWIDTH int 3
DELONELINEWIDTH int 10
AXISWIDTH int 6
TICLENGTH int 20
VECTOR g6 
PERTURB g6Perturb 
MOVIEMODE MovieMode STAR
FOLLOWERMODE FollowerMode Follow
FIXRANDOMSEED fixRandomSeed true
RANDOMSEED int 18
TIMESTAMP bool true
END end 




-->
</svg>
