<?xml version="1.0" standalone="no"?>
<!-- the width and height set the total pixel output of the image in the browser -->
<!-- whatever is within the viewbox will be remapped to show in this size -->
<svg width="1000" height="1000" viewBox="1 0 1000 1000"  version="1.1" xmlns="http://www.w3.org/2000/svg" xmlns:xlink="http://www.w3.org/1999/xlink">
 <desc>ID (and file name) = Fol_2018-02-06.15_26_11.15_0.svg </desc> 
 <text x="280"  y="30"  font-family="sans-serif" font-size="20" > Trial vector = 0  </text> 
 <text x="700" y="30" font-family="sans-serif" font-size="20">Wall time passed: 27591 msec.</text>
<text x="450" y="30" font-family="sans-serif" font-size="20" fill="black" > Plotting g5 vs. g4</text>
<text x="300" y="60"  font-family="sans-serif" font-size="20" > Beginning vector  -155.27539 -163.88843  61.50684 -87.18171 -145.47692 -17.33787 </text>
<text x="300" y="85"  font-family="sans-serif" font-size="20" > Beginning cell   13.76820  15.46756  18.34398   2.14987   2.27693   1.27780 </text>
<text x="300" y="110"  font-family="sans-serif" font-size="20" > Ending vector  -93.76855 -61.50684 -25.67488 -102.38160 -78.84470 -83.97008 </text>
<text x="300" y="135"  font-family="sans-serif" font-size="20" > Ending cell   13.76820  14.08148  15.46756   2.01586   1.86379   1.70362 </text>




 <!--DISTANCE PLOT BEGINS-->


<!-- the following will scale and place the distance plot -->
<g  transform="translate(0,50) ">
<g transform="translate(150,700) scale(1 -1)">
   <polyline fill="none" stroke="black" stroke-width="10" points=" 5.2 ,7.01324e-05  10.4 ,13.2869  15.6 ,26.5737  20.8 ,39.8606  26 ,53.1475  31.2 ,66.4343  36.4 ,79.7212  41.6 ,93.0081  46.8 ,106.295  52 ,119.582  57.2 ,132.869  62.4 ,146.156  67.6 ,159.442  72.8 ,172.729  78 ,186.016  83.2 ,199.303  88.4 ,212.59  93.6 ,225.877  98.8 ,239.164  104 ,252.45  109.2 ,259.478  114.4 ,251.657  119.6 ,244.309  124.8 ,237.478  130 ,231.209  135.2 ,225.55  140.4 ,220.546  145.6 ,216.245  150.8 ,212.687  156 ,209.912  161.2 ,207.951  166.4 ,206.826  171.6 ,206.551  176.8 ,207.131  182 ,208.556  187.2 ,210.812  192.4 ,213.87  197.6 ,217.698  202.8 ,222.255  208 ,227.498  213.2 ,233.381  218.4 ,239.856  223.6 ,246.877  228.8 ,254.398  234 ,262.378  239.2 ,270.774  244.4 ,279.55  249.6 ,288.671  254.8 ,298.105  260 ,307.824  265.2 ,317.801  270.4 ,328.013  275.6 ,338.439  280.8 ,349.059  286 ,359.856  291.2 ,370.815  296.4 ,381.922  301.6 ,393.164  306.8 ,404.53  312 ,416.01  317.2 ,427.594  322.4 ,438.075  327.6 ,446.504  332.8 ,455.165  338 ,464.044  343.2 ,473.13  348.4 ,482.411  353.6 ,491.876  358.8 ,501.514  364 ,506.282  369.2 ,501.976  374.4 ,484.717  379.6 ,467.406  384.8 ,450.094  390 ,432.783  395.2 ,415.472  400.4 ,398.16  405.6 ,380.849  410.8 ,363.538  416 ,346.227  421.2 ,328.915  426.4 ,311.604  431.6 ,294.293  436.8 ,276.981  442 ,259.67  447.2 ,242.359  452.4 ,225.047  457.6 ,207.736  462.8 ,190.425  468 ,173.113  473.2 ,155.802  478.4 ,138.491  483.6 ,121.179  488.8 ,103.868  494 ,86.5566  499.2 ,69.2453  504.4 ,51.934  509.6 ,34.6227  514.8 ,17.3113  520 ,7.01324e-05  " />

<!--Draw the X and Y axes -->
<polyline fill="none" stroke="black" stroke-width="6"  points=" 600,0 0,0 0,520" />
<!-- -->

<line fill="none" stroke-width="3" boundary-string=""  stroke="lightblue" x1="0" y1="6.26488e-13" x2="5.2" y2="6.26488e-13" />
<line fill="none" stroke-width="3" boundary-string=""  stroke="lightblue" x1="5.2" y1="6.26488e-13" x2="10.4" y2="9.24277" />
<line fill="none" stroke-width="3" boundary-string=""  stroke="lightblue" x1="10.4" y1="9.24277" x2="15.6" y2="18.4855" />
<line fill="none" stroke-width="3" boundary-string=""  stroke="lightblue" x1="15.6" y1="18.4855" x2="20.8" y2="27.7283" />
<line fill="none" stroke-width="3" boundary-string=""  stroke="lightblue" x1="20.8" y1="27.7283" x2="26" y2="36.9711" />
<line fill="none" stroke-width="3" boundary-string=""  stroke="lightblue" x1="26" y1="36.9711" x2="31.2" y2="46.2138" />
<line fill="none" stroke-width="3" boundary-string=""  stroke="lightblue" x1="31.2" y1="46.2138" x2="36.4" y2="55.4566" />
<line fill="none" stroke-width="3" boundary-string=""  stroke="lightblue" x1="36.4" y1="55.4566" x2="41.6" y2="64.6994" />
<line fill="none" stroke-width="3" boundary-string=""  stroke="lightblue" x1="41.6" y1="64.6994" x2="46.8" y2="73.9421" />
<line fill="none" stroke-width="3" boundary-string=""  stroke="lightblue" x1="46.8" y1="73.9421" x2="52" y2="83.1849" />
<line fill="none" stroke-width="3" boundary-string=""  stroke="lightblue" x1="52" y1="83.1849" x2="57.2" y2="92.4277" />
<line fill="none" stroke-width="3" boundary-string=""  stroke="lightblue" x1="57.2" y1="92.4277" x2="62.4" y2="101.67" />
<line fill="none" stroke-width="3" boundary-string=""  stroke="lightblue" x1="62.4" y1="101.67" x2="67.6" y2="110.913" />
<line fill="none" stroke-width="3" boundary-string=""  stroke="lightblue" x1="67.6" y1="110.913" x2="72.8" y2="120.156" />
<line fill="none" stroke-width="3" boundary-string=""  stroke="lightblue" x1="72.8" y1="120.156" x2="78" y2="129.399" />
<line fill="none" stroke-width="3" boundary-string=""  stroke="lightblue" x1="78" y1="129.399" x2="83.2" y2="138.641" />
<line fill="none" stroke-width="3" boundary-string=""  stroke="lightblue" x1="83.2" y1="138.641" x2="88.4" y2="147.884" />
<line fill="none" stroke-width="3" boundary-string=""  stroke="lightblue" x1="88.4" y1="147.884" x2="93.6" y2="157.127" />
<line fill="none" stroke-width="3" boundary-string=""  stroke="lightblue" x1="93.6" y1="157.127" x2="98.8" y2="166.37" />
<line fill="none" stroke-width="3" boundary-string=""  stroke="lightblue" x1="98.8" y1="166.37" x2="104" y2="175.613" />
<line fill="none" stroke-width="3" boundary-string=""  stroke="lightblue" x1="104" y1="175.613" x2="109.2" y2="180.354" />
<line fill="none" stroke-width="3" boundary-string=""  stroke="lightblue" x1="109.2" y1="180.354" x2="114.4" y2="174.392" />
<line fill="none" stroke-width="3" boundary-string=""  stroke="lightblue" x1="114.4" y1="174.392" x2="119.6" y2="168.725" />
<line fill="none" stroke-width="3" boundary-string=""  stroke="lightblue" x1="119.6" y1="168.725" x2="124.8" y2="163.385" />
<line fill="none" stroke-width="3" boundary-string=""  stroke="lightblue" x1="124.8" y1="163.385" x2="130" y2="158.405" />
<line fill="none" stroke-width="3" boundary-string=""  stroke="lightblue" x1="130" y1="158.405" x2="135.2" y2="153.819" />
<line fill="none" stroke-width="3" boundary-string=""  stroke="lightblue" x1="135.2" y1="153.819" x2="140.4" y2="149.664" />
<line fill="none" stroke-width="3" boundary-string=""  stroke="lightblue" x1="140.4" y1="149.664" x2="145.6" y2="145.977" />
<line fill="none" stroke-width="3" boundary-string=""  stroke="lightblue" x1="145.6" y1="145.977" x2="150.8" y2="142.794" />
<line fill="none" stroke-width="3" boundary-string=""  stroke="lightblue" x1="150.8" y1="142.794" x2="156" y2="140.149" />
<line fill="none" stroke-width="3" boundary-string=""  stroke="lightblue" x1="156" y1="140.149" x2="161.2" y2="138.073" />
<line fill="none" stroke-width="3" boundary-string=""  stroke="lightblue" x1="161.2" y1="138.073" x2="166.4" y2="136.593" />
<line fill="none" stroke-width="3" boundary-string=""  stroke="lightblue" x1="166.4" y1="136.593" x2="171.6" y2="135.727" />
<line fill="none" stroke-width="3" boundary-string=""  stroke="lightblue" x1="171.6" y1="135.727" x2="176.8" y2="135.488" />
<line fill="none" stroke-width="3" boundary-string=""  stroke="lightblue" x1="176.8" y1="135.488" x2="182" y2="135.878" />
<line fill="none" stroke-width="3" boundary-string=""  stroke="lightblue" x1="182" y1="135.878" x2="187.2" y2="136.893" />
<line fill="none" stroke-width="3" boundary-string=""  stroke="lightblue" x1="187.2" y1="136.893" x2="192.4" y2="138.518" />
<line fill="none" stroke-width="3" boundary-string=""  stroke="lightblue" x1="192.4" y1="138.518" x2="197.6" y2="140.733" />
<line fill="none" stroke-width="3" boundary-string=""  stroke="lightblue" x1="197.6" y1="140.733" x2="202.8" y2="143.51" />
<line fill="none" stroke-width="3" boundary-string=""  stroke="lightblue" x1="202.8" y1="143.51" x2="208" y2="146.818" />
<line fill="none" stroke-width="3" boundary-string=""  stroke="lightblue" x1="208" y1="146.818" x2="213.2" y2="150.621" />
<line fill="none" stroke-width="3" boundary-string=""  stroke="lightblue" x1="213.2" y1="150.621" x2="218.4" y2="154.882" />
<line fill="none" stroke-width="3" boundary-string=""  stroke="lightblue" x1="218.4" y1="154.882" x2="223.6" y2="159.566" />
<line fill="none" stroke-width="3" boundary-string=""  stroke="lightblue" x1="223.6" y1="159.566" x2="228.8" y2="164.636" />
<line fill="none" stroke-width="3" boundary-string=""  stroke="lightblue" x1="228.8" y1="164.636" x2="234" y2="170.057" />
<line fill="none" stroke-width="3" boundary-string=""  stroke="lightblue" x1="234" y1="170.057" x2="239.2" y2="175.798" />
<line fill="none" stroke-width="3" boundary-string=""  stroke="lightblue" x1="239.2" y1="175.798" x2="244.4" y2="181.827" />
<line fill="none" stroke-width="3" boundary-string=""  stroke="lightblue" x1="244.4" y1="181.827" x2="249.6" y2="188.118" />
<line fill="none" stroke-width="3" boundary-string=""  stroke="lightblue" x1="249.6" y1="188.118" x2="254.8" y2="194.644" />
<line fill="none" stroke-width="3" boundary-string=""  stroke="lightblue" x1="254.8" y1="194.644" x2="260" y2="201.383" />
<line fill="none" stroke-width="3" boundary-string=""  stroke="lightblue" x1="260" y1="201.383" x2="265.2" y2="208.314" />
<line fill="none" stroke-width="3" boundary-string=""  stroke="lightblue" x1="265.2" y1="208.314" x2="270.4" y2="215.419" />
<line fill="none" stroke-width="3" boundary-string=""  stroke="lightblue" x1="270.4" y1="215.419" x2="275.6" y2="222.68" />
<line fill="none" stroke-width="3" boundary-string=""  stroke="lightblue" x1="275.6" y1="222.68" x2="280.8" y2="230.084" />
<line fill="none" stroke-width="3" boundary-string=""  stroke="lightblue" x1="280.8" y1="230.084" x2="286" y2="237.617" />
<line fill="none" stroke-width="3" boundary-string=""  stroke="lightblue" x1="286" y1="237.617" x2="291.2" y2="245.267" />
<line fill="none" stroke-width="3" boundary-string=""  stroke="lightblue" x1="291.2" y1="245.267" x2="296.4" y2="253.023" />
<line fill="none" stroke-width="3" boundary-string=""  stroke="lightblue" x1="296.4" y1="253.023" x2="301.6" y2="260.876" />
<line fill="none" stroke-width="3" boundary-string=""  stroke="lightblue" x1="301.6" y1="260.876" x2="306.8" y2="268.817" />
<line fill="none" stroke-width="3" boundary-string=""  stroke="lightblue" x1="306.8" y1="268.817" x2="312" y2="276.84" />
<line fill="none" stroke-width="3" boundary-string=""  stroke="lightblue" x1="312" y1="276.84" x2="317.2" y2="284.936" />
<line fill="none" stroke-width="3" boundary-string=""  stroke="lightblue" x1="317.2" y1="284.936" x2="322.4" y2="292.2" />
<line fill="none" stroke-width="3" boundary-string=""  stroke="lightblue" x1="322.4" y1="292.2" x2="327.6" y2="297.925" />
<line fill="none" stroke-width="3" boundary-string=""  stroke="lightblue" x1="327.6" y1="297.925" x2="332.8" y2="303.824" />
<line fill="none" stroke-width="3" boundary-string=""  stroke="lightblue" x1="332.8" y1="303.824" x2="338" y2="309.885" />
<line fill="none" stroke-width="3" boundary-string=""  stroke="lightblue" x1="338" y1="309.885" x2="343.2" y2="316.101" />
<line fill="none" stroke-width="3" boundary-string=""  stroke="lightblue" x1="343.2" y1="316.101" x2="348.4" y2="322.462" />
<line fill="none" stroke-width="3" boundary-string=""  stroke="lightblue" x1="348.4" y1="322.462" x2="353.6" y2="328.96" />
<line fill="none" stroke-width="3" boundary-string=""  stroke="lightblue" x1="353.6" y1="328.96" x2="358.8" y2="335.587" />
<line fill="none" stroke-width="3" boundary-string=""  stroke="lightblue" x1="358.8" y1="335.587" x2="364" y2="337.353" />
<line fill="none" stroke-width="3" boundary-string=""  stroke="lightblue" x1="364" y1="337.353" x2="369.2" y2="335.075" />
<line fill="none" stroke-width="3" boundary-string=""  stroke="lightblue" x1="369.2" y1="335.075" x2="374.4" y2="323.558" />
<line fill="none" stroke-width="3" boundary-string=""  stroke="lightblue" x1="374.4" y1="323.558" x2="379.6" y2="312.002" />
<line fill="none" stroke-width="3" boundary-string=""  stroke="lightblue" x1="379.6" y1="312.002" x2="384.8" y2="300.447" />
<line fill="none" stroke-width="3" boundary-string=""  stroke="lightblue" x1="384.8" y1="300.447" x2="390" y2="288.891" />
<line fill="none" stroke-width="3" boundary-string=""  stroke="lightblue" x1="390" y1="288.891" x2="395.2" y2="277.335" />
<line fill="none" stroke-width="3" boundary-string=""  stroke="lightblue" x1="395.2" y1="277.335" x2="400.4" y2="265.78" />
<line fill="none" stroke-width="3" boundary-string=""  stroke="lightblue" x1="400.4" y1="265.78" x2="405.6" y2="254.224" />
<line fill="none" stroke-width="3" boundary-string=""  stroke="lightblue" x1="405.6" y1="254.224" x2="410.8" y2="242.669" />
<line fill="none" stroke-width="3" boundary-string=""  stroke="lightblue" x1="410.8" y1="242.669" x2="416" y2="231.113" />
<line fill="none" stroke-width="3" boundary-string=""  stroke="lightblue" x1="416" y1="231.113" x2="421.2" y2="219.557" />
<line fill="none" stroke-width="3" boundary-string=""  stroke="lightblue" x1="421.2" y1="219.557" x2="426.4" y2="208.002" />
<line fill="none" stroke-width="3" boundary-string=""  stroke="lightblue" x1="426.4" y1="208.002" x2="431.6" y2="196.446" />
<line fill="none" stroke-width="3" boundary-string=""  stroke="lightblue" x1="431.6" y1="196.446" x2="436.8" y2="184.89" />
<line fill="none" stroke-width="3" boundary-string=""  stroke="lightblue" x1="436.8" y1="184.89" x2="442" y2="173.335" />
<line fill="none" stroke-width="3" boundary-string=""  stroke="lightblue" x1="442" y1="173.335" x2="447.2" y2="161.779" />
<line fill="none" stroke-width="3" boundary-string=""  stroke="lightblue" x1="447.2" y1="161.779" x2="452.4" y2="150.223" />
<line fill="none" stroke-width="3" boundary-string=""  stroke="lightblue" x1="452.4" y1="150.223" x2="457.6" y2="138.668" />
<line fill="none" stroke-width="3" boundary-string=""  stroke="lightblue" x1="457.6" y1="138.668" x2="462.8" y2="127.112" />
<line fill="none" stroke-width="3" boundary-string=""  stroke="lightblue" x1="462.8" y1="127.112" x2="468" y2="115.556" />
<line fill="none" stroke-width="3" boundary-string=""  stroke="lightblue" x1="468" y1="115.556" x2="473.2" y2="104.001" />
<line fill="none" stroke-width="3" boundary-string=""  stroke="lightblue" x1="473.2" y1="104.001" x2="478.4" y2="92.4452" />
<line fill="none" stroke-width="3" boundary-string=""  stroke="lightblue" x1="478.4" y1="92.4452" x2="483.6" y2="80.8895" />
<line fill="none" stroke-width="3" boundary-string=""  stroke="lightblue" x1="483.6" y1="80.8895" x2="488.8" y2="69.3339" />
<line fill="none" stroke-width="3" boundary-string=""  stroke="lightblue" x1="488.8" y1="69.3339" x2="494" y2="57.7782" />
<line fill="none" stroke-width="3" boundary-string=""  stroke="lightblue" x1="494" y1="57.7782" x2="499.2" y2="46.2226" />
<line fill="none" stroke-width="3" boundary-string=""  stroke="lightblue" x1="499.2" y1="46.2226" x2="504.4" y2="34.6669" />
<line fill="none" stroke-width="3" boundary-string=""  stroke="lightblue" x1="504.4" y1="34.6669" x2="509.6" y2="23.1113" />
<line fill="none" stroke-width="3" boundary-string=""  stroke="lightblue" x1="509.6" y1="23.1113" x2="514.8" y2="11.5556" />
<line fill="none" stroke-width="3" boundary-string=""  stroke="lightblue" x1="514.8" y1="11.5556" x2="520" y2="0" />

<!--Draw the X and Y axes -->
<polyline fill="none" stroke="black" stroke-width="6"  points=" 600,0 0,0 0,520" />
<!-- -->


<!--Draw labels and tics for X axis -->

<line fill="none" stroke="black"  stroke-width="6"  x1="0.5" y1="0" x2="0.5" y2="-20" />
<text transform="scale(1,-1)" font-family="sans-serif" font-size="30" x="-24.5" y="45" >0 </text>
<line fill="none" stroke="black"  stroke-width="6"  x1="104.5" y1="0" x2="104.5" y2="-20" />
<text transform="scale(1,-1)" font-family="sans-serif" font-size="30" x="79.5" y="45" >20 </text>
<line fill="none" stroke="black"  stroke-width="6"  x1="208.5" y1="0" x2="208.5" y2="-20" />
<text transform="scale(1,-1)" font-family="sans-serif" font-size="30" x="183.5" y="45" >40 </text>
<line fill="none" stroke="black"  stroke-width="6"  x1="312.5" y1="0" x2="312.5" y2="-20" />
<text transform="scale(1,-1)" font-family="sans-serif" font-size="30" x="287.5" y="45" >60 </text>
<line fill="none" stroke="black"  stroke-width="6"  x1="416.5" y1="0" x2="416.5" y2="-20" />
<text transform="scale(1,-1)" font-family="sans-serif" font-size="30" x="391.5" y="45" >80 </text>
<line fill="none" stroke="black"  stroke-width="6"  x1="520.5" y1="0" x2="520.5" y2="-20" />
<text transform="scale(1,-1)" font-family="sans-serif" font-size="30" x="495.5" y="45" >100 </text>


<!--Draw labels and tics for Y axis -->

<line fill="none" stroke="black" stroke-width="6" x1="0.0" y1="0" x2="-20" y2="0" />
<text transform="scale(1,-1)" text-anchor="end" font-family="sans-serif" font-size="30" x="-25" y="10" >0 </text>
<line fill="none" stroke="black" stroke-width="6" x1="0.0" y1="130" x2="-20" y2="130" />
<text transform="scale(1,-1)" text-anchor="end" font-family="sans-serif" font-size="30" x="-25" y="-120" >20 </text>
<line fill="none" stroke="black" stroke-width="6" x1="0.0" y1="260" x2="-20" y2="260" />
<text transform="scale(1,-1)" text-anchor="end" font-family="sans-serif" font-size="30" x="-25" y="-250" >40 </text>
<line fill="none" stroke="black" stroke-width="6" x1="0.0" y1="390" x2="-20" y2="390" />
<text transform="scale(1,-1)" text-anchor="end" font-family="sans-serif" font-size="30" x="-25" y="-380" >60 </text>
<line fill="none" stroke="black" stroke-width="6" x1="0.0" y1="520" x2="-20" y2="520" />
<text transform="scale(1,-1)" text-anchor="end" font-family="sans-serif" font-size="30" x="-25" y="-510" >80 </text>


<!-- Reduced vector followed by D7dist from the final reduced cell
-93.76855 -61.50684 -25.67488 -102.38160 -78.84470 -83.97008    (9.63827e-14,  1.07896e-05)   
-94.02789 -60.62621 -26.70903 -102.22806 -78.63713 -84.17765    (1.42196,  2.04413)   
-94.28724 -59.74559 -27.74319 -102.07453 -78.42956 -84.38522    (2.84393,  4.08827)   
-94.54658 -58.86497 -28.77735 -101.92099 -78.22199 -84.59279    (4.26589,  6.1324)   
-94.80592 -57.98434 -29.81151 -101.76746 -78.01442 -84.80036    (5.68786,  8.17653)   
-95.06526 -57.10372 -30.84566 -101.61392 -77.80685 -85.00793    (7.10982,  10.2207)   
-95.32461 -56.22310 -31.87982 -101.46039 -77.59928 -85.21550    (8.53178,  12.2648)   
-95.58395 -55.34247 -32.91398 -101.30686 -77.39171 -85.42307    (9.95375,  14.3089)   
-95.84329 -54.46185 -33.94814 -101.15332 -77.18414 -85.63064    (11.3757,  16.3531)   
-96.10263 -53.58123 -34.98229 -100.99979 -76.97657 -85.83821    (12.7977,  18.3972)   
-96.36197 -52.70060 -36.01645 -100.84625 -76.76900 -86.04579    (14.2196,  20.4413)   
-96.62132 -51.81998 -37.05061 -100.69272 -76.56143 -86.25336    (15.6416,  22.4855)   
-96.88066 -50.93936 -38.08477 -100.53919 -76.35385 -86.46093    (17.0636,  24.5296)   
-97.14000 -50.05873 -39.11892 -100.38565 -76.14628 -86.66850    (18.4855,  26.5737)   
-97.39934 -49.17811 -40.15308 -100.23212 -75.93871 -86.87607    (19.9075,  28.6179)   
-97.65869 -48.29749 -41.18724 -100.07858 -75.73114 -87.08364    (21.3295,  30.662)   
-97.91803 -47.41686 -42.22140 -99.92505 -75.52357 -87.29121    (22.7514,  32.7061)   
-98.17737 -46.53624 -43.25555 -99.77152 -75.31600 -87.49878    (24.1734,  34.7503)   
-98.43671 -45.65562 -44.28971 -99.61798 -75.10843 -87.70635    (25.5954,  36.7944)   
-98.69605 -44.77499 -45.32387 -99.46445 -74.90086 -87.91392    (27.0173,  38.8385)   
-98.95540 -43.89437 -46.35803 -99.31091 -74.69329 -88.12149    (27.7468,  39.9197)   
-99.21474 -43.01375 -47.39218 -99.15738 -74.48572 -88.32906    (26.8295,  38.7165)   
-99.47408 -42.13312 -48.42634 -99.00384 -74.27815 -88.53663    (25.9577,  37.5861)   
-99.73342 -41.25250 -49.46050 -98.85031 -74.07058 -88.74420    (25.1362,  36.5351)   
-99.99276 -40.37188 -50.49466 -98.69678 -73.86301 -88.95178    (24.37,  35.5706)   
-100.25211 -39.49125 -51.52881 -98.54324 -73.65544 -89.15935    (23.6645,  34.6999)   
-100.51145 -38.61063 -52.56297 -98.38971 -73.44786 -89.36692    (23.0253,  33.9302)   
-100.77079 -37.73001 -53.59713 -98.23617 -73.24029 -89.57449    (22.458,  33.2684)   
-101.03013 -54.63129 -36.84938 -98.08264 -89.78206 -73.03272    (21.9683,  32.7211)   
-101.28948 -55.66544 -35.96876 -97.92911 -89.98963 -72.82515    (21.5614,  32.2942)   
-101.54882 -56.69960 -35.08814 -97.77557 -90.19720 -72.61758    (21.2421,  31.9924)   
-101.80816 -57.73376 -34.20751 -97.62204 -90.40477 -72.41001    (21.0143,  31.8194)   
-102.06750 -58.76792 -33.32689 -97.46850 -90.61234 -72.20244    (20.8811,  31.7771)   
-102.32684 -59.80207 -32.44627 -97.31497 -90.81991 -71.99487    (20.8443,  31.8662)   
-102.58619 -60.83623 -31.56564 -97.16143 -91.02748 -71.78730    (20.9043,  32.0856)   
-102.84553 -61.87039 -30.68502 -97.00790 -91.23505 -71.57973    (21.0605,  32.4325)   
-103.10487 -62.90455 -29.80440 -96.85437 -91.44262 -71.37216    (21.3105,  32.9031)   
-103.36421 -63.93870 -28.92377 -96.70083 -91.65019 -71.16459    (21.6513,  33.4919)   
-103.62356 -64.97286 -28.04315 -96.54730 -91.85777 -70.95702    (22.0785,  34.1931)   
-103.88290 -66.00702 -27.16253 -96.39376 -92.06534 -70.74945    (22.5874,  34.9997)   
-104.14224 -67.04118 -26.28190 -96.24023 -92.27291 -70.54187    (23.1724,  35.9047)   
-104.40158 -68.07534 -25.40128 -96.08670 -92.48048 -70.33430    (23.828,  36.9009)   
-104.66092 -69.10949 -24.52066 -95.93316 -92.68805 -70.12673    (24.5486,  37.981)   
-104.92027 -70.14365 -23.64003 -95.77963 -92.89562 -69.91916    (25.3286,  39.1382)   
-105.17961 -71.17781 -22.75941 -95.62609 -93.10319 -69.71159    (26.1627,  40.3658)   
-105.43895 -72.21197 -21.87879 -95.47256 -93.31076 -69.50402    (27.0458,  41.6575)   
-105.69829 -73.24612 -20.99816 -95.31902 -93.51833 -69.29645    (27.9734,  43.0077)   
-105.95764 -74.28028 -20.11754 -95.16549 -93.72590 -69.08888    (28.9412,  44.4109)   
-106.21698 -75.31444 -19.23692 -95.01196 -93.93347 -68.88131    (29.9452,  45.8623)   
-106.47632 -76.34860 -18.35629 -94.85842 -94.14104 -68.67374    (30.9819,  47.3575)   
-106.73566 -77.38275 -17.47567 -94.70489 -94.34861 -68.46617    (32.0483,  48.8925)   
-106.99500 -78.41691 -16.59505 -94.55135 -94.55619 -68.25860    (33.1413,  50.4636)   
-107.25435 -79.45107 -15.71442 -94.39782 -94.76376 -68.05103    (34.2585,  52.0675)   
-107.51369 -80.48523 -14.83380 -94.24429 -94.97133 -67.84346    (35.3976,  53.7013)   
-95.17890 -94.09075 -13.95318 -81.51938 -107.77303 -67.63588    (36.5565,  55.3625)   
-95.38647 -93.93722 -13.07255 -82.55354 -108.03237 -67.42831    (37.7334,  57.0485)   
-95.59404 -93.78368 -12.19193 -83.58770 -108.29171 -67.22074    (38.9266,  58.7572)   
-95.80161 -93.63015 -11.31131 -84.62186 -108.55106 -67.01317    (40.1348,  60.4867)   
-96.00918 -93.47661 -10.43068 -85.65601 -108.81040 -66.80560    (41.3565,  62.2354)   
-96.21675 -93.32308  -9.55006 -86.69017 -109.06974 -66.59803    (42.5907,  64.0015)   
-96.42432 -93.16955  -8.66944 -87.72433 -109.32908 -66.39046    (43.8363,  65.7837)   
-96.63189 -93.01601  -7.78881 -88.75849 -109.58843 -66.18289    (44.9539,  67.3962)   
-96.83946 -92.86248  -6.90819 -89.79264 -109.84777 -65.97532    (45.8347,  68.6929)   
-97.04703 -92.70894  -6.02757 -90.82680 -110.10711 -65.76775    (46.7421,  70.0253)   
-97.25460 -92.55541  -5.14694 -91.86096 -110.36645 -65.56018    (47.6747,  71.3914)   
-97.46218 -92.40188  -4.26632 -92.89512 -110.62579 -65.35261    (48.631,  72.7893)   
-97.66975 -92.24834  -3.38570 -93.92927 -110.88514 -65.14504    (49.6096,  74.2171)   
-97.87732 -92.09481  -2.50507 -94.96343 -111.14448 -64.93747    (50.6092,  75.6732)   
-98.08489 -91.94127  -1.62445 -95.99759 -111.40382 -64.72989    (51.6287,  77.156)   
-98.29246 -91.78774  -0.74383 -97.03175 -111.66316 -64.52232    (51.9005,  77.8896)   
-98.36323 -97.92911  -0.13680 -91.49741 -111.78571 -64.45155    (51.55,  77.2271)   
-97.69018 -98.08264  -1.01742 -90.46325 -111.16443 -65.12460    (49.7782,  74.5719)   
-97.01713 -98.23617  -1.89805 -89.42909 -110.54314 -65.79766    (48.0004,  71.9086)   
-96.34407 -98.38971  -2.77867 -88.39493 -109.92186 -66.47071    (46.2226,  69.2453)   
-95.67102 -98.54324  -3.65929 -87.36078 -109.30058 -67.14376    (44.4448,  66.582)   
-94.99797 -98.69678  -4.53992 -86.32662 -108.67930 -67.81681    (42.667,  63.9187)   
-94.32491 -98.85031  -5.42054 -85.29246 -108.05802 -68.48987    (40.8892,  61.2555)   
-107.43674 -84.25830  -6.30116 -99.00384 -93.65186 -69.16292    (39.1114,  58.5922)   
-106.81546 -83.22415  -7.18179 -99.15738 -92.97881 -69.83597    (37.3336,  55.9289)   
-106.19418 -82.18999  -8.06241 -99.31091 -92.30576 -70.50902    (35.5558,  53.2656)   
-105.57290 -81.15583  -8.94303 -99.46445 -91.63270 -71.18208    (33.778,  50.6023)   
-104.95161 -80.12167  -9.82366 -99.61798 -90.95965 -71.85513    (32.0002,  47.9391)   
-104.33033 -79.08752 -10.70428 -99.77152 -90.28660 -72.52818    (30.2225,  45.2758)   
-103.70905 -78.05336 -11.58490 -99.92505 -89.61355 -73.20124    (28.4447,  42.6125)   
-103.08777 -77.01920 -12.46553 -100.07858 -88.94049 -73.87429    (26.6669,  39.9492)   
-102.46649 -75.98504 -13.34615 -100.23212 -88.26744 -74.54734    (24.8891,  37.2859)   
-101.84521 -74.95089 -14.22677 -100.38565 -87.59439 -75.22039    (23.1113,  34.6227)   
-101.22393 -73.91673 -15.10740 -100.53919 -86.92134 -75.89345    (21.3335,  31.9594)   
-100.60265 -72.88257 -15.98802 -100.69272 -86.24828 -76.56650    (19.5557,  29.2961)   
-99.98136 -71.84841 -16.86864 -100.84625 -85.57523 -77.23955    (17.7779,  26.6328)   
-99.36008 -70.81426 -17.74927 -100.99979 -84.90218 -77.91260    (16.0001,  23.9695)   
-98.73880 -69.78010 -18.62989 -101.15332 -84.22912 -78.58566    (14.2223,  21.3062)   
-98.11752 -68.74594 -19.51051 -101.30686 -83.55607 -79.25871    (12.4445,  18.643)   
-97.49624 -67.71178 -20.39114 -101.46039 -82.88302 -79.93176    (10.6667,  15.9797)   
-96.87496 -66.67763 -21.27176 -101.61392 -82.20997 -80.60481    (8.88896,  13.3164)   
-96.25368 -65.64347 -22.15238 -101.76746 -81.53691 -81.27787    (7.11117,  10.6531)   
-95.63240 -64.60931 -23.03301 -101.92099 -80.86386 -81.95092    (5.33337,  7.98984)   
-95.01111 -63.57515 -23.91363 -102.07453 -80.19081 -82.62397    (3.55558,  5.32656)   
-94.38983 -62.54100 -24.79425 -102.22806 -79.51776 -83.29703    (1.77779,  2.66328)   
-93.76855 -61.50684 -25.67488 -102.38160 -78.84470 -83.97008    (0,  1.07896e-05)   
-->
</g>
</g>
<!-- Run Constants
CIRCLEPLOT bool false
DISTANCEPLOT bool true
PRINTDISTANCEDATA bool true
GLITCHESONLY bool false
PLOT 2doubles 3 4
PERTURBBY double 0.05
GLITCHLEVEL double 3
BOUNDARYWINDOW double 0.065
FRAMESPERPATH int 200
STEPSPERFRAME int 100
TRIALS int 1
ALLBLACK bool false
FILEPREFIX string Fol
GRAPHSIZE int 0
BORDER int 0
PLOTSIZE int 0
CIRCLEPLOTSIZE int 2000
CIRCLERADIUS int 300
CIRCLESTROKEWIDTH int 30
G6LINEWIDTH int 3
DELONELINEWIDTH int 10
AXISWIDTH int 6
TICLENGTH int 20
VECTOR g6 
PERTURB g6Perturb 
MOVIEMODE MovieMode STAR
FOLLOWERMODE FollowerMode Follow
FIXRANDOMSEED fixRandomSeed true
RANDOMSEED int 18
TIMESTAMP bool true
END end 




-->
</svg>
