<?xml version="1.0" standalone="no"?>
<!-- the width and height set the total pixel output of the image in the browser -->
<!-- whatever is within the viewbox will be remapped to show in this size -->
<svg width="1000" height="1000" viewBox="1 0 1000 1000"  version="1.1" xmlns="http://www.w3.org/2000/svg" xmlns:xlink="http://www.w3.org/1999/xlink">
 <desc>ID (and file name) = Fol_2017-11-01.13_58_11.4_3.svg </desc> 
 <text x="280"  y="30"  font-family="sans-serif" font-size="20" > Trial vector = 0  </text> 
 <text x="700" y="30" font-family="sans-serif" font-size="20">Wall time passed: 27896 msec.</text>
<text x="450" y="30" font-family="sans-serif" font-size="20" fill="black" > Plotting g5 vs. g4</text>
<text x="300" y="60"  font-family="sans-serif" font-size="20" > Beginning vector  35.1993 -25.7954 -7.65546 -64.7467 -109.01 -168.48</text>
<text x="300" y="85"  font-family="sans-serif" font-size="20" > Beginning cell    9.90947   9.02584  12.61255   1.25644   1.77868   1.65649 </text>
<text x="300" y="110"  font-family="sans-serif" font-size="20" > Ending vector  25.7954 35.1993 7.65546 -124.321 -131.648 -220.071</text>
<text x="300" y="135"  font-family="sans-serif" font-size="20" > Ending cell    9.02584   9.90947  12.61255   1.36291   1.25644   1.48510 </text>




 <!--DISTANCE PLOT BEGINS-->


<!-- the following will scale and place the distance plot -->
<g  transform="translate(0,0) scale(.3, .3) ">
<g transform="translate(150,700) scale(1 -1)">
   <polyline fill="none" stroke="black" stroke-width="10" points=" 5.2 ,5.66755e-05  10.4 ,12.0942  15.6 ,24.1884  20.8 ,36.2825  26 ,48.3767  31.2 ,60.4709  36.4 ,72.5651  41.6 ,84.6593  46.8 ,96.7534  52 ,108.848  57.2 ,120.942  62.4 ,133.036  67.6 ,145.13  72.8 ,157.224  78 ,169.319  83.2 ,181.413  88.4 ,193.507  93.6 ,205.601  98.8 ,217.695  104 ,229.789  109.2 ,241.884  114.4 ,253.978  119.6 ,266.072  124.8 ,278.166  130 ,290.26  135.2 ,302.354  140.4 ,314.449  145.6 ,326.543  150.8 ,338.637  156 ,350.731  161.2 ,362.825  166.4 ,374.92  171.6 ,387.014  176.8 ,399.108  182 ,411.202  187.2 ,423.296  192.4 ,435.39  197.6 ,447.485  202.8 ,459.579  208 ,471.673  213.2 ,479.842  218.4 ,486.348  223.6 ,489.129  228.8 ,479.082  234 ,469.151  239.2 ,459.345  244.4 ,449.67  249.6 ,440.132  254.8 ,430.736  260 ,421.5  265.2 ,412.366  270.4 ,403.337  275.6 ,394.491  280.8 ,385.841  286 ,377.398  291.2 ,369.179  296.4 ,361.198  301.6 ,353.471  306.8 ,346.016  312 ,338.849  317.2 ,331.991  322.4 ,325.46  327.6 ,319.276  332.8 ,313.46  338 ,308.034  343.2 ,303.017  348.4 ,298.43  353.6 ,294.294  358.8 ,290.628  364 ,287.45  369.2 ,284.776  374.4 ,282.62  379.6 ,280.995  384.8 ,279.909  390 ,279.369  395.2 ,279.378  400.4 ,279.937  405.6 ,272.602  410.8 ,260.211  416 ,247.82  421.2 ,235.429  426.4 ,223.038  431.6 ,210.647  436.8 ,198.256  442 ,185.865  447.2 ,173.474  452.4 ,161.083  457.6 ,148.692  462.8 ,136.301  468 ,123.91  473.2 ,111.519  478.4 ,99.1279  483.6 ,86.7369  488.8 ,74.3459  494 ,61.9549  499.2 ,49.5639  504.4 ,37.173  509.6 ,24.782  514.8 ,12.391  520 ,5.66755e-05  " />

<!--Draw the X and Y axes -->
<polyline fill="none" stroke="black" stroke-width="6"  points=" 600,0 0,0 0,520" />
<!-- -->

<line fill="none" stroke-width="3" boundary-string=""  stroke="lightblue" x1="0" y1="3.50124e-13" x2="5.2" y2="3.50124e-13" />
<line fill="none" stroke-width="3" boundary-string=""  stroke="lightblue" x1="5.2" y1="3.50124e-13" x2="10.4" y2="6.72536" />
<line fill="none" stroke-width="3" boundary-string=""  stroke="lightblue" x1="10.4" y1="6.72536" x2="15.6" y2="13.4507" />
<line fill="none" stroke-width="3" boundary-string=""  stroke="lightblue" x1="15.6" y1="13.4507" x2="20.8" y2="20.1761" />
<line fill="none" stroke-width="3" boundary-string=""  stroke="lightblue" x1="20.8" y1="20.1761" x2="26" y2="26.9015" />
<line fill="none" stroke-width="3" boundary-string=""  stroke="lightblue" x1="26" y1="26.9015" x2="31.2" y2="33.6268" />
<line fill="none" stroke-width="3" boundary-string=""  stroke="lightblue" x1="31.2" y1="33.6268" x2="36.4" y2="40.3522" />
<line fill="none" stroke-width="3" boundary-string=""  stroke="lightblue" x1="36.4" y1="40.3522" x2="41.6" y2="47.0775" />
<line fill="none" stroke-width="3" boundary-string=""  stroke="lightblue" x1="41.6" y1="47.0775" x2="46.8" y2="53.8029" />
<line fill="none" stroke-width="3" boundary-string=""  stroke="lightblue" x1="46.8" y1="53.8029" x2="52" y2="60.5283" />
<line fill="none" stroke-width="3" boundary-string=""  stroke="lightblue" x1="52" y1="60.5283" x2="57.2" y2="67.2536" />
<line fill="none" stroke-width="3" boundary-string=""  stroke="lightblue" x1="57.2" y1="67.2536" x2="62.4" y2="73.979" />
<line fill="none" stroke-width="3" boundary-string=""  stroke="lightblue" x1="62.4" y1="73.979" x2="67.6" y2="80.7044" />
<line fill="none" stroke-width="3" boundary-string=""  stroke="lightblue" x1="67.6" y1="80.7044" x2="72.8" y2="87.4297" />
<line fill="none" stroke-width="3" boundary-string=""  stroke="lightblue" x1="72.8" y1="87.4297" x2="78" y2="94.1551" />
<line fill="none" stroke-width="3" boundary-string=""  stroke="lightblue" x1="78" y1="94.1551" x2="83.2" y2="100.88" />
<line fill="none" stroke-width="3" boundary-string=""  stroke="lightblue" x1="83.2" y1="100.88" x2="88.4" y2="107.606" />
<line fill="none" stroke-width="3" boundary-string=""  stroke="lightblue" x1="88.4" y1="107.606" x2="93.6" y2="114.331" />
<line fill="none" stroke-width="3" boundary-string=""  stroke="lightblue" x1="93.6" y1="114.331" x2="98.8" y2="121.057" />
<line fill="none" stroke-width="3" boundary-string=""  stroke="lightblue" x1="98.8" y1="121.057" x2="104" y2="127.782" />
<line fill="none" stroke-width="3" boundary-string=""  stroke="lightblue" x1="104" y1="127.782" x2="109.2" y2="134.507" />
<line fill="none" stroke-width="3" boundary-string=""  stroke="lightblue" x1="109.2" y1="134.507" x2="114.4" y2="141.233" />
<line fill="none" stroke-width="3" boundary-string=""  stroke="lightblue" x1="114.4" y1="141.233" x2="119.6" y2="147.958" />
<line fill="none" stroke-width="3" boundary-string=""  stroke="lightblue" x1="119.6" y1="147.958" x2="124.8" y2="154.683" />
<line fill="none" stroke-width="3" boundary-string=""  stroke="lightblue" x1="124.8" y1="154.683" x2="130" y2="161.409" />
<line fill="none" stroke-width="3" boundary-string=""  stroke="lightblue" x1="130" y1="161.409" x2="135.2" y2="168.134" />
<line fill="none" stroke-width="3" boundary-string=""  stroke="lightblue" x1="135.2" y1="168.134" x2="140.4" y2="174.859" />
<line fill="none" stroke-width="3" boundary-string=""  stroke="lightblue" x1="140.4" y1="174.859" x2="145.6" y2="181.585" />
<line fill="none" stroke-width="3" boundary-string=""  stroke="lightblue" x1="145.6" y1="181.585" x2="150.8" y2="188.31" />
<line fill="none" stroke-width="3" boundary-string=""  stroke="lightblue" x1="150.8" y1="188.31" x2="156" y2="195.036" />
<line fill="none" stroke-width="3" boundary-string=""  stroke="lightblue" x1="156" y1="195.036" x2="161.2" y2="201.761" />
<line fill="none" stroke-width="3" boundary-string=""  stroke="lightblue" x1="161.2" y1="201.761" x2="166.4" y2="208.486" />
<line fill="none" stroke-width="3" boundary-string=""  stroke="lightblue" x1="166.4" y1="208.486" x2="171.6" y2="215.212" />
<line fill="none" stroke-width="3" boundary-string=""  stroke="lightblue" x1="171.6" y1="215.212" x2="176.8" y2="221.937" />
<line fill="none" stroke-width="3" boundary-string=""  stroke="lightblue" x1="176.8" y1="221.937" x2="182" y2="228.662" />
<line fill="none" stroke-width="3" boundary-string=""  stroke="lightblue" x1="182" y1="228.662" x2="187.2" y2="235.388" />
<line fill="none" stroke-width="3" boundary-string=""  stroke="lightblue" x1="187.2" y1="235.388" x2="192.4" y2="242.113" />
<line fill="none" stroke-width="3" boundary-string=""  stroke="lightblue" x1="192.4" y1="242.113" x2="197.6" y2="248.838" />
<line fill="none" stroke-width="3" boundary-string=""  stroke="lightblue" x1="197.6" y1="248.838" x2="202.8" y2="255.564" />
<line fill="none" stroke-width="3" boundary-string=""  stroke="lightblue" x1="202.8" y1="255.564" x2="208" y2="262.289" />
<line fill="none" stroke-width="3" boundary-string=""  stroke="lightblue" x1="208" y1="262.289" x2="213.2" y2="269.015" />
<line fill="none" stroke-width="3" boundary-string=""  stroke="lightblue" x1="213.2" y1="269.015" x2="218.4" y2="275.74" />
<line fill="none" stroke-width="3" boundary-string=""  stroke="lightblue" x1="218.4" y1="275.74" x2="223.6" y2="267.056" />
<line fill="none" stroke-width="3" boundary-string=""  stroke="lightblue" x1="223.6" y1="267.056" x2="228.8" y2="260.963" />
<line fill="none" stroke-width="3" boundary-string=""  stroke="lightblue" x1="228.8" y1="260.963" x2="234" y2="254.967" />
<line fill="none" stroke-width="3" boundary-string=""  stroke="lightblue" x1="234" y1="254.967" x2="239.2" y2="249.075" />
<line fill="none" stroke-width="3" boundary-string=""  stroke="lightblue" x1="239.2" y1="249.075" x2="244.4" y2="243.294" />
<line fill="none" stroke-width="3" boundary-string=""  stroke="lightblue" x1="244.4" y1="243.294" x2="249.6" y2="237.632" />
<line fill="none" stroke-width="3" boundary-string=""  stroke="lightblue" x1="249.6" y1="237.632" x2="254.8" y2="232.098" />
<line fill="none" stroke-width="3" boundary-string=""  stroke="lightblue" x1="254.8" y1="232.098" x2="260" y2="226.702" />
<line fill="none" stroke-width="3" boundary-string=""  stroke="lightblue" x1="260" y1="226.702" x2="265.2" y2="221.234" />
<line fill="none" stroke-width="3" boundary-string=""  stroke="lightblue" x1="265.2" y1="221.234" x2="270.4" y2="213.954" />
<line fill="none" stroke-width="3" boundary-string=""  stroke="lightblue" x1="270.4" y1="213.954" x2="275.6" y2="206.881" />
<line fill="none" stroke-width="3" boundary-string=""  stroke="lightblue" x1="275.6" y1="206.881" x2="280.8" y2="200.038" />
<line fill="none" stroke-width="3" boundary-string=""  stroke="lightblue" x1="280.8" y1="200.038" x2="286" y2="193.449" />
<line fill="none" stroke-width="3" boundary-string=""  stroke="lightblue" x1="286" y1="193.449" x2="291.2" y2="187.141" />
<line fill="none" stroke-width="3" boundary-string=""  stroke="lightblue" x1="291.2" y1="187.141" x2="296.4" y2="181.142" />
<line fill="none" stroke-width="3" boundary-string=""  stroke="lightblue" x1="296.4" y1="181.142" x2="301.6" y2="175.486" />
<line fill="none" stroke-width="3" boundary-string=""  stroke="lightblue" x1="301.6" y1="175.486" x2="306.8" y2="170.206" />
<line fill="none" stroke-width="3" boundary-string=""  stroke="lightblue" x1="306.8" y1="170.206" x2="312" y2="165.338" />
<line fill="none" stroke-width="3" boundary-string=""  stroke="lightblue" x1="312" y1="165.338" x2="317.2" y2="160.919" />
<line fill="none" stroke-width="3" boundary-string=""  stroke="lightblue" x1="317.2" y1="160.919" x2="322.4" y2="156.987" />
<line fill="none" stroke-width="3" boundary-string=""  stroke="lightblue" x1="322.4" y1="156.987" x2="327.6" y2="153.581" />
<line fill="none" stroke-width="3" boundary-string=""  stroke="lightblue" x1="327.6" y1="153.581" x2="332.8" y2="150.735" />
<line fill="none" stroke-width="3" boundary-string=""  stroke="lightblue" x1="332.8" y1="150.735" x2="338" y2="148.481" />
<line fill="none" stroke-width="3" boundary-string=""  stroke="lightblue" x1="338" y1="148.481" x2="343.2" y2="146.847" />
<line fill="none" stroke-width="3" boundary-string=""  stroke="lightblue" x1="343.2" y1="146.847" x2="348.4" y2="145.855" />
<line fill="none" stroke-width="3" boundary-string=""  stroke="lightblue" x1="348.4" y1="145.855" x2="353.6" y2="145.516" />
<line fill="none" stroke-width="3" boundary-string=""  stroke="lightblue" x1="353.6" y1="145.516" x2="358.8" y2="145.835" />
<line fill="none" stroke-width="3" boundary-string=""  stroke="lightblue" x1="358.8" y1="145.835" x2="364" y2="146.809" />
<line fill="none" stroke-width="3" boundary-string=""  stroke="lightblue" x1="364" y1="146.809" x2="369.2" y2="148.424" />
<line fill="none" stroke-width="3" boundary-string=""  stroke="lightblue" x1="369.2" y1="148.424" x2="374.4" y2="150.659" />
<line fill="none" stroke-width="3" boundary-string=""  stroke="lightblue" x1="374.4" y1="150.659" x2="379.6" y2="153.489" />
<line fill="none" stroke-width="3" boundary-string=""  stroke="lightblue" x1="379.6" y1="153.489" x2="384.8" y2="156.284" />
<line fill="none" stroke-width="3" boundary-string=""  stroke="lightblue" x1="384.8" y1="156.284" x2="390" y2="158.987" />
<line fill="none" stroke-width="3" boundary-string=""  stroke="lightblue" x1="390" y1="158.987" x2="395.2" y2="162.336" />
<line fill="none" stroke-width="3" boundary-string=""  stroke="lightblue" x1="395.2" y1="162.336" x2="400.4" y2="166.291" />
<line fill="none" stroke-width="3" boundary-string=""  stroke="lightblue" x1="400.4" y1="166.291" x2="405.6" y2="170.811" />
<line fill="none" stroke-width="3" boundary-string=""  stroke="lightblue" x1="405.6" y1="170.811" x2="410.8" y2="165.064" />
<line fill="none" stroke-width="3" boundary-string=""  stroke="lightblue" x1="410.8" y1="165.064" x2="416" y2="157.203" />
<line fill="none" stroke-width="3" boundary-string=""  stroke="lightblue" x1="416" y1="157.203" x2="421.2" y2="149.343" />
<line fill="none" stroke-width="3" boundary-string=""  stroke="lightblue" x1="421.2" y1="149.343" x2="426.4" y2="141.483" />
<line fill="none" stroke-width="3" boundary-string=""  stroke="lightblue" x1="426.4" y1="141.483" x2="431.6" y2="133.623" />
<line fill="none" stroke-width="3" boundary-string=""  stroke="lightblue" x1="431.6" y1="133.623" x2="436.8" y2="125.763" />
<line fill="none" stroke-width="3" boundary-string=""  stroke="lightblue" x1="436.8" y1="125.763" x2="442" y2="117.903" />
<line fill="none" stroke-width="3" boundary-string=""  stroke="lightblue" x1="442" y1="117.903" x2="447.2" y2="110.042" />
<line fill="none" stroke-width="3" boundary-string=""  stroke="lightblue" x1="447.2" y1="110.042" x2="452.4" y2="102.182" />
<line fill="none" stroke-width="3" boundary-string=""  stroke="lightblue" x1="452.4" y1="102.182" x2="457.6" y2="94.322" />
<line fill="none" stroke-width="3" boundary-string=""  stroke="lightblue" x1="457.6" y1="94.322" x2="462.8" y2="86.4619" />
<line fill="none" stroke-width="3" boundary-string=""  stroke="lightblue" x1="462.8" y1="86.4619" x2="468" y2="78.6017" />
<line fill="none" stroke-width="3" boundary-string=""  stroke="lightblue" x1="468" y1="78.6017" x2="473.2" y2="70.7415" />
<line fill="none" stroke-width="3" boundary-string=""  stroke="lightblue" x1="473.2" y1="70.7415" x2="478.4" y2="62.8814" />
<line fill="none" stroke-width="3" boundary-string=""  stroke="lightblue" x1="478.4" y1="62.8814" x2="483.6" y2="55.0212" />
<line fill="none" stroke-width="3" boundary-string=""  stroke="lightblue" x1="483.6" y1="55.0212" x2="488.8" y2="47.161" />
<line fill="none" stroke-width="3" boundary-string=""  stroke="lightblue" x1="488.8" y1="47.161" x2="494" y2="39.3009" />
<line fill="none" stroke-width="3" boundary-string=""  stroke="lightblue" x1="494" y1="39.3009" x2="499.2" y2="31.4407" />
<line fill="none" stroke-width="3" boundary-string=""  stroke="lightblue" x1="499.2" y1="31.4407" x2="504.4" y2="23.5805" />
<line fill="none" stroke-width="3" boundary-string=""  stroke="lightblue" x1="504.4" y1="23.5805" x2="509.6" y2="15.7203" />
<line fill="none" stroke-width="3" boundary-string=""  stroke="lightblue" x1="509.6" y1="15.7203" x2="514.8" y2="7.86017" />
<line fill="none" stroke-width="3" boundary-string=""  stroke="lightblue" x1="514.8" y1="7.86017" x2="520" y2="0" />

<!--Draw the X and Y axes -->
<polyline fill="none" stroke="black" stroke-width="6"  points=" 600,0 0,0 0,520" />
<!-- -->


<!--Draw labels and tics for X axis -->

<line fill="none" stroke="black"  stroke-width="6"  x1="0.5" y1="0" x2="0.5" y2="-20" />
<text transform="scale(1,-1)" font-family="sans-serif" font-size="30" x="-24.5" y="45" >0 </text>
<line fill="none" stroke="black"  stroke-width="6"  x1="104.5" y1="0" x2="104.5" y2="-20" />
<text transform="scale(1,-1)" font-family="sans-serif" font-size="30" x="79.5" y="45" >20 </text>
<line fill="none" stroke="black"  stroke-width="6"  x1="208.5" y1="0" x2="208.5" y2="-20" />
<text transform="scale(1,-1)" font-family="sans-serif" font-size="30" x="183.5" y="45" >40 </text>
<line fill="none" stroke="black"  stroke-width="6"  x1="312.5" y1="0" x2="312.5" y2="-20" />
<text transform="scale(1,-1)" font-family="sans-serif" font-size="30" x="287.5" y="45" >60 </text>
<line fill="none" stroke="black"  stroke-width="6"  x1="416.5" y1="0" x2="416.5" y2="-20" />
<text transform="scale(1,-1)" font-family="sans-serif" font-size="30" x="391.5" y="45" >80 </text>
<line fill="none" stroke="black"  stroke-width="6"  x1="520.5" y1="0" x2="520.5" y2="-20" />
<text transform="scale(1,-1)" font-family="sans-serif" font-size="30" x="495.5" y="45" >100 </text>


<!--Draw labels and tics for Y axis -->

<line fill="none" stroke="black" stroke-width="6" x1="0.0" y1="0" x2="-20" y2="0" />
<text transform="scale(1,-1)" text-anchor="end" font-family="sans-serif" font-size="30" x="-25" y="10" >0 </text>
<line fill="none" stroke="black" stroke-width="6" x1="0.0" y1="74.2857" x2="-20" y2="74.2857" />
<text transform="scale(1,-1)" text-anchor="end" font-family="sans-serif" font-size="30" x="-25" y="-64.2857" >10 </text>
<line fill="none" stroke="black" stroke-width="6" x1="0.0" y1="148.571" x2="-20" y2="148.571" />
<text transform="scale(1,-1)" text-anchor="end" font-family="sans-serif" font-size="30" x="-25" y="-138.571" >20 </text>
<line fill="none" stroke="black" stroke-width="6" x1="0.0" y1="222.857" x2="-20" y2="222.857" />
<text transform="scale(1,-1)" text-anchor="end" font-family="sans-serif" font-size="30" x="-25" y="-212.857" >30 </text>
<line fill="none" stroke="black" stroke-width="6" x1="0.0" y1="297.143" x2="-20" y2="297.143" />
<text transform="scale(1,-1)" text-anchor="end" font-family="sans-serif" font-size="30" x="-25" y="-287.143" >40 </text>
<line fill="none" stroke="black" stroke-width="6" x1="0.0" y1="371.429" x2="-20" y2="371.429" />
<text transform="scale(1,-1)" text-anchor="end" font-family="sans-serif" font-size="30" x="-25" y="-361.429" >50 </text>
<line fill="none" stroke="black" stroke-width="6" x1="0.0" y1="445.714" x2="-20" y2="445.714" />
<text transform="scale(1,-1)" text-anchor="end" font-family="sans-serif" font-size="30" x="-25" y="-435.714" >60 </text>
<line fill="none" stroke="black" stroke-width="6" x1="0.0" y1="520" x2="-20" y2="520" />
<text transform="scale(1,-1)" text-anchor="end" font-family="sans-serif" font-size="30" x="-25" y="-510" >70 </text>


<!-- Reduced vector followed by D7dist from the final reduced cell
-18.14 -46.2665 -7.65546 -27.5438 -72.4021 -105.737   (4.71321e-14,  7.62939e-06)   
-17.6785 -46.5305 -7.5008 -27.6035 -72.8492 -106.294   (0.905337,  1.62806)   
-17.2171 -46.7945 -7.34615 -27.6632 -73.2963 -106.85   (1.81067,  3.25613)   
-16.7556 -47.0585 -7.19149 -27.7228 -73.7434 -107.406   (2.71601,  4.88419)   
-16.2941 -47.3225 -7.03684 -27.7825 -74.1905 -107.963   (3.62135,  6.51225)   
-15.8327 -47.5865 -6.88218 -27.8422 -74.6376 -108.519   (4.52669,  8.14031)   
-15.3712 -47.8505 -6.72752 -27.9018 -75.0847 -109.076   (5.43202,  9.76838)   
-14.9098 -48.1145 -6.57287 -27.9615 -75.5318 -109.632   (6.33736,  11.3964)   
-14.4483 -48.3785 -6.41821 -28.0212 -75.9789 -110.189   (7.2427,  13.0245)   
-13.9869 -48.6425 -6.26356 -28.0808 -76.426 -110.745   (8.14804,  14.6526)   
-13.5254 -48.9065 -6.1089 -28.1405 -76.8731 -111.301   (9.05337,  16.2806)   
-13.064 -49.1705 -5.95425 -28.2002 -77.3202 -111.858   (9.95871,  17.9087)   
-12.6025 -49.4345 -5.79959 -28.2598 -77.7673 -112.414   (10.864,  19.5368)   
-12.1411 -49.6985 -5.64493 -28.3195 -78.2144 -112.971   (11.7694,  21.1648)   
-11.6796 -49.9625 -5.49028 -28.3792 -78.6615 -113.527   (12.6747,  22.7929)   
-11.2182 -50.2265 -5.33562 -28.4388 -79.1086 -114.084   (13.5801,  24.4209)   
-10.7567 -50.4905 -5.18097 -28.4985 -79.5557 -114.64   (14.4854,  26.049)   
-10.2953 -50.7545 -5.02631 -28.5582 -80.0028 -115.197   (15.3907,  27.6771)   
-9.83382 -51.0184 -4.87166 -28.6178 -80.45 -115.753   (16.2961,  29.3051)   
-9.37236 -51.2824 -4.717 -28.6775 -80.8971 -116.309   (17.2014,  30.9332)   
-8.91091 -51.5464 -4.56234 -28.7372 -81.3442 -116.866   (18.1067,  32.5613)   
-8.44946 -51.8104 -4.40769 -28.7968 -81.7913 -117.422   (19.0121,  34.1893)   
-7.98801 -52.0744 -4.25303 -28.8565 -82.2384 -117.979   (19.9174,  35.8174)   
-7.52655 -52.3384 -4.09838 -28.9162 -82.6855 -118.535   (20.8228,  37.4454)   
-7.0651 -52.6024 -3.94372 -28.9758 -83.1326 -119.092   (21.7281,  39.0735)   
-6.60365 -52.8664 -3.78907 -29.0355 -83.5797 -119.648   (22.6334,  40.7016)   
-6.1422 -53.1304 -3.63441 -29.0952 -84.0268 -120.205   (23.5388,  42.3296)   
-5.68075 -53.3944 -3.47975 -29.1548 -84.4739 -120.761   (24.4441,  43.9577)   
-5.21929 -53.6584 -3.3251 -29.2145 -84.921 -121.317   (25.3494,  45.5858)   
-4.75784 -53.9224 -3.17044 -29.2742 -85.3681 -121.874   (26.2548,  47.2138)   
-4.29639 -54.1864 -3.01579 -29.3338 -85.8152 -122.43   (27.1601,  48.8419)   
-3.83494 -54.4504 -2.86113 -29.3935 -86.2623 -122.987   (28.0655,  50.4699)   
-3.37348 -54.7144 -2.70648 -29.4532 -86.7094 -123.543   (28.9708,  52.098)   
-2.91203 -54.9784 -2.55182 -29.5128 -87.1565 -124.1   (29.8761,  53.7261)   
-2.45058 -55.2424 -2.39716 -29.5725 -87.6036 -124.656   (30.7815,  55.3541)   
-1.98913 -55.5064 -2.24251 -29.6322 -88.0507 -125.213   (31.6868,  56.9822)   
-1.52767 -55.7704 -2.08785 -29.6918 -88.4978 -125.769   (32.5921,  58.6103)   
-1.06622 -56.0344 -1.9332 -29.7515 -88.9449 -126.325   (33.4975,  60.2383)   
-0.60477 -56.2984 -1.77854 -29.8112 -89.392 -126.882   (34.4028,  61.8664)   
-0.143318 -56.5624 -1.62389 -29.8708 -89.8391 -127.438   (35.3082,  63.4944)   
-30.2486 -89.968 -1.1511 -0.318134 -127.677 -56.5082   (36.2135,  64.5941)   
-30.7698 -89.9537 -0.534987 -0.779587 -127.772 -56.3108   (37.1188,  65.4699)   
-0.0811209 -31.2098 -1.15992 -56.1944 -89.8582 -127.785   (35.9499,  65.8443)   
-0.697229 -31.1148 -1.00526 -56.6131 -89.2277 -127.264   (35.1297,  64.4918)   
-1.31334 -31.0198 -0.850606 -57.0317 -88.5973 -126.743   (34.3225,  63.155)   
-1.92944 -30.9248 -0.695951 -57.4504 -87.9668 -126.222   (33.5293,  61.835)   
-2.54555 -30.8298 -0.541295 -57.869 -87.3364 -125.701   (32.7511,  60.5325)   
-3.16166 -30.7348 -0.386639 -58.2877 -86.7059 -125.18   (31.9889,  59.2486)   
-3.77777 -30.6398 -0.231984 -58.7064 -86.0754 -124.659   (31.244,  57.9837)   
-4.39388 -30.5448 -0.0773279 -59.125 -85.445 -124.138   (30.5175,  56.7404)   
-59.4663 -4.93266 -0.0773279 -84.7372 -30.3725 -123.694   (29.7815,  55.5108)   
-59.7303 -5.39411 -0.231984 -83.9521 -30.1229 -123.327   (28.8015,  54.2954)   
-59.9943 -5.85556 -0.386639 -83.167 -29.8732 -122.961   (27.8494,  53.1046)   
-60.2583 -6.31701 -0.541295 -82.3818 -29.6236 -122.594   (26.9282,  51.9401)   
-60.5223 -6.77847 -0.695951 -81.5967 -29.3739 -122.228   (26.0412,  50.8036)   
-60.7863 -7.23992 -0.850606 -80.8116 -29.1243 -121.861   (25.192,  49.6972)   
-61.0503 -7.70137 -1.00526 -80.0265 -28.8747 -121.495   (24.3845,  48.6228)   
-61.3143 -8.16282 -1.15992 -79.2414 -28.625 -121.129   (23.6231,  47.5827)   
-61.5783 -8.62428 -1.31457 -78.4563 -28.3754 -120.762   (22.9123,  46.579)   
-61.8423 -9.08573 -1.46923 -77.6711 -28.1257 -120.396   (22.257,  45.6143)   
-62.1063 -9.54718 -1.62389 -76.886 -27.8761 -120.029   (21.6621,  44.691)   
-62.3703 -10.0086 -1.77854 -76.1009 -27.6264 -119.663   (21.1329,  43.8119)   
-62.6343 -10.4701 -1.9332 -75.3158 -27.3768 -119.296   (20.6743,  42.9794)   
-62.8983 -10.9315 -2.08785 -74.5307 -27.1271 -118.93   (20.2912,  42.1966)   
-63.1623 -11.393 -2.24251 -73.7456 -26.8775 -118.563   (19.9878,  41.4661)   
-63.4263 -11.8544 -2.39716 -72.9605 -26.6279 -118.197   (19.7679,  40.7907)   
-63.6903 -12.3159 -2.55182 -72.1753 -26.3782 -117.83   (19.6343,  40.1733)   
-63.9543 -12.7773 -2.70648 -71.3902 -26.1286 -117.464   (19.5887,  39.6165)   
-64.2183 -13.2388 -2.86113 -70.6051 -25.8789 -117.097   (19.6317,  39.123)   
-64.4823 -13.7003 -3.01579 -69.82 -25.6293 -116.731   (19.7627,  38.6952)   
-64.7463 -14.1617 -3.17044 -69.0349 -25.3796 -116.365   (19.9801,  38.3352)   
-65.0103 -14.6232 -3.3251 -68.2498 -25.13 -115.998   (20.2811,  38.045)   
-65.2742 -15.0846 -3.47975 -67.4646 -24.8804 -115.632   (20.6619,  37.8262)   
-65.5382 -15.5461 -3.63441 -66.6795 -24.6307 -115.265   (21.0383,  37.6801)   
-65.8022 -16.0075 -3.78907 -65.8944 -24.3811 -114.899   (21.4022,  37.6074)   
-66.0662 -16.469 -3.94372 -65.1093 -24.1314 -114.532   (21.8529,  37.6086)   
-66.3302 -16.9304 -4.09838 -64.3242 -23.8818 -114.166   (22.3854,  37.6838)   
-66.5942 -17.3919 -4.25303 -63.5391 -23.6321 -113.799   (22.9938,  36.6964)   
-66.8582 -17.8533 -4.40769 -62.7539 -23.3825 -113.433   (22.2201,  35.0284)   
-23.1328 -61.9688 -4.56234 -18.3148 -67.1222 -113.066   (21.162,  33.3603)   
-22.8832 -61.1837 -4.717 -18.7762 -67.3862 -112.7   (20.1039,  31.6923)   
-22.6336 -60.3986 -4.87166 -19.2377 -67.6502 -112.333   (19.0458,  30.0243)   
-22.3839 -59.6135 -5.02631 -19.6991 -67.9142 -111.967   (17.9877,  28.3563)   
-22.1343 -58.8284 -5.18097 -20.1606 -68.1782 -111.601   (16.9296,  26.6883)   
-21.8846 -58.0433 -5.33562 -20.622 -68.4422 -111.234   (15.8715,  25.0203)   
-21.635 -57.2581 -5.49028 -21.0835 -68.7062 -110.868   (14.8134,  23.3522)   
-21.3853 -56.473 -5.64493 -21.5449 -68.9702 -110.501   (13.7553,  21.6842)   
-21.1357 -55.6879 -5.79959 -22.0064 -69.2342 -110.135   (12.6972,  20.0162)   
-20.886 -54.9028 -5.95425 -22.4678 -69.4982 -109.768   (11.6391,  18.3482)   
-20.6364 -54.1177 -6.1089 -22.9293 -69.7622 -109.402   (10.581,  16.6802)   
-20.3868 -53.3326 -6.26356 -23.3907 -70.0262 -109.035   (9.5229,  15.0122)   
-20.1371 -52.5474 -6.41821 -23.8522 -70.2902 -108.669   (8.4648,  13.3441)   
-19.8875 -51.7623 -6.57287 -24.3137 -70.5542 -108.302   (7.4067,  11.6761)   
-19.6378 -50.9772 -6.72752 -24.7751 -70.8182 -107.936   (6.3486,  10.0081)   
-19.3882 -50.1921 -6.88218 -25.2366 -71.0822 -107.569   (5.2905,  8.34009)   
-19.1385 -49.407 -7.03684 -25.698 -71.3462 -107.203   (4.2324,  6.67207)   
-18.8889 -48.6219 -7.19149 -26.1595 -71.6102 -106.836   (3.1743,  5.00405)   
-18.6392 -47.8367 -7.34615 -26.6209 -71.8742 -106.47   (2.1162,  3.33603)   
-18.3896 -47.0516 -7.5008 -27.0824 -72.1381 -106.104   (1.0581,  1.66802)   
-18.14 -46.2665 -7.65546 -27.5438 -72.4021 -105.737   (0,  7.62939e-06)   
-->
</g>
</g>
<!-- CIRCLE PLOT BEGINS -->
<!-- scale affects rendering NOT the original coordinates -->
<!-- the scale times the translated coordinates must fit in the viewbox -->
<!-- the second translate moves the image to where it is placed -->
<g id="CirclePlot" transform=" scale(.05) translate(10552.7, 15911.9) translate(400, 6000 )" >
 <desc>Output circle plot for Follower</desc> 
 <defs><marker id="arrowhead" viewBox="0 0 400 400" refX="100" refY="50" 
     markerUnits="strokeWidth" orient="auto" 
     markerWidth="60" markerHeight="60"> 
     <polyline points="0,0 100,50 0,100 q" fill="black" /> 
 </marker></defs> 


<defs>
        <circle id="cir" r=" 300" stroke-width="30"  />
</defs>

<use x=" -3430.14" y=" -9016.54" xlink:href="#cir" fill="lightblue" stroke="black"  />
<use x=" -3372.68" y=" -8983.66" xlink:href="#cir" fill="lightblue" stroke="black"  />
<use x=" -3315.21" y=" -8950.78" xlink:href="#cir" fill="lightblue" stroke="black"  />
<use x=" -3257.74" y=" -8917.91" xlink:href="#cir" fill="lightblue" stroke="black"  />
<use x=" -3200.28" y=" -8885.03" xlink:href="#cir" fill="lightblue" stroke="black"  />
<use x=" -3142.81" y=" -8852.15" xlink:href="#cir" fill="lightblue" stroke="black"  />
<use x=" -3085.35" y=" -8819.28" xlink:href="#cir" fill="lightblue" stroke="black"  />
<use x=" -3027.88" y=" -8786.4" xlink:href="#cir" fill="lightblue" stroke="black"  />
<use x=" -2970.41" y=" -8753.52" xlink:href="#cir" fill="lightblue" stroke="black"  />
<use x=" -2912.95" y=" -8720.65" xlink:href="#cir" fill="lightblue" stroke="black"  />
<use x=" -2855.48" y=" -8687.77" xlink:href="#cir" fill="lightblue" stroke="black"  />
<use x=" -2798.01" y=" -8654.89" xlink:href="#cir" fill="lightblue" stroke="black"  />
<use x=" -2740.55" y=" -8622.02" xlink:href="#cir" fill="lightblue" stroke="black"  />
<use x=" -2683.08" y=" -8589.14" xlink:href="#cir" fill="lightblue" stroke="black"  />
<use x=" -2625.61" y=" -8556.26" xlink:href="#cir" fill="lightblue" stroke="black"  />
<use x=" -2568.15" y=" -8523.39" xlink:href="#cir" fill="lightblue" stroke="black"  />
<use x=" -2510.68" y=" -8490.51" xlink:href="#cir" fill="lightblue" stroke="black"  />
<use x=" -2453.21" y=" -8457.63" xlink:href="#cir" fill="lightblue" stroke="black"  />
<use x=" -2395.75" y=" -8424.76" xlink:href="#cir" fill="lightblue" stroke="black"  />
<use x=" -2338.28" y=" -8391.88" xlink:href="#cir" fill="lightblue" stroke="black"  />
<use x=" -2280.81" y=" -8359" xlink:href="#cir" fill="lightblue" stroke="black"  />
<use x=" -7815.01" y=" -2911.92" xlink:href="#cir" fill="lightblue" stroke="black"  />
<use x=" -7912.78" y=" -2943.01" xlink:href="#cir" fill="lightblue" stroke="black"  />
<use x=" -8010.55" y=" -2974.1" xlink:href="#cir" fill="lightblue" stroke="black"  />
<use x=" -8108.33" y=" -3005.18" xlink:href="#cir" fill="lightblue" stroke="black"  />
<use x=" -8206.1" y=" -3036.27" xlink:href="#cir" fill="lightblue" stroke="black"  />
<use x=" -8303.87" y=" -3067.36" xlink:href="#cir" fill="lightblue" stroke="black"  />
<use x=" -8401.65" y=" -3098.45" xlink:href="#cir" fill="lightblue" stroke="black"  />
<use x=" -8499.42" y=" -3129.54" xlink:href="#cir" fill="lightblue" stroke="black"  />
<use x=" -8597.2" y=" -3160.63" xlink:href="#cir" fill="lightblue" stroke="black"  />
<use x=" -8694.97" y=" -3191.72" xlink:href="#cir" fill="lightblue" stroke="black"  />
<use x=" -8792.74" y=" -3222.81" xlink:href="#cir" fill="lightblue" stroke="black"  />
<use x=" -8890.52" y=" -3253.9" xlink:href="#cir" fill="lightblue" stroke="black"  />
<use x=" -8988.29" y=" -3284.99" xlink:href="#cir" fill="lightblue" stroke="black"  />
<use x=" -9086.06" y=" -3316.08" xlink:href="#cir" fill="lightblue" stroke="black"  />
<use x=" -9183.84" y=" -3347.17" xlink:href="#cir" fill="lightblue" stroke="black"  />
<use x=" -9281.61" y=" -3378.25" xlink:href="#cir" fill="lightblue" stroke="black"  />
<use x=" -9379.38" y=" -3409.34" xlink:href="#cir" fill="lightblue" stroke="black"  />
<use x=" -9477.16" y=" -3440.43" xlink:href="#cir" fill="lightblue" stroke="black"  />
<use x=" -9574.93" y=" -3471.52" xlink:href="#cir" fill="lightblue" stroke="black"  />
<use x=" -9672.71" y=" -3502.61" xlink:href="#cir" fill="lightblue" stroke="black"  />
<use x=" -9770.48" y=" -3533.7" xlink:href="#cir" fill="lightblue" stroke="black"  />
<use x=" -9868.25" y=" -3564.79" xlink:href="#cir" fill="lightblue" stroke="black"  />
<use x=" -9966.03" y=" -3595.88" xlink:href="#cir" fill="lightblue" stroke="black"  />
<use x=" -10063.8" y=" -3626.97" xlink:href="#cir" fill="lightblue" stroke="black"  />
<use x=" -10161.6" y=" -3658.06" xlink:href="#cir" fill="lightblue" stroke="black"  />
<use x=" -10259.3" y=" -3689.15" xlink:href="#cir" fill="lightblue" stroke="black"  />
<use x=" -10357.1" y=" -3720.24" xlink:href="#cir" fill="lightblue" stroke="black"  />
<use x=" -10454.9" y=" -3751.33" xlink:href="#cir" fill="lightblue" stroke="black"  />
<use x=" -10552.7" y=" -3782.41" xlink:href="#cir" fill="lightblue" stroke="black"  />
<use x=" -7363.08" y=" -10640.8" xlink:href="#cir" fill="lightblue" stroke="black"  />
<use x=" -7310.94" y=" -10719.3" xlink:href="#cir" fill="lightblue" stroke="black"  />
<use x=" -7258.81" y=" -10797.8" xlink:href="#cir" fill="lightblue" stroke="black"  />
<use x=" -7206.67" y=" -10876.4" xlink:href="#cir" fill="lightblue" stroke="black"  />
<use x=" -7154.53" y=" -10954.9" xlink:href="#cir" fill="lightblue" stroke="black"  />
<use x=" -7102.4" y=" -11033.4" xlink:href="#cir" fill="lightblue" stroke="black"  />
<use x=" -7050.26" y=" -11111.9" xlink:href="#cir" fill="lightblue" stroke="black"  />
<use x=" -6998.12" y=" -11190.4" xlink:href="#cir" fill="lightblue" stroke="black"  />
<use x=" -97.0851" y=" -15911.9" xlink:href="#cir" fill="lightblue" stroke="black"  />
<use x=" -39.6186" y=" -15900.1" xlink:href="#cir" fill="lightblue" stroke="black"  />
<use x=" -3719.94" y=" -11188" xlink:href="#cir" fill="lightblue" stroke="black"  />
<use x=" -3712.51" y=" -11132.3" xlink:href="#cir" fill="lightblue" stroke="black"  />
<use x=" -3705.08" y=" -11076.7" xlink:href="#cir" fill="lightblue" stroke="black"  />
<use x=" -3697.65" y=" -11021" xlink:href="#cir" fill="lightblue" stroke="black"  />
<use x=" -3690.22" y=" -10965.3" xlink:href="#cir" fill="lightblue" stroke="black"  />
<use x=" -3682.78" y=" -10909.6" xlink:href="#cir" fill="lightblue" stroke="black"  />
<use x=" -3675.35" y=" -10853.9" xlink:href="#cir" fill="lightblue" stroke="black"  />
<use x=" -3667.92" y=" -10798.3" xlink:href="#cir" fill="lightblue" stroke="black"  />
<use x=" -3660.49" y=" -10742.6" xlink:href="#cir" fill="lightblue" stroke="black"  />
<use x=" -3653.06" y=" -10686.9" xlink:href="#cir" fill="lightblue" stroke="black"  />
<use x=" -3645.63" y=" -10631.2" xlink:href="#cir" fill="lightblue" stroke="black"  />
<use x=" -3638.2" y=" -10575.6" xlink:href="#cir" fill="lightblue" stroke="black"  />
<use x=" -3630.77" y=" -10519.9" xlink:href="#cir" fill="lightblue" stroke="black"  />
<use x=" -3623.34" y=" -10464.2" xlink:href="#cir" fill="lightblue" stroke="black"  />
<use x=" -3615.91" y=" -10408.5" xlink:href="#cir" fill="lightblue" stroke="black"  />
<use x=" -3608.48" y=" -10352.8" xlink:href="#cir" fill="lightblue" stroke="black"  />
<use x=" -3601.05" y=" -10297.2" xlink:href="#cir" fill="lightblue" stroke="black"  />
<use x=" -3593.62" y=" -10241.5" xlink:href="#cir" fill="lightblue" stroke="black"  />
<use x=" -3586.19" y=" -10185.8" xlink:href="#cir" fill="lightblue" stroke="black"  />
<use x=" -3578.76" y=" -10130.1" xlink:href="#cir" fill="lightblue" stroke="black"  />
<use x=" -3571.33" y=" -10074.4" xlink:href="#cir" fill="lightblue" stroke="black"  />
<use x=" -3563.9" y=" -10018.8" xlink:href="#cir" fill="lightblue" stroke="black"  />
<use x=" -3556.46" y=" -9963.08" xlink:href="#cir" fill="lightblue" stroke="black"  />
<use x=" -3549.03" y=" -9907.4" xlink:href="#cir" fill="lightblue" stroke="black"  />
<use x=" -3541.6" y=" -9851.72" xlink:href="#cir" fill="lightblue" stroke="black"  />
<use x=" -3534.17" y=" -9796.04" xlink:href="#cir" fill="lightblue" stroke="black"  />
<use x=" -3526.74" y=" -9740.37" xlink:href="#cir" fill="lightblue" stroke="black"  />
<use x=" -3519.31" y=" -9684.69" xlink:href="#cir" fill="lightblue" stroke="black"  />
<use x=" -3511.88" y=" -9629.01" xlink:href="#cir" fill="lightblue" stroke="black"  />
<use x=" -3504.45" y=" -9573.33" xlink:href="#cir" fill="lightblue" stroke="black"  />
<use x=" -3497.02" y=" -9517.65" xlink:href="#cir" fill="lightblue" stroke="black"  />
<use x=" -3489.59" y=" -9461.97" xlink:href="#cir" fill="lightblue" stroke="black"  />
<use x=" -3482.16" y=" -9406.29" xlink:href="#cir" fill="lightblue" stroke="black"  />
<use x=" -3474.73" y=" -9350.61" xlink:href="#cir" fill="lightblue" stroke="black"  />
<use x=" -3467.3" y=" -9294.93" xlink:href="#cir" fill="lightblue" stroke="black"  />
<use x=" -3459.87" y=" -9239.25" xlink:href="#cir" fill="lightblue" stroke="black"  />
<use x=" -3452.44" y=" -9183.57" xlink:href="#cir" fill="lightblue" stroke="black"  />
<use x=" -3445.01" y=" -9127.89" xlink:href="#cir" fill="lightblue" stroke="black"  />
<use x=" -3437.58" y=" -9072.21" xlink:href="#cir" fill="lightblue" stroke="black"  />
<use x=" -3430.14" y=" -9016.54" xlink:href="#cir" fill="lightblue" stroke="black"  />
<text x="-3330.14" y="-8916.54" font-family="sans-serif" font-size=" 600px" fill="black">   100   </text>

<line x1=" -3535.28" y1=" -11424.5" x2=" -39.6186" y2=" -15900.1" angle=" -52.0087" stroke-width="15"  fill="black" stroke="black" marker-end="url(#arrowhead)"/>
<text x="-3956.37" y="-11372.7" font-family="sans-serif" font-size=" 600px" fill="black">   40   </text>

<text x="-276.05" y="-16084.8" font-family="sans-serif" font-size=" 600px" fill="black">   41   </text>

<line x1=" -333.458" y1=" -15960.6" x2=" -97.0851" y2=" -15911.9" angle=" -168.368" stroke-width="15"  fill="black" stroke="black" marker-end="url(#arrowhead)"/>
<text x="-100.104" y="-15606.2" font-family="sans-serif" font-size=" 600px" fill="black">   41   </text>

<text x="-157.571" y="-15618.1" font-family="sans-serif" font-size=" 600px" fill="black">   42   </text>

<line x1=" -344.682" y1=" -15742.5" x2=" -6998.12" y2=" -11190.4" angle=" 145.621" stroke-width="15"  fill="black" stroke="black" marker-end="url(#arrowhead)"/>
<text x="72.3138" y="-15664.3" font-family="sans-serif" font-size=" 600px" fill="black">   42   </text>

<text x="-6828.72" y="-10942.8" font-family="sans-serif" font-size=" 600px" fill="black">   43   </text>

<line x1=" -7489.59" y1=" -10368.8" x2=" -10552.7" y2=" -3782.41" angle=" 114.941" stroke-width="15"  fill="black" stroke="black" marker-end="url(#arrowhead)"/>
<text x="-7091.06" y="-10514.3" font-family="sans-serif" font-size=" 600px" fill="black">   50   </text>

<text x="-10280.6" y="-3655.91" font-family="sans-serif" font-size=" 600px" fill="black">   51   </text>

<line x1=" -7601.2" y1=" -3122.36" x2=" -2280.81" y2=" -8359" angle=" -44.5455" stroke-width="15"  fill="black" stroke="black" marker-end="url(#arrowhead)"/>
<text x="-8025.45" y="-3125.72" font-family="sans-serif" font-size=" 600px" fill="black">   79   </text>

<text x="-2491.26" y="-8572.81" font-family="sans-serif" font-size=" 600px" fill="black">   80   </text>

</g>
<!-- Run Constants
CIRCLEPLOT bool true
DISTANCEPLOT bool true
PRINTDISTANCEDATA bool true
GLITCHESONLY bool false
PLOT 2doubles 3 4
PERTURBBY double 150
GLITCHLEVEL double 3
BOUNDARYWINDOW double 0.065
FRAMESPERPATH int 200
STEPSPERFRAME int 100
TRIALS int 5
ALLBLACK bool false
FILEPREFIX string Fol
GRAPHSIZE int 0
BORDER int 0
PLOTSIZE int 0
CIRCLEPLOTSIZE int 2000
CIRCLERADIUS int 300
CIRCLESTROKEWIDTH int 30
G6LINEWIDTH int 3
DELONELINEWIDTH int 10
AXISWIDTH int 6
TICLENGTH int 20
VECTOR g6 
PERTURB g6Perturb 
MOVIEMODE MovieMode STAR
FOLLOWERMODE FollowerMode Follow
FIXRANDOMSEED fixRandomSeed false
RANDOMSEED int 19191
TIMESTAMP bool true
END end 




-->
</svg>
