<?xml version="1.0" standalone="no"?>
<!-- the width and height set the total pixel output of the image in the browser -->
<!-- whatever is within the viewbox will be remapped to show in this size -->
<svg width="1000" height="1000" viewBox="1 0 1000 1000"  version="1.1" xmlns="http://www.w3.org/2000/svg" xmlns:xlink="http://www.w3.org/1999/xlink">
 <desc>ID (and file name) = Fol_2018-02-06.14_16_04.28_0.svg </desc> 
 <text x="280"  y="30"  font-family="sans-serif" font-size="20" > Trial vector = 0  </text> 
 <text x="700" y="30" font-family="sans-serif" font-size="20">Wall time passed: 36078 msec.</text>
<text x="450" y="30" font-family="sans-serif" font-size="20" fill="black" > Plotting g5 vs. g4</text>
<text x="300" y="60"  font-family="sans-serif" font-size="20" > Beginning vector  -120.64776  73.51778 -108.98715 -176.28996  17.85157 -161.24912 </text>
<text x="300" y="85"  font-family="sans-serif" font-size="20" > Beginning cell   14.55195  14.55278  14.43534   2.18256   1.21325   2.11139 </text>
<text x="300" y="110"  font-family="sans-serif" font-size="20" > Ending vector  -47.12998 -87.73134 -55.66621 -35.46937 -102.77218 -73.51778 </text>
<text x="300" y="135"  font-family="sans-serif" font-size="20" > Ending cell   13.37411  14.33766  14.43534   1.80053   2.04252   1.86534 </text>

<text x="300" y="160"  font-family="sans-serif" font-size="20" > Glitch  -110.99391  52.34365 -101.98541 -157.79836   2.01209 -149.72884  (24.6129 )</text>
<text x="300" y="185"  font-family="sans-serif" font-size="20" > Glitch  -111.73651  53.97243 -102.52401 -159.22079   3.23051 -150.61502  (25.7761)</text>



 <!--DISTANCE PLOT BEGINS-->


<!-- the following will scale and place the distance plot -->
<g  transform="translate(0,50) ">
<g transform="translate(150,700) scale(1 -1)">
   <polyline fill="none" stroke="black" stroke-width="10" points=" 5.2 ,0  10.4 ,18.2733  15.6 ,36.5467  20.8 ,54.82  26 ,73.0934  31.2 ,91.3667  36.4 ,109.64  41.6 ,127.913  46.8 ,146.187  52 ,164.46  57.2 ,182.733  62.4 ,201.007  67.6 ,205.053  72.8 ,199.847  78 ,196.211  83.2 ,194.233  88.4 ,193.964  93.6 ,195.41  98.8 ,198.536  104 ,203.262  109.2 ,206.601  114.4 ,208.59  119.6 ,212.139  124.8 ,217.173  130 ,223.592  135.2 ,231.28  140.4 ,240.115  145.6 ,249.975  150.8 ,260.745  156 ,272.316  161.2 ,284.591  166.4 ,297.483  171.6 ,310.915  176.8 ,324.819  182 ,339.138  187.2 ,353.822  192.4 ,368.827  197.6 ,384.115  202.8 ,399.653  208 ,415.415  213.2 ,431.374  218.4 ,447.511  223.6 ,463.806  228.8 ,480.243  234 ,496.809  239.2 ,513.491  244.4 ,514.054  249.6 ,512.87  254.8 ,512.597  260 ,513.271  265.2 ,513.872  270.4 ,496.747  275.6 ,479.951  280.8 ,463.52  286 ,447.493  291.2 ,431.916  296.4 ,416.839  301.6 ,402.318  306.8 ,388.416  312 ,375.202  317.2 ,362.75  322.4 ,351.142  327.6 ,340.464  332.8 ,330.806  338 ,322.26  343.2 ,314.917  348.4 ,308.861  353.6 ,304.171  358.8 ,300.91  364 ,299.125  369.2 ,298.842  374.4 ,300.065  379.6 ,302.776  384.8 ,306.937  390 ,312.488  395.2 ,319.357  400.4 ,327.462  405.6 ,331.922  410.8 ,323.969  416 ,317.242  421.2 ,311.818  426.4 ,307.766  431.6 ,305.142  436.8 ,303.983  442 ,304.305  447.2 ,297.307  452.4 ,276.071  457.6 ,254.835  462.8 ,233.599  468 ,212.362  473.2 ,191.126  478.4 ,169.89  483.6 ,148.654  488.8 ,127.417  494 ,106.181  499.2 ,84.945  504.4 ,63.7087  509.6 ,42.4725  514.8 ,21.2362  520 ,0  " />

<!--Draw the X and Y axes -->
<polyline fill="none" stroke="black" stroke-width="6"  points=" 600,0 0,0 0,520" />
<!-- -->

<line fill="none" stroke-width="3" boundary-string=""  stroke="lightblue" x1="0" y1="8.22876e-13" x2="5.2" y2="8.22876e-13" />
<line fill="none" stroke-width="3" boundary-string=""  stroke="lightblue" x1="5.2" y1="8.22876e-13" x2="10.4" y2="12.0716" />
<line fill="none" stroke-width="3" boundary-string=""  stroke="lightblue" x1="10.4" y1="12.0716" x2="15.6" y2="24.1431" />
<line fill="none" stroke-width="3" boundary-string=""  stroke="lightblue" x1="15.6" y1="24.1431" x2="20.8" y2="36.2147" />
<line fill="none" stroke-width="3" boundary-string=""  stroke="lightblue" x1="20.8" y1="36.2147" x2="26" y2="48.2863" />
<line fill="none" stroke-width="3" boundary-string=""  stroke="lightblue" x1="26" y1="48.2863" x2="31.2" y2="60.3579" />
<line fill="none" stroke-width="3" boundary-string=""  stroke="lightblue" x1="31.2" y1="60.3579" x2="36.4" y2="72.4294" />
<line fill="none" stroke-width="3" boundary-string=""  stroke="lightblue" x1="36.4" y1="72.4294" x2="41.6" y2="84.501" />
<line fill="none" stroke-width="3" boundary-string=""  stroke="lightblue" x1="41.6" y1="84.501" x2="46.8" y2="96.5726" />
<line fill="none" stroke-width="3" boundary-string=""  stroke="lightblue" x1="46.8" y1="96.5726" x2="52" y2="108.644" />
<line fill="none" stroke-width="3" boundary-string=""  stroke="lightblue" x1="52" y1="108.644" x2="57.2" y2="120.716" />
<line fill="none" stroke-width="3" boundary-string=""  stroke="lightblue" x1="57.2" y1="120.716" x2="62.4" y2="132.787" />
<line fill="none" stroke-width="3" boundary-string=""  stroke="lightblue" x1="62.4" y1="132.787" x2="67.6" y2="134.036" />
<line fill="none" stroke-width="3" boundary-string=""  stroke="lightblue" x1="67.6" y1="134.036" x2="72.8" y2="127.987" />
<line fill="none" stroke-width="3" boundary-string=""  stroke="lightblue" x1="72.8" y1="127.987" x2="78" y2="122.831" />
<line fill="none" stroke-width="3" boundary-string=""  stroke="lightblue" x1="78" y1="122.831" x2="83.2" y2="118.682" />
<line fill="none" stroke-width="3" boundary-string=""  stroke="lightblue" x1="83.2" y1="118.682" x2="88.4" y2="115.65" />
<line fill="none" stroke-width="3" boundary-string=""  stroke="lightblue" x1="88.4" y1="115.65" x2="93.6" y2="113.823" />
<line fill="none" stroke-width="3" boundary-string=""  stroke="lightblue" x1="93.6" y1="113.823" x2="98.8" y2="113.261" />
<line fill="none" stroke-width="3" boundary-string=""  stroke="lightblue" x1="98.8" y1="113.261" x2="104" y2="113.982" />
<line fill="none" stroke-width="3" boundary-string=""  stroke="lightblue" x1="104" y1="113.982" x2="109.2" y2="113.35" />
<line fill="none" stroke-width="3" boundary-string=""  stroke="lightblue" x1="109.2" y1="113.35" x2="114.4" y2="111.312" />
<line fill="none" stroke-width="3" boundary-string=""  stroke="lightblue" x1="114.4" y1="111.312" x2="119.6" y2="110.562" />
<line fill="none" stroke-width="3" boundary-string=""  stroke="lightblue" x1="119.6" y1="110.562" x2="124.8" y2="111.126" />
<line fill="none" stroke-width="3" boundary-string=""  stroke="lightblue" x1="124.8" y1="111.126" x2="130" y2="112.984" />
<line fill="none" stroke-width="3" boundary-string=""  stroke="lightblue" x1="130" y1="112.984" x2="135.2" y2="116.075" />
<line fill="none" stroke-width="3" boundary-string=""  stroke="lightblue" x1="135.2" y1="116.075" x2="140.4" y2="120.303" />
<line fill="none" stroke-width="3" boundary-string=""  stroke="lightblue" x1="140.4" y1="120.303" x2="145.6" y2="125.554" />
<line fill="none" stroke-width="3" boundary-string=""  stroke="lightblue" x1="145.6" y1="125.554" x2="150.8" y2="131.704" />
<line fill="none" stroke-width="3" boundary-string=""  stroke="lightblue" x1="150.8" y1="131.704" x2="156" y2="138.635" />
<line fill="none" stroke-width="3" boundary-string=""  stroke="lightblue" x1="156" y1="138.635" x2="161.2" y2="146.236" />
<line fill="none" stroke-width="3" boundary-string=""  stroke="lightblue" x1="161.2" y1="146.236" x2="166.4" y2="154.407" />
<line fill="none" stroke-width="3" boundary-string=""  stroke="lightblue" x1="166.4" y1="154.407" x2="171.6" y2="163.063" />
<line fill="none" stroke-width="3" boundary-string=""  stroke="lightblue" x1="171.6" y1="163.063" x2="176.8" y2="172.131" />
<line fill="none" stroke-width="3" boundary-string=""  stroke="lightblue" x1="176.8" y1="172.131" x2="182" y2="181.549" />
<line fill="none" stroke-width="3" boundary-string=""  stroke="lightblue" x1="182" y1="181.549" x2="187.2" y2="191.266" />
<line fill="none" stroke-width="3" boundary-string=""  stroke="lightblue" x1="187.2" y1="191.266" x2="192.4" y2="201.237" />
<line fill="none" stroke-width="3" boundary-string=""  stroke="lightblue" x1="192.4" y1="201.237" x2="197.6" y2="211.428" />
<line fill="none" stroke-width="3" boundary-string=""  stroke="lightblue" x1="197.6" y1="211.428" x2="202.8" y2="221.807" />
<line fill="none" stroke-width="3" boundary-string=""  stroke="lightblue" x1="202.8" y1="221.807" x2="208" y2="232.35" />
<line fill="none" stroke-width="3" boundary-string=""  stroke="lightblue" x1="208" y1="232.35" x2="213.2" y2="243.036" />
<line fill="none" stroke-width="3" boundary-string=""  stroke="lightblue" x1="213.2" y1="243.036" x2="218.4" y2="253.845" />
<line fill="none" stroke-width="3" boundary-string=""  stroke="lightblue" x1="218.4" y1="253.845" x2="223.6" y2="264.764" />
<line fill="none" stroke-width="3" boundary-string=""  stroke="lightblue" x1="223.6" y1="264.764" x2="228.8" y2="275.779" />
<line fill="none" stroke-width="3" boundary-string=""  stroke="lightblue" x1="228.8" y1="275.779" x2="234" y2="286.879" />
<line fill="none" stroke-width="3" boundary-string=""  stroke="lightblue" x1="234" y1="286.879" x2="239.2" y2="298.054" />
<line fill="none" stroke-width="3" boundary-string=""  stroke="lightblue" x1="239.2" y1="298.054" x2="244.4" y2="297.415" />
<line fill="none" stroke-width="3" boundary-string=""  stroke="lightblue" x1="244.4" y1="297.415" x2="249.6" y2="295.543" />
<line fill="none" stroke-width="3" boundary-string=""  stroke="lightblue" x1="249.6" y1="295.543" x2="254.8" y2="294.375" />
<line fill="none" stroke-width="3" boundary-string=""  stroke="lightblue" x1="254.8" y1="294.375" x2="260" y2="293.919" />
<line fill="none" stroke-width="3" boundary-string=""  stroke="lightblue" x1="260" y1="293.919" x2="265.2" y2="294.18" />
<line fill="none" stroke-width="3" boundary-string=""  stroke="lightblue" x1="265.2" y1="294.18" x2="270.4" y2="295.154" />
<line fill="none" stroke-width="3" boundary-string=""  stroke="lightblue" x1="270.4" y1="295.154" x2="275.6" y2="286.77" />
<line fill="none" stroke-width="3" boundary-string=""  stroke="lightblue" x1="275.6" y1="286.77" x2="280.8" y2="275.45" />
<line fill="none" stroke-width="3" boundary-string=""  stroke="lightblue" x1="280.8" y1="275.45" x2="286" y2="264.441" />
<line fill="none" stroke-width="3" boundary-string=""  stroke="lightblue" x1="286" y1="264.441" x2="291.2" y2="253.786" />
<line fill="none" stroke-width="3" boundary-string=""  stroke="lightblue" x1="291.2" y1="253.786" x2="296.4" y2="243.528" />
<line fill="none" stroke-width="3" boundary-string=""  stroke="lightblue" x1="296.4" y1="243.528" x2="301.6" y2="233.722" />
<line fill="none" stroke-width="3" boundary-string=""  stroke="lightblue" x1="301.6" y1="233.722" x2="306.8" y2="224.427" />
<line fill="none" stroke-width="3" boundary-string=""  stroke="lightblue" x1="306.8" y1="224.427" x2="312" y2="215.708" />
<line fill="none" stroke-width="3" boundary-string=""  stroke="lightblue" x1="312" y1="215.708" x2="317.2" y2="207.638" />
<line fill="none" stroke-width="3" boundary-string=""  stroke="lightblue" x1="317.2" y1="207.638" x2="322.4" y2="200.295" />
<line fill="none" stroke-width="3" boundary-string=""  stroke="lightblue" x1="322.4" y1="200.295" x2="327.6" y2="193.763" />
<line fill="none" stroke-width="3" boundary-string=""  stroke="lightblue" x1="327.6" y1="193.763" x2="332.8" y2="188.125" />
<line fill="none" stroke-width="3" boundary-string=""  stroke="lightblue" x1="332.8" y1="188.125" x2="338" y2="183.464" />
<line fill="none" stroke-width="3" boundary-string=""  stroke="lightblue" x1="338" y1="183.464" x2="343.2" y2="179.857" />
<line fill="none" stroke-width="3" boundary-string=""  stroke="lightblue" x1="343.2" y1="179.857" x2="348.4" y2="177.367" />
<line fill="none" stroke-width="3" boundary-string=""  stroke="lightblue" x1="348.4" y1="177.367" x2="353.6" y2="176.042" />
<line fill="none" stroke-width="3" boundary-string=""  stroke="lightblue" x1="353.6" y1="176.042" x2="358.8" y2="175.908" />
<line fill="none" stroke-width="3" boundary-string=""  stroke="lightblue" x1="358.8" y1="175.908" x2="364" y2="176.967" />
<line fill="none" stroke-width="3" boundary-string=""  stroke="lightblue" x1="364" y1="176.967" x2="369.2" y2="179.2" />
<line fill="none" stroke-width="3" boundary-string=""  stroke="lightblue" x1="369.2" y1="179.2" x2="374.4" y2="182.562" />
<line fill="none" stroke-width="3" boundary-string=""  stroke="lightblue" x1="374.4" y1="182.562" x2="379.6" y2="186.993" />
<line fill="none" stroke-width="3" boundary-string=""  stroke="lightblue" x1="379.6" y1="186.993" x2="384.8" y2="192.418" />
<line fill="none" stroke-width="3" boundary-string=""  stroke="lightblue" x1="384.8" y1="192.418" x2="390" y2="198.758" />
<line fill="none" stroke-width="3" boundary-string=""  stroke="lightblue" x1="390" y1="198.758" x2="395.2" y2="205.926" />
<line fill="none" stroke-width="3" boundary-string=""  stroke="lightblue" x1="395.2" y1="205.926" x2="400.4" y2="213.84" />
<line fill="none" stroke-width="3" boundary-string=""  stroke="lightblue" x1="400.4" y1="213.84" x2="405.6" y2="218.79" />
<line fill="none" stroke-width="3" boundary-string=""  stroke="lightblue" x1="405.6" y1="218.79" x2="410.8" y2="214.248" />
<line fill="none" stroke-width="3" boundary-string=""  stroke="lightblue" x1="410.8" y1="214.248" x2="416" y2="210.61" />
<line fill="none" stroke-width="3" boundary-string=""  stroke="lightblue" x1="416" y1="210.61" x2="421.2" y2="207.923" />
<line fill="none" stroke-width="3" boundary-string=""  stroke="lightblue" x1="421.2" y1="207.923" x2="426.4" y2="206.225" />
<line fill="none" stroke-width="3" boundary-string=""  stroke="lightblue" x1="426.4" y1="206.225" x2="431.6" y2="205.54" />
<line fill="none" stroke-width="3" boundary-string=""  stroke="lightblue" x1="431.6" y1="205.54" x2="436.8" y2="205.877" />
<line fill="none" stroke-width="3" boundary-string=""  stroke="lightblue" x1="436.8" y1="205.877" x2="442" y2="207.233" />
<line fill="none" stroke-width="3" boundary-string=""  stroke="lightblue" x1="442" y1="207.233" x2="447.2" y2="203.158" />
<line fill="none" stroke-width="3" boundary-string=""  stroke="lightblue" x1="447.2" y1="203.158" x2="452.4" y2="188.647" />
<line fill="none" stroke-width="3" boundary-string=""  stroke="lightblue" x1="452.4" y1="188.647" x2="457.6" y2="174.135" />
<line fill="none" stroke-width="3" boundary-string=""  stroke="lightblue" x1="457.6" y1="174.135" x2="462.8" y2="159.624" />
<line fill="none" stroke-width="3" boundary-string=""  stroke="lightblue" x1="462.8" y1="159.624" x2="468" y2="145.113" />
<line fill="none" stroke-width="3" boundary-string=""  stroke="lightblue" x1="468" y1="145.113" x2="473.2" y2="130.602" />
<line fill="none" stroke-width="3" boundary-string=""  stroke="lightblue" x1="473.2" y1="130.602" x2="478.4" y2="116.09" />
<line fill="none" stroke-width="3" boundary-string=""  stroke="lightblue" x1="478.4" y1="116.09" x2="483.6" y2="101.579" />
<line fill="none" stroke-width="3" boundary-string=""  stroke="lightblue" x1="483.6" y1="101.579" x2="488.8" y2="87.0677" />
<line fill="none" stroke-width="3" boundary-string=""  stroke="lightblue" x1="488.8" y1="87.0677" x2="494" y2="72.5565" />
<line fill="none" stroke-width="3" boundary-string=""  stroke="lightblue" x1="494" y1="72.5565" x2="499.2" y2="58.0452" />
<line fill="none" stroke-width="3" boundary-string=""  stroke="lightblue" x1="499.2" y1="58.0452" x2="504.4" y2="43.5339" />
<line fill="none" stroke-width="3" boundary-string=""  stroke="lightblue" x1="504.4" y1="43.5339" x2="509.6" y2="29.0226" />
<line fill="none" stroke-width="3" boundary-string=""  stroke="lightblue" x1="509.6" y1="29.0226" x2="514.8" y2="14.5113" />
<line fill="none" stroke-width="3" boundary-string=""  stroke="lightblue" x1="514.8" y1="14.5113" x2="520" y2="0" />

<!--Draw the X and Y axes -->
<polyline fill="none" stroke="black" stroke-width="6"  points=" 600,0 0,0 0,520" />
<!-- -->


<!--Draw labels and tics for X axis -->

<line fill="none" stroke="black"  stroke-width="6"  x1="0.5" y1="0" x2="0.5" y2="-20" />
<text transform="scale(1,-1)" font-family="sans-serif" font-size="30" x="-24.5" y="45" >0 </text>
<line fill="none" stroke="black"  stroke-width="6"  x1="104.5" y1="0" x2="104.5" y2="-20" />
<text transform="scale(1,-1)" font-family="sans-serif" font-size="30" x="79.5" y="45" >20 </text>
<line fill="none" stroke="black"  stroke-width="6"  x1="208.5" y1="0" x2="208.5" y2="-20" />
<text transform="scale(1,-1)" font-family="sans-serif" font-size="30" x="183.5" y="45" >40 </text>
<line fill="none" stroke="black"  stroke-width="6"  x1="312.5" y1="0" x2="312.5" y2="-20" />
<text transform="scale(1,-1)" font-family="sans-serif" font-size="30" x="287.5" y="45" >60 </text>
<line fill="none" stroke="black"  stroke-width="6"  x1="416.5" y1="0" x2="416.5" y2="-20" />
<text transform="scale(1,-1)" font-family="sans-serif" font-size="30" x="391.5" y="45" >80 </text>
<line fill="none" stroke="black"  stroke-width="6"  x1="520.5" y1="0" x2="520.5" y2="-20" />
<text transform="scale(1,-1)" font-family="sans-serif" font-size="30" x="495.5" y="45" >100 </text>


<!--Draw labels and tics for Y axis -->

<line fill="none" stroke="black" stroke-width="6" x1="0.0" y1="0" x2="-20" y2="0" />
<text transform="scale(1,-1)" text-anchor="end" font-family="sans-serif" font-size="30" x="-25" y="10" >0 </text>
<line fill="none" stroke="black" stroke-width="6" x1="0.0" y1="104" x2="-20" y2="104" />
<text transform="scale(1,-1)" text-anchor="end" font-family="sans-serif" font-size="30" x="-25" y="-94" >20 </text>
<line fill="none" stroke="black" stroke-width="6" x1="0.0" y1="208" x2="-20" y2="208" />
<text transform="scale(1,-1)" text-anchor="end" font-family="sans-serif" font-size="30" x="-25" y="-198" >40 </text>
<line fill="none" stroke="black" stroke-width="6" x1="0.0" y1="312" x2="-20" y2="312" />
<text transform="scale(1,-1)" text-anchor="end" font-family="sans-serif" font-size="30" x="-25" y="-302" >60 </text>
<line fill="none" stroke="black" stroke-width="6" x1="0.0" y1="416" x2="-20" y2="416" />
<text transform="scale(1,-1)" text-anchor="end" font-family="sans-serif" font-size="30" x="-25" y="-406" >80 </text>
<line fill="none" stroke="black" stroke-width="6" x1="0.0" y1="520" x2="-20" y2="520" />
<text transform="scale(1,-1)" text-anchor="end" font-family="sans-serif" font-size="30" x="-25" y="-510" >100 </text>


<!--Draw Glitches -->

<line fill="none" stroke="black" stroke-width="2" x1="67.6" y1="127.987" x2="67.6" y2="77.9873" />
<text transform="scale(1,-1)" font-family="sans-serif" font-size="30" x="72.6" y="-67.9873" >13 </text>
<line fill="none" stroke="black" stroke-width="2" x1="447.2" y1="188.647" x2="447.2" y2="138.647" />
<text transform="scale(1,-1)" font-family="sans-serif" font-size="30" x="452.2" y="-128.647" >86 </text>

<!-- -->


<!-- Reduced vector followed by D7dist from the final reduced cell
-47.12998 -87.73134 -55.66621 -35.46937 -102.77218 -73.51778    (1.58245e-13,  0)   
-48.01615 -88.47395 -55.25585 -36.55956 -102.97853 -71.88900    (2.32146,  3.51411)   
-48.90233 -89.21655 -54.84549 -37.64974 -103.18488 -70.26022    (4.64291,  7.02821)   
-49.78851 -89.95916 -54.43513 -38.73993 -103.39123 -68.63144    (6.96437,  10.5423)   
-50.67468 -90.70176 -54.02478 -39.83011 -103.59757 -67.00266    (9.28583,  14.0564)   
-51.56086 -53.61442 -91.44436 -40.92029 -65.37388 -103.80392    (11.6073,  17.5705)   
-52.44703 -53.20406 -92.18697 -42.01048 -63.74510 -104.01027    (13.9287,  21.0846)   
-62.11632 -43.10066 -92.92957 -52.79371 -53.33321 -104.21662    (16.2502,  24.5987)   
-60.48755 -44.19084 -93.67218 -52.38335 -54.21938 -104.42297    (18.5717,  28.1128)   
-58.85877 -45.28103 -94.41478 -51.97299 -55.10556 -104.62932    (20.8931,  31.6269)   
-57.22999 -46.37121 -95.15738 -51.56263 -55.99173 -104.83567    (23.2146,  35.1411)   
-55.60121 -95.89999 -47.46139 -51.15228 -105.04202 -56.87791    (25.536,  38.6552)   
-53.97243 -96.64259 -48.55158 -50.74192 -105.24837 -57.76408    (25.7761,  39.4333)   
-52.34365 -97.38519 -49.64176 -50.33156 -105.45471 -58.65026    (24.6129,  38.4321)   
-50.71487 -98.12780 -50.73195 -49.92120 -105.66106 -59.53643    (23.6213,  37.7328)   
-49.08609 -98.87040 -51.82213 -49.51085 -105.86741 -60.42261    (22.8234,  37.3525)   
-47.45731 -99.61301 -52.91231 -49.10049 -106.07376 -61.30878    (22.2403,  37.3007)   
-45.82853 -100.35561 -54.00250 -48.69013 -106.28011 -62.19496    (21.8891,  37.5789)   
-44.19976 -101.09821 -55.09268 -48.27978 -106.48646 -63.08113    (21.781,  38.1799)   
-101.84082 -42.57098 -56.18286 -106.69281 -47.86942 -63.96731    (21.9197,  39.0888)   
-102.58342 -40.94220 -57.27305 -106.89916 -47.45906 -64.85348    (21.798,  39.731)   
-103.32602 -58.36323 -39.31342 -107.10551 -65.73966 -47.04870    (21.4061,  40.1134)   
-104.06863 -59.45341 -37.68464 -107.31185 -66.62583 -46.63835    (21.2619,  40.796)   
-104.81123 -60.54360 -36.05586 -107.51820 -67.51201 -46.22799    (21.3704,  41.7641)   
-105.55384 -61.63378 -34.42708 -107.72455 -68.39818 -45.81763    (21.7278,  42.9984)   
-106.29644 -62.72396 -32.79830 -107.93090 -69.28436 -45.40727    (22.3222,  44.4769)   
-107.03904 -63.81415 -31.16952 -108.13725 -70.17053 -44.99692    (23.1352,  46.1759)   
-107.78165 -64.90433 -29.54074 -108.34360 -71.05671 -44.58656    (24.1449,  48.0721)   
-108.52425 -65.99452 -27.91197 -108.54995 -71.94288 -44.17620    (25.3277,  50.1433)   
-109.26686 -67.08470 -26.28319 -108.75630 -72.82906 -43.76585    (26.6606,  52.3685)   
-110.00946 -68.17488 -24.65441 -108.96265 -73.71524 -43.35549    (28.1223,  54.7291)   
-110.75206 -69.26507 -23.02563 -109.16899 -74.60141 -42.94513    (29.6937,  57.2083)   
-111.49467 -70.35525 -21.39685 -109.37534 -75.48759 -42.53477    (31.3583,  59.7913)   
-112.23727 -71.44543 -19.76807 -109.58169 -76.37376 -42.12442    (33.1022,  62.4652)   
-112.97987 -72.53562 -18.13929 -109.78804 -77.25994 -41.71406    (34.9133,  65.2189)   
-113.72248 -73.62580 -16.51051 -109.99439 -78.14611 -41.30370    (36.7819,  68.0427)   
-114.46508 -74.71598 -14.88173 -110.20074 -79.03229 -40.89334    (38.6995,  70.9282)   
-79.91846 -110.40709 -13.25295 -75.80617 -115.20769 -40.48299    (40.6592,  73.8682)   
-80.80464 -110.61344 -11.62418 -76.89635 -115.95029 -40.07263    (42.6552,  76.8564)   
-81.69081 -110.81979  -9.99540 -77.98654 -116.69289 -39.66227    (44.6828,  79.8874)   
-82.57699 -111.02613  -8.36662 -79.07672 -117.43550 -39.25191    (46.7376,  82.9566)   
-83.46316 -111.23248  -6.73784 -80.16690 -118.17810 -38.84156    (48.8164,  86.0597)   
-84.34934 -111.43883  -5.10906 -81.25709 -118.92070 -38.43120    (50.9161,  89.1934)   
-85.23551 -111.64518  -3.48028 -82.34727 -119.66331 -38.02084    (53.0344,  92.3545)   
-86.12169 -111.85153  -1.85150 -83.43745 -120.40591 -37.61049    (55.169,  95.5402)   
-87.00786 -112.05788  -0.22272 -84.52764 -121.14852 -37.20013    (57.3181,  98.7483)   
-86.48798 -84.21176  -1.40606 -110.85817 -120.48506 -38.19583    (57.1952,  98.8566)   
-85.74538 -83.67317  -3.03484 -109.43574 -119.59889 -39.41425    (56.8351,  98.6289)   
-85.00277 -83.13457  -4.66362 -108.01331 -118.71271 -40.63267    (56.6105,  98.5764)   
-84.26017 -82.59598  -6.29239 -106.59088 -117.82654 -41.85109    (56.5229,  98.706)   
-83.51757 -82.05738  -7.92117 -105.16845 -116.94036 -43.06951    (56.573,  98.8215)   
-82.77496 -81.51879  -9.54995 -103.74602 -116.05419 -44.28794    (56.7605,  95.5283)   
-82.03236 -80.98019 -11.17873 -102.32359 -115.16801 -45.50636    (55.1481,  92.2983)   
-81.28975 -80.44160 -12.80751 -100.90116 -114.28184 -46.72478    (52.9711,  89.1385)   
-80.54715 -79.90300 -14.43629 -99.47873 -113.39566 -47.94320    (50.8541,  86.0564)   
-79.80455 -16.06507 -79.36440 -98.05630 -49.16162 -112.50949    (48.8049,  83.0608)   
-79.06194 -17.69385 -78.82581 -96.63387 -50.38005 -111.62331    (46.8324,  80.1613)   
-78.31934 -19.32263 -78.28721 -95.21144 -51.59847 -110.73714    (44.9466,  77.3689)   
-77.57674 -20.95141 -77.74862 -93.78901 -52.81689 -109.85096    (43.159,  74.6954)   
-76.83413 -22.58018 -77.21002 -92.36658 -54.03531 -108.96479    (41.4822,  72.1542)   
-76.09153 -24.20896 -76.67143 -90.94415 -55.25373 -108.07861    (39.9303,  69.7596)   
-75.34892 -25.83774 -76.13283 -89.52172 -56.47215 -107.19244    (38.5183,  67.5273)   
-74.60632 -27.46652 -75.59424 -88.09929 -57.69058 -106.30626    (37.2621,  65.4738)   
-73.86372 -29.09530 -75.05564 -86.67686 -58.90900 -105.42008    (36.1779,  63.6165)   
-73.12111 -30.72408 -74.51705 -85.25443 -60.12742 -104.53391    (35.2816,  61.9731)   
-72.37851 -32.35286 -73.97845 -83.83200 -61.34584 -103.64773    (34.5879,  60.5609)   
-71.63591 -33.98164 -73.43986 -82.40957 -62.56426 -102.76156    (34.109,  59.3964)   
-70.89330 -35.61042 -72.90126 -80.98714 -63.78268 -101.87538    (33.8542,  58.4945)   
-70.15070 -37.23920 -72.36266 -79.56471 -65.00111 -100.98921    (33.8284,  57.8673)   
-69.40809 -38.86797 -71.82407 -78.14228 -66.21953 -100.10303    (34.0322,  57.524)   
-68.66549 -40.49675 -71.28547 -76.71985 -67.43795 -99.21686    (34.4615,  57.4695)   
-67.92289 -42.12553 -70.74688 -75.29742 -68.65637 -98.33068    (35.1081,  57.7048)   
-67.18028 -43.75431 -70.20828 -73.87499 -69.87479 -97.44451    (35.9601,  58.2262)   
-66.43768 -45.38309 -69.66969 -72.45256 -71.09321 -96.55833    (37.0036,  59.0263)   
-65.69507 -47.01187 -69.13109 -71.03013 -72.31164 -95.67216    (38.2226,  60.0938)   
-64.95247 -48.64065 -68.59250 -69.60770 -73.53006 -94.78598    (39.6011,  61.4149)   
-64.20987 -50.26943 -68.05390 -68.18527 -74.74848 -93.89981    (41.1231,  62.9735)   
-63.46726 -51.89821 -67.51531 -66.76284 -75.96690 -93.01363    (42.0749,  63.8312)   
-62.72466 -53.52699 -66.97671 -65.34041 -77.18532 -92.12746    (41.2015,  62.3018)   
-61.98206 -55.15576 -66.43811 -63.91798 -78.40374 -91.24128    (40.5019,  61.008)   
-61.23945 -56.78454 -65.89952 -62.49555 -79.62217 -90.35511    (39.9852,  59.9649)   
-60.49685 -58.41332 -65.36092 -61.07312 -80.84059 -89.46893    (39.6586,  59.1858)   
-59.75424 -60.04210 -64.82233 -59.65069 -82.05901 -88.58276    (39.5268,  58.6812)   
-59.01164 -61.67088 -64.28373 -58.22826 -83.27743 -87.69658    (39.5918,  58.4583)   
-58.26904 -63.29966 -63.74514 -56.80583 -84.49585 -86.81041    (39.8526,  58.5202)   
-57.52643 -64.92844 -63.20654 -55.38340 -85.71427 -85.92423    (39.0689,  57.1745)   
-56.78383 -66.55722 -62.66795 -53.96097 -86.93270 -85.03806    (36.2782,  53.0906)   
-56.04123 -68.18600 -62.12935 -52.53854 -88.15112 -84.15188    (33.4876,  49.0067)   
-55.29862 -69.81478 -61.59076 -51.11611 -89.36954 -83.26570    (30.697,  44.9228)   
-54.55602 -71.44355 -61.05216 -49.69368 -90.58796 -82.37953    (27.9063,  40.8389)   
-53.81341 -73.07233 -60.51357 -48.27125 -91.80638 -81.49335    (25.1157,  36.755)   
-53.07081 -74.70111 -59.97497 -46.84882 -93.02480 -80.60718    (22.3251,  32.6711)   
-52.32821 -76.32989 -59.43637 -45.42639 -94.24323 -79.72100    (19.5344,  28.5873)   
-51.58560 -77.95867 -58.89778 -44.00396 -95.46165 -78.83483    (16.7438,  24.5034)   
-50.84300 -79.58745 -58.35918 -42.58153 -96.68007 -77.94865    (13.9532,  20.4195)   
-50.10039 -81.21623 -57.82059 -41.15910 -97.89849 -77.06248    (11.1625,  16.3356)   
-49.35779 -82.84501 -57.28199 -39.73666 -99.11691 -76.17630    (8.3719,  12.2517)   
-48.61519 -84.47379 -56.74340 -38.31423 -100.33534 -75.29013    (5.58127,  8.16779)   
-47.87258 -86.10257 -56.20480 -36.89180 -101.55376 -74.40395    (2.79063,  4.08389)   
-47.12998 -87.73134 -55.66621 -35.46937 -102.77218 -73.51778    (0,  0)   
-->
</g>
</g>
<!-- Run Constants
CIRCLEPLOT bool false
DISTANCEPLOT bool true
PRINTDISTANCEDATA bool true
GLITCHESONLY bool false
PLOT 2doubles 3 4
PERTURBBY double 0.05
GLITCHLEVEL double 3
BOUNDARYWINDOW double 0.065
FRAMESPERPATH int 200
STEPSPERFRAME int 100
TRIALS int 1
ALLBLACK bool false
FILEPREFIX string Fol
GRAPHSIZE int 0
BORDER int 0
PLOTSIZE int 0
CIRCLEPLOTSIZE int 2000
CIRCLERADIUS int 300
CIRCLESTROKEWIDTH int 30
G6LINEWIDTH int 3
DELONELINEWIDTH int 10
AXISWIDTH int 6
TICLENGTH int 20
VECTOR g6 
PERTURB g6Perturb 
MOVIEMODE MovieMode STAR
FOLLOWERMODE FollowerMode Follow
FIXRANDOMSEED fixRandomSeed true
RANDOMSEED int 18
TIMESTAMP bool true
END end 




-->
</svg>
