<?xml version="1.0" standalone="no"?>
<!-- the width and height set the total pixel output of the image in the browser -->
<!-- whatever is within the viewbox will be remapped to show in this size -->
<svg width="1000" height="1000" viewBox="1 0 1000 1000"  version="1.1" xmlns="http://www.w3.org/2000/svg" xmlns:xlink="http://www.w3.org/1999/xlink">
 <desc>ID (and file name) = Fol_2018-02-06.14_30_43.57_0.svg </desc> 
 <text x="280"  y="30"  font-family="sans-serif" font-size="20" > Trial vector = 0  </text> 
 <text x="700" y="30" font-family="sans-serif" font-size="20">Wall time passed: 28930 msec.</text>
<text x="450" y="30" font-family="sans-serif" font-size="20" fill="black" > Plotting g5 vs. g4</text>
<text x="300" y="60"  font-family="sans-serif" font-size="20" > Beginning vector  -82.15518  58.09656 -136.93194 -92.70499  37.11681 -73.42862 </text>
<text x="300" y="85"  font-family="sans-serif" font-size="20" > Beginning cell   13.09734  13.48964   9.87356   2.23550   1.10486   2.45757 </text>
<text x="300" y="110"  font-family="sans-serif" font-size="20" > Ending vector  -15.33207 -20.97974 -24.05862 -34.60843 -58.09656 -78.83539 </text>
<text x="300" y="135"  font-family="sans-serif" font-size="20" > Ending cell    8.92451   9.87356  10.73067   1.71602   1.79166   1.84734 </text>

<text x="300" y="160"  font-family="sans-serif" font-size="20" > Glitch  -30.18165  -3.40723 -49.14158 -47.51878 -36.93803 -77.63388  (31.2217 )</text>
<text x="300" y="185"  font-family="sans-serif" font-size="20" > Glitch  -30.85663  -2.60848 -50.28172 -48.10561 -35.97628 -77.57927  (32.4093)</text>



 <!--DISTANCE PLOT BEGINS-->


<!-- the following will scale and place the distance plot -->
<g  transform="translate(0,50) ">
<g transform="translate(150,700) scale(1 -1)">
   <polyline fill="none" stroke="black" stroke-width="10" points=" 5.2 ,0  10.4 ,16.9892  15.6 ,33.9783  20.8 ,50.9675  26 ,67.9567  31.2 ,84.9459  36.4 ,101.935  41.6 ,118.924  46.8 ,135.913  52 ,152.903  57.2 ,169.892  62.4 ,186.881  67.6 ,203.87  72.8 ,220.859  78 ,237.848  83.2 ,254.838  88.4 ,271.827  93.6 ,288.816  98.8 ,305.805  104 ,322.794  109.2 ,339.783  114.4 ,356.773  119.6 ,361.883  124.8 ,366.15  130 ,371.146  135.2 ,376.843  140.4 ,383.209  145.6 ,390.211  150.8 ,397.816  156 ,405.989  161.2 ,414.698  166.4 ,423.91  171.6 ,433.591  176.8 ,443.712  182 ,450.742  187.2 ,445.039  192.4 ,439.92  197.6 ,435.403  202.8 ,431.509  208 ,428.254  213.2 ,425.652  218.4 ,423.716  223.6 ,422.455  228.8 ,421.875  234 ,421.979  239.2 ,422.766  244.4 ,424.232  249.6 ,426.371  254.8 ,429.172  260 ,432.623  265.2 ,436.708  270.4 ,441.409  275.6 ,439.425  280.8 ,435.225  286 ,431.653  291.2 ,428.726  296.4 ,426.455  301.6 ,424.852  306.8 ,423.925  312 ,423.677  317.2 ,424.111  322.4 ,425.223  327.6 ,427.008  332.8 ,429.459  338 ,432.564  343.2 ,436.309  348.4 ,440.677  353.6 ,445.651  358.8 ,451.21  364 ,457.332  369.2 ,463.996  374.4 ,471.179  379.6 ,478.857  384.8 ,484.772  390 ,485.582  395.2 ,487.841  400.4 ,469.413  405.6 ,451.739  410.8 ,434.996  416 ,419.295  421.2 ,404.759  426.4 ,391.516  431.6 ,379.702  436.8 ,369.454  442 ,360.905  447.2 ,354.179  452.4 ,348.083  457.6 ,321.307  462.8 ,294.531  468 ,267.756  473.2 ,240.98  478.4 ,214.205  483.6 ,187.429  488.8 ,160.653  494 ,133.878  499.2 ,107.102  504.4 ,80.3267  509.6 ,53.5512  514.8 ,26.7756  520 ,7.21325e-05  " />

<!--Draw the X and Y axes -->
<polyline fill="none" stroke="black" stroke-width="6"  points=" 600,0 0,0 0,520" />
<!-- -->

<line fill="none" stroke-width="3" boundary-string=""  stroke="lightblue" x1="0" y1="3.29107e-13" x2="5.2" y2="3.29107e-13" />
<line fill="none" stroke-width="3" boundary-string=""  stroke="lightblue" x1="5.2" y1="3.29107e-13" x2="10.4" y2="11.8449" />
<line fill="none" stroke-width="3" boundary-string=""  stroke="lightblue" x1="10.4" y1="11.8449" x2="15.6" y2="23.6898" />
<line fill="none" stroke-width="3" boundary-string=""  stroke="lightblue" x1="15.6" y1="23.6898" x2="20.8" y2="35.5347" />
<line fill="none" stroke-width="3" boundary-string=""  stroke="lightblue" x1="20.8" y1="35.5347" x2="26" y2="47.3796" />
<line fill="none" stroke-width="3" boundary-string=""  stroke="lightblue" x1="26" y1="47.3796" x2="31.2" y2="59.2245" />
<line fill="none" stroke-width="3" boundary-string=""  stroke="lightblue" x1="31.2" y1="59.2245" x2="36.4" y2="71.0694" />
<line fill="none" stroke-width="3" boundary-string=""  stroke="lightblue" x1="36.4" y1="71.0694" x2="41.6" y2="82.9143" />
<line fill="none" stroke-width="3" boundary-string=""  stroke="lightblue" x1="41.6" y1="82.9143" x2="46.8" y2="94.7592" />
<line fill="none" stroke-width="3" boundary-string=""  stroke="lightblue" x1="46.8" y1="94.7592" x2="52" y2="106.604" />
<line fill="none" stroke-width="3" boundary-string=""  stroke="lightblue" x1="52" y1="106.604" x2="57.2" y2="118.449" />
<line fill="none" stroke-width="3" boundary-string=""  stroke="lightblue" x1="57.2" y1="118.449" x2="62.4" y2="130.294" />
<line fill="none" stroke-width="3" boundary-string=""  stroke="lightblue" x1="62.4" y1="130.294" x2="67.6" y2="142.139" />
<line fill="none" stroke-width="3" boundary-string=""  stroke="lightblue" x1="67.6" y1="142.139" x2="72.8" y2="153.984" />
<line fill="none" stroke-width="3" boundary-string=""  stroke="lightblue" x1="72.8" y1="153.984" x2="78" y2="165.829" />
<line fill="none" stroke-width="3" boundary-string=""  stroke="lightblue" x1="78" y1="165.829" x2="83.2" y2="177.673" />
<line fill="none" stroke-width="3" boundary-string=""  stroke="lightblue" x1="83.2" y1="177.673" x2="88.4" y2="189.518" />
<line fill="none" stroke-width="3" boundary-string=""  stroke="lightblue" x1="88.4" y1="189.518" x2="93.6" y2="201.363" />
<line fill="none" stroke-width="3" boundary-string=""  stroke="lightblue" x1="93.6" y1="201.363" x2="98.8" y2="213.208" />
<line fill="none" stroke-width="3" boundary-string=""  stroke="lightblue" x1="98.8" y1="213.208" x2="104" y2="225.053" />
<line fill="none" stroke-width="3" boundary-string=""  stroke="lightblue" x1="104" y1="225.053" x2="109.2" y2="236.898" />
<line fill="none" stroke-width="3" boundary-string=""  stroke="lightblue" x1="109.2" y1="236.898" x2="114.4" y2="248.743" />
<line fill="none" stroke-width="3" boundary-string=""  stroke="lightblue" x1="114.4" y1="248.743" x2="119.6" y2="252.065" />
<line fill="none" stroke-width="3" boundary-string=""  stroke="lightblue" x1="119.6" y1="252.065" x2="124.8" y2="254.773" />
<line fill="none" stroke-width="3" boundary-string=""  stroke="lightblue" x1="124.8" y1="254.773" x2="130" y2="257.997" />
<line fill="none" stroke-width="3" boundary-string=""  stroke="lightblue" x1="130" y1="257.997" x2="135.2" y2="261.718" />
<line fill="none" stroke-width="3" boundary-string=""  stroke="lightblue" x1="135.2" y1="261.718" x2="140.4" y2="265.915" />
<line fill="none" stroke-width="3" boundary-string=""  stroke="lightblue" x1="140.4" y1="265.915" x2="145.6" y2="270.566" />
<line fill="none" stroke-width="3" boundary-string=""  stroke="lightblue" x1="145.6" y1="270.566" x2="150.8" y2="275.647" />
<line fill="none" stroke-width="3" boundary-string=""  stroke="lightblue" x1="150.8" y1="275.647" x2="156" y2="281.136" />
<line fill="none" stroke-width="3" boundary-string=""  stroke="lightblue" x1="156" y1="281.136" x2="161.2" y2="287.01" />
<line fill="none" stroke-width="3" boundary-string=""  stroke="lightblue" x1="161.2" y1="287.01" x2="166.4" y2="293.244" />
<line fill="none" stroke-width="3" boundary-string=""  stroke="lightblue" x1="166.4" y1="293.244" x2="171.6" y2="299.817" />
<line fill="none" stroke-width="3" boundary-string=""  stroke="lightblue" x1="171.6" y1="299.817" x2="176.8" y2="306.706" />
<line fill="none" stroke-width="3" boundary-string=""  stroke="lightblue" x1="176.8" y1="306.706" x2="182" y2="311.357" />
<line fill="none" stroke-width="3" boundary-string=""  stroke="lightblue" x1="182" y1="311.357" x2="187.2" y2="306.778" />
<line fill="none" stroke-width="3" boundary-string=""  stroke="lightblue" x1="187.2" y1="306.778" x2="192.4" y2="302.592" />
<line fill="none" stroke-width="3" boundary-string=""  stroke="lightblue" x1="192.4" y1="302.592" x2="197.6" y2="298.819" />
<line fill="none" stroke-width="3" boundary-string=""  stroke="lightblue" x1="197.6" y1="298.819" x2="202.8" y2="295.471" />
<line fill="none" stroke-width="3" boundary-string=""  stroke="lightblue" x1="202.8" y1="295.471" x2="208" y2="292.566" />
<line fill="none" stroke-width="3" boundary-string=""  stroke="lightblue" x1="208" y1="292.566" x2="213.2" y2="290.115" />
<line fill="none" stroke-width="3" boundary-string=""  stroke="lightblue" x1="213.2" y1="290.115" x2="218.4" y2="288.131" />
<line fill="none" stroke-width="3" boundary-string=""  stroke="lightblue" x1="218.4" y1="288.131" x2="223.6" y2="286.623" />
<line fill="none" stroke-width="3" boundary-string=""  stroke="lightblue" x1="223.6" y1="286.623" x2="228.8" y2="285.599" />
<line fill="none" stroke-width="3" boundary-string=""  stroke="lightblue" x1="228.8" y1="285.599" x2="234" y2="285.064" />
<line fill="none" stroke-width="3" boundary-string=""  stroke="lightblue" x1="234" y1="285.064" x2="239.2" y2="285.02" />
<line fill="none" stroke-width="3" boundary-string=""  stroke="lightblue" x1="239.2" y1="285.02" x2="244.4" y2="285.468" />
<line fill="none" stroke-width="3" boundary-string=""  stroke="lightblue" x1="244.4" y1="285.468" x2="249.6" y2="286.406" />
<line fill="none" stroke-width="3" boundary-string=""  stroke="lightblue" x1="249.6" y1="286.406" x2="254.8" y2="287.829" />
<line fill="none" stroke-width="3" boundary-string=""  stroke="lightblue" x1="254.8" y1="287.829" x2="260" y2="289.729" />
<line fill="none" stroke-width="3" boundary-string=""  stroke="lightblue" x1="260" y1="289.729" x2="265.2" y2="292.098" />
<line fill="none" stroke-width="3" boundary-string=""  stroke="lightblue" x1="265.2" y1="292.098" x2="270.4" y2="294.924" />
<line fill="none" stroke-width="3" boundary-string=""  stroke="lightblue" x1="270.4" y1="294.924" x2="275.6" y2="292.733" />
<line fill="none" stroke-width="3" boundary-string=""  stroke="lightblue" x1="275.6" y1="292.733" x2="280.8" y2="288.85" />
<line fill="none" stroke-width="3" boundary-string=""  stroke="lightblue" x1="280.8" y1="288.85" x2="286" y2="285.406" />
<line fill="none" stroke-width="3" boundary-string=""  stroke="lightblue" x1="286" y1="285.406" x2="291.2" y2="282.417" />
<line fill="none" stroke-width="3" boundary-string=""  stroke="lightblue" x1="291.2" y1="282.417" x2="296.4" y2="279.898" />
<line fill="none" stroke-width="3" boundary-string=""  stroke="lightblue" x1="296.4" y1="279.898" x2="301.6" y2="277.862" />
<line fill="none" stroke-width="3" boundary-string=""  stroke="lightblue" x1="301.6" y1="277.862" x2="306.8" y2="276.319" />
<line fill="none" stroke-width="3" boundary-string=""  stroke="lightblue" x1="306.8" y1="276.319" x2="312" y2="275.277" />
<line fill="none" stroke-width="3" boundary-string=""  stroke="lightblue" x1="312" y1="275.277" x2="317.2" y2="274.742" />
<line fill="none" stroke-width="3" boundary-string=""  stroke="lightblue" x1="317.2" y1="274.742" x2="322.4" y2="274.718" />
<line fill="none" stroke-width="3" boundary-string=""  stroke="lightblue" x1="322.4" y1="274.718" x2="327.6" y2="275.204" />
<line fill="none" stroke-width="3" boundary-string=""  stroke="lightblue" x1="327.6" y1="275.204" x2="332.8" y2="276.197" />
<line fill="none" stroke-width="3" boundary-string=""  stroke="lightblue" x1="332.8" y1="276.197" x2="338" y2="277.693" />
<line fill="none" stroke-width="3" boundary-string=""  stroke="lightblue" x1="338" y1="277.693" x2="343.2" y2="279.682" />
<line fill="none" stroke-width="3" boundary-string=""  stroke="lightblue" x1="343.2" y1="279.682" x2="348.4" y2="282.156" />
<line fill="none" stroke-width="3" boundary-string=""  stroke="lightblue" x1="348.4" y1="282.156" x2="353.6" y2="285.1" />
<line fill="none" stroke-width="3" boundary-string=""  stroke="lightblue" x1="353.6" y1="285.1" x2="358.8" y2="288.501" />
<line fill="none" stroke-width="3" boundary-string=""  stroke="lightblue" x1="358.8" y1="288.501" x2="364" y2="292.343" />
<line fill="none" stroke-width="3" boundary-string=""  stroke="lightblue" x1="364" y1="292.343" x2="369.2" y2="296.608" />
<line fill="none" stroke-width="3" boundary-string=""  stroke="lightblue" x1="369.2" y1="296.608" x2="374.4" y2="301.279" />
<line fill="none" stroke-width="3" boundary-string=""  stroke="lightblue" x1="374.4" y1="301.279" x2="379.6" y2="306.336" />
<line fill="none" stroke-width="3" boundary-string=""  stroke="lightblue" x1="379.6" y1="306.336" x2="384.8" y2="309.69" />
<line fill="none" stroke-width="3" boundary-string=""  stroke="lightblue" x1="384.8" y1="309.69" x2="390" y2="308.111" />
<line fill="none" stroke-width="3" boundary-string=""  stroke="lightblue" x1="390" y1="308.111" x2="395.2" y2="307.592" />
<line fill="none" stroke-width="3" boundary-string=""  stroke="lightblue" x1="395.2" y1="307.592" x2="400.4" y2="306.415" />
<line fill="none" stroke-width="3" boundary-string=""  stroke="lightblue" x1="400.4" y1="306.415" x2="405.6" y2="295.187" />
<line fill="none" stroke-width="3" boundary-string=""  stroke="lightblue" x1="405.6" y1="295.187" x2="410.8" y2="284.667" />
<line fill="none" stroke-width="3" boundary-string=""  stroke="lightblue" x1="410.8" y1="284.667" x2="416" y2="274.938" />
<line fill="none" stroke-width="3" boundary-string=""  stroke="lightblue" x1="416" y1="274.938" x2="421.2" y2="266.087" />
<line fill="none" stroke-width="3" boundary-string=""  stroke="lightblue" x1="421.2" y1="266.087" x2="426.4" y2="258.203" />
<line fill="none" stroke-width="3" boundary-string=""  stroke="lightblue" x1="426.4" y1="258.203" x2="431.6" y2="251.377" />
<line fill="none" stroke-width="3" boundary-string=""  stroke="lightblue" x1="431.6" y1="251.377" x2="436.8" y2="245.698" />
<line fill="none" stroke-width="3" boundary-string=""  stroke="lightblue" x1="436.8" y1="245.698" x2="442" y2="241.247" />
<line fill="none" stroke-width="3" boundary-string=""  stroke="lightblue" x1="442" y1="241.247" x2="447.2" y2="238.093" />
<line fill="none" stroke-width="3" boundary-string=""  stroke="lightblue" x1="447.2" y1="238.093" x2="452.4" y2="235.326" />
<line fill="none" stroke-width="3" boundary-string=""  stroke="lightblue" x1="452.4" y1="235.326" x2="457.6" y2="217.224" />
<line fill="none" stroke-width="3" boundary-string=""  stroke="lightblue" x1="457.6" y1="217.224" x2="462.8" y2="199.122" />
<line fill="none" stroke-width="3" boundary-string=""  stroke="lightblue" x1="462.8" y1="199.122" x2="468" y2="181.02" />
<line fill="none" stroke-width="3" boundary-string=""  stroke="lightblue" x1="468" y1="181.02" x2="473.2" y2="162.918" />
<line fill="none" stroke-width="3" boundary-string=""  stroke="lightblue" x1="473.2" y1="162.918" x2="478.4" y2="144.816" />
<line fill="none" stroke-width="3" boundary-string=""  stroke="lightblue" x1="478.4" y1="144.816" x2="483.6" y2="126.714" />
<line fill="none" stroke-width="3" boundary-string=""  stroke="lightblue" x1="483.6" y1="126.714" x2="488.8" y2="108.612" />
<line fill="none" stroke-width="3" boundary-string=""  stroke="lightblue" x1="488.8" y1="108.612" x2="494" y2="90.5101" />
<line fill="none" stroke-width="3" boundary-string=""  stroke="lightblue" x1="494" y1="90.5101" x2="499.2" y2="72.408" />
<line fill="none" stroke-width="3" boundary-string=""  stroke="lightblue" x1="499.2" y1="72.408" x2="504.4" y2="54.306" />
<line fill="none" stroke-width="3" boundary-string=""  stroke="lightblue" x1="504.4" y1="54.306" x2="509.6" y2="36.204" />
<line fill="none" stroke-width="3" boundary-string=""  stroke="lightblue" x1="509.6" y1="36.204" x2="514.8" y2="18.102" />
<line fill="none" stroke-width="3" boundary-string=""  stroke="lightblue" x1="514.8" y1="18.102" x2="520" y2="0" />

<!--Draw the X and Y axes -->
<polyline fill="none" stroke="black" stroke-width="6"  points=" 600,0 0,0 0,520" />
<!-- -->


<!--Draw labels and tics for X axis -->

<line fill="none" stroke="black"  stroke-width="6"  x1="0.5" y1="0" x2="0.5" y2="-20" />
<text transform="scale(1,-1)" font-family="sans-serif" font-size="30" x="-24.5" y="45" >0 </text>
<line fill="none" stroke="black"  stroke-width="6"  x1="104.5" y1="0" x2="104.5" y2="-20" />
<text transform="scale(1,-1)" font-family="sans-serif" font-size="30" x="79.5" y="45" >20 </text>
<line fill="none" stroke="black"  stroke-width="6"  x1="208.5" y1="0" x2="208.5" y2="-20" />
<text transform="scale(1,-1)" font-family="sans-serif" font-size="30" x="183.5" y="45" >40 </text>
<line fill="none" stroke="black"  stroke-width="6"  x1="312.5" y1="0" x2="312.5" y2="-20" />
<text transform="scale(1,-1)" font-family="sans-serif" font-size="30" x="287.5" y="45" >60 </text>
<line fill="none" stroke="black"  stroke-width="6"  x1="416.5" y1="0" x2="416.5" y2="-20" />
<text transform="scale(1,-1)" font-family="sans-serif" font-size="30" x="391.5" y="45" >80 </text>
<line fill="none" stroke="black"  stroke-width="6"  x1="520.5" y1="0" x2="520.5" y2="-20" />
<text transform="scale(1,-1)" font-family="sans-serif" font-size="30" x="495.5" y="45" >100 </text>


<!--Draw labels and tics for Y axis -->

<line fill="none" stroke="black" stroke-width="6" x1="0.0" y1="0" x2="-20" y2="0" />
<text transform="scale(1,-1)" text-anchor="end" font-family="sans-serif" font-size="30" x="-25" y="10" >0 </text>
<line fill="none" stroke="black" stroke-width="6" x1="0.0" y1="47.2727" x2="-20" y2="47.2727" />
<text transform="scale(1,-1)" text-anchor="end" font-family="sans-serif" font-size="30" x="-25" y="-37.2727" >5 </text>
<line fill="none" stroke="black" stroke-width="6" x1="0.0" y1="94.5455" x2="-20" y2="94.5455" />
<text transform="scale(1,-1)" text-anchor="end" font-family="sans-serif" font-size="30" x="-25" y="-84.5455" >10 </text>
<line fill="none" stroke="black" stroke-width="6" x1="0.0" y1="141.818" x2="-20" y2="141.818" />
<text transform="scale(1,-1)" text-anchor="end" font-family="sans-serif" font-size="30" x="-25" y="-131.818" >15 </text>
<line fill="none" stroke="black" stroke-width="6" x1="0.0" y1="189.091" x2="-20" y2="189.091" />
<text transform="scale(1,-1)" text-anchor="end" font-family="sans-serif" font-size="30" x="-25" y="-179.091" >20 </text>
<line fill="none" stroke="black" stroke-width="6" x1="0.0" y1="236.364" x2="-20" y2="236.364" />
<text transform="scale(1,-1)" text-anchor="end" font-family="sans-serif" font-size="30" x="-25" y="-226.364" >25 </text>
<line fill="none" stroke="black" stroke-width="6" x1="0.0" y1="283.636" x2="-20" y2="283.636" />
<text transform="scale(1,-1)" text-anchor="end" font-family="sans-serif" font-size="30" x="-25" y="-273.636" >30 </text>
<line fill="none" stroke="black" stroke-width="6" x1="0.0" y1="330.909" x2="-20" y2="330.909" />
<text transform="scale(1,-1)" text-anchor="end" font-family="sans-serif" font-size="30" x="-25" y="-320.909" >35 </text>
<line fill="none" stroke="black" stroke-width="6" x1="0.0" y1="378.182" x2="-20" y2="378.182" />
<text transform="scale(1,-1)" text-anchor="end" font-family="sans-serif" font-size="30" x="-25" y="-368.182" >40 </text>
<line fill="none" stroke="black" stroke-width="6" x1="0.0" y1="425.455" x2="-20" y2="425.455" />
<text transform="scale(1,-1)" text-anchor="end" font-family="sans-serif" font-size="30" x="-25" y="-415.455" >45 </text>
<line fill="none" stroke="black" stroke-width="6" x1="0.0" y1="472.727" x2="-20" y2="472.727" />
<text transform="scale(1,-1)" text-anchor="end" font-family="sans-serif" font-size="30" x="-25" y="-462.727" >50 </text>
<line fill="none" stroke="black" stroke-width="6" x1="0.0" y1="520" x2="-20" y2="520" />
<text transform="scale(1,-1)" text-anchor="end" font-family="sans-serif" font-size="30" x="-25" y="-510" >55 </text>


<!--Draw Glitches -->

<line fill="none" stroke="black" stroke-width="2" x1="400.4" y1="295.187" x2="400.4" y2="245.187" />
<text transform="scale(1,-1)" font-family="sans-serif" font-size="30" x="405.4" y="-235.187" >77 </text>
<line fill="none" stroke="black" stroke-width="2" x1="452.4" y1="217.224" x2="452.4" y2="167.224" />
<text transform="scale(1,-1)" font-family="sans-serif" font-size="30" x="457.4" y="-157.224" >87 </text>

<!-- -->


<!-- Reduced vector followed by D7dist from the final reduced cell
-15.33207 -20.97974 -24.05862 -34.60843 -58.09656 -78.83539    (3.48093e-14,  0)   
-16.18543 -21.14274 -24.18239 -34.82035 -57.29780 -78.49400    (1.25283,  1.79693)   
-17.03880 -21.30574 -24.30616 -35.03227 -56.49905 -78.15262    (2.50565,  3.59386)   
-17.89216 -21.46875 -24.42993 -35.24418 -55.70030 -77.81123    (3.75848,  5.39079)   
-18.74552 -21.63175 -24.55370 -35.45610 -54.90155 -77.46985    (5.0113,  7.18773)   
-19.59889 -21.79475 -24.67747 -35.66802 -54.10280 -77.12847    (6.26413,  8.98466)   
-20.45225 -21.95775 -24.80124 -35.87993 -53.30405 -76.78708    (7.51696,  10.7816)   
-21.30562 -22.12075 -24.92501 -36.09185 -52.50530 -76.44570    (8.76978,  12.5785)   
-22.15898 -22.28375 -25.04878 -36.30377 -51.70655 -76.10431    (10.0226,  14.3755)   
-23.01235 -22.44675 -25.17255 -36.51568 -50.90780 -75.76293    (11.2754,  16.1724)   
-23.86571 -22.60975 -25.29632 -36.72760 -50.10905 -75.42155    (12.5283,  17.9693)   
-24.71907 -22.77275 -25.42009 -36.93952 -49.31030 -75.08016    (13.7811,  19.7662)   
-25.57244 -22.93575 -25.54386 -37.15143 -48.51155 -74.73878    (15.0339,  21.5632)   
-26.42580 -23.09875 -25.66763 -37.36335 -47.71280 -74.39739    (16.2867,  23.3601)   
-27.27917 -23.26175 -25.79140 -37.57527 -46.91405 -74.05601    (17.5396,  25.157)   
-28.13253 -23.42475 -25.91517 -37.78718 -46.11530 -73.71463    (18.7924,  26.954)   
-28.98590 -23.58775 -26.03894 -37.99910 -45.31655 -73.37324    (20.0452,  28.7509)   
-29.83926 -23.75076 -26.16271 -38.21102 -44.51780 -73.03186    (21.298,  30.5478)   
-30.69262 -23.91376 -26.28648 -38.42293 -43.71905 -72.69047    (22.5509,  32.3448)   
-31.54599 -24.07676 -26.41025 -38.63485 -42.92030 -72.34909    (23.8037,  34.1417)   
-32.39935 -24.23976 -26.53401 -38.84677 -42.12155 -72.00771    (25.0565,  35.9386)   
-33.25272 -24.40276 -26.65778 -39.05868 -41.32279 -71.66632    (26.3093,  37.7356)   
-34.10608 -24.56576 -26.78155 -39.27060 -40.52404 -71.32494    (26.6607,  38.2761)   
-34.95945 -24.72876 -26.90532 -39.48251 -39.72529 -70.98355    (26.9472,  38.7274)   
-35.81281 -24.89176 -27.02909 -39.69443 -38.92654 -70.64217    (27.2882,  39.2559)   
-36.66617 -25.05476 -27.15286 -39.90635 -38.12779 -70.30079    (27.6817,  39.8584)   
-37.51954 -25.21776 -27.27663 -40.11826 -37.32904 -69.95940    (28.1256,  40.5317)   
-38.37290 -25.38076 -27.40040 -40.33018 -36.53029 -69.61802    (28.6175,  41.2723)   
-39.22627 -25.54376 -27.52417 -40.54210 -35.73154 -69.27663    (29.155,  42.0767)   
-40.07963 -25.70676 -27.64794 -40.75401 -34.93279 -68.93525    (29.7356,  42.9412)   
-40.93300 -25.86976 -27.77171 -40.96593 -34.13404 -68.59387    (30.3568,  43.8623)   
-41.78636 -26.03276 -27.89548 -41.17785 -33.33529 -68.25248    (31.0162,  44.8366)   
-42.63972 -26.19577 -28.01925 -41.38976 -32.53654 -67.91110    (31.7114,  45.8606)   
-43.49309 -26.35877 -28.14302 -41.60168 -31.73779 -67.56971    (32.4401,  46.9311)   
-44.34645 -26.52177 -28.26679 -41.81360 -30.93904 -67.22833    (32.932,  47.6746)   
-45.19982 -26.68477 -28.39056 -42.02551 -30.14029 -66.88694    (32.4476,  47.0715)   
-29.34154 -42.23743 -28.51433 -26.84777 -46.05318 -66.54556    (32.005,  46.53)   
-28.54279 -42.44935 -28.63810 -27.01077 -46.90655 -66.20418    (31.6058,  46.0523)   
-27.74404 -42.66126 -28.76187 -27.17377 -47.75991 -65.86279    (31.2518,  45.6404)   
-26.94529 -42.87318 -28.88564 -27.33677 -48.61327 -65.52141    (30.9445,  45.2961)   
-26.14654 -43.08510 -29.00941 -27.49977 -49.46664 -65.18002    (30.6853,  45.0209)   
-25.34779 -43.29701 -29.13318 -27.66277 -50.32000 -64.83864    (30.4754,  44.8161)   
-24.54903 -43.50893 -29.25695 -27.82577 -51.17337 -64.49726    (30.3159,  44.6828)   
-23.75028 -43.72085 -29.38072 -27.98877 -52.02673 -64.15587    (30.2076,  44.6214)   
-22.95153 -43.93276 -29.50448 -28.15177 -52.88010 -63.81449    (30.151,  44.6324)   
-22.15278 -44.14468 -29.62825 -28.31477 -53.73346 -63.47310    (30.1464,  44.7156)   
-21.35403 -44.35660 -29.75202 -28.47778 -54.58682 -63.13172    (30.1938,  44.8707)   
-20.55528 -44.56851 -29.87579 -28.64078 -55.44019 -62.79034    (30.293,  45.097)   
-19.75653 -44.78043 -29.99956 -28.80378 -56.29355 -62.44895    (30.4434,  45.3932)   
-18.95778 -44.99235 -30.12333 -28.96678 -57.14692 -62.10757    (30.6444,  45.7582)   
-18.15903 -45.20426 -30.24710 -29.12978 -58.00028 -61.76618    (30.895,  46.1903)   
-17.36028 -45.41618 -30.37087 -29.29278 -58.85365 -61.42480    (31.1938,  46.6875)   
-16.56153 -45.62810 -30.49464 -29.45578 -59.70701 -61.08342    (30.9621,  46.4776)   
-15.76278 -45.84001 -30.61841 -29.61878 -60.56037 -60.74203    (30.5514,  46.0334)   
-14.96403 -46.05193 -30.74218 -29.78178 -61.41374 -60.40065    (30.1872,  45.6556)   
-14.16528 -46.26385 -30.86595 -29.94478 -62.26710 -60.05926    (29.8711,  45.346)   
-46.47576 -13.36653 -30.98972 -63.12047 -30.10778 -59.71788    (29.6046,  45.1058)   
-46.68768 -12.56778 -31.11349 -63.97383 -30.27078 -59.37650    (29.3892,  44.9363)   
-46.89960 -11.76903 -31.23726 -64.82719 -30.43378 -59.03511    (29.226,  44.8382)   
-47.11151 -10.97028 -31.36103 -65.68056 -30.59678 -58.69373    (29.1158,  44.812)   
-47.32343 -10.17153 -31.48480 -66.53392 -30.75978 -58.35234    (29.0593,  44.8578)   
-47.53535  -9.37278 -31.60857 -67.38729 -30.92279 -58.01096    (29.0567,  44.9755)   
-47.74726  -8.57402 -31.73234 -68.24065 -31.08579 -57.66958    (29.1081,  45.1644)   
-47.95918  -7.77527 -31.85611 -69.09402 -31.24879 -57.32819    (29.2132,  45.4236)   
-48.17110  -6.97652 -31.97988 -69.94738 -31.41179 -56.98681    (29.3713,  45.752)   
-48.38301 -32.10365  -6.17777 -70.80074 -56.64542 -31.57479    (29.5818,  46.1481)   
-48.59493 -32.22742  -5.37902 -71.65411 -56.30404 -31.73779    (29.8434,  46.6101)   
-32.35118 -48.80685  -4.58027 -55.96266 -72.50747 -31.90079    (30.1548,  47.1361)   
-32.47495 -49.01876  -3.78152 -55.62127 -73.36084 -32.06379    (30.5145,  47.7241)   
-32.59872 -49.23068  -2.98277 -55.27989 -74.21420 -32.22679    (30.9209,  48.3717)   
-32.72249 -49.44260  -2.18402 -54.93850 -75.06757 -32.38979    (31.372,  49.0765)   
-32.84626 -49.65451  -1.38527 -54.59712 -75.92093 -32.55279    (31.866,  49.8363)   
-32.97003 -49.86643  -0.58652 -54.25574 -76.77429 -32.71579    (32.401,  50.6484)   
-32.88157 -53.70212  -0.21223 -49.86611 -77.41543 -33.09102    (32.7557,  51.274)   
-32.20659 -52.56199  -1.01098 -49.27928 -77.47004 -34.05278    (32.5887,  51.3597)   
-31.53161 -51.42185  -1.80973 -48.69245 -77.52466 -35.01453    (32.5337,  51.5985)   
-30.85663 -50.28172  -2.60848 -48.10561 -77.57927 -35.97628    (32.4093,  49.6495)   
-30.18165 -49.14158  -3.40723 -47.51878 -77.63388 -36.93803    (31.2217,  47.7801)   
-29.50667 -48.00145  -4.20598 -46.93194 -77.68850 -37.89978    (30.109,  46.0092)   
-28.83169 -46.86131  -5.00473 -46.34511 -77.74311 -38.86153    (29.08,  44.3486)   
-28.15671 -45.72118  -5.80348 -45.75828 -77.79772 -39.82328    (28.1438,  42.811)   
-27.48172 -44.58104  -6.60223 -45.17144 -77.85234 -40.78503    (27.3099,  41.4103)   
-26.80674  -7.40099 -43.44091 -44.58461 -41.74679 -77.90695    (26.588,  40.1608)   
-26.13176  -8.19974 -42.30078 -43.99778 -42.70854 -77.96157    (25.9873,  39.0769)   
-25.45678  -8.99849 -41.16064 -43.41094 -43.67029 -78.01618    (25.5165,  38.1727)   
-24.78180  -9.79724 -40.02051 -42.82411 -44.63204 -78.07079    (25.1829,  37.4613)   
-24.10682 -10.59599 -38.88037 -42.23727 -45.59379 -78.12541    (24.8903,  36.8164)   
-23.43184 -11.39474 -37.74024 -41.65044 -46.55554 -78.18002    (22.9756,  33.9844)   
-22.75686 -12.19349 -36.60010 -41.06361 -47.51729 -78.23463    (21.061,  31.1524)   
-22.08188 -12.99224 -35.45997 -40.47677 -48.47904 -78.28925    (19.1464,  28.3203)   
-21.40690 -13.79099 -34.31983 -39.88994 -49.44079 -78.34386    (17.2317,  25.4883)   
-20.73192 -14.58974 -33.17970 -39.30310 -50.40255 -78.39848    (15.3171,  22.6563)   
-20.05693 -15.38849 -32.03957 -38.71627 -51.36430 -78.45309    (13.4025,  19.8242)   
-19.38195 -16.18724 -30.89943 -38.12944 -52.32605 -78.50770    (11.4878,  16.9922)   
-18.70697 -16.98599 -29.75930 -37.54260 -53.28780 -78.56232    (9.57318,  14.1602)   
-18.03199 -17.78474 -28.61916 -36.95577 -54.24955 -78.61693    (7.65854,  11.3281)   
-17.35701 -18.58349 -27.47903 -36.36893 -55.21130 -78.67154    (5.74391,  8.4961)   
-16.68203 -19.38224 -26.33889 -35.78210 -56.17305 -78.72616    (3.82927,  5.66407)   
-16.00705 -20.18099 -25.19876 -35.19527 -57.13480 -78.78077    (1.91464,  2.83203)   
-15.33207 -20.97974 -24.05862 -34.60843 -58.09656 -78.83539    (0,  7.62939e-06)   
-->
</g>
</g>
<!-- Run Constants
CIRCLEPLOT bool false
DISTANCEPLOT bool true
PRINTDISTANCEDATA bool true
GLITCHESONLY bool false
PLOT 2doubles 3 4
PERTURBBY double 0.05
GLITCHLEVEL double 3
BOUNDARYWINDOW double 0.065
FRAMESPERPATH int 200
STEPSPERFRAME int 100
TRIALS int 1
ALLBLACK bool false
FILEPREFIX string Fol
GRAPHSIZE int 0
BORDER int 0
PLOTSIZE int 0
CIRCLEPLOTSIZE int 2000
CIRCLERADIUS int 300
CIRCLESTROKEWIDTH int 30
G6LINEWIDTH int 3
DELONELINEWIDTH int 10
AXISWIDTH int 6
TICLENGTH int 20
VECTOR g6 
PERTURB g6Perturb 
MOVIEMODE MovieMode STAR
FOLLOWERMODE FollowerMode Follow
FIXRANDOMSEED fixRandomSeed true
RANDOMSEED int 18
TIMESTAMP bool true
END end 




-->
</svg>
