<?xml version="1.0" standalone="no"?>
<!-- the width and height set the total pixel output of the image in the browser -->
<!-- whatever is within the viewbox will be remapped to show in this size -->
<svg width="1000" height="1000" viewBox="1 0 1000 1000"  version="1.1" xmlns="http://www.w3.org/2000/svg" xmlns:xlink="http://www.w3.org/1999/xlink">
 <desc>ID (and file name) = Fol_2018-02-06.15_49_15.61_0.svg </desc> 
 <text x="280"  y="30"  font-family="sans-serif" font-size="20" > Trial vector = 0  </text> 
 <text x="700" y="30" font-family="sans-serif" font-size="20">Wall time passed: 30926 msec.</text>
<text x="450" y="30" font-family="sans-serif" font-size="20" fill="black" > Plotting g5 vs. g4</text>
<text x="300" y="60"  font-family="sans-serif" font-size="20" > Beginning vector  -175.79578  72.91466 -120.38834 -133.29146  81.46422 -177.77471 </text>
<text x="300" y="85"  font-family="sans-serif" font-size="20" > Beginning cell   13.44489  14.65332  16.75279   2.36902   1.24114   2.22821 </text>
<text x="300" y="110"  font-family="sans-serif" font-size="20" > Ending vector   60.37680  47.47368   8.54956 -199.80740 -223.63473 -288.61562 </text>
<text x="300" y="135"  font-family="sans-serif" font-size="20" > Ending cell   11.99100  12.43818  13.44489   1.20141   1.27190   1.51344 </text>

<text x="300" y="160"  font-family="sans-serif" font-size="20" > Glitch  -166.25345  71.88674 -115.17873 -135.97898  69.13699 -182.25313  (24.2174 )</text>
<text x="300" y="185"  font-family="sans-serif" font-size="20" > Glitch  -168.63904  72.14372 -116.48113 -135.30710  72.21880 -181.13352  (21.8136)</text>



 <!--DISTANCE PLOT BEGINS-->


<!-- the following will scale and place the distance plot -->
<g  transform="translate(0,50) ">
<g transform="translate(150,700) scale(1 -1)">
   <polyline fill="none" stroke="black" stroke-width="10" points=" 5.2 ,0  10.4 ,28.6259  15.6 ,57.2518  20.8 ,85.8777  26 ,99.3221  31.2 ,113.114  36.4 ,127.524  41.6 ,142.413  46.8 ,155.629  52 ,165.21  57.2 ,175.714  62.4 ,181.991  67.6 ,185.226  72.8 ,189.547  78 ,191.665  83.2 ,194.502  88.4 ,198.389  93.6 ,203.265  98.8 ,209.062  104 ,215.706  109.2 ,223.12  114.4 ,231.231  119.6 ,239.968  124.8 ,249.265  130 ,259.062  135.2 ,269.304  140.4 ,279.943  145.6 ,290.935  150.8 ,302.241  156 ,313.828  161.2 ,324.731  166.4 ,335.534  171.6 ,346.623  176.8 ,357.971  182 ,366.461  187.2 ,374.71  192.4 ,383.345  197.6 ,392.339  202.8 ,401.67  208 ,411.314  213.2 ,421.249  218.4 ,431.456  223.6 ,441.916  228.8 ,452.31  234 ,462.872  239.2 ,473.654  244.4 ,480.784  249.6 ,485.372  254.8 ,485.228  260 ,484.15  265.2 ,483.247  270.4 ,482.52  275.6 ,475.756  280.8 ,468.074  286 ,460.604  291.2 ,453.359  296.4 ,446.348  301.6 ,439.583  306.8 ,433.075  312 ,426.836  317.2 ,420.879  322.4 ,415.215  327.6 ,409.856  332.8 ,404.815  338 ,400.103  343.2 ,395.732  348.4 ,391.715  353.6 ,388.06  358.8 ,384.78  364 ,381.884  369.2 ,379.38  374.4 ,377.276  379.6 ,375.58  384.8 ,374.296  390 ,370.299  395.2 ,359.75  400.4 ,349.67  405.6 ,340.059  410.8 ,330.992  416 ,322.521  421.2 ,314.711  426.4 ,307.665  431.6 ,299.778  436.8 ,284.564  442 ,266.579  447.2 ,248.667  452.4 ,224.997  457.6 ,205.612  462.8 ,193.475  468 ,178.222  473.2 ,160.844  478.4 ,143.782  483.6 ,127.607  488.8 ,111.29  494 ,94.9926  499.2 ,78.6328  504.4 ,58.9746  509.6 ,39.3164  514.8 ,19.6582  520 ,0  " />

<!--Draw the X and Y axes -->
<polyline fill="none" stroke="black" stroke-width="6"  points=" 600,0 0,0 0,520" />
<!-- -->

<line fill="none" stroke-width="3" boundary-string=""  stroke="lightblue" x1="0" y1="2.4683e-13" x2="5.2" y2="2.4683e-13" />
<line fill="none" stroke-width="3" boundary-string=""  stroke="lightblue" x1="5.2" y1="2.4683e-13" x2="10.4" y2="17.1865" />
<line fill="none" stroke-width="3" boundary-string=""  stroke="lightblue" x1="10.4" y1="17.1865" x2="15.6" y2="34.3729" />
<line fill="none" stroke-width="3" boundary-string=""  stroke="lightblue" x1="15.6" y1="34.3729" x2="20.8" y2="51.5594" />
<line fill="none" stroke-width="3" boundary-string=""  stroke="lightblue" x1="20.8" y1="51.5594" x2="26" y2="57.241" />
<line fill="none" stroke-width="3" boundary-string=""  stroke="lightblue" x1="26" y1="57.241" x2="31.2" y2="63.5932" />
<line fill="none" stroke-width="3" boundary-string=""  stroke="lightblue" x1="31.2" y1="63.5932" x2="36.4" y2="70.6767" />
<line fill="none" stroke-width="3" boundary-string=""  stroke="lightblue" x1="36.4" y1="70.6767" x2="41.6" y2="78.2934" />
<line fill="none" stroke-width="3" boundary-string=""  stroke="lightblue" x1="41.6" y1="78.2934" x2="46.8" y2="86.3022" />
<line fill="none" stroke-width="3" boundary-string=""  stroke="lightblue" x1="46.8" y1="86.3022" x2="52" y2="94.6035" />
<line fill="none" stroke-width="3" boundary-string=""  stroke="lightblue" x1="52" y1="94.6035" x2="57.2" y2="103.127" />
<line fill="none" stroke-width="3" boundary-string=""  stroke="lightblue" x1="57.2" y1="103.127" x2="62.4" y2="111.42" />
<line fill="none" stroke-width="3" boundary-string=""  stroke="lightblue" x1="62.4" y1="111.42" x2="67.6" y2="111.692" />
<line fill="none" stroke-width="3" boundary-string=""  stroke="lightblue" x1="67.6" y1="111.692" x2="72.8" y2="112.779" />
<line fill="none" stroke-width="3" boundary-string=""  stroke="lightblue" x1="72.8" y1="112.779" x2="78" y2="111.915" />
<line fill="none" stroke-width="3" boundary-string=""  stroke="lightblue" x1="78" y1="111.915" x2="83.2" y2="111.546" />
<line fill="none" stroke-width="3" boundary-string=""  stroke="lightblue" x1="83.2" y1="111.546" x2="88.4" y2="111.998" />
<line fill="none" stroke-width="3" boundary-string=""  stroke="lightblue" x1="88.4" y1="111.998" x2="93.6" y2="113.262" />
<line fill="none" stroke-width="3" boundary-string=""  stroke="lightblue" x1="93.6" y1="113.262" x2="98.8" y2="115.311" />
<line fill="none" stroke-width="3" boundary-string=""  stroke="lightblue" x1="98.8" y1="115.311" x2="104" y2="118.103" />
<line fill="none" stroke-width="3" boundary-string=""  stroke="lightblue" x1="104" y1="118.103" x2="109.2" y2="121.588" />
<line fill="none" stroke-width="3" boundary-string=""  stroke="lightblue" x1="109.2" y1="121.588" x2="114.4" y2="125.708" />
<line fill="none" stroke-width="3" boundary-string=""  stroke="lightblue" x1="114.4" y1="125.708" x2="119.6" y2="130.403" />
<line fill="none" stroke-width="3" boundary-string=""  stroke="lightblue" x1="119.6" y1="130.403" x2="124.8" y2="135.613" />
<line fill="none" stroke-width="3" boundary-string=""  stroke="lightblue" x1="124.8" y1="135.613" x2="130" y2="141.281" />
<line fill="none" stroke-width="3" boundary-string=""  stroke="lightblue" x1="130" y1="141.281" x2="135.2" y2="147.355" />
<line fill="none" stroke-width="3" boundary-string=""  stroke="lightblue" x1="135.2" y1="147.355" x2="140.4" y2="153.786" />
<line fill="none" stroke-width="3" boundary-string=""  stroke="lightblue" x1="140.4" y1="153.786" x2="145.6" y2="160.531" />
<line fill="none" stroke-width="3" boundary-string=""  stroke="lightblue" x1="145.6" y1="160.531" x2="150.8" y2="167.553" />
<line fill="none" stroke-width="3" boundary-string=""  stroke="lightblue" x1="150.8" y1="167.553" x2="156" y2="174.818" />
<line fill="none" stroke-width="3" boundary-string=""  stroke="lightblue" x1="156" y1="174.818" x2="161.2" y2="181.461" />
<line fill="none" stroke-width="3" boundary-string=""  stroke="lightblue" x1="161.2" y1="181.461" x2="166.4" y2="188.011" />
<line fill="none" stroke-width="3" boundary-string=""  stroke="lightblue" x1="166.4" y1="188.011" x2="171.6" y2="194.812" />
<line fill="none" stroke-width="3" boundary-string=""  stroke="lightblue" x1="171.6" y1="194.812" x2="176.8" y2="201.838" />
<line fill="none" stroke-width="3" boundary-string=""  stroke="lightblue" x1="176.8" y1="201.838" x2="182" y2="206.328" />
<line fill="none" stroke-width="3" boundary-string=""  stroke="lightblue" x1="182" y1="206.328" x2="187.2" y2="210.6" />
<line fill="none" stroke-width="3" boundary-string=""  stroke="lightblue" x1="187.2" y1="210.6" x2="192.4" y2="215.215" />
<line fill="none" stroke-width="3" boundary-string=""  stroke="lightblue" x1="192.4" y1="215.215" x2="197.6" y2="220.15" />
<line fill="none" stroke-width="3" boundary-string=""  stroke="lightblue" x1="197.6" y1="220.15" x2="202.8" y2="225.384" />
<line fill="none" stroke-width="3" boundary-string=""  stroke="lightblue" x1="202.8" y1="225.384" x2="208" y2="230.898" />
<line fill="none" stroke-width="3" boundary-string=""  stroke="lightblue" x1="208" y1="230.898" x2="213.2" y2="236.67" />
<line fill="none" stroke-width="3" boundary-string=""  stroke="lightblue" x1="213.2" y1="236.67" x2="218.4" y2="242.684" />
<line fill="none" stroke-width="3" boundary-string=""  stroke="lightblue" x1="218.4" y1="242.684" x2="223.6" y2="248.922" />
<line fill="none" stroke-width="3" boundary-string=""  stroke="lightblue" x1="223.6" y1="248.922" x2="228.8" y2="255.099" />
<line fill="none" stroke-width="3" boundary-string=""  stroke="lightblue" x1="228.8" y1="255.099" x2="234" y2="261.425" />
<line fill="none" stroke-width="3" boundary-string=""  stroke="lightblue" x1="234" y1="261.425" x2="239.2" y2="267.944" />
<line fill="none" stroke-width="3" boundary-string=""  stroke="lightblue" x1="239.2" y1="267.944" x2="244.4" y2="272.055" />
<line fill="none" stroke-width="3" boundary-string=""  stroke="lightblue" x1="244.4" y1="272.055" x2="249.6" y2="274.453" />
<line fill="none" stroke-width="3" boundary-string=""  stroke="lightblue" x1="249.6" y1="274.453" x2="254.8" y2="272.599" />
<line fill="none" stroke-width="3" boundary-string=""  stroke="lightblue" x1="254.8" y1="272.599" x2="260" y2="270.881" />
<line fill="none" stroke-width="3" boundary-string=""  stroke="lightblue" x1="260" y1="270.881" x2="265.2" y2="269.303" />
<line fill="none" stroke-width="3" boundary-string=""  stroke="lightblue" x1="265.2" y1="269.303" x2="270.4" y2="267.868" />
<line fill="none" stroke-width="3" boundary-string=""  stroke="lightblue" x1="270.4" y1="267.868" x2="275.6" y2="262.325" />
<line fill="none" stroke-width="3" boundary-string=""  stroke="lightblue" x1="275.6" y1="262.325" x2="280.8" y2="256.155" />
<line fill="none" stroke-width="3" boundary-string=""  stroke="lightblue" x1="280.8" y1="256.155" x2="286" y2="250.143" />
<line fill="none" stroke-width="3" boundary-string=""  stroke="lightblue" x1="286" y1="250.143" x2="291.2" y2="244.3" />
<line fill="none" stroke-width="3" boundary-string=""  stroke="lightblue" x1="291.2" y1="244.3" x2="296.4" y2="238.64" />
<line fill="none" stroke-width="3" boundary-string=""  stroke="lightblue" x1="296.4" y1="238.64" x2="301.6" y2="233.175" />
<line fill="none" stroke-width="3" boundary-string=""  stroke="lightblue" x1="301.6" y1="233.175" x2="306.8" y2="227.919" />
<line fill="none" stroke-width="3" boundary-string=""  stroke="lightblue" x1="306.8" y1="227.919" x2="312" y2="222.887" />
<line fill="none" stroke-width="3" boundary-string=""  stroke="lightblue" x1="312" y1="222.887" x2="317.2" y2="218.096" />
<line fill="none" stroke-width="3" boundary-string=""  stroke="lightblue" x1="317.2" y1="218.096" x2="322.4" y2="213.56" />
<line fill="none" stroke-width="3" boundary-string=""  stroke="lightblue" x1="322.4" y1="213.56" x2="327.6" y2="209.296" />
<line fill="none" stroke-width="3" boundary-string=""  stroke="lightblue" x1="327.6" y1="209.296" x2="332.8" y2="205.322" />
<line fill="none" stroke-width="3" boundary-string=""  stroke="lightblue" x1="332.8" y1="205.322" x2="338" y2="201.655" />
<line fill="none" stroke-width="3" boundary-string=""  stroke="lightblue" x1="338" y1="201.655" x2="343.2" y2="198.311" />
<line fill="none" stroke-width="3" boundary-string=""  stroke="lightblue" x1="343.2" y1="198.311" x2="348.4" y2="195.308" />
<line fill="none" stroke-width="3" boundary-string=""  stroke="lightblue" x1="348.4" y1="195.308" x2="353.6" y2="192.661" />
<line fill="none" stroke-width="3" boundary-string=""  stroke="lightblue" x1="353.6" y1="192.661" x2="358.8" y2="190.384" />
<line fill="none" stroke-width="3" boundary-string=""  stroke="lightblue" x1="358.8" y1="190.384" x2="364" y2="188.492" />
<line fill="none" stroke-width="3" boundary-string=""  stroke="lightblue" x1="364" y1="188.492" x2="369.2" y2="186.996" />
<line fill="none" stroke-width="3" boundary-string=""  stroke="lightblue" x1="369.2" y1="186.996" x2="374.4" y2="185.906" />
<line fill="none" stroke-width="3" boundary-string=""  stroke="lightblue" x1="374.4" y1="185.906" x2="379.6" y2="185.229" />
<line fill="none" stroke-width="3" boundary-string=""  stroke="lightblue" x1="379.6" y1="185.229" x2="384.8" y2="184.969" />
<line fill="none" stroke-width="3" boundary-string=""  stroke="lightblue" x1="384.8" y1="184.969" x2="390" y2="182.866" />
<line fill="none" stroke-width="3" boundary-string=""  stroke="lightblue" x1="390" y1="182.866" x2="395.2" y2="176.113" />
<line fill="none" stroke-width="3" boundary-string=""  stroke="lightblue" x1="395.2" y1="176.113" x2="400.4" y2="169.801" />
<line fill="none" stroke-width="3" boundary-string=""  stroke="lightblue" x1="400.4" y1="169.801" x2="405.6" y2="163.982" />
<line fill="none" stroke-width="3" boundary-string=""  stroke="lightblue" x1="405.6" y1="163.982" x2="410.8" y2="158.709" />
<line fill="none" stroke-width="3" boundary-string=""  stroke="lightblue" x1="410.8" y1="158.709" x2="416" y2="154.039" />
<line fill="none" stroke-width="3" boundary-string=""  stroke="lightblue" x1="416" y1="154.039" x2="421.2" y2="150.028" />
<line fill="none" stroke-width="3" boundary-string=""  stroke="lightblue" x1="421.2" y1="150.028" x2="426.4" y2="146.729" />
<line fill="none" stroke-width="3" boundary-string=""  stroke="lightblue" x1="426.4" y1="146.729" x2="431.6" y2="144.193" />
<line fill="none" stroke-width="3" boundary-string=""  stroke="lightblue" x1="431.6" y1="144.193" x2="436.8" y2="142.459" />
<line fill="none" stroke-width="3" boundary-string=""  stroke="lightblue" x1="436.8" y1="142.459" x2="442" y2="132.483" />
<line fill="none" stroke-width="3" boundary-string=""  stroke="lightblue" x1="442" y1="132.483" x2="447.2" y2="122.305" />
<line fill="none" stroke-width="3" boundary-string=""  stroke="lightblue" x1="447.2" y1="122.305" x2="452.4" y2="112.277" />
<line fill="none" stroke-width="3" boundary-string=""  stroke="lightblue" x1="452.4" y1="112.277" x2="457.6" y2="102.444" />
<line fill="none" stroke-width="3" boundary-string=""  stroke="lightblue" x1="457.6" y1="102.444" x2="462.8" y2="92.8663" />
<line fill="none" stroke-width="3" boundary-string=""  stroke="lightblue" x1="462.8" y1="92.8663" x2="468" y2="83.6328" />
<line fill="none" stroke-width="3" boundary-string=""  stroke="lightblue" x1="468" y1="83.6328" x2="473.2" y2="74.8708" />
<line fill="none" stroke-width="3" boundary-string=""  stroke="lightblue" x1="473.2" y1="74.8708" x2="478.4" y2="66.766" />
<line fill="none" stroke-width="3" boundary-string=""  stroke="lightblue" x1="478.4" y1="66.766" x2="483.6" y2="59.5873" />
<line fill="none" stroke-width="3" boundary-string=""  stroke="lightblue" x1="483.6" y1="59.5873" x2="488.8" y2="52.7557" />
<line fill="none" stroke-width="3" boundary-string=""  stroke="lightblue" x1="488.8" y1="52.7557" x2="494" y2="46.3041" />
<line fill="none" stroke-width="3" boundary-string=""  stroke="lightblue" x1="494" y1="46.3041" x2="499.2" y2="39.7016" />
<line fill="none" stroke-width="3" boundary-string=""  stroke="lightblue" x1="499.2" y1="39.7016" x2="504.4" y2="29.7762" />
<line fill="none" stroke-width="3" boundary-string=""  stroke="lightblue" x1="504.4" y1="29.7762" x2="509.6" y2="19.8508" />
<line fill="none" stroke-width="3" boundary-string=""  stroke="lightblue" x1="509.6" y1="19.8508" x2="514.8" y2="9.9254" />
<line fill="none" stroke-width="3" boundary-string=""  stroke="lightblue" x1="514.8" y1="9.9254" x2="520" y2="0" />

<!--Draw the X and Y axes -->
<polyline fill="none" stroke="black" stroke-width="6"  points=" 600,0 0,0 0,520" />
<!-- -->


<!--Draw labels and tics for X axis -->

<line fill="none" stroke="black"  stroke-width="6"  x1="0.5" y1="0" x2="0.5" y2="-20" />
<text transform="scale(1,-1)" font-family="sans-serif" font-size="30" x="-24.5" y="45" >0 </text>
<line fill="none" stroke="black"  stroke-width="6"  x1="104.5" y1="0" x2="104.5" y2="-20" />
<text transform="scale(1,-1)" font-family="sans-serif" font-size="30" x="79.5" y="45" >20 </text>
<line fill="none" stroke="black"  stroke-width="6"  x1="208.5" y1="0" x2="208.5" y2="-20" />
<text transform="scale(1,-1)" font-family="sans-serif" font-size="30" x="183.5" y="45" >40 </text>
<line fill="none" stroke="black"  stroke-width="6"  x1="312.5" y1="0" x2="312.5" y2="-20" />
<text transform="scale(1,-1)" font-family="sans-serif" font-size="30" x="287.5" y="45" >60 </text>
<line fill="none" stroke="black"  stroke-width="6"  x1="416.5" y1="0" x2="416.5" y2="-20" />
<text transform="scale(1,-1)" font-family="sans-serif" font-size="30" x="391.5" y="45" >80 </text>
<line fill="none" stroke="black"  stroke-width="6"  x1="520.5" y1="0" x2="520.5" y2="-20" />
<text transform="scale(1,-1)" font-family="sans-serif" font-size="30" x="495.5" y="45" >100 </text>


<!--Draw labels and tics for Y axis -->

<line fill="none" stroke="black" stroke-width="6" x1="0.0" y1="0" x2="-20" y2="0" />
<text transform="scale(1,-1)" text-anchor="end" font-family="sans-serif" font-size="30" x="-25" y="10" >0 </text>
<line fill="none" stroke="black" stroke-width="6" x1="0.0" y1="47.2727" x2="-20" y2="47.2727" />
<text transform="scale(1,-1)" text-anchor="end" font-family="sans-serif" font-size="30" x="-25" y="-37.2727" >20 </text>
<line fill="none" stroke="black" stroke-width="6" x1="0.0" y1="94.5455" x2="-20" y2="94.5455" />
<text transform="scale(1,-1)" text-anchor="end" font-family="sans-serif" font-size="30" x="-25" y="-84.5455" >40 </text>
<line fill="none" stroke="black" stroke-width="6" x1="0.0" y1="141.818" x2="-20" y2="141.818" />
<text transform="scale(1,-1)" text-anchor="end" font-family="sans-serif" font-size="30" x="-25" y="-131.818" >60 </text>
<line fill="none" stroke="black" stroke-width="6" x1="0.0" y1="189.091" x2="-20" y2="189.091" />
<text transform="scale(1,-1)" text-anchor="end" font-family="sans-serif" font-size="30" x="-25" y="-179.091" >80 </text>
<line fill="none" stroke="black" stroke-width="6" x1="0.0" y1="236.364" x2="-20" y2="236.364" />
<text transform="scale(1,-1)" text-anchor="end" font-family="sans-serif" font-size="30" x="-25" y="-226.364" >100 </text>
<line fill="none" stroke="black" stroke-width="6" x1="0.0" y1="283.636" x2="-20" y2="283.636" />
<text transform="scale(1,-1)" text-anchor="end" font-family="sans-serif" font-size="30" x="-25" y="-273.636" >120 </text>
<line fill="none" stroke="black" stroke-width="6" x1="0.0" y1="330.909" x2="-20" y2="330.909" />
<text transform="scale(1,-1)" text-anchor="end" font-family="sans-serif" font-size="30" x="-25" y="-320.909" >140 </text>
<line fill="none" stroke="black" stroke-width="6" x1="0.0" y1="378.182" x2="-20" y2="378.182" />
<text transform="scale(1,-1)" text-anchor="end" font-family="sans-serif" font-size="30" x="-25" y="-368.182" >160 </text>
<line fill="none" stroke="black" stroke-width="6" x1="0.0" y1="425.455" x2="-20" y2="425.455" />
<text transform="scale(1,-1)" text-anchor="end" font-family="sans-serif" font-size="30" x="-25" y="-415.455" >180 </text>
<line fill="none" stroke="black" stroke-width="6" x1="0.0" y1="472.727" x2="-20" y2="472.727" />
<text transform="scale(1,-1)" text-anchor="end" font-family="sans-serif" font-size="30" x="-25" y="-462.727" >200 </text>
<line fill="none" stroke="black" stroke-width="6" x1="0.0" y1="520" x2="-20" y2="520" />
<text transform="scale(1,-1)" text-anchor="end" font-family="sans-serif" font-size="30" x="-25" y="-510" >220 </text>


<!--Draw Glitches -->

<line fill="none" stroke="black" stroke-width="2" x1="20.8" y1="57.241" x2="20.8" y2="7.24102" />
<text transform="scale(1,-1)" font-family="sans-serif" font-size="30" x="25.8" y="2.75898" >4 </text>
<line fill="none" stroke="black" stroke-width="2" x1="390" y1="176.113" x2="390" y2="126.113" />
<text transform="scale(1,-1)" font-family="sans-serif" font-size="30" x="395" y="-116.113" >75 </text>
<line fill="none" stroke="black" stroke-width="2" x1="436.8" y1="132.483" x2="436.8" y2="82.4828" />
<text transform="scale(1,-1)" font-family="sans-serif" font-size="30" x="441.8" y="-72.4828" >84 </text>
<line fill="none" stroke="black" stroke-width="2" x1="499.2" y1="29.7762" x2="499.2" y2="-20.2238" />
<text transform="scale(1,-1)" font-family="sans-serif" font-size="30" x="504.2" y="30.2238" >96 </text>

<!-- -->


<!-- Reduced vector followed by D7dist from the final reduced cell
-94.33156 -38.92412  -8.54956 -96.31049 -51.82725 -81.46422    (1.04428e-13,  0)   
-95.02779 -40.70352  -5.72473 -100.51190 -55.58093 -78.38241    (7.27119,  12.111)   
-95.72401 -42.48293  -2.89990 -104.71332 -59.33462 -75.30060    (14.5424,  24.2219)   
-96.42024 -44.26233  -0.07507 -108.91473 -63.08830 -72.21880    (21.8136,  36.3329)   
-64.09224 -43.29198  -2.74975 -110.36639 -94.36671 -71.88674    (24.2174,  42.0209)   
-65.02109 -42.24656  -5.57458 -111.74297 -92.23811 -71.62976    (26.9048,  47.8559)   
-65.94995 -41.20114  -8.39941 -113.11956 -90.10951 -71.37278    (29.9017,  53.9523)   
-66.87881 -40.15571 -11.22424 -114.49614 -87.98091 -71.11580    (33.1241,  60.2516)   
-39.11029 -67.80767 -14.04907 -85.85230 -115.87273 -70.85882    (36.5125,  65.8431)   
-38.06487 -68.73652 -16.87389 -83.72370 -117.24931 -70.60184    (40.0246,  69.8966)   
-37.01944 -69.66538 -19.69872 -81.59510 -118.62590 -70.34486    (43.6306,  74.3405)   
-35.97402 -22.52355 -70.59424 -79.46650 -70.08788 -120.00248    (47.1391,  76.996)   
-34.92860 -25.34838 -71.52310 -77.33790 -69.83090 -121.37907    (47.2541,  78.3648)   
-33.88317 -28.17321 -72.45196 -75.20929 -69.57392 -122.75565    (47.7144,  80.1932)   
-30.99803 -32.83775 -73.38081 -69.31695 -73.08069 -124.13224    (47.3487,  81.0891)   
-33.82286 -31.79233 -74.30967 -69.05997 -70.95209 -125.50882    (47.1926,  82.2893)   
-36.64769 -30.74690 -75.23853 -68.80299 -68.82349 -126.88540    (47.3839,  83.9336)   
-39.47252 -29.70148 -76.16739 -68.54601 -66.69489 -128.26199    (47.9186,  85.9968)   
-42.29734 -28.65606 -77.09624 -68.28903 -64.56628 -129.63857    (48.7852,  88.4494)   
-45.12217 -27.61063 -78.02510 -68.03205 -62.43768 -131.01516    (49.9666,  91.2601)   
-47.94700 -26.56521 -78.95396 -67.77507 -60.30908 -132.39174    (51.441,  94.3969)   
-50.77183 -25.51979 -79.88282 -67.51809 -58.18048 -133.76833    (53.1841,  97.8285)   
-53.59666 -24.47436 -80.81168 -67.26111 -56.05188 -135.14491    (55.1704,  101.525)   
-56.42148 -23.42894 -81.74053 -67.00413 -53.92327 -136.52150    (57.3747,  105.458)   
-59.24631 -22.38352 -82.66939 -66.74715 -51.79467 -137.89808    (59.7728,  109.603)   
-62.07114 -21.33809 -83.59825 -66.49017 -49.66607 -139.27467    (62.3424,  113.936)   
-64.89597 -20.29267 -84.52711 -66.23319 -47.53747 -140.65125    (65.0632,  118.438)   
-67.72080 -19.24725 -85.45596 -65.97621 -45.40887 -142.02784    (67.917,  123.088)   
-70.54562 -18.20182 -86.38482 -65.71923 -43.28026 -143.40442    (70.8878,  127.871)   
-73.37045 -17.15640 -87.31368 -65.46225 -41.15166 -144.78101    (73.9614,  132.773)   
-76.19528 -16.11098 -88.24254 -65.20527 -39.02306 -146.15759    (76.7721,  137.386)   
-79.02011 -15.06555 -89.17140 -64.94829 -36.89446 -147.53418    (79.5432,  141.957)   
-81.84494 -14.02013 -90.10025 -64.69131 -34.76586 -148.91076    (82.4204,  146.648)   
-32.63725 -64.43433 -91.02911 -12.97471 -84.66976 -150.28735    (85.3932,  151.449)   
-30.50865 -64.17735 -91.95797 -11.92928 -87.49459 -151.66393    (87.2924,  155.041)   
-28.38005 -63.92037 -92.88683 -10.88386 -90.31942 -153.04052    (89.1001,  158.531)   
-26.25145 -63.66339 -93.81568  -9.83844 -93.14425 -154.41710    (91.0525,  162.184)   
-24.12285 -63.40641 -94.74454  -8.79301 -95.96908 -155.79369    (93.1404,  165.99)   
-21.99424 -63.14943 -95.67340  -7.74759 -98.79390 -157.17027    (95.3549,  169.937)   
-19.86564 -62.89245 -96.60226  -6.70217 -101.61873 -158.54686    (97.6875,  174.017)   
-17.73704 -62.63548 -97.53112  -5.65674 -104.44356 -159.92344    (100.13,  178.221)   
-15.60844 -62.37850 -98.45997  -4.61132 -107.26839 -161.30003    (102.674,  182.539)   
-13.47983 -62.12152 -99.38883  -3.56590 -110.09322 -162.67661    (105.313,  186.964)   
-11.35123 -61.86454 -100.31769  -2.52047 -112.91804 -164.05320    (107.927,  191.362)   
 -9.22263 -61.60756 -101.24655  -1.47505 -115.74287 -165.42978    (110.603,  195.83)   
 -7.09403 -61.35058 -102.17540  -0.42963 -118.56770 -166.80637    (113.361,  200.392)   
 -5.58122 -102.48847 -60.47780  -0.61580 -120.77673 -167.56715    (115.1,  203.409)   
 -4.49804 -102.37190 -59.17540  -1.66122 -122.55613 -167.89831    (116.115,  205.35)   
 -3.41487 -102.25533 -57.87299  -2.70664 -124.33554 -168.22948    (115.33,  205.289)   
 -2.33169 -102.13877 -56.57059  -3.75207 -126.11494 -168.56064    (114.604,  204.833)   
 -1.24851 -102.02220 -55.26819  -4.79749 -127.89435 -168.89180    (113.936,  204.451)   
 -0.16533 -101.90564 -53.96579  -5.84291 -129.67375 -169.22296    (113.329,  204.143)   
 -7.80619 -130.53531 -51.74553  -0.91785 -168.63627 -100.87122    (110.984,  201.281)   
 -9.93479 -131.23153 -49.35995  -2.00103 -167.88426 -99.67148    (108.373,  198.031)   
-12.06339 -131.92776 -46.97437  -3.08421 -167.13224 -98.47173    (105.83,  194.871)   
-14.19199 -132.62399 -44.58879  -4.16738 -166.38022 -97.27199    (103.358,  191.806)   
-16.32059 -133.32021 -42.20321  -5.25056 -165.62820 -96.07225    (100.963,  188.839)   
-18.44920 -134.01644 -39.81763  -6.33374 -164.87619 -94.87250    (98.6508,  185.977)   
-20.57780 -134.71266 -37.43204  -7.41692 -164.12417 -93.67276    (96.4272,  183.224)   
-22.70640 -135.40889 -35.04646  -8.50010 -163.37215 -92.47301    (94.2985,  180.585)   
-24.83500 -136.10512 -32.66088  -9.58328 -162.62014 -91.27327    (92.2712,  178.064)   
-26.96360 -136.80134 -30.27530 -10.66646 -161.86812 -90.07353    (90.3522,  175.668)   
-29.09221 -137.49757 -27.88972 -11.74964 -161.11610 -88.87378    (88.5484,  173.401)   
-31.22081 -138.19379 -25.50414 -12.83281 -160.36408 -87.67404    (86.8672,  171.268)   
-33.34941 -138.89002 -23.11855 -13.91599 -159.61207 -86.47429    (85.3156,  169.274)   
-158.86005 -14.99917 -20.73297 -139.58625 -35.47801 -85.27455    (83.901,  167.425)   
-158.10803 -16.08235 -18.34739 -140.28247 -37.60661 -84.07480    (82.6303,  165.725)   
-157.35601 -17.16553 -15.96181 -140.97870 -39.73522 -82.87506    (81.5102,  164.179)   
-156.60400 -18.24871 -13.57623 -141.67492 -41.86382 -81.67532    (80.5471,  162.792)   
-155.85198 -19.33189 -11.19065 -142.37115 -43.99242 -80.47557    (79.7467,  161.566)   
-155.09996 -20.41506  -8.80506 -143.06737 -46.12102 -79.27583    (79.1139,  160.507)   
-154.34795 -21.49824  -6.41948 -143.76360 -48.24962 -78.07608    (78.6527,  159.617)   
-153.59593 -22.58142  -4.03390 -144.45983 -50.37823 -76.87634    (78.3661,  158.899)   
-152.84391 -23.66460  -1.64832 -145.15605 -52.50683 -75.67659    (78.2561,  158.356)   
 -0.73726 -53.89817 -24.01052 -75.21411 -145.11502 -151.35463    (77.3662,  156.665)   
 -3.12284 -53.64119 -22.70811 -76.39995 -143.42566 -148.21703    (74.5092,  152.202)   
 -5.50843 -53.38421 -21.40571 -77.58579 -141.73630 -145.07943    (71.839,  147.937)   
 -7.89401 -53.12723 -20.10331 -78.77162 -140.04695 -141.94184    (69.377,  143.871)   
-10.27959 -52.87025 -18.80090 -79.95746 -138.35759 -138.80424    (67.1462,  140.035)   
-12.66517 -52.61327 -17.49850 -81.14330 -136.66824 -135.66664    (65.1704,  136.451)   
-15.05075 -52.35629 -16.19610 -82.32914 -134.97888 -132.52904    (63.4733,  133.147)   
-17.43633 -52.09931 -14.89370 -83.51497 -133.28953 -129.39144    (62.0778,  130.166)   
-19.82192 -51.84233 -13.59129 -84.70081 -131.60017 -126.25384    (61.0046,  126.829)   
-22.20750 -51.58535 -12.28889 -85.88665 -129.91081 -123.11624    (60.271,  120.393)   
-24.59308 -51.32837 -10.98649 -87.07249 -128.22146 -119.97864    (56.0504,  112.783)   
-26.97866 -51.07139  -9.68408 -88.25832 -126.53210 -116.84104    (51.7444,  105.205)   
-29.36424 -50.81441  -8.38168 -89.44416 -124.84275 -113.70345    (47.5019,  95.1911)   
-31.74982 -50.55743  -7.07928 -90.63000 -123.15339 -110.56585    (43.3416,  86.9895)   
-34.13541 -50.30045  -5.77688 -91.81584 -121.46403 -107.42825    (39.2896,  81.855)   
-36.52099 -50.04347  -4.47447 -93.00167 -119.77468 -104.29065    (35.3831,  75.4018)   
-38.90657 -49.78649  -3.17207 -94.18751 -118.08532 -101.15305    (31.6761,  68.0494)   
-41.29215 -49.52951  -1.86967 -95.37335 -116.39597 -98.01545    (28.2472,  60.8307)   
-43.67773 -49.27254  -0.56726 -96.55919 -114.70661 -94.87785    (25.21,  53.9876)   
-45.32817 -97.00988  -0.73514 -48.28042 -112.28212 -92.47539    (22.3197,  47.084)   
-46.41135 -96.89332  -2.03754 -46.72103 -109.29036 -90.64020    (19.5902,  40.1892)   
-47.49453 -96.77675  -3.33995 -45.16165 -106.29860 -88.80500    (16.7968,  33.2677)   
-48.57771 -96.66019  -4.64235 -43.60227 -103.30684 -86.96981    (12.5976,  24.9508)   
-100.31508 -42.04289  -5.94475 -96.54362 -49.66089 -85.13461    (8.39842,  16.6339)   
-97.32332 -40.48350  -7.24715 -96.42706 -50.74407 -83.29941    (4.19921,  8.31693)   
-94.33156 -38.92412  -8.54956 -96.31049 -51.82725 -81.46422    (0,  0)   
-->
</g>
</g>
<!-- Run Constants
CIRCLEPLOT bool false
DISTANCEPLOT bool true
PRINTDISTANCEDATA bool true
GLITCHESONLY bool false
PLOT 2doubles 3 4
PERTURBBY double 0.05
GLITCHLEVEL double 3
BOUNDARYWINDOW double 0.065
FRAMESPERPATH int 200
STEPSPERFRAME int 100
TRIALS int 1
ALLBLACK bool false
FILEPREFIX string Fol
GRAPHSIZE int 0
BORDER int 0
PLOTSIZE int 0
CIRCLEPLOTSIZE int 2000
CIRCLERADIUS int 300
CIRCLESTROKEWIDTH int 30
G6LINEWIDTH int 3
DELONELINEWIDTH int 10
AXISWIDTH int 6
TICLENGTH int 20
VECTOR g6 
PERTURB g6Perturb 
MOVIEMODE MovieMode STAR
FOLLOWERMODE FollowerMode Follow
FIXRANDOMSEED fixRandomSeed true
RANDOMSEED int 18
TIMESTAMP bool true
END end 




-->
</svg>
