<?xml version="1.0" standalone="no"?>
<!-- the width and height set the total pixel output of the image in the browser -->
<!-- whatever is within the viewbox will be remapped to show in this size -->
<svg width="1000" height="1000" viewBox="1 0 1000 1000"  version="1.1" xmlns="http://www.w3.org/2000/svg" xmlns:xlink="http://www.w3.org/1999/xlink">
 <desc>ID (and file name) = Fol_2018-02-06.15_53_41.70_0.svg </desc> 
 <text x="280"  y="30"  font-family="sans-serif" font-size="20" > Trial vector = 0  </text> 
 <text x="700" y="30" font-family="sans-serif" font-size="20">Wall time passed: 33032 msec.</text>
<text x="450" y="30" font-family="sans-serif" font-size="20" fill="black" > Plotting g5 vs. g4</text>
<text x="300" y="60"  font-family="sans-serif" font-size="20" > Beginning vector  -138.53943   1.43013 -80.16247 -54.32432  49.00158 -118.51542 </text>
<text x="300" y="85"  font-family="sans-serif" font-size="20" > Beginning cell   11.53502  13.02691  15.98827   2.29851   1.56304   2.13350 </text>
<text x="300" y="110"  font-family="sans-serif" font-size="20" > Ending vector   52.89420   5.32274  54.32432 -183.48524 -240.27519 -200.64899 </text>
<text x="300" y="135"  font-family="sans-serif" font-size="20" > Ending cell   11.12826  11.53502  11.93449   1.17643   1.53071   1.13382 </text>

<text x="300" y="160"  font-family="sans-serif" font-size="20" > Glitch  -130.80474   1.58740 -74.72866 -59.54295  37.31363 -121.83395  (29.0291 )</text>
<text x="300" y="185"  font-family="sans-serif" font-size="20" > Glitch  -132.73841   1.54808 -76.08711 -58.23829  40.23562 -121.00432  (21.7718)</text>



 <!--DISTANCE PLOT BEGINS-->


<!-- the following will scale and place the distance plot -->
<g  transform="translate(0,50) ">
<g transform="translate(150,700) scale(1 -1)">
   <polyline fill="none" stroke="black" stroke-width="10" points=" 5.2 ,0  10.4 ,21.124  15.6 ,42.2481  20.8 ,63.3721  26 ,84.4962  31.2 ,105.62  36.4 ,116.93  41.6 ,121.911  46.8 ,128.535  52 ,137.058  57.2 ,148.125  62.4 ,161.214  67.6 ,175.872  72.8 ,191.741  78 ,208.544  83.2 ,226.073  88.4 ,244.172  93.6 ,250.76  98.8 ,256.826  104 ,262.144  109.2 ,262.448  114.4 ,263.201  119.6 ,264.399  124.8 ,266.037  130 ,268.106  135.2 ,270.597  140.4 ,273.498  145.6 ,276.797  150.8 ,280.478  156 ,284.528  161.2 ,288.931  166.4 ,293.67  171.6 ,298.731  176.8 ,304.096  182 ,309.751  187.2 ,315.679  192.4 ,321.865  197.6 ,328.295  202.8 ,334.955  208 ,341.831  213.2 ,348.911  218.4 ,356.182  223.6 ,363.633  228.8 ,371.254  234 ,379.033  239.2 ,386.007  244.4 ,391.898  249.6 ,397.998  254.8 ,404.299  260 ,410.791  265.2 ,417.466  270.4 ,424.315  275.6 ,431.329  280.8 ,438.5  286 ,445.822  291.2 ,453.286  296.4 ,460.886  301.6 ,465.346  306.8 ,468.298  312 ,470.536  317.2 ,471.91  322.4 ,470.088  327.6 ,468.383  332.8 ,466.794  338 ,465.323  343.2 ,463.023  348.4 ,460.683  353.6 ,458.457  358.8 ,455.671  364 ,450.865  369.2 ,446.144  374.4 ,441.511  379.6 ,435.471  384.8 ,426.817  390 ,417.544  395.2 ,402.569  400.4 ,387.853  405.6 ,371.34  410.8 ,355.278  416 ,339.276  421.2 ,323.184  426.4 ,307.307  431.6 ,291.678  436.8 ,276.34  442 ,261.345  447.2 ,246.754  452.4 ,232.645  457.6 ,216.218  462.8 ,198.199  468 ,180.181  473.2 ,162.163  478.4 ,144.145  483.6 ,126.127  488.8 ,108.109  494 ,90.0907  499.2 ,72.0725  504.4 ,54.0544  509.6 ,36.0363  514.8 ,18.0181  520 ,1.32243e-05  " />

<!--Draw the X and Y axes -->
<polyline fill="none" stroke="black" stroke-width="6"  points=" 600,0 0,0 0,520" />
<!-- -->

<line fill="none" stroke-width="3" boundary-string=""  stroke="lightblue" x1="0" y1="1.01561e-13" x2="5.2" y2="1.01561e-13" />
<line fill="none" stroke-width="3" boundary-string=""  stroke="lightblue" x1="5.2" y1="1.01561e-13" x2="10.4" y2="12.5793" />
<line fill="none" stroke-width="3" boundary-string=""  stroke="lightblue" x1="10.4" y1="12.5793" x2="15.6" y2="25.1585" />
<line fill="none" stroke-width="3" boundary-string=""  stroke="lightblue" x1="15.6" y1="25.1585" x2="20.8" y2="37.7378" />
<line fill="none" stroke-width="3" boundary-string=""  stroke="lightblue" x1="20.8" y1="37.7378" x2="26" y2="50.317" />
<line fill="none" stroke-width="3" boundary-string=""  stroke="lightblue" x1="26" y1="50.317" x2="31.2" y2="62.8963" />
<line fill="none" stroke-width="3" boundary-string=""  stroke="lightblue" x1="31.2" y1="62.8963" x2="36.4" y2="67.0882" />
<line fill="none" stroke-width="3" boundary-string=""  stroke="lightblue" x1="36.4" y1="67.0882" x2="41.6" y2="65.2094" />
<line fill="none" stroke-width="3" boundary-string=""  stroke="lightblue" x1="41.6" y1="65.2094" x2="46.8" y2="64.0982" />
<line fill="none" stroke-width="3" boundary-string=""  stroke="lightblue" x1="46.8" y1="64.0982" x2="52" y2="64.3242" />
<line fill="none" stroke-width="3" boundary-string=""  stroke="lightblue" x1="52" y1="64.3242" x2="57.2" y2="66.9559" />
<line fill="none" stroke-width="3" boundary-string=""  stroke="lightblue" x1="57.2" y1="66.9559" x2="62.4" y2="71.7292" />
<line fill="none" stroke-width="3" boundary-string=""  stroke="lightblue" x1="62.4" y1="71.7292" x2="67.6" y2="78.2529" />
<line fill="none" stroke-width="3" boundary-string=""  stroke="lightblue" x1="67.6" y1="78.2529" x2="72.8" y2="86.1304" />
<line fill="none" stroke-width="3" boundary-string=""  stroke="lightblue" x1="72.8" y1="86.1304" x2="78" y2="95.0255" />
<line fill="none" stroke-width="3" boundary-string=""  stroke="lightblue" x1="78" y1="95.0255" x2="83.2" y2="104.679" />
<line fill="none" stroke-width="3" boundary-string=""  stroke="lightblue" x1="83.2" y1="104.679" x2="88.4" y2="114.9" />
<line fill="none" stroke-width="3" boundary-string=""  stroke="lightblue" x1="88.4" y1="114.9" x2="93.6" y2="115.621" />
<line fill="none" stroke-width="3" boundary-string=""  stroke="lightblue" x1="93.6" y1="115.621" x2="98.8" y2="116.094" />
<line fill="none" stroke-width="3" boundary-string=""  stroke="lightblue" x1="98.8" y1="116.094" x2="104" y2="116.999" />
<line fill="none" stroke-width="3" boundary-string=""  stroke="lightblue" x1="104" y1="116.999" x2="109.2" y2="118.325" />
<line fill="none" stroke-width="3" boundary-string=""  stroke="lightblue" x1="109.2" y1="118.325" x2="114.4" y2="118.136" />
<line fill="none" stroke-width="3" boundary-string=""  stroke="lightblue" x1="114.4" y1="118.136" x2="119.6" y2="115.859" />
<line fill="none" stroke-width="3" boundary-string=""  stroke="lightblue" x1="119.6" y1="115.859" x2="124.8" y2="113.982" />
<line fill="none" stroke-width="3" boundary-string=""  stroke="lightblue" x1="124.8" y1="113.982" x2="130" y2="112.523" />
<line fill="none" stroke-width="3" boundary-string=""  stroke="lightblue" x1="130" y1="112.523" x2="135.2" y2="111.501" />
<line fill="none" stroke-width="3" boundary-string=""  stroke="lightblue" x1="135.2" y1="111.501" x2="140.4" y2="110.926" />
<line fill="none" stroke-width="3" boundary-string=""  stroke="lightblue" x1="140.4" y1="110.926" x2="145.6" y2="110.806" />
<line fill="none" stroke-width="3" boundary-string=""  stroke="lightblue" x1="145.6" y1="110.806" x2="150.8" y2="111.142" />
<line fill="none" stroke-width="3" boundary-string=""  stroke="lightblue" x1="150.8" y1="111.142" x2="156" y2="111.93" />
<line fill="none" stroke-width="3" boundary-string=""  stroke="lightblue" x1="156" y1="111.93" x2="161.2" y2="113.16" />
<line fill="none" stroke-width="3" boundary-string=""  stroke="lightblue" x1="161.2" y1="113.16" x2="166.4" y2="114.819" />
<line fill="none" stroke-width="3" boundary-string=""  stroke="lightblue" x1="166.4" y1="114.819" x2="171.6" y2="116.888" />
<line fill="none" stroke-width="3" boundary-string=""  stroke="lightblue" x1="171.6" y1="116.888" x2="176.8" y2="119.346" />
<line fill="none" stroke-width="3" boundary-string=""  stroke="lightblue" x1="176.8" y1="119.346" x2="182" y2="122.169" />
<line fill="none" stroke-width="3" boundary-string=""  stroke="lightblue" x1="182" y1="122.169" x2="187.2" y2="125.332" />
<line fill="none" stroke-width="3" boundary-string=""  stroke="lightblue" x1="187.2" y1="125.332" x2="192.4" y2="128.811" />
<line fill="none" stroke-width="3" boundary-string=""  stroke="lightblue" x1="192.4" y1="128.811" x2="197.6" y2="132.581" />
<line fill="none" stroke-width="3" boundary-string=""  stroke="lightblue" x1="197.6" y1="132.581" x2="202.8" y2="136.618" />
<line fill="none" stroke-width="3" boundary-string=""  stroke="lightblue" x1="202.8" y1="136.618" x2="208" y2="140.898" />
<line fill="none" stroke-width="3" boundary-string=""  stroke="lightblue" x1="208" y1="140.898" x2="213.2" y2="145.4" />
<line fill="none" stroke-width="3" boundary-string=""  stroke="lightblue" x1="213.2" y1="145.4" x2="218.4" y2="150.105" />
<line fill="none" stroke-width="3" boundary-string=""  stroke="lightblue" x1="218.4" y1="150.105" x2="223.6" y2="154.994" />
<line fill="none" stroke-width="3" boundary-string=""  stroke="lightblue" x1="223.6" y1="154.994" x2="228.8" y2="160.049" />
<line fill="none" stroke-width="3" boundary-string=""  stroke="lightblue" x1="228.8" y1="160.049" x2="234" y2="165.256" />
<line fill="none" stroke-width="3" boundary-string=""  stroke="lightblue" x1="234" y1="165.256" x2="239.2" y2="169.517" />
<line fill="none" stroke-width="3" boundary-string=""  stroke="lightblue" x1="239.2" y1="169.517" x2="244.4" y2="172.536" />
<line fill="none" stroke-width="3" boundary-string=""  stroke="lightblue" x1="244.4" y1="172.536" x2="249.6" y2="175.791" />
<line fill="none" stroke-width="3" boundary-string=""  stroke="lightblue" x1="249.6" y1="175.791" x2="254.8" y2="179.269" />
<line fill="none" stroke-width="3" boundary-string=""  stroke="lightblue" x1="254.8" y1="179.269" x2="260" y2="182.958" />
<line fill="none" stroke-width="3" boundary-string=""  stroke="lightblue" x1="260" y1="182.958" x2="265.2" y2="186.844" />
<line fill="none" stroke-width="3" boundary-string=""  stroke="lightblue" x1="265.2" y1="186.844" x2="270.4" y2="190.917" />
<line fill="none" stroke-width="3" boundary-string=""  stroke="lightblue" x1="270.4" y1="190.917" x2="275.6" y2="195.165" />
<line fill="none" stroke-width="3" boundary-string=""  stroke="lightblue" x1="275.6" y1="195.165" x2="280.8" y2="199.575" />
<line fill="none" stroke-width="3" boundary-string=""  stroke="lightblue" x1="280.8" y1="199.575" x2="286" y2="204.138" />
<line fill="none" stroke-width="3" boundary-string=""  stroke="lightblue" x1="286" y1="204.138" x2="291.2" y2="208.844" />
<line fill="none" stroke-width="3" boundary-string=""  stroke="lightblue" x1="291.2" y1="208.844" x2="296.4" y2="213.683" />
<line fill="none" stroke-width="3" boundary-string=""  stroke="lightblue" x1="296.4" y1="213.683" x2="301.6" y2="216.561" />
<line fill="none" stroke-width="3" boundary-string=""  stroke="lightblue" x1="301.6" y1="216.561" x2="306.8" y2="218.511" />
<line fill="none" stroke-width="3" boundary-string=""  stroke="lightblue" x1="306.8" y1="218.511" x2="312" y2="220.54" />
<line fill="none" stroke-width="3" boundary-string=""  stroke="lightblue" x1="312" y1="220.54" x2="317.2" y2="222.774" />
<line fill="none" stroke-width="3" boundary-string=""  stroke="lightblue" x1="317.2" y1="222.774" x2="322.4" y2="222.881" />
<line fill="none" stroke-width="3" boundary-string=""  stroke="lightblue" x1="322.4" y1="222.881" x2="327.6" y2="223.1" />
<line fill="none" stroke-width="3" boundary-string=""  stroke="lightblue" x1="327.6" y1="223.1" x2="332.8" y2="223.433" />
<line fill="none" stroke-width="3" boundary-string=""  stroke="lightblue" x1="332.8" y1="223.433" x2="338" y2="223.878" />
<line fill="none" stroke-width="3" boundary-string=""  stroke="lightblue" x1="338" y1="223.878" x2="343.2" y2="223.601" />
<line fill="none" stroke-width="3" boundary-string=""  stroke="lightblue" x1="343.2" y1="223.601" x2="348.4" y2="223.124" />
<line fill="none" stroke-width="3" boundary-string=""  stroke="lightblue" x1="348.4" y1="223.124" x2="353.6" y2="222.627" />
<line fill="none" stroke-width="3" boundary-string=""  stroke="lightblue" x1="353.6" y1="222.627" x2="358.8" y2="220.488" />
<line fill="none" stroke-width="3" boundary-string=""  stroke="lightblue" x1="358.8" y1="220.488" x2="364" y2="218.443" />
<line fill="none" stroke-width="3" boundary-string=""  stroke="lightblue" x1="364" y1="218.443" x2="369.2" y2="216.496" />
<line fill="none" stroke-width="3" boundary-string=""  stroke="lightblue" x1="369.2" y1="216.496" x2="374.4" y2="214.649" />
<line fill="none" stroke-width="3" boundary-string=""  stroke="lightblue" x1="374.4" y1="214.649" x2="379.6" y2="212.275" />
<line fill="none" stroke-width="3" boundary-string=""  stroke="lightblue" x1="379.6" y1="212.275" x2="384.8" y2="208.867" />
<line fill="none" stroke-width="3" boundary-string=""  stroke="lightblue" x1="384.8" y1="208.867" x2="390" y2="205.089" />
<line fill="none" stroke-width="3" boundary-string=""  stroke="lightblue" x1="390" y1="205.089" x2="395.2" y2="197.56" />
<line fill="none" stroke-width="3" boundary-string=""  stroke="lightblue" x1="395.2" y1="197.56" x2="400.4" y2="190.207" />
<line fill="none" stroke-width="3" boundary-string=""  stroke="lightblue" x1="400.4" y1="190.207" x2="405.6" y2="183.052" />
<line fill="none" stroke-width="3" boundary-string=""  stroke="lightblue" x1="405.6" y1="183.052" x2="410.8" y2="176.119" />
<line fill="none" stroke-width="3" boundary-string=""  stroke="lightblue" x1="410.8" y1="176.119" x2="416" y2="169.435" />
<line fill="none" stroke-width="3" boundary-string=""  stroke="lightblue" x1="416" y1="169.435" x2="421.2" y2="161.852" />
<line fill="none" stroke-width="3" boundary-string=""  stroke="lightblue" x1="421.2" y1="161.852" x2="426.4" y2="154.462" />
<line fill="none" stroke-width="3" boundary-string=""  stroke="lightblue" x1="426.4" y1="154.462" x2="431.6" y2="147.313" />
<line fill="none" stroke-width="3" boundary-string=""  stroke="lightblue" x1="431.6" y1="147.313" x2="436.8" y2="140.444" />
<line fill="none" stroke-width="3" boundary-string=""  stroke="lightblue" x1="436.8" y1="140.444" x2="442" y2="133.896" />
<line fill="none" stroke-width="3" boundary-string=""  stroke="lightblue" x1="442" y1="133.896" x2="447.2" y2="127.72" />
<line fill="none" stroke-width="3" boundary-string=""  stroke="lightblue" x1="447.2" y1="127.72" x2="452.4" y2="121.971" />
<line fill="none" stroke-width="3" boundary-string=""  stroke="lightblue" x1="452.4" y1="121.971" x2="457.6" y2="113.985" />
<line fill="none" stroke-width="3" boundary-string=""  stroke="lightblue" x1="457.6" y1="113.985" x2="462.8" y2="104.487" />
<line fill="none" stroke-width="3" boundary-string=""  stroke="lightblue" x1="462.8" y1="104.487" x2="468" y2="94.9878" />
<line fill="none" stroke-width="3" boundary-string=""  stroke="lightblue" x1="468" y1="94.9878" x2="473.2" y2="85.4891" />
<line fill="none" stroke-width="3" boundary-string=""  stroke="lightblue" x1="473.2" y1="85.4891" x2="478.4" y2="75.9903" />
<line fill="none" stroke-width="3" boundary-string=""  stroke="lightblue" x1="478.4" y1="75.9903" x2="483.6" y2="66.4915" />
<line fill="none" stroke-width="3" boundary-string=""  stroke="lightblue" x1="483.6" y1="66.4915" x2="488.8" y2="56.9927" />
<line fill="none" stroke-width="3" boundary-string=""  stroke="lightblue" x1="488.8" y1="56.9927" x2="494" y2="47.4939" />
<line fill="none" stroke-width="3" boundary-string=""  stroke="lightblue" x1="494" y1="47.4939" x2="499.2" y2="37.9951" />
<line fill="none" stroke-width="3" boundary-string=""  stroke="lightblue" x1="499.2" y1="37.9951" x2="504.4" y2="28.4964" />
<line fill="none" stroke-width="3" boundary-string=""  stroke="lightblue" x1="504.4" y1="28.4964" x2="509.6" y2="18.9976" />
<line fill="none" stroke-width="3" boundary-string=""  stroke="lightblue" x1="509.6" y1="18.9976" x2="514.8" y2="9.49878" />
<line fill="none" stroke-width="3" boundary-string=""  stroke="lightblue" x1="514.8" y1="9.49878" x2="520" y2="0" />

<!--Draw the X and Y axes -->
<polyline fill="none" stroke="black" stroke-width="6"  points=" 600,0 0,0 0,520" />
<!-- -->


<!--Draw labels and tics for X axis -->

<line fill="none" stroke="black"  stroke-width="6"  x1="0.5" y1="0" x2="0.5" y2="-20" />
<text transform="scale(1,-1)" font-family="sans-serif" font-size="30" x="-24.5" y="45" >0 </text>
<line fill="none" stroke="black"  stroke-width="6"  x1="104.5" y1="0" x2="104.5" y2="-20" />
<text transform="scale(1,-1)" font-family="sans-serif" font-size="30" x="79.5" y="45" >20 </text>
<line fill="none" stroke="black"  stroke-width="6"  x1="208.5" y1="0" x2="208.5" y2="-20" />
<text transform="scale(1,-1)" font-family="sans-serif" font-size="30" x="183.5" y="45" >40 </text>
<line fill="none" stroke="black"  stroke-width="6"  x1="312.5" y1="0" x2="312.5" y2="-20" />
<text transform="scale(1,-1)" font-family="sans-serif" font-size="30" x="287.5" y="45" >60 </text>
<line fill="none" stroke="black"  stroke-width="6"  x1="416.5" y1="0" x2="416.5" y2="-20" />
<text transform="scale(1,-1)" font-family="sans-serif" font-size="30" x="391.5" y="45" >80 </text>
<line fill="none" stroke="black"  stroke-width="6"  x1="520.5" y1="0" x2="520.5" y2="-20" />
<text transform="scale(1,-1)" font-family="sans-serif" font-size="30" x="495.5" y="45" >100 </text>


<!--Draw labels and tics for Y axis -->

<line fill="none" stroke="black" stroke-width="6" x1="0.0" y1="0" x2="-20" y2="0" />
<text transform="scale(1,-1)" text-anchor="end" font-family="sans-serif" font-size="30" x="-25" y="10" >0 </text>
<line fill="none" stroke="black" stroke-width="6" x1="0.0" y1="86.6667" x2="-20" y2="86.6667" />
<text transform="scale(1,-1)" text-anchor="end" font-family="sans-serif" font-size="30" x="-25" y="-76.6667" >50 </text>
<line fill="none" stroke="black" stroke-width="6" x1="0.0" y1="173.333" x2="-20" y2="173.333" />
<text transform="scale(1,-1)" text-anchor="end" font-family="sans-serif" font-size="30" x="-25" y="-163.333" >100 </text>
<line fill="none" stroke="black" stroke-width="6" x1="0.0" y1="260" x2="-20" y2="260" />
<text transform="scale(1,-1)" text-anchor="end" font-family="sans-serif" font-size="30" x="-25" y="-250" >150 </text>
<line fill="none" stroke="black" stroke-width="6" x1="0.0" y1="346.667" x2="-20" y2="346.667" />
<text transform="scale(1,-1)" text-anchor="end" font-family="sans-serif" font-size="30" x="-25" y="-336.667" >200 </text>
<line fill="none" stroke="black" stroke-width="6" x1="0.0" y1="433.333" x2="-20" y2="433.333" />
<text transform="scale(1,-1)" text-anchor="end" font-family="sans-serif" font-size="30" x="-25" y="-423.333" >250 </text>
<line fill="none" stroke="black" stroke-width="6" x1="0.0" y1="520" x2="-20" y2="520" />
<text transform="scale(1,-1)" text-anchor="end" font-family="sans-serif" font-size="30" x="-25" y="-510" >300 </text>


<!--Draw Glitches -->

<line fill="none" stroke="black" stroke-width="2" x1="20.8" y1="50.317" x2="20.8" y2="0.317049" />
<text transform="scale(1,-1)" font-family="sans-serif" font-size="30" x="25.8" y="9.68295" >4 </text>
<line fill="none" stroke="black" stroke-width="2" x1="52" y1="66.9559" x2="52" y2="16.9559" />
<text transform="scale(1,-1)" font-family="sans-serif" font-size="30" x="57" y="-6.95594" >10 </text>
<line fill="none" stroke="black" stroke-width="2" x1="390" y1="197.56" x2="390" y2="147.56" />
<text transform="scale(1,-1)" font-family="sans-serif" font-size="30" x="395" y="-137.56" >75 </text>

<!-- -->


<!-- Reduced vector followed by D7dist from the final reduced cell
-47.57145 -69.51385  -5.32274 -49.00158 -89.53785 -31.16089    (5.85929e-14,  0)   
-44.61014 -73.26547  -9.54939 -46.07959 -90.52616 -32.72443    (7.25727,  12.1869)   
-41.64884 -77.01709 -13.77603 -43.15760 -91.51448 -34.28796    (14.5145,  24.3739)   
-38.68753 -80.76870 -18.00267 -40.23562 -92.50279 -35.85150    (21.7718,  36.5608)   
-35.72622 -84.52032 -22.22932 -37.31363 -93.49111 -37.41503    (29.0291,  48.7478)   
-32.76492 -88.27194 -26.45596 -34.39164 -94.47942 -38.97857    (36.2863,  60.9347)   
-29.80361 -92.02356 -30.68260 -31.46965 -95.46774 -40.54210    (38.7047,  67.4596)   
-95.77518 -26.84230 -34.90925 -96.45605 -28.54767 -42.10564    (37.6208,  70.3332)   
-25.62568 -97.44437 -39.13589 -23.88100 -99.52680 -43.66917    (36.9797,  74.1545)   
-22.70369 -43.36253 -98.43268 -20.91969 -45.23271 -103.27842    (37.1101,  79.0719)   
-46.79624 -17.95838 -99.42100 -47.58918 -19.78170 -107.03004    (38.6284,  85.457)   
-14.99708 -48.35978 -100.40931 -16.85972 -51.81582 -110.78166    (41.3822,  93.0078)   
-12.03577 -49.92331 -101.39762 -13.93773 -56.04246 -114.53328    (45.1459,  101.465)   
 -9.07446 -51.48685 -102.38594 -11.01574 -60.26911 -118.28490    (49.6906,  110.62)   
 -6.11316 -53.05038 -103.37425  -8.09375 -64.49575 -122.03652    (54.8224,  120.314)   
 -3.15185 -54.61392 -104.36257  -5.17177 -68.72239 -125.78814    (60.3918,  130.427)   
 -0.19054 -56.17745 -105.35088  -2.24978 -72.94904 -129.53976    (66.2886,  140.869)   
 -2.77077 -54.97022 -74.40491  -2.09856 -103.56843 -130.52061    (66.7046,  144.669)   
 -5.73207 -53.57245 -75.67025  -2.13788 -101.59544 -131.31092    (66.9776,  148.169)   
 -8.69338 -52.17468 -76.93559  -2.17719 -99.62245 -132.10124    (67.4994,  151.237)   
-11.65469 -50.77691 -78.20092  -2.21651 -97.64945 -132.89155    (68.2645,  151.412)   
-14.61599 -49.37914 -79.46626  -2.25583 -95.67646 -133.68186    (68.1551,  151.846)   
-17.57730 -47.98136 -80.73160  -2.29515 -93.70347 -134.47218    (66.8417,  152.538)   
-20.53861 -46.58359 -81.99693  -2.33447 -91.73048 -135.26249    (65.7586,  153.483)   
-23.49991 -45.18582 -83.26227  -2.37379 -89.75749 -136.05280    (64.9174,  154.677)   
-26.46122 -43.78805 -84.52760  -2.41311 -87.78449 -136.84311    (64.3275,  156.114)   
-29.42253 -42.39028 -85.79294  -2.45243 -85.81150 -137.63343    (63.9958,  157.788)   
-32.38383 -40.99251 -87.05828  -2.49175 -83.83851 -138.42374    (63.9265,  159.69)   
-35.34514 -39.59473 -88.32361  -2.53107 -81.86552 -139.21405    (64.1202,  161.814)   
-38.30645 -38.19696 -89.58895  -2.57039 -79.89252 -140.00436    (64.5748,  164.151)   
-41.26776 -36.79919 -90.85429  -2.60971 -77.91953 -140.79468    (65.2847,  166.691)   
-75.94654  -2.64903 -92.11962 -35.40142 -44.22906 -141.58499    (66.2417,  169.425)   
-73.97355  -2.68835 -93.38496 -34.00365 -47.19037 -142.37530    (67.4353,  172.345)   
-72.00055  -2.72767 -94.65030 -32.60587 -50.15168 -143.16561    (68.8532,  175.44)   
-70.02756 -95.91563  -2.76699 -31.20810 -143.95593 -53.11298    (70.4819,  178.702)   
-68.05457 -97.18097  -2.80630 -29.81033 -144.74624 -56.07429    (72.307,  182.122)   
-66.08158 -98.44630  -2.84562 -28.41256 -145.53655 -59.03560    (74.3143,  185.691)   
-64.10858 -99.71164  -2.88494 -27.01479 -146.32686 -61.99690    (76.4892,  189.401)   
-62.13559 -100.97698  -2.92426 -25.61702 -147.11718 -64.95821    (78.818,  193.243)   
-60.16260 -102.24231  -2.96358 -24.21924 -147.90749 -67.91952    (81.2873,  197.21)   
-58.18961 -103.50765  -3.00290 -22.82147 -148.69780 -70.88082    (83.8849,  201.295)   
-56.21662 -104.77299  -3.04222 -21.42370 -149.48811 -73.84213    (86.5991,  205.49)   
-54.24362 -106.03832  -3.08154 -20.02593 -150.27843 -76.80344    (89.4194,  209.788)   
-52.27063 -107.30366  -3.12086 -18.62816 -151.06874 -79.76475    (92.336,  214.185)   
-50.29764 -108.56899  -3.16018 -17.23038 -151.85905 -82.72605    (95.34,  218.673)   
-48.32465 -109.83433  -3.19950 -15.83261 -152.64936 -85.68736    (97.7983,  222.697)   
-46.35165 -111.09967  -3.23882 -14.43484 -153.43968 -88.64867    (99.5398,  226.095)   
-44.37866 -112.36500  -3.27814 -13.03707 -154.22999 -91.60997    (101.418,  229.614)   
-42.40567 -113.63034  -3.31746 -11.63930 -155.02030 -94.57128    (103.424,  233.249)   
-40.43268 -114.89568  -3.35678 -10.24152 -155.81061 -97.53259    (105.552,  236.995)   
-38.45968 -116.16101  -3.39610  -8.84375 -156.60093 -100.49389    (107.795,  240.846)   
-36.48669 -117.42635  -3.43541  -7.44598 -157.39124 -103.45520    (110.145,  244.797)   
-34.51370 -118.69169  -3.47473  -6.04821 -158.18155 -106.41651    (112.595,  248.843)   
-32.54071 -119.95702  -3.51405  -4.65044 -158.97186 -109.37781    (115.139,  252.981)   
-30.56771 -121.22236  -3.55337  -3.25267 -159.76218 -112.33912    (117.772,  257.205)   
-28.59472 -122.48769  -3.59269  -1.85489 -160.55249 -115.30043    (120.487,  261.511)   
-26.62173 -123.75303  -3.63201  -0.45712 -161.34280 -118.26174    (123.279,  265.896)   
-120.28239  -0.94065  -2.73068 -124.07772 -25.58939 -161.19247    (124.939,  268.469)   
-121.84593  -2.33842  -1.37223 -123.94528 -25.01417 -160.58501    (126.064,  270.172)   
-123.40946  -3.73619  -0.01378 -123.81285 -24.43895 -159.97755    (127.234,  271.463)   
-22.51905  -3.78929  -1.34468 -122.33573 -123.62832 -160.71476    (128.524,  272.256)   
-20.58538  -3.82861  -2.70313 -120.84485 -123.83340 -161.46576    (128.585,  271.205)   
-18.65170  -3.86793  -4.06158 -119.35396 -124.03849 -162.21675    (128.712,  270.221)   
-16.71803  -3.90725  -5.42003 -117.86307 -124.24357 -162.96774    (128.904,  269.304)   
-14.78436  -3.94657  -6.77849 -116.37218 -124.44865 -163.71874    (129.16,  268.456)   
-12.85068  -3.98589  -8.13694 -114.88129 -124.65373 -164.46973    (129.001,  267.129)   
-10.91701  -4.02521  -9.49539 -113.39041 -124.85882 -165.22072    (128.726,  265.779)   
 -8.98334  -4.06452 -10.85384 -111.89952 -125.06390 -165.97172    (128.439,  264.495)   
 -7.04967  -4.10384 -12.21230 -110.40863 -125.26898 -166.72271    (127.204,  262.887)   
 -5.11599  -4.14316 -13.57075 -108.91774 -125.47406 -167.47370    (126.025,  260.115)   
 -3.18232  -4.18248 -14.92920 -107.42685 -125.67915 -168.22470    (124.902,  257.391)   
 -1.24865  -4.22180 -16.28765 -105.93597 -125.88423 -168.97569    (123.836,  254.718)   
 -3.57610 -125.40429  -0.68503 -16.96108 -169.04166 -105.13010    (122.466,  251.233)   
 -1.68174 -123.67570  -2.61870 -16.38586 -167.85898 -105.57289    (120.5,  246.24)   
 -0.21261 -105.80306  -4.33976 -16.02325 -166.46368 -121.73449    (118.321,  240.891)   
 -2.10697 -104.35149  -4.37908 -17.34238 -163.38665 -118.11155    (113.977,  232.251)   
 -4.00132 -102.89992  -4.41840 -18.66152 -160.30962 -114.48861    (109.735,  223.761)   
 -5.89567 -101.44836  -4.45772 -19.98065 -157.23258 -110.86566    (105.607,  214.235)   
 -7.79003 -99.99679  -4.49704 -21.29978 -154.15555 -107.24272    (101.607,  204.968)   
 -9.68438 -98.54522  -4.53636 -22.61892 -151.07852 -103.61977    (97.7509,  195.736)   
-11.57873 -97.09365  -4.57568 -23.93805 -148.00148 -99.99683    (93.3761,  186.452)   
-13.47309 -95.64208  -4.61500 -25.25718 -144.92445 -96.37389    (89.1125,  177.292)   
-15.36744 -94.19051  -4.65432 -26.57632 -141.84742 -92.75094    (84.9884,  168.276)   
-17.26179 -92.73894  -4.69363 -27.89545 -138.77038 -89.12800    (81.0252,  159.427)   
-19.15615 -91.28738  -4.73295 -29.21458 -135.69335 -85.50505    (77.2477,  150.776)   
-21.05050 -89.83581  -4.77227 -30.53371 -132.61632 -81.88211    (73.6844,  142.358)   
-22.94486 -88.38424  -4.81159 -31.85285 -129.53928 -78.25917    (70.3679,  134.218)   
-24.83921 -86.93267  -4.85091 -33.17198 -126.46225 -74.63622    (65.7608,  124.741)   
-26.73356 -85.48110  -4.89023 -34.49111 -123.38522 -71.01328    (60.2807,  114.346)   
-28.62792 -84.02953  -4.92955 -35.81025 -120.30818 -67.39033    (54.8007,  103.951)   
-30.52227 -82.57796  -4.96887 -37.12938 -117.23115 -63.76739    (49.3206,  93.5557)   
-32.41662 -81.12640  -5.00819 -38.44851 -114.15412 -60.14445    (43.8405,  83.1606)   
-34.31098 -79.67483  -5.04751 -39.76765 -111.07708 -56.52150    (38.3605,  72.7655)   
-36.20533 -78.22326  -5.08683 -41.08678 -108.00005 -52.89856    (32.8804,  62.3705)   
-38.09968 -76.77169  -5.12615 -42.40591 -104.92302 -49.27561    (27.4003,  51.9754)   
-39.99404 -75.32012  -5.16547 -43.72505 -101.84598 -45.65267    (21.9203,  41.5803)   
-41.88839 -73.86855  -5.20479 -45.04418 -98.76895 -42.02973    (16.4402,  31.1852)   
-43.78274 -72.41698  -5.24411 -46.36331 -95.69192 -38.40678    (10.9601,  20.7902)   
-45.67710 -70.96542  -5.28343 -47.68244 -92.61488 -34.78384    (5.48007,  10.3951)   
-47.57145 -69.51385  -5.32274 -49.00158 -89.53785 -31.16089    (0,  7.62939e-06)   
-->
</g>
</g>
<!-- Run Constants
CIRCLEPLOT bool false
DISTANCEPLOT bool true
PRINTDISTANCEDATA bool true
GLITCHESONLY bool false
PLOT 2doubles 3 4
PERTURBBY double 0.05
GLITCHLEVEL double 3
BOUNDARYWINDOW double 0.065
FRAMESPERPATH int 200
STEPSPERFRAME int 100
TRIALS int 1
ALLBLACK bool false
FILEPREFIX string Fol
GRAPHSIZE int 0
BORDER int 0
PLOTSIZE int 0
CIRCLEPLOTSIZE int 2000
CIRCLERADIUS int 300
CIRCLESTROKEWIDTH int 30
G6LINEWIDTH int 3
DELONELINEWIDTH int 10
AXISWIDTH int 6
TICLENGTH int 20
VECTOR g6 
PERTURB g6Perturb 
MOVIEMODE MovieMode STAR
FOLLOWERMODE FollowerMode Follow
FIXRANDOMSEED fixRandomSeed true
RANDOMSEED int 18
TIMESTAMP bool true
END end 




-->
</svg>
