<?xml version="1.0" standalone="no"?>
<!-- the width and height set the total pixel output of the image in the browser -->
<!-- whatever is within the viewbox will be remapped to show in this size -->
<svg width="1000" height="1000" viewBox="1 0 1000 1000"  version="1.1" xmlns="http://www.w3.org/2000/svg" xmlns:xlink="http://www.w3.org/1999/xlink">
 <desc>ID (and file name) = Fol_2018-02-13.10_31_34.46_0.svg </desc> 
 <text x="280"  y="30"  font-family="sans-serif" font-size="20" > Trial vector = 0  </text> 
 <text x="700" y="30" font-family="sans-serif" font-size="20">Wall time passed: 33543 msec.</text>
<text x="450" y="30" font-family="sans-serif" font-size="20" fill="black" > Plotting g5 vs. g4</text>
<text x="300" y="60"  font-family="sans-serif" font-size="20" > Beginning vector  7528.07422 1010.06369 1152.98525 -2340.86955 -17474.09613 -15037.51406 </text>
<text x="300" y="85"  font-family="sans-serif" font-size="20" > Beginning cell   13.33494  93.77119  80.61871   0.09152   0.34947   0.39740 </text>
<text x="300" y="110"  font-family="sans-serif" font-size="20" > Ending vector   12.93813  28.45509  34.89905 -191.59602 -225.65778 -422.39993 </text>
<text x="300" y="135"  font-family="sans-serif" font-size="20" > Ending cell   11.32439  13.33494  19.51939   1.52107   1.44171   1.33758 </text>

<text x="300" y="160"  font-family="sans-serif" font-size="20" > Glitch  316.57999  68.11604  80.07425 -278.43535 -922.56438 -1012.90959  (240.721 )</text>
<text x="300" y="185"  font-family="sans-serif" font-size="20" > Glitch  392.49045  78.03128  91.36805 -300.14519 -1096.79103 -1160.53701  (272.793)</text>



 <!--DISTANCE PLOT BEGINS-->


<!-- the following will scale and place the distance plot -->
<g  transform="translate(0,50) ">
<g transform="translate(150,700) scale(1 -1)">
   <polyline fill="none" stroke="black" stroke-width="10" points=" 5.2 ,0  10.4 ,17.4545  15.6 ,34.909  20.8 ,51.5331  26 ,66.6427  31.2 ,81.944  36.4 ,96.8074  41.6 ,111.841  46.8 ,126.899  52 ,141.325  57.2 ,155.978  62.4 ,170.64  67.6 ,185.211  72.8 ,199.642  78 ,212.773  83.2 ,225.855  88.4 ,239.03  93.6 ,252.285  98.8 ,265.607  104 ,278.987  109.2 ,288.744  114.4 ,297.946  119.6 ,307.136  124.8 ,316.433  130 ,325.469  135.2 ,332.606  140.4 ,339.556  145.6 ,346.538  150.8 ,353.549  156 ,360.587  161.2 ,367.652  166.4 ,374.742  171.6 ,381.789  176.8 ,388.857  182 ,395.949  187.2 ,403.019  192.4 ,409.987  197.6 ,416.976  202.8 ,423.114  208 ,427.271  213.2 ,431.479  218.4 ,435.601  223.6 ,439.761  228.8 ,443.982  234 ,448.258  239.2 ,452.588  244.4 ,456.968  249.6 ,461.397  254.8 ,464.358  260 ,466.158  265.2 ,467.983  270.4 ,469.833  275.6 ,471.708  280.8 ,473.606  286 ,475.528  291.2 ,477.472  296.4 ,479.439  301.6 ,480.384  306.8 ,479.57  312 ,478.631  317.2 ,477.663  322.4 ,473.76  327.6 ,469.342  332.8 ,464.961  338 ,460.62  343.2 ,456.318  348.4 ,449.867  353.6 ,441.568  358.8 ,433.188  364 ,424.615  369.2 ,416.099  374.4 ,407.643  379.6 ,399.251  384.8 ,390.929  390 ,380.876  395.2 ,369.645  400.4 ,358.479  405.6 ,347.385  410.8 ,335.029  416 ,320.342  421.2 ,305.734  426.4 ,291.112  431.6 ,276.659  436.8 ,262.404  442 ,248.383  447.2 ,234.639  452.4 ,221.226  457.6 ,208.209  462.8 ,195.397  468 ,180.589  473.2 ,165.429  478.4 ,149.351  483.6 ,132.523  488.8 ,117.762  494 ,105.779  499.2 ,89.245  504.4 ,72.8743  509.6 ,50.5455  514.8 ,28.7497  520 ,0  " />

<!--Draw the X and Y axes -->
<polyline fill="none" stroke="black" stroke-width="6"  points=" 600,0 0,0 0,520" />
<!-- -->

<line fill="none" stroke-width="3" boundary-string=""  stroke="lightblue" x1="0" y1="1.0324e-11" x2="5.2" y2="1.0324e-11" />
<line fill="none" stroke-width="3" boundary-string=""  stroke="lightblue" x1="5.2" y1="1.0324e-11" x2="10.4" y2="8.73335" />
<line fill="none" stroke-width="3" boundary-string=""  stroke="lightblue" x1="10.4" y1="8.73335" x2="15.6" y2="17.4667" />
<line fill="none" stroke-width="3" boundary-string=""  stroke="lightblue" x1="15.6" y1="17.4667" x2="20.8" y2="25.4596" />
<line fill="none" stroke-width="3" boundary-string=""  stroke="lightblue" x1="20.8" y1="25.4596" x2="26" y2="32.1474" />
<line fill="none" stroke-width="3" boundary-string=""  stroke="lightblue" x1="26" y1="32.1474" x2="31.2" y2="39.1437" />
<line fill="none" stroke-width="3" boundary-string=""  stroke="lightblue" x1="31.2" y1="39.1437" x2="36.4" y2="46.3088" />
<line fill="none" stroke-width="3" boundary-string=""  stroke="lightblue" x1="36.4" y1="46.3088" x2="41.6" y2="53.5752" />
<line fill="none" stroke-width="3" boundary-string=""  stroke="lightblue" x1="41.6" y1="53.5752" x2="46.8" y2="60.8242" />
<line fill="none" stroke-width="3" boundary-string=""  stroke="lightblue" x1="46.8" y1="60.8242" x2="52" y2="67.5791" />
<line fill="none" stroke-width="3" boundary-string=""  stroke="lightblue" x1="52" y1="67.5791" x2="57.2" y2="74.4835" />
<line fill="none" stroke-width="3" boundary-string=""  stroke="lightblue" x1="57.2" y1="74.4835" x2="62.4" y2="81.4995" />
<line fill="none" stroke-width="3" boundary-string=""  stroke="lightblue" x1="62.4" y1="81.4995" x2="67.6" y2="88.6005" />
<line fill="none" stroke-width="3" boundary-string=""  stroke="lightblue" x1="67.6" y1="88.6005" x2="72.8" y2="95.6202" />
<line fill="none" stroke-width="3" boundary-string=""  stroke="lightblue" x1="72.8" y1="95.6202" x2="78" y2="101.779" />
<line fill="none" stroke-width="3" boundary-string=""  stroke="lightblue" x1="78" y1="101.779" x2="83.2" y2="107.886" />
<line fill="none" stroke-width="3" boundary-string=""  stroke="lightblue" x1="83.2" y1="107.886" x2="88.4" y2="114.09" />
<line fill="none" stroke-width="3" boundary-string=""  stroke="lightblue" x1="88.4" y1="114.09" x2="93.6" y2="120.378" />
<line fill="none" stroke-width="3" boundary-string=""  stroke="lightblue" x1="93.6" y1="120.378" x2="98.8" y2="126.736" />
<line fill="none" stroke-width="3" boundary-string=""  stroke="lightblue" x1="98.8" y1="126.736" x2="104" y2="133.154" />
<line fill="none" stroke-width="3" boundary-string=""  stroke="lightblue" x1="104" y1="133.154" x2="109.2" y2="137.485" />
<line fill="none" stroke-width="3" boundary-string=""  stroke="lightblue" x1="109.2" y1="137.485" x2="114.4" y2="141.781" />
<line fill="none" stroke-width="3" boundary-string=""  stroke="lightblue" x1="114.4" y1="141.781" x2="119.6" y2="146.133" />
<line fill="none" stroke-width="3" boundary-string=""  stroke="lightblue" x1="119.6" y1="146.133" x2="124.8" y2="150.538" />
<line fill="none" stroke-width="3" boundary-string=""  stroke="lightblue" x1="124.8" y1="150.538" x2="130" y2="154.769" />
<line fill="none" stroke-width="3" boundary-string=""  stroke="lightblue" x1="130" y1="154.769" x2="135.2" y2="157.913" />
<line fill="none" stroke-width="3" boundary-string=""  stroke="lightblue" x1="135.2" y1="157.913" x2="140.4" y2="161.082" />
<line fill="none" stroke-width="3" boundary-string=""  stroke="lightblue" x1="140.4" y1="161.082" x2="145.6" y2="164.273" />
<line fill="none" stroke-width="3" boundary-string=""  stroke="lightblue" x1="145.6" y1="164.273" x2="150.8" y2="167.486" />
<line fill="none" stroke-width="3" boundary-string=""  stroke="lightblue" x1="150.8" y1="167.486" x2="156" y2="170.72" />
<line fill="none" stroke-width="3" boundary-string=""  stroke="lightblue" x1="156" y1="170.72" x2="161.2" y2="173.973" />
<line fill="none" stroke-width="3" boundary-string=""  stroke="lightblue" x1="161.2" y1="173.973" x2="166.4" y2="177.223" />
<line fill="none" stroke-width="3" boundary-string=""  stroke="lightblue" x1="166.4" y1="177.223" x2="171.6" y2="180.435" />
<line fill="none" stroke-width="3" boundary-string=""  stroke="lightblue" x1="171.6" y1="180.435" x2="176.8" y2="183.666" />
<line fill="none" stroke-width="3" boundary-string=""  stroke="lightblue" x1="176.8" y1="183.666" x2="182" y2="186.915" />
<line fill="none" stroke-width="3" boundary-string=""  stroke="lightblue" x1="182" y1="186.915" x2="187.2" y2="190.182" />
<line fill="none" stroke-width="3" boundary-string=""  stroke="lightblue" x1="187.2" y1="190.182" x2="192.4" y2="193.414" />
<line fill="none" stroke-width="3" boundary-string=""  stroke="lightblue" x1="192.4" y1="193.414" x2="197.6" y2="196.508" />
<line fill="none" stroke-width="3" boundary-string=""  stroke="lightblue" x1="197.6" y1="196.508" x2="202.8" y2="199.24" />
<line fill="none" stroke-width="3" boundary-string=""  stroke="lightblue" x1="202.8" y1="199.24" x2="208" y2="200.922" />
<line fill="none" stroke-width="3" boundary-string=""  stroke="lightblue" x1="208" y1="200.922" x2="213.2" y2="202.529" />
<line fill="none" stroke-width="3" boundary-string=""  stroke="lightblue" x1="213.2" y1="202.529" x2="218.4" y2="204.143" />
<line fill="none" stroke-width="3" boundary-string=""  stroke="lightblue" x1="218.4" y1="204.143" x2="223.6" y2="205.811" />
<line fill="none" stroke-width="3" boundary-string=""  stroke="lightblue" x1="223.6" y1="205.811" x2="228.8" y2="207.533" />
<line fill="none" stroke-width="3" boundary-string=""  stroke="lightblue" x1="228.8" y1="207.533" x2="234" y2="209.306" />
<line fill="none" stroke-width="3" boundary-string=""  stroke="lightblue" x1="234" y1="209.306" x2="239.2" y2="211.129" />
<line fill="none" stroke-width="3" boundary-string=""  stroke="lightblue" x1="239.2" y1="211.129" x2="244.4" y2="213.002" />
<line fill="none" stroke-width="3" boundary-string=""  stroke="lightblue" x1="244.4" y1="213.002" x2="249.6" y2="214.923" />
<line fill="none" stroke-width="3" boundary-string=""  stroke="lightblue" x1="249.6" y1="214.923" x2="254.8" y2="216.083" />
<line fill="none" stroke-width="3" boundary-string=""  stroke="lightblue" x1="254.8" y1="216.083" x2="260" y2="216.628" />
<line fill="none" stroke-width="3" boundary-string=""  stroke="lightblue" x1="260" y1="216.628" x2="265.2" y2="217.195" />
<line fill="none" stroke-width="3" boundary-string=""  stroke="lightblue" x1="265.2" y1="217.195" x2="270.4" y2="217.784" />
<line fill="none" stroke-width="3" boundary-string=""  stroke="lightblue" x1="270.4" y1="217.784" x2="275.6" y2="218.395" />
<line fill="none" stroke-width="3" boundary-string=""  stroke="lightblue" x1="275.6" y1="218.395" x2="280.8" y2="219.027" />
<line fill="none" stroke-width="3" boundary-string=""  stroke="lightblue" x1="280.8" y1="219.027" x2="286" y2="219.68" />
<line fill="none" stroke-width="3" boundary-string=""  stroke="lightblue" x1="286" y1="219.68" x2="291.2" y2="220.354" />
<line fill="none" stroke-width="3" boundary-string=""  stroke="lightblue" x1="291.2" y1="220.354" x2="296.4" y2="221.05" />
<line fill="none" stroke-width="3" boundary-string=""  stroke="lightblue" x1="296.4" y1="221.05" x2="301.6" y2="221.268" />
<line fill="none" stroke-width="3" boundary-string=""  stroke="lightblue" x1="301.6" y1="221.268" x2="306.8" y2="220.637" />
<line fill="none" stroke-width="3" boundary-string=""  stroke="lightblue" x1="306.8" y1="220.637" x2="312" y2="220.068" />
<line fill="none" stroke-width="3" boundary-string=""  stroke="lightblue" x1="312" y1="220.068" x2="317.2" y2="219.561" />
<line fill="none" stroke-width="3" boundary-string=""  stroke="lightblue" x1="317.2" y1="219.561" x2="322.4" y2="217.34" />
<line fill="none" stroke-width="3" boundary-string=""  stroke="lightblue" x1="322.4" y1="217.34" x2="327.6" y2="214.832" />
<line fill="none" stroke-width="3" boundary-string=""  stroke="lightblue" x1="327.6" y1="214.832" x2="332.8" y2="212.364" />
<line fill="none" stroke-width="3" boundary-string=""  stroke="lightblue" x1="332.8" y1="212.364" x2="338" y2="209.936" />
<line fill="none" stroke-width="3" boundary-string=""  stroke="lightblue" x1="338" y1="209.936" x2="343.2" y2="207.551" />
<line fill="none" stroke-width="3" boundary-string=""  stroke="lightblue" x1="343.2" y1="207.551" x2="348.4" y2="203.888" />
<line fill="none" stroke-width="3" boundary-string=""  stroke="lightblue" x1="348.4" y1="203.888" x2="353.6" y2="199.232" />
<line fill="none" stroke-width="3" boundary-string=""  stroke="lightblue" x1="353.6" y1="199.232" x2="358.8" y2="194.54" />
<line fill="none" stroke-width="3" boundary-string=""  stroke="lightblue" x1="358.8" y1="194.54" x2="364" y2="189.793" />
<line fill="none" stroke-width="3" boundary-string=""  stroke="lightblue" x1="364" y1="189.793" x2="369.2" y2="185.096" />
<line fill="none" stroke-width="3" boundary-string=""  stroke="lightblue" x1="369.2" y1="185.096" x2="374.4" y2="180.454" />
<line fill="none" stroke-width="3" boundary-string=""  stroke="lightblue" x1="374.4" y1="180.454" x2="379.6" y2="175.87" />
<line fill="none" stroke-width="3" boundary-string=""  stroke="lightblue" x1="379.6" y1="175.87" x2="384.8" y2="171.35" />
<line fill="none" stroke-width="3" boundary-string=""  stroke="lightblue" x1="384.8" y1="171.35" x2="390" y2="166.067" />
<line fill="none" stroke-width="3" boundary-string=""  stroke="lightblue" x1="390" y1="166.067" x2="395.2" y2="160.173" />
<line fill="none" stroke-width="3" boundary-string=""  stroke="lightblue" x1="395.2" y1="160.173" x2="400.4" y2="154.337" />
<line fill="none" stroke-width="3" boundary-string=""  stroke="lightblue" x1="400.4" y1="154.337" x2="405.6" y2="148.566" />
<line fill="none" stroke-width="3" boundary-string=""  stroke="lightblue" x1="405.6" y1="148.566" x2="410.8" y2="141.93" />
<line fill="none" stroke-width="3" boundary-string=""  stroke="lightblue" x1="410.8" y1="141.93" x2="416" y2="134.323" />
<line fill="none" stroke-width="3" boundary-string=""  stroke="lightblue" x1="416" y1="134.323" x2="421.2" y2="126.857" />
<line fill="none" stroke-width="3" boundary-string=""  stroke="lightblue" x1="421.2" y1="126.857" x2="426.4" y2="119.559" />
<line fill="none" stroke-width="3" boundary-string=""  stroke="lightblue" x1="426.4" y1="119.559" x2="431.6" y2="112.237" />
<line fill="none" stroke-width="3" boundary-string=""  stroke="lightblue" x1="431.6" y1="112.237" x2="436.8" y2="104.987" />
<line fill="none" stroke-width="3" boundary-string=""  stroke="lightblue" x1="436.8" y1="104.987" x2="442" y2="97.976" />
<line fill="none" stroke-width="3" boundary-string=""  stroke="lightblue" x1="442" y1="97.976" x2="447.2" y2="91.2578" />
<line fill="none" stroke-width="3" boundary-string=""  stroke="lightblue" x1="447.2" y1="91.2578" x2="452.4" y2="84.9023" />
<line fill="none" stroke-width="3" boundary-string=""  stroke="lightblue" x1="452.4" y1="84.9023" x2="457.6" y2="78.9969" />
<line fill="none" stroke-width="3" boundary-string=""  stroke="lightblue" x1="457.6" y1="78.9969" x2="462.8" y2="73.6502" />
<line fill="none" stroke-width="3" boundary-string=""  stroke="lightblue" x1="462.8" y1="73.6502" x2="468" y2="68.0183" />
<line fill="none" stroke-width="3" boundary-string=""  stroke="lightblue" x1="468" y1="68.0183" x2="473.2" y2="61.9156" />
<line fill="none" stroke-width="3" boundary-string=""  stroke="lightblue" x1="473.2" y1="61.9156" x2="478.4" y2="55.1636" />
<line fill="none" stroke-width="3" boundary-string=""  stroke="lightblue" x1="478.4" y1="55.1636" x2="483.6" y2="49.8153" />
<line fill="none" stroke-width="3" boundary-string=""  stroke="lightblue" x1="483.6" y1="49.8153" x2="488.8" y2="47.037" />
<line fill="none" stroke-width="3" boundary-string=""  stroke="lightblue" x1="488.8" y1="47.037" x2="494" y2="47.2841" />
<line fill="none" stroke-width="3" boundary-string=""  stroke="lightblue" x1="494" y1="47.2841" x2="499.2" y2="41.725" />
<line fill="none" stroke-width="3" boundary-string=""  stroke="lightblue" x1="499.2" y1="41.725" x2="504.4" y2="36.5151" />
<line fill="none" stroke-width="3" boundary-string=""  stroke="lightblue" x1="504.4" y1="36.5151" x2="509.6" y2="24.6693" />
<line fill="none" stroke-width="3" boundary-string=""  stroke="lightblue" x1="509.6" y1="24.6693" x2="514.8" y2="13.2732" />
<line fill="none" stroke-width="3" boundary-string=""  stroke="lightblue" x1="514.8" y1="13.2732" x2="520" y2="3.71937e-14" />

<!--Draw the X and Y axes -->
<polyline fill="none" stroke="black" stroke-width="6"  points=" 600,0 0,0 0,520" />
<!-- -->


<!--Draw labels and tics for X axis -->

<line fill="none" stroke="black"  stroke-width="6"  x1="0.5" y1="0" x2="0.5" y2="-20" />
<text transform="scale(1,-1)" font-family="sans-serif" font-size="30" x="-24.5" y="45" >0 </text>
<line fill="none" stroke="black"  stroke-width="6"  x1="104.5" y1="0" x2="104.5" y2="-20" />
<text transform="scale(1,-1)" font-family="sans-serif" font-size="30" x="79.5" y="45" >20 </text>
<line fill="none" stroke="black"  stroke-width="6"  x1="208.5" y1="0" x2="208.5" y2="-20" />
<text transform="scale(1,-1)" font-family="sans-serif" font-size="30" x="183.5" y="45" >40 </text>
<line fill="none" stroke="black"  stroke-width="6"  x1="312.5" y1="0" x2="312.5" y2="-20" />
<text transform="scale(1,-1)" font-family="sans-serif" font-size="30" x="287.5" y="45" >60 </text>
<line fill="none" stroke="black"  stroke-width="6"  x1="416.5" y1="0" x2="416.5" y2="-20" />
<text transform="scale(1,-1)" font-family="sans-serif" font-size="30" x="391.5" y="45" >80 </text>
<line fill="none" stroke="black"  stroke-width="6"  x1="520.5" y1="0" x2="520.5" y2="-20" />
<text transform="scale(1,-1)" font-family="sans-serif" font-size="30" x="495.5" y="45" >100 </text>


<!--Draw labels and tics for Y axis -->

<line fill="none" stroke="black" stroke-width="6" x1="0.0" y1="0" x2="-20" y2="0" />
<text transform="scale(1,-1)" text-anchor="end" font-family="sans-serif" font-size="30" x="-25" y="10" >0 </text>
<line fill="none" stroke="black" stroke-width="6" x1="0.0" y1="86.6667" x2="-20" y2="86.6667" />
<text transform="scale(1,-1)" text-anchor="end" font-family="sans-serif" font-size="30" x="-25" y="-76.6667" >500 </text>
<line fill="none" stroke="black" stroke-width="6" x1="0.0" y1="173.333" x2="-20" y2="173.333" />
<text transform="scale(1,-1)" text-anchor="end" font-family="sans-serif" font-size="30" x="-25" y="-163.333" >1000 </text>
<line fill="none" stroke="black" stroke-width="6" x1="0.0" y1="260" x2="-20" y2="260" />
<text transform="scale(1,-1)" text-anchor="end" font-family="sans-serif" font-size="30" x="-25" y="-250" >1500 </text>
<line fill="none" stroke="black" stroke-width="6" x1="0.0" y1="346.667" x2="-20" y2="346.667" />
<text transform="scale(1,-1)" text-anchor="end" font-family="sans-serif" font-size="30" x="-25" y="-336.667" >2000 </text>
<line fill="none" stroke="black" stroke-width="6" x1="0.0" y1="433.333" x2="-20" y2="433.333" />
<text transform="scale(1,-1)" text-anchor="end" font-family="sans-serif" font-size="30" x="-25" y="-423.333" >2500 </text>
<line fill="none" stroke="black" stroke-width="6" x1="0.0" y1="520" x2="-20" y2="520" />
<text transform="scale(1,-1)" text-anchor="end" font-family="sans-serif" font-size="30" x="-25" y="-510" >3000 </text>


<!--Draw Glitches -->

<line fill="none" stroke="black" stroke-width="2" x1="494" y1="41.725" x2="494" y2="-8.27504" />
<text transform="scale(1,-1)" font-family="sans-serif" font-size="30" x="499" y="18.275" >95 </text>

<!-- -->


<!-- Reduced vector followed by D7dist from the final reduced cell
-15.51697 -12.93813 -142.92156 -21.96092 -77.82586 -352.55162    (5.95613e-11,  0)   
-30.10514  -7.78319 -141.54300 -27.99362 -67.61308 -398.99122    (50.3847,  100.699)   
-44.69332  -2.62826 -140.16444 -34.02632 -57.40030 -445.43082    (100.769,  201.398)   
 -2.52668 -56.75482 -37.53235 -49.71420 -136.25920 -489.34374    (146.882,  297.306)   
 -7.68161 -66.18807 -38.41011 -44.65635 -129.72570 -530.62840    (185.466,  384.477)   
-12.83654 -75.62131 -39.28788 -39.59850 -123.19221 -571.91307    (225.829,  472.754)   
-17.99148 -85.05455 -40.16565 -34.54066 -116.65871 -613.19773    (267.166,  558.504)   
-23.14641 -94.48780 -41.04341 -29.48281 -110.12522 -654.48240    (309.087,  645.238)   
-103.59172 -24.42496 -41.92118 -103.92104 -28.30135 -695.76706    (350.909,  732.111)   
-19.36712 -97.05823 -42.79895 -33.45628 -113.35429 -737.05172    (389.879,  815.336)   
-14.30927 -90.52473 -43.67671 -38.61121 -122.78753 -778.33639    (429.713,  899.872)   
 -9.25142 -83.99123 -44.55448 -43.76615 -132.22077 -819.62105    (470.19,  984.46)   
 -4.19357 -77.45774 -45.43225 -48.92108 -141.65402 -860.90571    (511.157,  1068.52)   
-70.05997  -0.86427 -150.22299 -45.44574 -54.94029 -901.32610    (551.655,  1151.78)   
-58.46863  -5.92212 -154.59839 -41.26566 -65.15307 -937.55292    (587.188,  1227.54)   
-46.87729 -10.97997 -158.97378 -37.08558 -75.36585 -973.77974    (622.418,  1303.01)   
-35.28594 -16.03781 -163.34918 -32.90550 -85.57863 -1010.00655    (658.213,  1379.02)   
-23.69460 -21.09566 -167.72458 -28.72542 -95.79141 -1046.23337    (694.486,  1455.49)   
-12.10326 -26.15351 -172.09997 -24.54534 -106.00419 -1082.46019    (731.167,  1532.35)   
 -0.51191 -31.21135 -176.47537 -20.36526 -116.21697 -1118.68700    (768.196,  1609.54)   
-11.07943 -25.18977 -115.35033 -27.26460 -169.77134 -1143.83439    (793.185,  1665.83)   
-22.67077 -18.65628 -113.97177 -34.67586 -162.55539 -1168.46987    (817.965,  1718.92)   
-34.26211 -12.12278 -112.59320 -42.08713 -155.33945 -1193.10534    (843.076,  1771.94)   
-45.85346  -5.58929 -111.21464 -49.49839 -148.12350 -1217.74082    (868.489,  1825.58)   
-56.50059  -0.94421 -55.96544 -108.89187 -141.85176 -1241.43208    (892.897,  1877.7)   
-61.55844  -7.47770 -56.84321 -100.97982 -141.16931 -1259.53406    (911.036,  1918.88)   
-66.61628 -14.01120 -57.72097 -93.06776 -140.48686 -1277.63604    (929.317,  1958.98)   
-71.67413 -20.54470 -58.59874 -85.15570 -139.80441 -1295.73802    (947.729,  1999.26)   
-76.73198 -27.07819 -59.47651 -77.24364 -139.12196 -1313.83999    (966.267,  2039.7)   
-81.78982 -33.61169 -60.35427 -69.33159 -138.43951 -1331.94197    (984.923,  2080.31)   
-86.84767 -40.14518 -61.23204 -61.41953 -137.75706 -1350.04395    (1003.69,  2121.07)   
-91.90552 -46.67868 -62.10981 -53.50747 -137.07461 -1368.14593    (1022.44,  2161.97)   
-96.96337 -53.21217 -62.98757 -45.59541 -136.39216 -1386.24791    (1040.97,  2202.63)   
-102.02121 -59.74567 -63.86534 -37.68336 -135.70971 -1404.34989    (1059.61,  2243.4)   
-135.02726 -29.77130 -64.74311 -66.27916 -107.07906 -1422.45187    (1078.36,  2284.32)   
-134.34481 -21.85924 -65.62087 -72.81266 -112.13691 -1440.55384    (1097.2,  2325.11)   
-133.66236 -13.94719 -66.49864 -79.34616 -117.19475 -1458.65582    (1115.85,  2365.31)   
-132.97991  -6.03513 -67.37641 -85.87965 -122.25260 -1476.75780    (1133.7,  2405.63)   
-130.42053  -1.87693 -90.53622 -66.37724 -129.18738 -1492.98285    (1149.46,  2441.04)   
-121.82603  -9.78899 -89.15766 -59.34295 -142.15728 -1503.17277    (1159.17,  2465.02)   
-113.23152 -17.70104 -87.77909 -52.30866 -155.12719 -1513.36269    (1168.44,  2489.3)   
-104.63701 -25.61310 -86.40053 -45.27437 -168.09709 -1523.55261    (1177.75,  2513.08)   
-96.04250 -33.52516 -85.02197 -38.24008 -181.06699 -1533.74253    (1187.37,  2537.08)   
-87.44800 -41.43722 -83.64341 -31.20579 -194.03690 -1543.93246    (1197.3,  2561.43)   
-78.85349 -49.34927 -82.26485 -24.17150 -207.00680 -1554.12238    (1207.53,  2586.1)   
-70.25898 -57.26133 -80.88629 -17.13721 -219.97671 -1564.31230    (1218.05,  2611.08)   
-61.66447 -65.17339 -79.50773 -10.10292 -232.94661 -1574.50222    (1228.86,  2636.35)   
-53.06997 -73.08544 -78.12916  -3.06862 -245.91652 -1584.69214    (1239.94,  2661.9)   
-48.44113 -72.78494 -77.03184  -3.96567 -254.92075 -1590.91640    (1246.63,  2678.99)   
-46.88091 -64.37208 -77.90960 -10.99996 -260.85637 -1594.07203    (1249.78,  2689.37)   
-45.32069 -55.95923 -78.78737 -18.03425 -266.79198 -1597.22766    (1253.05,  2699.9)   
-43.76048 -47.54638 -79.66513 -25.06854 -272.72759 -1600.38329    (1256.45,  2710.58)   
-42.20026 -39.13353 -80.54290 -32.10283 -278.66321 -1603.53892    (1259.97,  2721.39)   
-40.64004 -30.72067 -81.42067 -39.13712 -284.59882 -1606.69455    (1263.62,  2732.34)   
-39.07983 -22.30782 -82.29843 -46.17141 -290.53443 -1609.85018    (1267.38,  2743.43)   
-37.51961 -13.89497 -83.17620 -53.20570 -296.47005 -1613.00581    (1271.28,  2754.65)   
-35.95939  -5.48212 -84.05397 -60.23999 -302.40566 -1616.16144    (1275.29,  2765.99)   
-31.46844  -2.93074 -64.34355 -82.00100 -311.27201 -1616.38633    (1276.54,  2771.45)   
-21.49537 -11.34359 -62.96499 -74.46591 -325.62048 -1611.12911    (1272.91,  2766.75)   
-11.52230 -19.75644 -61.58642 -66.93082 -339.96894 -1605.87189    (1269.62,  2761.34)   
 -1.54923 -28.16929 -60.20786 -59.39574 -354.31741 -1600.61466    (1266.7,  2755.75)   
-28.15831  -8.42384 -360.24204 -50.40546 -60.28449 -1586.93360    (1253.88,  2733.23)   
-26.59809 -18.39691 -364.61743 -39.05383 -62.72247 -1571.70331    (1239.42,  2707.74)   
-25.03788 -28.36998 -368.99283 -27.70220 -65.16045 -1556.47302    (1225.18,  2682.47)   
-23.47766 -38.34304 -373.36823 -16.35057 -67.59844 -1541.24273    (1211.17,  2657.42)   
-21.91744 -48.31611 -377.74362  -4.99894 -70.03642 -1526.01244    (1197.41,  2632.6)   
 -6.35269 -66.12171 -51.93649 -26.70992 -375.76633 -1504.42946    (1176.28,  2595.39)   
-17.70432 -57.20806 -50.55793 -36.50133 -368.79010 -1477.84753    (1149.42,  2547.51)   
-29.05595 -48.29442 -49.17937 -46.29275 -361.81386 -1451.26561    (1122.35,  2499.16)   
-40.40758 -39.38077 -47.80081 -56.08416 -354.83763 -1424.68369    (1094.96,  2449.7)   
-51.75921 -30.46712 -46.42225 -65.87558 -347.86140 -1398.10177    (1067.86,  2400.57)   
-63.11084 -21.55347 -45.04368 -75.66699 -340.88516 -1371.51984    (1041.08,  2351.79)   
-74.46248 -12.63983 -43.66512 -85.45840 -333.90893 -1344.93792    (1014.63,  2303.37)   
-85.81411  -3.72618 -42.28656 -95.24982 -326.93269 -1318.35600    (988.558,  2255.36)   
-91.97827  -5.18747 -99.85376 -35.72053 -325.14393 -1286.58661    (958.079,  2197.36)   
-94.41625 -14.10112 -100.73153 -25.42832 -327.08134 -1251.09104    (924.073,  2132.56)   
-96.85423 -23.01477 -101.60929 -15.13611 -329.01876 -1215.59547    (890.403,  2068.15)   
-99.29222 -31.92841 -102.48706  -4.84390 -330.95617 -1180.09990    (857.109,  2004.15)   
-107.17851 -97.91652 -35.39375  -5.44831 -327.44528 -1139.15602    (818.829,  1932.86)   
-119.90870 -88.50207 -34.01519 -15.74052 -319.09048 -1093.36824    (774.939,  1848.13)   
-132.63889 -79.08763 -32.63663 -26.03273 -310.73569 -1047.58046    (731.866,  1763.85)   
-145.36908 -69.67319 -31.25807 -36.32494 -302.38089 -1001.79268    (689.765,  1679.49)   
-158.09928 -60.25875 -29.87951 -46.61715 -294.02609 -956.00490    (647.519,  1596.11)   
-170.82947 -50.84430 -28.50094 -56.90936 -285.67130 -910.21712    (605.696,  1513.87)   
-183.55966 -41.42986 -27.12238 -67.20157 -277.31650 -864.42934    (565.246,  1432.98)   
-196.28985 -32.01542 -25.74382 -77.49378 -268.96171 -818.64156    (526.487,  1353.69)   
-209.02005 -22.60097 -24.36526 -87.78599 -260.60691 -772.85378    (489.821,  1276.3)   
-221.75024 -13.18653 -22.98670 -98.07819 -252.25212 -727.06600    (455.752,  1201.2)   
-234.48043  -3.77209 -21.60814 -108.37040 -243.89732 -681.27822    (424.905,  1127.29)   
-241.56827  -5.64236 -113.02026 -14.58722 -241.18488 -629.84809    (392.413,  1041.86)   
-242.24453  -3.79421 -113.89802 -15.05680 -244.88402 -574.64587    (357.205,  954.396)   
-236.30538  -6.99879 -17.47245 -107.77700 -255.19856 -512.44485    (318.252,  861.642)   
-226.57203 -17.79180 -16.09389 -97.86176 -269.30731 -446.44962    (287.396,  764.558)   
-216.83867 -28.58480 -14.71533 -87.94652 -283.41607 -380.45440    (271.368,  679.394)   
-207.10531 -39.37781 -13.33677 -78.03128 -297.52482 -314.45917    (272.793,  610.265)   
-197.37196 -11.95820 -50.17081 -68.11604 -248.46394 -311.63357    (240.721,  514.875)   
-187.63860 -10.57964 -60.96382 -58.20081 -182.46872 -325.74233    (210.664,  420.429)   
-116.47349 -48.28557 -71.75682  -9.20108 -177.90524 -339.85108    (142.323,  291.609)   
-50.47826 -38.37033 -82.54982  -7.82252 -168.17188 -353.95984    (76.5764,  165.864)   
-15.51697 -12.93813 -142.92156 -21.96092 -77.82586 -352.55162    (2.14579e-13,  0)   
-->
</g>
</g>
<!-- Run Constants
CIRCLEPLOT bool false
DISTANCEPLOT bool true
PRINTDISTANCEDATA bool true
GLITCHESONLY bool false
PLOT 2doubles 3 4
PERTURBBY double 0.05
GLITCHLEVEL double 3
BOUNDARYWINDOW double 0.065
FRAMESPERPATH int 200
STEPSPERFRAME int 100
TRIALS int 1
ALLBLACK bool false
FILEPREFIX string Fol
GRAPHSIZE int 0
BORDER int 0
PLOTSIZE int 0
CIRCLEPLOTSIZE int 2000
CIRCLERADIUS int 300
CIRCLESTROKEWIDTH int 30
G6LINEWIDTH int 3
DELONELINEWIDTH int 10
AXISWIDTH int 6
TICLENGTH int 20
VECTOR g6 
PERTURB g6Perturb 
MOVIEMODE MovieMode STAR
FOLLOWERMODE FollowerMode Follow
FIXRANDOMSEED fixRandomSeed true
RANDOMSEED int 18
TIMESTAMP bool true
END end 




-->
</svg>
