<?xml version="1.0" standalone="no"?>
<!-- the width and height set the total pixel output of the image in the browser -->
<!-- whatever is within the viewbox will be remapped to show in this size -->
<svg width="1000" height="1000" viewBox="1 0 1000 1000"  version="1.1" xmlns="http://www.w3.org/2000/svg" xmlns:xlink="http://www.w3.org/1999/xlink">
 <desc>ID (and file name) = Fol_2018-02-06.14_15_23.27_0.svg </desc> 
 <text x="280"  y="30"  font-family="sans-serif" font-size="20" > Trial vector = 0  </text> 
 <text x="700" y="30" font-family="sans-serif" font-size="20">Wall time passed: 41179 msec.</text>
<text x="450" y="30" font-family="sans-serif" font-size="20" fill="black" > Plotting g5 vs. g4</text>
<text x="300" y="60"  font-family="sans-serif" font-size="20" > Beginning vector  -233.66544 -254.75707 139.73713 -91.61987 -158.35934  42.62310 </text>
<text x="300" y="85"  font-family="sans-serif" font-size="20" > Beginning cell   14.37497  15.88357  21.11396   2.34165   2.56691   0.91220 </text>
<text x="300" y="110"  font-family="sans-serif" font-size="20" > Ending vector  -66.90269 -48.11726 -45.81105 -48.99678 -66.73947 -91.61987 </text>
<text x="300" y="135"  font-family="sans-serif" font-size="20" > Ending cell   11.95513  13.39601  14.37497   1.92562   1.85458   1.86090 </text>

<text x="300" y="160"  font-family="sans-serif" font-size="20" > Glitch  -105.64555 -96.12449  -2.70390 -58.89911 -88.02489 -60.43211  (71.6752 )</text>
<text x="300" y="185"  font-family="sans-serif" font-size="20" > Glitch  -107.33002 -98.21176  -0.82968 -59.32965 -88.95034 -59.07612  (75.0508)</text>



 <!--DISTANCE PLOT BEGINS-->


<!-- the following will scale and place the distance plot -->
<g  transform="translate(0,50) ">
<g transform="translate(150,700) scale(1 -1)">
   <polyline fill="none" stroke="black" stroke-width="10" points=" 5.2 ,0  10.4 ,16.2507  15.6 ,32.5014  20.8 ,48.7521  26 ,65.0027  31.2 ,81.2534  36.4 ,97.5041  41.6 ,113.755  46.8 ,130.005  52 ,146.256  57.2 ,162.507  62.4 ,178.758  67.6 ,195.008  72.8 ,211.259  78 ,227.51  83.2 ,240.497  88.4 ,252.26  93.6 ,264.499  98.8 ,277.15  104 ,290.16  109.2 ,303.483  114.4 ,317.079  119.6 ,330.915  124.8 ,344.961  130 ,359.193  135.2 ,373.59  140.4 ,388.134  145.6 ,402.808  150.8 ,417.598  156 ,432.494  161.2 ,447.484  166.4 ,462.559  171.6 ,477.711  176.8 ,492.933  182 ,497.385  187.2 ,491.426  192.4 ,485.784  197.6 ,480.469  202.8 ,475.492  208 ,470.864  213.2 ,466.595  218.4 ,461.343  223.6 ,455.229  228.8 ,449.452  234 ,444.025  239.2 ,438.961  244.4 ,434.274  249.6 ,429.976  254.8 ,426.077  260 ,422.59  265.2 ,419.525  270.4 ,416.89  275.6 ,414.695  280.8 ,412.945  286 ,411.648  291.2 ,410.806  296.4 ,410.424  301.6 ,410.37  306.8 ,410.696  312 ,411.48  317.2 ,412.722  322.4 ,414.415  327.6 ,416.556  332.8 ,419.137  338 ,422.149  343.2 ,425.585  348.4 ,429.433  353.6 ,433.683  358.8 ,438.323  364 ,443.341  369.2 ,448.724  374.4 ,454.459  379.6 ,460.533  384.8 ,466.932  390 ,472.96  395.2 ,461.127  400.4 ,440.798  405.6 ,420.615  410.8 ,400.598  416 ,380.775  421.2 ,361.177  426.4 ,341.842  431.6 ,322.819  436.8 ,304.166  442 ,285.955  447.2 ,268.275  452.4 ,251.24  457.6 ,234.99  462.8 ,219.698  468 ,205.58  473.2 ,192.891  478.4 ,172.648  483.6 ,150.888  488.8 ,129.134  494 ,107.389  499.2 ,85.6611  504.4 ,63.9662  509.6 ,42.3557  514.8 ,21.0911  520 ,4.00756e-05  " />

<!--Draw the X and Y axes -->
<polyline fill="none" stroke="black" stroke-width="6"  points=" 600,0 0,0 0,520" />
<!-- -->

<line fill="none" stroke-width="3" boundary-string=""  stroke="lightblue" x1="0" y1="4.22265e-13" x2="5.2" y2="4.22265e-13" />
<line fill="none" stroke-width="3" boundary-string=""  stroke="lightblue" x1="5.2" y1="4.22265e-13" x2="10.4" y2="10.2083" />
<line fill="none" stroke-width="3" boundary-string=""  stroke="lightblue" x1="10.4" y1="10.2083" x2="15.6" y2="20.4166" />
<line fill="none" stroke-width="3" boundary-string=""  stroke="lightblue" x1="15.6" y1="20.4166" x2="20.8" y2="30.6248" />
<line fill="none" stroke-width="3" boundary-string=""  stroke="lightblue" x1="20.8" y1="30.6248" x2="26" y2="40.8331" />
<line fill="none" stroke-width="3" boundary-string=""  stroke="lightblue" x1="26" y1="40.8331" x2="31.2" y2="51.0414" />
<line fill="none" stroke-width="3" boundary-string=""  stroke="lightblue" x1="31.2" y1="51.0414" x2="36.4" y2="61.2497" />
<line fill="none" stroke-width="3" boundary-string=""  stroke="lightblue" x1="36.4" y1="61.2497" x2="41.6" y2="71.4579" />
<line fill="none" stroke-width="3" boundary-string=""  stroke="lightblue" x1="41.6" y1="71.4579" x2="46.8" y2="81.6662" />
<line fill="none" stroke-width="3" boundary-string=""  stroke="lightblue" x1="46.8" y1="81.6662" x2="52" y2="91.8745" />
<line fill="none" stroke-width="3" boundary-string=""  stroke="lightblue" x1="52" y1="91.8745" x2="57.2" y2="102.083" />
<line fill="none" stroke-width="3" boundary-string=""  stroke="lightblue" x1="57.2" y1="102.083" x2="62.4" y2="112.291" />
<line fill="none" stroke-width="3" boundary-string=""  stroke="lightblue" x1="62.4" y1="112.291" x2="67.6" y2="122.499" />
<line fill="none" stroke-width="3" boundary-string=""  stroke="lightblue" x1="67.6" y1="122.499" x2="72.8" y2="132.708" />
<line fill="none" stroke-width="3" boundary-string=""  stroke="lightblue" x1="72.8" y1="132.708" x2="78" y2="142.916" />
<line fill="none" stroke-width="3" boundary-string=""  stroke="lightblue" x1="78" y1="142.916" x2="83.2" y2="150.522" />
<line fill="none" stroke-width="3" boundary-string=""  stroke="lightblue" x1="83.2" y1="150.522" x2="88.4" y2="157.137" />
<line fill="none" stroke-width="3" boundary-string=""  stroke="lightblue" x1="88.4" y1="157.137" x2="93.6" y2="164.122" />
<line fill="none" stroke-width="3" boundary-string=""  stroke="lightblue" x1="93.6" y1="164.122" x2="98.8" y2="171.43" />
<line fill="none" stroke-width="3" boundary-string=""  stroke="lightblue" x1="98.8" y1="171.43" x2="104" y2="179.021" />
<line fill="none" stroke-width="3" boundary-string=""  stroke="lightblue" x1="104" y1="179.021" x2="109.2" y2="186.863" />
<line fill="none" stroke-width="3" boundary-string=""  stroke="lightblue" x1="109.2" y1="186.863" x2="114.4" y2="194.923" />
<line fill="none" stroke-width="3" boundary-string=""  stroke="lightblue" x1="114.4" y1="194.923" x2="119.6" y2="203.177" />
<line fill="none" stroke-width="3" boundary-string=""  stroke="lightblue" x1="119.6" y1="203.177" x2="124.8" y2="211.602" />
<line fill="none" stroke-width="3" boundary-string=""  stroke="lightblue" x1="124.8" y1="211.602" x2="130" y2="220.177" />
<line fill="none" stroke-width="3" boundary-string=""  stroke="lightblue" x1="130" y1="220.177" x2="135.2" y2="228.886" />
<line fill="none" stroke-width="3" boundary-string=""  stroke="lightblue" x1="135.2" y1="228.886" x2="140.4" y2="237.715" />
<line fill="none" stroke-width="3" boundary-string=""  stroke="lightblue" x1="140.4" y1="237.715" x2="145.6" y2="246.65" />
<line fill="none" stroke-width="3" boundary-string=""  stroke="lightblue" x1="145.6" y1="246.65" x2="150.8" y2="255.681" />
<line fill="none" stroke-width="3" boundary-string=""  stroke="lightblue" x1="150.8" y1="255.681" x2="156" y2="264.797" />
<line fill="none" stroke-width="3" boundary-string=""  stroke="lightblue" x1="156" y1="264.797" x2="161.2" y2="273.99" />
<line fill="none" stroke-width="3" boundary-string=""  stroke="lightblue" x1="161.2" y1="273.99" x2="166.4" y2="283.253" />
<line fill="none" stroke-width="3" boundary-string=""  stroke="lightblue" x1="166.4" y1="283.253" x2="171.6" y2="292.579" />
<line fill="none" stroke-width="3" boundary-string=""  stroke="lightblue" x1="171.6" y1="292.579" x2="176.8" y2="301.962" />
<line fill="none" stroke-width="3" boundary-string=""  stroke="lightblue" x1="176.8" y1="301.962" x2="182" y2="304.626" />
<line fill="none" stroke-width="3" boundary-string=""  stroke="lightblue" x1="182" y1="304.626" x2="187.2" y2="299.803" />
<line fill="none" stroke-width="3" boundary-string=""  stroke="lightblue" x1="187.2" y1="299.803" x2="192.4" y2="295.221" />
<line fill="none" stroke-width="3" boundary-string=""  stroke="lightblue" x1="192.4" y1="295.221" x2="197.6" y2="290.892" />
<line fill="none" stroke-width="3" boundary-string=""  stroke="lightblue" x1="197.6" y1="290.892" x2="202.8" y2="286.826" />
<line fill="none" stroke-width="3" boundary-string=""  stroke="lightblue" x1="202.8" y1="286.826" x2="208" y2="283.037" />
<line fill="none" stroke-width="3" boundary-string=""  stroke="lightblue" x1="208" y1="283.037" x2="213.2" y2="279.534" />
<line fill="none" stroke-width="3" boundary-string=""  stroke="lightblue" x1="213.2" y1="279.534" x2="218.4" y2="275.196" />
<line fill="none" stroke-width="3" boundary-string=""  stroke="lightblue" x1="218.4" y1="275.196" x2="223.6" y2="270.113" />
<line fill="none" stroke-width="3" boundary-string=""  stroke="lightblue" x1="223.6" y1="270.113" x2="228.8" y2="265.289" />
<line fill="none" stroke-width="3" boundary-string=""  stroke="lightblue" x1="228.8" y1="265.289" x2="234" y2="260.737" />
<line fill="none" stroke-width="3" boundary-string=""  stroke="lightblue" x1="234" y1="260.737" x2="239.2" y2="256.474" />
<line fill="none" stroke-width="3" boundary-string=""  stroke="lightblue" x1="239.2" y1="256.474" x2="244.4" y2="252.513" />
<line fill="none" stroke-width="3" boundary-string=""  stroke="lightblue" x1="244.4" y1="252.513" x2="249.6" y2="248.868" />
<line fill="none" stroke-width="3" boundary-string=""  stroke="lightblue" x1="249.6" y1="248.868" x2="254.8" y2="245.554" />
<line fill="none" stroke-width="3" boundary-string=""  stroke="lightblue" x1="254.8" y1="245.554" x2="260" y2="242.585" />
<line fill="none" stroke-width="3" boundary-string=""  stroke="lightblue" x1="260" y1="242.585" x2="265.2" y2="239.973" />
<line fill="none" stroke-width="3" boundary-string=""  stroke="lightblue" x1="265.2" y1="239.973" x2="270.4" y2="237.729" />
<line fill="none" stroke-width="3" boundary-string=""  stroke="lightblue" x1="270.4" y1="237.729" x2="275.6" y2="235.866" />
<line fill="none" stroke-width="3" boundary-string=""  stroke="lightblue" x1="275.6" y1="235.866" x2="280.8" y2="234.39" />
<line fill="none" stroke-width="3" boundary-string=""  stroke="lightblue" x1="280.8" y1="234.39" x2="286" y2="233.311" />
<line fill="none" stroke-width="3" boundary-string=""  stroke="lightblue" x1="286" y1="233.311" x2="291.2" y2="232.633" />
<line fill="none" stroke-width="3" boundary-string=""  stroke="lightblue" x1="291.2" y1="232.633" x2="296.4" y2="232.36" />
<line fill="none" stroke-width="3" boundary-string=""  stroke="lightblue" x1="296.4" y1="232.36" x2="301.6" y2="232.377" />
<line fill="none" stroke-width="3" boundary-string=""  stroke="lightblue" x1="301.6" y1="232.377" x2="306.8" y2="232.729" />
<line fill="none" stroke-width="3" boundary-string=""  stroke="lightblue" x1="306.8" y1="232.729" x2="312" y2="233.485" />
<line fill="none" stroke-width="3" boundary-string=""  stroke="lightblue" x1="312" y1="233.485" x2="317.2" y2="234.642" />
<line fill="none" stroke-width="3" boundary-string=""  stroke="lightblue" x1="317.2" y1="234.642" x2="322.4" y2="236.194" />
<line fill="none" stroke-width="3" boundary-string=""  stroke="lightblue" x1="322.4" y1="236.194" x2="327.6" y2="238.132" />
<line fill="none" stroke-width="3" boundary-string=""  stroke="lightblue" x1="327.6" y1="238.132" x2="332.8" y2="240.448" />
<line fill="none" stroke-width="3" boundary-string=""  stroke="lightblue" x1="332.8" y1="240.448" x2="338" y2="243.131" />
<line fill="none" stroke-width="3" boundary-string=""  stroke="lightblue" x1="338" y1="243.131" x2="343.2" y2="246.168" />
<line fill="none" stroke-width="3" boundary-string=""  stroke="lightblue" x1="343.2" y1="246.168" x2="348.4" y2="249.547" />
<line fill="none" stroke-width="3" boundary-string=""  stroke="lightblue" x1="348.4" y1="249.547" x2="353.6" y2="253.254" />
<line fill="none" stroke-width="3" boundary-string=""  stroke="lightblue" x1="353.6" y1="253.254" x2="358.8" y2="257.276" />
<line fill="none" stroke-width="3" boundary-string=""  stroke="lightblue" x1="358.8" y1="257.276" x2="364" y2="261.596" />
<line fill="none" stroke-width="3" boundary-string=""  stroke="lightblue" x1="364" y1="261.596" x2="369.2" y2="266.202" />
<line fill="none" stroke-width="3" boundary-string=""  stroke="lightblue" x1="369.2" y1="266.202" x2="374.4" y2="271.078" />
<line fill="none" stroke-width="3" boundary-string=""  stroke="lightblue" x1="374.4" y1="271.078" x2="379.6" y2="276.21" />
<line fill="none" stroke-width="3" boundary-string=""  stroke="lightblue" x1="379.6" y1="276.21" x2="384.8" y2="281.584" />
<line fill="none" stroke-width="3" boundary-string=""  stroke="lightblue" x1="384.8" y1="281.584" x2="390" y2="285.808" />
<line fill="none" stroke-width="3" boundary-string=""  stroke="lightblue" x1="390" y1="285.808" x2="395.2" y2="278.76" />
<line fill="none" stroke-width="3" boundary-string=""  stroke="lightblue" x1="395.2" y1="278.76" x2="400.4" y2="266.222" />
<line fill="none" stroke-width="3" boundary-string=""  stroke="lightblue" x1="400.4" y1="266.222" x2="405.6" y2="253.804" />
<line fill="none" stroke-width="3" boundary-string=""  stroke="lightblue" x1="405.6" y1="253.804" x2="410.8" y2="241.523" />
<line fill="none" stroke-width="3" boundary-string=""  stroke="lightblue" x1="410.8" y1="241.523" x2="416" y2="229.402" />
<line fill="none" stroke-width="3" boundary-string=""  stroke="lightblue" x1="416" y1="229.402" x2="421.2" y2="217.468" />
<line fill="none" stroke-width="3" boundary-string=""  stroke="lightblue" x1="421.2" y1="217.468" x2="426.4" y2="205.752" />
<line fill="none" stroke-width="3" boundary-string=""  stroke="lightblue" x1="426.4" y1="205.752" x2="431.6" y2="194.295" />
<line fill="none" stroke-width="3" boundary-string=""  stroke="lightblue" x1="431.6" y1="194.295" x2="436.8" y2="183.145" />
<line fill="none" stroke-width="3" boundary-string=""  stroke="lightblue" x1="436.8" y1="183.145" x2="442" y2="172.362" />
<line fill="none" stroke-width="3" boundary-string=""  stroke="lightblue" x1="442" y1="172.362" x2="447.2" y2="162.018" />
<line fill="none" stroke-width="3" boundary-string=""  stroke="lightblue" x1="447.2" y1="162.018" x2="452.4" y2="152.204" />
<line fill="none" stroke-width="3" boundary-string=""  stroke="lightblue" x1="452.4" y1="152.204" x2="457.6" y2="143.029" />
<line fill="none" stroke-width="3" boundary-string=""  stroke="lightblue" x1="457.6" y1="143.029" x2="462.8" y2="134.623" />
<line fill="none" stroke-width="3" boundary-string=""  stroke="lightblue" x1="462.8" y1="134.623" x2="468" y2="127.138" />
<line fill="none" stroke-width="3" boundary-string=""  stroke="lightblue" x1="468" y1="127.138" x2="473.2" y2="120.748" />
<line fill="none" stroke-width="3" boundary-string=""  stroke="lightblue" x1="473.2" y1="120.748" x2="478.4" y2="108.28" />
<line fill="none" stroke-width="3" boundary-string=""  stroke="lightblue" x1="478.4" y1="108.28" x2="483.6" y2="94.6026" />
<line fill="none" stroke-width="3" boundary-string=""  stroke="lightblue" x1="483.6" y1="94.6026" x2="488.8" y2="80.9295" />
<line fill="none" stroke-width="3" boundary-string=""  stroke="lightblue" x1="488.8" y1="80.9295" x2="494" y2="67.2637" />
<line fill="none" stroke-width="3" boundary-string=""  stroke="lightblue" x1="494" y1="67.2637" x2="499.2" y2="53.611" />
<line fill="none" stroke-width="3" boundary-string=""  stroke="lightblue" x1="499.2" y1="53.611" x2="504.4" y2="39.9847" />
<line fill="none" stroke-width="3" boundary-string=""  stroke="lightblue" x1="504.4" y1="39.9847" x2="509.6" y2="26.4255" />
<line fill="none" stroke-width="3" boundary-string=""  stroke="lightblue" x1="509.6" y1="26.4255" x2="514.8" y2="13.1432" />
<line fill="none" stroke-width="3" boundary-string=""  stroke="lightblue" x1="514.8" y1="13.1432" x2="520" y2="0" />

<!--Draw the X and Y axes -->
<polyline fill="none" stroke="black" stroke-width="6"  points=" 600,0 0,0 0,520" />
<!-- -->


<!--Draw labels and tics for X axis -->

<line fill="none" stroke="black"  stroke-width="6"  x1="0.5" y1="0" x2="0.5" y2="-20" />
<text transform="scale(1,-1)" font-family="sans-serif" font-size="30" x="-24.5" y="45" >0 </text>
<line fill="none" stroke="black"  stroke-width="6"  x1="104.5" y1="0" x2="104.5" y2="-20" />
<text transform="scale(1,-1)" font-family="sans-serif" font-size="30" x="79.5" y="45" >20 </text>
<line fill="none" stroke="black"  stroke-width="6"  x1="208.5" y1="0" x2="208.5" y2="-20" />
<text transform="scale(1,-1)" font-family="sans-serif" font-size="30" x="183.5" y="45" >40 </text>
<line fill="none" stroke="black"  stroke-width="6"  x1="312.5" y1="0" x2="312.5" y2="-20" />
<text transform="scale(1,-1)" font-family="sans-serif" font-size="30" x="287.5" y="45" >60 </text>
<line fill="none" stroke="black"  stroke-width="6"  x1="416.5" y1="0" x2="416.5" y2="-20" />
<text transform="scale(1,-1)" font-family="sans-serif" font-size="30" x="391.5" y="45" >80 </text>
<line fill="none" stroke="black"  stroke-width="6"  x1="520.5" y1="0" x2="520.5" y2="-20" />
<text transform="scale(1,-1)" font-family="sans-serif" font-size="30" x="495.5" y="45" >100 </text>


<!--Draw labels and tics for Y axis -->

<line fill="none" stroke="black" stroke-width="6" x1="0.0" y1="0" x2="-20" y2="0" />
<text transform="scale(1,-1)" text-anchor="end" font-family="sans-serif" font-size="30" x="-25" y="10" >0 </text>
<line fill="none" stroke="black" stroke-width="6" x1="0.0" y1="74.2857" x2="-20" y2="74.2857" />
<text transform="scale(1,-1)" text-anchor="end" font-family="sans-serif" font-size="30" x="-25" y="-64.2857" >20 </text>
<line fill="none" stroke="black" stroke-width="6" x1="0.0" y1="148.571" x2="-20" y2="148.571" />
<text transform="scale(1,-1)" text-anchor="end" font-family="sans-serif" font-size="30" x="-25" y="-138.571" >40 </text>
<line fill="none" stroke="black" stroke-width="6" x1="0.0" y1="222.857" x2="-20" y2="222.857" />
<text transform="scale(1,-1)" text-anchor="end" font-family="sans-serif" font-size="30" x="-25" y="-212.857" >60 </text>
<line fill="none" stroke="black" stroke-width="6" x1="0.0" y1="297.143" x2="-20" y2="297.143" />
<text transform="scale(1,-1)" text-anchor="end" font-family="sans-serif" font-size="30" x="-25" y="-287.143" >80 </text>
<line fill="none" stroke="black" stroke-width="6" x1="0.0" y1="371.429" x2="-20" y2="371.429" />
<text transform="scale(1,-1)" text-anchor="end" font-family="sans-serif" font-size="30" x="-25" y="-361.429" >100 </text>
<line fill="none" stroke="black" stroke-width="6" x1="0.0" y1="445.714" x2="-20" y2="445.714" />
<text transform="scale(1,-1)" text-anchor="end" font-family="sans-serif" font-size="30" x="-25" y="-435.714" >120 </text>
<line fill="none" stroke="black" stroke-width="6" x1="0.0" y1="520" x2="-20" y2="520" />
<text transform="scale(1,-1)" text-anchor="end" font-family="sans-serif" font-size="30" x="-25" y="-510" >140 </text>


<!--Draw Glitches -->

<line fill="none" stroke="black" stroke-width="2" x1="395.2" y1="266.222" x2="395.2" y2="216.222" />
<text transform="scale(1,-1)" font-family="sans-serif" font-size="30" x="400.2" y="-206.222" >76 </text>
<line fill="none" stroke="black" stroke-width="2" x1="473.2" y1="108.28" x2="473.2" y2="58.2803" />
<text transform="scale(1,-1)" font-family="sans-serif" font-size="30" x="478.2" y="-48.2803" >91 </text>

<!-- -->


<!-- Reduced vector followed by D7dist from the final reduced cell
-66.90269 -48.11726 -45.81105 -48.99678 -66.73947 -91.61987    (1.13687e-13,  0)   
-68.13333 -46.67357 -47.44449 -49.92223 -66.24455 -91.18933    (2.74838,  4.37518)   
-69.36397 -45.22988 -49.07793 -50.84768 -65.74963 -90.75880    (5.49676,  8.75037)   
-70.59461 -43.78619 -50.71137 -51.77313 -65.25472 -90.32826    (8.24515,  13.1256)   
-71.82525 -42.34251 -52.34481 -52.69859 -64.75980 -89.89772    (10.9935,  17.5007)   
-73.05589 -40.89882 -53.97825 -53.62404 -64.26488 -89.46719    (13.7419,  21.8759)   
-74.28654 -39.45513 -55.61169 -54.54949 -63.76996 -89.03665    (16.4903,  26.2511)   
-75.51718 -38.01144 -57.24513 -55.47495 -63.27505 -88.60612    (19.2387,  30.6263)   
-76.74782 -36.56775 -58.87857 -56.40040 -62.78013 -88.17558    (21.9871,  35.0015)   
-77.97846 -35.12407 -60.51201 -57.32585 -62.28521 -87.74504    (24.7354,  39.3767)   
-79.20910 -62.14545 -33.68038 -58.25131 -87.31451 -61.79030    (27.4838,  43.7518)   
-80.43974 -63.77889 -32.23669 -59.17676 -86.88397 -61.29538    (30.2322,  48.127)   
-86.45343 -60.10221 -30.79300 -65.41233 -81.67038 -60.80046    (32.9806,  52.5022)   
-86.02290 -61.02767 -29.34932 -67.04577 -82.90102 -60.30555    (35.729,  56.8774)   
-85.59236 -61.95312 -27.90563 -68.67921 -84.13166 -59.81063    (38.4773,  61.2526)   
-85.16183 -62.87857 -26.46194 -70.31265 -85.36230 -59.31571    (40.5251,  64.7491)   
-84.73129 -63.80403 -25.01825 -71.94609 -86.59294 -58.82080    (42.3062,  67.9161)   
-84.30075 -64.72948 -23.57457 -73.57953 -87.82359 -58.32588    (44.1866,  71.2112)   
-83.87022 -65.65493 -22.13088 -75.21297 -89.05423 -57.83096    (46.1541,  74.6174)   
-83.43968 -66.58039 -20.68719 -76.84641 -90.28487 -57.33604    (48.1981,  78.1201)   
-83.00914 -67.50584 -19.24350 -78.47985 -91.51551 -56.84113    (50.3092,  81.7071)   
-82.57861 -68.43129 -17.79981 -80.11329 -92.74615 -56.34621    (52.4794,  85.3675)   
-82.14807 -69.35675 -16.35613 -81.74673 -93.97679 -55.85129    (54.7015,  89.0925)   
-81.71754 -70.28220 -14.91244 -83.38017 -95.20743 -55.35638    (56.9696,  92.8742)   
-81.28700 -71.20765 -13.46875 -85.01361 -96.43807 -54.86146    (59.2784,  96.7059)   
-80.85646 -72.13311 -12.02506 -86.64704 -97.66871 -54.36654    (61.6233,  100.582)   
-80.42593 -73.05856 -10.58138 -88.28048 -98.89935 -53.87163    (64.0002,  104.498)   
-79.99539 -73.98401  -9.13769 -89.91392 -100.13000 -53.37671    (66.4059,  108.448)   
-79.56485 -74.90947  -7.69400 -91.54736 -101.36064 -52.88179    (68.8372,  112.43)   
-79.13432 -75.83492  -6.25031 -93.18080 -102.59128 -52.38688    (71.2915,  116.441)   
-78.70378 -76.76037  -4.80662 -94.81424 -103.82192 -51.89196    (73.7666,  120.476)   
-78.27324 -77.68583  -3.36294 -96.44768 -105.05256 -51.39704    (76.2604,  124.535)   
-77.84271 -78.61128  -1.91925 -98.08112 -106.28320 -50.90212    (78.7712,  128.614)   
-77.41217 -79.53673  -0.47556 -99.71456 -107.51384 -50.40721    (81.2973,  132.713)   
-76.01351 -100.37987  -0.96813 -79.49406 -107.77636 -50.88042    (82.0148,  133.911)   
-74.13929 -100.56963  -2.41181 -78.97582 -107.56331 -51.82919    (80.7162,  132.307)   
-72.26506 -100.75938  -3.85550 -78.45759 -107.35026 -52.77796    (79.4826,  130.788)   
-100.94913 -70.39084  -5.29919 -107.13721 -77.93936 -53.72673    (78.317,  129.357)   
-101.13888 -68.51661  -6.74288 -106.92417 -77.42112 -54.67550    (77.2225,  128.017)   
-101.32863 -66.64239  -8.18657 -106.71112 -76.90289 -55.62427    (76.2022,  126.771)   
-101.51839 -64.76816  -9.63025 -106.49807 -76.38465 -56.57304    (75.2591,  125.622)   
-101.70814 -62.89394 -11.07394 -106.28503 -75.86642 -57.52181    (74.0913,  124.208)   
-101.89789 -61.01972 -12.51763 -106.07198 -75.34818 -58.47058    (72.7228,  122.562)   
-102.08764 -59.14549 -13.96132 -105.85893 -74.82995 -59.41935    (71.4239,  121.006)   
-102.27739 -57.27127 -15.40500 -105.64589 -74.31171 -60.36813    (70.1985,  119.545)   
-102.46714 -55.39704 -16.84869 -105.43284 -73.79348 -61.31690    (69.0507,  118.182)   
-102.65690 -53.52282 -18.29238 -105.21979 -73.27524 -62.26567    (67.9842,  116.92)   
-102.84665 -51.64860 -19.73607 -105.00675 -72.75701 -63.21444    (67.0029,  115.763)   
-103.03640 -49.77437 -21.17975 -104.79370 -72.23878 -64.16321    (66.1108,  114.713)   
-103.22615 -47.90015 -22.62344 -104.58065 -71.72054 -65.11198    (65.3113,  113.774)   
-103.41590 -46.02592 -24.06713 -104.36761 -71.20231 -66.06075    (64.608,  112.949)   
-103.60566 -44.15170 -25.51082 -104.15456 -70.68407 -67.00952    (64.0041,  112.24)   
-103.79541 -42.27748 -26.95451 -103.94151 -70.16584 -67.95829    (63.5023,  111.649)   
-103.98516 -40.40325 -28.39819 -103.72847 -69.64760 -68.90706    (63.1051,  111.178)   
-104.17491 -38.52903 -29.84188 -103.51542 -69.12937 -69.85583    (62.8145,  110.828)   
-104.36466 -36.65480 -31.28557 -103.30237 -68.61113 -70.80460    (62.6319,  110.602)   
-104.55442 -34.78058 -32.72926 -103.08932 -68.09290 -71.75338    (62.5584,  110.499)   
-104.74417 -32.90636 -34.17294 -102.87628 -67.57466 -72.70215    (62.5631,  110.484)   
-104.93392 -31.03213 -35.61663 -102.66323 -67.05643 -73.65092    (62.6578,  110.572)   
-105.12367 -29.15791 -37.06032 -102.45018 -66.53820 -74.59969    (62.8615,  110.783)   
-105.31342 -38.50401 -27.28368 -102.23714 -75.54846 -66.01996    (63.1729,  111.117)   
-105.50317 -39.94770 -25.40946 -102.02409 -76.49723 -65.50173    (63.5906,  111.573)   
-105.69293 -41.39138 -23.53524 -101.81104 -77.44600 -64.98349    (64.1125,  112.15)   
-105.88268 -42.83507 -21.66101 -101.59800 -78.39477 -64.46526    (64.736,  112.845)   
-106.07243 -44.27876 -19.78679 -101.38495 -79.34354 -63.94702    (65.4582,  113.656)   
-106.26218 -45.72245 -17.91256 -101.17190 -80.29231 -63.42879    (66.276,  114.581)   
-106.45193 -47.16613 -16.03834 -100.95886 -81.24108 -62.91055    (67.1858,  115.617)   
-106.64169 -48.60982 -14.16412 -100.74581 -82.18985 -62.39232    (68.1839,  116.761)   
-106.83144 -50.05351 -12.28989 -100.53276 -83.13862 -61.87409    (69.2665,  118.01)   
-107.02119 -51.49720 -10.41567 -100.31972 -84.08740 -61.35585    (70.4298,  119.361)   
-107.21094 -52.94089  -8.54144 -100.10667 -85.03617 -60.83762    (71.6697,  120.81)   
-107.40069 -54.38457  -6.66722 -99.89362 -85.98494 -60.31938    (72.9825,  122.354)   
-107.59044 -55.82826  -4.79299 -99.68058 -86.93371 -59.80115    (74.3642,  123.99)   
-107.78020 -57.27195  -2.91877 -99.46753 -87.88248 -59.28291    (75.811,  125.713)   
-107.96995 -58.71564  -1.04455 -99.25448 -88.83125 -58.76468    (76.9482,  127.335)   
-88.95034 -59.32965  -0.82968 -98.21176 -107.33002 -59.07612    (75.0508,  124.15)   
-88.02489 -58.89911  -2.70390 -96.12449 -105.64555 -60.43211    (71.6752,  118.676)   
-87.09944 -58.46857  -4.57813 -94.03722 -103.96108 -61.78810    (68.3318,  113.242)   
-86.17398 -58.03804  -6.45235 -91.94995 -102.27661 -63.14409    (65.0255,  107.853)   
-85.24853 -57.60750  -8.32657 -89.86267 -100.59213 -64.50008    (61.7621,  102.516)   
-84.32308 -57.17697 -10.20080 -87.77540 -98.90766 -65.85607    (58.549,  97.2399)   
-83.39762 -56.74643 -12.07502 -85.68813 -97.22319 -67.21206    (55.3948,  92.0345)   
-82.47217 -56.31589 -13.94925 -83.60086 -95.53872 -68.56805    (52.3102,  86.9129)   
-81.54672 -55.88536 -15.82347 -81.51359 -93.85425 -69.92404    (49.3083,  81.8908)   
-80.62126 -55.45482 -17.69769 -79.42632 -92.16977 -71.28003    (46.405,  76.9878)   
-79.69581 -55.02428 -19.57192 -77.33905 -90.48530 -72.63602    (43.6202,  72.2279)   
-78.77036 -54.59375 -21.44614 -75.25178 -88.80083 -73.99201    (40.978,  67.6416)   
-77.84490 -54.16321 -23.32037 -73.16451 -87.11636 -75.34800    (38.5077,  63.2665)   
-76.91945 -53.73267 -25.19459 -71.07724 -85.43188 -76.70399    (36.2445,  59.1496)   
-75.99400 -53.30214 -27.06881 -68.98997 -83.74741 -78.05997    (34.2296,  55.3484)   
-75.06854 -52.87160 -28.94304 -66.90269 -82.06294 -79.41596    (32.509,  51.9323)   
-74.14309 -52.44107 -30.81726 -64.81542 -80.37847 -80.77195    (29.1524,  46.4822)   
-73.21764 -52.01053 -32.69149 -62.72815 -78.69400 -82.12794    (25.4699,  40.6238)   
-72.29219 -51.57999 -34.56571 -60.64088 -77.00952 -83.48393    (21.7887,  34.7669)   
-71.36673 -51.14946 -36.43993 -58.55361 -75.32505 -84.83992    (18.1095,  28.9125)   
-70.44128 -50.71892 -38.31416 -56.46634 -73.64058 -86.19591    (14.4337,  23.0626)   
-69.51583 -50.28838 -40.18838 -54.37907 -71.95611 -87.55190    (10.7651,  17.2217)   
-68.59037 -49.85785 -42.06261 -52.29180 -70.27163 -88.90789    (7.11456,  11.4034)   
-67.66492 -49.42731 -43.93683 -50.20453 -68.58716 -90.26388    (3.53855,  5.67836)   
-66.90269 -48.11726 -45.81105 -48.99678 -66.73947 -91.61987    (0,  1.07896e-05)   
-->
</g>
</g>
<!-- Run Constants
CIRCLEPLOT bool false
DISTANCEPLOT bool true
PRINTDISTANCEDATA bool true
GLITCHESONLY bool false
PLOT 2doubles 3 4
PERTURBBY double 0.05
GLITCHLEVEL double 3
BOUNDARYWINDOW double 0.065
FRAMESPERPATH int 200
STEPSPERFRAME int 100
TRIALS int 1
ALLBLACK bool false
FILEPREFIX string Fol
GRAPHSIZE int 0
BORDER int 0
PLOTSIZE int 0
CIRCLEPLOTSIZE int 2000
CIRCLERADIUS int 300
CIRCLESTROKEWIDTH int 30
G6LINEWIDTH int 3
DELONELINEWIDTH int 10
AXISWIDTH int 6
TICLENGTH int 20
VECTOR g6 
PERTURB g6Perturb 
MOVIEMODE MovieMode STAR
FOLLOWERMODE FollowerMode Follow
FIXRANDOMSEED fixRandomSeed true
RANDOMSEED int 18
TIMESTAMP bool true
END end 




-->
</svg>
