<?xml version="1.0" standalone="no"?>
<!-- the width and height set the total pixel output of the image in the browser -->
<!-- whatever is within the viewbox will be remapped to show in this size -->
<svg width="1000" height="1000" viewBox="1 0 1000 1000"  version="1.1" xmlns="http://www.w3.org/2000/svg" xmlns:xlink="http://www.w3.org/1999/xlink">
 <desc>ID (and file name) = Fol_2018-02-12.11_44_04.14_0.svg </desc> 
 <text x="280"  y="30"  font-family="sans-serif" font-size="20" > Trial vector = 0  </text> 
 <text x="700" y="30" font-family="sans-serif" font-size="20">Wall time passed: 30996 msec.</text>
<text x="450" y="30" font-family="sans-serif" font-size="20" fill="black" > Plotting g5 vs. g4</text>
<text x="300" y="60"  font-family="sans-serif" font-size="20" > Beginning vector  3986.52598 2480.83254 3793.27524 -15664.15344 -12502.75261 -10006.63576 </text>
<text x="300" y="85"  font-family="sans-serif" font-size="20" > Beginning cell   96.90225  68.72373  59.49182   0.22381   1.12593   0.96477 </text>
<text x="300" y="110"  font-family="sans-serif" font-size="20" > Ending vector  511.47001 133.44059 131.10457 -553.72182 -3549.56349 -4139.94569 </text>
<text x="300" y="135"  font-family="sans-serif" font-size="20" > Ending cell   17.00520  53.91650  59.11882   1.40964   1.43767   1.42731 </text>

<text x="300" y="160"  font-family="sans-serif" font-size="20" > Glitch  3846.11968 2385.98842 3645.30875 -15053.63095 -12141.00759 -9769.59778  (1785.17 )</text>
<text x="300" y="185"  font-family="sans-serif" font-size="20" > Glitch  3881.22126 2409.69945 3682.30037 -15206.26157 -12231.44385 -9828.85728  (1575.66)</text>



 <!--DISTANCE PLOT BEGINS-->


<!-- the following will scale and place the distance plot -->
<g  transform="translate(0,50) ">
<g transform="translate(150,700) scale(1 -1)">
   <polyline fill="none" stroke="black" stroke-width="10" points=" 5.2 ,0  10.4 ,137.231  15.6 ,229.013  20.8 ,302.782  26 ,345.967  31.2 ,382.458  36.4 ,399.534  41.6 ,411.449  46.8 ,420.291  52 ,430.036  57.2 ,440.623  62.4 ,451.455  67.6 ,462.049  72.8 ,473.052  78 ,481.416  83.2 ,490.33  88.4 ,497.941  93.6 ,497.293  98.8 ,496.894  104 ,496.83  109.2 ,490.824  114.4 ,483.783  119.6 ,476.921  124.8 ,470.244  130 ,463.763  135.2 ,457.484  140.4 ,451.021  145.6 ,444.326  150.8 ,437.834  156 ,431.554  161.2 ,425.496  166.4 ,419.669  171.6 ,414.084  176.8 ,408.749  182 ,403.676  187.2 ,398.873  192.4 ,394.351  197.6 ,390.119  202.8 ,386.188  208 ,382.566  213.2 ,379.262  218.4 ,376.285  223.6 ,373.643  228.8 ,371.342  234 ,369.388  239.2 ,367.789  244.4 ,366.547  249.6 ,365.668  254.8 ,365.152  260 ,365.002  265.2 ,365.217  270.4 ,365.798  275.6 ,366.745  280.8 ,368.053  286 ,369.719  291.2 ,371.738  296.4 ,370.58  301.6 ,366.577  306.8 ,362.886  312 ,359.543  317.2 ,356.559  322.4 ,353.945  327.6 ,351.71  332.8 ,349.865  338 ,348.417  343.2 ,347.374  348.4 ,346.743  353.6 ,346.174  358.8 ,343.198  364 ,340.909  369.2 ,335.589  374.4 ,324.023  379.6 ,312.457  384.8 ,300.893  390 ,289.33  395.2 ,277.768  400.4 ,266.207  405.6 ,254.648  410.8 ,243.091  416 ,231.535  421.2 ,219.981  426.4 ,208.428  431.6 ,196.873  436.8 ,185.31  442 ,173.748  447.2 ,162.185  452.4 ,150.623  457.6 ,139.061  462.8 ,127.499  468 ,115.937  473.2 ,104.376  478.4 ,92.8142  483.6 ,81.2529  488.8 ,69.6918  494 ,58.1312  499.2 ,46.5713  504.4 ,35.0127  509.6 ,23.4576  514.8 ,11.9158  520 ,1.63217e-05  " />

<!--Draw the X and Y axes -->
<polyline fill="none" stroke="black" stroke-width="6"  points=" 600,0 0,0 0,520" />
<!-- -->

<line fill="none" stroke-width="3" boundary-string=""  stroke="lightblue" x1="0" y1="1.26066e-12" x2="5.2" y2="1.26066e-12" />
<line fill="none" stroke-width="3" boundary-string=""  stroke="lightblue" x1="5.2" y1="1.26066e-12" x2="10.4" y2="70.8039" />
<line fill="none" stroke-width="3" boundary-string=""  stroke="lightblue" x1="10.4" y1="70.8039" x2="15.6" y2="112.884" />
<line fill="none" stroke-width="3" boundary-string=""  stroke="lightblue" x1="15.6" y1="112.884" x2="20.8" y2="148.971" />
<line fill="none" stroke-width="3" boundary-string=""  stroke="lightblue" x1="20.8" y1="148.971" x2="26" y2="168.78" />
<line fill="none" stroke-width="3" boundary-string=""  stroke="lightblue" x1="26" y1="168.78" x2="31.2" y2="185.631" />
<line fill="none" stroke-width="3" boundary-string=""  stroke="lightblue" x1="31.2" y1="185.631" x2="36.4" y2="181.773" />
<line fill="none" stroke-width="3" boundary-string=""  stroke="lightblue" x1="36.4" y1="181.773" x2="41.6" y2="180.312" />
<line fill="none" stroke-width="3" boundary-string=""  stroke="lightblue" x1="41.6" y1="180.312" x2="46.8" y2="179.436" />
<line fill="none" stroke-width="3" boundary-string=""  stroke="lightblue" x1="46.8" y1="179.436" x2="52" y2="179.445" />
<line fill="none" stroke-width="3" boundary-string=""  stroke="lightblue" x1="52" y1="179.445" x2="57.2" y2="180.34" />
<line fill="none" stroke-width="3" boundary-string=""  stroke="lightblue" x1="57.2" y1="180.34" x2="62.4" y2="180.712" />
<line fill="none" stroke-width="3" boundary-string=""  stroke="lightblue" x1="62.4" y1="180.712" x2="67.6" y2="181.804" />
<line fill="none" stroke-width="3" boundary-string=""  stroke="lightblue" x1="67.6" y1="181.804" x2="72.8" y2="183.755" />
<line fill="none" stroke-width="3" boundary-string=""  stroke="lightblue" x1="72.8" y1="183.755" x2="78" y2="186.451" />
<line fill="none" stroke-width="3" boundary-string=""  stroke="lightblue" x1="78" y1="186.451" x2="83.2" y2="189.856" />
<line fill="none" stroke-width="3" boundary-string=""  stroke="lightblue" x1="83.2" y1="189.856" x2="88.4" y2="193.147" />
<line fill="none" stroke-width="3" boundary-string=""  stroke="lightblue" x1="88.4" y1="193.147" x2="93.6" y2="193.446" />
<line fill="none" stroke-width="3" boundary-string=""  stroke="lightblue" x1="93.6" y1="193.446" x2="98.8" y2="194.169" />
<line fill="none" stroke-width="3" boundary-string=""  stroke="lightblue" x1="98.8" y1="194.169" x2="104" y2="195.312" />
<line fill="none" stroke-width="3" boundary-string=""  stroke="lightblue" x1="104" y1="195.312" x2="109.2" y2="193.482" />
<line fill="none" stroke-width="3" boundary-string=""  stroke="lightblue" x1="109.2" y1="193.482" x2="114.4" y2="189.767" />
<line fill="none" stroke-width="3" boundary-string=""  stroke="lightblue" x1="114.4" y1="189.767" x2="119.6" y2="186.266" />
<line fill="none" stroke-width="3" boundary-string=""  stroke="lightblue" x1="119.6" y1="186.266" x2="124.8" y2="182.99" />
<line fill="none" stroke-width="3" boundary-string=""  stroke="lightblue" x1="124.8" y1="182.99" x2="130" y2="179.953" />
<line fill="none" stroke-width="3" boundary-string=""  stroke="lightblue" x1="130" y1="179.953" x2="135.2" y2="177.166" />
<line fill="none" stroke-width="3" boundary-string=""  stroke="lightblue" x1="135.2" y1="177.166" x2="140.4" y2="174.641" />
<line fill="none" stroke-width="3" boundary-string=""  stroke="lightblue" x1="140.4" y1="174.641" x2="145.6" y2="171.607" />
<line fill="none" stroke-width="3" boundary-string=""  stroke="lightblue" x1="145.6" y1="171.607" x2="150.8" y2="168.802" />
<line fill="none" stroke-width="3" boundary-string=""  stroke="lightblue" x1="150.8" y1="168.802" x2="156" y2="166.271" />
<line fill="none" stroke-width="3" boundary-string=""  stroke="lightblue" x1="156" y1="166.271" x2="161.2" y2="164.029" />
<line fill="none" stroke-width="3" boundary-string=""  stroke="lightblue" x1="161.2" y1="164.029" x2="166.4" y2="162.086" />
<line fill="none" stroke-width="3" boundary-string=""  stroke="lightblue" x1="166.4" y1="162.086" x2="171.6" y2="160.453" />
<line fill="none" stroke-width="3" boundary-string=""  stroke="lightblue" x1="171.6" y1="160.453" x2="176.8" y2="159.141" />
<line fill="none" stroke-width="3" boundary-string=""  stroke="lightblue" x1="176.8" y1="159.141" x2="182" y2="158.156" />
<line fill="none" stroke-width="3" boundary-string=""  stroke="lightblue" x1="182" y1="158.156" x2="187.2" y2="157.505" />
<line fill="none" stroke-width="3" boundary-string=""  stroke="lightblue" x1="187.2" y1="157.505" x2="192.4" y2="157.193" />
<line fill="none" stroke-width="3" boundary-string=""  stroke="lightblue" x1="192.4" y1="157.193" x2="197.6" y2="157.221" />
<line fill="none" stroke-width="3" boundary-string=""  stroke="lightblue" x1="197.6" y1="157.221" x2="202.8" y2="157.589" />
<line fill="none" stroke-width="3" boundary-string=""  stroke="lightblue" x1="202.8" y1="157.589" x2="208" y2="158.295" />
<line fill="none" stroke-width="3" boundary-string=""  stroke="lightblue" x1="208" y1="158.295" x2="213.2" y2="159.335" />
<line fill="none" stroke-width="3" boundary-string=""  stroke="lightblue" x1="213.2" y1="159.335" x2="218.4" y2="160.7" />
<line fill="none" stroke-width="3" boundary-string=""  stroke="lightblue" x1="218.4" y1="160.7" x2="223.6" y2="162.385" />
<line fill="none" stroke-width="3" boundary-string=""  stroke="lightblue" x1="223.6" y1="162.385" x2="228.8" y2="164.378" />
<line fill="none" stroke-width="3" boundary-string=""  stroke="lightblue" x1="228.8" y1="164.378" x2="234" y2="166.669" />
<line fill="none" stroke-width="3" boundary-string=""  stroke="lightblue" x1="234" y1="166.669" x2="239.2" y2="169.245" />
<line fill="none" stroke-width="3" boundary-string=""  stroke="lightblue" x1="239.2" y1="169.245" x2="244.4" y2="172.095" />
<line fill="none" stroke-width="3" boundary-string=""  stroke="lightblue" x1="244.4" y1="172.095" x2="249.6" y2="175.203" />
<line fill="none" stroke-width="3" boundary-string=""  stroke="lightblue" x1="249.6" y1="175.203" x2="254.8" y2="178.558" />
<line fill="none" stroke-width="3" boundary-string=""  stroke="lightblue" x1="254.8" y1="178.558" x2="260" y2="182.145" />
<line fill="none" stroke-width="3" boundary-string=""  stroke="lightblue" x1="260" y1="182.145" x2="265.2" y2="185.951" />
<line fill="none" stroke-width="3" boundary-string=""  stroke="lightblue" x1="265.2" y1="185.951" x2="270.4" y2="189.962" />
<line fill="none" stroke-width="3" boundary-string=""  stroke="lightblue" x1="270.4" y1="189.962" x2="275.6" y2="194.166" />
<line fill="none" stroke-width="3" boundary-string=""  stroke="lightblue" x1="275.6" y1="194.166" x2="280.8" y2="198.551" />
<line fill="none" stroke-width="3" boundary-string=""  stroke="lightblue" x1="280.8" y1="198.551" x2="286" y2="203.106" />
<line fill="none" stroke-width="3" boundary-string=""  stroke="lightblue" x1="286" y1="203.106" x2="291.2" y2="204.378" />
<line fill="none" stroke-width="3" boundary-string=""  stroke="lightblue" x1="291.2" y1="204.378" x2="296.4" y2="203.248" />
<line fill="none" stroke-width="3" boundary-string=""  stroke="lightblue" x1="296.4" y1="203.248" x2="301.6" y2="202.377" />
<line fill="none" stroke-width="3" boundary-string=""  stroke="lightblue" x1="301.6" y1="202.377" x2="306.8" y2="201.768" />
<line fill="none" stroke-width="3" boundary-string=""  stroke="lightblue" x1="306.8" y1="201.768" x2="312" y2="201.422" />
<line fill="none" stroke-width="3" boundary-string=""  stroke="lightblue" x1="312" y1="201.422" x2="317.2" y2="201.343" />
<line fill="none" stroke-width="3" boundary-string=""  stroke="lightblue" x1="317.2" y1="201.343" x2="322.4" y2="201.529" />
<line fill="none" stroke-width="3" boundary-string=""  stroke="lightblue" x1="322.4" y1="201.529" x2="327.6" y2="201.98" />
<line fill="none" stroke-width="3" boundary-string=""  stroke="lightblue" x1="327.6" y1="201.98" x2="332.8" y2="202.694" />
<line fill="none" stroke-width="3" boundary-string=""  stroke="lightblue" x1="332.8" y1="202.694" x2="338" y2="203.669" />
<line fill="none" stroke-width="3" boundary-string=""  stroke="lightblue" x1="338" y1="203.669" x2="343.2" y2="204.901" />
<line fill="none" stroke-width="3" boundary-string=""  stroke="lightblue" x1="343.2" y1="204.901" x2="348.4" y2="206.385" />
<line fill="none" stroke-width="3" boundary-string=""  stroke="lightblue" x1="348.4" y1="206.385" x2="353.6" y2="208.116" />
<line fill="none" stroke-width="3" boundary-string=""  stroke="lightblue" x1="353.6" y1="208.116" x2="358.8" y2="208.252" />
<line fill="none" stroke-width="3" boundary-string=""  stroke="lightblue" x1="358.8" y1="208.252" x2="364" y2="208.179" />
<line fill="none" stroke-width="3" boundary-string=""  stroke="lightblue" x1="364" y1="208.179" x2="369.2" y2="208.364" />
<line fill="none" stroke-width="3" boundary-string=""  stroke="lightblue" x1="369.2" y1="208.364" x2="374.4" y2="204.887" />
<line fill="none" stroke-width="3" boundary-string=""  stroke="lightblue" x1="374.4" y1="204.887" x2="379.6" y2="197.57" />
<line fill="none" stroke-width="3" boundary-string=""  stroke="lightblue" x1="379.6" y1="197.57" x2="384.8" y2="190.253" />
<line fill="none" stroke-width="3" boundary-string=""  stroke="lightblue" x1="384.8" y1="190.253" x2="390" y2="182.936" />
<line fill="none" stroke-width="3" boundary-string=""  stroke="lightblue" x1="390" y1="182.936" x2="395.2" y2="175.619" />
<line fill="none" stroke-width="3" boundary-string=""  stroke="lightblue" x1="395.2" y1="175.619" x2="400.4" y2="168.302" />
<line fill="none" stroke-width="3" boundary-string=""  stroke="lightblue" x1="400.4" y1="168.302" x2="405.6" y2="160.985" />
<line fill="none" stroke-width="3" boundary-string=""  stroke="lightblue" x1="405.6" y1="160.985" x2="410.8" y2="153.668" />
<line fill="none" stroke-width="3" boundary-string=""  stroke="lightblue" x1="410.8" y1="153.668" x2="416" y2="146.351" />
<line fill="none" stroke-width="3" boundary-string=""  stroke="lightblue" x1="416" y1="146.351" x2="421.2" y2="139.034" />
<line fill="none" stroke-width="3" boundary-string=""  stroke="lightblue" x1="421.2" y1="139.034" x2="426.4" y2="131.717" />
<line fill="none" stroke-width="3" boundary-string=""  stroke="lightblue" x1="426.4" y1="131.717" x2="431.6" y2="124.399" />
<line fill="none" stroke-width="3" boundary-string=""  stroke="lightblue" x1="431.6" y1="124.399" x2="436.8" y2="117.082" />
<line fill="none" stroke-width="3" boundary-string=""  stroke="lightblue" x1="436.8" y1="117.082" x2="442" y2="109.765" />
<line fill="none" stroke-width="3" boundary-string=""  stroke="lightblue" x1="442" y1="109.765" x2="447.2" y2="102.448" />
<line fill="none" stroke-width="3" boundary-string=""  stroke="lightblue" x1="447.2" y1="102.448" x2="452.4" y2="95.1313" />
<line fill="none" stroke-width="3" boundary-string=""  stroke="lightblue" x1="452.4" y1="95.1313" x2="457.6" y2="87.8142" />
<line fill="none" stroke-width="3" boundary-string=""  stroke="lightblue" x1="457.6" y1="87.8142" x2="462.8" y2="80.4972" />
<line fill="none" stroke-width="3" boundary-string=""  stroke="lightblue" x1="462.8" y1="80.4972" x2="468" y2="73.1803" />
<line fill="none" stroke-width="3" boundary-string=""  stroke="lightblue" x1="468" y1="73.1803" x2="473.2" y2="65.8633" />
<line fill="none" stroke-width="3" boundary-string=""  stroke="lightblue" x1="473.2" y1="65.8633" x2="478.4" y2="58.5464" />
<line fill="none" stroke-width="3" boundary-string=""  stroke="lightblue" x1="478.4" y1="58.5464" x2="483.6" y2="51.2296" />
<line fill="none" stroke-width="3" boundary-string=""  stroke="lightblue" x1="483.6" y1="51.2296" x2="488.8" y2="43.9129" />
<line fill="none" stroke-width="3" boundary-string=""  stroke="lightblue" x1="488.8" y1="43.9129" x2="494" y2="36.5963" />
<line fill="none" stroke-width="3" boundary-string=""  stroke="lightblue" x1="494" y1="36.5963" x2="499.2" y2="29.28" />
<line fill="none" stroke-width="3" boundary-string=""  stroke="lightblue" x1="499.2" y1="29.28" x2="504.4" y2="21.9642" />
<line fill="none" stroke-width="3" boundary-string=""  stroke="lightblue" x1="504.4" y1="21.9642" x2="509.6" y2="14.6499" />
<line fill="none" stroke-width="3" boundary-string=""  stroke="lightblue" x1="509.6" y1="14.6499" x2="514.8" y2="7.34107" />
<line fill="none" stroke-width="3" boundary-string=""  stroke="lightblue" x1="514.8" y1="7.34107" x2="520" y2="1.52008e-13" />

<!--Draw the X and Y axes -->
<polyline fill="none" stroke="black" stroke-width="6"  points=" 600,0 0,0 0,520" />
<!-- -->


<!--Draw labels and tics for X axis -->

<line fill="none" stroke="black"  stroke-width="6"  x1="0.5" y1="0" x2="0.5" y2="-20" />
<text transform="scale(1,-1)" font-family="sans-serif" font-size="30" x="-24.5" y="45" >0 </text>
<line fill="none" stroke="black"  stroke-width="6"  x1="104.5" y1="0" x2="104.5" y2="-20" />
<text transform="scale(1,-1)" font-family="sans-serif" font-size="30" x="79.5" y="45" >20 </text>
<line fill="none" stroke="black"  stroke-width="6"  x1="208.5" y1="0" x2="208.5" y2="-20" />
<text transform="scale(1,-1)" font-family="sans-serif" font-size="30" x="183.5" y="45" >40 </text>
<line fill="none" stroke="black"  stroke-width="6"  x1="312.5" y1="0" x2="312.5" y2="-20" />
<text transform="scale(1,-1)" font-family="sans-serif" font-size="30" x="287.5" y="45" >60 </text>
<line fill="none" stroke="black"  stroke-width="6"  x1="416.5" y1="0" x2="416.5" y2="-20" />
<text transform="scale(1,-1)" font-family="sans-serif" font-size="30" x="391.5" y="45" >80 </text>
<line fill="none" stroke="black"  stroke-width="6"  x1="520.5" y1="0" x2="520.5" y2="-20" />
<text transform="scale(1,-1)" font-family="sans-serif" font-size="30" x="495.5" y="45" >100 </text>


<!--Draw labels and tics for Y axis -->

<line fill="none" stroke="black" stroke-width="6" x1="0.0" y1="0" x2="-20" y2="0" />
<text transform="scale(1,-1)" text-anchor="end" font-family="sans-serif" font-size="30" x="-25" y="10" >0 </text>
<line fill="none" stroke="black" stroke-width="6" x1="0.0" y1="47.2727" x2="-20" y2="47.2727" />
<text transform="scale(1,-1)" text-anchor="end" font-family="sans-serif" font-size="30" x="-25" y="-37.2727" >500 </text>
<line fill="none" stroke="black" stroke-width="6" x1="0.0" y1="94.5455" x2="-20" y2="94.5455" />
<text transform="scale(1,-1)" text-anchor="end" font-family="sans-serif" font-size="30" x="-25" y="-84.5455" >1000 </text>
<line fill="none" stroke="black" stroke-width="6" x1="0.0" y1="141.818" x2="-20" y2="141.818" />
<text transform="scale(1,-1)" text-anchor="end" font-family="sans-serif" font-size="30" x="-25" y="-131.818" >1500 </text>
<line fill="none" stroke="black" stroke-width="6" x1="0.0" y1="189.091" x2="-20" y2="189.091" />
<text transform="scale(1,-1)" text-anchor="end" font-family="sans-serif" font-size="30" x="-25" y="-179.091" >2000 </text>
<line fill="none" stroke="black" stroke-width="6" x1="0.0" y1="236.364" x2="-20" y2="236.364" />
<text transform="scale(1,-1)" text-anchor="end" font-family="sans-serif" font-size="30" x="-25" y="-226.364" >2500 </text>
<line fill="none" stroke="black" stroke-width="6" x1="0.0" y1="283.636" x2="-20" y2="283.636" />
<text transform="scale(1,-1)" text-anchor="end" font-family="sans-serif" font-size="30" x="-25" y="-273.636" >3000 </text>
<line fill="none" stroke="black" stroke-width="6" x1="0.0" y1="330.909" x2="-20" y2="330.909" />
<text transform="scale(1,-1)" text-anchor="end" font-family="sans-serif" font-size="30" x="-25" y="-320.909" >3500 </text>
<line fill="none" stroke="black" stroke-width="6" x1="0.0" y1="378.182" x2="-20" y2="378.182" />
<text transform="scale(1,-1)" text-anchor="end" font-family="sans-serif" font-size="30" x="-25" y="-368.182" >4000 </text>
<line fill="none" stroke="black" stroke-width="6" x1="0.0" y1="425.455" x2="-20" y2="425.455" />
<text transform="scale(1,-1)" text-anchor="end" font-family="sans-serif" font-size="30" x="-25" y="-415.455" >4500 </text>
<line fill="none" stroke="black" stroke-width="6" x1="0.0" y1="472.727" x2="-20" y2="472.727" />
<text transform="scale(1,-1)" text-anchor="end" font-family="sans-serif" font-size="30" x="-25" y="-462.727" >5000 </text>
<line fill="none" stroke="black" stroke-width="6" x1="0.0" y1="520" x2="-20" y2="520" />
<text transform="scale(1,-1)" text-anchor="end" font-family="sans-serif" font-size="30" x="-25" y="-510" >5500 </text>


<!--Draw Glitches -->

<line fill="none" stroke="black" stroke-width="2" x1="20.8" y1="168.78" x2="20.8" y2="118.78" />
<text transform="scale(1,-1)" font-family="sans-serif" font-size="30" x="25.8" y="-108.78" >4 </text>

<!-- -->


<!-- Reduced vector followed by D7dist from the final reduced cell
-380.36543 -155.73607 -131.10457  -2.33601 -2395.51890 -2981.22907    (1.33339e-11,  0)   
-869.94263 -63.19734 -72.00419 -205.38833 -2112.28528 -3421.11866    (748.888,  1451.49)   
-1189.72006 -109.87231 -14.06370 -268.06706 -1970.72403 -3719.33587    (1193.97,  2422.25)   
-1379.84539 -57.64790 -343.28469 -42.48369 -1814.80649 -4031.90939    (1575.66,  3202.51)   
-1499.06705 -269.66137 -186.19948 -38.96863 -1729.79263 -4195.64196    (1785.17,  3659.27)   
-1602.29508 -120.42095 -272.26737 -153.55437 -1660.77239 -4316.89084    (1963.4,  4045.22)   
-1474.79753 -201.87327 -358.33526 -37.44736 -1822.47773 -4438.13972    (1922.6,  4225.84)   
-1425.95962 -365.74351 -204.66595 -78.65964 -1905.52344 -4480.72897    (1907.15,  4351.87)   
-1414.56908 -335.70440 -170.01126 -194.76664 -1951.12178 -4485.87085    (1897.88,  4445.39)   
-1403.17853 -305.66528 -135.35658 -310.87365 -1996.72012 -4491.01273    (1897.98,  4548.46)   
-1391.78799 -275.62617 -100.70189 -426.98065 -2042.31846 -4496.15461    (1907.45,  4660.43)   
-1380.39744 -245.58706 -66.04721 -543.08765 -2087.91680 -4501.29649    (1911.38,  4775)   
-1369.00689 -215.54794 -31.39252 -659.19466 -2133.51514 -4506.43837    (1922.93,  4887.05)   
-1354.35418 -772.03950  -3.26216 -182.24667 -2175.85132 -4514.84241    (1943.56,  5003.43)   
-1308.30895 -853.49182 -37.91685 -117.55287 -2186.79497 -4554.63898    (1972.08,  5091.9)   
-1262.26372 -934.94413 -72.57153 -52.85907 -2197.73863 -4594.43554    (2008.09,  5186.19)   
-1228.05322 -95.39149 -1004.56172 -11.83473 -2196.84755 -4622.39738    (2042.9,  5266.69)   
-1246.70179 -65.35238 -1021.32024 -76.52853 -2143.09741 -4597.50014    (2046.06,  5259.83)   
-1265.35036 -35.31326 -1038.07876 -141.22233 -2089.34727 -4572.60291    (2053.71,  5255.61)   
-1283.99892  -5.27415 -1054.83728 -205.91612 -2035.59712 -4547.70568    (2065.8,  5254.93)   
-1277.88253 -24.76496 -245.84496 -1046.83084 -2006.61194 -4498.04348    (2046.45,  5191.41)   
-1266.49198 -54.80408 -280.49964 -1033.55025 -1982.90091 -4443.10713    (2007.16,  5116.94)   
-1255.10144 -84.84319 -315.15433 -1020.26965 -1959.18988 -4388.17079    (1970.12,  5044.35)   
-1243.71089 -114.88230 -349.80902 -1006.98906 -1935.47885 -4333.23444    (1935.48,  4973.74)   
-1232.32035 -144.92142 -384.46370 -993.70847 -1911.76782 -4278.29809    (1903.35,  4905.18)   
-1220.92980 -174.96053 -419.11839 -980.42787 -1888.05679 -4223.36175    (1873.87,  4838.77)   
-1209.53925 -204.99964 -453.77307 -967.14728 -1864.34576 -4168.42540    (1847.16,  4770.42)   
-1198.14871 -235.03876 -488.42776 -953.86669 -1840.63474 -4113.48905    (1815.07,  4699.6)   
-1186.75816 -265.07787 -523.08244 -940.58610 -1816.92371 -4058.55270    (1785.4,  4630.94)   
-1175.36762 -295.11698 -557.73713 -927.30550 -1793.21268 -4003.61636    (1758.64,  4564.52)   
-1163.97707 -325.15610 -592.39181 -914.02491 -1769.50165 -3948.68001    (1734.92,  4500.44)   
-1152.58653 -355.19521 -627.04650 -900.74432 -1745.79062 -3893.74366    (1714.37,  4438.81)   
-1141.19598 -385.23432 -661.70118 -887.46372 -1722.07959 -3838.80732    (1697.1,  4379.73)   
-1129.80543 -415.27344 -696.35587 -874.18313 -1698.36856 -3783.87097    (1683.22,  4323.31)   
-1118.41489 -445.31255 -731.01055 -860.90254 -1674.65753 -3728.93462    (1672.8,  4269.64)   
-1107.02434 -475.35166 -765.66524 -847.62194 -1650.94650 -3673.99828    (1665.92,  4218.85)   
-1095.63380 -505.39078 -800.31992 -834.34135 -1627.23547 -3619.06193    (1662.62,  4171.02)   
-1084.24325 -535.42989 -834.97461 -821.06076 -1603.52444 -3564.12558    (1662.92,  4126.26)   
-1072.85271 -565.46900 -869.62929 -807.78016 -1579.81341 -3509.18924    (1666.81,  4084.68)   
-1061.46216 -595.50812 -904.28398 -794.49957 -1556.10238 -3454.25289    (1674.28,  4046.37)   
-1050.07162 -625.54723 -938.93866 -781.21898 -1532.39135 -3399.31654    (1685.27,  4011.43)   
-1038.68107 -655.58634 -973.59335 -767.93839 -1508.68032 -3344.38020    (1699.72,  3979.94)   
-1027.29052 -685.62546 -1008.24803 -754.65779 -1484.96929 -3289.44385    (1717.53,  3951.99)   
-1015.89998 -715.66457 -1042.90272 -741.37720 -1461.25826 -3234.50750    (1738.61,  3927.65)   
-1004.50943 -745.70368 -1077.55740 -728.09661 -1437.54723 -3179.57116    (1762.85,  3906.99)   
-993.11889 -775.74279 -1112.21209 -714.81601 -1413.83620 -3124.63481    (1790.1,  3890.07)   
-981.72834 -805.78191 -1146.86677 -701.53542 -1390.12517 -3069.69846    (1820.23,  3876.94)   
-970.33780 -835.82102 -1181.52146 -688.25483 -1366.41414 -3014.76212    (1853.11,  3867.64)   
-958.94725 -865.86013 -1216.17614 -674.97423 -1342.70311 -2959.82577    (1888.59,  3862.19)   
-947.55670 -895.89925 -1250.83083 -661.69364 -1318.99208 -2904.88942    (1926.53,  3860.59)   
-936.16616 -925.93836 -1285.48551 -648.41305 -1295.28105 -2849.95308    (1966.78,  3862.87)   
-924.77561 -955.97747 -1320.14020 -635.13245 -1271.57002 -2795.01673    (2009.21,  3869.02)   
-1247.85899 -621.85186 -1354.79488 -986.01659 -913.38507 -2740.08038    (2053.68,  3879.03)   
-1224.14796 -608.57127 -1389.44957 -1016.05570 -901.99452 -2685.14404    (2100.06,  3892.86)   
-1200.43693 -595.29068 -1424.10425 -1046.09481 -890.60398 -2630.20769    (2148.23,  3910.48)   
-1176.72590 -582.01008 -1458.75894 -1076.13393 -879.21343 -2575.27134    (2161.69,  3931.84)   
-1153.01487 -568.72949 -1493.41362 -1106.17304 -867.82288 -2520.33500    (2149.74,  3919.59)   
-1129.30384 -555.44890 -1528.06831 -1136.21215 -856.43234 -2465.39865    (2140.53,  3877.26)   
-1105.59281 -542.16830 -1562.72299 -1166.25127 -845.04179 -2410.46230    (2134.08,  3838.22)   
-1081.88178 -528.88771 -1597.37768 -1196.29038 -833.65125 -2355.52595    (2130.43,  3802.86)   
-1058.17075 -515.60712 -1632.03236 -1226.32949 -822.26070 -2300.58961    (2129.58,  3771.3)   
-1034.45972 -502.32652 -1666.68705 -1256.36861 -810.87016 -2245.65326    (2131.55,  3743.65)   
-1010.74869 -489.04593 -1701.34173 -1286.40772 -799.47961 -2190.71691    (2136.32,  3720.01)   
-475.76534 -987.03766 -1735.99642 -788.08906 -1316.44683 -2135.78057    (2143.88,  3700.5)   
-1770.65110 -462.48474 -963.32663 -2080.84422 -776.69852 -1346.48595    (2154.19,  3685.18)   
-1805.30579 -449.20415 -939.61560 -2025.90787 -765.30797 -1376.52506    (2167.22,  3674.15)   
-1839.96047 -435.92356 -915.90457 -1970.97153 -753.91743 -1406.56417    (2182.92,  3667.48)   
-1874.61516 -422.64296 -892.19354 -1916.03518 -742.52688 -1436.60329    (2201.22,  3661.46)   
-1909.26984 -409.36237 -868.48251 -1861.09883 -731.13634 -1466.64240    (2202.66,  3629.98)   
-1943.92453 -396.08178 -844.77148 -1806.16249 -719.74579 -1496.68151    (2201.9,  3605.77)   
-1978.57921 -382.80119 -821.06045 -1751.22614 -708.35525 -1526.72063    (2203.85,  3549.5)   
-2013.23390 -369.52059 -797.34942 -1696.28979 -696.96470 -1556.75974    (2167.08,  3427.16)   
-685.57415 -1641.35345 -773.63839 -356.24000 -2047.88858 -1586.79885    (2089.69,  3304.83)   
-674.18361 -1586.41710 -749.92736 -342.95941 -2082.54327 -1616.83797    (2012.29,  3182.52)   
-662.79306 -1531.48075 -726.21633 -329.67881 -2117.19795 -1646.87708    (1934.9,  3060.22)   
-651.40252 -1476.54441 -702.50530 -316.39822 -2151.85264 -1676.91619    (1857.51,  2937.93)   
-640.01197 -1421.60806 -678.79427 -303.11763 -2186.50732 -1706.95531    (1780.12,  2815.65)   
-628.62143 -1366.67171 -655.08324 -289.83703 -2221.16201 -1736.99442    (1702.72,  2693.4)   
-617.23088 -1311.73537 -631.37221 -276.55644 -2255.81669 -1767.03353    (1625.33,  2571.15)   
-605.84033 -1256.79902 -607.66118 -263.27585 -2290.47138 -1797.07265    (1547.94,  2448.93)   
-594.44979 -1201.86267 -583.95015 -249.99525 -2325.12606 -1827.11176    (1470.55,  2326.72)   
-583.05924 -1146.92633 -560.23912 -236.71466 -2359.78075 -1857.15087    (1393.16,  2204.53)   
-571.66870 -1091.98998 -536.52810 -223.43407 -2394.43543 -1887.18999    (1315.76,  2082.31)   
-560.27815 -1037.05363 -512.81707 -210.15348 -2429.09012 -1917.22910    (1238.37,  1960.01)   
-548.88761 -489.10604 -982.11729 -196.87288 -1947.26821 -2463.74480    (1160.98,  1837.72)   
-537.49706 -465.39501 -927.18094 -183.59229 -1977.30733 -2498.39949    (1083.59,  1715.42)   
-526.10651 -441.68398 -872.24459 -170.31170 -2007.34644 -2533.05417    (1006.2,  1593.13)   
-514.71597 -417.97295 -817.30824 -157.03110 -2037.38555 -2567.70886    (928.804,  1470.84)   
-503.32542 -394.26192 -762.37190 -143.75051 -2067.42467 -2602.36354    (851.413,  1348.55)   
-491.93488 -370.55089 -707.43555 -130.46992 -2097.46378 -2637.01823    (774.022,  1226.26)   
-480.54433 -346.83986 -652.49920 -117.18932 -2127.50289 -2671.67291    (696.631,  1103.97)   
-469.15379 -323.12883 -597.56286 -103.90873 -2157.54201 -2706.32760    (619.241,  981.689)   
-457.76324 -299.41780 -542.62651 -90.62814 -2187.58112 -2740.98228    (541.851,  859.406)   
-446.37269 -275.70677 -487.69016 -77.34754 -2217.62023 -2775.63697    (464.463,  737.125)   
-434.98215 -251.99574 -432.75382 -64.06695 -2247.65935 -2810.29165    (387.076,  614.849)   
-423.59160 -228.28471 -377.81747 -50.78636 -2277.69846 -2844.94634    (309.692,  492.581)   
-412.20106 -204.57368 -322.88112 -37.50577 -2307.73757 -2879.60102    (232.314,  370.327)   
-400.81051 -180.86265 -267.94478 -24.22517 -2337.77668 -2914.25571    (154.951,  248.109)   
-389.41997 -157.15162 -213.00843 -10.94458 -2367.81580 -2948.91040    (77.6459,  126.033)   
-380.36543 -155.73607 -131.10457  -2.33601 -2395.51890 -2981.22907    (1.60777e-12,  0.000172633)   
-->
</g>
</g>
<!-- Run Constants
CIRCLEPLOT bool false
DISTANCEPLOT bool true
PRINTDISTANCEDATA bool true
GLITCHESONLY bool false
PLOT 2doubles 3 4
PERTURBBY double 0.05
GLITCHLEVEL double 3
BOUNDARYWINDOW double 0.065
FRAMESPERPATH int 200
STEPSPERFRAME int 100
TRIALS int 1
ALLBLACK bool false
FILEPREFIX string Fol
GRAPHSIZE int 0
BORDER int 0
PLOTSIZE int 0
CIRCLEPLOTSIZE int 2000
CIRCLERADIUS int 300
CIRCLESTROKEWIDTH int 30
G6LINEWIDTH int 3
DELONELINEWIDTH int 10
AXISWIDTH int 6
TICLENGTH int 20
VECTOR g6 
PERTURB g6Perturb 
MOVIEMODE MovieMode STAR
FOLLOWERMODE FollowerMode Follow
FIXRANDOMSEED fixRandomSeed true
RANDOMSEED int 18
TIMESTAMP bool true
END end 




-->
</svg>
