<?xml version="1.0" standalone="no"?>
<!-- the width and height set the total pixel output of the image in the browser -->
<!-- whatever is within the viewbox will be remapped to show in this size -->
<svg width="1000" height="1000" viewBox="1 0 1000 1000"  version="1.1" xmlns="http://www.w3.org/2000/svg" xmlns:xlink="http://www.w3.org/1999/xlink">
 <desc>ID (and file name) = Fol_2018-01-17.23_08_58.1_0.svg </desc> 
 <text x="280"  y="30"  font-family="sans-serif" font-size="20" > Trial vector = 0  </text> 
 <text x="700" y="30" font-family="sans-serif" font-size="20">Wall time passed: 29171 msec.</text>
<text x="450" y="30" font-family="sans-serif" font-size="20" fill="black" > Plotting g5 vs. g4</text>
<text x="300" y="60"  font-family="sans-serif" font-size="20" > Beginning vector  -157.21122  81.97516 -92.52129 -147.85806  70.21882 -93.42006 </text>
<text x="300" y="85"  font-family="sans-serif" font-size="20" > Beginning cell   12.58587  13.39827  12.98677   2.69869   1.04543   2.15157 </text>
<text x="300" y="110"  font-family="sans-serif" font-size="20" > Ending vector  -65.88290 -10.54613 -11.75634 -11.44490 -75.23606 -81.97516 </text>
<text x="300" y="135"  font-family="sans-serif" font-size="20" > Ending cell    5.80925  12.36428  12.58587   2.00796   1.71554   1.73521 </text>

<text x="300" y="160"  font-family="sans-serif" font-size="20" > Glitch  -153.52119  78.23692 -89.25806 -142.34642  64.34185 -92.95764  (5.65451 )</text>
<text x="300" y="185"  font-family="sans-serif" font-size="20" > Glitch  -154.44369  79.17148 -90.07386 -143.72433  65.81109 -93.07324  (4.23923)</text>



 <!--DISTANCE PLOT BEGINS-->


<!-- the following will scale and place the distance plot -->
<g  transform="translate(0,50) ">
<g transform="translate(150,700) scale(1 -1)">
   <polyline fill="none" stroke="black" stroke-width="10" points=" 5.2 ,0  10.4 ,11.7052  15.6 ,23.4103  20.8 ,35.1155  26 ,46.8207  31.2 ,58.5259  36.4 ,70.231  41.6 ,81.9362  46.8 ,93.5506  52 ,101.471  57.2 ,110.068  62.4 ,119.195  67.6 ,128.741  72.8 ,138.617  78 ,148.76  83.2 ,159.117  88.4 ,169.649  93.6 ,180.326  98.8 ,191.124  104 ,202.023  109.2 ,213.007  114.4 ,224.064  119.6 ,235.184  124.8 ,246.359  130 ,257.58  135.2 ,268.843  140.4 ,280.142  145.6 ,291.473  150.8 ,302.832  156 ,314.217  161.2 ,325.625  166.4 ,337.053  171.6 ,348.499  176.8 ,359.962  182 ,371.44  187.2 ,382.648  192.4 ,393.425  197.6 ,404.254  202.8 ,415.13  208 ,426.051  213.2 ,437.011  218.4 ,448.01  223.6 ,459.043  228.8 ,470.109  234 ,481.206  239.2 ,492.33  244.4 ,491.221  249.6 ,480.721  254.8 ,470.277  260 ,459.894  265.2 ,449.576  270.4 ,439.327  275.6 ,429.153  280.8 ,419.059  286 ,409.051  291.2 ,399.135  296.4 ,389.319  301.6 ,379.609  306.8 ,370.015  312 ,360.546  317.2 ,351.212  322.4 ,342.024  327.6 ,332.993  332.8 ,324.134  338 ,315.46  343.2 ,306.988  348.4 ,298.734  353.6 ,290.717  358.8 ,282.957  364 ,275.477  369.2 ,268.298  374.4 ,261.447  379.6 ,254.949  384.8 ,248.832  390 ,243.126  395.2 ,237.858  400.4 ,233.061  405.6 ,227.766  410.8 ,222.555  416 ,217.849  421.2 ,213.681  426.4 ,210.083  431.6 ,207.086  436.8 ,204.714  442 ,202.991  447.2 ,201.933  452.4 ,201.55  457.6 ,201.847  462.8 ,199.288  468 ,180.016  473.2 ,161.4  478.4 ,143.695  483.6 ,127.284  488.8 ,112.73  494 ,100.843  499.2 ,87.3727  504.4 ,65.5295  509.6 ,43.6863  514.8 ,21.8432  520 ,0  " />

<!--Draw the X and Y axes -->
<polyline fill="none" stroke="black" stroke-width="6"  points=" 600,0 0,0 0,520" />
<!-- -->

<line fill="none" stroke-width="3" boundary-string=""  stroke="lightblue" x1="0" y1="1.16117e-13" x2="5.2" y2="1.16117e-13" />
<line fill="none" stroke-width="3" boundary-string=""  stroke="lightblue" x1="5.2" y1="1.16117e-13" x2="10.4" y2="5.97688" />
<line fill="none" stroke-width="3" boundary-string=""  stroke="lightblue" x1="10.4" y1="5.97688" x2="15.6" y2="15.3079" />
<line fill="none" stroke-width="3" boundary-string=""  stroke="lightblue" x1="15.6" y1="15.3079" x2="20.8" y2="24.4933" />
<line fill="none" stroke-width="3" boundary-string=""  stroke="lightblue" x1="20.8" y1="24.4933" x2="26" y2="32.6705" />
<line fill="none" stroke-width="3" boundary-string=""  stroke="lightblue" x1="26" y1="32.6705" x2="31.2" y2="40.867" />
<line fill="none" stroke-width="3" boundary-string=""  stroke="lightblue" x1="31.2" y1="40.867" x2="36.4" y2="49.0731" />
<line fill="none" stroke-width="3" boundary-string=""  stroke="lightblue" x1="36.4" y1="49.0731" x2="41.6" y2="57.2848" />
<line fill="none" stroke-width="3" boundary-string=""  stroke="lightblue" x1="41.6" y1="57.2848" x2="46.8" y2="65.4999" />
<line fill="none" stroke-width="3" boundary-string=""  stroke="lightblue" x1="46.8" y1="65.4999" x2="52" y2="71.5317" />
<line fill="none" stroke-width="3" boundary-string=""  stroke="lightblue" x1="52" y1="71.5317" x2="57.2" y2="77.5857" />
<line fill="none" stroke-width="3" boundary-string=""  stroke="lightblue" x1="57.2" y1="77.5857" x2="62.4" y2="84.0095" />
<line fill="none" stroke-width="3" boundary-string=""  stroke="lightblue" x1="62.4" y1="84.0095" x2="67.6" y2="90.7247" />
<line fill="none" stroke-width="3" boundary-string=""  stroke="lightblue" x1="67.6" y1="90.7247" x2="72.8" y2="97.6712" />
<line fill="none" stroke-width="3" boundary-string=""  stroke="lightblue" x1="72.8" y1="97.6712" x2="78" y2="104.803" />
<line fill="none" stroke-width="3" boundary-string=""  stroke="lightblue" x1="78" y1="104.803" x2="83.2" y2="112.133" />
<line fill="none" stroke-width="3" boundary-string=""  stroke="lightblue" x1="83.2" y1="112.133" x2="88.4" y2="119.555" />
<line fill="none" stroke-width="3" boundary-string=""  stroke="lightblue" x1="88.4" y1="119.555" x2="93.6" y2="127.08" />
<line fill="none" stroke-width="3" boundary-string=""  stroke="lightblue" x1="93.6" y1="127.08" x2="98.8" y2="134.69" />
<line fill="none" stroke-width="3" boundary-string=""  stroke="lightblue" x1="98.8" y1="134.69" x2="104" y2="142.372" />
<line fill="none" stroke-width="3" boundary-string=""  stroke="lightblue" x1="104" y1="142.372" x2="109.2" y2="150.115" />
<line fill="none" stroke-width="3" boundary-string=""  stroke="lightblue" x1="109.2" y1="150.115" x2="114.4" y2="157.909" />
<line fill="none" stroke-width="3" boundary-string=""  stroke="lightblue" x1="114.4" y1="157.909" x2="119.6" y2="165.748" />
<line fill="none" stroke-width="3" boundary-string=""  stroke="lightblue" x1="119.6" y1="165.748" x2="124.8" y2="173.626" />
<line fill="none" stroke-width="3" boundary-string=""  stroke="lightblue" x1="124.8" y1="173.626" x2="130" y2="181.537" />
<line fill="none" stroke-width="3" boundary-string=""  stroke="lightblue" x1="130" y1="181.537" x2="135.2" y2="189.477" />
<line fill="none" stroke-width="3" boundary-string=""  stroke="lightblue" x1="135.2" y1="189.477" x2="140.4" y2="197.443" />
<line fill="none" stroke-width="3" boundary-string=""  stroke="lightblue" x1="140.4" y1="197.443" x2="145.6" y2="205.431" />
<line fill="none" stroke-width="3" boundary-string=""  stroke="lightblue" x1="145.6" y1="205.431" x2="150.8" y2="213.44" />
<line fill="none" stroke-width="3" boundary-string=""  stroke="lightblue" x1="150.8" y1="213.44" x2="156" y2="221.467" />
<line fill="none" stroke-width="3" boundary-string=""  stroke="lightblue" x1="156" y1="221.467" x2="161.2" y2="229.51" />
<line fill="none" stroke-width="3" boundary-string=""  stroke="lightblue" x1="161.2" y1="229.51" x2="166.4" y2="237.567" />
<line fill="none" stroke-width="3" boundary-string=""  stroke="lightblue" x1="166.4" y1="237.567" x2="171.6" y2="245.638" />
<line fill="none" stroke-width="3" boundary-string=""  stroke="lightblue" x1="171.6" y1="245.638" x2="176.8" y2="253.72" />
<line fill="none" stroke-width="3" boundary-string=""  stroke="lightblue" x1="176.8" y1="253.72" x2="182" y2="261.813" />
<line fill="none" stroke-width="3" boundary-string=""  stroke="lightblue" x1="182" y1="261.813" x2="187.2" y2="269.714" />
<line fill="none" stroke-width="3" boundary-string=""  stroke="lightblue" x1="187.2" y1="269.714" x2="192.4" y2="277.31" />
<line fill="none" stroke-width="3" boundary-string=""  stroke="lightblue" x1="192.4" y1="277.31" x2="197.6" y2="284.942" />
<line fill="none" stroke-width="3" boundary-string=""  stroke="lightblue" x1="197.6" y1="284.942" x2="202.8" y2="292.608" />
<line fill="none" stroke-width="3" boundary-string=""  stroke="lightblue" x1="202.8" y1="292.608" x2="208" y2="300.305" />
<line fill="none" stroke-width="3" boundary-string=""  stroke="lightblue" x1="208" y1="300.305" x2="213.2" y2="308.032" />
<line fill="none" stroke-width="3" boundary-string=""  stroke="lightblue" x1="213.2" y1="308.032" x2="218.4" y2="315.784" />
<line fill="none" stroke-width="3" boundary-string=""  stroke="lightblue" x1="218.4" y1="315.784" x2="223.6" y2="323.562" />
<line fill="none" stroke-width="3" boundary-string=""  stroke="lightblue" x1="223.6" y1="323.562" x2="228.8" y2="331.362" />
<line fill="none" stroke-width="3" boundary-string=""  stroke="lightblue" x1="228.8" y1="331.362" x2="234" y2="339.184" />
<line fill="none" stroke-width="3" boundary-string=""  stroke="lightblue" x1="234" y1="339.184" x2="239.2" y2="347.026" />
<line fill="none" stroke-width="3" boundary-string=""  stroke="lightblue" x1="239.2" y1="347.026" x2="244.4" y2="346.19" />
<line fill="none" stroke-width="3" boundary-string=""  stroke="lightblue" x1="244.4" y1="346.19" x2="249.6" y2="338.688" />
<line fill="none" stroke-width="3" boundary-string=""  stroke="lightblue" x1="249.6" y1="338.688" x2="254.8" y2="331.221" />
<line fill="none" stroke-width="3" boundary-string=""  stroke="lightblue" x1="254.8" y1="331.221" x2="260" y2="323.792" />
<line fill="none" stroke-width="3" boundary-string=""  stroke="lightblue" x1="260" y1="323.792" x2="265.2" y2="316.405" />
<line fill="none" stroke-width="3" boundary-string=""  stroke="lightblue" x1="265.2" y1="316.405" x2="270.4" y2="309.061" />
<line fill="none" stroke-width="3" boundary-string=""  stroke="lightblue" x1="270.4" y1="309.061" x2="275.6" y2="301.765" />
<line fill="none" stroke-width="3" boundary-string=""  stroke="lightblue" x1="275.6" y1="301.765" x2="280.8" y2="294.519" />
<line fill="none" stroke-width="3" boundary-string=""  stroke="lightblue" x1="280.8" y1="294.519" x2="286" y2="287.327" />
<line fill="none" stroke-width="3" boundary-string=""  stroke="lightblue" x1="286" y1="287.327" x2="291.2" y2="280.194" />
<line fill="none" stroke-width="3" boundary-string=""  stroke="lightblue" x1="291.2" y1="280.194" x2="296.4" y2="273.124" />
<line fill="none" stroke-width="3" boundary-string=""  stroke="lightblue" x1="296.4" y1="273.124" x2="301.6" y2="266.122" />
<line fill="none" stroke-width="3" boundary-string=""  stroke="lightblue" x1="301.6" y1="266.122" x2="306.8" y2="259.194" />
<line fill="none" stroke-width="3" boundary-string=""  stroke="lightblue" x1="306.8" y1="259.194" x2="312" y2="252.345" />
<line fill="none" stroke-width="3" boundary-string=""  stroke="lightblue" x1="312" y1="252.345" x2="317.2" y2="245.583" />
<line fill="none" stroke-width="3" boundary-string=""  stroke="lightblue" x1="317.2" y1="245.583" x2="322.4" y2="238.915" />
<line fill="none" stroke-width="3" boundary-string=""  stroke="lightblue" x1="322.4" y1="238.915" x2="327.6" y2="232.349" />
<line fill="none" stroke-width="3" boundary-string=""  stroke="lightblue" x1="327.6" y1="232.349" x2="332.8" y2="225.894" />
<line fill="none" stroke-width="3" boundary-string=""  stroke="lightblue" x1="332.8" y1="225.894" x2="338" y2="219.559" />
<line fill="none" stroke-width="3" boundary-string=""  stroke="lightblue" x1="338" y1="219.559" x2="343.2" y2="213.355" />
<line fill="none" stroke-width="3" boundary-string=""  stroke="lightblue" x1="343.2" y1="213.355" x2="348.4" y2="207.294" />
<line fill="none" stroke-width="3" boundary-string=""  stroke="lightblue" x1="348.4" y1="207.294" x2="353.6" y2="201.389" />
<line fill="none" stroke-width="3" boundary-string=""  stroke="lightblue" x1="353.6" y1="201.389" x2="358.8" y2="195.655" />
<line fill="none" stroke-width="3" boundary-string=""  stroke="lightblue" x1="358.8" y1="195.655" x2="364" y2="190.105" />
<line fill="none" stroke-width="3" boundary-string=""  stroke="lightblue" x1="364" y1="190.105" x2="369.2" y2="184.758" />
<line fill="none" stroke-width="3" boundary-string=""  stroke="lightblue" x1="369.2" y1="184.758" x2="374.4" y2="179.632" />
<line fill="none" stroke-width="3" boundary-string=""  stroke="lightblue" x1="374.4" y1="179.632" x2="379.6" y2="174.744" />
<line fill="none" stroke-width="3" boundary-string=""  stroke="lightblue" x1="379.6" y1="174.744" x2="384.8" y2="170.118" />
<line fill="none" stroke-width="3" boundary-string=""  stroke="lightblue" x1="384.8" y1="170.118" x2="390" y2="165.773" />
<line fill="none" stroke-width="3" boundary-string=""  stroke="lightblue" x1="390" y1="165.773" x2="395.2" y2="157.643" />
<line fill="none" stroke-width="3" boundary-string=""  stroke="lightblue" x1="395.2" y1="157.643" x2="400.4" y2="153.975" />
<line fill="none" stroke-width="3" boundary-string=""  stroke="lightblue" x1="400.4" y1="153.975" x2="405.6" y2="150.477" />
<line fill="none" stroke-width="3" boundary-string=""  stroke="lightblue" x1="405.6" y1="150.477" x2="410.8" y2="147.16" />
<line fill="none" stroke-width="3" boundary-string=""  stroke="lightblue" x1="410.8" y1="147.16" x2="416" y2="144.037" />
<line fill="none" stroke-width="3" boundary-string=""  stroke="lightblue" x1="416" y1="144.037" x2="421.2" y2="140.736" />
<line fill="none" stroke-width="3" boundary-string=""  stroke="lightblue" x1="421.2" y1="140.736" x2="426.4" y2="136.712" />
<line fill="none" stroke-width="3" boundary-string=""  stroke="lightblue" x1="426.4" y1="136.712" x2="431.6" y2="132.859" />
<line fill="none" stroke-width="3" boundary-string=""  stroke="lightblue" x1="431.6" y1="132.859" x2="436.8" y2="129.192" />
<line fill="none" stroke-width="3" boundary-string=""  stroke="lightblue" x1="436.8" y1="129.192" x2="442" y2="125.729" />
<line fill="none" stroke-width="3" boundary-string=""  stroke="lightblue" x1="442" y1="125.729" x2="447.2" y2="122.487" />
<line fill="none" stroke-width="3" boundary-string=""  stroke="lightblue" x1="447.2" y1="122.487" x2="452.4" y2="119.482" />
<line fill="none" stroke-width="3" boundary-string=""  stroke="lightblue" x1="452.4" y1="119.482" x2="457.6" y2="116.735" />
<line fill="none" stroke-width="3" boundary-string=""  stroke="lightblue" x1="457.6" y1="116.735" x2="462.8" y2="110.538" />
<line fill="none" stroke-width="3" boundary-string=""  stroke="lightblue" x1="462.8" y1="110.538" x2="468" y2="98.9423" />
<line fill="none" stroke-width="3" boundary-string=""  stroke="lightblue" x1="468" y1="98.9423" x2="473.2" y2="87.94" />
<line fill="none" stroke-width="3" boundary-string=""  stroke="lightblue" x1="473.2" y1="87.94" x2="478.4" y2="77.7839" />
<line fill="none" stroke-width="3" boundary-string=""  stroke="lightblue" x1="478.4" y1="77.7839" x2="483.6" y2="68.8496" />
<line fill="none" stroke-width="3" boundary-string=""  stroke="lightblue" x1="483.6" y1="68.8496" x2="488.8" y2="61.6704" />
<line fill="none" stroke-width="3" boundary-string=""  stroke="lightblue" x1="488.8" y1="61.6704" x2="494" y2="56.9144" />
<line fill="none" stroke-width="3" boundary-string=""  stroke="lightblue" x1="494" y1="56.9144" x2="499.2" y2="53.1174" />
<line fill="none" stroke-width="3" boundary-string=""  stroke="lightblue" x1="499.2" y1="53.1174" x2="504.4" y2="39.483" />
<line fill="none" stroke-width="3" boundary-string=""  stroke="lightblue" x1="504.4" y1="39.483" x2="509.6" y2="25.8727" />
<line fill="none" stroke-width="3" boundary-string=""  stroke="lightblue" x1="509.6" y1="25.8727" x2="514.8" y2="10.0458" />
<line fill="none" stroke-width="3" boundary-string=""  stroke="lightblue" x1="514.8" y1="10.0458" x2="520" y2="0" />

<!--Draw the X and Y axes -->
<polyline fill="none" stroke="black" stroke-width="6"  points=" 600,0 0,0 0,520" />
<!-- -->


<!--Draw labels and tics for X axis -->

<line fill="none" stroke="black"  stroke-width="6"  x1="0.5" y1="0" x2="0.5" y2="-20" />
<text transform="scale(1,-1)" font-family="sans-serif" font-size="30" x="-24.5" y="45" >0 </text>
<line fill="none" stroke="black"  stroke-width="6"  x1="104.5" y1="0" x2="104.5" y2="-20" />
<text transform="scale(1,-1)" font-family="sans-serif" font-size="30" x="79.5" y="45" >20 </text>
<line fill="none" stroke="black"  stroke-width="6"  x1="208.5" y1="0" x2="208.5" y2="-20" />
<text transform="scale(1,-1)" font-family="sans-serif" font-size="30" x="183.5" y="45" >40 </text>
<line fill="none" stroke="black"  stroke-width="6"  x1="312.5" y1="0" x2="312.5" y2="-20" />
<text transform="scale(1,-1)" font-family="sans-serif" font-size="30" x="287.5" y="45" >60 </text>
<line fill="none" stroke="black"  stroke-width="6"  x1="416.5" y1="0" x2="416.5" y2="-20" />
<text transform="scale(1,-1)" font-family="sans-serif" font-size="30" x="391.5" y="45" >80 </text>
<line fill="none" stroke="black"  stroke-width="6"  x1="520.5" y1="0" x2="520.5" y2="-20" />
<text transform="scale(1,-1)" font-family="sans-serif" font-size="30" x="495.5" y="45" >100 </text>


<!--Draw labels and tics for Y axis -->

<line fill="none" stroke="black" stroke-width="6" x1="0.0" y1="0" x2="-20" y2="0" />
<text transform="scale(1,-1)" text-anchor="end" font-family="sans-serif" font-size="30" x="-25" y="10" >0 </text>
<line fill="none" stroke="black" stroke-width="6" x1="0.0" y1="57.7778" x2="-20" y2="57.7778" />
<text transform="scale(1,-1)" text-anchor="end" font-family="sans-serif" font-size="30" x="-25" y="-47.7778" >10 </text>
<line fill="none" stroke="black" stroke-width="6" x1="0.0" y1="115.556" x2="-20" y2="115.556" />
<text transform="scale(1,-1)" text-anchor="end" font-family="sans-serif" font-size="30" x="-25" y="-105.556" >20 </text>
<line fill="none" stroke="black" stroke-width="6" x1="0.0" y1="173.333" x2="-20" y2="173.333" />
<text transform="scale(1,-1)" text-anchor="end" font-family="sans-serif" font-size="30" x="-25" y="-163.333" >30 </text>
<line fill="none" stroke="black" stroke-width="6" x1="0.0" y1="231.111" x2="-20" y2="231.111" />
<text transform="scale(1,-1)" text-anchor="end" font-family="sans-serif" font-size="30" x="-25" y="-221.111" >40 </text>
<line fill="none" stroke="black" stroke-width="6" x1="0.0" y1="288.889" x2="-20" y2="288.889" />
<text transform="scale(1,-1)" text-anchor="end" font-family="sans-serif" font-size="30" x="-25" y="-278.889" >50 </text>
<line fill="none" stroke="black" stroke-width="6" x1="0.0" y1="346.667" x2="-20" y2="346.667" />
<text transform="scale(1,-1)" text-anchor="end" font-family="sans-serif" font-size="30" x="-25" y="-336.667" >60 </text>
<line fill="none" stroke="black" stroke-width="6" x1="0.0" y1="404.444" x2="-20" y2="404.444" />
<text transform="scale(1,-1)" text-anchor="end" font-family="sans-serif" font-size="30" x="-25" y="-394.444" >70 </text>
<line fill="none" stroke="black" stroke-width="6" x1="0.0" y1="462.222" x2="-20" y2="462.222" />
<text transform="scale(1,-1)" text-anchor="end" font-family="sans-serif" font-size="30" x="-25" y="-452.222" >80 </text>
<line fill="none" stroke="black" stroke-width="6" x1="0.0" y1="520" x2="-20" y2="520" />
<text transform="scale(1,-1)" text-anchor="end" font-family="sans-serif" font-size="30" x="-25" y="-510" >90 </text>


<!--Draw Glitches -->

<line fill="none" stroke="black" stroke-width="2" x1="20.8" y1="32.6705" x2="20.8" y2="-17.3295" />
<text transform="scale(1,-1)" font-family="sans-serif" font-size="30" x="25.8" y="27.3295" >4 </text>
<line fill="none" stroke="black" stroke-width="2" x1="390" y1="157.643" x2="390" y2="107.643" />
<text transform="scale(1,-1)" font-family="sans-serif" font-size="30" x="395" y="-97.6434" >75 </text>
<line fill="none" stroke="black" stroke-width="2" x1="462.8" y1="98.9423" x2="462.8" y2="48.9423" />
<text transform="scale(1,-1)" font-family="sans-serif" font-size="30" x="467.8" y="-38.9423" >89 </text>
<line fill="none" stroke="black" stroke-width="2" x1="499.2" y1="39.483" x2="499.2" y2="-10.517" />
<text transform="scale(1,-1)" font-family="sans-serif" font-size="30" x="504.2" y="20.517" >96 </text>

<!-- -->


<!-- Reduced vector followed by D7dist from the final reduced cell
-65.88290 -10.54613 -11.75634 -11.44490 -75.23606 -81.97516    (2.00972e-14,  0)   
-65.43955 -10.66488 -12.29102 -12.26385 -75.24811 -81.04060    (1.03446,  2.0259)   
-64.99620 -10.78363 -12.82571 -13.08281 -75.26016 -80.10604    (2.64945,  4.05179)   
-64.55284 -10.90238 -13.36039 -13.90176 -75.27221 -79.17148    (4.23923,  6.07769)   
-64.10949 -11.02113 -13.89507 -14.72071 -75.28426 -78.23692    (5.65451,  8.10358)   
-63.66614 -14.42975 -11.13988 -15.53967 -77.30237 -75.29631    (7.07313,  10.1295)   
-63.22279 -14.96444 -11.25863 -16.35862 -76.36781 -75.30836    (8.49343,  12.1554)   
-62.77943 -15.49912 -11.37739 -17.17757 -75.43325 -75.32041    (9.91468,  14.1813)   
-62.33608 -16.03380 -11.49614 -17.99653 -74.49869 -75.33246    (11.3365,  16.1914)   
-61.89273 -16.56848 -11.61489 -18.81548 -73.56413 -75.34451    (12.3805,  17.5622)   
-61.44938 -17.10317 -11.73364 -19.63443 -72.62957 -75.35656    (13.4283,  19.0502)   
-61.00603 -17.63785 -11.85239 -20.45339 -71.69501 -75.36861    (14.5401,  20.6299)   
-60.56267 -18.17253 -11.97114 -21.27234 -70.76046 -75.38066    (15.7024,  22.282)   
-60.11932 -18.70722 -12.08989 -22.09129 -69.82590 -75.39271    (16.9046,  23.9915)   
-59.67597 -19.24190 -12.20864 -22.91025 -68.89134 -75.40476    (18.139,  25.7469)   
-59.23262 -19.77658 -12.32739 -23.72920 -67.95678 -75.41681    (19.4077,  27.5395)   
-58.78926 -20.31126 -12.44614 -24.54815 -67.02222 -75.42886    (20.6923,  29.3624)   
-58.34591 -20.84595 -12.56489 -25.36711 -66.08766 -75.44091    (21.9946,  31.2104)   
-57.90256 -21.38063 -12.68365 -26.18606 -65.15311 -75.45296    (23.3118,  33.0792)   
-57.45921 -21.91531 -12.80240 -27.00501 -64.21855 -75.46501    (24.6413,  34.9655)   
-57.01586 -22.45000 -12.92115 -27.82397 -63.28399 -75.47706    (25.9814,  36.8666)   
-56.57250 -22.98468 -13.03990 -28.64292 -62.34943 -75.48911    (27.3305,  38.7804)   
-56.12915 -23.51936 -13.15865 -29.46187 -61.41487 -75.50116    (28.6872,  40.705)   
-55.68580 -24.05404 -13.27740 -30.28083 -60.48031 -75.51321    (30.0506,  42.639)   
-55.24245 -24.58873 -13.39615 -31.09978 -59.54576 -75.52527    (31.4198,  44.5812)   
-54.79909 -25.12341 -13.51490 -31.91873 -58.61120 -75.53732    (32.7941,  46.5305)   
-54.35574 -25.65809 -13.63365 -32.73769 -57.67664 -75.54937    (34.1728,  48.4861)   
-53.91239 -26.19277 -13.75240 -33.55664 -56.74208 -75.56142    (35.5554,  50.4472)   
-53.46904 -26.72746 -13.87115 -34.37559 -55.80752 -75.57347    (36.9416,  52.4133)   
-53.02569 -27.26214 -13.98991 -35.19455 -54.87296 -75.58552    (38.3308,  54.3837)   
-52.58233 -27.79682 -14.10866 -36.01350 -53.93840 -75.59757    (39.7229,  56.3581)   
-52.13898 -28.33151 -14.22741 -36.83245 -53.00385 -75.60962    (41.1174,  58.336)   
-51.69563 -28.86619 -14.34616 -37.65141 -52.06929 -75.62167    (42.5142,  60.3171)   
-51.25228 -29.40087 -14.46491 -38.47036 -51.13473 -75.63372    (43.9131,  62.3011)   
-50.80892 -29.93555 -14.58366 -39.28931 -50.20017 -75.64577    (45.3138,  64.2877)   
-50.36557 -30.47024 -14.70241 -40.10827 -49.26561 -75.65782    (46.6813,  66.2276)   
-49.92222 -31.00492 -14.82116 -40.92722 -48.33105 -75.66987    (47.996,  68.0929)   
-49.47887 -31.53960 -14.93991 -41.74618 -47.39650 -75.68192    (49.3169,  69.9671)   
-49.03551 -32.07428 -15.05866 -42.56513 -46.46194 -75.69397    (50.6437,  71.8495)   
-48.59216 -32.60897 -15.17741 -43.38408 -45.52738 -75.70602    (51.976,  73.7395)   
-48.14881 -33.14365 -15.29617 -44.20304 -44.59282 -75.71807    (53.3131,  75.6366)   
-47.70546 -33.67833 -15.41492 -45.02199 -43.65826 -75.73012    (54.655,  77.5402)   
-47.26211 -34.21302 -15.53367 -45.84094 -42.72370 -75.74217    (56.0011,  79.4498)   
-46.81875 -34.74770 -15.65242 -46.65990 -41.78914 -75.75422    (57.3512,  81.3651)   
-46.37540 -35.28238 -15.77117 -47.47885 -40.85459 -75.76627    (58.705,  83.2856)   
-45.93205 -35.81706 -15.88992 -48.29780 -39.92003 -75.77832    (60.0623,  85.211)   
-36.35175 -45.48870 -16.00867 -38.98547 -49.11676 -75.79037    (59.9175,  85.019)   
-36.88643 -45.04534 -16.12742 -38.05091 -49.93571 -75.80242    (58.619,  83.2016)   
-37.42111 -44.60199 -16.24617 -37.11635 -50.75466 -75.81447    (57.3267,  81.3941)   
-37.95579 -44.15864 -16.36492 -36.18179 -51.57362 -75.82652    (56.041,  79.597)   
-38.49048 -43.71529 -16.48367 -35.24724 -52.39257 -75.83857    (54.7624,  77.8112)   
-39.02516 -43.27194 -16.60243 -34.31268 -53.21152 -75.85062    (53.4914,  76.0374)   
-39.55984 -42.82858 -16.72118 -33.37812 -54.03048 -75.86267    (52.2285,  74.2765)   
-40.09453 -42.38523 -16.83993 -32.44356 -54.84943 -75.87472    (50.9744,  72.5295)   
-40.62921 -41.94188 -16.95868 -31.50900 -55.66838 -75.88677    (49.7296,  70.7973)   
-41.16389 -41.49853 -17.07743 -30.57444 -56.48734 -75.89882    (48.4951,  69.0811)   
-41.69857 -41.05517 -17.19618 -29.63988 -57.30629 -75.91087    (47.2714,  67.3821)   
-42.23326 -40.61182 -17.31493 -28.70533 -58.12524 -75.92292    (46.0595,  65.7016)   
-42.76794 -40.16847 -17.43368 -27.77077 -58.94420 -75.93497    (44.8604,  64.0411)   
-43.30262 -39.72512 -17.55243 -26.83621 -59.76315 -75.94702    (43.6752,  62.4023)   
-43.83730 -39.28177 -17.67118 -25.90165 -60.58210 -75.95907    (42.5048,  60.7867)   
-44.37199 -38.83841 -17.78993 -24.96709 -61.40106 -75.97112    (41.3507,  59.1964)   
-44.90667 -38.39506 -17.90869 -24.03253 -62.22001 -75.98317    (40.2143,  57.6335)   
-45.44135 -37.95171 -18.02744 -23.09798 -63.03896 -75.99522    (39.097,  56.1001)   
-45.97604 -37.50836 -18.14619 -22.16342 -63.85792 -76.00727    (38.0005,  54.5989)   
-46.51072 -37.06500 -18.26494 -21.22886 -64.67687 -76.01932    (36.9268,  53.1325)   
-47.04540 -36.62165 -18.38369 -20.29430 -65.49582 -76.03137    (35.8778,  51.704)   
-47.58008 -36.17830 -18.50244 -19.35974 -66.31478 -76.04342    (34.8559,  50.3164)   
-48.11477 -35.73495 -18.62119 -18.42518 -67.13373 -76.05547    (33.8633,  48.9734)   
-48.64945 -35.29160 -18.73994 -17.49062 -67.95268 -76.06752    (32.9029,  47.6786)   
-49.18413 -34.84824 -18.85869 -16.55607 -68.77164 -76.07957    (31.9774,  46.4362)   
-49.71882 -34.40489 -18.97744 -15.62151 -69.59059 -76.09162    (31.0901,  45.2504)   
-50.25350 -33.96154 -19.09619 -14.68695 -70.40954 -76.10367    (30.2442,  44.1258)   
-50.78818 -33.51819 -19.21495 -13.75239 -71.22850 -76.11572    (29.4434,  43.0671)   
-51.32286 -33.07483 -19.33370 -12.81783 -72.04745 -76.12777    (28.6914,  42.0794)   
-51.85755 -32.63148 -19.45245 -11.88327 -72.86640 -76.13982    (27.2844,  41.1678)   
-52.39223 -32.18813 -19.57120 -10.94872 -73.68536 -76.15187    (26.6496,  40.3374)   
-74.50431 -10.01416 -19.68995 -31.74478 -52.92691 -76.16393    (26.044,  39.421)   
-75.32326  -9.07960 -19.80870 -31.30142 -53.46159 -76.17598    (25.47,  38.5191)   
-76.14222  -8.14504 -19.92745 -30.85807 -53.99628 -76.18803    (24.9295,  37.7046)   
-76.96117  -7.21048 -20.04620 -30.41472 -54.53096 -76.20008    (24.3582,  36.9832)   
-77.78013  -6.27592 -20.16495 -29.97137 -55.06564 -76.21213    (23.6616,  36.3606)   
-78.59908  -5.34136 -20.28370 -29.52802 -55.60033 -76.22418    (22.9947,  35.8417)   
-79.41803  -4.40681 -20.40245 -29.08466 -56.13501 -76.23623    (22.3602,  35.4313)   
-80.23699  -3.47225 -20.52121 -28.64131 -56.66969 -76.24828    (21.7608,  35.1331)   
-81.05594  -2.53769 -20.63996 -28.19796 -57.20437 -76.26033    (21.1996,  34.95)   
-81.87489 -20.75871  -1.60313 -27.75461 -76.27238 -57.73906    (20.6796,  34.8837)   
-82.69385 -20.87746  -0.66857 -27.31125 -76.28443 -58.27374    (20.2041,  34.935)   
-76.03049  -0.26599 -20.73022 -26.60192 -59.07441 -83.24681    (19.1316,  34.4921)   
-75.10798  -1.20054 -19.91442 -25.22401 -60.54365 -83.13121    (17.1246,  31.1565)   
-74.18547  -2.13510 -19.09861 -23.84610 -62.01289 -83.01560    (15.2204,  27.9346)   
-73.26297  -3.06966 -18.28280 -22.46818 -63.48213 -82.90000    (13.4626,  24.8704)   
-72.34046  -4.00422 -17.46699 -21.09027 -64.95137 -82.78439    (11.9163,  22.0299)   
-71.41795  -4.93878 -16.65119 -19.71236 -66.42061 -82.66879    (10.6737,  19.511)   
-70.49544  -5.87334 -15.83538 -18.33445 -67.88985 -82.55318    (9.85056,  17.4537)   
-69.57293  -6.80789 -15.01957 -16.95654 -69.35910 -82.43758    (9.19339,  15.1222)   
-68.65043  -7.74245 -14.20376 -15.57863 -70.82834 -82.32197    (6.8336,  11.3416)   
-67.72792  -8.67701 -13.38796 -14.20072 -72.29758 -82.20637    (4.47797,  7.5611)   
-66.80541  -9.61157 -12.57215 -12.82281 -73.76682 -82.09076    (1.73869,  3.78055)   
-65.88290 -10.54613 -11.75634 -11.44490 -75.23606 -81.97516    (0,  0)   
-->
</g>
</g>
<!-- Run Constants
CIRCLEPLOT bool false
DISTANCEPLOT bool true
PRINTDISTANCEDATA bool true
GLITCHESONLY bool false
PLOT 2doubles 3 4
PERTURBBY double 0.05
GLITCHLEVEL double 3
BOUNDARYWINDOW double 0.065
FRAMESPERPATH int 200
STEPSPERFRAME int 100
TRIALS int 1
ALLBLACK bool false
FILEPREFIX string Fol
GRAPHSIZE int 0
BORDER int 0
PLOTSIZE int 0
CIRCLEPLOTSIZE int 2000
CIRCLERADIUS int 300
CIRCLESTROKEWIDTH int 30
G6LINEWIDTH int 3
DELONELINEWIDTH int 10
AXISWIDTH int 6
TICLENGTH int 20
VECTOR g6 
PERTURB g6Perturb 
MOVIEMODE MovieMode STAR
FOLLOWERMODE FollowerMode Follow
FIXRANDOMSEED fixRandomSeed false
RANDOMSEED int 19
TIMESTAMP bool true
END end 




-->
</svg>
