<?xml version="1.0" standalone="no"?>
<!-- the width and height set the total pixel output of the image in the browser -->
<!-- whatever is within the viewbox will be remapped to show in this size -->
<svg width="1000" height="1000" viewBox="1 0 1000 1000"  version="1.1" xmlns="http://www.w3.org/2000/svg" xmlns:xlink="http://www.w3.org/1999/xlink">
 <desc>ID (and file name) = Fol_2018-02-06.14_06_01.9_0.svg </desc> 
 <text x="280"  y="30"  font-family="sans-serif" font-size="20" > Trial vector = 0  </text> 
 <text x="700" y="30" font-family="sans-serif" font-size="20">Wall time passed: 29735 msec.</text>
<text x="450" y="30" font-family="sans-serif" font-size="20" fill="black" > Plotting g5 vs. g4</text>
<text x="300" y="60"  font-family="sans-serif" font-size="20" > Beginning vector  -220.53625 -222.47956 121.73337 -64.05685 -152.99567  16.11332 </text>
<text x="300" y="85"  font-family="sans-serif" font-size="20" > Beginning cell   12.83756  15.86816  20.66162   2.30858   2.56582   0.93031 </text>
<text x="300" y="110"  font-family="sans-serif" font-size="20" > Ending vector  -43.06966 -41.12635 -57.67653 -47.94352 -64.05685 -88.93882 </text>
<text x="300" y="135"  font-family="sans-serif" font-size="20" > Ending cell   12.11389  12.83756  13.15807   1.82862   1.83176   1.95075 </text>

<text x="300" y="160"  font-family="sans-serif" font-size="20" > Glitch  -98.64001 -97.91372  -1.49767 -52.98911 -91.90638 -56.04371  (66.2027 )</text>
<text x="300" y="185"  font-family="sans-serif" font-size="20" > Glitch  -100.43260 -99.74557   0.31455 -53.15187 -92.80475 -54.98257  (68.5266)</text>



 <!--DISTANCE PLOT BEGINS-->


<!-- the following will scale and place the distance plot -->
<g  transform="translate(0,50) ">
<g transform="translate(150,700) scale(1 -1)">
   <polyline fill="none" stroke="black" stroke-width="10" points=" 5.2 ,0  10.4 ,18.391  15.6 ,36.7821  20.8 ,55.1731  26 ,73.5641  31.2 ,91.9552  36.4 ,110.346  41.6 ,128.737  46.8 ,147.128  52 ,165.519  57.2 ,183.91  62.4 ,202.301  67.6 ,217.218  72.8 ,229.502  78 ,232.083  83.2 ,236.072  88.4 ,241.401  93.6 ,247.982  98.8 ,255.719  104 ,264.511  109.2 ,274.255  114.4 ,284.855  119.6 ,295.652  124.8 ,304.485  130 ,314.147  135.2 ,324.564  140.4 ,335.666  145.6 ,347.388  150.8 ,359.668  156 ,372.452  161.2 ,385.689  166.4 ,399.335  171.6 ,413.349  176.8 ,427.695  182 ,442.34  187.2 ,456.884  192.4 ,458.561  197.6 ,453.243  202.8 ,448.318  208 ,443.8  213.2 ,439.699  218.4 ,436.029  223.6 ,432.8  228.8 ,429.07  234 ,425.445  239.2 ,422.274  244.4 ,419.565  249.6 ,417.329  254.8 ,415.573  260 ,414.302  265.2 ,413.522  270.4 ,413.236  275.6 ,413.443  280.8 ,414.144  286 ,415.337  291.2 ,417.016  296.4 ,419.176  301.6 ,421.809  306.8 ,424.908  312 ,428.461  317.2 ,432.457  322.4 ,436.885  327.6 ,441.731  332.8 ,446.982  338 ,452.624  343.2 ,458.641  348.4 ,465.021  353.6 ,470.766  358.8 ,456.082  364 ,439.311  369.2 ,422.861  374.4 ,406.769  379.6 ,391.08  384.8 ,375.845  390 ,361.121  395.2 ,346.974  400.4 ,333.475  405.6 ,320.709  410.8 ,308.765  416 ,297.742  421.2 ,287.746  426.4 ,275.512  431.6 ,259.511  436.8 ,244.169  442 ,229.617  447.2 ,216.016  452.4 ,203.555  457.6 ,192.456  462.8 ,182.968  468 ,175.353  473.2 ,169.861  478.4 ,163.277  483.6 ,142.867  488.8 ,122.458  494 ,102.048  499.2 ,81.6384  504.4 ,61.2288  509.6 ,40.8192  514.8 ,20.4096  520 ,0  " />

<!--Draw the X and Y axes -->
<polyline fill="none" stroke="black" stroke-width="6"  points=" 600,0 0,0 0,520" />
<!-- -->

<line fill="none" stroke-width="3" boundary-string=""  stroke="lightblue" x1="0" y1="3.16699e-13" x2="5.2" y2="3.16699e-13" />
<line fill="none" stroke-width="3" boundary-string=""  stroke="lightblue" x1="5.2" y1="3.16699e-13" x2="10.4" y2="11.4708" />
<line fill="none" stroke-width="3" boundary-string=""  stroke="lightblue" x1="10.4" y1="11.4708" x2="15.6" y2="22.9417" />
<line fill="none" stroke-width="3" boundary-string=""  stroke="lightblue" x1="15.6" y1="22.9417" x2="20.8" y2="34.4125" />
<line fill="none" stroke-width="3" boundary-string=""  stroke="lightblue" x1="20.8" y1="34.4125" x2="26" y2="45.8834" />
<line fill="none" stroke-width="3" boundary-string=""  stroke="lightblue" x1="26" y1="45.8834" x2="31.2" y2="57.3542" />
<line fill="none" stroke-width="3" boundary-string=""  stroke="lightblue" x1="31.2" y1="57.3542" x2="36.4" y2="68.825" />
<line fill="none" stroke-width="3" boundary-string=""  stroke="lightblue" x1="36.4" y1="68.825" x2="41.6" y2="80.2959" />
<line fill="none" stroke-width="3" boundary-string=""  stroke="lightblue" x1="41.6" y1="80.2959" x2="46.8" y2="91.7667" />
<line fill="none" stroke-width="3" boundary-string=""  stroke="lightblue" x1="46.8" y1="91.7667" x2="52" y2="103.238" />
<line fill="none" stroke-width="3" boundary-string=""  stroke="lightblue" x1="52" y1="103.238" x2="57.2" y2="114.708" />
<line fill="none" stroke-width="3" boundary-string=""  stroke="lightblue" x1="57.2" y1="114.708" x2="62.4" y2="126.179" />
<line fill="none" stroke-width="3" boundary-string=""  stroke="lightblue" x1="62.4" y1="126.179" x2="67.6" y2="134.858" />
<line fill="none" stroke-width="3" boundary-string=""  stroke="lightblue" x1="67.6" y1="134.858" x2="72.8" y2="141.394" />
<line fill="none" stroke-width="3" boundary-string=""  stroke="lightblue" x1="72.8" y1="141.394" x2="78" y2="139.909" />
<line fill="none" stroke-width="3" boundary-string=""  stroke="lightblue" x1="78" y1="139.909" x2="83.2" y2="139.355" />
<line fill="none" stroke-width="3" boundary-string=""  stroke="lightblue" x1="83.2" y1="139.355" x2="88.4" y2="139.744" />
<line fill="none" stroke-width="3" boundary-string=""  stroke="lightblue" x1="88.4" y1="139.744" x2="93.6" y2="141.067" />
<line fill="none" stroke-width="3" boundary-string=""  stroke="lightblue" x1="93.6" y1="141.067" x2="98.8" y2="143.3" />
<line fill="none" stroke-width="3" boundary-string=""  stroke="lightblue" x1="98.8" y1="143.3" x2="104" y2="146.4" />
<line fill="none" stroke-width="3" boundary-string=""  stroke="lightblue" x1="104" y1="146.4" x2="109.2" y2="150.313" />
<line fill="none" stroke-width="3" boundary-string=""  stroke="lightblue" x1="109.2" y1="150.313" x2="114.4" y2="154.979" />
<line fill="none" stroke-width="3" boundary-string=""  stroke="lightblue" x1="114.4" y1="154.979" x2="119.6" y2="159.807" />
<line fill="none" stroke-width="3" boundary-string=""  stroke="lightblue" x1="119.6" y1="159.807" x2="124.8" y2="162.787" />
<line fill="none" stroke-width="3" boundary-string=""  stroke="lightblue" x1="124.8" y1="162.787" x2="130" y2="166.505" />
<line fill="none" stroke-width="3" boundary-string=""  stroke="lightblue" x1="130" y1="166.505" x2="135.2" y2="170.914" />
<line fill="none" stroke-width="3" boundary-string=""  stroke="lightblue" x1="135.2" y1="170.914" x2="140.4" y2="175.961" />
<line fill="none" stroke-width="3" boundary-string=""  stroke="lightblue" x1="140.4" y1="175.961" x2="145.6" y2="181.593" />
<line fill="none" stroke-width="3" boundary-string=""  stroke="lightblue" x1="145.6" y1="181.593" x2="150.8" y2="187.758" />
<line fill="none" stroke-width="3" boundary-string=""  stroke="lightblue" x1="150.8" y1="187.758" x2="156" y2="194.405" />
<line fill="none" stroke-width="3" boundary-string=""  stroke="lightblue" x1="156" y1="194.405" x2="161.2" y2="201.487" />
<line fill="none" stroke-width="3" boundary-string=""  stroke="lightblue" x1="161.2" y1="201.487" x2="166.4" y2="208.958" />
<line fill="none" stroke-width="3" boundary-string=""  stroke="lightblue" x1="166.4" y1="208.958" x2="171.6" y2="216.779" />
<line fill="none" stroke-width="3" boundary-string=""  stroke="lightblue" x1="171.6" y1="216.779" x2="176.8" y2="224.913" />
<line fill="none" stroke-width="3" boundary-string=""  stroke="lightblue" x1="176.8" y1="224.913" x2="182" y2="233.328" />
<line fill="none" stroke-width="3" boundary-string=""  stroke="lightblue" x1="182" y1="233.328" x2="187.2" y2="241.775" />
<line fill="none" stroke-width="3" boundary-string=""  stroke="lightblue" x1="187.2" y1="241.775" x2="192.4" y2="243.404" />
<line fill="none" stroke-width="3" boundary-string=""  stroke="lightblue" x1="192.4" y1="243.404" x2="197.6" y2="238.372" />
<line fill="none" stroke-width="3" boundary-string=""  stroke="lightblue" x1="197.6" y1="238.372" x2="202.8" y2="233.67" />
<line fill="none" stroke-width="3" boundary-string=""  stroke="lightblue" x1="202.8" y1="233.67" x2="208" y2="229.316" />
<line fill="none" stroke-width="3" boundary-string=""  stroke="lightblue" x1="208" y1="229.316" x2="213.2" y2="225.332" />
<line fill="none" stroke-width="3" boundary-string=""  stroke="lightblue" x1="213.2" y1="225.332" x2="218.4" y2="221.737" />
<line fill="none" stroke-width="3" boundary-string=""  stroke="lightblue" x1="218.4" y1="221.737" x2="223.6" y2="218.551" />
<line fill="none" stroke-width="3" boundary-string=""  stroke="lightblue" x1="223.6" y1="218.551" x2="228.8" y2="214.843" />
<line fill="none" stroke-width="3" boundary-string=""  stroke="lightblue" x1="228.8" y1="214.843" x2="234" y2="211.208" />
<line fill="none" stroke-width="3" boundary-string=""  stroke="lightblue" x1="234" y1="211.208" x2="239.2" y2="208.001" />
<line fill="none" stroke-width="3" boundary-string=""  stroke="lightblue" x1="239.2" y1="208.001" x2="244.4" y2="205.242" />
<line fill="none" stroke-width="3" boundary-string=""  stroke="lightblue" x1="244.4" y1="205.242" x2="249.6" y2="202.949" />
<line fill="none" stroke-width="3" boundary-string=""  stroke="lightblue" x1="249.6" y1="202.949" x2="254.8" y2="201.139" />
<line fill="none" stroke-width="3" boundary-string=""  stroke="lightblue" x1="254.8" y1="201.139" x2="260" y2="199.825" />
<line fill="none" stroke-width="3" boundary-string=""  stroke="lightblue" x1="260" y1="199.825" x2="265.2" y2="199.015" />
<line fill="none" stroke-width="3" boundary-string=""  stroke="lightblue" x1="265.2" y1="199.015" x2="270.4" y2="198.717" />
<line fill="none" stroke-width="3" boundary-string=""  stroke="lightblue" x1="270.4" y1="198.717" x2="275.6" y2="198.933" />
<line fill="none" stroke-width="3" boundary-string=""  stroke="lightblue" x1="275.6" y1="198.933" x2="280.8" y2="199.661" />
<line fill="none" stroke-width="3" boundary-string=""  stroke="lightblue" x1="280.8" y1="199.661" x2="286" y2="200.895" />
<line fill="none" stroke-width="3" boundary-string=""  stroke="lightblue" x1="286" y1="200.895" x2="291.2" y2="202.627" />
<line fill="none" stroke-width="3" boundary-string=""  stroke="lightblue" x1="291.2" y1="202.627" x2="296.4" y2="204.843" />
<line fill="none" stroke-width="3" boundary-string=""  stroke="lightblue" x1="296.4" y1="204.843" x2="301.6" y2="207.529" />
<line fill="none" stroke-width="3" boundary-string=""  stroke="lightblue" x1="301.6" y1="207.529" x2="306.8" y2="210.665" />
<line fill="none" stroke-width="3" boundary-string=""  stroke="lightblue" x1="306.8" y1="210.665" x2="312" y2="214.233" />
<line fill="none" stroke-width="3" boundary-string=""  stroke="lightblue" x1="312" y1="214.233" x2="317.2" y2="218.212" />
<line fill="none" stroke-width="3" boundary-string=""  stroke="lightblue" x1="317.2" y1="218.212" x2="322.4" y2="222.578" />
<line fill="none" stroke-width="3" boundary-string=""  stroke="lightblue" x1="322.4" y1="222.578" x2="327.6" y2="227.31" />
<line fill="none" stroke-width="3" boundary-string=""  stroke="lightblue" x1="327.6" y1="227.31" x2="332.8" y2="232.386" />
<line fill="none" stroke-width="3" boundary-string=""  stroke="lightblue" x1="332.8" y1="232.386" x2="338" y2="237.783" />
<line fill="none" stroke-width="3" boundary-string=""  stroke="lightblue" x1="338" y1="237.783" x2="343.2" y2="243.48" />
<line fill="none" stroke-width="3" boundary-string=""  stroke="lightblue" x1="343.2" y1="243.48" x2="348.4" y2="249.457" />
<line fill="none" stroke-width="3" boundary-string=""  stroke="lightblue" x1="348.4" y1="249.457" x2="353.6" y2="254.528" />
<line fill="none" stroke-width="3" boundary-string=""  stroke="lightblue" x1="353.6" y1="254.528" x2="358.8" y2="245.896" />
<line fill="none" stroke-width="3" boundary-string=""  stroke="lightblue" x1="358.8" y1="245.896" x2="364" y2="236.051" />
<line fill="none" stroke-width="3" boundary-string=""  stroke="lightblue" x1="364" y1="236.051" x2="369.2" y2="226.499" />
<line fill="none" stroke-width="3" boundary-string=""  stroke="lightblue" x1="369.2" y1="226.499" x2="374.4" y2="217.276" />
<line fill="none" stroke-width="3" boundary-string=""  stroke="lightblue" x1="374.4" y1="217.276" x2="379.6" y2="208.428" />
<line fill="none" stroke-width="3" boundary-string=""  stroke="lightblue" x1="379.6" y1="208.428" x2="384.8" y2="200.004" />
<line fill="none" stroke-width="3" boundary-string=""  stroke="lightblue" x1="384.8" y1="200.004" x2="390" y2="192.06" />
<line fill="none" stroke-width="3" boundary-string=""  stroke="lightblue" x1="390" y1="192.06" x2="395.2" y2="184.657" />
<line fill="none" stroke-width="3" boundary-string=""  stroke="lightblue" x1="395.2" y1="184.657" x2="400.4" y2="177.863" />
<line fill="none" stroke-width="3" boundary-string=""  stroke="lightblue" x1="400.4" y1="177.863" x2="405.6" y2="171.75" />
<line fill="none" stroke-width="3" boundary-string=""  stroke="lightblue" x1="405.6" y1="171.75" x2="410.8" y2="166.394" />
<line fill="none" stroke-width="3" boundary-string=""  stroke="lightblue" x1="410.8" y1="166.394" x2="416" y2="161.87" />
<line fill="none" stroke-width="3" boundary-string=""  stroke="lightblue" x1="416" y1="161.87" x2="421.2" y2="158.249" />
<line fill="none" stroke-width="3" boundary-string=""  stroke="lightblue" x1="421.2" y1="158.249" x2="426.4" y2="152.557" />
<line fill="none" stroke-width="3" boundary-string=""  stroke="lightblue" x1="426.4" y1="152.557" x2="431.6" y2="143.454" />
<line fill="none" stroke-width="3" boundary-string=""  stroke="lightblue" x1="431.6" y1="143.454" x2="436.8" y2="134.946" />
<line fill="none" stroke-width="3" boundary-string=""  stroke="lightblue" x1="436.8" y1="134.946" x2="442" y2="127.153" />
<line fill="none" stroke-width="3" boundary-string=""  stroke="lightblue" x1="442" y1="127.153" x2="447.2" y2="120.213" />
<line fill="none" stroke-width="3" boundary-string=""  stroke="lightblue" x1="447.2" y1="120.213" x2="452.4" y2="114.281" />
<line fill="none" stroke-width="3" boundary-string=""  stroke="lightblue" x1="452.4" y1="114.281" x2="457.6" y2="109.523" />
<line fill="none" stroke-width="3" boundary-string=""  stroke="lightblue" x1="457.6" y1="109.523" x2="462.8" y2="106.097" />
<line fill="none" stroke-width="3" boundary-string=""  stroke="lightblue" x1="462.8" y1="106.097" x2="468" y2="104.132" />
<line fill="none" stroke-width="3" boundary-string=""  stroke="lightblue" x1="468" y1="104.132" x2="473.2" y2="103.713" />
<line fill="none" stroke-width="3" boundary-string=""  stroke="lightblue" x1="473.2" y1="103.713" x2="478.4" y2="102.127" />
<line fill="none" stroke-width="3" boundary-string=""  stroke="lightblue" x1="478.4" y1="102.127" x2="483.6" y2="89.3613" />
<line fill="none" stroke-width="3" boundary-string=""  stroke="lightblue" x1="483.6" y1="89.3613" x2="488.8" y2="76.5954" />
<line fill="none" stroke-width="3" boundary-string=""  stroke="lightblue" x1="488.8" y1="76.5954" x2="494" y2="63.8295" />
<line fill="none" stroke-width="3" boundary-string=""  stroke="lightblue" x1="494" y1="63.8295" x2="499.2" y2="51.0636" />
<line fill="none" stroke-width="3" boundary-string=""  stroke="lightblue" x1="499.2" y1="51.0636" x2="504.4" y2="38.2977" />
<line fill="none" stroke-width="3" boundary-string=""  stroke="lightblue" x1="504.4" y1="38.2977" x2="509.6" y2="25.5318" />
<line fill="none" stroke-width="3" boundary-string=""  stroke="lightblue" x1="509.6" y1="25.5318" x2="514.8" y2="12.7659" />
<line fill="none" stroke-width="3" boundary-string=""  stroke="lightblue" x1="514.8" y1="12.7659" x2="520" y2="0" />

<!--Draw the X and Y axes -->
<polyline fill="none" stroke="black" stroke-width="6"  points=" 600,0 0,0 0,520" />
<!-- -->


<!--Draw labels and tics for X axis -->

<line fill="none" stroke="black"  stroke-width="6"  x1="0.5" y1="0" x2="0.5" y2="-20" />
<text transform="scale(1,-1)" font-family="sans-serif" font-size="30" x="-24.5" y="45" >0 </text>
<line fill="none" stroke="black"  stroke-width="6"  x1="104.5" y1="0" x2="104.5" y2="-20" />
<text transform="scale(1,-1)" font-family="sans-serif" font-size="30" x="79.5" y="45" >20 </text>
<line fill="none" stroke="black"  stroke-width="6"  x1="208.5" y1="0" x2="208.5" y2="-20" />
<text transform="scale(1,-1)" font-family="sans-serif" font-size="30" x="183.5" y="45" >40 </text>
<line fill="none" stroke="black"  stroke-width="6"  x1="312.5" y1="0" x2="312.5" y2="-20" />
<text transform="scale(1,-1)" font-family="sans-serif" font-size="30" x="287.5" y="45" >60 </text>
<line fill="none" stroke="black"  stroke-width="6"  x1="416.5" y1="0" x2="416.5" y2="-20" />
<text transform="scale(1,-1)" font-family="sans-serif" font-size="30" x="391.5" y="45" >80 </text>
<line fill="none" stroke="black"  stroke-width="6"  x1="520.5" y1="0" x2="520.5" y2="-20" />
<text transform="scale(1,-1)" font-family="sans-serif" font-size="30" x="495.5" y="45" >100 </text>


<!--Draw labels and tics for Y axis -->

<line fill="none" stroke="black" stroke-width="6" x1="0.0" y1="0" x2="-20" y2="0" />
<text transform="scale(1,-1)" text-anchor="end" font-family="sans-serif" font-size="30" x="-25" y="10" >0 </text>
<line fill="none" stroke="black" stroke-width="6" x1="0.0" y1="74.2857" x2="-20" y2="74.2857" />
<text transform="scale(1,-1)" text-anchor="end" font-family="sans-serif" font-size="30" x="-25" y="-64.2857" >20 </text>
<line fill="none" stroke="black" stroke-width="6" x1="0.0" y1="148.571" x2="-20" y2="148.571" />
<text transform="scale(1,-1)" text-anchor="end" font-family="sans-serif" font-size="30" x="-25" y="-138.571" >40 </text>
<line fill="none" stroke="black" stroke-width="6" x1="0.0" y1="222.857" x2="-20" y2="222.857" />
<text transform="scale(1,-1)" text-anchor="end" font-family="sans-serif" font-size="30" x="-25" y="-212.857" >60 </text>
<line fill="none" stroke="black" stroke-width="6" x1="0.0" y1="297.143" x2="-20" y2="297.143" />
<text transform="scale(1,-1)" text-anchor="end" font-family="sans-serif" font-size="30" x="-25" y="-287.143" >80 </text>
<line fill="none" stroke="black" stroke-width="6" x1="0.0" y1="371.429" x2="-20" y2="371.429" />
<text transform="scale(1,-1)" text-anchor="end" font-family="sans-serif" font-size="30" x="-25" y="-361.429" >100 </text>
<line fill="none" stroke="black" stroke-width="6" x1="0.0" y1="445.714" x2="-20" y2="445.714" />
<text transform="scale(1,-1)" text-anchor="end" font-family="sans-serif" font-size="30" x="-25" y="-435.714" >120 </text>
<line fill="none" stroke="black" stroke-width="6" x1="0.0" y1="520" x2="-20" y2="520" />
<text transform="scale(1,-1)" text-anchor="end" font-family="sans-serif" font-size="30" x="-25" y="-510" >140 </text>


<!--Draw Glitches -->

<line fill="none" stroke="black" stroke-width="2" x1="353.6" y1="245.896" x2="353.6" y2="195.896" />
<text transform="scale(1,-1)" font-family="sans-serif" font-size="30" x="358.6" y="-185.896" >68 </text>
<line fill="none" stroke="black" stroke-width="2" x1="426.4" y1="143.454" x2="426.4" y2="93.454" />
<text transform="scale(1,-1)" font-family="sans-serif" font-size="30" x="431.4" y="-83.454" >82 </text>
<line fill="none" stroke="black" stroke-width="2" x1="478.4" y1="89.3613" x2="478.4" y2="39.3613" />
<text transform="scale(1,-1)" font-family="sans-serif" font-size="30" x="483.4" y="-29.3613" >92 </text>

<!-- -->


<!-- Reduced vector followed by D7dist from the final reduced cell
-43.06966 -41.12635 -57.67653 -47.94352 -64.05685 -88.93882    (8.52651e-14,  0)   
-44.69949 -42.79544 -56.02707 -48.84189 -63.89408 -88.20321    (3.0883,  4.95143)   
-46.32932 -44.46453 -54.37761 -49.74026 -63.73132 -87.46760    (6.17661,  9.90286)   
-47.95915 -46.13362 -52.72815 -50.63864 -63.56856 -86.73199    (9.26491,  14.8543)   
-49.58898 -47.80271 -51.07869 -51.53701 -63.40580 -85.99638    (12.3532,  19.8057)   
-51.21882 -49.47180 -49.42923 -52.43538 -63.24304 -85.26077    (15.4415,  24.7572)   
-52.84865 -51.14089 -47.77977 -53.33375 -63.08028 -84.52516    (18.5298,  29.7086)   
-54.47848 -52.80998 -46.13031 -54.23212 -62.91752 -83.78954    (21.6181,  34.66)   
-56.10831 -54.47907 -44.48085 -55.13050 -62.75476 -83.05393    (24.7064,  39.6114)   
-57.73814 -56.14816 -42.83138 -56.02887 -62.59200 -82.31832    (27.7947,  44.5629)   
-59.36797 -57.81725 -41.18192 -56.92724 -62.42924 -81.58271    (30.883,  49.5143)   
-62.26648 -57.82561 -39.53246 -59.48634 -60.99780 -80.84710    (33.9713,  54.4657)   
-62.10371 -58.72398 -37.88300 -61.15543 -62.62763 -80.11149    (36.308,  58.4818)   
-61.94095 -59.62236 -36.23354 -62.82452 -64.25746 -79.37588    (38.0675,  61.789)   
-61.77819 -60.52073 -34.58408 -64.49361 -65.88729 -78.64027    (37.6677,  62.4838)   
-61.61543 -61.41910 -32.93462 -66.16270 -67.51713 -77.90466    (37.5186,  63.558)   
-61.45267 -62.31747 -31.28516 -67.83179 -69.14696 -77.16904    (37.6233,  64.9926)   
-63.21584 -61.28991 -29.63570 -70.77679 -69.50088 -76.43343    (37.9797,  66.7644)   
-64.11422 -61.12715 -27.98624 -72.40662 -71.16997 -75.69782    (38.5807,  68.8475)   
-65.01259 -60.96439 -26.33678 -74.03645 -72.83906 -74.96221    (39.4153,  71.2144)   
-65.91096 -60.80163 -24.68732 -75.66628 -74.50815 -74.22660    (40.4689,  73.838)   
-66.80933 -60.63887 -23.03786 -77.29611 -76.17724 -73.49099    (41.725,  76.6918)   
-67.70770 -60.47611 -21.38840 -78.92594 -77.84633 -72.75538    (43.025,  79.5987)   
-68.60608 -60.31335 -19.73894 -80.55577 -79.51542 -72.01977    (43.8272,  81.9767)   
-69.50445 -60.15058 -18.08948 -82.18560 -81.18451 -71.28416    (44.8283,  84.5779)   
-70.40282 -59.98782 -16.44002 -83.81544 -82.85360 -70.54854    (46.0153,  87.3826)   
-71.30119 -59.82506 -14.79056 -85.44527 -84.52269 -69.81293    (47.3741,  90.3716)   
-72.19956 -59.66230 -13.14110 -87.07510 -86.19178 -69.07732    (48.8905,  93.5274)   
-73.09793 -59.49954 -11.49164 -88.70493 -87.86087 -68.34171    (50.5503,  96.8337)   
-73.99631 -59.33678  -9.84218 -90.33476 -89.52996 -67.60610    (52.3399,  100.276)   
-74.89468 -59.17402  -8.19272 -91.96459 -91.19905 -66.87049    (54.2464,  103.839)   
-75.79305 -59.01126  -6.54326 -93.59442 -92.86814 -66.13488    (56.2579,  107.513)   
-76.69142 -58.84850  -4.89380 -95.22425 -94.53722 -65.39927    (58.3635,  111.286)   
-77.58979 -58.68574  -3.24434 -96.85408 -96.20631 -64.66366    (60.5535,  115.149)   
-78.48817 -58.52298  -1.59488 -98.48391 -97.87540 -63.92805    (62.8191,  119.091)   
-99.48991 -58.30563  -0.05458 -100.05916 -79.33195 -63.24702    (65.0934,  123.007)   
-99.50954 -56.49341  -1.70405 -100.03953 -78.58087 -64.16087    (65.532,  123.459)   
-99.52917 -54.68119  -3.35351 -100.01990 -77.82978 -65.07472    (64.1772,  122.027)   
-99.54880 -52.86897  -5.00297 -100.00027 -77.07869 -65.98857    (62.911,  120.701)   
-99.56843 -51.05675  -6.65243 -99.98064 -76.32760 -66.90242    (61.7389,  119.485)   
-99.58806 -49.24452  -8.30189 -99.96101 -75.57651 -67.81627    (60.6663,  118.381)   
-99.60769 -47.43230  -9.95135 -99.94138 -74.82542 -68.73011    (59.6985,  117.392)   
-99.62731 -45.62008 -11.60081 -99.92176 -74.07433 -69.64396    (58.8408,  116.523)   
-99.64694 -43.80786 -13.25027 -99.90213 -73.32325 -70.55781    (57.8422,  115.519)   
-99.66657 -41.99564 -14.89973 -99.88250 -72.57216 -71.47166    (56.8636,  114.543)   
-99.68620 -40.18342 -16.54919 -99.86287 -71.82107 -72.38551    (56.0002,  113.689)   
-99.70583 -38.37120 -18.19865 -99.84324 -71.06998 -73.29936    (55.2574,  112.96)   
-99.72546 -36.55898 -19.84811 -99.82361 -70.31889 -74.21321    (54.6402,  112.358)   
-99.74509 -34.74675 -21.49757 -99.80398 -69.56780 -75.12706    (54.1529,  111.885)   
-99.76472 -32.93453 -23.14703 -99.78435 -68.81672 -76.04091    (53.7989,  111.543)   
-99.78435 -31.12231 -24.79649 -99.76472 -68.06563 -76.95476    (53.581,  111.333)   
-99.80398 -29.31009 -26.44595 -99.74509 -67.31454 -77.86861    (53.5008,  111.256)   
-99.82361 -27.49787 -28.09541 -99.72546 -66.56345 -78.78246    (53.5589,  111.312)   
-99.84324 -25.68565 -29.74487 -99.70583 -65.81236 -79.69631    (53.7549,  111.5)   
-99.86287 -23.87343 -31.39433 -99.68620 -65.06127 -80.61016    (54.0872,  111.821)   
-99.88250 -22.06121 -33.04379 -99.66657 -64.31018 -81.52400    (54.5535,  112.273)   
-99.90213 -20.24898 -34.69325 -99.64694 -63.55910 -82.43785    (55.1502,  112.855)   
-99.92176 -18.43676 -36.34271 -99.62731 -62.80801 -83.35170    (55.8732,  113.564)   
-99.94138 -16.62454 -37.99217 -99.60769 -62.05692 -84.26555    (56.7176,  114.398)   
-99.96101 -39.64163 -14.81232 -99.58806 -85.17940 -61.30583    (57.6782,  115.355)   
-99.98064 -41.29109 -13.00010 -99.56843 -86.09325 -60.55474    (58.7493,  116.431)   
-100.00027 -42.94055 -11.18788 -99.54880 -87.00710 -59.80365    (59.9248,  117.623)   
-100.01990 -44.59001  -9.37566 -99.52917 -87.92095 -59.05257    (61.1989,  118.928)   
-100.03953 -46.23948  -7.56344 -99.50954 -88.83480 -58.30148    (62.5654,  120.341)   
-100.05916 -47.88894  -5.75121 -99.48991 -89.74865 -57.55039    (64.0185,  121.86)   
-100.07879 -49.53840  -3.93899 -99.47028 -90.66250 -56.79930    (65.5524,  123.48)   
-100.09842 -51.18786  -2.12677 -99.45065 -91.57635 -56.04821    (67.1616,  125.198)   
-100.11805 -52.83732  -0.31455 -99.43102 -92.49020 -55.29712    (68.5266,  126.745)   
-91.90638 -52.98911  -1.49767 -97.91372 -98.64001 -56.04371    (66.2027,  122.791)   
-91.00800 -52.82635  -3.30989 -96.08187 -96.84742 -57.10484    (63.5523,  118.276)   
-90.10963 -52.66359  -5.12211 -94.25002 -95.05482 -58.16597    (60.9804,  113.847)   
-89.21126 -52.50082  -6.93433 -92.41817 -93.26223 -59.22710    (58.4975,  109.515)   
-88.31289 -52.33806  -8.74656 -90.58632 -91.46964 -60.28824    (56.1153,  105.291)   
-87.41452 -52.17530 -10.55878 -88.75447 -89.67705 -61.34937    (53.8473,  101.189)   
-86.51614 -52.01254 -12.37100 -86.92262 -87.88446 -62.41050    (51.7084,  97.2249)   
-85.61777 -51.84978 -14.18322 -85.09077 -86.09187 -63.47163    (49.7152,  93.416)   
-84.71940 -51.68702 -15.99544 -83.25892 -84.29927 -64.53277    (47.8861,  89.7819)   
-83.82103 -51.52426 -17.80766 -81.42707 -82.50668 -65.59390    (46.2404,  86.3447)   
-82.92266 -51.36150 -19.61988 -79.59522 -80.71409 -66.65503    (44.7985,  83.129)   
-82.02428 -51.19874 -21.43210 -77.76336 -78.92150 -67.71617    (43.5805,  80.1613)   
-81.12591 -51.03598 -23.24432 -75.93151 -77.12891 -68.77730    (42.6056,  77.4701)   
-80.22754 -50.87322 -25.05655 -74.09966 -75.33631 -69.83843    (41.073,  74.1762)   
-79.32917 -50.71046 -26.86877 -72.26781 -73.54372 -70.89956    (38.6222,  69.8684)   
-78.43080 -50.54769 -28.68099 -70.43596 -71.75113 -71.96070    (36.3316,  65.7378)   
-77.53242 -50.38493 -30.49321 -68.60411 -69.95854 -73.02183    (34.2334,  61.82)   
-76.63405 -50.22217 -32.30543 -66.77226 -68.16595 -74.08296    (32.3649,  58.1581)   
-75.73568 -50.05941 -34.11765 -64.94041 -66.37336 -75.14410    (30.7681,  54.8032)   
-74.83731 -49.89665 -35.92987 -63.10856 -64.58076 -76.20523    (29.4871,  51.8152)   
-73.93894 -49.73389 -37.74209 -61.27671 -62.78817 -77.26636    (28.5644,  49.2607)   
-60.99558 -59.44486 -39.55432 -49.57113 -73.04056 -78.32749    (28.0355,  47.2103)   
-59.20299 -57.61301 -41.36654 -49.40837 -72.14219 -79.38863    (27.9228,  45.7318)   
-57.41040 -55.78116 -43.17876 -49.24561 -71.24382 -80.44976    (27.4958,  43.9591)   
-55.61780 -53.94931 -44.99098 -49.08285 -70.34545 -81.51089    (24.0588,  38.4642)   
-53.82521 -52.11746 -46.80320 -48.92009 -69.44708 -82.57203    (20.6218,  32.9694)   
-52.03262 -50.28561 -48.61542 -48.75732 -68.54870 -83.63316    (17.1849,  27.4745)   
-50.24003 -48.45376 -50.42764 -48.59456 -67.65033 -84.69429    (13.7479,  21.9796)   
-48.44744 -46.62190 -52.23986 -48.43180 -66.75196 -85.75542    (10.3109,  16.4847)   
-46.65484 -44.79005 -54.05209 -48.26904 -65.85359 -86.81656    (6.87394,  10.9898)   
-44.86225 -42.95820 -55.86431 -48.10628 -64.95522 -87.87769    (3.43697,  5.49489)   
-43.06966 -41.12635 -57.67653 -47.94352 -64.05685 -88.93882    (0,  0)   
-->
</g>
</g>
<!-- Run Constants
CIRCLEPLOT bool false
DISTANCEPLOT bool true
PRINTDISTANCEDATA bool true
GLITCHESONLY bool false
PLOT 2doubles 3 4
PERTURBBY double 0.05
GLITCHLEVEL double 3
BOUNDARYWINDOW double 0.065
FRAMESPERPATH int 200
STEPSPERFRAME int 100
TRIALS int 1
ALLBLACK bool false
FILEPREFIX string Fol
GRAPHSIZE int 0
BORDER int 0
PLOTSIZE int 0
CIRCLEPLOTSIZE int 2000
CIRCLERADIUS int 300
CIRCLESTROKEWIDTH int 30
G6LINEWIDTH int 3
DELONELINEWIDTH int 10
AXISWIDTH int 6
TICLENGTH int 20
VECTOR g6 
PERTURB g6Perturb 
MOVIEMODE MovieMode STAR
FOLLOWERMODE FollowerMode Follow
FIXRANDOMSEED fixRandomSeed true
RANDOMSEED int 18
TIMESTAMP bool true
END end 




-->
</svg>
