<?xml version="1.0" standalone="no"?>
<!-- the width and height set the total pixel output of the image in the browser -->
<!-- whatever is within the viewbox will be remapped to show in this size -->
<svg width="1000" height="1000" viewBox="1 0 1000 1000"  version="1.1" xmlns="http://www.w3.org/2000/svg" xmlns:xlink="http://www.w3.org/1999/xlink">
 <desc>ID (and file name) = Fol_2018-02-06.14_29_12.54_0.svg </desc> 
 <text x="280"  y="30"  font-family="sans-serif" font-size="20" > Trial vector = 0  </text> 
 <text x="700" y="30" font-family="sans-serif" font-size="20">Wall time passed: 31098 msec.</text>
<text x="450" y="30" font-family="sans-serif" font-size="20" fill="black" > Plotting g5 vs. g4</text>
<text x="300" y="60"  font-family="sans-serif" font-size="20" > Beginning vector   20.59108  30.19080 -307.74672  66.13894 -231.87900 -290.02120 </text>
<text x="300" y="85"  font-family="sans-serif" font-size="20" > Beginning cell   14.54019  22.78233  15.46736   1.51233   1.43615   2.76255 </text>
<text x="300" y="110"  font-family="sans-serif" font-size="20" > Ending vector  -52.74303 -32.15342 -18.62845 -64.17631 -62.34422 -126.11322 </text>
<text x="300" y="135"  font-family="sans-serif" font-size="20" > Ending cell   10.72186  11.56355  14.52617   1.89019   1.77874   1.72162 </text>




 <!--DISTANCE PLOT BEGINS-->


<!-- the following will scale and place the distance plot -->
<g  transform="translate(0,50) ">
<g transform="translate(150,700) scale(1 -1)">
   <polyline fill="none" stroke="black" stroke-width="10" points=" 5.2 ,0  10.4 ,29.0134  15.6 ,58.0268  20.8 ,87.0402  26 ,116.054  31.2 ,145.067  36.4 ,174.08  41.6 ,203.094  46.8 ,223.706  52 ,236.292  57.2 ,249.057  62.4 ,258.135  67.6 ,256.705  72.8 ,256.051  78 ,259.418  83.2 ,266.763  88.4 ,277.756  93.6 ,283.623  98.8 ,289.973  104 ,296.832  109.2 ,304.167  114.4 ,311.943  119.6 ,320.13  124.8 ,328.695  130 ,337.61  135.2 ,346.849  140.4 ,356.386  145.6 ,366.197  150.8 ,376.262  156 ,386.56  161.2 ,397.073  166.4 ,407.785  171.6 ,418.604  176.8 ,429.463  182 ,440.49  187.2 ,451.672  192.4 ,462.997  197.6 ,474.455  202.8 ,483.985  208 ,493.565  213.2 ,503.306  218.4 ,507.318  223.6 ,506.602  228.8 ,505.979  234 ,505.45  239.2 ,505.016  244.4 ,504.676  249.6 ,504.431  254.8 ,504.218  260 ,503.096  265.2 ,500.372  270.4 ,491.691  275.6 ,481.104  280.8 ,470.559  286 ,460.058  291.2 ,449.605  296.4 ,439.203  301.6 ,428.855  306.8 ,418.567  312 ,408.342  317.2 ,398.185  322.4 ,388.102  327.6 ,378.099  332.8 ,368.182  338 ,358.359  343.2 ,348.637  348.4 ,339.026  353.6 ,329.536  358.8 ,320.178  364 ,310.964  369.2 ,301.908  374.4 ,293.025  379.6 ,284.331  384.8 ,275.847  390 ,267.591  395.2 ,259.589  400.4 ,251.865  405.6 ,244.447  410.8 ,237.366  416 ,229.599  421.2 ,218.119  426.4 ,206.639  431.6 ,195.159  436.8 ,183.679  442 ,172.2  447.2 ,160.72  452.4 ,149.24  457.6 ,137.76  462.8 ,126.28  468 ,114.8  473.2 ,103.32  478.4 ,91.8397  483.6 ,80.3598  488.8 ,68.8798  494 ,57.3998  499.2 ,45.9199  504.4 ,34.4399  509.6 ,22.9599  514.8 ,11.48  520 ,1.60303e-05  " />

<!--Draw the X and Y axes -->
<polyline fill="none" stroke="black" stroke-width="6"  points=" 600,0 0,0 0,520" />
<!-- -->

<line fill="none" stroke-width="3" boundary-string=""  stroke="lightblue" x1="0" y1="1.18027e-13" x2="5.2" y2="1.18027e-13" />
<line fill="none" stroke-width="3" boundary-string=""  stroke="lightblue" x1="5.2" y1="1.18027e-13" x2="10.4" y2="16.7723" />
<line fill="none" stroke-width="3" boundary-string=""  stroke="lightblue" x1="10.4" y1="16.7723" x2="15.6" y2="33.5445" />
<line fill="none" stroke-width="3" boundary-string=""  stroke="lightblue" x1="15.6" y1="33.5445" x2="20.8" y2="50.3168" />
<line fill="none" stroke-width="3" boundary-string=""  stroke="lightblue" x1="20.8" y1="50.3168" x2="26" y2="67.089" />
<line fill="none" stroke-width="3" boundary-string=""  stroke="lightblue" x1="26" y1="67.089" x2="31.2" y2="83.8613" />
<line fill="none" stroke-width="3" boundary-string=""  stroke="lightblue" x1="31.2" y1="83.8613" x2="36.4" y2="100.634" />
<line fill="none" stroke-width="3" boundary-string=""  stroke="lightblue" x1="36.4" y1="100.634" x2="41.6" y2="117.406" />
<line fill="none" stroke-width="3" boundary-string=""  stroke="lightblue" x1="41.6" y1="117.406" x2="46.8" y2="127.909" />
<line fill="none" stroke-width="3" boundary-string=""  stroke="lightblue" x1="46.8" y1="127.909" x2="52" y2="132.571" />
<line fill="none" stroke-width="3" boundary-string=""  stroke="lightblue" x1="52" y1="132.571" x2="57.2" y2="137.556" />
<line fill="none" stroke-width="3" boundary-string=""  stroke="lightblue" x1="57.2" y1="137.556" x2="62.4" y2="142.831" />
<line fill="none" stroke-width="3" boundary-string=""  stroke="lightblue" x1="62.4" y1="142.831" x2="67.6" y2="145.636" />
<line fill="none" stroke-width="3" boundary-string=""  stroke="lightblue" x1="67.6" y1="145.636" x2="72.8" y2="144.27" />
<line fill="none" stroke-width="3" boundary-string=""  stroke="lightblue" x1="72.8" y1="144.27" x2="78" y2="143.354" />
<line fill="none" stroke-width="3" boundary-string=""  stroke="lightblue" x1="78" y1="143.354" x2="83.2" y2="142.895" />
<line fill="none" stroke-width="3" boundary-string=""  stroke="lightblue" x1="83.2" y1="142.895" x2="88.4" y2="142.899" />
<line fill="none" stroke-width="3" boundary-string=""  stroke="lightblue" x1="88.4" y1="142.899" x2="93.6" y2="143.365" />
<line fill="none" stroke-width="3" boundary-string=""  stroke="lightblue" x1="93.6" y1="143.365" x2="98.8" y2="144.289" />
<line fill="none" stroke-width="3" boundary-string=""  stroke="lightblue" x1="98.8" y1="144.289" x2="104" y2="145.663" />
<line fill="none" stroke-width="3" boundary-string=""  stroke="lightblue" x1="104" y1="145.663" x2="109.2" y2="147.472" />
<line fill="none" stroke-width="3" boundary-string=""  stroke="lightblue" x1="109.2" y1="147.472" x2="114.4" y2="149.703" />
<line fill="none" stroke-width="3" boundary-string=""  stroke="lightblue" x1="114.4" y1="149.703" x2="119.6" y2="152.336" />
<line fill="none" stroke-width="3" boundary-string=""  stroke="lightblue" x1="119.6" y1="152.336" x2="124.8" y2="155.35" />
<line fill="none" stroke-width="3" boundary-string=""  stroke="lightblue" x1="124.8" y1="155.35" x2="130" y2="158.725" />
<line fill="none" stroke-width="3" boundary-string=""  stroke="lightblue" x1="130" y1="158.725" x2="135.2" y2="162.437" />
<line fill="none" stroke-width="3" boundary-string=""  stroke="lightblue" x1="135.2" y1="162.437" x2="140.4" y2="166.465" />
<line fill="none" stroke-width="3" boundary-string=""  stroke="lightblue" x1="140.4" y1="166.465" x2="145.6" y2="170.785" />
<line fill="none" stroke-width="3" boundary-string=""  stroke="lightblue" x1="145.6" y1="170.785" x2="150.8" y2="175.376" />
<line fill="none" stroke-width="3" boundary-string=""  stroke="lightblue" x1="150.8" y1="175.376" x2="156" y2="180.218" />
<line fill="none" stroke-width="3" boundary-string=""  stroke="lightblue" x1="156" y1="180.218" x2="161.2" y2="185.29" />
<line fill="none" stroke-width="3" boundary-string=""  stroke="lightblue" x1="161.2" y1="185.29" x2="166.4" y2="190.575" />
<line fill="none" stroke-width="3" boundary-string=""  stroke="lightblue" x1="166.4" y1="190.575" x2="171.6" y2="195.973" />
<line fill="none" stroke-width="3" boundary-string=""  stroke="lightblue" x1="171.6" y1="195.973" x2="176.8" y2="201.413" />
<line fill="none" stroke-width="3" boundary-string=""  stroke="lightblue" x1="176.8" y1="201.413" x2="182" y2="207.03" />
<line fill="none" stroke-width="3" boundary-string=""  stroke="lightblue" x1="182" y1="207.03" x2="187.2" y2="212.81" />
<line fill="none" stroke-width="3" boundary-string=""  stroke="lightblue" x1="187.2" y1="212.81" x2="192.4" y2="218.74" />
<line fill="none" stroke-width="3" boundary-string=""  stroke="lightblue" x1="192.4" y1="218.74" x2="197.6" y2="224.808" />
<line fill="none" stroke-width="3" boundary-string=""  stroke="lightblue" x1="197.6" y1="224.808" x2="202.8" y2="230.573" />
<line fill="none" stroke-width="3" boundary-string=""  stroke="lightblue" x1="202.8" y1="230.573" x2="208" y2="236.493" />
<line fill="none" stroke-width="3" boundary-string=""  stroke="lightblue" x1="208" y1="236.493" x2="213.2" y2="242.582" />
<line fill="none" stroke-width="3" boundary-string=""  stroke="lightblue" x1="213.2" y1="242.582" x2="218.4" y2="244.71" />
<line fill="none" stroke-width="3" boundary-string=""  stroke="lightblue" x1="218.4" y1="244.71" x2="223.6" y2="243.676" />
<line fill="none" stroke-width="3" boundary-string=""  stroke="lightblue" x1="223.6" y1="243.676" x2="228.8" y2="242.734" />
<line fill="none" stroke-width="3" boundary-string=""  stroke="lightblue" x1="228.8" y1="242.734" x2="234" y2="241.886" />
<line fill="none" stroke-width="3" boundary-string=""  stroke="lightblue" x1="234" y1="241.886" x2="239.2" y2="241.133" />
<line fill="none" stroke-width="3" boundary-string=""  stroke="lightblue" x1="239.2" y1="241.133" x2="244.4" y2="240.475" />
<line fill="none" stroke-width="3" boundary-string=""  stroke="lightblue" x1="244.4" y1="240.475" x2="249.6" y2="239.914" />
<line fill="none" stroke-width="3" boundary-string=""  stroke="lightblue" x1="249.6" y1="239.914" x2="254.8" y2="239.434" />
<line fill="none" stroke-width="3" boundary-string=""  stroke="lightblue" x1="254.8" y1="239.434" x2="260" y2="238.808" />
<line fill="none" stroke-width="3" boundary-string=""  stroke="lightblue" x1="260" y1="238.808" x2="265.2" y2="237.997" />
<line fill="none" stroke-width="3" boundary-string=""  stroke="lightblue" x1="265.2" y1="237.997" x2="270.4" y2="233.8" />
<line fill="none" stroke-width="3" boundary-string=""  stroke="lightblue" x1="270.4" y1="233.8" x2="275.6" y2="228.371" />
<line fill="none" stroke-width="3" boundary-string=""  stroke="lightblue" x1="275.6" y1="228.371" x2="280.8" y2="222.977" />
<line fill="none" stroke-width="3" boundary-string=""  stroke="lightblue" x1="280.8" y1="222.977" x2="286" y2="217.62" />
<line fill="none" stroke-width="3" boundary-string=""  stroke="lightblue" x1="286" y1="217.62" x2="291.2" y2="212.304" />
<line fill="none" stroke-width="3" boundary-string=""  stroke="lightblue" x1="291.2" y1="212.304" x2="296.4" y2="207.032" />
<line fill="none" stroke-width="3" boundary-string=""  stroke="lightblue" x1="296.4" y1="207.032" x2="301.6" y2="201.806" />
<line fill="none" stroke-width="3" boundary-string=""  stroke="lightblue" x1="301.6" y1="201.806" x2="306.8" y2="196.631" />
<line fill="none" stroke-width="3" boundary-string=""  stroke="lightblue" x1="306.8" y1="196.631" x2="312" y2="191.511" />
<line fill="none" stroke-width="3" boundary-string=""  stroke="lightblue" x1="312" y1="191.511" x2="317.2" y2="186.449" />
<line fill="none" stroke-width="3" boundary-string=""  stroke="lightblue" x1="317.2" y1="186.449" x2="322.4" y2="181.452" />
<line fill="none" stroke-width="3" boundary-string=""  stroke="lightblue" x1="322.4" y1="181.452" x2="327.6" y2="176.525" />
<line fill="none" stroke-width="3" boundary-string=""  stroke="lightblue" x1="327.6" y1="176.525" x2="332.8" y2="171.674" />
<line fill="none" stroke-width="3" boundary-string=""  stroke="lightblue" x1="332.8" y1="171.674" x2="338" y2="166.904" />
<line fill="none" stroke-width="3" boundary-string=""  stroke="lightblue" x1="338" y1="166.904" x2="343.2" y2="162.224" />
<line fill="none" stroke-width="3" boundary-string=""  stroke="lightblue" x1="343.2" y1="162.224" x2="348.4" y2="157.642" />
<line fill="none" stroke-width="3" boundary-string=""  stroke="lightblue" x1="348.4" y1="157.642" x2="353.6" y2="153.166" />
<line fill="none" stroke-width="3" boundary-string=""  stroke="lightblue" x1="353.6" y1="153.166" x2="358.8" y2="148.805" />
<line fill="none" stroke-width="3" boundary-string=""  stroke="lightblue" x1="358.8" y1="148.805" x2="364" y2="144.571" />
<line fill="none" stroke-width="3" boundary-string=""  stroke="lightblue" x1="364" y1="144.571" x2="369.2" y2="140.474" />
<line fill="none" stroke-width="3" boundary-string=""  stroke="lightblue" x1="369.2" y1="140.474" x2="374.4" y2="136.528" />
<line fill="none" stroke-width="3" boundary-string=""  stroke="lightblue" x1="374.4" y1="136.528" x2="379.6" y2="132.745" />
<line fill="none" stroke-width="3" boundary-string=""  stroke="lightblue" x1="379.6" y1="132.745" x2="384.8" y2="129.14" />
<line fill="none" stroke-width="3" boundary-string=""  stroke="lightblue" x1="384.8" y1="129.14" x2="390" y2="125.728" />
<line fill="none" stroke-width="3" boundary-string=""  stroke="lightblue" x1="390" y1="125.728" x2="395.2" y2="122.525" />
<line fill="none" stroke-width="3" boundary-string=""  stroke="lightblue" x1="395.2" y1="122.525" x2="400.4" y2="119.549" />
<line fill="none" stroke-width="3" boundary-string=""  stroke="lightblue" x1="400.4" y1="119.549" x2="405.6" y2="116.815" />
<line fill="none" stroke-width="3" boundary-string=""  stroke="lightblue" x1="405.6" y1="116.815" x2="410.8" y2="114.343" />
<line fill="none" stroke-width="3" boundary-string=""  stroke="lightblue" x1="410.8" y1="114.343" x2="416" y2="112.149" />
<line fill="none" stroke-width="3" boundary-string=""  stroke="lightblue" x1="416" y1="112.149" x2="421.2" y2="110.249" />
<line fill="none" stroke-width="3" boundary-string=""  stroke="lightblue" x1="421.2" y1="110.249" x2="426.4" y2="108.66" />
<line fill="none" stroke-width="3" boundary-string=""  stroke="lightblue" x1="426.4" y1="108.66" x2="431.6" y2="103.771" />
<line fill="none" stroke-width="3" boundary-string=""  stroke="lightblue" x1="431.6" y1="103.771" x2="436.8" y2="97.6665" />
<line fill="none" stroke-width="3" boundary-string=""  stroke="lightblue" x1="436.8" y1="97.6665" x2="442" y2="91.5623" />
<line fill="none" stroke-width="3" boundary-string=""  stroke="lightblue" x1="442" y1="91.5623" x2="447.2" y2="85.4582" />
<line fill="none" stroke-width="3" boundary-string=""  stroke="lightblue" x1="447.2" y1="85.4582" x2="452.4" y2="79.354" />
<line fill="none" stroke-width="3" boundary-string=""  stroke="lightblue" x1="452.4" y1="79.354" x2="457.6" y2="73.2499" />
<line fill="none" stroke-width="3" boundary-string=""  stroke="lightblue" x1="457.6" y1="73.2499" x2="462.8" y2="67.1457" />
<line fill="none" stroke-width="3" boundary-string=""  stroke="lightblue" x1="462.8" y1="67.1457" x2="468" y2="61.0416" />
<line fill="none" stroke-width="3" boundary-string=""  stroke="lightblue" x1="468" y1="61.0416" x2="473.2" y2="54.9374" />
<line fill="none" stroke-width="3" boundary-string=""  stroke="lightblue" x1="473.2" y1="54.9374" x2="478.4" y2="48.8332" />
<line fill="none" stroke-width="3" boundary-string=""  stroke="lightblue" x1="478.4" y1="48.8332" x2="483.6" y2="42.7291" />
<line fill="none" stroke-width="3" boundary-string=""  stroke="lightblue" x1="483.6" y1="42.7291" x2="488.8" y2="36.6249" />
<line fill="none" stroke-width="3" boundary-string=""  stroke="lightblue" x1="488.8" y1="36.6249" x2="494" y2="30.5208" />
<line fill="none" stroke-width="3" boundary-string=""  stroke="lightblue" x1="494" y1="30.5208" x2="499.2" y2="24.4166" />
<line fill="none" stroke-width="3" boundary-string=""  stroke="lightblue" x1="499.2" y1="24.4166" x2="504.4" y2="18.3125" />
<line fill="none" stroke-width="3" boundary-string=""  stroke="lightblue" x1="504.4" y1="18.3125" x2="509.6" y2="12.2083" />
<line fill="none" stroke-width="3" boundary-string=""  stroke="lightblue" x1="509.6" y1="12.2083" x2="514.8" y2="6.10416" />
<line fill="none" stroke-width="3" boundary-string=""  stroke="lightblue" x1="514.8" y1="6.10416" x2="520" y2="0" />

<!--Draw the X and Y axes -->
<polyline fill="none" stroke="black" stroke-width="6"  points=" 600,0 0,0 0,520" />
<!-- -->


<!--Draw labels and tics for X axis -->

<line fill="none" stroke="black"  stroke-width="6"  x1="0.5" y1="0" x2="0.5" y2="-20" />
<text transform="scale(1,-1)" font-family="sans-serif" font-size="30" x="-24.5" y="45" >0 </text>
<line fill="none" stroke="black"  stroke-width="6"  x1="104.5" y1="0" x2="104.5" y2="-20" />
<text transform="scale(1,-1)" font-family="sans-serif" font-size="30" x="79.5" y="45" >20 </text>
<line fill="none" stroke="black"  stroke-width="6"  x1="208.5" y1="0" x2="208.5" y2="-20" />
<text transform="scale(1,-1)" font-family="sans-serif" font-size="30" x="183.5" y="45" >40 </text>
<line fill="none" stroke="black"  stroke-width="6"  x1="312.5" y1="0" x2="312.5" y2="-20" />
<text transform="scale(1,-1)" font-family="sans-serif" font-size="30" x="287.5" y="45" >60 </text>
<line fill="none" stroke="black"  stroke-width="6"  x1="416.5" y1="0" x2="416.5" y2="-20" />
<text transform="scale(1,-1)" font-family="sans-serif" font-size="30" x="391.5" y="45" >80 </text>
<line fill="none" stroke="black"  stroke-width="6"  x1="520.5" y1="0" x2="520.5" y2="-20" />
<text transform="scale(1,-1)" font-family="sans-serif" font-size="30" x="495.5" y="45" >100 </text>


<!--Draw labels and tics for Y axis -->

<line fill="none" stroke="black" stroke-width="6" x1="0.0" y1="0" x2="-20" y2="0" />
<text transform="scale(1,-1)" text-anchor="end" font-family="sans-serif" font-size="30" x="-25" y="10" >0 </text>
<line fill="none" stroke="black" stroke-width="6" x1="0.0" y1="74.2857" x2="-20" y2="74.2857" />
<text transform="scale(1,-1)" text-anchor="end" font-family="sans-serif" font-size="30" x="-25" y="-64.2857" >50 </text>
<line fill="none" stroke="black" stroke-width="6" x1="0.0" y1="148.571" x2="-20" y2="148.571" />
<text transform="scale(1,-1)" text-anchor="end" font-family="sans-serif" font-size="30" x="-25" y="-138.571" >100 </text>
<line fill="none" stroke="black" stroke-width="6" x1="0.0" y1="222.857" x2="-20" y2="222.857" />
<text transform="scale(1,-1)" text-anchor="end" font-family="sans-serif" font-size="30" x="-25" y="-212.857" >150 </text>
<line fill="none" stroke="black" stroke-width="6" x1="0.0" y1="297.143" x2="-20" y2="297.143" />
<text transform="scale(1,-1)" text-anchor="end" font-family="sans-serif" font-size="30" x="-25" y="-287.143" >200 </text>
<line fill="none" stroke="black" stroke-width="6" x1="0.0" y1="371.429" x2="-20" y2="371.429" />
<text transform="scale(1,-1)" text-anchor="end" font-family="sans-serif" font-size="30" x="-25" y="-361.429" >250 </text>
<line fill="none" stroke="black" stroke-width="6" x1="0.0" y1="445.714" x2="-20" y2="445.714" />
<text transform="scale(1,-1)" text-anchor="end" font-family="sans-serif" font-size="30" x="-25" y="-435.714" >300 </text>
<line fill="none" stroke="black" stroke-width="6" x1="0.0" y1="520" x2="-20" y2="520" />
<text transform="scale(1,-1)" text-anchor="end" font-family="sans-serif" font-size="30" x="-25" y="-510" >350 </text>


<!-- Reduced vector followed by D7dist from the final reduced cell
-52.74303 -32.15342 -18.62845 -64.17631 -62.34422 -126.11322    (7.94411e-14,  0)   
-58.63537 -27.86255 -21.54884 -66.52113 -57.42361 -132.11917    (11.289,  19.5283)   
-64.52770 -23.57167 -24.46923 -68.86595 -52.50299 -138.12513    (22.578,  39.0565)   
-70.42004 -19.28080 -27.38961 -71.21077 -47.58238 -144.13108    (33.8671,  58.5848)   
-76.31238 -14.98992 -30.31000 -73.55559 -42.66176 -150.13704    (45.1561,  78.113)   
-82.20472 -10.69905 -33.23039 -75.90041 -37.74115 -156.14299    (56.4451,  97.6413)   
-88.09706  -6.40818 -36.15077 -78.24523 -32.82054 -162.14895    (67.7341,  117.17)   
-93.98940  -2.11730 -39.07116 -80.59005 -27.89992 -168.15490    (79.0232,  136.698)   
-25.15288 -39.81797 -80.76129  -2.17357 -97.70816 -171.98728    (86.0923,  150.571)   
-24.52314 -38.44748 -78.81524  -6.46445 -99.30962 -173.70236    (89.2303,  159.043)   
-23.89340 -37.07700 -76.86918 -10.75532 -100.91109 -175.41744    (92.5859,  167.634)   
-23.26366 -35.70651 -74.92313 -15.04620 -102.51255 -177.13252    (96.1365,  173.745)   
-22.63392 -34.33602 -72.97707 -19.33707 -104.11401 -178.84760    (98.0243,  172.782)   
-22.00418 -32.96553 -71.03102 -23.62795 -105.71548 -180.56268    (97.105,  172.342)   
-21.37444 -31.59504 -69.08496 -27.91882 -107.31694 -182.27776    (96.4881,  174.608)   
-20.74470 -30.22455 -67.13891 -32.20970 -108.91841 -183.99284    (96.1795,  179.552)   
-20.11497 -28.85407 -65.19285 -36.50057 -110.51987 -185.70792    (96.1821,  186.951)   
-19.48523 -27.48358 -63.24680 -40.79145 -112.12133 -187.42300    (96.4959,  190.9)   
-18.85549 -26.11309 -61.30074 -45.08232 -113.72280 -189.13808    (97.1178,  195.174)   
-18.22575 -24.74260 -59.35469 -49.37320 -115.32426 -190.85316    (98.0421,  199.791)   
-17.59601 -23.37211 -57.40863 -53.66407 -116.92572 -192.56824    (99.2602,  204.728)   
-16.96627 -22.00163 -55.46258 -57.95495 -118.52719 -194.28332    (100.762,  209.962)   
-16.33653 -20.63114 -53.51652 -62.24582 -120.12865 -195.99840    (102.534,  215.472)   
-15.70679 -19.26065 -51.57046 -66.53670 -121.73011 -197.71348    (104.563,  221.237)   
-15.07705 -17.89016 -49.62441 -70.82757 -123.33158 -199.42856    (106.834,  227.238)   
-14.44731 -16.51967 -47.67835 -75.11844 -124.93304 -201.14364    (109.333,  233.456)   
-13.81757 -15.14918 -45.73230 -79.40932 -126.53451 -202.85872    (112.044,  239.875)   
-13.18783 -13.77870 -43.78624 -83.70019 -128.13597 -204.57380    (114.951,  246.479)   
-12.55809 -12.40821 -41.84019 -87.99107 -129.73743 -206.28888    (118.042,  253.253)   
-11.92835 -11.03772 -39.89413 -92.28194 -131.33890 -208.00396    (121.3,  260.184)   
-11.29861  -9.66723 -37.94808 -96.57282 -132.94036 -209.71904    (124.715,  267.261)   
-10.66887  -8.29674 -36.00202 -100.86369 -134.54182 -211.43412    (128.272,  274.471)   
-10.03913  -6.92626 -34.05597 -105.15457 -136.14329 -213.14920    (131.905,  281.752)   
 -9.40939  -5.55577 -32.10991 -109.44544 -137.74475 -214.86428    (135.566,  289.062)   
 -8.77965  -4.18528 -30.16386 -113.73632 -139.34621 -216.57936    (139.347,  296.484)   
 -8.14991  -2.81479 -28.21780 -118.02719 -140.94768 -218.29444    (143.238,  304.01)   
 -7.52017  -1.44430 -26.27175 -122.31807 -142.54914 -220.00952    (147.229,  311.632)   
 -6.89043  -0.07381 -24.32569 -126.60894 -144.15060 -221.72460    (151.313,  319.345)   
 -4.96402 -129.60314  -1.29667 -21.08296 -222.14300 -147.04874    (155.193,  325.759)   
 -2.96379 -132.52353  -2.66716 -17.76642 -222.48759 -150.02069    (159.178,  332.207)   
 -0.96356 -135.44392  -4.03765 -14.44988 -222.83219 -152.99265    (163.276,  338.764)   
 -1.03666 -154.92793  -4.37147 -12.17000 -222.14011 -137.32764    (164.708,  341.464)   
 -3.03689 -155.89966  -3.74173 -10.85368 -220.48448 -138.24780    (164.012,  340.982)   
 -5.03712 -156.87138  -3.11200  -9.53736 -218.82884 -139.16796    (163.379,  340.563)   
 -7.03735 -157.84311  -2.48226  -8.22105 -217.17321 -140.08812    (162.808,  340.207)   
 -9.03757 -158.81483  -1.85252  -6.90473 -215.51757 -141.00827    (162.301,  339.915)   
-11.03780 -159.78655  -1.22278  -5.58842 -213.86193 -141.92843    (161.858,  339.686)   
-13.03803 -160.75828  -0.59304  -4.27210 -212.20630 -142.84859    (161.481,  339.521)   
 -0.03670 -15.00155  -2.91908 -143.80545 -161.69330 -210.51396    (161.157,  339.378)   
 -0.66644 -16.37204  -0.97303 -145.35535 -162.03528 -208.22858    (160.736,  338.622)   
-145.93222  -0.32315  -0.97303 -161.40424 -16.76950 -206.91624    (160.19,  336.789)   
-17.18710 -158.80701  -1.92592  -0.99316 -205.58375 -144.54290    (157.365,  330.946)   
-17.92785 -155.88662  -2.55566  -2.30948 -203.92812 -142.83043    (153.711,  323.82)   
-18.66859 -152.96623  -3.18540  -3.62579 -202.27248 -141.11796    (150.081,  316.722)   
-19.40934 -150.04585  -3.81514  -4.94211 -200.61684 -139.40549    (146.475,  309.655)   
-20.15009 -147.12546  -4.44488  -6.25842 -198.96121 -137.69301    (142.897,  302.619)   
-20.89084 -144.20508  -5.07462  -7.57474 -197.30557 -135.98054    (139.348,  295.617)   
-21.63159 -141.28469  -5.70436  -8.89106 -195.64994 -134.26807    (135.831,  288.653)   
-22.37234 -138.36430  -6.33410 -10.20737 -193.99430 -132.55560    (132.348,  281.728)   
-23.11309 -135.44392  -6.96384 -11.52369 -192.33866 -130.84312    (128.901,  274.845)   
-23.85383 -132.52353  -7.59358 -12.84000 -190.68303 -129.13065    (125.495,  268.009)   
-24.59458 -129.60314  -8.22332 -14.15632 -189.02739 -127.41818    (122.131,  261.222)   
-25.33533 -126.68276  -8.85306 -15.47263 -187.37176 -125.70571    (118.815,  254.489)   
-26.07608 -123.76237  -9.48280 -16.78895 -185.71612 -123.99323    (115.55,  247.815)   
-26.81683 -120.84198 -10.11254 -18.10526 -184.06048 -122.28076    (112.339,  241.203)   
-27.55758 -117.92160 -10.74228 -19.42158 -182.40485 -120.56829    (109.189,  234.66)   
-28.29833 -115.00121 -11.37202 -20.73790 -180.74921 -118.85582    (106.105,  228.191)   
-29.03907 -112.08082 -12.00176 -22.05421 -179.09358 -117.14334    (103.092,  221.803)   
-29.77982 -109.16044 -12.63150 -23.37053 -177.43794 -115.43087    (100.157,  215.505)   
-30.52057 -106.24005 -13.26123 -24.68684 -175.78230 -113.71840    (97.3073,  209.303)   
-31.26132 -103.31966 -13.89097 -26.00316 -174.12667 -112.00593    (94.5501,  203.207)   
-32.00207 -100.39928 -14.52071 -27.31947 -172.47103 -110.29345    (91.8938,  197.228)   
-32.74282 -97.47889 -15.15045 -28.63579 -170.81539 -108.58098    (89.3476,  191.377)   
-33.48357 -94.55850 -15.78019 -29.95211 -169.15976 -106.86851    (86.9211,  185.666)   
-34.22431 -91.63812 -16.40993 -31.26842 -167.50412 -105.15604    (84.6246,  180.11)   
-34.96506 -88.71773 -17.03967 -32.58474 -165.84849 -103.44356    (82.4689,  174.723)   
-35.70581 -85.79734 -17.66941 -33.90105 -164.19285 -101.73109    (80.4654,  169.525)   
-36.44656 -82.87696 -18.29915 -35.21737 -162.53721 -100.01862    (78.6258,  164.532)   
-37.18731 -18.92889 -79.95657 -36.53368 -98.30615 -160.88158    (76.9617,  159.765)   
-37.92806 -19.55863 -77.03618 -37.85000 -96.59367 -159.22594    (75.4847,  154.538)   
-38.66881 -20.18837 -74.11580 -39.16632 -94.88120 -157.57031    (74.2061,  146.811)   
-39.40955 -20.81811 -71.19541 -40.48263 -93.16873 -155.91467    (73.1363,  139.084)   
-40.15030 -21.44785 -68.27502 -41.79895 -91.45626 -154.25903    (69.8456,  131.357)   
-40.89105 -22.07759 -65.35464 -43.11526 -89.74378 -152.60340    (65.7371,  123.63)   
-41.63180 -22.70733 -62.43425 -44.43158 -88.03131 -150.94776    (61.6285,  115.904)   
-42.37255 -23.33707 -59.51387 -45.74789 -86.31884 -149.29213    (57.5199,  108.177)   
-43.11330 -23.96681 -56.59348 -47.06421 -84.60637 -147.63649    (53.4114,  100.45)   
-43.85405 -24.59655 -53.67309 -48.38052 -82.89389 -145.98085    (49.3028,  92.7228)   
-44.59479 -25.22629 -50.75271 -49.69684 -81.18142 -144.32522    (45.1942,  84.9959)   
-45.33554 -25.85603 -47.83232 -51.01316 -79.46895 -142.66958    (41.0857,  77.269)   
-46.07629 -26.48577 -44.91193 -52.32947 -77.75648 -141.01394    (36.9771,  69.5421)   
-46.81704 -27.11551 -41.99155 -53.64579 -76.04400 -139.35831    (32.8685,  61.8152)   
-47.55779 -27.74525 -39.07116 -54.96210 -74.33153 -137.70267    (28.76,  54.0883)   
-48.29854 -28.37499 -36.15077 -56.27842 -72.61906 -136.04704    (24.6514,  46.3614)   
-49.03929 -29.00473 -33.23039 -57.59473 -70.90658 -134.39140    (20.5428,  38.6345)   
-49.78003 -29.63446 -30.31000 -58.91105 -69.19411 -132.73576    (16.4343,  30.9076)   
-50.52078 -30.26420 -27.38961 -60.22737 -67.48164 -131.08013    (12.3257,  23.1807)   
-51.26153 -30.89394 -24.46923 -61.54368 -65.76917 -129.42449    (8.21713,  15.4538)   
-52.00228 -31.52368 -21.54884 -62.86000 -64.05669 -127.76886    (4.10857,  7.7269)   
-52.74303 -32.15342 -18.62845 -64.17631 -62.34422 -126.11322    (0,  1.07896e-05)   
-->
</g>
</g>
<!-- Run Constants
CIRCLEPLOT bool false
DISTANCEPLOT bool true
PRINTDISTANCEDATA bool true
GLITCHESONLY bool false
PLOT 2doubles 3 4
PERTURBBY double 0.05
GLITCHLEVEL double 3
BOUNDARYWINDOW double 0.065
FRAMESPERPATH int 200
STEPSPERFRAME int 100
TRIALS int 1
ALLBLACK bool false
FILEPREFIX string Fol
GRAPHSIZE int 0
BORDER int 0
PLOTSIZE int 0
CIRCLEPLOTSIZE int 2000
CIRCLERADIUS int 300
CIRCLESTROKEWIDTH int 30
G6LINEWIDTH int 3
DELONELINEWIDTH int 10
AXISWIDTH int 6
TICLENGTH int 20
VECTOR g6 
PERTURB g6Perturb 
MOVIEMODE MovieMode STAR
FOLLOWERMODE FollowerMode Follow
FIXRANDOMSEED fixRandomSeed true
RANDOMSEED int 18
TIMESTAMP bool true
END end 




-->
</svg>
