<?xml version="1.0" standalone="no"?>
<!-- the width and height set the total pixel output of the image in the browser -->
<!-- whatever is within the viewbox will be remapped to show in this size -->
<svg width="1000" height="1000" viewBox="1 0 1000 1000"  version="1.1" xmlns="http://www.w3.org/2000/svg" xmlns:xlink="http://www.w3.org/1999/xlink">
 <desc>ID (and file name) = Fol_2018-02-06.15_35_12.33_0.svg </desc> 
 <text x="280"  y="30"  font-family="sans-serif" font-size="20" > Trial vector = 0  </text> 
 <text x="700" y="30" font-family="sans-serif" font-size="20">Wall time passed: 30007 msec.</text>
<text x="450" y="30" font-family="sans-serif" font-size="20" fill="black" > Plotting g5 vs. g4</text>
<text x="300" y="60"  font-family="sans-serif" font-size="20" > Beginning vector  -151.93196 -129.29271   0.69154 -165.65975 -142.09442  67.99306 </text>
<text x="300" y="85"  font-family="sans-serif" font-size="20" > Beginning cell   17.15404  17.12702  14.60245   2.22370   2.11315   1.56844 </text>
<text x="300" y="110"  font-family="sans-serif" font-size="20" > Ending vector  -67.99306 -74.10136 -61.29965 -67.30153 -83.93890 -97.66669 </text>
<text x="300" y="135"  font-family="sans-serif" font-size="20" > Ending cell   14.23736  14.60245  15.48422   1.87623   1.91360   1.87010 </text>

<text x="300" y="160"  font-family="sans-serif" font-size="20" > Glitch  -77.31961 -80.23373 -54.41174 -78.23022 -90.40062 -79.26005  (25.9235 )</text>
<text x="300" y="185"  font-family="sans-serif" font-size="20" > Glitch  -78.16747 -80.79122 -53.78557 -79.22373 -90.98805 -77.58672  (27.5462)</text>



 <!--DISTANCE PLOT BEGINS-->


<!-- the following will scale and place the distance plot -->
<g  transform="translate(0,50) ">
<g transform="translate(150,700) scale(1 -1)">
   <polyline fill="none" stroke="black" stroke-width="10" points=" 5.2 ,0  10.4 ,11.8674  15.6 ,23.7348  20.8 ,35.6023  26 ,47.4697  31.2 ,59.3371  36.4 ,71.2045  41.6 ,83.072  46.8 ,94.9394  52 ,106.807  57.2 ,118.674  62.4 ,130.542  67.6 ,142.409  72.8 ,154.276  78 ,166.144  83.2 ,178.011  88.4 ,189.879  93.6 ,201.746  98.8 ,213.614  104 ,225.481  109.2 ,237.348  114.4 ,249.216  119.6 ,261.083  124.8 ,272.951  130 ,284.818  135.2 ,296.686  140.4 ,308.553  145.6 ,320.42  150.8 ,332.288  156 ,344.155  161.2 ,356.023  166.4 ,367.89  171.6 ,379.757  176.8 ,391.557  182 ,403.303  187.2 ,415.055  192.4 ,426.814  197.6 ,438.579  202.8 ,450.349  208 ,462.124  213.2 ,473.903  218.4 ,481.153  223.6 ,471.438  228.8 ,461.736  234 ,452.049  239.2 ,442.377  244.4 ,432.721  249.6 ,423.083  254.8 ,413.463  260 ,403.863  265.2 ,394.285  270.4 ,384.729  275.6 ,375.198  280.8 ,365.694  286 ,356.218  291.2 ,346.774  296.4 ,337.363  301.6 ,327.989  306.8 ,318.655  312 ,309.364  317.2 ,300.121  322.4 ,290.93  327.6 ,281.796  332.8 ,272.725  338 ,263.723  343.2 ,254.798  348.4 ,245.958  353.6 ,237.213  358.8 ,228.573  364 ,220.051  369.2 ,211.661  374.4 ,203.419  379.6 ,195.345  384.8 ,187.459  390 ,179.787  395.2 ,172.358  400.4 ,165.203  405.6 ,158.361  410.8 ,151.873  416 ,145.786  421.2 ,140.154  426.4 ,135.032  431.6 ,130.482  436.8 ,126.564  442 ,123.339  447.2 ,120.62  452.4 ,118.632  457.6 ,117.469  462.8 ,110.316  468 ,100.288  473.2 ,90.2589  478.4 ,80.2301  483.6 ,70.2014  488.8 ,60.1726  494 ,50.1438  499.2 ,40.1151  504.4 ,30.0863  509.6 ,20.0575  514.8 ,10.0288  520 ,3.11699e-05  " />

<!--Draw the X and Y axes -->
<polyline fill="none" stroke="black" stroke-width="6"  points=" 600,0 0,0 0,520" />
<!-- -->

<line fill="none" stroke-width="3" boundary-string=""  stroke="lightblue" x1="0" y1="3.04462e-13" x2="5.2" y2="3.04462e-13" />
<line fill="none" stroke-width="3" boundary-string=""  stroke="lightblue" x1="5.2" y1="3.04462e-13" x2="10.4" y2="7.89275" />
<line fill="none" stroke-width="3" boundary-string=""  stroke="lightblue" x1="10.4" y1="7.89275" x2="15.6" y2="15.7855" />
<line fill="none" stroke-width="3" boundary-string=""  stroke="lightblue" x1="15.6" y1="15.7855" x2="20.8" y2="23.6782" />
<line fill="none" stroke-width="3" boundary-string=""  stroke="lightblue" x1="20.8" y1="23.6782" x2="26" y2="31.571" />
<line fill="none" stroke-width="3" boundary-string=""  stroke="lightblue" x1="26" y1="31.571" x2="31.2" y2="39.4637" />
<line fill="none" stroke-width="3" boundary-string=""  stroke="lightblue" x1="31.2" y1="39.4637" x2="36.4" y2="47.3565" />
<line fill="none" stroke-width="3" boundary-string=""  stroke="lightblue" x1="36.4" y1="47.3565" x2="41.6" y2="55.2492" />
<line fill="none" stroke-width="3" boundary-string=""  stroke="lightblue" x1="41.6" y1="55.2492" x2="46.8" y2="63.142" />
<line fill="none" stroke-width="3" boundary-string=""  stroke="lightblue" x1="46.8" y1="63.142" x2="52" y2="71.0347" />
<line fill="none" stroke-width="3" boundary-string=""  stroke="lightblue" x1="52" y1="71.0347" x2="57.2" y2="78.9275" />
<line fill="none" stroke-width="3" boundary-string=""  stroke="lightblue" x1="57.2" y1="78.9275" x2="62.4" y2="86.8202" />
<line fill="none" stroke-width="3" boundary-string=""  stroke="lightblue" x1="62.4" y1="86.8202" x2="67.6" y2="94.713" />
<line fill="none" stroke-width="3" boundary-string=""  stroke="lightblue" x1="67.6" y1="94.713" x2="72.8" y2="102.606" />
<line fill="none" stroke-width="3" boundary-string=""  stroke="lightblue" x1="72.8" y1="102.606" x2="78" y2="110.498" />
<line fill="none" stroke-width="3" boundary-string=""  stroke="lightblue" x1="78" y1="110.498" x2="83.2" y2="118.391" />
<line fill="none" stroke-width="3" boundary-string=""  stroke="lightblue" x1="83.2" y1="118.391" x2="88.4" y2="126.284" />
<line fill="none" stroke-width="3" boundary-string=""  stroke="lightblue" x1="88.4" y1="126.284" x2="93.6" y2="134.177" />
<line fill="none" stroke-width="3" boundary-string=""  stroke="lightblue" x1="93.6" y1="134.177" x2="98.8" y2="142.069" />
<line fill="none" stroke-width="3" boundary-string=""  stroke="lightblue" x1="98.8" y1="142.069" x2="104" y2="149.962" />
<line fill="none" stroke-width="3" boundary-string=""  stroke="lightblue" x1="104" y1="149.962" x2="109.2" y2="157.855" />
<line fill="none" stroke-width="3" boundary-string=""  stroke="lightblue" x1="109.2" y1="157.855" x2="114.4" y2="165.748" />
<line fill="none" stroke-width="3" boundary-string=""  stroke="lightblue" x1="114.4" y1="165.748" x2="119.6" y2="173.64" />
<line fill="none" stroke-width="3" boundary-string=""  stroke="lightblue" x1="119.6" y1="173.64" x2="124.8" y2="181.533" />
<line fill="none" stroke-width="3" boundary-string=""  stroke="lightblue" x1="124.8" y1="181.533" x2="130" y2="189.426" />
<line fill="none" stroke-width="3" boundary-string=""  stroke="lightblue" x1="130" y1="189.426" x2="135.2" y2="197.319" />
<line fill="none" stroke-width="3" boundary-string=""  stroke="lightblue" x1="135.2" y1="197.319" x2="140.4" y2="205.211" />
<line fill="none" stroke-width="3" boundary-string=""  stroke="lightblue" x1="140.4" y1="205.211" x2="145.6" y2="213.104" />
<line fill="none" stroke-width="3" boundary-string=""  stroke="lightblue" x1="145.6" y1="213.104" x2="150.8" y2="220.997" />
<line fill="none" stroke-width="3" boundary-string=""  stroke="lightblue" x1="150.8" y1="220.997" x2="156" y2="228.89" />
<line fill="none" stroke-width="3" boundary-string=""  stroke="lightblue" x1="156" y1="228.89" x2="161.2" y2="236.782" />
<line fill="none" stroke-width="3" boundary-string=""  stroke="lightblue" x1="161.2" y1="236.782" x2="166.4" y2="244.675" />
<line fill="none" stroke-width="3" boundary-string=""  stroke="lightblue" x1="166.4" y1="244.675" x2="171.6" y2="252.568" />
<line fill="none" stroke-width="3" boundary-string=""  stroke="lightblue" x1="171.6" y1="252.568" x2="176.8" y2="260.41" />
<line fill="none" stroke-width="3" boundary-string=""  stroke="lightblue" x1="176.8" y1="260.41" x2="182" y2="268.211" />
<line fill="none" stroke-width="3" boundary-string=""  stroke="lightblue" x1="182" y1="268.211" x2="187.2" y2="276.017" />
<line fill="none" stroke-width="3" boundary-string=""  stroke="lightblue" x1="187.2" y1="276.017" x2="192.4" y2="283.828" />
<line fill="none" stroke-width="3" boundary-string=""  stroke="lightblue" x1="192.4" y1="283.828" x2="197.6" y2="291.644" />
<line fill="none" stroke-width="3" boundary-string=""  stroke="lightblue" x1="197.6" y1="291.644" x2="202.8" y2="299.463" />
<line fill="none" stroke-width="3" boundary-string=""  stroke="lightblue" x1="202.8" y1="299.463" x2="208" y2="307.287" />
<line fill="none" stroke-width="3" boundary-string=""  stroke="lightblue" x1="208" y1="307.287" x2="213.2" y2="315.113" />
<line fill="none" stroke-width="3" boundary-string=""  stroke="lightblue" x1="213.2" y1="315.113" x2="218.4" y2="319.851" />
<line fill="none" stroke-width="3" boundary-string=""  stroke="lightblue" x1="218.4" y1="319.851" x2="223.6" y2="313.587" />
<line fill="none" stroke-width="3" boundary-string=""  stroke="lightblue" x1="223.6" y1="313.587" x2="228.8" y2="307.01" />
<line fill="none" stroke-width="3" boundary-string=""  stroke="lightblue" x1="228.8" y1="307.01" x2="234" y2="300.443" />
<line fill="none" stroke-width="3" boundary-string=""  stroke="lightblue" x1="234" y1="300.443" x2="239.2" y2="293.887" />
<line fill="none" stroke-width="3" boundary-string=""  stroke="lightblue" x1="239.2" y1="293.887" x2="244.4" y2="287.343" />
<line fill="none" stroke-width="3" boundary-string=""  stroke="lightblue" x1="244.4" y1="287.343" x2="249.6" y2="280.811" />
<line fill="none" stroke-width="3" boundary-string=""  stroke="lightblue" x1="249.6" y1="280.811" x2="254.8" y2="274.293" />
<line fill="none" stroke-width="3" boundary-string=""  stroke="lightblue" x1="254.8" y1="274.293" x2="260" y2="267.79" />
<line fill="none" stroke-width="3" boundary-string=""  stroke="lightblue" x1="260" y1="267.79" x2="265.2" y2="261.301" />
<line fill="none" stroke-width="3" boundary-string=""  stroke="lightblue" x1="265.2" y1="261.301" x2="270.4" y2="254.83" />
<line fill="none" stroke-width="3" boundary-string=""  stroke="lightblue" x1="270.4" y1="254.83" x2="275.6" y2="248.376" />
<line fill="none" stroke-width="3" boundary-string=""  stroke="lightblue" x1="275.6" y1="248.376" x2="280.8" y2="241.942" />
<line fill="none" stroke-width="3" boundary-string=""  stroke="lightblue" x1="280.8" y1="241.942" x2="286" y2="235.529" />
<line fill="none" stroke-width="3" boundary-string=""  stroke="lightblue" x1="286" y1="235.529" x2="291.2" y2="229.139" />
<line fill="none" stroke-width="3" boundary-string=""  stroke="lightblue" x1="291.2" y1="229.139" x2="296.4" y2="222.774" />
<line fill="none" stroke-width="3" boundary-string=""  stroke="lightblue" x1="296.4" y1="222.774" x2="301.6" y2="216.435" />
<line fill="none" stroke-width="3" boundary-string=""  stroke="lightblue" x1="301.6" y1="216.435" x2="306.8" y2="210.126" />
<line fill="none" stroke-width="3" boundary-string=""  stroke="lightblue" x1="306.8" y1="210.126" x2="312" y2="203.849" />
<line fill="none" stroke-width="3" boundary-string=""  stroke="lightblue" x1="312" y1="203.849" x2="317.2" y2="197.608" />
<line fill="none" stroke-width="3" boundary-string=""  stroke="lightblue" x1="317.2" y1="197.608" x2="322.4" y2="191.404" />
<line fill="none" stroke-width="3" boundary-string=""  stroke="lightblue" x1="322.4" y1="191.404" x2="327.6" y2="185.244" />
<line fill="none" stroke-width="3" boundary-string=""  stroke="lightblue" x1="327.6" y1="185.244" x2="332.8" y2="179.13" />
<line fill="none" stroke-width="3" boundary-string=""  stroke="lightblue" x1="332.8" y1="179.13" x2="338" y2="173.068" />
<line fill="none" stroke-width="3" boundary-string=""  stroke="lightblue" x1="338" y1="173.068" x2="343.2" y2="167.064" />
<line fill="none" stroke-width="3" boundary-string=""  stroke="lightblue" x1="343.2" y1="167.064" x2="348.4" y2="161.123" />
<line fill="none" stroke-width="3" boundary-string=""  stroke="lightblue" x1="348.4" y1="161.123" x2="353.6" y2="155.254" />
<line fill="none" stroke-width="3" boundary-string=""  stroke="lightblue" x1="353.6" y1="155.254" x2="358.8" y2="149.465" />
<line fill="none" stroke-width="3" boundary-string=""  stroke="lightblue" x1="358.8" y1="149.465" x2="364" y2="143.764" />
<line fill="none" stroke-width="3" boundary-string=""  stroke="lightblue" x1="364" y1="143.764" x2="369.2" y2="138.165" />
<line fill="none" stroke-width="3" boundary-string=""  stroke="lightblue" x1="369.2" y1="138.165" x2="374.4" y2="132.678" />
<line fill="none" stroke-width="3" boundary-string=""  stroke="lightblue" x1="374.4" y1="132.678" x2="379.6" y2="127.319" />
<line fill="none" stroke-width="3" boundary-string=""  stroke="lightblue" x1="379.6" y1="127.319" x2="384.8" y2="122.104" />
<line fill="none" stroke-width="3" boundary-string=""  stroke="lightblue" x1="384.8" y1="122.104" x2="390" y2="117.053" />
<line fill="none" stroke-width="3" boundary-string=""  stroke="lightblue" x1="390" y1="117.053" x2="395.2" y2="112.188" />
<line fill="none" stroke-width="3" boundary-string=""  stroke="lightblue" x1="395.2" y1="112.188" x2="400.4" y2="107.534" />
<line fill="none" stroke-width="3" boundary-string=""  stroke="lightblue" x1="400.4" y1="107.534" x2="405.6" y2="103.12" />
<line fill="none" stroke-width="3" boundary-string=""  stroke="lightblue" x1="405.6" y1="103.12" x2="410.8" y2="98.9778" />
<line fill="none" stroke-width="3" boundary-string=""  stroke="lightblue" x1="410.8" y1="98.9778" x2="416" y2="95.1428" />
<line fill="none" stroke-width="3" boundary-string=""  stroke="lightblue" x1="416" y1="95.1428" x2="421.2" y2="91.6538" />
<line fill="none" stroke-width="3" boundary-string=""  stroke="lightblue" x1="421.2" y1="91.6538" x2="426.4" y2="88.5516" />
<line fill="none" stroke-width="3" boundary-string=""  stroke="lightblue" x1="426.4" y1="88.5516" x2="431.6" y2="85.8781" />
<line fill="none" stroke-width="3" boundary-string=""  stroke="lightblue" x1="431.6" y1="85.8781" x2="436.8" y2="83.6745" />
<line fill="none" stroke-width="3" boundary-string=""  stroke="lightblue" x1="436.8" y1="83.6745" x2="442" y2="81.9786" />
<line fill="none" stroke-width="3" boundary-string=""  stroke="lightblue" x1="442" y1="81.9786" x2="447.2" y2="80.6411" />
<line fill="none" stroke-width="3" boundary-string=""  stroke="lightblue" x1="447.2" y1="80.6411" x2="452.4" y2="79.8214" />
<line fill="none" stroke-width="3" boundary-string=""  stroke="lightblue" x1="452.4" y1="79.8214" x2="457.6" y2="79.5779" />
<line fill="none" stroke-width="3" boundary-string=""  stroke="lightblue" x1="457.6" y1="79.5779" x2="462.8" y2="74.8901" />
<line fill="none" stroke-width="3" boundary-string=""  stroke="lightblue" x1="462.8" y1="74.8901" x2="468" y2="68.0819" />
<line fill="none" stroke-width="3" boundary-string=""  stroke="lightblue" x1="468" y1="68.0819" x2="473.2" y2="61.2737" />
<line fill="none" stroke-width="3" boundary-string=""  stroke="lightblue" x1="473.2" y1="61.2737" x2="478.4" y2="54.4656" />
<line fill="none" stroke-width="3" boundary-string=""  stroke="lightblue" x1="478.4" y1="54.4656" x2="483.6" y2="47.6574" />
<line fill="none" stroke-width="3" boundary-string=""  stroke="lightblue" x1="483.6" y1="47.6574" x2="488.8" y2="40.8492" />
<line fill="none" stroke-width="3" boundary-string=""  stroke="lightblue" x1="488.8" y1="40.8492" x2="494" y2="34.041" />
<line fill="none" stroke-width="3" boundary-string=""  stroke="lightblue" x1="494" y1="34.041" x2="499.2" y2="27.2328" />
<line fill="none" stroke-width="3" boundary-string=""  stroke="lightblue" x1="499.2" y1="27.2328" x2="504.4" y2="20.4246" />
<line fill="none" stroke-width="3" boundary-string=""  stroke="lightblue" x1="504.4" y1="20.4246" x2="509.6" y2="13.6164" />
<line fill="none" stroke-width="3" boundary-string=""  stroke="lightblue" x1="509.6" y1="13.6164" x2="514.8" y2="6.80819" />
<line fill="none" stroke-width="3" boundary-string=""  stroke="lightblue" x1="514.8" y1="6.80819" x2="520" y2="0" />

<!--Draw the X and Y axes -->
<polyline fill="none" stroke="black" stroke-width="6"  points=" 600,0 0,0 0,520" />
<!-- -->


<!--Draw labels and tics for X axis -->

<line fill="none" stroke="black"  stroke-width="6"  x1="0.5" y1="0" x2="0.5" y2="-20" />
<text transform="scale(1,-1)" font-family="sans-serif" font-size="30" x="-24.5" y="45" >0 </text>
<line fill="none" stroke="black"  stroke-width="6"  x1="104.5" y1="0" x2="104.5" y2="-20" />
<text transform="scale(1,-1)" font-family="sans-serif" font-size="30" x="79.5" y="45" >20 </text>
<line fill="none" stroke="black"  stroke-width="6"  x1="208.5" y1="0" x2="208.5" y2="-20" />
<text transform="scale(1,-1)" font-family="sans-serif" font-size="30" x="183.5" y="45" >40 </text>
<line fill="none" stroke="black"  stroke-width="6"  x1="312.5" y1="0" x2="312.5" y2="-20" />
<text transform="scale(1,-1)" font-family="sans-serif" font-size="30" x="287.5" y="45" >60 </text>
<line fill="none" stroke="black"  stroke-width="6"  x1="416.5" y1="0" x2="416.5" y2="-20" />
<text transform="scale(1,-1)" font-family="sans-serif" font-size="30" x="391.5" y="45" >80 </text>
<line fill="none" stroke="black"  stroke-width="6"  x1="520.5" y1="0" x2="520.5" y2="-20" />
<text transform="scale(1,-1)" font-family="sans-serif" font-size="30" x="495.5" y="45" >100 </text>


<!--Draw labels and tics for Y axis -->

<line fill="none" stroke="black" stroke-width="6" x1="0.0" y1="0" x2="-20" y2="0" />
<text transform="scale(1,-1)" text-anchor="end" font-family="sans-serif" font-size="30" x="-25" y="10" >0 </text>
<line fill="none" stroke="black" stroke-width="6" x1="0.0" y1="57.7778" x2="-20" y2="57.7778" />
<text transform="scale(1,-1)" text-anchor="end" font-family="sans-serif" font-size="30" x="-25" y="-47.7778" >20 </text>
<line fill="none" stroke="black" stroke-width="6" x1="0.0" y1="115.556" x2="-20" y2="115.556" />
<text transform="scale(1,-1)" text-anchor="end" font-family="sans-serif" font-size="30" x="-25" y="-105.556" >40 </text>
<line fill="none" stroke="black" stroke-width="6" x1="0.0" y1="173.333" x2="-20" y2="173.333" />
<text transform="scale(1,-1)" text-anchor="end" font-family="sans-serif" font-size="30" x="-25" y="-163.333" >60 </text>
<line fill="none" stroke="black" stroke-width="6" x1="0.0" y1="231.111" x2="-20" y2="231.111" />
<text transform="scale(1,-1)" text-anchor="end" font-family="sans-serif" font-size="30" x="-25" y="-221.111" >80 </text>
<line fill="none" stroke="black" stroke-width="6" x1="0.0" y1="288.889" x2="-20" y2="288.889" />
<text transform="scale(1,-1)" text-anchor="end" font-family="sans-serif" font-size="30" x="-25" y="-278.889" >100 </text>
<line fill="none" stroke="black" stroke-width="6" x1="0.0" y1="346.667" x2="-20" y2="346.667" />
<text transform="scale(1,-1)" text-anchor="end" font-family="sans-serif" font-size="30" x="-25" y="-336.667" >120 </text>
<line fill="none" stroke="black" stroke-width="6" x1="0.0" y1="404.444" x2="-20" y2="404.444" />
<text transform="scale(1,-1)" text-anchor="end" font-family="sans-serif" font-size="30" x="-25" y="-394.444" >140 </text>
<line fill="none" stroke="black" stroke-width="6" x1="0.0" y1="462.222" x2="-20" y2="462.222" />
<text transform="scale(1,-1)" text-anchor="end" font-family="sans-serif" font-size="30" x="-25" y="-452.222" >160 </text>
<line fill="none" stroke="black" stroke-width="6" x1="0.0" y1="520" x2="-20" y2="520" />
<text transform="scale(1,-1)" text-anchor="end" font-family="sans-serif" font-size="30" x="-25" y="-510" >180 </text>


<!--Draw Glitches -->

<line fill="none" stroke="black" stroke-width="2" x1="457.6" y1="74.8901" x2="457.6" y2="24.8901" />
<text transform="scale(1,-1)" font-family="sans-serif" font-size="30" x="462.6" y="-14.8901" >88 </text>

<!-- -->


<!-- Reduced vector followed by D7dist from the final reduced cell
-67.99306 -74.10136 -61.29965 -67.30153 -83.93890 -97.66669    (1.05391e-13,  0)   
-66.31973 -75.18726 -62.41549 -66.25437 -84.76436 -98.34650    (2.7321,  4.10795)   
-64.64640 -76.27316 -63.53133 -65.20721 -85.58982 -99.02631    (5.46421,  8.21591)   
-62.97307 -77.35907 -64.64718 -64.16005 -86.41529 -99.70613    (8.19631,  12.3239)   
-61.29974 -78.44497 -65.76302 -63.11290 -87.24075 -100.38594    (10.9284,  16.4318)   
-59.62641 -79.53087 -66.87886 -62.06574 -88.06621 -101.06575    (13.6605,  20.5398)   
-57.95308 -80.61677 -67.99470 -61.01858 -88.89168 -101.74557    (16.3926,  24.6477)   
-56.27975 -81.70267 -69.11055 -59.97142 -89.71714 -102.42538    (19.1247,  28.7557)   
-54.60642 -82.78857 -70.22639 -58.92427 -90.54260 -103.10519    (21.8568,  32.8636)   
-52.93308 -83.87447 -71.34223 -57.87711 -91.36807 -103.78501    (24.5889,  36.9716)   
-51.25975 -84.96037 -72.45807 -56.82995 -92.19353 -104.46482    (27.321,  41.0795)   
-49.58642 -86.04627 -73.57392 -55.78280 -93.01899 -105.14463    (30.0532,  45.1875)   
-87.13218 -47.91309 -74.68976 -93.84446 -54.73564 -105.82445    (32.7853,  49.2954)   
-88.21808 -46.23976 -75.80560 -94.66992 -53.68848 -106.50426    (35.5174,  53.4034)   
-89.30398 -44.56643 -76.92144 -95.49538 -52.64132 -107.18407    (38.2495,  57.5114)   
-90.38988 -42.89310 -78.03729 -96.32085 -51.59417 -107.86389    (40.9816,  61.6193)   
-91.47578 -41.21977 -79.15313 -97.14631 -50.54701 -108.54370    (43.7137,  65.7273)   
-92.56168 -39.54644 -80.26897 -97.97177 -49.49985 -109.22351    (46.4458,  69.8352)   
-93.64758 -37.87311 -81.38481 -98.79723 -48.45270 -109.90333    (49.1779,  73.9432)   
-94.73348 -36.19978 -82.50066 -99.62270 -47.40554 -110.58314    (51.91,  78.0511)   
-95.81939 -34.52645 -83.61650 -100.44816 -46.35838 -111.26295    (54.6421,  82.1591)   
-96.90529 -32.85312 -84.73234 -101.27362 -45.31122 -111.94277    (57.3742,  86.267)   
-97.99119 -31.17978 -85.84818 -102.09909 -44.26407 -112.62258    (60.1063,  90.375)   
-99.07709 -29.50645 -86.96402 -102.92455 -43.21691 -113.30239    (62.8384,  94.4829)   
-100.16299 -27.83312 -88.07987 -103.75001 -42.16975 -113.98221    (65.5705,  98.5909)   
-101.24889 -26.15979 -89.19571 -104.57548 -41.12260 -114.66202    (68.3026,  102.699)   
-102.33479 -24.48646 -90.31155 -105.40094 -40.07544 -115.34183    (71.0347,  106.807)   
-103.42069 -22.81313 -91.42739 -106.22640 -39.02828 -116.02165    (73.7668,  110.915)   
-104.50660 -21.13980 -92.54324 -107.05187 -37.98112 -116.70146    (76.4989,  115.023)   
-105.59250 -19.46647 -93.65908 -107.87733 -36.93397 -117.38127    (79.231,  119.131)   
-106.67840 -17.79314 -94.77492 -108.70279 -35.88681 -118.06109    (81.9631,  123.239)   
-107.76430 -16.11981 -95.89076 -109.52826 -34.83965 -118.74090    (84.6952,  127.347)   
-108.85020 -14.44648 -97.00661 -110.35372 -33.79250 -119.42071    (87.4273,  131.455)   
-109.93610 -12.77315 -98.12245 -111.17918 -32.74534 -120.10053    (90.1419,  135.539)   
-111.02200 -11.09981 -99.23829 -112.00464 -31.69818 -120.78034    (92.8423,  139.605)   
-112.10790 -100.35413  -9.42648 -112.83011 -121.46015 -30.65102    (95.5444,  143.673)   
-113.19381 -101.46998  -7.75315 -113.65557 -122.13997 -29.60387    (98.2483,  147.743)   
-114.27971 -102.58582  -6.07982 -114.48103 -122.81978 -28.55671    (100.954,  151.816)   
-115.36561 -103.70166  -4.40649 -115.30650 -123.49960 -27.50955    (103.66,  155.89)   
-116.45151 -104.81750  -2.73316 -116.13196 -124.17941 -26.46239    (106.368,  159.966)   
-117.53741 -105.93335  -1.05983 -116.95742 -124.85922 -25.41524    (109.078,  164.043)   
-124.92553 -106.43569  -0.61350 -117.16939 -118.00981 -24.98158    (110.718,  166.553)   
-123.93202 -105.87820  -2.28683 -116.32152 -117.42238 -25.60775    (108.549,  163.19)   
-122.93850 -105.32071  -3.96016 -115.47365 -116.83495 -26.23393    (106.273,  159.832)   
-121.94498 -104.76322  -5.63349 -114.62578 -116.24752 -26.86010    (103.999,  156.478)   
-120.95146 -104.20573  -7.30682 -113.77792 -115.66009 -27.48628    (101.73,  153.13)   
-119.95795 -103.64825  -8.98015 -112.93005 -115.07266 -28.11245    (99.4648,  149.788)   
-118.96443 -103.09076 -10.65349 -112.08218 -114.48523 -28.73862    (97.2039,  146.452)   
-117.97091 -102.53327 -12.32682 -111.23431 -113.89780 -29.36480    (94.9476,  143.122)   
-116.97740 -101.97578 -14.00015 -110.38644 -113.31038 -29.99097    (92.6964,  139.799)   
-115.98388 -101.41829 -15.67348 -109.53858 -112.72295 -30.61714    (90.4505,  136.483)   
-114.99036 -100.86080 -17.34681 -108.69071 -112.13552 -31.24332    (88.2103,  133.175)   
-113.99684 -100.30332 -19.02014 -107.84284 -111.54809 -31.86949    (85.9765,  129.876)   
-113.00333 -99.74583 -20.69347 -106.99497 -110.96066 -32.49566    (83.7493,  126.586)   
-112.00981 -22.36680 -99.18834 -106.14711 -33.12184 -110.37323    (81.5294,  123.306)   
-111.01629 -24.04013 -98.63085 -105.29924 -33.74801 -109.78580    (79.3174,  120.037)   
-110.02277 -25.71346 -98.07336 -104.45137 -34.37418 -109.19837    (77.114,  116.78)   
-109.02926 -27.38679 -97.51587 -103.60350 -35.00036 -108.61094    (74.9199,  113.535)   
-108.03574 -29.06012 -96.95839 -102.75564 -35.62653 -108.02351    (72.736,  110.304)   
-107.04222 -30.73345 -96.40090 -101.90777 -36.25271 -107.43608    (70.5633,  107.088)   
-36.87888 -101.05990 -95.84341 -32.40679 -106.04870 -106.84865    (68.4026,  103.888)   
-37.50505 -100.21203 -95.28592 -34.08012 -105.05519 -106.26122    (66.2554,  100.707)   
-38.13123 -99.36417 -94.72843 -35.75345 -104.06167 -105.67379    (64.1229,  97.5448)   
-38.75740 -98.51630 -94.17094 -37.42678 -103.06815 -105.08636    (62.0066,  94.4048)   
-39.38357 -97.66843 -93.61345 -39.10011 -102.07463 -104.49893    (59.9082,  91.2888)   
-40.00975 -96.82056 -93.05597 -40.77344 -101.08112 -103.91150    (57.8298,  88.1993)   
-40.63592 -95.97269 -92.49848 -42.44677 -100.08760 -103.32407    (55.7735,  85.1393)   
-41.26209 -95.12483 -91.94099 -44.12010 -99.09408 -102.73664    (53.7418,  82.1121)   
-94.27696 -41.88827 -91.38350 -98.10056 -45.79343 -102.14921    (51.7378,  79.1213)   
-93.42909 -42.51444 -90.82601 -97.10705 -47.46676 -101.56178    (49.7646,  76.1714)   
-92.58122 -43.14062 -90.26852 -96.11353 -49.14009 -100.97435    (47.8262,  73.2672)   
-91.73336 -43.76679 -89.71104 -95.12001 -50.81342 -100.38693    (45.9269,  70.4143)   
-90.88549 -44.39296 -89.15355 -94.12650 -52.48676 -99.79950    (44.0718,  67.6194)   
-90.03762 -45.01914 -88.59606 -93.13298 -54.16009 -99.21207    (42.2667,  64.8898)   
-89.18975 -45.64531 -88.03857 -92.13946 -55.83342 -98.62464    (40.5183,  62.2341)   
-88.34189 -87.48108 -46.27148 -91.14594 -98.03721 -57.50675    (38.8343,  59.6624)   
-87.49402 -86.92359 -46.89766 -90.15243 -97.44978 -59.18008    (37.2234,  57.1857)   
-86.64615 -86.36611 -47.52383 -89.15891 -96.86235 -60.85341    (35.6954,  54.8172)   
-85.79828 -85.80862 -48.15000 -88.16539 -96.27492 -62.52674    (34.2615,  52.5713)   
-84.95041 -85.25113 -48.77618 -87.17187 -95.68749 -64.20007    (32.9341,  50.4644)   
-84.10255 -84.69364 -49.40235 -86.17836 -95.10006 -65.87340    (31.7263,  48.5147)   
-83.25468 -84.13615 -50.02852 -85.18484 -94.51263 -67.54673    (30.6525,  46.7419)   
-82.40681 -83.57866 -50.65470 -84.19132 -93.92520 -69.22006    (29.727,  45.1667)   
-81.55894 -83.02118 -51.28087 -83.19780 -93.33777 -70.89339    (28.9642,  43.8105)   
-80.71108 -82.46369 -51.90705 -82.20429 -92.75034 -72.56672    (28.3772,  42.6942)   
-79.86321 -81.90620 -52.53322 -81.21077 -92.16291 -74.24006    (27.9142,  41.753)   
-79.01534 -81.34871 -53.15939 -80.21725 -91.57548 -75.91339    (27.6305,  41.0648)   
-78.16747 -80.79122 -53.78557 -79.22373 -90.98805 -77.58672    (27.5462,  40.6624)   
-77.31961 -80.23373 -54.41174 -78.23022 -90.40062 -79.26005    (25.9235,  38.1865)   
-76.47174 -79.67625 -55.03791 -77.23670 -89.81319 -80.93338    (23.5668,  34.715)   
-75.62387 -79.11876 -55.66409 -76.24318 -89.22576 -82.60671    (21.2101,  31.2435)   
-74.77600 -78.56127 -56.29026 -75.24966 -88.63833 -84.28004    (18.8535,  27.772)   
-73.92814 -78.00378 -56.91643 -74.25615 -88.05090 -85.95337    (16.4968,  24.3005)   
-73.08027 -77.44629 -57.54261 -73.26263 -87.46348 -87.62670    (14.1401,  20.829)   
-72.23240 -76.88880 -58.16878 -72.26911 -86.87605 -89.30003    (11.7834,  17.3575)   
-71.38453 -76.33131 -58.79496 -71.27559 -86.28862 -90.97336    (9.42673,  13.886)   
-70.53666 -75.77383 -59.42113 -70.28208 -85.70119 -92.64669    (7.07005,  10.4145)   
-69.68880 -75.21634 -60.04730 -69.28856 -85.11376 -94.32002    (4.71337,  6.94299)   
-68.84093 -74.65885 -60.67348 -68.29504 -84.52633 -95.99336    (2.35668,  3.4715)   
-67.99306 -74.10136 -61.29965 -67.30153 -83.93890 -97.66669    (0,  1.07896e-05)   
-->
</g>
</g>
<!-- Run Constants
CIRCLEPLOT bool false
DISTANCEPLOT bool true
PRINTDISTANCEDATA bool true
GLITCHESONLY bool false
PLOT 2doubles 3 4
PERTURBBY double 0.05
GLITCHLEVEL double 3
BOUNDARYWINDOW double 0.065
FRAMESPERPATH int 200
STEPSPERFRAME int 100
TRIALS int 1
ALLBLACK bool false
FILEPREFIX string Fol
GRAPHSIZE int 0
BORDER int 0
PLOTSIZE int 0
CIRCLEPLOTSIZE int 2000
CIRCLERADIUS int 300
CIRCLESTROKEWIDTH int 30
G6LINEWIDTH int 3
DELONELINEWIDTH int 10
AXISWIDTH int 6
TICLENGTH int 20
VECTOR g6 
PERTURB g6Perturb 
MOVIEMODE MovieMode STAR
FOLLOWERMODE FollowerMode Follow
FIXRANDOMSEED fixRandomSeed true
RANDOMSEED int 18
TIMESTAMP bool true
END end 




-->
</svg>
