<?xml version="1.0" standalone="no"?>
<!-- the width and height set the total pixel output of the image in the browser -->
<!-- whatever is within the viewbox will be remapped to show in this size -->
<svg width="1000" height="1000" viewBox="1 0 1000 1000"  version="1.1" xmlns="http://www.w3.org/2000/svg" xmlns:xlink="http://www.w3.org/1999/xlink">
 <desc>ID (and file name) = Fol_2018-02-08.13_54_53.0_4.svg </desc> 
 <text x="280"  y="30"  font-family="sans-serif" font-size="20" > Trial vector = 0  </text> 
 <text x="700" y="30" font-family="sans-serif" font-size="20">Wall time passed: 100561 msec.</text>
<text x="450" y="30" font-family="sans-serif" font-size="20" fill="black" > Plotting g5 vs. g4</text>
<text x="300" y="60"  font-family="sans-serif" font-size="20" > Beginning vector  -696.99890 103.92811 -246.75769   2.55896 -833.73833 305.81163 </text>
<text x="300" y="85"  font-family="sans-serif" font-size="20" > Beginning cell   11.84359  42.16035  16.94872   2.91941   1.02659   2.08769 </text>
<text x="300" y="110"  font-family="sans-serif" font-size="20" > Ending vector  -65.02665 -16.05538 -38.90147 -83.57911 -36.34251 -99.75193 </text>
<text x="300" y="135"  font-family="sans-serif" font-size="20" > Ending cell   11.77013  11.84359  13.44745   1.99138   1.67241   1.85361 </text>

<text x="300" y="160"  font-family="sans-serif" font-size="20" > Glitch  -645.40933  94.13354 -229.78984  -4.47272 -768.64480 272.70440  (55.1061 )</text>
<text x="300" y="185"  font-family="sans-serif" font-size="20" > Glitch  -658.30672  96.58219 -234.03180  -2.71480 -784.91818 280.98120  (58.481)</text>



 <!--DISTANCE PLOT BEGINS-->


<!-- the following will scale and place the distance plot -->
<g  transform="translate(0,50) ">
<g transform="translate(150,700) scale(1 -1)">
   <polyline fill="none" stroke="black" stroke-width="10" points=" 10.4 ,1.2468e-05  20.8 ,47.6588  31.2 ,92.3315  41.6 ,131.029  52 ,149.648  62.4 ,179.34  72.8 ,215.578  83.2 ,255.593  93.6 ,297.867  104 ,341.561  114.4 ,365.369  124.8 ,389.088  135.2 ,405.817  145.6 ,422.533  156 ,439.173  166.4 ,440.667  176.8 ,435.924  187.2 ,432.065  197.6 ,429.116  208 ,427.095  218.4 ,426.016  228.8 ,425.885  239.2 ,426.704  249.6 ,428.466  260 ,431.161  270.4 ,433.512  280.8 ,436.173  291.2 ,435.976  301.6 ,435.189  312 ,435.333  322.4 ,436.404  332.8 ,438.397  343.2 ,441.299  353.6 ,445.092  364 ,449.753  374.4 ,455.257  384.8 ,461.573  395.2 ,467.741  405.6 ,452.288  416 ,412.959  426.4 ,370.311  436.8 ,329.792  447.2 ,292.288  457.6 ,252.211  468 ,213.483  478.4 ,180.811  488.8 ,143.37  499.2 ,101.52  509.6 ,50.7601  520 ,0  " />

<!--Draw the X and Y axes -->
<polyline fill="none" stroke="black" stroke-width="6"  points=" 600,0 0,0 0,520" />
<!-- -->

<line fill="none" stroke-width="3" boundary-string=""  stroke="lightblue" x1="0" y1="9.47333e-13" x2="10.4" y2="9.47333e-13" />
<line fill="none" stroke-width="3" boundary-string=""  stroke="lightblue" x1="10.4" y1="9.47333e-13" x2="20.8" y2="26.2543" />
<line fill="none" stroke-width="3" boundary-string=""  stroke="lightblue" x1="20.8" y1="26.2543" x2="31.2" y2="49.7692" />
<line fill="none" stroke-width="3" boundary-string=""  stroke="lightblue" x1="31.2" y1="49.7692" x2="41.6" y2="67.5781" />
<line fill="none" stroke-width="3" boundary-string=""  stroke="lightblue" x1="41.6" y1="67.5781" x2="52" y2="63.6782" />
<line fill="none" stroke-width="3" boundary-string=""  stroke="lightblue" x1="52" y1="63.6782" x2="62.4" y2="70.1541" />
<line fill="none" stroke-width="3" boundary-string=""  stroke="lightblue" x1="62.4" y1="70.1541" x2="72.8" y2="84.6573" />
<line fill="none" stroke-width="3" boundary-string=""  stroke="lightblue" x1="72.8" y1="84.6573" x2="83.2" y2="103.878" />
<line fill="none" stroke-width="3" boundary-string=""  stroke="lightblue" x1="83.2" y1="103.878" x2="93.6" y2="125.671" />
<line fill="none" stroke-width="3" boundary-string=""  stroke="lightblue" x1="93.6" y1="125.671" x2="104" y2="148.91" />
<line fill="none" stroke-width="3" boundary-string=""  stroke="lightblue" x1="104" y1="148.91" x2="114.4" y2="159.99" />
<line fill="none" stroke-width="3" boundary-string=""  stroke="lightblue" x1="114.4" y1="159.99" x2="124.8" y2="171.861" />
<line fill="none" stroke-width="3" boundary-string=""  stroke="lightblue" x1="124.8" y1="171.861" x2="135.2" y2="178.99" />
<line fill="none" stroke-width="3" boundary-string=""  stroke="lightblue" x1="135.2" y1="178.99" x2="145.6" y2="184.631" />
<line fill="none" stroke-width="3" boundary-string=""  stroke="lightblue" x1="145.6" y1="184.631" x2="156" y2="192.194" />
<line fill="none" stroke-width="3" boundary-string=""  stroke="lightblue" x1="156" y1="192.194" x2="166.4" y2="189.761" />
<line fill="none" stroke-width="3" boundary-string=""  stroke="lightblue" x1="166.4" y1="189.761" x2="176.8" y2="183.39" />
<line fill="none" stroke-width="3" boundary-string=""  stroke="lightblue" x1="176.8" y1="183.39" x2="187.2" y2="177.928" />
<line fill="none" stroke-width="3" boundary-string=""  stroke="lightblue" x1="187.2" y1="177.928" x2="197.6" y2="173.461" />
<line fill="none" stroke-width="3" boundary-string=""  stroke="lightblue" x1="197.6" y1="173.461" x2="208" y2="170.068" />
<line fill="none" stroke-width="3" boundary-string=""  stroke="lightblue" x1="208" y1="170.068" x2="218.4" y2="167.814" />
<line fill="none" stroke-width="3" boundary-string=""  stroke="lightblue" x1="218.4" y1="167.814" x2="228.8" y2="166.745" />
<line fill="none" stroke-width="3" boundary-string=""  stroke="lightblue" x1="228.8" y1="166.745" x2="239.2" y2="166.884" />
<line fill="none" stroke-width="3" boundary-string=""  stroke="lightblue" x1="239.2" y1="166.884" x2="249.6" y2="168.228" />
<line fill="none" stroke-width="3" boundary-string=""  stroke="lightblue" x1="249.6" y1="168.228" x2="260" y2="170.748" />
<line fill="none" stroke-width="3" boundary-string=""  stroke="lightblue" x1="260" y1="170.748" x2="270.4" y2="172.819" />
<line fill="none" stroke-width="3" boundary-string=""  stroke="lightblue" x1="270.4" y1="172.819" x2="280.8" y2="175.265" />
<line fill="none" stroke-width="3" boundary-string=""  stroke="lightblue" x1="280.8" y1="175.265" x2="291.2" y2="174.142" />
<line fill="none" stroke-width="3" boundary-string=""  stroke="lightblue" x1="291.2" y1="174.142" x2="301.6" y2="172.268" />
<line fill="none" stroke-width="3" boundary-string=""  stroke="lightblue" x1="301.6" y1="172.268" x2="312" y2="171.554" />
<line fill="none" stroke-width="3" boundary-string=""  stroke="lightblue" x1="312" y1="171.554" x2="322.4" y2="172.015" />
<line fill="none" stroke-width="3" boundary-string=""  stroke="lightblue" x1="322.4" y1="172.015" x2="332.8" y2="173.643" />
<line fill="none" stroke-width="3" boundary-string=""  stroke="lightblue" x1="332.8" y1="173.643" x2="343.2" y2="176.404" />
<line fill="none" stroke-width="3" boundary-string=""  stroke="lightblue" x1="343.2" y1="176.404" x2="353.6" y2="180.246" />
<line fill="none" stroke-width="3" boundary-string=""  stroke="lightblue" x1="353.6" y1="180.246" x2="364" y2="185.103" />
<line fill="none" stroke-width="3" boundary-string=""  stroke="lightblue" x1="364" y1="185.103" x2="374.4" y2="190.897" />
<line fill="none" stroke-width="3" boundary-string=""  stroke="lightblue" x1="374.4" y1="190.897" x2="384.8" y2="197.545" />
<line fill="none" stroke-width="3" boundary-string=""  stroke="lightblue" x1="384.8" y1="197.545" x2="395.2" y2="204.439" />
<line fill="none" stroke-width="3" boundary-string=""  stroke="lightblue" x1="395.2" y1="204.439" x2="405.6" y2="197.727" />
<line fill="none" stroke-width="3" boundary-string=""  stroke="lightblue" x1="405.6" y1="197.727" x2="416" y2="177.183" />
<line fill="none" stroke-width="3" boundary-string=""  stroke="lightblue" x1="416" y1="177.183" x2="426.4" y2="155.398" />
<line fill="none" stroke-width="3" boundary-string=""  stroke="lightblue" x1="426.4" y1="155.398" x2="436.8" y2="136.052" />
<line fill="none" stroke-width="3" boundary-string=""  stroke="lightblue" x1="436.8" y1="136.052" x2="447.2" y2="120.326" />
<line fill="none" stroke-width="3" boundary-string=""  stroke="lightblue" x1="447.2" y1="120.326" x2="457.6" y2="103.673" />
<line fill="none" stroke-width="3" boundary-string=""  stroke="lightblue" x1="457.6" y1="103.673" x2="468" y2="90.3577" />
<line fill="none" stroke-width="3" boundary-string=""  stroke="lightblue" x1="468" y1="90.3577" x2="478.4" y2="83.5923" />
<line fill="none" stroke-width="3" boundary-string=""  stroke="lightblue" x1="478.4" y1="83.5923" x2="488.8" y2="66.3827" />
<line fill="none" stroke-width="3" boundary-string=""  stroke="lightblue" x1="488.8" y1="66.3827" x2="499.2" y2="53.0425" />
<line fill="none" stroke-width="3" boundary-string=""  stroke="lightblue" x1="499.2" y1="53.0425" x2="509.6" y2="26.5212" />
<line fill="none" stroke-width="3" boundary-string=""  stroke="lightblue" x1="509.6" y1="26.5212" x2="520" y2="0" />

<!--Draw the X and Y axes -->
<polyline fill="none" stroke="black" stroke-width="6"  points=" 600,0 0,0 0,520" />
<!-- -->


<!--Draw labels and tics for X axis -->

<line fill="none" stroke="black"  stroke-width="6"  x1="0.5" y1="0" x2="0.5" y2="-20" />
<text transform="scale(1,-1)" font-family="sans-serif" font-size="30" x="-24.5" y="45" >0 </text>
<line fill="none" stroke="black"  stroke-width="6"  x1="104.5" y1="0" x2="104.5" y2="-20" />
<text transform="scale(1,-1)" font-family="sans-serif" font-size="30" x="79.5" y="45" >10 </text>
<line fill="none" stroke="black"  stroke-width="6"  x1="208.5" y1="0" x2="208.5" y2="-20" />
<text transform="scale(1,-1)" font-family="sans-serif" font-size="30" x="183.5" y="45" >20 </text>
<line fill="none" stroke="black"  stroke-width="6"  x1="312.5" y1="0" x2="312.5" y2="-20" />
<text transform="scale(1,-1)" font-family="sans-serif" font-size="30" x="287.5" y="45" >30 </text>
<line fill="none" stroke="black"  stroke-width="6"  x1="416.5" y1="0" x2="416.5" y2="-20" />
<text transform="scale(1,-1)" font-family="sans-serif" font-size="30" x="391.5" y="45" >40 </text>
<line fill="none" stroke="black"  stroke-width="6"  x1="520.5" y1="0" x2="520.5" y2="-20" />
<text transform="scale(1,-1)" font-family="sans-serif" font-size="30" x="495.5" y="45" >50 </text>


<!--Draw labels and tics for Y axis -->

<line fill="none" stroke="black" stroke-width="6" x1="0.0" y1="0" x2="-20" y2="0" />
<text transform="scale(1,-1)" text-anchor="end" font-family="sans-serif" font-size="30" x="-25" y="10" >0 </text>
<line fill="none" stroke="black" stroke-width="6" x1="0.0" y1="57.7778" x2="-20" y2="57.7778" />
<text transform="scale(1,-1)" text-anchor="end" font-family="sans-serif" font-size="30" x="-25" y="-47.7778" >50 </text>
<line fill="none" stroke="black" stroke-width="6" x1="0.0" y1="115.556" x2="-20" y2="115.556" />
<text transform="scale(1,-1)" text-anchor="end" font-family="sans-serif" font-size="30" x="-25" y="-105.556" >100 </text>
<line fill="none" stroke="black" stroke-width="6" x1="0.0" y1="173.333" x2="-20" y2="173.333" />
<text transform="scale(1,-1)" text-anchor="end" font-family="sans-serif" font-size="30" x="-25" y="-163.333" >150 </text>
<line fill="none" stroke="black" stroke-width="6" x1="0.0" y1="231.111" x2="-20" y2="231.111" />
<text transform="scale(1,-1)" text-anchor="end" font-family="sans-serif" font-size="30" x="-25" y="-221.111" >200 </text>
<line fill="none" stroke="black" stroke-width="6" x1="0.0" y1="288.889" x2="-20" y2="288.889" />
<text transform="scale(1,-1)" text-anchor="end" font-family="sans-serif" font-size="30" x="-25" y="-278.889" >250 </text>
<line fill="none" stroke="black" stroke-width="6" x1="0.0" y1="346.667" x2="-20" y2="346.667" />
<text transform="scale(1,-1)" text-anchor="end" font-family="sans-serif" font-size="30" x="-25" y="-336.667" >300 </text>
<line fill="none" stroke="black" stroke-width="6" x1="0.0" y1="404.444" x2="-20" y2="404.444" />
<text transform="scale(1,-1)" text-anchor="end" font-family="sans-serif" font-size="30" x="-25" y="-394.444" >350 </text>
<line fill="none" stroke="black" stroke-width="6" x1="0.0" y1="462.222" x2="-20" y2="462.222" />
<text transform="scale(1,-1)" text-anchor="end" font-family="sans-serif" font-size="30" x="-25" y="-452.222" >400 </text>
<line fill="none" stroke="black" stroke-width="6" x1="0.0" y1="520" x2="-20" y2="520" />
<text transform="scale(1,-1)" text-anchor="end" font-family="sans-serif" font-size="30" x="-25" y="-510" >450 </text>


<!--Draw Glitches -->

<line fill="none" stroke="black" stroke-width="2" x1="41.6" y1="63.6782" x2="41.6" y2="13.6782" />
<text transform="scale(1,-1)" font-family="sans-serif" font-size="30" x="46.6" y="-3.67821" >4 </text>
<line fill="none" stroke="black" stroke-width="2" x1="405.6" y1="177.183" x2="405.6" y2="127.183" />
<text transform="scale(1,-1)" font-family="sans-serif" font-size="30" x="410.6" y="-117.183" >39 </text>
<line fill="none" stroke="black" stroke-width="2" x1="478.4" y1="66.3827" x2="478.4" y2="16.3827" />
<text transform="scale(1,-1)" font-family="sans-serif" font-size="30" x="483.4" y="-6.38272" >46 </text>

<!-- -->


<!-- Reduced vector followed by D7dist from the final reduced cell
-65.02665 -16.05538 -38.90147 -83.57911 -36.34251 -99.75193    (8.19807e-13,  1.07896e-05)   
-34.09795 -61.92268 -39.55679 -38.75575 -74.37029 -109.23746    (22.72,  41.2432)   
-65.16146 -41.16899 -40.21211 -58.81872 -52.14052 -118.72299    (43.0695,  79.9022)   
-55.95263 -43.58223 -40.86743 -55.71475 -70.18308 -128.20852    (58.481,  113.391)   
-46.74380 -45.99547 -41.52275 -52.61079 -88.22565 -137.69405    (55.1061,  129.503)   
-37.53497 -48.40871 -42.17807 -49.50683 -106.26822 -147.17958    (60.7103,  155.198)   
-28.32614 -50.82196 -42.83340 -46.40286 -124.31079 -156.66511    (73.2611,  186.558)   
-19.11731 -53.23520 -43.48872 -43.29890 -142.35335 -166.15064    (89.8946,  221.187)   
 -9.90848 -55.64844 -44.14404 -40.19493 -160.39592 -175.63617    (108.753,  257.769)   
 -0.69965 -58.06168 -44.79936 -37.09097 -178.43849 -185.12170    (128.864,  295.582)   
-186.09805 -36.94551  -8.50918 -187.97188 -51.96574 -42.49618    (138.453,  316.184)   
-186.37475 -28.39200 -17.71801 -196.80561 -45.17016 -48.60104    (148.726,  336.711)   
-19.83849 -186.65145 -26.92684 -38.37457 -205.63935 -54.70591    (154.896,  351.188)   
-11.28498 -36.13567 -186.92815 -31.57898 -60.81077 -214.47309    (159.777,  365.653)   
-45.34449  -2.73148 -187.20485 -66.91564 -24.78339 -223.30683    (166.322,  380.053)   
 -5.82203 -48.73129 -67.19847 -23.80984 -181.65952 -226.31854    (164.216,  381.347)   
-14.37554 -49.38661 -64.74983 -25.56776 -173.38271 -226.59877    (158.702,  377.242)   
-22.92905 -50.04194 -62.30119 -27.32568 -165.10590 -226.87900    (153.976,  373.903)   
-31.48255 -50.69726 -59.85254 -29.08360 -156.82909 -227.15923    (150.11,  371.351)   
-40.03606 -51.35258 -57.40390 -30.84152 -148.55229 -227.43946    (147.174,  369.602)   
-48.58957 -52.00790 -54.95526 -32.59944 -140.27548 -227.71969    (145.224,  368.668)   
-57.14307 -52.66322 -52.50662 -34.35736 -131.99867 -227.99992    (144.299,  368.555)   
-65.69658 -53.31855 -50.05797 -36.11528 -123.72187 -228.28015    (144.419,  369.263)   
-74.25009 -53.97387 -47.60933 -37.87320 -115.44506 -228.56038    (145.582,  370.788)   
-82.80360 -54.62919 -45.16069 -39.63112 -107.16825 -228.84061    (147.763,  373.12)   
-98.89144 -41.38904 -42.71204 -55.28451 -91.35710 -229.12084    (149.555,  375.155)   
-90.61464 -43.14696 -40.26340 -55.93983 -99.91061 -229.40107    (151.672,  377.457)   
-82.33783 -44.90488 -37.81476 -56.59515 -108.46412 -229.68130    (150.7,  377.287)   
-74.06102 -46.66280 -35.36612 -57.25048 -117.01763 -229.96153    (149.078,  376.606)   
-65.78421 -48.42072 -32.91747 -57.90580 -125.57113 -230.24176    (148.46,  376.73)   
-57.50741 -50.17864 -30.46883 -58.56112 -134.12464 -230.52199    (148.86,  377.657)   
-49.23060 -51.93656 -28.02019 -59.21644 -142.67815 -230.80222    (150.268,  379.382)   
-40.95379 -53.69448 -25.57154 -59.87176 -151.23166 -231.08245    (152.657,  381.893)   
-32.67698 -55.45240 -23.12290 -60.52708 -159.78516 -231.36268    (155.983,  385.176)   
-24.40018 -57.21032 -20.67426 -61.18241 -168.33867 -231.64291    (160.186,  389.21)   
-16.12337 -58.96824 -18.22562 -61.83773 -176.89218 -231.92314    (165.199,  393.973)   
 -7.84656 -60.72616 -15.77697 -62.49305 -185.44569 -232.20337    (170.952,  399.438)   
-232.05336 -12.89809  -0.43024 -193.56895 -62.05383 -63.57862    (176.918,  404.776)   
-224.05678  -2.17264  -8.70705 -193.84565 -55.53494 -72.51075    (171.11,  391.403)   
 -8.55282 -72.89006  -8.43104 -57.56887 -185.56953 -207.50739    (153.331,  357.369)   
-19.27827 -71.09674  -5.98240 -61.77543 -175.12078 -188.78536    (134.479,  320.461)   
-30.00372 -69.30342  -3.53376 -65.98200 -164.67203 -170.06334    (117.737,  285.397)   
-40.72917 -67.51010  -1.08512 -70.18856 -154.22328 -151.34131    (104.128,  252.942)   
-50.09109 -73.03159  -1.36353 -64.35325 -142.41101 -133.98281    (89.7171,  218.259)   
-58.36790 -74.78951  -3.81217 -60.11129 -129.51361 -117.70943    (78.1942,  184.745)   
-66.64470 -76.54743  -6.26081 -55.86932 -116.61622 -101.43604    (72.3395,  156.471)   
-74.92151 -78.30535  -8.70946 -51.62736 -103.71883 -85.16266    (57.4466,  124.07)   
-90.82143 -47.38539 -11.15810 -80.06327 -83.19832 -68.88927    (45.9021,  87.854)   
-77.92404 -13.60674 -43.14343 -81.82119 -52.61589 -91.47513    (22.9511,  43.927)   
-65.02665 -16.05538 -38.90147 -83.57911 -36.34251 -99.75193    (0,  0)   
-->
</g>
</g>
<!-- Run Constants
CIRCLEPLOT bool false
DISTANCEPLOT bool true
PRINTDISTANCEDATA bool true
GLITCHESONLY bool false
PLOT 2doubles 3 4
PERTURBBY double 0.05
GLITCHLEVEL double 3
BOUNDARYWINDOW double 0.065
FRAMESPERPATH int 200
STEPSPERFRAME int 50
TRIALS int 5
ALLBLACK bool false
FILEPREFIX string Fol
GRAPHSIZE int 0
BORDER int 0
PLOTSIZE int 0
CIRCLEPLOTSIZE int 2000
CIRCLERADIUS int 300
CIRCLESTROKEWIDTH int 30
G6LINEWIDTH int 3
DELONELINEWIDTH int 10
AXISWIDTH int 6
TICLENGTH int 20
VECTOR g6 
PERTURB g6Perturb 
MOVIEMODE MovieMode STAR
FOLLOWERMODE FollowerMode Follow
FIXRANDOMSEED fixRandomSeed false
RANDOMSEED int 19191
TIMESTAMP bool true
END end 




-->
</svg>
