<?xml version="1.0" standalone="no"?>
<!-- the width and height set the total pixel output of the image in the browser -->
<!-- whatever is within the viewbox will be remapped to show in this size -->
<svg width="1000" height="1000" viewBox="1 0 1000 1000"  version="1.1" xmlns="http://www.w3.org/2000/svg" xmlns:xlink="http://www.w3.org/1999/xlink">
 <desc>ID (and file name) = Fol_2018-02-10.15_55_31.0_18.svg </desc> 
 <text x="280"  y="30"  font-family="sans-serif" font-size="20" > Trial vector = 0  </text> 
 <text x="700" y="30" font-family="sans-serif" font-size="20">Wall time passed: 33436 msec.</text>
<text x="450" y="30" font-family="sans-serif" font-size="20" fill="black" > Plotting g5 vs. g4</text>
<text x="300" y="60"  font-family="sans-serif" font-size="20" > Beginning vector  -97.83595 -183.92788   3.00909 -142.25902 -148.10353   0.89986 </text>
<text x="300" y="85"  font-family="sans-serif" font-size="20" > Beginning cell   17.97715  15.58622  16.75900   1.95471   2.22748   1.56006 </text>
<text x="300" y="110"  font-family="sans-serif" font-size="20" > Ending vector   97.83595  96.93609  94.82686 -427.94899 -435.59321 -475.63602 </text>
<text x="300" y="135"  font-family="sans-serif" font-size="20" > Ending cell   15.36835  15.58622  16.75900   1.18689   1.18493   1.16377 </text>

<text x="300" y="160"  font-family="sans-serif" font-size="20" > Glitch   30.63550   0.47776  63.29349 -329.83324 -336.85938 -311.97723  (149.185 )</text>
<text x="300" y="185"  font-family="sans-serif" font-size="20" > Glitch   28.65902  -2.35925  62.36603 -326.94748 -333.95544 -307.16374  (171.794)</text>



 <!--DISTANCE PLOT BEGINS-->


<!-- the following will scale and place the distance plot -->
<g  transform="translate(0,50) ">
<g transform="translate(150,700) scale(1 -1)">
   <polyline fill="none" stroke="black" stroke-width="10" points=" 5.2 ,0  10.4 ,18.7514  15.6 ,37.5028  20.8 ,56.2542  26 ,75.0057  31.2 ,93.7571  36.4 ,112.508  41.6 ,131.26  46.8 ,146.389  52 ,160.512  57.2 ,175.133  62.4 ,190.724  67.6 ,206.506  72.8 ,222.403  78 ,238.722  83.2 ,255.379  88.4 ,272.311  93.6 ,289.471  98.8 ,306.819  104 ,324.326  109.2 ,341.179  114.4 ,337.796  119.6 ,335.442  124.8 ,333.843  130 ,333.191  135.2 ,333.599  140.4 ,335.065  145.6 ,337.574  150.8 ,341.106  156 ,345.585  161.2 ,350.931  166.4 ,357.187  171.6 ,364.307  176.8 ,368.77  182 ,372.099  187.2 ,375.68  192.4 ,379.506  197.6 ,382.954  202.8 ,385.709  208 ,388.736  213.2 ,392.022  218.4 ,395.556  223.6 ,399.328  228.8 ,403.249  234 ,407.407  239.2 ,411.808  244.4 ,416.446  249.6 ,421.315  254.8 ,426.408  260 ,431.72  265.2 ,436.994  270.4 ,438.603  275.6 ,440.499  280.8 ,442.68  286 ,445.14  291.2 ,447.876  296.4 ,450.88  301.6 ,454.147  306.8 ,457.669  312 ,457.537  317.2 ,451.415  322.4 ,445.491  327.6 ,439.556  332.8 ,433.798  338 ,428.255  343.2 ,421.572  348.4 ,409.35  353.6 ,397.129  358.8 ,384.91  364 ,372.691  369.2 ,360.474  374.4 ,348.258  379.6 ,336.043  384.8 ,323.831  390 ,311.62  395.2 ,299.411  400.4 ,287.205  405.6 ,275.002  410.8 ,262.801  416 ,250.605  421.2 ,238.412  426.4 ,226.225  431.6 ,214.043  436.8 ,201.868  442 ,189.702  447.2 ,177.545  452.4 ,165.4  457.6 ,153.271  462.8 ,141.162  468 ,129.077  473.2 ,117.026  478.4 ,104.881  483.6 ,92.7312  488.8 ,80.6088  494 ,68.5299  499.2 ,56.525  504.4 ,44.6603  509.6 ,31.8585  514.8 ,17.6822  520 ,0  " />

<!--Draw the X and Y axes -->
<polyline fill="none" stroke="black" stroke-width="6"  points=" 600,0 0,0 0,520" />
<!-- -->

<line fill="none" stroke-width="3" boundary-string=""  stroke="lightblue" x1="0" y1="1.63543e-13" x2="5.2" y2="1.63543e-13" />
<line fill="none" stroke-width="3" boundary-string=""  stroke="lightblue" x1="5.2" y1="1.63543e-13" x2="10.4" y2="11.9009" />
<line fill="none" stroke-width="3" boundary-string=""  stroke="lightblue" x1="10.4" y1="11.9009" x2="15.6" y2="23.8019" />
<line fill="none" stroke-width="3" boundary-string=""  stroke="lightblue" x1="15.6" y1="23.8019" x2="20.8" y2="35.7028" />
<line fill="none" stroke-width="3" boundary-string=""  stroke="lightblue" x1="20.8" y1="35.7028" x2="26" y2="47.6038" />
<line fill="none" stroke-width="3" boundary-string=""  stroke="lightblue" x1="26" y1="47.6038" x2="31.2" y2="59.5047" />
<line fill="none" stroke-width="3" boundary-string=""  stroke="lightblue" x1="31.2" y1="59.5047" x2="36.4" y2="71.4057" />
<line fill="none" stroke-width="3" boundary-string=""  stroke="lightblue" x1="36.4" y1="71.4057" x2="41.6" y2="83.3066" />
<line fill="none" stroke-width="3" boundary-string=""  stroke="lightblue" x1="41.6" y1="83.3066" x2="46.8" y2="91.4397" />
<line fill="none" stroke-width="3" boundary-string=""  stroke="lightblue" x1="46.8" y1="91.4397" x2="52" y2="99.8226" />
<line fill="none" stroke-width="3" boundary-string=""  stroke="lightblue" x1="52" y1="99.8226" x2="57.2" y2="107.831" />
<line fill="none" stroke-width="3" boundary-string=""  stroke="lightblue" x1="57.2" y1="107.831" x2="62.4" y2="116.506" />
<line fill="none" stroke-width="3" boundary-string=""  stroke="lightblue" x1="62.4" y1="116.506" x2="67.6" y2="125.71" />
<line fill="none" stroke-width="3" boundary-string=""  stroke="lightblue" x1="67.6" y1="125.71" x2="72.8" y2="135.336" />
<line fill="none" stroke-width="3" boundary-string=""  stroke="lightblue" x1="72.8" y1="135.336" x2="78" y2="145.299" />
<line fill="none" stroke-width="3" boundary-string=""  stroke="lightblue" x1="78" y1="145.299" x2="83.2" y2="155.535" />
<line fill="none" stroke-width="3" boundary-string=""  stroke="lightblue" x1="83.2" y1="155.535" x2="88.4" y2="165.993" />
<line fill="none" stroke-width="3" boundary-string=""  stroke="lightblue" x1="88.4" y1="165.993" x2="93.6" y2="176.633" />
<line fill="none" stroke-width="3" boundary-string=""  stroke="lightblue" x1="93.6" y1="176.633" x2="98.8" y2="187.426" />
<line fill="none" stroke-width="3" boundary-string=""  stroke="lightblue" x1="98.8" y1="187.426" x2="104" y2="198.345" />
<line fill="none" stroke-width="3" boundary-string=""  stroke="lightblue" x1="104" y1="198.345" x2="109.2" y2="208.702" />
<line fill="none" stroke-width="3" boundary-string=""  stroke="lightblue" x1="109.2" y1="208.702" x2="114.4" y2="202.301" />
<line fill="none" stroke-width="3" boundary-string=""  stroke="lightblue" x1="114.4" y1="202.301" x2="119.6" y2="196.413" />
<line fill="none" stroke-width="3" boundary-string=""  stroke="lightblue" x1="119.6" y1="196.413" x2="124.8" y2="191.085" />
<line fill="none" stroke-width="3" boundary-string=""  stroke="lightblue" x1="124.8" y1="191.085" x2="130" y2="186.367" />
<line fill="none" stroke-width="3" boundary-string=""  stroke="lightblue" x1="130" y1="186.367" x2="135.2" y2="182.304" />
<line fill="none" stroke-width="3" boundary-string=""  stroke="lightblue" x1="135.2" y1="182.304" x2="140.4" y2="178.942" />
<line fill="none" stroke-width="3" boundary-string=""  stroke="lightblue" x1="140.4" y1="178.942" x2="145.6" y2="176.32" />
<line fill="none" stroke-width="3" boundary-string=""  stroke="lightblue" x1="145.6" y1="176.32" x2="150.8" y2="174.473" />
<line fill="none" stroke-width="3" boundary-string=""  stroke="lightblue" x1="150.8" y1="174.473" x2="156" y2="173.424" />
<line fill="none" stroke-width="3" boundary-string=""  stroke="lightblue" x1="156" y1="173.424" x2="161.2" y2="173.189" />
<line fill="none" stroke-width="3" boundary-string=""  stroke="lightblue" x1="161.2" y1="173.189" x2="166.4" y2="173.771" />
<line fill="none" stroke-width="3" boundary-string=""  stroke="lightblue" x1="166.4" y1="173.771" x2="171.6" y2="175.161" />
<line fill="none" stroke-width="3" boundary-string=""  stroke="lightblue" x1="171.6" y1="175.161" x2="176.8" y2="177.063" />
<line fill="none" stroke-width="3" boundary-string=""  stroke="lightblue" x1="176.8" y1="177.063" x2="182" y2="178.874" />
<line fill="none" stroke-width="3" boundary-string=""  stroke="lightblue" x1="182" y1="178.874" x2="187.2" y2="180.945" />
<line fill="none" stroke-width="3" boundary-string=""  stroke="lightblue" x1="187.2" y1="180.945" x2="192.4" y2="183.266" />
<line fill="none" stroke-width="3" boundary-string=""  stroke="lightblue" x1="192.4" y1="183.266" x2="197.6" y2="185.081" />
<line fill="none" stroke-width="3" boundary-string=""  stroke="lightblue" x1="197.6" y1="185.081" x2="202.8" y2="186.218" />
<line fill="none" stroke-width="3" boundary-string=""  stroke="lightblue" x1="202.8" y1="186.218" x2="208" y2="187.618" />
<line fill="none" stroke-width="3" boundary-string=""  stroke="lightblue" x1="208" y1="187.618" x2="213.2" y2="189.274" />
<line fill="none" stroke-width="3" boundary-string=""  stroke="lightblue" x1="213.2" y1="189.274" x2="218.4" y2="191.181" />
<line fill="none" stroke-width="3" boundary-string=""  stroke="lightblue" x1="218.4" y1="191.181" x2="223.6" y2="193.33" />
<line fill="none" stroke-width="3" boundary-string=""  stroke="lightblue" x1="223.6" y1="193.33" x2="228.8" y2="195.713" />
<line fill="none" stroke-width="3" boundary-string=""  stroke="lightblue" x1="228.8" y1="195.713" x2="234" y2="198.323" />
<line fill="none" stroke-width="3" boundary-string=""  stroke="lightblue" x1="234" y1="198.323" x2="239.2" y2="201.15" />
<line fill="none" stroke-width="3" boundary-string=""  stroke="lightblue" x1="239.2" y1="201.15" x2="244.4" y2="204.186" />
<line fill="none" stroke-width="3" boundary-string=""  stroke="lightblue" x1="244.4" y1="204.186" x2="249.6" y2="207.421" />
<line fill="none" stroke-width="3" boundary-string=""  stroke="lightblue" x1="249.6" y1="207.421" x2="254.8" y2="210.845" />
<line fill="none" stroke-width="3" boundary-string=""  stroke="lightblue" x1="254.8" y1="210.845" x2="260" y2="214.451" />
<line fill="none" stroke-width="3" boundary-string=""  stroke="lightblue" x1="260" y1="214.451" x2="265.2" y2="232.193" />
<line fill="none" stroke-width="3" boundary-string=""  stroke="lightblue" x1="265.2" y1="232.193" x2="270.4" y2="232.82" />
<line fill="none" stroke-width="3" boundary-string=""  stroke="lightblue" x1="270.4" y1="232.82" x2="275.6" y2="233.662" />
<line fill="none" stroke-width="3" boundary-string=""  stroke="lightblue" x1="275.6" y1="233.662" x2="280.8" y2="234.718" />
<line fill="none" stroke-width="3" boundary-string=""  stroke="lightblue" x1="280.8" y1="234.718" x2="286" y2="235.985" />
<line fill="none" stroke-width="3" boundary-string=""  stroke="lightblue" x1="286" y1="235.985" x2="291.2" y2="237.46" />
<line fill="none" stroke-width="3" boundary-string=""  stroke="lightblue" x1="291.2" y1="237.46" x2="296.4" y2="239.138" />
<line fill="none" stroke-width="3" boundary-string=""  stroke="lightblue" x1="296.4" y1="239.138" x2="301.6" y2="241.016" />
<line fill="none" stroke-width="3" boundary-string=""  stroke="lightblue" x1="301.6" y1="241.016" x2="306.8" y2="243.089" />
<line fill="none" stroke-width="3" boundary-string=""  stroke="lightblue" x1="306.8" y1="243.089" x2="312" y2="245.352" />
<line fill="none" stroke-width="3" boundary-string=""  stroke="lightblue" x1="312" y1="245.352" x2="317.2" y2="247.8" />
<line fill="none" stroke-width="3" boundary-string=""  stroke="lightblue" x1="317.2" y1="247.8" x2="322.4" y2="250.426" />
<line fill="none" stroke-width="3" boundary-string=""  stroke="lightblue" x1="322.4" y1="250.426" x2="327.6" y2="253.227" />
<line fill="none" stroke-width="3" boundary-string=""  stroke="lightblue" x1="327.6" y1="253.227" x2="332.8" y2="254.729" />
<line fill="none" stroke-width="3" boundary-string=""  stroke="lightblue" x1="332.8" y1="254.729" x2="338" y2="255.237" />
<line fill="none" stroke-width="3" boundary-string=""  stroke="lightblue" x1="338" y1="255.237" x2="343.2" y2="221.646" />
<line fill="none" stroke-width="3" boundary-string=""  stroke="lightblue" x1="343.2" y1="221.646" x2="348.4" y2="215.08" />
<line fill="none" stroke-width="3" boundary-string=""  stroke="lightblue" x1="348.4" y1="215.08" x2="353.6" y2="208.515" />
<line fill="none" stroke-width="3" boundary-string=""  stroke="lightblue" x1="353.6" y1="208.515" x2="358.8" y2="201.951" />
<line fill="none" stroke-width="3" boundary-string=""  stroke="lightblue" x1="358.8" y1="201.951" x2="364" y2="195.388" />
<line fill="none" stroke-width="3" boundary-string=""  stroke="lightblue" x1="364" y1="195.388" x2="369.2" y2="188.826" />
<line fill="none" stroke-width="3" boundary-string=""  stroke="lightblue" x1="369.2" y1="188.826" x2="374.4" y2="182.265" />
<line fill="none" stroke-width="3" boundary-string=""  stroke="lightblue" x1="374.4" y1="182.265" x2="379.6" y2="175.705" />
<line fill="none" stroke-width="3" boundary-string=""  stroke="lightblue" x1="379.6" y1="175.705" x2="384.8" y2="169.147" />
<line fill="none" stroke-width="3" boundary-string=""  stroke="lightblue" x1="384.8" y1="169.147" x2="390" y2="162.591" />
<line fill="none" stroke-width="3" boundary-string=""  stroke="lightblue" x1="390" y1="162.591" x2="395.2" y2="156.036" />
<line fill="none" stroke-width="3" boundary-string=""  stroke="lightblue" x1="395.2" y1="156.036" x2="400.4" y2="149.484" />
<line fill="none" stroke-width="3" boundary-string=""  stroke="lightblue" x1="400.4" y1="149.484" x2="405.6" y2="142.934" />
<line fill="none" stroke-width="3" boundary-string=""  stroke="lightblue" x1="405.6" y1="142.934" x2="410.8" y2="136.387" />
<line fill="none" stroke-width="3" boundary-string=""  stroke="lightblue" x1="410.8" y1="136.387" x2="416" y2="129.843" />
<line fill="none" stroke-width="3" boundary-string=""  stroke="lightblue" x1="416" y1="129.843" x2="421.2" y2="123.303" />
<line fill="none" stroke-width="3" boundary-string=""  stroke="lightblue" x1="421.2" y1="123.303" x2="426.4" y2="116.768" />
<line fill="none" stroke-width="3" boundary-string=""  stroke="lightblue" x1="426.4" y1="116.768" x2="431.6" y2="110.237" />
<line fill="none" stroke-width="3" boundary-string=""  stroke="lightblue" x1="431.6" y1="110.237" x2="436.8" y2="103.713" />
<line fill="none" stroke-width="3" boundary-string=""  stroke="lightblue" x1="436.8" y1="103.713" x2="442" y2="97.1957" />
<line fill="none" stroke-width="3" boundary-string=""  stroke="lightblue" x1="442" y1="97.1957" x2="447.2" y2="90.6876" />
<line fill="none" stroke-width="3" boundary-string=""  stroke="lightblue" x1="447.2" y1="90.6876" x2="452.4" y2="84.1905" />
<line fill="none" stroke-width="3" boundary-string=""  stroke="lightblue" x1="452.4" y1="84.1905" x2="457.6" y2="77.7073" />
<line fill="none" stroke-width="3" boundary-string=""  stroke="lightblue" x1="457.6" y1="77.7073" x2="462.8" y2="71.2416" />
<line fill="none" stroke-width="3" boundary-string=""  stroke="lightblue" x1="462.8" y1="71.2416" x2="468" y2="64.7987" />
<line fill="none" stroke-width="3" boundary-string=""  stroke="lightblue" x1="468" y1="64.7987" x2="473.2" y2="58.3861" />
<line fill="none" stroke-width="3" boundary-string=""  stroke="lightblue" x1="473.2" y1="58.3861" x2="478.4" y2="52.0152" />
<line fill="none" stroke-width="3" boundary-string=""  stroke="lightblue" x1="478.4" y1="52.0152" x2="483.6" y2="45.7033" />
<line fill="none" stroke-width="3" boundary-string=""  stroke="lightblue" x1="483.6" y1="45.7033" x2="488.8" y2="39.4786" />
<line fill="none" stroke-width="3" boundary-string=""  stroke="lightblue" x1="488.8" y1="39.4786" x2="494" y2="33.3901" />
<line fill="none" stroke-width="3" boundary-string=""  stroke="lightblue" x1="494" y1="33.3901" x2="499.2" y2="27.3367" />
<line fill="none" stroke-width="3" boundary-string=""  stroke="lightblue" x1="499.2" y1="27.3367" x2="504.4" y2="21.0451" />
<line fill="none" stroke-width="3" boundary-string=""  stroke="lightblue" x1="504.4" y1="21.0451" x2="509.6" y2="15.0022" />
<line fill="none" stroke-width="3" boundary-string=""  stroke="lightblue" x1="509.6" y1="15.0022" x2="514.8" y2="9.2092" />
<line fill="none" stroke-width="3" boundary-string=""  stroke="lightblue" x1="514.8" y1="9.2092" x2="520" y2="1.85268e-13" />

<!--Draw the X and Y axes -->
<polyline fill="none" stroke="black" stroke-width="6"  points=" 600,0 0,0 0,520" />
<!-- -->


<!--Draw labels and tics for X axis -->

<line fill="none" stroke="black"  stroke-width="6"  x1="0.5" y1="0" x2="0.5" y2="-20" />
<text transform="scale(1,-1)" font-family="sans-serif" font-size="30" x="-24.5" y="45" >0 </text>
<line fill="none" stroke="black"  stroke-width="6"  x1="104.5" y1="0" x2="104.5" y2="-20" />
<text transform="scale(1,-1)" font-family="sans-serif" font-size="30" x="79.5" y="45" >20 </text>
<line fill="none" stroke="black"  stroke-width="6"  x1="208.5" y1="0" x2="208.5" y2="-20" />
<text transform="scale(1,-1)" font-family="sans-serif" font-size="30" x="183.5" y="45" >40 </text>
<line fill="none" stroke="black"  stroke-width="6"  x1="312.5" y1="0" x2="312.5" y2="-20" />
<text transform="scale(1,-1)" font-family="sans-serif" font-size="30" x="287.5" y="45" >60 </text>
<line fill="none" stroke="black"  stroke-width="6"  x1="416.5" y1="0" x2="416.5" y2="-20" />
<text transform="scale(1,-1)" font-family="sans-serif" font-size="30" x="391.5" y="45" >80 </text>
<line fill="none" stroke="black"  stroke-width="6"  x1="520.5" y1="0" x2="520.5" y2="-20" />
<text transform="scale(1,-1)" font-family="sans-serif" font-size="30" x="495.5" y="45" >100 </text>


<!--Draw labels and tics for Y axis -->

<line fill="none" stroke="black" stroke-width="6" x1="0.0" y1="0" x2="-20" y2="0" />
<text transform="scale(1,-1)" text-anchor="end" font-family="sans-serif" font-size="30" x="-25" y="10" >0 </text>
<line fill="none" stroke="black" stroke-width="6" x1="0.0" y1="74.2857" x2="-20" y2="74.2857" />
<text transform="scale(1,-1)" text-anchor="end" font-family="sans-serif" font-size="30" x="-25" y="-64.2857" >50 </text>
<line fill="none" stroke="black" stroke-width="6" x1="0.0" y1="148.571" x2="-20" y2="148.571" />
<text transform="scale(1,-1)" text-anchor="end" font-family="sans-serif" font-size="30" x="-25" y="-138.571" >100 </text>
<line fill="none" stroke="black" stroke-width="6" x1="0.0" y1="222.857" x2="-20" y2="222.857" />
<text transform="scale(1,-1)" text-anchor="end" font-family="sans-serif" font-size="30" x="-25" y="-212.857" >150 </text>
<line fill="none" stroke="black" stroke-width="6" x1="0.0" y1="297.143" x2="-20" y2="297.143" />
<text transform="scale(1,-1)" text-anchor="end" font-family="sans-serif" font-size="30" x="-25" y="-287.143" >200 </text>
<line fill="none" stroke="black" stroke-width="6" x1="0.0" y1="371.429" x2="-20" y2="371.429" />
<text transform="scale(1,-1)" text-anchor="end" font-family="sans-serif" font-size="30" x="-25" y="-361.429" >250 </text>
<line fill="none" stroke="black" stroke-width="6" x1="0.0" y1="445.714" x2="-20" y2="445.714" />
<text transform="scale(1,-1)" text-anchor="end" font-family="sans-serif" font-size="30" x="-25" y="-435.714" >300 </text>
<line fill="none" stroke="black" stroke-width="6" x1="0.0" y1="520" x2="-20" y2="520" />
<text transform="scale(1,-1)" text-anchor="end" font-family="sans-serif" font-size="30" x="-25" y="-510" >350 </text>


<!--Draw Glitches -->

<line fill="none" stroke="black" stroke-width="2" x1="338" y1="221.646" x2="338" y2="171.646" />
<text transform="scale(1,-1)" font-family="sans-serif" font-size="30" x="343" y="-161.646" >65 </text>

<!-- -->


<!-- Reduced vector followed by D7dist from the final reduced cell
 -3.00909 -139.24993 -94.82686  -2.10923 -145.09444 -180.91879    (1.10077e-13,  0)   
 -3.93654 -141.20824 -91.92293  -7.85018 -147.07092 -177.15433    (8.01025,  12.6211)   
-143.16654  -4.86399 -89.01899 -149.04741 -13.59112 -173.38986    (16.0205,  25.2423)   
-145.12485  -5.79144 -86.11506 -151.02389 -19.33207 -169.62540    (24.0307,  37.8634)   
-147.08315  -6.71890 -83.21112 -153.00037 -25.07301 -165.86094    (32.041,  50.4846)   
-149.04146  -7.64635 -80.30718 -154.97686 -30.81396 -162.09648    (40.0512,  63.1057)   
-150.99976  -8.57380 -77.40325 -156.95334 -36.55491 -158.33202    (48.0615,  75.7269)   
-152.95807  -9.50125 -74.49931 -158.92983 -42.29585 -154.56755    (56.0717,  88.348)   
-154.91637 -10.42871 -71.59537 -160.90631 -48.03680 -150.80309    (61.5459,  98.5314)   
-156.87468 -11.35616 -68.69144 -162.88279 -53.77774 -147.03863    (67.1883,  108.037)   
-158.83298 -12.28361 -65.78750 -164.85928 -59.51869 -143.27417    (72.5784,  117.878)   
-160.79129 -13.21106 -62.88357 -166.83576 -65.25964 -139.50971    (78.4175,  128.372)   
-162.74959 -14.13852 -59.97963 -168.81224 -71.00058 -135.74524    (84.6128,  138.994)   
-164.70790 -15.06597 -57.07569 -170.78873 -76.74153 -131.98078    (91.0915,  149.695)   
-166.66620 -15.99342 -54.17176 -172.76521 -82.48247 -128.21632    (97.7974,  160.678)   
-168.62451 -16.92087 -51.26782 -174.74170 -88.22342 -124.45186    (104.687,  171.89)   
-170.58281 -48.36389 -17.84832 -176.71818 -120.68739 -93.96437    (111.726,  183.286)   
-172.54112 -45.45995 -18.77578 -178.69466 -116.92293 -99.70531    (118.888,  194.836)   
-174.49942 -42.55601 -19.70323 -180.67115 -113.15847 -105.44626    (126.152,  206.513)   
-176.45773 -39.65208 -20.63068 -182.64763 -109.39401 -111.18720    (133.501,  218.297)   
-178.41603 -36.74814 -21.55813 -184.62412 -105.62955 -116.92815    (140.472,  229.64)   
-180.37434 -33.84420 -22.48559 -186.60060 -101.86508 -122.66910    (136.164,  227.362)   
-182.33264 -30.94027 -23.41304 -188.57708 -98.10062 -128.41004    (132.201,  225.778)   
-184.29095 -28.03633 -24.34049 -190.55357 -94.33616 -134.15099    (128.615,  224.702)   
-186.24925 -25.13240 -25.26794 -192.53005 -90.57170 -139.89193    (125.439,  224.263)   
-188.20756 -22.22846 -26.19539 -194.50654 -86.80724 -145.63288    (122.704,  224.538)   
-190.16586 -19.32452 -27.12285 -196.48302 -83.04277 -151.37383    (120.441,  225.524)   
-192.12417 -16.42059 -28.05030 -198.45950 -79.27831 -157.11477    (118.677,  227.213)   
-194.08247 -13.51665 -28.97775 -200.43599 -75.51385 -162.85572    (117.434,  229.59)   
-196.04078 -10.61272 -29.90520 -202.41247 -71.74939 -168.59666    (116.728,  232.605)   
-197.99908  -7.70878 -30.83266 -204.38895 -67.98493 -174.33761    (116.57,  236.204)   
-199.95739  -4.80484 -31.76011 -206.36544 -64.22046 -180.07856    (116.961,  240.414)   
-201.91569  -1.90091 -32.68756 -208.34192 -60.45600 -185.81950    (117.897,  245.207)   
-190.55742  -1.00303 -32.61198 -209.31538 -57.69457 -202.87097    (119.177,  248.21)   
-193.39443  -3.90697 -30.63550 -208.38792 -56.83404 -201.92534    (120.396,  250.451)   
-196.23144  -6.81090 -28.65902 -207.46047 -55.97352 -200.97970    (121.79,  252.861)   
-199.06845  -9.71484 -26.68253 -206.53302 -55.11299 -200.03407    (123.352,  255.436)   
-201.90546 -12.61877 -24.70605 -205.60557 -54.25246 -199.08844    (124.574,  257.758)   
-204.74247 -15.52271 -22.72956 -204.67812 -53.39194 -198.14281    (125.339,  259.612)   
-207.57948 -18.42665 -20.75308 -203.75066 -52.53141 -197.19718    (126.281,  261.65)   
-210.41649 -21.33058 -18.77660 -202.82321 -51.67089 -196.25155    (127.396,  263.861)   
-213.25350 -24.23452 -16.80011 -201.89576 -50.81036 -195.30592    (128.679,  266.24)   
-216.09051 -27.13845 -14.82363 -200.96831 -49.94984 -194.36029    (130.126,  268.779)   
-218.92752 -30.04239 -12.84715 -200.04085 -49.08931 -193.41466    (131.73,  271.418)   
-48.22878 -199.11340 -10.87066 -32.94633 -221.76453 -192.46902    (133.487,  274.216)   
-47.36826 -198.18595  -8.89418 -35.85026 -224.60154 -191.52339    (135.39,  277.179)   
-46.50773 -197.25850  -6.91769 -38.75420 -227.43855 -190.57776    (137.433,  280.3)   
-45.64721 -196.33104  -4.94121 -41.65814 -230.27556 -189.63213    (139.61,  283.577)   
-44.78668 -195.40359  -2.96473 -44.56207 -233.11257 -188.68650    (141.915,  287.005)   
-43.92615 -194.47614  -0.98824 -47.46601 -235.94957 -187.74087    (144.342,  290.581)   
-42.07739  -0.98824 -49.38170 -192.56045 -187.78348 -237.79834    (156.284,  294.131)   
-39.24038  -2.96473 -50.30915 -189.65651 -188.81433 -238.65887    (156.705,  295.213)   
-36.40337  -4.94121 -51.23661 -186.75257 -189.84518 -239.51939    (157.272,  296.49)   
-33.56636  -6.91769 -52.16406 -183.84864 -190.87604 -240.37992    (157.983,  297.957)   
-30.72935  -8.89418 -53.09151 -180.94470 -191.90689 -241.24045    (158.836,  299.614)   
-27.89234 -10.87066 -54.01896 -178.04077 -192.93774 -242.10097    (159.829,  301.455)   
-25.05533 -12.84715 -54.94642 -175.13683 -193.96859 -242.96150    (160.958,  303.477)   
-22.21832 -14.82363 -55.87387 -172.23289 -194.99945 -243.82202    (162.222,  305.676)   
-19.38131 -16.80011 -56.80132 -169.32896 -196.03030 -244.68255    (163.618,  308.046)   
-16.54430 -18.77660 -57.72877 -166.42502 -197.06115 -245.54308    (165.141,  307.957)   
-13.70729 -20.75308 -58.65623 -163.52108 -198.09201 -246.40360    (166.788,  303.837)   
-10.87028 -22.72956 -59.58368 -160.61715 -199.12286 -247.26413    (168.556,  299.85)   
 -8.03327 -24.70605 -60.51113 -157.71321 -200.15371 -248.12465    (170.441,  295.855)   
 -5.19626 -26.68253 -61.43858 -154.80928 -201.18456 -248.98518    (171.452,  291.979)   
 -2.35925 -28.65902 -62.36603 -151.90534 -202.21542 -249.84571    (171.794,  288.249)   
-30.15774 -202.76851  -0.47776 -62.81573 -250.22847 -149.47916    (149.185,  283.75)   
-29.29721 -200.96235  -3.31477 -60.90617 -248.25199 -149.41224    (144.766,  275.524)   
-28.43669 -199.15619  -6.15178 -58.99661 -246.27550 -149.34531    (140.347,  267.298)   
-27.57616 -197.35004  -8.98879 -57.08705 -244.29902 -149.27839    (135.928,  259.074)   
-26.71564 -195.54388 -11.82580 -55.17750 -242.32253 -149.21146    (131.511,  250.85)   
-25.85511 -193.73772 -14.66281 -53.26794 -240.34605 -149.14453    (127.094,  242.627)   
-24.99458 -191.93156 -17.49982 -51.35838 -238.36957 -149.07761    (122.678,  234.404)   
-24.13406 -190.12541 -20.33683 -49.44882 -236.39308 -149.01068    (118.263,  226.183)   
-23.27353 -188.31925 -23.17384 -47.53927 -234.41660 -148.94375    (113.849,  217.963)   
-22.41301 -186.51309 -26.01085 -45.62971 -232.44012 -148.87683    (109.436,  209.744)   
-21.55248 -184.70694 -28.84786 -43.72015 -230.46363 -148.80990    (105.024,  201.527)   
-20.69195 -182.90078 -31.68487 -41.81059 -228.48715 -148.74297    (100.614,  193.311)   
-19.83143 -181.09462 -34.52188 -39.90104 -226.51066 -148.67605    (96.2057,  185.097)   
-18.97090 -179.28846 -37.35889 -37.99148 -224.53418 -148.60912    (91.799,  176.886)   
-18.11038 -177.48231 -40.19590 -36.08192 -222.55770 -148.54220    (87.3945,  168.676)   
-17.24985 -175.67615 -43.03291 -34.17236 -220.58121 -148.47527    (82.9926,  160.47)   
-16.38932 -173.86999 -45.86992 -32.26280 -218.60473 -148.40834    (78.5936,  152.267)   
-15.52880 -172.06384 -48.70693 -30.35325 -216.62824 -148.34142    (74.198,  144.067)   
-14.66827 -170.25768 -51.54394 -28.44369 -214.65176 -148.27449    (69.8066,  135.873)   
-13.80775 -168.45152 -54.38095 -26.53413 -212.67528 -148.20756    (65.4202,  127.684)   
-12.94722 -166.64536 -57.21796 -24.62457 -210.69879 -148.14064    (61.0397,  119.501)   
-12.08669 -164.83921 -60.05497 -22.71502 -208.72231 -148.07371    (56.6667,  111.327)   
-11.22617 -163.03305 -62.89198 -20.80546 -206.74583 -148.00678    (52.303,  103.163)   
-10.36564 -161.22689 -65.72899 -18.89590 -204.76934 -147.93986    (47.951,  95.0127)   
 -9.50512 -159.42074 -68.56600 -16.98634 -202.79286 -147.87293    (43.6145,  86.879)   
 -8.64459 -157.61458 -71.40301 -15.07679 -200.81637 -147.80601    (39.2984,  78.7678)   
 -7.78406 -155.80842 -74.24002 -13.16723 -198.83989 -147.73908    (35.0102,  70.5932)   
 -6.92354 -154.00226 -77.07703 -11.25767 -196.86341 -147.67215    (30.7618,  62.4152)   
 -6.06301 -152.19611 -79.91404  -9.34811 -194.88692 -147.60523    (26.5721,  54.2559)   
 -5.20249 -150.38995 -82.75105  -7.43856 -192.91044 -147.53830    (22.4741,  46.1259)   
 -4.34196 -148.58379 -85.58806  -5.52900 -190.93395 -147.47137    (18.3997,  38.0456)   
 -3.48144 -146.77764 -88.42507  -3.61944 -188.95747 -147.40445    (14.165,  30.0598)   
 -2.62091 -144.97148 -91.26207  -1.70988 -186.98099 -147.33752    (10.0976,  21.4432)   
 -1.96006 -142.96565 -93.89941  -0.19967 -147.07092 -184.80483    (6.1985,  11.9015)   
 -3.00909 -139.24993 -94.82686  -2.10923 -145.09444 -180.91879    (1.247e-13,  0)   
-->
</g>
</g>
<!-- Run Constants
CIRCLEPLOT bool false
DISTANCEPLOT bool true
PRINTDISTANCEDATA bool true
GLITCHESONLY bool false
PLOT 2doubles 3 4
PERTURBBY double 0.05
GLITCHLEVEL double 3
BOUNDARYWINDOW double 0.065
FRAMESPERPATH int 200
STEPSPERFRAME int 100
TRIALS int 20
ALLBLACK bool false
FILEPREFIX string Fol
GRAPHSIZE int 0
BORDER int 0
PLOTSIZE int 0
CIRCLEPLOTSIZE int 2000
CIRCLERADIUS int 300
CIRCLESTROKEWIDTH int 30
G6LINEWIDTH int 3
DELONELINEWIDTH int 10
AXISWIDTH int 6
TICLENGTH int 20
VECTOR g6 
PERTURB g6Perturb 
MOVIEMODE MovieMode STAR
FOLLOWERMODE FollowerMode Follow
FIXRANDOMSEED fixRandomSeed false
RANDOMSEED int 21
TIMESTAMP bool true
END end 




-->
</svg>
