<?xml version="1.0" standalone="no"?>
<!-- the width and height set the total pixel output of the image in the browser -->
<!-- whatever is within the viewbox will be remapped to show in this size -->
<svg width="1000" height="1000" viewBox="1 0 1000 1000"  version="1.1" xmlns="http://www.w3.org/2000/svg" xmlns:xlink="http://www.w3.org/1999/xlink">
 <desc>ID (and file name) = Fol_2018-02-06.15_21_04.5_0.svg </desc> 
 <text x="280"  y="30"  font-family="sans-serif" font-size="20" > Trial vector = 0  </text> 
 <text x="700" y="30" font-family="sans-serif" font-size="20">Wall time passed: 31872 msec.</text>
<text x="450" y="30" font-family="sans-serif" font-size="20" fill="black" > Plotting g5 vs. g4</text>
<text x="300" y="60"  font-family="sans-serif" font-size="20" > Beginning vector  -129.60443 -139.61920  42.44548 -119.02808 -119.70115  -7.27865 </text>
<text x="300" y="85"  font-family="sans-serif" font-size="20" > Beginning cell   14.70380  14.38263  16.62836   2.14351   2.17857   1.36872 </text>
<text x="300" y="110"  font-family="sans-serif" font-size="20" > Ending vector  -76.58260 -42.44548 -87.15894 -77.25567 -49.72413 -97.17371 </text>
<text x="300" y="135"  font-family="sans-serif" font-size="20" > Ending cell   14.38263  14.61046  14.70380   1.93530   1.77288   1.99849 </text>

<text x="300" y="160"  font-family="sans-serif" font-size="20" > Glitch  -111.39491 -106.24641  -2.06513 -104.68200 -95.66864 -38.15170  (58.9791 )</text>
<text x="300" y="185"  font-family="sans-serif" font-size="20" > Glitch  -111.93048 -107.22796  -0.75599 -105.10395 -96.37548 -37.24367  (61.0218)</text>



 <!--DISTANCE PLOT BEGINS-->


<!-- the following will scale and place the distance plot -->
<g  transform="translate(0,50) ">
<g transform="translate(150,700) scale(1 -1)">
   <polyline fill="none" stroke="black" stroke-width="10" points=" 5.2 ,0  10.4 ,15.6093  15.6 ,31.2187  20.8 ,46.828  26 ,62.4374  31.2 ,78.0467  36.4 ,93.6561  41.6 ,109.265  46.8 ,124.875  52 ,140.484  57.2 ,156.093  62.4 ,171.703  67.6 ,187.312  72.8 ,202.921  78 ,218.531  83.2 ,234.14  88.4 ,249.75  93.6 ,265.359  98.8 ,280.968  104 ,296.578  109.2 ,312.187  114.4 ,327.796  119.6 ,343.133  124.8 ,358.051  130 ,373.026  135.2 ,388.051  140.4 ,403.12  145.6 ,418.229  150.8 ,433.374  156 ,448.55  161.2 ,463.755  166.4 ,478.986  171.6 ,494.241  176.8 ,494.65  182 ,479.708  187.2 ,464.827  192.4 ,450.013  197.6 ,435.272  202.8 ,420.613  208 ,406.044  213.2 ,391.575  218.4 ,377.217  223.6 ,362.985  228.8 ,348.893  234 ,334.958  239.2 ,321.203  244.4 ,307.649  249.6 ,294.326  254.8 ,281.266  260 ,268.508  265.2 ,256.097  270.4 ,244.084  275.6 ,232.534  280.8 ,221.516  286 ,211.116  291.2 ,201.429  296.4 ,192.562  301.6 ,184.634  306.8 ,177.77  312 ,172.097  317.2 ,167.738  322.4 ,164.794  327.6 ,163.345  332.8 ,163.428  338 ,165.042  343.2 ,168.143  348.4 ,172.65  353.6 ,178.458  358.8 ,185.443  364 ,193.479  369.2 ,202.44  374.4 ,212.21  379.6 ,222.681  384.8 ,233.76  390 ,245.364  395.2 ,257.422  400.4 ,268.812  405.6 ,257.406  410.8 ,246.494  416 ,235.949  421.2 ,225.684  426.4 ,216.097  431.6 ,207.282  436.8 ,199.339  442 ,192.249  447.2 ,186.125  452.4 ,181.185  457.6 ,177.529  462.8 ,174.439  468 ,158.581  473.2 ,142.723  478.4 ,126.865  483.6 ,111.006  488.8 ,95.1484  494 ,79.2904  499.2 ,63.4323  504.4 ,47.5742  509.6 ,31.7161  514.8 ,15.8581  520 ,5.61059e-05  " />

<!--Draw the X and Y axes -->
<polyline fill="none" stroke="black" stroke-width="6"  points=" 600,0 0,0 0,520" />
<!-- -->

<line fill="none" stroke-width="3" boundary-string=""  stroke="lightblue" x1="0" y1="5.5299e-13" x2="5.2" y2="5.5299e-13" />
<line fill="none" stroke-width="3" boundary-string=""  stroke="lightblue" x1="5.2" y1="5.5299e-13" x2="10.4" y2="10.0433" />
<line fill="none" stroke-width="3" boundary-string=""  stroke="lightblue" x1="10.4" y1="10.0433" x2="15.6" y2="20.0865" />
<line fill="none" stroke-width="3" boundary-string=""  stroke="lightblue" x1="15.6" y1="20.0865" x2="20.8" y2="30.1298" />
<line fill="none" stroke-width="3" boundary-string=""  stroke="lightblue" x1="20.8" y1="30.1298" x2="26" y2="40.1731" />
<line fill="none" stroke-width="3" boundary-string=""  stroke="lightblue" x1="26" y1="40.1731" x2="31.2" y2="50.2164" />
<line fill="none" stroke-width="3" boundary-string=""  stroke="lightblue" x1="31.2" y1="50.2164" x2="36.4" y2="60.2596" />
<line fill="none" stroke-width="3" boundary-string=""  stroke="lightblue" x1="36.4" y1="60.2596" x2="41.6" y2="70.3029" />
<line fill="none" stroke-width="3" boundary-string=""  stroke="lightblue" x1="41.6" y1="70.3029" x2="46.8" y2="80.3462" />
<line fill="none" stroke-width="3" boundary-string=""  stroke="lightblue" x1="46.8" y1="80.3462" x2="52" y2="90.3895" />
<line fill="none" stroke-width="3" boundary-string=""  stroke="lightblue" x1="52" y1="90.3895" x2="57.2" y2="100.433" />
<line fill="none" stroke-width="3" boundary-string=""  stroke="lightblue" x1="57.2" y1="100.433" x2="62.4" y2="110.476" />
<line fill="none" stroke-width="3" boundary-string=""  stroke="lightblue" x1="62.4" y1="110.476" x2="67.6" y2="120.519" />
<line fill="none" stroke-width="3" boundary-string=""  stroke="lightblue" x1="67.6" y1="120.519" x2="72.8" y2="130.563" />
<line fill="none" stroke-width="3" boundary-string=""  stroke="lightblue" x1="72.8" y1="130.563" x2="78" y2="140.606" />
<line fill="none" stroke-width="3" boundary-string=""  stroke="lightblue" x1="78" y1="140.606" x2="83.2" y2="150.649" />
<line fill="none" stroke-width="3" boundary-string=""  stroke="lightblue" x1="83.2" y1="150.649" x2="88.4" y2="160.692" />
<line fill="none" stroke-width="3" boundary-string=""  stroke="lightblue" x1="88.4" y1="160.692" x2="93.6" y2="170.736" />
<line fill="none" stroke-width="3" boundary-string=""  stroke="lightblue" x1="93.6" y1="170.736" x2="98.8" y2="180.779" />
<line fill="none" stroke-width="3" boundary-string=""  stroke="lightblue" x1="98.8" y1="180.779" x2="104" y2="190.822" />
<line fill="none" stroke-width="3" boundary-string=""  stroke="lightblue" x1="104" y1="190.822" x2="109.2" y2="200.865" />
<line fill="none" stroke-width="3" boundary-string=""  stroke="lightblue" x1="109.2" y1="200.865" x2="114.4" y2="210.909" />
<line fill="none" stroke-width="3" boundary-string=""  stroke="lightblue" x1="114.4" y1="210.909" x2="119.6" y2="220.74" />
<line fill="none" stroke-width="3" boundary-string=""  stroke="lightblue" x1="119.6" y1="220.74" x2="124.8" y2="230.246" />
<line fill="none" stroke-width="3" boundary-string=""  stroke="lightblue" x1="124.8" y1="230.246" x2="130" y2="239.796" />
<line fill="none" stroke-width="3" boundary-string=""  stroke="lightblue" x1="130" y1="239.796" x2="135.2" y2="249.385" />
<line fill="none" stroke-width="3" boundary-string=""  stroke="lightblue" x1="135.2" y1="249.385" x2="140.4" y2="259.008" />
<line fill="none" stroke-width="3" boundary-string=""  stroke="lightblue" x1="140.4" y1="259.008" x2="145.6" y2="268.662" />
<line fill="none" stroke-width="3" boundary-string=""  stroke="lightblue" x1="145.6" y1="268.662" x2="150.8" y2="278.343" />
<line fill="none" stroke-width="3" boundary-string=""  stroke="lightblue" x1="150.8" y1="278.343" x2="156" y2="288.049" />
<line fill="none" stroke-width="3" boundary-string=""  stroke="lightblue" x1="156" y1="288.049" x2="161.2" y2="297.778" />
<line fill="none" stroke-width="3" boundary-string=""  stroke="lightblue" x1="161.2" y1="297.778" x2="166.4" y2="307.527" />
<line fill="none" stroke-width="3" boundary-string=""  stroke="lightblue" x1="166.4" y1="307.527" x2="171.6" y2="317.294" />
<line fill="none" stroke-width="3" boundary-string=""  stroke="lightblue" x1="171.6" y1="317.294" x2="176.8" y2="317.313" />
<line fill="none" stroke-width="3" boundary-string=""  stroke="lightblue" x1="176.8" y1="317.313" x2="182" y2="306.691" />
<line fill="none" stroke-width="3" boundary-string=""  stroke="lightblue" x1="182" y1="306.691" x2="187.2" y2="296.096" />
<line fill="none" stroke-width="3" boundary-string=""  stroke="lightblue" x1="187.2" y1="296.096" x2="192.4" y2="285.531" />
<line fill="none" stroke-width="3" boundary-string=""  stroke="lightblue" x1="192.4" y1="285.531" x2="197.6" y2="274.999" />
<line fill="none" stroke-width="3" boundary-string=""  stroke="lightblue" x1="197.6" y1="274.999" x2="202.8" y2="264.504" />
<line fill="none" stroke-width="3" boundary-string=""  stroke="lightblue" x1="202.8" y1="264.504" x2="208" y2="254.051" />
<line fill="none" stroke-width="3" boundary-string=""  stroke="lightblue" x1="208" y1="254.051" x2="213.2" y2="243.645" />
<line fill="none" stroke-width="3" boundary-string=""  stroke="lightblue" x1="213.2" y1="243.645" x2="218.4" y2="233.293" />
<line fill="none" stroke-width="3" boundary-string=""  stroke="lightblue" x1="218.4" y1="233.293" x2="223.6" y2="223.002" />
<line fill="none" stroke-width="3" boundary-string=""  stroke="lightblue" x1="223.6" y1="223.002" x2="228.8" y2="212.781" />
<line fill="none" stroke-width="3" boundary-string=""  stroke="lightblue" x1="228.8" y1="212.781" x2="234" y2="202.64" />
<line fill="none" stroke-width="3" boundary-string=""  stroke="lightblue" x1="234" y1="202.64" x2="239.2" y2="192.592" />
<line fill="none" stroke-width="3" boundary-string=""  stroke="lightblue" x1="239.2" y1="192.592" x2="244.4" y2="182.652" />
<line fill="none" stroke-width="3" boundary-string=""  stroke="lightblue" x1="244.4" y1="182.652" x2="249.6" y2="172.84" />
<line fill="none" stroke-width="3" boundary-string=""  stroke="lightblue" x1="249.6" y1="172.84" x2="254.8" y2="163.178" />
<line fill="none" stroke-width="3" boundary-string=""  stroke="lightblue" x1="254.8" y1="163.178" x2="260" y2="153.695" />
<line fill="none" stroke-width="3" boundary-string=""  stroke="lightblue" x1="260" y1="153.695" x2="265.2" y2="144.425" />
<line fill="none" stroke-width="3" boundary-string=""  stroke="lightblue" x1="265.2" y1="144.425" x2="270.4" y2="135.413" />
<line fill="none" stroke-width="3" boundary-string=""  stroke="lightblue" x1="270.4" y1="135.413" x2="275.6" y2="126.713" />
<line fill="none" stroke-width="3" boundary-string=""  stroke="lightblue" x1="275.6" y1="126.713" x2="280.8" y2="118.394" />
<line fill="none" stroke-width="3" boundary-string=""  stroke="lightblue" x1="280.8" y1="118.394" x2="286" y2="110.543" />
<line fill="none" stroke-width="3" boundary-string=""  stroke="lightblue" x1="286" y1="110.543" x2="291.2" y2="103.267" />
<line fill="none" stroke-width="3" boundary-string=""  stroke="lightblue" x1="291.2" y1="103.267" x2="296.4" y2="96.6937" />
<line fill="none" stroke-width="3" boundary-string=""  stroke="lightblue" x1="296.4" y1="96.6937" x2="301.6" y2="90.9775" />
<line fill="none" stroke-width="3" boundary-string=""  stroke="lightblue" x1="301.6" y1="90.9775" x2="306.8" y2="86.2883" />
<line fill="none" stroke-width="3" boundary-string=""  stroke="lightblue" x1="306.8" y1="86.2883" x2="312" y2="82.8009" />
<line fill="none" stroke-width="3" boundary-string=""  stroke="lightblue" x1="312" y1="82.8009" x2="317.2" y2="80.6711" />
<line fill="none" stroke-width="3" boundary-string=""  stroke="lightblue" x1="317.2" y1="80.6711" x2="322.4" y2="80.0076" />
<line fill="none" stroke-width="3" boundary-string=""  stroke="lightblue" x1="322.4" y1="80.0076" x2="327.6" y2="80.8463" />
<line fill="none" stroke-width="3" boundary-string=""  stroke="lightblue" x1="327.6" y1="80.8463" x2="332.8" y2="83.142" />
<line fill="none" stroke-width="3" boundary-string=""  stroke="lightblue" x1="332.8" y1="83.142" x2="338" y2="86.7789" />
<line fill="none" stroke-width="3" boundary-string=""  stroke="lightblue" x1="338" y1="86.7789" x2="343.2" y2="91.5975" />
<line fill="none" stroke-width="3" boundary-string=""  stroke="lightblue" x1="343.2" y1="91.5975" x2="348.4" y2="97.4227" />
<line fill="none" stroke-width="3" boundary-string=""  stroke="lightblue" x1="348.4" y1="97.4227" x2="353.6" y2="104.085" />
<line fill="none" stroke-width="3" boundary-string=""  stroke="lightblue" x1="353.6" y1="104.085" x2="358.8" y2="111.436" />
<line fill="none" stroke-width="3" boundary-string=""  stroke="lightblue" x1="358.8" y1="111.436" x2="364" y2="119.347" />
<line fill="none" stroke-width="3" boundary-string=""  stroke="lightblue" x1="364" y1="119.347" x2="369.2" y2="127.714" />
<line fill="none" stroke-width="3" boundary-string=""  stroke="lightblue" x1="369.2" y1="127.714" x2="374.4" y2="136.454" />
<line fill="none" stroke-width="3" boundary-string=""  stroke="lightblue" x1="374.4" y1="136.454" x2="379.6" y2="145.499" />
<line fill="none" stroke-width="3" boundary-string=""  stroke="lightblue" x1="379.6" y1="145.499" x2="384.8" y2="154.796" />
<line fill="none" stroke-width="3" boundary-string=""  stroke="lightblue" x1="384.8" y1="154.796" x2="390" y2="164.302" />
<line fill="none" stroke-width="3" boundary-string=""  stroke="lightblue" x1="390" y1="164.302" x2="395.2" y2="173.983" />
<line fill="none" stroke-width="3" boundary-string=""  stroke="lightblue" x1="395.2" y1="173.983" x2="400.4" y2="183.031" />
<line fill="none" stroke-width="3" boundary-string=""  stroke="lightblue" x1="400.4" y1="183.031" x2="405.6" y2="175.281" />
<line fill="none" stroke-width="3" boundary-string=""  stroke="lightblue" x1="405.6" y1="175.281" x2="410.8" y2="167.892" />
<line fill="none" stroke-width="3" boundary-string=""  stroke="lightblue" x1="410.8" y1="167.892" x2="416" y2="160.772" />
<line fill="none" stroke-width="3" boundary-string=""  stroke="lightblue" x1="416" y1="160.772" x2="421.2" y2="153.858" />
<line fill="none" stroke-width="3" boundary-string=""  stroke="lightblue" x1="421.2" y1="153.858" x2="426.4" y2="147.44" />
<line fill="none" stroke-width="3" boundary-string=""  stroke="lightblue" x1="426.4" y1="147.44" x2="431.6" y2="141.585" />
<line fill="none" stroke-width="3" boundary-string=""  stroke="lightblue" x1="431.6" y1="141.585" x2="436.8" y2="136.366" />
<line fill="none" stroke-width="3" boundary-string=""  stroke="lightblue" x1="436.8" y1="136.366" x2="442" y2="131.763" />
<line fill="none" stroke-width="3" boundary-string=""  stroke="lightblue" x1="442" y1="131.763" x2="447.2" y2="127.855" />
<line fill="none" stroke-width="3" boundary-string=""  stroke="lightblue" x1="447.2" y1="127.855" x2="452.4" y2="124.796" />
<line fill="none" stroke-width="3" boundary-string=""  stroke="lightblue" x1="452.4" y1="124.796" x2="457.6" y2="122.648" />
<line fill="none" stroke-width="3" boundary-string=""  stroke="lightblue" x1="457.6" y1="122.648" x2="462.8" y2="120.884" />
<line fill="none" stroke-width="3" boundary-string=""  stroke="lightblue" x1="462.8" y1="120.884" x2="468" y2="109.895" />
<line fill="none" stroke-width="3" boundary-string=""  stroke="lightblue" x1="468" y1="109.895" x2="473.2" y2="98.9053" />
<line fill="none" stroke-width="3" boundary-string=""  stroke="lightblue" x1="473.2" y1="98.9053" x2="478.4" y2="87.9159" />
<line fill="none" stroke-width="3" boundary-string=""  stroke="lightblue" x1="478.4" y1="87.9159" x2="483.6" y2="76.9264" />
<line fill="none" stroke-width="3" boundary-string=""  stroke="lightblue" x1="483.6" y1="76.9264" x2="488.8" y2="65.9369" />
<line fill="none" stroke-width="3" boundary-string=""  stroke="lightblue" x1="488.8" y1="65.9369" x2="494" y2="54.9474" />
<line fill="none" stroke-width="3" boundary-string=""  stroke="lightblue" x1="494" y1="54.9474" x2="499.2" y2="43.9579" />
<line fill="none" stroke-width="3" boundary-string=""  stroke="lightblue" x1="499.2" y1="43.9579" x2="504.4" y2="32.9684" />
<line fill="none" stroke-width="3" boundary-string=""  stroke="lightblue" x1="504.4" y1="32.9684" x2="509.6" y2="21.979" />
<line fill="none" stroke-width="3" boundary-string=""  stroke="lightblue" x1="509.6" y1="21.979" x2="514.8" y2="10.9895" />
<line fill="none" stroke-width="3" boundary-string=""  stroke="lightblue" x1="514.8" y1="10.9895" x2="520" y2="0" />

<!--Draw the X and Y axes -->
<polyline fill="none" stroke="black" stroke-width="6"  points=" 600,0 0,0 0,520" />
<!-- -->


<!--Draw labels and tics for X axis -->

<line fill="none" stroke="black"  stroke-width="6"  x1="0.5" y1="0" x2="0.5" y2="-20" />
<text transform="scale(1,-1)" font-family="sans-serif" font-size="30" x="-24.5" y="45" >0 </text>
<line fill="none" stroke="black"  stroke-width="6"  x1="104.5" y1="0" x2="104.5" y2="-20" />
<text transform="scale(1,-1)" font-family="sans-serif" font-size="30" x="79.5" y="45" >20 </text>
<line fill="none" stroke="black"  stroke-width="6"  x1="208.5" y1="0" x2="208.5" y2="-20" />
<text transform="scale(1,-1)" font-family="sans-serif" font-size="30" x="183.5" y="45" >40 </text>
<line fill="none" stroke="black"  stroke-width="6"  x1="312.5" y1="0" x2="312.5" y2="-20" />
<text transform="scale(1,-1)" font-family="sans-serif" font-size="30" x="287.5" y="45" >60 </text>
<line fill="none" stroke="black"  stroke-width="6"  x1="416.5" y1="0" x2="416.5" y2="-20" />
<text transform="scale(1,-1)" font-family="sans-serif" font-size="30" x="391.5" y="45" >80 </text>
<line fill="none" stroke="black"  stroke-width="6"  x1="520.5" y1="0" x2="520.5" y2="-20" />
<text transform="scale(1,-1)" font-family="sans-serif" font-size="30" x="495.5" y="45" >100 </text>


<!--Draw labels and tics for Y axis -->

<line fill="none" stroke="black" stroke-width="6" x1="0.0" y1="0" x2="-20" y2="0" />
<text transform="scale(1,-1)" text-anchor="end" font-family="sans-serif" font-size="30" x="-25" y="10" >0 </text>
<line fill="none" stroke="black" stroke-width="6" x1="0.0" y1="104" x2="-20" y2="104" />
<text transform="scale(1,-1)" text-anchor="end" font-family="sans-serif" font-size="30" x="-25" y="-94" >20 </text>
<line fill="none" stroke="black" stroke-width="6" x1="0.0" y1="208" x2="-20" y2="208" />
<text transform="scale(1,-1)" text-anchor="end" font-family="sans-serif" font-size="30" x="-25" y="-198" >40 </text>
<line fill="none" stroke="black" stroke-width="6" x1="0.0" y1="312" x2="-20" y2="312" />
<text transform="scale(1,-1)" text-anchor="end" font-family="sans-serif" font-size="30" x="-25" y="-302" >60 </text>
<line fill="none" stroke="black" stroke-width="6" x1="0.0" y1="416" x2="-20" y2="416" />
<text transform="scale(1,-1)" text-anchor="end" font-family="sans-serif" font-size="30" x="-25" y="-406" >80 </text>
<line fill="none" stroke="black" stroke-width="6" x1="0.0" y1="520" x2="-20" y2="520" />
<text transform="scale(1,-1)" text-anchor="end" font-family="sans-serif" font-size="30" x="-25" y="-510" >100 </text>


<!--Draw Glitches -->

<line fill="none" stroke="black" stroke-width="2" x1="176.8" y1="306.691" x2="176.8" y2="256.691" />
<text transform="scale(1,-1)" font-family="sans-serif" font-size="30" x="181.8" y="-246.691" >34 </text>
<line fill="none" stroke="black" stroke-width="2" x1="332.8" y1="86.7789" x2="332.8" y2="36.7789" />
<text transform="scale(1,-1)" font-family="sans-serif" font-size="30" x="337.8" y="-26.7789" >64 </text>
<line fill="none" stroke="black" stroke-width="2" x1="462.8" y1="109.895" x2="462.8" y2="59.8948" />
<text transform="scale(1,-1)" font-family="sans-serif" font-size="30" x="467.8" y="-49.8948" >89 </text>

<!-- -->


<!-- Reduced vector followed by D7dist from the final reduced cell
-76.58260 -42.44548 -87.15894 -77.25567 -49.72413 -97.17371    (1.06344e-13,  0)   
-77.46979 -41.13635 -87.93251 -77.85797 -49.32303 -97.50130    (1.9314,  3.0018)   
-78.35698 -39.82721 -88.70607 -78.46027 -48.92192 -97.82888    (3.8628,  6.00359)   
-79.24418 -89.47963 -38.51808 -79.06256 -98.15646 -48.52082    (5.7942,  9.00539)   
-80.13137 -90.25319 -37.20894 -79.66486 -98.48405 -48.11971    (7.72559,  12.0072)   
-81.01856 -91.02675 -35.89980 -80.26716 -98.81163 -47.71861    (9.65699,  15.009)   
-81.90575 -91.80031 -34.59067 -80.86945 -99.13921 -47.31750    (11.5884,  18.0108)   
-82.79294 -92.57388 -33.28153 -81.47175 -99.46679 -46.91640    (13.5198,  21.0126)   
-83.68014 -93.34744 -31.97240 -82.07405 -99.79438 -46.51529    (15.4512,  24.0144)   
-84.56733 -94.12100 -30.66326 -82.67635 -100.12196 -46.11419    (17.3826,  27.0162)   
-85.45452 -94.89456 -29.35413 -83.27864 -100.44954 -45.71309    (19.314,  30.018)   
-86.34171 -95.66812 -28.04499 -83.88094 -100.77713 -45.31198    (21.2454,  33.0198)   
-87.22891 -96.44168 -26.73586 -84.48324 -101.10471 -44.91088    (23.1768,  36.0216)   
-88.11610 -97.21525 -25.42672 -85.08553 -101.43229 -44.50977    (25.1082,  39.0234)   
-89.00329 -97.98881 -24.11758 -85.68783 -101.75987 -44.10867    (27.0396,  42.0252)   
-102.08746 -86.29013 -22.80845 -98.76237 -89.89048 -43.70756    (28.971,  45.027)   
-102.41504 -86.89242 -21.49931 -99.53593 -90.77767 -43.30646    (30.9024,  48.0288)   
-102.74262 -87.49472 -20.19018 -100.30949 -91.66487 -42.90535    (32.8338,  51.0306)   
-103.07021 -88.09702 -18.88104 -101.08305 -92.55206 -42.50425    (34.7652,  54.0323)   
-103.39779 -88.69932 -17.57191 -101.85662 -93.43925 -42.10314    (36.6966,  57.0341)   
-103.72537 -89.30161 -16.26277 -102.63018 -94.32644 -41.70204    (38.628,  60.0359)   
-104.05296 -89.90391 -14.95363 -103.40374 -95.21363 -41.30093    (40.5594,  63.0377)   
-104.38054 -90.50621 -13.64450 -104.17730 -96.10083 -40.89983    (42.45,  65.9871)   
-104.70812 -91.10850 -12.33536 -104.95086 -96.98802 -40.49872    (44.2781,  68.856)   
-105.03570 -91.71080 -11.02623 -105.72442 -97.87521 -40.09762    (46.1146,  71.7358)   
-105.36329 -92.31310  -9.71709 -106.49798 -98.76240 -39.69652    (47.9586,  74.6252)   
-105.69087 -92.91539  -8.40796 -107.27155 -99.64959 -39.29541    (49.8092,  77.5232)   
-106.01845 -93.51769  -7.09882 -108.04511 -100.53679 -38.89431    (51.6657,  80.4287)   
-106.34604 -94.11999  -5.78969 -108.81867 -101.42398 -38.49320    (53.5275,  83.3411)   
-106.67362 -94.72229  -4.48055 -109.59223 -102.31117 -38.09210    (55.3941,  86.2596)   
-107.00120 -95.32458  -3.17141 -110.36579 -103.19836 -37.69099    (57.265,  89.1837)   
-107.32879 -95.92688  -1.86228 -111.13935 -104.08555 -37.28989    (59.1398,  92.1127)   
-107.65637 -96.52918  -0.55314 -111.91292 -104.97275 -36.88878    (61.0181,  95.0463)   
-105.10395 -96.37548  -0.75599 -111.93048 -107.22796 -37.24367    (61.0218,  95.1249)   
-104.68200 -95.66864  -2.06513 -111.39491 -106.24641 -38.15170    (58.9791,  92.2515)   
-104.26006 -94.96180  -3.37426 -110.85934 -105.26485 -39.05973    (56.9416,  89.3898)   
-103.83812 -94.25496  -4.68340 -110.32376 -104.28330 -39.96776    (54.9098,  86.5409)   
-103.41617 -93.54813  -5.99254 -109.78819 -103.30175 -40.87579    (52.8844,  83.7062)   
-102.99423 -92.84129  -7.30167 -109.25261 -102.32019 -41.78383    (50.8662,  80.8871)   
-102.57228 -92.13445  -8.61081 -108.71704 -101.33864 -42.69186    (48.856,  78.0853)   
-102.15034 -91.42761  -9.91994 -108.18147 -100.35709 -43.59989    (46.8549,  75.3028)   
-101.72840 -90.72077 -11.22908 -107.64589 -99.37554 -44.50792    (44.8641,  72.5418)   
-101.30645 -90.01393 -12.53821 -107.11032 -98.39398 -45.41595    (42.885,  69.8048)   
-100.88451 -89.30709 -13.84735 -106.57474 -97.41243 -46.32398    (40.9193,  67.0947)   
-100.46257 -88.60026 -15.15648 -106.03917 -96.43088 -47.23201    (38.9692,  64.4151)   
-100.04062 -87.89342 -16.46562 -105.50360 -95.44933 -48.14004    (37.0369,  61.7697)   
-99.61868 -87.18658 -17.77476 -104.96802 -94.46777 -49.04807    (35.1255,  59.1633)   
-99.19674 -86.47974 -19.08389 -104.43245 -93.48622 -49.95610    (33.2385,  56.6012)   
-98.77479 -85.77290 -20.39303 -103.89687 -92.50467 -50.86414    (31.3805,  54.0897)   
-98.35285 -85.06606 -21.70216 -103.36130 -91.52312 -51.77217    (29.5567,  51.6362)   
-97.93091 -84.35922 -23.01130 -102.82573 -90.54156 -52.68020    (27.774,  49.2493)   
-97.50896 -83.65239 -24.32043 -102.29015 -89.56001 -53.58823    (26.0409,  46.9393)   
-97.08702 -82.94555 -25.62957 -101.75458 -88.57846 -54.49626    (24.3678,  44.718)   
-96.66507 -82.23871 -26.93871 -101.21900 -87.59691 -55.40429    (22.7681,  42.5993)   
-96.24313 -81.53187 -28.24784 -100.68343 -86.61535 -56.31232    (21.2583,  40.5993)   
-95.82119 -80.82503 -29.55698 -100.14786 -85.63380 -57.22035    (19.859,  38.7364)   
-95.39924 -80.11819 -30.86611 -99.61228 -84.65225 -58.12838    (18.5949,  37.0312)   
-94.97730 -79.41135 -32.17525 -99.07671 -83.67069 -59.03641    (17.4957,  35.5065)   
-78.70452 -94.55536 -33.48438 -82.68914 -98.54113 -59.94444    (16.5939,  34.1865)   
-77.99768 -94.13341 -34.79352 -81.70759 -98.00556 -60.85248    (15.9232,  33.0957)   
-77.29084 -93.71147 -36.10266 -80.72604 -97.46999 -61.76051    (15.5137,  32.2572)   
-76.58400 -93.28953 -37.41179 -79.74448 -96.93441 -62.66854    (15.3861,  31.6912)   
-75.87716 -92.86758 -38.72093 -78.76293 -96.39884 -63.57657    (15.5474,  31.4124)   
-75.17032 -92.44564 -40.03006 -77.78138 -95.86326 -64.48460    (15.9888,  31.4284)   
-74.46348 -92.02370 -41.33920 -76.79983 -95.32769 -65.39263    (16.6883,  31.7388)   
-73.75665 -91.60175 -42.64833 -75.81827 -94.79212 -66.30066    (17.6149,  32.3352)   
-73.04981 -91.17981 -43.95747 -74.83672 -94.25654 -67.20869    (18.7351,  33.202)   
-72.34297 -90.75787 -45.26660 -73.85517 -93.72097 -68.11672    (20.0164,  34.3188)   
-71.63613 -90.33592 -46.57574 -72.87362 -93.18539 -69.02475    (21.43,  35.6621)   
-70.92929 -89.91398 -47.88488 -71.89206 -92.64982 -69.93278    (22.9513,  37.2075)   
-70.22245 -89.49203 -49.19401 -70.91051 -92.11425 -70.84082    (24.5604,  38.9308)   
-69.51561 -89.07009 -50.50315 -69.92896 -91.57867 -71.74885    (26.2411,  40.8095)   
-68.80877 -88.64815 -51.81228 -68.94740 -91.04310 -72.65688    (27.9805,  42.8232)   
-68.10194 -88.22620 -53.12142 -67.96585 -90.50752 -73.56491    (29.7684,  44.9538)   
-67.39510 -87.80426 -54.43055 -66.98430 -89.97195 -74.47294    (31.5965,  47.1853)   
-66.68826 -87.38232 -55.73969 -66.00275 -89.43638 -75.38097    (33.4582,  49.5042)   
-65.98142 -86.96037 -57.04883 -65.02119 -88.90080 -76.28900    (35.1983,  51.6946)   
-65.27458 -86.53843 -58.35796 -64.03964 -88.36523 -77.19703    (33.7078,  49.5012)   
-64.56774 -86.11649 -59.66710 -63.05809 -87.82965 -78.10506    (32.2869,  47.4027)   
-87.29408 -62.07654 -60.97623 -85.69454 -63.86090 -79.01309    (30.9177,  45.3747)   
-86.75851 -61.09498 -62.28537 -85.27260 -63.15407 -79.92113    (29.5881,  43.4008)   
-86.22293 -60.11343 -63.59450 -84.85066 -62.44723 -80.82916    (28.3539,  41.5572)   
-85.68736 -59.13188 -64.90364 -84.42871 -61.74039 -81.73719    (27.2279,  39.8618)   
-85.15178 -58.15033 -66.21277 -84.00677 -61.03355 -82.64522    (26.2242,  38.3345)   
-84.61621 -57.16877 -67.52191 -83.58483 -60.32671 -83.55325    (25.3391,  36.971)   
-84.08064 -56.18722 -68.83105 -83.16288 -59.61987 -84.46128    (24.5876,  35.7932)   
-83.54506 -55.20567 -70.14018 -82.74094 -58.91303 -85.36931    (23.9992,  34.8432)   
-83.00949 -54.22411 -71.44932 -82.31899 -58.20620 -86.27734    (23.5861,  34.1401)   
-82.47391 -53.24256 -72.75845 -81.89705 -57.49936 -87.18537    (23.247,  33.5459)   
-81.93834 -52.26101 -74.06759 -81.47511 -56.79252 -88.09340    (21.1336,  30.4963)   
-81.40277 -51.27946 -75.37672 -81.05316 -56.08568 -89.00143    (19.0203,  27.4467)   
-80.86719 -50.29790 -76.68586 -80.63122 -55.37884 -89.90947    (16.9069,  24.397)   
-80.33162 -49.31635 -77.99500 -80.20928 -54.67200 -90.81750    (14.7935,  21.3474)   
-79.79604 -48.33480 -79.30413 -79.78733 -53.96516 -91.72553    (12.6802,  18.2978)   
-79.26047 -47.35325 -80.61327 -79.36539 -53.25833 -92.63356    (10.5668,  15.2481)   
-78.72490 -46.37169 -81.92240 -78.94345 -52.55149 -93.54159    (8.45345,  12.1985)   
-78.18932 -45.39014 -83.23154 -78.52150 -51.84465 -94.44962    (6.34009,  9.14889)   
-77.65375 -44.40859 -84.54067 -78.09956 -51.13781 -95.35765    (4.22672,  6.09926)   
-77.11817 -43.42704 -85.84981 -77.67762 -50.43097 -96.26568    (2.11336,  3.04963)   
-76.58260 -42.44548 -87.15894 -77.25567 -49.72413 -97.17371    (0,  1.07896e-05)   
-->
</g>
</g>
<!-- Run Constants
CIRCLEPLOT bool false
DISTANCEPLOT bool true
PRINTDISTANCEDATA bool true
GLITCHESONLY bool false
PLOT 2doubles 3 4
PERTURBBY double 0.05
GLITCHLEVEL double 3
BOUNDARYWINDOW double 0.065
FRAMESPERPATH int 200
STEPSPERFRAME int 100
TRIALS int 1
ALLBLACK bool false
FILEPREFIX string Fol
GRAPHSIZE int 0
BORDER int 0
PLOTSIZE int 0
CIRCLEPLOTSIZE int 2000
CIRCLERADIUS int 300
CIRCLESTROKEWIDTH int 30
G6LINEWIDTH int 3
DELONELINEWIDTH int 10
AXISWIDTH int 6
TICLENGTH int 20
VECTOR g6 
PERTURB g6Perturb 
MOVIEMODE MovieMode STAR
FOLLOWERMODE FollowerMode Follow
FIXRANDOMSEED fixRandomSeed true
RANDOMSEED int 18
TIMESTAMP bool true
END end 




-->
</svg>
