<?xml version="1.0" standalone="no"?>
<!-- the width and height set the total pixel output of the image in the browser -->
<!-- whatever is within the viewbox will be remapped to show in this size -->
<svg width="1000" height="1000" viewBox="1 0 1000 1000"  version="1.1" xmlns="http://www.w3.org/2000/svg" xmlns:xlink="http://www.w3.org/1999/xlink">
 <desc>ID (and file name) = Fol_2018-02-06.13_10_34.7_0.svg </desc> 
 <text x="280"  y="30"  font-family="sans-serif" font-size="20" > Trial vector = 0  </text> 
 <text x="700" y="30" font-family="sans-serif" font-size="20">Wall time passed: 30720 msec.</text>
<text x="450" y="30" font-family="sans-serif" font-size="20" fill="black" > Plotting g5 vs. g4</text>
<text x="300" y="60"  font-family="sans-serif" font-size="20" > Beginning vector   78.45912 -148.28516 -169.37910  82.71920 -97.71874 -107.06458 </text>
<text x="300" y="85"  font-family="sans-serif" font-size="20" > Beginning cell   15.32792  13.73458  13.30002   1.12684   2.38529   2.50574 </text>
<text x="300" y="110"  font-family="sans-serif" font-size="20" > Ending vector  -24.34538 -14.99954  -4.26008 -65.56597 -86.65990 -82.71920 </text>
<text x="300" y="135"  font-family="sans-serif" font-size="20" > Ending cell    9.21008  10.73617  11.04826   1.77751   1.71874   1.61389 </text>

<text x="300" y="160"  font-family="sans-serif" font-size="20" > Glitch   -0.46150 -45.96489 -42.62106 -31.11588 -89.22913 -88.37520  (58.7436 )</text>
<text x="300" y="185"  font-family="sans-serif" font-size="20" > Glitch    0.57692 -47.31121 -44.28893 -29.61805 -89.34083 -88.62111  (66.1704)</text>



 <!--DISTANCE PLOT BEGINS-->


<!-- the following will scale and place the distance plot -->
<g  transform="translate(0,50) ">
<g transform="translate(150,700) scale(1 -1)">
   <polyline fill="none" stroke="black" stroke-width="10" points=" 5.2 ,0  10.4 ,16.9572  15.6 ,33.9145  20.8 ,50.8717  26 ,67.8289  31.2 ,84.7862  36.4 ,101.743  41.6 ,118.701  46.8 ,135.658  52 ,152.615  57.2 ,167.373  62.4 ,181.408  67.6 ,195.545  72.8 ,209.766  78 ,222.727  83.2 ,233.8  88.4 ,244.978  93.6 ,256.243  98.8 ,267.583  104 ,278.985  109.2 ,290.441  114.4 ,301.944  119.6 ,313.489  124.8 ,325.07  130 ,336.683  135.2 ,348.325  140.4 ,359.994  145.6 ,371.686  150.8 ,383.401  156 ,395.137  161.2 ,406.892  166.4 ,418.665  171.6 ,430.457  176.8 ,441.908  182 ,453.145  187.2 ,463.88  192.4 ,466.758  197.6 ,469.99  202.8 ,473.57  208 ,477.447  213.2 ,481.235  218.4 ,485.316  223.6 ,482.33  228.8 ,478.428  234 ,474.824  239.2 ,471.525  244.4 ,468.538  249.6 ,465.869  254.8 ,463.525  260 ,461.511  265.2 ,459.831  270.4 ,458.489  275.6 ,457.488  280.8 ,456.831  286 ,456.52  291.2 ,456.554  296.4 ,456.935  301.6 ,457.661  306.8 ,458.117  312 ,457.776  317.2 ,457.781  322.4 ,458.131  327.6 ,458.824  332.8 ,459.861  338 ,461.238  343.2 ,462.951  348.4 ,462.837  353.6 ,462.755  358.8 ,463.014  364 ,463.614  369.2 ,464.553  374.4 ,465.83  379.6 ,467.44  384.8 ,456.973  390 ,446.647  395.2 ,436.714  400.4 ,420.814  405.6 ,413.019  410.8 ,406.181  416 ,394.092  421.2 ,374.387  426.4 ,354.683  431.6 ,334.978  436.8 ,315.274  442 ,295.569  447.2 ,275.864  452.4 ,256.16  457.6 ,236.455  462.8 ,216.751  468 ,197.046  473.2 ,177.341  478.4 ,157.637  483.6 ,137.932  488.8 ,118.228  494 ,98.523  499.2 ,78.8184  504.4 ,59.1138  509.6 ,39.4092  514.8 ,19.7046  520 ,0  " />

<!--Draw the X and Y axes -->
<polyline fill="none" stroke="black" stroke-width="6"  points=" 600,0 0,0 0,520" />
<!-- -->

<line fill="none" stroke-width="3" boundary-string=""  stroke="lightblue" x1="0" y1="4.45612e-13" x2="5.2" y2="4.45612e-13" />
<line fill="none" stroke-width="3" boundary-string=""  stroke="lightblue" x1="5.2" y1="4.45612e-13" x2="10.4" y2="11.5746" />
<line fill="none" stroke-width="3" boundary-string=""  stroke="lightblue" x1="10.4" y1="11.5746" x2="15.6" y2="23.1493" />
<line fill="none" stroke-width="3" boundary-string=""  stroke="lightblue" x1="15.6" y1="23.1493" x2="20.8" y2="34.7239" />
<line fill="none" stroke-width="3" boundary-string=""  stroke="lightblue" x1="20.8" y1="34.7239" x2="26" y2="46.2985" />
<line fill="none" stroke-width="3" boundary-string=""  stroke="lightblue" x1="26" y1="46.2985" x2="31.2" y2="57.8731" />
<line fill="none" stroke-width="3" boundary-string=""  stroke="lightblue" x1="31.2" y1="57.8731" x2="36.4" y2="69.4478" />
<line fill="none" stroke-width="3" boundary-string=""  stroke="lightblue" x1="36.4" y1="69.4478" x2="41.6" y2="81.0224" />
<line fill="none" stroke-width="3" boundary-string=""  stroke="lightblue" x1="41.6" y1="81.0224" x2="46.8" y2="92.597" />
<line fill="none" stroke-width="3" boundary-string=""  stroke="lightblue" x1="46.8" y1="92.597" x2="52" y2="104.172" />
<line fill="none" stroke-width="3" boundary-string=""  stroke="lightblue" x1="52" y1="104.172" x2="57.2" y2="113.116" />
<line fill="none" stroke-width="3" boundary-string=""  stroke="lightblue" x1="57.2" y1="113.116" x2="62.4" y2="121.141" />
<line fill="none" stroke-width="3" boundary-string=""  stroke="lightblue" x1="62.4" y1="121.141" x2="67.6" y2="129.232" />
<line fill="none" stroke-width="3" boundary-string=""  stroke="lightblue" x1="67.6" y1="129.232" x2="72.8" y2="137.379" />
<line fill="none" stroke-width="3" boundary-string=""  stroke="lightblue" x1="72.8" y1="137.379" x2="78" y2="145.571" />
<line fill="none" stroke-width="3" boundary-string=""  stroke="lightblue" x1="78" y1="145.571" x2="83.2" y2="153.801" />
<line fill="none" stroke-width="3" boundary-string=""  stroke="lightblue" x1="83.2" y1="153.801" x2="88.4" y2="162.065" />
<line fill="none" stroke-width="3" boundary-string=""  stroke="lightblue" x1="88.4" y1="162.065" x2="93.6" y2="170.355" />
<line fill="none" stroke-width="3" boundary-string=""  stroke="lightblue" x1="93.6" y1="170.355" x2="98.8" y2="178.67" />
<line fill="none" stroke-width="3" boundary-string=""  stroke="lightblue" x1="98.8" y1="178.67" x2="104" y2="187.006" />
<line fill="none" stroke-width="3" boundary-string=""  stroke="lightblue" x1="104" y1="187.006" x2="109.2" y2="195.36" />
<line fill="none" stroke-width="3" boundary-string=""  stroke="lightblue" x1="109.2" y1="195.36" x2="114.4" y2="203.729" />
<line fill="none" stroke-width="3" boundary-string=""  stroke="lightblue" x1="114.4" y1="203.729" x2="119.6" y2="212.113" />
<line fill="none" stroke-width="3" boundary-string=""  stroke="lightblue" x1="119.6" y1="212.113" x2="124.8" y2="220.508" />
<line fill="none" stroke-width="3" boundary-string=""  stroke="lightblue" x1="124.8" y1="220.508" x2="130" y2="228.915" />
<line fill="none" stroke-width="3" boundary-string=""  stroke="lightblue" x1="130" y1="228.915" x2="135.2" y2="237.332" />
<line fill="none" stroke-width="3" boundary-string=""  stroke="lightblue" x1="135.2" y1="237.332" x2="140.4" y2="245.758" />
<line fill="none" stroke-width="3" boundary-string=""  stroke="lightblue" x1="140.4" y1="245.758" x2="145.6" y2="254.191" />
<line fill="none" stroke-width="3" boundary-string=""  stroke="lightblue" x1="145.6" y1="254.191" x2="150.8" y2="262.632" />
<line fill="none" stroke-width="3" boundary-string=""  stroke="lightblue" x1="150.8" y1="262.632" x2="156" y2="271.079" />
<line fill="none" stroke-width="3" boundary-string=""  stroke="lightblue" x1="156" y1="271.079" x2="161.2" y2="279.532" />
<line fill="none" stroke-width="3" boundary-string=""  stroke="lightblue" x1="161.2" y1="279.532" x2="166.4" y2="287.991" />
<line fill="none" stroke-width="3" boundary-string=""  stroke="lightblue" x1="166.4" y1="287.991" x2="171.6" y2="296.455" />
<line fill="none" stroke-width="3" boundary-string=""  stroke="lightblue" x1="171.6" y1="296.455" x2="176.8" y2="304.923" />
<line fill="none" stroke-width="3" boundary-string=""  stroke="lightblue" x1="176.8" y1="304.923" x2="182" y2="313.395" />
<line fill="none" stroke-width="3" boundary-string=""  stroke="lightblue" x1="182" y1="313.395" x2="187.2" y2="317.493" />
<line fill="none" stroke-width="3" boundary-string=""  stroke="lightblue" x1="187.2" y1="317.493" x2="192.4" y2="319.308" />
<line fill="none" stroke-width="3" boundary-string=""  stroke="lightblue" x1="192.4" y1="319.308" x2="197.6" y2="321.341" />
<line fill="none" stroke-width="3" boundary-string=""  stroke="lightblue" x1="197.6" y1="321.341" x2="202.8" y2="323.586" />
<line fill="none" stroke-width="3" boundary-string=""  stroke="lightblue" x1="202.8" y1="323.586" x2="208" y2="326.04" />
<line fill="none" stroke-width="3" boundary-string=""  stroke="lightblue" x1="208" y1="326.04" x2="213.2" y2="328.697" />
<line fill="none" stroke-width="3" boundary-string=""  stroke="lightblue" x1="213.2" y1="328.697" x2="218.4" y2="331.554" />
<line fill="none" stroke-width="3" boundary-string=""  stroke="lightblue" x1="218.4" y1="331.554" x2="223.6" y2="329.24" />
<line fill="none" stroke-width="3" boundary-string=""  stroke="lightblue" x1="223.6" y1="329.24" x2="228.8" y2="326.303" />
<line fill="none" stroke-width="3" boundary-string=""  stroke="lightblue" x1="228.8" y1="326.303" x2="234" y2="323.565" />
<line fill="none" stroke-width="3" boundary-string=""  stroke="lightblue" x1="234" y1="323.565" x2="239.2" y2="321.032" />
<line fill="none" stroke-width="3" boundary-string=""  stroke="lightblue" x1="239.2" y1="321.032" x2="244.4" y2="318.707" />
<line fill="none" stroke-width="3" boundary-string=""  stroke="lightblue" x1="244.4" y1="318.707" x2="249.6" y2="316.596" />
<line fill="none" stroke-width="3" boundary-string=""  stroke="lightblue" x1="249.6" y1="316.596" x2="254.8" y2="314.703" />
<line fill="none" stroke-width="3" boundary-string=""  stroke="lightblue" x1="254.8" y1="314.703" x2="260" y2="313.032" />
<line fill="none" stroke-width="3" boundary-string=""  stroke="lightblue" x1="260" y1="313.032" x2="265.2" y2="311.586" />
<line fill="none" stroke-width="3" boundary-string=""  stroke="lightblue" x1="265.2" y1="311.586" x2="270.4" y2="310.369" />
<line fill="none" stroke-width="3" boundary-string=""  stroke="lightblue" x1="270.4" y1="310.369" x2="275.6" y2="309.383" />
<line fill="none" stroke-width="3" boundary-string=""  stroke="lightblue" x1="275.6" y1="309.383" x2="280.8" y2="308.63" />
<line fill="none" stroke-width="3" boundary-string=""  stroke="lightblue" x1="280.8" y1="308.63" x2="286" y2="308.113" />
<line fill="none" stroke-width="3" boundary-string=""  stroke="lightblue" x1="286" y1="308.113" x2="291.2" y2="307.832" />
<line fill="none" stroke-width="3" boundary-string=""  stroke="lightblue" x1="291.2" y1="307.832" x2="296.4" y2="307.789" />
<line fill="none" stroke-width="3" boundary-string=""  stroke="lightblue" x1="296.4" y1="307.789" x2="301.6" y2="307.982" />
<line fill="none" stroke-width="3" boundary-string=""  stroke="lightblue" x1="301.6" y1="307.982" x2="306.8" y2="307.985" />
<line fill="none" stroke-width="3" boundary-string=""  stroke="lightblue" x1="306.8" y1="307.985" x2="312" y2="307.431" />
<line fill="none" stroke-width="3" boundary-string=""  stroke="lightblue" x1="312" y1="307.431" x2="317.2" y2="307.114" />
<line fill="none" stroke-width="3" boundary-string=""  stroke="lightblue" x1="317.2" y1="307.114" x2="322.4" y2="307.034" />
<line fill="none" stroke-width="3" boundary-string=""  stroke="lightblue" x1="322.4" y1="307.034" x2="327.6" y2="307.192" />
<line fill="none" stroke-width="3" boundary-string=""  stroke="lightblue" x1="327.6" y1="307.192" x2="332.8" y2="307.588" />
<line fill="none" stroke-width="3" boundary-string=""  stroke="lightblue" x1="332.8" y1="307.588" x2="338" y2="308.22" />
<line fill="none" stroke-width="3" boundary-string=""  stroke="lightblue" x1="338" y1="308.22" x2="343.2" y2="309.087" />
<line fill="none" stroke-width="3" boundary-string=""  stroke="lightblue" x1="343.2" y1="309.087" x2="348.4" y2="308.637" />
<line fill="none" stroke-width="3" boundary-string=""  stroke="lightblue" x1="348.4" y1="308.637" x2="353.6" y2="308.157" />
<line fill="none" stroke-width="3" boundary-string=""  stroke="lightblue" x1="353.6" y1="308.157" x2="358.8" y2="307.913" />
<line fill="none" stroke-width="3" boundary-string=""  stroke="lightblue" x1="358.8" y1="307.913" x2="364" y2="307.906" />
<line fill="none" stroke-width="3" boundary-string=""  stroke="lightblue" x1="364" y1="307.906" x2="369.2" y2="308.136" />
<line fill="none" stroke-width="3" boundary-string=""  stroke="lightblue" x1="369.2" y1="308.136" x2="374.4" y2="308.603" />
<line fill="none" stroke-width="3" boundary-string=""  stroke="lightblue" x1="374.4" y1="308.603" x2="379.6" y2="309.305" />
<line fill="none" stroke-width="3" boundary-string=""  stroke="lightblue" x1="379.6" y1="309.305" x2="384.8" y2="310.241" />
<line fill="none" stroke-width="3" boundary-string=""  stroke="lightblue" x1="384.8" y1="310.241" x2="390" y2="311.409" />
<line fill="none" stroke-width="3" boundary-string=""  stroke="lightblue" x1="390" y1="311.409" x2="395.2" y2="312.806" />
<line fill="none" stroke-width="3" boundary-string=""  stroke="lightblue" x1="395.2" y1="312.806" x2="400.4" y2="277.697" />
<line fill="none" stroke-width="3" boundary-string=""  stroke="lightblue" x1="400.4" y1="277.697" x2="405.6" y2="273.632" />
<line fill="none" stroke-width="3" boundary-string=""  stroke="lightblue" x1="405.6" y1="273.632" x2="410.8" y2="270.167" />
<line fill="none" stroke-width="3" boundary-string=""  stroke="lightblue" x1="410.8" y1="270.167" x2="416" y2="267.233" />
<line fill="none" stroke-width="3" boundary-string=""  stroke="lightblue" x1="416" y1="267.233" x2="421.2" y2="253.872" />
<line fill="none" stroke-width="3" boundary-string=""  stroke="lightblue" x1="421.2" y1="253.872" x2="426.4" y2="240.51" />
<line fill="none" stroke-width="3" boundary-string=""  stroke="lightblue" x1="426.4" y1="240.51" x2="431.6" y2="227.148" />
<line fill="none" stroke-width="3" boundary-string=""  stroke="lightblue" x1="431.6" y1="227.148" x2="436.8" y2="213.787" />
<line fill="none" stroke-width="3" boundary-string=""  stroke="lightblue" x1="436.8" y1="213.787" x2="442" y2="200.425" />
<line fill="none" stroke-width="3" boundary-string=""  stroke="lightblue" x1="442" y1="200.425" x2="447.2" y2="187.063" />
<line fill="none" stroke-width="3" boundary-string=""  stroke="lightblue" x1="447.2" y1="187.063" x2="452.4" y2="173.702" />
<line fill="none" stroke-width="3" boundary-string=""  stroke="lightblue" x1="452.4" y1="173.702" x2="457.6" y2="160.34" />
<line fill="none" stroke-width="3" boundary-string=""  stroke="lightblue" x1="457.6" y1="160.34" x2="462.8" y2="146.978" />
<line fill="none" stroke-width="3" boundary-string=""  stroke="lightblue" x1="462.8" y1="146.978" x2="468" y2="133.617" />
<line fill="none" stroke-width="3" boundary-string=""  stroke="lightblue" x1="468" y1="133.617" x2="473.2" y2="120.255" />
<line fill="none" stroke-width="3" boundary-string=""  stroke="lightblue" x1="473.2" y1="120.255" x2="478.4" y2="106.893" />
<line fill="none" stroke-width="3" boundary-string=""  stroke="lightblue" x1="478.4" y1="106.893" x2="483.6" y2="93.5317" />
<line fill="none" stroke-width="3" boundary-string=""  stroke="lightblue" x1="483.6" y1="93.5317" x2="488.8" y2="80.17" />
<line fill="none" stroke-width="3" boundary-string=""  stroke="lightblue" x1="488.8" y1="80.17" x2="494" y2="66.8084" />
<line fill="none" stroke-width="3" boundary-string=""  stroke="lightblue" x1="494" y1="66.8084" x2="499.2" y2="53.4467" />
<line fill="none" stroke-width="3" boundary-string=""  stroke="lightblue" x1="499.2" y1="53.4467" x2="504.4" y2="40.085" />
<line fill="none" stroke-width="3" boundary-string=""  stroke="lightblue" x1="504.4" y1="40.085" x2="509.6" y2="26.7233" />
<line fill="none" stroke-width="3" boundary-string=""  stroke="lightblue" x1="509.6" y1="26.7233" x2="514.8" y2="13.3617" />
<line fill="none" stroke-width="3" boundary-string=""  stroke="lightblue" x1="514.8" y1="13.3617" x2="520" y2="0" />

<!--Draw the X and Y axes -->
<polyline fill="none" stroke="black" stroke-width="6"  points=" 600,0 0,0 0,520" />
<!-- -->


<!--Draw labels and tics for X axis -->

<line fill="none" stroke="black"  stroke-width="6"  x1="0.5" y1="0" x2="0.5" y2="-20" />
<text transform="scale(1,-1)" font-family="sans-serif" font-size="30" x="-24.5" y="45" >0 </text>
<line fill="none" stroke="black"  stroke-width="6"  x1="104.5" y1="0" x2="104.5" y2="-20" />
<text transform="scale(1,-1)" font-family="sans-serif" font-size="30" x="79.5" y="45" >20 </text>
<line fill="none" stroke="black"  stroke-width="6"  x1="208.5" y1="0" x2="208.5" y2="-20" />
<text transform="scale(1,-1)" font-family="sans-serif" font-size="30" x="183.5" y="45" >40 </text>
<line fill="none" stroke="black"  stroke-width="6"  x1="312.5" y1="0" x2="312.5" y2="-20" />
<text transform="scale(1,-1)" font-family="sans-serif" font-size="30" x="287.5" y="45" >60 </text>
<line fill="none" stroke="black"  stroke-width="6"  x1="416.5" y1="0" x2="416.5" y2="-20" />
<text transform="scale(1,-1)" font-family="sans-serif" font-size="30" x="391.5" y="45" >80 </text>
<line fill="none" stroke="black"  stroke-width="6"  x1="520.5" y1="0" x2="520.5" y2="-20" />
<text transform="scale(1,-1)" font-family="sans-serif" font-size="30" x="495.5" y="45" >100 </text>


<!--Draw labels and tics for Y axis -->

<line fill="none" stroke="black" stroke-width="6" x1="0.0" y1="0" x2="-20" y2="0" />
<text transform="scale(1,-1)" text-anchor="end" font-family="sans-serif" font-size="30" x="-25" y="10" >0 </text>
<line fill="none" stroke="black" stroke-width="6" x1="0.0" y1="47.2727" x2="-20" y2="47.2727" />
<text transform="scale(1,-1)" text-anchor="end" font-family="sans-serif" font-size="30" x="-25" y="-37.2727" >10 </text>
<line fill="none" stroke="black" stroke-width="6" x1="0.0" y1="94.5455" x2="-20" y2="94.5455" />
<text transform="scale(1,-1)" text-anchor="end" font-family="sans-serif" font-size="30" x="-25" y="-84.5455" >20 </text>
<line fill="none" stroke="black" stroke-width="6" x1="0.0" y1="141.818" x2="-20" y2="141.818" />
<text transform="scale(1,-1)" text-anchor="end" font-family="sans-serif" font-size="30" x="-25" y="-131.818" >30 </text>
<line fill="none" stroke="black" stroke-width="6" x1="0.0" y1="189.091" x2="-20" y2="189.091" />
<text transform="scale(1,-1)" text-anchor="end" font-family="sans-serif" font-size="30" x="-25" y="-179.091" >40 </text>
<line fill="none" stroke="black" stroke-width="6" x1="0.0" y1="236.364" x2="-20" y2="236.364" />
<text transform="scale(1,-1)" text-anchor="end" font-family="sans-serif" font-size="30" x="-25" y="-226.364" >50 </text>
<line fill="none" stroke="black" stroke-width="6" x1="0.0" y1="283.636" x2="-20" y2="283.636" />
<text transform="scale(1,-1)" text-anchor="end" font-family="sans-serif" font-size="30" x="-25" y="-273.636" >60 </text>
<line fill="none" stroke="black" stroke-width="6" x1="0.0" y1="330.909" x2="-20" y2="330.909" />
<text transform="scale(1,-1)" text-anchor="end" font-family="sans-serif" font-size="30" x="-25" y="-320.909" >70 </text>
<line fill="none" stroke="black" stroke-width="6" x1="0.0" y1="378.182" x2="-20" y2="378.182" />
<text transform="scale(1,-1)" text-anchor="end" font-family="sans-serif" font-size="30" x="-25" y="-368.182" >80 </text>
<line fill="none" stroke="black" stroke-width="6" x1="0.0" y1="425.455" x2="-20" y2="425.455" />
<text transform="scale(1,-1)" text-anchor="end" font-family="sans-serif" font-size="30" x="-25" y="-415.455" >90 </text>
<line fill="none" stroke="black" stroke-width="6" x1="0.0" y1="472.727" x2="-20" y2="472.727" />
<text transform="scale(1,-1)" text-anchor="end" font-family="sans-serif" font-size="30" x="-25" y="-462.727" >100 </text>
<line fill="none" stroke="black" stroke-width="6" x1="0.0" y1="520" x2="-20" y2="520" />
<text transform="scale(1,-1)" text-anchor="end" font-family="sans-serif" font-size="30" x="-25" y="-510" >110 </text>


<!--Draw Glitches -->

<line fill="none" stroke="black" stroke-width="2" x1="395.2" y1="277.697" x2="395.2" y2="227.697" />
<text transform="scale(1,-1)" font-family="sans-serif" font-size="30" x="400.2" y="-217.697" >76 </text>
<line fill="none" stroke="black" stroke-width="2" x1="416" y1="253.872" x2="416" y2="203.872" />
<text transform="scale(1,-1)" font-family="sans-serif" font-size="30" x="421" y="-193.872" >80 </text>

<!-- -->


<!-- Reduced vector followed by D7dist from the final reduced cell
-24.34538 -14.99954  -4.26008 -65.56597 -86.65990 -82.71920    (9.42641e-14,  0)   
-25.59730 -16.38567  -3.80068 -65.71748 -86.48986 -81.22137    (2.44848,  3.58711)   
-26.84921 -17.77179  -3.34128 -65.86899 -86.31982 -79.72354    (4.89696,  7.17421)   
-28.10113 -19.15792  -2.88188 -66.02050 -86.14978 -78.22571    (7.34544,  10.7613)   
-29.35305 -20.54404  -2.42248 -66.17201 -85.97975 -76.72788    (9.79392,  14.3484)   
-30.60496 -21.93016  -1.96308 -66.32352 -85.80971 -75.23005    (12.2424,  17.9355)   
-31.85688 -23.31629  -1.50367 -66.47503 -85.63967 -73.73222    (14.6909,  21.5226)   
-33.10880 -24.70241  -1.04427 -66.62654 -85.46963 -72.23439    (17.1394,  25.1097)   
-34.36071 -26.08854  -0.58487 -66.77805 -85.29959 -70.73656    (19.5878,  28.6969)   
-35.61263 -27.47466  -0.12547 -66.92956 -85.12955 -69.23873    (22.0363,  32.284)   
-36.53062 -66.74714  -0.33393 -28.52686 -84.62558 -68.07483    (23.9283,  35.4058)   
-37.32314 -66.43925  -0.79333 -29.45358 -83.99614 -67.03640    (25.6259,  38.3748)   
-38.11565 -66.13136  -1.25273 -30.38031 -83.36670 -65.99797    (27.3376,  41.3653)   
-38.90817 -65.82347  -1.71213 -31.30703 -82.73727 -64.95954    (29.0609,  44.3737)   
-39.70069 -65.51558  -2.17153 -32.23375 -82.10783 -63.92111    (30.7939,  47.1153)   
-40.49320 -65.20769  -2.63093 -33.16048 -81.47839 -62.88268    (32.5349,  49.4577)   
-41.28572 -64.89980  -3.09033 -34.08720 -80.84895 -61.84425    (34.2829,  51.8223)   
-42.07823 -64.59191  -3.54973 -35.01393 -80.21951 -60.80582    (36.0367,  54.2053)   
-42.87075 -64.28402  -4.00913 -35.94065 -79.59007 -59.76739    (37.7956,  56.604)   
-43.66327 -63.97613  -4.46853 -36.86737 -78.96063 -58.72896    (39.5589,  59.016)   
-44.45578 -63.66824  -4.92793 -37.79410 -78.33119 -57.69053    (41.3261,  61.4395)   
-45.24830 -63.36035  -5.38734 -38.72082 -77.70175 -56.65211    (43.0965,  63.8729)   
-46.04082 -63.05246  -5.84674 -39.64755 -77.07231 -55.61368    (44.87,  66.315)   
-46.83333 -62.74457  -6.30614 -40.57427 -76.44287 -54.57525    (46.646,  68.7648)   
-47.62585 -62.43668  -6.76554 -41.50099 -75.81343 -53.53682    (48.4244,  71.2214)   
-48.41837 -62.12879  -7.22494 -42.42772 -75.18399 -52.49839    (50.2049,  73.6842)   
-49.21088 -61.82090  -7.68434 -43.35444 -74.55455 -51.45996    (51.9872,  76.1525)   
-50.00340 -61.51301  -8.14374 -44.28116 -73.92511 -50.42153    (53.7712,  78.626)   
-50.79592 -61.20512  -8.60314 -45.20789 -73.29567 -49.38310    (55.5568,  81.1041)   
-51.58843 -60.89723  -9.06254 -46.13461 -72.66623 -48.34467    (57.3437,  83.5866)   
-52.38095 -60.58934  -9.52194 -47.06134 -72.03679 -47.30624    (59.1318,  86.0732)   
-53.17346 -60.28145  -9.98134 -47.98806 -71.40735 -46.26781    (60.9212,  88.5638)   
-53.96598 -59.97356 -10.44074 -48.91478 -70.77791 -45.22938    (62.7115,  91.0582)   
-54.75850 -59.66567 -10.90014 -49.84151 -70.14847 -44.19095    (64.5029,  93.4805)   
-55.55101 -59.35778 -11.35954 -50.76823 -69.51903 -43.15253    (66.2951,  95.8576)   
-56.34353 -59.04989 -11.81894 -51.69495 -68.88959 -42.11410    (67.162,  98.1286)   
-57.13605 -58.74200 -12.27835 -52.62168 -68.26015 -41.07567    (67.546,  98.7374)   
-57.92856 -58.43411 -12.73775 -53.54840 -67.63071 -40.03724    (67.9759,  99.421)   
-58.72108 -58.12622 -13.19715 -54.47513 -67.00127 -38.99881    (68.4508,  100.178)   
-59.51360 -57.81833 -13.65655 -55.40185 -66.37183 -37.96038    (68.9699,  100.998)   
-60.30611 -57.51044 -14.11595 -56.32857 -65.74240 -36.92195    (69.5321,  101.8)   
-61.09863 -57.20255 -14.57535 -57.25530 -65.11296 -35.88352    (70.1364,  102.663)   
-61.89114 -56.89466 -15.03475 -58.18202 -64.48352 -34.84509    (69.647,  102.031)   
-62.68366 -56.58677 -15.49415 -59.10875 -63.85408 -33.80666    (69.0257,  101.206)   
-63.47618 -56.27888 -15.95355 -60.03547 -63.22464 -32.76823    (68.4465,  100.444)   
-64.26869 -55.97099 -16.41295 -60.96219 -62.59520 -31.72980    (67.9106,  99.7456)   
-65.06121 -55.66310 -16.87235 -61.88892 -61.96576 -30.69137    (67.4188,  99.1138)   
-65.85373 -55.35521 -17.33175 -62.81564 -61.33632 -29.65294    (66.9722,  98.5493)   
-66.64624 -55.04732 -17.79115 -63.74236 -60.70688 -28.61452    (66.5718,  98.0534)   
-67.43876 -54.73943 -18.25055 -64.66909 -60.07744 -27.57609    (66.2182,  97.6273)   
-68.23128 -54.43154 -18.70995 -65.59581 -59.44800 -26.53766    (65.9124,  97.2719)   
-69.02379 -54.12365 -19.16936 -66.52254 -58.81856 -25.49923    (65.6549,  96.988)   
-69.81631 -53.81576 -19.62876 -67.44926 -58.18912 -24.46080    (65.4463,  96.7763)   
-70.60882 -20.08816 -53.50787 -68.37598 -23.42237 -57.55968    (65.2872,  96.6374)   
-22.38394 -69.30271 -53.19998 -20.54756 -71.40134 -56.93024    (65.1778,  96.5715)   
-21.34551 -70.22943 -52.89209 -21.00696 -72.19386 -56.30080    (65.1184,  96.5788)   
-20.30708 -71.15616 -52.58420 -21.46636 -72.98637 -55.67136    (65.1091,  96.6593)   
-72.08288 -19.26865 -52.27631 -73.77889 -21.92576 -55.04192    (65.1501,  96.8129)   
-73.00960 -51.96842 -18.23022 -74.57141 -54.41248 -22.38516    (65.1508,  96.9093)   
-73.93633 -51.66053 -17.19179 -75.36392 -53.78304 -22.84456    (65.0336,  96.8373)   
-74.86305 -51.35264 -16.15336 -76.15644 -53.15360 -23.30396    (64.9664,  96.8383)   
-75.78977 -51.04475 -15.11493 -76.94896 -52.52416 -23.76336    (64.9496,  96.9122)   
-76.71650 -50.73686 -14.07651 -77.74147 -51.89472 -24.22276    (64.983,  97.059)   
-50.42897 -77.64322 -13.03808 -51.26528 -78.53399 -24.68216    (65.0667,  97.2783)   
-50.12108 -78.56995 -11.99965 -50.63584 -79.32650 -25.14156    (65.2003,  97.5695)   
-49.81319 -79.49667 -10.96122 -50.00640 -80.11902 -25.60096    (65.3837,  97.9319)   
-49.50529 -80.42339  -9.92279 -49.37696 -80.91154 -26.06037    (65.2886,  97.9077)   
-81.70405 -48.74752  -8.88436 -81.35012 -49.19740 -26.51977    (65.187,  97.8905)   
-82.49657 -48.11809  -7.84593 -82.27684 -48.88951 -26.97917    (65.1354,  97.9453)   
-83.28909 -47.48865  -6.80750 -83.20356 -48.58162 -27.43857    (65.1339,  98.0723)   
-84.08160 -46.85921  -5.76907 -84.13029 -48.27373 -27.89797    (65.1826,  98.2709)   
-84.87412 -46.22977  -4.73064 -85.05701 -47.96584 -28.35737    (65.2814,  98.5409)   
-85.66664 -45.60033  -3.69221 -85.98374 -47.65795 -28.81677    (65.4299,  98.8815)   
-86.45915 -44.97089  -2.65378 -86.91046 -47.35006 -29.27617    (65.6279,  96.6675)   
-87.25167 -44.34145  -1.61535 -87.83718 -47.04217 -29.73557    (65.8749,  94.483)   
-88.04418 -43.71201  -0.57692 -88.76391 -46.73428 -30.19497    (66.1704,  92.3819)   
 -0.46150 -45.96489 -42.62106 -31.11588 -89.22913 -88.37520    (58.7436,  89.0183)   
 -1.49993 -44.61857 -40.95319 -32.61371 -89.11742 -88.12928    (57.8836,  87.3693)   
 -2.53836 -43.27225 -39.28533 -34.11154 -89.00572 -87.88337    (57.1507,  85.9229)   
 -3.57679 -41.92593 -37.61746 -35.60937 -88.89401 -87.63746    (56.5301,  83.3656)   
 -4.61522 -40.57961 -35.94959 -37.10720 -88.78231 -87.39154    (53.7036,  79.1973)   
 -5.65365 -39.23329 -34.28172 -38.60503 -88.67060 -87.14563    (50.8771,  75.0291)   
 -6.69208 -37.88697 -32.61385 -40.10286 -88.55889 -86.89972    (48.0506,  70.8608)   
 -7.73051 -36.54065 -30.94598 -41.60069 -88.44719 -86.65381    (45.2241,  66.6925)   
 -8.76894 -35.19433 -29.27811 -43.09852 -88.33548 -86.40789    (42.3976,  62.5242)   
 -9.80737 -33.84801 -27.61024 -44.59635 -88.22378 -86.16198    (39.5711,  58.3559)   
-10.84580 -32.50169 -25.94237 -46.09418 -88.11207 -85.91607    (36.7446,  54.1877)   
-11.88423 -31.15538 -24.27451 -47.59201 -88.00037 -85.67015    (33.9181,  50.0194)   
-12.92266 -29.80906 -22.60664 -49.08984 -87.88866 -85.42424    (31.0916,  45.8511)   
-13.96109 -28.46274 -20.93877 -50.58767 -87.77696 -85.17833    (28.2651,  41.6828)   
-14.99951 -27.11642 -19.27090 -52.08550 -87.66525 -84.93242    (25.4386,  37.5145)   
-16.03794 -25.77010 -17.60303 -53.58333 -87.55355 -84.68650    (22.6121,  33.3462)   
-17.07637 -24.42378 -15.93516 -55.08116 -87.44184 -84.44059    (19.7856,  29.178)   
-18.11480 -23.07746 -14.26729 -56.57899 -87.33013 -84.19468    (16.959,  25.0097)   
-19.15323 -21.73114 -12.59942 -58.07682 -87.21843 -83.94876    (14.1325,  20.8414)   
-20.19166 -20.38482 -10.93155 -59.57465 -87.10672 -83.70285    (11.306,  16.6731)   
-21.23009 -19.03850  -9.26369 -61.07248 -86.99502 -83.45694    (8.47952,  12.5048)   
-22.26852 -17.69218  -7.59582 -62.57031 -86.88331 -83.21103    (5.65301,  8.33656)   
-23.30695 -16.34586  -5.92795 -64.06814 -86.77161 -82.96511    (2.82651,  4.16828)   
-24.34538 -14.99954  -4.26008 -65.56597 -86.65990 -82.71920    (0,  0)   
-->
</g>
</g>
<!-- Run Constants
CIRCLEPLOT bool false
DISTANCEPLOT bool true
PRINTDISTANCEDATA bool true
GLITCHESONLY bool false
PLOT 2doubles 3 4
PERTURBBY double 0.05
GLITCHLEVEL double 3
BOUNDARYWINDOW double 0.065
FRAMESPERPATH int 200
STEPSPERFRAME int 100
TRIALS int 1
ALLBLACK bool false
FILEPREFIX string Fol
GRAPHSIZE int 0
BORDER int 0
PLOTSIZE int 0
CIRCLEPLOTSIZE int 2000
CIRCLERADIUS int 300
CIRCLESTROKEWIDTH int 30
G6LINEWIDTH int 3
DELONELINEWIDTH int 10
AXISWIDTH int 6
TICLENGTH int 20
VECTOR g6 
PERTURB g6Perturb 
MOVIEMODE MovieMode STAR
FOLLOWERMODE FollowerMode Follow
FIXRANDOMSEED fixRandomSeed false
RANDOMSEED int 1
TIMESTAMP bool true
END end 




-->
</svg>
