<?xml version="1.0" standalone="no"?>
<!-- the width and height set the total pixel output of the image in the browser -->
<!-- whatever is within the viewbox will be remapped to show in this size -->
<svg width="1000" height="1000" viewBox="1 0  1200 1200"  version="1.1" xmlns="http://www.w3.org/2000/svg" xmlns:xlink="http://www.w3.org/1999/xlink">
 <desc>ID (and file name) = Fol_.91_0.svg  mode = Single Point </desc> 
<g transform = "scale(1 1)">

<text x = "-850" y="50" transform="rotate(-90)"  font-family="sans-serif" font-size="40" stroke ="lightgray" fill="none"> PointDistanceFollower   Jan 31 2020</text>
 <text x="200"  y="30"  font-family="sans-serif" font-size="20" >Fol_.91_0.svg</text>
<text x="300" y="60"   font-family="sans-serif" font-size="20" fill="lightblue">  S6  </text>
<text x="300" y="85"   font-family="sans-serif" font-size="20" fill="olive">  CS6Dist  </text>
<text x="300" y="110"   font-family="sans-serif" font-size="20" fill="black">  LM  </text>



 <!--DISTANCE PLOT BEGINS   mode = Single Point-->


<!-- the following will scale and place the distance plot -->
<g transform="translate(150,975) scale(1 -1)">
   <polyline fill="none" stroke=" lightblue " stroke-width=" 12 " stroke-dasharray = " 10,5 " points=" 7.92079,0 15.8416,26.5924 23.7624,53.1847 31.6832,79.7771 39.604,106.369 47.5248,132.962 55.4455,159.554 63.3663,186.147 71.2871,212.629 79.2079,234.99 87.1287,257.824 95.0495,281.016 102.97,304.484 110.891,328.169 118.812,352.026 126.733,376.024 134.653,400.137 142.574,424.345 150.495,448.633 158.416,466.411 166.337,482.174 174.257,498.687 182.178,515.877 190.099,533.679 198.02,552.033 205.941,570.887 213.861,590.193 221.782,609.907 229.703,629.991 237.624,650.412 245.545,671.137 253.465,670.713 261.386,651.41 269.307,632.501 277.228,614.024 285.149,596.016 293.069,578.524 300.99,561.594 308.911,545.279 316.832,529.637 324.752,514.727 332.673,500.617 340.594,487.374 348.515,475.073 356.436,463.787 364.356,453.592 372.277,444.564 380.198,436.775 388.119,430.292 396.04,425.175 403.96,421.474 411.881,419.226 419.802,417.863 427.723,415.488 435.644,413.731 443.564,412.599 451.485,412.099 459.406,412.231 467.327,412.996 475.248,414.39 483.168,416.407 491.089,419.038 499.01,422.271 506.931,426.093 514.851,429.856 522.772,428.116 530.693,426.981 538.614,423.927 546.535,413.521 554.455,403.494 562.376,393.874 570.297,384.693 578.218,375.983 586.139,367.776 594.059,360.107 601.98,353.012 609.901,346.526 617.822,340.683 625.743,335.517 633.663,323.155 641.584,306.998 649.505,290.84 657.426,274.682 665.347,258.524 673.267,242.367 681.188,226.209 689.109,210.051 697.03,193.893 704.95,177.735 712.871,161.578 720.792,145.42 728.713,129.262 736.634,113.104 744.554,96.9466 752.475,80.7888 760.396,64.6311 768.317,48.4733 776.238,32.3155 784.158,16.1578 792.079,0 " />

   <polyline fill="none" stroke=" olive " stroke-width=" 3 " stroke-dasharray = " 5,10 " points=" 7.92079,6.7435e-05 15.8416,26.5924 23.7624,53.1847 31.6832,79.7771 39.604,106.369 47.5248,132.962 55.4455,159.554 63.3663,186.147 71.2871,212.736 79.2079,239.552 87.1287,266.916 95.0495,294.698 102.97,322.807 110.891,351.173 118.812,379.746 126.733,408.487 134.653,424.433 142.574,437.453 150.495,451.475 158.416,466.411 166.337,482.174 174.257,498.687 182.178,515.877 190.099,533.679 198.02,552.033 205.941,570.887 213.861,590.193 221.782,609.907 229.703,629.991 237.624,650.412 245.545,671.137 253.465,692.141 261.386,685.156 269.307,665.519 277.228,646.275 285.149,627.463 293.069,609.126 300.99,591.312 308.911,574.072 316.832,557.466 324.752,541.557 332.673,526.414 340.594,512.111 348.515,498.727 356.436,486.347 364.356,475.057 372.277,464.944 380.198,456.096 388.119,448.595 396.04,442.517 403.96,437.93 411.881,434.884 419.802,529.361 427.723,520.205 435.644,511.598 443.564,503.583 451.485,496.208 459.406,489.519 467.327,483.563 475.248,478.384 483.168,474.026 491.089,470.526 499.01,467.917 506.931,466.223 514.851,465.461 522.772,465.639 530.693,457.518 538.614,446.649 546.535,436.145 554.455,426.036 562.376,416.355 570.297,407.135 578.218,398.414 586.139,390.227 594.059,382.616 601.98,375.618 609.901,369.275 617.822,355.471 625.743,339.313 633.663,323.155 641.584,306.998 649.505,290.84 657.426,274.682 665.347,258.524 673.267,242.367 681.188,226.209 689.109,210.051 697.03,193.893 704.95,177.735 712.871,161.578 720.792,145.42 728.713,129.262 736.634,113.104 744.554,96.9466 752.475,80.7888 760.396,64.6311 768.317,48.4733 776.238,32.3155 784.158,16.1578 792.079,6.7435e-05 " />

   <polyline fill="none" stroke=" black " stroke-width=" 3 " stroke-dasharray = "  " points=" 7.92079,0 15.8416,26.5924 23.7624,53.1847 31.6832,79.7771 39.604,106.369 47.5248,132.962 55.4455,159.554 63.3663,186.147 71.2871,212.739 79.2079,239.331 87.1287,265.924 95.0495,292.516 102.97,319.108 110.891,345.701 118.812,372.293 126.733,398.885 134.653,424.433 142.574,437.453 150.495,451.475 158.416,466.411 166.337,482.174 174.257,498.687 182.178,515.877 190.099,533.679 198.02,552.033 205.941,570.887 213.861,590.193 221.782,609.907 229.703,629.991 237.624,650.412 245.545,671.137 253.465,692.141 261.386,704.509 269.307,691.957 277.228,680.089 285.149,668.94 293.069,658.547 300.99,648.946 308.911,640.173 316.832,632.263 324.752,625.247 332.673,619.158 340.594,614.021 348.515,609.862 356.436,606.7 364.356,604.551 372.277,603.425 380.198,603.33 388.119,604.264 396.04,606.223 403.96,609.198 411.881,613.173 419.802,618.129 427.723,624.044 435.644,630.889 443.564,620.492 451.485,607.533 459.406,594.731 467.327,582.095 475.248,569.637 483.168,557.37 491.089,545.305 499.01,533.457 506.931,521.84 514.851,510.47 522.772,499.365 530.693,488.541 538.614,478.018 546.535,467.817 554.455,457.959 562.376,448.467 570.297,439.364 578.218,430.674 586.139,420.102 594.059,403.944 601.98,387.786 609.901,371.629 617.822,355.471 625.743,339.313 633.663,323.155 641.584,306.998 649.505,290.84 657.426,274.682 665.347,258.524 673.267,242.367 681.188,226.209 689.109,210.051 697.03,193.893 704.95,177.735 712.871,161.578 720.792,145.42 728.713,129.262 736.634,113.104 744.554,96.9466 752.475,80.7888 760.396,64.6311 768.317,48.4733 776.238,32.3155 784.158,16.1578 792.079,0 " />


<!--Draw Glitches -->

<line fill="none" stroke="black" stroke-width="4" x1="419.802" y1="519.361" x2="419.802" y2="469.361"  stroke-dasharray = "10,5" />
<text transform="scale(1,-1)" font-family="sans-serif" font-size="30" stroke = "rgb(0,0,0)" line = "rgb(0,0,0)"  fill = "olive" x="424.802" y="-469.361" >52</text>

<!-- -->


<!--Draw the X and Y axes -->
<polyline fill="none" stroke="black" stroke-width="6"  points=" 800,0 0,0 0, 800" />
<polyline fill="none" stroke="black" stroke-width="1"  points=" 0 800  800 800  800 0" />
<!-- -->


<!--Draw labels and tics for X axis -->

<line fill="none" stroke="black"  stroke-width="6"  x1="0.5" y1="0" x2="0.5" y2="-20" />
<text transform="scale(1,-1)" font-family="sans-serif" font-size="30" x="-24.5" y="45" >0</text>
<line fill="none" stroke="black"  stroke-width="6"  x1="158.916" y1="0" x2="158.916" y2="-20" />
<text transform="scale(1,-1)" font-family="sans-serif" font-size="30" x="133.916" y="45" >20</text>
<line fill="none" stroke="black"  stroke-width="6"  x1="317.332" y1="0" x2="317.332" y2="-20" />
<text transform="scale(1,-1)" font-family="sans-serif" font-size="30" x="292.332" y="45" >40</text>
<line fill="none" stroke="black"  stroke-width="6"  x1="475.748" y1="0" x2="475.748" y2="-20" />
<text transform="scale(1,-1)" font-family="sans-serif" font-size="30" x="450.748" y="45" >60</text>
<line fill="none" stroke="black"  stroke-width="6"  x1="634.163" y1="0" x2="634.163" y2="-20" />
<text transform="scale(1,-1)" font-family="sans-serif" font-size="30" x="609.163" y="45" >80</text>
<line fill="none" stroke="black"  stroke-width="6"  x1="792.579" y1="0" x2="792.579" y2="-20" />
<text transform="scale(1,-1)" font-family="sans-serif" font-size="30" x="767.579" y="45" >100</text>


<!--Draw labels and tics for Y axis -->

<line fill="none" stroke="black" stroke-width="6" x1="0.0" y1="0" x2="-20" y2="0" />
<text transform="scale(1,-1)" text-anchor="end" font-family="sans-serif" font-size="30" x="-25" y="10" >0</text>
<line fill="none" stroke="black" stroke-width="6" x1="0.0" y1="100" x2="-20" y2="100" />
<text transform="scale(1,-1)" text-anchor="end" font-family="sans-serif" font-size="30" x="-25" y="-90" >2</text>
<line fill="none" stroke="black" stroke-width="6" x1="0.0" y1="200" x2="-20" y2="200" />
<text transform="scale(1,-1)" text-anchor="end" font-family="sans-serif" font-size="30" x="-25" y="-190" >4</text>
<line fill="none" stroke="black" stroke-width="6" x1="0.0" y1="300" x2="-20" y2="300" />
<text transform="scale(1,-1)" text-anchor="end" font-family="sans-serif" font-size="30" x="-25" y="-290" >6</text>
<line fill="none" stroke="black" stroke-width="6" x1="0.0" y1="400" x2="-20" y2="400" />
<text transform="scale(1,-1)" text-anchor="end" font-family="sans-serif" font-size="30" x="-25" y="-390" >8</text>
<line fill="none" stroke="black" stroke-width="6" x1="0.0" y1="500" x2="-20" y2="500" />
<text transform="scale(1,-1)" text-anchor="end" font-family="sans-serif" font-size="30" x="-25" y="-490" >10</text>
<line fill="none" stroke="black" stroke-width="6" x1="0.0" y1="600" x2="-20" y2="600" />
<text transform="scale(1,-1)" text-anchor="end" font-family="sans-serif" font-size="30" x="-25" y="-590" >12</text>
<line fill="none" stroke="black" stroke-width="6" x1="0.0" y1="700" x2="-20" y2="700" />
<text transform="scale(1,-1)" text-anchor="end" font-family="sans-serif" font-size="30" x="-25" y="-690" >14</text>
<line fill="none" stroke="black" stroke-width="6" x1="0.0" y1="800" x2="-20" y2="800" />
<text transform="scale(1,-1)" text-anchor="end" font-family="sans-serif" font-size="30" x="-25" y="-790" >16</text>

-->
</g>
</g>
<!-- Run Constants
PRINTDISTANCEDATA bool true
GLITCHESONLY bool false
PERTURBBY double 0.05
GLITCHLEVEL double 3
BOUNDARYWINDOW double 0.065
STEPSPERFRAME int 100
TRIALS int 1
ALLBLACK bool true
FILEPREFIX string Fol
NIGGLISELLINGFIRST bool false
ENABLE DistanceEnableString 
DISABLE DistanceDisableString 
GRAPHSIZE int 0
BORDER int 0
PLOTSIZE int 0
AXISWIDTH int 6
TICLENGTH int 20
VECTOR g6 
FOLLOWERMODE FollowerMode point
FIXRANDOMSEED fixRandomSeed true
RANDOMSEED int 18
TIMESTAMP bool false
END end 


-->
</svg>
