<?xml version="1.0" standalone="no"?>
<!-- the width and height set the total pixel output of the image in the browser -->
<!-- whatever is within the viewbox will be remapped to show in this size -->
<svg width="1000" height="1000" viewBox="1 0  1200 1200"  version="1.1" xmlns="http://www.w3.org/2000/svg" xmlns:xlink="http://www.w3.org/1999/xlink">
 <desc>ID (and file name) = Fol_.68_0.svg  mode = Single Point </desc> 
<g transform = "scale(1 1)">

<text x = "-850" y="50" transform="rotate(-90)"  font-family="sans-serif" font-size="40" stroke ="lightgray" fill="none"> PointDistanceFollower   Jan 31 2020</text>
 <text x="200"  y="30"  font-family="sans-serif" font-size="20" >Fol_.68_0.svg</text>
<text x="300" y="60"   font-family="sans-serif" font-size="20" fill="lightblue">  S6  </text>
<text x="300" y="85"   font-family="sans-serif" font-size="20" fill="olive">  CS6Dist  </text>
<text x="300" y="110"   font-family="sans-serif" font-size="20" fill="black">  LM  </text>



 <!--DISTANCE PLOT BEGINS   mode = Single Point-->


<!-- the following will scale and place the distance plot -->
<g transform="translate(150,975) scale(1 -1)">
   <polyline fill="none" stroke=" lightblue " stroke-width=" 12 " stroke-dasharray = " 10,5 " points=" 7.92079,0 15.8416,25.8684 23.7624,51.7368 31.6832,77.6052 39.604,103.474 47.5248,129.342 55.4455,155.21 63.3663,181.079 71.2871,206.947 79.2079,232.816 87.1287,258.684 95.0495,284.552 102.97,310.094 110.891,323.784 118.812,337.9 126.733,352.389 134.653,367.208 142.574,382.319 150.495,397.687 158.416,413.284 166.337,429.086 174.257,445.071 182.178,461.218 190.099,477.513 198.02,493.94 205.941,510.487 213.861,527.142 221.782,543.896 229.703,560.739 237.624,577.664 245.545,594.663 253.465,611.732 261.386,628.863 269.307,646.052 277.228,663.294 285.149,680.586 293.069,697.924 300.99,715.304 308.911,732.723 316.832,750.179 324.752,763.814 332.673,748.769 340.594,733.866 348.515,719.115 356.436,704.524 364.356,690.105 372.277,675.867 380.198,661.824 388.119,647.986 396.04,634.369 403.96,619.785 411.881,604.174 419.802,588.724 427.723,573.449 435.644,558.362 443.564,543.48 451.485,528.819 459.406,514.399 467.327,500.24 475.248,486.365 483.168,472.799 491.089,459.57 499.01,446.708 506.931,434.244 514.851,422.215 522.772,410.658 530.693,399.615 538.614,388.298 546.535,375.287 554.455,360.444 562.376,345.944 570.297,331.83 578.218,318.655 586.139,306.853 594.059,295.051 601.98,283.249 609.901,271.447 617.822,259.645 625.743,247.843 633.663,236.041 641.584,224.239 649.505,212.437 657.426,200.635 665.347,188.833 673.267,177.031 681.188,165.228 689.109,153.426 697.03,141.624 704.95,129.822 712.871,118.02 720.792,106.218 728.713,94.4163 736.634,82.6142 744.554,70.8122 752.475,59.0102 760.396,47.2081 768.317,35.4061 776.238,23.6041 784.158,11.802 792.079,0 " />

   <polyline fill="none" stroke=" olive " stroke-width=" 3 " stroke-dasharray = " 5,10 " points=" 7.92079,0 15.8416,25.8684 23.7624,51.7368 31.6832,77.6052 39.604,103.474 47.5248,129.342 55.4455,155.21 63.3663,181.079 71.2871,206.947 79.2079,232.816 87.1287,258.684 95.0495,284.552 102.97,310.094 110.891,323.784 118.812,337.9 126.733,352.389 134.653,367.208 142.574,382.319 150.495,397.687 158.416,413.284 166.337,429.086 174.257,445.071 182.178,461.218 190.099,477.513 198.02,493.94 205.941,510.487 213.861,527.142 221.782,543.896 229.703,560.739 237.624,577.664 245.545,594.663 253.465,611.732 261.386,628.863 269.307,646.052 277.228,663.294 285.149,680.586 293.069,697.924 300.99,715.304 308.911,732.723 316.832,750.179 324.752,763.814 332.673,748.769 340.594,733.866 348.515,719.115 356.436,704.524 364.356,690.105 372.277,675.867 380.198,661.824 388.119,647.986 396.04,634.369 403.96,621.594 411.881,609.545 419.802,597.575 427.723,583.539 435.644,567.946 443.564,552.526 451.485,537.293 459.406,522.265 467.327,507.458 475.248,492.895 483.168,478.595 491.089,464.585 499.01,450.89 506.931,437.541 514.851,424.57 522.772,412.012 530.693,399.908 538.614,388.298 546.535,377.229 554.455,366.75 562.376,351.123 570.297,333.939 578.218,318.655 586.139,306.853 594.059,295.051 601.98,283.249 609.901,271.447 617.822,259.645 625.743,247.843 633.663,236.041 641.584,224.239 649.505,212.437 657.426,200.635 665.347,188.833 673.267,177.031 681.188,165.228 689.109,153.426 697.03,141.624 704.95,129.822 712.871,118.02 720.792,106.218 728.713,94.4163 736.634,82.6142 744.554,70.8122 752.475,59.0102 760.396,47.2081 768.317,35.4061 776.238,23.6041 784.158,11.802 792.079,0 " />

   <polyline fill="none" stroke=" black " stroke-width=" 3 " stroke-dasharray = "  " points=" 7.92079,0 15.8416,25.8684 23.7624,51.7368 31.6832,77.6052 39.604,103.474 47.5248,129.342 55.4455,155.21 63.3663,181.079 71.2871,206.947 79.2079,232.816 87.1287,258.684 95.0495,284.552 102.97,310.094 110.891,323.784 118.812,337.9 126.733,352.389 134.653,367.208 142.574,382.319 150.495,397.687 158.416,413.284 166.337,429.086 174.257,445.071 182.178,461.218 190.099,477.513 198.02,493.94 205.941,510.487 213.861,524.957 221.782,533.587 229.703,542.8 237.624,552.569 245.545,562.865 253.465,573.658 261.386,584.922 269.307,596.63 277.228,608.756 285.149,621.275 293.069,634.166 300.99,647.404 308.911,660.97 316.832,674.844 324.752,682.06 332.673,669.364 340.594,657.441 348.515,646.334 356.436,636.086 364.356,626.738 372.277,618.332 380.198,610.907 388.119,601.904 396.04,590.102 403.96,578.3 411.881,566.498 419.802,554.696 427.723,542.894 435.644,531.092 443.564,519.289 451.485,507.487 459.406,495.685 467.327,483.883 475.248,472.081 483.168,460.279 491.089,448.477 499.01,436.675 506.931,424.873 514.851,413.071 522.772,401.269 530.693,389.467 538.614,377.665 546.535,365.863 554.455,354.061 562.376,342.259 570.297,330.457 578.218,318.655 586.139,306.853 594.059,295.051 601.98,283.249 609.901,271.447 617.822,259.645 625.743,247.843 633.663,236.041 641.584,224.239 649.505,212.437 657.426,200.635 665.347,188.833 673.267,177.031 681.188,165.228 689.109,153.426 697.03,141.624 704.95,129.822 712.871,118.02 720.792,106.218 728.713,94.4163 736.634,82.6142 744.554,70.8122 752.475,59.0102 760.396,47.2081 768.317,35.4061 776.238,23.6041 784.158,11.802 792.079,0 " />


<!--Draw the X and Y axes -->
<polyline fill="none" stroke="black" stroke-width="6"  points=" 800,0 0,0 0, 800" />
<polyline fill="none" stroke="black" stroke-width="1"  points=" 0 800  800 800  800 0" />
<!-- -->


<!--Draw labels and tics for X axis -->

<line fill="none" stroke="black"  stroke-width="6"  x1="0.5" y1="0" x2="0.5" y2="-20" />
<text transform="scale(1,-1)" font-family="sans-serif" font-size="30" x="-24.5" y="45" >0</text>
<line fill="none" stroke="black"  stroke-width="6"  x1="158.916" y1="0" x2="158.916" y2="-20" />
<text transform="scale(1,-1)" font-family="sans-serif" font-size="30" x="133.916" y="45" >20</text>
<line fill="none" stroke="black"  stroke-width="6"  x1="317.332" y1="0" x2="317.332" y2="-20" />
<text transform="scale(1,-1)" font-family="sans-serif" font-size="30" x="292.332" y="45" >40</text>
<line fill="none" stroke="black"  stroke-width="6"  x1="475.748" y1="0" x2="475.748" y2="-20" />
<text transform="scale(1,-1)" font-family="sans-serif" font-size="30" x="450.748" y="45" >60</text>
<line fill="none" stroke="black"  stroke-width="6"  x1="634.163" y1="0" x2="634.163" y2="-20" />
<text transform="scale(1,-1)" font-family="sans-serif" font-size="30" x="609.163" y="45" >80</text>
<line fill="none" stroke="black"  stroke-width="6"  x1="792.579" y1="0" x2="792.579" y2="-20" />
<text transform="scale(1,-1)" font-family="sans-serif" font-size="30" x="767.579" y="45" >100</text>


<!--Draw labels and tics for Y axis -->

<line fill="none" stroke="black" stroke-width="6" x1="0.0" y1="0" x2="-20" y2="0" />
<text transform="scale(1,-1)" text-anchor="end" font-family="sans-serif" font-size="30" x="-25" y="10" >0</text>
<line fill="none" stroke="black" stroke-width="6" x1="0.0" y1="72.7273" x2="-20" y2="72.7273" />
<text transform="scale(1,-1)" text-anchor="end" font-family="sans-serif" font-size="30" x="-25" y="-62.7273" >2</text>
<line fill="none" stroke="black" stroke-width="6" x1="0.0" y1="145.455" x2="-20" y2="145.455" />
<text transform="scale(1,-1)" text-anchor="end" font-family="sans-serif" font-size="30" x="-25" y="-135.455" >4</text>
<line fill="none" stroke="black" stroke-width="6" x1="0.0" y1="218.182" x2="-20" y2="218.182" />
<text transform="scale(1,-1)" text-anchor="end" font-family="sans-serif" font-size="30" x="-25" y="-208.182" >6</text>
<line fill="none" stroke="black" stroke-width="6" x1="0.0" y1="290.909" x2="-20" y2="290.909" />
<text transform="scale(1,-1)" text-anchor="end" font-family="sans-serif" font-size="30" x="-25" y="-280.909" >8</text>
<line fill="none" stroke="black" stroke-width="6" x1="0.0" y1="363.636" x2="-20" y2="363.636" />
<text transform="scale(1,-1)" text-anchor="end" font-family="sans-serif" font-size="30" x="-25" y="-353.636" >10</text>
<line fill="none" stroke="black" stroke-width="6" x1="0.0" y1="436.364" x2="-20" y2="436.364" />
<text transform="scale(1,-1)" text-anchor="end" font-family="sans-serif" font-size="30" x="-25" y="-426.364" >12</text>
<line fill="none" stroke="black" stroke-width="6" x1="0.0" y1="509.091" x2="-20" y2="509.091" />
<text transform="scale(1,-1)" text-anchor="end" font-family="sans-serif" font-size="30" x="-25" y="-499.091" >14</text>
<line fill="none" stroke="black" stroke-width="6" x1="0.0" y1="581.818" x2="-20" y2="581.818" />
<text transform="scale(1,-1)" text-anchor="end" font-family="sans-serif" font-size="30" x="-25" y="-571.818" >16</text>
<line fill="none" stroke="black" stroke-width="6" x1="0.0" y1="654.545" x2="-20" y2="654.545" />
<text transform="scale(1,-1)" text-anchor="end" font-family="sans-serif" font-size="30" x="-25" y="-644.545" >18</text>
<line fill="none" stroke="black" stroke-width="6" x1="0.0" y1="727.273" x2="-20" y2="727.273" />
<text transform="scale(1,-1)" text-anchor="end" font-family="sans-serif" font-size="30" x="-25" y="-717.273" >20</text>
<line fill="none" stroke="black" stroke-width="6" x1="0.0" y1="800" x2="-20" y2="800" />
<text transform="scale(1,-1)" text-anchor="end" font-family="sans-serif" font-size="30" x="-25" y="-790" >22</text>

-->
</g>
</g>
<!-- Run Constants
PRINTDISTANCEDATA bool true
GLITCHESONLY bool false
PERTURBBY double 0.05
GLITCHLEVEL double 3
BOUNDARYWINDOW double 0.065
STEPSPERFRAME int 100
TRIALS int 1
ALLBLACK bool true
FILEPREFIX string Fol
NIGGLISELLINGFIRST bool false
ENABLE DistanceEnableString 
DISABLE DistanceDisableString 
GRAPHSIZE int 0
BORDER int 0
PLOTSIZE int 0
AXISWIDTH int 6
TICLENGTH int 20
VECTOR g6 
FOLLOWERMODE FollowerMode point
FIXRANDOMSEED fixRandomSeed true
RANDOMSEED int 18
TIMESTAMP bool false
END end 


-->
</svg>
