<?xml version="1.0" standalone="no"?>
<svg width="2000" height ="5200" viewBox = "1 0 2000 5200" 
version = "1.1" xmlns="http://www.w3.org/2000/svg" xmlns:xlink="http://www.w3.org/1999/xlink">
<!-- Creation date and time _2018-03-21.09_58_19.-->
 inputVector1 -2196.99673 1895.71620 -2265.37819 -1638.64300 1619.76400 -3533.55446  
 inputVector2 -1803.99758 463.11750 -611.36466 -1542.04498 440.36100 -2162.20852  
 inputVector3 -100.08612 -416.95156 -211.61396 202.29220 -2065.55782 -1085.44452 

<!--
random seed 18  trial # 2
-->


<!--
Original File Name TF_2018-03-21.09_58_19.0.svg
-->


<!--
worst case ==================     -8.1857%
worst case distances, (12), (13), (23)   984042   674419   390173 %
-2739551.69518 -84455.28190 -1944816.69226 -1832770.09125 -16881211.74014 -8001372.01837  
-2762743.10218 -437315.57820 -1902077.65832 -1665981.11249 -16714110.06214 -8389960.08901  
-2735889.12001 -278709.93430 -2023119.50136 -1674732.90640 -16812212.34031 -8256964.16740  

-->

<g transform="translate(120,120) scale(1 1)" >
<g transform="scale(1,-1) ">
<g transform="translate(0,0) scale(1 1)" >
<g transform="translate(30,-1540) scale(1 1)" >
<!--  Dist23  -->
<rect x ="0" y ="0" width ="855" height ="725" style ="fill:whitesmoke; stroke:black; stroke-width:5; " />
<line label="Xaxis" fill="none" stroke-width="3" stroke="black" x1="30" y1="30" x2="769.5" y2="30" />
<line label="Yaxis" fill="none" stroke-width="3" stroke="black" x1="30" y1="30" x2="30" y2="652.5" />
<text transform="scale(1,-1)" text-anchor="start" font-family="sans-serif" font-size="30" x="71" y="-682.5" >Dist23</text>
<text transform="translate(0,0)  scale(1,-1)" text-anchor="middle" font-family="sans-serif" font-size="30" x="35" y="24.9" >1 </text>
<text transform="translate(0,0)  scale(1,-1)" text-anchor="middle" font-family="sans-serif" font-size="30" x="140" y="24.9" >2 </text>
<text transform="translate(0,0)  scale(1,-1)" text-anchor="middle" font-family="sans-serif" font-size="30" x="246" y="24.9" >3 </text>
<text transform="translate(0,0)  scale(1,-1)" text-anchor="middle" font-family="sans-serif" font-size="30" x="351" y="24.9" >4 </text>
<text transform="translate(0,0)  scale(1,-1)" text-anchor="middle" font-family="sans-serif" font-size="30" x="457" y="24.9" >5 </text>
<text transform="translate(0,0)  scale(1,-1)" text-anchor="middle" font-family="sans-serif" font-size="30" x="563" y="24.9" >6 </text>
<text transform="translate(0,0)  scale(1,-1)" text-anchor="middle" font-family="sans-serif" font-size="30" x="668" y="24.9" >7 </text>
<text transform="translate(0,0)  scale(1,-1)" text-anchor="middle" font-family="sans-serif" font-size="30" x="774" y="24.9" >8 </text>

<line fill="none" stroke="black" stroke-width="6" x1="30" y1="10" x2="30" y2="30" />
<line fill="none" stroke="black" stroke-width="6" x1="135" y1="10" x2="135" y2="30" />
<line fill="none" stroke="black" stroke-width="6" x1="241" y1="10" x2="241" y2="30" />
<line fill="none" stroke="black" stroke-width="6" x1="346" y1="10" x2="346" y2="30" />
<line fill="none" stroke="black" stroke-width="6" x1="452" y1="10" x2="452" y2="30" />
<line fill="none" stroke="black" stroke-width="6" x1="558" y1="10" x2="558" y2="30" />
<line fill="none" stroke="black" stroke-width="6" x1="663" y1="10" x2="663" y2="30" />
<line fill="none" stroke="black" stroke-width="6" x1="769" y1="10" x2="769" y2="30" />

<text transform="translate(0,725) scale(1,-1)" text-anchor="end" font-family="sans-serif" font-size="30" x="-15" y="85" >500 K</text>
<text transform="translate(0,725) scale(1,-1)" text-anchor="end" font-family="sans-serif" font-size="30" x="-15" y="209" >400 K</text>
<text transform="translate(0,725) scale(1,-1)" text-anchor="end" font-family="sans-serif" font-size="30" x="-15" y="333" >300 K</text>
<text transform="translate(0,725) scale(1,-1)" text-anchor="end" font-family="sans-serif" font-size="30" x="-15" y="457" >200 K</text>
<text transform="translate(0,725) scale(1,-1)" text-anchor="end" font-family="sans-serif" font-size="30" x="-15" y="581" >100 K</text>
<text transform="translate(0,725) scale(1,-1)" text-anchor="end" font-family="sans-serif" font-size="30" x="-15" y="705" >0</text>

<line fill="none" stroke="black" stroke-width="6" x1="10" y1="30" x2="30" y2="30" />
<line fill="none" stroke="black" stroke-width="6" x1="10" y1="154" x2="30" y2="154" />
<line fill="none" stroke="black" stroke-width="6" x1="10" y1="278" x2="30" y2="278" />
<line fill="none" stroke="black" stroke-width="6" x1="10" y1="402" x2="30" y2="402" />
<line fill="none" stroke="black" stroke-width="6" x1="10" y1="526" x2="30" y2="526" />
<line fill="none" stroke="black" stroke-width="6" x1="10" y1="650" x2="30" y2="650" />

   <polyline fill="none" stroke= "blue"  stroke-width=" 3 " points=" 30 , 395.178  135.643 , 61.0605  241.286 , 48.3669  346.929 , 44.3755  452.571 , 40.9946  558.214 , 43.5747  663.857 , 48.0414  769.5 , 43.4957  " />

   <polyline fill="none" stroke= "orange"  stroke-width=" 3 " points=" 30 , 354.457  135.643 , 50.5934  241.286 , 46.5365  346.929 , 47.3201  452.571 , 46.2556  558.214 , 52.6101  663.857 , 49.5084  769.5 , 44.1418  " />

   <polyline fill="none" stroke= "black"  stroke-width=" 3 " points=" 30 , 597.576  135.643 , 67.4814  241.286 , 55.6965  346.929 , 57.9981  452.571 , 52.9875  558.214 , 46.4285  663.857 , 41.9721  769.5 , 41.368  " />

</g>
</g>
<g transform="translate(30,-725) scale(1 1)" >
<!--  Triangle Violation Percent (of longest side)  -->
<rect x ="0" y ="0" width ="855" height ="725" style ="fill:whitesmoke; stroke:black; stroke-width:5; " />
<line label="Xaxis" fill="none" stroke-width="3" stroke="black" x1="30" y1="30" x2="769.5" y2="30" />
<line label="Yaxis" fill="none" stroke-width="3" stroke="black" x1="30" y1="30" x2="30" y2="652.5" />
<text transform="scale(1,-1)" text-anchor="start" font-family="sans-serif" font-size="30" x="71" y="-682.5" >Triangle Violation Percent (of longest side)</text>
<text transform="translate(0,0)  scale(1,-1)" text-anchor="middle" font-family="sans-serif" font-size="30" x="35" y="24.9" >1 </text>
<text transform="translate(0,0)  scale(1,-1)" text-anchor="middle" font-family="sans-serif" font-size="30" x="140" y="24.9" >2 </text>
<text transform="translate(0,0)  scale(1,-1)" text-anchor="middle" font-family="sans-serif" font-size="30" x="246" y="24.9" >3 </text>
<text transform="translate(0,0)  scale(1,-1)" text-anchor="middle" font-family="sans-serif" font-size="30" x="351" y="24.9" >4 </text>
<text transform="translate(0,0)  scale(1,-1)" text-anchor="middle" font-family="sans-serif" font-size="30" x="457" y="24.9" >5 </text>
<text transform="translate(0,0)  scale(1,-1)" text-anchor="middle" font-family="sans-serif" font-size="30" x="563" y="24.9" >6 </text>
<text transform="translate(0,0)  scale(1,-1)" text-anchor="middle" font-family="sans-serif" font-size="30" x="668" y="24.9" >7 </text>
<text transform="translate(0,0)  scale(1,-1)" text-anchor="middle" font-family="sans-serif" font-size="30" x="774" y="24.9" >8 </text>

<line fill="none" stroke="black" stroke-width="6" x1="30" y1="10" x2="30" y2="30" />
<line fill="none" stroke="black" stroke-width="6" x1="135" y1="10" x2="135" y2="30" />
<line fill="none" stroke="black" stroke-width="6" x1="241" y1="10" x2="241" y2="30" />
<line fill="none" stroke="black" stroke-width="6" x1="346" y1="10" x2="346" y2="30" />
<line fill="none" stroke="black" stroke-width="6" x1="452" y1="10" x2="452" y2="30" />
<line fill="none" stroke="black" stroke-width="6" x1="558" y1="10" x2="558" y2="30" />
<line fill="none" stroke="black" stroke-width="6" x1="663" y1="10" x2="663" y2="30" />
<line fill="none" stroke="black" stroke-width="6" x1="769" y1="10" x2="769" y2="30" />

<text transform="translate(0,725) scale(1,-1)" text-anchor="end" font-family="sans-serif" font-size="30" x="-15" y="85" >0</text>
<text transform="translate(0,725) scale(1,-1)" text-anchor="end" font-family="sans-serif" font-size="30" x="-15" y="154" >-10</text>
<text transform="translate(0,725) scale(1,-1)" text-anchor="end" font-family="sans-serif" font-size="30" x="-15" y="223" >-20</text>
<text transform="translate(0,725) scale(1,-1)" text-anchor="end" font-family="sans-serif" font-size="30" x="-15" y="292" >-30</text>
<text transform="translate(0,725) scale(1,-1)" text-anchor="end" font-family="sans-serif" font-size="30" x="-15" y="361" >-40</text>
<text transform="translate(0,725) scale(1,-1)" text-anchor="end" font-family="sans-serif" font-size="30" x="-15" y="430" >-50</text>
<text transform="translate(0,725) scale(1,-1)" text-anchor="end" font-family="sans-serif" font-size="30" x="-15" y="499" >-60</text>
<text transform="translate(0,725) scale(1,-1)" text-anchor="end" font-family="sans-serif" font-size="30" x="-15" y="568" >-70</text>
<text transform="translate(0,725) scale(1,-1)" text-anchor="end" font-family="sans-serif" font-size="30" x="-15" y="637" >-80</text>
<text transform="translate(0,725) scale(1,-1)" text-anchor="end" font-family="sans-serif" font-size="30" x="-15" y="706" >-90</text>

<line fill="none" stroke="black" stroke-width="6" x1="10" y1="30" x2="30" y2="30" />
<line fill="none" stroke="black" stroke-width="6" x1="10" y1="99" x2="30" y2="99" />
<line fill="none" stroke="black" stroke-width="6" x1="10" y1="168" x2="30" y2="168" />
<line fill="none" stroke="black" stroke-width="6" x1="10" y1="237" x2="30" y2="237" />
<line fill="none" stroke="black" stroke-width="6" x1="10" y1="306" x2="30" y2="306" />
<line fill="none" stroke="black" stroke-width="6" x1="10" y1="375" x2="30" y2="375" />
<line fill="none" stroke="black" stroke-width="6" x1="10" y1="444" x2="30" y2="444" />
<line fill="none" stroke="black" stroke-width="6" x1="10" y1="513" x2="30" y2="513" />
<line fill="none" stroke="black" stroke-width="6" x1="10" y1="582" x2="30" y2="582" />
<line fill="none" stroke="black" stroke-width="6" x1="10" y1="651" x2="30" y2="651" />

   <polyline fill="none" stroke= "blue"  stroke-width=" 3 " points=" 30 , 182.209  135.643 , 66.8223  241.286 , 460.797  346.929 , 524.047  452.571 , 201.527  558.214 , 401.065  663.857 , 384.198  769.5 , 128.095  " />

   <polyline fill="none" stroke= "orange"  stroke-width=" 3 " points=" 30 , 585.724  135.643 , 490.344  241.286 , 448.312  346.929 , 357.782  452.571 , 161.067  558.214 , 387.781  663.857 , 196.127  769.5 , 128.095  " />

   <polyline fill="none" stroke= "black"  stroke-width=" 3 " points=" 30 , 212.916  135.643 , 212.916  241.286 , 314.701  346.929 , 495.627  452.571 , 387.081  558.214 , 107.168  663.857 , 331.109  769.5 , 128.095  " />

</g>
<g transform="translate(975,-725) scale(1 1)" >
<!--  Dist12  -->
<rect x ="0" y ="0" width ="855" height ="725" style ="fill:whitesmoke; stroke:black; stroke-width:5; " />
<line label="Xaxis" fill="none" stroke-width="3" stroke="black" x1="30" y1="30" x2="769.5" y2="30" />
<line label="Yaxis" fill="none" stroke-width="3" stroke="black" x1="30" y1="30" x2="30" y2="652.5" />
<text transform="scale(1,-1)" text-anchor="start" font-family="sans-serif" font-size="30" x="71" y="-682.5" >Dist12</text>
<text transform="translate(0,0)  scale(1,-1)" text-anchor="middle" font-family="sans-serif" font-size="30" x="35" y="24.9" >1 </text>
<text transform="translate(0,0)  scale(1,-1)" text-anchor="middle" font-family="sans-serif" font-size="30" x="140" y="24.9" >2 </text>
<text transform="translate(0,0)  scale(1,-1)" text-anchor="middle" font-family="sans-serif" font-size="30" x="246" y="24.9" >3 </text>
<text transform="translate(0,0)  scale(1,-1)" text-anchor="middle" font-family="sans-serif" font-size="30" x="351" y="24.9" >4 </text>
<text transform="translate(0,0)  scale(1,-1)" text-anchor="middle" font-family="sans-serif" font-size="30" x="457" y="24.9" >5 </text>
<text transform="translate(0,0)  scale(1,-1)" text-anchor="middle" font-family="sans-serif" font-size="30" x="563" y="24.9" >6 </text>
<text transform="translate(0,0)  scale(1,-1)" text-anchor="middle" font-family="sans-serif" font-size="30" x="668" y="24.9" >7 </text>
<text transform="translate(0,0)  scale(1,-1)" text-anchor="middle" font-family="sans-serif" font-size="30" x="774" y="24.9" >8 </text>

<line fill="none" stroke="black" stroke-width="6" x1="30" y1="10" x2="30" y2="30" />
<line fill="none" stroke="black" stroke-width="6" x1="135" y1="10" x2="135" y2="30" />
<line fill="none" stroke="black" stroke-width="6" x1="241" y1="10" x2="241" y2="30" />
<line fill="none" stroke="black" stroke-width="6" x1="346" y1="10" x2="346" y2="30" />
<line fill="none" stroke="black" stroke-width="6" x1="452" y1="10" x2="452" y2="30" />
<line fill="none" stroke="black" stroke-width="6" x1="558" y1="10" x2="558" y2="30" />
<line fill="none" stroke="black" stroke-width="6" x1="663" y1="10" x2="663" y2="30" />
<line fill="none" stroke="black" stroke-width="6" x1="769" y1="10" x2="769" y2="30" />

<text transform="translate(0,725) scale(1,-1)" text-anchor="end" font-family="sans-serif" font-size="30" x="-15" y="85" >600 K</text>
<text transform="translate(0,725) scale(1,-1)" text-anchor="end" font-family="sans-serif" font-size="30" x="-15" y="188" >500 K</text>
<text transform="translate(0,725) scale(1,-1)" text-anchor="end" font-family="sans-serif" font-size="30" x="-15" y="291" >400 K</text>
<text transform="translate(0,725) scale(1,-1)" text-anchor="end" font-family="sans-serif" font-size="30" x="-15" y="394" >300 K</text>
<text transform="translate(0,725) scale(1,-1)" text-anchor="end" font-family="sans-serif" font-size="30" x="-15" y="497" >200 K</text>
<text transform="translate(0,725) scale(1,-1)" text-anchor="end" font-family="sans-serif" font-size="30" x="-15" y="600" >100 K</text>
<text transform="translate(0,725) scale(1,-1)" text-anchor="end" font-family="sans-serif" font-size="30" x="-15" y="703" >0</text>

<line fill="none" stroke="black" stroke-width="6" x1="10" y1="30" x2="30" y2="30" />
<line fill="none" stroke="black" stroke-width="6" x1="10" y1="133" x2="30" y2="133" />
<line fill="none" stroke="black" stroke-width="6" x1="10" y1="236" x2="30" y2="236" />
<line fill="none" stroke="black" stroke-width="6" x1="10" y1="339" x2="30" y2="339" />
<line fill="none" stroke="black" stroke-width="6" x1="10" y1="442" x2="30" y2="442" />
<line fill="none" stroke="black" stroke-width="6" x1="10" y1="545" x2="30" y2="545" />
<line fill="none" stroke="black" stroke-width="6" x1="10" y1="648" x2="30" y2="648" />

   <polyline fill="none" stroke= "blue"  stroke-width=" 3 " points=" 30 , 398.852  135.643 , 53.6639  241.286 , 52.1805  346.929 , 46.2452  452.571 , 42.6226  558.214 , 46.1916  663.857 , 47.8113  769.5 , 41.7848  " />

   <polyline fill="none" stroke= "orange"  stroke-width=" 3 " points=" 30 , 629.256  135.643 , 60.7477  241.286 , 51.3102  346.929 , 43.9938  452.571 , 41.6528  558.214 , 43.3147  663.857 , 41.1218  769.5 , 39.4733  " />

   <polyline fill="none" stroke= "black"  stroke-width=" 3 " points=" 30 , 418.278  135.643 , 55.641  241.286 , 49.0149  346.929 , 57.4372  452.571 , 52.8421  558.214 , 47.1993  663.857 , 49.3161  769.5 , 41.2465  " />

</g>
<g transform="translate(975,-1540) scale(1 1)" >
<!--  Dist13  -->
<rect x ="0" y ="0" width ="855" height ="725" style ="fill:whitesmoke; stroke:black; stroke-width:5; " />
<line label="Xaxis" fill="none" stroke-width="3" stroke="black" x1="30" y1="30" x2="769.5" y2="30" />
<line label="Yaxis" fill="none" stroke-width="3" stroke="black" x1="30" y1="30" x2="30" y2="652.5" />
<text transform="scale(1,-1)" text-anchor="start" font-family="sans-serif" font-size="30" x="71" y="-682.5" >Dist13</text>
<text transform="translate(0,0)  scale(1,-1)" text-anchor="middle" font-family="sans-serif" font-size="30" x="35" y="24.9" >2 </text>
<text transform="translate(0,0)  scale(1,-1)" text-anchor="middle" font-family="sans-serif" font-size="30" x="158" y="24.9" >3 </text>
<text transform="translate(0,0)  scale(1,-1)" text-anchor="middle" font-family="sans-serif" font-size="30" x="281" y="24.9" >4 </text>
<text transform="translate(0,0)  scale(1,-1)" text-anchor="middle" font-family="sans-serif" font-size="30" x="404" y="24.9" >5 </text>
<text transform="translate(0,0)  scale(1,-1)" text-anchor="middle" font-family="sans-serif" font-size="30" x="528" y="24.9" >6 </text>
<text transform="translate(0,0)  scale(1,-1)" text-anchor="middle" font-family="sans-serif" font-size="30" x="651" y="24.9" >7 </text>
<text transform="translate(0,0)  scale(1,-1)" text-anchor="middle" font-family="sans-serif" font-size="30" x="774" y="24.9" >8 </text>

<line fill="none" stroke="black" stroke-width="6" x1="30" y1="10" x2="30" y2="30" />
<line fill="none" stroke="black" stroke-width="6" x1="153" y1="10" x2="153" y2="30" />
<line fill="none" stroke="black" stroke-width="6" x1="276" y1="10" x2="276" y2="30" />
<line fill="none" stroke="black" stroke-width="6" x1="399" y1="10" x2="399" y2="30" />
<line fill="none" stroke="black" stroke-width="6" x1="523" y1="10" x2="523" y2="30" />
<line fill="none" stroke="black" stroke-width="6" x1="646" y1="10" x2="646" y2="30" />
<line fill="none" stroke="black" stroke-width="6" x1="769" y1="10" x2="769" y2="30" />

<text transform="translate(0,725) scale(1,-1)" text-anchor="end" font-family="sans-serif" font-size="30" x="-15" y="85" >400 K</text>
<text transform="translate(0,725) scale(1,-1)" text-anchor="end" font-family="sans-serif" font-size="30" x="-15" y="240" >300 K</text>
<text transform="translate(0,725) scale(1,-1)" text-anchor="end" font-family="sans-serif" font-size="30" x="-15" y="395" >200 K</text>
<text transform="translate(0,725) scale(1,-1)" text-anchor="end" font-family="sans-serif" font-size="30" x="-15" y="550" >100 K</text>
<text transform="translate(0,725) scale(1,-1)" text-anchor="end" font-family="sans-serif" font-size="30" x="-15" y="705" >0</text>

<line fill="none" stroke="black" stroke-width="6" x1="10" y1="30" x2="30" y2="30" />
<line fill="none" stroke="black" stroke-width="6" x1="10" y1="185" x2="30" y2="185" />
<line fill="none" stroke="black" stroke-width="6" x1="10" y1="340" x2="30" y2="340" />
<line fill="none" stroke="black" stroke-width="6" x1="10" y1="495" x2="30" y2="495" />
<line fill="none" stroke="black" stroke-width="6" x1="10" y1="650" x2="30" y2="650" />

   <polyline fill="none" stroke= "blue"  stroke-width=" 3 " points=" 30 , 503.001  135.643 , 70.2442  241.286 , 74.0269  346.929 , 65.7059  452.571 , 47.5357  558.214 , 46.1481  663.857 , 44.5288  769.5 , 44.21  " />

   <polyline fill="none" stroke= "orange"  stroke-width=" 3 " points=" 30 , 610.094  135.643 , 61.1927  241.286 , 70.6388  346.929 , 59.9003  452.571 , 52.098  558.214 , 64.8838  663.857 , 54.7426  769.5 , 46.8697  " />

   <polyline fill="none" stroke= "black"  stroke-width=" 3 " points=" 30 , 607.952  135.643 , 68.1666  241.286 , 49.2854  346.929 , 45.4925  452.571 , 48.6769  558.214 , 55.908  663.857 , 57.4721  769.5 , 47.6772  " />

</g>
<g transform="translate(30,-2355) scale(1 1)" >
<rect x ="0" y ="0" width ="855" height ="725" style ="fill:whitesmoke; stroke:black; stroke-width:5; " />
<text transform="scale(1,-1)" text-anchor="start" font-family="sans-serif" font-size="30" x="71" y="-682.5" >LEGEND</text>
<g transform="translate(0,-50) scale(1 1)" >
<text transform="scale(1,-1)" text-anchor="start" font-family="sans-serif" font-size="30" x="71" y="-682.5" >Triangles are all scaled to area of input!</text>
</g>
<g transform="translate(0,-100) scale(1 1)" >
<text transform="scale(1,-1)" text-anchor="start" font-family="sans-serif" font-size="30" x="71" y="-682.5" >Blue -- Input vector #1 fixed</text>
</g>
<g transform="translate(0,-150) scale(1 1)" >
<text transform="scale(1,-1)" text-anchor="start" font-family="sans-serif" font-size="30" x="71" y="-682.5" >-  #2 = Input 2, #3 = Input 3</text>
</g>
<g transform="translate(0,-200) scale(1 1)" >
<text transform="scale(1,-1)" text-anchor="start" font-family="sans-serif" font-size="30" x="71" y="-682.5" >Orange -- Input vector #2 fixed</text>
</g>
<g transform="translate(0,-250) scale(1 1)" >
<text transform="scale(1,-1)" text-anchor="start" font-family="sans-serif" font-size="30" x="71" y="-682.5" >-  #2 = Input 3, #3 = Input 1</text>
</g>
<g transform="translate(0,-300) scale(1 1)" >
<text transform="scale(1,-1)" text-anchor="start" font-family="sans-serif" font-size="30" x="71" y="-682.5" >Black -- Input vector #3 fixed</text>
</g>
<g transform="translate(0,-350) scale(1 1)" >
<text transform="scale(1,-1)" text-anchor="start" font-family="sans-serif" font-size="30" x="71" y="-682.5" >-  #2 = Input 1, #3 = Input 2</text>
</g>
<g transform="translate(0,-400) scale(1 1)" >
<text transform="scale(1,-1)" text-anchor="start" font-family="sans-serif" font-size="30" x="71" y="-682.5" >Dist23 -- Distance between the two moving points</text>
</g>
<g transform="translate(0,-450) scale(1 1)" >
<text transform="scale(1,-1)" text-anchor="start" font-family="sans-serif" font-size="30" x="71" y="-682.5" ></text>
</g>
<g transform="translate(0,-500) scale(1 1)" >
<text transform="scale(1,-1)" text-anchor="start" font-family="sans-serif" font-size="30" x="71" y="-682.5" >Percent violation are percent of longest side</text>
</g>
<g transform="translate(0,-550) scale(1 1)" >
<text transform="scale(1,-1)" text-anchor="start" font-family="sans-serif" font-size="30" x="71" y="-682.5" >Impossible regions are surrounded by black bars</text>
</g>
<g transform="translate(0,-600) scale(1 1)" >
<text transform="scale(1,-1)" text-anchor="start" font-family="sans-serif" font-size="30" x="71" y="-682.5" >and filled by yellow</text>
</g>
<g transform="translate(0,-650) scale(1 1)" >
<text transform="scale(1,-1)" text-anchor="start" font-family="sans-serif" font-size="30" x="71" y="-682.5" >See log file for data</text>
</g>
</g>
</g>
</g>

<!--
  start  (first line, point 1 constant, followed by 2,3, blue)
-463912.18320 -1181507.96311 -2697728.99314 -17195937.50410 -198116.36719 -19885221.52797  
-713207.93165 -1298472.72482 -2557528.93568 -17185800.49711 -311746.04012 -19751449.34286  
-536057.42830 -1258180.99442 -2648225.32678 -17002749.56333 -391666.50049 -19821504.54525  
blue distances 12,13,23  1 355520 303936 293316 
====   (first line, point 1 constant, followed by 2,3, blue) 1 
-2814.59605 -7168.31281 -16367.35926 -104329.26648 -1201.98944 -120645.38937  
-25718.15612 -17914.22189 -3486.75277 -103397.94876 -11641.49374 -108355.33109  
-9442.79956 -14212.49784 -11819.30659 -86580.50168 -18984.02997 -114791.51601  
blue distances 12,13,23  2 22808.6 25859.7 24948.2 
====   (first line, point 1 constant, followed by 2,3, blue) 2 
-1681.47873 -4282.44953 -9778.08750 -62327.75124 -718.08517 -72075.22942  
-23039.84511 -56147.87453 -5103.85467 -11594.15910 -7675.78206 -62979.44709  
-9339.54524 -12421.13105 -4523.37710 -41821.25634 -21263.02604 -65311.80529  
blue distances 12,13,23  3 21378.8 28290.4 14752.6 
====   (first line, point 1 constant, followed by 2,3, blue) 3 
-897.55021 -2285.91263 -5219.40857 -33269.69605 -383.30398 -38472.76579  
-15283.51310 -25857.32371 -6560.62994 -5553.02045 -3370.18741 -33793.44675  
-6959.41481 -8728.21571 -1059.95881 -17037.45318 -16645.97937 -33119.06962  
blue distances 12,13,23  4 15658 22943.6 11546.6 
====   (first line, point 1 constant, followed by 2,3, blue) 4 
-518.73477 -1321.13206 -3016.53172 -19228.05852 -221.52867 -22235.14729  
-10558.29094 -12566.65640 -6008.83329 -2841.89388 -1527.59448 -19632.40923  
-4992.81591 -6621.34173 -170.26197 -6086.68899 -12511.03763 -18303.63472  
blue distances 12,13,23  5 12166.3 11267.9 8830.97 
====   (first line, point 1 constant, followed by 2,3, blue) 5 
-613.76917 -1563.16904 -3569.17310 -22750.72024 -262.11366 -26308.72040  
-14533.94842 -12055.90304 -9733.01733 -2927.77579 -1310.28697 -23349.42424  
-6331.17671 -3293.29812 -1127.73793 -7710.17323 -17498.42476 -21390.98693  
blue distances 12,13,23  6 15606.4 10376.3 10903.4 
====   (first line, point 1 constant, followed by 2,3, blue) 6 
-735.98273 -1874.42685 -4279.86591 -27280.83766 -314.30566 -31547.30588  
-19875.74815 -11083.32587 -14816.75236 -2989.41835 -975.02547 -28142.97902  
-6603.58738 -1496.26560 -8358.76024 -966.75174 -25710.97401 -23835.18175  
blue distances 12,13,23  7 17167.5 9335.78 14491.1 
====   (first line, point 1 constant, followed by 2,3, blue) 7 
-501.76036 -1277.90104 -2917.82263 -18598.86438 -214.27965 -21507.55306  
-15219.20695 -5256.45885 -12246.00227 -1682.62943 -258.28992 -19284.95932  
-3432.04310 -105.80350 -2436.41860 -2296.04937 -21148.36759 -10023.92241  
blue distances 12,13,23  8 11358.9 9130.91 10840 
====   (first line, point 1 constant, followed by 2,3, blue) 8 
  end    (first line, point 1 constant, followed by 2,3, blue)

  start distances blue
blue 1 355520 303936 293316 
blue 2 22808.6 25859.7 24948.2 
blue 3 21378.8 28290.4 14752.6 
blue 4 15658 22943.6 11546.6 
blue 5 12166.3 11267.9 8830.97 
blue 6 15606.4 10376.3 10903.4 
blue 7 17167.5 9335.78 14491.1 
blue 8 11358.9 9130.91 10840 
  end distances blue
  start  (second line, point 1 constant, followed by 1,2, orange)
-2739551.69518 -84455.28190 -1944816.69226 -1832770.09125 -16881211.74014 -8001372.01837  
-2762743.10218 -437315.57820 -1902077.65832 -1665981.11249 -16714110.06214 -8389960.08901  
-2735889.12001 -278709.93430 -2023119.50136 -1674732.90640 -16812212.34031 -8256964.16740  
orange distances 12,13,23  1 577596 372751 260608 
====   (second line, point 1 constant, followed by 1,2, orange) 1 
-11745.11422 -362.08002 -8337.89493 -7857.52432 -72373.79767 -34303.79812  
-16221.31701 -2592.63957 -20299.55061 -2970.59218 -58554.78823 -56560.75352  
-13909.75246 -11018.97944 -10570.88055 -2402.41648 -65491.86734 -48494.69365  
orange distances 12,13,23  2 29636.3 20043.5 16540.9 
====   (second line, point 1 constant, followed by 1,2, orange) 2 
-10032.39114 -309.27995 -7122.02722 -6711.70632 -61819.93916 -29301.47071  
-15058.01514 -8637.29084 -2538.44023 -18339.08498 -41360.52582 -51162.93375  
-19876.73178 -5282.54710 -10905.16188 -10237.13688 -44182.89820 -46475.54887  
orange distances 12,13,23  3 20539.9 26113.3 13282.3 
====   (second line, point 1 constant, followed by 1,2, orange) 3 
-6981.62249 -215.23043 -4956.27660 -4670.73095 -43020.99785 -20391.13150  
-9774.45116 -13562.65877 -226.10271 -11916.88201 -24300.79450 -36046.98068  
-19396.41458 -802.34710 -8894.35614 -12820.15028 -22564.28845 -35858.82959  
orange distances 12,13,23  4 13488 19213.1 13911.7 
====   (second line, point 1 constant, followed by 1,2, orange) 4 
-5162.96846 -159.16471 -3665.20817 -3454.04476 -31814.38917 -15079.41297  
-5735.32503 -7215.47960 -971.94755 -14642.44443 -13683.97233 -27956.06183  
-16926.59054 -1531.87186 -12161.00896 -6010.90786 -12166.99291 -27586.23221  
orange distances 12,13,23  5 11231.6 14199.5 13056.7 
====   (second line, point 1 constant, followed by 1,2, orange) 5 
-8671.71766 -267.33292 -6156.08068 -5801.41079 -53435.42240 -25327.36987  
-6844.62959 -9155.69681 -3545.80176 -32060.16247 -15502.86552 -49417.64383  
-31771.34405 -6142.43894 -23931.04139 -8147.77307 -13841.32072 -47131.59647  
orange distances 12,13,23  6 12833.5 22415.3 18160.8 
====   (second line, point 1 constant, followed by 1,2, orange) 6 
-5920.97860 -182.53275 -4203.32204 -3961.15631 -36485.27372 -17293.32306  
-2769.54862 -4228.03858 -3727.44376 -26988.63842 -5477.45370 -35423.45471  
-23974.73570 -6631.23885 -18733.39403 -4233.05726 -4948.17241 -32725.79225  
orange distances 12,13,23  7 10719.8 15898.9 15669.4 
====   (second line, point 1 constant, followed by 1,2, orange) 7 
-3432.04310 -105.80350 -2436.41860 -2296.04937 -21148.36759 -10023.92241  
-501.76036 -1277.90104 -2917.82263 -18598.86438 -214.27965 -21507.55306  
-15219.20695 -5256.45885 -12246.00227 -1682.62943 -258.28992 -19284.95932  
orange distances 12,13,23  8 9130.91 10840 11358.9 
====   (second line, point 1 constant, followed by 1,2, orange) 8 
  end    (second line, point 1 constant, followed by 1,2, orange)

  start distances orange
orange 1 577596 372751 260608 
orange 2 29636.3 20043.5 16540.9 
orange 3 20539.9 26113.3 13282.3 
orange 4 13488 19213.1 13911.7 
orange 5 11231.6 14199.5 13056.7 
orange 6 12833.5 22415.3 18160.8 
orange 7 10719.8 15898.9 15669.4 
orange 8 9130.91 10840 11358.9 
  end distances orange
  start  (third line, point 1 constant, followed by3,1, black)
-22192562.01395 -7664938.74719 -17857051.67134 -2453600.78118 -376636.90626 -28121219.26589  
-22056209.97245 -7519280.77779 -17714008.87371 -2533097.03890 -645727.12542 -28088664.79109  
-22020500.56078 -7902044.48012 -17635933.62900 -2490246.58008 -418542.67661 -28111081.47726  
black distances 12,13,23  1 374244 371375 455884 
====   (third line, point 1 constant, followed by3,1, black) 1 
-96781.37582 -33426.66417 -77874.29084 -10700.11021 -1642.50698 -122636.14667  
-87776.99572 -23807.74166 -68428.06836 -15949.86307 -19412.61579 -120486.32287  
-85418.82702 -49084.58993 -63272.15597 -13120.11579 -4409.86917 -121966.67007  
black distances 12,13,23  2 24714.2 24524.8 30105.6 
====   (third line, point 1 constant, followed by3,1, black) 2 
-37111.00132 -12817.51750 -29861.04389 -4102.97747 -629.82240 -47025.06204  
-30433.51978 -5684.30269 -22855.90021 -7996.09698 -13807.80604 -45430.79251  
-28684.74555 -24429.14530 -19032.37106 -5897.60880 -2682.04696 -46528.59058  
black distances 12,13,23  3 18327.6 12392.2 20639.7 
====   (third line, point 1 constant, followed by3,1, black) 3 
-36110.18856 -12471.85355 -29055.74861 -3992.32801 -612.83730 -45756.88600  
-26475.01588 -2179.08733 -18947.78073 -9609.84691 -19627.81279 -43456.45850  
-23951.64810 -29226.67919 -13430.67621 -6581.86459 -3574.06420 -45040.50990  
black distances 12,13,23  4 26445.5 9955.05 22488.4 
====   (third line, point 1 constant, followed by3,1, black) 4 
-36565.86087 -12629.23513 -29422.40137 -4042.70695 -620.57065 -46334.28941  
-22444.10398 -1187.63316 -10395.95417 -14665.97068 -27333.64627 -42058.59391  
-20244.40283 -35120.68339 -8447.51836 -7518.86537 -4595.68106 -45372.63595  
black distances 12,13,23  5 22016.5 12001.2 18463.8 
====   (third line, point 1 constant, followed by3,1, black) 5 
-33198.36801 -11466.15957 -26712.77758 -3670.39829 -563.41988 -42067.18384  
-14410.75798 -4159.89084 -8038.79145 -7207.38950 -33591.05718 -34414.87946  
-14739.77661 -36902.64033 -2991.44128 -7601.72524 -5059.03164 -40979.61138  
black distances 12,13,23  6 16577.7 16647.7 13195.6 
====   (third line, point 1 constant, followed by3,1, black) 6 
-27607.75367 -9535.25513 -22214.33846 -3052.30221 -468.53982 -34983.05847  
-7022.34168 -6022.04795 -5521.01779 -914.30631 -35231.32960 -25483.96198  
-7827.73645 -5563.69813 -1402.63502 -33457.19222 -3541.73796 -35302.90584  
black distances 12,13,23  7 18617.9 17652.8 9616.15 
====   (third line, point 1 constant, followed by3,1, black) 7 
-15219.20695 -5256.45885 -12246.00227 -1682.62943 -258.28992 -19284.95932  
-3432.04310 -105.80350 -2436.41860 -2296.04937 -21148.36759 -10023.92241  
-501.76036 -1277.90104 -2917.82263 -18598.86438 -214.27965 -21507.55306  
black distances 12,13,23  8 10840 11358.9 9130.91 
====   (third line, point 1 constant, followed by3,1, black) 8 
  end    (third line, point 1 constant, followed by3,1, black)

  start distances black
black 1 374244 371375 455884 
black 2 24714.2 24524.8 30105.6 
black 3 18327.6 12392.2 20639.7 
black 4 26445.5 9955.05 22488.4 
black 5 22016.5 12001.2 18463.8 
black 6 16577.7 16647.7 13195.6 
black 7 18617.9 17652.8 9616.15 
black 8 10840 11358.9 9130.91 
  end distances black

-->

<!--

-->
<!-- Run Constants
CIRCLEPLOT bool true
DISTANCEPLOT bool true
PRINTDISTANCEDATA bool true
GLITCHESONLY bool false
PLOT 2doubles 3 4
PERTURBBY double 0.05
GLITCHLEVEL double -1.79769e+308
BOUNDARYWINDOW double 0.065
FRAMESPERPATH int 200
STEPSPERFRAME int 8
TRIALS int 5
ALLBLACK bool false
FILEPREFIX string TF
GRAPHSIZE int 0
BORDER int 0
PLOTSIZE int 0
CIRCLEPLOTSIZE int 2000
CIRCLERADIUS int 300
CIRCLESTROKEWIDTH int 30
G6LINEWIDTH int 3
DELONELINEWIDTH int 10
AXISWIDTH int 6
TICLENGTH int 20
VECTOR g6 
PERTURB g6Perturb 
MOVIEMODE MovieMode STAR
FOLLOWERMODE FollowerMode Follow
FIXRANDOMSEED fixRandomSeed true
RANDOMSEED int 18
TIMESTAMP bool true
END end 




-->
</svg>
