<?xml version="1.0" standalone="no"?>
<!-- the width and height set the total pixel output of the image in the browser -->
<!-- whatever is within the viewbox will be remapped to show in this size -->
<svg width="900" height="900" viewBox="1 0 900 900"  version="1.1" xmlns="http://www.w3.org/2000/svg" xmlns:xlink="http://www.w3.org/1999/xlink">
 <desc>ID (and file name) = Fol_2018-05-16.16_29_39.11_10.svg </desc> 
<text x = "-750" y="50" transform="rotate(-90)"  font-family="sans-serif" font-size="40" stroke ="lightgray" fill="none"> PointDistanceFollower   May 16 2018</text>
 <text x="560" y="30" font-family="sans-serif" font-size="20">Wall time passed: 1122 msec.</text>
<text x="300" y="60"   font-family="sans-serif" font-size="20" fill="lightblue">S6  lightblue</text>
<text x="300" y="85"   font-family="sans-serif" font-size="20" fill="slategrey">NCDist  slategrey</text>
<text x="300" y="110"  font-family="sans-serif" font-size="20" fill="violet">D7  violet</text>
<text x="300" y="135"  font-family="sans-serif" font-size="20" fill="olive">CS6Dist  olive</text>

 <text x="140"  y="30"  font-family="sans-serif" font-size="20" >Fol_2018-05-16.16_29_39.11_10.svg  </text> 


 <!--DISTANCE PLOT BEGINS-->


<!-- the following will scale and place the distance plot -->
<g  transform="translate(0, 50) ">
<g transform="translate(150,700) scale(1 -1)">
<line fill="none" stroke="lightblue" stroke-width="12" x1="0" y1="451.823" x2="5.94059" y2="451.823" />
<line fill="none" stroke="lightblue" stroke-width="12" x1="5.94059" y1="451.823" x2="11.8812" y2="455.496" />
<line fill="none" stroke="lightblue" stroke-width="12" x1="11.8812" y1="455.496" x2="17.8218" y2="457.348" />
<line fill="none" stroke="lightblue" stroke-width="12" x1="17.8218" y1="457.348" x2="23.7624" y2="460.448" />
<line fill="none" stroke="lightblue" stroke-width="12" x1="23.7624" y1="460.448" x2="29.703" y2="463.657" />
<line fill="none" stroke="lightblue" stroke-width="12" x1="29.703" y1="463.657" x2="35.6436" y2="466.972" />
<line fill="none" stroke="lightblue" stroke-width="12" x1="35.6436" y1="466.972" x2="41.5842" y2="470.391" />
<line fill="none" stroke="lightblue" stroke-width="12" x1="41.5842" y1="470.391" x2="47.5248" y2="473.912" />
<line fill="none" stroke="lightblue" stroke-width="12" x1="47.5248" y1="473.912" x2="53.4653" y2="477.255" />
<line fill="none" stroke="lightblue" stroke-width="12" x1="53.4653" y1="477.255" x2="59.4059" y2="480.507" />
<line fill="none" stroke="lightblue" stroke-width="12" x1="59.4059" y1="480.507" x2="65.3465" y2="483.861" />
<line fill="none" stroke="lightblue" stroke-width="12" x1="65.3465" y1="483.861" x2="71.2871" y2="487.315" />
<line fill="none" stroke="lightblue" stroke-width="12" x1="71.2871" y1="487.315" x2="77.2277" y2="490.866" />
<line fill="none" stroke="lightblue" stroke-width="12" x1="77.2277" y1="490.866" x2="83.1683" y2="494.312" />
<line fill="none" stroke="lightblue" stroke-width="12" x1="83.1683" y1="494.312" x2="89.1089" y2="495.527" />
<line fill="none" stroke="lightblue" stroke-width="12" x1="89.1089" y1="495.527" x2="95.0495" y2="496.811" />
<line fill="none" stroke="lightblue" stroke-width="12" x1="95.0495" y1="496.811" x2="100.99" y2="498.141" />
<line fill="none" stroke="lightblue" stroke-width="12" x1="100.99" y1="498.141" x2="106.931" y2="499.587" />
<line fill="none" stroke="lightblue" stroke-width="12" x1="106.931" y1="499.587" x2="112.871" y2="501.149" />
<line fill="none" stroke="lightblue" stroke-width="12" x1="112.871" y1="501.149" x2="118.812" y2="502.826" />
<line fill="none" stroke="lightblue" stroke-width="12" x1="118.812" y1="502.826" x2="124.752" y2="504.615" />
<line fill="none" stroke="lightblue" stroke-width="12" x1="124.752" y1="504.615" x2="130.693" y2="506.516" />
<line fill="none" stroke="lightblue" stroke-width="12" x1="130.693" y1="506.516" x2="136.634" y2="509.127" />
<line fill="none" stroke="lightblue" stroke-width="12" x1="136.634" y1="509.127" x2="142.574" y2="512.664" />
<line fill="none" stroke="lightblue" stroke-width="12" x1="142.574" y1="512.664" x2="148.515" y2="516.128" />
<line fill="none" stroke="lightblue" stroke-width="12" x1="148.515" y1="516.128" x2="154.455" y2="529.675" />
<line fill="none" stroke="lightblue" stroke-width="12" x1="154.455" y1="529.675" x2="160.396" y2="546.236" />
<line fill="none" stroke="lightblue" stroke-width="12" x1="160.396" y1="546.236" x2="166.337" y2="568.808" />
<line fill="none" stroke-dasharray = "10, 10"  stroke="orange" stroke-width="6" x1="166.337" y1="300" x2="172.277" y2="300" />
<line fill="none" stroke-dasharray = "10, 10"  stroke="orange" stroke-width="6" x1="172.277" y1="300" x2="178.218" y2="300" />
<line fill="none" stroke-dasharray = "10, 10"  stroke="orange" stroke-width="6" x1="178.218" y1="300" x2="184.158" y2="300" />
<line fill="none" stroke-dasharray = "10, 10"  stroke="orange" stroke-width="6" x1="184.158" y1="300" x2="190.099" y2="300" />
<line fill="none" stroke-dasharray = "10, 10"  stroke="orange" stroke-width="6" x1="190.099" y1="300" x2="196.04" y2="300" />
<line fill="none" stroke-dasharray = "10, 10"  stroke="orange" stroke-width="6" x1="196.04" y1="300" x2="201.98" y2="300" />
<line fill="none" stroke-dasharray = "10, 10"  stroke="orange" stroke-width="6" x1="201.98" y1="300" x2="207.921" y2="300" />
<line fill="none" stroke-dasharray = "10, 10"  stroke="orange" stroke-width="6" x1="207.921" y1="300" x2="213.861" y2="300" />
<line fill="none" stroke-dasharray = "10, 10"  stroke="orange" stroke-width="6" x1="213.861" y1="300" x2="219.802" y2="300" />
<line fill="none" stroke-dasharray = "10, 10"  stroke="orange" stroke-width="6" x1="219.802" y1="300" x2="225.743" y2="300" />
<line fill="none" stroke-dasharray = "10, 10"  stroke="orange" stroke-width="6" x1="225.743" y1="300" x2="231.683" y2="300" />
<line fill="none" stroke-dasharray = "10, 10"  stroke="orange" stroke-width="6" x1="231.683" y1="300" x2="237.624" y2="300" />
<line fill="none" stroke-dasharray = "10, 10"  stroke="orange" stroke-width="6" x1="237.624" y1="300" x2="243.564" y2="300" />
<line fill="none" stroke-dasharray = "10, 10"  stroke="orange" stroke-width="6" x1="243.564" y1="300" x2="249.505" y2="300" />
<line fill="none" stroke-dasharray = "10, 10"  stroke="orange" stroke-width="6" x1="249.505" y1="300" x2="255.446" y2="300" />
<line fill="none" stroke-dasharray = "10, 10"  stroke="orange" stroke-width="6" x1="255.446" y1="300" x2="261.386" y2="300" />
<line fill="none" stroke-dasharray = "10, 10"  stroke="orange" stroke-width="6" x1="261.386" y1="300" x2="267.327" y2="300" />
<line fill="none" stroke-dasharray = "10, 10"  stroke="orange" stroke-width="6" x1="267.327" y1="300" x2="273.267" y2="300" />
<line fill="none" stroke-dasharray = "10, 10"  stroke="orange" stroke-width="6" x1="273.267" y1="300" x2="279.208" y2="300" />
<line fill="none" stroke-dasharray = "10, 10"  stroke="orange" stroke-width="6" x1="279.208" y1="300" x2="285.149" y2="300" />
<line fill="none" stroke-dasharray = "10, 10"  stroke="orange" stroke-width="6" x1="285.149" y1="300" x2="291.089" y2="300" />
<line fill="none" stroke-dasharray = "10, 10"  stroke="orange" stroke-width="6" x1="291.089" y1="300" x2="297.03" y2="300" />
<line fill="none" stroke-dasharray = "10, 10"  stroke="orange" stroke-width="6" x1="297.03" y1="300" x2="302.97" y2="300" />
<line fill="none" stroke-dasharray = "10, 10"  stroke="orange" stroke-width="6" x1="302.97" y1="300" x2="308.911" y2="300" />
<line fill="none" stroke-dasharray = "10, 10"  stroke="orange" stroke-width="6" x1="308.911" y1="300" x2="314.851" y2="300" />
<line fill="none" stroke-dasharray = "10, 10"  stroke="orange" stroke-width="6" x1="314.851" y1="300" x2="320.792" y2="300" />
<line fill="none" stroke-dasharray = "10, 10"  stroke="orange" stroke-width="6" x1="320.792" y1="300" x2="326.733" y2="300" />
<line fill="none" stroke-dasharray = "10, 10"  stroke="orange" stroke-width="6" x1="326.733" y1="300" x2="332.673" y2="300" />
<line fill="none" stroke-dasharray = "10, 10"  stroke="orange" stroke-width="6" x1="332.673" y1="300" x2="338.614" y2="300" />
<line fill="none" stroke-dasharray = "10, 10"  stroke="orange" stroke-width="6" x1="338.614" y1="300" x2="344.554" y2="300" />
<line fill="none" stroke-dasharray = "10, 10"  stroke="orange" stroke-width="6" x1="344.554" y1="300" x2="350.495" y2="300" />
<line fill="none" stroke-dasharray = "10, 10"  stroke="orange" stroke-width="6" x1="350.495" y1="300" x2="356.436" y2="300" />
<line fill="none" stroke-dasharray = "10, 10"  stroke="orange" stroke-width="6" x1="356.436" y1="300" x2="362.376" y2="300" />
<line fill="none" stroke-dasharray = "10, 10"  stroke="orange" stroke-width="6" x1="362.376" y1="300" x2="368.317" y2="300" />
<line fill="none" stroke-dasharray = "10, 10"  stroke="orange" stroke-width="6" x1="368.317" y1="300" x2="374.257" y2="300" />
<line fill="none" stroke-dasharray = "10, 10"  stroke="orange" stroke-width="6" x1="374.257" y1="300" x2="380.198" y2="300" />
<line fill="none" stroke-dasharray = "10, 10"  stroke="orange" stroke-width="6" x1="380.198" y1="300" x2="386.139" y2="300" />
<line fill="none" stroke-dasharray = "10, 10"  stroke="orange" stroke-width="6" x1="386.139" y1="300" x2="392.079" y2="300" />
<line fill="none" stroke-dasharray = "10, 10"  stroke="orange" stroke-width="6" x1="392.079" y1="300" x2="398.02" y2="300" />
<line fill="none" stroke-dasharray = "10, 10"  stroke="orange" stroke-width="6" x1="398.02" y1="300" x2="403.96" y2="300" />
<line fill="none" stroke-dasharray = "10, 10"  stroke="orange" stroke-width="6" x1="403.96" y1="300" x2="409.901" y2="300" />
<line fill="none" stroke-dasharray = "10, 10"  stroke="orange" stroke-width="6" x1="409.901" y1="300" x2="415.842" y2="300" />
<line fill="none" stroke-dasharray = "10, 10"  stroke="orange" stroke-width="6" x1="415.842" y1="300" x2="421.782" y2="300" />
<line fill="none" stroke-dasharray = "10, 10"  stroke="orange" stroke-width="6" x1="421.782" y1="300" x2="427.723" y2="300" />
<line fill="none" stroke-dasharray = "10, 10"  stroke="orange" stroke-width="6" x1="427.723" y1="300" x2="433.663" y2="300" />
<line fill="none" stroke-dasharray = "10, 10"  stroke="orange" stroke-width="6" x1="433.663" y1="300" x2="439.604" y2="300" />
<line fill="none" stroke-dasharray = "10, 10"  stroke="orange" stroke-width="6" x1="439.604" y1="300" x2="445.545" y2="300" />
<line fill="none" stroke-dasharray = "10, 10"  stroke="orange" stroke-width="6" x1="445.545" y1="300" x2="451.485" y2="300" />
<line fill="none" stroke-dasharray = "10, 10"  stroke="orange" stroke-width="6" x1="451.485" y1="300" x2="457.426" y2="300" />
<line fill="none" stroke-dasharray = "10, 10"  stroke="orange" stroke-width="6" x1="457.426" y1="300" x2="463.366" y2="300" />
<line fill="none" stroke-dasharray = "10, 10"  stroke="orange" stroke-width="6" x1="463.366" y1="300" x2="469.307" y2="300" />
<line fill="none" stroke-dasharray = "10, 10"  stroke="orange" stroke-width="6" x1="469.307" y1="300" x2="475.248" y2="300" />
<line fill="none" stroke-dasharray = "10, 10"  stroke="orange" stroke-width="6" x1="475.248" y1="300" x2="481.188" y2="300" />
<line fill="none" stroke-dasharray = "10, 10"  stroke="orange" stroke-width="6" x1="481.188" y1="300" x2="487.129" y2="300" />
<line fill="none" stroke-dasharray = "10, 10"  stroke="orange" stroke-width="6" x1="487.129" y1="300" x2="493.069" y2="300" />
<line fill="none" stroke-dasharray = "10, 10"  stroke="orange" stroke-width="6" x1="493.069" y1="300" x2="499.01" y2="300" />
<line fill="none" stroke-dasharray = "10, 10"  stroke="orange" stroke-width="6" x1="499.01" y1="300" x2="504.95" y2="300" />
<line fill="none" stroke-dasharray = "10, 10"  stroke="orange" stroke-width="6" x1="504.95" y1="300" x2="510.891" y2="300" />
<line fill="none" stroke-dasharray = "10, 10"  stroke="orange" stroke-width="6" x1="510.891" y1="300" x2="516.832" y2="300" />
<line fill="none" stroke-dasharray = "10, 10"  stroke="orange" stroke-width="6" x1="516.832" y1="300" x2="522.772" y2="300" />
<line fill="none" stroke-dasharray = "10, 10"  stroke="orange" stroke-width="6" x1="522.772" y1="300" x2="528.713" y2="300" />
<line fill="none" stroke-dasharray = "10, 10"  stroke="orange" stroke-width="6" x1="528.713" y1="300" x2="534.653" y2="300" />
<line fill="none" stroke-dasharray = "10, 10"  stroke="orange" stroke-width="6" x1="534.653" y1="300" x2="540.594" y2="300" />
<line fill="none" stroke-dasharray = "10, 10"  stroke="orange" stroke-width="6" x1="540.594" y1="300" x2="546.535" y2="300" />
<line fill="none" stroke-dasharray = "10, 10"  stroke="orange" stroke-width="6" x1="546.535" y1="300" x2="552.475" y2="300" />
<line fill="none" stroke-dasharray = "10, 10"  stroke="orange" stroke-width="6" x1="552.475" y1="300" x2="558.416" y2="300" />
<line fill="none" stroke-dasharray = "10, 10"  stroke="orange" stroke-width="6" x1="558.416" y1="300" x2="564.356" y2="300" />
<line fill="none" stroke-dasharray = "10, 10"  stroke="orange" stroke-width="6" x1="564.356" y1="300" x2="570.297" y2="300" />
<line fill="none" stroke-dasharray = "10, 10"  stroke="orange" stroke-width="6" x1="570.297" y1="300" x2="576.238" y2="300" />
<line fill="none" stroke-dasharray = "10, 10"  stroke="orange" stroke-width="6" x1="576.238" y1="300" x2="582.178" y2="300" />
<line fill="none" stroke-dasharray = "10, 10"  stroke="orange" stroke-width="6" x1="582.178" y1="300" x2="588.119" y2="300" />
<line fill="none" stroke-dasharray = "10, 10"  stroke="orange" stroke-width="6" x1="588.119" y1="300" x2="594.059" y2="300" />
<line fill="none" stroke="olive" stroke-width="3" x1="0" y1="242.245" x2="5.94059" y2="242.245" />
<line fill="none" stroke="olive" stroke-width="3" x1="5.94059" y1="242.245" x2="11.8812" y2="238.076" />
<line fill="none" stroke="olive" stroke-width="3" x1="11.8812" y1="238.076" x2="17.8218" y2="233.497" />
<line fill="none" stroke="olive" stroke-width="3" x1="17.8218" y1="233.497" x2="23.7624" y2="226.997" />
<line fill="none" stroke="olive" stroke-width="3" x1="23.7624" y1="226.997" x2="29.703" y2="220.582" />
<line fill="none" stroke="olive" stroke-width="3" x1="29.703" y1="220.582" x2="35.6436" y2="214.263" />
<line fill="none" stroke="olive" stroke-width="3" x1="35.6436" y1="214.263" x2="41.5842" y2="208.046" />
<line fill="none" stroke="olive" stroke-width="3" x1="41.5842" y1="208.046" x2="47.5248" y2="201.944" />
<line fill="none" stroke="olive" stroke-width="3" x1="47.5248" y1="201.944" x2="53.4653" y2="195.968" />
<line fill="none" stroke="olive" stroke-width="3" x1="53.4653" y1="195.968" x2="59.4059" y2="190.129" />
<line fill="none" stroke="olive" stroke-width="3" x1="59.4059" y1="190.129" x2="65.3465" y2="184.444" />
<line fill="none" stroke="olive" stroke-width="3" x1="65.3465" y1="184.444" x2="71.2871" y2="178.927" />
<line fill="none" stroke="olive" stroke-width="3" x1="71.2871" y1="178.927" x2="77.2277" y2="173.597" />
<line fill="none" stroke="olive" stroke-width="3" x1="77.2277" y1="173.597" x2="83.1683" y2="168.472" />
<line fill="none" stroke="olive" stroke-width="3" x1="83.1683" y1="168.472" x2="89.1089" y2="163.574" />
<line fill="none" stroke="olive" stroke-width="3" x1="89.1089" y1="163.574" x2="95.0495" y2="158.927" />
<line fill="none" stroke="olive" stroke-width="3" x1="95.0495" y1="158.927" x2="100.99" y2="154.555" />
<line fill="none" stroke="olive" stroke-width="3" x1="100.99" y1="154.555" x2="106.931" y2="150.485" />
<line fill="none" stroke="olive" stroke-width="3" x1="106.931" y1="150.485" x2="112.871" y2="146.745" />
<line fill="none" stroke="olive" stroke-width="3" x1="112.871" y1="146.745" x2="118.812" y2="143.364" />
<line fill="none" stroke="olive" stroke-width="3" x1="118.812" y1="143.364" x2="124.752" y2="140.236" />
<line fill="none" stroke="olive" stroke-width="3" x1="124.752" y1="140.236" x2="130.693" y2="137.258" />
<line fill="none" stroke="olive" stroke-width="3" x1="130.693" y1="137.258" x2="136.634" y2="134.027" />
<line fill="none" stroke="olive" stroke-width="3" x1="136.634" y1="134.027" x2="142.574" y2="130.613" />
<line fill="none" stroke="olive" stroke-width="3" x1="142.574" y1="130.613" x2="148.515" y2="127.861" />
<line fill="none" stroke="olive" stroke-width="3" x1="148.515" y1="127.861" x2="154.455" y2="107.51" />
<line fill="none" stroke="olive" stroke-width="3" x1="154.455" y1="107.51" x2="160.396" y2="85.5215" />
<line fill="none" stroke="olive" stroke-width="3" x1="160.396" y1="85.5215" x2="166.337" y2="56.8476" />
<line fill="none" stroke-dasharray = "10, 10"  stroke="orange" stroke-width="6" x1="166.337" y1="300" x2="172.277" y2="300" />
<line fill="none" stroke-dasharray = "10, 10"  stroke="orange" stroke-width="6" x1="172.277" y1="300" x2="178.218" y2="300" />
<line fill="none" stroke-dasharray = "10, 10"  stroke="orange" stroke-width="6" x1="178.218" y1="300" x2="184.158" y2="300" />
<line fill="none" stroke-dasharray = "10, 10"  stroke="orange" stroke-width="6" x1="184.158" y1="300" x2="190.099" y2="300" />
<line fill="none" stroke-dasharray = "10, 10"  stroke="orange" stroke-width="6" x1="190.099" y1="300" x2="196.04" y2="300" />
<line fill="none" stroke-dasharray = "10, 10"  stroke="orange" stroke-width="6" x1="196.04" y1="300" x2="201.98" y2="300" />
<line fill="none" stroke-dasharray = "10, 10"  stroke="orange" stroke-width="6" x1="201.98" y1="300" x2="207.921" y2="300" />
<line fill="none" stroke-dasharray = "10, 10"  stroke="orange" stroke-width="6" x1="207.921" y1="300" x2="213.861" y2="300" />
<line fill="none" stroke-dasharray = "10, 10"  stroke="orange" stroke-width="6" x1="213.861" y1="300" x2="219.802" y2="300" />
<line fill="none" stroke-dasharray = "10, 10"  stroke="orange" stroke-width="6" x1="219.802" y1="300" x2="225.743" y2="300" />
<line fill="none" stroke-dasharray = "10, 10"  stroke="orange" stroke-width="6" x1="225.743" y1="300" x2="231.683" y2="300" />
<line fill="none" stroke-dasharray = "10, 10"  stroke="orange" stroke-width="6" x1="231.683" y1="300" x2="237.624" y2="300" />
<line fill="none" stroke-dasharray = "10, 10"  stroke="orange" stroke-width="6" x1="237.624" y1="300" x2="243.564" y2="300" />
<line fill="none" stroke-dasharray = "10, 10"  stroke="orange" stroke-width="6" x1="243.564" y1="300" x2="249.505" y2="300" />
<line fill="none" stroke-dasharray = "10, 10"  stroke="orange" stroke-width="6" x1="249.505" y1="300" x2="255.446" y2="300" />
<line fill="none" stroke-dasharray = "10, 10"  stroke="orange" stroke-width="6" x1="255.446" y1="300" x2="261.386" y2="300" />
<line fill="none" stroke-dasharray = "10, 10"  stroke="orange" stroke-width="6" x1="261.386" y1="300" x2="267.327" y2="300" />
<line fill="none" stroke-dasharray = "10, 10"  stroke="orange" stroke-width="6" x1="267.327" y1="300" x2="273.267" y2="300" />
<line fill="none" stroke-dasharray = "10, 10"  stroke="orange" stroke-width="6" x1="273.267" y1="300" x2="279.208" y2="300" />
<line fill="none" stroke-dasharray = "10, 10"  stroke="orange" stroke-width="6" x1="279.208" y1="300" x2="285.149" y2="300" />
<line fill="none" stroke-dasharray = "10, 10"  stroke="orange" stroke-width="6" x1="285.149" y1="300" x2="291.089" y2="300" />
<line fill="none" stroke-dasharray = "10, 10"  stroke="orange" stroke-width="6" x1="291.089" y1="300" x2="297.03" y2="300" />
<line fill="none" stroke-dasharray = "10, 10"  stroke="orange" stroke-width="6" x1="297.03" y1="300" x2="302.97" y2="300" />
<line fill="none" stroke-dasharray = "10, 10"  stroke="orange" stroke-width="6" x1="302.97" y1="300" x2="308.911" y2="300" />
<line fill="none" stroke-dasharray = "10, 10"  stroke="orange" stroke-width="6" x1="308.911" y1="300" x2="314.851" y2="300" />
<line fill="none" stroke-dasharray = "10, 10"  stroke="orange" stroke-width="6" x1="314.851" y1="300" x2="320.792" y2="300" />
<line fill="none" stroke-dasharray = "10, 10"  stroke="orange" stroke-width="6" x1="320.792" y1="300" x2="326.733" y2="300" />
<line fill="none" stroke-dasharray = "10, 10"  stroke="orange" stroke-width="6" x1="326.733" y1="300" x2="332.673" y2="300" />
<line fill="none" stroke-dasharray = "10, 10"  stroke="orange" stroke-width="6" x1="332.673" y1="300" x2="338.614" y2="300" />
<line fill="none" stroke-dasharray = "10, 10"  stroke="orange" stroke-width="6" x1="338.614" y1="300" x2="344.554" y2="300" />
<line fill="none" stroke-dasharray = "10, 10"  stroke="orange" stroke-width="6" x1="344.554" y1="300" x2="350.495" y2="300" />
<line fill="none" stroke-dasharray = "10, 10"  stroke="orange" stroke-width="6" x1="350.495" y1="300" x2="356.436" y2="300" />
<line fill="none" stroke-dasharray = "10, 10"  stroke="orange" stroke-width="6" x1="356.436" y1="300" x2="362.376" y2="300" />
<line fill="none" stroke-dasharray = "10, 10"  stroke="orange" stroke-width="6" x1="362.376" y1="300" x2="368.317" y2="300" />
<line fill="none" stroke-dasharray = "10, 10"  stroke="orange" stroke-width="6" x1="368.317" y1="300" x2="374.257" y2="300" />
<line fill="none" stroke-dasharray = "10, 10"  stroke="orange" stroke-width="6" x1="374.257" y1="300" x2="380.198" y2="300" />
<line fill="none" stroke-dasharray = "10, 10"  stroke="orange" stroke-width="6" x1="380.198" y1="300" x2="386.139" y2="300" />
<line fill="none" stroke-dasharray = "10, 10"  stroke="orange" stroke-width="6" x1="386.139" y1="300" x2="392.079" y2="300" />
<line fill="none" stroke-dasharray = "10, 10"  stroke="orange" stroke-width="6" x1="392.079" y1="300" x2="398.02" y2="300" />
<line fill="none" stroke-dasharray = "10, 10"  stroke="orange" stroke-width="6" x1="398.02" y1="300" x2="403.96" y2="300" />
<line fill="none" stroke-dasharray = "10, 10"  stroke="orange" stroke-width="6" x1="403.96" y1="300" x2="409.901" y2="300" />
<line fill="none" stroke-dasharray = "10, 10"  stroke="orange" stroke-width="6" x1="409.901" y1="300" x2="415.842" y2="300" />
<line fill="none" stroke-dasharray = "10, 10"  stroke="orange" stroke-width="6" x1="415.842" y1="300" x2="421.782" y2="300" />
<line fill="none" stroke-dasharray = "10, 10"  stroke="orange" stroke-width="6" x1="421.782" y1="300" x2="427.723" y2="300" />
<line fill="none" stroke-dasharray = "10, 10"  stroke="orange" stroke-width="6" x1="427.723" y1="300" x2="433.663" y2="300" />
<line fill="none" stroke-dasharray = "10, 10"  stroke="orange" stroke-width="6" x1="433.663" y1="300" x2="439.604" y2="300" />
<line fill="none" stroke-dasharray = "10, 10"  stroke="orange" stroke-width="6" x1="439.604" y1="300" x2="445.545" y2="300" />
<line fill="none" stroke-dasharray = "10, 10"  stroke="orange" stroke-width="6" x1="445.545" y1="300" x2="451.485" y2="300" />
<line fill="none" stroke-dasharray = "10, 10"  stroke="orange" stroke-width="6" x1="451.485" y1="300" x2="457.426" y2="300" />
<line fill="none" stroke-dasharray = "10, 10"  stroke="orange" stroke-width="6" x1="457.426" y1="300" x2="463.366" y2="300" />
<line fill="none" stroke-dasharray = "10, 10"  stroke="orange" stroke-width="6" x1="463.366" y1="300" x2="469.307" y2="300" />
<line fill="none" stroke-dasharray = "10, 10"  stroke="orange" stroke-width="6" x1="469.307" y1="300" x2="475.248" y2="300" />
<line fill="none" stroke-dasharray = "10, 10"  stroke="orange" stroke-width="6" x1="475.248" y1="300" x2="481.188" y2="300" />
<line fill="none" stroke-dasharray = "10, 10"  stroke="orange" stroke-width="6" x1="481.188" y1="300" x2="487.129" y2="300" />
<line fill="none" stroke-dasharray = "10, 10"  stroke="orange" stroke-width="6" x1="487.129" y1="300" x2="493.069" y2="300" />
<line fill="none" stroke-dasharray = "10, 10"  stroke="orange" stroke-width="6" x1="493.069" y1="300" x2="499.01" y2="300" />
<line fill="none" stroke-dasharray = "10, 10"  stroke="orange" stroke-width="6" x1="499.01" y1="300" x2="504.95" y2="300" />
<line fill="none" stroke-dasharray = "10, 10"  stroke="orange" stroke-width="6" x1="504.95" y1="300" x2="510.891" y2="300" />
<line fill="none" stroke-dasharray = "10, 10"  stroke="orange" stroke-width="6" x1="510.891" y1="300" x2="516.832" y2="300" />
<line fill="none" stroke-dasharray = "10, 10"  stroke="orange" stroke-width="6" x1="516.832" y1="300" x2="522.772" y2="300" />
<line fill="none" stroke-dasharray = "10, 10"  stroke="orange" stroke-width="6" x1="522.772" y1="300" x2="528.713" y2="300" />
<line fill="none" stroke-dasharray = "10, 10"  stroke="orange" stroke-width="6" x1="528.713" y1="300" x2="534.653" y2="300" />
<line fill="none" stroke-dasharray = "10, 10"  stroke="orange" stroke-width="6" x1="534.653" y1="300" x2="540.594" y2="300" />
<line fill="none" stroke-dasharray = "10, 10"  stroke="orange" stroke-width="6" x1="540.594" y1="300" x2="546.535" y2="300" />
<line fill="none" stroke-dasharray = "10, 10"  stroke="orange" stroke-width="6" x1="546.535" y1="300" x2="552.475" y2="300" />
<line fill="none" stroke-dasharray = "10, 10"  stroke="orange" stroke-width="6" x1="552.475" y1="300" x2="558.416" y2="300" />
<line fill="none" stroke-dasharray = "10, 10"  stroke="orange" stroke-width="6" x1="558.416" y1="300" x2="564.356" y2="300" />
<line fill="none" stroke-dasharray = "10, 10"  stroke="orange" stroke-width="6" x1="564.356" y1="300" x2="570.297" y2="300" />
<line fill="none" stroke-dasharray = "10, 10"  stroke="orange" stroke-width="6" x1="570.297" y1="300" x2="576.238" y2="300" />
<line fill="none" stroke-dasharray = "10, 10"  stroke="orange" stroke-width="6" x1="576.238" y1="300" x2="582.178" y2="300" />
<line fill="none" stroke-dasharray = "10, 10"  stroke="orange" stroke-width="6" x1="582.178" y1="300" x2="588.119" y2="300" />
<line fill="none" stroke-dasharray = "10, 10"  stroke="orange" stroke-width="6" x1="588.119" y1="300" x2="594.059" y2="300" />

<!--Draw Glitches -->

<line fill="none" stroke="black" stroke-width="4" x1="172.277" y1="-16.6667" x2="172.277" y2="-66.6667"  stroke-dasharray = "10,5" />
<text transform="scale(1,-1)" font-family="sans-serif" font-size="30" stroke = "rgb(0,0,0)" line = "rgb(0,0,0)"  fill = "lightblue" x="177.277" y="66.6667" >28</text>

<!-- -->


<!--Draw Glitches -->

<line fill="none" stroke="black" stroke-width="4" x1="172.277" y1="-16.6667" x2="172.277" y2="-66.6667"  stroke-dasharray = "10,5" />
<text transform="scale(1,-1)" font-family="sans-serif" font-size="30" stroke = "rgb(0,0,0)" line = "rgb(0,0,0)"  fill = "olive" x="177.277" y="66.6667" >28</text>

<!-- -->


<!--Draw the X and Y axes -->
<polyline fill="none" stroke="black" stroke-width="6"  points=" 600,0 0,0 0, 600" />
<polyline fill="none" stroke="black" stroke-width="1"  points=" 0 600  600 600  600 0" />
<!-- -->


<!--Draw labels and tics for X axis -->

<line fill="none" stroke="black"  stroke-width="6"  x1="0.5" y1="0" x2="0.5" y2="-20" />
<text transform="scale(1,-1)" font-family="sans-serif" font-size="30" x="-24.5" y="45" >0</text>
<line fill="none" stroke="black"  stroke-width="6"  x1="119.312" y1="0" x2="119.312" y2="-20" />
<text transform="scale(1,-1)" font-family="sans-serif" font-size="30" x="94.3119" y="45" >20</text>
<line fill="none" stroke="black"  stroke-width="6"  x1="238.124" y1="0" x2="238.124" y2="-20" />
<text transform="scale(1,-1)" font-family="sans-serif" font-size="30" x="213.124" y="45" >40</text>
<line fill="none" stroke="black"  stroke-width="6"  x1="356.936" y1="0" x2="356.936" y2="-20" />
<text transform="scale(1,-1)" font-family="sans-serif" font-size="30" x="331.936" y="45" >60</text>
<line fill="none" stroke="black"  stroke-width="6"  x1="475.748" y1="0" x2="475.748" y2="-20" />
<text transform="scale(1,-1)" font-family="sans-serif" font-size="30" x="450.748" y="45" >80</text>
<line fill="none" stroke="black"  stroke-width="6"  x1="594.559" y1="0" x2="594.559" y2="-20" />
<text transform="scale(1,-1)" font-family="sans-serif" font-size="30" x="569.559" y="45" >100</text>


<!--Draw labels and tics for Y axis -->

<line fill="none" stroke="black" stroke-width="6" x1="0.0" y1="0" x2="-20" y2="0" />
<text transform="scale(1,-1)" text-anchor="end" font-family="sans-serif" font-size="30" x="-25" y="10" >0</text>
<line fill="none" stroke="black" stroke-width="6" x1="0.0" y1="66.6667" x2="-20" y2="66.6667" />
<text transform="scale(1,-1)" text-anchor="end" font-family="sans-serif" font-size="30" x="-25" y="-56.6667" >10</text>
<line fill="none" stroke="black" stroke-width="6" x1="0.0" y1="133.333" x2="-20" y2="133.333" />
<text transform="scale(1,-1)" text-anchor="end" font-family="sans-serif" font-size="30" x="-25" y="-123.333" >20</text>
<line fill="none" stroke="black" stroke-width="6" x1="0.0" y1="200" x2="-20" y2="200" />
<text transform="scale(1,-1)" text-anchor="end" font-family="sans-serif" font-size="30" x="-25" y="-190" >30</text>
<line fill="none" stroke="black" stroke-width="6" x1="0.0" y1="266.667" x2="-20" y2="266.667" />
<text transform="scale(1,-1)" text-anchor="end" font-family="sans-serif" font-size="30" x="-25" y="-256.667" >40</text>
<line fill="none" stroke="black" stroke-width="6" x1="0.0" y1="333.333" x2="-20" y2="333.333" />
<text transform="scale(1,-1)" text-anchor="end" font-family="sans-serif" font-size="30" x="-25" y="-323.333" >50</text>
<line fill="none" stroke="black" stroke-width="6" x1="0.0" y1="400" x2="-20" y2="400" />
<text transform="scale(1,-1)" text-anchor="end" font-family="sans-serif" font-size="30" x="-25" y="-390" >60</text>
<line fill="none" stroke="black" stroke-width="6" x1="0.0" y1="466.667" x2="-20" y2="466.667" />
<text transform="scale(1,-1)" text-anchor="end" font-family="sans-serif" font-size="30" x="-25" y="-456.667" >70</text>
<line fill="none" stroke="black" stroke-width="6" x1="0.0" y1="533.333" x2="-20" y2="533.333" />
<text transform="scale(1,-1)" text-anchor="end" font-family="sans-serif" font-size="30" x="-25" y="-523.333" >80</text>
<line fill="none" stroke="black" stroke-width="6" x1="0.0" y1="600" x2="-20" y2="600" />
<text transform="scale(1,-1)" text-anchor="end" font-family="sans-serif" font-size="30" x="-25" y="-590" >90</text>

-->
</g>
</g>
<!-- Run Constants
PRINTDISTANCEDATA bool true
GLITCHESONLY bool true
PLOT 2doubles 3 4
PERTURBBY double 0.05
GLITCHLEVEL double 3
BOUNDARYWINDOW double 0.065
FRAMESPERPATH int 200
STEPSPERFRAME int 100
TRIALS int 1
ALLBLACK bool true
FILEPREFIX string Fol
GRAPHSIZE int 0
BORDER int 0
PLOTSIZE int 0
G6LINEWIDTH int 3
DELONELINEWIDTH int 10
AXISWIDTH int 6
TICLENGTH int 20
VECTOR g6 
FOLLOWERMODE FollowerMode line
FIXRANDOMSEED fixRandomSeed false
RANDOMSEED int 19191
TIMESTAMP bool true
END end 




-->
</svg>
