<?xml version="1.0" standalone="no"?>
<!-- the width and height set the total pixel output of the image in the browser -->
<!-- whatever is within the viewbox will be remapped to show in this size -->
<svg width="1000" height="1000" viewBox="1 0 1000 1000"  version="1.1" xmlns="http://www.w3.org/2000/svg" xmlns:xlink="http://www.w3.org/1999/xlink">
 <desc>ID (and file name) = Fol_2018-05-14.17_24_55.1_77.svg </desc> 
 <text x="560" y="30" font-family="sans-serif" font-size="20">Wall time passed: 1249 msec.</text>
<text x="300" y="60"   font-family="sans-serif" font-size="20" fill="lightblue">S6  lightblue</text>
<text x="300" y="85"   font-family="sans-serif" font-size="20" fill="slategrey">NCDist  slategrey</text>
<text x="300" y="110"  font-family="sans-serif" font-size="20" fill="violet">D7  violet</text>
<text x="300" y="135"  font-family="sans-serif" font-size="20" fill="olive">CS6Dist  olive</text>

 <text x="140"  y="30"  font-family="sans-serif" font-size="20" >Fol_2018-05-14.17_24_55.1_77.svg  </text> 


 <!--DISTANCE PLOT BEGINS-->


<!-- the following will scale and place the distance plot -->
<g  transform="translate(0,50) ">
<g transform="translate(150,700) scale(1 -1)">
   <polyline fill="none" stroke=" lightblue " stroke-width=" 12 " points=" 6,0 12,16.6895 18,33.3711 24,50.5065 30,67.7522 36,85.0412 42,102.351 48,119.674 54,137.004 60,154.339 66,171.677 72,182.801 78,183.405 84,184.667 90,186.575 96,189.109 102,192.244 108,195.951 114,200.199 120,204.954 126,210.181 132,215.846 138,221.916 144,228.359 150,235.143 156,242.24 162,249.624 168,257.269 174,265.153 180,273.256 186,281.558 192,290.042 198,298.693 204,307.497 210,316.442 216,325.514 222,334.705 228,344.004 234,353.403 240,362.894 246,372.471 252,382.126 258,391.854 264,401.65 270,411.509 276,426.2 282,435.968 288,445.956 294,456.148 300,466.532 306,466.69 312,461.107 318,455.879 324,451.02 330,446.54 336,442.451 342,438.765 348,435.491 354,432.64 360,430.218 366,428.234 372,426.694 378,425.602 384,424.963 390,424.777 396,425.046 402,425.768 408,426.942 414,426.355 420,414.101 426,401.954 432,389.924 438,376.799 444,363.602 450,350.46 456,337.378 462,324.364 468,311.426 474,298.575 480,285.821 486,273.18 492,258.499 498,242.997 504,227.686 510,212.606 516,197.809 522,183.365 528,169.364 534,155.925 540,143.207 546,131.418 552,120.294 558,109.432 564,100.234 570,84.1909 576,67.3527 582,50.5145 588,33.6764 594,16.8382 600,0 " />
   <polyline fill="none" stroke=" slategrey " stroke-width=" 9 " points=" " />
   <polyline fill="none" stroke=" violet " stroke-width=" 6 " points=" " />
   <polyline fill="none" stroke=" olive " stroke-width=" 3 " points=" 6,1.3487e-05 12,33.9924 18,47.1848 24,62.4461 30,78.5799 36,95.1435 42,111.946 48,128.894 54,145.938 60,163.046 66,180.201 72,190.532 78,191.203 84,192.505 90,194.426 96,196.948 102,200.048 108,203.699 114,207.873 120,212.538 126,217.664 132,223.218 138,229.169 144,235.487 150,242.144 156,249.112 162,256.366 168,263.882 174,271.639 180,279.616 186,287.795 192,296.16 198,304.695 204,313.387 210,322.222 216,331.189 222,340.278 228,349.479 234,358.783 240,368.183 246,377.672 252,387.243 258,396.89 264,406.607 270,416.391 276,514.493 282,507.223 288,500.234 294,493.538 300,487.146 306,481.071 312,475.325 318,469.92 324,464.867 330,460.179 336,455.867 342,451.941 348,448.412 354,445.288 360,442.579 366,440.293 372,438.435 378,437.011 384,436.027 390,435.483 396,435.383 402,435.726 408,436.512 414,426.355 420,414.101 426,401.954 432,389.924 438,376.799 444,363.602 450,350.46 456,337.378 462,324.364 468,311.426 474,298.575 480,285.821 486,273.18 492,265.73 498,249.893 504,234.196 510,218.668 516,203.35 522,188.291 528,173.559 534,159.246 540,145.474 546,132.413 552,120.294 558,109.432 564,100.234 570,84.1909 576,67.3527 582,50.5145 588,33.6764 594,16.8382 600,1.3487e-05 " />

<!--Draw Glitches -->

<line fill="none" stroke="black" stroke-width="4" x1="570" y1="74.1909" x2="570" y2="24.1909"  stroke-dasharray = "10,5" />
<text transform="scale(1,-1)" font-family="sans-serif" font-size="30" stroke = "rgb(0,0,0)" line = "rgb(0,0,0)"  fill = "lightblue" x="575" y="-24.1909" >94</text>

<!-- -->


<!--Draw Glitches -->

<line fill="none" stroke="black" stroke-width="4" x1="276" y1="504.493" x2="276" y2="454.493"  stroke-dasharray = "10,5" />
<text transform="scale(1,-1)" font-family="sans-serif" font-size="30" stroke = "rgb(0,0,0)" line = "rgb(0,0,0)"  fill = "olive" x="281" y="-454.493" >45</text>
<line fill="none" stroke="black" stroke-width="4" x1="570" y1="74.1909" x2="570" y2="24.1909"  stroke-dasharray = "10,5" />
<text transform="scale(1,-1)" font-family="sans-serif" font-size="30" stroke = "rgb(0,0,0)" line = "rgb(0,0,0)"  fill = "olive" x="575" y="-24.1909" >94</text>

<!-- -->


<!--Draw the X and Y axes -->
<polyline fill="none" stroke="black" stroke-width="6"  points=" 600,0 0,0 0, 600" />
<polyline fill="none" stroke="black" stroke-width="1"  points=" 0 600  600 600  600 0" />
<!-- -->


<!--Draw labels and tics for X axis -->

<line fill="none" stroke="black"  stroke-width="6"  x1="0.5" y1="0" x2="0.5" y2="-20" />
<text transform="scale(1,-1)" font-family="sans-serif" font-size="30" x="-24.5" y="45" >0</text>
<line fill="none" stroke="black"  stroke-width="6"  x1="120.5" y1="0" x2="120.5" y2="-20" />
<text transform="scale(1,-1)" font-family="sans-serif" font-size="30" x="95.5" y="45" >20</text>
<line fill="none" stroke="black"  stroke-width="6"  x1="240.5" y1="0" x2="240.5" y2="-20" />
<text transform="scale(1,-1)" font-family="sans-serif" font-size="30" x="215.5" y="45" >40</text>
<line fill="none" stroke="black"  stroke-width="6"  x1="360.5" y1="0" x2="360.5" y2="-20" />
<text transform="scale(1,-1)" font-family="sans-serif" font-size="30" x="335.5" y="45" >60</text>
<line fill="none" stroke="black"  stroke-width="6"  x1="480.5" y1="0" x2="480.5" y2="-20" />
<text transform="scale(1,-1)" font-family="sans-serif" font-size="30" x="455.5" y="45" >80</text>
<line fill="none" stroke="black"  stroke-width="6"  x1="600.5" y1="0" x2="600.5" y2="-20" />
<text transform="scale(1,-1)" font-family="sans-serif" font-size="30" x="575.5" y="45" >100</text>


<!--Draw labels and tics for Y axis -->

<line fill="none" stroke="black" stroke-width="6" x1="0.0" y1="0" x2="-20" y2="0" />
<text transform="scale(1,-1)" text-anchor="end" font-family="sans-serif" font-size="30" x="-25" y="10" >0</text>
<line fill="none" stroke="black" stroke-width="6" x1="0.0" y1="100" x2="-20" y2="100" />
<text transform="scale(1,-1)" text-anchor="end" font-family="sans-serif" font-size="30" x="-25" y="-90" >5</text>
<line fill="none" stroke="black" stroke-width="6" x1="0.0" y1="200" x2="-20" y2="200" />
<text transform="scale(1,-1)" text-anchor="end" font-family="sans-serif" font-size="30" x="-25" y="-190" >10</text>
<line fill="none" stroke="black" stroke-width="6" x1="0.0" y1="300" x2="-20" y2="300" />
<text transform="scale(1,-1)" text-anchor="end" font-family="sans-serif" font-size="30" x="-25" y="-290" >15</text>
<line fill="none" stroke="black" stroke-width="6" x1="0.0" y1="400" x2="-20" y2="400" />
<text transform="scale(1,-1)" text-anchor="end" font-family="sans-serif" font-size="30" x="-25" y="-390" >20</text>
<line fill="none" stroke="black" stroke-width="6" x1="0.0" y1="500" x2="-20" y2="500" />
<text transform="scale(1,-1)" text-anchor="end" font-family="sans-serif" font-size="30" x="-25" y="-490" >25</text>
<line fill="none" stroke="black" stroke-width="6" x1="0.0" y1="600" x2="-20" y2="600" />
<text transform="scale(1,-1)" text-anchor="end" font-family="sans-serif" font-size="30" x="-25" y="-590" >30</text>

-->
</g>
</g>
<!-- Run Constants
CIRCLEPLOT bool false
DISTANCEPLOT bool true
PRINTDISTANCEDATA bool true
GLITCHESONLY bool false
PLOT 2doubles 3 4
PERTURBBY double 0.05
GLITCHLEVEL double 3
BOUNDARYWINDOW double 0.065
FRAMESPERPATH int 200
STEPSPERFRAME int 100
TRIALS int 100
ALLBLACK bool true
FILEPREFIX string Fol
GRAPHSIZE int 0
BORDER int 0
PLOTSIZE int 0
G6LINEWIDTH int 3
DELONELINEWIDTH int 10
AXISWIDTH int 6
TICLENGTH int 20
VECTOR g6 
FOLLOWERMODE FollowerMode point
FIXRANDOMSEED fixRandomSeed false
RANDOMSEED int 19191
TIMESTAMP bool true
END end 




-->
</svg>
