<?xml version="1.0" standalone="no"?>
<!-- the width and height set the total pixel output of the image in the browser -->
<!-- whatever is within the viewbox will be remapped to show in this size -->
<svg width="1000" height="1000" viewBox="1 0 1000 1000"  version="1.1" xmlns="http://www.w3.org/2000/svg" xmlns:xlink="http://www.w3.org/1999/xlink">
 <desc>ID (and file name) = Fol_2018-05-14.17_24_28.1_59.svg </desc> 
 <text x="560" y="30" font-family="sans-serif" font-size="20">Wall time passed: 1325 msec.</text>
<text x="300" y="60"   font-family="sans-serif" font-size="20" fill="lightblue">S6  lightblue</text>
<text x="300" y="85"   font-family="sans-serif" font-size="20" fill="slategrey">NCDist  slategrey</text>
<text x="300" y="110"  font-family="sans-serif" font-size="20" fill="violet">D7  violet</text>
<text x="300" y="135"  font-family="sans-serif" font-size="20" fill="olive">CS6Dist  olive</text>

 <text x="140"  y="30"  font-family="sans-serif" font-size="20" >Fol_2018-05-14.17_24_28.1_59.svg  </text> 


 <!--DISTANCE PLOT BEGINS-->


<!-- the following will scale and place the distance plot -->
<g  transform="translate(0,50) ">
<g transform="translate(150,700) scale(1 -1)">
   <polyline fill="none" stroke=" lightblue " stroke-width=" 12 " points=" 6,0 12,21.9545 18,43.9089 24,62.6589 30,82.6631 36,103.754 42,125.385 48,147.317 54,170.427 60,169.102 66,168.553 72,168.788 78,169.804 84,171.588 90,174.114 96,177.352 102,181.264 108,185.807 114,190.935 120,196.604 126,200.945 132,205.284 138,210.164 144,215.548 150,221.399 156,227.681 162,234.36 168,241.403 174,248.526 180,253.606 186,258.947 192,264.534 198,270.352 204,276.387 210,282.624 216,289.05 222,295.653 228,302.422 234,309.345 240,316.412 246,323.615 252,330.943 258,341.744 264,343.685 270,345.826 276,348.163 282,350.692 288,353.409 294,356.309 300,359.389 306,362.643 312,366.067 318,369.657 324,373.406 330,377.312 336,381.368 342,385.571 348,389.914 354,394.395 360,399.008 366,403.748 372,396.085 378,385.662 384,375.238 390,364.815 396,354.392 402,343.969 408,333.545 414,323.122 420,312.699 426,302.275 432,291.852 438,281.429 444,271.006 450,260.582 456,250.159 462,239.736 468,229.312 474,218.889 480,208.466 486,198.043 492,187.619 498,177.196 504,166.773 510,156.349 516,145.926 522,135.503 528,125.079 534,114.656 540,104.233 546,93.8096 552,83.3863 558,72.963 564,62.5397 570,52.1165 576,41.6932 582,31.2699 588,20.8466 594,10.4233 600,0 " />
   <polyline fill="none" stroke=" slategrey " stroke-width=" 9 " points=" " />
   <polyline fill="none" stroke=" violet " stroke-width=" 6 " points=" " />
   <polyline fill="none" stroke=" olive " stroke-width=" 3 " points=" 6,0 12,21.9545 18,43.9089 24,85.802 30,103.157 36,122.252 42,142.388 48,163.18 54,199.682 60,196.111 66,193.159 72,190.857 78,189.227 84,188.287 90,188.047 96,188.51 102,189.672 108,191.518 114,194.03 120,197.183 126,200.945 132,205.284 138,210.164 144,215.548 150,221.399 156,227.681 162,234.36 168,241.403 174,264.972 180,271.522 186,278.254 192,285.156 198,292.215 204,299.42 210,306.761 216,314.229 222,321.814 228,329.509 234,337.305 240,345.197 246,353.177 252,361.241 258,596.521 264,588.348 270,580.185 276,572.033 282,563.892 288,555.762 294,547.645 300,539.541 306,531.45 312,523.373 318,515.311 324,507.264 330,499.233 336,491.219 342,483.223 348,475.245 354,467.287 360,459.349 366,451.433 372,396.085 378,385.662 384,375.238 390,364.815 396,354.392 402,343.969 408,333.545 414,323.122 420,312.699 426,302.275 432,291.852 438,281.429 444,271.006 450,260.582 456,250.159 462,239.736 468,229.312 474,218.889 480,208.466 486,198.043 492,187.619 498,177.196 504,166.773 510,156.349 516,145.926 522,135.503 528,125.079 534,114.656 540,104.233 546,93.8096 552,83.3863 558,72.963 564,62.5397 570,52.1165 576,41.6932 582,31.2699 588,20.8466 594,10.4233 600,0 " />

<!--Draw Glitches -->

<line fill="none" stroke="black" stroke-width="4" x1="30" y1="93.1573" x2="30" y2="43.1573"  stroke-dasharray = "10,5" />
<text transform="scale(1,-1)" font-family="sans-serif" font-size="30" stroke = "rgb(0,0,0)" line = "rgb(0,0,0)"  fill = "olive" x="35" y="-43.1573" >4</text>
<line fill="none" stroke="black" stroke-width="4" x1="54" y1="189.682" x2="54" y2="139.682"  stroke-dasharray = "10,5" />
<text transform="scale(1,-1)" font-family="sans-serif" font-size="30" stroke = "rgb(0,0,0)" line = "rgb(0,0,0)"  fill = "olive" x="59" y="-139.682" >8</text>
<line fill="none" stroke="black" stroke-width="4" x1="258" y1="586.521" x2="258" y2="536.521"  stroke-dasharray = "10,5" />
<text transform="scale(1,-1)" font-family="sans-serif" font-size="30" stroke = "rgb(0,0,0)" line = "rgb(0,0,0)"  fill = "olive" x="263" y="-536.521" >42</text>
<line fill="none" stroke="black" stroke-width="4" x1="372" y1="386.085" x2="372" y2="336.085"  stroke-dasharray = "10,5" />
<text transform="scale(1,-1)" font-family="sans-serif" font-size="30" stroke = "rgb(0,0,0)" line = "rgb(0,0,0)"  fill = "olive" x="377" y="-336.085" >61</text>

<!-- -->


<!--Draw the X and Y axes -->
<polyline fill="none" stroke="black" stroke-width="6"  points=" 600,0 0,0 0, 600" />
<polyline fill="none" stroke="black" stroke-width="1"  points=" 0 600  600 600  600 0" />
<!-- -->


<!--Draw labels and tics for X axis -->

<line fill="none" stroke="black"  stroke-width="6"  x1="0.5" y1="0" x2="0.5" y2="-20" />
<text transform="scale(1,-1)" font-family="sans-serif" font-size="30" x="-24.5" y="45" >0</text>
<line fill="none" stroke="black"  stroke-width="6"  x1="120.5" y1="0" x2="120.5" y2="-20" />
<text transform="scale(1,-1)" font-family="sans-serif" font-size="30" x="95.5" y="45" >20</text>
<line fill="none" stroke="black"  stroke-width="6"  x1="240.5" y1="0" x2="240.5" y2="-20" />
<text transform="scale(1,-1)" font-family="sans-serif" font-size="30" x="215.5" y="45" >40</text>
<line fill="none" stroke="black"  stroke-width="6"  x1="360.5" y1="0" x2="360.5" y2="-20" />
<text transform="scale(1,-1)" font-family="sans-serif" font-size="30" x="335.5" y="45" >60</text>
<line fill="none" stroke="black"  stroke-width="6"  x1="480.5" y1="0" x2="480.5" y2="-20" />
<text transform="scale(1,-1)" font-family="sans-serif" font-size="30" x="455.5" y="45" >80</text>
<line fill="none" stroke="black"  stroke-width="6"  x1="600.5" y1="0" x2="600.5" y2="-20" />
<text transform="scale(1,-1)" font-family="sans-serif" font-size="30" x="575.5" y="45" >100</text>


<!--Draw labels and tics for Y axis -->

<line fill="none" stroke="black" stroke-width="6" x1="0.0" y1="0" x2="-20" y2="0" />
<text transform="scale(1,-1)" text-anchor="end" font-family="sans-serif" font-size="30" x="-25" y="10" >0</text>
<line fill="none" stroke="black" stroke-width="6" x1="0.0" y1="100" x2="-20" y2="100" />
<text transform="scale(1,-1)" text-anchor="end" font-family="sans-serif" font-size="30" x="-25" y="-90" >5</text>
<line fill="none" stroke="black" stroke-width="6" x1="0.0" y1="200" x2="-20" y2="200" />
<text transform="scale(1,-1)" text-anchor="end" font-family="sans-serif" font-size="30" x="-25" y="-190" >10</text>
<line fill="none" stroke="black" stroke-width="6" x1="0.0" y1="300" x2="-20" y2="300" />
<text transform="scale(1,-1)" text-anchor="end" font-family="sans-serif" font-size="30" x="-25" y="-290" >15</text>
<line fill="none" stroke="black" stroke-width="6" x1="0.0" y1="400" x2="-20" y2="400" />
<text transform="scale(1,-1)" text-anchor="end" font-family="sans-serif" font-size="30" x="-25" y="-390" >20</text>
<line fill="none" stroke="black" stroke-width="6" x1="0.0" y1="500" x2="-20" y2="500" />
<text transform="scale(1,-1)" text-anchor="end" font-family="sans-serif" font-size="30" x="-25" y="-490" >25</text>
<line fill="none" stroke="black" stroke-width="6" x1="0.0" y1="600" x2="-20" y2="600" />
<text transform="scale(1,-1)" text-anchor="end" font-family="sans-serif" font-size="30" x="-25" y="-590" >30</text>

-->
</g>
</g>
<!-- Run Constants
CIRCLEPLOT bool false
DISTANCEPLOT bool true
PRINTDISTANCEDATA bool true
GLITCHESONLY bool false
PLOT 2doubles 3 4
PERTURBBY double 0.05
GLITCHLEVEL double 3
BOUNDARYWINDOW double 0.065
FRAMESPERPATH int 200
STEPSPERFRAME int 100
TRIALS int 100
ALLBLACK bool true
FILEPREFIX string Fol
GRAPHSIZE int 0
BORDER int 0
PLOTSIZE int 0
G6LINEWIDTH int 3
DELONELINEWIDTH int 10
AXISWIDTH int 6
TICLENGTH int 20
VECTOR g6 
FOLLOWERMODE FollowerMode point
FIXRANDOMSEED fixRandomSeed false
RANDOMSEED int 19191
TIMESTAMP bool true
END end 




-->
</svg>
