<?xml version="1.0" standalone="no"?>
<!-- the width and height set the total pixel output of the image in the browser -->
<!-- whatever is within the viewbox will be remapped to show in this size -->
<svg width="900" height="900" viewBox="1 0 900 900"  version="1.1" xmlns="http://www.w3.org/2000/svg" xmlns:xlink="http://www.w3.org/1999/xlink">
 <desc>ID (and file name) = Fol_2018-05-27.16_55_04.4_0.svg  mode = LINE3 </desc> 
<text x = "-750" y="50" transform="rotate(-90)"  font-family="sans-serif" font-size="40" stroke ="lightgray" fill="none"> PointDistanceFollower   May 27 2018</text>
 <text x="560" y="30" font-family="sans-serif" font-size="20">Wall time passed: 24468 msec.</text>
<text x="300" y="60"   font-family="sans-serif" font-size="20" fill="lightblue">S6  lightblue</text>
<text x="300" y="85"   font-family="sans-serif" font-size="20" fill="slategrey">NCDist  slategrey</text>
<text x="300" y="110"  font-family="sans-serif" font-size="20" fill="violet">D7  violet</text>
<text x="300" y="135"  font-family="sans-serif" font-size="20" fill="olive">CS6Dist  olive</text>

 <text x="140"  y="30"  font-family="sans-serif" font-size="20" >Fol_2018-05-27.16_55_04.4_0.svg  </text> 


 <!--DISTANCE PLOT BEGINS   mode = LINE3-->


<!-- the following will scale and place the distance plot -->
<g  transform="translate(0, 50) ">
<g transform="translate(150,700) scale(1 -1)">
   <polyline fill="none" stroke=" lightblue " stroke-width=" 12 " points=" 5.94059,68.0692 11.8812,64.7002 17.8218,64.9481 23.7624,65.8726 29.703,64.8178 35.6436,64.555 41.5842,65.1099 47.5248,66.4723 53.4653,68.6177 59.4059,70.957 65.3465,72.9841 71.2871,74.0223 77.2277,73.6833 83.1683,73.9114 89.1089,74.7037 95.0495,76.0508 100.99,77.9373 106.931,80.3424 112.871,83.2412 118.812,86.6056 124.752,90.4056 130.693,94.6106 136.634,99.1897 142.574,104.113 148.515,109.351 154.455,114.877 160.396,120.666 166.337,126.693 172.277,132.938 178.218,137.747 184.158,142.648 190.099,143.168 196.04,142.093 201.98,141.145 207.921,140.327 213.861,139.638 219.802,139.081 225.743,138.658 231.683,138.368 237.624,138.212 243.564,138.19 249.505,138.304 " />

<line fill="none" stroke-dasharray = "10, 10"  stroke="orange" stroke-width="6" x1="255.446" y1="300" x2="594.059" y2="300" />
   <polyline fill="none" stroke=" slategrey " stroke-width=" 9 " points=" 5.94059,200.187 11.8812,212.171 17.8218,223.252 23.7624,231.57 29.703,232.656 35.6436,229.121 41.5842,227.185 47.5248,226.88 53.4653,228.212 59.4059,232.99 65.3465,242.291 71.2871,247.263 77.2277,248.558 83.1683,250.515 89.1089,253.098 95.0495,255.319 100.99,255.996 106.931,256.907 112.871,258.05 118.812,259.423 124.752,261.022 130.693,262.845 136.634,264.887 142.574,267.145 148.515,269.614 154.455,272.289 160.396,275.167 166.337,278.241 172.277,281.506 178.218,284.958 184.158,288.591 190.099,292.398 196.04,296.376 201.98,300.518 207.921,304.818 213.861,309.272 219.802,313.874 225.743,318.618 231.683,323.499 237.624,328.513 243.564,333.655 249.505,338.919 " />

<line fill="none" stroke-dasharray = "10, 10"  stroke="orange" stroke-width="6" x1="255.446" y1="300" x2="594.059" y2="300" />
   <polyline fill="none" stroke=" violet " stroke-width=" 6 " points=" 5.94059,211.611 11.8812,227.464 17.8218,247.632 23.7624,263.884 29.703,274.816 35.6436,285.591 41.5842,297.02 47.5248,307.934 53.4653,319.531 59.4059,330.138 65.3465,338.52 71.2871,346.23 77.2277,353.033 83.1683,360.25 89.1089,367.861 95.0495,375.847 100.99,384.186 106.931,392.86 112.871,401.851 118.812,411.14 124.752,420.71 130.693,430.545 136.634,440.63 142.574,450.95 148.515,461.492 154.455,472.241 160.396,483.187 166.337,494.317 172.277,505.622 178.218,516.237 184.158,526.392 190.099,530.026 196.04,531.254 201.98,532.58 207.921,534.004 213.861,535.524 219.802,537.141 225.743,538.853 231.683,540.66 237.624,542.561 243.564,544.554 249.505,546.639 " />

<line fill="none" stroke-dasharray = "10, 10"  stroke="orange" stroke-width="6" x1="255.446" y1="300" x2="594.059" y2="300" />
   <polyline fill="none" stroke=" olive " stroke-width=" 3 " points=" 5.94059,68.0692 11.8812,64.7002 17.8218,64.9481 23.7624,69.3656 29.703,68.3992 35.6436,68.2503 41.5842,68.9218 47.5248,70.4013 53.4653,70.7774 59.4059,70.957 65.3465,72.9841 71.2871,74.0223 77.2277,73.6833 83.1683,73.9114 89.1089,74.7037 95.0495,76.0508 100.99,77.9373 106.931,80.3424 112.871,83.2412 118.812,86.6056 124.752,90.4056 130.693,94.6106 136.634,99.1897 142.574,104.113 148.515,109.351 154.455,114.877 160.396,120.666 166.337,126.693 172.277,132.938 178.218,139.38 184.158,143.513 190.099,143.168 196.04,142.093 201.98,141.145 207.921,140.327 213.861,139.638 219.802,139.081 225.743,138.658 231.683,138.368 237.624,138.212 243.564,138.19 249.505,138.304 " />

<line fill="none" stroke-dasharray = "10, 10"  stroke="orange" stroke-width="6" x1="255.446" y1="300" x2="594.059" y2="300" />

<!--Draw Glitches -->


<!-- -->


<!--Draw Glitches -->


<!-- -->


<!--Draw Glitches -->


<!-- -->


<!--Draw Glitches -->


<!-- -->


<!--Draw the X and Y axes -->
<polyline fill="none" stroke="black" stroke-width="6"  points=" 600,0 0,0 0, 600" />
<polyline fill="none" stroke="black" stroke-width="1"  points=" 0 600  600 600  600 0" />
<!-- -->


<!--Draw labels and tics for X axis -->

<line fill="none" stroke="black"  stroke-width="6"  x1="0.5" y1="0" x2="0.5" y2="-20" />
<text transform="scale(1,-1)" font-family="sans-serif" font-size="30" x="-24.5" y="45" >0</text>
<line fill="none" stroke="black"  stroke-width="6"  x1="119.312" y1="0" x2="119.312" y2="-20" />
<text transform="scale(1,-1)" font-family="sans-serif" font-size="30" x="94.3119" y="45" >20</text>
<line fill="none" stroke="black"  stroke-width="6"  x1="238.124" y1="0" x2="238.124" y2="-20" />
<text transform="scale(1,-1)" font-family="sans-serif" font-size="30" x="213.124" y="45" >40</text>
<line fill="none" stroke="black"  stroke-width="6"  x1="356.936" y1="0" x2="356.936" y2="-20" />
<text transform="scale(1,-1)" font-family="sans-serif" font-size="30" x="331.936" y="45" >60</text>
<line fill="none" stroke="black"  stroke-width="6"  x1="475.748" y1="0" x2="475.748" y2="-20" />
<text transform="scale(1,-1)" font-family="sans-serif" font-size="30" x="450.748" y="45" >80</text>
<line fill="none" stroke="black"  stroke-width="6"  x1="594.559" y1="0" x2="594.559" y2="-20" />
<text transform="scale(1,-1)" font-family="sans-serif" font-size="30" x="569.559" y="45" >100</text>


<!--Draw labels and tics for Y axis -->

<line fill="none" stroke="black" stroke-width="6" x1="0.0" y1="0" x2="-20" y2="0" />
<text transform="scale(1,-1)" text-anchor="end" font-family="sans-serif" font-size="30" x="-25" y="10" >10</text>
<line fill="none" stroke="black" stroke-width="6" x1="0.0" y1="66.6667" x2="-20" y2="66.6667" />
<text transform="scale(1,-1)" text-anchor="end" font-family="sans-serif" font-size="30" x="-25" y="-56.6667" >20</text>
<line fill="none" stroke="black" stroke-width="6" x1="0.0" y1="133.333" x2="-20" y2="133.333" />
<text transform="scale(1,-1)" text-anchor="end" font-family="sans-serif" font-size="30" x="-25" y="-123.333" >30</text>
<line fill="none" stroke="black" stroke-width="6" x1="0.0" y1="200" x2="-20" y2="200" />
<text transform="scale(1,-1)" text-anchor="end" font-family="sans-serif" font-size="30" x="-25" y="-190" >40</text>
<line fill="none" stroke="black" stroke-width="6" x1="0.0" y1="266.667" x2="-20" y2="266.667" />
<text transform="scale(1,-1)" text-anchor="end" font-family="sans-serif" font-size="30" x="-25" y="-256.667" >50</text>
<line fill="none" stroke="black" stroke-width="6" x1="0.0" y1="333.333" x2="-20" y2="333.333" />
<text transform="scale(1,-1)" text-anchor="end" font-family="sans-serif" font-size="30" x="-25" y="-323.333" >60</text>
<line fill="none" stroke="black" stroke-width="6" x1="0.0" y1="400" x2="-20" y2="400" />
<text transform="scale(1,-1)" text-anchor="end" font-family="sans-serif" font-size="30" x="-25" y="-390" >70</text>
<line fill="none" stroke="black" stroke-width="6" x1="0.0" y1="466.667" x2="-20" y2="466.667" />
<text transform="scale(1,-1)" text-anchor="end" font-family="sans-serif" font-size="30" x="-25" y="-456.667" >80</text>
<line fill="none" stroke="black" stroke-width="6" x1="0.0" y1="533.333" x2="-20" y2="533.333" />
<text transform="scale(1,-1)" text-anchor="end" font-family="sans-serif" font-size="30" x="-25" y="-523.333" >90</text>
<line fill="none" stroke="black" stroke-width="6" x1="0.0" y1="600" x2="-20" y2="600" />
<text transform="scale(1,-1)" text-anchor="end" font-family="sans-serif" font-size="30" x="-25" y="-590" >100</text>

-->
</g>
</g>
<!-- Run Constants
PRINTDISTANCEDATA bool true
GLITCHESONLY bool false
PLOT 2doubles 3 4
PERTURBBY double 0.05
GLITCHLEVEL double 3
BOUNDARYWINDOW double 0.065
FRAMESPERPATH int 200
STEPSPERFRAME int 100
TRIALS int 3
ALLBLACK bool true
FILEPREFIX string Fol
GRAPHSIZE int 0
BORDER int 0
PLOTSIZE int 0
G6LINEWIDTH int 3
DELONELINEWIDTH int 10
AXISWIDTH int 6
TICLENGTH int 20
VECTOR g6 
FOLLOWERMODE FollowerMode line
FIXRANDOMSEED fixRandomSeed false
RANDOMSEED int 19191
TIMESTAMP bool true
END end 




-->
</svg>
