<?xml version="1.0" standalone="no"?>
<!-- the width and height set the total pixel output of the image in the browser -->
<!-- whatever is within the viewbox will be remapped to show in this size -->
<svg width="1000" height="1000" viewBox="1 0 1000 1000"  version="1.1" xmlns="http://www.w3.org/2000/svg" xmlns:xlink="http://www.w3.org/1999/xlink">
 <desc>ID (and file name) = Fol_2018-05-14.17_25_10.1_86.svg </desc> 
 <text x="560" y="30" font-family="sans-serif" font-size="20">Wall time passed: 1276 msec.</text>
<text x="300" y="60"   font-family="sans-serif" font-size="20" fill="lightblue">S6  lightblue</text>
<text x="300" y="85"   font-family="sans-serif" font-size="20" fill="slategrey">NCDist  slategrey</text>
<text x="300" y="110"  font-family="sans-serif" font-size="20" fill="violet">D7  violet</text>
<text x="300" y="135"  font-family="sans-serif" font-size="20" fill="olive">CS6Dist  olive</text>

 <text x="140"  y="30"  font-family="sans-serif" font-size="20" >Fol_2018-05-14.17_25_10.1_86.svg  </text> 


 <!--DISTANCE PLOT BEGINS-->


<!-- the following will scale and place the distance plot -->
<g  transform="translate(0,50) ">
<g transform="translate(150,700) scale(1 -1)">
   <polyline fill="none" stroke=" lightblue " stroke-width=" 12 " points=" 6,0 12,18.3998 18,36.7996 24,55.1994 30,73.5992 36,91.999 42,109.564 48,114.599 54,120.084 60,125.959 66,132.173 72,138.68 78,145.441 84,152.421 90,159.593 96,166.932 102,174.416 108,182.027 114,189.751 120,197.574 126,205.484 132,213.473 138,217.962 144,219.765 150,221.911 156,224.389 162,227.19 168,230.3 174,233.709 180,271.33 186,255.047 192,254.341 198,235.019 204,233.07 210,231.382 216,229.963 222,228.816 228,227.946 234,227.355 240,227.047 246,227.022 252,227.281 258,227.821 264,228.643 270,229.741 276,231.113 282,232.754 288,234.657 294,236.817 300,239.227 306,241.879 312,244.765 318,247.877 324,251.208 330,254.747 336,258.487 342,262.419 348,266.534 354,260.323 360,252.958 366,245.635 372,238.357 378,231.128 384,223.952 390,216.837 396,209.787 402,202.809 408,195.911 414,189.101 420,182.391 426,175.79 432,169.312 438,162.972 444,156.786 450,150.773 456,144.955 462,139.355 468,134.003 474,128.927 480,124.163 486,119.748 492,115.72 498,112.123 504,108.999 510,106.389 516,104.332 522,102.861 528,96.2688 534,88.2464 540,80.224 546,72.2016 552,64.1792 558,56.1568 564,48.1344 570,40.112 576,32.0896 582,24.0672 588,16.0448 594,8.0224 600,0 " />
   <polyline fill="none" stroke=" slategrey " stroke-width=" 9 " points=" " />
   <polyline fill="none" stroke=" violet " stroke-width=" 6 " points=" " />
   <polyline fill="none" stroke=" olive " stroke-width=" 3 " points=" 6,0 12,18.3998 18,36.7996 24,55.1994 30,73.5992 36,91.999 42,154.101 48,156.417 54,159.198 60,162.419 66,166.055 72,170.08 78,174.467 84,179.188 90,184.219 96,189.534 102,195.111 108,200.928 114,206.963 120,213.2 126,219.62 132,226.209 138,232.951 144,239.834 150,246.846 156,253.976 162,261.215 168,268.554 174,275.985 180,534.63 186,272.69 192,273.493 198,294.128 204,295.607 210,295.223 216,295.029 222,295.053 228,295.296 234,295.755 240,296.432 246,297.323 252,298.427 258,299.743 264,301.266 270,302.994 276,304.923 282,307.05 288,309.37 294,311.879 300,314.573 306,317.447 312,320.496 318,323.715 324,327.1 330,330.644 336,334.343 342,338.193 348,336.941 354,328.918 360,320.896 366,312.874 372,304.851 378,296.829 384,288.806 390,280.784 396,272.762 402,264.739 408,256.717 414,248.694 420,240.672 426,232.65 432,224.627 438,216.605 444,208.582 450,200.56 456,192.538 462,184.515 468,176.493 474,168.47 480,160.448 486,152.426 492,144.403 498,136.381 504,128.358 510,120.336 516,112.314 522,104.291 528,96.2688 534,88.2464 540,80.224 546,72.2016 552,64.1792 558,56.1568 564,48.1344 570,40.112 576,32.0896 582,24.0672 588,16.0448 594,8.0224 600,0 " />

<!--Draw Glitches -->

<line fill="none" stroke="black" stroke-width="4" x1="180" y1="261.33" x2="180" y2="211.33"  stroke-dasharray = "10,5" />
<text transform="scale(1,-1)" font-family="sans-serif" font-size="30" stroke = "rgb(0,0,0)" line = "rgb(0,0,0)"  fill = "lightblue" x="185" y="-211.33" >29</text>

<!-- -->


<!--Draw Glitches -->

<line fill="none" stroke="black" stroke-width="4" x1="30" y1="63.5992" x2="30" y2="13.5992"  stroke-dasharray = "10,5" />
<text transform="scale(1,-1)" font-family="sans-serif" font-size="30" stroke = "rgb(0,0,0)" line = "rgb(0,0,0)"  fill = "olive" x="35" y="-13.5992" >4</text>
<line fill="none" stroke="black" stroke-width="4" x1="42" y1="144.101" x2="42" y2="94.1012"  stroke-dasharray = "10,5" />
<text transform="scale(1,-1)" font-family="sans-serif" font-size="30" stroke = "rgb(0,0,0)" line = "rgb(0,0,0)"  fill = "olive" x="47" y="-94.1012" >6</text>
<line fill="none" stroke="black" stroke-width="4" x1="180" y1="524.63" x2="180" y2="474.63"  stroke-dasharray = "10,5" />
<text transform="scale(1,-1)" font-family="sans-serif" font-size="30" stroke = "rgb(0,0,0)" line = "rgb(0,0,0)"  fill = "olive" x="185" y="-474.63" >29</text>

<!-- -->


<!--Draw the X and Y axes -->
<polyline fill="none" stroke="black" stroke-width="6"  points=" 600,0 0,0 0, 600" />
<polyline fill="none" stroke="black" stroke-width="1"  points=" 0 600  600 600  600 0" />
<!-- -->


<!--Draw labels and tics for X axis -->

<line fill="none" stroke="black"  stroke-width="6"  x1="0.5" y1="0" x2="0.5" y2="-20" />
<text transform="scale(1,-1)" font-family="sans-serif" font-size="30" x="-24.5" y="45" >0</text>
<line fill="none" stroke="black"  stroke-width="6"  x1="120.5" y1="0" x2="120.5" y2="-20" />
<text transform="scale(1,-1)" font-family="sans-serif" font-size="30" x="95.5" y="45" >20</text>
<line fill="none" stroke="black"  stroke-width="6"  x1="240.5" y1="0" x2="240.5" y2="-20" />
<text transform="scale(1,-1)" font-family="sans-serif" font-size="30" x="215.5" y="45" >40</text>
<line fill="none" stroke="black"  stroke-width="6"  x1="360.5" y1="0" x2="360.5" y2="-20" />
<text transform="scale(1,-1)" font-family="sans-serif" font-size="30" x="335.5" y="45" >60</text>
<line fill="none" stroke="black"  stroke-width="6"  x1="480.5" y1="0" x2="480.5" y2="-20" />
<text transform="scale(1,-1)" font-family="sans-serif" font-size="30" x="455.5" y="45" >80</text>
<line fill="none" stroke="black"  stroke-width="6"  x1="600.5" y1="0" x2="600.5" y2="-20" />
<text transform="scale(1,-1)" font-family="sans-serif" font-size="30" x="575.5" y="45" >100</text>


<!--Draw labels and tics for Y axis -->

<line fill="none" stroke="black" stroke-width="6" x1="0.0" y1="0" x2="-20" y2="0" />
<text transform="scale(1,-1)" text-anchor="end" font-family="sans-serif" font-size="30" x="-25" y="10" >0</text>
<line fill="none" stroke="black" stroke-width="6" x1="0.0" y1="150" x2="-20" y2="150" />
<text transform="scale(1,-1)" text-anchor="end" font-family="sans-serif" font-size="30" x="-25" y="-140" >10</text>
<line fill="none" stroke="black" stroke-width="6" x1="0.0" y1="300" x2="-20" y2="300" />
<text transform="scale(1,-1)" text-anchor="end" font-family="sans-serif" font-size="30" x="-25" y="-290" >20</text>
<line fill="none" stroke="black" stroke-width="6" x1="0.0" y1="450" x2="-20" y2="450" />
<text transform="scale(1,-1)" text-anchor="end" font-family="sans-serif" font-size="30" x="-25" y="-440" >30</text>
<line fill="none" stroke="black" stroke-width="6" x1="0.0" y1="600" x2="-20" y2="600" />
<text transform="scale(1,-1)" text-anchor="end" font-family="sans-serif" font-size="30" x="-25" y="-590" >40</text>

-->
</g>
</g>
<!-- Run Constants
CIRCLEPLOT bool false
DISTANCEPLOT bool true
PRINTDISTANCEDATA bool true
GLITCHESONLY bool false
PLOT 2doubles 3 4
PERTURBBY double 0.05
GLITCHLEVEL double 3
BOUNDARYWINDOW double 0.065
FRAMESPERPATH int 200
STEPSPERFRAME int 100
TRIALS int 100
ALLBLACK bool true
FILEPREFIX string Fol
GRAPHSIZE int 0
BORDER int 0
PLOTSIZE int 0
G6LINEWIDTH int 3
DELONELINEWIDTH int 10
AXISWIDTH int 6
TICLENGTH int 20
VECTOR g6 
FOLLOWERMODE FollowerMode point
FIXRANDOMSEED fixRandomSeed false
RANDOMSEED int 19191
TIMESTAMP bool true
END end 




-->
</svg>
