<?xml version="1.0" standalone="no"?>
<!-- the width and height set the total pixel output of the image in the browser -->
<!-- whatever is within the viewbox will be remapped to show in this size -->
<svg width="1000" height="1000" viewBox="1 0  1200 1200"  version="1.1" xmlns="http://www.w3.org/2000/svg" xmlns:xlink="http://www.w3.org/1999/xlink">
 <desc>ID (and file name) = Fol_2020-04-20.10_19_25.6_0.svg  mode = LINE3 </desc> 
<g transform = "scale(1 1)">

<text x = "-850" y="50" transform="rotate(-90)"  font-family="sans-serif" font-size="40" stroke ="lightgray" fill="none"> PointDistanceFollower   Apr 20 2020</text>
 <text x="200"  y="30"  font-family="sans-serif" font-size="20" >Fol_2020-04-20.10_19_25.6_0.svg  &#160;&#160;&#160;&#160;&#160; Wall time passed: 35950 msec.</text>
<text x="300" y="60"   font-family="sans-serif" font-size="20" fill="lightblue">  S6  48 msec </text>
<text x="300" y="85"   font-family="sans-serif" font-size="20" fill="olive">  CS6Dist  8 msec </text>
<text x="300" y="110"   font-family="sans-serif" font-size="20" fill="black">  LM  35894 msec </text>



 <!--DISTANCE PLOT BEGINS   mode = LINE3-->


<!-- the following will scale and place the distance plot -->
<g transform="translate(150,975) scale(1 -1)">
   <polyline fill="none" stroke=" lightblue " stroke-width=" 12 " stroke-dasharray = " 10,5 " points=" 7.92079,0 15.8416,12.469 23.7624,24.9379 31.6832,37.4069 39.604,49.8759 47.5248,62.3449 55.4455,74.8138 63.3663,87.2828 71.2871,99.7518 79.2079,112.221 87.1287,124.69 95.0495,137.159 102.97,149.628 110.891,162.097 118.812,174.566 126.733,187.035 134.653,199.504 142.574,211.973 150.495,224.441 158.416,236.91 166.337,249.379 174.257,258.073 182.178,260.257 190.099,262.796 198.02,265.68 205.941,268.899 213.861,272.44 221.782,276.29 229.703,280.438 237.624,284.87 245.545,285.604 253.465,283.881 261.386,282.496 269.307,281.452 277.228,280.754 285.149,280.405 293.069,280.405 300.99,280.755 308.911,281.453 316.832,282.498 324.752,283.884 332.673,285.607 340.594,287.661 348.515,290.038 356.436,292.732 364.356,295.733 372.277,299.033 380.198,302.62 388.119,306.486 396.04,310.62 403.96,315.011 411.881,319.649 419.802,324.523 427.723,329.623 435.644,334.937 443.564,340.458 451.485,346.173 459.406,352.075 467.327,358.153 475.248,364.399 483.168,370.805 491.089,377.362 499.01,384.062 506.931,390.898 514.851,397.864 522.772,404.952 530.693,412.157 538.614,419.471 546.535,426.89 554.455,434.408 562.376,442.02 570.297,449.722 578.218,457.508 586.139,465.375 594.059,473.319 601.98,481.335 609.901,489.42 617.822,497.571 625.743,505.785 633.663,514.058 641.584,522.388 649.505,530.773 657.426,539.209 665.347,547.694 673.267,556.226 681.188,564.802 689.109,573.422 697.03,582.083 704.95,590.782 712.871,599.519 720.792,608.292 728.713,617.099 736.634,625.939 744.554,634.811 752.475,643.712 760.396,652.643 768.317,661.601 776.238,670.586 784.158,679.596 792.079,688.631 " />

   <polyline fill="none" stroke=" olive " stroke-width=" 3 " stroke-dasharray = " 5,10 " points=" 7.92079,3.05176e-05 15.8416,12.469 23.7624,24.9379 31.6832,37.4069 39.604,49.8759 47.5248,62.3449 55.4455,74.8138 63.3663,87.2828 71.2871,99.7518 79.2079,112.221 87.1287,124.69 95.0495,137.159 102.97,149.628 110.891,162.097 118.812,174.566 126.733,187.035 134.653,199.504 142.574,211.973 150.495,224.441 158.416,218.723 166.337,209.861 174.257,208.821 182.178,221.078 190.099,233.439 198.02,245.896 205.941,258.442 213.861,271.07 221.782,283.773 229.703,296.547 237.624,306.713 245.545,308.517 253.465,306.628 261.386,305.116 269.307,303.99 277.228,303.257 285.149,302.922 293.069,302.989 300.99,303.457 308.911,304.328 316.832,305.597 324.752,307.26 332.673,309.311 340.594,311.742 348.515,314.543 356.436,317.703 364.356,321.211 372.277,325.054 380.198,329.218 388.119,333.69 396.04,338.455 403.96,343.501 411.881,348.812 419.802,354.375 427.723,360.177 435.644,366.204 443.564,372.445 451.485,378.886 459.406,385.258 467.327,388.595 475.248,392.172 483.168,395.982 491.089,400.019 499.01,404.274 506.931,408.74 514.851,413.409 522.772,418.275 530.693,423.328 538.614,428.562 546.535,433.969 554.455,439.543 562.376,445.276 570.297,451.162 578.218,457.193 586.139,463.364 594.059,469.668 601.98,476.099 609.901,482.652 617.822,489.322 625.743,496.102 633.663,502.989 641.584,509.976 649.505,517.061 657.426,524.237 665.347,531.502 673.267,538.851 681.188,546.28 689.109,553.786 697.03,561.366 704.95,569.015 712.871,576.732 720.792,584.513 728.713,592.355 736.634,600.256 744.554,608.213 752.475,616.224 760.396,624.286 768.317,632.398 776.238,640.557 784.158,648.762 792.079,657.01 " />

   <polyline fill="none" stroke=" black " stroke-width=" 3 " stroke-dasharray = "  " points=" 7.92079,0 15.8416,12.469 23.7624,24.9379 31.6832,37.4069 39.604,49.8759 47.5248,62.3449 55.4455,74.8138 63.3663,87.2828 71.2871,99.7518 79.2079,112.221 87.1287,124.69 95.0495,137.159 102.97,149.628 110.891,162.097 118.812,174.566 126.733,187.035 134.653,199.504 142.574,211.973 150.495,224.441 158.416,236.91 166.337,249.379 174.257,208.005 182.178,217.91 190.099,227.815 198.02,237.72 205.941,247.625 213.861,257.53 221.782,267.435 229.703,277.34 237.624,287.245 245.545,294.442 253.465,300.711 261.386,307.172 269.307,313.813 277.228,320.622 285.149,327.589 293.069,334.704 300.99,341.958 308.911,349.343 316.832,356.849 324.752,364.47 332.673,372.199 340.594,380.029 348.515,387.953 356.436,395.967 364.356,404.064 372.277,412.241 380.198,420.492 388.119,428.813 396.04,437.2 403.96,445.649 411.881,454.157 419.802,462.721 427.723,471.337 435.644,480.003 443.564,488.716 451.485,497.473 459.406,506.273 467.327,515.114 475.248,523.992 483.168,532.906 491.089,541.855 499.01,550.836 506.931,558.762 514.851,565.02 522.772,571.382 530.693,577.843 538.614,584.4 546.535,591.051 554.455,597.792 562.376,604.62 570.297,611.532 578.218,618.526 586.139,625.598 594.059,632.746 601.98,639.968 609.901,647.261 617.822,654.622 625.743,662.05 633.663,669.542 641.584,677.096 649.505,684.709 657.426,692.381 665.347,700.109 673.267,707.891 681.188,715.726 689.109,723.611 697.03,731.545 704.95,733.729 712.871,735.04 720.792,736.481 728.713,738.052 736.634,739.753 744.554,741.582 752.475,743.538 760.396,745.621 768.317,747.83 776.238,750.162 784.158,752.618 792.079,755.196 " />


<!--Draw Glitches -->

<line fill="none" stroke="black" stroke-width="4" x1="174.257" y1="198.005" x2="174.257" y2="148.005"  stroke-dasharray = "10,5" />
<text transform="scale(1,-1)" font-family="sans-serif" font-size="30" stroke = "rgb(0,0,0)" line = "rgb(0,0,0)"  fill = "black" x="179.257" y="-148.005" >21</text>

<!-- -->


<!--Draw the X and Y axes -->
<polyline fill="none" stroke="black" stroke-width="6"  points=" 800,0 0,0 0, 800" />
<polyline fill="none" stroke="black" stroke-width="1"  points=" 0 800  800 800  800 0" />
<!-- -->


<!--Draw labels and tics for X axis -->

<line fill="none" stroke="black"  stroke-width="6"  x1="0.5" y1="0" x2="0.5" y2="-20" />
<text transform="scale(1,-1)" font-family="sans-serif" font-size="30" x="-24.5" y="45" >0</text>
<line fill="none" stroke="black"  stroke-width="6"  x1="158.916" y1="0" x2="158.916" y2="-20" />
<text transform="scale(1,-1)" font-family="sans-serif" font-size="30" x="133.916" y="45" >20</text>
<line fill="none" stroke="black"  stroke-width="6"  x1="317.332" y1="0" x2="317.332" y2="-20" />
<text transform="scale(1,-1)" font-family="sans-serif" font-size="30" x="292.332" y="45" >40</text>
<line fill="none" stroke="black"  stroke-width="6"  x1="475.748" y1="0" x2="475.748" y2="-20" />
<text transform="scale(1,-1)" font-family="sans-serif" font-size="30" x="450.748" y="45" >60</text>
<line fill="none" stroke="black"  stroke-width="6"  x1="634.163" y1="0" x2="634.163" y2="-20" />
<text transform="scale(1,-1)" font-family="sans-serif" font-size="30" x="609.163" y="45" >80</text>
<line fill="none" stroke="black"  stroke-width="6"  x1="792.579" y1="0" x2="792.579" y2="-20" />
<text transform="scale(1,-1)" font-family="sans-serif" font-size="30" x="767.579" y="45" >100</text>


<!--Draw labels and tics for Y axis -->

<line fill="none" stroke="black" stroke-width="6" x1="0.0" y1="0" x2="-20" y2="0" />
<text transform="scale(1,-1)" text-anchor="end" font-family="sans-serif" font-size="30" x="-25" y="10" >0</text>
<line fill="none" stroke="black" stroke-width="6" x1="0.0" y1="160" x2="-20" y2="160" />
<text transform="scale(1,-1)" text-anchor="end" font-family="sans-serif" font-size="30" x="-25" y="-150" >5</text>
<line fill="none" stroke="black" stroke-width="6" x1="0.0" y1="320" x2="-20" y2="320" />
<text transform="scale(1,-1)" text-anchor="end" font-family="sans-serif" font-size="30" x="-25" y="-310" >10</text>
<line fill="none" stroke="black" stroke-width="6" x1="0.0" y1="480" x2="-20" y2="480" />
<text transform="scale(1,-1)" text-anchor="end" font-family="sans-serif" font-size="30" x="-25" y="-470" >15</text>
<line fill="none" stroke="black" stroke-width="6" x1="0.0" y1="640" x2="-20" y2="640" />
<text transform="scale(1,-1)" text-anchor="end" font-family="sans-serif" font-size="30" x="-25" y="-630" >20</text>
<line fill="none" stroke="black" stroke-width="6" x1="0.0" y1="800" x2="-20" y2="800" />
<text transform="scale(1,-1)" text-anchor="end" font-family="sans-serif" font-size="30" x="-25" y="-790" >25</text>

-->
</g>
</g>
<!-- Run Constants
PRINTDISTANCEDATA bool true
GLITCHESONLY bool false
PERTURBBY double 0.05
GLITCHLEVEL double 3
BOUNDARYWINDOW double 0.065
STEPSPERFRAME int 100
TRIALS int 1
ALLBLACK bool true
FILEPREFIX string Fol
NIGGLISELLINGFIRST bool false
ENABLE DistanceEnableString 
DISABLE DistanceDisableString 
GRAPHSIZE int 0
BORDER int 0
PLOTSIZE int 0
AXISWIDTH int 6
TICLENGTH int 20
VECTOR g6 
FOLLOWERMODE FollowerMode line
FIXRANDOMSEED fixRandomSeed true
RANDOMSEED int 18
TIMESTAMP bool true
END end 


-->
</svg>
