<?xml version="1.0" standalone="no"?>
<!-- the width and height set the total pixel output of the image in the browser -->
<!-- whatever is within the viewbox will be remapped to show in this size -->
<svg width="1000" height="1000" viewBox="1 0 1000 1000"  version="1.1" xmlns="http://www.w3.org/2000/svg" xmlns:xlink="http://www.w3.org/1999/xlink">
 <desc>ID (and file name) = Fol_2018-05-05.11_53_11.5_4.svg </desc> 
 <text x="700" y="30" font-family="sans-serif" font-size="20">Wall time passed: 0 msec.</text>
<text x="300" y="60"   font-family="sans-serif" font-size="20" fill="lightblue">S6  lightblue</text>
<text x="300" y="85"   font-family="sans-serif" font-size="20" fill="slategrey">NCDist  slategrey</text>
<text x="300" y="110"  font-family="sans-serif" font-size="20" fill="violet">D7  violet</text>
<text x="300" y="135"  font-family="sans-serif" font-size="20" fill="olive">CS6Dist  olive</text>



 <!--DISTANCE PLOT BEGINS-->


<!-- the following will scale and place the distance plot -->
<g  transform="translate(0,50) ">
<g transform="translate(150,700) scale(1 -1)">
   <polyline fill="none" stroke=" lightblue " stroke-width=" 12 " points=" 5.2,0 10.4,26.4581 15.6,50.2203 20.8,59.4112 26,65.0111 31.2,76.2232 36.4,92.07 41.6,111.084 46.8,128.62 52,142.479 57.2,157.189 62.4,171.901 67.6,186.176 72.8,188.609 78,185.5 83.2,182.645 88.4,179.893 93.6,177.436 98.8,175.287 104,173.431 109.2,171.895 114.4,170.696 119.6,168.401 124.8,165.849 130,163.435 135.2,161.166 140.4,159.047 145.6,157.058 150.8,155.125 156,153.293 161.2,151.623 166.4,150.129 171.6,148.815 176.8,147.687 182,146.748 187.2,146.002 192.4,143.597 197.6,141.224 202.8,138.956 208,136.8 213.2,134.76 218.4,132.842 223.6,131.051 228.8,129.357 234,127.704 239.2,126.174 244.4,124 249.6,121.954 254.8,120.043 260,118.274 265.2,116.652 270.4,114.019 275.6,110.583 280.8,107.213 286,103.915 291.2,100.698 296.4,97.5691 301.6,94.5367 306.8,91.6106 312,88.8013 317.2,86.1204 322.4,83.58 327.6,81.1935 332.8,78.9748 338,76.9383 343.2,75.099 348.4,73.4678 353.6,72.0141 358.8,70.7984 364,69.8331 369.2,69.1287 374.4,68.6931 379.6,68.3193 384.8,68.1489 390,68.2561 395.2,68.4376 400.4,68.0858 405.6,68.0111 410.8,68.2144 416,68.6933 421.2,69.442 426.4,66.9086 431.6,63.2971 436.8,59.7842 442,56.3883 447.2,53.1318 452.4,50.042 457.6,47.1517 462.8,44.4996 468,42.131 473.2,38.0594 478.4,33.7275 483.6,29.4011 488.8,25.0834 494,20.7795 499.2,16.5003 504.4,12.2718 509.6,8.17286 514.8,4.44561 520,0 " />
   <polyline fill="none" stroke=" slategrey " stroke-width=" 9 " points=" 5.2,0 10.4,48.3961 15.6,90.5588 20.8,133.517 26,166.05 31.2,169.239 36.4,169.359 41.6,173.401 46.8,176.489 52,181.083 57.2,187.848 62.4,196.561 67.6,206.123 72.8,210.697 78,214.822 83.2,219.469 88.4,224.681 93.6,230.38 98.8,236.494 104,241.793 109.2,246.044 114.4,249.183 119.6,253.609 124.8,256.245 130,258.896 135.2,261.662 140.4,264.888 145.6,267.62 150.8,268.546 156,269.668 161.2,270.982 166.4,272.485 171.6,274.175 176.8,273.816 182,274.374 187.2,272.303 192.4,274.039 197.6,273.05 202.8,272.289 208,271.759 213.2,271.461 218.4,271.395 223.6,271.562 228.8,269.448 234,267.721 239.2,265.037 244.4,262.065 249.6,259.249 254.8,256.592 260,254.1 265.2,250.012 270.4,246.183 275.6,244.189 280.8,242.38 286,240.76 291.2,237.555 296.4,233.907 301.6,230.524 306.8,231.186 312,226.89 317.2,221.875 322.4,216.828 327.6,211.853 332.8,206.956 338,202.142 343.2,197.417 348.4,192.789 353.6,188.264 358.8,183.85 364,179.556 369.2,175.392 374.4,171.366 379.6,167.022 384.8,162.807 390,158.781 395.2,154.959 400.4,149.979 405.6,147.994 410.8,143.625 416,138.964 421.2,134.547 426.4,130.399 431.6,125.113 436.8,120.183 442,113.932 447.2,107.819 452.4,101.871 457.6,96.1197 462.8,90.6061 468,85.3788 473.2,80.4975 478.4,76.0341 483.6,69.9251 488.8,62.2831 494,52.6723 499.2,43.0092 504.4,33.3684 509.6,23.7819 514.8,12.4901 520,6.63474e-13 " />
   <polyline fill="none" stroke=" violet " stroke-width=" 6 " points=" 5.2,5.00945e-06 10.4,78.0704 15.6,130.738 20.8,172.258 26,211.595 31.2,252.986 36.4,293.074 41.6,334.836 46.8,373.429 52,404.949 57.2,436.697 62.4,466.549 67.6,494.622 72.8,503.033 78,502.589 83.2,502.286 88.4,502.231 93.6,502.425 98.8,502.866 104,503.555 109.2,504.491 114.4,505.671 119.6,502.655 124.8,499.443 130,496.333 135.2,493.328 140.4,490.428 145.6,487.637 150.8,484.956 156,482.386 161.2,479.908 166.4,477.467 171.6,475.15 176.8,472.959 182,470.894 187.2,468.959 192.4,463.493 197.6,458.057 202.8,452.691 208,447.397 213.2,442.174 218.4,436.847 223.6,431.613 228.8,426.475 234,421.435 239.2,416.352 244.4,410.993 249.6,405.718 254.8,400.531 260,395.434 265.2,390.292 270.4,383.134 275.6,374.555 280.8,366.02 286,357.532 291.2,349.095 296.4,340.713 301.6,332.39 306.8,324.13 312,315.938 317.2,307.819 322.4,299.781 327.6,291.828 332.8,283.969 338,276.212 343.2,268.565 348.4,261.038 353.6,253.641 358.8,246.387 364,239.288 369.2,232.358 374.4,225.614 379.6,219.072 384.8,212.752 390,206.672 395.2,200.418 400.4,193.926 405.6,187.687 410.8,181.729 416,176.079 421.2,170.768 426.4,162.979 431.6,154.184 436.8,145.475 442,136.868 447.2,128.384 452.4,120.047 457.6,111.892 462.8,103.962 468,95.7931 473.2,86.3496 478.4,76.9374 483.6,67.5579 488.8,58.2104 494,48.9463 499.2,39.8676 504.4,30.7591 509.6,21.3325 514.8,10.7795 520,0 " />
   <polyline fill="none" stroke=" olive " stroke-width=" 3 " points=" 5.2,1.77111e-06 10.4,31.4771 15.6,52.7845 20.8,62.7146 26,70.3375 31.2,81.3211 36.4,93.2028 41.6,98.2329 46.8,98.19 52,98.2485 57.2,98.0995 62.4,98.1301 67.6,98.0613 72.8,98.0972 78,98.3802 83.2,98.6959 88.4,98.8717 93.6,98.6868 98.8,98.513 104,98.3494 109.2,98.1951 114.4,98.0493 119.6,98.1815 124.8,98.335 130,98.4978 135.2,97.8559 140.4,95.1684 145.6,92.7169 150.8,90.5207 156,88.5988 161.2,86.9693 166.4,85.6488 171.6,84.652 176.8,83.9903 182,83.6717 187.2,83.7 192.4,81.9921 197.6,80.1895 202.8,78.6047 208,77.251 213.2,76.1408 218.4,75.2848 223.6,74.6918 228.8,74.3681 234,74.3172 239.2,74.5396 244.4,75.0329 249.6,75.7919 254.8,76.8087 260,78.0731 265.2,79.5734 270.4,98.0993 275.6,98.2018 280.8,98.3084 286,98.4194 291.2,98.5351 296.4,97.5691 301.6,94.5367 306.8,91.6106 312,88.8013 317.2,86.1204 322.4,83.58 327.6,81.1935 332.8,78.9748 338,76.9383 343.2,75.099 348.4,73.4716 353.6,72.0705 358.8,70.9091 364,69.9993 369.2,69.351 374.4,68.9717 379.6,68.8657 384.8,69.0344 390,69.4756 395.2,69.5562 400.4,69.2111 405.6,69.1386 410.8,69.3396 416,69.8118 421.2,70.5496 426.4,68.1916 431.6,64.6235 436.8,61.1568 442,57.8099 447.2,54.6046 452.4,51.5676 457.6,48.7302 462.8,46.1292 468,43.678 473.2,39.4477 478.4,35.2468 483.6,31.0872 488.8,26.988 494,22.9816 499.2,19.1264 504.4,15.5353 509.6,12.4393 514.8,4.44561 520,1.77111e-06 " />

<!--Draw the X and Y axes -->
<polyline fill="none" stroke="black" stroke-width="6"  points=" 600,0 0,0 0,520" />
<!-- -->


<!--Draw labels and tics for X axis -->

<line fill="none" stroke="black"  stroke-width="6"  x1="0.5" y1="0" x2="0.5" y2="-20" />
<text transform="scale(1,-1)" font-family="sans-serif" font-size="30" x="-24.5" y="45" >0</text>
<line fill="none" stroke="black"  stroke-width="6"  x1="104.5" y1="0" x2="104.5" y2="-20" />
<text transform="scale(1,-1)" font-family="sans-serif" font-size="30" x="79.5" y="45" >20</text>
<line fill="none" stroke="black"  stroke-width="6"  x1="208.5" y1="0" x2="208.5" y2="-20" />
<text transform="scale(1,-1)" font-family="sans-serif" font-size="30" x="183.5" y="45" >40</text>
<line fill="none" stroke="black"  stroke-width="6"  x1="312.5" y1="0" x2="312.5" y2="-20" />
<text transform="scale(1,-1)" font-family="sans-serif" font-size="30" x="287.5" y="45" >60</text>
<line fill="none" stroke="black"  stroke-width="6"  x1="416.5" y1="0" x2="416.5" y2="-20" />
<text transform="scale(1,-1)" font-family="sans-serif" font-size="30" x="391.5" y="45" >80</text>
<line fill="none" stroke="black"  stroke-width="6"  x1="520.5" y1="0" x2="520.5" y2="-20" />
<text transform="scale(1,-1)" font-family="sans-serif" font-size="30" x="495.5" y="45" >100</text>


<!--Draw labels and tics for Y axis -->

<line fill="none" stroke="black" stroke-width="6" x1="0.0" y1="0" x2="-20" y2="0" />
<text transform="scale(1,-1)" text-anchor="end" font-family="sans-serif" font-size="30" x="-25" y="10" >0</text>
<line fill="none" stroke="black" stroke-width="6" x1="0.0" y1="74.2857" x2="-20" y2="74.2857" />
<text transform="scale(1,-1)" text-anchor="end" font-family="sans-serif" font-size="30" x="-25" y="-64.2857" >10</text>
<line fill="none" stroke="black" stroke-width="6" x1="0.0" y1="148.571" x2="-20" y2="148.571" />
<text transform="scale(1,-1)" text-anchor="end" font-family="sans-serif" font-size="30" x="-25" y="-138.571" >20</text>
<line fill="none" stroke="black" stroke-width="6" x1="0.0" y1="222.857" x2="-20" y2="222.857" />
<text transform="scale(1,-1)" text-anchor="end" font-family="sans-serif" font-size="30" x="-25" y="-212.857" >30</text>
<line fill="none" stroke="black" stroke-width="6" x1="0.0" y1="297.143" x2="-20" y2="297.143" />
<text transform="scale(1,-1)" text-anchor="end" font-family="sans-serif" font-size="30" x="-25" y="-287.143" >40</text>
<line fill="none" stroke="black" stroke-width="6" x1="0.0" y1="371.429" x2="-20" y2="371.429" />
<text transform="scale(1,-1)" text-anchor="end" font-family="sans-serif" font-size="30" x="-25" y="-361.429" >50</text>
<line fill="none" stroke="black" stroke-width="6" x1="0.0" y1="445.714" x2="-20" y2="445.714" />
<text transform="scale(1,-1)" text-anchor="end" font-family="sans-serif" font-size="30" x="-25" y="-435.714" >60</text>
<line fill="none" stroke="black" stroke-width="6" x1="0.0" y1="520" x2="-20" y2="520" />
<text transform="scale(1,-1)" text-anchor="end" font-family="sans-serif" font-size="30" x="-25" y="-510" >70</text>

-->
</g>
</g>
<!-- Run Constants
CIRCLEPLOT bool false
DISTANCEPLOT bool true
PRINTDISTANCEDATA bool true
GLITCHESONLY bool false
PLOT 2doubles 3 4
PERTURBBY double 0.05
GLITCHLEVEL double 3
BOUNDARYWINDOW double 0.065
FRAMESPERPATH int 200
STEPSPERFRAME int 100
TRIALS int 1
ALLBLACK bool true
FILEPREFIX string Fol
GRAPHSIZE int 0
BORDER int 0
PLOTSIZE int 0
CIRCLEPLOTSIZE int 2000
CIRCLERADIUS int 300
CIRCLESTROKEWIDTH int 30
G6LINEWIDTH int 3
DELONELINEWIDTH int 10
AXISWIDTH int 6
TICLENGTH int 20
VECTOR g6 
MOVIEMODE MovieMode STAR
FOLLOWERMODE FollowerMode Follow
FIXRANDOMSEED fixRandomSeed false
RANDOMSEED int 19191
TIMESTAMP bool true
END end 




-->
</svg>
