<?xml version="1.0" standalone="no"?>
<!-- the width and height set the total pixel output of the image in the browser -->
<!-- whatever is within the viewbox will be remapped to show in this size -->
<svg width="1000" height="1000" viewBox="1 0  1200 1200"  version="1.1" xmlns="http://www.w3.org/2000/svg" xmlns:xlink="http://www.w3.org/1999/xlink">
 <desc>ID (and file name) = Fol_2020-03-07.14_10_54.0_0.svg  mode = Single Point </desc> 
<g transform = "scale(1 1)">

<text x = "-850" y="50" transform="rotate(-90)"  font-family="sans-serif" font-size="40" stroke ="lightgray" fill="none"> PointDistanceFollower   Mar  5 2020</text>
 <text x="200"  y="30"  font-family="sans-serif" font-size="20" >Fol_2020-03-07.14_10_54.0_0.svg  &#160;&#160;&#160;&#160;&#160; Wall time passed: 568 msec.</text>
<text x="300" y="60"   font-family="sans-serif" font-size="20" fill="lightblue">  S6  553 msec </text>
<text x="300" y="85"   font-family="sans-serif" font-size="20" fill="olive">  CS6Dist  14 msec </text>



 <!--DISTANCE PLOT BEGINS   mode = Single Point-->


<!-- the following will scale and place the distance plot -->
<g transform="translate(150,975) scale(1 -1)">
   <polyline fill="none" stroke=" lightblue " stroke-width=" 12 " stroke-dasharray = " 10,5 " points=" 0.799201,0 1.5984,1.55073 2.3976,3.10146 3.1968,4.65218 3.996,6.20291 4.7952,7.75364 5.59441,9.30437 6.39361,10.8551 7.19281,12.4058 7.99201,13.9565 8.79121,15.5073 9.59041,17.058 10.3896,18.6087 11.1888,20.1595 11.988,21.7102 12.7872,23.2609 13.5864,24.8116 14.3856,26.3624 15.1848,27.9131 15.984,29.4638 16.7832,31.0146 17.5824,32.5653 18.3816,34.116 19.1808,35.6667 19.98,37.2175 20.7792,38.7682 21.5784,40.3189 22.3776,41.8696 23.1768,43.4204 23.976,44.9711 24.7752,46.5218 25.5744,48.0726 26.3736,49.6233 27.1728,51.174 27.972,52.7247 28.7712,54.2755 29.5704,55.8262 30.3696,57.3769 31.1688,58.9276 31.968,60.4784 32.7672,62.0291 33.5664,63.5798 34.3656,65.1306 35.1648,66.6813 35.964,68.232 36.7632,69.7827 37.5624,71.3335 38.3616,72.8842 39.1608,74.4349 39.96,75.9857 40.7592,77.5364 41.5584,79.0871 42.3576,80.6378 43.1568,82.1886 43.956,83.7393 44.7552,85.29 45.5544,86.8407 46.3536,88.3915 47.1528,89.9422 47.952,91.4929 48.7512,93.0437 49.5504,94.5944 50.3497,96.1451 51.1489,97.6958 51.9481,99.2466 52.7473,100.797 53.5465,102.348 54.3457,103.899 55.1449,105.449 55.9441,107 56.7433,108.551 57.5425,110.102 58.3417,111.652 59.1409,113.203 59.9401,114.754 60.7393,116.305 61.5385,117.855 62.3377,119.406 63.1369,120.957 63.9361,122.507 64.7353,124.058 65.5345,125.609 66.3337,127.16 67.1329,128.71 67.9321,130.261 68.7313,131.812 69.5305,133.363 70.3297,134.913 71.1289,136.464 71.9281,138.015 72.7273,139.565 73.5265,141.116 74.3257,142.667 75.1249,144.218 75.9241,145.768 76.7233,147.319 77.5225,148.87 78.3217,150.421 79.1209,151.971 79.9201,153.522 80.7193,155.073 81.5185,156.623 82.3177,158.174 83.1169,159.725 83.9161,161.276 84.7153,162.826 85.5145,164.377 86.3137,165.928 87.1129,167.479 87.9121,169.029 88.7113,170.58 89.5105,172.131 90.3097,173.681 91.1089,175.232 91.9081,176.783 92.7073,178.334 93.5065,179.884 94.3057,181.435 95.1049,182.986 95.9041,184.537 96.7033,186.087 97.5025,187.638 98.3017,189.189 99.1009,190.739 99.9001,192.29 100.699,193.841 101.499,195.392 102.298,196.942 103.097,198.493 103.896,200.044 104.695,201.595 105.495,203.145 106.294,204.696 107.093,206.247 107.892,207.797 108.691,209.348 109.491,210.899 110.29,212.45 111.089,214 111.888,215.551 112.687,217.102 113.487,218.653 114.286,220.203 115.085,221.754 115.884,223.305 116.683,224.856 117.483,226.406 118.282,227.957 119.081,229.508 119.88,231.058 120.679,232.609 121.479,234.16 122.278,235.711 123.077,237.261 123.876,238.812 124.675,240.363 125.475,241.914 126.274,243.464 127.073,245.015 127.872,246.566 128.671,248.116 129.471,249.667 130.27,251.218 131.069,252.769 131.868,254.319 132.667,255.87 133.467,257.421 134.266,258.972 135.065,260.522 135.864,262.073 136.663,263.624 137.463,265.174 138.262,266.725 139.061,268.276 139.86,269.827 140.659,271.377 141.459,272.928 142.258,274.479 143.057,276.03 143.856,277.58 144.655,279.131 145.455,280.682 146.254,282.232 147.053,283.783 147.852,285.334 148.651,286.885 149.451,288.435 150.25,289.986 151.049,291.537 151.848,293.088 152.647,294.638 153.447,296.189 154.246,297.74 155.045,299.29 155.844,300.841 156.643,302.392 157.443,303.943 158.242,305.493 159.041,307.044 159.84,308.595 160.639,310.146 161.439,311.696 162.238,313.247 163.037,314.798 163.836,316.348 164.635,317.899 165.435,319.45 166.234,321.001 167.033,322.551 167.832,324.102 168.631,325.653 169.431,327.204 170.23,328.754 171.029,330.305 171.828,331.856 172.627,333.406 173.427,334.957 174.226,336.508 175.025,338.059 175.824,339.609 176.623,341.16 177.423,342.711 178.222,344.262 179.021,345.812 179.82,347.363 180.619,348.914 181.419,350.464 182.218,352.015 183.017,353.566 183.816,355.117 184.615,356.667 185.415,358.218 186.214,359.769 187.013,361.32 187.812,362.87 188.611,364.421 189.411,365.972 190.21,367.522 191.009,369.073 191.808,370.624 192.607,372.175 193.407,373.725 194.206,375.276 195.005,376.827 195.804,378.378 196.603,379.928 197.403,381.479 198.202,383.03 199.001,384.58 199.8,386.131 200.599,387.682 201.399,389.233 202.198,390.783 202.997,392.334 203.796,393.885 204.595,395.436 205.395,396.986 206.194,398.537 206.993,400.088 207.792,401.638 208.591,403.189 209.391,404.74 210.19,406.291 210.989,407.841 211.788,409.392 212.587,410.943 213.387,412.494 214.186,414.044 214.985,415.595 215.784,417.146 216.583,418.696 217.383,420.247 218.182,421.798 218.981,423.349 219.78,424.899 220.579,426.45 221.379,428.001 222.178,429.552 222.977,431.102 223.776,432.653 224.575,434.204 225.375,435.073 226.174,435.662 226.973,436.255 227.772,436.853 228.571,437.456 229.371,438.063 230.17,438.675 230.969,439.291 231.768,439.913 232.567,440.538 233.367,441.169 234.166,441.803 234.965,442.443 235.764,443.087 236.563,443.735 237.363,444.388 238.162,445.045 238.961,445.707 239.76,446.373 240.559,447.043 241.359,447.718 242.158,448.397 242.957,449.081 243.756,449.769 244.555,450.461 245.355,451.157 246.154,451.858 246.953,452.563 247.752,453.272 248.551,453.985 249.351,454.703 250.15,455.424 250.949,456.15 251.748,456.88 252.547,457.614 253.347,458.352 254.146,459.094 254.945,459.84 255.744,460.59 256.543,461.344 257.343,462.102 258.142,462.864 258.941,463.63 259.74,464.4 260.539,465.174 261.339,465.951 262.138,466.733 262.937,467.518 263.736,468.307 264.535,469.1 265.335,469.897 266.134,470.697 266.933,471.501 267.732,472.309 268.531,473.121 269.331,473.936 270.13,474.755 270.929,475.578 271.728,476.404 272.527,477.234 273.327,478.068 274.126,478.905 274.925,479.745 275.724,480.589 276.523,481.437 277.323,482.288 278.122,483.143 278.921,484.001 279.72,484.862 280.519,485.727 281.319,486.596 282.118,487.467 282.917,488.342 283.716,489.221 284.515,490.103 285.315,490.988 286.114,491.876 286.913,492.768 287.712,493.663 288.511,494.561 289.311,495.462 290.11,496.367 290.909,497.275 291.708,498.186 292.507,499.1 293.307,500.017 294.106,500.937 294.905,501.861 295.704,502.787 296.503,503.717 297.303,504.65 298.102,505.586 298.901,506.524 299.7,507.466 300.5,508.411 301.299,509.358 302.098,510.309 302.897,511.263 303.696,512.219 304.496,513.179 305.295,514.141 306.094,515.106 306.893,516.074 307.692,517.045 308.492,518.019 309.291,518.995 310.09,519.975 310.889,520.957 311.688,521.941 312.488,522.929 313.287,523.919 314.086,524.912 314.885,525.908 315.684,526.906 316.484,527.907 317.283,528.911 318.082,529.917 318.881,530.926 319.68,531.938 320.48,532.952 321.279,533.969 322.078,534.988 322.877,536.01 323.676,537.034 324.476,538.061 325.275,539.091 326.074,540.123 326.873,541.157 327.672,542.194 328.472,543.233 329.271,544.275 330.07,545.319 330.869,546.366 331.668,547.414 332.468,548.466 333.267,549.519 334.066,550.576 334.865,551.634 335.664,552.695 336.464,553.758 337.263,554.823 338.062,555.89 338.861,556.96 339.66,558.032 340.46,559.107 341.259,560.183 342.058,561.262 342.857,562.343 343.656,563.426 344.456,564.512 345.255,565.599 346.054,566.689 346.853,567.781 347.652,568.875 348.452,569.971 349.251,571.069 350.05,572.17 350.849,573.272 351.648,574.377 352.448,575.483 353.247,576.592 354.046,577.702 354.845,578.815 355.644,579.93 356.444,581.046 357.243,582.165 358.042,583.285 358.841,584.408 359.64,585.533 360.44,586.659 361.239,587.787 362.038,588.918 362.837,590.05 363.636,591.184 364.436,592.32 365.235,593.458 366.034,594.598 366.833,595.739 367.632,596.883 368.432,598.028 369.231,599.175 370.03,600.324 370.829,601.475 371.628,602.628 372.428,603.782 373.227,604.762 374.026,605.616 374.825,606.472 375.624,607.332 376.424,608.194 377.223,609.059 378.022,609.926 378.821,610.796 379.62,611.669 380.42,612.545 381.219,613.423 382.018,614.304 382.817,615.187 383.616,616.074 384.416,616.962 385.215,617.854 386.014,618.748 386.813,619.644 387.612,620.544 388.412,621.445 389.211,622.35 390.01,623.257 390.809,624.166 391.608,625.078 392.408,625.992 393.207,626.909 394.006,627.829 394.805,628.751 395.604,629.675 396.404,630.602 397.203,631.531 398.002,632.463 398.801,633.397 399.6,634.333 400.4,635.427 401.199,636.677 401.998,637.929 402.797,639.183 403.596,640.438 404.396,641.696 405.195,642.955 405.994,644.217 406.793,645.48 407.592,646.744 408.392,648.011 409.191,649.28 409.99,650.55 410.789,651.822 411.588,653.096 412.388,654.371 413.187,655.648 413.986,656.927 414.785,658.208 415.584,659.49 416.384,660.774 417.183,662.06 417.982,663.348 418.781,664.637 419.58,665.928 420.38,667.22 421.179,668.514 421.978,669.81 422.777,671.107 423.576,672.406 424.376,673.707 425.175,675.009 425.974,676.313 426.773,677.618 427.572,678.925 428.372,680.233 429.171,681.543 429.97,682.855 430.769,684.168 431.568,685.482 432.368,686.799 433.167,688.116 433.966,689.435 434.765,690.756 435.564,692.078 436.364,693.401 437.163,694.726 437.962,696.053 438.761,697.381 439.56,698.71 440.36,700.041 441.159,701.373 441.958,702.707 442.757,704.042 443.556,705.362 444.356,706.536 445.155,707.713 445.954,708.891 446.753,710.071 447.552,711.253 448.352,712.437 449.151,713.623 449.95,714.811 450.749,716.001 451.548,717.193 452.348,718.386 453.147,719.582 453.946,720.779 454.745,721.978 455.544,723.179 456.344,724.382 457.143,725.586 457.942,726.793 458.741,728.001 459.54,729.211 460.34,730.423 461.139,731.636 461.938,732.851 462.737,734.068 463.536,735.287 464.336,736.508 465.135,737.73 465.934,738.954 466.733,740.18 467.532,741.407 468.332,742.637 469.131,743.867 469.93,745.1 470.729,746.334 471.528,747.57 472.328,748.807 473.127,750.046 473.926,751.287 474.725,752.53 475.524,753.774 476.324,755.019 477.123,756.267 477.922,757.516 478.721,758.766 479.52,760.018 480.32,761.272 481.119,762.527 481.918,763.784 482.717,765.042 483.516,766.302 484.316,767.563 485.115,768.826 485.914,770.09 486.713,771.356 487.512,772.624 488.312,773.893 489.111,775.163 489.91,776.435 490.709,777.709 491.508,778.983 492.308,780.26 493.107,781.538 493.906,783.117 494.705,785.054 495.504,786.994 496.304,788.938 497.103,789.665 497.902,790.094 498.701,790.532 499.5,790.977 500.3,790.823 501.099,789.754 501.898,788.692 502.697,787.636 503.497,786.587 504.296,785.545 505.095,784.509 505.894,783.481 506.693,782.459 507.493,781.445 508.292,779.185 509.091,776.76 509.89,774.335 510.689,771.911 511.489,769.488 512.288,767.065 513.087,764.643 513.886,762.223 514.685,759.802 515.485,757.383 516.284,754.964 517.083,752.547 517.882,750.13 518.681,747.713 519.481,745.298 520.28,742.884 521.079,740.47 521.878,738.057 522.677,735.645 523.477,733.234 524.276,730.824 525.075,728.414 525.874,726.006 526.673,723.598 527.473,721.192 528.272,718.786 529.071,716.381 529.87,713.977 530.669,711.574 531.469,709.173 532.268,706.772 533.067,704.371 533.866,701.972 534.665,699.574 535.465,697.177 536.264,694.781 537.063,692.386 537.862,689.992 538.661,687.6 539.461,685.208 540.26,682.817 541.059,680.427 541.858,678.039 542.657,675.651 543.457,673.265 544.256,670.88 545.055,668.496 545.854,666.113 546.653,663.731 547.453,661.35 548.252,658.971 549.051,656.593 549.85,654.216 550.649,651.84 551.449,649.465 552.248,647.092 553.047,644.72 553.846,642.349 554.645,639.98 555.445,637.612 556.244,635.245 557.043,632.88 557.842,630.516 558.641,628.153 559.441,625.792 560.24,623.432 561.039,621.074 561.838,618.717 562.637,616.361 563.437,614.007 564.236,611.654 565.035,609.303 565.834,606.954 566.633,604.606 567.433,602.259 568.232,599.914 569.031,597.571 569.83,595.229 570.629,592.889 571.429,590.551 572.228,588.214 573.027,585.879 573.826,583.78 574.625,581.71 575.425,579.639 576.224,577.569 577.023,575.499 577.822,573.429 578.621,571.359 579.421,569.289 580.22,567.219 581.019,565.148 581.818,563.078 582.617,561.008 583.417,558.938 584.216,556.868 585.015,554.798 585.814,552.728 586.613,550.657 587.413,548.587 588.212,546.517 589.011,544.447 589.81,542.377 590.609,540.307 591.409,538.237 592.208,536.167 593.007,534.096 593.806,532.026 594.605,529.956 595.405,527.886 596.204,525.816 597.003,523.746 597.802,521.676 598.601,519.605 599.401,517.535 600.2,515.465 600.999,513.395 601.798,511.325 602.597,509.255 603.397,507.185 604.196,505.114 604.995,503.044 605.794,500.974 606.593,498.904 607.393,496.834 608.192,494.764 608.991,492.694 609.79,490.623 610.589,488.553 611.389,486.483 612.188,484.413 612.987,482.343 613.786,480.273 614.585,478.203 615.385,476.132 616.184,474.062 616.983,471.992 617.782,469.922 618.581,467.852 619.381,465.782 620.18,463.712 620.979,461.641 621.778,459.571 622.577,457.501 623.377,455.431 624.176,453.361 624.975,451.291 625.774,449.221 626.573,447.15 627.373,445.08 628.172,443.01 628.971,440.94 629.77,438.87 630.569,436.8 631.369,434.73 632.168,432.659 632.967,430.589 633.766,428.519 634.565,426.449 635.365,424.379 636.164,422.309 636.963,420.239 637.762,418.168 638.561,416.098 639.361,414.028 640.16,411.958 640.959,409.888 641.758,407.818 642.557,405.748 643.357,403.677 644.156,401.607 644.955,399.537 645.754,397.467 646.553,395.397 647.353,393.327 648.152,391.257 648.951,389.187 649.75,387.116 650.549,385.046 651.349,382.976 652.148,380.906 652.947,378.836 653.746,376.766 654.545,374.696 655.345,372.625 656.144,370.555 656.943,368.485 657.742,366.415 658.541,364.345 659.341,362.275 660.14,360.205 660.939,358.134 661.738,356.064 662.537,353.994 663.337,351.924 664.136,349.854 664.935,347.784 665.734,345.714 666.533,343.643 667.333,341.573 668.132,339.503 668.931,337.433 669.73,335.363 670.529,333.293 671.329,331.223 672.128,329.152 672.927,327.082 673.726,325.012 674.525,322.942 675.325,320.872 676.124,318.802 676.923,316.732 677.722,314.661 678.521,312.591 679.321,310.521 680.12,308.451 680.919,306.381 681.718,304.311 682.517,302.241 683.317,300.17 684.116,298.1 684.915,296.03 685.714,293.96 686.513,291.89 687.313,289.82 688.112,287.75 688.911,285.679 689.71,283.609 690.509,281.539 691.309,279.469 692.108,277.399 692.907,275.329 693.706,273.259 694.505,271.188 695.305,269.118 696.104,267.048 696.903,264.978 697.702,262.908 698.501,260.838 699.301,258.768 700.1,256.697 700.899,254.627 701.698,252.557 702.498,250.487 703.297,248.417 704.096,246.347 704.895,244.277 705.694,242.206 706.494,240.136 707.293,238.066 708.092,235.996 708.891,233.926 709.69,231.856 710.49,229.786 711.289,227.716 712.088,225.645 712.887,223.575 713.686,221.505 714.486,219.435 715.285,217.365 716.084,215.295 716.883,213.225 717.682,211.154 718.482,209.084 719.281,207.014 720.08,204.944 720.879,202.874 721.678,200.804 722.478,198.734 723.277,196.663 724.076,194.593 724.875,192.523 725.674,190.453 726.474,188.383 727.273,186.313 728.072,184.243 728.871,182.172 729.67,180.102 730.47,178.032 731.269,175.962 732.068,173.892 732.867,171.822 733.666,169.752 734.466,167.681 735.265,165.611 736.064,163.541 736.863,161.471 737.662,159.401 738.462,157.331 739.261,155.261 740.06,153.19 740.859,151.12 741.658,149.05 742.458,146.98 743.257,144.91 744.056,142.84 744.855,140.77 745.654,138.699 746.454,136.629 747.253,134.559 748.052,132.489 748.851,130.419 749.65,128.349 750.45,126.279 751.249,124.208 752.048,122.138 752.847,120.068 753.646,117.998 754.446,115.928 755.245,113.858 756.044,111.788 756.843,109.717 757.642,107.647 758.442,105.577 759.241,103.507 760.04,101.437 760.839,99.3668 761.638,97.2966 762.438,95.2265 763.237,93.1563 764.036,91.0862 764.835,89.0161 765.634,86.9459 766.434,84.8758 767.233,82.8056 768.032,80.7355 768.831,78.6654 769.63,76.5952 770.43,74.5251 771.229,72.4549 772.028,70.3848 772.827,68.3147 773.626,66.2445 774.426,64.1744 775.225,62.1042 776.024,60.0341 776.823,57.9639 777.622,55.8938 778.422,53.8237 779.221,51.7535 780.02,49.6834 780.819,47.6132 781.618,45.5431 782.418,43.473 783.217,41.4028 784.016,39.3327 784.815,37.2625 785.614,35.1924 786.414,33.1223 787.213,31.0521 788.012,28.982 788.811,26.9118 789.61,24.8417 790.41,22.7716 791.209,20.7014 792.008,18.6313 792.807,16.5611 793.606,14.491 794.406,12.4208 795.205,10.3507 796.004,8.28056 796.803,6.21042 797.602,4.14028 798.402,2.07014 799.201,0 " />

   <polyline fill="none" stroke=" olive " stroke-width=" 3 " stroke-dasharray = " 5,10 " points=" 0.799201,0 1.5984,1.55073 2.3976,3.10146 3.1968,4.65218 3.996,6.20291 4.7952,7.75364 5.59441,9.30437 6.39361,10.8551 7.19281,12.4058 7.99201,13.9565 8.79121,15.5073 9.59041,17.058 10.3896,18.6087 11.1888,20.1595 11.988,21.7102 12.7872,23.2609 13.5864,24.8116 14.3856,26.3624 15.1848,27.9131 15.984,29.4638 16.7832,31.0146 17.5824,32.5653 18.3816,34.116 19.1808,35.6667 19.98,37.2175 20.7792,38.7682 21.5784,40.3189 22.3776,41.8696 23.1768,43.4204 23.976,44.9711 24.7752,46.5218 25.5744,48.0726 26.3736,49.6233 27.1728,51.174 27.972,52.7247 28.7712,54.2755 29.5704,55.8262 30.3696,57.3769 31.1688,58.9276 31.968,60.4784 32.7672,62.0291 33.5664,63.5798 34.3656,65.1306 35.1648,66.6813 35.964,68.232 36.7632,69.7827 37.5624,71.3335 38.3616,72.8842 39.1608,74.4349 39.96,75.9857 40.7592,77.5364 41.5584,79.0871 42.3576,80.6378 43.1568,82.1886 43.956,83.7393 44.7552,85.29 45.5544,86.8407 46.3536,88.3915 47.1528,89.9422 47.952,91.4929 48.7512,93.0437 49.5504,94.5944 50.3497,96.1451 51.1489,97.6958 51.9481,99.2466 52.7473,100.797 53.5465,102.348 54.3457,103.899 55.1449,105.449 55.9441,107 56.7433,108.551 57.5425,110.102 58.3417,111.652 59.1409,113.203 59.9401,114.754 60.7393,116.305 61.5385,117.855 62.3377,119.406 63.1369,120.957 63.9361,122.507 64.7353,124.058 65.5345,125.609 66.3337,127.16 67.1329,128.71 67.9321,130.261 68.7313,131.812 69.5305,133.363 70.3297,134.913 71.1289,136.464 71.9281,138.015 72.7273,139.565 73.5265,141.116 74.3257,142.667 75.1249,144.218 75.9241,145.768 76.7233,147.319 77.5225,148.87 78.3217,150.421 79.1209,151.971 79.9201,153.522 80.7193,155.073 81.5185,156.623 82.3177,158.174 83.1169,159.725 83.9161,161.276 84.7153,162.826 85.5145,164.377 86.3137,165.928 87.1129,167.479 87.9121,169.029 88.7113,170.58 89.5105,172.131 90.3097,173.681 91.1089,175.232 91.9081,176.783 92.7073,178.334 93.5065,179.884 94.3057,181.435 95.1049,182.986 95.9041,184.537 96.7033,186.087 97.5025,187.638 98.3017,189.189 99.1009,190.739 99.9001,192.29 100.699,193.841 101.499,195.392 102.298,196.942 103.097,198.493 103.896,200.044 104.695,201.595 105.495,203.145 106.294,204.696 107.093,206.247 107.892,207.797 108.691,209.348 109.491,210.899 110.29,212.45 111.089,214 111.888,215.551 112.687,217.102 113.487,218.653 114.286,220.203 115.085,221.754 115.884,223.305 116.683,224.856 117.483,226.406 118.282,227.957 119.081,229.508 119.88,231.058 120.679,232.609 121.479,234.16 122.278,235.711 123.077,237.261 123.876,238.812 124.675,240.363 125.475,241.914 126.274,243.464 127.073,245.015 127.872,246.566 128.671,248.116 129.471,249.667 130.27,251.218 131.069,252.769 131.868,254.319 132.667,255.87 133.467,257.421 134.266,258.972 135.065,260.522 135.864,262.073 136.663,263.624 137.463,265.174 138.262,266.725 139.061,268.276 139.86,269.827 140.659,271.377 141.459,272.928 142.258,274.479 143.057,276.03 143.856,277.58 144.655,279.131 145.455,280.682 146.254,282.232 147.053,283.783 147.852,285.334 148.651,286.885 149.451,288.435 150.25,289.986 151.049,291.537 151.848,293.088 152.647,294.638 153.447,296.189 154.246,297.74 155.045,299.29 155.844,300.841 156.643,302.392 157.443,303.943 158.242,305.493 159.041,307.044 159.84,308.595 160.639,310.146 161.439,311.696 162.238,313.247 163.037,314.798 163.836,316.348 164.635,317.899 165.435,319.45 166.234,321.001 167.033,322.551 167.832,324.102 168.631,325.653 169.431,327.204 170.23,328.754 171.029,330.305 171.828,331.856 172.627,333.406 173.427,334.957 174.226,336.508 175.025,338.059 175.824,339.609 176.623,341.16 177.423,342.711 178.222,344.262 179.021,345.812 179.82,347.363 180.619,348.914 181.419,350.464 182.218,352.015 183.017,353.566 183.816,355.117 184.615,356.667 185.415,358.218 186.214,359.769 187.013,361.32 187.812,362.87 188.611,364.421 189.411,365.972 190.21,367.522 191.009,369.073 191.808,370.624 192.607,372.175 193.407,373.725 194.206,375.276 195.005,376.827 195.804,378.378 196.603,379.928 197.403,381.479 198.202,383.03 199.001,384.58 199.8,386.131 200.599,387.682 201.399,389.233 202.198,390.783 202.997,392.334 203.796,393.885 204.595,395.436 205.395,396.986 206.194,398.537 206.993,400.088 207.792,401.638 208.591,403.189 209.391,404.74 210.19,406.291 210.989,407.841 211.788,409.392 212.587,410.943 213.387,412.494 214.186,414.044 214.985,415.595 215.784,417.146 216.583,418.696 217.383,420.247 218.182,421.798 218.981,423.349 219.78,424.899 220.579,426.45 221.379,428.001 222.178,429.552 222.977,431.102 223.776,432.653 224.575,434.204 225.375,435.754 226.174,437.305 226.973,438.856 227.772,440.407 228.571,441.957 229.371,443.508 230.17,445.059 230.969,446.61 231.768,448.16 232.567,449.711 233.367,451.262 234.166,452.812 234.965,454.363 235.764,455.914 236.563,457.465 237.363,459.015 238.162,460.566 238.961,462.117 239.76,463.668 240.559,465.218 241.359,466.769 242.158,468.32 242.957,469.87 243.756,471.421 244.555,472.972 245.355,474.523 246.154,476.073 246.953,477.624 247.752,479.175 248.551,480.726 249.351,482.276 250.15,483.827 250.949,485.378 251.748,486.928 252.547,488.479 253.347,490.03 254.146,491.581 254.945,493.131 255.744,494.305 256.543,494.981 257.343,495.659 258.142,496.34 258.941,497.023 259.74,497.709 260.539,498.397 261.339,499.088 262.138,499.781 262.937,500.477 263.736,501.175 264.535,501.876 265.335,502.579 266.134,503.284 266.933,503.992 267.732,504.702 268.531,505.415 269.331,506.13 270.13,506.847 270.929,507.566 271.728,508.288 272.527,509.012 273.327,509.738 274.126,510.466 274.925,511.197 275.724,511.93 276.523,512.665 277.323,513.402 278.122,514.141 278.921,514.882 279.72,515.626 280.519,516.371 281.319,517.119 282.118,517.869 282.917,518.62 283.716,519.374 284.515,520.13 285.315,520.888 286.114,521.647 286.913,522.409 287.712,523.173 288.511,523.938 289.311,524.706 290.11,525.475 290.909,526.246 291.708,527.02 292.507,527.795 293.307,528.571 294.106,529.35 294.905,530.131 295.704,530.913 296.503,531.697 297.303,532.483 298.102,533.271 298.901,534.06 299.7,534.852 300.5,535.645 301.299,536.439 302.098,537.236 302.897,538.034 303.696,538.834 304.496,539.635 305.295,540.438 306.094,541.243 306.893,542.049 307.692,542.857 308.492,543.667 309.291,544.478 310.09,545.291 310.889,546.105 311.688,546.921 312.488,547.739 313.287,548.558 314.086,549.379 314.885,550.201 315.684,551.024 316.484,551.849 317.283,552.676 318.082,553.504 318.881,554.334 319.68,555.165 320.48,555.997 321.279,556.831 322.078,557.666 322.877,558.503 323.676,559.341 324.476,560.181 325.275,561.022 326.074,561.864 326.873,562.708 327.672,563.553 328.472,564.399 329.271,565.247 330.07,566.096 330.869,566.946 331.668,567.798 332.468,568.651 333.267,569.505 334.066,570.361 334.865,571.218 335.664,572.076 336.464,572.935 337.263,573.796 338.062,574.658 338.861,575.521 339.66,576.385 340.46,577.25 341.259,578.117 342.058,578.985 342.857,579.854 343.656,580.724 344.456,581.596 345.255,582.469 346.054,583.342 346.853,584.217 347.652,585.093 348.452,585.971 349.251,586.849 350.05,587.728 350.849,588.609 351.648,589.49 352.448,590.373 353.247,591.257 354.046,592.142 354.845,593.028 355.644,593.915 356.444,594.803 357.243,595.692 358.042,596.583 358.841,597.474 359.64,598.366 360.44,599.259 361.239,600.154 362.038,601.049 362.837,601.945 363.636,602.843 364.436,603.741 365.235,604.64 366.034,605.541 366.833,606.442 367.632,607.344 368.432,608.247 369.231,609.152 370.03,610.057 370.829,610.963 371.628,611.87 372.428,612.778 373.227,613.686 374.026,614.596 374.825,615.507 375.624,616.418 376.424,617.202 377.223,617.769 378.022,618.338 378.821,618.909 379.62,619.482 380.42,620.058 381.219,620.635 382.018,621.215 382.817,621.797 383.616,622.381 384.416,622.967 385.215,623.556 386.014,624.146 386.813,624.738 387.612,625.333 388.412,625.929 389.211,626.528 390.01,627.128 390.809,627.731 391.608,628.335 392.408,628.942 393.207,629.551 394.006,630.161 394.805,630.774 395.604,631.388 396.404,632.005 397.203,632.623 398.002,633.243 398.801,633.866 399.6,634.49 400.4,635.427 401.199,636.677 401.998,637.929 402.797,639.183 403.596,640.438 404.396,641.696 405.195,642.955 405.994,644.217 406.793,645.48 407.592,646.744 408.392,648.011 409.191,649.28 409.99,650.55 410.789,651.822 411.588,653.096 412.388,654.371 413.187,655.648 413.986,656.927 414.785,658.208 415.584,659.49 416.384,660.774 417.183,662.06 417.982,663.348 418.781,664.637 419.58,665.928 420.38,667.22 421.179,668.514 421.978,669.81 422.777,671.107 423.576,672.406 424.376,673.707 425.175,675.009 425.974,676.313 426.773,677.618 427.572,678.925 428.372,680.233 429.171,681.543 429.97,682.855 430.769,684.168 431.568,685.482 432.368,686.799 433.167,688.116 433.966,689.435 434.765,690.756 435.564,692.078 436.364,693.401 437.163,694.726 437.962,696.053 438.761,697.381 439.56,698.71 440.36,700.041 441.159,701.373 441.958,702.707 442.757,704.042 443.556,705.362 444.356,706.536 445.155,707.713 445.954,708.891 446.753,710.071 447.552,711.253 448.352,712.437 449.151,713.623 449.95,714.811 450.749,716.001 451.548,717.193 452.348,718.386 453.147,719.582 453.946,720.779 454.745,721.978 455.544,723.179 456.344,724.382 457.143,725.586 457.942,726.793 458.741,728.001 459.54,729.211 460.34,730.423 461.139,731.636 461.938,732.851 462.737,734.068 463.536,735.287 464.336,736.508 465.135,737.73 465.934,738.954 466.733,740.18 467.532,741.407 468.332,742.637 469.131,743.867 469.93,745.1 470.729,746.334 471.528,747.57 472.328,748.807 473.127,750.046 473.926,751.287 474.725,752.53 475.524,753.774 476.324,755.019 477.123,756.267 477.922,757.516 478.721,758.766 479.52,760.018 480.32,761.272 481.119,762.527 481.918,763.784 482.717,765.042 483.516,766.302 484.316,767.563 485.115,768.826 485.914,770.09 486.713,771.356 487.512,772.624 488.312,773.893 489.111,775.163 489.91,776.435 490.709,777.709 491.508,778.983 492.308,780.26 493.107,781.538 493.906,783.444 494.705,786.094 495.504,788.748 496.304,789.243 497.103,789.665 497.902,790.094 498.701,790.532 499.5,790.977 500.3,790.823 501.099,789.754 501.898,788.692 502.697,787.636 503.497,786.587 504.296,785.545 505.095,784.509 505.894,783.481 506.693,782.459 507.493,781.445 508.292,780.437 509.091,779.436 509.89,778.443 510.689,777.456 511.489,776.476 512.288,775.504 513.087,774.538 513.886,773.58 514.685,772.629 515.485,771.685 516.284,770.748 517.083,769.819 517.882,768.896 518.681,767.981 519.481,767.074 520.28,766.174 521.079,764.667 521.878,761.873 522.677,759.08 523.477,756.288 524.276,753.498 525.075,750.708 525.874,747.919 526.673,745.132 527.473,742.346 528.272,739.561 529.071,736.777 529.87,733.995 530.669,731.213 531.469,728.433 532.268,725.654 533.067,722.877 533.866,720.1 534.665,717.325 535.465,714.551 536.264,711.779 537.063,709.008 537.862,706.238 538.661,703.469 539.461,700.702 540.26,697.937 541.059,695.172 541.858,692.409 542.657,689.648 543.457,686.887 544.256,684.129 545.055,681.372 545.854,678.616 546.653,675.861 547.453,673.109 548.252,670.357 549.051,667.608 549.85,664.86 550.649,662.113 551.449,659.368 552.248,656.624 553.047,653.883 553.846,651.143 554.645,648.404 555.445,645.667 556.244,642.932 557.043,640.199 557.842,637.467 558.641,634.737 559.441,632.009 560.24,629.282 561.039,626.558 561.838,623.835 562.637,621.114 563.437,618.395 564.236,615.678 565.035,612.962 565.834,610.249 566.633,607.538 567.433,604.828 568.232,602.121 569.031,599.415 569.83,596.712 570.629,594.01 571.429,591.311 572.228,588.614 573.027,585.919 573.826,583.78 574.625,581.71 575.425,579.639 576.224,577.569 577.023,575.499 577.822,573.429 578.621,571.359 579.421,569.289 580.22,567.219 581.019,565.148 581.818,563.078 582.617,561.008 583.417,558.938 584.216,556.868 585.015,554.798 585.814,552.728 586.613,550.657 587.413,548.587 588.212,546.517 589.011,544.447 589.81,542.377 590.609,540.307 591.409,538.237 592.208,536.167 593.007,534.096 593.806,532.026 594.605,529.956 595.405,527.886 596.204,525.816 597.003,523.746 597.802,521.676 598.601,519.605 599.401,517.535 600.2,515.465 600.999,513.395 601.798,511.325 602.597,509.255 603.397,507.185 604.196,505.114 604.995,503.044 605.794,500.974 606.593,498.904 607.393,496.834 608.192,494.764 608.991,492.694 609.79,490.623 610.589,488.553 611.389,486.483 612.188,484.413 612.987,482.343 613.786,480.273 614.585,478.203 615.385,476.132 616.184,474.062 616.983,471.992 617.782,469.922 618.581,467.852 619.381,465.782 620.18,463.712 620.979,461.641 621.778,459.571 622.577,457.501 623.377,455.431 624.176,453.361 624.975,451.291 625.774,449.221 626.573,447.15 627.373,445.08 628.172,443.01 628.971,440.94 629.77,438.87 630.569,436.8 631.369,434.73 632.168,432.659 632.967,430.589 633.766,428.519 634.565,426.449 635.365,424.379 636.164,422.309 636.963,420.239 637.762,418.168 638.561,416.098 639.361,414.028 640.16,411.958 640.959,409.888 641.758,407.818 642.557,405.748 643.357,403.677 644.156,401.607 644.955,399.537 645.754,397.467 646.553,395.397 647.353,393.327 648.152,391.257 648.951,389.187 649.75,387.116 650.549,385.046 651.349,382.976 652.148,380.906 652.947,378.836 653.746,376.766 654.545,374.696 655.345,372.625 656.144,370.555 656.943,368.485 657.742,366.415 658.541,364.345 659.341,362.275 660.14,360.205 660.939,358.134 661.738,356.064 662.537,353.994 663.337,351.924 664.136,349.854 664.935,347.784 665.734,345.714 666.533,343.643 667.333,341.573 668.132,339.503 668.931,337.433 669.73,335.363 670.529,333.293 671.329,331.223 672.128,329.152 672.927,327.082 673.726,325.012 674.525,322.942 675.325,320.872 676.124,318.802 676.923,316.732 677.722,314.661 678.521,312.591 679.321,310.521 680.12,308.451 680.919,306.381 681.718,304.311 682.517,302.241 683.317,300.17 684.116,298.1 684.915,296.03 685.714,293.96 686.513,291.89 687.313,289.82 688.112,287.75 688.911,285.679 689.71,283.609 690.509,281.539 691.309,279.469 692.108,277.399 692.907,275.329 693.706,273.259 694.505,271.188 695.305,269.118 696.104,267.048 696.903,264.978 697.702,262.908 698.501,260.838 699.301,258.768 700.1,256.697 700.899,254.627 701.698,252.557 702.498,250.487 703.297,248.417 704.096,246.347 704.895,244.277 705.694,242.206 706.494,240.136 707.293,238.066 708.092,235.996 708.891,233.926 709.69,231.856 710.49,229.786 711.289,227.716 712.088,225.645 712.887,223.575 713.686,221.505 714.486,219.435 715.285,217.365 716.084,215.295 716.883,213.225 717.682,211.154 718.482,209.084 719.281,207.014 720.08,204.944 720.879,202.874 721.678,200.804 722.478,198.734 723.277,196.663 724.076,194.593 724.875,192.523 725.674,190.453 726.474,188.383 727.273,186.313 728.072,184.243 728.871,182.172 729.67,180.102 730.47,178.032 731.269,175.962 732.068,173.892 732.867,171.822 733.666,169.752 734.466,167.681 735.265,165.611 736.064,163.541 736.863,161.471 737.662,159.401 738.462,157.331 739.261,155.261 740.06,153.19 740.859,151.12 741.658,149.05 742.458,146.98 743.257,144.91 744.056,142.84 744.855,140.77 745.654,138.699 746.454,136.629 747.253,134.559 748.052,132.489 748.851,130.419 749.65,128.349 750.45,126.279 751.249,124.208 752.048,122.138 752.847,120.068 753.646,117.998 754.446,115.928 755.245,113.858 756.044,111.788 756.843,109.717 757.642,107.647 758.442,105.577 759.241,103.507 760.04,101.437 760.839,99.3668 761.638,97.2966 762.438,95.2265 763.237,93.1563 764.036,91.0862 764.835,89.0161 765.634,86.9459 766.434,84.8758 767.233,82.8056 768.032,80.7355 768.831,78.6654 769.63,76.5952 770.43,74.5251 771.229,72.4549 772.028,70.3848 772.827,68.3147 773.626,66.2445 774.426,64.1744 775.225,62.1042 776.024,60.0341 776.823,57.9639 777.622,55.8938 778.422,53.8237 779.221,51.7535 780.02,49.6834 780.819,47.6132 781.618,45.5431 782.418,43.473 783.217,41.4028 784.016,39.3327 784.815,37.2625 785.614,35.1924 786.414,33.1223 787.213,31.0521 788.012,28.982 788.811,26.9118 789.61,24.8417 790.41,22.7716 791.209,20.7014 792.008,18.6313 792.807,16.5611 793.606,14.491 794.406,12.4208 795.205,10.3507 796.004,8.28056 796.803,6.21042 797.602,4.14028 798.402,2.07014 799.201,0 " />


<!--Draw the X and Y axes -->
<polyline fill="none" stroke="black" stroke-width="6"  points=" 800,0 0,0 0, 800" />
<polyline fill="none" stroke="black" stroke-width="1"  points=" 0 800  800 800  800 0" />
<!-- -->


<!--Draw labels and tics for X axis -->

<line fill="none" stroke="black"  stroke-width="6"  x1="0.5" y1="0" x2="0.5" y2="-20" />
<text transform="scale(1,-1)" font-family="sans-serif" font-size="30" x="-24.5" y="45" >0</text>
<line fill="none" stroke="black"  stroke-width="6"  x1="160.34" y1="0" x2="160.34" y2="-20" />
<text transform="scale(1,-1)" font-family="sans-serif" font-size="30" x="135.34" y="45" >200</text>
<line fill="none" stroke="black"  stroke-width="6"  x1="320.18" y1="0" x2="320.18" y2="-20" />
<text transform="scale(1,-1)" font-family="sans-serif" font-size="30" x="295.18" y="45" >400</text>
<line fill="none" stroke="black"  stroke-width="6"  x1="480.02" y1="0" x2="480.02" y2="-20" />
<text transform="scale(1,-1)" font-family="sans-serif" font-size="30" x="455.02" y="45" >600</text>
<line fill="none" stroke="black"  stroke-width="6"  x1="639.861" y1="0" x2="639.861" y2="-20" />
<text transform="scale(1,-1)" font-family="sans-serif" font-size="30" x="614.861" y="45" >800</text>
<line fill="none" stroke="black"  stroke-width="6"  x1="799.701" y1="0" x2="799.701" y2="-20" />
<text transform="scale(1,-1)" font-family="sans-serif" font-size="30" x="774.701" y="45" >1000</text>


<!--Draw labels and tics for Y axis -->

<line fill="none" stroke="black" stroke-width="6" x1="0.0" y1="0" x2="-20" y2="0" />
<text transform="scale(1,-1)" text-anchor="end" font-family="sans-serif" font-size="30" x="-25" y="10" >0</text>
<line fill="none" stroke="black" stroke-width="6" x1="0.0" y1="200" x2="-20" y2="200" />
<text transform="scale(1,-1)" text-anchor="end" font-family="sans-serif" font-size="30" x="-25" y="-190" >5</text>
<line fill="none" stroke="black" stroke-width="6" x1="0.0" y1="400" x2="-20" y2="400" />
<text transform="scale(1,-1)" text-anchor="end" font-family="sans-serif" font-size="30" x="-25" y="-390" >10</text>
<line fill="none" stroke="black" stroke-width="6" x1="0.0" y1="600" x2="-20" y2="600" />
<text transform="scale(1,-1)" text-anchor="end" font-family="sans-serif" font-size="30" x="-25" y="-590" >15</text>
<line fill="none" stroke="black" stroke-width="6" x1="0.0" y1="800" x2="-20" y2="800" />
<text transform="scale(1,-1)" text-anchor="end" font-family="sans-serif" font-size="30" x="-25" y="-790" >20</text>

-->
</g>
</g>
<!-- Run Constants
PRINTDISTANCEDATA bool true
GLITCHESONLY bool false
PERTURBBY double 0.05
GLITCHLEVEL double 3
BOUNDARYWINDOW double 0.065
STEPSPERFRAME int 1000
TRIALS int 1
ALLBLACK bool true
FILEPREFIX string Fol
NIGGLISELLINGFIRST bool false
ENABLE DistanceEnableString 
DISABLE DistanceDisableString 
GRAPHSIZE int 0
BORDER int 0
PLOTSIZE int 0
AXISWIDTH int 6
TICLENGTH int 20
VECTOR g6 
FOLLOWERMODE FollowerMode point
FIXRANDOMSEED fixRandomSeed true
RANDOMSEED int 17
TIMESTAMP bool true
END end 


-->
</svg>
