<?xml version="1.0" standalone="no"?>
<!-- the width and height set the total pixel output of the image in the browser -->
<!-- whatever is within the viewbox will be remapped to show in this size -->
<svg width="1000" height="1000" viewBox="1 0 1000 1000"  version="1.1" xmlns="http://www.w3.org/2000/svg" xmlns:xlink="http://www.w3.org/1999/xlink">
 <desc>ID (and file name) = Fol_2018-05-14.13_05_34.58_57.svg </desc> 
 <text x="560" y="30" font-family="sans-serif" font-size="20">Wall time passed: 16937 msec.</text>
<text x="300" y="60"   font-family="sans-serif" font-size="20" fill="lightblue">S6  lightblue</text>
<text x="300" y="85"   font-family="sans-serif" font-size="20" fill="slategrey">NCDist  slategrey</text>
<text x="300" y="110"  font-family="sans-serif" font-size="20" fill="violet">D7  violet</text>
<text x="300" y="135"  font-family="sans-serif" font-size="20" fill="olive">CS6Dist  olive</text>

 <text x="140"  y="30"  font-family="sans-serif" font-size="20" >Fol_2018-05-14.13_05_34.58_57.svg  </text> 


 <!--DISTANCE PLOT BEGINS-->


<!-- the following will scale and place the distance plot -->
<g  transform="translate(0,50) ">
<g transform="translate(150,700) scale(1 -1)">
   <polyline fill="none" stroke=" lightblue " stroke-width=" 12 " points=" 0.6,36.7093 1.2,38.5158 1.8,40.3616 2.4,42.2465 3,44.1701 3.6,46.1322 4.2,48.1324 4.8,50.1705 5.4,52.246 6,54.3586 6.6,56.5081 7.2,58.6941 7.8,60.9162 8.4,63.1743 9,65.4678 9.6,67.7965 10.2,70.16 10.8,72.5581 11.4,74.9903 12,77.4564 12.6,79.956 13.2,82.4888 13.8,85.0544 14.4,87.6525 15,90.2827 15.6,92.9448 16.2,95.6384 16.8,98.3632 17.4,101.119 18,103.905 18.6,106.721 19.2,109.567 19.8,112.443 20.4,115.348 21,118.282 21.6,121.244 22.2,124.234 22.8,127.253 23.4,130.299 24,132.419 24.6,133.816 25.2,135.256 25.8,136.738 26.4,138.263 27,139.83 27.6,141.44 28.2,143.091 28.8,144.784 29.4,146.517 30,148.292 30.6,150.108 31.2,150.808 31.8,150.759 32.4,150.756 33,150.797 33.6,150.883 34.2,151.013 34.8,151.188 35.4,151.407 36,151.67 36.6,151.978 37.2,152.331 37.8,152.728 38.4,153.169 39,153.654 39.6,154.183 40.2,154.756 40.8,155.373 41.4,156.034 42,156.739 42.6,157.487 43.2,158.279 43.8,159.114 44.4,159.993 45,160.914 45.6,161.879 46.2,162.886 46.8,163.936 47.4,165.028 48,166.162 48.6,167.339 49.2,168.558 49.8,169.818 50.4,171.12 51,172.464 51.6,173.849 52.2,175.274 52.8,176.741 53.4,178.248 54,179.795 54.6,181.383 55.2,183.01 55.8,184.677 56.4,186.384 57,188.129 57.6,189.914 58.2,191.737 58.8,193.599 59.4,195.5 60,197.438 60.6,199.414 61.2,201.427 61.8,203.477 62.4,205.565 63,207.689 63.6,209.85 64.2,212.046 64.8,214.279 65.4,216.547 66,218.851 66.6,221.189 67.2,223.563 67.8,225.97 68.4,228.412 69,230.889 69.6,233.398 70.2,235.941 70.8,238.517 71.4,241.126 72,243.768 72.6,246.442 73.2,249.147 73.8,251.885 74.4,254.654 75,257.454 75.6,260.285 76.2,263.146 76.8,266.038 77.4,268.959 78,271.911 78.6,274.891 79.2,277.901 79.8,280.94 80.4,284.008 81,287.103 81.6,290.227 82.2,293.379 82.8,296.558 83.4,299.764 84,302.998 84.6,306.258 85.2,309.544 85.8,312.857 86.4,316.195 87,319.56 87.6,322.949 88.2,326.364 88.8,329.803 89.4,333.267 90,336.756 90.6,340.268 91.2,343.805 91.8,347.365 92.4,350.948 93,354.555 93.6,358.184 94.2,361.836 94.8,365.51 95.4,369.206 96,372.925 96.6,376.665 97.2,380.426 97.8,384.209 98.4,388.012 99,391.836 99.6,395.681 100.2,399.546 100.8,403.432 101.4,407.14 102,410.813 102.6,414.508 103.2,418.224 103.8,421.96 104.4,425.717 105,429.494 105.6,433.292 106.2,437.109 106.8,440.946 107.4,444.803 108,448.679 108.6,452.574 109.2,456.488 109.8,460.42 110.4,464.372 111,468.341 111.6,472.329 112.2,476.335 112.8,480.358 113.4,484.399 114,488.458 114.6,492.534 115.2,496.626 115.8,500.736 116.4,504.862 117,509.005 117.6,513.164 118.2,517.339 118.8,521.53 119.4,525.737 120,529.96 120.6,534.198 121.2,538.452 121.8,542.721 122.4,547.004 123,551.303 123.6,553.735 124.2,553.612 124.8,553.496 125.4,553.389 126,553.288 126.6,553.196 127.2,553.111 127.8,553.033 128.4,552.963 129,552.901 129.6,552.847 130.2,552.8 130.8,552.761 131.4,552.729 132,552.705 132.6,552.689 133.2,552.68 133.8,552.679 134.4,552.686 135,552.7 135.6,552.722 136.2,552.752 136.8,552.789 137.4,552.834 138,552.886 138.6,552.947 139.2,553.014 139.8,553.09 140.4,553.173 141,553.263 141.6,553.362 142.2,553.468 142.8,553.581 143.4,553.702 144,553.831 144.6,553.968 145.2,554.112 145.8,554.263 146.4,554.423 147,554.59 147.6,554.764 148.2,554.946 148.8,555.136 149.4,555.333 150,555.538 150.6,555.75 151.2,555.97 151.8,556.198 152.4,556.433 153,556.676 153.6,556.926 154.2,557.184 154.8,557.45 155.4,557.723 156,557.998 156.6,557.291 157.2,556.595 157.8,555.91 158.4,555.237 159,554.576 159.6,553.926 160.2,553.287 160.8,552.661 161.4,552.045 162,551.442 162.6,550.85 163.2,550.269 163.8,549.701 164.4,549.144 165,548.598 165.6,548.065 166.2,547.543 166.8,547.033 167.4,546.534 168,546.048 168.6,545.573 169.2,545.11 169.8,544.659 170.4,544.219 171,543.792 171.6,543.376 172.2,542.972 172.8,542.58 173.4,542.2 174,541.832 174.6,541.476 175.2,541.132 175.8,540.799 176.4,540.479 177,540.17 177.6,539.874 178.2,539.589 178.8,539.317 179.4,539.056 180,538.807 180.6,538.571 181.2,538.346 181.8,538.134 182.4,537.933 183,537.744 183.6,537.568 184.2,537.403 184.8,537.251 185.4,537.111 186,536.982 186.6,536.866 187.2,536.762 187.8,536.67 188.4,536.59 189,536.522 189.6,536.466 190.2,536.422 190.8,536.39 191.4,536.37 192,536.363 192.6,536.367 193.2,536.383 193.8,536.412 194.4,536.453 195,536.505 195.6,536.57 196.2,536.647 196.8,536.736 197.4,536.837 198,536.95 198.6,537.075 199.2,537.212 199.8,537.361 200.4,537.523 201,537.696 201.6,537.881 202.2,538.078 202.8,538.288 203.4,538.509 204,538.743 204.6,538.988 205.2,539.245 205.8,539.515 206.4,539.796 207,540.089 207.6,540.395 208.2,540.712 208.8,541.041 209.4,541.382 210,541.735 210.6,542.1 211.2,542.477 211.8,542.866 212.4,543.266 213,543.679 213.6,544.103 214.2,544.539 214.8,544.987 215.4,545.447 216,545.919 216.6,546.402 217.2,546.897 217.8,547.404 218.4,547.923 219,548.454 219.6,548.996 220.2,549.55 220.8,550.115 221.4,550.692 222,551.281 222.6,551.882 223.2,552.494 223.8,553.118 224.4,553.753 225,554.4 225.6,555.058 226.2,555.728 226.8,556.41 227.4,557.103 228,557.807 228.6,558.523 229.2,559.25 229.8,559.989 230.4,560.739 231,561.501 231.6,562.273 232.2,563.058 232.8,563.853 233.4,564.66 234,565.478 234.6,566.307 235.2,567.147 235.8,567.999 236.4,568.862 237,569.736 237.6,570.621 238.2,571.517 238.8,572.424 239.4,573.343 240,574.272 240.6,575.212 241.2,576.164 241.8,577.126 242.4,578.099 243,579.083 243.6,580.078 244.2,581.084 244.8,582.1 245.4,583.128 246,584.166 246.6,585.215 247.2,586.275 247.8,587.345 248.4,588.426 249,588.749 249.6,588.892 250.2,589.047 250.8,589.214 251.4,589.392 252,589.582 252.6,588.547 253.2,587.251 253.8,585.965 254.4,584.687 255,583.418 255.6,582.158 256.2,580.907 256.8,579.665 257.4,578.432 258,577.208 258.6,575.993 259.2,574.787 259.8,573.59 260.4,572.403 261,571.224 261.6,570.055 262.2,568.895 262.8,567.744 263.4,566.602 264,565.47 264.6,564.347 265.2,563.233 265.8,562.129 266.4,561.034 267,559.948 267.6,558.872 268.2,557.805 268.8,556.748 269.4,555.701 270,554.662 270.6,553.634 271.2,552.615 271.8,551.606 272.4,550.606 273,549.616 273.6,548.635 274.2,547.664 274.8,546.703 275.4,545.752 276,544.811 276.6,543.879 277.2,542.957 277.8,542.045 278.4,541.143 279,540.251 279.6,539.368 280.2,538.496 280.8,537.633 281.4,536.781 282,535.938 282.6,535.106 283.2,534.283 283.8,533.471 284.4,532.668 285,531.876 285.6,531.094 286.2,530.322 286.8,529.56 287.4,528.808 288,528.066 288.6,527.335 289.2,526.614 289.8,525.903 290.4,525.203 291,524.512 291.6,523.832 292.2,523.163 292.8,522.503 293.4,521.854 294,521.216 294.6,520.587 295.2,519.97 295.8,519.362 296.4,518.765 297,518.179 297.6,517.603 298.2,517.037 298.8,516.482 299.4,515.937 300,515.403 300.6,514.88 301.2,514.367 301.8,513.865 302.4,513.373 303,512.892 303.6,512.421 304.2,511.961 304.8,511.512 305.4,511.073 306,510.645 306.6,510.228 307.2,509.821 307.8,509.425 308.4,509.04 309,508.666 309.6,508.302 310.2,507.949 310.8,507.606 311.4,507.275 312,506.954 312.6,506.644 313.2,506.345 313.8,506.056 314.4,505.778 315,505.512 315.6,505.255 316.2,505.01 316.8,504.776 317.4,504.552 318,504.339 318.6,504.138 319.2,503.946 319.8,503.766 320.4,503.597 321,503.438 321.6,500.447 322.2,499.45 322.8,498.46 323.4,497.474 324,496.495 324.6,495.521 325.2,494.552 325.8,493.589 326.4,492.632 327,491.681 327.6,490.735 328.2,489.794 328.8,488.86 329.4,487.931 330,487.007 330.6,486.09 331.2,485.178 331.8,484.272 332.4,483.372 333,482.477 333.6,481.588 334.2,480.705 334.8,479.828 335.4,478.957 336,478.091 336.6,477.231 337.2,476.377 337.8,475.529 338.4,474.687 339,473.851 339.6,473.021 340.2,472.197 340.8,471.378 341.4,470.566 342,469.759 342.6,468.753 343.2,467.725 343.8,466.702 344.4,465.685 345,464.674 345.6,463.668 346.2,462.668 346.8,461.674 347.4,460.685 348,459.702 348.6,458.725 349.2,457.754 349.8,456.788 350.4,455.829 351,454.875 351.6,453.927 352.2,452.984 352.8,451.767 353.4,450.531 354,449.301 354.6,448.075 355.2,446.855 355.8,445.641 356.4,444.432 357,443.228 357.6,442.029 358.2,440.836 358.8,439.649 359.4,438.466 360,437.29 360.6,436.118 361.2,434.953 361.8,433.793 362.4,432.638 363,431.489 363.6,430.345 364.2,429.207 364.8,428.075 365.4,426.948 366,425.827 366.6,424.712 367.2,423.602 367.8,422.498 368.4,421.4 369,420.307 369.6,419.221 370.2,418.14 370.8,417.064 371.4,415.995 372,414.931 372.6,413.873 373.2,412.821 373.8,411.775 374.4,410.536 375,409.191 375.6,407.851 376.2,406.517 376.8,405.188 377.4,403.864 378,402.545 378.6,401.232 379.2,399.924 379.8,398.621 380.4,397.324 381,396.032 381.6,394.746 382.2,393.465 382.8,392.19 383.4,390.92 384,389.655 384.6,388.396 385.2,387.143 385.8,385.895 386.4,384.653 387,383.417 387.6,382.186 388.2,380.96 388.8,379.741 389.4,378.527 390,377.319 390.6,376.116 391.2,374.92 391.8,373.729 392.4,372.543 393,371.364 393.6,370.191 394.2,369.023 394.8,367.861 395.4,366.705 396,365.555 396.6,364.411 397.2,363.273 397.8,362.141 398.4,361.015 399,359.895 399.6,358.781 400.2,357.673 400.8,356.571 401.4,355.475 402,354.385 402.6,353.301 403.2,352.224 403.8,351.152 404.4,350.087 405,349.028 405.6,347.976 406.2,346.929 406.8,345.889 407.4,344.855 408,343.827 408.6,342.806 409.2,341.791 409.8,340.782 410.4,339.78 411,338.784 411.6,337.795 412.2,336.812 412.8,335.835 413.4,334.865 414,333.901 414.6,332.944 415.2,331.994 415.8,331.05 416.4,330.112 417,329.181 417.6,328.257 418.2,327.34 418.8,326.429 419.4,325.524 420,324.627 420.6,323.736 421.2,322.851 421.8,321.974 422.4,321.103 423,320.239 423.6,319.382 424.2,318.531 424.8,317.688 425.4,316.851 426,316.021 426.6,315.198 427.2,314.382 427.8,313.573 428.4,312.771 429,311.975 429.6,311.187 430.2,310.405 430.8,309.631 431.4,308.863 432,308.103 432.6,307.35 433.2,306.603 433.8,305.864 434.4,305.132 435,304.407 435.6,303.689 436.2,302.978 436.8,302.275 437.4,301.578 438,300.889 438.6,300.207 439.2,299.532 439.8,298.864 440.4,298.204 441,297.551 441.6,296.905 442.2,296.266 442.8,295.635 443.4,295.011 444,294.394 444.6,293.785 445.2,291.988 445.8,290.151 446.4,288.319 447,286.492 447.6,284.668 448.2,282.849 448.8,281.034 449.4,279.224 450,277.418 450.6,275.616 451.2,273.819 451.8,272.026 452.4,270.238 453,268.454 453.6,266.675 454.2,264.901 454.8,263.131 455.4,261.366 456,259.605 456.6,257.849 457.2,256.098 457.8,254.351 458.4,252.61 459,250.873 459.6,249.141 460.2,247.414 460.8,245.691 461.4,243.974 462,242.262 462.6,240.554 463.2,238.852 463.8,237.154 464.4,235.462 465,233.774 465.6,232.092 466.2,230.415 466.8,228.743 467.4,227.076 468,225.415 468.6,223.759 469.2,222.108 469.8,220.462 470.4,218.822 471,217.187 471.6,215.557 472.2,213.933 472.8,212.314 473.4,210.701 474,209.093 474.6,207.491 475.2,205.895 475.8,204.304 476.4,202.718 477,201.139 477.6,199.565 478.2,197.997 478.8,196.434 479.4,194.878 480,193.327 480.6,191.782 481.2,190.243 481.8,188.71 482.4,187.182 483,185.661 483.6,184.146 484.2,182.637 484.8,181.134 485.4,179.637 486,178.146 486.6,176.662 487.2,175.184 487.8,173.711 488.4,172.246 489,170.786 489.6,169.333 490.2,167.886 490.8,166.446 491.4,165.012 492,163.584 492.6,162.164 493.2,160.749 493.8,159.341 494.4,157.94 495,156.546 495.6,155.158 496.2,153.777 496.8,152.402 497.4,151.035 498,149.674 498.6,148.32 499.2,146.973 499.8,145.633 500.4,144.3 501,142.973 501.6,141.654 502.2,140.342 502.8,139.037 503.4,137.739 504,136.449 504.6,135.165 505.2,133.889 505.8,132.62 506.4,131.358 507,130.104 507.6,128.857 508.2,127.617 508.8,126.385 509.4,125.16 510,123.943 510.6,122.733 511.2,121.531 511.8,120.337 512.4,119.15 513,117.971 513.6,116.8 514.2,115.636 514.8,114.48 515.4,113.332 516,112.192 516.6,111.06 517.2,109.935 517.8,108.819 518.4,107.71 519,106.61 519.6,105.518 520.2,104.433 520.8,103.357 521.4,102.289 522,101.23 522.6,100.178 523.2,99.1348 523.8,98.0999 524.4,97.0733 525,96.055 525.6,95.0452 526.2,94.0438 526.8,93.0508 527.4,92.0664 528,91.0905 528.6,90.1232 529.2,89.1644 529.8,88.2143 530.4,87.2729 531,86.3402 531.6,85.4162 532.2,84.5009 532.8,83.5945 533.4,82.6969 534,81.8081 534.6,80.9283 535.2,80.0573 535.8,79.1953 536.4,78.3423 537,77.4983 537.6,76.6634 538.2,75.8375 538.8,75.0207 539.4,74.2131 540,73.4146 540.6,72.6254 541.2,71.8453 541.8,71.0746 542.4,70.3131 543,69.5609 543.6,68.818 544.2,68.0845 544.8,67.3605 545.4,66.6458 546,65.9406 546.6,65.2449 547.2,64.5587 547.8,63.882 548.4,63.2149 549,62.5574 549.6,61.9095 550.2,61.2712 550.8,60.6426 551.4,60.0237 552,59.4144 552.6,58.815 553.2,58.2253 553.8,57.6454 554.4,57.0752 555,56.515 555.6,55.9646 556.2,55.424 556.8,54.8934 557.4,54.3727 558,53.8619 558.6,53.3611 559.2,52.8703 559.8,52.3894 560.4,51.9187 561,51.4579 561.6,51.0072 562.2,50.5667 562.8,50.1362 563.4,49.7158 564,49.3056 564.6,48.9055 565.2,48.5156 565.8,48.1359 566.4,47.7664 567,47.4071 567.6,47.0581 568.2,46.7193 568.8,46.3908 569.4,46.0726 570,45.7647 570.6,45.467 571.2,45.1797 571.8,44.9028 572.4,44.6361 573,44.3799 573.6,44.134 574.2,43.8985 574.8,43.6733 575.4,43.4586 576,43.2543 576.6,43.0604 577.2,42.8769 577.8,42.7039 578.4,42.5413 579,42.3892 579.6,42.2475 580.2,42.1163 580.8,41.9955 581.4,41.8852 582,41.7855 582.6,41.5942 583.2,41.2793 583.8,40.9748 584.4,40.6806 585,40.3968 585.6,40.1234 586.2,39.8605 586.8,39.6079 587.4,39.3659 588,39.1342 588.6,38.9131 589.2,38.7024 589.8,38.5022 590.4,38.3125 591,38.1332 591.6,37.9645 592.2,37.8063 592.8,37.6587 593.4,37.5215 594,37.3949 594.6,37.2788 595.2,37.1733 595.8,37.0784 596.4,36.9939 597,36.9201 597.6,36.8568 598.2,36.8041 598.8,36.7619 599.4,36.7303 600,36.7093 " />
   <polyline fill="none" stroke=" slategrey " stroke-width=" 9 " points=" " />
   <polyline fill="none" stroke=" violet " stroke-width=" 6 " points=" " />
   <polyline fill="none" stroke=" olive " stroke-width=" 3 " points=" 0.6,94.2695 1.2,96.4915 1.8,98.7476 2.4,101.038 3,103.361 3.6,105.718 4.2,108.108 4.8,110.53 5.4,112.985 6,115.472 6.6,117.991 7.2,120.541 7.8,123.122 8.4,125.734 9,128.377 9.6,131.05 10.2,133.753 10.8,136.485 11.4,139.247 12,142.038 12.6,144.857 13.2,147.705 13.8,150.581 14.4,153.485 15,156.416 15.6,159.375 16.2,162.361 16.8,165.373 17.4,168.412 18,171.476 18.6,174.567 19.2,177.683 19.8,180.824 20.4,183.991 21,187.182 21.6,190.397 22.2,193.636 22.8,196.9 23.4,200.187 24,132.419 24.6,133.816 25.2,135.256 25.8,136.738 26.4,138.263 27,139.83 27.6,141.44 28.2,143.091 28.8,144.784 29.4,146.517 30,148.292 30.6,150.108 31.2,150.808 31.8,150.759 32.4,150.756 33,150.797 33.6,150.883 34.2,151.013 34.8,151.188 35.4,151.407 36,151.67 36.6,151.978 37.2,152.331 37.8,152.728 38.4,153.169 39,153.654 39.6,154.183 40.2,154.756 40.8,155.373 41.4,156.034 42,156.739 42.6,157.487 43.2,158.279 43.8,159.114 44.4,159.993 45,160.914 45.6,161.879 46.2,162.886 46.8,163.936 47.4,165.028 48,166.162 48.6,167.339 49.2,168.558 49.8,169.818 50.4,171.12 51,172.464 51.6,173.849 52.2,175.274 52.8,176.741 53.4,178.248 54,179.795 54.6,181.383 55.2,183.01 55.8,184.677 56.4,186.384 57,188.129 57.6,189.914 58.2,191.737 58.8,193.599 59.4,195.5 60,197.438 60.6,199.414 61.2,201.427 61.8,203.477 62.4,205.565 63,207.689 63.6,209.85 64.2,212.046 64.8,214.279 65.4,216.547 66,218.851 66.6,221.189 67.2,223.563 67.8,225.97 68.4,228.412 69,230.889 69.6,233.398 70.2,235.941 70.8,238.517 71.4,241.126 72,243.768 72.6,246.442 73.2,249.147 73.8,251.885 74.4,254.654 75,257.454 75.6,260.285 76.2,263.146 76.8,266.038 77.4,268.959 78,271.911 78.6,274.891 79.2,277.901 79.8,280.94 80.4,284.008 81,287.103 81.6,290.227 82.2,293.379 82.8,296.558 83.4,299.764 84,302.998 84.6,306.258 85.2,309.544 85.8,312.857 86.4,316.195 87,319.56 87.6,322.949 88.2,326.364 88.8,329.803 89.4,333.267 90,336.756 90.6,340.268 91.2,343.805 91.8,347.365 92.4,350.948 93,354.555 93.6,358.184 94.2,360.214 94.8,359.921 95.4,359.63 96,359.341 96.6,359.053 97.2,358.766 97.8,358.48 98.4,358.196 99,357.914 99.6,357.632 100.2,357.352 100.8,357.074 101.4,356.796 102,356.52 102.6,356.246 103.2,355.972 103.8,355.7 104.4,355.429 105,355.16 105.6,354.892 106.2,354.625 106.8,354.359 107.4,354.094 108,353.831 108.6,353.569 109.2,353.308 109.8,353.048 110.4,352.79 111,352.533 111.6,352.276 112.2,352.022 112.8,351.768 113.4,351.515 114,351.264 114.6,351.013 115.2,350.764 115.8,350.516 116.4,350.269 117,350.024 117.6,349.779 118.2,349.535 118.8,349.293 119.4,349.051 120,348.811 120.6,348.572 121.2,348.334 121.8,348.097 122.4,347.861 123,347.626 123.6,347.626 124.2,347.861 124.8,348.097 125.4,348.335 126,348.573 126.6,348.812 127.2,349.052 127.8,349.294 128.4,349.536 129,349.78 129.6,350.024 130.2,349.998 130.8,349.939 131.4,349.88 132,349.821 132.6,349.762 133.2,349.703 133.8,349.644 134.4,349.585 135,349.526 135.6,349.467 136.2,349.409 136.8,349.35 137.4,349.292 138,349.233 138.6,349.175 139.2,349.116 139.8,349.058 140.4,349 141,348.942 141.6,348.884 142.2,348.826 142.8,348.768 143.4,348.71 144,348.652 144.6,348.594 145.2,348.537 145.8,348.479 146.4,348.421 147,348.364 147.6,348.306 148.2,348.249 148.8,348.192 149.4,348.134 150,348.077 150.6,348.02 151.2,347.963 151.8,347.906 152.4,347.849 153,347.792 153.6,347.735 154.2,347.678 154.8,347.622 155.4,347.565 156,347.509 156.6,347.566 157.2,347.622 157.8,347.679 158.4,347.736 159,347.793 159.6,347.85 160.2,347.907 160.8,347.964 161.4,348.021 162,348.078 162.6,348.135 163.2,348.192 163.8,348.25 164.4,348.307 165,348.364 165.6,348.422 166.2,348.48 166.8,348.537 167.4,348.595 168,348.653 168.6,348.71 169.2,348.768 169.8,348.826 170.4,348.884 171,348.942 171.6,349.001 172.2,349.059 172.8,349.117 173.4,349.175 174,349.234 174.6,349.292 175.2,349.351 175.8,349.409 176.4,349.468 177,349.527 177.6,349.586 178.2,349.644 178.8,349.703 179.4,349.762 180,349.821 180.6,349.88 181.2,349.94 181.8,349.999 182.4,350.058 183,350.117 183.6,350.177 184.2,350.236 184.8,350.296 185.4,350.356 186,350.415 186.6,350.475 187.2,350.535 187.8,350.595 188.4,350.655 189,350.715 189.6,350.775 190.2,350.835 190.8,350.895 191.4,350.955 192,351.016 192.6,351.076 193.2,351.137 193.8,351.197 194.4,351.258 195,351.318 195.6,351.379 196.2,351.44 196.8,351.501 197.4,351.562 198,351.623 198.6,351.684 199.2,351.745 199.8,351.806 200.4,351.868 201,351.929 201.6,351.99 202.2,352.052 202.8,352.113 203.4,352.175 204,352.237 204.6,352.298 205.2,352.36 205.8,352.422 206.4,352.484 207,352.546 207.6,352.608 208.2,352.67 208.8,352.733 209.4,352.795 210,352.857 210.6,352.92 211.2,352.982 211.8,353.045 212.4,353.108 213,353.17 213.6,353.233 214.2,353.296 214.8,353.359 215.4,353.422 216,353.485 216.6,353.548 217.2,353.612 217.8,353.675 218.4,353.738 219,353.802 219.6,353.865 220.2,353.929 220.8,353.992 221.4,354.056 222,354.12 222.6,354.184 223.2,354.248 223.8,354.276 224.4,354.123 225,353.971 225.6,353.82 226.2,353.669 226.8,353.518 227.4,353.368 228,353.218 228.6,353.068 229.2,352.919 229.8,352.77 230.4,352.622 231,352.474 231.6,352.326 232.2,352.179 232.8,352.032 233.4,351.886 234,351.74 234.6,351.594 235.2,351.449 235.8,351.304 236.4,351.16 237,351.016 237.6,350.872 238.2,350.729 238.8,350.586 239.4,350.443 240,350.301 240.6,350.159 241.2,350.018 241.8,349.877 242.4,349.736 243,349.596 243.6,349.456 244.2,349.316 244.8,349.177 245.4,349.038 246,348.899 246.6,348.761 247.2,348.623 247.8,348.486 248.4,348.348 249,348.212 249.6,348.075 250.2,347.939 250.8,347.803 251.4,347.668 252,347.533 252.6,347.62 253.2,347.755 253.8,347.89 254.4,348.026 255,348.163 255.6,348.299 256.2,348.436 256.8,348.574 257.4,348.711 258,348.85 258.6,348.988 259.2,349.127 259.8,349.266 260.4,349.405 261,349.545 261.6,349.686 262.2,349.826 262.8,349.967 263.4,350.108 264,350.25 264.6,350.392 265.2,350.535 265.8,350.678 266.4,350.821 267,350.964 267.6,351.108 268.2,351.253 268.8,351.397 269.4,351.542 270,351.688 270.6,351.834 271.2,351.98 271.8,352.127 272.4,352.274 273,352.421 273.6,352.569 274.2,352.717 274.8,352.866 275.4,353.015 276,353.164 276.6,353.314 277.2,353.464 277.8,353.545 278.4,353.458 279,353.371 279.6,353.283 280.2,353.196 280.8,353.11 281.4,353.023 282,352.936 282.6,352.85 283.2,352.764 283.8,352.678 284.4,352.592 285,352.506 285.6,352.42 286.2,352.334 286.8,352.249 287.4,352.164 288,352.078 288.6,351.993 289.2,351.908 289.8,351.824 290.4,351.739 291,351.654 291.6,351.57 292.2,351.486 292.8,351.401 293.4,351.317 294,351.234 294.6,351.15 295.2,351.066 295.8,350.983 296.4,350.899 297,350.816 297.6,350.733 298.2,350.65 298.8,350.567 299.4,350.484 300,350.401 300.6,350.319 301.2,350.236 301.8,350.154 302.4,350.072 303,349.99 303.6,349.908 304.2,349.826 304.8,349.745 305.4,349.663 306,349.582 306.6,349.5 307.2,349.419 307.8,349.338 308.4,349.257 309,349.177 309.6,349.096 310.2,349.015 310.8,348.935 311.4,348.855 312,348.774 312.6,348.694 313.2,348.614 313.8,348.535 314.4,348.455 315,348.375 315.6,348.296 316.2,348.216 316.8,348.137 317.4,348.058 318,347.979 318.6,347.9 319.2,347.821 319.8,347.743 320.4,347.664 321,347.586 321.6,347.51 322.2,347.588 322.8,347.667 323.4,347.745 324,347.824 324.6,347.903 325.2,347.982 325.8,348.061 326.4,348.14 327,348.219 327.6,348.298 328.2,348.378 328.8,348.457 329.4,348.537 330,348.617 330.6,348.697 331.2,348.777 331.8,348.857 332.4,348.938 333,349.018 333.6,349.099 334.2,349.179 334.8,349.26 335.4,349.341 336,349.422 336.6,349.503 337.2,349.584 337.8,349.666 338.4,349.747 339,349.829 339.6,349.911 340.2,349.993 340.8,350.075 341.4,350.157 342,350.239 342.6,350.322 343.2,350.404 343.8,350.487 344.4,350.57 345,350.652 345.6,350.735 346.2,350.819 346.8,350.902 347.4,350.985 348,351.069 348.6,351.152 349.2,351.236 349.8,351.32 350.4,351.404 351,351.488 351.6,351.573 352.2,351.657 352.8,351.742 353.4,351.826 354,351.911 354.6,351.996 355.2,352.081 355.8,352.166 356.4,352.252 357,352.337 357.6,352.423 358.2,352.509 358.8,352.595 359.4,352.681 360,352.767 360.6,352.853 361.2,352.939 361.8,353.026 362.4,353.113 363,353.199 363.6,353.286 364.2,353.373 364.8,353.461 365.4,353.548 366,353.635 366.6,353.723 367.2,353.811 367.8,353.899 368.4,353.987 369,354.075 369.6,354.163 370.2,354.252 370.8,354.34 371.4,354.429 372,354.518 372.6,354.607 373.2,354.696 373.8,354.785 374.4,354.875 375,354.964 375.6,355.054 376.2,355.144 376.8,355.234 377.4,355.324 378,355.414 378.6,355.504 379.2,355.595 379.8,355.686 380.4,355.776 381,355.867 381.6,355.959 382.2,356.05 382.8,356.141 383.4,356.233 384,356.325 384.6,356.416 385.2,356.508 385.8,356.6 386.4,356.693 387,356.785 387.6,356.878 388.2,356.97 388.8,357.063 389.4,357.156 390,357.25 390.6,357.343 391.2,357.436 391.8,357.53 392.4,357.624 393,357.718 393.6,357.812 394.2,357.906 394.8,358 395.4,358.095 396,358.189 396.6,358.284 397.2,358.379 397.8,358.474 398.4,358.57 399,358.665 399.6,358.761 400.2,358.856 400.8,358.952 401.4,359.048 402,359.145 402.6,359.241 403.2,359.337 403.8,359.434 404.4,359.531 405,359.628 405.6,359.725 406.2,359.822 406.8,359.92 407.4,360.017 408,360.115 408.6,360.213 409.2,360.311 409.8,360.409 410.4,360.235 411,359.418 411.6,358.607 412.2,357.803 412.8,357.006 413.4,356.215 414,355.431 414.6,354.654 415.2,353.883 415.8,353.119 416.4,352.362 417,351.612 417.6,350.868 418.2,350.131 418.8,349.401 419.4,348.678 420,347.961 420.6,347.251 421.2,346.549 421.8,345.853 422.4,345.164 423,344.481 423.6,343.806 424.2,343.138 424.8,342.476 425.4,341.822 426,341.174 426.6,340.533 427.2,339.9 427.8,339.273 428.4,338.653 429,338.041 429.6,337.435 430.2,336.837 430.8,336.245 431.4,335.661 432,335.083 432.6,334.513 433.2,333.95 433.8,333.394 434.4,332.845 435,332.303 435.6,331.769 436.2,331.241 436.8,330.721 437.4,330.208 438,329.702 438.6,329.203 439.2,328.712 439.8,328.228 440.4,327.751 441,327.281 441.6,326.818 442.2,326.363 442.8,325.915 443.4,325.475 444,325.042 444.6,324.616 445.2,324.197 445.8,323.786 446.4,323.382 447,322.985 447.6,322.596 448.2,322.214 448.8,321.839 449.4,321.472 450,321.112 450.6,320.76 451.2,320.415 451.8,320.077 452.4,319.747 453,319.425 453.6,319.109 454.2,318.801 454.8,318.501 455.4,318.208 456,317.923 456.6,317.645 457.2,317.374 457.8,317.111 458.4,316.856 459,316.608 459.6,316.367 460.2,316.134 460.8,315.909 461.4,315.691 462,315.48 462.6,315.278 463.2,315.082 463.8,314.894 464.4,314.714 465,314.541 465.6,314.376 466.2,314.218 466.8,314.068 467.4,313.926 468,313.791 468.6,313.663 469.2,313.544 469.8,313.431 470.4,313.327 471,313.229 471.6,313.14 472.2,313.058 472.8,312.984 473.4,312.917 474,312.858 474.6,312.806 475.2,312.762 475.8,312.726 476.4,312.697 477,312.675 477.6,312.662 478.2,312.656 478.8,312.657 479.4,312.666 480,312.683 480.6,312.707 481.2,312.739 481.8,312.779 482.4,312.826 483,312.881 483.6,312.943 484.2,313.013 484.8,313.09 485.4,313.175 486,313.268 486.6,313.368 487.2,313.476 487.8,313.591 488.4,311.918 489,310.177 489.6,308.441 490.2,306.71 490.8,304.983 491.4,303.26 492,301.542 492.6,299.829 493.2,298.121 493.8,296.417 494.4,294.718 495,293.023 495.6,291.334 496.2,289.649 496.8,287.969 497.4,286.294 498,284.623 498.6,282.958 499.2,281.297 499.8,279.642 500.4,277.991 501,276.346 501.6,274.705 502.2,273.069 502.8,271.439 503.4,269.814 504,268.193 504.6,266.578 505.2,264.969 505.8,263.364 506.4,261.764 507,260.17 507.6,258.581 508.2,256.998 508.8,255.42 509.4,253.847 510,252.279 510.6,250.717 511.2,249.161 511.8,247.61 512.4,246.064 513,244.524 513.6,242.99 514.2,241.461 514.8,239.938 515.4,238.42 516,236.908 516.6,235.402 517.2,233.901 517.8,232.407 518.4,230.918 519,229.435 519.6,227.958 520.2,226.486 520.8,225.021 521.4,223.561 522,222.108 522.6,220.66 523.2,219.219 523.8,217.783 524.4,216.354 525,214.931 525.6,213.514 526.2,212.103 526.8,210.698 527.4,209.3 528,207.908 528.6,206.522 529.2,205.142 529.8,203.769 530.4,202.402 531,201.042 531.6,199.688 532.2,198.34 532.8,196.999 533.4,195.665 534,194.337 534.6,193.016 535.2,191.701 535.8,190.393 536.4,189.092 537,187.797 537.6,186.51 538.2,185.229 538.8,183.954 539.4,182.687 540,181.427 540.6,180.173 541.2,178.926 541.8,177.687 542.4,176.454 543,175.228 543.6,174.01 544.2,172.798 544.8,171.594 545.4,170.397 546,169.207 546.6,168.024 547.2,166.848 547.8,165.68 548.4,164.519 549,163.365 549.6,162.219 550.2,161.08 550.8,159.948 551.4,158.824 552,157.708 552.6,156.599 553.2,155.497 553.8,154.403 554.4,153.317 555,152.238 555.6,151.167 556.2,150.104 556.8,149.048 557.4,148.001 558,146.961 558.6,145.928 559.2,144.904 559.8,143.888 560.4,142.879 561,141.879 561.6,140.886 562.2,139.901 562.8,138.925 563.4,137.956 564,136.996 564.6,136.043 565.2,135.099 565.8,134.163 566.4,133.235 567,132.316 567.6,131.404 568.2,130.501 568.8,129.606 569.4,128.72 570,127.842 570.6,126.972 571.2,126.111 571.8,125.258 572.4,124.414 573,123.578 573.6,122.751 574.2,121.932 574.8,121.122 575.4,120.321 576,119.528 576.6,118.744 577.2,117.968 577.8,117.202 578.4,116.444 579,115.694 579.6,114.954 580.2,114.222 580.8,113.5 581.4,112.786 582,112.081 582.6,111.385 583.2,110.697 583.8,110.019 584.4,109.35 585,108.69 585.6,108.039 586.2,107.397 586.8,106.764 587.4,106.14 588,105.525 588.6,104.919 589.2,104.323 589.8,103.736 590.4,103.158 591,102.589 591.6,102.029 592.2,101.479 592.8,100.938 593.4,100.406 594,99.8841 594.6,99.3711 595.2,98.8675 595.8,98.3732 596.4,97.8884 597,97.413 597.6,96.947 598.2,96.4182 598.8,95.6929 599.4,94.9767 600,94.2695 " />

<!--Draw the X and Y axes -->
<polyline fill="none" stroke="black" stroke-width="6"  points=" 600,0 0,0 0, 600" />
<polyline fill="none" stroke="black" stroke-width="1"  points=" 0 600  600 600  600 0" />
<!-- -->


<!--Draw labels and tics for X axis -->

<line fill="none" stroke="black"  stroke-width="6"  x1="0.5" y1="0" x2="0.5" y2="-20" />
<text transform="scale(1,-1)" font-family="sans-serif" font-size="30" x="-24.5" y="45" >0</text>
<line fill="none" stroke="black"  stroke-width="6"  x1="120.5" y1="0" x2="120.5" y2="-20" />
<text transform="scale(1,-1)" font-family="sans-serif" font-size="30" x="95.5" y="45" >200</text>
<line fill="none" stroke="black"  stroke-width="6"  x1="240.5" y1="0" x2="240.5" y2="-20" />
<text transform="scale(1,-1)" font-family="sans-serif" font-size="30" x="215.5" y="45" >400</text>
<line fill="none" stroke="black"  stroke-width="6"  x1="360.5" y1="0" x2="360.5" y2="-20" />
<text transform="scale(1,-1)" font-family="sans-serif" font-size="30" x="335.5" y="45" >600</text>
<line fill="none" stroke="black"  stroke-width="6"  x1="480.5" y1="0" x2="480.5" y2="-20" />
<text transform="scale(1,-1)" font-family="sans-serif" font-size="30" x="455.5" y="45" >800</text>
<line fill="none" stroke="black"  stroke-width="6"  x1="600.5" y1="0" x2="600.5" y2="-20" />
<text transform="scale(1,-1)" font-family="sans-serif" font-size="30" x="575.5" y="45" >1000</text>


<!--Draw labels and tics for Y axis -->

<line fill="none" stroke="black" stroke-width="6" x1="0.0" y1="0" x2="-20" y2="0" />
<text transform="scale(1,-1)" text-anchor="end" font-family="sans-serif" font-size="30" x="-25" y="10" >20</text>
<line fill="none" stroke="black" stroke-width="6" x1="0.0" y1="66.6667" x2="-20" y2="66.6667" />
<text transform="scale(1,-1)" text-anchor="end" font-family="sans-serif" font-size="30" x="-25" y="-56.6667" >22</text>
<line fill="none" stroke="black" stroke-width="6" x1="0.0" y1="133.333" x2="-20" y2="133.333" />
<text transform="scale(1,-1)" text-anchor="end" font-family="sans-serif" font-size="30" x="-25" y="-123.333" >24</text>
<line fill="none" stroke="black" stroke-width="6" x1="0.0" y1="200" x2="-20" y2="200" />
<text transform="scale(1,-1)" text-anchor="end" font-family="sans-serif" font-size="30" x="-25" y="-190" >26</text>
<line fill="none" stroke="black" stroke-width="6" x1="0.0" y1="266.667" x2="-20" y2="266.667" />
<text transform="scale(1,-1)" text-anchor="end" font-family="sans-serif" font-size="30" x="-25" y="-256.667" >28</text>
<line fill="none" stroke="black" stroke-width="6" x1="0.0" y1="333.333" x2="-20" y2="333.333" />
<text transform="scale(1,-1)" text-anchor="end" font-family="sans-serif" font-size="30" x="-25" y="-323.333" >30</text>
<line fill="none" stroke="black" stroke-width="6" x1="0.0" y1="400" x2="-20" y2="400" />
<text transform="scale(1,-1)" text-anchor="end" font-family="sans-serif" font-size="30" x="-25" y="-390" >32</text>
<line fill="none" stroke="black" stroke-width="6" x1="0.0" y1="466.667" x2="-20" y2="466.667" />
<text transform="scale(1,-1)" text-anchor="end" font-family="sans-serif" font-size="30" x="-25" y="-456.667" >34</text>
<line fill="none" stroke="black" stroke-width="6" x1="0.0" y1="533.333" x2="-20" y2="533.333" />
<text transform="scale(1,-1)" text-anchor="end" font-family="sans-serif" font-size="30" x="-25" y="-523.333" >36</text>
<line fill="none" stroke="black" stroke-width="6" x1="0.0" y1="600" x2="-20" y2="600" />
<text transform="scale(1,-1)" text-anchor="end" font-family="sans-serif" font-size="30" x="-25" y="-590" >38</text>

-->
</g>
</g>
<!-- Run Constants
CIRCLEPLOT bool false
DISTANCEPLOT bool true
PRINTDISTANCEDATA bool true
GLITCHESONLY bool false
PLOT 2doubles 3 4
PERTURBBY double 0.05
GLITCHLEVEL double 3
BOUNDARYWINDOW double 0.065
FRAMESPERPATH int 200
STEPSPERFRAME int 1000
TRIALS int 1
ALLBLACK bool true
FILEPREFIX string Fol
GRAPHSIZE int 0
BORDER int 0
PLOTSIZE int 0
G6LINEWIDTH int 3
DELONELINEWIDTH int 10
AXISWIDTH int 6
TICLENGTH int 20
VECTOR g6 
FOLLOWERMODE FollowerMode line
FIXRANDOMSEED fixRandomSeed false
RANDOMSEED int 19191
TIMESTAMP bool true
END end 




-->
</svg>
