<?xml version="1.0" standalone="no"?>
<!-- the width and height set the total pixel output of the image in the browser -->
<!-- whatever is within the viewbox will be remapped to show in this size -->
<svg width="1000" height="1000" viewBox="1 0 1000 1000"  version="1.1" xmlns="http://www.w3.org/2000/svg" xmlns:xlink="http://www.w3.org/1999/xlink">
 <desc>ID (and file name) = Fol_2018-05-05.12_22_22.1_6.svg </desc> 
 <text x="700" y="30" font-family="sans-serif" font-size="20">Wall time passed: 0 msec.</text>
<text x="300" y="60"   font-family="sans-serif" font-size="20" fill="lightblue">S6  lightblue</text>
<text x="300" y="85"   font-family="sans-serif" font-size="20" fill="slategrey">NCDist  slategrey</text>
<text x="300" y="110"  font-family="sans-serif" font-size="20" fill="violet">D7  violet</text>
<text x="300" y="135"  font-family="sans-serif" font-size="20" fill="olive">CS6Dist  olive</text>



 <!--DISTANCE PLOT BEGINS-->


<!-- the following will scale and place the distance plot -->
<g  transform="translate(0,50) ">
<g transform="translate(150,700) scale(1 -1)">
   <polyline fill="none" stroke=" lightblue " stroke-width=" 12 " points=" 5.2,0 10.4,11.1196 15.6,22.2392 20.8,33.3588 26,44.4784 31.2,55.5979 36.4,66.7175 41.6,77.8371 46.8,88.9567 52,100.076 57.2,111.196 62.4,122.315 67.6,131.998 72.8,137.499 78,143.653 83.2,150.378 88.4,157.601 93.6,165.257 98.8,167.254 104,163.303 109.2,160.029 114.4,157.474 119.6,155.673 124.8,154.652 130,154.428 135.2,155.002 140.4,156.368 145.6,158.503 150.8,161.378 156,164.955 161.2,169.187 166.4,166.117 171.6,162.966 176.8,160.526 182,158.828 187.2,157.897 192.4,157.747 197.6,158.378 202.8,159.783 208,161.941 213.2,164.823 218.4,168.391 223.6,170.534 228.8,171.783 234,173.737 239.2,176.371 244.4,179.657 249.6,183.558 254.8,188.036 260,193.052 265.2,193.052 270.4,188.036 275.6,183.558 280.8,179.657 286,176.371 291.2,173.737 296.4,171.783 301.6,170.534 306.8,168.391 312,164.823 317.2,161.941 322.4,159.783 327.6,158.378 332.8,157.747 338,157.897 343.2,158.828 348.4,160.526 353.6,162.966 358.8,166.117 364,169.187 369.2,164.955 374.4,161.378 379.6,158.503 384.8,156.368 390,155.002 395.2,154.428 400.4,154.652 405.6,155.673 410.8,157.474 416,160.029 421.2,163.303 426.4,167.254 431.6,165.257 436.8,157.601 442,150.378 447.2,143.653 452.4,137.499 457.6,131.998 462.8,122.315 468,111.196 473.2,100.076 478.4,88.9567 483.6,77.8371 488.8,66.7175 494,55.5979 499.2,44.4784 504.4,33.3588 509.6,22.2392 514.8,11.1196 520,0 " />
   <polyline fill="none" stroke=" slategrey " stroke-width=" 9 " points=" 5.2,0 10.4,27.974 15.6,55.948 20.8,83.922 26,106.158 31.2,132.15 36.4,140.978 41.6,150.692 46.8,161.107 52,172.077 57.2,183.489 62.4,195.254 67.6,207.306 72.8,219.592 78,232.072 83.2,244.711 88.4,257.486 93.6,270.374 98.8,283.359 104,288.378 109.2,287.176 114.4,286.627 119.6,286.712 124.8,287.407 130,288.689 135.2,290.528 140.4,294.014 145.6,303.368 150.8,313.191 156,323.454 161.2,332.746 166.4,339.803 171.6,347.296 176.8,355.196 182,363.474 187.2,372.104 192.4,377.991 197.6,380.042 202.8,382.583 208,385.604 213.2,389.094 218.4,393.04 223.6,397.429 228.8,399.631 234,400.568 239.2,402.265 244.4,404.694 249.6,407.064 254.8,408.76 260,410.895 265.2,410.895 270.4,408.76 275.6,407.064 280.8,404.694 286,402.265 291.2,400.568 296.4,399.631 301.6,397.429 306.8,393.04 312,389.094 317.2,385.604 322.4,382.583 327.6,380.042 332.8,377.991 338,372.104 343.2,363.474 348.4,355.196 353.6,347.296 358.8,339.803 364,332.746 369.2,323.454 374.4,313.191 379.6,303.368 384.8,294.014 390,290.528 395.2,288.689 400.4,287.407 405.6,286.712 410.8,286.627 416,287.176 421.2,288.378 426.4,283.359 431.6,270.374 436.8,257.486 442,244.711 447.2,232.072 452.4,219.592 457.6,207.306 462.8,195.254 468,183.489 473.2,172.077 478.4,161.107 483.6,150.692 488.8,140.978 494,132.15 499.2,106.158 504.4,83.922 509.6,55.948 514.8,27.974 520,9.9066e-13 " />
   <polyline fill="none" stroke=" violet " stroke-width=" 6 " points=" 5.2,0 10.4,16.5651 15.6,33.1303 20.8,49.6954 26,66.2605 31.2,82.8256 36.4,99.3908 41.6,115.956 46.8,132.521 52,149.086 57.2,165.651 62.4,182.216 67.6,198.782 72.8,215.347 78,231.912 83.2,248.477 88.4,265.042 93.6,281.607 98.8,298.172 104,314.737 109.2,316.039 114.4,313.012 119.6,307.424 124.8,302.64 130,298.7 135.2,295.637 140.4,293.478 145.6,292.244 150.8,291.946 156,292.587 161.2,294.161 166.4,296.653 171.6,300.04 176.8,304.292 182,309.374 187.2,315.246 192.4,321.864 197.6,329.183 202.8,337.158 208,345.743 213.2,354.894 218.4,364.568 223.6,374.726 228.8,385.327 234,396.338 239.2,407.725 244.4,419.457 249.6,431.506 254.8,443.846 260,456.454 265.2,456.454 270.4,443.846 275.6,431.506 280.8,419.457 286,407.725 291.2,396.338 296.4,385.327 301.6,374.726 306.8,364.568 312,354.894 317.2,345.743 322.4,337.158 327.6,329.183 332.8,321.864 338,315.246 343.2,309.374 348.4,304.292 353.6,300.04 358.8,296.653 364,294.161 369.2,292.587 374.4,291.946 379.6,292.244 384.8,293.478 390,295.637 395.2,298.7 400.4,302.64 405.6,307.424 410.8,313.012 416,316.039 421.2,314.737 426.4,298.172 431.6,281.607 436.8,265.042 442,248.477 447.2,231.912 452.4,215.347 457.6,198.782 462.8,182.216 468,165.651 473.2,149.086 478.4,132.521 483.6,115.956 488.8,99.3908 494,82.8256 499.2,66.2605 504.4,49.6954 509.6,33.1303 514.8,16.5651 520,2.56484e-05 " />
   <polyline fill="none" stroke=" olive " stroke-width=" 3 " points=" 5.2,0 10.4,11.1196 15.6,22.2392 20.8,33.3588 26,44.4784 31.2,55.5979 36.4,66.7175 41.6,77.8371 46.8,88.9567 52,100.076 57.2,111.196 62.4,122.315 67.6,133.435 72.8,144.555 78,155.674 83.2,164.702 88.4,170.942 93.6,177.659 98.8,184.801 104,192.321 109.2,200.177 114.4,207.388 119.6,201.726 124.8,196.53 130,191.839 135.2,187.691 140.4,184.121 145.6,181.165 150.8,178.852 156,177.208 161.2,176.251 166.4,175.993 171.6,176.437 176.8,177.578 182,179.402 187.2,181.888 192.4,185.011 197.6,188.738 202.8,193.034 208,197.863 213.2,203.186 218.4,208.966 223.6,215.165 228.8,221.749 234,228.685 239.2,235.94 244.4,243.488 249.6,251.301 254.8,259.356 260,267.63 265.2,267.63 270.4,259.356 275.6,251.301 280.8,243.488 286,235.94 291.2,228.685 296.4,221.749 301.6,215.165 306.8,208.966 312,203.186 317.2,197.863 322.4,193.034 327.6,188.738 332.8,185.011 338,181.888 343.2,179.402 348.4,177.578 353.6,176.437 358.8,175.993 364,176.251 369.2,177.208 374.4,178.852 379.6,181.165 384.8,184.121 390,187.691 395.2,191.839 400.4,196.53 405.6,201.726 410.8,207.388 416,200.177 421.2,192.321 426.4,184.801 431.6,177.659 436.8,170.942 442,164.702 447.2,155.674 452.4,144.555 457.6,133.435 462.8,122.315 468,111.196 473.2,100.076 478.4,88.9567 483.6,77.8371 488.8,66.7175 494,55.5979 499.2,44.4784 504.4,33.3588 509.6,22.2392 514.8,11.1196 520,0 " />

<!--Draw the X and Y axes -->
<polyline fill="none" stroke="black" stroke-width="6"  points=" 600,0 0,0 0,520" />
<!-- -->


<!--Draw labels and tics for X axis -->

<line fill="none" stroke="black"  stroke-width="6"  x1="0.5" y1="0" x2="0.5" y2="-20" />
<text transform="scale(1,-1)" font-family="sans-serif" font-size="30" x="-24.5" y="45" >0</text>
<line fill="none" stroke="black"  stroke-width="6"  x1="104.5" y1="0" x2="104.5" y2="-20" />
<text transform="scale(1,-1)" font-family="sans-serif" font-size="30" x="79.5" y="45" >20</text>
<line fill="none" stroke="black"  stroke-width="6"  x1="208.5" y1="0" x2="208.5" y2="-20" />
<text transform="scale(1,-1)" font-family="sans-serif" font-size="30" x="183.5" y="45" >40</text>
<line fill="none" stroke="black"  stroke-width="6"  x1="312.5" y1="0" x2="312.5" y2="-20" />
<text transform="scale(1,-1)" font-family="sans-serif" font-size="30" x="287.5" y="45" >60</text>
<line fill="none" stroke="black"  stroke-width="6"  x1="416.5" y1="0" x2="416.5" y2="-20" />
<text transform="scale(1,-1)" font-family="sans-serif" font-size="30" x="391.5" y="45" >80</text>
<line fill="none" stroke="black"  stroke-width="6"  x1="520.5" y1="0" x2="520.5" y2="-20" />
<text transform="scale(1,-1)" font-family="sans-serif" font-size="30" x="495.5" y="45" >100</text>


<!--Draw labels and tics for Y axis -->

<line fill="none" stroke="black" stroke-width="6" x1="0.0" y1="0" x2="-20" y2="0" />
<text transform="scale(1,-1)" text-anchor="end" font-family="sans-serif" font-size="30" x="-25" y="10" >0</text>
<line fill="none" stroke="black" stroke-width="6" x1="0.0" y1="74.2857" x2="-20" y2="74.2857" />
<text transform="scale(1,-1)" text-anchor="end" font-family="sans-serif" font-size="30" x="-25" y="-64.2857" >500</text>
<line fill="none" stroke="black" stroke-width="6" x1="0.0" y1="148.571" x2="-20" y2="148.571" />
<text transform="scale(1,-1)" text-anchor="end" font-family="sans-serif" font-size="30" x="-25" y="-138.571" >1000</text>
<line fill="none" stroke="black" stroke-width="6" x1="0.0" y1="222.857" x2="-20" y2="222.857" />
<text transform="scale(1,-1)" text-anchor="end" font-family="sans-serif" font-size="30" x="-25" y="-212.857" >1500</text>
<line fill="none" stroke="black" stroke-width="6" x1="0.0" y1="297.143" x2="-20" y2="297.143" />
<text transform="scale(1,-1)" text-anchor="end" font-family="sans-serif" font-size="30" x="-25" y="-287.143" >2000</text>
<line fill="none" stroke="black" stroke-width="6" x1="0.0" y1="371.429" x2="-20" y2="371.429" />
<text transform="scale(1,-1)" text-anchor="end" font-family="sans-serif" font-size="30" x="-25" y="-361.429" >2500</text>
<line fill="none" stroke="black" stroke-width="6" x1="0.0" y1="445.714" x2="-20" y2="445.714" />
<text transform="scale(1,-1)" text-anchor="end" font-family="sans-serif" font-size="30" x="-25" y="-435.714" >3000</text>
<line fill="none" stroke="black" stroke-width="6" x1="0.0" y1="520" x2="-20" y2="520" />
<text transform="scale(1,-1)" text-anchor="end" font-family="sans-serif" font-size="30" x="-25" y="-510" >3500</text>

-->
</g>
</g>
<!-- Run Constants
CIRCLEPLOT bool false
DISTANCEPLOT bool true
PRINTDISTANCEDATA bool true
GLITCHESONLY bool false
PLOT 2doubles 3 4
PERTURBBY double 25
GLITCHLEVEL double 3
BOUNDARYWINDOW double 0.065
FRAMESPERPATH int 200
STEPSPERFRAME int 100
TRIALS int 10
ALLBLACK bool true
FILEPREFIX string Fol
GRAPHSIZE int 0
BORDER int 0
PLOTSIZE int 0
CIRCLEPLOTSIZE int 2000
CIRCLERADIUS int 300
CIRCLESTROKEWIDTH int 30
G6LINEWIDTH int 3
DELONELINEWIDTH int 10
AXISWIDTH int 6
TICLENGTH int 20
VECTOR g6 
MOVIEMODE MovieMode STAR
FOLLOWERMODE FollowerMode Follow
FIXRANDOMSEED fixRandomSeed false
RANDOMSEED int 15
TIMESTAMP bool true
END end 




-->
</svg>
