<?xml version="1.0" standalone="no"?>
<!-- the width and height set the total pixel output of the image in the browser -->
<!-- whatever is within the viewbox will be remapped to show in this size -->
<svg width="1000" height="1000" viewBox="1 0 1000 1000"  version="1.1" xmlns="http://www.w3.org/2000/svg" xmlns:xlink="http://www.w3.org/1999/xlink">
 <desc>ID (and file name) = Fol_2018-05-09.10_23_08.1_28.svg </desc> 
 <text x="700" y="30" font-family="sans-serif" font-size="20">Wall time passed: -33697 msec.</text>
<text x="300" y="60"   font-family="sans-serif" font-size="20" fill="lightblue">S6  lightblue</text>
<text x="300" y="85"   font-family="sans-serif" font-size="20" fill="slategrey">NCDist  slategrey</text>
<text x="300" y="110"  font-family="sans-serif" font-size="20" fill="violet">D7  violet</text>
<text x="300" y="135"  font-family="sans-serif" font-size="20" fill="olive">CS6Dist  olive</text>



 <!--DISTANCE PLOT BEGINS-->


<!-- the following will scale and place the distance plot -->
<g  transform="translate(0,50) ">
<g transform="translate(150,700) scale(1 -1)">
   <polyline fill="none" stroke=" lightblue " stroke-width=" 12 " points=" 5.2,0 10.4,18.9561 15.6,37.9122 20.8,56.8683 26,66.0427 31.2,64.5813 36.4,64.4321 41.6,65.6041 46.8,68.029 52,71.5797 57.2,76.0986 62.4,81.4248 67.6,87.4108 72.8,93.9306 78,100.881 83.2,108.178 88.4,115.757 93.6,120.162 98.8,124.704 104,129.749 109.2,135.242 114.4,141.129 119.6,147.364 124.8,152.028 130,156.925 135.2,162.056 140.4,167.4 145.6,172.937 150.8,178.649 156,184.52 161.2,190.534 166.4,196.68 171.6,202.945 176.8,209.317 182,215.789 187.2,222.351 192.4,228.995 197.6,235.714 202.8,242.503 208,247.419 213.2,251.305 218.4,255.312 223.6,259.437 228.8,263.673 234,268.014 239.2,272.456 244.4,276.994 249.6,281.624 254.8,286.34 260,291.139 265.2,296.017 270.4,300.969 275.6,305.993 280.8,293.372 286,297.649 291.2,302.12 296.4,306.778 301.6,311.615 306.8,303.762 312,295.289 317.2,286.835 322.4,278.402 327.6,269.991 332.8,261.606 338,253.247 343.2,244.919 348.4,236.624 353.6,228.366 358.8,220.149 364,211.977 369.2,203.857 374.4,195.795 379.6,187.797 384.8,179.874 390,172.034 395.2,164.291 400.4,156.657 405.6,149.151 410.8,141.792 416,134.605 421.2,127.619 426.4,120.867 431.6,114.393 436.8,108.245 442,101.636 447.2,94.5438 452.4,87.759 457.6,81.3585 462.8,75.4402 468,70.1263 473.2,65.5639 478.4,61.9194 483.6,59.3621 488.8,52.7274 494,43.9395 499.2,35.1516 504.4,26.3637 509.6,17.5758 514.8,8.7879 520,0 " />
   <polyline fill="none" stroke=" slategrey " stroke-width=" 9 " points=" 5.2,0 10.4,14.7328 15.6,29.4655 20.8,44.1983 26,58.3294 31.2,60.9852 36.4,66.8593 41.6,75.2014 46.8,85.2904 52,96.5803 57.2,108.698 62.4,121.395 67.6,134.508 72.8,147.926 78,161.201 83.2,173.409 88.4,183.866 93.6,189.874 98.8,196.17 104,200.072 109.2,204.314 114.4,208.874 119.6,213.734 124.8,218.873 130,224.271 135.2,229.911 140.4,235.775 145.6,241.846 150.8,248.111 156,254.553 161.2,261.161 166.4,267.921 171.6,274.823 176.8,281.857 182,289.012 187.2,296.28 192.4,303.652 197.6,311.122 202.8,318.683 208,326.327 213.2,334.05 218.4,341.846 223.6,349.71 228.8,357.638 234,364.893 239.2,371.917 244.4,379.034 249.6,386.022 254.8,390.088 260,394.323 265.2,398.721 270.4,403.278 275.6,407.612 280.8,400.082 286,391.901 291.2,383.766 296.4,375.679 301.6,367.645 306.8,359.667 312,351.749 317.2,343.894 322.4,336.107 327.6,328.394 332.8,320.759 338,313.208 343.2,304.695 348.4,296.056 353.6,287.452 358.8,278.886 364,270.361 369.2,261.883 374.4,253.454 379.6,245.081 384.8,236.769 390,228.525 395.2,220.357 400.4,212.273 405.6,204.283 410.8,196.399 416,188.634 421.2,181.004 426.4,173.526 431.6,166.221 436.8,159.112 442,152.227 447.2,145.598 452.4,139.261 457.6,133.259 462.8,127.637 468,122.45 473.2,117.753 478.4,112.146 483.6,106.073 488.8,100.393 494,95.1764 499.2,77.6159 504.4,58.2119 509.6,38.8079 514.8,19.404 520,2.1803e-13 " />
   <polyline fill="none" stroke=" violet " stroke-width=" 6 " points=" 5.2,4.00756e-05 10.4,31.1227 15.6,62.2453 20.8,93.368 26,110.743 31.2,111.973 36.4,114.939 41.6,119.511 46.8,125.514 52,132.754 57.2,141.04 62.4,150.201 67.6,160.084 72.8,170.566 78,181.542 83.2,192.928 88.4,204.655 93.6,213.745 98.8,223.431 104,231.654 109.2,240.433 114.4,249.706 119.6,259.419 124.8,266.576 130,273.996 135.2,281.695 140.4,289.65 145.6,297.84 150.8,306.247 156,314.853 161.2,323.643 166.4,332.601 171.6,341.715 176.8,350.972 182,360.362 187.2,369.874 192.4,379.5 197.6,389.23 202.8,399.057 208,406.28 213.2,412.075 218.4,418.048 223.6,424.197 228.8,430.516 234,437.002 239.2,443.649 244.4,447.172 249.6,448.607 254.8,450.231 260,451.921 265.2,453.154 270.4,454.561 275.6,456.141 280.8,460.589 286,464.651 291.2,469.043 296.4,473.755 301.6,473.148 306.8,460.807 312,448.501 317.2,436.232 322.4,424.003 327.6,411.817 332.8,399.677 338,387.587 343.2,375.55 348.4,363.572 353.6,351.657 358.8,339.811 364,328.039 369.2,316.349 374.4,304.748 379.6,293.244 384.8,281.848 390,270.523 395.2,258.695 400.4,247.007 405.6,235.481 410.8,224.141 416,213.019 421.2,202.151 426.4,191.582 431.6,181.369 436.8,171.56 442,162.242 447.2,152.715 452.4,142.258 457.6,132.3 462.8,122.971 468,113.808 473.2,103.779 478.4,95.4522 483.6,89.4272 488.8,78.2848 494,65.2374 499.2,52.1899 504.4,39.1424 509.6,26.0949 514.8,13.0475 520,0 " />
   <polyline fill="none" stroke=" olive " stroke-width=" 3 " points=" 5.2,0 10.4,18.9561 15.6,37.9122 20.8,56.8683 26,66.0427 31.2,64.5813 36.4,64.4321 41.6,65.6041 46.8,68.029 52,71.5797 57.2,76.0986 62.4,81.4248 67.6,87.4108 72.8,93.9306 78,100.881 83.2,108.178 88.4,115.757 93.6,123.566 98.8,131.564 104,139.719 109.2,148.004 114.4,156.399 119.6,164.887 124.8,152.028 130,156.925 135.2,162.056 140.4,167.4 145.6,172.937 150.8,178.649 156,184.52 161.2,190.534 166.4,196.68 171.6,202.945 176.8,209.317 182,215.789 187.2,222.351 192.4,228.995 197.6,235.714 202.8,242.503 208,432.475 213.2,426.2 218.4,419.942 223.6,413.701 228.8,407.478 234,401.274 239.2,395.089 244.4,388.926 249.6,382.784 254.8,376.665 260,370.569 265.2,364.499 270.4,358.455 275.6,352.439 280.8,328.193 286,332.806 291.2,337.584 296.4,342.522 301.6,347.611 306.8,343.956 312,335.551 317.2,327.167 322.4,318.804 327.6,310.464 332.8,302.15 338,293.863 343.2,285.607 348.4,277.383 353.6,269.194 358.8,261.045 364,252.938 369.2,244.879 374.4,236.871 379.6,228.92 384.8,221.033 390,213.217 395.2,205.478 400.4,197.828 405.6,190.276 410.8,182.834 416,175.517 421.2,166.97 426.4,158.182 431.6,149.394 436.8,140.606 442,131.819 447.2,123.031 452.4,114.243 457.6,105.455 462.8,96.6669 468,87.879 473.2,79.0911 478.4,70.3032 483.6,61.5153 488.8,52.7274 494,43.9395 499.2,35.1516 504.4,26.3637 509.6,17.5758 514.8,8.7879 520,0 " />

<!--Draw the X and Y axes -->
<polyline fill="none" stroke="black" stroke-width="6"  points=" 600,0 0,0 0,520" />
<!-- -->


<!--Draw labels and tics for X axis -->

<line fill="none" stroke="black"  stroke-width="6"  x1="0.5" y1="0" x2="0.5" y2="-20" />
<text transform="scale(1,-1)" font-family="sans-serif" font-size="30" x="-24.5" y="45" >0</text>
<line fill="none" stroke="black"  stroke-width="6"  x1="104.5" y1="0" x2="104.5" y2="-20" />
<text transform="scale(1,-1)" font-family="sans-serif" font-size="30" x="79.5" y="45" >20</text>
<line fill="none" stroke="black"  stroke-width="6"  x1="208.5" y1="0" x2="208.5" y2="-20" />
<text transform="scale(1,-1)" font-family="sans-serif" font-size="30" x="183.5" y="45" >40</text>
<line fill="none" stroke="black"  stroke-width="6"  x1="312.5" y1="0" x2="312.5" y2="-20" />
<text transform="scale(1,-1)" font-family="sans-serif" font-size="30" x="287.5" y="45" >60</text>
<line fill="none" stroke="black"  stroke-width="6"  x1="416.5" y1="0" x2="416.5" y2="-20" />
<text transform="scale(1,-1)" font-family="sans-serif" font-size="30" x="391.5" y="45" >80</text>
<line fill="none" stroke="black"  stroke-width="6"  x1="520.5" y1="0" x2="520.5" y2="-20" />
<text transform="scale(1,-1)" font-family="sans-serif" font-size="30" x="495.5" y="45" >100</text>


<!--Draw labels and tics for Y axis -->

<line fill="none" stroke="black" stroke-width="6" x1="0.0" y1="0" x2="-20" y2="0" />
<text transform="scale(1,-1)" text-anchor="end" font-family="sans-serif" font-size="30" x="-25" y="10" >0</text>
<line fill="none" stroke="black" stroke-width="6" x1="0.0" y1="74.2857" x2="-20" y2="74.2857" />
<text transform="scale(1,-1)" text-anchor="end" font-family="sans-serif" font-size="30" x="-25" y="-64.2857" >5</text>
<line fill="none" stroke="black" stroke-width="6" x1="0.0" y1="148.571" x2="-20" y2="148.571" />
<text transform="scale(1,-1)" text-anchor="end" font-family="sans-serif" font-size="30" x="-25" y="-138.571" >10</text>
<line fill="none" stroke="black" stroke-width="6" x1="0.0" y1="222.857" x2="-20" y2="222.857" />
<text transform="scale(1,-1)" text-anchor="end" font-family="sans-serif" font-size="30" x="-25" y="-212.857" >15</text>
<line fill="none" stroke="black" stroke-width="6" x1="0.0" y1="297.143" x2="-20" y2="297.143" />
<text transform="scale(1,-1)" text-anchor="end" font-family="sans-serif" font-size="30" x="-25" y="-287.143" >20</text>
<line fill="none" stroke="black" stroke-width="6" x1="0.0" y1="371.429" x2="-20" y2="371.429" />
<text transform="scale(1,-1)" text-anchor="end" font-family="sans-serif" font-size="30" x="-25" y="-361.429" >25</text>
<line fill="none" stroke="black" stroke-width="6" x1="0.0" y1="445.714" x2="-20" y2="445.714" />
<text transform="scale(1,-1)" text-anchor="end" font-family="sans-serif" font-size="30" x="-25" y="-435.714" >30</text>
<line fill="none" stroke="black" stroke-width="6" x1="0.0" y1="520" x2="-20" y2="520" />
<text transform="scale(1,-1)" text-anchor="end" font-family="sans-serif" font-size="30" x="-25" y="-510" >35</text>

-->
</g>
</g>
<!-- Run Constants
CIRCLEPLOT bool false
DISTANCEPLOT bool true
PRINTDISTANCEDATA bool true
GLITCHESONLY bool false
PLOT 2doubles 3 4
PERTURBBY double 0.05
GLITCHLEVEL double 3
BOUNDARYWINDOW double 0.065
FRAMESPERPATH int 200
STEPSPERFRAME int 100
TRIALS int 30
ALLBLACK bool true
FILEPREFIX string Fol
GRAPHSIZE int 0
BORDER int 0
PLOTSIZE int 0
CIRCLEPLOTSIZE int 2000
CIRCLERADIUS int 300
CIRCLESTROKEWIDTH int 30
G6LINEWIDTH int 3
DELONELINEWIDTH int 10
AXISWIDTH int 6
TICLENGTH int 20
VECTOR g6 
MOVIEMODE MovieMode STAR
FOLLOWERMODE FollowerMode Follow
FIXRANDOMSEED fixRandomSeed false
RANDOMSEED int 19191
TIMESTAMP bool true
END end 




-->
</svg>
