<?xml version="1.0" standalone="no"?>
<!-- the width and height set the total pixel output of the image in the browser -->
<!-- whatever is within the viewbox will be remapped to show in this size -->
<svg width="900" height="900" viewBox="1 0 900 900"  version="1.1" xmlns="http://www.w3.org/2000/svg" xmlns:xlink="http://www.w3.org/1999/xlink">
 <desc>ID (and file name) = Fol_2018-05-17.13_17_04.1_1.svg  mode = Line </desc> 
<text x = "-750" y="50" transform="rotate(-90)"  font-family="sans-serif" font-size="40" stroke ="lightgray" fill="none"> PointDistanceFollower   May 17 2018</text>
 <text x="560" y="30" font-family="sans-serif" font-size="20">Wall time passed: 8950 msec.</text>
<text x="300" y="60"   font-family="sans-serif" font-size="20" fill="lightblue">S6  lightblue</text>
<text x="300" y="85"   font-family="sans-serif" font-size="20" fill="slategrey">NCDist  slategrey</text>
<text x="300" y="110"  font-family="sans-serif" font-size="20" fill="violet">D7  violet</text>
<text x="300" y="135"  font-family="sans-serif" font-size="20" fill="olive">CS6Dist  olive</text>

 <text x="140"  y="30"  font-family="sans-serif" font-size="20" >Fol_2018-05-17.13_17_04.1_1.svg  </text> 


 <!--DISTANCE PLOT BEGINS-->


<!-- the following will scale and place the distance plot -->
<g  transform="translate(0, 50) ">
<g transform="translate(150,700) scale(1 -1)">
<line fill="none" stroke="lightblue" stroke-width="12" x1="0" y1="87.4115" x2="5.94059" y2="87.4115" />
<line fill="none" stroke="lightblue" stroke-width="12" x1="5.94059" y1="87.4115" x2="11.8812" y2="77.8365" />
<line fill="none" stroke="lightblue" stroke-width="12" x1="11.8812" y1="77.8365" x2="17.8218" y2="68.8521" />
<line fill="none" stroke="lightblue" stroke-width="12" x1="17.8218" y1="68.8521" x2="23.7624" y2="60.4629" />
<line fill="none" stroke="lightblue" stroke-width="12" x1="23.7624" y1="60.4629" x2="29.703" y2="52.6735" />
<line fill="none" stroke="lightblue" stroke-width="12" x1="29.703" y1="52.6735" x2="35.6436" y2="45.4879" />
<line fill="none" stroke="lightblue" stroke-width="12" x1="35.6436" y1="45.4879" x2="41.5842" y2="38.9101" />
<line fill="none" stroke="lightblue" stroke-width="12" x1="41.5842" y1="38.9101" x2="47.5248" y2="32.9437" />
<line fill="none" stroke="lightblue" stroke-width="12" x1="47.5248" y1="32.9437" x2="53.4653" y2="27.5918" />
<line fill="none" stroke="lightblue" stroke-width="12" x1="53.4653" y1="27.5918" x2="59.4059" y2="22.8574" />
<line fill="none" stroke="lightblue" stroke-width="12" x1="59.4059" y1="22.8574" x2="65.3465" y2="18.7431" />
<line fill="none" stroke="lightblue" stroke-width="12" x1="65.3465" y1="18.7431" x2="71.2871" y2="15.2513" />
<line fill="none" stroke="lightblue" stroke-width="12" x1="71.2871" y1="15.2513" x2="77.2277" y2="12.3839" />
<line fill="none" stroke="lightblue" stroke-width="12" x1="77.2277" y1="12.3839" x2="83.1683" y2="10.1425" />
<line fill="none" stroke="lightblue" stroke-width="12" x1="83.1683" y1="10.1425" x2="89.1089" y2="8.52832" />
<line fill="none" stroke="lightblue" stroke-width="12" x1="89.1089" y1="8.52832" x2="95.0495" y2="7.54232" />
<line fill="none" stroke="lightblue" stroke-width="12" x1="95.0495" y1="7.54232" x2="100.99" y2="7.18505" />
<line fill="none" stroke="lightblue" stroke-width="12" x1="100.99" y1="7.18505" x2="106.931" y2="7.4567" />
<line fill="none" stroke="lightblue" stroke-width="12" x1="106.931" y1="7.4567" x2="112.871" y2="8.35713" />
<line fill="none" stroke="lightblue" stroke-width="12" x1="112.871" y1="8.35713" x2="118.812" y2="9.88582" />
<line fill="none" stroke="lightblue" stroke-width="12" x1="118.812" y1="9.88582" x2="124.752" y2="12.0419" />
<line fill="none" stroke="lightblue" stroke-width="12" x1="124.752" y1="12.0419" x2="130.693" y2="14.8242" />
<line fill="none" stroke="lightblue" stroke-width="12" x1="130.693" y1="14.8242" x2="136.634" y2="18.2311" />
<line fill="none" stroke="lightblue" stroke-width="12" x1="136.634" y1="18.2311" x2="142.574" y2="22.2607" />
<line fill="none" stroke="lightblue" stroke-width="12" x1="142.574" y1="22.2607" x2="148.515" y2="26.9108" />
<line fill="none" stroke="lightblue" stroke-width="12" x1="148.515" y1="26.9108" x2="154.455" y2="32.1788" />
<line fill="none" stroke="lightblue" stroke-width="12" x1="154.455" y1="32.1788" x2="160.396" y2="38.0618" />
<line fill="none" stroke="lightblue" stroke-width="12" x1="160.396" y1="38.0618" x2="166.337" y2="44.5566" />
<line fill="none" stroke="lightblue" stroke-width="12" x1="166.337" y1="44.5566" x2="172.277" y2="51.6596" />
<line fill="none" stroke="lightblue" stroke-width="12" x1="172.277" y1="51.6596" x2="178.218" y2="59.3671" />
<line fill="none" stroke="lightblue" stroke-width="12" x1="178.218" y1="59.3671" x2="184.158" y2="67.6748" />
<line fill="none" stroke="lightblue" stroke-width="12" x1="184.158" y1="67.6748" x2="190.099" y2="76.5785" />
<line fill="none" stroke="lightblue" stroke-width="12" x1="190.099" y1="76.5785" x2="196.04" y2="86.0734" />
<line fill="none" stroke="lightblue" stroke-width="12" x1="196.04" y1="86.0734" x2="201.98" y2="96.1547" />
<line fill="none" stroke="lightblue" stroke-width="12" x1="201.98" y1="96.1547" x2="207.921" y2="106.817" />
<line fill="none" stroke="lightblue" stroke-width="12" x1="207.921" y1="106.817" x2="213.861" y2="118.055" />
<line fill="none" stroke="lightblue" stroke-width="12" x1="213.861" y1="118.055" x2="219.802" y2="129.864" />
<line fill="none" stroke="lightblue" stroke-width="12" x1="219.802" y1="129.864" x2="225.743" y2="142.236" />
<line fill="none" stroke="lightblue" stroke-width="12" x1="225.743" y1="142.236" x2="231.683" y2="155.167" />
<line fill="none" stroke="lightblue" stroke-width="12" x1="231.683" y1="155.167" x2="237.624" y2="168.65" />
<line fill="none" stroke="lightblue" stroke-width="12" x1="237.624" y1="168.65" x2="243.564" y2="182.679" />
<line fill="none" stroke="lightblue" stroke-width="12" x1="243.564" y1="182.679" x2="249.505" y2="197.247" />
<line fill="none" stroke="lightblue" stroke-width="12" x1="249.505" y1="197.247" x2="255.446" y2="197.523" />
<line fill="none" stroke="lightblue" stroke-width="12" x1="255.446" y1="197.523" x2="261.386" y2="190.382" />
<line fill="none" stroke="lightblue" stroke-width="12" x1="261.386" y1="190.382" x2="267.327" y2="183.824" />
<line fill="none" stroke="lightblue" stroke-width="12" x1="267.327" y1="183.824" x2="273.267" y2="177.851" />
<line fill="none" stroke="lightblue" stroke-width="12" x1="273.267" y1="177.851" x2="279.208" y2="172.468" />
<line fill="none" stroke="lightblue" stroke-width="12" x1="279.208" y1="172.468" x2="285.149" y2="161.537" />
<line fill="none" stroke="lightblue" stroke-width="12" x1="285.149" y1="161.537" x2="291.089" y2="142.583" />
<line fill="none" stroke="lightblue" stroke-width="12" x1="291.089" y1="142.583" x2="297.03" y2="125.567" />
<line fill="none" stroke="lightblue" stroke-width="12" x1="297.03" y1="125.567" x2="302.97" y2="116.943" />
<line fill="none" stroke="lightblue" stroke-width="12" x1="302.97" y1="116.943" x2="308.911" y2="107.919" />
<line fill="none" stroke="lightblue" stroke-width="12" x1="308.911" y1="107.919" x2="314.851" y2="99.3434" />
<line fill="none" stroke="lightblue" stroke-width="12" x1="314.851" y1="99.3434" x2="320.792" y2="91.2214" />
<line fill="none" stroke="lightblue" stroke-width="12" x1="320.792" y1="91.2214" x2="326.733" y2="83.5558" />
<line fill="none" stroke="lightblue" stroke-width="12" x1="326.733" y1="83.5558" x2="332.673" y2="76.3496" />
<line fill="none" stroke="lightblue" stroke-width="12" x1="332.673" y1="76.3496" x2="338.614" y2="69.6058" />
<line fill="none" stroke="lightblue" stroke-width="12" x1="338.614" y1="69.6058" x2="344.554" y2="63.3272" />
<line fill="none" stroke="lightblue" stroke-width="12" x1="344.554" y1="63.3272" x2="350.495" y2="57.5162" />
<line fill="none" stroke="lightblue" stroke-width="12" x1="350.495" y1="57.5162" x2="356.436" y2="52.1755" />
<line fill="none" stroke="lightblue" stroke-width="12" x1="356.436" y1="52.1755" x2="362.376" y2="47.3071" />
<line fill="none" stroke="lightblue" stroke-width="12" x1="362.376" y1="47.3071" x2="368.317" y2="42.9131" />
<line fill="none" stroke="lightblue" stroke-width="12" x1="368.317" y1="42.9131" x2="374.257" y2="38.9954" />
<line fill="none" stroke="lightblue" stroke-width="12" x1="374.257" y1="38.9954" x2="380.198" y2="35.5557" />
<line fill="none" stroke="lightblue" stroke-width="12" x1="380.198" y1="35.5557" x2="386.139" y2="32.5954" />
<line fill="none" stroke="lightblue" stroke-width="12" x1="386.139" y1="32.5954" x2="392.079" y2="30.1157" />
<line fill="none" stroke="lightblue" stroke-width="12" x1="392.079" y1="30.1157" x2="398.02" y2="28.1178" />
<line fill="none" stroke="lightblue" stroke-width="12" x1="398.02" y1="28.1178" x2="403.96" y2="26.6025" />
<line fill="none" stroke="lightblue" stroke-width="12" x1="403.96" y1="26.6025" x2="409.901" y2="25.5705" />
<line fill="none" stroke="lightblue" stroke-width="12" x1="409.901" y1="25.5705" x2="415.842" y2="25.0222" />
<line fill="none" stroke="lightblue" stroke-width="12" x1="415.842" y1="25.0222" x2="421.782" y2="24.9579" />
<line fill="none" stroke="lightblue" stroke-width="12" x1="421.782" y1="24.9579" x2="427.723" y2="25.3775" />
<line fill="none" stroke="lightblue" stroke-width="12" x1="427.723" y1="25.3775" x2="433.663" y2="26.2809" />
<line fill="none" stroke="lightblue" stroke-width="12" x1="433.663" y1="26.2809" x2="439.604" y2="27.6677" />
<line fill="none" stroke="lightblue" stroke-width="12" x1="439.604" y1="27.6677" x2="445.545" y2="29.5373" />
<line fill="none" stroke="lightblue" stroke-width="12" x1="445.545" y1="29.5373" x2="451.485" y2="31.8889" />
<line fill="none" stroke="lightblue" stroke-width="12" x1="451.485" y1="31.8889" x2="457.426" y2="34.7215" />
<line fill="none" stroke="lightblue" stroke-width="12" x1="457.426" y1="34.7215" x2="463.366" y2="38.0339" />
<line fill="none" stroke="lightblue" stroke-width="12" x1="463.366" y1="38.0339" x2="469.307" y2="41.8246" />
<line fill="none" stroke="lightblue" stroke-width="12" x1="469.307" y1="41.8246" x2="475.248" y2="46.0921" />
<line fill="none" stroke="lightblue" stroke-width="12" x1="475.248" y1="46.0921" x2="481.188" y2="50.8345" />
<line fill="none" stroke="lightblue" stroke-width="12" x1="481.188" y1="50.8345" x2="487.129" y2="56.0499" />
<line fill="none" stroke="lightblue" stroke-width="12" x1="487.129" y1="56.0499" x2="493.069" y2="61.736" />
<line fill="none" stroke="lightblue" stroke-width="12" x1="493.069" y1="61.736" x2="499.01" y2="67.8905" />
<line fill="none" stroke="lightblue" stroke-width="12" x1="499.01" y1="67.8905" x2="504.95" y2="74.5108" />
<line fill="none" stroke="lightblue" stroke-width="12" x1="504.95" y1="74.5108" x2="510.891" y2="81.5943" />
<line fill="none" stroke="lightblue" stroke-width="12" x1="510.891" y1="81.5943" x2="516.832" y2="89.138" />
<line fill="none" stroke="lightblue" stroke-width="12" x1="516.832" y1="89.138" x2="522.772" y2="97.139" />
<line fill="none" stroke="lightblue" stroke-width="12" x1="522.772" y1="97.139" x2="528.713" y2="105.594" />
<line fill="none" stroke="lightblue" stroke-width="12" x1="528.713" y1="105.594" x2="534.653" y2="114.5" />
<line fill="none" stroke="lightblue" stroke-width="12" x1="534.653" y1="114.5" x2="540.594" y2="123.852" />
<line fill="none" stroke="lightblue" stroke-width="12" x1="540.594" y1="123.852" x2="546.535" y2="122.073" />
<line fill="none" stroke="lightblue" stroke-width="12" x1="546.535" y1="122.073" x2="552.475" y2="116.111" />
<line fill="none" stroke="lightblue" stroke-width="12" x1="552.475" y1="116.111" x2="558.416" y2="110.61" />
<line fill="none" stroke="lightblue" stroke-width="12" x1="558.416" y1="110.61" x2="564.356" y2="105.573" />
<line fill="none" stroke="lightblue" stroke-width="12" x1="564.356" y1="105.573" x2="570.297" y2="101.002" />
<line fill="none" stroke="lightblue" stroke-width="12" x1="570.297" y1="101.002" x2="576.238" y2="96.8987" />
<line fill="none" stroke="lightblue" stroke-width="12" x1="576.238" y1="96.8987" x2="582.178" y2="93.2649" />
<line fill="none" stroke="lightblue" stroke-width="12" x1="582.178" y1="93.2649" x2="588.119" y2="90.1021" />
<line fill="none" stroke="lightblue" stroke-width="12" x1="588.119" y1="90.1021" x2="594.059" y2="87.4115" />
<line fill="none" stroke="olive" stroke-width="3" x1="0" y1="130.754" x2="5.94059" y2="130.754" />
<line fill="none" stroke="olive" stroke-width="3" x1="5.94059" y1="130.754" x2="11.8812" y2="132.793" />
<line fill="none" stroke="olive" stroke-width="3" x1="11.8812" y1="132.793" x2="17.8218" y2="135.453" />
<line fill="none" stroke="olive" stroke-width="3" x1="17.8218" y1="135.453" x2="23.7624" y2="138.734" />
<line fill="none" stroke="olive" stroke-width="3" x1="23.7624" y1="138.734" x2="29.703" y2="142.634" />
<line fill="none" stroke="olive" stroke-width="3" x1="29.703" y1="142.634" x2="35.6436" y2="147.15" />
<line fill="none" stroke="olive" stroke-width="3" x1="35.6436" y1="147.15" x2="41.5842" y2="151.895" />
<line fill="none" stroke="olive" stroke-width="3" x1="41.5842" y1="151.895" x2="47.5248" y2="152.971" />
<line fill="none" stroke="olive" stroke-width="3" x1="47.5248" y1="152.971" x2="53.4653" y2="154.649" />
<line fill="none" stroke="olive" stroke-width="3" x1="53.4653" y1="154.649" x2="59.4059" y2="156.928" />
<line fill="none" stroke="olive" stroke-width="3" x1="59.4059" y1="156.928" x2="65.3465" y2="159.807" />
<line fill="none" stroke="olive" stroke-width="3" x1="65.3465" y1="159.807" x2="71.2871" y2="163.285" />
<line fill="none" stroke="olive" stroke-width="3" x1="71.2871" y1="163.285" x2="77.2277" y2="167.359" />
<line fill="none" stroke="olive" stroke-width="3" x1="77.2277" y1="167.359" x2="83.1683" y2="172.028" />
<line fill="none" stroke="olive" stroke-width="3" x1="83.1683" y1="172.028" x2="89.1089" y2="177.289" />
<line fill="none" stroke="olive" stroke-width="3" x1="89.1089" y1="177.289" x2="95.0495" y2="183.14" />
<line fill="none" stroke="olive" stroke-width="3" x1="95.0495" y1="183.14" x2="100.99" y2="189.578" />
<line fill="none" stroke="olive" stroke-width="3" x1="100.99" y1="189.578" x2="106.931" y2="196.599" />
<line fill="none" stroke="olive" stroke-width="3" x1="106.931" y1="196.599" x2="112.871" y2="204.2" />
<line fill="none" stroke="olive" stroke-width="3" x1="112.871" y1="204.2" x2="118.812" y2="212.377" />
<line fill="none" stroke="olive" stroke-width="3" x1="118.812" y1="212.377" x2="124.752" y2="221.126" />
<line fill="none" stroke="olive" stroke-width="3" x1="124.752" y1="221.126" x2="130.693" y2="230.444" />
<line fill="none" stroke="olive" stroke-width="3" x1="130.693" y1="230.444" x2="136.634" y2="240.325" />
<line fill="none" stroke="olive" stroke-width="3" x1="136.634" y1="240.325" x2="142.574" y2="250.765" />
<line fill="none" stroke="olive" stroke-width="3" x1="142.574" y1="250.765" x2="148.515" y2="261.758" />
<line fill="none" stroke="olive" stroke-width="3" x1="148.515" y1="261.758" x2="154.455" y2="273.301" />
<line fill="none" stroke="olive" stroke-width="3" x1="154.455" y1="273.301" x2="160.396" y2="285.388" />
<line fill="none" stroke="olive" stroke-width="3" x1="160.396" y1="285.388" x2="166.337" y2="298.013" />
<line fill="none" stroke="olive" stroke-width="3" x1="166.337" y1="298.013" x2="172.277" y2="311.17" />
<line fill="none" stroke="olive" stroke-width="3" x1="172.277" y1="311.17" x2="178.218" y2="324.854" />
<line fill="none" stroke="olive" stroke-width="3" x1="178.218" y1="324.854" x2="184.158" y2="339.06" />
<line fill="none" stroke="olive" stroke-width="3" x1="184.158" y1="339.06" x2="190.099" y2="353.78" />
<line fill="none" stroke="olive" stroke-width="3" x1="190.099" y1="353.78" x2="196.04" y2="369.009" />
<line fill="none" stroke="olive" stroke-width="3" x1="196.04" y1="369.009" x2="201.98" y2="384.74" />
<line fill="none" stroke="olive" stroke-width="3" x1="201.98" y1="384.74" x2="207.921" y2="400.968" />
<line fill="none" stroke="olive" stroke-width="3" x1="207.921" y1="400.968" x2="213.861" y2="417.686" />
<line fill="none" stroke="olive" stroke-width="3" x1="213.861" y1="417.686" x2="219.802" y2="434.886" />
<line fill="none" stroke="olive" stroke-width="3" x1="219.802" y1="434.886" x2="225.743" y2="452.564" />
<line fill="none" stroke="olive" stroke-width="3" x1="225.743" y1="452.564" x2="231.683" y2="470.711" />
<line fill="none" stroke="olive" stroke-width="3" x1="231.683" y1="470.711" x2="237.624" y2="489.321" />
<line fill="none" stroke="olive" stroke-width="3" x1="237.624" y1="489.321" x2="243.564" y2="508.388" />
<line fill="none" stroke="olive" stroke-width="3" x1="243.564" y1="508.388" x2="249.505" y2="527.905" />
<line fill="none" stroke="olive" stroke-width="3" x1="249.505" y1="527.905" x2="255.446" y2="547.865" />
<line fill="none" stroke="olive" stroke-width="3" x1="255.446" y1="547.865" x2="261.386" y2="568.261" />
<line fill="none" stroke="olive" stroke-width="3" x1="261.386" y1="568.261" x2="267.327" y2="568.289" />
<line fill="none" stroke="olive" stroke-width="3" x1="267.327" y1="568.289" x2="273.267" y2="546.421" />
<line fill="none" stroke="olive" stroke-width="3" x1="273.267" y1="546.421" x2="279.208" y2="524.973" />
<line fill="none" stroke="olive" stroke-width="3" x1="279.208" y1="524.973" x2="285.149" y2="161.537" />
<line fill="none" stroke="olive" stroke-width="3" x1="285.149" y1="161.537" x2="291.089" y2="512.738" />
<line fill="none" stroke="olive" stroke-width="3" x1="291.089" y1="512.738" x2="297.03" y2="494.072" />
<line fill="none" stroke="olive" stroke-width="3" x1="297.03" y1="494.072" x2="302.97" y2="455.657" />
<line fill="none" stroke="olive" stroke-width="3" x1="302.97" y1="455.657" x2="308.911" y2="445.019" />
<line fill="none" stroke="olive" stroke-width="3" x1="308.911" y1="445.019" x2="314.851" y2="434.783" />
<line fill="none" stroke="olive" stroke-width="3" x1="314.851" y1="434.783" x2="320.792" y2="424.951" />
<line fill="none" stroke="olive" stroke-width="3" x1="320.792" y1="424.951" x2="326.733" y2="415.526" />
<line fill="none" stroke="olive" stroke-width="3" x1="326.733" y1="415.526" x2="332.673" y2="406.513" />
<line fill="none" stroke="olive" stroke-width="3" x1="332.673" y1="406.513" x2="338.614" y2="397.913" />
<line fill="none" stroke="olive" stroke-width="3" x1="338.614" y1="397.913" x2="344.554" y2="389.729" />
<line fill="none" stroke="olive" stroke-width="3" x1="344.554" y1="389.729" x2="350.495" y2="381.966" />
<line fill="none" stroke="olive" stroke-width="3" x1="350.495" y1="381.966" x2="356.436" y2="374.624" />
<line fill="none" stroke="olive" stroke-width="3" x1="356.436" y1="374.624" x2="362.376" y2="367.706" />
<line fill="none" stroke="olive" stroke-width="3" x1="362.376" y1="367.706" x2="368.317" y2="361.216" />
<line fill="none" stroke="olive" stroke-width="3" x1="368.317" y1="361.216" x2="374.257" y2="355.155" />
<line fill="none" stroke="olive" stroke-width="3" x1="374.257" y1="355.155" x2="380.198" y2="349.525" />
<line fill="none" stroke="olive" stroke-width="3" x1="380.198" y1="349.525" x2="386.139" y2="344.329" />
<line fill="none" stroke="olive" stroke-width="3" x1="386.139" y1="344.329" x2="392.079" y2="339.567" />
<line fill="none" stroke="olive" stroke-width="3" x1="392.079" y1="339.567" x2="398.02" y2="335.243" />
<line fill="none" stroke="olive" stroke-width="3" x1="398.02" y1="335.243" x2="403.96" y2="331.356" />
<line fill="none" stroke="olive" stroke-width="3" x1="403.96" y1="331.356" x2="409.901" y2="327.91" />
<line fill="none" stroke="olive" stroke-width="3" x1="409.901" y1="327.91" x2="415.842" y2="324.904" />
<line fill="none" stroke="olive" stroke-width="3" x1="415.842" y1="324.904" x2="421.782" y2="315.154" />
<line fill="none" stroke="olive" stroke-width="3" x1="421.782" y1="315.154" x2="427.723" y2="303.6" />
<line fill="none" stroke="olive" stroke-width="3" x1="427.723" y1="303.6" x2="433.663" y2="292.458" />
<line fill="none" stroke="olive" stroke-width="3" x1="433.663" y1="292.458" x2="439.604" y2="281.731" />
<line fill="none" stroke="olive" stroke-width="3" x1="439.604" y1="281.731" x2="445.545" y2="271.423" />
<line fill="none" stroke="olive" stroke-width="3" x1="445.545" y1="271.423" x2="451.485" y2="261.537" />
<line fill="none" stroke="olive" stroke-width="3" x1="451.485" y1="261.537" x2="457.426" y2="252.077" />
<line fill="none" stroke="olive" stroke-width="3" x1="457.426" y1="252.077" x2="463.366" y2="243.047" />
<line fill="none" stroke="olive" stroke-width="3" x1="463.366" y1="243.047" x2="469.307" y2="234.449" />
<line fill="none" stroke="olive" stroke-width="3" x1="469.307" y1="234.449" x2="475.248" y2="226.288" />
<line fill="none" stroke="olive" stroke-width="3" x1="475.248" y1="226.288" x2="481.188" y2="218.565" />
<line fill="none" stroke="olive" stroke-width="3" x1="481.188" y1="218.565" x2="487.129" y2="211.283" />
<line fill="none" stroke="olive" stroke-width="3" x1="487.129" y1="211.283" x2="493.069" y2="204.446" />
<line fill="none" stroke="olive" stroke-width="3" x1="493.069" y1="204.446" x2="499.01" y2="198.056" />
<line fill="none" stroke="olive" stroke-width="3" x1="499.01" y1="198.056" x2="504.95" y2="192.116" />
<line fill="none" stroke="olive" stroke-width="3" x1="504.95" y1="192.116" x2="510.891" y2="186.627" />
<line fill="none" stroke="olive" stroke-width="3" x1="510.891" y1="186.627" x2="516.832" y2="181.592" />
<line fill="none" stroke="olive" stroke-width="3" x1="516.832" y1="181.592" x2="522.772" y2="177.013" />
<line fill="none" stroke="olive" stroke-width="3" x1="522.772" y1="177.013" x2="528.713" y2="172.892" />
<line fill="none" stroke="olive" stroke-width="3" x1="528.713" y1="172.892" x2="534.653" y2="169.229" />
<line fill="none" stroke="olive" stroke-width="3" x1="534.653" y1="169.229" x2="540.594" y2="166.028" />
<line fill="none" stroke="olive" stroke-width="3" x1="540.594" y1="166.028" x2="546.535" y2="163.288" />
<line fill="none" stroke="olive" stroke-width="3" x1="546.535" y1="163.288" x2="552.475" y2="161.011" />
<line fill="none" stroke="olive" stroke-width="3" x1="552.475" y1="161.011" x2="558.416" y2="155.402" />
<line fill="none" stroke="olive" stroke-width="3" x1="558.416" y1="155.402" x2="564.356" y2="150.106" />
<line fill="none" stroke="olive" stroke-width="3" x1="564.356" y1="150.106" x2="570.297" y2="145.283" />
<line fill="none" stroke="olive" stroke-width="3" x1="570.297" y1="145.283" x2="576.238" y2="140.935" />
<line fill="none" stroke="olive" stroke-width="3" x1="576.238" y1="140.935" x2="582.178" y2="137.063" />
<line fill="none" stroke="olive" stroke-width="3" x1="582.178" y1="137.063" x2="588.119" y2="133.669" />
<line fill="none" stroke="olive" stroke-width="3" x1="588.119" y1="133.669" x2="594.059" y2="130.754" />

<!--Draw the X and Y axes -->
<polyline fill="none" stroke="black" stroke-width="6"  points=" 600,0 0,0 0, 600" />
<polyline fill="none" stroke="black" stroke-width="1"  points=" 0 600  600 600  600 0" />
<!-- -->


<!--Draw labels and tics for X axis -->

<line fill="none" stroke="black"  stroke-width="6"  x1="0.5" y1="0" x2="0.5" y2="-20" />
<text transform="scale(1,-1)" font-family="sans-serif" font-size="30" x="-24.5" y="45" >0</text>
<line fill="none" stroke="black"  stroke-width="6"  x1="119.312" y1="0" x2="119.312" y2="-20" />
<text transform="scale(1,-1)" font-family="sans-serif" font-size="30" x="94.3119" y="45" >20</text>
<line fill="none" stroke="black"  stroke-width="6"  x1="238.124" y1="0" x2="238.124" y2="-20" />
<text transform="scale(1,-1)" font-family="sans-serif" font-size="30" x="213.124" y="45" >40</text>
<line fill="none" stroke="black"  stroke-width="6"  x1="356.936" y1="0" x2="356.936" y2="-20" />
<text transform="scale(1,-1)" font-family="sans-serif" font-size="30" x="331.936" y="45" >60</text>
<line fill="none" stroke="black"  stroke-width="6"  x1="475.748" y1="0" x2="475.748" y2="-20" />
<text transform="scale(1,-1)" font-family="sans-serif" font-size="30" x="450.748" y="45" >80</text>
<line fill="none" stroke="black"  stroke-width="6"  x1="594.559" y1="0" x2="594.559" y2="-20" />
<text transform="scale(1,-1)" font-family="sans-serif" font-size="30" x="569.559" y="45" >100</text>


<!--Draw labels and tics for Y axis -->

<line fill="none" stroke="black" stroke-width="6" x1="0.0" y1="0" x2="-20" y2="0" />
<text transform="scale(1,-1)" text-anchor="end" font-family="sans-serif" font-size="30" x="-25" y="10" >30.5</text>
<line fill="none" stroke="black" stroke-width="6" x1="0.0" y1="54.5455" x2="-20" y2="54.5455" />
<text transform="scale(1,-1)" text-anchor="end" font-family="sans-serif" font-size="30" x="-25" y="-44.5455" >31</text>
<line fill="none" stroke="black" stroke-width="6" x1="0.0" y1="109.091" x2="-20" y2="109.091" />
<text transform="scale(1,-1)" text-anchor="end" font-family="sans-serif" font-size="30" x="-25" y="-99.0909" >31.5</text>
<line fill="none" stroke="black" stroke-width="6" x1="0.0" y1="163.636" x2="-20" y2="163.636" />
<text transform="scale(1,-1)" text-anchor="end" font-family="sans-serif" font-size="30" x="-25" y="-153.636" >32</text>
<line fill="none" stroke="black" stroke-width="6" x1="0.0" y1="218.182" x2="-20" y2="218.182" />
<text transform="scale(1,-1)" text-anchor="end" font-family="sans-serif" font-size="30" x="-25" y="-208.182" >32.5</text>
<line fill="none" stroke="black" stroke-width="6" x1="0.0" y1="272.727" x2="-20" y2="272.727" />
<text transform="scale(1,-1)" text-anchor="end" font-family="sans-serif" font-size="30" x="-25" y="-262.727" >33</text>
<line fill="none" stroke="black" stroke-width="6" x1="0.0" y1="327.273" x2="-20" y2="327.273" />
<text transform="scale(1,-1)" text-anchor="end" font-family="sans-serif" font-size="30" x="-25" y="-317.273" >33.5</text>
<line fill="none" stroke="black" stroke-width="6" x1="0.0" y1="381.818" x2="-20" y2="381.818" />
<text transform="scale(1,-1)" text-anchor="end" font-family="sans-serif" font-size="30" x="-25" y="-371.818" >34</text>
<line fill="none" stroke="black" stroke-width="6" x1="0.0" y1="436.364" x2="-20" y2="436.364" />
<text transform="scale(1,-1)" text-anchor="end" font-family="sans-serif" font-size="30" x="-25" y="-426.364" >34.5</text>
<line fill="none" stroke="black" stroke-width="6" x1="0.0" y1="490.909" x2="-20" y2="490.909" />
<text transform="scale(1,-1)" text-anchor="end" font-family="sans-serif" font-size="30" x="-25" y="-480.909" >35</text>
<line fill="none" stroke="black" stroke-width="6" x1="0.0" y1="545.455" x2="-20" y2="545.455" />
<text transform="scale(1,-1)" text-anchor="end" font-family="sans-serif" font-size="30" x="-25" y="-535.455" >35.5</text>
<line fill="none" stroke="black" stroke-width="6" x1="0.0" y1="600" x2="-20" y2="600" />
<text transform="scale(1,-1)" text-anchor="end" font-family="sans-serif" font-size="30" x="-25" y="-590" >36</text>

-->
</g>
</g>
<!-- Run Constants
PRINTDISTANCEDATA bool true
GLITCHESONLY bool false
PLOT 2doubles 3 4
PERTURBBY double 0.05
GLITCHLEVEL double 3
BOUNDARYWINDOW double 0.065
FRAMESPERPATH int 200
STEPSPERFRAME int 100
TRIALS int 3
ALLBLACK bool true
FILEPREFIX string Fol
GRAPHSIZE int 0
BORDER int 0
PLOTSIZE int 0
G6LINEWIDTH int 3
DELONELINEWIDTH int 10
AXISWIDTH int 6
TICLENGTH int 20
VECTOR g6 
FOLLOWERMODE FollowerMode line
FIXRANDOMSEED fixRandomSeed false
RANDOMSEED int 19191
TIMESTAMP bool true
END end 




-->
</svg>
