<?xml version="1.0" standalone="no"?>
<!-- the width and height set the total pixel output of the image in the browser -->
<!-- whatever is within the viewbox will be remapped to show in this size -->
<svg width="1000" height="1000" viewBox="1 0 1000 1000"  version="1.1" xmlns="http://www.w3.org/2000/svg" xmlns:xlink="http://www.w3.org/1999/xlink">
 <desc>ID (and file name) = Fol_2018-05-14.12_53_45.14_13.svg </desc> 
 <text x="560" y="30" font-family="sans-serif" font-size="20">Wall time passed: 14259 msec.</text>
<text x="300" y="60"   font-family="sans-serif" font-size="20" fill="lightblue">S6  lightblue</text>
<text x="300" y="85"   font-family="sans-serif" font-size="20" fill="slategrey">NCDist  slategrey</text>
<text x="300" y="110"  font-family="sans-serif" font-size="20" fill="violet">D7  violet</text>
<text x="300" y="135"  font-family="sans-serif" font-size="20" fill="olive">CS6Dist  olive</text>

 <text x="140"  y="30"  font-family="sans-serif" font-size="20" >Fol_2018-05-14.12_53_45.14_13.svg  </text> 


 <!--DISTANCE PLOT BEGINS-->


<!-- the following will scale and place the distance plot -->
<g  transform="translate(0,50) ">
<g transform="translate(150,700) scale(1 -1)">
   <polyline fill="none" stroke=" lightblue " stroke-width=" 12 " points=" 0.6,178.263 1.2,176.783 1.8,175.315 2.4,173.86 3,172.416 3.6,170.986 4.2,169.567 4.8,168.161 5.4,166.768 6,165.386 6.6,164.018 7.2,162.662 7.8,161.318 8.4,159.988 9,158.67 9.6,157.364 10.2,156.072 10.8,154.792 11.4,153.525 12,152.271 12.6,151.03 13.2,149.802 13.8,148.587 14.4,147.385 15,146.196 15.6,145.02 16.2,143.857 16.8,142.708 17.4,141.572 18,140.449 18.6,139.339 19.2,138.243 19.8,137.16 20.4,136.09 21,135.034 21.6,133.992 22.2,132.963 22.8,131.947 23.4,130.945 24,129.957 24.6,128.982 25.2,128.021 25.8,127.074 26.4,126.14 27,125.221 27.6,124.315 28.2,123.423 28.8,122.545 29.4,121.68 30,120.83 30.6,119.994 31.2,119.171 31.8,118.363 32.4,117.568 33,116.788 33.6,116.022 34.2,115.27 34.8,114.532 35.4,113.809 36,113.099 36.6,112.404 37.2,111.723 37.8,111.056 38.4,110.404 39,109.766 39.6,109.142 40.2,108.533 40.8,107.938 41.4,107.357 42,106.791 42.6,106.24 43.2,105.703 43.8,105.18 44.4,104.672 45,104.178 45.6,103.7 46.2,103.235 46.8,102.785 47.4,102.35 48,101.929 48.6,101.523 49.2,101.132 49.8,100.756 50.4,100.394 51,100.046 51.6,99.2816 52.2,97.7386 52.8,96.2084 53.4,94.6911 54,93.1868 54.6,91.6955 55.2,90.2173 55.8,88.7521 56.4,87.3001 57,85.8612 57.6,84.4356 58.2,83.0233 58.8,81.6243 59.4,80.2387 60,78.8666 60.6,77.5079 61.2,76.1628 61.8,74.8312 62.4,73.5132 63,72.2089 63.6,70.9184 64.2,69.6415 64.8,68.3785 65.4,67.1294 66,65.8941 66.6,64.6727 67.2,63.4654 67.8,62.2721 68.4,61.0928 69,59.9276 69.6,58.7767 70.2,57.6399 70.8,56.5173 71.4,55.409 72,54.3151 72.6,53.2355 73.2,52.1703 73.8,51.1196 74.4,50.0834 75,49.0616 75.6,48.0545 76.2,47.0619 76.8,46.084 77.4,45.1208 78,44.1723 78.6,43.2385 79.2,42.3195 79.8,41.4154 80.4,40.5261 81,39.6517 81.6,38.7923 82.2,37.9478 82.8,37.1183 83.4,36.3038 84,35.5044 84.6,34.7201 85.2,33.951 85.8,33.197 86.4,32.4581 87,31.7345 87.6,31.0262 88.2,30.3331 88.8,29.6553 89.4,28.9929 90,28.3458 90.6,27.7141 91.2,27.0979 91.8,26.497 92.4,25.9117 93,25.3418 93.6,24.7874 94.2,24.2486 94.8,23.7254 95.4,23.2177 96,22.7256 96.6,22.2491 97.2,21.7883 97.8,21.3431 98.4,20.9136 99,20.4999 99.6,20.1018 100.2,19.7195 100.8,19.3529 101.4,19.0021 102,18.667 102.6,18.3478 103.2,18.0444 103.8,17.7568 104.4,17.485 105,17.229 105.6,16.989 106.2,16.7647 106.8,16.5564 107.4,16.364 108,16.1874 108.6,16.0267 109.2,15.882 109.8,15.7532 110.4,15.6402 111,15.5433 111.6,15.4622 112.2,15.3971 112.8,15.3479 113.4,15.3146 114,15.2973 114.6,15.2959 115.2,15.3105 115.8,15.341 116.4,15.3874 117,15.4498 117.6,15.5281 118.2,15.6223 118.8,15.7324 119.4,15.8585 120,16.0005 120.6,16.1584 121.2,16.3322 121.8,16.5219 122.4,16.7275 123,16.9489 123.6,17.1863 124.2,17.4395 124.8,17.7085 125.4,17.9934 126,18.2941 126.6,18.6106 127.2,18.9429 127.8,19.2909 128.4,19.6548 129,20.0344 129.6,20.4297 130.2,20.8408 130.8,21.2675 131.4,21.71 132,22.1681 132.6,22.6418 133.2,23.1312 133.8,23.6362 134.4,24.1568 135,24.6929 135.6,25.2446 136.2,25.8118 136.8,26.3944 137.4,26.9926 138,27.6062 138.6,28.2352 139.2,28.8796 139.8,29.5394 140.4,30.2145 141,30.9049 141.6,31.6106 142.2,32.3316 142.8,33.0678 143.4,33.8191 144,34.5857 144.6,35.3674 145.2,36.1641 145.8,36.976 146.4,37.8029 147,38.6448 147.6,39.5016 148.2,40.3734 148.8,41.2601 149.4,42.1617 150,43.0781 150.6,44.0093 151.2,44.9553 151.8,45.916 152.4,46.8913 153,47.8813 153.6,48.886 154.2,49.9052 154.8,50.9389 155.4,51.9871 156,53.0498 156.6,54.1269 157.2,55.2183 157.8,56.3241 158.4,57.4442 159,58.5785 159.6,59.7271 160.2,60.8898 160.8,62.0666 161.4,63.2575 162,64.4624 162.6,65.6813 163.2,66.9142 163.8,68.1609 164.4,69.4216 165,70.696 165.6,71.9842 166.2,73.2861 166.8,74.6017 167.4,75.9309 168,77.2737 168.6,78.63 169.2,79.9999 169.8,81.3831 170.4,82.7798 171,84.1898 171.6,85.6131 172.2,87.0496 172.8,88.4994 173.4,89.9623 174,91.4383 174.6,92.9273 175.2,94.4294 175.8,95.9444 176.4,97.4723 177,99.0131 177.6,100.567 178.2,102.133 178.8,103.712 179.4,105.304 180,106.908 180.6,108.525 181.2,110.154 181.8,111.796 182.4,113.45 183,115.117 183.6,116.796 184.2,118.487 184.8,120.19 185.4,121.906 186,123.633 186.6,125.373 187.2,127.124 187.8,128.888 188.4,130.663 189,132.451 189.6,134.25 190.2,136.06 190.8,137.883 191.4,139.717 192,141.563 192.6,143.42 193.2,145.288 193.8,147.169 194.4,149.06 195,150.963 195.6,152.877 196.2,154.802 196.8,156.738 197.4,158.686 198,160.645 198.6,162.614 199.2,164.595 199.8,166.586 200.4,168.588 201,170.601 201.6,172.625 202.2,174.66 202.8,176.705 203.4,178.761 204,180.827 204.6,182.904 205.2,184.991 205.8,187.089 206.4,189.197 207,191.315 207.6,193.443 208.2,195.582 208.8,197.731 209.4,199.89 210,202.059 210.6,204.238 211.2,206.426 211.8,208.625 212.4,210.834 213,213.052 213.6,215.28 214.2,217.518 214.8,219.765 215.4,222.022 216,224.289 216.6,226.565 217.2,228.85 217.8,231.145 218.4,233.449 219,235.762 219.6,238.085 220.2,240.417 220.8,242.758 221.4,245.108 222,247.467 222.6,249.835 223.2,252.212 223.8,254.598 224.4,256.993 225,259.397 225.6,261.809 226.2,264.23 226.8,266.66 227.4,269.099 228,271.546 228.6,274.001 229.2,276.465 229.8,278.938 230.4,281.419 231,283.908 231.6,286.405 232.2,288.911 232.8,291.425 233.4,293.947 234,296.477 234.6,299.016 235.2,301.562 235.8,304.117 236.4,306.679 237,309.249 237.6,311.827 238.2,314.413 238.8,317.007 239.4,319.608 240,322.217 240.6,324.834 241.2,327.458 241.8,330.09 242.4,332.73 243,335.377 243.6,338.031 244.2,340.693 244.8,343.362 245.4,346.038 246,348.722 246.6,351.413 247.2,354.111 247.8,356.816 248.4,359.529 249,362.248 249.6,364.975 250.2,367.708 250.8,370.448 251.4,373.196 252,375.95 252.6,378.711 253.2,381.479 253.8,384.254 254.4,387.035 255,389.823 255.6,392.617 256.2,395.419 256.8,398.227 257.4,401.041 258,403.862 258.6,406.689 259.2,409.523 259.8,412.363 260.4,415.209 261,418.062 261.6,420.921 262.2,423.787 262.8,426.658 263.4,429.536 264,432.42 264.6,435.31 265.2,438.206 265.8,441.108 266.4,444.016 267,446.93 267.6,449.85 268.2,452.776 268.8,455.707 269.4,458.645 270,461.588 270.6,464.537 271.2,467.492 271.8,470.453 272.4,473.074 273,474.258 273.6,475.453 274.2,476.657 274.8,477.872 275.4,479.097 276,480.333 276.6,481.579 277.2,482.835 277.8,484.101 278.4,485.377 279,486.664 279.6,487.96 280.2,489.267 280.8,490.584 281.4,491.911 282,493.248 282.6,494.594 283.2,495.951 283.8,497.318 284.4,498.695 285,500.081 285.6,501.478 286.2,502.884 286.8,504.3 287.4,505.726 288,507.161 288.6,508.607 289.2,510.062 289.8,511.527 290.4,513.001 291,514.485 291.6,515.406 292.2,515.83 292.8,516.265 293.4,516.711 294,517.168 294.6,517.636 295.2,518.114 295.8,518.604 296.4,519.104 297,519.615 297.6,520.136 298.2,520.669 298.8,521.212 299.4,521.766 300,522.331 300.6,522.845 301.2,523.308 301.8,523.782 302.4,524.268 303,524.764 303.6,525.272 304.2,525.79 304.8,526.319 305.4,526.859 306,527.411 306.6,527.973 307.2,528.546 307.8,529.13 308.4,529.725 309,530.331 309.6,530.947 310.2,531.575 310.8,532.213 311.4,532.863 312,533.523 312.6,534.193 313.2,534.875 313.8,535.568 314.4,536.271 315,536.985 315.6,537.71 316.2,538.445 316.8,539.192 317.4,539.948 318,540.716 318.6,541.494 319.2,542.283 319.8,543.083 320.4,543.893 321,544.714 321.6,545.546 322.2,546.388 322.8,547.24 323.4,548.103 324,548.977 324.6,549.861 325.2,550.756 325.8,551.661 326.4,552.577 327,553.503 327.6,554.439 328.2,555.386 328.8,556.343 329.4,557.311 330,558.289 330.6,559.277 331.2,560.276 331.8,561.285 332.4,562.304 333,563.334 333.6,564.374 334.2,565.424 334.8,566.484 335.4,567.554 336,568.635 336.6,569.726 337.2,570.826 337.8,571.937 338.4,573.058 339,574.189 339.6,575.331 340.2,576.482 340.8,577.643 341.4,578.814 342,579.995 342.6,581.186 343.2,582.387 343.8,583.598 344.4,584.819 345,586.049 345.6,587.289 346.2,588.54 346.8,589.8 347.4,590.677 348,590.1 348.6,589.527 349.2,588.957 349.8,588.392 350.4,587.749 351,586.12 351.6,584.501 352.2,582.891 352.8,581.291 353.4,579.7 354,578.119 354.6,576.548 355.2,574.986 355.8,573.434 356.4,571.891 357,570.358 357.6,568.835 358.2,567.322 358.8,565.819 359.4,564.325 360,562.841 360.6,561.367 361.2,559.903 361.8,558.449 362.4,557.005 363,555.57 363.6,554.146 364.2,552.722 364.8,549.667 365.4,546.618 366,543.574 366.6,540.537 367.2,537.504 367.8,534.478 368.4,531.457 369,528.443 369.6,525.434 370.2,522.43 370.8,519.433 371.4,516.442 372,513.456 372.6,510.477 373.2,507.504 373.8,504.536 374.4,501.575 375,498.62 375.6,495.671 376.2,492.729 376.8,489.792 377.4,486.862 378,483.938 378.6,481.021 379.2,478.109 379.8,475.205 380.4,472.306 381,469.414 381.6,466.529 382.2,463.65 382.8,460.778 383.4,457.913 384,455.054 384.6,452.202 385.2,449.356 385.8,446.517 386.4,443.686 387,440.861 387.6,438.042 388.2,435.231 388.8,432.427 389.4,429.63 390,426.84 390.6,424.056 391.2,421.281 391.8,418.512 392.4,415.75 393,412.996 393.6,410.249 394.2,407.509 394.8,404.776 395.4,402.051 396,399.334 396.6,396.624 397.2,393.921 397.8,391.226 398.4,388.539 399,385.859 399.6,383.187 400.2,380.522 400.8,377.866 401.4,375.217 402,372.576 402.6,369.943 403.2,367.318 403.8,364.701 404.4,362.092 405,359.491 405.6,356.898 406.2,354.313 406.8,351.737 407.4,349.168 408,346.608 408.6,344.057 409.2,341.514 409.8,338.979 410.4,336.452 411,333.934 411.6,331.425 412.2,328.924 412.8,326.432 413.4,323.949 414,321.474 414.6,319.009 415.2,316.552 415.8,314.103 416.4,311.664 417,309.234 417.6,306.813 418.2,304.401 418.8,301.998 419.4,299.604 420,297.219 420.6,294.844 421.2,292.478 421.8,290.121 422.4,287.774 423,285.436 423.6,283.107 424.2,280.789 424.8,278.479 425.4,276.18 426,273.89 426.6,271.61 427.2,269.339 427.8,267.079 428.4,264.828 429,262.587 429.6,260.356 430.2,258.136 430.8,255.925 431.4,253.725 432,251.534 432.6,249.354 433.2,247.184 433.8,245.025 434.4,242.876 435,240.737 435.6,238.609 436.2,236.491 436.8,234.384 437.4,232.288 438,230.202 438.6,228.127 439.2,226.063 439.8,224.01 440.4,221.967 441,219.936 441.6,217.915 442.2,215.905 442.8,213.907 443.4,211.92 444,209.944 444.6,207.979 445.2,206.025 445.8,204.083 446.4,202.152 447,200.233 447.6,198.325 448.2,196.429 448.8,194.544 449.4,192.671 450,190.81 450.6,188.961 451.2,187.123 451.8,185.297 452.4,183.483 453,181.681 453.6,179.891 454.2,178.113 454.8,176.347 455.4,174.594 456,172.852 456.6,171.123 457.2,169.406 457.8,167.702 458.4,166.01 459,164.33 459.6,162.663 460.2,161.009 460.8,159.367 461.4,157.737 462,156.121 462.6,154.517 463.2,152.926 463.8,151.348 464.4,149.783 465,148.231 465.6,146.692 466.2,145.166 466.8,143.653 467.4,142.153 468,140.666 468.6,139.193 469.2,137.733 469.8,136.286 470.4,134.853 471,133.433 471.6,132.026 472.2,130.633 472.8,129.254 473.4,127.889 474,126.537 474.6,125.198 475.2,123.874 475.8,122.563 476.4,121.266 477,119.983 477.6,118.714 478.2,117.459 478.8,116.218 479.4,114.992 480,113.779 480.6,112.58 481.2,111.396 481.8,110.226 482.4,109.07 483,107.928 483.6,106.801 484.2,105.688 484.8,104.59 485.4,103.506 486,102.437 486.6,101.382 487.2,100.342 487.8,99.3165 488.4,98.3057 489,97.3096 489.6,96.3283 490.2,95.3618 490.8,94.4101 491.4,93.4733 492,92.5513 492.6,91.6443 493.2,90.7523 493.8,89.8753 494.4,89.0133 495,88.1664 495.6,87.3346 496.2,86.518 496.8,85.7165 497.4,84.9302 498,84.1591 498.6,83.4033 499.2,82.6628 499.8,81.9376 500.4,81.2277 501,80.5332 501.6,79.8542 502.2,79.1905 502.8,78.5423 503.4,77.9096 504,77.2924 504.6,76.6907 505.2,76.1045 505.8,75.534 506.4,74.979 507,74.4397 507.6,73.916 508.2,73.408 508.8,72.9156 509.4,72.439 510,71.9781 510.6,71.5329 511.2,71.1035 511.8,70.6899 512.4,70.292 513,69.91 513.6,69.5438 514.2,69.1935 514.8,68.859 515.4,68.5403 516,68.2376 516.6,67.9508 517.2,67.6798 517.8,67.4248 518.4,67.1857 519,66.9626 519.6,66.7554 520.2,66.5641 520.8,66.3889 521.4,66.2296 522,66.0862 522.6,65.9589 523.2,65.8475 523.8,65.7522 524.4,65.6728 525,65.6095 525.6,65.5621 526.2,65.5308 526.8,65.5155 527.4,65.5161 528,65.5328 528.6,65.5655 529.2,65.6142 529.8,65.6789 530.4,65.7596 531,65.8563 531.6,65.969 532.2,66.0977 532.8,66.2424 533.4,66.403 534,66.5796 534.6,66.7722 535.2,66.9808 535.8,67.2053 536.4,67.4457 537,67.7021 537.6,67.9743 538.2,68.2625 538.8,68.5666 539.4,68.8866 540,69.2224 540.6,69.5741 541.2,69.9416 541.8,70.325 542.4,70.7241 543,71.1391 543.6,71.5698 544.2,72.0163 544.8,72.4786 545.4,72.9565 546,73.4502 546.6,73.9596 547.2,74.4846 547.8,75.0252 548.4,75.5815 549,76.1534 549.6,76.7408 550.2,77.3438 550.8,77.9623 551.4,78.5964 552,79.2459 552.6,79.9108 553.2,80.5912 553.8,81.287 554.4,81.9982 555,82.7247 555.6,83.4665 556.2,84.2236 556.8,84.9959 557.4,85.7835 558,86.5863 558.6,87.4042 559.2,88.2373 559.8,89.0855 560.4,89.9487 561,90.827 561.6,91.7203 562.2,92.6285 562.8,93.5517 563.4,94.4898 564,95.4427 564.6,96.4105 565.2,97.393 565.8,98.3904 566.4,99.4024 567,100.429 567.6,101.47 568.2,102.526 568.8,103.597 569.4,104.682 570,105.782 570.6,106.896 571.2,108.024 571.8,109.167 572.4,110.324 573,111.495 573.6,112.681 574.2,113.881 574.8,115.094 575.4,116.323 576,117.565 576.6,118.821 577.2,120.091 577.8,121.375 578.4,122.673 579,123.985 579.6,125.311 580.2,126.65 580.8,128.003 581.4,129.37 582,130.75 582.6,132.144 583.2,133.552 583.8,134.973 584.4,136.407 585,137.855 585.6,139.317 586.2,140.791 586.8,142.279 587.4,143.78 588,145.294 588.6,146.821 589.2,148.361 589.8,149.915 590.4,151.481 591,153.06 591.6,154.652 592.2,156.257 592.8,157.874 593.4,159.505 594,161.148 594.6,162.803 595.2,164.471 595.8,166.152 596.4,167.845 597,169.551 597.6,171.268 598.2,172.999 598.8,174.741 599.4,176.496 600,178.263 " />
   <polyline fill="none" stroke=" slategrey " stroke-width=" 9 " points=" " />
   <polyline fill="none" stroke=" violet " stroke-width=" 6 " points=" " />
   <polyline fill="none" stroke=" olive " stroke-width=" 3 " points=" 0.6,178.263 1.2,176.783 1.8,175.315 2.4,173.86 3,172.416 3.6,170.986 4.2,169.567 4.8,168.161 5.4,166.768 6,165.386 6.6,164.018 7.2,162.662 7.8,161.318 8.4,159.988 9,158.67 9.6,157.364 10.2,156.072 10.8,154.792 11.4,153.525 12,152.271 12.6,151.03 13.2,149.802 13.8,148.587 14.4,147.385 15,146.196 15.6,145.02 16.2,143.857 16.8,142.708 17.4,141.572 18,140.449 18.6,139.339 19.2,138.243 19.8,137.16 20.4,136.09 21,135.034 21.6,133.992 22.2,132.963 22.8,131.947 23.4,130.945 24,129.957 24.6,128.982 25.2,128.021 25.8,127.074 26.4,126.14 27,125.221 27.6,124.315 28.2,123.423 28.8,122.545 29.4,121.68 30,120.83 30.6,119.994 31.2,119.171 31.8,118.363 32.4,117.568 33,116.788 33.6,116.022 34.2,115.27 34.8,114.532 35.4,113.809 36,113.099 36.6,112.404 37.2,111.723 37.8,111.056 38.4,110.404 39,109.766 39.6,109.142 40.2,108.533 40.8,107.938 41.4,107.357 42,106.791 42.6,106.24 43.2,105.703 43.8,105.18 44.4,104.672 45,104.178 45.6,103.7 46.2,103.235 46.8,102.785 47.4,102.35 48,101.929 48.6,101.523 49.2,101.132 49.8,100.756 50.4,100.394 51,100.046 51.6,99.7138 52.2,99.3959 52.8,99.0928 53.4,98.8045 54,98.5309 54.6,98.272 55.2,98.028 55.8,97.7987 56.4,97.5842 57,97.3845 57.6,97.1996 58.2,97.0295 58.8,96.8743 59.4,96.7339 60,96.6083 60.6,96.4975 61.2,96.4016 61.8,96.3205 62.4,96.2543 63,96.2029 63.6,96.1664 64.2,96.1447 64.8,96.1379 65.4,96.1459 66,96.1688 66.6,96.2066 67.2,96.2592 67.8,96.3266 68.4,96.4089 69,96.506 69.6,96.618 70.2,96.7448 70.8,96.8864 71.4,97.0429 72,97.2142 72.6,97.4003 73.2,97.6012 73.8,97.8169 74.4,98.0474 75,98.2927 75.6,98.5527 76.2,98.8275 76.8,99.1171 77.4,99.4214 78,99.7404 78.6,100.074 79.2,100.423 79.8,100.786 80.4,101.164 81,101.556 81.6,101.963 82.2,102.385 82.8,102.822 83.4,103.273 84,103.738 84.6,104.218 85.2,104.713 85.8,105.222 86.4,105.746 87,106.284 87.6,106.837 88.2,107.404 88.8,107.986 89.4,108.582 90,109.193 90.6,109.818 91.2,110.457 91.8,111.11 92.4,111.778 93,112.46 93.6,113.157 94.2,113.867 94.8,114.592 95.4,115.331 96,116.084 96.6,116.852 97.2,117.633 97.8,118.428 98.4,119.238 99,120.062 99.6,120.899 100.2,121.123 100.8,120.78 101.4,120.451 102,120.136 102.6,119.836 103.2,119.55 103.8,119.279 104.4,119.022 105,118.78 105.6,118.553 106.2,118.339 106.8,118.141 107.4,117.957 108,117.788 108.6,117.633 109.2,117.492 109.8,117.367 110.4,117.256 111,117.159 111.6,117.077 112.2,117.01 112.8,116.957 113.4,116.919 114,116.895 114.6,116.886 115.2,116.892 115.8,116.912 116.4,116.947 117,116.997 117.6,117.061 118.2,117.139 118.8,117.233 119.4,117.34 120,117.463 120.6,117.6 121.2,117.751 121.8,117.917 122.4,118.098 123,118.293 123.6,118.503 124.2,118.727 124.8,118.966 125.4,119.219 126,119.487 126.6,119.77 127.2,120.067 127.8,120.378 128.4,120.704 129,121.044 129.6,121.399 130.2,121.768 130.8,122.152 131.4,122.55 132,122.962 132.6,123.389 133.2,123.83 133.8,124.285 134.4,124.755 135,125.239 135.6,125.738 136.2,126.25 136.8,126.777 137.4,127.319 138,127.874 138.6,128.444 139.2,129.028 139.8,129.626 140.4,130.238 141,130.864 141.6,131.505 142.2,132.159 142.8,132.828 143.4,133.51 144,134.207 144.6,134.917 145.2,135.642 145.8,136.38 146.4,137.133 147,137.899 147.6,138.679 148.2,139.473 148.8,140.281 149.4,141.103 150,141.938 150.6,142.787 151.2,143.65 151.8,144.526 152.4,145.416 153,146.32 153.6,147.237 154.2,148.168 154.8,149.112 155.4,150.07 156,151.041 156.6,152.026 157.2,153.024 157.8,154.036 158.4,155.06 159,156.099 159.6,157.15 160.2,158.214 160.8,159.292 161.4,160.383 162,161.487 162.6,162.604 163.2,163.735 163.8,164.878 164.4,166.034 165,167.203 165.6,168.385 166.2,169.58 166.8,170.788 167.4,172.009 168,173.242 168.6,174.488 169.2,175.747 169.8,177.019 170.4,178.303 171,179.599 171.6,180.909 172.2,182.23 172.8,183.565 173.4,184.911 174,186.27 174.6,187.642 175.2,189.025 175.8,190.421 176.4,191.829 177,190.966 177.6,189.283 178.2,187.611 178.8,185.951 179.4,184.303 180,182.666 180.6,181.042 181.2,179.429 181.8,177.828 182.4,176.238 183,174.661 183.6,173.096 184.2,171.542 184.8,170.001 185.4,168.472 186,166.955 186.6,165.45 187.2,163.958 187.8,162.477 188.4,161.01 189,159.554 189.6,158.111 190.2,156.68 190.8,155.262 191.4,153.857 192,152.464 192.6,151.083 193.2,149.716 193.8,148.361 194.4,147.019 195,145.689 195.6,144.373 196.2,143.069 196.8,141.778 197.4,140.5 198,139.236 198.6,137.984 199.2,136.745 199.8,135.52 200.4,134.307 201,133.108 201.6,131.922 202.2,130.75 202.8,129.59 203.4,128.445 204,127.312 204.6,126.193 205.2,125.087 205.8,123.995 206.4,122.917 207,121.852 207.6,120.8 208.2,119.762 208.8,118.738 209.4,117.728 210,116.731 210.6,115.749 211.2,114.78 211.8,113.825 212.4,112.883 213,111.956 213.6,111.043 214.2,110.143 214.8,109.258 215.4,108.387 216,107.53 216.6,106.686 217.2,105.857 217.8,105.043 218.4,104.242 219,103.456 219.6,102.684 220.2,101.926 220.8,101.182 221.4,100.453 222,99.7383 222.6,99.0378 223.2,98.3518 223.8,97.6802 224.4,97.0231 225,96.3805 225.6,95.7523 226.2,95.1388 226.8,94.5397 227.4,93.9553 228,93.3854 228.6,92.8302 229.2,92.2896 229.8,91.7637 230.4,91.2524 231,90.7559 231.6,90.274 232.2,89.807 232.8,89.3546 233.4,88.917 234,88.4943 234.6,88.0863 235.2,87.6931 235.8,87.3148 236.4,86.9513 237,86.6027 237.6,86.269 238.2,85.9501 238.8,85.6462 239.4,85.3572 240,85.0831 240.6,84.8239 241.2,84.5796 241.8,84.3503 242.4,84.136 243,83.9367 243.6,83.7523 244.2,83.5829 244.8,83.4285 245.4,83.2891 246,83.1647 246.6,83.0553 247.2,82.9609 247.8,82.8815 248.4,82.8171 249,82.7678 249.6,82.7335 250.2,82.7142 250.8,82.7099 251.4,82.7207 252,82.7464 252.6,82.7872 253.2,82.843 253.8,82.9139 254.4,82.9997 255,83.1006 255.6,83.2165 256.2,83.3473 256.8,83.4932 257.4,83.6541 258,83.8299 258.6,84.0208 259.2,84.2266 259.8,84.4474 260.4,84.6831 261,84.9338 261.6,85.1994 262.2,85.48 262.8,85.7754 263.4,86.0858 264,86.4111 264.6,86.7512 265.2,87.1062 265.8,87.4761 266.4,87.8608 267,88.2604 267.6,88.6748 268.2,89.1039 268.8,89.5478 269.4,90.0065 270,90.48 270.6,90.9682 271.2,91.4711 271.8,91.9886 272.4,92.5209 273,93.0678 273.6,93.6293 274.2,94.2055 274.8,94.7962 275.4,95.4015 276,96.0214 276.6,96.6558 277.2,97.3047 277.8,97.968 278.4,98.6458 279,99.3381 279.6,100.045 280.2,100.766 280.8,101.501 281.4,102.251 282,103.015 282.6,103.793 283.2,104.586 283.8,105.392 284.4,106.213 285,107.048 285.6,107.897 286.2,108.761 286.8,109.638 287.4,110.529 288,111.435 288.6,112.354 289.2,113.288 289.8,114.235 290.4,115.196 291,116.171 291.6,117.159 292.2,118.162 292.8,119.178 293.4,120.208 294,121.252 294.6,122.309 295.2,123.38 295.8,124.464 296.4,125.562 297,126.674 297.6,127.799 298.2,128.937 298.8,130.089 299.4,131.254 300,132.432 300.6,97.6946 301.2,96.1877 301.8,94.694 302.4,93.2137 303,91.7467 303.6,90.2932 304.2,88.8531 304.8,87.4266 305.4,86.0136 306,84.6143 306.6,83.2287 307.2,81.8567 307.8,80.4986 308.4,79.1543 309,77.8238 309.6,76.5073 310.2,75.2047 310.8,73.9161 311.4,72.6416 312,71.3812 312.6,70.1349 313.2,68.9028 313.8,67.685 314.4,66.4814 315,65.2922 315.6,64.1173 316.2,62.9569 316.8,61.8109 317.4,60.6795 318,59.5625 318.6,58.4602 319.2,57.3725 319.8,56.2994 320.4,55.2411 321,54.1975 321.6,53.1688 322.2,52.1548 322.8,51.1558 323.4,50.1716 324,49.2024 324.6,48.2482 325.2,47.309 325.8,46.3849 326.4,45.4758 327,44.582 327.6,43.7033 328.2,42.8398 328.8,41.9915 329.4,41.1585 330,40.3408 330.6,39.5385 331.2,38.7516 331.8,37.98 332.4,37.2239 333,36.4833 333.6,35.7582 334.2,35.0486 334.8,34.3546 335.4,33.6761 336,33.0133 336.6,32.3662 337.2,31.7347 337.8,31.1189 338.4,30.5188 339,29.9345 339.6,29.3659 340.2,28.8132 340.8,28.2763 341.4,27.7552 342,27.25 342.6,26.7607 343.2,26.2873 343.8,25.8298 344.4,25.3883 345,24.9627 345.6,24.5531 346.2,24.1596 346.8,23.7821 347.4,538.423 348,538.691 348.6,538.909 349.2,538.66 349.8,538.412 350.4,538.201 351,538.449 351.6,538.698 352.2,538.947 352.8,539.196 353.4,539.446 354,539.697 354.6,539.879 355.2,539.898 355.8,539.916 356.4,539.935 357,539.954 357.6,539.973 358.2,539.992 358.8,540.011 359.4,540.03 360,540.049 360.6,540.068 361.2,540.086 361.8,540.105 362.4,540.124 363,540.143 363.6,540.162 364.2,540.181 364.8,540.2 365.4,540.219 366,540.238 366.6,540.257 367.2,537.504 367.8,534.478 368.4,531.457 369,528.443 369.6,525.434 370.2,522.43 370.8,519.433 371.4,516.442 372,513.456 372.6,510.477 373.2,507.504 373.8,504.536 374.4,501.575 375,498.62 375.6,495.671 376.2,492.729 376.8,489.792 377.4,486.862 378,483.938 378.6,481.021 379.2,478.109 379.8,475.205 380.4,472.306 381,469.414 381.6,466.529 382.2,463.65 382.8,460.778 383.4,457.913 384,455.054 384.6,452.202 385.2,449.356 385.8,446.517 386.4,443.686 387,440.861 387.6,438.042 388.2,435.231 388.8,432.427 389.4,429.63 390,426.84 390.6,424.056 391.2,421.281 391.8,418.512 392.4,415.75 393,412.996 393.6,410.249 394.2,407.509 394.8,404.776 395.4,402.051 396,399.334 396.6,396.624 397.2,393.921 397.8,391.226 398.4,388.539 399,385.859 399.6,383.187 400.2,380.522 400.8,377.866 401.4,375.217 402,372.576 402.6,369.943 403.2,367.318 403.8,364.701 404.4,362.092 405,359.491 405.6,356.898 406.2,354.313 406.8,351.737 407.4,349.168 408,346.608 408.6,344.057 409.2,341.514 409.8,338.979 410.4,336.452 411,333.934 411.6,331.425 412.2,328.924 412.8,326.432 413.4,323.949 414,321.474 414.6,319.009 415.2,316.552 415.8,314.103 416.4,311.664 417,309.234 417.6,306.813 418.2,304.401 418.8,301.998 419.4,299.604 420,297.219 420.6,294.844 421.2,292.478 421.8,290.121 422.4,287.774 423,285.436 423.6,283.107 424.2,280.789 424.8,278.479 425.4,276.18 426,273.89 426.6,271.61 427.2,269.339 427.8,267.079 428.4,264.828 429,262.587 429.6,260.356 430.2,258.136 430.8,255.925 431.4,253.725 432,251.534 432.6,249.354 433.2,247.184 433.8,245.025 434.4,242.876 435,240.737 435.6,238.609 436.2,236.491 436.8,234.384 437.4,232.288 438,230.202 438.6,228.127 439.2,226.063 439.8,224.01 440.4,221.967 441,219.936 441.6,217.915 442.2,215.905 442.8,213.907 443.4,211.92 444,209.944 444.6,207.979 445.2,206.025 445.8,204.083 446.4,202.152 447,200.233 447.6,198.325 448.2,196.429 448.8,194.544 449.4,192.671 450,190.81 450.6,188.961 451.2,187.123 451.8,185.297 452.4,183.483 453,181.681 453.6,179.891 454.2,178.113 454.8,176.347 455.4,174.594 456,172.852 456.6,171.123 457.2,169.406 457.8,167.702 458.4,166.01 459,164.33 459.6,162.663 460.2,161.009 460.8,159.367 461.4,157.737 462,156.121 462.6,154.517 463.2,152.926 463.8,151.348 464.4,149.783 465,148.231 465.6,146.692 466.2,145.166 466.8,143.653 467.4,142.153 468,140.666 468.6,139.193 469.2,137.733 469.8,136.286 470.4,134.853 471,133.433 471.6,132.026 472.2,130.633 472.8,129.254 473.4,127.889 474,126.537 474.6,125.198 475.2,123.874 475.8,122.563 476.4,121.266 477,119.983 477.6,118.714 478.2,117.459 478.8,116.218 479.4,114.992 480,113.779 480.6,112.58 481.2,111.396 481.8,110.226 482.4,109.07 483,107.928 483.6,106.801 484.2,105.688 484.8,104.59 485.4,103.506 486,102.437 486.6,101.382 487.2,100.342 487.8,99.3165 488.4,98.3057 489,97.3096 489.6,96.3283 490.2,95.3618 490.8,94.4101 491.4,93.4733 492,92.5513 492.6,91.6443 493.2,90.7523 493.8,89.8753 494.4,89.0133 495,88.1664 495.6,87.3346 496.2,86.518 496.8,85.7165 497.4,84.9302 498,84.1591 498.6,83.4033 499.2,82.6628 499.8,81.9376 500.4,81.2277 501,80.5332 501.6,79.8542 502.2,79.1905 502.8,78.5423 503.4,77.9096 504,77.2924 504.6,76.6907 505.2,76.1045 505.8,75.534 506.4,74.979 507,74.4397 507.6,73.916 508.2,73.408 508.8,72.9156 509.4,72.439 510,71.9781 510.6,71.5329 511.2,71.1035 511.8,70.6899 512.4,70.292 513,69.91 513.6,69.5438 514.2,69.1935 514.8,68.859 515.4,68.5403 516,68.2376 516.6,67.9508 517.2,67.6798 517.8,67.4248 518.4,67.1857 519,66.9626 519.6,66.7554 520.2,66.5641 520.8,66.3889 521.4,66.2296 522,66.0862 522.6,65.9589 523.2,65.8475 523.8,65.7522 524.4,65.6728 525,65.6095 525.6,65.5621 526.2,65.5308 526.8,65.5155 527.4,65.5161 528,65.5328 528.6,65.5655 529.2,65.6142 529.8,65.6789 530.4,65.7596 531,65.8563 531.6,65.969 532.2,66.0977 532.8,66.2424 533.4,66.403 534,66.5796 534.6,66.7722 535.2,66.9808 535.8,67.2053 536.4,67.4457 537,67.7021 537.6,67.9743 538.2,68.2625 538.8,68.5666 539.4,68.8866 540,69.2224 540.6,69.5741 541.2,69.9416 541.8,70.325 542.4,70.7241 543,71.1391 543.6,71.5698 544.2,72.0163 544.8,72.4786 545.4,72.9565 546,73.4502 546.6,73.9596 547.2,74.4846 547.8,75.0252 548.4,75.5815 549,76.1534 549.6,76.7408 550.2,77.3438 550.8,77.9623 551.4,78.5964 552,79.2459 552.6,79.9108 553.2,80.5912 553.8,81.287 554.4,81.9982 555,82.7247 555.6,83.4665 556.2,84.2236 556.8,84.9959 557.4,85.7835 558,86.5863 558.6,87.4042 559.2,88.2373 559.8,89.0855 560.4,89.9487 561,90.827 561.6,91.7203 562.2,92.6285 562.8,93.5517 563.4,94.4898 564,95.4427 564.6,96.4105 565.2,97.393 565.8,98.3904 566.4,99.4024 567,100.429 567.6,101.47 568.2,102.526 568.8,103.597 569.4,104.682 570,105.782 570.6,106.896 571.2,108.024 571.8,109.167 572.4,110.324 573,111.495 573.6,112.681 574.2,113.881 574.8,115.094 575.4,116.323 576,117.565 576.6,118.821 577.2,120.091 577.8,121.375 578.4,122.673 579,123.985 579.6,125.311 580.2,126.65 580.8,128.003 581.4,129.37 582,130.75 582.6,132.144 583.2,133.552 583.8,134.973 584.4,136.407 585,137.855 585.6,139.317 586.2,140.791 586.8,142.279 587.4,143.78 588,145.294 588.6,146.821 589.2,148.361 589.8,149.915 590.4,151.481 591,153.06 591.6,154.652 592.2,156.257 592.8,157.874 593.4,159.505 594,161.148 594.6,162.803 595.2,164.471 595.8,166.152 596.4,167.845 597,169.551 597.6,171.268 598.2,172.999 598.8,174.741 599.4,176.496 600,178.263 " />

<!--Draw Glitches -->

<line fill="none" stroke="black" stroke-width="2" x1="347.4" y1="1619.33" x2="347.4" y2="1569.33" />
<text transform="scale(1,-1)" font-family="sans-serif" font-size="30" x="352.4" y="-1569.33" >578</text>

<!-- -->


<!--Draw the X and Y axes -->
<polyline fill="none" stroke="black" stroke-width="6"  points=" 600,0 0,0 0, 600" />
<polyline fill="none" stroke="black" stroke-width="1"  points=" 0 600  600 600  600 0" />
<!-- -->


<!--Draw labels and tics for X axis -->

<line fill="none" stroke="black"  stroke-width="6"  x1="0.5" y1="0" x2="0.5" y2="-20" />
<text transform="scale(1,-1)" font-family="sans-serif" font-size="30" x="-24.5" y="45" >0</text>
<line fill="none" stroke="black"  stroke-width="6"  x1="120.5" y1="0" x2="120.5" y2="-20" />
<text transform="scale(1,-1)" font-family="sans-serif" font-size="30" x="95.5" y="45" >200</text>
<line fill="none" stroke="black"  stroke-width="6"  x1="240.5" y1="0" x2="240.5" y2="-20" />
<text transform="scale(1,-1)" font-family="sans-serif" font-size="30" x="215.5" y="45" >400</text>
<line fill="none" stroke="black"  stroke-width="6"  x1="360.5" y1="0" x2="360.5" y2="-20" />
<text transform="scale(1,-1)" font-family="sans-serif" font-size="30" x="335.5" y="45" >600</text>
<line fill="none" stroke="black"  stroke-width="6"  x1="480.5" y1="0" x2="480.5" y2="-20" />
<text transform="scale(1,-1)" font-family="sans-serif" font-size="30" x="455.5" y="45" >800</text>
<line fill="none" stroke="black"  stroke-width="6"  x1="600.5" y1="0" x2="600.5" y2="-20" />
<text transform="scale(1,-1)" font-family="sans-serif" font-size="30" x="575.5" y="45" >1000</text>


<!--Draw labels and tics for Y axis -->

<line fill="none" stroke="black" stroke-width="6" x1="0.0" y1="0" x2="-20" y2="0" />
<text transform="scale(1,-1)" text-anchor="end" font-family="sans-serif" font-size="30" x="-25" y="10" >20</text>
<line fill="none" stroke="black" stroke-width="6" x1="0.0" y1="54.5455" x2="-20" y2="54.5455" />
<text transform="scale(1,-1)" text-anchor="end" font-family="sans-serif" font-size="30" x="-25" y="-44.5455" >21</text>
<line fill="none" stroke="black" stroke-width="6" x1="0.0" y1="109.091" x2="-20" y2="109.091" />
<text transform="scale(1,-1)" text-anchor="end" font-family="sans-serif" font-size="30" x="-25" y="-99.0909" >22</text>
<line fill="none" stroke="black" stroke-width="6" x1="0.0" y1="163.636" x2="-20" y2="163.636" />
<text transform="scale(1,-1)" text-anchor="end" font-family="sans-serif" font-size="30" x="-25" y="-153.636" >23</text>
<line fill="none" stroke="black" stroke-width="6" x1="0.0" y1="218.182" x2="-20" y2="218.182" />
<text transform="scale(1,-1)" text-anchor="end" font-family="sans-serif" font-size="30" x="-25" y="-208.182" >24</text>
<line fill="none" stroke="black" stroke-width="6" x1="0.0" y1="272.727" x2="-20" y2="272.727" />
<text transform="scale(1,-1)" text-anchor="end" font-family="sans-serif" font-size="30" x="-25" y="-262.727" >25</text>
<line fill="none" stroke="black" stroke-width="6" x1="0.0" y1="327.273" x2="-20" y2="327.273" />
<text transform="scale(1,-1)" text-anchor="end" font-family="sans-serif" font-size="30" x="-25" y="-317.273" >26</text>
<line fill="none" stroke="black" stroke-width="6" x1="0.0" y1="381.818" x2="-20" y2="381.818" />
<text transform="scale(1,-1)" text-anchor="end" font-family="sans-serif" font-size="30" x="-25" y="-371.818" >27</text>
<line fill="none" stroke="black" stroke-width="6" x1="0.0" y1="436.364" x2="-20" y2="436.364" />
<text transform="scale(1,-1)" text-anchor="end" font-family="sans-serif" font-size="30" x="-25" y="-426.364" >28</text>
<line fill="none" stroke="black" stroke-width="6" x1="0.0" y1="490.909" x2="-20" y2="490.909" />
<text transform="scale(1,-1)" text-anchor="end" font-family="sans-serif" font-size="30" x="-25" y="-480.909" >29</text>
<line fill="none" stroke="black" stroke-width="6" x1="0.0" y1="545.455" x2="-20" y2="545.455" />
<text transform="scale(1,-1)" text-anchor="end" font-family="sans-serif" font-size="30" x="-25" y="-535.455" >30</text>
<line fill="none" stroke="black" stroke-width="6" x1="0.0" y1="600" x2="-20" y2="600" />
<text transform="scale(1,-1)" text-anchor="end" font-family="sans-serif" font-size="30" x="-25" y="-590" >31</text>

-->
</g>
</g>
<!-- Run Constants
CIRCLEPLOT bool false
DISTANCEPLOT bool true
PRINTDISTANCEDATA bool true
GLITCHESONLY bool false
PLOT 2doubles 3 4
PERTURBBY double 0.05
GLITCHLEVEL double 3
BOUNDARYWINDOW double 0.065
FRAMESPERPATH int 200
STEPSPERFRAME int 1000
TRIALS int 1
ALLBLACK bool true
FILEPREFIX string Fol
GRAPHSIZE int 0
BORDER int 0
PLOTSIZE int 0
G6LINEWIDTH int 3
DELONELINEWIDTH int 10
AXISWIDTH int 6
TICLENGTH int 20
VECTOR g6 
FOLLOWERMODE FollowerMode line
FIXRANDOMSEED fixRandomSeed false
RANDOMSEED int 19191
TIMESTAMP bool true
END end 




-->
</svg>
