<?xml version="1.0" standalone="no"?>
<!-- the width and height set the total pixel output of the image in the browser -->
<!-- whatever is within the viewbox will be remapped to show in this size -->
<svg width="1000" height="1000" viewBox="1 0 1000 1000"  version="1.1" xmlns="http://www.w3.org/2000/svg" xmlns:xlink="http://www.w3.org/1999/xlink">
 <desc>ID (and file name) = Fol_2018-05-05.11_54_25.7_6.svg </desc> 
 <text x="700" y="30" font-family="sans-serif" font-size="20">Wall time passed: 0 msec.</text>
<text x="300" y="60"   font-family="sans-serif" font-size="20" fill="lightblue">S6  lightblue</text>
<text x="300" y="85"   font-family="sans-serif" font-size="20" fill="slategrey">NCDist  slategrey</text>
<text x="300" y="110"  font-family="sans-serif" font-size="20" fill="violet">D7  violet</text>
<text x="300" y="135"  font-family="sans-serif" font-size="20" fill="olive">CS6Dist  olive</text>



 <!--DISTANCE PLOT BEGINS-->


<!-- the following will scale and place the distance plot -->
<g  transform="translate(0,50) ">
<g transform="translate(150,700) scale(1 -1)">
   <polyline fill="none" stroke=" lightblue " stroke-width=" 12 " points=" 5.2,0 10.4,81.3654 15.6,109.121 20.8,125.003 26,138.871 31.2,141.346 36.4,144.948 41.6,147.729 46.8,148.645 52,147.111 57.2,145.601 62.4,144.481 67.6,143.77 72.8,143.498 78,143.666 83.2,144.272 88.4,145.312 93.6,146.776 98.8,148.652 104,150.924 109.2,153.574 114.4,156.584 119.6,159.933 124.8,163.601 130,166.241 135.2,168.964 140.4,172.012 145.6,175.368 150.8,179.015 156,182.935 161.2,181.017 166.4,178.787 171.6,176.887 176.8,175.328 182,174.118 187.2,173.265 192.4,172.774 197.6,172.648 202.8,172.889 208,173.494 213.2,174.46 218.4,175.78 223.6,177.448 228.8,179.453 234,181.784 239.2,184.428 244.4,187.373 249.6,190.605 254.8,194.109 260,193.265 265.2,192.508 270.4,189.22 275.6,184.614 280.8,180.124 286,175.858 291.2,171.83 296.4,168.06 301.6,164.564 306.8,161.36 312,158.466 317.2,155.899 322.4,153.675 327.6,151.81 332.8,150.317 338,149.207 343.2,148.489 348.4,148.127 353.6,148.053 358.8,148.363 364,149.054 369.2,150.122 374.4,151.557 379.6,153.351 384.8,155.062 390,156.834 395.2,158.944 400.4,161.377 405.6,154.172 410.8,147.001 416,139.868 421.2,132.781 426.4,125.746 431.6,118.774 436.8,111.875 442,105.065 447.2,98.3611 452.4,91.7874 457.6,85.3738 462.8,79.1592 468,73.1943 473.2,67.5453 478.4,62.2981 483.6,56.8848 488.8,49.4383 494,42.0256 499.2,34.6682 504.4,27.4108 509.6,20.2883 514.8,10.1442 520,0 " />
   <polyline fill="none" stroke=" slategrey " stroke-width=" 9 " points=" 5.2,0 10.4,108.771 15.6,146.351 20.8,163.741 26,169.565 31.2,180.098 36.4,193.111 41.6,207.202 46.8,217.688 52,228.442 57.2,234.754 62.4,241.666 67.6,249.127 72.8,257.091 78,264.261 83.2,271.653 88.4,279.511 93.6,280.437 98.8,283.324 104,286.828 109.2,290.928 114.4,295.601 119.6,296.929 124.8,306.562 130,308.769 135.2,313.333 140.4,310.395 145.6,306.872 150.8,303.554 156,300.447 161.2,297.557 166.4,294.892 171.6,292.457 176.8,290.258 182,288.301 187.2,286.591 192.4,285.131 197.6,283.926 202.8,281.902 208,278.674 213.2,275.683 218.4,272.936 223.6,270.118 228.8,266.762 234,263.985 239.2,261.804 244.4,260.235 249.6,258.625 254.8,256.893 260,255.529 265.2,254.473 270.4,253.388 275.6,251.006 280.8,248.905 286,247.093 291.2,245.32 296.4,243.919 301.6,242.92 306.8,241.999 312,241.471 317.2,241.354 322.4,241.068 327.6,239.634 332.8,237.43 338,234.342 343.2,231.791 348.4,230.166 353.6,230.008 358.8,230.409 364,231.367 369.2,232.875 374.4,234.922 379.6,237.493 384.8,240.573 390,243.971 395.2,247.565 400.4,248.261 405.6,238.384 410.8,225.72 416,213.145 421.2,200.678 426.4,188.339 431.6,176.155 436.8,164.159 442,152.396 447.2,140.923 452.4,129.817 457.6,119.181 462.8,109.152 468,99.9113 473.2,91.6985 478.4,84.8103 483.6,79.2288 488.8,71.8484 494,66.6927 499.2,55.3483 504.4,41.8841 509.6,28.3096 514.8,14.1548 520,3.15454e-12 " />
   <polyline fill="none" stroke=" violet " stroke-width=" 6 " points=" 5.2,1.00189e-05 10.4,170.764 15.6,229.564 20.8,262.72 26,291.337 31.2,301.874 36.4,313.522 41.6,322.366 46.8,326.691 52,328.651 57.2,330.81 62.4,333.396 67.6,336.398 72.8,339.805 78,343.606 83.2,347.787 88.4,352.335 93.6,357.236 98.8,362.475 104,368.039 109.2,373.913 114.4,380.081 119.6,386.531 124.8,393.249 130,400.22 135.2,407.432 140.4,413.849 145.6,420.126 150.8,426.654 156,431.913 161.2,433.369 166.4,435.154 171.6,437.258 176.8,439.693 182,442.456 187.2,445.543 192.4,448.919 197.6,452.595 202.8,456.563 208,460.815 213.2,465.343 218.4,470.14 223.6,475.197 228.8,480.507 234,486.06 239.2,491.849 244.4,497.865 249.6,504.101 254.8,510.548 260,509.557 265.2,507.662 270.4,501.474 275.6,491.148 280.8,480.981 286,470.985 291.2,461.171 296.4,451.518 301.6,442.063 306.8,432.826 312,423.82 317.2,415.062 322.4,406.566 327.6,398.35 332.8,390.432 338,382.829 343.2,375.562 348.4,368.387 353.6,360.956 358.8,353.919 364,347.302 369.2,341.128 374.4,335.421 379.6,329.905 384.8,324.561 390,319.738 395.2,315.442 400.4,311.523 405.6,297.926 410.8,284.364 416,270.843 421.2,257.369 426.4,243.949 431.6,230.594 436.8,217.315 442,204.127 447.2,191.049 452.4,178.105 457.6,165.326 462.8,152.754 468,140.445 473.2,128.474 478.4,116.945 483.6,106.002 488.8,92.6048 494,78.87 499.2,65.2312 504.4,51.7642 509.6,36.1126 514.8,18.0563 520,0 " />
   <polyline fill="none" stroke=" olive " stroke-width=" 3 " points=" 5.2,3.54222e-06 10.4,81.6025 15.6,109.302 20.8,125.265 26,138.871 31.2,141.346 36.4,144.948 41.6,147.91 46.8,148.772 52,147.111 57.2,145.601 62.4,144.513 67.6,143.857 72.8,143.639 78,143.861 83.2,144.521 88.4,145.613 93.6,147.127 98.8,149.051 104,151.369 109.2,154.063 114.4,157.113 119.6,160.5 124.8,164.203 130,168.2 135.2,172.471 140.4,175.796 145.6,178.952 150.8,182.401 156,184.54 161.2,182 166.4,179.776 171.6,177.88 176.8,176.323 182,175.113 187.2,174.258 192.4,173.763 197.6,173.631 202.8,173.864 208,174.459 213.2,175.413 218.4,176.72 223.6,178.372 228.8,180.36 234,182.673 239.2,185.299 244.4,188.224 249.6,191.435 254.8,194.918 260,206.873 265.2,206.294 270.4,190.155 275.6,185.504 280.8,181.062 286,176.843 291.2,172.865 296.4,169.144 301.6,165.698 306.8,162.544 312,159.7 317.2,157.182 322.4,155.006 327.6,153.186 332.8,151.737 338,150.667 343.2,149.986 348.4,149.039 353.6,148.943 358.8,149.229 364,149.894 369.2,150.933 374.4,152.339 379.6,154.075 384.8,155.493 390,157.26 395.2,159.365 400.4,161.377 405.6,154.172 410.8,147.001 416,139.868 421.2,132.781 426.4,125.746 431.6,118.774 436.8,111.875 442,105.065 447.2,98.3611 452.4,91.7874 457.6,85.3738 462.8,79.1592 468,73.1943 473.2,67.5453 478.4,62.2981 483.6,57.5628 488.8,50.5386 494,43.2028 499.2,35.9519 504.4,28.8503 509.6,20.2883 514.8,10.1442 520,3.54222e-06 " />

<!--Draw the X and Y axes -->
<polyline fill="none" stroke="black" stroke-width="6"  points=" 600,0 0,0 0,520" />
<!-- -->


<!--Draw labels and tics for X axis -->

<line fill="none" stroke="black"  stroke-width="6"  x1="0.5" y1="0" x2="0.5" y2="-20" />
<text transform="scale(1,-1)" font-family="sans-serif" font-size="30" x="-24.5" y="45" >0</text>
<line fill="none" stroke="black"  stroke-width="6"  x1="104.5" y1="0" x2="104.5" y2="-20" />
<text transform="scale(1,-1)" font-family="sans-serif" font-size="30" x="79.5" y="45" >20</text>
<line fill="none" stroke="black"  stroke-width="6"  x1="208.5" y1="0" x2="208.5" y2="-20" />
<text transform="scale(1,-1)" font-family="sans-serif" font-size="30" x="183.5" y="45" >40</text>
<line fill="none" stroke="black"  stroke-width="6"  x1="312.5" y1="0" x2="312.5" y2="-20" />
<text transform="scale(1,-1)" font-family="sans-serif" font-size="30" x="287.5" y="45" >60</text>
<line fill="none" stroke="black"  stroke-width="6"  x1="416.5" y1="0" x2="416.5" y2="-20" />
<text transform="scale(1,-1)" font-family="sans-serif" font-size="30" x="391.5" y="45" >80</text>
<line fill="none" stroke="black"  stroke-width="6"  x1="520.5" y1="0" x2="520.5" y2="-20" />
<text transform="scale(1,-1)" font-family="sans-serif" font-size="30" x="495.5" y="45" >100</text>


<!--Draw labels and tics for Y axis -->

<line fill="none" stroke="black" stroke-width="6" x1="0.0" y1="0" x2="-20" y2="0" />
<text transform="scale(1,-1)" text-anchor="end" font-family="sans-serif" font-size="30" x="-25" y="10" >0</text>
<line fill="none" stroke="black" stroke-width="6" x1="0.0" y1="74.2857" x2="-20" y2="74.2857" />
<text transform="scale(1,-1)" text-anchor="end" font-family="sans-serif" font-size="30" x="-25" y="-64.2857" >5</text>
<line fill="none" stroke="black" stroke-width="6" x1="0.0" y1="148.571" x2="-20" y2="148.571" />
<text transform="scale(1,-1)" text-anchor="end" font-family="sans-serif" font-size="30" x="-25" y="-138.571" >10</text>
<line fill="none" stroke="black" stroke-width="6" x1="0.0" y1="222.857" x2="-20" y2="222.857" />
<text transform="scale(1,-1)" text-anchor="end" font-family="sans-serif" font-size="30" x="-25" y="-212.857" >15</text>
<line fill="none" stroke="black" stroke-width="6" x1="0.0" y1="297.143" x2="-20" y2="297.143" />
<text transform="scale(1,-1)" text-anchor="end" font-family="sans-serif" font-size="30" x="-25" y="-287.143" >20</text>
<line fill="none" stroke="black" stroke-width="6" x1="0.0" y1="371.429" x2="-20" y2="371.429" />
<text transform="scale(1,-1)" text-anchor="end" font-family="sans-serif" font-size="30" x="-25" y="-361.429" >25</text>
<line fill="none" stroke="black" stroke-width="6" x1="0.0" y1="445.714" x2="-20" y2="445.714" />
<text transform="scale(1,-1)" text-anchor="end" font-family="sans-serif" font-size="30" x="-25" y="-435.714" >30</text>
<line fill="none" stroke="black" stroke-width="6" x1="0.0" y1="520" x2="-20" y2="520" />
<text transform="scale(1,-1)" text-anchor="end" font-family="sans-serif" font-size="30" x="-25" y="-510" >35</text>

-->
</g>
</g>
<!-- Run Constants
CIRCLEPLOT bool false
DISTANCEPLOT bool true
PRINTDISTANCEDATA bool true
GLITCHESONLY bool false
PLOT 2doubles 3 4
PERTURBBY double 0.05
GLITCHLEVEL double 3
BOUNDARYWINDOW double 0.065
FRAMESPERPATH int 200
STEPSPERFRAME int 100
TRIALS int 1
ALLBLACK bool true
FILEPREFIX string Fol
GRAPHSIZE int 0
BORDER int 0
PLOTSIZE int 0
CIRCLEPLOTSIZE int 2000
CIRCLERADIUS int 300
CIRCLESTROKEWIDTH int 30
G6LINEWIDTH int 3
DELONELINEWIDTH int 10
AXISWIDTH int 6
TICLENGTH int 20
VECTOR g6 
MOVIEMODE MovieMode STAR
FOLLOWERMODE FollowerMode Follow
FIXRANDOMSEED fixRandomSeed false
RANDOMSEED int 19191
TIMESTAMP bool true
END end 




-->
</svg>
