<?xml version="1.0" standalone="no"?>
<!-- the width and height set the total pixel output of the image in the browser -->
<!-- whatever is within the viewbox will be remapped to show in this size -->
<svg width="1000" height="1000" viewBox="1 0 1000 1000"  version="1.1" xmlns="http://www.w3.org/2000/svg" xmlns:xlink="http://www.w3.org/1999/xlink">
 <desc>ID (and file name) = Fol_2018-05-14.13_14_59.93_92.svg </desc> 
 <text x="560" y="30" font-family="sans-serif" font-size="20">Wall time passed: 12834 msec.</text>
<text x="300" y="60"   font-family="sans-serif" font-size="20" fill="lightblue">S6  lightblue</text>
<text x="300" y="85"   font-family="sans-serif" font-size="20" fill="slategrey">NCDist  slategrey</text>
<text x="300" y="110"  font-family="sans-serif" font-size="20" fill="violet">D7  violet</text>
<text x="300" y="135"  font-family="sans-serif" font-size="20" fill="olive">CS6Dist  olive</text>

 <text x="140"  y="30"  font-family="sans-serif" font-size="20" >Fol_2018-05-14.13_14_59.93_92.svg  </text> 


 <!--DISTANCE PLOT BEGINS-->


<!-- the following will scale and place the distance plot -->
<g  transform="translate(0,50) ">
<g transform="translate(150,700) scale(1 -1)">
   <polyline fill="none" stroke=" lightblue " stroke-width=" 12 " points=" 0.6,520.288 1.2,520.344 1.8,520.399 2.4,520.455 3,520.511 3.6,520.567 4.2,520.623 4.8,520.68 5.4,520.737 6,520.795 6.6,520.852 7.2,520.91 7.8,520.968 8.4,521.027 9,521.085 9.6,521.145 10.2,521.204 10.8,521.263 11.4,521.323 12,521.383 12.6,521.444 13.2,521.505 13.8,521.566 14.4,521.627 15,521.688 15.6,521.75 16.2,521.812 16.8,521.875 17.4,521.937 18,522 18.6,522.064 19.2,522.127 19.8,522.191 20.4,522.255 21,522.319 21.6,522.384 22.2,522.449 22.8,522.514 23.4,522.58 24,522.645 24.6,522.711 25.2,522.778 25.8,522.844 26.4,522.911 27,522.978 27.6,523.046 28.2,523.114 28.8,523.182 29.4,523.25 30,523.318 30.6,523.387 31.2,523.456 31.8,523.526 32.4,523.595 33,523.665 33.6,523.735 34.2,523.806 34.8,523.877 35.4,523.948 36,524.019 36.6,524.091 37.2,524.163 37.8,524.235 38.4,524.307 39,524.38 39.6,524.453 40.2,524.526 40.8,524.6 41.4,524.674 42,524.748 42.6,524.822 43.2,524.897 43.8,524.972 44.4,525.047 45,525.123 45.6,525.198 46.2,525.274 46.8,525.351 47.4,525.427 48,525.504 48.6,525.582 49.2,525.659 49.8,525.737 50.4,525.815 51,525.893 51.6,525.972 52.2,526.05 52.8,526.13 53.4,526.209 54,526.289 54.6,526.369 55.2,526.449 55.8,526.529 56.4,526.61 57,526.691 57.6,526.772 58.2,526.854 58.8,526.936 59.4,527.018 60,527.101 60.6,527.183 61.2,527.266 61.8,527.35 62.4,527.433 63,527.517 63.6,527.601 64.2,527.685 64.8,527.77 65.4,527.855 66,527.94 66.6,528.026 67.2,528.111 67.8,528.198 68.4,528.284 69,528.37 69.6,528.457 70.2,528.544 70.8,528.632 71.4,528.72 72,528.808 72.6,528.896 73.2,528.984 73.8,529.073 74.4,529.162 75,529.251 75.6,529.341 76.2,529.431 76.8,529.521 77.4,529.612 78,529.702 78.6,529.793 79.2,529.885 79.8,529.976 80.4,530.068 81,530.16 81.6,530.252 82.2,530.345 82.8,530.438 83.4,530.531 84,530.625 84.6,530.718 85.2,530.812 85.8,530.907 86.4,531.001 87,531.096 87.6,531.191 88.2,531.287 88.8,531.382 89.4,531.478 90,531.574 90.6,531.671 91.2,531.768 91.8,531.865 92.4,531.962 93,532.06 93.6,532.157 94.2,532.256 94.8,532.354 95.4,532.453 96,532.552 96.6,532.651 97.2,532.75 97.8,532.85 98.4,532.95 99,533.05 99.6,533.151 100.2,533.252 100.8,533.353 101.4,533.454 102,533.556 102.6,533.658 103.2,533.76 103.8,533.863 104.4,533.966 105,534.069 105.6,534.172 106.2,534.276 106.8,534.379 107.4,534.484 108,534.588 108.6,534.693 109.2,534.798 109.8,534.903 110.4,535.008 111,535.114 111.6,535.22 112.2,535.326 112.8,535.433 113.4,535.54 114,535.647 114.6,535.754 115.2,535.862 115.8,535.97 116.4,536.078 117,536.187 117.6,536.295 118.2,536.404 118.8,536.514 119.4,536.623 120,536.733 120.6,536.843 121.2,536.953 121.8,537.064 122.4,537.175 123,537.286 123.6,537.398 124.2,537.509 124.8,537.621 125.4,537.734 126,537.846 126.6,537.959 127.2,538.072 127.8,538.185 128.4,538.299 129,538.413 129.6,538.527 130.2,538.641 130.8,538.756 131.4,538.871 132,538.986 132.6,539.102 133.2,539.218 133.8,539.334 134.4,539.45 135,539.567 135.6,539.683 136.2,539.801 136.8,539.918 137.4,540.036 138,540.154 138.6,540.272 139.2,540.39 139.8,540.509 140.4,540.628 141,540.747 141.6,540.867 142.2,540.986 142.8,541.107 143.4,541.227 144,541.348 144.6,541.468 145.2,541.59 145.8,541.711 146.4,541.833 147,541.955 147.6,542.077 148.2,542.199 148.8,542.322 149.4,542.445 150,542.568 150.6,542.692 151.2,542.816 151.8,542.94 152.4,543.064 153,543.189 153.6,543.314 154.2,543.439 154.8,543.564 155.4,543.69 156,543.816 156.6,543.942 157.2,544.069 157.8,544.195 158.4,544.322 159,544.45 159.6,544.577 160.2,544.705 160.8,544.833 161.4,544.961 162,545.09 162.6,545.219 163.2,545.348 163.8,545.477 164.4,545.607 165,545.737 165.6,545.867 166.2,545.998 166.8,546.128 167.4,546.259 168,546.391 168.6,546.522 169.2,546.654 169.8,546.786 170.4,546.918 171,547.051 171.6,547.184 172.2,547.317 172.8,547.45 173.4,547.584 174,547.718 174.6,547.852 175.2,547.987 175.8,548.121 176.4,548.256 177,548.391 177.6,548.527 178.2,548.663 178.8,548.799 179.4,548.935 180,549.072 180.6,549.208 181.2,549.346 181.8,549.483 182.4,549.62 183,549.758 183.6,549.896 184.2,550.035 184.8,550.174 185.4,550.312 186,550.452 186.6,550.591 187.2,550.731 187.8,550.871 188.4,551.011 189,551.151 189.6,551.292 190.2,551.433 190.8,551.575 191.4,551.716 192,551.858 192.6,552 193.2,552.142 193.8,552.285 194.4,552.428 195,552.571 195.6,552.714 196.2,552.858 196.8,553.002 197.4,553.146 198,553.29 198.6,553.435 199.2,553.58 199.8,553.725 200.4,553.871 201,554.016 201.6,554.162 202.2,554.309 202.8,554.455 203.4,554.602 204,554.749 204.6,554.896 205.2,555.044 205.8,555.191 206.4,555.339 207,555.488 207.6,555.636 208.2,555.785 208.8,555.934 209.4,556.084 210,556.233 210.6,556.383 211.2,556.533 211.8,556.684 212.4,556.834 213,556.985 213.6,557.136 214.2,557.288 214.8,557.44 215.4,557.592 216,557.743 216.6,557.889 217.2,558.036 217.8,558.182 218.4,558.329 219,558.476 219.6,558.623 220.2,558.771 220.8,558.919 221.4,559.067 222,559.215 222.6,559.364 223.2,559.513 223.8,559.662 224.4,559.811 225,559.961 225.6,560.111 226.2,560.261 226.8,560.411 227.4,560.562 228,560.713 228.6,560.864 229.2,561.016 229.8,561.167 230.4,561.319 231,561.472 231.6,561.624 232.2,561.777 232.8,561.93 233.4,562.083 234,562.237 234.6,562.39 235.2,562.544 235.8,562.699 236.4,562.853 237,563.008 237.6,563.163 238.2,563.318 238.8,563.474 239.4,563.63 240,563.786 240.6,563.942 241.2,564.099 241.8,564.256 242.4,564.413 243,564.57 243.6,564.728 244.2,564.886 244.8,565.044 245.4,565.202 246,565.361 246.6,565.52 247.2,565.679 247.8,565.838 248.4,565.998 249,566.158 249.6,566.318 250.2,566.478 250.8,566.639 251.4,566.8 252,566.961 252.6,567.123 253.2,567.284 253.8,567.446 254.4,567.609 255,567.771 255.6,567.934 256.2,568.097 256.8,568.26 257.4,568.423 258,568.878 258.6,568.957 259.2,569.036 259.8,569.116 260.4,569.196 261,569.277 261.6,569.358 262.2,569.44 262.8,569.521 263.4,569.604 264,569.686 264.6,569.769 265.2,569.853 265.8,569.937 266.4,570.021 267,570.106 267.6,570.191 268.2,570.276 268.8,570.362 269.4,570.429 270,570.424 270.6,570.419 271.2,570.414 271.8,570.409 272.4,570.405 273,570.4 273.6,570.396 274.2,570.393 274.8,570.389 275.4,570.386 276,570.383 276.6,570.38 277.2,570.377 277.8,570.375 278.4,570.372 279,570.371 279.6,570.369 280.2,570.367 280.8,570.366 281.4,570.365 282,570.364 282.6,570.364 283.2,570.363 283.8,570.363 284.4,570.263 285,570.121 285.6,569.98 286.2,569.839 286.8,569.698 287.4,569.558 288,569.417 288.6,569.277 289.2,569.137 289.8,568.998 290.4,568.858 291,568.719 291.6,568.58 292.2,568.441 292.8,568.302 293.4,568.164 294,568.026 294.6,567.888 295.2,567.75 295.8,567.613 296.4,567.475 297,567.338 297.6,567.201 298.2,567.065 298.8,566.928 299.4,566.792 300,566.656 300.6,566.515 301.2,566.368 301.8,566.221 302.4,566.075 303,565.929 303.6,565.783 304.2,565.637 304.8,565.492 305.4,565.347 306,565.202 306.6,565.057 307.2,564.912 307.8,564.768 308.4,564.624 309,564.479 309.6,564.336 310.2,564.192 310.8,564.049 311.4,563.906 312,563.763 312.6,563.62 313.2,563.477 313.8,563.335 314.4,563.193 315,563.051 315.6,562.909 316.2,562.768 316.8,562.626 317.4,562.485 318,562.344 318.6,562.204 319.2,562.063 319.8,561.923 320.4,561.783 321,561.643 321.6,561.504 322.2,561.364 322.8,561.225 323.4,561.086 324,560.947 324.6,560.809 325.2,560.67 325.8,560.532 326.4,560.394 327,560.256 327.6,560.119 328.2,559.982 328.8,559.844 329.4,559.708 330,559.571 330.6,559.434 331.2,559.298 331.8,559.162 332.4,559.026 333,558.891 333.6,558.755 334.2,558.62 334.8,558.485 335.4,558.35 336,558.216 336.6,558.081 337.2,557.947 337.8,557.813 338.4,557.68 339,557.546 339.6,557.413 340.2,557.28 340.8,557.147 341.4,557.014 342,556.882 342.6,556.75 343.2,556.618 343.8,556.486 344.4,556.354 345,556.223 345.6,556.092 346.2,555.961 346.8,555.83 347.4,555.699 348,555.569 348.6,555.439 349.2,555.309 349.8,555.179 350.4,555.05 351,554.921 351.6,554.792 352.2,554.663 352.8,554.534 353.4,554.406 354,554.278 354.6,554.15 355.2,554.022 355.8,553.894 356.4,553.767 357,553.64 357.6,553.513 358.2,553.386 358.8,553.26 359.4,553.133 360,553.007 360.6,552.882 361.2,552.756 361.8,552.631 362.4,552.505 363,552.38 363.6,552.256 364.2,552.131 364.8,552.007 365.4,551.883 366,551.759 366.6,551.635 367.2,551.512 367.8,551.388 368.4,551.265 369,551.142 369.6,551.02 370.2,550.897 370.8,550.775 371.4,550.653 372,550.531 372.6,550.41 373.2,550.289 373.8,550.167 374.4,550.047 375,549.926 375.6,549.805 376.2,549.685 376.8,549.565 377.4,549.445 378,549.326 378.6,549.206 379.2,549.087 379.8,548.968 380.4,548.849 381,548.731 381.6,548.613 382.2,548.494 382.8,548.377 383.4,548.259 384,548.141 384.6,548.024 385.2,547.907 385.8,547.79 386.4,547.674 387,547.557 387.6,547.441 388.2,547.325 388.8,547.21 389.4,547.094 390,546.979 390.6,546.864 391.2,546.749 391.8,546.634 392.4,546.52 393,546.406 393.6,546.292 394.2,546.178 394.8,546.064 395.4,545.951 396,545.838 396.6,545.725 397.2,545.612 397.8,545.5 398.4,545.388 399,545.276 399.6,545.164 400.2,545.052 400.8,544.941 401.4,544.83 402,544.719 402.6,544.608 403.2,544.498 403.8,544.387 404.4,544.277 405,544.167 405.6,544.058 406.2,543.948 406.8,543.839 407.4,543.73 408,543.621 408.6,543.513 409.2,543.405 409.8,543.296 410.4,543.189 411,543.081 411.6,542.973 412.2,542.866 412.8,542.759 413.4,542.652 414,542.546 414.6,542.44 415.2,542.333 415.8,542.228 416.4,542.122 417,542.016 417.6,541.911 418.2,541.806 418.8,541.701 419.4,541.597 420,541.492 420.6,541.388 421.2,541.284 421.8,541.18 422.4,541.077 423,540.974 423.6,540.871 424.2,540.768 424.8,540.665 425.4,540.563 426,540.461 426.6,540.359 427.2,540.257 427.8,540.155 428.4,540.054 429,539.953 429.6,539.852 430.2,539.752 430.8,539.651 431.4,539.551 432,539.451 432.6,539.351 433.2,539.252 433.8,539.152 434.4,539.053 435,538.954 435.6,538.856 436.2,538.757 436.8,538.659 437.4,538.561 438,538.463 438.6,538.366 439.2,538.269 439.8,538.171 440.4,538.075 441,537.978 441.6,537.881 442.2,537.785 442.8,537.689 443.4,537.593 444,537.498 444.6,537.403 445.2,537.307 445.8,537.213 446.4,537.118 447,537.023 447.6,536.929 448.2,536.835 448.8,536.741 449.4,536.648 450,536.555 450.6,536.461 451.2,536.369 451.8,536.276 452.4,536.183 453,536.091 453.6,535.999 454.2,535.907 454.8,535.816 455.4,535.724 456,535.633 456.6,535.542 457.2,535.452 457.8,535.361 458.4,535.271 459,535.181 459.6,535.091 460.2,535.002 460.8,534.912 461.4,534.823 462,534.734 462.6,534.646 463.2,534.557 463.8,534.469 464.4,534.381 465,534.293 465.6,534.206 466.2,534.118 466.8,534.031 467.4,533.944 468,533.858 468.6,533.771 469.2,533.685 469.8,533.599 470.4,533.513 471,533.428 471.6,533.343 472.2,533.257 472.8,533.173 473.4,533.088 474,533.004 474.6,532.919 475.2,532.835 475.8,532.752 476.4,532.668 477,532.585 477.6,532.502 478.2,532.419 478.8,532.336 479.4,532.254 480,532.172 480.6,532.09 481.2,532.008 481.8,531.926 482.4,531.845 483,531.764 483.6,531.683 484.2,531.603 484.8,531.522 485.4,531.442 486,531.362 486.6,531.282 487.2,531.203 487.8,531.124 488.4,531.045 489,530.966 489.6,530.887 490.2,530.809 490.8,530.731 491.4,530.653 492,530.575 492.6,530.498 493.2,530.42 493.8,530.343 494.4,530.267 495,530.19 495.6,530.114 496.2,530.037 496.8,529.962 497.4,529.886 498,529.81 498.6,529.735 499.2,529.66 499.8,529.586 500.4,529.511 501,529.437 501.6,529.363 502.2,529.289 502.8,529.215 503.4,529.142 504,529.068 504.6,528.995 505.2,528.923 505.8,528.85 506.4,528.778 507,528.706 507.6,528.634 508.2,528.562 508.8,528.491 509.4,528.42 510,528.349 510.6,528.278 511.2,528.208 511.8,528.138 512.4,528.068 513,527.998 513.6,527.928 514.2,527.859 514.8,527.79 515.4,527.721 516,527.652 516.6,527.584 517.2,527.516 517.8,527.448 518.4,527.38 519,527.312 519.6,527.245 520.2,527.178 520.8,527.111 521.4,527.044 522,526.978 522.6,526.912 523.2,526.846 523.8,526.78 524.4,526.715 525,526.649 525.6,526.584 526.2,526.52 526.8,526.455 527.4,526.391 528,526.326 528.6,526.263 529.2,526.199 529.8,526.135 530.4,526.072 531,526.009 531.6,525.946 532.2,525.884 532.8,525.822 533.4,525.76 534,525.698 534.6,525.636 535.2,525.575 535.8,525.513 536.4,525.453 537,525.392 537.6,525.331 538.2,525.271 538.8,525.211 539.4,525.151 540,525.092 540.6,525.032 541.2,524.973 541.8,524.914 542.4,524.856 543,524.797 543.6,524.739 544.2,524.681 544.8,524.623 545.4,524.566 546,524.508 546.6,524.451 547.2,524.394 547.8,524.338 548.4,524.281 549,524.225 549.6,524.169 550.2,524.114 550.8,524.058 551.4,524.003 552,523.948 552.6,523.893 553.2,523.839 553.8,523.784 554.4,523.73 555,523.676 555.6,523.623 556.2,523.569 556.8,523.516 557.4,523.463 558,523.41 558.6,523.358 559.2,523.305 559.8,523.253 560.4,523.202 561,523.15 561.6,523.099 562.2,523.048 562.8,522.997 563.4,522.946 564,522.895 564.6,522.845 565.2,522.795 565.8,522.746 566.4,522.696 567,522.647 567.6,522.598 568.2,522.549 568.8,522.5 569.4,522.452 570,522.404 570.6,522.356 571.2,522.308 571.8,522.261 572.4,522.213 573,522.166 573.6,522.119 574.2,522.073 574.8,522.027 575.4,521.981 576,521.935 576.6,521.889 577.2,521.844 577.8,521.798 578.4,521.754 579,521.709 579.6,521.664 580.2,521.62 580.8,521.576 581.4,521.532 582,521.489 582.6,521.445 583.2,521.402 583.8,521.359 584.4,521.317 585,521.274 585.6,521.232 586.2,521.19 586.8,521.148 587.4,521.107 588,521.066 588.6,521.025 589.2,520.984 589.8,520.943 590.4,520.903 591,520.863 591.6,520.823 592.2,520.783 592.8,520.744 593.4,520.704 594,520.666 594.6,520.627 595.2,520.588 595.8,520.55 596.4,520.512 597,520.474 597.6,520.437 598.2,520.399 598.8,520.362 599.4,520.325 600,520.288 " />
   <polyline fill="none" stroke=" slategrey " stroke-width=" 9 " points=" " />
   <polyline fill="none" stroke=" violet " stroke-width=" 6 " points=" " />
   <polyline fill="none" stroke=" olive " stroke-width=" 3 " points=" 0.6,25.2359 1.2,25.2264 1.8,25.2168 2.4,25.2072 3,25.1976 3.6,25.188 4.2,25.1785 4.8,25.1689 5.4,25.1593 6,25.1497 6.6,25.1402 7.2,25.1306 7.8,25.121 8.4,25.1114 9,25.1019 9.6,25.0923 10.2,25.0827 10.8,25.0731 11.4,25.0636 12,25.054 12.6,25.0444 13.2,25.0349 13.8,25.0253 14.4,25.0157 15,25.0062 15.6,24.9966 16.2,24.9871 16.8,24.9775 17.4,24.9679 18,24.9584 18.6,24.9488 19.2,24.9393 19.8,24.9297 20.4,24.9201 21,24.9106 21.6,24.901 22.2,24.8915 22.8,24.8819 23.4,24.8724 24,24.8628 24.6,24.8533 25.2,24.8437 25.8,24.8342 26.4,24.8246 27,24.8151 27.6,24.8055 28.2,24.796 28.8,24.7865 29.4,24.7769 30,24.7674 30.6,24.7578 31.2,24.7483 31.8,24.7387 32.4,24.7292 33,24.7197 33.6,24.7101 34.2,24.7006 34.8,24.6911 35.4,24.6815 36,24.672 36.6,24.6625 37.2,24.6529 37.8,24.6434 38.4,24.6339 39,24.6243 39.6,24.6148 40.2,24.6053 40.8,24.5957 41.4,24.5862 42,24.5767 42.6,24.5672 43.2,24.5576 43.8,24.5481 44.4,24.5386 45,24.5291 45.6,24.5196 46.2,24.51 46.8,24.5005 47.4,24.491 48,24.4815 48.6,24.472 49.2,24.4625 49.8,24.4529 50.4,24.4434 51,24.4339 51.6,24.4244 52.2,24.4149 52.8,24.4054 53.4,24.3959 54,24.3864 54.6,24.3769 55.2,24.3673 55.8,24.3578 56.4,24.3483 57,24.3388 57.6,24.3293 58.2,24.3198 58.8,24.3103 59.4,24.3008 60,24.2913 60.6,24.2818 61.2,24.2723 61.8,24.2628 62.4,24.2533 63,24.2438 63.6,24.2343 64.2,24.2248 64.8,24.2154 65.4,24.2059 66,24.1964 66.6,24.1869 67.2,24.1774 67.8,24.1679 68.4,24.1584 69,24.1489 69.6,24.1394 70.2,24.1299 70.8,24.1205 71.4,24.111 72,24.1015 72.6,24.092 73.2,24.0825 73.8,24.0731 74.4,24.0636 75,24.0541 75.6,24.0446 76.2,24.0351 76.8,24.0257 77.4,24.0162 78,24.0067 78.6,23.9972 79.2,23.9878 79.8,23.9783 80.4,23.9688 81,23.9593 81.6,23.9499 82.2,23.9404 82.8,23.9309 83.4,23.9215 84,23.912 84.6,23.9025 85.2,23.8931 85.8,23.8836 86.4,23.8742 87,23.8647 87.6,23.8552 88.2,23.8458 88.8,23.8363 89.4,23.8268 90,23.8174 90.6,23.8079 91.2,23.7985 91.8,23.789 92.4,23.7796 93,23.7701 93.6,23.7607 94.2,23.7512 94.8,23.7418 95.4,23.7323 96,23.7229 96.6,23.7134 97.2,23.704 97.8,23.6945 98.4,23.6851 99,23.6756 99.6,23.6662 100.2,23.6567 100.8,23.6473 101.4,23.6378 102,23.6284 102.6,23.619 103.2,23.6095 103.8,23.6001 104.4,23.5906 105,23.5812 105.6,23.5718 106.2,23.5623 106.8,23.5529 107.4,23.5435 108,23.534 108.6,23.5246 109.2,23.5152 109.8,23.5057 110.4,23.4963 111,23.4869 111.6,23.4775 112.2,23.468 112.8,23.4586 113.4,23.4492 114,23.4398 114.6,23.4303 115.2,23.4209 115.8,23.4115 116.4,23.4021 117,23.3926 117.6,23.3832 118.2,23.3738 118.8,23.3644 119.4,23.355 120,23.3456 120.6,23.3361 121.2,23.3267 121.8,23.3173 122.4,23.3079 123,23.2985 123.6,23.2891 124.2,23.2797 124.8,23.2703 125.4,23.2608 126,23.2514 126.6,23.242 127.2,23.2326 127.8,23.2232 128.4,23.2138 129,23.2044 129.6,23.195 130.2,23.1856 130.8,23.1762 131.4,23.1668 132,23.1574 132.6,23.148 133.2,23.1386 133.8,23.1292 134.4,23.1198 135,23.1104 135.6,23.101 136.2,23.0916 136.8,23.0822 137.4,23.0728 138,23.0635 138.6,23.0541 139.2,23.0447 139.8,23.0353 140.4,23.0259 141,23.0165 141.6,23.0071 142.2,22.9977 142.8,22.9884 143.4,22.979 144,22.9696 144.6,22.9602 145.2,22.9508 145.8,22.9414 146.4,22.9321 147,22.9227 147.6,22.9133 148.2,22.9039 148.8,22.8946 149.4,22.8852 150,22.8758 150.6,22.8664 151.2,22.8571 151.8,22.8477 152.4,22.8383 153,22.8289 153.6,22.8196 154.2,22.8102 154.8,22.8008 155.4,22.7915 156,22.7821 156.6,22.7727 157.2,22.7634 157.8,22.754 158.4,22.7446 159,22.7353 159.6,22.7259 160.2,22.7166 160.8,22.7072 161.4,22.6978 162,22.6885 162.6,22.6791 163.2,22.6698 163.8,22.6604 164.4,22.6511 165,22.6417 165.6,22.6324 166.2,22.623 166.8,22.6136 167.4,22.6043 168,22.5949 168.6,22.5856 169.2,22.5762 169.8,22.5669 170.4,22.5576 171,22.5482 171.6,22.5389 172.2,22.5295 172.8,22.5202 173.4,22.5108 174,22.5015 174.6,22.4922 175.2,22.4828 175.8,22.4735 176.4,22.4641 177,22.4548 177.6,22.4455 178.2,22.4361 178.8,22.4268 179.4,22.4175 180,22.4081 180.6,22.3988 181.2,22.3895 181.8,22.3801 182.4,22.3708 183,22.3615 183.6,22.3521 184.2,22.3428 184.8,22.3335 185.4,22.3242 186,22.3148 186.6,22.3055 187.2,22.2962 187.8,22.2869 188.4,22.2775 189,22.2682 189.6,22.2589 190.2,22.2496 190.8,22.2403 191.4,22.2309 192,22.2216 192.6,22.2123 193.2,22.203 193.8,22.1937 194.4,22.1844 195,22.1751 195.6,22.1657 196.2,22.1564 196.8,22.1471 197.4,22.1378 198,22.1285 198.6,22.1192 199.2,22.1099 199.8,22.1006 200.4,22.0913 201,22.082 201.6,22.0727 202.2,22.0634 202.8,22.0541 203.4,22.0448 204,22.0355 204.6,22.0262 205.2,22.0169 205.8,22.0076 206.4,21.9983 207,21.989 207.6,21.9797 208.2,21.9704 208.8,21.9611 209.4,21.9518 210,21.9425 210.6,21.9332 211.2,21.9239 211.8,21.9146 212.4,21.9053 213,21.8961 213.6,21.8868 214.2,21.8775 214.8,21.8682 215.4,21.8589 216,21.8496 216.6,21.8403 217.2,21.8311 217.8,21.8218 218.4,21.8125 219,21.8032 219.6,21.7939 220.2,21.7847 220.8,21.7754 221.4,21.7661 222,21.7568 222.6,21.7476 223.2,21.7383 223.8,21.729 224.4,21.7197 225,21.7105 225.6,21.7012 226.2,21.6919 226.8,21.6827 227.4,21.6734 228,21.6641 228.6,21.6549 229.2,21.6456 229.8,21.6363 230.4,21.6271 231,21.6178 231.6,21.6085 232.2,21.5993 232.8,21.5826 233.4,21.5577 234,21.5328 234.6,21.508 235.2,21.4831 235.8,21.4582 236.4,21.4334 237,21.4085 237.6,21.3837 238.2,21.3588 238.8,21.334 239.4,21.3092 240,21.2843 240.6,21.2595 241.2,21.2347 241.8,21.2099 242.4,21.1851 243,21.1603 243.6,21.1355 244.2,21.1108 244.8,21.086 245.4,21.0612 246,21.0364 246.6,21.0117 247.2,20.9869 247.8,20.9622 248.4,20.9375 249,20.9127 249.6,20.888 250.2,20.8633 250.8,20.8386 251.4,20.8138 252,20.7891 252.6,20.7644 253.2,20.7397 253.8,20.7151 254.4,20.6904 255,20.6657 255.6,20.641 256.2,20.6164 256.8,20.5917 257.4,20.5671 258,20.5642 258.6,20.5889 259.2,20.6135 259.8,20.6382 260.4,20.6629 261,20.6875 261.6,20.7122 262.2,20.7369 262.8,20.7616 263.4,20.7863 264,20.811 264.6,20.8172 265.2,20.7833 265.8,20.7494 266.4,20.7156 267,20.6817 267.6,20.6479 268.2,20.614 268.8,20.5802 269.4,20.5603 270,20.5941 270.6,20.6279 271.2,20.6618 271.8,20.6956 272.4,20.7295 273,20.7634 273.6,20.7973 274.2,20.8312 274.8,20.8651 275.4,20.899 276,20.9253 276.6,20.9161 277.2,20.9069 277.8,20.8977 278.4,20.8885 279,20.8793 279.6,20.8701 280.2,20.861 280.8,20.8518 281.4,20.8426 282,20.8334 282.6,20.8242 283.2,20.815 283.8,20.8058 284.4,20.7966 285,20.7874 285.6,20.7782 286.2,20.769 286.8,20.7598 287.4,20.7506 288,20.7415 288.6,20.7323 289.2,20.7231 289.8,20.7139 290.4,20.7047 291,20.6955 291.6,20.6864 292.2,20.6772 292.8,20.668 293.4,20.6588 294,20.6496 294.6,20.6405 295.2,20.6313 295.8,20.6221 296.4,20.6129 297,20.6038 297.6,20.5946 298.2,20.5854 298.8,20.5762 299.4,20.5671 300,20.5579 300.6,20.5579 301.2,20.5671 301.8,20.5762 302.4,20.5854 303,20.5946 303.6,20.6038 304.2,20.6129 304.8,20.6221 305.4,20.6313 306,20.6405 306.6,20.6496 307.2,20.6588 307.8,20.668 308.4,20.6772 309,20.6864 309.6,20.6955 310.2,20.7047 310.8,20.7139 311.4,20.7231 312,20.7323 312.6,20.7415 313.2,20.7506 313.8,20.7598 314.4,20.769 315,20.7782 315.6,20.7874 316.2,20.7966 316.8,20.8058 317.4,20.815 318,20.8242 318.6,20.8334 319.2,20.8426 319.8,20.8518 320.4,20.861 321,20.8701 321.6,20.8793 322.2,20.8885 322.8,20.8977 323.4,20.9069 324,20.9161 324.6,20.9253 325.2,20.9345 325.8,20.9438 326.4,20.953 327,20.9622 327.6,20.9714 328.2,20.9806 328.8,20.9898 329.4,20.999 330,21.0082 330.6,21.0174 331.2,21.0266 331.8,21.0358 332.4,21.045 333,21.0543 333.6,21.0635 334.2,21.0727 334.8,21.0819 335.4,21.0911 336,21.1003 336.6,21.1096 337.2,21.1188 337.8,21.128 338.4,21.1372 339,21.1464 339.6,21.1557 340.2,21.1649 340.8,21.1741 341.4,21.1833 342,21.1926 342.6,21.2018 343.2,21.211 343.8,21.2202 344.4,21.2295 345,21.2387 345.6,21.2479 346.2,21.2572 346.8,21.2664 347.4,21.2756 348,21.2848 348.6,21.2941 349.2,21.3033 349.8,21.3126 350.4,21.3218 351,21.331 351.6,21.3403 352.2,21.3495 352.8,21.3587 353.4,21.368 354,21.3772 354.6,21.3865 355.2,21.3957 355.8,21.405 356.4,21.4142 357,21.4234 357.6,21.4327 358.2,21.4419 358.8,21.4512 359.4,21.4604 360,21.4697 360.6,21.4789 361.2,21.4882 361.8,21.4974 362.4,21.5067 363,21.5159 363.6,21.5252 364.2,21.5345 364.8,21.5437 365.4,21.553 366,21.5622 366.6,21.5715 367.2,21.5807 367.8,21.59 368.4,21.5993 369,21.6085 369.6,21.6178 370.2,21.6271 370.8,21.6363 371.4,21.6456 372,21.6549 372.6,21.6641 373.2,21.6734 373.8,21.6827 374.4,21.6919 375,21.7012 375.6,21.7105 376.2,21.7197 376.8,21.729 377.4,21.7383 378,21.7476 378.6,21.7568 379.2,21.7661 379.8,21.7754 380.4,21.7847 381,21.7939 381.6,21.8032 382.2,21.8125 382.8,21.8218 383.4,21.8311 384,21.8403 384.6,21.8496 385.2,21.8589 385.8,21.8682 386.4,21.8775 387,21.8868 387.6,21.8961 388.2,21.9053 388.8,21.9146 389.4,21.9239 390,21.9332 390.6,21.9425 391.2,21.9518 391.8,21.9611 392.4,21.9704 393,21.9797 393.6,21.989 394.2,21.9983 394.8,22.0076 395.4,22.0169 396,22.0262 396.6,22.0355 397.2,22.0448 397.8,22.0541 398.4,22.0634 399,22.0727 399.6,22.082 400.2,22.0913 400.8,22.1006 401.4,22.1099 402,22.1192 402.6,22.1285 403.2,22.1378 403.8,22.1471 404.4,22.1564 405,22.1657 405.6,22.1751 406.2,22.1844 406.8,22.1937 407.4,22.203 408,22.2123 408.6,22.2216 409.2,22.2309 409.8,22.2403 410.4,22.2496 411,22.2589 411.6,22.2682 412.2,22.2775 412.8,22.2869 413.4,22.2962 414,22.3055 414.6,22.3148 415.2,22.3242 415.8,22.3335 416.4,22.3428 417,22.3521 417.6,22.3615 418.2,22.3708 418.8,22.3801 419.4,22.3895 420,22.3988 420.6,22.4081 421.2,22.4175 421.8,22.4268 422.4,22.4361 423,22.4455 423.6,22.4548 424.2,22.4641 424.8,22.4735 425.4,22.4828 426,22.4922 426.6,22.5015 427.2,22.5108 427.8,22.5202 428.4,22.5295 429,22.5389 429.6,22.5482 430.2,22.5576 430.8,22.5669 431.4,22.5762 432,22.5856 432.6,22.5949 433.2,22.6043 433.8,22.6136 434.4,22.623 435,22.6324 435.6,22.6417 436.2,22.6511 436.8,22.6604 437.4,22.6698 438,22.6791 438.6,22.6885 439.2,22.6978 439.8,22.7072 440.4,22.7166 441,22.7259 441.6,22.7353 442.2,22.7446 442.8,22.754 443.4,22.7634 444,22.7727 444.6,22.7821 445.2,22.7915 445.8,22.8008 446.4,22.8102 447,22.8196 447.6,22.8289 448.2,22.8383 448.8,22.8477 449.4,22.8571 450,22.8664 450.6,22.8758 451.2,22.8852 451.8,22.8946 452.4,22.9039 453,22.9133 453.6,22.9227 454.2,22.9321 454.8,22.9414 455.4,22.9508 456,22.9602 456.6,22.9696 457.2,22.979 457.8,22.9884 458.4,22.9977 459,23.0071 459.6,23.0165 460.2,23.0259 460.8,23.0353 461.4,23.0447 462,23.0541 462.6,23.0635 463.2,23.0728 463.8,23.0822 464.4,23.0916 465,23.101 465.6,23.1104 466.2,23.1198 466.8,23.1292 467.4,23.1386 468,23.148 468.6,23.1574 469.2,23.1668 469.8,23.1762 470.4,23.1856 471,23.195 471.6,23.2044 472.2,23.2138 472.8,23.2232 473.4,23.2326 474,23.242 474.6,23.2514 475.2,23.2608 475.8,23.2703 476.4,23.2797 477,23.2891 477.6,23.2985 478.2,23.3079 478.8,23.3173 479.4,23.3267 480,23.3361 480.6,23.3456 481.2,23.355 481.8,23.3644 482.4,23.3738 483,23.3832 483.6,23.3926 484.2,23.4021 484.8,23.4115 485.4,23.4209 486,23.4303 486.6,23.4398 487.2,23.4492 487.8,23.4586 488.4,23.468 489,23.4775 489.6,23.4869 490.2,23.4963 490.8,23.5057 491.4,23.5152 492,23.5246 492.6,23.534 493.2,23.5435 493.8,23.5529 494.4,23.5623 495,23.5718 495.6,23.5812 496.2,23.5906 496.8,23.6001 497.4,23.6095 498,23.619 498.6,23.6284 499.2,23.6378 499.8,23.6473 500.4,23.6567 501,23.6662 501.6,23.6756 502.2,23.6851 502.8,23.6945 503.4,23.704 504,23.7134 504.6,23.7229 505.2,23.7323 505.8,23.7418 506.4,23.7512 507,23.7607 507.6,23.7701 508.2,23.7796 508.8,23.789 509.4,23.7985 510,23.8079 510.6,23.8174 511.2,23.8268 511.8,23.8363 512.4,23.8458 513,23.8552 513.6,23.8647 514.2,23.8742 514.8,23.8836 515.4,23.8931 516,23.9025 516.6,23.912 517.2,23.9215 517.8,23.9309 518.4,23.9404 519,23.9499 519.6,23.9593 520.2,23.9688 520.8,23.9783 521.4,23.9878 522,23.9972 522.6,24.0067 523.2,24.0162 523.8,24.0257 524.4,24.0351 525,24.0446 525.6,24.0541 526.2,24.0636 526.8,24.0731 527.4,24.0825 528,24.092 528.6,24.1015 529.2,24.111 529.8,24.1205 530.4,24.1299 531,24.1394 531.6,24.1489 532.2,24.1584 532.8,24.1679 533.4,24.1774 534,24.1869 534.6,24.1964 535.2,24.2059 535.8,24.2154 536.4,24.2248 537,24.2343 537.6,24.2438 538.2,24.2533 538.8,24.2628 539.4,24.2723 540,24.2818 540.6,24.2913 541.2,24.3008 541.8,24.3103 542.4,24.3198 543,24.3293 543.6,24.3388 544.2,24.3483 544.8,24.3578 545.4,24.3673 546,24.3769 546.6,24.3864 547.2,24.3959 547.8,24.4054 548.4,24.4149 549,24.4244 549.6,24.4339 550.2,24.4434 550.8,24.4529 551.4,24.4625 552,24.472 552.6,24.4815 553.2,24.491 553.8,24.5005 554.4,24.51 555,24.5196 555.6,24.5291 556.2,24.5386 556.8,24.5481 557.4,24.5576 558,24.5672 558.6,24.5767 559.2,24.5862 559.8,24.5957 560.4,24.6053 561,24.6148 561.6,24.6243 562.2,24.6339 562.8,24.6434 563.4,24.6529 564,24.6625 564.6,24.672 565.2,24.6815 565.8,24.6911 566.4,24.7006 567,24.7101 567.6,24.7197 568.2,24.7292 568.8,24.7387 569.4,24.7483 570,24.7578 570.6,24.7674 571.2,24.7769 571.8,24.7865 572.4,24.796 573,24.8055 573.6,24.8151 574.2,24.8246 574.8,24.8342 575.4,24.8437 576,24.8533 576.6,24.8628 577.2,24.8724 577.8,24.8819 578.4,24.8915 579,24.901 579.6,24.9106 580.2,24.9201 580.8,24.9297 581.4,24.9393 582,24.9488 582.6,24.9584 583.2,24.9679 583.8,24.9775 584.4,24.9871 585,24.9966 585.6,25.0062 586.2,25.0157 586.8,25.0253 587.4,25.0349 588,25.0444 588.6,25.054 589.2,25.0636 589.8,25.0731 590.4,25.0827 591,25.0923 591.6,25.1019 592.2,25.1114 592.8,25.121 593.4,25.1306 594,25.1402 594.6,25.1497 595.2,25.1593 595.8,25.1689 596.4,25.1785 597,25.188 597.6,25.1976 598.2,25.2072 598.8,25.2168 599.4,25.2264 600,25.2359 " />

<!--Draw the X and Y axes -->
<polyline fill="none" stroke="black" stroke-width="6"  points=" 600,0 0,0 0, 600" />
<polyline fill="none" stroke="black" stroke-width="1"  points=" 0 600  600 600  600 0" />
<!-- -->


<!--Draw labels and tics for X axis -->

<line fill="none" stroke="black"  stroke-width="6"  x1="0.5" y1="0" x2="0.5" y2="-20" />
<text transform="scale(1,-1)" font-family="sans-serif" font-size="30" x="-24.5" y="45" >0</text>
<line fill="none" stroke="black"  stroke-width="6"  x1="120.5" y1="0" x2="120.5" y2="-20" />
<text transform="scale(1,-1)" font-family="sans-serif" font-size="30" x="95.5" y="45" >200</text>
<line fill="none" stroke="black"  stroke-width="6"  x1="240.5" y1="0" x2="240.5" y2="-20" />
<text transform="scale(1,-1)" font-family="sans-serif" font-size="30" x="215.5" y="45" >400</text>
<line fill="none" stroke="black"  stroke-width="6"  x1="360.5" y1="0" x2="360.5" y2="-20" />
<text transform="scale(1,-1)" font-family="sans-serif" font-size="30" x="335.5" y="45" >600</text>
<line fill="none" stroke="black"  stroke-width="6"  x1="480.5" y1="0" x2="480.5" y2="-20" />
<text transform="scale(1,-1)" font-family="sans-serif" font-size="30" x="455.5" y="45" >800</text>
<line fill="none" stroke="black"  stroke-width="6"  x1="600.5" y1="0" x2="600.5" y2="-20" />
<text transform="scale(1,-1)" font-family="sans-serif" font-size="30" x="575.5" y="45" >1000</text>


<!--Draw labels and tics for Y axis -->

<line fill="none" stroke="black" stroke-width="6" x1="0.0" y1="0" x2="-20" y2="0" />
<text transform="scale(1,-1)" text-anchor="end" font-family="sans-serif" font-size="30" x="-25" y="10" >40</text>
<line fill="none" stroke="black" stroke-width="6" x1="0.0" y1="100" x2="-20" y2="100" />
<text transform="scale(1,-1)" text-anchor="end" font-family="sans-serif" font-size="30" x="-25" y="-90" >45</text>
<line fill="none" stroke="black" stroke-width="6" x1="0.0" y1="200" x2="-20" y2="200" />
<text transform="scale(1,-1)" text-anchor="end" font-family="sans-serif" font-size="30" x="-25" y="-190" >50</text>
<line fill="none" stroke="black" stroke-width="6" x1="0.0" y1="300" x2="-20" y2="300" />
<text transform="scale(1,-1)" text-anchor="end" font-family="sans-serif" font-size="30" x="-25" y="-290" >55</text>
<line fill="none" stroke="black" stroke-width="6" x1="0.0" y1="400" x2="-20" y2="400" />
<text transform="scale(1,-1)" text-anchor="end" font-family="sans-serif" font-size="30" x="-25" y="-390" >60</text>
<line fill="none" stroke="black" stroke-width="6" x1="0.0" y1="500" x2="-20" y2="500" />
<text transform="scale(1,-1)" text-anchor="end" font-family="sans-serif" font-size="30" x="-25" y="-490" >65</text>
<line fill="none" stroke="black" stroke-width="6" x1="0.0" y1="600" x2="-20" y2="600" />
<text transform="scale(1,-1)" text-anchor="end" font-family="sans-serif" font-size="30" x="-25" y="-590" >70</text>

-->
</g>
</g>
<!-- Run Constants
CIRCLEPLOT bool false
DISTANCEPLOT bool true
PRINTDISTANCEDATA bool true
GLITCHESONLY bool false
PLOT 2doubles 3 4
PERTURBBY double 0.05
GLITCHLEVEL double 3
BOUNDARYWINDOW double 0.065
FRAMESPERPATH int 200
STEPSPERFRAME int 1000
TRIALS int 1
ALLBLACK bool true
FILEPREFIX string Fol
GRAPHSIZE int 0
BORDER int 0
PLOTSIZE int 0
G6LINEWIDTH int 3
DELONELINEWIDTH int 10
AXISWIDTH int 6
TICLENGTH int 20
VECTOR g6 
FOLLOWERMODE FollowerMode line
FIXRANDOMSEED fixRandomSeed false
RANDOMSEED int 19191
TIMESTAMP bool true
END end 




-->
</svg>
