<?xml version="1.0" standalone="no"?>
<!-- the width and height set the total pixel output of the image in the browser -->
<!-- whatever is within the viewbox will be remapped to show in this size -->
<svg width="1000" height="1000" viewBox="1 0 1000 1000"  version="1.1" xmlns="http://www.w3.org/2000/svg" xmlns:xlink="http://www.w3.org/1999/xlink">
 <desc>ID (and file name) = Fol_2018-05-14.13_04_13.53_52.svg </desc> 
 <text x="560" y="30" font-family="sans-serif" font-size="20">Wall time passed: 13580 msec.</text>
<text x="300" y="60"   font-family="sans-serif" font-size="20" fill="lightblue">S6  lightblue</text>
<text x="300" y="85"   font-family="sans-serif" font-size="20" fill="slategrey">NCDist  slategrey</text>
<text x="300" y="110"  font-family="sans-serif" font-size="20" fill="violet">D7  violet</text>
<text x="300" y="135"  font-family="sans-serif" font-size="20" fill="olive">CS6Dist  olive</text>

 <text x="140"  y="30"  font-family="sans-serif" font-size="20" >Fol_2018-05-14.13_04_13.53_52.svg  </text> 


 <!--DISTANCE PLOT BEGINS-->


<!-- the following will scale and place the distance plot -->
<g  transform="translate(0,50) ">
<g transform="translate(150,700) scale(1 -1)">
   <polyline fill="none" stroke=" lightblue " stroke-width=" 12 " points=" 0.6,10.7277 1.2,10.874 1.8,11.0243 2.4,11.1786 3,11.337 3.6,11.4993 4.2,11.6658 4.8,11.8362 5.4,12.0107 6,12.1892 6.6,12.3717 7.2,12.5583 7.8,12.7488 8.4,12.9435 9,13.1421 9.6,13.3448 10.2,13.5515 10.8,13.7622 11.4,13.9769 12,14.1957 12.6,14.4185 13.2,14.6453 13.8,14.8762 14.4,15.111 15,15.3499 15.6,15.5929 16.2,15.8398 16.8,16.0908 17.4,16.3458 18,16.6048 18.6,16.8678 19.2,17.1349 19.8,17.406 20.4,17.6811 21,17.9602 21.6,18.2434 22.2,18.5306 22.8,18.8218 23.4,19.117 24,19.4162 24.6,19.7195 25.2,20.0267 25.8,20.338 26.4,20.6533 27,20.9727 27.6,21.296 28.2,21.6234 28.8,21.9548 29.4,22.2902 30,22.6296 30.6,22.9731 31.2,23.3205 31.8,23.672 32.4,24.0275 33,24.387 33.6,24.7505 34.2,25.118 34.8,25.4896 35.4,25.8651 36,26.2447 36.6,26.6283 37.2,27.0159 37.8,27.4075 38.4,27.8031 39,28.2027 39.6,28.6063 40.2,29.014 40.8,29.4257 41.4,29.8413 42,30.261 42.6,30.6847 43.2,31.1124 43.8,31.5441 44.4,31.9798 45,32.4195 45.6,32.8632 46.2,33.3109 46.8,33.7626 47.4,34.2184 48,34.6781 48.6,35.1418 49.2,35.6096 49.8,36.0813 50.4,36.5571 51,37.0368 51.6,37.5206 52.2,38.0083 52.8,38.5 53.4,38.9958 54,39.4955 54.6,39.9993 55.2,40.507 55.8,41.0187 56.4,41.5345 57,42.0542 57.6,42.5779 58.2,43.1056 58.8,43.6373 59.4,44.173 60,44.7127 60.6,45.2564 61.2,45.8041 61.8,46.3558 62.4,46.9114 63,47.4711 63.6,48.0347 64.2,48.6023 64.8,49.174 65.4,49.7496 66,50.3292 66.6,50.9127 67.2,51.5003 67.8,52.0918 68.4,52.6874 69,53.2869 69.6,53.8904 70.2,54.4978 70.8,55.1093 71.4,55.7247 72,56.3442 72.6,56.9676 73.2,57.5949 73.8,58.2263 74.4,58.8616 75,59.5009 75.6,60.1442 76.2,60.7915 76.8,61.4427 77.4,62.0979 78,62.7571 78.6,63.4203 79.2,64.0874 79.8,64.7585 80.4,65.4335 81,66.1126 81.6,66.7956 82.2,67.4826 82.8,68.1735 83.4,68.8684 84,69.5673 84.6,70.2701 85.2,70.9769 85.8,71.6877 86.4,72.4024 87,73.1211 87.6,73.8437 88.2,74.5704 88.8,75.3009 89.4,76.0355 90,76.7739 90.6,77.5164 91.2,78.2628 91.8,79.0131 92.4,79.7674 93,80.5257 93.6,81.2879 94.2,82.0541 94.8,82.8242 95.4,83.5983 96,84.3763 96.6,85.1583 97.2,85.9442 97.8,86.7341 98.4,87.5279 99,88.3256 99.6,89.1273 100.2,89.933 100.8,90.7426 101.4,91.5561 102,92.3736 102.6,93.195 103.2,94.0203 103.8,94.8496 104.4,95.6828 105,96.52 105.6,97.3611 106.2,98.2061 106.8,99.0551 107.4,99.908 108,100.765 108.6,101.626 109.2,102.49 109.8,103.359 110.4,104.231 111,105.108 111.6,105.988 112.2,106.873 112.8,107.761 113.4,108.653 114,109.549 114.6,110.449 115.2,111.353 115.8,112.261 116.4,113.173 117,114.089 117.6,115.008 118.2,115.932 118.8,116.859 119.4,117.79 120,118.726 120.6,119.665 121.2,120.608 121.8,121.555 122.4,122.506 123,123.461 123.6,124.419 124.2,125.382 124.8,126.349 125.4,127.319 126,128.293 126.6,129.272 127.2,130.254 127.8,131.24 128.4,132.23 129,133.224 129.6,134.221 130.2,135.223 130.8,136.229 131.4,137.238 132,138.251 132.6,139.269 133.2,140.29 133.8,141.315 134.4,142.343 135,143.376 135.6,144.413 136.2,145.453 136.8,146.498 137.4,147.546 138,148.598 138.6,149.654 139.2,150.714 139.8,151.778 140.4,152.846 141,153.917 141.6,154.993 142.2,156.072 142.8,157.155 143.4,158.242 144,159.333 144.6,160.428 145.2,161.527 145.8,162.629 146.4,163.736 147,164.846 147.6,165.96 148.2,167.078 148.8,168.2 149.4,169.326 150,170.455 150.6,171.589 151.2,172.726 151.8,173.867 152.4,175.012 153,176.161 153.6,177.313 154.2,178.47 154.8,179.63 155.4,180.795 156,181.963 156.6,183.135 157.2,184.31 157.8,185.49 158.4,186.673 159,187.861 159.6,189.052 160.2,190.247 160.8,191.446 161.4,192.648 162,193.855 162.6,195.065 163.2,196.279 163.8,197.497 164.4,198.719 165,199.945 165.6,201.174 166.2,202.407 166.8,203.644 167.4,204.885 168,206.13 168.6,207.379 169.2,208.631 169.8,209.887 170.4,211.147 171,212.411 171.6,213.679 172.2,214.95 172.8,216.225 173.4,217.504 174,218.787 174.6,220.074 175.2,221.365 175.8,222.659 176.4,223.957 177,225.259 177.6,226.565 178.2,227.874 178.8,229.187 179.4,230.504 180,231.825 180.6,233.15 181.2,234.478 181.8,235.811 182.4,237.147 183,238.487 183.6,239.83 184.2,241.178 184.8,242.529 185.4,243.884 186,245.243 186.6,246.605 187.2,247.971 187.8,249.342 188.4,250.715 189,252.093 189.6,253.474 190.2,254.86 190.8,256.249 191.4,257.641 192,259.038 192.6,260.438 193.2,261.842 193.8,263.25 194.4,264.661 195,266.077 195.6,267.496 196.2,268.919 196.8,270.345 197.4,271.776 198,273.21 198.6,274.647 199.2,276.089 199.8,277.534 200.4,278.983 201,280.436 201.6,281.893 202.2,283.353 202.8,284.817 203.4,286.285 204,287.756 204.6,289.232 205.2,290.711 205.8,292.193 206.4,293.68 207,295.17 207.6,296.664 208.2,298.162 208.8,299.663 209.4,301.168 210,302.677 210.6,304.19 211.2,305.706 211.8,307.226 212.4,308.75 213,310.277 213.6,311.808 214.2,313.343 214.8,314.881 215.4,316.424 216,317.97 216.6,319.519 217.2,321.073 217.8,322.63 218.4,324.191 219,325.755 219.6,327.323 220.2,328.895 220.8,330.471 221.4,332.05 222,333.633 222.6,335.22 223.2,336.81 223.8,338.404 224.4,340.002 225,341.603 225.6,343.208 226.2,344.817 226.8,346.429 227.4,348.046 228,349.665 228.6,351.289 229.2,352.916 229.8,354.547 230.4,356.181 231,357.819 231.6,359.461 232.2,361.107 232.8,362.756 233.4,364.409 234,366.065 234.6,367.725 235.2,369.389 235.8,371.057 236.4,372.728 237,374.402 237.6,376.081 238.2,377.763 238.8,379.449 239.4,381.138 240,382.831 240.6,384.528 241.2,386.228 241.8,387.932 242.4,389.639 243,391.35 243.6,393.065 244.2,394.784 244.8,396.506 245.4,398.231 246,399.961 246.6,401.694 247.2,403.43 247.8,405.171 248.4,406.914 249,408.662 249.6,410.413 250.2,412.168 250.8,413.926 251.4,415.688 252,417.453 252.6,419.222 253.2,420.995 253.8,422.772 254.4,424.551 255,426.335 255.6,428.122 256.2,429.913 256.8,431.707 257.4,433.505 258,435.307 258.6,437.112 259.2,438.921 259.8,440.733 260.4,442.549 261,444.368 261.6,446.191 262.2,448.018 262.8,449.848 263.4,451.682 264,453.519 264.6,455.36 265.2,457.205 265.8,459.053 266.4,460.905 267,462.76 267.6,464.619 268.2,466.481 268.8,468.347 269.4,470.216 270,472.089 270.6,473.966 271.2,475.846 271.8,477.73 272.4,479.617 273,481.508 273.6,483.402 274.2,485.3 274.8,487.202 275.4,489.107 276,491.015 276.6,492.927 277.2,494.843 277.8,496.762 278.4,498.685 279,500.611 279.6,502.54 280.2,504.474 280.8,506.411 281.4,508.351 282,510.295 282.6,512.242 283.2,514.193 283.8,516.147 284.4,518.105 285,520.067 285.6,522.032 286.2,524 286.8,525.972 287.4,527.947 288,529.926 288.6,531.909 289.2,533.895 289.8,535.884 290.4,537.877 291,539.874 291.6,541.874 292.2,543.877 292.8,545.884 293.4,547.895 294,549.908 294.6,551.926 295.2,553.947 295.8,555.971 296.4,557.999 297,560.03 297.6,562.065 298.2,564.103 298.8,566.145 299.4,568.19 300,570.239 300.6,570.239 301.2,568.19 301.8,566.145 302.4,564.103 303,562.065 303.6,560.03 304.2,557.999 304.8,555.971 305.4,553.947 306,551.926 306.6,549.908 307.2,547.895 307.8,545.884 308.4,543.877 309,541.874 309.6,539.874 310.2,537.877 310.8,535.884 311.4,533.895 312,531.909 312.6,529.926 313.2,527.947 313.8,525.972 314.4,524 315,522.032 315.6,520.067 316.2,518.105 316.8,516.147 317.4,514.193 318,512.242 318.6,510.295 319.2,508.351 319.8,506.411 320.4,504.474 321,502.54 321.6,500.611 322.2,498.685 322.8,496.762 323.4,494.843 324,492.927 324.6,491.015 325.2,489.107 325.8,487.202 326.4,485.3 327,483.402 327.6,481.508 328.2,479.617 328.8,477.73 329.4,475.846 330,473.966 330.6,472.089 331.2,470.216 331.8,468.347 332.4,466.481 333,464.619 333.6,462.76 334.2,460.905 334.8,459.053 335.4,457.205 336,455.36 336.6,453.519 337.2,451.682 337.8,449.848 338.4,448.018 339,446.191 339.6,444.368 340.2,442.549 340.8,440.733 341.4,438.921 342,437.112 342.6,435.307 343.2,433.505 343.8,431.707 344.4,429.913 345,428.122 345.6,426.335 346.2,424.551 346.8,422.772 347.4,420.995 348,419.222 348.6,417.453 349.2,415.688 349.8,413.926 350.4,412.168 351,410.413 351.6,408.662 352.2,406.914 352.8,405.171 353.4,403.43 354,401.694 354.6,399.961 355.2,398.231 355.8,396.506 356.4,394.784 357,393.065 357.6,391.35 358.2,389.639 358.8,387.932 359.4,386.228 360,384.528 360.6,382.831 361.2,381.138 361.8,379.449 362.4,377.763 363,376.081 363.6,374.402 364.2,372.728 364.8,371.057 365.4,369.389 366,367.725 366.6,366.065 367.2,364.409 367.8,362.756 368.4,361.107 369,359.461 369.6,357.819 370.2,356.181 370.8,354.547 371.4,352.916 372,351.289 372.6,349.665 373.2,348.046 373.8,346.429 374.4,344.817 375,343.208 375.6,341.603 376.2,340.002 376.8,338.404 377.4,336.81 378,335.22 378.6,333.633 379.2,332.05 379.8,330.471 380.4,328.895 381,327.323 381.6,325.755 382.2,324.191 382.8,322.63 383.4,321.073 384,319.519 384.6,317.97 385.2,316.424 385.8,314.881 386.4,313.343 387,311.808 387.6,310.277 388.2,308.75 388.8,307.226 389.4,305.706 390,304.19 390.6,302.677 391.2,301.168 391.8,299.663 392.4,298.162 393,296.664 393.6,295.17 394.2,293.68 394.8,292.193 395.4,290.711 396,289.232 396.6,287.756 397.2,286.285 397.8,284.817 398.4,283.353 399,281.893 399.6,280.436 400.2,278.983 400.8,277.534 401.4,276.089 402,274.647 402.6,273.21 403.2,271.776 403.8,270.345 404.4,268.919 405,267.496 405.6,266.077 406.2,264.661 406.8,263.25 407.4,261.842 408,260.438 408.6,259.038 409.2,257.641 409.8,256.249 410.4,254.86 411,253.474 411.6,252.093 412.2,250.715 412.8,249.342 413.4,247.971 414,246.605 414.6,245.243 415.2,243.884 415.8,242.529 416.4,241.178 417,239.83 417.6,238.487 418.2,237.147 418.8,235.811 419.4,234.478 420,233.15 420.6,231.825 421.2,230.504 421.8,229.187 422.4,227.874 423,226.565 423.6,225.259 424.2,223.957 424.8,222.659 425.4,221.365 426,220.074 426.6,218.787 427.2,217.504 427.8,216.225 428.4,214.95 429,213.679 429.6,212.411 430.2,211.147 430.8,209.887 431.4,208.631 432,207.379 432.6,206.13 433.2,204.885 433.8,203.644 434.4,202.407 435,201.174 435.6,199.945 436.2,198.719 436.8,197.497 437.4,196.279 438,195.065 438.6,193.855 439.2,192.648 439.8,191.446 440.4,190.247 441,189.052 441.6,187.861 442.2,186.673 442.8,185.49 443.4,184.31 444,183.135 444.6,181.963 445.2,180.795 445.8,179.63 446.4,178.47 447,177.313 447.6,176.161 448.2,175.012 448.8,173.867 449.4,172.726 450,171.589 450.6,170.455 451.2,169.326 451.8,168.2 452.4,167.078 453,165.96 453.6,164.846 454.2,163.736 454.8,162.629 455.4,161.527 456,160.428 456.6,159.333 457.2,158.242 457.8,157.155 458.4,156.072 459,154.993 459.6,153.917 460.2,152.846 460.8,151.778 461.4,150.714 462,149.654 462.6,148.598 463.2,147.546 463.8,146.498 464.4,145.453 465,144.413 465.6,143.376 466.2,142.343 466.8,141.315 467.4,140.29 468,139.269 468.6,138.251 469.2,137.238 469.8,136.229 470.4,135.223 471,134.221 471.6,133.224 472.2,132.23 472.8,131.24 473.4,130.254 474,129.272 474.6,128.293 475.2,127.319 475.8,126.349 476.4,125.382 477,124.419 477.6,123.461 478.2,122.506 478.8,121.555 479.4,120.608 480,119.665 480.6,118.726 481.2,117.79 481.8,116.859 482.4,115.932 483,115.008 483.6,114.089 484.2,113.173 484.8,112.261 485.4,111.353 486,110.449 486.6,109.549 487.2,108.653 487.8,107.761 488.4,106.873 489,105.988 489.6,105.108 490.2,104.231 490.8,103.359 491.4,102.49 492,101.626 492.6,100.765 493.2,99.908 493.8,99.0551 494.4,98.2061 495,97.3611 495.6,96.52 496.2,95.6828 496.8,94.8496 497.4,94.0203 498,93.195 498.6,92.3736 499.2,91.5561 499.8,90.7426 500.4,89.933 501,89.1273 501.6,88.3256 502.2,87.5279 502.8,86.7341 503.4,85.9442 504,85.1583 504.6,84.3763 505.2,83.5983 505.8,82.8242 506.4,82.0541 507,81.2879 507.6,80.5257 508.2,79.7674 508.8,79.0131 509.4,78.2628 510,77.5164 510.6,76.7739 511.2,76.0355 511.8,75.3009 512.4,74.5704 513,73.8437 513.6,73.1211 514.2,72.4024 514.8,71.6877 515.4,70.9769 516,70.2701 516.6,69.5673 517.2,68.8684 517.8,68.1735 518.4,67.4826 519,66.7956 519.6,66.1126 520.2,65.4335 520.8,64.7585 521.4,64.0874 522,63.4203 522.6,62.7571 523.2,62.0979 523.8,61.4427 524.4,60.7915 525,60.1442 525.6,59.5009 526.2,58.8616 526.8,58.2263 527.4,57.5949 528,56.9676 528.6,56.3442 529.2,55.7247 529.8,55.1093 530.4,54.4978 531,53.8904 531.6,53.2869 532.2,52.6874 532.8,52.0918 533.4,51.5003 534,50.9127 534.6,50.3292 535.2,49.7496 535.8,49.174 536.4,48.6023 537,48.0347 537.6,47.4711 538.2,46.9114 538.8,46.3558 539.4,45.8041 540,45.2564 540.6,44.7127 541.2,44.173 541.8,43.6373 542.4,43.1056 543,42.5779 543.6,42.0542 544.2,41.5345 544.8,41.0187 545.4,40.507 546,39.9993 546.6,39.4955 547.2,38.9958 547.8,38.5 548.4,38.0083 549,37.5206 549.6,37.0368 550.2,36.5571 550.8,36.0813 551.4,35.6096 552,35.1418 552.6,34.6781 553.2,34.2184 553.8,33.7626 554.4,33.3109 555,32.8632 555.6,32.4195 556.2,31.9798 556.8,31.5441 557.4,31.1124 558,30.6847 558.6,30.261 559.2,29.8413 559.8,29.4257 560.4,29.014 561,28.6063 561.6,28.2027 562.2,27.8031 562.8,27.4075 563.4,27.0159 564,26.6283 564.6,26.2447 565.2,25.8651 565.8,25.4896 566.4,25.118 567,24.7505 567.6,24.387 568.2,24.0275 568.8,23.672 569.4,23.3205 570,22.9731 570.6,22.6296 571.2,22.2902 571.8,21.9548 572.4,21.6234 573,21.296 573.6,20.9727 574.2,20.6533 574.8,20.338 575.4,20.0267 576,19.7195 576.6,19.4162 577.2,19.117 577.8,18.8218 578.4,18.5306 579,18.2434 579.6,17.9602 580.2,17.6811 580.8,17.406 581.4,17.1349 582,16.8678 582.6,16.6048 583.2,16.3458 583.8,16.0908 584.4,15.8398 585,15.5929 585.6,15.3499 586.2,15.111 586.8,14.8762 587.4,14.6453 588,14.4185 588.6,14.1957 589.2,13.9769 589.8,13.7622 590.4,13.5515 591,13.3448 591.6,13.1421 592.2,12.9435 592.8,12.7488 593.4,12.5583 594,12.3717 594.6,12.1892 595.2,12.0107 595.8,11.8362 596.4,11.6658 597,11.4993 597.6,11.337 598.2,11.1786 598.8,11.0243 599.4,10.874 600,10.7277 " />
   <polyline fill="none" stroke=" slategrey " stroke-width=" 9 " points=" " />
   <polyline fill="none" stroke=" violet " stroke-width=" 6 " points=" " />
   <polyline fill="none" stroke=" olive " stroke-width=" 3 " points=" 0.6,10.7277 1.2,10.874 1.8,11.0243 2.4,11.1786 3,11.337 3.6,11.4993 4.2,11.6658 4.8,11.8362 5.4,12.0107 6,12.1892 6.6,12.3717 7.2,12.5583 7.8,12.7488 8.4,12.9435 9,13.1421 9.6,13.3448 10.2,13.5515 10.8,13.7622 11.4,13.9769 12,14.1957 12.6,14.4185 13.2,14.6453 13.8,14.8762 14.4,15.111 15,15.3499 15.6,15.5929 16.2,15.8398 16.8,16.0908 17.4,16.3458 18,16.6048 18.6,16.8678 19.2,17.1349 19.8,17.406 20.4,17.6811 21,17.9602 21.6,18.2434 22.2,18.5306 22.8,18.8218 23.4,19.117 24,19.4162 24.6,19.7195 25.2,20.0267 25.8,20.338 26.4,20.6533 27,20.9727 27.6,21.296 28.2,21.6234 28.8,21.9548 29.4,22.2902 30,22.6296 30.6,22.9731 31.2,23.3205 31.8,23.672 32.4,24.0275 33,24.387 33.6,24.7505 34.2,25.118 34.8,25.4896 35.4,25.8651 36,26.2447 36.6,26.6283 37.2,27.0159 37.8,27.4075 38.4,27.8031 39,28.2027 39.6,28.6063 40.2,29.014 40.8,29.4257 41.4,29.8413 42,30.261 42.6,30.6847 43.2,31.1124 43.8,31.5441 44.4,31.9798 45,32.4195 45.6,32.8632 46.2,33.3109 46.8,33.7626 47.4,34.2184 48,34.6781 48.6,35.1418 49.2,35.6096 49.8,36.0813 50.4,36.5571 51,37.0368 51.6,37.5206 52.2,38.0083 52.8,38.5 53.4,38.9958 54,39.4955 54.6,39.9993 55.2,40.507 55.8,41.0187 56.4,41.5345 57,42.0542 57.6,42.5779 58.2,43.1056 58.8,43.6373 59.4,44.173 60,44.7127 60.6,45.2564 61.2,45.8041 61.8,46.3558 62.4,46.9114 63,47.4711 63.6,48.0347 64.2,48.6023 64.8,49.174 65.4,49.7496 66,50.3292 66.6,50.9127 67.2,51.5003 67.8,52.0918 68.4,52.6874 69,53.2869 69.6,53.8904 70.2,54.4978 70.8,55.1093 71.4,55.7247 72,56.3442 72.6,56.9676 73.2,57.5949 73.8,58.2263 74.4,58.8616 75,59.5009 75.6,60.1442 76.2,60.7915 76.8,61.4427 77.4,62.0979 78,62.7571 78.6,63.4203 79.2,64.0874 79.8,64.7585 80.4,65.4335 81,66.1126 81.6,66.7956 82.2,67.4826 82.8,68.1735 83.4,68.8684 84,69.5673 84.6,70.2701 85.2,70.9769 85.8,71.6877 86.4,72.4024 87,73.1211 87.6,73.8437 88.2,74.5704 88.8,75.3009 89.4,76.0355 90,76.7739 90.6,77.5164 91.2,78.2628 91.8,79.0131 92.4,79.7674 93,80.5257 93.6,81.2879 94.2,82.0541 94.8,82.8242 95.4,83.5983 96,84.3763 96.6,85.1583 97.2,85.9442 97.8,86.7341 98.4,87.5279 99,88.3256 99.6,89.1273 100.2,89.933 100.8,90.7426 101.4,91.5561 102,92.3736 102.6,93.195 103.2,94.0203 103.8,94.8496 104.4,95.6828 105,96.52 105.6,97.3611 106.2,98.2061 106.8,99.0551 107.4,99.908 108,100.765 108.6,101.626 109.2,102.49 109.8,103.359 110.4,104.231 111,105.108 111.6,105.988 112.2,106.873 112.8,107.761 113.4,108.653 114,109.549 114.6,110.449 115.2,111.353 115.8,112.261 116.4,113.173 117,114.089 117.6,115.008 118.2,115.932 118.8,116.859 119.4,117.79 120,118.726 120.6,119.665 121.2,120.608 121.8,121.555 122.4,122.506 123,123.461 123.6,124.419 124.2,125.382 124.8,126.349 125.4,127.319 126,128.293 126.6,129.272 127.2,130.254 127.8,131.24 128.4,132.23 129,133.224 129.6,134.221 130.2,135.223 130.8,136.229 131.4,137.238 132,138.251 132.6,139.269 133.2,140.29 133.8,141.315 134.4,142.343 135,143.376 135.6,144.413 136.2,145.453 136.8,146.498 137.4,147.546 138,148.598 138.6,149.654 139.2,150.714 139.8,151.778 140.4,152.846 141,153.917 141.6,154.993 142.2,156.072 142.8,157.155 143.4,158.242 144,159.333 144.6,160.428 145.2,161.527 145.8,162.629 146.4,163.736 147,164.846 147.6,165.96 148.2,167.078 148.8,168.2 149.4,169.326 150,170.455 150.6,171.589 151.2,172.726 151.8,173.867 152.4,175.012 153,176.161 153.6,177.313 154.2,178.47 154.8,179.63 155.4,180.795 156,181.963 156.6,183.135 157.2,184.31 157.8,185.49 158.4,186.673 159,187.861 159.6,189.052 160.2,190.247 160.8,191.446 161.4,192.648 162,193.855 162.6,195.065 163.2,196.279 163.8,197.497 164.4,198.719 165,199.945 165.6,201.174 166.2,202.407 166.8,203.644 167.4,204.885 168,206.13 168.6,207.379 169.2,208.631 169.8,209.887 170.4,211.147 171,212.411 171.6,213.679 172.2,214.95 172.8,216.225 173.4,217.504 174,218.787 174.6,220.074 175.2,221.365 175.8,222.659 176.4,223.957 177,225.259 177.6,226.565 178.2,227.874 178.8,229.187 179.4,230.504 180,231.825 180.6,233.15 181.2,234.478 181.8,235.811 182.4,237.147 183,238.487 183.6,239.83 184.2,241.178 184.8,242.529 185.4,243.884 186,245.243 186.6,246.605 187.2,247.971 187.8,249.342 188.4,250.715 189,252.093 189.6,253.474 190.2,254.86 190.8,256.249 191.4,257.641 192,259.038 192.6,260.438 193.2,261.842 193.8,263.25 194.4,264.661 195,266.077 195.6,267.496 196.2,268.919 196.8,270.345 197.4,271.776 198,273.21 198.6,274.647 199.2,276.089 199.8,277.534 200.4,278.983 201,280.436 201.6,281.893 202.2,283.353 202.8,284.817 203.4,286.285 204,287.756 204.6,289.232 205.2,290.711 205.8,292.193 206.4,293.68 207,295.17 207.6,296.664 208.2,298.162 208.8,299.663 209.4,301.168 210,302.677 210.6,304.19 211.2,305.706 211.8,307.226 212.4,308.75 213,310.277 213.6,311.808 214.2,313.343 214.8,314.881 215.4,316.424 216,317.97 216.6,319.519 217.2,321.073 217.8,322.63 218.4,324.191 219,325.755 219.6,327.323 220.2,328.895 220.8,330.471 221.4,332.05 222,333.633 222.6,335.22 223.2,336.81 223.8,338.404 224.4,340.002 225,341.603 225.6,343.208 226.2,344.817 226.8,346.429 227.4,348.046 228,349.665 228.6,351.289 229.2,352.916 229.8,354.547 230.4,356.181 231,357.819 231.6,359.461 232.2,361.107 232.8,362.756 233.4,364.409 234,366.065 234.6,367.725 235.2,369.389 235.8,371.057 236.4,372.728 237,374.402 237.6,376.081 238.2,377.763 238.8,379.449 239.4,381.138 240,382.831 240.6,384.528 241.2,386.228 241.8,387.932 242.4,389.639 243,391.35 243.6,393.065 244.2,394.784 244.8,396.506 245.4,398.231 246,399.961 246.6,401.694 247.2,403.43 247.8,405.171 248.4,406.914 249,408.662 249.6,410.413 250.2,412.168 250.8,413.926 251.4,415.688 252,417.453 252.6,419.222 253.2,420.995 253.8,422.772 254.4,424.551 255,426.335 255.6,428.122 256.2,429.913 256.8,431.707 257.4,433.505 258,435.307 258.6,437.112 259.2,438.921 259.8,440.733 260.4,442.549 261,444.368 261.6,446.191 262.2,448.018 262.8,449.848 263.4,451.682 264,453.519 264.6,455.36 265.2,457.205 265.8,459.053 266.4,460.905 267,462.76 267.6,464.619 268.2,466.481 268.8,468.347 269.4,470.216 270,472.089 270.6,473.966 271.2,475.846 271.8,477.73 272.4,479.617 273,481.508 273.6,483.402 274.2,485.3 274.8,487.202 275.4,489.107 276,491.015 276.6,492.927 277.2,494.843 277.8,496.762 278.4,498.685 279,500.611 279.6,502.54 280.2,504.474 280.8,506.411 281.4,508.351 282,510.295 282.6,512.242 283.2,514.193 283.8,516.147 284.4,518.105 285,520.067 285.6,522.032 286.2,524 286.8,525.972 287.4,527.947 288,529.926 288.6,531.909 289.2,533.895 289.8,535.884 290.4,537.877 291,539.874 291.6,541.874 292.2,543.877 292.8,545.884 293.4,547.895 294,549.908 294.6,551.926 295.2,553.947 295.8,555.971 296.4,557.999 297,560.03 297.6,562.065 298.2,564.103 298.8,566.145 299.4,568.19 300,570.239 300.6,570.239 301.2,568.19 301.8,566.145 302.4,564.103 303,562.065 303.6,560.03 304.2,557.999 304.8,555.971 305.4,553.947 306,551.926 306.6,549.908 307.2,547.895 307.8,545.884 308.4,543.877 309,541.874 309.6,539.874 310.2,537.877 310.8,535.884 311.4,533.895 312,531.909 312.6,529.926 313.2,527.947 313.8,525.972 314.4,524 315,522.032 315.6,520.067 316.2,518.105 316.8,516.147 317.4,514.193 318,512.242 318.6,510.295 319.2,508.351 319.8,506.411 320.4,504.474 321,502.54 321.6,500.611 322.2,498.685 322.8,496.762 323.4,494.843 324,492.927 324.6,491.015 325.2,489.107 325.8,487.202 326.4,485.3 327,483.402 327.6,481.508 328.2,479.617 328.8,477.73 329.4,475.846 330,473.966 330.6,472.089 331.2,470.216 331.8,468.347 332.4,466.481 333,464.619 333.6,462.76 334.2,460.905 334.8,459.053 335.4,457.205 336,455.36 336.6,453.519 337.2,451.682 337.8,449.848 338.4,448.018 339,446.191 339.6,444.368 340.2,442.549 340.8,440.733 341.4,438.921 342,437.112 342.6,435.307 343.2,433.505 343.8,431.707 344.4,429.913 345,428.122 345.6,426.335 346.2,424.551 346.8,422.772 347.4,420.995 348,419.222 348.6,417.453 349.2,415.688 349.8,413.926 350.4,412.168 351,410.413 351.6,408.662 352.2,406.914 352.8,405.171 353.4,403.43 354,401.694 354.6,399.961 355.2,398.231 355.8,396.506 356.4,394.784 357,393.065 357.6,391.35 358.2,389.639 358.8,387.932 359.4,386.228 360,384.528 360.6,382.831 361.2,381.138 361.8,379.449 362.4,377.763 363,376.081 363.6,374.402 364.2,372.728 364.8,371.057 365.4,369.389 366,367.725 366.6,366.065 367.2,364.409 367.8,362.756 368.4,361.107 369,359.461 369.6,357.819 370.2,356.181 370.8,354.547 371.4,352.916 372,351.289 372.6,349.665 373.2,348.046 373.8,346.429 374.4,344.817 375,343.208 375.6,341.603 376.2,340.002 376.8,338.404 377.4,336.81 378,335.22 378.6,333.633 379.2,332.05 379.8,330.471 380.4,328.895 381,327.323 381.6,325.755 382.2,324.191 382.8,322.63 383.4,321.073 384,319.519 384.6,317.97 385.2,316.424 385.8,314.881 386.4,313.343 387,311.808 387.6,310.277 388.2,308.75 388.8,307.226 389.4,305.706 390,304.19 390.6,302.677 391.2,301.168 391.8,299.663 392.4,298.162 393,296.664 393.6,295.17 394.2,293.68 394.8,292.193 395.4,290.711 396,289.232 396.6,287.756 397.2,286.285 397.8,284.817 398.4,283.353 399,281.893 399.6,280.436 400.2,278.983 400.8,277.534 401.4,276.089 402,274.647 402.6,273.21 403.2,271.776 403.8,270.345 404.4,268.919 405,267.496 405.6,266.077 406.2,264.661 406.8,263.25 407.4,261.842 408,260.438 408.6,259.038 409.2,257.641 409.8,256.249 410.4,254.86 411,253.474 411.6,252.093 412.2,250.715 412.8,249.342 413.4,247.971 414,246.605 414.6,245.243 415.2,243.884 415.8,242.529 416.4,241.178 417,239.83 417.6,238.487 418.2,237.147 418.8,235.811 419.4,234.478 420,233.15 420.6,231.825 421.2,230.504 421.8,229.187 422.4,227.874 423,226.565 423.6,225.259 424.2,223.957 424.8,222.659 425.4,221.365 426,220.074 426.6,218.787 427.2,217.504 427.8,216.225 428.4,214.95 429,213.679 429.6,212.411 430.2,211.147 430.8,209.887 431.4,208.631 432,207.379 432.6,206.13 433.2,204.885 433.8,203.644 434.4,202.407 435,201.174 435.6,199.945 436.2,198.719 436.8,197.497 437.4,196.279 438,195.065 438.6,193.855 439.2,192.648 439.8,191.446 440.4,190.247 441,189.052 441.6,187.861 442.2,186.673 442.8,185.49 443.4,184.31 444,183.135 444.6,181.963 445.2,180.795 445.8,179.63 446.4,178.47 447,177.313 447.6,176.161 448.2,175.012 448.8,173.867 449.4,172.726 450,171.589 450.6,170.455 451.2,169.326 451.8,168.2 452.4,167.078 453,165.96 453.6,164.846 454.2,163.736 454.8,162.629 455.4,161.527 456,160.428 456.6,159.333 457.2,158.242 457.8,157.155 458.4,156.072 459,154.993 459.6,153.917 460.2,152.846 460.8,151.778 461.4,150.714 462,149.654 462.6,148.598 463.2,147.546 463.8,146.498 464.4,145.453 465,144.413 465.6,143.376 466.2,142.343 466.8,141.315 467.4,140.29 468,139.269 468.6,138.251 469.2,137.238 469.8,136.229 470.4,135.223 471,134.221 471.6,133.224 472.2,132.23 472.8,131.24 473.4,130.254 474,129.272 474.6,128.293 475.2,127.319 475.8,126.349 476.4,125.382 477,124.419 477.6,123.461 478.2,122.506 478.8,121.555 479.4,120.608 480,119.665 480.6,118.726 481.2,117.79 481.8,116.859 482.4,115.932 483,115.008 483.6,114.089 484.2,113.173 484.8,112.261 485.4,111.353 486,110.449 486.6,109.549 487.2,108.653 487.8,107.761 488.4,106.873 489,105.988 489.6,105.108 490.2,104.231 490.8,103.359 491.4,102.49 492,101.626 492.6,100.765 493.2,99.908 493.8,99.0551 494.4,98.2061 495,97.3611 495.6,96.52 496.2,95.6828 496.8,94.8496 497.4,94.0203 498,93.195 498.6,92.3736 499.2,91.5561 499.8,90.7426 500.4,89.933 501,89.1273 501.6,88.3256 502.2,87.5279 502.8,86.7341 503.4,85.9442 504,85.1583 504.6,84.3763 505.2,83.5983 505.8,82.8242 506.4,82.0541 507,81.2879 507.6,80.5257 508.2,79.7674 508.8,79.0131 509.4,78.2628 510,77.5164 510.6,76.7739 511.2,76.0355 511.8,75.3009 512.4,74.5704 513,73.8437 513.6,73.1211 514.2,72.4024 514.8,71.6877 515.4,70.9769 516,70.2701 516.6,69.5673 517.2,68.8684 517.8,68.1735 518.4,67.4826 519,66.7956 519.6,66.1126 520.2,65.4335 520.8,64.7585 521.4,64.0874 522,63.4203 522.6,62.7571 523.2,62.0979 523.8,61.4427 524.4,60.7915 525,60.1442 525.6,59.5009 526.2,58.8616 526.8,58.2263 527.4,57.5949 528,56.9676 528.6,56.3442 529.2,55.7247 529.8,55.1093 530.4,54.4978 531,53.8904 531.6,53.2869 532.2,52.6874 532.8,52.0918 533.4,51.5003 534,50.9127 534.6,50.3292 535.2,49.7496 535.8,49.174 536.4,48.6023 537,48.0347 537.6,47.4711 538.2,46.9114 538.8,46.3558 539.4,45.8041 540,45.2564 540.6,44.7127 541.2,44.173 541.8,43.6373 542.4,43.1056 543,42.5779 543.6,42.0542 544.2,41.5345 544.8,41.0187 545.4,40.507 546,39.9993 546.6,39.4955 547.2,38.9958 547.8,38.5 548.4,38.0083 549,37.5206 549.6,37.0368 550.2,36.5571 550.8,36.0813 551.4,35.6096 552,35.1418 552.6,34.6781 553.2,34.2184 553.8,33.7626 554.4,33.3109 555,32.8632 555.6,32.4195 556.2,31.9798 556.8,31.5441 557.4,31.1124 558,30.6847 558.6,30.261 559.2,29.8413 559.8,29.4257 560.4,29.014 561,28.6063 561.6,28.2027 562.2,27.8031 562.8,27.4075 563.4,27.0159 564,26.6283 564.6,26.2447 565.2,25.8651 565.8,25.4896 566.4,25.118 567,24.7505 567.6,24.387 568.2,24.0275 568.8,23.672 569.4,23.3205 570,22.9731 570.6,22.6296 571.2,22.2902 571.8,21.9548 572.4,21.6234 573,21.296 573.6,20.9727 574.2,20.6533 574.8,20.338 575.4,20.0267 576,19.7195 576.6,19.4162 577.2,19.117 577.8,18.8218 578.4,18.5306 579,18.2434 579.6,17.9602 580.2,17.6811 580.8,17.406 581.4,17.1349 582,16.8678 582.6,16.6048 583.2,16.3458 583.8,16.0908 584.4,15.8398 585,15.5929 585.6,15.3499 586.2,15.111 586.8,14.8762 587.4,14.6453 588,14.4185 588.6,14.1957 589.2,13.9769 589.8,13.7622 590.4,13.5515 591,13.3448 591.6,13.1421 592.2,12.9435 592.8,12.7488 593.4,12.5583 594,12.3717 594.6,12.1892 595.2,12.0107 595.8,11.8362 596.4,11.6658 597,11.4993 597.6,11.337 598.2,11.1786 598.8,11.0243 599.4,10.874 600,10.7277 " />

<!--Draw the X and Y axes -->
<polyline fill="none" stroke="black" stroke-width="6"  points=" 600,0 0,0 0, 600" />
<polyline fill="none" stroke="black" stroke-width="1"  points=" 0 600  600 600  600 0" />
<!-- -->


<!--Draw labels and tics for X axis -->

<line fill="none" stroke="black"  stroke-width="6"  x1="0.5" y1="0" x2="0.5" y2="-20" />
<text transform="scale(1,-1)" font-family="sans-serif" font-size="30" x="-24.5" y="45" >0</text>
<line fill="none" stroke="black"  stroke-width="6"  x1="120.5" y1="0" x2="120.5" y2="-20" />
<text transform="scale(1,-1)" font-family="sans-serif" font-size="30" x="95.5" y="45" >200</text>
<line fill="none" stroke="black"  stroke-width="6"  x1="240.5" y1="0" x2="240.5" y2="-20" />
<text transform="scale(1,-1)" font-family="sans-serif" font-size="30" x="215.5" y="45" >400</text>
<line fill="none" stroke="black"  stroke-width="6"  x1="360.5" y1="0" x2="360.5" y2="-20" />
<text transform="scale(1,-1)" font-family="sans-serif" font-size="30" x="335.5" y="45" >600</text>
<line fill="none" stroke="black"  stroke-width="6"  x1="480.5" y1="0" x2="480.5" y2="-20" />
<text transform="scale(1,-1)" font-family="sans-serif" font-size="30" x="455.5" y="45" >800</text>
<line fill="none" stroke="black"  stroke-width="6"  x1="600.5" y1="0" x2="600.5" y2="-20" />
<text transform="scale(1,-1)" font-family="sans-serif" font-size="30" x="575.5" y="45" >1000</text>


<!--Draw labels and tics for Y axis -->

<line fill="none" stroke="black" stroke-width="6" x1="0.0" y1="0" x2="-20" y2="0" />
<text transform="scale(1,-1)" text-anchor="end" font-family="sans-serif" font-size="30" x="-25" y="10" >21.7</text>
<line fill="none" stroke="black" stroke-width="6" x1="0.0" y1="100" x2="-20" y2="100" />
<text transform="scale(1,-1)" text-anchor="end" font-family="sans-serif" font-size="30" x="-25" y="-90" >21.9</text>
<line fill="none" stroke="black" stroke-width="6" x1="0.0" y1="200" x2="-20" y2="200" />
<text transform="scale(1,-1)" text-anchor="end" font-family="sans-serif" font-size="30" x="-25" y="-190" >22.1</text>
<line fill="none" stroke="black" stroke-width="6" x1="0.0" y1="300" x2="-20" y2="300" />
<text transform="scale(1,-1)" text-anchor="end" font-family="sans-serif" font-size="30" x="-25" y="-290" >22.3</text>
<line fill="none" stroke="black" stroke-width="6" x1="0.0" y1="400" x2="-20" y2="400" />
<text transform="scale(1,-1)" text-anchor="end" font-family="sans-serif" font-size="30" x="-25" y="-390" >22.5</text>
<line fill="none" stroke="black" stroke-width="6" x1="0.0" y1="500" x2="-20" y2="500" />
<text transform="scale(1,-1)" text-anchor="end" font-family="sans-serif" font-size="30" x="-25" y="-490" >22.7</text>
<line fill="none" stroke="black" stroke-width="6" x1="0.0" y1="600" x2="-20" y2="600" />
<text transform="scale(1,-1)" text-anchor="end" font-family="sans-serif" font-size="30" x="-25" y="-590" >22.9</text>

-->
</g>
</g>
<!-- Run Constants
CIRCLEPLOT bool false
DISTANCEPLOT bool true
PRINTDISTANCEDATA bool true
GLITCHESONLY bool false
PLOT 2doubles 3 4
PERTURBBY double 0.05
GLITCHLEVEL double 3
BOUNDARYWINDOW double 0.065
FRAMESPERPATH int 200
STEPSPERFRAME int 1000
TRIALS int 1
ALLBLACK bool true
FILEPREFIX string Fol
GRAPHSIZE int 0
BORDER int 0
PLOTSIZE int 0
G6LINEWIDTH int 3
DELONELINEWIDTH int 10
AXISWIDTH int 6
TICLENGTH int 20
VECTOR g6 
FOLLOWERMODE FollowerMode line
FIXRANDOMSEED fixRandomSeed false
RANDOMSEED int 19191
TIMESTAMP bool true
END end 




-->
</svg>
