<?xml version="1.0" standalone="no"?>
<!-- the width and height set the total pixel output of the image in the browser -->
<!-- whatever is within the viewbox will be remapped to show in this size -->
<svg width="900" height="800" viewBox="1 0 900 800"  version="1.1" xmlns="http://www.w3.org/2000/svg" xmlns:xlink="http://www.w3.org/1999/xlink">
 <desc>ID (and file name) = Fol_2018-05-16.16_22_30.29_28.svg </desc> 
<text x = "-750" y="50" transform="rotate(-90)"  font-family="sans-serif" font-size="40" stroke ="lightgray" fill="none"> PointDistanceFollower   May 16 2018</text>
 <text x="560" y="30" font-family="sans-serif" font-size="20">Wall time passed: 1222 msec.</text>
<text x="300" y="60"   font-family="sans-serif" font-size="20" fill="lightblue">S6  lightblue</text>
<text x="300" y="85"   font-family="sans-serif" font-size="20" fill="slategrey">NCDist  slategrey</text>
<text x="300" y="110"  font-family="sans-serif" font-size="20" fill="violet">D7  violet</text>
<text x="300" y="135"  font-family="sans-serif" font-size="20" fill="olive">CS6Dist  olive</text>

 <text x="140"  y="30"  font-family="sans-serif" font-size="20" >Fol_2018-05-16.16_22_30.29_28.svg  </text> 


 <!--DISTANCE PLOT BEGINS-->


<!-- the following will scale and place the distance plot -->
<g  transform="translate(0, 50) ">
<g transform="translate(150,700) scale(1 -1)">
<line fill="none" stroke="lightblue" stroke-width="12" x1="0" y1="582.506" x2="5.94059" y2="582.506" />
<line fill="none" stroke="lightblue" stroke-width="12" x1="5.94059" y1="582.506" x2="11.8812" y2="569.386" />
<line fill="none" stroke="lightblue" stroke-width="12" x1="11.8812" y1="569.386" x2="17.8218" y2="561.122" />
<line fill="none" stroke="lightblue" stroke-width="12" x1="17.8218" y1="561.122" x2="23.7624" y2="560.007" />
<line fill="none" stroke="lightblue" stroke-width="12" x1="23.7624" y1="560.007" x2="29.703" y2="559.909" />
<line fill="none" stroke="lightblue" stroke-width="12" x1="29.703" y1="559.909" x2="35.6436" y2="538.541" />
<line fill="none" stroke="lightblue" stroke-width="12" x1="35.6436" y1="538.541" x2="41.5842" y2="515.316" />
<line fill="none" stroke="lightblue" stroke-width="12" x1="41.5842" y1="515.316" x2="47.5248" y2="492.429" />
<line fill="none" stroke="lightblue" stroke-width="12" x1="47.5248" y1="492.429" x2="53.4653" y2="469.914" />
<line fill="none" stroke="lightblue" stroke-width="12" x1="53.4653" y1="469.914" x2="59.4059" y2="447.811" />
<line fill="none" stroke="lightblue" stroke-width="12" x1="59.4059" y1="447.811" x2="65.3465" y2="426.163" />
<line fill="none" stroke="lightblue" stroke-width="12" x1="65.3465" y1="426.163" x2="71.2871" y2="405.018" />
<line fill="none" stroke="lightblue" stroke-width="12" x1="71.2871" y1="405.018" x2="77.2277" y2="384.433" />
<line fill="none" stroke="lightblue" stroke-width="12" x1="77.2277" y1="384.433" x2="83.1683" y2="364.466" />
<line fill="none" stroke="lightblue" stroke-width="12" x1="83.1683" y1="364.466" x2="89.1089" y2="345.188" />
<line fill="none" stroke="lightblue" stroke-width="12" x1="89.1089" y1="345.188" x2="95.0495" y2="326.672" />
<line fill="none" stroke="lightblue" stroke-width="12" x1="95.0495" y1="326.672" x2="100.99" y2="309.003" />
<line fill="none" stroke="lightblue" stroke-width="12" x1="100.99" y1="309.003" x2="106.931" y2="292.272" />
<line fill="none" stroke="lightblue" stroke-width="12" x1="106.931" y1="292.272" x2="112.871" y2="276.577" />
<line fill="none" stroke="lightblue" stroke-width="12" x1="112.871" y1="276.577" x2="118.812" y2="262.024" />
<line fill="none" stroke="lightblue" stroke-width="12" x1="118.812" y1="262.024" x2="124.752" y2="248.724" />
<line fill="none" stroke="lightblue" stroke-width="12" x1="124.752" y1="248.724" x2="130.693" y2="236.792" />
<line fill="none" stroke="lightblue" stroke-width="12" x1="130.693" y1="236.792" x2="136.634" y2="226.342" />
<line fill="none" stroke="lightblue" stroke-width="12" x1="136.634" y1="226.342" x2="142.574" y2="217.486" />
<line fill="none" stroke="lightblue" stroke-width="12" x1="142.574" y1="217.486" x2="148.515" y2="210.328" />
<line fill="none" stroke="lightblue" stroke-width="12" x1="148.515" y1="210.328" x2="154.455" y2="204.956" />
<line fill="none" stroke="lightblue" stroke-width="12" x1="154.455" y1="204.956" x2="160.396" y2="201.443" />
<line fill="none" stroke="lightblue" stroke-width="12" x1="160.396" y1="201.443" x2="166.337" y2="199.838" />
<line fill="none" stroke="lightblue" stroke-width="12" x1="166.337" y1="199.838" x2="172.277" y2="196.135" />
<line fill="none" stroke="lightblue" stroke-width="12" x1="172.277" y1="196.135" x2="178.218" y2="174.985" />
<line fill="none" stroke="lightblue" stroke-width="12" x1="178.218" y1="174.985" x2="184.158" y2="154.755" />
<line fill="none" stroke="lightblue" stroke-width="12" x1="184.158" y1="154.755" x2="190.099" y2="135.611" />
<line fill="none" stroke="lightblue" stroke-width="12" x1="190.099" y1="135.611" x2="196.04" y2="117.75" />
<line fill="none" stroke="lightblue" stroke-width="12" x1="196.04" y1="117.75" x2="201.98" y2="101.401" />
<line fill="none" stroke="lightblue" stroke-width="12" x1="201.98" y1="101.401" x2="207.921" y2="86.8214" />
<line fill="none" stroke="lightblue" stroke-width="12" x1="207.921" y1="86.8214" x2="213.861" y2="74.2937" />
<line fill="none" stroke="lightblue" stroke-width="12" x1="213.861" y1="74.2937" x2="219.802" y2="64.1103" />
<line fill="none" stroke="lightblue" stroke-width="12" x1="219.802" y1="64.1103" x2="225.743" y2="56.5503" />
<line fill="none" stroke="lightblue" stroke-width="12" x1="225.743" y1="56.5503" x2="231.683" y2="51.8503" />
<line fill="none" stroke="lightblue" stroke-width="12" x1="231.683" y1="51.8503" x2="237.624" y2="50.0373" />
<line fill="none" stroke="lightblue" stroke-width="12" x1="237.624" y1="50.0373" x2="243.564" y2="48.4495" />
<line fill="none" stroke="lightblue" stroke-width="12" x1="243.564" y1="48.4495" x2="249.505" y2="48.6983" />
<line fill="none" stroke="lightblue" stroke-width="12" x1="249.505" y1="48.6983" x2="255.446" y2="50.7782" />
<line fill="none" stroke="lightblue" stroke-width="12" x1="255.446" y1="50.7782" x2="261.386" y2="54.6444" />
<line fill="none" stroke="lightblue" stroke-width="12" x1="261.386" y1="54.6444" x2="267.327" y2="60.2171" />
<line fill="none" stroke="lightblue" stroke-width="12" x1="267.327" y1="60.2171" x2="273.267" y2="67.3898" />
<line fill="none" stroke="lightblue" stroke-width="12" x1="273.267" y1="67.3898" x2="279.208" y2="76.0377" />
<line fill="none" stroke="lightblue" stroke-width="12" x1="279.208" y1="76.0377" x2="285.149" y2="86.0271" />
<line fill="none" stroke="lightblue" stroke-width="12" x1="285.149" y1="86.0271" x2="291.089" y2="97.2228" />
<line fill="none" stroke="lightblue" stroke-width="12" x1="291.089" y1="97.2228" x2="297.03" y2="109.494" />
<line fill="none" stroke="lightblue" stroke-width="12" x1="297.03" y1="109.494" x2="302.97" y2="122.718" />
<line fill="none" stroke="lightblue" stroke-width="12" x1="302.97" y1="122.718" x2="308.911" y2="136.782" />
<line fill="none" stroke="lightblue" stroke-width="12" x1="308.911" y1="136.782" x2="314.851" y2="151.586" />
<line fill="none" stroke="lightblue" stroke-width="12" x1="314.851" y1="151.586" x2="320.792" y2="167.04" />
<line fill="none" stroke="lightblue" stroke-width="12" x1="320.792" y1="167.04" x2="326.733" y2="183.065" />
<line fill="none" stroke="lightblue" stroke-width="12" x1="326.733" y1="183.065" x2="332.673" y2="199.594" />
<line fill="none" stroke="lightblue" stroke-width="12" x1="332.673" y1="199.594" x2="338.614" y2="216.565" />
<line fill="none" stroke="lightblue" stroke-width="12" x1="338.614" y1="216.565" x2="344.554" y2="229.746" />
<line fill="none" stroke="lightblue" stroke-width="12" x1="344.554" y1="229.746" x2="350.495" y2="235.272" />
<line fill="none" stroke="lightblue" stroke-width="12" x1="350.495" y1="235.272" x2="356.436" y2="241.766" />
<line fill="none" stroke="lightblue" stroke-width="12" x1="356.436" y1="241.766" x2="362.376" y2="249.186" />
<line fill="none" stroke="lightblue" stroke-width="12" x1="362.376" y1="249.186" x2="368.317" y2="257.486" />
<line fill="none" stroke="lightblue" stroke-width="12" x1="368.317" y1="257.486" x2="374.257" y2="266.62" />
<line fill="none" stroke="lightblue" stroke-width="12" x1="374.257" y1="266.62" x2="380.198" y2="276.54" />
<line fill="none" stroke="lightblue" stroke-width="12" x1="380.198" y1="276.54" x2="386.139" y2="287.197" />
<line fill="none" stroke="lightblue" stroke-width="12" x1="386.139" y1="287.197" x2="392.079" y2="298.546" />
<line fill="none" stroke="lightblue" stroke-width="12" x1="392.079" y1="298.546" x2="398.02" y2="310.538" />
<line fill="none" stroke="lightblue" stroke-width="12" x1="398.02" y1="310.538" x2="403.96" y2="323.131" />
<line fill="none" stroke="lightblue" stroke-width="12" x1="403.96" y1="323.131" x2="409.901" y2="336.281" />
<line fill="none" stroke="lightblue" stroke-width="12" x1="409.901" y1="336.281" x2="415.842" y2="349.95" />
<line fill="none" stroke="lightblue" stroke-width="12" x1="415.842" y1="349.95" x2="421.782" y2="364.098" />
<line fill="none" stroke="lightblue" stroke-width="12" x1="421.782" y1="364.098" x2="427.723" y2="378.692" />
<line fill="none" stroke="lightblue" stroke-width="12" x1="427.723" y1="378.692" x2="433.663" y2="379.142" />
<line fill="none" stroke="lightblue" stroke-width="12" x1="433.663" y1="379.142" x2="439.604" y2="379.642" />
<line fill="none" stroke="lightblue" stroke-width="12" x1="439.604" y1="379.642" x2="445.545" y2="380.79" />
<line fill="none" stroke="lightblue" stroke-width="12" x1="445.545" y1="380.79" x2="451.485" y2="382.583" />
<line fill="none" stroke="lightblue" stroke-width="12" x1="451.485" y1="382.583" x2="457.426" y2="385.016" />
<line fill="none" stroke="lightblue" stroke-width="12" x1="457.426" y1="385.016" x2="463.366" y2="388.081" />
<line fill="none" stroke="lightblue" stroke-width="12" x1="463.366" y1="388.081" x2="469.307" y2="391.767" />
<line fill="none" stroke="lightblue" stroke-width="12" x1="469.307" y1="391.767" x2="475.248" y2="396.063" />
<line fill="none" stroke="lightblue" stroke-width="12" x1="475.248" y1="396.063" x2="481.188" y2="400.956" />
<line fill="none" stroke="lightblue" stroke-width="12" x1="481.188" y1="400.956" x2="487.129" y2="406.432" />
<line fill="none" stroke="lightblue" stroke-width="12" x1="487.129" y1="406.432" x2="493.069" y2="412.474" />
<line fill="none" stroke="lightblue" stroke-width="12" x1="493.069" y1="412.474" x2="499.01" y2="419.067" />
<line fill="none" stroke="lightblue" stroke-width="12" x1="499.01" y1="419.067" x2="504.95" y2="426.193" />
<line fill="none" stroke="lightblue" stroke-width="12" x1="504.95" y1="426.193" x2="510.891" y2="433.834" />
<line fill="none" stroke="lightblue" stroke-width="12" x1="510.891" y1="433.834" x2="516.832" y2="441.972" />
<line fill="none" stroke="lightblue" stroke-width="12" x1="516.832" y1="441.972" x2="522.772" y2="450.588" />
<line fill="none" stroke="lightblue" stroke-width="12" x1="522.772" y1="450.588" x2="528.713" y2="459.662" />
<line fill="none" stroke="lightblue" stroke-width="12" x1="528.713" y1="459.662" x2="534.653" y2="469.178" />
<line fill="none" stroke="lightblue" stroke-width="12" x1="534.653" y1="469.178" x2="540.594" y2="479.115" />
<line fill="none" stroke="lightblue" stroke-width="12" x1="540.594" y1="479.115" x2="546.535" y2="489.456" />
<line fill="none" stroke="lightblue" stroke-width="12" x1="546.535" y1="489.456" x2="552.475" y2="500.183" />
<line fill="none" stroke="lightblue" stroke-width="12" x1="552.475" y1="500.183" x2="558.416" y2="511.279" />
<line fill="none" stroke="lightblue" stroke-width="12" x1="558.416" y1="511.279" x2="564.356" y2="522.725" />
<line fill="none" stroke="lightblue" stroke-width="12" x1="564.356" y1="522.725" x2="570.297" y2="534.507" />
<line fill="none" stroke="lightblue" stroke-width="12" x1="570.297" y1="534.507" x2="576.238" y2="546.609" />
<line fill="none" stroke="lightblue" stroke-width="12" x1="576.238" y1="546.609" x2="582.178" y2="559.014" />
<line fill="none" stroke="lightblue" stroke-width="12" x1="582.178" y1="559.014" x2="588.119" y2="571.708" />
<line fill="none" stroke="lightblue" stroke-width="12" x1="588.119" y1="571.708" x2="594.059" y2="582.506" />
<line fill="none" stroke="olive" stroke-width="3" x1="0" y1="584.677" x2="5.94059" y2="584.677" />
<line fill="none" stroke="olive" stroke-width="3" x1="5.94059" y1="584.677" x2="11.8812" y2="588.962" />
<line fill="none" stroke="olive" stroke-width="3" x1="11.8812" y1="588.962" x2="17.8218" y2="561.122" />
<line fill="none" stroke="olive" stroke-width="3" x1="17.8218" y1="561.122" x2="23.7624" y2="560.007" />
<line fill="none" stroke="olive" stroke-width="3" x1="23.7624" y1="560.007" x2="29.703" y2="559.909" />
<line fill="none" stroke="olive" stroke-width="3" x1="29.703" y1="559.909" x2="35.6436" y2="538.541" />
<line fill="none" stroke="olive" stroke-width="3" x1="35.6436" y1="538.541" x2="41.5842" y2="515.316" />
<line fill="none" stroke="olive" stroke-width="3" x1="41.5842" y1="515.316" x2="47.5248" y2="492.429" />
<line fill="none" stroke="olive" stroke-width="3" x1="47.5248" y1="492.429" x2="53.4653" y2="469.914" />
<line fill="none" stroke="olive" stroke-width="3" x1="53.4653" y1="469.914" x2="59.4059" y2="447.811" />
<line fill="none" stroke="olive" stroke-width="3" x1="59.4059" y1="447.811" x2="65.3465" y2="426.163" />
<line fill="none" stroke="olive" stroke-width="3" x1="65.3465" y1="426.163" x2="71.2871" y2="405.018" />
<line fill="none" stroke="olive" stroke-width="3" x1="71.2871" y1="405.018" x2="77.2277" y2="384.433" />
<line fill="none" stroke="olive" stroke-width="3" x1="77.2277" y1="384.433" x2="83.1683" y2="364.466" />
<line fill="none" stroke="olive" stroke-width="3" x1="83.1683" y1="364.466" x2="89.1089" y2="345.188" />
<line fill="none" stroke="olive" stroke-width="3" x1="89.1089" y1="345.188" x2="95.0495" y2="326.672" />
<line fill="none" stroke="olive" stroke-width="3" x1="95.0495" y1="326.672" x2="100.99" y2="309.003" />
<line fill="none" stroke="olive" stroke-width="3" x1="100.99" y1="309.003" x2="106.931" y2="292.272" />
<line fill="none" stroke="olive" stroke-width="3" x1="106.931" y1="292.272" x2="112.871" y2="276.577" />
<line fill="none" stroke="olive" stroke-width="3" x1="112.871" y1="276.577" x2="118.812" y2="262.024" />
<line fill="none" stroke="olive" stroke-width="3" x1="118.812" y1="262.024" x2="124.752" y2="248.724" />
<line fill="none" stroke="olive" stroke-width="3" x1="124.752" y1="248.724" x2="130.693" y2="236.792" />
<line fill="none" stroke="olive" stroke-width="3" x1="130.693" y1="236.792" x2="136.634" y2="226.342" />
<line fill="none" stroke="olive" stroke-width="3" x1="136.634" y1="226.342" x2="142.574" y2="217.486" />
<line fill="none" stroke="olive" stroke-width="3" x1="142.574" y1="217.486" x2="148.515" y2="210.328" />
<line fill="none" stroke="olive" stroke-width="3" x1="148.515" y1="210.328" x2="154.455" y2="204.956" />
<line fill="none" stroke="olive" stroke-width="3" x1="154.455" y1="204.956" x2="160.396" y2="201.443" />
<line fill="none" stroke="olive" stroke-width="3" x1="160.396" y1="201.443" x2="166.337" y2="199.838" />
<line fill="none" stroke="olive" stroke-width="3" x1="166.337" y1="199.838" x2="172.277" y2="196.135" />
<line fill="none" stroke="olive" stroke-width="3" x1="172.277" y1="196.135" x2="178.218" y2="174.985" />
<line fill="none" stroke="olive" stroke-width="3" x1="178.218" y1="174.985" x2="184.158" y2="154.755" />
<line fill="none" stroke="olive" stroke-width="3" x1="184.158" y1="154.755" x2="190.099" y2="135.611" />
<line fill="none" stroke="olive" stroke-width="3" x1="190.099" y1="135.611" x2="196.04" y2="117.75" />
<line fill="none" stroke="olive" stroke-width="3" x1="196.04" y1="117.75" x2="201.98" y2="101.401" />
<line fill="none" stroke="olive" stroke-width="3" x1="201.98" y1="101.401" x2="207.921" y2="86.8214" />
<line fill="none" stroke="olive" stroke-width="3" x1="207.921" y1="86.8214" x2="213.861" y2="74.2937" />
<line fill="none" stroke="olive" stroke-width="3" x1="213.861" y1="74.2937" x2="219.802" y2="64.1103" />
<line fill="none" stroke="olive" stroke-width="3" x1="219.802" y1="64.1103" x2="225.743" y2="56.5503" />
<line fill="none" stroke="olive" stroke-width="3" x1="225.743" y1="56.5503" x2="231.683" y2="51.8503" />
<line fill="none" stroke="olive" stroke-width="3" x1="231.683" y1="51.8503" x2="237.624" y2="308.088" />
<line fill="none" stroke="olive" stroke-width="3" x1="237.624" y1="308.088" x2="243.564" y2="314.049" />
<line fill="none" stroke="olive" stroke-width="3" x1="243.564" y1="314.049" x2="249.505" y2="320.822" />
<line fill="none" stroke="olive" stroke-width="3" x1="249.505" y1="320.822" x2="255.446" y2="328.375" />
<line fill="none" stroke="olive" stroke-width="3" x1="255.446" y1="328.375" x2="261.386" y2="333.469" />
<line fill="none" stroke="olive" stroke-width="3" x1="261.386" y1="333.469" x2="267.327" y2="331.342" />
<line fill="none" stroke="olive" stroke-width="3" x1="267.327" y1="331.342" x2="273.267" y2="330.07" />
<line fill="none" stroke="olive" stroke-width="3" x1="273.267" y1="330.07" x2="279.208" y2="329.659" />
<line fill="none" stroke="olive" stroke-width="3" x1="279.208" y1="329.659" x2="285.149" y2="330.112" />
<line fill="none" stroke="olive" stroke-width="3" x1="285.149" y1="330.112" x2="291.089" y2="331.426" />
<line fill="none" stroke="olive" stroke-width="3" x1="291.089" y1="331.426" x2="297.03" y2="333.595" />
<line fill="none" stroke="olive" stroke-width="3" x1="297.03" y1="333.595" x2="302.97" y2="336.609" />
<line fill="none" stroke="olive" stroke-width="3" x1="302.97" y1="336.609" x2="308.911" y2="340.454" />
<line fill="none" stroke="olive" stroke-width="3" x1="308.911" y1="340.454" x2="314.851" y2="345.111" />
<line fill="none" stroke="olive" stroke-width="3" x1="314.851" y1="345.111" x2="320.792" y2="350.56" />
<line fill="none" stroke="olive" stroke-width="3" x1="320.792" y1="350.56" x2="326.733" y2="356.779" />
<line fill="none" stroke="olive" stroke-width="3" x1="326.733" y1="356.779" x2="332.673" y2="363.741" />
<line fill="none" stroke="olive" stroke-width="3" x1="332.673" y1="363.741" x2="338.614" y2="371.42" />
<line fill="none" stroke="olive" stroke-width="3" x1="338.614" y1="371.42" x2="344.554" y2="379.787" />
<line fill="none" stroke="olive" stroke-width="3" x1="344.554" y1="379.787" x2="350.495" y2="388.812" />
<line fill="none" stroke="olive" stroke-width="3" x1="350.495" y1="388.812" x2="356.436" y2="398.466" />
<line fill="none" stroke="olive" stroke-width="3" x1="356.436" y1="398.466" x2="362.376" y2="408.719" />
<line fill="none" stroke="olive" stroke-width="3" x1="362.376" y1="408.719" x2="368.317" y2="419.541" />
<line fill="none" stroke="olive" stroke-width="3" x1="368.317" y1="419.541" x2="374.257" y2="430.903" />
<line fill="none" stroke="olive" stroke-width="3" x1="374.257" y1="430.903" x2="380.198" y2="442.776" />
<line fill="none" stroke="olive" stroke-width="3" x1="380.198" y1="442.776" x2="386.139" y2="455.132" />
<line fill="none" stroke="olive" stroke-width="3" x1="386.139" y1="455.132" x2="392.079" y2="467.946" />
<line fill="none" stroke="olive" stroke-width="3" x1="392.079" y1="467.946" x2="398.02" y2="481.19" />
<line fill="none" stroke="olive" stroke-width="3" x1="398.02" y1="481.19" x2="403.96" y2="494.84" />
<line fill="none" stroke="olive" stroke-width="3" x1="403.96" y1="494.84" x2="409.901" y2="508.873" />
<line fill="none" stroke="olive" stroke-width="3" x1="409.901" y1="508.873" x2="415.842" y2="523.267" />
<line fill="none" stroke="olive" stroke-width="3" x1="415.842" y1="523.267" x2="421.782" y2="538" />
<line fill="none" stroke="olive" stroke-width="3" x1="421.782" y1="538" x2="427.723" y2="553.052" />
<line fill="none" stroke="olive" stroke-width="3" x1="427.723" y1="553.052" x2="433.663" y2="379.142" />
<line fill="none" stroke="olive" stroke-width="3" x1="433.663" y1="379.142" x2="439.604" y2="379.642" />
<line fill="none" stroke="olive" stroke-width="3" x1="439.604" y1="379.642" x2="445.545" y2="380.79" />
<line fill="none" stroke="olive" stroke-width="3" x1="445.545" y1="380.79" x2="451.485" y2="382.583" />
<line fill="none" stroke="olive" stroke-width="3" x1="451.485" y1="382.583" x2="457.426" y2="385.016" />
<line fill="none" stroke="olive" stroke-width="3" x1="457.426" y1="385.016" x2="463.366" y2="388.081" />
<line fill="none" stroke="olive" stroke-width="3" x1="463.366" y1="388.081" x2="469.307" y2="391.767" />
<line fill="none" stroke="olive" stroke-width="3" x1="469.307" y1="391.767" x2="475.248" y2="396.063" />
<line fill="none" stroke="olive" stroke-width="3" x1="475.248" y1="396.063" x2="481.188" y2="400.956" />
<line fill="none" stroke="olive" stroke-width="3" x1="481.188" y1="400.956" x2="487.129" y2="406.432" />
<line fill="none" stroke="olive" stroke-width="3" x1="487.129" y1="406.432" x2="493.069" y2="412.474" />
<line fill="none" stroke="olive" stroke-width="3" x1="493.069" y1="412.474" x2="499.01" y2="419.067" />
<line fill="none" stroke="olive" stroke-width="3" x1="499.01" y1="419.067" x2="504.95" y2="426.193" />
<line fill="none" stroke="olive" stroke-width="3" x1="504.95" y1="426.193" x2="510.891" y2="433.834" />
<line fill="none" stroke="olive" stroke-width="3" x1="510.891" y1="433.834" x2="516.832" y2="441.972" />
<line fill="none" stroke="olive" stroke-width="3" x1="516.832" y1="441.972" x2="522.772" y2="450.588" />
<line fill="none" stroke="olive" stroke-width="3" x1="522.772" y1="450.588" x2="528.713" y2="459.662" />
<line fill="none" stroke="olive" stroke-width="3" x1="528.713" y1="459.662" x2="534.653" y2="469.178" />
<line fill="none" stroke="olive" stroke-width="3" x1="534.653" y1="469.178" x2="540.594" y2="479.115" />
<line fill="none" stroke="olive" stroke-width="3" x1="540.594" y1="479.115" x2="546.535" y2="489.456" />
<line fill="none" stroke="olive" stroke-width="3" x1="546.535" y1="489.456" x2="552.475" y2="500.183" />
<line fill="none" stroke="olive" stroke-width="3" x1="552.475" y1="500.183" x2="558.416" y2="511.279" />
<line fill="none" stroke="olive" stroke-width="3" x1="558.416" y1="511.279" x2="564.356" y2="522.725" />
<line fill="none" stroke="olive" stroke-width="3" x1="564.356" y1="522.725" x2="570.297" y2="534.507" />
<line fill="none" stroke="olive" stroke-width="3" x1="570.297" y1="534.507" x2="576.238" y2="546.609" />
<line fill="none" stroke="olive" stroke-width="3" x1="576.238" y1="546.609" x2="582.178" y2="559.014" />
<line fill="none" stroke="olive" stroke-width="3" x1="582.178" y1="559.014" x2="588.119" y2="571.708" />
<line fill="none" stroke="olive" stroke-width="3" x1="588.119" y1="571.708" x2="594.059" y2="584.677" />

<!--Draw Glitches -->

<line fill="none" stroke="black" stroke-width="4" x1="237.624" y1="298.088" x2="237.624" y2="248.088"  stroke-dasharray = "10,5" />
<text transform="scale(1,-1)" font-family="sans-serif" font-size="30" stroke = "rgb(0,0,0)" line = "rgb(0,0,0)"  fill = "olive" x="242.624" y="-248.088" >39</text>
<line fill="none" stroke="black" stroke-width="4" x1="433.663" y1="369.142" x2="433.663" y2="319.142"  stroke-dasharray = "10,5" />
<text transform="scale(1,-1)" font-family="sans-serif" font-size="30" stroke = "rgb(0,0,0)" line = "rgb(0,0,0)"  fill = "olive" x="438.663" y="-319.142" >72</text>

<!-- -->


<!--Draw the X and Y axes -->
<polyline fill="none" stroke="black" stroke-width="6"  points=" 600,0 0,0 0, 600" />
<polyline fill="none" stroke="black" stroke-width="1"  points=" 0 600  600 600  600 0" />
<!-- -->


<!--Draw labels and tics for X axis -->

<line fill="none" stroke="black"  stroke-width="6"  x1="0.5" y1="0" x2="0.5" y2="-20" />
<text transform="scale(1,-1)" font-family="sans-serif" font-size="30" x="-24.5" y="45" >0</text>
<line fill="none" stroke="black"  stroke-width="6"  x1="119.312" y1="0" x2="119.312" y2="-20" />
<text transform="scale(1,-1)" font-family="sans-serif" font-size="30" x="94.3119" y="45" >20</text>
<line fill="none" stroke="black"  stroke-width="6"  x1="238.124" y1="0" x2="238.124" y2="-20" />
<text transform="scale(1,-1)" font-family="sans-serif" font-size="30" x="213.124" y="45" >40</text>
<line fill="none" stroke="black"  stroke-width="6"  x1="356.936" y1="0" x2="356.936" y2="-20" />
<text transform="scale(1,-1)" font-family="sans-serif" font-size="30" x="331.936" y="45" >60</text>
<line fill="none" stroke="black"  stroke-width="6"  x1="475.748" y1="0" x2="475.748" y2="-20" />
<text transform="scale(1,-1)" font-family="sans-serif" font-size="30" x="450.748" y="45" >80</text>
<line fill="none" stroke="black"  stroke-width="6"  x1="594.559" y1="0" x2="594.559" y2="-20" />
<text transform="scale(1,-1)" font-family="sans-serif" font-size="30" x="569.559" y="45" >100</text>


<!--Draw labels and tics for Y axis -->

<line fill="none" stroke="black" stroke-width="6" x1="0.0" y1="0" x2="-20" y2="0" />
<text transform="scale(1,-1)" text-anchor="end" font-family="sans-serif" font-size="30" x="-25" y="10" >4</text>
<line fill="none" stroke="black" stroke-width="6" x1="0.0" y1="100" x2="-20" y2="100" />
<text transform="scale(1,-1)" text-anchor="end" font-family="sans-serif" font-size="30" x="-25" y="-90" >6</text>
<line fill="none" stroke="black" stroke-width="6" x1="0.0" y1="200" x2="-20" y2="200" />
<text transform="scale(1,-1)" text-anchor="end" font-family="sans-serif" font-size="30" x="-25" y="-190" >8</text>
<line fill="none" stroke="black" stroke-width="6" x1="0.0" y1="300" x2="-20" y2="300" />
<text transform="scale(1,-1)" text-anchor="end" font-family="sans-serif" font-size="30" x="-25" y="-290" >10</text>
<line fill="none" stroke="black" stroke-width="6" x1="0.0" y1="400" x2="-20" y2="400" />
<text transform="scale(1,-1)" text-anchor="end" font-family="sans-serif" font-size="30" x="-25" y="-390" >12</text>
<line fill="none" stroke="black" stroke-width="6" x1="0.0" y1="500" x2="-20" y2="500" />
<text transform="scale(1,-1)" text-anchor="end" font-family="sans-serif" font-size="30" x="-25" y="-490" >14</text>
<line fill="none" stroke="black" stroke-width="6" x1="0.0" y1="600" x2="-20" y2="600" />
<text transform="scale(1,-1)" text-anchor="end" font-family="sans-serif" font-size="30" x="-25" y="-590" >16</text>

-->
</g>
</g>
<!-- Run Constants
PRINTDISTANCEDATA bool true
GLITCHESONLY bool true
PLOT 2doubles 3 4
PERTURBBY double 0.05
GLITCHLEVEL double 3
BOUNDARYWINDOW double 0.065
FRAMESPERPATH int 200
STEPSPERFRAME int 100
TRIALS int 1
ALLBLACK bool true
FILEPREFIX string Fol
GRAPHSIZE int 0
BORDER int 0
PLOTSIZE int 0
G6LINEWIDTH int 3
DELONELINEWIDTH int 10
AXISWIDTH int 6
TICLENGTH int 20
VECTOR g6 
FOLLOWERMODE FollowerMode line
FIXRANDOMSEED fixRandomSeed false
RANDOMSEED int 19191
TIMESTAMP bool true
END end 




-->
</svg>
