<?xml version="1.0" standalone="no"?>
<!-- the width and height set the total pixel output of the image in the browser -->
<!-- whatever is within the viewbox will be remapped to show in this size -->
<svg width="1000" height="1000" viewBox="1 0 1000 1000"  version="1.1" xmlns="http://www.w3.org/2000/svg" xmlns:xlink="http://www.w3.org/1999/xlink">
 <desc>ID (and file name) = Fol_2018-05-05.09_47_28.1_11.svg </desc> 
 <text x="700" y="30" font-family="sans-serif" font-size="20">Wall time passed: 0 msec.</text>
<text x="300" y="60"   font-family="sans-serif" font-size="20" fill="lightblue">S6  lightblue</text>
<text x="300" y="85"   font-family="sans-serif" font-size="20" fill="slategrey">G6  slategrey</text>
<text x="300" y="110"  font-family="sans-serif" font-size="20" fill="violet">D7  violet</text>
<text x="300" y="135"  font-family="sans-serif" font-size="20" fill="olive">CS  olive</text>



 <!--DISTANCE PLOT BEGINS-->


<!-- the following will scale and place the distance plot -->
<g  transform="translate(0,50) ">
<g transform="translate(150,700) scale(1 -1)">
   <polyline fill="none" stroke=" lightblue " stroke-width=" 12 " points=" 5.2,0 10.4,8.88151 15.6,17.763 20.8,26.6445 26,35.526 31.2,44.4076 36.4,53.2891 41.6,62.1706 46.8,71.0521 52,79.9336 57.2,88.8151 62.4,97.6966 67.6,106.578 72.8,115.46 78,124.341 83.2,133.223 88.4,142.104 93.6,150.986 98.8,159.867 104,168.749 109.2,177.63 114.4,186.512 119.6,189.687 124.8,193.076 130,196.762 135.2,200.333 140.4,204.158 145.6,208.248 150.8,212.588 156,217.164 161.2,221.961 166.4,226.965 171.6,232.162 176.8,237.541 182,243.088 187.2,248.793 192.4,254.644 197.6,243.582 202.8,238.521 208,233.549 213.2,228.67 218.4,223.892 223.6,219.22 228.8,214.662 234,210.226 239.2,205.918 244.4,201.747 249.6,197.723 254.8,193.853 260,190.148 265.2,186.617 270.4,183.271 275.6,180.119 280.8,177.172 286,174.44 291.2,171.934 296.4,169.663 301.6,167.638 306.8,165.867 312,164.359 317.2,163.12 322.4,162.157 327.6,161.475 332.8,161.077 338,160.966 343.2,161.141 348.4,161.603 353.6,162.349 358.8,163.374 364,164.674 369.2,166.242 374.4,168.071 379.6,170.152 384.8,172.476 390,169.58 395.2,162.807 400.4,156.037 405.6,149.27 410.8,142.505 416,135.744 421.2,128.987 426.4,122.235 431.6,115.488 436.8,108.748 442,101.991 447.2,95.1912 452.4,88.3918 457.6,81.5925 462.8,74.7931 468,67.9937 473.2,61.1943 478.4,54.395 483.6,47.5956 488.8,40.7962 494,33.9969 499.2,27.1975 504.4,20.3981 509.6,13.5987 514.8,6.79937 520,0 " />
   <polyline fill="none" stroke=" slategrey " stroke-width=" 9 " points=" 5.2,0 10.4,8.99008 15.6,17.9802 20.8,26.9702 26,35.9603 31.2,44.9504 36.4,53.9405 41.6,62.9305 46.8,71.9206 52,80.9107 57.2,89.9008 62.4,98.8909 67.6,107.881 72.8,116.871 78,125.861 83.2,134.851 88.4,143.841 93.6,152.831 98.8,161.821 104,170.811 109.2,179.802 114.4,188.792 119.6,197.782 124.8,206.772 130,215.762 135.2,224.752 140.4,233.742 145.6,242.732 150.8,251.722 156,260.712 161.2,269.702 166.4,278.692 171.6,287.682 176.8,296.673 182,305.663 187.2,314.653 192.4,323.643 197.6,332.633 202.8,341.623 208,350.613 213.2,359.603 218.4,368.593 223.6,377.583 228.8,383.304 234,377.729 239.2,372.288 244.4,366.986 249.6,361.83 254.8,356.826 260,351.98 265.2,347.3 270.4,339.736 275.6,331.751 280.8,323.819 286,315.944 291.2,308.13 296.4,300.382 301.6,292.705 306.8,285.105 312,277.587 317.2,270.16 322.4,262.83 327.6,255.606 332.8,248.498 338,241.515 343.2,234.669 348.4,227.971 353.6,221.437 358.8,215.079 364,208.915 369.2,202.962 374.4,197.239 379.6,191.767 384.8,186.569 390,181.666 395.2,177.084 400.4,172.849 405.6,168.987 410.8,165.523 416,162.483 421.2,159.891 426.4,157.77 431.6,156.138 436.8,155.012 442,154.401 447.2,154.313 452.4,152.584 457.6,140.846 462.8,129.109 468,117.372 473.2,105.635 478.4,93.8976 483.6,82.1604 488.8,70.4232 494,58.686 499.2,46.9488 504.4,35.2116 509.6,23.4744 514.8,11.7372 520,1.77351e-13 " />
   <polyline fill="none" stroke=" violet " stroke-width=" 6 " points=" 5.2,0 10.4,15.3648 15.6,30.7296 20.8,46.0945 26,61.4593 31.2,76.8241 36.4,92.1889 41.6,107.554 46.8,122.919 52,138.283 57.2,153.648 62.4,169.013 67.6,184.378 72.8,199.743 78,215.107 83.2,230.472 88.4,245.837 93.6,261.202 98.8,276.567 104,291.932 109.2,307.296 114.4,322.661 119.6,330.377 124.8,338.213 130,346.294 135.2,354.613 140.4,363.162 145.6,371.934 150.8,380.921 156,390.116 161.2,399.509 166.4,409.094 171.6,418.861 176.8,428.804 182,438.913 187.2,449.181 192.4,459.599 197.6,446.856 202.8,439.793 208,432.892 213.2,426.165 218.4,419.621 223.6,413.272 228.8,407.131 234,401.209 239.2,395.52 244.4,390.077 249.6,384.893 254.8,379.982 260,375.357 265.2,371.032 270.4,367.019 275.6,363.331 280.8,359.978 286,356.972 291.2,353.599 296.4,348.224 301.6,343.163 306.8,338.436 312,334.061 317.2,330.06 322.4,326.452 327.6,323.256 332.8,320.49 338,318.169 343.2,316.309 348.4,314.921 353.6,314.014 358.8,313.595 364,308.108 369.2,297.838 374.4,287.568 379.6,277.297 384.8,267.027 390,256.757 395.2,246.487 400.4,236.216 405.6,225.946 410.8,215.676 416,205.405 421.2,195.135 426.4,184.865 431.6,174.595 436.8,164.324 442,154.054 447.2,143.784 452.4,133.514 457.6,123.243 462.8,112.973 468,102.703 473.2,92.4324 478.4,82.1622 483.6,71.8919 488.8,61.6216 494,51.3514 499.2,41.0811 504.4,30.8108 509.6,20.5405 514.8,10.2703 520,4.48847e-05 " />
   <polyline fill="none" stroke=" olive " stroke-width=" 3 " points=" 5.2,0 10.4,8.88151 15.6,17.763 20.8,26.6445 26,35.526 31.2,44.4076 36.4,53.2891 41.6,62.1706 46.8,71.0521 52,79.9336 57.2,88.8151 62.4,97.6966 67.6,106.578 72.8,115.46 78,124.341 83.2,133.223 88.4,142.104 93.6,150.986 98.8,159.867 104,168.749 109.2,177.63 114.4,186.512 119.6,402.301 124.8,404.166 130,406.195 135.2,404.331 140.4,399.81 145.6,395.414 150.8,391.147 156,387.014 161.2,383.019 166.4,379.167 171.6,375.461 176.8,371.907 182,368.508 187.2,365.269 192.4,362.195 197.6,421.561 202.8,414.762 208,407.962 213.2,401.163 218.4,394.364 223.6,387.564 228.8,380.765 234,373.965 239.2,367.166 244.4,360.367 249.6,353.567 254.8,346.768 260,339.969 265.2,333.169 270.4,326.37 275.6,319.57 280.8,312.771 286,305.972 291.2,299.172 296.4,292.373 301.6,285.574 306.8,278.774 312,271.975 317.2,265.176 322.4,258.376 327.6,251.577 332.8,244.777 338,237.978 343.2,231.179 348.4,224.379 353.6,217.58 358.8,210.781 364,203.981 369.2,197.182 374.4,190.382 379.6,183.583 384.8,176.784 390,169.984 395.2,163.185 400.4,156.386 405.6,149.586 410.8,142.787 416,135.987 421.2,129.188 426.4,122.389 431.6,115.589 436.8,108.79 442,101.991 447.2,95.1912 452.4,88.3918 457.6,81.5925 462.8,74.7931 468,67.9937 473.2,61.1943 478.4,54.395 483.6,47.5956 488.8,40.7962 494,33.9969 499.2,27.1975 504.4,20.3981 509.6,13.5987 514.8,6.79937 520,0 " />

<!--Draw the X and Y axes -->
<polyline fill="none" stroke="black" stroke-width="6"  points=" 600,0 0,0 0,520" />
<!-- -->


<!--Draw labels and tics for X axis -->

<line fill="none" stroke="black"  stroke-width="6"  x1="0.5" y1="0" x2="0.5" y2="-20" />
<text transform="scale(1,-1)" font-family="sans-serif" font-size="30" x="-24.5" y="45" >0</text>
<line fill="none" stroke="black"  stroke-width="6"  x1="104.5" y1="0" x2="104.5" y2="-20" />
<text transform="scale(1,-1)" font-family="sans-serif" font-size="30" x="79.5" y="45" >20</text>
<line fill="none" stroke="black"  stroke-width="6"  x1="208.5" y1="0" x2="208.5" y2="-20" />
<text transform="scale(1,-1)" font-family="sans-serif" font-size="30" x="183.5" y="45" >40</text>
<line fill="none" stroke="black"  stroke-width="6"  x1="312.5" y1="0" x2="312.5" y2="-20" />
<text transform="scale(1,-1)" font-family="sans-serif" font-size="30" x="287.5" y="45" >60</text>
<line fill="none" stroke="black"  stroke-width="6"  x1="416.5" y1="0" x2="416.5" y2="-20" />
<text transform="scale(1,-1)" font-family="sans-serif" font-size="30" x="391.5" y="45" >80</text>
<line fill="none" stroke="black"  stroke-width="6"  x1="520.5" y1="0" x2="520.5" y2="-20" />
<text transform="scale(1,-1)" font-family="sans-serif" font-size="30" x="495.5" y="45" >100</text>


<!--Draw labels and tics for Y axis -->

<line fill="none" stroke="black" stroke-width="6" x1="0.0" y1="0" x2="-20" y2="0" />
<text transform="scale(1,-1)" text-anchor="end" font-family="sans-serif" font-size="30" x="-25" y="10" >0</text>
<line fill="none" stroke="black" stroke-width="6" x1="0.0" y1="104" x2="-20" y2="104" />
<text transform="scale(1,-1)" text-anchor="end" font-family="sans-serif" font-size="30" x="-25" y="-94" >50</text>
<line fill="none" stroke="black" stroke-width="6" x1="0.0" y1="208" x2="-20" y2="208" />
<text transform="scale(1,-1)" text-anchor="end" font-family="sans-serif" font-size="30" x="-25" y="-198" >100</text>
<line fill="none" stroke="black" stroke-width="6" x1="0.0" y1="312" x2="-20" y2="312" />
<text transform="scale(1,-1)" text-anchor="end" font-family="sans-serif" font-size="30" x="-25" y="-302" >150</text>
<line fill="none" stroke="black" stroke-width="6" x1="0.0" y1="416" x2="-20" y2="416" />
<text transform="scale(1,-1)" text-anchor="end" font-family="sans-serif" font-size="30" x="-25" y="-406" >200</text>
<line fill="none" stroke="black" stroke-width="6" x1="0.0" y1="520" x2="-20" y2="520" />
<text transform="scale(1,-1)" text-anchor="end" font-family="sans-serif" font-size="30" x="-25" y="-510" >250</text>

-->
</g>
</g>
<!-- Run Constants
CIRCLEPLOT bool false
DISTANCEPLOT bool true
PRINTDISTANCEDATA bool true
GLITCHESONLY bool false
PLOT 2doubles 3 4
PERTURBBY double 1
GLITCHLEVEL double 3
BOUNDARYWINDOW double 0.065
FRAMESPERPATH int 200
STEPSPERFRAME int 100
TRIALS int 30
ALLBLACK bool true
FILEPREFIX string Fol
GRAPHSIZE int 0
BORDER int 0
PLOTSIZE int 0
CIRCLEPLOTSIZE int 2000
CIRCLERADIUS int 300
CIRCLESTROKEWIDTH int 30
G6LINEWIDTH int 3
DELONELINEWIDTH int 10
AXISWIDTH int 6
TICLENGTH int 20
VECTOR g6 
MOVIEMODE MovieMode STAR
FOLLOWERMODE FollowerMode Follow
FIXRANDOMSEED fixRandomSeed false
RANDOMSEED int 19191
TIMESTAMP bool true
END end 




-->
</svg>
