<?xml version="1.0" standalone="no"?>
<!-- the width and height set the total pixel output of the image in the browser -->
<!-- whatever is within the viewbox will be remapped to show in this size -->
<svg width="1000" height="1000" viewBox="1 0  1200 1200"  version="1.1" xmlns="http://www.w3.org/2000/svg" xmlns:xlink="http://www.w3.org/1999/xlink">
 <desc>ID (and file name) = Fol_2018-09-13.17_19_39.0_6.svg  mode = Single Point </desc> 
<g transform = "scale(1 1)">

<text x = "-850" y="50" transform="rotate(-90)"  font-family="sans-serif" font-size="40" stroke ="lightgray" fill="none"> PointDistanceFollower   Sep  9 2018</text>
 <text x="200"  y="30"  font-family="sans-serif" font-size="20" >Fol_2018-09-13.17_19_39.0_6.svg  &#160;&#160;&#160;&#160;&#160; Wall time passed: 690 msec.</text>
<text x="300" y="60"   font-family="sans-serif" font-size="20" fill="lightblue">S6  lightblue     msec  266</text>
<text x="300" y="85"   font-family="sans-serif" font-size="20" fill="slategrey">NCDist  slategrey     msec  423</text>



 <!--DISTANCE PLOT BEGINS   mode = Single Point-->


<!-- the following will scale and place the distance plot -->
<g transform="translate(150,975) scale(1 -1)">
   <polyline fill="none" stroke=" lightblue " stroke-width=" 12 " stroke-dasharray = " 10,5 " points=" 7.92079,0 15.8416,13.7231 23.7624,27.4462 31.6832,41.1693 39.604,54.8925 47.5248,68.6156 55.4455,82.3387 63.3663,96.0618 71.2871,109.785 79.2079,123.508 87.1287,137.231 95.0495,150.954 102.97,164.677 110.891,177.108 118.812,184.674 126.733,192.561 134.653,200.729 142.574,209.146 150.495,217.784 158.416,226.617 166.337,235.623 174.257,244.783 182.178,254.081 190.099,263.501 198.02,273.032 205.941,282.661 213.861,292.38 221.782,302.179 229.703,312.052 237.624,321.99 245.545,331.989 253.465,342.043 261.386,352.148 269.307,362.298 277.228,372.491 285.149,382.723 293.069,392.991 300.99,403.292 308.911,413.623 316.832,423.983 324.752,434.37 332.673,444.781 340.594,455.215 348.515,465.67 356.436,476.145 364.356,482.117 372.277,483.103 380.198,484.332 388.119,481.568 396.04,471.812 403.96,462.08 411.881,452.373 419.802,442.693 427.723,433.041 435.644,423.419 443.564,413.83 451.485,404.276 459.406,394.759 467.327,385.282 475.248,375.848 483.168,366.461 491.089,357.124 499.01,347.841 506.931,338.617 514.851,329.456 522.772,320.365 530.693,311.348 538.614,302.413 546.535,293.568 554.455,284.82 562.376,276.178 570.297,267.654 578.218,259.259 586.139,251.005 594.059,242.908 601.98,234.983 609.901,227.248 617.822,219.723 625.743,212.431 633.663,205.396 641.584,195.641 649.505,185.344 657.426,175.047 665.347,164.75 673.267,154.453 681.188,144.156 689.109,133.859 697.03,123.563 704.95,113.266 712.871,102.969 720.792,92.6719 728.713,82.3751 736.634,72.0782 744.554,61.7813 752.475,51.4844 760.396,41.1875 768.317,30.8906 776.238,20.5938 784.158,10.2969 792.079,0 " />

   <polyline fill="none" stroke=" slategrey " stroke-width=" 9 " stroke-dasharray = "  " points=" 7.92079,0 15.8416,20.7476 23.7624,41.4952 31.6832,62.2428 39.604,82.9904 47.5248,103.738 55.4455,124.486 63.3663,145.233 71.2871,165.981 79.2079,186.729 87.1287,207.476 95.0495,228.224 102.97,248.971 110.891,269.719 118.812,290.467 126.733,311.214 134.653,331.962 142.574,352.709 150.495,373.457 158.416,394.205 166.337,414.952 174.257,435.7 182.178,456.447 190.099,477.195 198.02,497.943 205.941,518.69 213.861,539.438 221.782,560.186 229.703,580.933 237.624,601.681 245.545,622.428 253.465,643.176 261.386,663.924 269.307,684.671 277.228,690.313 285.149,695.805 293.069,701.584 300.99,707.63 308.911,713.928 316.832,720.46 324.752,727.213 332.673,734.172 340.594,741.324 348.515,748.657 356.436,753.961 364.356,759.204 372.277,764.762 380.198,770.627 388.119,777.541 396.04,785.859 403.96,794.264 411.881,796.371 419.802,790.795 427.723,785.714 435.644,781.157 443.564,777.152 451.485,768.322 459.406,750.079 467.327,731.836 475.248,713.595 483.168,695.356 491.089,677.118 499.01,658.881 506.931,640.646 514.851,622.413 522.772,604.183 530.693,585.954 538.614,567.728 546.535,549.505 554.455,531.284 562.376,513.067 570.297,494.854 578.218,476.645 586.139,458.441 594.059,440.241 601.98,422.048 609.901,403.861 617.822,385.682 625.743,367.512 633.663,349.351 641.584,331.203 649.505,313.068 657.426,294.95 665.347,276.851 673.267,258.776 681.188,240.73 689.109,222.72 697.03,204.756 704.95,186.85 712.871,169.022 720.792,151.299 728.713,133.722 736.634,116.358 744.554,99.3187 752.475,82.8046 760.396,67.204 768.317,53.3249 776.238,42.873 784.158,24.5592 792.079,0 " />


<!--Draw the X and Y axes -->
<polyline fill="none" stroke="black" stroke-width="6"  points=" 800,0 0,0 0, 800" />
<polyline fill="none" stroke="black" stroke-width="1"  points=" 0 800  800 800  800 0" />
<!-- -->


<!--Draw labels and tics for X axis -->

<line fill="none" stroke="black"  stroke-width="6"  x1="0.5" y1="0" x2="0.5" y2="-20" />
<text transform="scale(1,-1)" font-family="sans-serif" font-size="30" x="-24.5" y="45" >0</text>
<line fill="none" stroke="black"  stroke-width="6"  x1="158.916" y1="0" x2="158.916" y2="-20" />
<text transform="scale(1,-1)" font-family="sans-serif" font-size="30" x="133.916" y="45" >20</text>
<line fill="none" stroke="black"  stroke-width="6"  x1="317.332" y1="0" x2="317.332" y2="-20" />
<text transform="scale(1,-1)" font-family="sans-serif" font-size="30" x="292.332" y="45" >40</text>
<line fill="none" stroke="black"  stroke-width="6"  x1="475.748" y1="0" x2="475.748" y2="-20" />
<text transform="scale(1,-1)" font-family="sans-serif" font-size="30" x="450.748" y="45" >60</text>
<line fill="none" stroke="black"  stroke-width="6"  x1="634.163" y1="0" x2="634.163" y2="-20" />
<text transform="scale(1,-1)" font-family="sans-serif" font-size="30" x="609.163" y="45" >80</text>
<line fill="none" stroke="black"  stroke-width="6"  x1="792.579" y1="0" x2="792.579" y2="-20" />
<text transform="scale(1,-1)" font-family="sans-serif" font-size="30" x="767.579" y="45" >100</text>


<!--Draw labels and tics for Y axis -->

<line fill="none" stroke="black" stroke-width="6" x1="0.0" y1="0" x2="-20" y2="0" />
<text transform="scale(1,-1)" text-anchor="end" font-family="sans-serif" font-size="30" x="-25" y="10" >0</text>
<line fill="none" stroke="black" stroke-width="6" x1="0.0" y1="200" x2="-20" y2="200" />
<text transform="scale(1,-1)" text-anchor="end" font-family="sans-serif" font-size="30" x="-25" y="-190" >5</text>
<line fill="none" stroke="black" stroke-width="6" x1="0.0" y1="400" x2="-20" y2="400" />
<text transform="scale(1,-1)" text-anchor="end" font-family="sans-serif" font-size="30" x="-25" y="-390" >10</text>
<line fill="none" stroke="black" stroke-width="6" x1="0.0" y1="600" x2="-20" y2="600" />
<text transform="scale(1,-1)" text-anchor="end" font-family="sans-serif" font-size="30" x="-25" y="-590" >15</text>
<line fill="none" stroke="black" stroke-width="6" x1="0.0" y1="800" x2="-20" y2="800" />
<text transform="scale(1,-1)" text-anchor="end" font-family="sans-serif" font-size="30" x="-25" y="-790" >20</text>

-->
</g>
</g>
<!-- Run Constants
PRINTDISTANCEDATA bool true
GLITCHESONLY bool false
PERTURBBY double 0.05
GLITCHLEVEL double 3
BOUNDARYWINDOW double 0.065
STEPSPERFRAME int 100
TRIALS int 20
ALLBLACK bool true
FILEPREFIX string Fol
NIGGLISELLINGFIRST bool false
ENABLE DistanceEnableString 
DISABLE DistanceDisableString 
GRAPHSIZE int 0
BORDER int 0
PLOTSIZE int 0
AXISWIDTH int 6
TICLENGTH int 20
VECTOR g6 
FOLLOWERMODE FollowerMode point
FIXRANDOMSEED fixRandomSeed false
RANDOMSEED int 19191
TIMESTAMP bool true
END end 


-->
</svg>
