<?xml version="1.0" standalone="no"?>
<!-- the width and height set the total pixel output of the image in the browser -->
<!-- whatever is within the viewbox will be remapped to show in this size -->
<svg width="900" height="800" viewBox="1 0 900 800"  version="1.1" xmlns="http://www.w3.org/2000/svg" xmlns:xlink="http://www.w3.org/1999/xlink">
 <desc>ID (and file name) = Fol_2018-05-16.16_22_06.14_13.svg </desc> 
<text x = "-750" y="50" transform="rotate(-90)"  font-family="sans-serif" font-size="40" stroke ="lightgray" fill="none"> PointDistanceFollower   May 16 2018</text>
 <text x="560" y="30" font-family="sans-serif" font-size="20">Wall time passed: 1368 msec.</text>
<text x="300" y="60"   font-family="sans-serif" font-size="20" fill="lightblue">S6  lightblue</text>
<text x="300" y="85"   font-family="sans-serif" font-size="20" fill="slategrey">NCDist  slategrey</text>
<text x="300" y="110"  font-family="sans-serif" font-size="20" fill="violet">D7  violet</text>
<text x="300" y="135"  font-family="sans-serif" font-size="20" fill="olive">CS6Dist  olive</text>

 <text x="140"  y="30"  font-family="sans-serif" font-size="20" >Fol_2018-05-16.16_22_06.14_13.svg  </text> 


 <!--DISTANCE PLOT BEGINS-->


<!-- the following will scale and place the distance plot -->
<g  transform="translate(0, 50) ">
<g transform="translate(150,700) scale(1 -1)">
<line fill="none" stroke="lightblue" stroke-width="12" x1="0" y1="178.263" x2="5.94059" y2="178.263" />
<line fill="none" stroke="lightblue" stroke-width="12" x1="5.94059" y1="178.263" x2="11.8812" y2="163.894" />
<line fill="none" stroke="lightblue" stroke-width="12" x1="11.8812" y1="163.894" x2="17.8218" y2="150.806" />
<line fill="none" stroke="lightblue" stroke-width="12" x1="17.8218" y1="150.806" x2="23.7624" y2="139.039" />
<line fill="none" stroke="lightblue" stroke-width="12" x1="23.7624" y1="139.039" x2="29.703" y2="128.631" />
<line fill="none" stroke="lightblue" stroke-width="12" x1="29.703" y1="128.631" x2="35.6436" y2="119.618" />
<line fill="none" stroke="lightblue" stroke-width="12" x1="35.6436" y1="119.618" x2="41.5842" y2="112.031" />
<line fill="none" stroke="lightblue" stroke-width="12" x1="41.5842" y1="112.031" x2="47.5248" y2="105.896" />
<line fill="none" stroke="lightblue" stroke-width="12" x1="47.5248" y1="105.896" x2="53.4653" y2="101.237" />
<line fill="none" stroke="lightblue" stroke-width="12" x1="53.4653" y1="101.237" x2="59.4059" y2="90.4851" />
<line fill="none" stroke="lightblue" stroke-width="12" x1="59.4059" y1="90.4851" x2="65.3465" y2="76.2845" />
<line fill="none" stroke="lightblue" stroke-width="12" x1="65.3465" y1="76.2845" x2="71.2871" y2="63.4654" />
<line fill="none" stroke="lightblue" stroke-width="12" x1="71.2871" y1="63.4654" x2="77.2277" y2="52.0742" />
<line fill="none" stroke="lightblue" stroke-width="12" x1="77.2277" y1="52.0742" x2="83.1683" y2="42.154" />
<line fill="none" stroke="lightblue" stroke-width="12" x1="83.1683" y1="42.154" x2="89.1089" y2="33.7438" />
<line fill="none" stroke="lightblue" stroke-width="12" x1="89.1089" y1="33.7438" x2="95.0495" y2="26.8776" />
<line fill="none" stroke="lightblue" stroke-width="12" x1="95.0495" y1="26.8776" x2="100.99" y2="21.584" />
<line fill="none" stroke="lightblue" stroke-width="12" x1="100.99" y1="21.584" x2="106.931" y2="17.8855" />
<line fill="none" stroke="lightblue" stroke-width="12" x1="106.931" y1="17.8855" x2="112.871" y2="15.7982" />
<line fill="none" stroke="lightblue" stroke-width="12" x1="112.871" y1="15.7982" x2="118.812" y2="15.3311" />
<line fill="none" stroke="lightblue" stroke-width="12" x1="118.812" y1="15.3311" x2="124.752" y2="16.4862" />
<line fill="none" stroke="lightblue" stroke-width="12" x1="124.752" y1="16.4862" x2="130.693" y2="19.2586" />
<line fill="none" stroke="lightblue" stroke-width="12" x1="130.693" y1="19.2586" x2="136.634" y2="23.6362" />
<line fill="none" stroke="lightblue" stroke-width="12" x1="136.634" y1="23.6362" x2="142.574" y2="29.6001" />
<line fill="none" stroke="lightblue" stroke-width="12" x1="142.574" y1="29.6001" x2="148.515" y2="37.1252" />
<line fill="none" stroke="lightblue" stroke-width="12" x1="148.515" y1="37.1252" x2="154.455" y2="46.1805" />
<line fill="none" stroke="lightblue" stroke-width="12" x1="154.455" y1="46.1805" x2="160.396" y2="56.7298" />
<line fill="none" stroke="lightblue" stroke-width="12" x1="160.396" y1="56.7298" x2="166.337" y2="68.7322" />
<line fill="none" stroke="lightblue" stroke-width="12" x1="166.337" y1="68.7322" x2="172.277" y2="82.1433" />
<line fill="none" stroke="lightblue" stroke-width="12" x1="172.277" y1="82.1433" x2="178.218" y2="96.9152" />
<line fill="none" stroke="lightblue" stroke-width="12" x1="178.218" y1="96.9152" x2="184.158" y2="112.998" />
<line fill="none" stroke="lightblue" stroke-width="12" x1="184.158" y1="112.998" x2="190.099" y2="130.34" />
<line fill="none" stroke="lightblue" stroke-width="12" x1="190.099" y1="130.34" x2="196.04" y2="148.888" />
<line fill="none" stroke="lightblue" stroke-width="12" x1="196.04" y1="148.888" x2="201.98" y2="168.588" />
<line fill="none" stroke="lightblue" stroke-width="12" x1="201.98" y1="168.588" x2="207.921" y2="189.389" />
<line fill="none" stroke="lightblue" stroke-width="12" x1="207.921" y1="189.389" x2="213.861" y2="211.236" />
<line fill="none" stroke="lightblue" stroke-width="12" x1="213.861" y1="211.236" x2="219.802" y2="234.079" />
<line fill="none" stroke="lightblue" stroke-width="12" x1="219.802" y1="234.079" x2="225.743" y2="257.866" />
<line fill="none" stroke="lightblue" stroke-width="12" x1="225.743" y1="257.866" x2="231.683" y2="282.549" />
<line fill="none" stroke="lightblue" stroke-width="12" x1="231.683" y1="282.549" x2="237.624" y2="308.08" />
<line fill="none" stroke="lightblue" stroke-width="12" x1="237.624" y1="308.08" x2="243.564" y2="334.413" />
<line fill="none" stroke="lightblue" stroke-width="12" x1="243.564" y1="334.413" x2="249.505" y2="361.506" />
<line fill="none" stroke="lightblue" stroke-width="12" x1="249.505" y1="361.506" x2="255.446" y2="389.315" />
<line fill="none" stroke="lightblue" stroke-width="12" x1="255.446" y1="389.315" x2="261.386" y2="417.803" />
<line fill="none" stroke="lightblue" stroke-width="12" x1="261.386" y1="417.803" x2="267.327" y2="446.93" />
<line fill="none" stroke="lightblue" stroke-width="12" x1="267.327" y1="446.93" x2="273.267" y2="474.366" />
<line fill="none" stroke="lightblue" stroke-width="12" x1="273.267" y1="474.366" x2="279.208" y2="486.899" />
<line fill="none" stroke="lightblue" stroke-width="12" x1="279.208" y1="486.899" x2="285.149" y2="500.461" />
<line fill="none" stroke="lightblue" stroke-width="12" x1="285.149" y1="500.461" x2="291.089" y2="515.027" />
<line fill="none" stroke="lightblue" stroke-width="12" x1="291.089" y1="515.027" x2="297.03" y2="519.851" />
<line fill="none" stroke="lightblue" stroke-width="12" x1="297.03" y1="519.851" x2="302.97" y2="525.04" />
<line fill="none" stroke="lightblue" stroke-width="12" x1="302.97" y1="525.04" x2="308.911" y2="530.722" />
<line fill="none" stroke="lightblue" stroke-width="12" x1="308.911" y1="530.722" x2="314.851" y2="537.511" />
<line fill="none" stroke="lightblue" stroke-width="12" x1="314.851" y1="537.511" x2="320.792" y2="545.394" />
<line fill="none" stroke="lightblue" stroke-width="12" x1="320.792" y1="545.394" x2="326.733" y2="554.354" />
<line fill="none" stroke="lightblue" stroke-width="12" x1="326.733" y1="554.354" x2="332.673" y2="564.374" />
<line fill="none" stroke="lightblue" stroke-width="12" x1="332.673" y1="564.374" x2="338.614" y2="575.435" />
<line fill="none" stroke="lightblue" stroke-width="12" x1="338.614" y1="575.435" x2="344.554" y2="587.516" />
<line fill="none" stroke="lightblue" stroke-width="12" x1="344.554" y1="587.516" x2="350.495" y2="584.061" />
<line fill="none" stroke="lightblue" stroke-width="12" x1="350.495" y1="584.061" x2="356.436" y2="568.284" />
<line fill="none" stroke="lightblue" stroke-width="12" x1="356.436" y1="568.284" x2="362.376" y2="553.502" />
<line fill="none" stroke="lightblue" stroke-width="12" x1="362.376" y1="553.502" x2="368.317" y2="523.795" />
<line fill="none" stroke="lightblue" stroke-width="12" x1="368.317" y1="523.795" x2="374.257" y2="493.798" />
<line fill="none" stroke="lightblue" stroke-width="12" x1="374.257" y1="493.798" x2="380.198" y2="464.435" />
<line fill="none" stroke="lightblue" stroke-width="12" x1="380.198" y1="464.435" x2="386.139" y2="435.742" />
<line fill="none" stroke="lightblue" stroke-width="12" x1="386.139" y1="435.742" x2="392.079" y2="407.758" />
<line fill="none" stroke="lightblue" stroke-width="12" x1="392.079" y1="407.758" x2="398.02" y2="380.522" />
<line fill="none" stroke="lightblue" stroke-width="12" x1="398.02" y1="380.522" x2="403.96" y2="354.079" />
<line fill="none" stroke="lightblue" stroke-width="12" x1="403.96" y1="354.079" x2="409.901" y2="328.471" />
<line fill="none" stroke="lightblue" stroke-width="12" x1="409.901" y1="328.471" x2="415.842" y2="303.744" />
<line fill="none" stroke="lightblue" stroke-width="12" x1="415.842" y1="303.744" x2="421.782" y2="279.948" />
<line fill="none" stroke="lightblue" stroke-width="12" x1="421.782" y1="279.948" x2="427.723" y2="257.13" />
<line fill="none" stroke="lightblue" stroke-width="12" x1="427.723" y1="257.13" x2="433.663" y2="235.341" />
<line fill="none" stroke="lightblue" stroke-width="12" x1="433.663" y1="235.341" x2="439.604" y2="214.632" />
<line fill="none" stroke="lightblue" stroke-width="12" x1="439.604" y1="214.632" x2="445.545" y2="195.057" />
<line fill="none" stroke="lightblue" stroke-width="12" x1="445.545" y1="195.057" x2="451.485" y2="176.667" />
<line fill="none" stroke="lightblue" stroke-width="12" x1="451.485" y1="176.667" x2="457.426" y2="159.515" />
<line fill="none" stroke="lightblue" stroke-width="12" x1="457.426" y1="159.515" x2="463.366" y2="143.653" />
<line fill="none" stroke="lightblue" stroke-width="12" x1="463.366" y1="143.653" x2="469.307" y2="129.129" />
<line fill="none" stroke="lightblue" stroke-width="12" x1="469.307" y1="129.129" x2="475.248" y2="115.994" />
<line fill="none" stroke="lightblue" stroke-width="12" x1="475.248" y1="115.994" x2="481.188" y2="104.293" />
<line fill="none" stroke="lightblue" stroke-width="12" x1="481.188" y1="104.293" x2="487.129" y2="94.0677" />
<line fill="none" stroke="lightblue" stroke-width="12" x1="487.129" y1="94.0677" x2="493.069" y2="85.3572" />
<line fill="none" stroke="lightblue" stroke-width="12" x1="493.069" y1="85.3572" x2="499.01" y2="78.1953" />
<line fill="none" stroke="lightblue" stroke-width="12" x1="499.01" y1="78.1953" x2="504.95" y2="72.6105" />
<line fill="none" stroke="lightblue" stroke-width="12" x1="504.95" y1="72.6105" x2="510.891" y2="68.6257" />
<line fill="none" stroke="lightblue" stroke-width="12" x1="510.891" y1="68.6257" x2="516.832" y2="66.2573" />
<line fill="none" stroke="lightblue" stroke-width="12" x1="516.832" y1="66.2573" x2="522.772" y2="65.5154" />
<line fill="none" stroke="lightblue" stroke-width="12" x1="522.772" y1="65.5154" x2="528.713" y2="66.403" />
<line fill="none" stroke="lightblue" stroke-width="12" x1="528.713" y1="66.403" x2="534.653" y2="68.9164" />
<line fill="none" stroke="lightblue" stroke-width="12" x1="534.653" y1="68.9164" x2="540.594" y2="73.0451" />
<line fill="none" stroke="lightblue" stroke-width="12" x1="540.594" y1="73.0451" x2="546.535" y2="78.772" />
<line fill="none" stroke="lightblue" stroke-width="12" x1="546.535" y1="78.772" x2="552.475" y2="86.0737" />
<line fill="none" stroke="lightblue" stroke-width="12" x1="552.475" y1="86.0737" x2="558.416" y2="94.9211" />
<line fill="none" stroke="lightblue" stroke-width="12" x1="558.416" y1="94.9211" x2="564.356" y2="105.28" />
<line fill="none" stroke="lightblue" stroke-width="12" x1="564.356" y1="105.28" x2="570.297" y2="117.111" />
<line fill="none" stroke="lightblue" stroke-width="12" x1="570.297" y1="117.111" x2="576.238" y2="130.373" />
<line fill="none" stroke="lightblue" stroke-width="12" x1="576.238" y1="130.373" x2="582.178" y2="145.018" />
<line fill="none" stroke="lightblue" stroke-width="12" x1="582.178" y1="145.018" x2="588.119" y2="160.998" />
<line fill="none" stroke="lightblue" stroke-width="12" x1="588.119" y1="160.998" x2="594.059" y2="178.263" />
<line fill="none" stroke="olive" stroke-width="3" x1="0" y1="178.263" x2="5.94059" y2="178.263" />
<line fill="none" stroke="olive" stroke-width="3" x1="5.94059" y1="178.263" x2="11.8812" y2="163.894" />
<line fill="none" stroke="olive" stroke-width="3" x1="11.8812" y1="163.894" x2="17.8218" y2="150.806" />
<line fill="none" stroke="olive" stroke-width="3" x1="17.8218" y1="150.806" x2="23.7624" y2="139.039" />
<line fill="none" stroke="olive" stroke-width="3" x1="23.7624" y1="139.039" x2="29.703" y2="128.631" />
<line fill="none" stroke="olive" stroke-width="3" x1="29.703" y1="128.631" x2="35.6436" y2="119.618" />
<line fill="none" stroke="olive" stroke-width="3" x1="35.6436" y1="119.618" x2="41.5842" y2="112.031" />
<line fill="none" stroke="olive" stroke-width="3" x1="41.5842" y1="112.031" x2="47.5248" y2="105.896" />
<line fill="none" stroke="olive" stroke-width="3" x1="47.5248" y1="105.896" x2="53.4653" y2="101.237" />
<line fill="none" stroke="olive" stroke-width="3" x1="53.4653" y1="101.237" x2="59.4059" y2="98.0712" />
<line fill="none" stroke="olive" stroke-width="3" x1="59.4059" y1="98.0712" x2="65.3465" y2="96.4097" />
<line fill="none" stroke="olive" stroke-width="3" x1="65.3465" y1="96.4097" x2="71.2871" y2="96.2592" />
<line fill="none" stroke="olive" stroke-width="3" x1="71.2871" y1="96.2592" x2="77.2277" y2="97.6202" />
<line fill="none" stroke="olive" stroke-width="3" x1="77.2277" y1="97.6202" x2="83.1683" y2="100.488" />
<line fill="none" stroke="olive" stroke-width="3" x1="83.1683" y1="100.488" x2="89.1089" y2="104.851" />
<line fill="none" stroke="olive" stroke-width="3" x1="89.1089" y1="104.851" x2="95.0495" y2="110.693" />
<line fill="none" stroke="olive" stroke-width="3" x1="95.0495" y1="110.693" x2="100.99" y2="117.993" />
<line fill="none" stroke="olive" stroke-width="3" x1="100.99" y1="117.993" x2="106.931" y2="119.4" />
<line fill="none" stroke="olive" stroke-width="3" x1="106.931" y1="119.4" x2="112.871" y2="117.411" />
<line fill="none" stroke="olive" stroke-width="3" x1="112.871" y1="117.411" x2="118.812" y2="116.905" />
<line fill="none" stroke="olive" stroke-width="3" x1="118.812" y1="116.905" x2="124.752" y2="117.886" />
<line fill="none" stroke="olive" stroke-width="3" x1="124.752" y1="117.886" x2="130.693" y2="120.349" />
<line fill="none" stroke="olive" stroke-width="3" x1="130.693" y1="120.349" x2="136.634" y2="124.285" />
<line fill="none" stroke="olive" stroke-width="3" x1="136.634" y1="124.285" x2="142.574" y2="129.681" />
<line fill="none" stroke="olive" stroke-width="3" x1="142.574" y1="129.681" x2="148.515" y2="136.516" />
<line fill="none" stroke="olive" stroke-width="3" x1="148.515" y1="136.516" x2="154.455" y2="144.768" />
<line fill="none" stroke="olive" stroke-width="3" x1="154.455" y1="144.768" x2="160.396" y2="154.407" />
<line fill="none" stroke="olive" stroke-width="3" x1="160.396" y1="154.407" x2="166.337" y2="165.402" />
<line fill="none" stroke="olive" stroke-width="3" x1="166.337" y1="165.402" x2="172.277" y2="177.718" />
<line fill="none" stroke="olive" stroke-width="3" x1="172.277" y1="177.718" x2="178.218" y2="191.316" />
<line fill="none" stroke="olive" stroke-width="3" x1="178.218" y1="191.316" x2="184.158" y2="176.671" />
<line fill="none" stroke="olive" stroke-width="3" x1="184.158" y1="176.671" x2="190.099" y2="161.276" />
<line fill="none" stroke="olive" stroke-width="3" x1="190.099" y1="161.276" x2="196.04" y2="147.14" />
<line fill="none" stroke="olive" stroke-width="3" x1="196.04" y1="147.14" x2="201.98" y2="134.307" />
<line fill="none" stroke="olive" stroke-width="3" x1="201.98" y1="134.307" x2="207.921" y2="122.819" />
<line fill="none" stroke="olive" stroke-width="3" x1="207.921" y1="122.819" x2="213.861" y2="112.714" />
<line fill="none" stroke="olive" stroke-width="3" x1="213.861" y1="112.714" x2="219.802" y2="104.026" />
<line fill="none" stroke="olive" stroke-width="3" x1="219.802" y1="104.026" x2="225.743" y2="96.7877" />
<line fill="none" stroke="olive" stroke-width="3" x1="225.743" y1="96.7877" x2="231.683" y2="91.0249" />
<line fill="none" stroke="olive" stroke-width="3" x1="231.683" y1="91.0249" x2="237.624" y2="86.7594" />
<line fill="none" stroke="olive" stroke-width="3" x1="237.624" y1="86.7594" x2="243.564" y2="84.0074" />
<line fill="none" stroke="olive" stroke-width="3" x1="243.564" y1="84.0074" x2="249.505" y2="82.7798" />
<line fill="none" stroke="olive" stroke-width="3" x1="249.505" y1="82.7798" x2="255.446" y2="83.0811" />
<line fill="none" stroke="olive" stroke-width="3" x1="255.446" y1="83.0811" x2="261.386" y2="84.9104" />
<line fill="none" stroke="olive" stroke-width="3" x1="261.386" y1="84.9104" x2="267.327" y2="88.2604" />
<line fill="none" stroke="olive" stroke-width="3" x1="267.327" y1="88.2604" x2="273.267" y2="93.1182" />
<line fill="none" stroke="olive" stroke-width="3" x1="273.267" y1="93.1182" x2="279.208" y2="99.4655" />
<line fill="none" stroke="olive" stroke-width="3" x1="279.208" y1="99.4655" x2="285.149" y2="107.278" />
<line fill="none" stroke="olive" stroke-width="3" x1="285.149" y1="107.278" x2="291.089" y2="116.529" />
<line fill="none" stroke="olive" stroke-width="3" x1="291.089" y1="116.529" x2="297.03" y2="127.183" />
<line fill="none" stroke="olive" stroke-width="3" x1="297.03" y1="127.183" x2="302.97" y2="90.9522" />
<line fill="none" stroke="olive" stroke-width="3" x1="302.97" y1="90.9522" x2="308.911" y2="76.9844" />
<line fill="none" stroke="olive" stroke-width="3" x1="308.911" y1="76.9844" x2="314.851" y2="64.4363" />
<line fill="none" stroke="olive" stroke-width="3" x1="314.851" y1="64.4363" x2="320.792" y2="53.3547" />
<line fill="none" stroke="olive" stroke-width="3" x1="320.792" y1="53.3547" x2="326.733" y2="43.7825" />
<line fill="none" stroke="olive" stroke-width="3" x1="326.733" y1="43.7825" x2="332.673" y2="35.7582" />
<line fill="none" stroke="olive" stroke-width="3" x1="332.673" y1="35.7582" x2="338.614" y2="29.315" />
<line fill="none" stroke="olive" stroke-width="3" x1="338.614" y1="29.315" x2="344.554" y2="24.4804" />
<line fill="none" stroke="olive" stroke-width="3" x1="344.554" y1="24.4804" x2="350.495" y2="538.765" />
<line fill="none" stroke="olive" stroke-width="3" x1="350.495" y1="538.765" x2="356.436" y2="539.98" />
<line fill="none" stroke="olive" stroke-width="3" x1="356.436" y1="539.98" x2="362.376" y2="540.171" />
<line fill="none" stroke="olive" stroke-width="3" x1="362.376" y1="540.171" x2="368.317" y2="523.795" />
<line fill="none" stroke="olive" stroke-width="3" x1="368.317" y1="523.795" x2="374.257" y2="493.798" />
<line fill="none" stroke="olive" stroke-width="3" x1="374.257" y1="493.798" x2="380.198" y2="464.435" />
<line fill="none" stroke="olive" stroke-width="3" x1="380.198" y1="464.435" x2="386.139" y2="435.742" />
<line fill="none" stroke="olive" stroke-width="3" x1="386.139" y1="435.742" x2="392.079" y2="407.758" />
<line fill="none" stroke="olive" stroke-width="3" x1="392.079" y1="407.758" x2="398.02" y2="380.522" />
<line fill="none" stroke="olive" stroke-width="3" x1="398.02" y1="380.522" x2="403.96" y2="354.079" />
<line fill="none" stroke="olive" stroke-width="3" x1="403.96" y1="354.079" x2="409.901" y2="328.471" />
<line fill="none" stroke="olive" stroke-width="3" x1="409.901" y1="328.471" x2="415.842" y2="303.744" />
<line fill="none" stroke="olive" stroke-width="3" x1="415.842" y1="303.744" x2="421.782" y2="279.948" />
<line fill="none" stroke="olive" stroke-width="3" x1="421.782" y1="279.948" x2="427.723" y2="257.13" />
<line fill="none" stroke="olive" stroke-width="3" x1="427.723" y1="257.13" x2="433.663" y2="235.341" />
<line fill="none" stroke="olive" stroke-width="3" x1="433.663" y1="235.341" x2="439.604" y2="214.632" />
<line fill="none" stroke="olive" stroke-width="3" x1="439.604" y1="214.632" x2="445.545" y2="195.057" />
<line fill="none" stroke="olive" stroke-width="3" x1="445.545" y1="195.057" x2="451.485" y2="176.667" />
<line fill="none" stroke="olive" stroke-width="3" x1="451.485" y1="176.667" x2="457.426" y2="159.515" />
<line fill="none" stroke="olive" stroke-width="3" x1="457.426" y1="159.515" x2="463.366" y2="143.653" />
<line fill="none" stroke="olive" stroke-width="3" x1="463.366" y1="143.653" x2="469.307" y2="129.129" />
<line fill="none" stroke="olive" stroke-width="3" x1="469.307" y1="129.129" x2="475.248" y2="115.994" />
<line fill="none" stroke="olive" stroke-width="3" x1="475.248" y1="115.994" x2="481.188" y2="104.293" />
<line fill="none" stroke="olive" stroke-width="3" x1="481.188" y1="104.293" x2="487.129" y2="94.0677" />
<line fill="none" stroke="olive" stroke-width="3" x1="487.129" y1="94.0677" x2="493.069" y2="85.3572" />
<line fill="none" stroke="olive" stroke-width="3" x1="493.069" y1="85.3572" x2="499.01" y2="78.1953" />
<line fill="none" stroke="olive" stroke-width="3" x1="499.01" y1="78.1953" x2="504.95" y2="72.6105" />
<line fill="none" stroke="olive" stroke-width="3" x1="504.95" y1="72.6105" x2="510.891" y2="68.6257" />
<line fill="none" stroke="olive" stroke-width="3" x1="510.891" y1="68.6257" x2="516.832" y2="66.2573" />
<line fill="none" stroke="olive" stroke-width="3" x1="516.832" y1="66.2573" x2="522.772" y2="65.5154" />
<line fill="none" stroke="olive" stroke-width="3" x1="522.772" y1="65.5154" x2="528.713" y2="66.403" />
<line fill="none" stroke="olive" stroke-width="3" x1="528.713" y1="66.403" x2="534.653" y2="68.9164" />
<line fill="none" stroke="olive" stroke-width="3" x1="534.653" y1="68.9164" x2="540.594" y2="73.0451" />
<line fill="none" stroke="olive" stroke-width="3" x1="540.594" y1="73.0451" x2="546.535" y2="78.772" />
<line fill="none" stroke="olive" stroke-width="3" x1="546.535" y1="78.772" x2="552.475" y2="86.0737" />
<line fill="none" stroke="olive" stroke-width="3" x1="552.475" y1="86.0737" x2="558.416" y2="94.9211" />
<line fill="none" stroke="olive" stroke-width="3" x1="558.416" y1="94.9211" x2="564.356" y2="105.28" />
<line fill="none" stroke="olive" stroke-width="3" x1="564.356" y1="105.28" x2="570.297" y2="117.111" />
<line fill="none" stroke="olive" stroke-width="3" x1="570.297" y1="117.111" x2="576.238" y2="130.373" />
<line fill="none" stroke="olive" stroke-width="3" x1="576.238" y1="130.373" x2="582.178" y2="145.018" />
<line fill="none" stroke="olive" stroke-width="3" x1="582.178" y1="145.018" x2="588.119" y2="160.998" />
<line fill="none" stroke="olive" stroke-width="3" x1="588.119" y1="160.998" x2="594.059" y2="178.263" />

<!--Draw Glitches -->

<line fill="none" stroke="black" stroke-width="4" x1="350.495" y1="528.765" x2="350.495" y2="478.765"  stroke-dasharray = "10,5" />
<text transform="scale(1,-1)" font-family="sans-serif" font-size="30" stroke = "rgb(0,0,0)" line = "rgb(0,0,0)"  fill = "olive" x="355.495" y="-478.765" >58</text>

<!-- -->


<!--Draw the X and Y axes -->
<polyline fill="none" stroke="black" stroke-width="6"  points=" 600,0 0,0 0, 600" />
<polyline fill="none" stroke="black" stroke-width="1"  points=" 0 600  600 600  600 0" />
<!-- -->


<!--Draw labels and tics for X axis -->

<line fill="none" stroke="black"  stroke-width="6"  x1="0.5" y1="0" x2="0.5" y2="-20" />
<text transform="scale(1,-1)" font-family="sans-serif" font-size="30" x="-24.5" y="45" >0</text>
<line fill="none" stroke="black"  stroke-width="6"  x1="119.312" y1="0" x2="119.312" y2="-20" />
<text transform="scale(1,-1)" font-family="sans-serif" font-size="30" x="94.3119" y="45" >20</text>
<line fill="none" stroke="black"  stroke-width="6"  x1="238.124" y1="0" x2="238.124" y2="-20" />
<text transform="scale(1,-1)" font-family="sans-serif" font-size="30" x="213.124" y="45" >40</text>
<line fill="none" stroke="black"  stroke-width="6"  x1="356.936" y1="0" x2="356.936" y2="-20" />
<text transform="scale(1,-1)" font-family="sans-serif" font-size="30" x="331.936" y="45" >60</text>
<line fill="none" stroke="black"  stroke-width="6"  x1="475.748" y1="0" x2="475.748" y2="-20" />
<text transform="scale(1,-1)" font-family="sans-serif" font-size="30" x="450.748" y="45" >80</text>
<line fill="none" stroke="black"  stroke-width="6"  x1="594.559" y1="0" x2="594.559" y2="-20" />
<text transform="scale(1,-1)" font-family="sans-serif" font-size="30" x="569.559" y="45" >100</text>


<!--Draw labels and tics for Y axis -->

<line fill="none" stroke="black" stroke-width="6" x1="0.0" y1="0" x2="-20" y2="0" />
<text transform="scale(1,-1)" text-anchor="end" font-family="sans-serif" font-size="30" x="-25" y="10" >20</text>
<line fill="none" stroke="black" stroke-width="6" x1="0.0" y1="54.5455" x2="-20" y2="54.5455" />
<text transform="scale(1,-1)" text-anchor="end" font-family="sans-serif" font-size="30" x="-25" y="-44.5455" >21</text>
<line fill="none" stroke="black" stroke-width="6" x1="0.0" y1="109.091" x2="-20" y2="109.091" />
<text transform="scale(1,-1)" text-anchor="end" font-family="sans-serif" font-size="30" x="-25" y="-99.0909" >22</text>
<line fill="none" stroke="black" stroke-width="6" x1="0.0" y1="163.636" x2="-20" y2="163.636" />
<text transform="scale(1,-1)" text-anchor="end" font-family="sans-serif" font-size="30" x="-25" y="-153.636" >23</text>
<line fill="none" stroke="black" stroke-width="6" x1="0.0" y1="218.182" x2="-20" y2="218.182" />
<text transform="scale(1,-1)" text-anchor="end" font-family="sans-serif" font-size="30" x="-25" y="-208.182" >24</text>
<line fill="none" stroke="black" stroke-width="6" x1="0.0" y1="272.727" x2="-20" y2="272.727" />
<text transform="scale(1,-1)" text-anchor="end" font-family="sans-serif" font-size="30" x="-25" y="-262.727" >25</text>
<line fill="none" stroke="black" stroke-width="6" x1="0.0" y1="327.273" x2="-20" y2="327.273" />
<text transform="scale(1,-1)" text-anchor="end" font-family="sans-serif" font-size="30" x="-25" y="-317.273" >26</text>
<line fill="none" stroke="black" stroke-width="6" x1="0.0" y1="381.818" x2="-20" y2="381.818" />
<text transform="scale(1,-1)" text-anchor="end" font-family="sans-serif" font-size="30" x="-25" y="-371.818" >27</text>
<line fill="none" stroke="black" stroke-width="6" x1="0.0" y1="436.364" x2="-20" y2="436.364" />
<text transform="scale(1,-1)" text-anchor="end" font-family="sans-serif" font-size="30" x="-25" y="-426.364" >28</text>
<line fill="none" stroke="black" stroke-width="6" x1="0.0" y1="490.909" x2="-20" y2="490.909" />
<text transform="scale(1,-1)" text-anchor="end" font-family="sans-serif" font-size="30" x="-25" y="-480.909" >29</text>
<line fill="none" stroke="black" stroke-width="6" x1="0.0" y1="545.455" x2="-20" y2="545.455" />
<text transform="scale(1,-1)" text-anchor="end" font-family="sans-serif" font-size="30" x="-25" y="-535.455" >30</text>
<line fill="none" stroke="black" stroke-width="6" x1="0.0" y1="600" x2="-20" y2="600" />
<text transform="scale(1,-1)" text-anchor="end" font-family="sans-serif" font-size="30" x="-25" y="-590" >31</text>

-->
</g>
</g>
<!-- Run Constants
PRINTDISTANCEDATA bool true
GLITCHESONLY bool true
PLOT 2doubles 3 4
PERTURBBY double 0.05
GLITCHLEVEL double 3
BOUNDARYWINDOW double 0.065
FRAMESPERPATH int 200
STEPSPERFRAME int 100
TRIALS int 1
ALLBLACK bool true
FILEPREFIX string Fol
GRAPHSIZE int 0
BORDER int 0
PLOTSIZE int 0
G6LINEWIDTH int 3
DELONELINEWIDTH int 10
AXISWIDTH int 6
TICLENGTH int 20
VECTOR g6 
FOLLOWERMODE FollowerMode line
FIXRANDOMSEED fixRandomSeed false
RANDOMSEED int 19191
TIMESTAMP bool true
END end 




-->
</svg>
