<?xml version="1.0" standalone="no"?>
<!-- the width and height set the total pixel output of the image in the browser -->
<!-- whatever is within the viewbox will be remapped to show in this size -->
<svg width="1000" height="1000" viewBox="1 0  1200 1200"  version="1.1" xmlns="http://www.w3.org/2000/svg" xmlns:xlink="http://www.w3.org/1999/xlink">
 <desc>ID (and file name) = Fol_2020-03-20.09_52_22.0_16.svg  mode = Single Point </desc> 
<g transform = "scale(1 1)">

<text x = "-850" y="50" transform="rotate(-90)"  font-family="sans-serif" font-size="40" stroke ="lightgray" fill="none"> PointDistanceFollower   Mar 19 2020</text>
 <text x="200"  y="30"  font-family="sans-serif" font-size="20" >Fol_2020-03-20.09_52_22.0_16.svg  &#160;&#160;&#160;&#160;&#160; Wall time passed: 963 msec.</text>
<text x="300" y="60"   font-family="sans-serif" font-size="20" fill="lightblue">  S6  56 msec </text>
<text x="300" y="85"   font-family="sans-serif" font-size="20" fill="olive">  CS6Dist  2 msec </text>
<text x="300" y="110"   font-family="sans-serif" font-size="20" fill="black">  LM  905 msec </text>



 <!--DISTANCE PLOT BEGINS   mode = Single Point-->


<!-- the following will scale and place the distance plot -->
<g transform="translate(150,975) scale(1 -1)">
   <polyline fill="none" stroke=" lightblue " stroke-width=" 12 " stroke-dasharray = " 10,5 " points=" 7.92079,0 15.8416,14.397 23.7624,28.7941 31.6832,43.1911 39.604,57.5881 47.5248,71.9852 55.4455,86.3822 63.3663,100.779 71.2871,115.176 79.2079,129.573 87.1287,143.97 95.0495,158.367 102.97,172.764 110.891,187.161 118.812,201.558 126.733,215.956 134.653,230.353 142.574,244.75 150.495,259.147 158.416,273.544 166.337,287.941 174.257,302.338 182.178,316.735 190.099,331.132 198.02,345.529 205.941,359.926 213.861,374.323 221.782,388.72 229.703,403.117 237.624,417.514 245.545,431.911 253.465,446.308 261.386,460.705 269.307,475.102 277.228,489.499 285.149,503.896 293.069,518.293 300.99,532.69 308.911,547.087 316.832,561.484 324.752,575.881 332.673,590.278 340.594,604.675 348.515,619.072 356.436,633.47 364.356,647.867 372.277,662.264 380.198,676.661 388.119,691.058 396.04,705.455 403.96,705.455 411.881,691.058 419.802,676.661 427.723,662.264 435.644,647.867 443.564,633.47 451.485,619.072 459.406,604.675 467.327,590.278 475.248,575.881 483.168,561.484 491.089,547.087 499.01,532.69 506.931,518.293 514.851,503.896 522.772,489.499 530.693,475.102 538.614,460.705 546.535,446.308 554.455,431.911 562.376,417.514 570.297,403.117 578.218,388.72 586.139,374.323 594.059,359.926 601.98,345.529 609.901,331.132 617.822,316.735 625.743,302.338 633.663,287.941 641.584,273.544 649.505,259.147 657.426,244.75 665.347,230.353 673.267,215.956 681.188,201.558 689.109,187.161 697.03,172.764 704.95,158.367 712.871,143.97 720.792,129.573 728.713,115.176 736.634,100.779 744.554,86.3822 752.475,71.9852 760.396,57.5881 768.317,43.1911 776.238,28.7941 784.158,14.397 792.079,0 " />

   <polyline fill="none" stroke=" olive " stroke-width=" 3 " stroke-dasharray = " 5,10 " points=" 7.92079,3.8147e-05 15.8416,14.397 23.7624,28.7941 31.6832,43.1911 39.604,57.5881 47.5248,71.9852 55.4455,86.3822 63.3663,100.779 71.2871,115.176 79.2079,129.573 87.1287,143.97 95.0495,158.367 102.97,172.764 110.891,187.161 118.812,201.558 126.733,215.956 134.653,230.353 142.574,244.75 150.495,259.147 158.416,273.544 166.337,287.941 174.257,302.338 182.178,316.735 190.099,331.132 198.02,345.529 205.941,359.926 213.861,374.323 221.782,388.72 229.703,403.117 237.624,417.514 245.545,431.911 253.465,446.308 261.386,460.705 269.307,475.102 277.228,489.499 285.149,503.896 293.069,518.293 300.99,532.69 308.911,547.087 316.832,561.484 324.752,575.881 332.673,590.278 340.594,604.675 348.515,619.072 356.436,633.47 364.356,647.867 372.277,662.264 380.198,676.661 388.119,691.058 396.04,705.455 403.96,705.455 411.881,691.058 419.802,676.661 427.723,662.264 435.644,647.867 443.564,633.47 451.485,619.072 459.406,604.675 467.327,590.278 475.248,575.881 483.168,561.484 491.089,547.087 499.01,532.69 506.931,518.293 514.851,503.896 522.772,489.499 530.693,475.102 538.614,460.705 546.535,446.308 554.455,431.911 562.376,417.514 570.297,403.117 578.218,388.72 586.139,374.323 594.059,359.926 601.98,345.529 609.901,331.132 617.822,316.735 625.743,302.338 633.663,287.941 641.584,273.544 649.505,259.147 657.426,244.75 665.347,230.353 673.267,215.956 681.188,201.558 689.109,187.161 697.03,172.764 704.95,158.367 712.871,143.97 720.792,129.573 728.713,115.176 736.634,100.779 744.554,86.3822 752.475,71.9852 760.396,57.5881 768.317,43.1911 776.238,28.7941 784.158,14.397 792.079,3.8147e-05 " />

   <polyline fill="none" stroke=" black " stroke-width=" 3 " stroke-dasharray = "  " points=" 7.92079,0 15.8416,14.397 23.7624,28.7941 31.6832,43.1911 39.604,57.5881 47.5248,70.1519 55.4455,79.3875 63.3663,89.7603 71.2871,100.92 79.2079,112.633 87.1287,124.744 95.0495,137.147 102.97,149.77 110.891,162.561 118.812,175.484 126.733,188.512 134.653,201.624 142.574,214.805 150.495,228.043 158.416,241.328 166.337,254.653 174.257,268.013 182.178,281.402 190.099,294.816 198.02,308.252 205.941,321.708 213.861,335.18 221.782,348.667 229.703,362.168 237.624,375.68 245.545,389.203 253.465,402.736 261.386,416.277 269.307,429.826 277.228,443.382 285.149,456.945 293.069,470.513 300.99,484.087 308.911,497.666 316.832,511.249 324.752,524.837 332.673,538.428 340.594,552.023 348.515,565.621 356.436,579.223 364.356,592.827 372.277,606.435 380.198,620.044 388.119,633.656 396.04,647.27 403.96,647.27 411.881,633.656 419.802,620.044 427.723,606.435 435.644,592.827 443.564,579.223 451.485,565.621 459.406,552.023 467.327,538.428 475.248,524.837 483.168,511.249 491.089,497.666 499.01,484.087 506.931,470.513 514.851,456.945 522.772,443.382 530.693,429.826 538.614,416.277 546.535,402.736 554.455,389.203 562.376,375.68 570.297,362.168 578.218,348.667 586.139,335.18 594.059,321.708 601.98,308.252 609.901,294.816 617.822,281.402 625.743,268.013 633.663,254.653 641.584,241.328 649.505,228.043 657.426,214.805 665.347,201.624 673.267,188.512 681.188,175.484 689.109,162.561 697.03,149.77 704.95,137.147 712.871,124.744 720.792,112.633 728.713,100.92 736.634,89.7603 744.554,79.3875 752.475,70.1519 760.396,57.5881 768.317,43.1911 776.238,28.7941 784.158,14.397 792.079,0 " />


<!--Draw the X and Y axes -->
<polyline fill="none" stroke="black" stroke-width="6"  points=" 800,0 0,0 0, 800" />
<polyline fill="none" stroke="black" stroke-width="1"  points=" 0 800  800 800  800 0" />
<!-- -->


<!--Draw labels and tics for X axis -->

<line fill="none" stroke="black"  stroke-width="6"  x1="0.5" y1="0" x2="0.5" y2="-20" />
<text transform="scale(1,-1)" font-family="sans-serif" font-size="30" x="-24.5" y="45" >0</text>
<line fill="none" stroke="black"  stroke-width="6"  x1="158.916" y1="0" x2="158.916" y2="-20" />
<text transform="scale(1,-1)" font-family="sans-serif" font-size="30" x="133.916" y="45" >20</text>
<line fill="none" stroke="black"  stroke-width="6"  x1="317.332" y1="0" x2="317.332" y2="-20" />
<text transform="scale(1,-1)" font-family="sans-serif" font-size="30" x="292.332" y="45" >40</text>
<line fill="none" stroke="black"  stroke-width="6"  x1="475.748" y1="0" x2="475.748" y2="-20" />
<text transform="scale(1,-1)" font-family="sans-serif" font-size="30" x="450.748" y="45" >60</text>
<line fill="none" stroke="black"  stroke-width="6"  x1="634.163" y1="0" x2="634.163" y2="-20" />
<text transform="scale(1,-1)" font-family="sans-serif" font-size="30" x="609.163" y="45" >80</text>
<line fill="none" stroke="black"  stroke-width="6"  x1="792.579" y1="0" x2="792.579" y2="-20" />
<text transform="scale(1,-1)" font-family="sans-serif" font-size="30" x="767.579" y="45" >100</text>


<!--Draw labels and tics for Y axis -->

<line fill="none" stroke="black" stroke-width="6" x1="0.0" y1="0" x2="-20" y2="0" />
<text transform="scale(1,-1)" text-anchor="end" font-family="sans-serif" font-size="30" x="-25" y="10" >0</text>
<line fill="none" stroke="black" stroke-width="6" x1="0.0" y1="200" x2="-20" y2="200" />
<text transform="scale(1,-1)" text-anchor="end" font-family="sans-serif" font-size="30" x="-25" y="-190" >20</text>
<line fill="none" stroke="black" stroke-width="6" x1="0.0" y1="400" x2="-20" y2="400" />
<text transform="scale(1,-1)" text-anchor="end" font-family="sans-serif" font-size="30" x="-25" y="-390" >40</text>
<line fill="none" stroke="black" stroke-width="6" x1="0.0" y1="600" x2="-20" y2="600" />
<text transform="scale(1,-1)" text-anchor="end" font-family="sans-serif" font-size="30" x="-25" y="-590" >60</text>
<line fill="none" stroke="black" stroke-width="6" x1="0.0" y1="800" x2="-20" y2="800" />
<text transform="scale(1,-1)" text-anchor="end" font-family="sans-serif" font-size="30" x="-25" y="-790" >80</text>

-->
</g>
</g>
<!-- Run Constants
PRINTDISTANCEDATA bool true
GLITCHESONLY bool false
PERTURBBY double 0.05
GLITCHLEVEL double 3
BOUNDARYWINDOW double 0.065
STEPSPERFRAME int 100
TRIALS int 20
ALLBLACK bool true
FILEPREFIX string Fol
NIGGLISELLINGFIRST bool false
ENABLE DistanceEnableString 
DISABLE DistanceDisableString 
GRAPHSIZE int 0
BORDER int 0
PLOTSIZE int 0
AXISWIDTH int 6
TICLENGTH int 20
VECTOR g6 
FOLLOWERMODE FollowerMode point
FIXRANDOMSEED fixRandomSeed false
RANDOMSEED int 19191
TIMESTAMP bool true
END end 


-->
</svg>
