<?xml version="1.0" standalone="no"?>
<!-- the width and height set the total pixel output of the image in the browser -->
<!-- whatever is within the viewbox will be remapped to show in this size -->
<svg width="1000" height="1000" viewBox="1 0 1000 1000"  version="1.1" xmlns="http://www.w3.org/2000/svg" xmlns:xlink="http://www.w3.org/1999/xlink">
 <desc>ID (and file name) = Fol_2018-05-14.17_24_46.1_71.svg </desc> 
 <text x="560" y="30" font-family="sans-serif" font-size="20">Wall time passed: 1412 msec.</text>
<text x="300" y="60"   font-family="sans-serif" font-size="20" fill="lightblue">S6  lightblue</text>
<text x="300" y="85"   font-family="sans-serif" font-size="20" fill="slategrey">NCDist  slategrey</text>
<text x="300" y="110"  font-family="sans-serif" font-size="20" fill="violet">D7  violet</text>
<text x="300" y="135"  font-family="sans-serif" font-size="20" fill="olive">CS6Dist  olive</text>

 <text x="140"  y="30"  font-family="sans-serif" font-size="20" >Fol_2018-05-14.17_24_46.1_71.svg  </text> 


 <!--DISTANCE PLOT BEGINS-->


<!-- the following will scale and place the distance plot -->
<g  transform="translate(0,50) ">
<g transform="translate(150,700) scale(1 -1)">
   <polyline fill="none" stroke=" lightblue " stroke-width=" 12 " points=" 6,0 12,10.9542 18,21.9084 24,32.8625 30,41.3622 36,51.4402 42,53.91 48,52.6012 54,53.1095 60,55.385 66,59.2242 72,64.348 78,70.4766 84,77.3717 90,84.8466 96,92.7613 102,101.012 108,109.524 114,118.24 120,127.118 126,136.126 132,145.241 138,154.442 144,163.717 150,173.053 156,182.44 162,191.871 168,201.34 174,210.842 180,220.373 186,229.928 192,239.505 198,249.102 204,258.716 210,268.346 216,277.989 222,287.645 228,297.312 234,306.989 240,316.675 246,326.37 252,336.072 258,345.782 264,355.498 270,365.22 276,374.947 282,384.679 288,394.417 294,404.158 300,413.903 306,423.653 312,433.406 318,438.405 324,438.814 330,438.653 336,431.609 342,421.849 348,412.093 354,402.34 360,392.591 366,382.846 372,373.105 378,363.368 384,353.637 390,343.911 396,334.117 402,324.29 408,314.463 414,304.636 420,294.809 426,284.982 432,275.155 438,265.328 444,255.501 450,245.674 456,235.847 462,226.02 468,216.193 474,206.366 480,196.539 486,186.712 492,176.885 498,167.058 504,157.231 510,147.404 516,137.578 522,127.751 528,117.924 534,108.097 540,98.2697 546,88.4427 552,78.6157 558,68.7888 564,58.9618 570,49.1348 576,39.3079 582,29.4809 588,19.6539 594,9.82697 600,0 " />
   <polyline fill="none" stroke=" slategrey " stroke-width=" 9 " points=" " />
   <polyline fill="none" stroke=" violet " stroke-width=" 6 " points=" " />
   <polyline fill="none" stroke=" olive " stroke-width=" 3 " points=" 6,0 12,10.9542 18,21.9084 24,32.8625 30,583.939 36,579.151 42,81.2276 48,81.6655 54,83.269 60,85.9729 66,89.6777 72,94.2655 78,99.6143 84,105.609 90,112.145 96,119.134 102,126.501 108,134.184 114,142.131 120,150.3 126,158.658 132,167.175 138,175.829 144,184.601 150,193.474 156,202.435 162,211.473 168,220.579 174,229.744 180,238.962 186,248.226 192,257.532 198,266.876 204,276.253 210,285.66 216,295.095 222,304.554 228,314.036 234,323.539 240,333.06 246,342.599 252,352.153 258,361.723 264,371.305 270,380.9 276,390.507 282,400.124 288,409.751 294,419.388 300,429.033 306,438.686 312,448.347 318,453.354 324,451.902 330,442.213 336,432.386 342,422.56 348,412.733 354,402.906 360,393.079 366,383.252 372,373.425 378,363.598 384,353.771 390,343.944 396,334.117 402,324.29 408,314.463 414,304.636 420,294.809 426,284.982 432,275.155 438,265.328 444,255.501 450,245.674 456,235.847 462,226.02 468,216.193 474,206.366 480,196.539 486,186.712 492,176.885 498,167.058 504,157.231 510,147.404 516,137.578 522,127.751 528,117.924 534,108.097 540,98.2697 546,88.4427 552,78.6157 558,68.7888 564,58.9618 570,49.1348 576,39.3079 582,29.4809 588,19.6539 594,9.82697 600,0 " />

<!--Draw Glitches -->

<line fill="none" stroke="black" stroke-width="4" x1="30" y1="31.3622" x2="30" y2="-18.6378"  stroke-dasharray = "10,5" />
<text transform="scale(1,-1)" font-family="sans-serif" font-size="30" stroke = "rgb(0,0,0)" line = "rgb(0,0,0)"  fill = "lightblue" x="35" y="18.6378" >4</text>

<!-- -->


<!--Draw Glitches -->

<line fill="none" stroke="black" stroke-width="4" x1="30" y1="573.939" x2="30" y2="523.939"  stroke-dasharray = "10,5" />
<text transform="scale(1,-1)" font-family="sans-serif" font-size="30" stroke = "rgb(0,0,0)" line = "rgb(0,0,0)"  fill = "olive" x="35" y="-523.939" >4</text>
<line fill="none" stroke="black" stroke-width="4" x1="42" y1="71.2276" x2="42" y2="21.2276"  stroke-dasharray = "10,5" />
<text transform="scale(1,-1)" font-family="sans-serif" font-size="30" stroke = "rgb(0,0,0)" line = "rgb(0,0,0)"  fill = "olive" x="47" y="-21.2276" >6</text>

<!-- -->


<!--Draw the X and Y axes -->
<polyline fill="none" stroke="black" stroke-width="6"  points=" 600,0 0,0 0, 600" />
<polyline fill="none" stroke="black" stroke-width="1"  points=" 0 600  600 600  600 0" />
<!-- -->


<!--Draw labels and tics for X axis -->

<line fill="none" stroke="black"  stroke-width="6"  x1="0.5" y1="0" x2="0.5" y2="-20" />
<text transform="scale(1,-1)" font-family="sans-serif" font-size="30" x="-24.5" y="45" >0</text>
<line fill="none" stroke="black"  stroke-width="6"  x1="120.5" y1="0" x2="120.5" y2="-20" />
<text transform="scale(1,-1)" font-family="sans-serif" font-size="30" x="95.5" y="45" >20</text>
<line fill="none" stroke="black"  stroke-width="6"  x1="240.5" y1="0" x2="240.5" y2="-20" />
<text transform="scale(1,-1)" font-family="sans-serif" font-size="30" x="215.5" y="45" >40</text>
<line fill="none" stroke="black"  stroke-width="6"  x1="360.5" y1="0" x2="360.5" y2="-20" />
<text transform="scale(1,-1)" font-family="sans-serif" font-size="30" x="335.5" y="45" >60</text>
<line fill="none" stroke="black"  stroke-width="6"  x1="480.5" y1="0" x2="480.5" y2="-20" />
<text transform="scale(1,-1)" font-family="sans-serif" font-size="30" x="455.5" y="45" >80</text>
<line fill="none" stroke="black"  stroke-width="6"  x1="600.5" y1="0" x2="600.5" y2="-20" />
<text transform="scale(1,-1)" font-family="sans-serif" font-size="30" x="575.5" y="45" >100</text>


<!--Draw labels and tics for Y axis -->

<line fill="none" stroke="black" stroke-width="6" x1="0.0" y1="0" x2="-20" y2="0" />
<text transform="scale(1,-1)" text-anchor="end" font-family="sans-serif" font-size="30" x="-25" y="10" >0</text>
<line fill="none" stroke="black" stroke-width="6" x1="0.0" y1="54.5455" x2="-20" y2="54.5455" />
<text transform="scale(1,-1)" text-anchor="end" font-family="sans-serif" font-size="30" x="-25" y="-44.5455" >5</text>
<line fill="none" stroke="black" stroke-width="6" x1="0.0" y1="109.091" x2="-20" y2="109.091" />
<text transform="scale(1,-1)" text-anchor="end" font-family="sans-serif" font-size="30" x="-25" y="-99.0909" >10</text>
<line fill="none" stroke="black" stroke-width="6" x1="0.0" y1="163.636" x2="-20" y2="163.636" />
<text transform="scale(1,-1)" text-anchor="end" font-family="sans-serif" font-size="30" x="-25" y="-153.636" >15</text>
<line fill="none" stroke="black" stroke-width="6" x1="0.0" y1="218.182" x2="-20" y2="218.182" />
<text transform="scale(1,-1)" text-anchor="end" font-family="sans-serif" font-size="30" x="-25" y="-208.182" >20</text>
<line fill="none" stroke="black" stroke-width="6" x1="0.0" y1="272.727" x2="-20" y2="272.727" />
<text transform="scale(1,-1)" text-anchor="end" font-family="sans-serif" font-size="30" x="-25" y="-262.727" >25</text>
<line fill="none" stroke="black" stroke-width="6" x1="0.0" y1="327.273" x2="-20" y2="327.273" />
<text transform="scale(1,-1)" text-anchor="end" font-family="sans-serif" font-size="30" x="-25" y="-317.273" >30</text>
<line fill="none" stroke="black" stroke-width="6" x1="0.0" y1="381.818" x2="-20" y2="381.818" />
<text transform="scale(1,-1)" text-anchor="end" font-family="sans-serif" font-size="30" x="-25" y="-371.818" >35</text>
<line fill="none" stroke="black" stroke-width="6" x1="0.0" y1="436.364" x2="-20" y2="436.364" />
<text transform="scale(1,-1)" text-anchor="end" font-family="sans-serif" font-size="30" x="-25" y="-426.364" >40</text>
<line fill="none" stroke="black" stroke-width="6" x1="0.0" y1="490.909" x2="-20" y2="490.909" />
<text transform="scale(1,-1)" text-anchor="end" font-family="sans-serif" font-size="30" x="-25" y="-480.909" >45</text>
<line fill="none" stroke="black" stroke-width="6" x1="0.0" y1="545.455" x2="-20" y2="545.455" />
<text transform="scale(1,-1)" text-anchor="end" font-family="sans-serif" font-size="30" x="-25" y="-535.455" >50</text>
<line fill="none" stroke="black" stroke-width="6" x1="0.0" y1="600" x2="-20" y2="600" />
<text transform="scale(1,-1)" text-anchor="end" font-family="sans-serif" font-size="30" x="-25" y="-590" >55</text>

-->
</g>
</g>
<!-- Run Constants
CIRCLEPLOT bool false
DISTANCEPLOT bool true
PRINTDISTANCEDATA bool true
GLITCHESONLY bool false
PLOT 2doubles 3 4
PERTURBBY double 0.05
GLITCHLEVEL double 3
BOUNDARYWINDOW double 0.065
FRAMESPERPATH int 200
STEPSPERFRAME int 100
TRIALS int 100
ALLBLACK bool true
FILEPREFIX string Fol
GRAPHSIZE int 0
BORDER int 0
PLOTSIZE int 0
G6LINEWIDTH int 3
DELONELINEWIDTH int 10
AXISWIDTH int 6
TICLENGTH int 20
VECTOR g6 
FOLLOWERMODE FollowerMode point
FIXRANDOMSEED fixRandomSeed false
RANDOMSEED int 19191
TIMESTAMP bool true
END end 




-->
</svg>
