<?xml version="1.0" standalone="no"?>
<!-- the width and height set the total pixel output of the image in the browser -->
<!-- whatever is within the viewbox will be remapped to show in this size -->
<svg width="1000" height="1000" viewBox="1 0 1000 1000"  version="1.1" xmlns="http://www.w3.org/2000/svg" xmlns:xlink="http://www.w3.org/1999/xlink">
 <desc>ID (and file name) = Fol_2018-05-14.17_24_13.1_50.svg </desc> 
 <text x="560" y="30" font-family="sans-serif" font-size="20">Wall time passed: 1207 msec.</text>
<text x="300" y="60"   font-family="sans-serif" font-size="20" fill="lightblue">S6  lightblue</text>
<text x="300" y="85"   font-family="sans-serif" font-size="20" fill="slategrey">NCDist  slategrey</text>
<text x="300" y="110"  font-family="sans-serif" font-size="20" fill="violet">D7  violet</text>
<text x="300" y="135"  font-family="sans-serif" font-size="20" fill="olive">CS6Dist  olive</text>

 <text x="140"  y="30"  font-family="sans-serif" font-size="20" >Fol_2018-05-14.17_24_13.1_50.svg  </text> 


 <!--DISTANCE PLOT BEGINS-->


<!-- the following will scale and place the distance plot -->
<g  transform="translate(0,50) ">
<g transform="translate(150,700) scale(1 -1)">
   <polyline fill="none" stroke=" lightblue " stroke-width=" 12 " points=" 6,0 12,10.5804 18,21.1609 24,31.7413 30,42.3217 36,52.9022 42,63.4826 48,74.063 54,84.6435 60,95.2239 66,105.804 72,116.385 78,126.965 84,137.546 90,148.126 96,158.706 102,169.287 108,179.867 114,190.448 120,201.028 126,211.609 132,222.189 138,232.769 144,243.35 150,253.93 156,264.511 162,275.091 168,285.672 174,296.252 180,306.833 186,317.413 192,327.993 198,338.574 204,349.154 210,359.735 216,370.315 222,380.896 228,391.476 234,402.056 240,412.637 246,423.217 252,433.798 258,444.378 264,454.959 270,465.539 276,476.119 282,486.7 288,497.28 294,507.861 300,518.441 306,518.441 312,507.861 318,497.28 324,486.7 330,476.119 336,465.539 342,454.959 348,444.378 354,433.798 360,423.217 366,412.637 372,402.056 378,391.476 384,380.896 390,370.315 396,359.735 402,349.154 408,338.574 414,327.993 420,317.413 426,306.833 432,296.252 438,285.672 444,275.091 450,264.511 456,253.93 462,243.35 468,232.769 474,222.189 480,211.609 486,201.028 492,190.448 498,179.867 504,169.287 510,158.706 516,148.126 522,137.546 528,126.965 534,116.385 540,105.804 546,95.2239 552,84.6435 558,74.063 564,63.4826 570,52.9022 576,42.3217 582,31.7413 588,21.1609 594,10.5804 600,0 " />
   <polyline fill="none" stroke=" slategrey " stroke-width=" 9 " points=" " />
   <polyline fill="none" stroke=" violet " stroke-width=" 6 " points=" " />
   <polyline fill="none" stroke=" olive " stroke-width=" 3 " points=" 6,0 12,10.5804 18,21.1609 24,31.7413 30,42.3217 36,52.9022 42,63.4826 48,74.063 54,84.6435 60,95.2239 66,105.804 72,116.385 78,126.965 84,137.546 90,148.126 96,158.706 102,169.287 108,179.867 114,190.448 120,201.028 126,211.609 132,222.189 138,232.769 144,243.35 150,253.93 156,264.511 162,275.091 168,285.672 174,296.252 180,306.833 186,317.413 192,327.993 198,338.574 204,349.154 210,359.735 216,370.315 222,380.896 228,391.476 234,402.056 240,412.637 246,423.217 252,433.798 258,444.378 264,454.959 270,465.539 276,476.119 282,486.7 288,497.28 294,507.861 300,518.441 306,518.441 312,507.861 318,497.28 324,486.7 330,476.119 336,465.539 342,454.959 348,444.378 354,433.798 360,423.217 366,412.637 372,402.056 378,391.476 384,380.896 390,370.315 396,359.735 402,349.154 408,338.574 414,327.993 420,317.413 426,306.833 432,296.252 438,285.672 444,275.091 450,264.511 456,253.93 462,243.35 468,232.769 474,222.189 480,211.609 486,201.028 492,190.448 498,179.867 504,169.287 510,158.706 516,148.126 522,137.546 528,126.965 534,116.385 540,105.804 546,95.2239 552,84.6435 558,74.063 564,63.4826 570,52.9022 576,42.3217 582,31.7413 588,21.1609 594,10.5804 600,0 " />

<!--Draw the X and Y axes -->
<polyline fill="none" stroke="black" stroke-width="6"  points=" 600,0 0,0 0, 600" />
<polyline fill="none" stroke="black" stroke-width="1"  points=" 0 600  600 600  600 0" />
<!-- -->


<!--Draw labels and tics for X axis -->

<line fill="none" stroke="black"  stroke-width="6"  x1="0.5" y1="0" x2="0.5" y2="-20" />
<text transform="scale(1,-1)" font-family="sans-serif" font-size="30" x="-24.5" y="45" >0</text>
<line fill="none" stroke="black"  stroke-width="6"  x1="120.5" y1="0" x2="120.5" y2="-20" />
<text transform="scale(1,-1)" font-family="sans-serif" font-size="30" x="95.5" y="45" >20</text>
<line fill="none" stroke="black"  stroke-width="6"  x1="240.5" y1="0" x2="240.5" y2="-20" />
<text transform="scale(1,-1)" font-family="sans-serif" font-size="30" x="215.5" y="45" >40</text>
<line fill="none" stroke="black"  stroke-width="6"  x1="360.5" y1="0" x2="360.5" y2="-20" />
<text transform="scale(1,-1)" font-family="sans-serif" font-size="30" x="335.5" y="45" >60</text>
<line fill="none" stroke="black"  stroke-width="6"  x1="480.5" y1="0" x2="480.5" y2="-20" />
<text transform="scale(1,-1)" font-family="sans-serif" font-size="30" x="455.5" y="45" >80</text>
<line fill="none" stroke="black"  stroke-width="6"  x1="600.5" y1="0" x2="600.5" y2="-20" />
<text transform="scale(1,-1)" font-family="sans-serif" font-size="30" x="575.5" y="45" >100</text>


<!--Draw labels and tics for Y axis -->

<line fill="none" stroke="black" stroke-width="6" x1="0.0" y1="0" x2="-20" y2="0" />
<text transform="scale(1,-1)" text-anchor="end" font-family="sans-serif" font-size="30" x="-25" y="10" >0</text>
<line fill="none" stroke="black" stroke-width="6" x1="0.0" y1="100" x2="-20" y2="100" />
<text transform="scale(1,-1)" text-anchor="end" font-family="sans-serif" font-size="30" x="-25" y="-90" >5</text>
<line fill="none" stroke="black" stroke-width="6" x1="0.0" y1="200" x2="-20" y2="200" />
<text transform="scale(1,-1)" text-anchor="end" font-family="sans-serif" font-size="30" x="-25" y="-190" >10</text>
<line fill="none" stroke="black" stroke-width="6" x1="0.0" y1="300" x2="-20" y2="300" />
<text transform="scale(1,-1)" text-anchor="end" font-family="sans-serif" font-size="30" x="-25" y="-290" >15</text>
<line fill="none" stroke="black" stroke-width="6" x1="0.0" y1="400" x2="-20" y2="400" />
<text transform="scale(1,-1)" text-anchor="end" font-family="sans-serif" font-size="30" x="-25" y="-390" >20</text>
<line fill="none" stroke="black" stroke-width="6" x1="0.0" y1="500" x2="-20" y2="500" />
<text transform="scale(1,-1)" text-anchor="end" font-family="sans-serif" font-size="30" x="-25" y="-490" >25</text>
<line fill="none" stroke="black" stroke-width="6" x1="0.0" y1="600" x2="-20" y2="600" />
<text transform="scale(1,-1)" text-anchor="end" font-family="sans-serif" font-size="30" x="-25" y="-590" >30</text>

-->
</g>
</g>
<!-- Run Constants
CIRCLEPLOT bool false
DISTANCEPLOT bool true
PRINTDISTANCEDATA bool true
GLITCHESONLY bool false
PLOT 2doubles 3 4
PERTURBBY double 0.05
GLITCHLEVEL double 3
BOUNDARYWINDOW double 0.065
FRAMESPERPATH int 200
STEPSPERFRAME int 100
TRIALS int 100
ALLBLACK bool true
FILEPREFIX string Fol
GRAPHSIZE int 0
BORDER int 0
PLOTSIZE int 0
G6LINEWIDTH int 3
DELONELINEWIDTH int 10
AXISWIDTH int 6
TICLENGTH int 20
VECTOR g6 
FOLLOWERMODE FollowerMode point
FIXRANDOMSEED fixRandomSeed false
RANDOMSEED int 19191
TIMESTAMP bool true
END end 




-->
</svg>
