<?xml version="1.0" standalone="no"?>
<!-- the width and height set the total pixel output of the image in the browser -->
<!-- whatever is within the viewbox will be remapped to show in this size -->
<svg width="1000" height="1000" viewBox="1 0  1200 1200"  version="1.1" xmlns="http://www.w3.org/2000/svg" xmlns:xlink="http://www.w3.org/1999/xlink">
 <desc>ID (and file name) = Fol_.10_0.svg  mode = LINE3 </desc> 
<g transform = "scale(1 1)">

<text x = "-850" y="50" transform="rotate(-90)"  font-family="sans-serif" font-size="40" stroke ="lightgray" fill="none"> PointDistanceFollower   Mar 20 2020</text>
 <text x="200"  y="30"  font-family="sans-serif" font-size="20" >Fol_.10_0.svg</text>
<text x="300" y="60"   font-family="sans-serif" font-size="20" fill="lightblue">  S6  </text>
<text x="300" y="85"   font-family="sans-serif" font-size="20" fill="olive">  CS6Dist  </text>
<text x="300" y="110"   font-family="sans-serif" font-size="20" fill="black">  LM  </text>



 <!--DISTANCE PLOT BEGINS   mode = LINE3-->


<!-- the following will scale and place the distance plot -->
<g transform="translate(150,975) scale(1 -1)">
   <polyline fill="none" stroke=" lightblue " stroke-width=" 12 " stroke-dasharray = " 10,5 " points=" 7.92079,0 15.8416,14.6917 23.7624,29.3833 31.6832,44.075 39.604,58.7666 47.5248,73.4583 55.4455,88.1499 63.3663,102.842 71.2871,117.533 79.2079,132.225 87.1287,146.917 95.0495,161.608 102.97,176.3 110.891,190.991 118.812,205.683 126.733,220.375 134.653,235.066 142.574,247.69 150.495,258.17 158.416,268.55 166.337,273.981 174.257,279.937 182.178,286.384 190.099,293.29 198.02,300.623 205.941,308.354 213.861,316.452 221.782,324.891 229.703,333.644 237.624,342.688 245.545,352 253.465,354.562 261.386,356.312 269.307,355.089 277.228,353.945 285.149,353.137 293.069,352.668 300.99,352.539 308.911,352.751 316.832,353.302 324.752,354.192 332.673,355.417 340.594,356.975 348.515,358.86 356.436,361.069 364.356,363.594 372.277,366.429 380.198,369.568 388.119,373.002 396.04,376.723 403.96,380.724 411.881,384.995 419.802,389.527 427.723,394.312 435.644,399.34 443.564,404.603 451.485,410.09 459.406,415.795 467.327,421.706 475.248,427.817 483.168,434.118 491.089,440.601 499.01,446.729 506.931,452.603 514.851,460.707 522.772,469.198 530.693,477.855 538.614,486.668 546.535,495.628 554.455,504.729 562.376,513.962 570.297,523.321 578.218,532.799 586.139,542.389 594.059,550.696 601.98,558.322 609.901,566.111 617.822,572.61 625.743,579.216 633.663,586.322 641.584,593.909 649.505,601.487 657.426,606.039 665.347,611.042 673.267,616.485 681.188,622.356 689.109,627.22 697.03,632.236 704.95,637.677 712.871,643.532 720.792,649.79 728.713,656.44 736.634,663.47 744.554,670.868 752.475,678.621 760.396,686.718 768.317,695.147 776.238,703.896 784.158,712.952 792.079,728.957 " />

   <polyline fill="none" stroke=" olive " stroke-width=" 3 " stroke-dasharray = " 5,10 " points=" 7.92079,0 15.8416,14.6917 23.7624,29.3833 31.6832,44.075 39.604,58.7666 47.5248,73.4583 55.4455,88.1499 63.3663,102.842 71.2871,117.533 79.2079,132.225 87.1287,146.917 95.0495,161.608 102.97,176.3 110.891,190.991 118.812,205.683 126.733,220.375 134.653,235.066 142.574,249.758 150.495,261.039 158.416,268.55 166.337,273.981 174.257,279.937 182.178,286.384 190.099,293.29 198.02,300.623 205.941,308.354 213.861,316.452 221.782,324.891 229.703,333.644 237.624,342.688 245.545,352 253.465,358.372 261.386,356.566 269.307,355.089 277.228,353.945 285.149,353.137 293.069,352.668 300.99,352.539 308.911,352.751 316.832,353.302 324.752,354.192 332.673,355.417 340.594,356.975 348.515,358.86 356.436,361.069 364.356,363.594 372.277,366.429 380.198,369.568 388.119,373.002 396.04,376.723 403.96,380.724 411.881,384.995 419.802,389.527 427.723,394.312 435.644,399.34 443.564,404.603 451.485,410.09 459.406,415.795 467.327,421.706 475.248,427.817 483.168,434.118 491.089,440.601 499.01,447.259 506.931,452.727 514.851,460.707 522.772,469.198 530.693,477.855 538.614,486.668 546.535,495.628 554.455,504.729 562.376,513.962 570.297,523.321 578.218,532.799 586.139,542.389 594.059,552.086 601.98,561.885 609.901,567.232 617.822,572.61 625.743,579.216 633.663,586.322 641.584,593.909 649.505,601.972 657.426,610.566 665.347,614.822 673.267,618.504 681.188,622.639 689.109,627.22 697.03,632.236 704.95,637.677 712.871,643.532 720.792,649.79 728.713,656.44 736.634,663.47 744.554,670.868 752.475,678.621 760.396,686.718 768.317,695.147 776.238,703.896 784.158,712.952 792.079,734.372 " />

   <polyline fill="none" stroke=" black " stroke-width=" 3 " stroke-dasharray = "  " points=" 7.92079,0 15.8416,14.6917 23.7624,29.3833 31.6832,44.075 39.604,58.7666 47.5248,73.4583 55.4455,88.1499 63.3663,102.842 71.2871,117.533 79.2079,132.225 87.1287,146.917 95.0495,161.608 102.97,176.3 110.891,190.991 118.812,205.683 126.733,220.375 134.653,235.066 142.574,249.758 150.495,263.675 158.416,268.55 166.337,273.981 174.257,279.937 182.178,286.384 190.099,293.29 198.02,300.623 205.941,308.354 213.861,316.452 221.782,324.891 229.703,333.644 237.624,342.688 245.545,351.274 253.465,347.887 261.386,344.906 269.307,342.339 277.228,340.197 285.149,338.488 293.069,337.218 300.99,336.392 308.911,336.013 316.832,336.084 324.752,336.603 332.673,337.569 340.594,338.978 348.515,340.824 356.436,343.1 364.356,345.799 372.277,348.909 380.198,352.42 388.119,356.32 396.04,360.597 403.96,365.238 411.881,370.228 419.802,375.554 427.723,381.201 435.644,387.156 443.564,393.405 451.485,399.934 459.406,406.729 467.327,413.777 475.248,421.066 483.168,428.583 491.089,436.317 499.01,444.256 506.931,452.389 514.851,460.707 522.772,468.204 530.693,475.486 538.614,476.479 546.535,463.271 554.455,451.14 562.376,440.175 570.297,430.461 578.218,421.008 586.139,412.695 594.059,405.591 601.98,399.763 609.901,395.265 617.822,392.143 625.743,390.432 633.663,384.544 641.584,365.953 649.505,350.36 657.426,336.602 665.347,326.605 673.267,321.012 681.188,320.052 689.109,323.767 697.03,332.001 704.95,344.429 712.871,360.617 720.792,380.087 728.713,402.362 736.634,427.002 744.554,453.623 752.475,475.533 760.396,387.186 768.317,392.04 776.238,400.726 784.158,413.003 792.079,434.785 " />


<!--Draw Glitches -->

<line fill="none" stroke="black" stroke-width="4" x1="760.396" y1="377.186" x2="760.396" y2="327.186"  stroke-dasharray = "10,5" />
<text transform="scale(1,-1)" font-family="sans-serif" font-size="30" stroke = "rgb(0,0,0)" line = "rgb(0,0,0)"  fill = "black" x="765.396" y="-327.186" >95</text>

<!-- -->


<!--Draw the X and Y axes -->
<polyline fill="none" stroke="black" stroke-width="6"  points=" 800,0 0,0 0, 800" />
<polyline fill="none" stroke="black" stroke-width="1"  points=" 0 800  800 800  800 0" />
<!-- -->


<!--Draw labels and tics for X axis -->

<line fill="none" stroke="black"  stroke-width="6"  x1="0.5" y1="0" x2="0.5" y2="-20" />
<text transform="scale(1,-1)" font-family="sans-serif" font-size="30" x="-24.5" y="45" >0</text>
<line fill="none" stroke="black"  stroke-width="6"  x1="158.916" y1="0" x2="158.916" y2="-20" />
<text transform="scale(1,-1)" font-family="sans-serif" font-size="30" x="133.916" y="45" >20</text>
<line fill="none" stroke="black"  stroke-width="6"  x1="317.332" y1="0" x2="317.332" y2="-20" />
<text transform="scale(1,-1)" font-family="sans-serif" font-size="30" x="292.332" y="45" >40</text>
<line fill="none" stroke="black"  stroke-width="6"  x1="475.748" y1="0" x2="475.748" y2="-20" />
<text transform="scale(1,-1)" font-family="sans-serif" font-size="30" x="450.748" y="45" >60</text>
<line fill="none" stroke="black"  stroke-width="6"  x1="634.163" y1="0" x2="634.163" y2="-20" />
<text transform="scale(1,-1)" font-family="sans-serif" font-size="30" x="609.163" y="45" >80</text>
<line fill="none" stroke="black"  stroke-width="6"  x1="792.579" y1="0" x2="792.579" y2="-20" />
<text transform="scale(1,-1)" font-family="sans-serif" font-size="30" x="767.579" y="45" >100</text>


<!--Draw labels and tics for Y axis -->

<line fill="none" stroke="black" stroke-width="6" x1="0.0" y1="0" x2="-20" y2="0" />
<text transform="scale(1,-1)" text-anchor="end" font-family="sans-serif" font-size="30" x="-25" y="10" >0</text>
<line fill="none" stroke="black" stroke-width="6" x1="0.0" y1="114.286" x2="-20" y2="114.286" />
<text transform="scale(1,-1)" text-anchor="end" font-family="sans-serif" font-size="30" x="-25" y="-104.286" >5</text>
<line fill="none" stroke="black" stroke-width="6" x1="0.0" y1="228.571" x2="-20" y2="228.571" />
<text transform="scale(1,-1)" text-anchor="end" font-family="sans-serif" font-size="30" x="-25" y="-218.571" >10</text>
<line fill="none" stroke="black" stroke-width="6" x1="0.0" y1="342.857" x2="-20" y2="342.857" />
<text transform="scale(1,-1)" text-anchor="end" font-family="sans-serif" font-size="30" x="-25" y="-332.857" >15</text>
<line fill="none" stroke="black" stroke-width="6" x1="0.0" y1="457.143" x2="-20" y2="457.143" />
<text transform="scale(1,-1)" text-anchor="end" font-family="sans-serif" font-size="30" x="-25" y="-447.143" >20</text>
<line fill="none" stroke="black" stroke-width="6" x1="0.0" y1="571.429" x2="-20" y2="571.429" />
<text transform="scale(1,-1)" text-anchor="end" font-family="sans-serif" font-size="30" x="-25" y="-561.429" >25</text>
<line fill="none" stroke="black" stroke-width="6" x1="0.0" y1="685.714" x2="-20" y2="685.714" />
<text transform="scale(1,-1)" text-anchor="end" font-family="sans-serif" font-size="30" x="-25" y="-675.714" >30</text>
<line fill="none" stroke="black" stroke-width="6" x1="0.0" y1="800" x2="-20" y2="800" />
<text transform="scale(1,-1)" text-anchor="end" font-family="sans-serif" font-size="30" x="-25" y="-790" >35</text>

-->
</g>
</g>
<!-- Run Constants
PRINTDISTANCEDATA bool true
GLITCHESONLY bool false
PERTURBBY double 0.05
GLITCHLEVEL double 3
BOUNDARYWINDOW double 0.065
STEPSPERFRAME int 100
TRIALS int 1
ALLBLACK bool true
FILEPREFIX string Fol
NIGGLISELLINGFIRST bool false
ENABLE DistanceEnableString 
DISABLE DistanceDisableString 
GRAPHSIZE int 0
BORDER int 0
PLOTSIZE int 0
AXISWIDTH int 6
TICLENGTH int 20
VECTOR g6 
FOLLOWERMODE FollowerMode line
FIXRANDOMSEED fixRandomSeed true
RANDOMSEED int 18
TIMESTAMP bool false
END end 


-->
</svg>
