<?xml version="1.0" standalone="no"?>
<!-- the width and height set the total pixel output of the image in the browser -->
<!-- whatever is within the viewbox will be remapped to show in this size -->
<svg width="1000" height="1000" viewBox="1 0  1200 1200"  version="1.1" xmlns="http://www.w3.org/2000/svg" xmlns:xlink="http://www.w3.org/1999/xlink">
 <desc>ID (and file name) = Fol_2019-12-16.15_26_16.1_0.svg  mode = Single Point </desc> 
<g transform = "scale(1 1)">

<text x = "-850" y="50" transform="rotate(-90)"  font-family="sans-serif" font-size="40" stroke ="lightgray" fill="none"> PointDistanceFollower   Dec 16 2019</text>
 <text x="200"  y="30"  font-family="sans-serif" font-size="20" >Fol_2019-12-16.15_26_16.1_0.svg  &#160;&#160;&#160;&#160;&#160; Wall time passed: 141 msec.</text>
<text x="300" y="60"   font-family="sans-serif" font-size="20" fill="lightblue">  S6  38 msec </text>
<text x="300" y="85"   font-family="sans-serif" font-size="20" fill="olive">  CS6Dist  1 msec </text>
<text x="300" y="110"   font-family="sans-serif" font-size="20" fill="black">  LM  102 msec </text>



 <!--DISTANCE PLOT BEGINS   mode = Single Point-->


<!-- the following will scale and place the distance plot -->
<g transform="translate(150,975) scale(1 -1)">
   <polyline fill="none" stroke=" lightblue " stroke-width=" 12 " stroke-dasharray = " 10,5 " points=" 7.92079,0 15.8416,15.6514 23.7624,31.3028 31.6832,46.9542 39.604,62.6057 47.5248,78.2571 55.4455,93.9085 63.3663,109.56 71.2871,125.211 79.2079,140.863 87.1287,156.514 95.0495,172.166 102.97,187.817 110.891,203.468 118.812,219.12 126.733,234.771 134.653,250.423 142.574,266.074 150.495,281.725 158.416,297.377 166.337,313.028 174.257,328.68 182.178,344.331 190.099,359.983 198.02,375.634 205.941,391.285 213.861,406.937 221.782,422.588 229.703,438.24 237.624,453.891 245.545,469.542 253.465,485.194 261.386,500.845 269.307,516.497 277.228,532.148 285.149,547.799 293.069,563.451 300.99,579.102 308.911,594.754 316.832,610.405 324.752,626.057 332.673,641.708 340.594,657.359 348.515,673.011 356.436,688.662 364.356,704.314 372.277,719.965 380.198,735.616 388.119,751.268 396.04,766.919 403.96,766.919 411.881,751.268 419.802,735.616 427.723,719.965 435.644,704.314 443.564,688.662 451.485,673.011 459.406,657.359 467.327,641.708 475.248,626.057 483.168,610.405 491.089,594.754 499.01,579.102 506.931,563.451 514.851,547.799 522.772,532.148 530.693,516.497 538.614,500.845 546.535,485.194 554.455,469.542 562.376,453.891 570.297,438.24 578.218,422.588 586.139,406.937 594.059,391.285 601.98,375.634 609.901,359.983 617.822,344.331 625.743,328.68 633.663,313.028 641.584,297.377 649.505,281.725 657.426,266.074 665.347,250.423 673.267,234.771 681.188,219.12 689.109,203.468 697.03,187.817 704.95,172.166 712.871,156.514 720.792,140.863 728.713,125.211 736.634,109.56 744.554,93.9085 752.475,78.2571 760.396,62.6057 768.317,46.9542 776.238,31.3028 784.158,15.6514 792.079,0 " />

   <polyline fill="none" stroke=" olive " stroke-width=" 3 " stroke-dasharray = " 5,10 " points=" 7.92079,0 15.8416,15.6514 23.7624,31.3028 31.6832,46.9542 39.604,62.6057 47.5248,78.2571 55.4455,93.9085 63.3663,109.56 71.2871,125.211 79.2079,140.863 87.1287,156.514 95.0495,172.166 102.97,187.817 110.891,203.468 118.812,219.12 126.733,234.771 134.653,250.423 142.574,266.074 150.495,281.725 158.416,297.377 166.337,313.028 174.257,328.68 182.178,344.331 190.099,359.983 198.02,375.634 205.941,391.285 213.861,406.937 221.782,422.588 229.703,438.24 237.624,453.891 245.545,469.542 253.465,485.194 261.386,500.845 269.307,516.497 277.228,532.148 285.149,547.799 293.069,563.451 300.99,579.102 308.911,594.754 316.832,610.405 324.752,626.057 332.673,641.708 340.594,657.359 348.515,673.011 356.436,688.662 364.356,704.314 372.277,719.965 380.198,735.616 388.119,751.268 396.04,766.919 403.96,766.919 411.881,751.268 419.802,735.616 427.723,719.965 435.644,704.314 443.564,688.662 451.485,673.011 459.406,657.359 467.327,641.708 475.248,626.057 483.168,610.405 491.089,594.754 499.01,579.102 506.931,563.451 514.851,547.799 522.772,532.148 530.693,516.497 538.614,500.845 546.535,485.194 554.455,469.542 562.376,453.891 570.297,438.24 578.218,422.588 586.139,406.937 594.059,391.285 601.98,375.634 609.901,359.983 617.822,344.331 625.743,328.68 633.663,313.028 641.584,297.377 649.505,281.725 657.426,266.074 665.347,250.423 673.267,234.771 681.188,219.12 689.109,203.468 697.03,187.817 704.95,172.166 712.871,156.514 720.792,140.863 728.713,125.211 736.634,109.56 744.554,93.9085 752.475,78.2571 760.396,62.6057 768.317,46.9542 776.238,31.3028 784.158,15.6514 792.079,0 " />

   <polyline fill="none" stroke=" black " stroke-width=" 3 " stroke-dasharray = "  " points=" 7.92079,0 15.8416,15.6514 23.7624,31.3028 31.6832,46.9542 39.604,62.6057 47.5248,78.2571 55.4455,93.9085 63.3663,109.56 71.2871,125.211 79.2079,140.863 87.1287,156.514 95.0495,172.166 102.97,187.817 110.891,203.468 118.812,219.12 126.733,234.771 134.653,250.423 142.574,266.074 150.495,281.725 158.416,297.377 166.337,313.028 174.257,328.68 182.178,344.331 190.099,359.983 198.02,375.634 205.941,391.285 213.861,406.937 221.782,422.588 229.703,438.24 237.624,453.891 245.545,469.542 253.465,485.194 261.386,500.845 269.307,516.497 277.228,532.148 285.149,547.799 293.069,563.451 300.99,579.102 308.911,594.754 316.832,610.405 324.752,626.057 332.673,641.708 340.594,657.359 348.515,673.011 356.436,688.662 364.356,704.314 372.277,719.965 380.198,735.616 388.119,751.268 396.04,766.919 403.96,766.919 411.881,751.268 419.802,735.616 427.723,719.965 435.644,704.314 443.564,688.662 451.485,673.011 459.406,657.359 467.327,641.708 475.248,626.057 483.168,610.405 491.089,594.754 499.01,579.102 506.931,563.451 514.851,547.799 522.772,532.148 530.693,516.497 538.614,500.845 546.535,485.194 554.455,469.542 562.376,453.891 570.297,438.24 578.218,422.588 586.139,406.937 594.059,391.285 601.98,375.634 609.901,359.983 617.822,344.331 625.743,328.68 633.663,313.028 641.584,297.377 649.505,281.725 657.426,266.074 665.347,250.423 673.267,234.771 681.188,219.12 689.109,203.468 697.03,187.817 704.95,172.166 712.871,156.514 720.792,140.863 728.713,125.211 736.634,109.56 744.554,93.9085 752.475,78.2571 760.396,62.6057 768.317,46.9542 776.238,31.3028 784.158,15.6514 792.079,0 " />


<!--Draw the X and Y axes -->
<polyline fill="none" stroke="black" stroke-width="6"  points=" 800,0 0,0 0, 800" />
<polyline fill="none" stroke="black" stroke-width="1"  points=" 0 800  800 800  800 0" />
<!-- -->


<!--Draw labels and tics for X axis -->

<line fill="none" stroke="black"  stroke-width="6"  x1="0.5" y1="0" x2="0.5" y2="-20" />
<text transform="scale(1,-1)" font-family="sans-serif" font-size="30" x="-24.5" y="45" >0</text>
<line fill="none" stroke="black"  stroke-width="6"  x1="158.916" y1="0" x2="158.916" y2="-20" />
<text transform="scale(1,-1)" font-family="sans-serif" font-size="30" x="133.916" y="45" >20</text>
<line fill="none" stroke="black"  stroke-width="6"  x1="317.332" y1="0" x2="317.332" y2="-20" />
<text transform="scale(1,-1)" font-family="sans-serif" font-size="30" x="292.332" y="45" >40</text>
<line fill="none" stroke="black"  stroke-width="6"  x1="475.748" y1="0" x2="475.748" y2="-20" />
<text transform="scale(1,-1)" font-family="sans-serif" font-size="30" x="450.748" y="45" >60</text>
<line fill="none" stroke="black"  stroke-width="6"  x1="634.163" y1="0" x2="634.163" y2="-20" />
<text transform="scale(1,-1)" font-family="sans-serif" font-size="30" x="609.163" y="45" >80</text>
<line fill="none" stroke="black"  stroke-width="6"  x1="792.579" y1="0" x2="792.579" y2="-20" />
<text transform="scale(1,-1)" font-family="sans-serif" font-size="30" x="767.579" y="45" >100</text>


<!--Draw labels and tics for Y axis -->

<line fill="none" stroke="black" stroke-width="6" x1="0.0" y1="0" x2="-20" y2="0" />
<text transform="scale(1,-1)" text-anchor="end" font-family="sans-serif" font-size="30" x="-25" y="10" >0</text>
<line fill="none" stroke="black" stroke-width="6" x1="0.0" y1="133.333" x2="-20" y2="133.333" />
<text transform="scale(1,-1)" text-anchor="end" font-family="sans-serif" font-size="30" x="-25" y="-123.333" >5</text>
<line fill="none" stroke="black" stroke-width="6" x1="0.0" y1="266.667" x2="-20" y2="266.667" />
<text transform="scale(1,-1)" text-anchor="end" font-family="sans-serif" font-size="30" x="-25" y="-256.667" >10</text>
<line fill="none" stroke="black" stroke-width="6" x1="0.0" y1="400" x2="-20" y2="400" />
<text transform="scale(1,-1)" text-anchor="end" font-family="sans-serif" font-size="30" x="-25" y="-390" >15</text>
<line fill="none" stroke="black" stroke-width="6" x1="0.0" y1="533.333" x2="-20" y2="533.333" />
<text transform="scale(1,-1)" text-anchor="end" font-family="sans-serif" font-size="30" x="-25" y="-523.333" >20</text>
<line fill="none" stroke="black" stroke-width="6" x1="0.0" y1="666.667" x2="-20" y2="666.667" />
<text transform="scale(1,-1)" text-anchor="end" font-family="sans-serif" font-size="30" x="-25" y="-656.667" >25</text>
<line fill="none" stroke="black" stroke-width="6" x1="0.0" y1="800" x2="-20" y2="800" />
<text transform="scale(1,-1)" text-anchor="end" font-family="sans-serif" font-size="30" x="-25" y="-790" >30</text>

-->
</g>
</g>
<!-- Run Constants
PRINTDISTANCEDATA bool true
GLITCHESONLY bool false
PERTURBBY double 0.05
GLITCHLEVEL double 3
BOUNDARYWINDOW double 0.065
STEPSPERFRAME int 100
TRIALS int 20
ALLBLACK bool true
FILEPREFIX string Fol
NIGGLISELLINGFIRST bool false
ENABLE DistanceEnableString 
DISABLE DistanceDisableString 
GRAPHSIZE int 0
BORDER int 0
PLOTSIZE int 0
AXISWIDTH int 6
TICLENGTH int 20
VECTOR g6 
FOLLOWERMODE FollowerMode point
FIXRANDOMSEED fixRandomSeed false
RANDOMSEED int 21
TIMESTAMP bool true
END end 


-->
</svg>
