<?xml version="1.0" standalone="no"?>
<!-- the width and height set the total pixel output of the image in the browser -->
<!-- whatever is within the viewbox will be remapped to show in this size -->
<svg width="900" height="900" viewBox="1 0900 900"  version="1.1" xmlns="http://www.w3.org/2000/svg" xmlns:xlink="http://www.w3.org/1999/xlink">
 <desc>ID (and file name) = Fol_2018-06-14.11_19_42.29_0.svg  mode = Single Point </desc> 
<g transform = "scale(1 1)">

<text x = "-850" y="50" transform="rotate(-90)"  font-family="sans-serif" font-size="40" stroke ="lightgray" fill="none"> PointDistanceFollower   Jun 14 2018</text>
 <text x="140"  y="30"  font-family="sans-serif" font-size="20" >Fol_2018-06-14.11_19_42.29_0.svg  &#160;&#160;&#160;&#160;&#160; Wall time passed: 13288 msec.</text>
<text x="300" y="60"   font-family="sans-serif" font-size="20" fill="lightblue">S6  lightblue     msec  13251</text>
<text x="300" y="85"   font-family="sans-serif" font-size="20" fill="olive">CS6Dist  olive     msec  34</text>



 <!--DISTANCE PLOT BEGINS   mode = Single Point-->


<!-- the following will scale and place the distance plot -->
<g transform="translate(150,850) scale(1 -1)">
   <polyline fill="none" stroke=" lightblue " stroke-width=" 12 " points=" 0.699301,0 1.3986,4.1063 2.0979,8.21259 2.7972,12.3189 3.4965,16.4252 4.1958,20.5315 4.8951,24.6378 5.59441,28.7441 6.29371,32.8504 6.99301,36.9567 7.69231,41.063 8.39161,45.1693 9.09091,49.2756 9.79021,53.3819 10.4895,57.4882 11.1888,61.5945 11.8881,65.7008 12.5874,69.8071 13.2867,73.9133 13.986,78.0196 14.6853,82.1259 15.3846,86.2322 16.0839,90.3385 16.7832,94.4448 17.4825,98.5511 18.1818,102.657 18.8811,106.764 19.5804,110.87 20.2797,114.976 20.979,119.083 21.6783,123.189 22.3776,127.295 23.0769,131.402 23.7762,135.508 24.4755,139.614 25.1748,143.72 25.8741,147.827 26.5734,151.933 27.2727,156.039 27.972,160.146 28.6713,164.252 29.3706,168.358 30.0699,172.464 30.7692,176.571 31.4685,180.677 32.1678,184.783 32.8671,188.89 33.5664,192.996 34.2657,197.102 34.965,201.209 35.6643,205.315 36.3636,209.421 37.0629,213.527 37.7622,217.634 38.4615,221.74 39.1608,225.846 39.8601,229.953 40.5594,234.059 41.2587,238.165 41.958,242.272 42.6573,246.378 43.3566,250.484 44.0559,254.59 44.7552,258.697 45.4545,262.803 46.1538,266.909 46.8531,271.016 47.5524,275.122 48.2517,279.228 48.951,283.335 49.6503,287.441 50.3497,291.547 51.049,295.653 51.7483,299.76 52.4476,303.866 53.1469,307.972 53.8462,312.079 54.5455,316.185 55.2448,320.291 55.9441,324.397 56.6434,328.504 57.3427,332.61 58.042,336.716 58.7413,340.823 59.4406,344.929 60.1399,349.035 60.8392,353.142 61.5385,357.248 62.2378,361.354 62.9371,365.17 63.6364,366.945 64.3357,368.757 65.035,370.607 65.7343,372.492 66.4336,374.412 67.1329,376.368 67.8322,378.358 68.5315,379.102 69.2308,377.838 69.9301,376.597 70.6294,375.381 71.3287,374.19 72.028,373.024 72.7273,371.883 73.4266,370.767 74.1259,369.677 74.8252,368.613 75.5245,367.575 76.2238,366.563 76.9231,365.578 77.6224,364.62 78.3217,363.689 79.021,362.784 79.7203,361.908 80.4196,361.059 81.1189,360.237 81.8182,359.444 82.5175,358.679 83.2168,357.942 83.9161,357.234 84.6154,356.554 85.3147,355.903 86.014,355.282 86.7133,354.689 87.4126,354.126 88.1119,353.592 88.8112,353.088 89.5105,352.613 90.2098,352.169 90.9091,351.754 91.6084,351.37 92.3077,351.015 93.007,350.691 93.7063,350.397 94.4056,350.134 95.1049,349.901 95.8042,349.698 96.5035,349.526 97.2028,349.385 97.9021,349.274 98.6014,349.195 99.3007,349.145 100,349.127 100.699,349.139 101.399,349.182 102.098,349.256 102.797,349.361 103.497,349.496 104.196,349.662 104.895,349.858 105.594,350.085 106.294,350.343 106.993,350.63 107.692,350.949 108.392,351.297 109.091,351.676 109.79,352.085 110.49,352.523 111.189,352.992 111.888,353.49 112.587,354.018 113.287,354.576 113.986,355.162 114.685,355.778 115.385,356.423 116.084,357.097 116.783,357.8 117.483,358.531 118.182,359.291 118.881,360.079 119.58,360.894 120.28,361.738 120.979,362.609 121.678,363.508 122.378,364.434 123.077,365.387 123.776,366.367 124.476,367.373 125.175,368.406 125.874,369.465 126.573,370.55 127.273,371.66 127.972,372.796 128.671,373.958 129.371,375.144 130.07,376.355 130.769,377.591 131.469,378.851 132.168,380.135 132.867,381.443 133.566,382.774 134.266,384.129 134.965,385.507 135.664,386.907 136.364,388.331 137.063,389.776 137.762,391.244 138.462,392.733 139.161,394.244 139.86,395.777 140.559,397.33 141.259,398.905 141.958,400.5 142.657,402.115 143.357,403.751 144.056,405.406 144.755,407.081 145.455,408.776 146.154,410.489 146.853,412.222 147.552,413.973 148.252,415.742 148.951,417.53 149.65,419.336 150.35,421.159 151.049,423.001 151.748,424.859 152.448,426.734 153.147,428.626 153.846,430.535 154.545,432.46 155.245,434.402 155.944,436.359 156.643,438.332 157.343,440.321 158.042,442.325 158.741,444.344 159.441,446.378 160.14,448.427 160.839,450.49 161.538,452.567 162.238,454.659 162.937,456.764 163.636,458.884 164.336,461.016 165.035,463.163 165.734,465.322 166.434,467.494 167.133,469.679 167.832,471.877 168.531,474.087 169.231,476.31 169.93,478.544 170.629,480.791 171.329,483.049 172.028,485.319 172.727,487.6 173.427,489.893 174.126,492.197 174.825,494.511 175.524,496.837 176.224,499.173 176.923,501.52 177.622,503.877 178.322,506.244 179.021,508.621 179.72,511.009 180.42,513.406 181.119,515.813 181.818,518.229 182.517,520.655 183.217,523.09 183.916,525.534 184.615,527.987 185.315,530.449 186.014,532.92 186.713,535.399 187.413,537.887 188.112,540.384 188.811,542.888 189.51,545.401 190.21,547.922 190.909,550.451 191.608,552.988 192.308,555.532 193.007,558.084 193.706,560.644 194.406,563.211 195.105,565.785 195.804,568.367 196.503,570.956 197.203,573.551 197.902,576.154 198.601,578.764 199.301,581.38 200,584.003 200.699,586.632 201.399,589.268 202.098,591.911 202.797,594.559 203.497,597.214 204.196,599.875 204.895,602.542 205.594,605.215 206.294,607.894 206.993,610.579 207.692,613.27 208.392,615.966 209.091,618.668 209.79,621.375 210.49,624.088 211.189,626.806 211.888,629.529 212.587,632.258 213.287,634.992 213.986,637.731 214.685,640.475 215.385,643.224 216.084,645.978 216.783,648.737 217.483,651.5 218.182,654.269 218.881,657.042 219.58,659.819 220.28,662.601 220.979,665.388 221.678,668.179 222.378,670.975 223.077,673.775 223.776,676.579 224.476,679.387 225.175,682.199 225.874,685.016 226.573,687.837 227.273,690.661 227.972,693.49 228.671,694.072 229.371,691.728 230.07,689.392 230.769,687.064 231.469,684.743 232.168,682.431 232.867,680.126 233.566,677.829 234.266,675.54 234.965,673.259 235.664,670.987 236.364,668.723 237.063,666.467 237.762,664.22 238.462,661.982 239.161,659.752 239.86,657.531 240.559,655.318 241.259,653.115 241.958,650.921 242.657,648.735 243.357,646.559 244.056,644.393 244.755,642.236 245.455,640.088 246.154,637.95 246.853,635.821 247.552,633.702 248.252,631.594 248.951,629.495 249.65,627.406 250.35,625.327 251.049,623.259 251.748,621.201 252.448,619.154 253.147,617.117 253.846,615.091 254.545,613.076 255.245,611.071 255.944,609.078 256.643,607.096 257.343,605.125 258.042,603.165 258.741,601.217 259.441,599.281 260.14,597.356 260.839,595.443 261.538,593.542 262.238,591.652 262.937,589.776 263.636,587.911 264.336,586.059 265.035,584.219 265.734,582.391 266.434,580.577 267.133,578.775 267.832,576.987 268.531,575.211 269.231,573.449 269.93,571.7 270.629,569.964 271.329,568.242 272.028,566.534 272.727,564.84 273.427,563.159 274.126,561.493 274.825,559.841 275.524,558.203 276.224,556.58 276.923,554.971 277.622,553.377 278.322,551.798 279.021,550.234 279.72,548.685 280.42,547.151 281.119,545.632 281.818,544.129 282.517,542.642 283.217,541.17 283.916,539.714 284.615,538.274 285.315,536.851 286.014,535.443 286.713,534.052 287.413,532.678 288.112,531.32 288.811,529.979 289.51,528.655 290.21,527.348 290.909,526.058 291.608,524.785 292.308,523.53 293.007,522.292 293.706,521.072 294.406,519.869 295.105,518.685 295.804,517.519 296.503,516.37 297.203,515.24 297.902,514.129 298.601,513.036 299.301,511.961 300,510.905 300.699,509.869 301.399,508.851 302.098,507.852 302.797,506.872 303.497,505.912 304.196,504.971 304.895,504.05 305.594,503.149 306.294,502.267 306.993,501.405 307.692,500.563 308.392,499.741 309.091,498.939 309.79,498.157 310.49,497.396 311.189,496.655 311.888,495.935 312.587,495.235 313.287,494.556 313.986,493.898 314.685,493.261 315.385,492.645 316.084,492.049 316.783,491.475 317.483,490.922 318.182,490.391 318.881,489.88 319.58,489.391 320.28,488.924 320.979,488.478 321.678,488.053 322.378,487.651 323.077,487.27 323.776,486.91 324.476,486.573 325.175,486.257 325.874,485.963 326.573,485.692 327.273,485.442 327.972,485.214 328.671,485.008 329.371,484.824 330.07,484.662 330.769,484.523 331.469,484.405 332.168,484.31 332.867,484.236 333.566,484.185 334.266,484.156 334.965,484.15 335.664,484.165 336.364,484.202 337.063,484.262 337.762,484.344 338.462,484.448 339.161,484.574 339.86,484.722 340.559,484.893 341.259,485.085 341.958,485.3 342.657,485.536 343.357,485.794 344.056,486.075 344.755,486.377 345.455,486.701 346.154,487.047 346.853,487.415 347.552,487.804 348.252,488.215 348.951,488.648 349.65,489.102 350.35,489.578 351.049,490.076 351.748,490.594 352.448,491.134 353.147,491.695 353.846,492.278 354.545,492.881 355.245,493.505 355.944,494.151 356.643,494.817 357.343,495.504 358.042,496.212 358.741,496.94 359.441,497.689 360.14,498.458 360.839,499.247 361.538,500.057 362.238,500.887 362.937,501.736 363.636,502.606 364.336,503.496 365.035,504.405 365.734,505.334 366.434,506.282 367.133,507.25 367.832,508.237 368.531,509.243 369.231,510.268 369.93,511.312 370.629,512.375 371.329,513.457 372.028,514.557 372.727,515.676 373.427,516.813 374.126,517.969 374.825,519.142 375.524,520.333 376.224,521.543 376.923,522.77 377.622,524.014 378.322,525.276 379.021,526.556 379.72,527.852 380.42,529.166 381.119,530.497 381.818,531.844 382.517,533.209 383.217,534.59 383.916,535.987 384.615,537.401 385.315,537.94 386.014,538.127 386.713,538.334 387.413,538.56 388.112,538.806 388.811,539.072 389.51,539.358 390.21,539.663 390.909,539.989 391.608,540.334 392.308,538.424 393.007,536.342 393.706,534.273 394.406,532.217 395.105,530.174 395.804,528.146 396.503,526.131 397.203,524.13 397.902,522.143 398.601,520.171 399.301,518.213 400,516.27 400.699,514.341 401.399,512.427 402.098,510.529 402.797,508.646 403.497,506.778 404.196,504.926 404.895,503.09 405.594,501.27 406.294,499.466 406.993,497.678 407.692,495.907 408.392,494.152 409.091,492.415 409.79,490.694 410.49,488.991 411.189,487.305 411.888,485.637 412.587,483.986 413.287,482.353 413.986,480.739 414.685,479.143 415.385,477.565 416.084,476.006 416.783,474.466 417.483,472.945 418.182,471.444 418.881,469.961 419.58,468.499 420.28,467.056 420.979,465.633 421.678,464.23 422.378,462.848 423.077,461.486 423.776,460.145 424.476,458.825 425.175,457.526 425.874,456.248 426.573,454.991 427.273,453.757 427.972,452.544 428.671,451.353 429.371,450.184 430.07,449.037 430.769,447.913 431.469,446.812 432.168,445.733 432.867,444.677 433.566,443.645 434.266,442.636 434.965,441.65 435.664,440.688 436.364,439.75 437.063,438.835 437.762,437.945 438.462,437.079 439.161,436.238 439.86,435.421 440.559,434.628 441.259,433.861 441.958,433.118 442.657,432.4 443.357,431.708 444.056,431.041 444.755,430.399 445.455,429.783 446.154,429.193 446.853,428.628 447.552,428.089 448.252,427.576 448.951,427.089 449.65,426.629 450.35,426.194 451.049,425.786 451.748,425.404 452.448,425.049 453.147,424.72 453.846,424.417 454.545,424.142 455.245,423.893 455.944,423.671 456.643,423.475 457.343,423.306 458.042,423.165 458.741,423.05 459.441,422.962 460.14,422.9 460.839,422.866 461.538,422.859 462.238,422.879 462.937,422.925 463.636,422.999 464.336,423.099 465.035,423.226 465.734,423.38 466.434,423.561 467.133,423.769 467.832,424.004 468.531,424.265 469.231,424.553 469.93,424.867 470.629,425.208 471.329,425.576 472.028,425.97 472.727,426.39 473.427,426.836 474.126,427.309 474.825,427.808 475.524,428.333 476.224,428.883 476.923,429.46 477.622,430.062 478.322,430.69 479.021,431.343 479.72,432.022 480.42,432.726 481.119,433.455 481.818,434.209 482.517,434.988 483.217,435.792 483.916,436.62 484.615,437.473 485.315,438.35 486.014,439.251 486.713,440.177 487.413,441.126 488.112,442.099 488.811,443.095 489.51,444.115 490.21,445.158 490.909,446.224 491.608,447.313 492.308,448.425 493.007,449.56 493.706,450.716 494.406,451.895 495.105,453.097 495.804,454.32 496.503,455.564 497.203,456.831 497.902,458.118 498.601,459.427 499.301,460.757 500,462.107 500.699,463.479 501.399,464.87 502.098,466.282 502.797,467.714 503.497,469.166 504.196,470.638 504.895,472.129 505.594,473.64 506.294,475.17 506.993,476.718 507.692,478.286 508.392,479.872 509.091,481.476 509.79,483.099 510.49,484.74 511.189,486.399 511.888,488.075 512.587,489.769 513.287,491.48 513.986,493.209 514.685,494.954 515.385,496.716 516.084,498.495 516.783,500.29 517.483,502.102 518.182,503.929 518.881,505.773 519.58,507.632 520.28,509.507 520.979,511.397 521.678,513.302 522.378,515.223 523.077,517.158 523.776,519.108 524.476,521.073 525.175,523.052 525.874,525.045 526.573,527.052 527.273,529.073 527.972,531.108 528.671,533.157 529.371,535.219 530.07,537.294 530.769,539.382 531.469,541.484 532.168,543.598 532.867,545.725 533.566,547.864 534.266,550.016 534.965,551.809 535.664,553.457 536.364,555.121 537.063,556.8 537.762,558.495 538.462,560.204 539.161,561.929 539.86,563.669 540.559,565.423 541.259,567.193 541.958,568.976 542.657,570.774 543.357,572.587 544.056,574.413 544.755,576.253 545.455,578.107 546.154,579.975 546.853,581.857 547.552,583.752 548.252,585.66 548.951,587.581 549.65,589.516 550.35,591.463 551.049,593.423 551.748,595.396 552.448,597.382 553.147,599.379 553.846,601.39 554.545,603.412 555.245,605.446 555.944,607.492 556.643,609.551 557.343,611.62 558.042,613.702 558.741,615.795 559.441,617.899 560.14,620.014 560.839,622.141 561.538,624.278 562.238,626.072 562.937,625.884 563.636,625.713 564.336,625.561 565.035,625.427 565.734,625.311 566.434,625.214 567.133,625.134 567.832,625.073 568.531,625.03 569.231,625.005 569.93,624.285 570.629,620.911 571.329,617.536 572.028,614.162 572.727,610.787 573.427,607.413 574.126,604.038 574.825,600.664 575.524,597.289 576.224,593.915 576.923,590.54 577.622,587.166 578.322,583.791 579.021,580.417 579.72,577.042 580.42,573.667 581.119,570.293 581.818,566.918 582.517,563.544 583.217,560.169 583.916,556.795 584.615,553.42 585.315,550.046 586.014,546.671 586.713,543.297 587.413,539.922 588.112,536.548 588.811,533.173 589.51,529.799 590.21,526.424 590.909,523.05 591.608,519.675 592.308,516.301 593.007,512.926 593.706,509.552 594.406,506.177 595.105,502.803 595.804,499.428 596.503,496.054 597.203,492.679 597.902,489.305 598.601,485.93 599.301,482.556 600,479.181 600.699,475.807 601.399,472.432 602.098,469.058 602.797,465.683 603.497,462.309 604.196,458.934 604.895,455.559 605.594,452.185 606.294,448.81 606.993,445.436 607.692,442.061 608.392,438.687 609.091,435.312 609.79,431.938 610.49,428.563 611.189,425.189 611.888,421.814 612.587,418.44 613.287,415.065 613.986,411.691 614.685,408.316 615.385,404.942 616.084,401.567 616.783,398.193 617.483,394.818 618.182,391.444 618.881,388.069 619.58,384.695 620.28,381.32 620.979,377.946 621.678,374.571 622.378,371.197 623.077,367.822 623.776,364.448 624.476,361.073 625.175,357.699 625.874,354.324 626.573,350.95 627.273,347.575 627.972,344.2 628.671,340.826 629.371,337.451 630.07,334.077 630.769,330.702 631.469,327.328 632.168,323.953 632.867,320.579 633.566,317.204 634.266,313.83 634.965,310.455 635.664,307.081 636.364,303.706 637.063,300.332 637.762,296.957 638.462,293.583 639.161,290.208 639.86,286.834 640.559,283.459 641.259,280.085 641.958,276.71 642.657,273.336 643.357,269.961 644.056,266.587 644.755,263.212 645.455,259.838 646.154,256.463 646.853,253.089 647.552,249.714 648.252,246.34 648.951,242.965 649.65,239.591 650.35,236.216 651.049,232.842 651.748,229.467 652.448,226.092 653.147,222.718 653.846,219.343 654.545,215.969 655.245,212.594 655.944,209.22 656.643,205.845 657.343,202.471 658.042,199.096 658.741,195.722 659.441,192.347 660.14,188.973 660.839,185.598 661.538,182.224 662.238,178.849 662.937,175.475 663.636,172.1 664.336,168.726 665.035,165.351 665.734,161.977 666.434,158.602 667.133,155.228 667.832,151.853 668.531,148.479 669.231,145.104 669.93,141.73 670.629,138.355 671.329,134.981 672.028,131.606 672.727,128.232 673.427,124.857 674.126,121.483 674.825,118.108 675.524,114.733 676.224,111.359 676.923,107.984 677.622,104.61 678.322,101.235 679.021,97.8609 679.72,94.4864 680.42,91.1119 681.119,87.7374 681.818,84.3629 682.517,80.9884 683.217,77.6138 683.916,74.2393 684.615,70.8648 685.315,67.4903 686.014,64.1158 686.713,60.7413 687.413,57.3667 688.112,53.9922 688.811,50.6177 689.51,47.2432 690.21,43.8687 690.909,40.4942 691.608,37.1197 692.308,33.7451 693.007,30.3706 693.706,26.9961 694.406,23.6216 695.105,20.2471 695.804,16.8726 696.503,13.4981 697.203,10.1235 697.902,6.74903 698.601,3.37451 699.301,0 " />

   <polyline fill="none" stroke=" olive " stroke-width=" 3 " points=" 0.699301,2.95028e-05 1.3986,4.1063 2.0979,8.21259 2.7972,12.3189 3.4965,16.4252 4.1958,20.5315 4.8951,24.6378 5.59441,28.7441 6.29371,32.8504 6.99301,36.9567 7.69231,41.063 8.39161,45.1693 9.09091,49.2756 9.79021,53.3819 10.4895,57.4882 11.1888,61.5945 11.8881,65.7008 12.5874,69.8071 13.2867,73.9133 13.986,78.0196 14.6853,82.1259 15.3846,86.2322 16.0839,90.3385 16.7832,94.4448 17.4825,98.5511 18.1818,102.657 18.8811,106.764 19.5804,110.87 20.2797,114.976 20.979,119.083 21.6783,123.189 22.3776,127.295 23.0769,131.402 23.7762,135.508 24.4755,139.614 25.1748,143.72 25.8741,147.827 26.5734,151.933 27.2727,156.039 27.972,160.146 28.6713,164.252 29.3706,168.358 30.0699,172.464 30.7692,176.571 31.4685,180.677 32.1678,184.783 32.8671,188.89 33.5664,192.996 34.2657,197.102 34.965,201.209 35.6643,205.315 36.3636,209.421 37.0629,213.527 37.7622,217.634 38.4615,221.74 39.1608,225.846 39.8601,229.953 40.5594,234.059 41.2587,238.165 41.958,242.272 42.6573,246.378 43.3566,250.484 44.0559,254.59 44.7552,258.697 45.4545,262.803 46.1538,266.909 46.8531,271.016 47.5524,275.122 48.2517,279.228 48.951,283.335 49.6503,287.441 50.3497,291.547 51.049,295.653 51.7483,299.76 52.4476,303.866 53.1469,307.972 53.8462,312.079 54.5455,316.185 55.2448,320.291 55.9441,324.397 56.6434,328.504 57.3427,332.61 58.042,336.716 58.7413,340.823 59.4406,344.929 60.1399,349.035 60.8392,353.142 61.5385,357.248 62.2378,361.354 62.9371,365.46 63.6364,367.299 64.3357,369.056 65.035,370.85 65.7343,372.681 66.4336,374.549 67.1329,376.452 67.8322,378.39 68.5315,379.102 69.2308,377.838 69.9301,376.597 70.6294,375.381 71.3287,374.19 72.028,373.024 72.7273,371.883 73.4266,370.767 74.1259,369.677 74.8252,368.613 75.5245,367.575 76.2238,366.563 76.9231,365.578 77.6224,364.62 78.3217,363.689 79.021,362.784 79.7203,361.908 80.4196,361.059 81.1189,360.237 81.8182,359.444 82.5175,358.679 83.2168,357.942 83.9161,357.234 84.6154,356.554 85.3147,355.903 86.014,355.282 86.7133,354.689 87.4126,354.126 88.1119,353.592 88.8112,353.088 89.5105,352.613 90.2098,352.169 90.9091,351.754 91.6084,351.37 92.3077,351.015 93.007,350.691 93.7063,350.397 94.4056,350.134 95.1049,349.901 95.8042,349.698 96.5035,349.526 97.2028,349.385 97.9021,349.274 98.6014,349.195 99.3007,349.145 100,349.127 100.699,349.139 101.399,349.182 102.098,349.256 102.797,349.361 103.497,349.496 104.196,349.662 104.895,349.858 105.594,350.085 106.294,350.343 106.993,350.63 107.692,350.949 108.392,351.297 109.091,351.676 109.79,352.085 110.49,352.523 111.189,352.992 111.888,353.49 112.587,354.018 113.287,354.576 113.986,355.162 114.685,355.778 115.385,356.423 116.084,357.097 116.783,357.8 117.483,358.531 118.182,359.291 118.881,360.079 119.58,360.894 120.28,361.738 120.979,362.609 121.678,363.508 122.378,364.434 123.077,365.387 123.776,366.367 124.476,367.373 125.175,368.406 125.874,369.465 126.573,370.55 127.273,371.66 127.972,372.796 128.671,373.958 129.371,375.144 130.07,376.355 130.769,377.591 131.469,378.851 132.168,380.135 132.867,381.443 133.566,382.774 134.266,384.129 134.965,385.507 135.664,386.907 136.364,388.331 137.063,389.776 137.762,391.244 138.462,392.733 139.161,394.244 139.86,395.777 140.559,397.33 141.259,398.905 141.958,400.5 142.657,402.115 143.357,403.751 144.056,405.406 144.755,407.081 145.455,408.776 146.154,410.489 146.853,412.222 147.552,413.973 148.252,415.742 148.951,417.53 149.65,419.336 150.35,421.159 151.049,423.001 151.748,424.859 152.448,426.734 153.147,428.626 153.846,430.535 154.545,432.46 155.245,434.402 155.944,436.359 156.643,438.332 157.343,440.321 158.042,442.325 158.741,444.344 159.441,446.378 160.14,448.427 160.839,450.49 161.538,452.567 162.238,454.659 162.937,456.764 163.636,458.884 164.336,461.016 165.035,463.163 165.734,465.322 166.434,467.494 167.133,469.679 167.832,471.877 168.531,474.087 169.231,476.31 169.93,478.544 170.629,480.791 171.329,483.049 172.028,485.319 172.727,487.6 173.427,489.893 174.126,492.197 174.825,494.511 175.524,496.837 176.224,499.173 176.923,501.52 177.622,503.877 178.322,506.244 179.021,508.621 179.72,511.009 180.42,513.406 181.119,515.813 181.818,518.229 182.517,520.655 183.217,523.09 183.916,525.534 184.615,527.987 185.315,530.449 186.014,532.92 186.713,535.399 187.413,537.887 188.112,540.384 188.811,542.888 189.51,545.401 190.21,547.922 190.909,550.451 191.608,552.988 192.308,555.532 193.007,558.084 193.706,560.644 194.406,563.211 195.105,565.785 195.804,568.367 196.503,570.956 197.203,573.551 197.902,576.154 198.601,578.764 199.301,581.38 200,584.003 200.699,586.632 201.399,589.268 202.098,591.911 202.797,594.559 203.497,597.214 204.196,599.875 204.895,602.542 205.594,605.215 206.294,607.894 206.993,610.579 207.692,613.27 208.392,615.966 209.091,618.668 209.79,621.375 210.49,624.088 211.189,626.806 211.888,629.529 212.587,632.258 213.287,634.992 213.986,637.731 214.685,640.475 215.385,643.224 216.084,645.978 216.783,648.737 217.483,651.5 218.182,654.269 218.881,657.042 219.58,659.819 220.28,662.601 220.979,665.388 221.678,668.179 222.378,670.975 223.077,673.775 223.776,676.579 224.476,679.387 225.175,682.199 225.874,685.016 226.573,687.837 227.273,690.661 227.972,693.49 228.671,694.072 229.371,691.728 230.07,689.392 230.769,687.064 231.469,684.743 232.168,682.431 232.867,680.126 233.566,677.829 234.266,675.54 234.965,673.259 235.664,670.987 236.364,668.723 237.063,666.467 237.762,664.22 238.462,661.982 239.161,659.752 239.86,657.531 240.559,655.318 241.259,653.115 241.958,650.921 242.657,648.735 243.357,646.559 244.056,644.393 244.755,642.236 245.455,640.088 246.154,637.95 246.853,635.821 247.552,633.702 248.252,631.594 248.951,629.495 249.65,627.406 250.35,625.327 251.049,623.259 251.748,621.201 252.448,619.154 253.147,617.117 253.846,615.091 254.545,613.076 255.245,611.071 255.944,609.078 256.643,607.096 257.343,605.125 258.042,603.165 258.741,601.217 259.441,599.281 260.14,597.356 260.839,595.443 261.538,593.542 262.238,591.652 262.937,589.776 263.636,587.911 264.336,586.059 265.035,584.219 265.734,582.391 266.434,580.577 267.133,578.775 267.832,576.987 268.531,575.211 269.231,573.449 269.93,571.7 270.629,569.964 271.329,568.242 272.028,566.534 272.727,564.84 273.427,563.159 274.126,561.493 274.825,559.841 275.524,558.203 276.224,556.58 276.923,554.971 277.622,553.377 278.322,551.798 279.021,550.234 279.72,548.685 280.42,547.151 281.119,545.632 281.818,544.129 282.517,542.642 283.217,541.17 283.916,539.714 284.615,538.274 285.315,536.851 286.014,535.443 286.713,534.052 287.413,532.678 288.112,531.32 288.811,529.979 289.51,528.655 290.21,527.348 290.909,526.058 291.608,524.785 292.308,523.53 293.007,522.292 293.706,521.072 294.406,519.869 295.105,518.685 295.804,517.519 296.503,516.37 297.203,515.24 297.902,514.129 298.601,513.036 299.301,511.961 300,510.905 300.699,509.869 301.399,508.851 302.098,507.852 302.797,506.872 303.497,505.912 304.196,504.971 304.895,504.05 305.594,503.149 306.294,502.267 306.993,501.405 307.692,500.563 308.392,499.741 309.091,498.939 309.79,498.157 310.49,497.396 311.189,496.655 311.888,495.935 312.587,495.235 313.287,494.556 313.986,493.898 314.685,493.261 315.385,492.645 316.084,492.049 316.783,491.475 317.483,490.922 318.182,490.391 318.881,489.88 319.58,489.391 320.28,488.924 320.979,488.478 321.678,488.053 322.378,487.651 323.077,487.27 323.776,486.91 324.476,486.573 325.175,486.257 325.874,485.963 326.573,485.692 327.273,485.442 327.972,485.214 328.671,485.008 329.371,484.824 330.07,484.662 330.769,484.523 331.469,484.405 332.168,484.31 332.867,484.236 333.566,484.185 334.266,484.156 334.965,484.15 335.664,484.165 336.364,484.202 337.063,484.262 337.762,484.344 338.462,484.448 339.161,484.574 339.86,484.722 340.559,484.893 341.259,485.085 341.958,485.3 342.657,485.536 343.357,485.794 344.056,486.075 344.755,486.377 345.455,486.701 346.154,487.047 346.853,487.415 347.552,487.804 348.252,488.215 348.951,488.648 349.65,489.102 350.35,489.578 351.049,490.076 351.748,490.594 352.448,491.134 353.147,491.695 353.846,492.278 354.545,492.881 355.245,493.505 355.944,494.151 356.643,494.817 357.343,495.504 358.042,496.212 358.741,496.94 359.441,497.689 360.14,498.458 360.839,499.247 361.538,500.057 362.238,500.887 362.937,501.736 363.636,502.606 364.336,503.496 365.035,504.405 365.734,505.334 366.434,506.282 367.133,507.25 367.832,508.237 368.531,509.243 369.231,510.268 369.93,511.312 370.629,512.375 371.329,513.457 372.028,514.557 372.727,515.676 373.427,516.813 374.126,517.969 374.825,519.142 375.524,520.333 376.224,521.543 376.923,522.77 377.622,524.014 378.322,525.276 379.021,526.556 379.72,527.852 380.42,529.166 381.119,530.497 381.818,531.844 382.517,533.209 383.217,534.59 383.916,535.987 384.615,537.401 385.315,538.831 386.014,540.277 386.713,541.739 387.413,543.216 388.112,544.71 388.811,544.227 389.51,543.262 390.21,542.308 390.909,541.364 391.608,540.431 392.308,538.424 393.007,536.342 393.706,534.273 394.406,532.217 395.105,530.174 395.804,528.146 396.503,526.131 397.203,524.13 397.902,522.143 398.601,520.171 399.301,518.213 400,516.27 400.699,514.341 401.399,512.427 402.098,510.529 402.797,508.646 403.497,506.778 404.196,504.926 404.895,503.09 405.594,501.27 406.294,499.466 406.993,497.678 407.692,495.907 408.392,494.152 409.091,492.415 409.79,490.694 410.49,488.991 411.189,487.305 411.888,485.637 412.587,483.986 413.287,482.353 413.986,480.739 414.685,479.143 415.385,477.565 416.084,476.006 416.783,474.466 417.483,472.945 418.182,471.444 418.881,469.961 419.58,468.499 420.28,467.056 420.979,465.633 421.678,464.23 422.378,462.848 423.077,461.486 423.776,460.145 424.476,458.825 425.175,457.526 425.874,456.248 426.573,454.991 427.273,453.757 427.972,452.544 428.671,451.353 429.371,450.184 430.07,449.037 430.769,447.913 431.469,446.812 432.168,445.733 432.867,444.677 433.566,443.645 434.266,442.636 434.965,441.65 435.664,440.688 436.364,439.75 437.063,438.835 437.762,437.945 438.462,437.079 439.161,436.238 439.86,435.421 440.559,434.628 441.259,433.861 441.958,433.118 442.657,432.4 443.357,431.708 444.056,431.041 444.755,430.399 445.455,429.783 446.154,429.193 446.853,428.628 447.552,428.089 448.252,427.576 448.951,427.089 449.65,426.629 450.35,426.194 451.049,425.786 451.748,425.404 452.448,425.049 453.147,424.72 453.846,424.417 454.545,424.142 455.245,423.893 455.944,423.671 456.643,423.475 457.343,423.306 458.042,423.165 458.741,423.05 459.441,422.962 460.14,422.9 460.839,422.866 461.538,422.859 462.238,422.879 462.937,422.925 463.636,422.999 464.336,423.099 465.035,423.226 465.734,423.38 466.434,423.561 467.133,423.769 467.832,424.004 468.531,424.265 469.231,424.553 469.93,424.867 470.629,425.208 471.329,425.576 472.028,425.97 472.727,426.39 473.427,426.836 474.126,427.309 474.825,427.808 475.524,428.333 476.224,428.883 476.923,429.46 477.622,430.062 478.322,430.69 479.021,431.343 479.72,432.022 480.42,432.726 481.119,433.455 481.818,434.209 482.517,434.988 483.217,435.792 483.916,436.62 484.615,437.473 485.315,438.35 486.014,439.251 486.713,440.177 487.413,441.126 488.112,442.099 488.811,443.095 489.51,444.115 490.21,445.158 490.909,446.224 491.608,447.313 492.308,448.425 493.007,449.56 493.706,450.716 494.406,451.895 495.105,453.097 495.804,454.32 496.503,455.564 497.203,456.831 497.902,458.118 498.601,459.427 499.301,460.757 500,462.107 500.699,463.479 501.399,464.87 502.098,466.282 502.797,467.714 503.497,469.166 504.196,470.638 504.895,472.129 505.594,473.64 506.294,475.17 506.993,476.718 507.692,478.286 508.392,479.872 509.091,481.476 509.79,483.099 510.49,484.74 511.189,486.399 511.888,488.075 512.587,489.769 513.287,491.48 513.986,493.209 514.685,494.954 515.385,496.716 516.084,498.495 516.783,500.29 517.483,502.102 518.182,503.929 518.881,505.773 519.58,507.632 520.28,509.507 520.979,511.397 521.678,513.302 522.378,515.223 523.077,517.158 523.776,519.108 524.476,521.073 525.175,523.052 525.874,525.045 526.573,527.052 527.273,529.073 527.972,531.108 528.671,533.157 529.371,535.219 530.07,537.294 530.769,539.382 531.469,541.484 532.168,543.598 532.867,545.725 533.566,547.864 534.266,550.016 534.965,551.809 535.664,553.457 536.364,555.121 537.063,556.8 537.762,558.495 538.462,560.204 539.161,561.929 539.86,563.669 540.559,565.423 541.259,567.193 541.958,568.976 542.657,570.774 543.357,572.587 544.056,574.413 544.755,576.253 545.455,578.107 546.154,579.975 546.853,581.857 547.552,583.752 548.252,585.66 548.951,587.581 549.65,589.516 550.35,591.463 551.049,593.423 551.748,595.396 552.448,597.382 553.147,599.379 553.846,601.39 554.545,603.412 555.245,605.446 555.944,607.492 556.643,609.551 557.343,611.62 558.042,613.702 558.741,615.795 559.441,617.899 560.14,620.014 560.839,622.141 561.538,624.278 562.238,626.426 562.937,628.586 563.636,630.755 564.336,632.936 565.035,635.127 565.734,637.328 566.434,639.539 567.133,637.783 567.832,634.409 568.531,631.034 569.231,627.66 569.93,624.285 570.629,620.911 571.329,617.536 572.028,614.162 572.727,610.787 573.427,607.413 574.126,604.038 574.825,600.664 575.524,597.289 576.224,593.915 576.923,590.54 577.622,587.166 578.322,583.791 579.021,580.417 579.72,577.042 580.42,573.667 581.119,570.293 581.818,566.918 582.517,563.544 583.217,560.169 583.916,556.795 584.615,553.42 585.315,550.046 586.014,546.671 586.713,543.297 587.413,539.922 588.112,536.548 588.811,533.173 589.51,529.799 590.21,526.424 590.909,523.05 591.608,519.675 592.308,516.301 593.007,512.926 593.706,509.552 594.406,506.177 595.105,502.803 595.804,499.428 596.503,496.054 597.203,492.679 597.902,489.305 598.601,485.93 599.301,482.556 600,479.181 600.699,475.807 601.399,472.432 602.098,469.058 602.797,465.683 603.497,462.309 604.196,458.934 604.895,455.559 605.594,452.185 606.294,448.81 606.993,445.436 607.692,442.061 608.392,438.687 609.091,435.312 609.79,431.938 610.49,428.563 611.189,425.189 611.888,421.814 612.587,418.44 613.287,415.065 613.986,411.691 614.685,408.316 615.385,404.942 616.084,401.567 616.783,398.193 617.483,394.818 618.182,391.444 618.881,388.069 619.58,384.695 620.28,381.32 620.979,377.946 621.678,374.571 622.378,371.197 623.077,367.822 623.776,364.448 624.476,361.073 625.175,357.699 625.874,354.324 626.573,350.95 627.273,347.575 627.972,344.2 628.671,340.826 629.371,337.451 630.07,334.077 630.769,330.702 631.469,327.328 632.168,323.953 632.867,320.579 633.566,317.204 634.266,313.83 634.965,310.455 635.664,307.081 636.364,303.706 637.063,300.332 637.762,296.957 638.462,293.583 639.161,290.208 639.86,286.834 640.559,283.459 641.259,280.085 641.958,276.71 642.657,273.336 643.357,269.961 644.056,266.587 644.755,263.212 645.455,259.838 646.154,256.463 646.853,253.089 647.552,249.714 648.252,246.34 648.951,242.965 649.65,239.591 650.35,236.216 651.049,232.842 651.748,229.467 652.448,226.092 653.147,222.718 653.846,219.343 654.545,215.969 655.245,212.594 655.944,209.22 656.643,205.845 657.343,202.471 658.042,199.096 658.741,195.722 659.441,192.347 660.14,188.973 660.839,185.598 661.538,182.224 662.238,178.849 662.937,175.475 663.636,172.1 664.336,168.726 665.035,165.351 665.734,161.977 666.434,158.602 667.133,155.228 667.832,151.853 668.531,148.479 669.231,145.104 669.93,141.73 670.629,138.355 671.329,134.981 672.028,131.606 672.727,128.232 673.427,124.857 674.126,121.483 674.825,118.108 675.524,114.733 676.224,111.359 676.923,107.984 677.622,104.61 678.322,101.235 679.021,97.8609 679.72,94.4864 680.42,91.1119 681.119,87.7374 681.818,84.3629 682.517,80.9884 683.217,77.6138 683.916,74.2393 684.615,70.8648 685.315,67.4903 686.014,64.1158 686.713,60.7413 687.413,57.3667 688.112,53.9922 688.811,50.6177 689.51,47.2432 690.21,43.8687 690.909,40.4942 691.608,37.1197 692.308,33.7451 693.007,30.3706 693.706,26.9961 694.406,23.6216 695.105,20.2471 695.804,16.8726 696.503,13.4981 697.203,10.1235 697.902,6.74903 698.601,3.37451 699.301,2.95028e-05 " />


<!--Draw the X and Y axes -->
<polyline fill="none" stroke="black" stroke-width="6"  points=" 700,0 0,0 0, 700" />
<polyline fill="none" stroke="black" stroke-width="1"  points=" 0 700  700 700  700 0" />
<!-- -->


<!--Draw labels and tics for X axis -->

<line fill="none" stroke="black"  stroke-width="6"  x1="0.5" y1="0" x2="0.5" y2="-20" />
<text transform="scale(1,-1)" font-family="sans-serif" font-size="30" x="-24.5" y="45" >0</text>
<line fill="none" stroke="black"  stroke-width="6"  x1="140.36" y1="0" x2="140.36" y2="-20" />
<text transform="scale(1,-1)" font-family="sans-serif" font-size="30" x="115.36" y="45" >200</text>
<line fill="none" stroke="black"  stroke-width="6"  x1="280.22" y1="0" x2="280.22" y2="-20" />
<text transform="scale(1,-1)" font-family="sans-serif" font-size="30" x="255.22" y="45" >400</text>
<line fill="none" stroke="black"  stroke-width="6"  x1="420.08" y1="0" x2="420.08" y2="-20" />
<text transform="scale(1,-1)" font-family="sans-serif" font-size="30" x="395.08" y="45" >600</text>
<line fill="none" stroke="black"  stroke-width="6"  x1="559.941" y1="0" x2="559.941" y2="-20" />
<text transform="scale(1,-1)" font-family="sans-serif" font-size="30" x="534.941" y="45" >800</text>
<line fill="none" stroke="black"  stroke-width="6"  x1="699.801" y1="0" x2="699.801" y2="-20" />
<text transform="scale(1,-1)" font-family="sans-serif" font-size="30" x="674.801" y="45" >1000</text>


<!--Draw labels and tics for Y axis -->

<line fill="none" stroke="black" stroke-width="6" x1="0.0" y1="0" x2="-20" y2="0" />
<text transform="scale(1,-1)" text-anchor="end" font-family="sans-serif" font-size="30" x="-25" y="10" >0</text>
<line fill="none" stroke="black" stroke-width="6" x1="0.0" y1="87.5" x2="-20" y2="87.5" />
<text transform="scale(1,-1)" text-anchor="end" font-family="sans-serif" font-size="30" x="-25" y="-77.5" >2</text>
<line fill="none" stroke="black" stroke-width="6" x1="0.0" y1="175" x2="-20" y2="175" />
<text transform="scale(1,-1)" text-anchor="end" font-family="sans-serif" font-size="30" x="-25" y="-165" >4</text>
<line fill="none" stroke="black" stroke-width="6" x1="0.0" y1="262.5" x2="-20" y2="262.5" />
<text transform="scale(1,-1)" text-anchor="end" font-family="sans-serif" font-size="30" x="-25" y="-252.5" >6</text>
<line fill="none" stroke="black" stroke-width="6" x1="0.0" y1="350" x2="-20" y2="350" />
<text transform="scale(1,-1)" text-anchor="end" font-family="sans-serif" font-size="30" x="-25" y="-340" >8</text>
<line fill="none" stroke="black" stroke-width="6" x1="0.0" y1="437.5" x2="-20" y2="437.5" />
<text transform="scale(1,-1)" text-anchor="end" font-family="sans-serif" font-size="30" x="-25" y="-427.5" >10</text>
<line fill="none" stroke="black" stroke-width="6" x1="0.0" y1="525" x2="-20" y2="525" />
<text transform="scale(1,-1)" text-anchor="end" font-family="sans-serif" font-size="30" x="-25" y="-515" >12</text>
<line fill="none" stroke="black" stroke-width="6" x1="0.0" y1="612.5" x2="-20" y2="612.5" />
<text transform="scale(1,-1)" text-anchor="end" font-family="sans-serif" font-size="30" x="-25" y="-602.5" >14</text>
<line fill="none" stroke="black" stroke-width="6" x1="0.0" y1="700" x2="-20" y2="700" />
<text transform="scale(1,-1)" text-anchor="end" font-family="sans-serif" font-size="30" x="-25" y="-690" >16</text>

-->
</g>
</g>
<!-- Run Constants
PRINTDISTANCEDATA bool true
GLITCHESONLY bool false
PERTURBBY double 0.05
GLITCHLEVEL double 3
BOUNDARYWINDOW double 0.065
STEPSPERFRAME int 1000
TRIALS int 1
ALLBLACK bool true
FILEPREFIX string Fol
ENABLE DistanceEnableString 
DISABLE DistanceDisableString 
GRAPHSIZE int 0
BORDER int 0
PLOTSIZE int 0
AXISWIDTH int 6
TICLENGTH int 20
VECTOR g6 
FOLLOWERMODE FollowerMode point
FIXRANDOMSEED fixRandomSeed true
RANDOMSEED int 18
TIMESTAMP bool true
END end 


-->
</svg>
