<?xml version="1.0" standalone="no"?>
<!-- the width and height set the total pixel output of the image in the browser -->
<!-- whatever is within the viewbox will be remapped to show in this size -->
<svg width="900" height="800" viewBox="1 0 900 800"  version="1.1" xmlns="http://www.w3.org/2000/svg" xmlns:xlink="http://www.w3.org/1999/xlink">
 <desc>ID (and file name) = Fol_2018-05-16.16_30_58.58_57.svg </desc> 
<text x = "-750" y="50" transform="rotate(-90)"  font-family="sans-serif" font-size="40" stroke ="lightgray" fill="none"> PointDistanceFollower   May 16 2018</text>
 <text x="560" y="30" font-family="sans-serif" font-size="20">Wall time passed: 1186 msec.</text>
<text x="300" y="60"   font-family="sans-serif" font-size="20" fill="lightblue">S6  lightblue</text>
<text x="300" y="85"   font-family="sans-serif" font-size="20" fill="slategrey">NCDist  slategrey</text>
<text x="300" y="110"  font-family="sans-serif" font-size="20" fill="violet">D7  violet</text>
<text x="300" y="135"  font-family="sans-serif" font-size="20" fill="olive">CS6Dist  olive</text>

 <text x="140"  y="30"  font-family="sans-serif" font-size="20" >Fol_2018-05-16.16_30_58.58_57.svg  </text> 


 <!--DISTANCE PLOT BEGINS-->


<!-- the following will scale and place the distance plot -->
<g  transform="translate(0, 50) ">
<g transform="translate(150,700) scale(1 -1)">
<line fill="none" stroke="lightblue" stroke-width="12" x1="0" y1="425.425" x2="5.94059" y2="425.425" />
<line fill="none" stroke="lightblue" stroke-width="12" x1="5.94059" y1="425.425" x2="11.8812" y2="399.159" />
<line fill="none" stroke="lightblue" stroke-width="12" x1="11.8812" y1="399.159" x2="17.8218" y2="370.484" />
<line fill="none" stroke="lightblue" stroke-width="12" x1="17.8218" y1="370.484" x2="23.7624" y2="342.564" />
<line fill="none" stroke="lightblue" stroke-width="12" x1="23.7624" y1="342.564" x2="29.703" y2="334.612" />
<line fill="none" stroke="lightblue" stroke-width="12" x1="29.703" y1="334.612" x2="35.6436" y2="332.673" />
<line fill="none" stroke="lightblue" stroke-width="12" x1="35.6436" y1="332.673" x2="41.5842" y2="331.279" />
<line fill="none" stroke="lightblue" stroke-width="12" x1="41.5842" y1="331.279" x2="47.5248" y2="330.434" />
<line fill="none" stroke="lightblue" stroke-width="12" x1="47.5248" y1="330.434" x2="53.4653" y2="330.14" />
<line fill="none" stroke="lightblue" stroke-width="12" x1="53.4653" y1="330.14" x2="59.4059" y2="330.4" />
<line fill="none" stroke="lightblue" stroke-width="12" x1="59.4059" y1="330.4" x2="65.3465" y2="331.21" />
<line fill="none" stroke="lightblue" stroke-width="12" x1="65.3465" y1="331.21" x2="71.2871" y2="332.57" />
<line fill="none" stroke="lightblue" stroke-width="12" x1="71.2871" y1="332.57" x2="77.2277" y2="334.476" />
<line fill="none" stroke="lightblue" stroke-width="12" x1="77.2277" y1="334.476" x2="83.1683" y2="336.922" />
<line fill="none" stroke="lightblue" stroke-width="12" x1="83.1683" y1="336.922" x2="89.1089" y2="339.901" />
<line fill="none" stroke="lightblue" stroke-width="12" x1="89.1089" y1="339.901" x2="95.0495" y2="340.687" />
<line fill="none" stroke="lightblue" stroke-width="12" x1="95.0495" y1="340.687" x2="100.99" y2="336.998" />
<line fill="none" stroke="lightblue" stroke-width="12" x1="100.99" y1="336.998" x2="106.931" y2="333.836" />
<line fill="none" stroke="lightblue" stroke-width="12" x1="106.931" y1="333.836" x2="112.871" y2="331.209" />
<line fill="none" stroke="lightblue" stroke-width="12" x1="112.871" y1="331.209" x2="118.812" y2="329.123" />
<line fill="none" stroke="lightblue" stroke-width="12" x1="118.812" y1="329.123" x2="124.752" y2="327.585" />
<line fill="none" stroke="lightblue" stroke-width="12" x1="124.752" y1="327.585" x2="130.693" y2="326.6" />
<line fill="none" stroke="lightblue" stroke-width="12" x1="130.693" y1="326.6" x2="136.634" y2="326.169" />
<line fill="none" stroke="lightblue" stroke-width="12" x1="136.634" y1="326.169" x2="142.574" y2="326.294" />
<line fill="none" stroke="lightblue" stroke-width="12" x1="142.574" y1="326.294" x2="148.515" y2="326.974" />
<line fill="none" stroke="lightblue" stroke-width="12" x1="148.515" y1="326.974" x2="154.455" y2="328.209" />
<line fill="none" stroke="lightblue" stroke-width="12" x1="154.455" y1="328.209" x2="160.396" y2="329.994" />
<line fill="none" stroke="lightblue" stroke-width="12" x1="160.396" y1="329.994" x2="166.337" y2="328.099" />
<line fill="none" stroke="lightblue" stroke-width="12" x1="166.337" y1="328.099" x2="172.277" y2="311.912" />
<line fill="none" stroke="lightblue" stroke-width="12" x1="172.277" y1="311.912" x2="178.218" y2="295.837" />
<line fill="none" stroke="lightblue" stroke-width="12" x1="178.218" y1="295.837" x2="184.158" y2="279.885" />
<line fill="none" stroke="lightblue" stroke-width="12" x1="184.158" y1="279.885" x2="190.099" y2="264.067" />
<line fill="none" stroke="lightblue" stroke-width="12" x1="190.099" y1="264.067" x2="196.04" y2="248.396" />
<line fill="none" stroke="lightblue" stroke-width="12" x1="196.04" y1="248.396" x2="201.98" y2="232.765" />
<line fill="none" stroke="lightblue" stroke-width="12" x1="201.98" y1="232.765" x2="207.921" y2="217.062" />
<line fill="none" stroke="lightblue" stroke-width="12" x1="207.921" y1="217.062" x2="213.861" y2="201.592" />
<line fill="none" stroke="lightblue" stroke-width="12" x1="213.861" y1="201.592" x2="219.802" y2="186.378" />
<line fill="none" stroke="lightblue" stroke-width="12" x1="219.802" y1="186.378" x2="225.743" y2="171.447" />
<line fill="none" stroke="lightblue" stroke-width="12" x1="225.743" y1="171.447" x2="231.683" y2="156.831" />
<line fill="none" stroke="lightblue" stroke-width="12" x1="231.683" y1="156.831" x2="237.624" y2="141.411" />
<line fill="none" stroke="lightblue" stroke-width="12" x1="237.624" y1="141.411" x2="243.564" y2="126.178" />
<line fill="none" stroke="lightblue" stroke-width="12" x1="243.564" y1="126.178" x2="249.505" y2="111.273" />
<line fill="none" stroke="lightblue" stroke-width="12" x1="249.505" y1="111.273" x2="255.446" y2="98.5907" />
<line fill="none" stroke="lightblue" stroke-width="12" x1="255.446" y1="98.5907" x2="261.386" y2="84.3755" />
<line fill="none" stroke="lightblue" stroke-width="12" x1="261.386" y1="84.3755" x2="267.327" y2="70.5144" />
<line fill="none" stroke="lightblue" stroke-width="12" x1="267.327" y1="70.5144" x2="273.267" y2="63.2732" />
<line fill="none" stroke="lightblue" stroke-width="12" x1="273.267" y1="63.2732" x2="279.208" y2="59.3111" />
<line fill="none" stroke="lightblue" stroke-width="12" x1="279.208" y1="59.3111" x2="285.149" y2="55.7507" />
<line fill="none" stroke="lightblue" stroke-width="12" x1="285.149" y1="55.7507" x2="291.089" y2="52.6061" />
<line fill="none" stroke="lightblue" stroke-width="12" x1="291.089" y1="52.6061" x2="297.03" y2="49.8899" />
<line fill="none" stroke="lightblue" stroke-width="12" x1="297.03" y1="49.8899" x2="302.97" y2="47.6137" />
<line fill="none" stroke="lightblue" stroke-width="12" x1="302.97" y1="47.6137" x2="308.911" y2="45.7874" />
<line fill="none" stroke="lightblue" stroke-width="12" x1="308.911" y1="45.7874" x2="314.851" y2="44.419" />
<line fill="none" stroke="lightblue" stroke-width="12" x1="314.851" y1="44.419" x2="320.792" y2="43.515" />
<line fill="none" stroke="lightblue" stroke-width="12" x1="320.792" y1="43.515" x2="326.733" y2="43.0794" />
<line fill="none" stroke="lightblue" stroke-width="12" x1="326.733" y1="43.0794" x2="332.673" y2="43.1144" />
<line fill="none" stroke="lightblue" stroke-width="12" x1="332.673" y1="43.1144" x2="338.614" y2="43.6196" />
<line fill="none" stroke="lightblue" stroke-width="12" x1="338.614" y1="43.6196" x2="344.554" y2="44.5929" />
<line fill="none" stroke="lightblue" stroke-width="12" x1="344.554" y1="44.5929" x2="350.495" y2="46.0297" />
<line fill="none" stroke="lightblue" stroke-width="12" x1="350.495" y1="46.0297" x2="356.436" y2="47.9234" />
<line fill="none" stroke="lightblue" stroke-width="12" x1="356.436" y1="47.9234" x2="362.376" y2="50.2655" />
<line fill="none" stroke="lightblue" stroke-width="12" x1="362.376" y1="50.2655" x2="368.317" y2="53.046" />
<line fill="none" stroke="lightblue" stroke-width="12" x1="368.317" y1="53.046" x2="374.257" y2="56.2532" />
<line fill="none" stroke="lightblue" stroke-width="12" x1="374.257" y1="56.2532" x2="380.198" y2="59.8741" />
<line fill="none" stroke="lightblue" stroke-width="12" x1="380.198" y1="59.8741" x2="386.139" y2="63.8947" />
<line fill="none" stroke="lightblue" stroke-width="12" x1="386.139" y1="63.8947" x2="392.079" y2="68.3002" />
<line fill="none" stroke="lightblue" stroke-width="12" x1="392.079" y1="68.3002" x2="398.02" y2="87.7554" />
<line fill="none" stroke="lightblue" stroke-width="12" x1="398.02" y1="87.7554" x2="403.96" y2="108.191" />
<line fill="none" stroke="lightblue" stroke-width="12" x1="403.96" y1="108.191" x2="409.901" y2="129.408" />
<line fill="none" stroke="lightblue" stroke-width="12" x1="409.901" y1="129.408" x2="415.842" y2="151.287" />
<line fill="none" stroke="lightblue" stroke-width="12" x1="415.842" y1="151.287" x2="421.782" y2="173.725" />
<line fill="none" stroke="lightblue" stroke-width="12" x1="421.782" y1="173.725" x2="427.723" y2="196.641" />
<line fill="none" stroke="lightblue" stroke-width="12" x1="427.723" y1="196.641" x2="433.663" y2="221.265" />
<line fill="none" stroke="lightblue" stroke-width="12" x1="433.663" y1="221.265" x2="439.604" y2="238.783" />
<line fill="none" stroke="lightblue" stroke-width="12" x1="439.604" y1="238.783" x2="445.545" y2="253.426" />
<line fill="none" stroke="lightblue" stroke-width="12" x1="445.545" y1="253.426" x2="451.485" y2="269.393" />
<line fill="none" stroke="lightblue" stroke-width="12" x1="451.485" y1="269.393" x2="457.426" y2="307.851" />
<line fill="none" stroke="lightblue" stroke-width="12" x1="457.426" y1="307.851" x2="463.366" y2="362.362" />
<line fill="none" stroke="lightblue" stroke-width="12" x1="463.366" y1="362.362" x2="469.307" y2="403.346" />
<line fill="none" stroke="lightblue" stroke-width="12" x1="469.307" y1="403.346" x2="475.248" y2="476.155" />
<line fill="none" stroke="lightblue" stroke-width="12" x1="475.248" y1="476.155" x2="481.188" y2="551.505" />
<line fill="none" stroke="lightblue" stroke-width="12" x1="481.188" y1="551.505" x2="487.129" y2="532.975" />
<line fill="none" stroke-dasharray = "10, 10"  stroke="orange" stroke-width="6" x1="487.129" y1="300" x2="493.069" y2="300" />
<line fill="none" stroke-dasharray = "10, 10"  stroke="orange" stroke-width="6" x1="493.069" y1="300" x2="499.01" y2="300" />
<line fill="none" stroke-dasharray = "10, 10"  stroke="orange" stroke-width="6" x1="499.01" y1="300" x2="504.95" y2="300" />
<line fill="none" stroke-dasharray = "10, 10"  stroke="orange" stroke-width="6" x1="504.95" y1="300" x2="510.891" y2="300" />
<line fill="none" stroke-dasharray = "10, 10"  stroke="orange" stroke-width="6" x1="510.891" y1="300" x2="516.832" y2="300" />
<line fill="none" stroke-dasharray = "10, 10"  stroke="orange" stroke-width="6" x1="516.832" y1="300" x2="522.772" y2="300" />
<line fill="none" stroke-dasharray = "10, 10"  stroke="orange" stroke-width="6" x1="522.772" y1="300" x2="528.713" y2="300" />
<line fill="none" stroke-dasharray = "10, 10"  stroke="orange" stroke-width="6" x1="528.713" y1="300" x2="534.653" y2="300" />
<line fill="none" stroke-dasharray = "10, 10"  stroke="orange" stroke-width="6" x1="534.653" y1="300" x2="540.594" y2="300" />
<line fill="none" stroke-dasharray = "10, 10"  stroke="orange" stroke-width="6" x1="540.594" y1="300" x2="546.535" y2="300" />
<line fill="none" stroke-dasharray = "10, 10"  stroke="orange" stroke-width="6" x1="546.535" y1="300" x2="552.475" y2="300" />
<line fill="none" stroke-dasharray = "10, 10"  stroke="orange" stroke-width="6" x1="552.475" y1="300" x2="558.416" y2="300" />
<line fill="none" stroke-dasharray = "10, 10"  stroke="orange" stroke-width="6" x1="558.416" y1="300" x2="564.356" y2="300" />
<line fill="none" stroke-dasharray = "10, 10"  stroke="orange" stroke-width="6" x1="564.356" y1="300" x2="570.297" y2="300" />
<line fill="none" stroke-dasharray = "10, 10"  stroke="orange" stroke-width="6" x1="570.297" y1="300" x2="576.238" y2="300" />
<line fill="none" stroke-dasharray = "10, 10"  stroke="orange" stroke-width="6" x1="576.238" y1="300" x2="582.178" y2="300" />
<line fill="none" stroke-dasharray = "10, 10"  stroke="orange" stroke-width="6" x1="582.178" y1="300" x2="588.119" y2="300" />
<line fill="none" stroke-dasharray = "10, 10"  stroke="orange" stroke-width="6" x1="588.119" y1="300" x2="594.059" y2="300" />
<line fill="none" stroke="olive" stroke-width="3" x1="0" y1="425.425" x2="5.94059" y2="425.425" />
<line fill="none" stroke="olive" stroke-width="3" x1="5.94059" y1="425.425" x2="11.8812" y2="423.484" />
<line fill="none" stroke="olive" stroke-width="3" x1="11.8812" y1="423.484" x2="17.8218" y2="399.538" />
<line fill="none" stroke="olive" stroke-width="3" x1="17.8218" y1="399.538" x2="23.7624" y2="376.701" />
<line fill="none" stroke="olive" stroke-width="3" x1="23.7624" y1="376.701" x2="29.703" y2="334.612" />
<line fill="none" stroke="olive" stroke-width="3" x1="29.703" y1="334.612" x2="35.6436" y2="332.673" />
<line fill="none" stroke="olive" stroke-width="3" x1="35.6436" y1="332.673" x2="41.5842" y2="331.279" />
<line fill="none" stroke="olive" stroke-width="3" x1="41.5842" y1="331.279" x2="47.5248" y2="330.434" />
<line fill="none" stroke="olive" stroke-width="3" x1="47.5248" y1="330.434" x2="53.4653" y2="330.14" />
<line fill="none" stroke="olive" stroke-width="3" x1="53.4653" y1="330.14" x2="59.4059" y2="330.4" />
<line fill="none" stroke="olive" stroke-width="3" x1="59.4059" y1="330.4" x2="65.3465" y2="331.21" />
<line fill="none" stroke="olive" stroke-width="3" x1="65.3465" y1="331.21" x2="71.2871" y2="332.57" />
<line fill="none" stroke="olive" stroke-width="3" x1="71.2871" y1="332.57" x2="77.2277" y2="334.476" />
<line fill="none" stroke="olive" stroke-width="3" x1="77.2277" y1="334.476" x2="83.1683" y2="336.922" />
<line fill="none" stroke="olive" stroke-width="3" x1="83.1683" y1="336.922" x2="89.1089" y2="339.901" />
<line fill="none" stroke="olive" stroke-width="3" x1="89.1089" y1="339.901" x2="95.0495" y2="343.406" />
<line fill="none" stroke="olive" stroke-width="3" x1="95.0495" y1="343.406" x2="100.99" y2="347.428" />
<line fill="none" stroke="olive" stroke-width="3" x1="100.99" y1="347.428" x2="106.931" y2="351.956" />
<line fill="none" stroke="olive" stroke-width="3" x1="106.931" y1="351.956" x2="112.871" y2="356.98" />
<line fill="none" stroke="olive" stroke-width="3" x1="112.871" y1="356.98" x2="118.812" y2="362.486" />
<line fill="none" stroke="olive" stroke-width="3" x1="118.812" y1="362.486" x2="124.752" y2="368.463" />
<line fill="none" stroke="olive" stroke-width="3" x1="124.752" y1="368.463" x2="130.693" y2="372.993" />
<line fill="none" stroke="olive" stroke-width="3" x1="130.693" y1="372.993" x2="136.634" y2="369.912" />
<line fill="none" stroke="olive" stroke-width="3" x1="136.634" y1="369.912" x2="142.574" y2="367.335" />
<line fill="none" stroke="olive" stroke-width="3" x1="142.574" y1="367.335" x2="148.515" y2="365.269" />
<line fill="none" stroke="olive" stroke-width="3" x1="148.515" y1="365.269" x2="154.455" y2="363.718" />
<line fill="none" stroke="olive" stroke-width="3" x1="154.455" y1="363.718" x2="160.396" y2="354.424" />
<line fill="none" stroke="olive" stroke-width="3" x1="160.396" y1="354.424" x2="166.337" y2="337.56" />
<line fill="none" stroke="olive" stroke-width="3" x1="166.337" y1="337.56" x2="172.277" y2="320.767" />
<line fill="none" stroke="olive" stroke-width="3" x1="172.277" y1="320.767" x2="178.218" y2="304.049" />
<line fill="none" stroke="olive" stroke-width="3" x1="178.218" y1="304.049" x2="184.158" y2="287.413" />
<line fill="none" stroke="olive" stroke-width="3" x1="184.158" y1="287.413" x2="190.099" y2="270.868" />
<line fill="none" stroke="olive" stroke-width="3" x1="190.099" y1="270.868" x2="196.04" y2="254.422" />
<line fill="none" stroke="olive" stroke-width="3" x1="196.04" y1="254.422" x2="201.98" y2="232.765" />
<line fill="none" stroke="olive" stroke-width="3" x1="201.98" y1="232.765" x2="207.921" y2="217.062" />
<line fill="none" stroke="olive" stroke-width="3" x1="207.921" y1="217.062" x2="213.861" y2="201.592" />
<line fill="none" stroke="olive" stroke-width="3" x1="213.861" y1="201.592" x2="219.802" y2="186.378" />
<line fill="none" stroke="olive" stroke-width="3" x1="219.802" y1="186.378" x2="225.743" y2="171.447" />
<line fill="none" stroke="olive" stroke-width="3" x1="225.743" y1="171.447" x2="231.683" y2="156.831" />
<line fill="none" stroke="olive" stroke-width="3" x1="231.683" y1="156.831" x2="237.624" y2="142.564" />
<line fill="none" stroke="olive" stroke-width="3" x1="237.624" y1="142.564" x2="243.564" y2="128.684" />
<line fill="none" stroke="olive" stroke-width="3" x1="243.564" y1="128.684" x2="249.505" y2="115.235" />
<line fill="none" stroke="olive" stroke-width="3" x1="249.505" y1="115.235" x2="255.446" y2="557.914" />
<line fill="none" stroke="olive" stroke-width="3" x1="255.446" y1="557.914" x2="261.386" y2="556.072" />
<line fill="none" stroke="olive" stroke-width="3" x1="261.386" y1="556.072" x2="267.327" y2="554.618" />
<line fill="none" stroke="olive" stroke-width="3" x1="267.327" y1="554.618" x2="273.267" y2="63.2732" />
<line fill="none" stroke="olive" stroke-width="3" x1="273.267" y1="63.2732" x2="279.208" y2="59.3111" />
<line fill="none" stroke="olive" stroke-width="3" x1="279.208" y1="59.3111" x2="285.149" y2="55.7507" />
<line fill="none" stroke="olive" stroke-width="3" x1="285.149" y1="55.7507" x2="291.089" y2="52.6061" />
<line fill="none" stroke="olive" stroke-width="3" x1="291.089" y1="52.6061" x2="297.03" y2="49.8899" />
<line fill="none" stroke="olive" stroke-width="3" x1="297.03" y1="49.8899" x2="302.97" y2="47.6137" />
<line fill="none" stroke="olive" stroke-width="3" x1="302.97" y1="47.6137" x2="308.911" y2="45.7874" />
<line fill="none" stroke="olive" stroke-width="3" x1="308.911" y1="45.7874" x2="314.851" y2="44.419" />
<line fill="none" stroke="olive" stroke-width="3" x1="314.851" y1="44.419" x2="320.792" y2="43.515" />
<line fill="none" stroke="olive" stroke-width="3" x1="320.792" y1="43.515" x2="326.733" y2="43.0794" />
<line fill="none" stroke="olive" stroke-width="3" x1="326.733" y1="43.0794" x2="332.673" y2="43.1144" />
<line fill="none" stroke="olive" stroke-width="3" x1="332.673" y1="43.1144" x2="338.614" y2="43.6196" />
<line fill="none" stroke="olive" stroke-width="3" x1="338.614" y1="43.6196" x2="344.554" y2="44.5929" />
<line fill="none" stroke="olive" stroke-width="3" x1="344.554" y1="44.5929" x2="350.495" y2="46.0297" />
<line fill="none" stroke="olive" stroke-width="3" x1="350.495" y1="46.0297" x2="356.436" y2="47.9234" />
<line fill="none" stroke="olive" stroke-width="3" x1="356.436" y1="47.9234" x2="362.376" y2="50.2655" />
<line fill="none" stroke="olive" stroke-width="3" x1="362.376" y1="50.2655" x2="368.317" y2="53.046" />
<line fill="none" stroke="olive" stroke-width="3" x1="368.317" y1="53.046" x2="374.257" y2="56.2532" />
<line fill="none" stroke="olive" stroke-width="3" x1="374.257" y1="56.2532" x2="380.198" y2="59.8741" />
<line fill="none" stroke="olive" stroke-width="3" x1="380.198" y1="59.8741" x2="386.139" y2="63.8947" />
<line fill="none" stroke="olive" stroke-width="3" x1="386.139" y1="63.8947" x2="392.079" y2="68.3002" />
<line fill="none" stroke="olive" stroke-width="3" x1="392.079" y1="68.3002" x2="398.02" y2="149.883" />
<line fill="none" stroke="olive" stroke-width="3" x1="398.02" y1="149.883" x2="403.96" y2="164.459" />
<line fill="none" stroke="olive" stroke-width="3" x1="403.96" y1="164.459" x2="409.901" y2="180.197" />
<line fill="none" stroke="olive" stroke-width="3" x1="409.901" y1="180.197" x2="415.842" y2="196.976" />
<line fill="none" stroke="olive" stroke-width="3" x1="415.842" y1="196.976" x2="421.782" y2="214.684" />
<line fill="none" stroke="olive" stroke-width="3" x1="421.782" y1="214.684" x2="427.723" y2="233.221" />
<line fill="none" stroke="olive" stroke-width="3" x1="427.723" y1="233.221" x2="433.663" y2="245.41" />
<line fill="none" stroke="olive" stroke-width="3" x1="433.663" y1="245.41" x2="439.604" y2="256.223" />
<line fill="none" stroke="olive" stroke-width="3" x1="439.604" y1="256.223" x2="445.545" y2="268.548" />
<line fill="none" stroke="olive" stroke-width="3" x1="445.545" y1="268.548" x2="451.485" y2="282.282" />
<line fill="none" stroke="olive" stroke-width="3" x1="451.485" y1="282.282" x2="457.426" y2="307.851" />
<line fill="none" stroke="olive" stroke-width="3" x1="457.426" y1="307.851" x2="463.366" y2="362.362" />
<line fill="none" stroke="olive" stroke-width="3" x1="463.366" y1="362.362" x2="469.307" y2="404.547" />
<line fill="none" stroke="olive" stroke-width="3" x1="469.307" y1="404.547" x2="475.248" y2="422.652" />
<line fill="none" stroke="olive" stroke-width="3" x1="475.248" y1="422.652" x2="481.188" y2="359.668" />
<line fill="none" stroke="olive" stroke-width="3" x1="481.188" y1="359.668" x2="487.129" y2="284.59" />
<line fill="none" stroke-dasharray = "10, 10"  stroke="orange" stroke-width="6" x1="487.129" y1="300" x2="493.069" y2="300" />
<line fill="none" stroke-dasharray = "10, 10"  stroke="orange" stroke-width="6" x1="493.069" y1="300" x2="499.01" y2="300" />
<line fill="none" stroke-dasharray = "10, 10"  stroke="orange" stroke-width="6" x1="499.01" y1="300" x2="504.95" y2="300" />
<line fill="none" stroke-dasharray = "10, 10"  stroke="orange" stroke-width="6" x1="504.95" y1="300" x2="510.891" y2="300" />
<line fill="none" stroke-dasharray = "10, 10"  stroke="orange" stroke-width="6" x1="510.891" y1="300" x2="516.832" y2="300" />
<line fill="none" stroke-dasharray = "10, 10"  stroke="orange" stroke-width="6" x1="516.832" y1="300" x2="522.772" y2="300" />
<line fill="none" stroke-dasharray = "10, 10"  stroke="orange" stroke-width="6" x1="522.772" y1="300" x2="528.713" y2="300" />
<line fill="none" stroke-dasharray = "10, 10"  stroke="orange" stroke-width="6" x1="528.713" y1="300" x2="534.653" y2="300" />
<line fill="none" stroke-dasharray = "10, 10"  stroke="orange" stroke-width="6" x1="534.653" y1="300" x2="540.594" y2="300" />
<line fill="none" stroke-dasharray = "10, 10"  stroke="orange" stroke-width="6" x1="540.594" y1="300" x2="546.535" y2="300" />
<line fill="none" stroke-dasharray = "10, 10"  stroke="orange" stroke-width="6" x1="546.535" y1="300" x2="552.475" y2="300" />
<line fill="none" stroke-dasharray = "10, 10"  stroke="orange" stroke-width="6" x1="552.475" y1="300" x2="558.416" y2="300" />
<line fill="none" stroke-dasharray = "10, 10"  stroke="orange" stroke-width="6" x1="558.416" y1="300" x2="564.356" y2="300" />
<line fill="none" stroke-dasharray = "10, 10"  stroke="orange" stroke-width="6" x1="564.356" y1="300" x2="570.297" y2="300" />
<line fill="none" stroke-dasharray = "10, 10"  stroke="orange" stroke-width="6" x1="570.297" y1="300" x2="576.238" y2="300" />
<line fill="none" stroke-dasharray = "10, 10"  stroke="orange" stroke-width="6" x1="576.238" y1="300" x2="582.178" y2="300" />
<line fill="none" stroke-dasharray = "10, 10"  stroke="orange" stroke-width="6" x1="582.178" y1="300" x2="588.119" y2="300" />
<line fill="none" stroke-dasharray = "10, 10"  stroke="orange" stroke-width="6" x1="588.119" y1="300" x2="594.059" y2="300" />

<!--Draw Glitches -->

<line fill="none" stroke="black" stroke-width="4" x1="475.248" y1="466.155" x2="475.248" y2="416.155"  stroke-dasharray = "10,5" />
<text transform="scale(1,-1)" font-family="sans-serif" font-size="30" stroke = "rgb(0,0,0)" line = "rgb(0,0,0)"  fill = "lightblue" x="480.248" y="-416.155" >79</text>
<line fill="none" stroke="black" stroke-width="4" x1="493.069" y1="-284.286" x2="493.069" y2="-334.286"  stroke-dasharray = "10,5" />
<text transform="scale(1,-1)" font-family="sans-serif" font-size="30" stroke = "rgb(0,0,0)" line = "rgb(0,0,0)"  fill = "lightblue" x="498.069" y="334.286" >82</text>

<!-- -->


<!--Draw Glitches -->

<line fill="none" stroke="black" stroke-width="4" x1="255.446" y1="547.914" x2="255.446" y2="497.914"  stroke-dasharray = "10,5" />
<text transform="scale(1,-1)" font-family="sans-serif" font-size="30" stroke = "rgb(0,0,0)" line = "rgb(0,0,0)"  fill = "olive" x="260.446" y="-497.914" >42</text>
<line fill="none" stroke="black" stroke-width="4" x1="273.267" y1="53.2732" x2="273.267" y2="3.27324"  stroke-dasharray = "10,5" />
<text transform="scale(1,-1)" font-family="sans-serif" font-size="30" stroke = "rgb(0,0,0)" line = "rgb(0,0,0)"  fill = "olive" x="278.267" y="-3.27324" >45</text>
<line fill="none" stroke="black" stroke-width="4" x1="398.02" y1="139.883" x2="398.02" y2="89.8834"  stroke-dasharray = "10,5" />
<text transform="scale(1,-1)" font-family="sans-serif" font-size="30" stroke = "rgb(0,0,0)" line = "rgb(0,0,0)"  fill = "olive" x="403.02" y="-89.8834" >66</text>
<line fill="none" stroke="black" stroke-width="4" x1="493.069" y1="-284.286" x2="493.069" y2="-334.286"  stroke-dasharray = "10,5" />
<text transform="scale(1,-1)" font-family="sans-serif" font-size="30" stroke = "rgb(0,0,0)" line = "rgb(0,0,0)"  fill = "olive" x="498.069" y="334.286" >82</text>

<!-- -->


<!--Draw the X and Y axes -->
<polyline fill="none" stroke="black" stroke-width="6"  points=" 600,0 0,0 0, 600" />
<polyline fill="none" stroke="black" stroke-width="1"  points=" 0 600  600 600  600 0" />
<!-- -->


<!--Draw labels and tics for X axis -->

<line fill="none" stroke="black"  stroke-width="6"  x1="0.5" y1="0" x2="0.5" y2="-20" />
<text transform="scale(1,-1)" font-family="sans-serif" font-size="30" x="-24.5" y="45" >0</text>
<line fill="none" stroke="black"  stroke-width="6"  x1="119.312" y1="0" x2="119.312" y2="-20" />
<text transform="scale(1,-1)" font-family="sans-serif" font-size="30" x="94.3119" y="45" >20</text>
<line fill="none" stroke="black"  stroke-width="6"  x1="238.124" y1="0" x2="238.124" y2="-20" />
<text transform="scale(1,-1)" font-family="sans-serif" font-size="30" x="213.124" y="45" >40</text>
<line fill="none" stroke="black"  stroke-width="6"  x1="356.936" y1="0" x2="356.936" y2="-20" />
<text transform="scale(1,-1)" font-family="sans-serif" font-size="30" x="331.936" y="45" >60</text>
<line fill="none" stroke="black"  stroke-width="6"  x1="475.748" y1="0" x2="475.748" y2="-20" />
<text transform="scale(1,-1)" font-family="sans-serif" font-size="30" x="450.748" y="45" >80</text>
<line fill="none" stroke="black"  stroke-width="6"  x1="594.559" y1="0" x2="594.559" y2="-20" />
<text transform="scale(1,-1)" font-family="sans-serif" font-size="30" x="569.559" y="45" >100</text>


<!--Draw labels and tics for Y axis -->

<line fill="none" stroke="black" stroke-width="6" x1="0.0" y1="0" x2="-20" y2="0" />
<text transform="scale(1,-1)" text-anchor="end" font-family="sans-serif" font-size="30" x="-25" y="10" >15</text>
<line fill="none" stroke="black" stroke-width="6" x1="0.0" y1="85.7143" x2="-20" y2="85.7143" />
<text transform="scale(1,-1)" text-anchor="end" font-family="sans-serif" font-size="30" x="-25" y="-75.7143" >20</text>
<line fill="none" stroke="black" stroke-width="6" x1="0.0" y1="171.429" x2="-20" y2="171.429" />
<text transform="scale(1,-1)" text-anchor="end" font-family="sans-serif" font-size="30" x="-25" y="-161.429" >25</text>
<line fill="none" stroke="black" stroke-width="6" x1="0.0" y1="257.143" x2="-20" y2="257.143" />
<text transform="scale(1,-1)" text-anchor="end" font-family="sans-serif" font-size="30" x="-25" y="-247.143" >30</text>
<line fill="none" stroke="black" stroke-width="6" x1="0.0" y1="342.857" x2="-20" y2="342.857" />
<text transform="scale(1,-1)" text-anchor="end" font-family="sans-serif" font-size="30" x="-25" y="-332.857" >35</text>
<line fill="none" stroke="black" stroke-width="6" x1="0.0" y1="428.571" x2="-20" y2="428.571" />
<text transform="scale(1,-1)" text-anchor="end" font-family="sans-serif" font-size="30" x="-25" y="-418.571" >40</text>
<line fill="none" stroke="black" stroke-width="6" x1="0.0" y1="514.286" x2="-20" y2="514.286" />
<text transform="scale(1,-1)" text-anchor="end" font-family="sans-serif" font-size="30" x="-25" y="-504.286" >45</text>
<line fill="none" stroke="black" stroke-width="6" x1="0.0" y1="600" x2="-20" y2="600" />
<text transform="scale(1,-1)" text-anchor="end" font-family="sans-serif" font-size="30" x="-25" y="-590" >50</text>

-->
</g>
</g>
<!-- Run Constants
PRINTDISTANCEDATA bool true
GLITCHESONLY bool true
PLOT 2doubles 3 4
PERTURBBY double 0.05
GLITCHLEVEL double 3
BOUNDARYWINDOW double 0.065
FRAMESPERPATH int 200
STEPSPERFRAME int 100
TRIALS int 1
ALLBLACK bool true
FILEPREFIX string Fol
GRAPHSIZE int 0
BORDER int 0
PLOTSIZE int 0
G6LINEWIDTH int 3
DELONELINEWIDTH int 10
AXISWIDTH int 6
TICLENGTH int 20
VECTOR g6 
FOLLOWERMODE FollowerMode line
FIXRANDOMSEED fixRandomSeed false
RANDOMSEED int 19191
TIMESTAMP bool true
END end 




-->
</svg>
