<?xml version="1.0" standalone="no"?>
<!-- the width and height set the total pixel output of the image in the browser -->
<!-- whatever is within the viewbox will be remapped to show in this size -->
<svg width="1000" height="1000" viewBox="1 0 1000 1000"  version="1.1" xmlns="http://www.w3.org/2000/svg" xmlns:xlink="http://www.w3.org/1999/xlink">
 <desc>ID (and file name) = Fol_2018-05-14.12_51_30.6_5.svg </desc> 
 <text x="560" y="30" font-family="sans-serif" font-size="20">Wall time passed: 15583 msec.</text>
<text x="300" y="60"   font-family="sans-serif" font-size="20" fill="lightblue">S6  lightblue</text>
<text x="300" y="85"   font-family="sans-serif" font-size="20" fill="slategrey">NCDist  slategrey</text>
<text x="300" y="110"  font-family="sans-serif" font-size="20" fill="violet">D7  violet</text>
<text x="300" y="135"  font-family="sans-serif" font-size="20" fill="olive">CS6Dist  olive</text>

 <text x="140"  y="30"  font-family="sans-serif" font-size="20" >Fol_2018-05-14.12_51_30.6_5.svg  </text> 


 <!--DISTANCE PLOT BEGINS-->


<!-- the following will scale and place the distance plot -->
<g  transform="translate(0,50) ">
<g transform="translate(150,700) scale(1 -1)">
   <polyline fill="none" stroke=" lightblue " stroke-width=" 12 " points=" 0.6,24.4922 1.2,25.9093 1.8,27.3308 2.4,28.7567 3,30.1869 3.6,31.6214 4.2,33.0604 4.8,34.5036 5.4,35.9512 6,37.4031 6.6,38.8593 7.2,40.3199 7.8,41.7848 8.4,43.2539 9,44.7274 9.6,46.2052 10.2,47.6873 10.8,49.1737 11.4,50.6643 12,52.1593 12.6,53.6585 13.2,55.1619 13.8,56.6697 14.4,58.1817 15,59.6979 15.6,61.2185 16.2,62.7432 16.8,64.2722 17.4,65.8054 18,67.3429 18.6,68.8846 19.2,70.4304 19.8,71.9806 20.4,73.5349 21,75.0934 21.6,76.6561 22.2,78.223 22.8,79.7941 23.4,81.3694 24,82.9489 24.6,84.5325 25.2,86.1203 25.8,87.7123 26.4,89.3084 27,90.9087 27.6,92.5131 28.2,94.1216 28.8,95.7343 29.4,97.3512 30,98.9721 30.6,100.597 31.2,102.226 31.8,103.86 32.4,105.497 33,107.139 33.6,108.784 34.2,110.434 34.8,112.088 35.4,113.746 36,115.407 36.6,117.073 37.2,118.743 37.8,120.418 38.4,122.096 39,123.778 39.6,125.464 40.2,127.155 40.8,128.849 41.4,130.547 42,132.25 42.6,133.956 43.2,135.666 43.8,137.381 44.4,139.099 45,140.822 45.6,142.548 46.2,144.278 46.8,146.013 47.4,147.751 48,149.493 48.6,151.239 49.2,152.99 49.8,154.744 50.4,156.502 51,158.264 51.6,160.03 52.2,161.8 52.8,163.574 53.4,165.351 54,167.133 54.6,168.919 55.2,170.708 55.8,172.502 56.4,174.299 57,176.1 57.6,177.905 58.2,179.714 58.8,181.527 59.4,183.343 60,185.164 60.6,186.988 61.2,188.817 61.8,190.649 62.4,192.485 63,194.324 63.6,196.168 64.2,198.015 64.8,199.867 65.4,201.722 66,203.58 66.6,205.443 67.2,207.309 67.8,209.18 68.4,210.796 69,210.947 69.6,211.104 70.2,211.265 70.8,211.43 71.4,211.6 72,211.775 72.6,211.955 73.2,212.139 73.8,212.328 74.4,212.521 75,212.72 75.6,212.922 76.2,213.13 76.8,213.342 77.4,213.559 78,213.78 78.6,214.006 79.2,214.237 79.8,214.473 80.4,214.713 81,214.957 81.6,215.207 82.2,215.461 82.8,215.719 83.4,215.983 84,216.251 84.6,216.523 85.2,216.801 85.8,217.082 86.4,217.369 87,217.66 87.6,217.956 88.2,218.256 88.8,218.562 89.4,218.871 90,219.186 90.6,219.505 91.2,219.828 91.8,220.156 92.4,220.489 93,220.827 93.6,221.169 94.2,221.516 94.8,221.867 95.4,222.223 96,222.584 96.6,222.949 97.2,223.319 97.8,223.694 98.4,224.073 99,224.456 99.6,224.845 100.2,225.238 100.8,225.635 101.4,226.038 102,226.444 102.6,226.856 103.2,227.272 103.8,227.692 104.4,228.118 105,228.547 105.6,228.982 106.2,229.421 106.8,229.865 107.4,230.313 108,230.766 108.6,231.223 109.2,231.685 109.8,232.152 110.4,232.623 111,233.099 111.6,233.579 112.2,234.064 112.8,234.554 113.4,235.048 114,235.546 114.6,236.05 115.2,236.558 115.8,237.07 116.4,237.587 117,238.108 117.6,238.635 118.2,239.165 118.8,239.701 119.4,240.24 120,240.785 120.6,241.334 121.2,241.887 121.8,242.445 122.4,243.008 123,243.575 123.6,244.147 124.2,244.723 124.8,245.304 125.4,245.889 126,246.479 126.6,247.074 127.2,247.673 127.8,248.276 128.4,248.884 129,249.497 129.6,250.114 130.2,250.735 130.8,251.362 131.4,251.992 132,252.628 132.6,253.267 133.2,253.911 133.8,254.56 134.4,255.214 135,255.871 135.6,256.534 136.2,257.2 136.8,257.872 137.4,258.547 138,259.228 138.6,259.913 139.2,260.602 139.8,261.296 140.4,261.994 141,262.697 141.6,263.404 142.2,264.116 142.8,264.832 143.4,265.552 144,266.278 144.6,267.007 145.2,267.741 145.8,268.48 146.4,269.223 147,269.97 147.6,270.722 148.2,271.479 148.8,272.24 149.4,273.005 150,273.775 150.6,274.549 151.2,275.328 151.8,276.111 152.4,276.898 153,277.69 153.6,278.487 154.2,279.288 154.8,280.093 155.4,280.903 156,281.717 156.6,282.535 157.2,283.358 157.8,284.186 158.4,285.018 159,285.854 159.6,286.694 160.2,287.539 160.8,288.389 161.4,289.243 162,290.101 162.6,290.964 163.2,291.831 163.8,292.702 164.4,293.578 165,294.458 165.6,295.343 166.2,296.232 166.8,297.125 167.4,298.023 168,298.925 168.6,299.831 169.2,300.742 169.8,301.657 170.4,302.576 171,303.5 171.6,304.428 172.2,305.361 172.8,306.298 173.4,307.239 174,308.185 174.6,309.135 175.2,310.089 175.8,311.047 176.4,312.01 177,312.978 177.6,313.949 178.2,314.925 178.8,315.905 179.4,316.89 180,317.878 180.6,318.872 181.2,319.869 181.8,320.871 182.4,321.877 183,322.887 183.6,323.902 184.2,324.92 184.8,325.944 185.4,326.971 186,328.003 186.6,329.039 187.2,330.079 187.8,331.123 188.4,332.172 189,333.225 189.6,334.283 190.2,335.344 190.8,336.41 191.4,337.48 192,338.554 192.6,339.633 193.2,340.716 193.8,341.803 194.4,342.894 195,343.989 195.6,345.089 196.2,346.193 196.8,347.301 197.4,348.413 198,349.53 198.6,350.651 199.2,351.775 199.8,352.905 200.4,354.038 201,355.175 201.6,356.317 202.2,357.463 202.8,358.613 203.4,359.767 204,360.926 204.6,362.089 205.2,363.255 205.8,364.426 206.4,365.601 207,366.781 207.6,367.964 208.2,369.152 208.8,370.343 209.4,371.539 210,372.739 210.6,373.943 211.2,375.152 211.8,376.364 212.4,377.58 213,378.801 213.6,380.026 214.2,381.255 214.8,382.488 215.4,383.725 216,384.966 216.6,386.211 217.2,387.461 217.8,388.714 218.4,389.972 219,391.233 219.6,392.499 220.2,393.769 220.8,395.043 221.4,396.321 222,397.603 222.6,398.889 223.2,400.179 223.8,401.473 224.4,402.771 225,404.073 225.6,405.38 226.2,406.69 226.8,408.004 227.4,409.323 228,410.645 228.6,411.972 229.2,413.302 229.8,414.637 230.4,415.975 231,417.318 231.6,418.664 232.2,420.015 232.8,421.369 233.4,422.728 234,424.09 234.6,425.457 235.2,426.827 235.8,428.202 236.4,429.58 237,430.963 237.6,432.349 238.2,433.739 238.8,435.134 239.4,436.532 240,437.934 240.6,439.34 241.2,440.75 241.8,442.164 242.4,443.582 243,445.004 243.6,446.43 244.2,447.86 244.8,449.293 245.4,450.731 246,452.172 246.6,453.618 247.2,455.067 247.8,456.52 248.4,457.977 249,459.438 249.6,460.903 250.2,462.371 250.8,463.844 251.4,465.321 252,466.801 252.6,468.285 253.2,469.773 253.8,471.265 254.4,472.761 255,474.26 255.6,475.764 256.2,477.271 256.8,478.782 257.4,480.297 258,481.816 258.6,483.339 259.2,484.865 259.8,486.395 260.4,487.929 261,489.467 261.6,491.009 262.2,492.554 262.8,494.104 263.4,495.657 264,497.213 264.6,498.774 265.2,500.338 265.8,501.907 266.4,503.479 267,505.054 267.6,506.634 268.2,508.217 268.8,509.804 269.4,511.395 270,512.989 270.6,514.587 271.2,516.189 271.8,517.795 272.4,519.404 273,521.018 273.6,522.634 274.2,524.255 274.8,525.879 275.4,527.507 276,529.139 276.6,530.774 277.2,532.413 277.8,534.056 278.4,535.703 279,537.353 279.6,539.007 280.2,540.664 280.8,542.325 281.4,543.99 282,545.659 282.6,547.331 283.2,549.007 283.8,550.686 284.4,552.369 285,554.056 285.6,555.746 286.2,557.44 286.8,559.138 287.4,560.839 288,562.544 288.6,564.252 289.2,565.964 289.8,567.68 290.4,569.399 291,571.122 291.6,572.849 292.2,574.579 292.8,576.312 293.4,578.05 294,579.79 294.6,581.535 295.2,583.283 295.8,585.034 296.4,586.789 297,588.548 297.6,590.31 298.2,592.076 298.8,593.845 299.4,595.618 300,597.394 300.6,597.688 301.2,596.501 301.8,595.319 302.4,594.143 303,592.971 303.6,591.805 304.2,590.644 304.8,589.489 305.4,588.338 306,587.193 306.6,586.053 307.2,584.918 307.8,583.788 308.4,582.663 309,581.544 309.6,580.43 310.2,579.321 310.8,578.218 311.4,577.119 312,576.026 312.6,574.938 313.2,573.856 313.8,572.778 314.4,571.706 315,570.639 315.6,569.578 316.2,568.522 316.8,567.471 317.4,566.425 318,565.384 318.6,564.349 319.2,563.319 319.8,562.295 320.4,561.276 321,560.262 321.6,559.253 322.2,558.25 322.8,557.251 323.4,556.259 324,555.271 324.6,554.289 325.2,553.313 325.8,552.341 326.4,551.375 327,550.414 327.6,549.459 328.2,548.509 328.8,547.564 329.4,546.625 330,545.691 330.6,544.762 331.2,543.839 331.8,542.921 332.4,542.008 333,541.101 333.6,540.199 334.2,539.303 334.8,538.412 335.4,537.526 336,536.646 336.6,535.771 337.2,534.902 337.8,534.038 338.4,533.179 339,532.326 339.6,531.478 340.2,530.636 340.8,529.799 341.4,528.967 342,528.141 342.6,527.32 343.2,526.505 343.8,525.695 344.4,524.891 345,524.092 345.6,523.298 346.2,522.51 346.8,521.727 347.4,520.95 348,520.178 348.6,519.412 349.2,518.651 349.8,517.896 350.4,517.146 351,516.402 351.6,515.663 352.2,514.929 352.8,514.201 353.4,513.479 354,512.761 354.6,511.696 355.2,509.456 355.8,507.219 356.4,504.988 357,502.76 357.6,500.538 358.2,498.319 358.8,496.105 359.4,493.896 360,491.691 360.6,489.49 361.2,487.294 361.8,485.103 362.4,482.916 363,480.734 363.6,478.556 364.2,476.382 364.8,474.214 365.4,472.049 366,469.889 366.6,467.734 367.2,465.584 367.8,463.438 368.4,461.296 369,459.159 369.6,457.027 370.2,454.899 370.8,452.776 371.4,450.658 372,448.544 372.6,446.435 373.2,444.33 373.8,442.23 374.4,440.135 375,438.044 375.6,435.958 376.2,433.877 376.8,424.017 377.4,421.459 378,418.908 378.6,416.364 379.2,413.826 379.8,411.296 380.4,408.772 381,406.256 381.6,403.746 382.2,401.243 382.8,398.747 383.4,396.258 384,393.776 384.6,391.301 385.2,388.833 385.8,386.372 386.4,383.918 387,381.47 387.6,379.03 388.2,376.597 388.8,374.171 389.4,371.752 390,369.34 390.6,366.936 391.2,364.538 391.8,362.147 392.4,359.764 393,357.388 393.6,355.018 394.2,352.656 394.8,350.302 395.4,347.954 396,345.613 396.6,343.28 397.2,340.954 397.8,338.635 398.4,336.324 399,334.02 399.6,331.723 400.2,329.433 400.8,327.15 401.4,324.875 402,322.608 402.6,320.347 403.2,318.094 403.8,315.848 404.4,313.61 405,311.379 405.6,309.155 406.2,306.939 406.8,304.73 407.4,302.529 408,300.335 408.6,298.148 409.2,295.97 409.8,293.798 410.4,291.634 411,289.477 411.6,287.328 412.2,285.187 412.8,283.053 413.4,280.927 414,278.808 414.6,276.697 415.2,274.593 415.8,272.497 416.4,270.408 417,268.328 417.6,266.254 418.2,264.189 418.8,262.131 419.4,260.081 420,258.038 420.6,256.003 421.2,253.976 421.8,251.957 422.4,249.945 423,247.941 423.6,245.945 424.2,243.957 424.8,241.976 425.4,240.003 426,238.038 426.6,236.081 427.2,234.131 427.8,232.19 428.4,230.256 429,228.33 429.6,226.412 430.2,224.502 430.8,222.6 431.4,220.705 432,218.819 432.6,216.94 433.2,215.07 433.8,213.207 434.4,211.352 435,209.505 435.6,207.667 436.2,205.836 436.8,204.013 437.4,202.198 438,200.392 438.6,198.593 439.2,196.802 439.8,195.02 440.4,193.245 441,191.479 441.6,189.721 442.2,187.97 442.8,186.228 443.4,184.494 444,182.768 444.6,181.051 445.2,179.341 445.8,177.64 446.4,175.946 447,174.261 447.6,172.585 448.2,170.916 448.8,169.255 449.4,167.603 450,165.959 450.6,164.324 451.2,162.696 451.8,161.077 452.4,159.466 453,157.863 453.6,156.269 454.2,154.683 454.8,153.105 455.4,151.753 456,150.409 456.6,149.07 457.2,147.739 457.8,146.413 458.4,145.094 459,143.782 459.6,142.476 460.2,141.176 460.8,139.883 461.4,138.596 462,137.316 462.6,136.042 463.2,134.775 463.8,133.514 464.4,132.26 465,131.012 465.6,129.771 466.2,128.536 466.8,127.308 467.4,126.086 468,124.871 468.6,123.662 469.2,122.46 469.8,121.265 470.4,120.076 471,118.894 471.6,117.718 472.2,116.549 472.8,115.386 473.4,114.23 474,113.08 474.6,111.938 475.2,110.801 475.8,109.672 476.4,108.549 477,107.432 477.6,106.323 478.2,105.22 478.8,104.123 479.4,103.033 480,101.95 480.6,100.874 481.2,99.8041 481.8,98.741 482.4,97.6845 483,96.6347 483.6,95.5917 484.2,94.5553 484.8,93.5256 485.4,92.5026 486,91.4864 486.6,90.4768 487.2,89.474 487.8,88.4779 488.4,87.4885 489,86.5059 489.6,85.53 490.2,84.5608 490.8,83.5984 491.4,82.6428 492,81.6939 492.6,80.7518 493.2,79.8165 493.8,78.8879 494.4,77.9662 495,77.0512 495.6,76.143 496.2,75.2416 496.8,74.347 497.4,73.4592 498,72.5782 498.6,71.7041 499.2,70.8367 499.8,69.9762 500.4,69.1225 501,68.2757 501.6,67.4357 502.2,66.6025 502.8,65.7762 503.4,64.9567 504,64.1441 504.6,63.3383 505.2,62.5395 505.8,61.7475 506.4,60.9623 507,60.1841 507.6,59.4127 508.2,58.6482 508.8,57.8906 509.4,57.1399 510,56.3961 510.6,55.6592 511.2,54.9292 511.8,54.2061 512.4,53.4899 513,52.7807 513.6,52.0784 514.2,51.383 514.8,50.6945 515.4,50.013 516,49.3384 516.6,48.6707 517.2,48.01 517.8,47.3563 518.4,46.7095 519,46.0696 519.6,45.4367 520.2,44.8108 520.8,44.1918 521.4,43.5798 522,42.9748 522.6,42.3768 523.2,41.7857 523.8,41.2017 524.4,40.6246 525,40.0545 525.6,39.4914 526.2,38.9353 526.8,38.3861 527.4,37.844 528,37.3089 528.6,36.7808 529.2,36.2598 529.8,35.7457 530.4,35.2386 531,34.7386 531.6,34.2456 532.2,33.7596 532.8,33.2807 533.4,32.8087 534,32.3438 534.6,31.886 535.2,31.4352 535.8,30.9914 536.4,30.5547 537,30.125 537.6,29.7023 538.2,29.2867 538.8,28.8782 539.4,28.4767 540,28.0823 540.6,27.6949 541.2,27.3146 541.8,26.9414 542.4,26.5752 543,26.2161 543.6,25.8641 544.2,25.5191 544.8,25.1813 545.4,24.8505 546,24.5267 546.6,24.2101 547.2,23.9005 547.8,23.598 548.4,23.3026 549,23.0143 549.6,22.7331 550.2,22.4589 550.8,22.1919 551.4,21.9319 552,21.6791 552.6,21.4333 553.2,21.1946 553.8,20.9631 554.4,20.7386 555,20.5212 555.6,20.311 556.2,20.1078 556.8,19.9117 557.4,19.7228 558,19.5409 558.6,19.3662 559.2,19.1986 559.8,19.0381 560.4,18.8847 561,18.7384 561.6,18.5992 562.2,18.4671 562.8,18.3422 563.4,18.2243 564,18.1136 564.6,18.01 565.2,17.9135 565.8,17.8241 566.4,17.7418 567,17.6667 567.6,17.5987 568.2,17.5378 568.8,17.484 569.4,17.4373 570,17.3978 570.6,17.3653 571.2,17.34 571.8,17.3219 572.4,17.3108 573,17.3068 573.6,17.31 574.2,17.3203 574.8,17.3377 575.4,17.3623 576,17.3939 576.6,17.4327 577.2,17.4786 577.8,17.5316 578.4,17.5918 579,17.659 579.6,17.7334 580.2,17.8149 580.8,17.9035 581.4,17.9992 582,18.102 582.6,18.212 583.2,18.3291 583.8,18.4533 584.4,18.5846 585,18.723 585.6,18.8685 586.2,19.0212 586.8,19.1809 587.4,19.3478 588,19.5217 588.6,19.7028 589.2,19.891 589.8,20.0863 590.4,20.2887 591,20.4982 591.6,20.7148 592.2,20.9385 592.8,21.1693 593.4,21.4072 594,21.6522 594.6,21.9043 595.2,22.1635 595.8,22.4297 596.4,22.7031 597,22.9836 597.6,23.2711 598.2,23.5658 598.8,23.8675 599.4,24.1763 600,24.4922 " />
   <polyline fill="none" stroke=" slategrey " stroke-width=" 9 " points=" " />
   <polyline fill="none" stroke=" violet " stroke-width=" 6 " points=" " />
   <polyline fill="none" stroke=" olive " stroke-width=" 3 " points=" 0.6,24.4922 1.2,25.9093 1.8,27.3308 2.4,28.7567 3,30.1869 3.6,31.6214 4.2,33.0604 4.8,34.5036 5.4,35.9512 6,37.4031 6.6,38.8593 7.2,40.3199 7.8,41.7848 8.4,43.2539 9,44.7274 9.6,46.2052 10.2,47.6873 10.8,49.1737 11.4,50.6643 12,52.1593 12.6,53.6585 13.2,55.1619 13.8,56.6697 14.4,58.1817 15,59.6979 15.6,61.2185 16.2,62.7432 16.8,64.2722 17.4,65.8054 18,67.3429 18.6,68.8846 19.2,70.4304 19.8,71.9806 20.4,73.5349 21,75.0934 21.6,76.6561 22.2,78.223 22.8,79.7941 23.4,81.3694 24,82.9489 24.6,84.5325 25.2,86.1203 25.8,87.7123 26.4,89.3084 27,90.9087 27.6,92.5131 28.2,94.1216 28.8,95.7343 29.4,97.3512 30,98.9721 30.6,100.597 31.2,102.226 31.8,103.86 32.4,105.497 33,107.139 33.6,108.784 34.2,110.434 34.8,112.088 35.4,113.746 36,115.407 36.6,117.073 37.2,118.743 37.8,120.418 38.4,122.096 39,123.778 39.6,125.464 40.2,127.155 40.8,128.849 41.4,130.547 42,132.25 42.6,133.956 43.2,135.666 43.8,137.381 44.4,139.099 45,140.822 45.6,142.548 46.2,144.278 46.8,146.013 47.4,147.751 48,149.493 48.6,151.239 49.2,152.99 49.8,154.744 50.4,156.502 51,158.264 51.6,160.03 52.2,161.8 52.8,163.574 53.4,165.351 54,167.133 54.6,168.919 55.2,170.708 55.8,172.502 56.4,174.299 57,176.1 57.6,177.905 58.2,179.714 58.8,181.527 59.4,183.343 60,185.164 60.6,186.988 61.2,188.817 61.8,190.649 62.4,192.485 63,194.324 63.6,196.168 64.2,198.015 64.8,199.867 65.4,201.722 66,203.58 66.6,205.443 67.2,207.309 67.8,209.18 68.4,210.796 69,210.947 69.6,211.104 70.2,211.265 70.8,211.43 71.4,211.6 72,211.775 72.6,211.955 73.2,212.139 73.8,212.328 74.4,212.521 75,212.72 75.6,212.922 76.2,213.13 76.8,213.342 77.4,213.559 78,213.78 78.6,214.006 79.2,214.237 79.8,214.473 80.4,214.713 81,214.957 81.6,215.207 82.2,215.461 82.8,215.719 83.4,215.983 84,216.251 84.6,216.523 85.2,216.801 85.8,217.082 86.4,217.369 87,217.66 87.6,217.956 88.2,218.256 88.8,218.562 89.4,218.871 90,219.186 90.6,219.505 91.2,219.828 91.8,220.156 92.4,220.489 93,220.827 93.6,221.169 94.2,221.516 94.8,221.867 95.4,222.223 96,222.584 96.6,222.949 97.2,223.319 97.8,223.694 98.4,224.073 99,224.456 99.6,224.845 100.2,225.238 100.8,225.635 101.4,226.038 102,226.444 102.6,226.856 103.2,227.272 103.8,227.692 104.4,228.118 105,228.547 105.6,228.982 106.2,229.421 106.8,229.865 107.4,230.313 108,230.766 108.6,231.223 109.2,231.685 109.8,232.152 110.4,232.623 111,233.099 111.6,233.579 112.2,234.064 112.8,234.554 113.4,235.048 114,235.546 114.6,236.05 115.2,236.558 115.8,237.07 116.4,237.587 117,238.108 117.6,238.635 118.2,239.165 118.8,239.701 119.4,240.24 120,240.785 120.6,241.334 121.2,241.887 121.8,242.445 122.4,243.008 123,243.575 123.6,244.147 124.2,244.723 124.8,245.304 125.4,245.889 126,246.479 126.6,247.074 127.2,247.673 127.8,248.276 128.4,248.884 129,249.497 129.6,250.114 130.2,250.735 130.8,251.362 131.4,251.992 132,252.628 132.6,253.267 133.2,253.911 133.8,254.56 134.4,255.214 135,255.871 135.6,256.534 136.2,257.2 136.8,257.872 137.4,258.547 138,259.228 138.6,259.913 139.2,260.602 139.8,261.296 140.4,261.994 141,262.697 141.6,263.404 142.2,264.116 142.8,264.832 143.4,265.552 144,266.278 144.6,267.007 145.2,267.741 145.8,268.48 146.4,269.223 147,269.97 147.6,270.722 148.2,271.479 148.8,272.24 149.4,273.005 150,273.775 150.6,274.549 151.2,275.328 151.8,276.111 152.4,276.898 153,277.69 153.6,278.487 154.2,279.288 154.8,280.093 155.4,280.903 156,281.717 156.6,282.535 157.2,283.358 157.8,284.186 158.4,285.018 159,285.854 159.6,286.694 160.2,287.539 160.8,288.031 161.4,288.346 162,288.661 162.6,288.976 163.2,289.292 163.8,289.607 164.4,289.923 165,290.239 165.6,290.554 166.2,290.87 166.8,291.186 167.4,291.502 168,291.819 168.6,292.135 169.2,292.451 169.8,292.768 170.4,293.085 171,293.401 171.6,293.718 172.2,294.035 172.8,294.352 173.4,294.67 174,294.987 174.6,295.304 175.2,295.622 175.8,295.939 176.4,296.257 177,296.575 177.6,296.893 178.2,297.211 178.8,297.529 179.4,297.847 180,298.165 180.6,298.484 181.2,298.802 181.8,299.121 182.4,299.44 183,299.759 183.6,300.078 184.2,300.397 184.8,300.716 185.4,301.035 186,301.355 186.6,301.674 187.2,301.994 187.8,302.313 188.4,302.633 189,302.953 189.6,303.117 190.2,302.434 190.8,301.752 191.4,301.071 192,300.389 192.6,299.709 193.2,299.029 193.8,298.349 194.4,297.67 195,296.991 195.6,296.313 196.2,295.635 196.8,294.958 197.4,294.281 198,293.605 198.6,292.929 199.2,292.253 199.8,291.578 200.4,290.904 201,290.23 201.6,289.557 202.2,288.884 202.8,288.211 203.4,287.539 204,286.868 204.6,286.196 205.2,285.526 205.8,284.856 206.4,284.186 207,283.517 207.6,282.848 208.2,282.18 208.8,281.512 209.4,280.845 210,280.178 210.6,279.512 211.2,278.846 211.8,278.18 212.4,277.515 213,276.851 213.6,276.187 214.2,275.523 214.8,274.86 215.4,274.198 216,273.536 216.6,272.874 217.2,272.213 217.8,271.552 218.4,270.892 219,270.232 219.6,269.573 220.2,268.914 220.8,268.255 221.4,267.597 222,266.94 222.6,266.283 223.2,265.626 223.8,264.97 224.4,264.315 225,263.66 225.6,263.005 226.2,262.351 226.8,261.697 227.4,261.044 228,260.391 228.6,259.738 229.2,259.086 229.8,258.435 230.4,257.784 231,257.133 231.6,256.483 232.2,255.834 232.8,255.185 233.4,254.536 234,253.888 234.6,253.24 235.2,252.592 235.8,251.946 236.4,251.299 237,250.653 237.6,250.008 238.2,249.363 238.8,248.718 239.4,248.074 240,247.43 240.6,246.787 241.2,246.144 241.8,245.502 242.4,244.86 243,244.218 243.6,243.577 244.2,242.937 244.8,242.297 245.4,241.657 246,241.018 246.6,240.379 247.2,239.741 247.8,239.103 248.4,238.465 249,237.829 249.6,237.192 250.2,236.556 250.8,235.92 251.4,235.285 252,234.65 252.6,234.016 253.2,233.382 253.8,232.749 254.4,232.116 255,231.483 255.6,230.851 256.2,230.22 256.8,229.589 257.4,228.958 258,228.328 258.6,227.698 259.2,227.068 259.8,226.439 260.4,225.811 261,225.183 261.6,224.555 262.2,223.928 262.8,223.301 263.4,222.675 264,222.049 264.6,221.424 265.2,220.799 265.8,220.174 266.4,219.55 267,218.926 267.6,218.303 268.2,217.68 268.8,217.058 269.4,216.436 270,215.814 270.6,215.193 271.2,214.573 271.8,213.952 272.4,213.333 273,212.713 273.6,212.094 274.2,211.476 274.8,210.858 275.4,210.24 276,209.623 276.6,209.006 277.2,208.39 277.8,207.774 278.4,207.159 279,206.544 279.6,205.929 280.2,205.315 280.8,204.701 281.4,204.088 282,203.475 282.6,202.863 283.2,202.251 283.8,201.639 284.4,201.028 285,200.417 285.6,199.807 286.2,199.197 286.8,198.587 287.4,197.978 288,197.37 288.6,196.762 289.2,196.154 289.8,195.546 290.4,194.939 291,194.333 291.6,193.727 292.2,193.121 292.8,192.516 293.4,191.911 294,191.307 294.6,190.703 295.2,190.099 295.8,189.496 296.4,188.894 297,188.291 297.6,187.689 298.2,187.088 298.8,186.487 299.4,185.886 300,185.286 300.6,185.286 301.2,185.886 301.8,186.487 302.4,187.088 303,187.689 303.6,188.291 304.2,188.894 304.8,189.496 305.4,190.099 306,190.703 306.6,191.307 307.2,191.911 307.8,192.516 308.4,193.121 309,193.727 309.6,194.333 310.2,194.939 310.8,195.546 311.4,196.154 312,196.762 312.6,197.37 313.2,197.978 313.8,198.587 314.4,199.197 315,199.807 315.6,200.417 316.2,201.028 316.8,201.639 317.4,202.251 318,202.863 318.6,203.475 319.2,204.088 319.8,204.701 320.4,205.315 321,205.929 321.6,206.544 322.2,207.159 322.8,207.774 323.4,208.39 324,209.006 324.6,209.623 325.2,210.24 325.8,210.858 326.4,211.476 327,212.094 327.6,212.713 328.2,213.333 328.8,213.952 329.4,214.573 330,215.193 330.6,215.814 331.2,216.436 331.8,217.058 332.4,217.68 333,218.303 333.6,218.926 334.2,219.55 334.8,220.174 335.4,220.799 336,221.424 336.6,222.049 337.2,222.675 337.8,223.301 338.4,223.928 339,224.555 339.6,225.183 340.2,225.811 340.8,226.439 341.4,227.068 342,227.698 342.6,228.328 343.2,228.958 343.8,229.589 344.4,230.22 345,230.851 345.6,231.483 346.2,232.116 346.8,232.749 347.4,233.382 348,234.016 348.6,234.65 349.2,235.285 349.8,235.92 350.4,236.556 351,236.154 351.6,234.905 352.2,233.657 352.8,232.411 353.4,231.166 354,229.924 354.6,228.683 355.2,227.443 355.8,226.206 356.4,224.97 357,223.736 357.6,222.504 358.2,221.273 358.8,220.044 359.4,218.816 360,217.591 360.6,216.367 361.2,215.145 361.8,213.924 362.4,212.705 363,211.488 363.6,210.272 364.2,209.058 364.8,207.846 365.4,206.636 366,205.427 366.6,204.22 367.2,203.014 367.8,201.81 368.4,200.608 369,199.407 369.6,198.208 370.2,197.011 370.8,195.815 371.4,194.621 372,193.429 372.6,192.238 373.2,191.049 373.8,189.862 374.4,188.676 375,187.491 375.6,186.309 376.2,185.128 376.8,186.025 377.4,187.207 378,188.391 378.6,189.577 379.2,190.764 379.8,191.953 380.4,193.143 381,194.335 381.6,195.529 382.2,196.724 382.8,197.921 383.4,199.119 384,200.319 384.6,201.521 385.2,202.725 385.8,203.93 386.4,205.137 387,206.345 387.6,207.555 388.2,208.767 388.8,209.981 389.4,211.196 390,212.413 390.6,213.631 391.2,214.851 391.8,216.073 392.4,217.297 393,218.522 393.6,219.749 394.2,220.978 394.8,222.208 395.4,223.44 396,224.674 396.6,225.909 397.2,227.146 397.8,228.385 398.4,229.625 399,230.868 399.6,232.112 400.2,233.357 400.8,234.605 401.4,235.854 402,237.105 402.6,236.982 403.2,236.367 403.8,235.752 404.4,235.138 405,234.524 405.6,233.91 406.2,233.297 406.8,232.684 407.4,232.072 408,231.46 408.6,230.849 409.2,230.238 409.8,229.627 410.4,229.017 411,228.407 411.6,227.798 412.2,227.189 412.8,226.58 413.4,225.972 414,225.364 414.6,224.757 415.2,224.15 415.8,223.543 416.4,222.937 417,222.332 417.6,221.726 418.2,221.122 418.8,220.517 419.4,219.913 420,219.31 420.6,218.706 421.2,218.104 421.8,217.501 422.4,216.899 423,216.298 423.6,215.696 424.2,215.096 424.8,214.495 425.4,213.895 426,213.296 426.6,212.697 427.2,212.098 427.8,211.5 428.4,210.902 429,210.304 429.6,209.707 430.2,209.11 430.8,208.514 431.4,207.918 432,207.323 432.6,206.727 433.2,206.133 433.8,205.538 434.4,204.945 435,204.351 435.6,203.758 436.2,203.165 436.8,202.573 437.4,201.981 438,201.39 438.6,200.798 439.2,200.208 439.8,199.617 440.4,199.028 441,198.438 441.6,197.028 442.2,195.276 442.8,193.533 443.4,191.798 444,190.07 444.6,188.351 445.2,186.641 445.8,184.938 446.4,183.243 447,181.557 447.6,179.879 448.2,178.209 448.8,176.547 449.4,174.893 450,173.248 450.6,171.61 451.2,169.982 451.8,168.361 452.4,166.748 453,165.144 453.6,163.548 454.2,161.961 454.8,160.382 455.4,151.753 456,150.409 456.6,149.07 457.2,147.739 457.8,146.413 458.4,145.094 459,143.782 459.6,142.476 460.2,141.176 460.8,139.883 461.4,138.596 462,137.316 462.6,136.042 463.2,134.775 463.8,133.514 464.4,132.26 465,131.012 465.6,129.771 466.2,128.536 466.8,127.308 467.4,126.086 468,124.871 468.6,123.662 469.2,122.46 469.8,121.265 470.4,120.076 471,118.894 471.6,117.718 472.2,116.549 472.8,115.386 473.4,114.23 474,113.08 474.6,111.938 475.2,110.801 475.8,109.672 476.4,108.549 477,107.432 477.6,106.323 478.2,105.22 478.8,104.123 479.4,103.033 480,101.95 480.6,100.874 481.2,99.8041 481.8,98.741 482.4,97.6845 483,96.6347 483.6,95.5917 484.2,94.5553 484.8,93.5256 485.4,92.5026 486,91.4864 486.6,90.4768 487.2,89.474 487.8,88.4779 488.4,87.4885 489,86.5059 489.6,85.53 490.2,84.5608 490.8,83.5984 491.4,82.6428 492,81.6939 492.6,80.7518 493.2,79.8165 493.8,78.8879 494.4,77.9662 495,77.0512 495.6,76.143 496.2,75.2416 496.8,74.347 497.4,73.4592 498,72.5782 498.6,71.7041 499.2,70.8367 499.8,69.9762 500.4,69.1225 501,68.2757 501.6,67.4357 502.2,66.6025 502.8,65.7762 503.4,64.9567 504,64.1441 504.6,63.3383 505.2,62.5395 505.8,61.7475 506.4,60.9623 507,60.1841 507.6,59.4127 508.2,58.6482 508.8,57.8906 509.4,57.1399 510,56.3961 510.6,55.6592 511.2,54.9292 511.8,54.2061 512.4,53.4899 513,52.7807 513.6,52.0784 514.2,51.383 514.8,50.6945 515.4,50.013 516,49.3384 516.6,48.6707 517.2,48.01 517.8,47.3563 518.4,46.7095 519,46.0696 519.6,45.4367 520.2,44.8108 520.8,44.1918 521.4,43.5798 522,42.9748 522.6,42.3768 523.2,41.7857 523.8,41.2017 524.4,40.6246 525,40.0545 525.6,39.4914 526.2,38.9353 526.8,38.3861 527.4,37.844 528,37.3089 528.6,36.7808 529.2,36.2598 529.8,35.7457 530.4,35.2386 531,34.7386 531.6,34.2456 532.2,33.7596 532.8,33.2807 533.4,32.8087 534,32.3438 534.6,31.886 535.2,31.4352 535.8,30.9914 536.4,30.5547 537,30.125 537.6,29.7023 538.2,29.2867 538.8,28.8782 539.4,28.4767 540,28.0823 540.6,27.6949 541.2,27.3146 541.8,26.9414 542.4,26.5752 543,26.2161 543.6,25.8641 544.2,25.5191 544.8,25.1813 545.4,24.8505 546,24.5267 546.6,24.2101 547.2,23.9005 547.8,23.598 548.4,23.3026 549,23.0143 549.6,22.7331 550.2,22.4589 550.8,22.1919 551.4,21.9319 552,21.6791 552.6,21.4333 553.2,21.1946 553.8,20.9631 554.4,20.7386 555,20.5212 555.6,20.311 556.2,20.1078 556.8,19.9117 557.4,19.7228 558,19.5409 558.6,19.3662 559.2,19.1986 559.8,19.0381 560.4,18.8847 561,18.7384 561.6,18.5992 562.2,18.4671 562.8,18.3422 563.4,18.2243 564,18.1136 564.6,18.01 565.2,17.9135 565.8,17.8241 566.4,17.7418 567,17.6667 567.6,17.5987 568.2,17.5378 568.8,17.484 569.4,17.4373 570,17.3978 570.6,17.3653 571.2,17.34 571.8,17.3219 572.4,17.3108 573,17.3068 573.6,17.31 574.2,17.3203 574.8,17.3377 575.4,17.3623 576,17.3939 576.6,17.4327 577.2,17.4786 577.8,17.5316 578.4,17.5918 579,17.659 579.6,17.7334 580.2,17.8149 580.8,17.9035 581.4,17.9992 582,18.102 582.6,18.212 583.2,18.3291 583.8,18.4533 584.4,18.5846 585,18.723 585.6,18.8685 586.2,19.0212 586.8,19.1809 587.4,19.3478 588,19.5217 588.6,19.7028 589.2,19.891 589.8,20.0863 590.4,20.2887 591,20.4982 591.6,20.7148 592.2,20.9385 592.8,21.1693 593.4,21.4072 594,21.6522 594.6,21.9043 595.2,22.1635 595.8,22.4297 596.4,22.7031 597,22.9836 597.6,23.2711 598.2,23.5658 598.8,23.8675 599.4,24.1763 600,24.4922 " />

<!--Draw the X and Y axes -->
<polyline fill="none" stroke="black" stroke-width="6"  points=" 600,0 0,0 0, 600" />
<polyline fill="none" stroke="black" stroke-width="1"  points=" 0 600  600 600  600 0" />
<!-- -->


<!--Draw labels and tics for X axis -->

<line fill="none" stroke="black"  stroke-width="6"  x1="0.5" y1="0" x2="0.5" y2="-20" />
<text transform="scale(1,-1)" font-family="sans-serif" font-size="30" x="-24.5" y="45" >0</text>
<line fill="none" stroke="black"  stroke-width="6"  x1="120.5" y1="0" x2="120.5" y2="-20" />
<text transform="scale(1,-1)" font-family="sans-serif" font-size="30" x="95.5" y="45" >200</text>
<line fill="none" stroke="black"  stroke-width="6"  x1="240.5" y1="0" x2="240.5" y2="-20" />
<text transform="scale(1,-1)" font-family="sans-serif" font-size="30" x="215.5" y="45" >400</text>
<line fill="none" stroke="black"  stroke-width="6"  x1="360.5" y1="0" x2="360.5" y2="-20" />
<text transform="scale(1,-1)" font-family="sans-serif" font-size="30" x="335.5" y="45" >600</text>
<line fill="none" stroke="black"  stroke-width="6"  x1="480.5" y1="0" x2="480.5" y2="-20" />
<text transform="scale(1,-1)" font-family="sans-serif" font-size="30" x="455.5" y="45" >800</text>
<line fill="none" stroke="black"  stroke-width="6"  x1="600.5" y1="0" x2="600.5" y2="-20" />
<text transform="scale(1,-1)" font-family="sans-serif" font-size="30" x="575.5" y="45" >1000</text>


<!--Draw labels and tics for Y axis -->

<line fill="none" stroke="black" stroke-width="6" x1="0.0" y1="0" x2="-20" y2="0" />
<text transform="scale(1,-1)" text-anchor="end" font-family="sans-serif" font-size="30" x="-25" y="10" >25</text>
<line fill="none" stroke="black" stroke-width="6" x1="0.0" y1="150" x2="-20" y2="150" />
<text transform="scale(1,-1)" text-anchor="end" font-family="sans-serif" font-size="30" x="-25" y="-140" >26</text>
<line fill="none" stroke="black" stroke-width="6" x1="0.0" y1="300" x2="-20" y2="300" />
<text transform="scale(1,-1)" text-anchor="end" font-family="sans-serif" font-size="30" x="-25" y="-290" >27</text>
<line fill="none" stroke="black" stroke-width="6" x1="0.0" y1="450" x2="-20" y2="450" />
<text transform="scale(1,-1)" text-anchor="end" font-family="sans-serif" font-size="30" x="-25" y="-440" >28</text>
<line fill="none" stroke="black" stroke-width="6" x1="0.0" y1="600" x2="-20" y2="600" />
<text transform="scale(1,-1)" text-anchor="end" font-family="sans-serif" font-size="30" x="-25" y="-590" >29</text>

-->
</g>
</g>
<!-- Run Constants
CIRCLEPLOT bool false
DISTANCEPLOT bool true
PRINTDISTANCEDATA bool true
GLITCHESONLY bool false
PLOT 2doubles 3 4
PERTURBBY double 0.05
GLITCHLEVEL double 3
BOUNDARYWINDOW double 0.065
FRAMESPERPATH int 200
STEPSPERFRAME int 1000
TRIALS int 1
ALLBLACK bool true
FILEPREFIX string Fol
GRAPHSIZE int 0
BORDER int 0
PLOTSIZE int 0
G6LINEWIDTH int 3
DELONELINEWIDTH int 10
AXISWIDTH int 6
TICLENGTH int 20
VECTOR g6 
FOLLOWERMODE FollowerMode line
FIXRANDOMSEED fixRandomSeed false
RANDOMSEED int 19191
TIMESTAMP bool true
END end 




-->
</svg>
