<?xml version="1.0" standalone="no"?>
<!-- the width and height set the total pixel output of the image in the browser -->
<!-- whatever is within the viewbox will be remapped to show in this size -->
<svg width="900" height="800" viewBox="1 0 900 800"  version="1.1" xmlns="http://www.w3.org/2000/svg" xmlns:xlink="http://www.w3.org/1999/xlink">
 <desc>ID (and file name) = Fol_2018-05-16.16_29_51.18_17.svg </desc> 
<text x = "-750" y="50" transform="rotate(-90)"  font-family="sans-serif" font-size="40" stroke ="lightgray" fill="none"> PointDistanceFollower   May 16 2018</text>
 <text x="560" y="30" font-family="sans-serif" font-size="20">Wall time passed: 1320 msec.</text>
<text x="300" y="60"   font-family="sans-serif" font-size="20" fill="lightblue">S6  lightblue</text>
<text x="300" y="85"   font-family="sans-serif" font-size="20" fill="slategrey">NCDist  slategrey</text>
<text x="300" y="110"  font-family="sans-serif" font-size="20" fill="violet">D7  violet</text>
<text x="300" y="135"  font-family="sans-serif" font-size="20" fill="olive">CS6Dist  olive</text>

 <text x="140"  y="30"  font-family="sans-serif" font-size="20" >Fol_2018-05-16.16_29_51.18_17.svg  </text> 


 <!--DISTANCE PLOT BEGINS-->


<!-- the following will scale and place the distance plot -->
<g  transform="translate(0, 50) ">
<g transform="translate(150,700) scale(1 -1)">
<line fill="none" stroke="lightblue" stroke-width="12" x1="0" y1="101.785" x2="5.94059" y2="101.785" />
<line fill="none" stroke="lightblue" stroke-width="12" x1="5.94059" y1="101.785" x2="11.8812" y2="97.3439" />
<line fill="none" stroke="lightblue" stroke-width="12" x1="11.8812" y1="97.3439" x2="17.8218" y2="91.1483" />
<line fill="none" stroke="lightblue" stroke-width="12" x1="17.8218" y1="91.1483" x2="23.7624" y2="79.8452" />
<line fill="none" stroke="lightblue" stroke-width="12" x1="23.7624" y1="79.8452" x2="29.703" y2="69.2367" />
<line fill="none" stroke="lightblue" stroke-width="12" x1="29.703" y1="69.2367" x2="35.6436" y2="59.4023" />
<line fill="none" stroke="lightblue" stroke-width="12" x1="35.6436" y1="59.4023" x2="41.5842" y2="50.4273" />
<line fill="none" stroke="lightblue" stroke-width="12" x1="41.5842" y1="50.4273" x2="47.5248" y2="42.4003" />
<line fill="none" stroke="lightblue" stroke-width="12" x1="47.5248" y1="42.4003" x2="53.4653" y2="35.4115" />
<line fill="none" stroke="lightblue" stroke-width="12" x1="53.4653" y1="35.4115" x2="59.4059" y2="29.5486" />
<line fill="none" stroke="lightblue" stroke-width="12" x1="59.4059" y1="29.5486" x2="65.3465" y2="24.8933" />
<line fill="none" stroke="lightblue" stroke-width="12" x1="65.3465" y1="24.8933" x2="71.2871" y2="21.5158" />
<line fill="none" stroke="lightblue" stroke-width="12" x1="71.2871" y1="21.5158" x2="77.2277" y2="19.4706" />
<line fill="none" stroke="lightblue" stroke-width="12" x1="77.2277" y1="19.4706" x2="83.1683" y2="18.7923" />
<line fill="none" stroke="lightblue" stroke-width="12" x1="83.1683" y1="18.7923" x2="89.1089" y2="19.4926" />
<line fill="none" stroke="lightblue" stroke-width="12" x1="89.1089" y1="19.4926" x2="95.0495" y2="21.5593" />
<line fill="none" stroke="lightblue" stroke-width="12" x1="95.0495" y1="21.5593" x2="100.99" y2="24.9576" />
<line fill="none" stroke="lightblue" stroke-width="12" x1="100.99" y1="24.9576" x2="106.931" y2="29.6328" />
<line fill="none" stroke="lightblue" stroke-width="12" x1="106.931" y1="29.6328" x2="112.871" y2="35.5143" />
<line fill="none" stroke="lightblue" stroke-width="12" x1="112.871" y1="35.5143" x2="118.812" y2="42.5204" />
<line fill="none" stroke="lightblue" stroke-width="12" x1="118.812" y1="42.5204" x2="124.752" y2="50.5632" />
<line fill="none" stroke="lightblue" stroke-width="12" x1="124.752" y1="50.5632" x2="130.693" y2="59.5526" />
<line fill="none" stroke="lightblue" stroke-width="12" x1="130.693" y1="59.5526" x2="136.634" y2="69.3999" />
<line fill="none" stroke="lightblue" stroke-width="12" x1="136.634" y1="69.3999" x2="142.574" y2="80.0202" />
<line fill="none" stroke="lightblue" stroke-width="12" x1="142.574" y1="80.0202" x2="148.515" y2="91.3337" />
<line fill="none" stroke="lightblue" stroke-width="12" x1="148.515" y1="91.3337" x2="154.455" y2="103.268" />
<line fill="none" stroke="lightblue" stroke-width="12" x1="154.455" y1="103.268" x2="160.396" y2="115.755" />
<line fill="none" stroke="lightblue" stroke-width="12" x1="160.396" y1="115.755" x2="166.337" y2="126.254" />
<line fill="none" stroke="lightblue" stroke-width="12" x1="166.337" y1="126.254" x2="172.277" y2="135.541" />
<line fill="none" stroke="lightblue" stroke-width="12" x1="172.277" y1="135.541" x2="178.218" y2="145.49" />
<line fill="none" stroke="lightblue" stroke-width="12" x1="178.218" y1="145.49" x2="184.158" y2="156.05" />
<line fill="none" stroke="lightblue" stroke-width="12" x1="184.158" y1="156.05" x2="190.099" y2="167.169" />
<line fill="none" stroke="lightblue" stroke-width="12" x1="190.099" y1="167.169" x2="196.04" y2="178.802" />
<line fill="none" stroke="lightblue" stroke-width="12" x1="196.04" y1="178.802" x2="201.98" y2="190.904" />
<line fill="none" stroke="lightblue" stroke-width="12" x1="201.98" y1="190.904" x2="207.921" y2="203.434" />
<line fill="none" stroke="lightblue" stroke-width="12" x1="207.921" y1="203.434" x2="213.861" y2="216.356" />
<line fill="none" stroke="lightblue" stroke-width="12" x1="213.861" y1="216.356" x2="219.802" y2="229.637" />
<line fill="none" stroke="lightblue" stroke-width="12" x1="219.802" y1="229.637" x2="225.743" y2="243.244" />
<line fill="none" stroke="lightblue" stroke-width="12" x1="225.743" y1="243.244" x2="231.683" y2="257.15" />
<line fill="none" stroke="lightblue" stroke-width="12" x1="231.683" y1="257.15" x2="237.624" y2="272.796" />
<line fill="none" stroke="lightblue" stroke-width="12" x1="237.624" y1="272.796" x2="243.564" y2="279.66" />
<line fill="none" stroke="lightblue" stroke-width="12" x1="243.564" y1="279.66" x2="249.505" y2="287.517" />
<line fill="none" stroke="lightblue" stroke-width="12" x1="249.505" y1="287.517" x2="255.446" y2="296.321" />
<line fill="none" stroke="lightblue" stroke-width="12" x1="255.446" y1="296.321" x2="261.386" y2="306.025" />
<line fill="none" stroke="lightblue" stroke-width="12" x1="261.386" y1="306.025" x2="267.327" y2="316.58" />
<line fill="none" stroke="lightblue" stroke-width="12" x1="267.327" y1="316.58" x2="273.267" y2="327.936" />
<line fill="none" stroke="lightblue" stroke-width="12" x1="273.267" y1="327.936" x2="279.208" y2="338.207" />
<line fill="none" stroke="lightblue" stroke-width="12" x1="279.208" y1="338.207" x2="285.149" y2="345.952" />
<line fill="none" stroke="lightblue" stroke-width="12" x1="285.149" y1="345.952" x2="291.089" y2="354.551" />
<line fill="none" stroke="lightblue" stroke-width="12" x1="291.089" y1="354.551" x2="297.03" y2="362.392" />
<line fill="none" stroke="lightblue" stroke-width="12" x1="297.03" y1="362.392" x2="302.97" y2="353.509" />
<line fill="none" stroke="lightblue" stroke-width="12" x1="302.97" y1="353.509" x2="308.911" y2="374.353" />
<line fill="none" stroke="lightblue" stroke-width="12" x1="308.911" y1="374.353" x2="314.851" y2="398.308" />
<line fill="none" stroke="lightblue" stroke-width="12" x1="314.851" y1="398.308" x2="320.792" y2="425.18" />
<line fill="none" stroke="lightblue" stroke-width="12" x1="320.792" y1="425.18" x2="326.733" y2="426.633" />
<line fill="none" stroke="lightblue" stroke-width="12" x1="326.733" y1="426.633" x2="332.673" y2="441.138" />
<line fill="none" stroke="lightblue" stroke-width="12" x1="332.673" y1="441.138" x2="338.614" y2="462.333" />
<line fill="none" stroke="lightblue" stroke-width="12" x1="338.614" y1="462.333" x2="344.554" y2="486.409" />
<line fill="none" stroke="lightblue" stroke-width="12" x1="344.554" y1="486.409" x2="350.495" y2="511.407" />
<line fill="none" stroke="lightblue" stroke-width="12" x1="350.495" y1="511.407" x2="356.436" y2="518.977" />
<line fill="none" stroke="lightblue" stroke-width="12" x1="356.436" y1="518.977" x2="362.376" y2="571.898" />
<line fill="none" stroke-dasharray = "10, 10"  stroke="orange" stroke-width="6" x1="362.376" y1="300" x2="368.317" y2="300" />
<line fill="none" stroke-dasharray = "10, 10"  stroke="orange" stroke-width="6" x1="368.317" y1="300" x2="374.257" y2="300" />
<line fill="none" stroke-dasharray = "10, 10"  stroke="orange" stroke-width="6" x1="374.257" y1="300" x2="380.198" y2="300" />
<line fill="none" stroke-dasharray = "10, 10"  stroke="orange" stroke-width="6" x1="380.198" y1="300" x2="386.139" y2="300" />
<line fill="none" stroke-dasharray = "10, 10"  stroke="orange" stroke-width="6" x1="386.139" y1="300" x2="392.079" y2="300" />
<line fill="none" stroke-dasharray = "10, 10"  stroke="orange" stroke-width="6" x1="392.079" y1="300" x2="398.02" y2="300" />
<line fill="none" stroke-dasharray = "10, 10"  stroke="orange" stroke-width="6" x1="398.02" y1="300" x2="403.96" y2="300" />
<line fill="none" stroke-dasharray = "10, 10"  stroke="orange" stroke-width="6" x1="403.96" y1="300" x2="409.901" y2="300" />
<line fill="none" stroke-dasharray = "10, 10"  stroke="orange" stroke-width="6" x1="409.901" y1="300" x2="415.842" y2="300" />
<line fill="none" stroke-dasharray = "10, 10"  stroke="orange" stroke-width="6" x1="415.842" y1="300" x2="421.782" y2="300" />
<line fill="none" stroke-dasharray = "10, 10"  stroke="orange" stroke-width="6" x1="421.782" y1="300" x2="427.723" y2="300" />
<line fill="none" stroke-dasharray = "10, 10"  stroke="orange" stroke-width="6" x1="427.723" y1="300" x2="433.663" y2="300" />
<line fill="none" stroke-dasharray = "10, 10"  stroke="orange" stroke-width="6" x1="433.663" y1="300" x2="439.604" y2="300" />
<line fill="none" stroke-dasharray = "10, 10"  stroke="orange" stroke-width="6" x1="439.604" y1="300" x2="445.545" y2="300" />
<line fill="none" stroke-dasharray = "10, 10"  stroke="orange" stroke-width="6" x1="445.545" y1="300" x2="451.485" y2="300" />
<line fill="none" stroke-dasharray = "10, 10"  stroke="orange" stroke-width="6" x1="451.485" y1="300" x2="457.426" y2="300" />
<line fill="none" stroke-dasharray = "10, 10"  stroke="orange" stroke-width="6" x1="457.426" y1="300" x2="463.366" y2="300" />
<line fill="none" stroke-dasharray = "10, 10"  stroke="orange" stroke-width="6" x1="463.366" y1="300" x2="469.307" y2="300" />
<line fill="none" stroke-dasharray = "10, 10"  stroke="orange" stroke-width="6" x1="469.307" y1="300" x2="475.248" y2="300" />
<line fill="none" stroke-dasharray = "10, 10"  stroke="orange" stroke-width="6" x1="475.248" y1="300" x2="481.188" y2="300" />
<line fill="none" stroke-dasharray = "10, 10"  stroke="orange" stroke-width="6" x1="481.188" y1="300" x2="487.129" y2="300" />
<line fill="none" stroke-dasharray = "10, 10"  stroke="orange" stroke-width="6" x1="487.129" y1="300" x2="493.069" y2="300" />
<line fill="none" stroke-dasharray = "10, 10"  stroke="orange" stroke-width="6" x1="493.069" y1="300" x2="499.01" y2="300" />
<line fill="none" stroke-dasharray = "10, 10"  stroke="orange" stroke-width="6" x1="499.01" y1="300" x2="504.95" y2="300" />
<line fill="none" stroke-dasharray = "10, 10"  stroke="orange" stroke-width="6" x1="504.95" y1="300" x2="510.891" y2="300" />
<line fill="none" stroke-dasharray = "10, 10"  stroke="orange" stroke-width="6" x1="510.891" y1="300" x2="516.832" y2="300" />
<line fill="none" stroke-dasharray = "10, 10"  stroke="orange" stroke-width="6" x1="516.832" y1="300" x2="522.772" y2="300" />
<line fill="none" stroke-dasharray = "10, 10"  stroke="orange" stroke-width="6" x1="522.772" y1="300" x2="528.713" y2="300" />
<line fill="none" stroke-dasharray = "10, 10"  stroke="orange" stroke-width="6" x1="528.713" y1="300" x2="534.653" y2="300" />
<line fill="none" stroke-dasharray = "10, 10"  stroke="orange" stroke-width="6" x1="534.653" y1="300" x2="540.594" y2="300" />
<line fill="none" stroke-dasharray = "10, 10"  stroke="orange" stroke-width="6" x1="540.594" y1="300" x2="546.535" y2="300" />
<line fill="none" stroke-dasharray = "10, 10"  stroke="orange" stroke-width="6" x1="546.535" y1="300" x2="552.475" y2="300" />
<line fill="none" stroke-dasharray = "10, 10"  stroke="orange" stroke-width="6" x1="552.475" y1="300" x2="558.416" y2="300" />
<line fill="none" stroke-dasharray = "10, 10"  stroke="orange" stroke-width="6" x1="558.416" y1="300" x2="564.356" y2="300" />
<line fill="none" stroke-dasharray = "10, 10"  stroke="orange" stroke-width="6" x1="564.356" y1="300" x2="570.297" y2="300" />
<line fill="none" stroke-dasharray = "10, 10"  stroke="orange" stroke-width="6" x1="570.297" y1="300" x2="576.238" y2="300" />
<line fill="none" stroke-dasharray = "10, 10"  stroke="orange" stroke-width="6" x1="576.238" y1="300" x2="582.178" y2="300" />
<line fill="none" stroke-dasharray = "10, 10"  stroke="orange" stroke-width="6" x1="582.178" y1="300" x2="588.119" y2="300" />
<line fill="none" stroke-dasharray = "10, 10"  stroke="orange" stroke-width="6" x1="588.119" y1="300" x2="594.059" y2="300" />
<line fill="none" stroke="olive" stroke-width="3" x1="0" y1="181.056" x2="5.94059" y2="181.056" />
<line fill="none" stroke="olive" stroke-width="3" x1="5.94059" y1="181.056" x2="11.8812" y2="182.884" />
<line fill="none" stroke="olive" stroke-width="3" x1="11.8812" y1="182.884" x2="17.8218" y2="91.1483" />
<line fill="none" stroke="olive" stroke-width="3" x1="17.8218" y1="91.1483" x2="23.7624" y2="79.8452" />
<line fill="none" stroke="olive" stroke-width="3" x1="23.7624" y1="79.8452" x2="29.703" y2="69.2367" />
<line fill="none" stroke="olive" stroke-width="3" x1="29.703" y1="69.2367" x2="35.6436" y2="59.4023" />
<line fill="none" stroke="olive" stroke-width="3" x1="35.6436" y1="59.4023" x2="41.5842" y2="50.4273" />
<line fill="none" stroke="olive" stroke-width="3" x1="41.5842" y1="50.4273" x2="47.5248" y2="42.4003" />
<line fill="none" stroke="olive" stroke-width="3" x1="47.5248" y1="42.4003" x2="53.4653" y2="35.4115" />
<line fill="none" stroke="olive" stroke-width="3" x1="53.4653" y1="35.4115" x2="59.4059" y2="29.5486" />
<line fill="none" stroke="olive" stroke-width="3" x1="59.4059" y1="29.5486" x2="65.3465" y2="24.8933" />
<line fill="none" stroke="olive" stroke-width="3" x1="65.3465" y1="24.8933" x2="71.2871" y2="21.5158" />
<line fill="none" stroke="olive" stroke-width="3" x1="71.2871" y1="21.5158" x2="77.2277" y2="19.4706" />
<line fill="none" stroke="olive" stroke-width="3" x1="77.2277" y1="19.4706" x2="83.1683" y2="18.7923" />
<line fill="none" stroke="olive" stroke-width="3" x1="83.1683" y1="18.7923" x2="89.1089" y2="19.4926" />
<line fill="none" stroke="olive" stroke-width="3" x1="89.1089" y1="19.4926" x2="95.0495" y2="21.5593" />
<line fill="none" stroke="olive" stroke-width="3" x1="95.0495" y1="21.5593" x2="100.99" y2="24.9576" />
<line fill="none" stroke="olive" stroke-width="3" x1="100.99" y1="24.9576" x2="106.931" y2="29.6328" />
<line fill="none" stroke="olive" stroke-width="3" x1="106.931" y1="29.6328" x2="112.871" y2="35.5143" />
<line fill="none" stroke="olive" stroke-width="3" x1="112.871" y1="35.5143" x2="118.812" y2="42.5204" />
<line fill="none" stroke="olive" stroke-width="3" x1="118.812" y1="42.5204" x2="124.752" y2="50.5632" />
<line fill="none" stroke="olive" stroke-width="3" x1="124.752" y1="50.5632" x2="130.693" y2="59.5526" />
<line fill="none" stroke="olive" stroke-width="3" x1="130.693" y1="59.5526" x2="136.634" y2="69.3999" />
<line fill="none" stroke="olive" stroke-width="3" x1="136.634" y1="69.3999" x2="142.574" y2="80.0202" />
<line fill="none" stroke="olive" stroke-width="3" x1="142.574" y1="80.0202" x2="148.515" y2="91.3337" />
<line fill="none" stroke="olive" stroke-width="3" x1="148.515" y1="91.3337" x2="154.455" y2="103.268" />
<line fill="none" stroke="olive" stroke-width="3" x1="154.455" y1="103.268" x2="160.396" y2="115.755" />
<line fill="none" stroke="olive" stroke-width="3" x1="160.396" y1="115.755" x2="166.337" y2="126.254" />
<line fill="none" stroke="olive" stroke-width="3" x1="166.337" y1="126.254" x2="172.277" y2="135.541" />
<line fill="none" stroke="olive" stroke-width="3" x1="172.277" y1="135.541" x2="178.218" y2="145.49" />
<line fill="none" stroke="olive" stroke-width="3" x1="178.218" y1="145.49" x2="184.158" y2="156.05" />
<line fill="none" stroke="olive" stroke-width="3" x1="184.158" y1="156.05" x2="190.099" y2="167.169" />
<line fill="none" stroke="olive" stroke-width="3" x1="190.099" y1="167.169" x2="196.04" y2="178.802" />
<line fill="none" stroke="olive" stroke-width="3" x1="196.04" y1="178.802" x2="201.98" y2="190.904" />
<line fill="none" stroke="olive" stroke-width="3" x1="201.98" y1="190.904" x2="207.921" y2="203.434" />
<line fill="none" stroke="olive" stroke-width="3" x1="207.921" y1="203.434" x2="213.861" y2="216.356" />
<line fill="none" stroke="olive" stroke-width="3" x1="213.861" y1="216.356" x2="219.802" y2="229.637" />
<line fill="none" stroke="olive" stroke-width="3" x1="219.802" y1="229.637" x2="225.743" y2="243.244" />
<line fill="none" stroke="olive" stroke-width="3" x1="225.743" y1="243.244" x2="231.683" y2="257.15" />
<line fill="none" stroke="olive" stroke-width="3" x1="231.683" y1="257.15" x2="237.624" y2="272.796" />
<line fill="none" stroke="olive" stroke-width="3" x1="237.624" y1="272.796" x2="243.564" y2="279.66" />
<line fill="none" stroke="olive" stroke-width="3" x1="243.564" y1="279.66" x2="249.505" y2="287.517" />
<line fill="none" stroke="olive" stroke-width="3" x1="249.505" y1="287.517" x2="255.446" y2="296.321" />
<line fill="none" stroke="olive" stroke-width="3" x1="255.446" y1="296.321" x2="261.386" y2="306.025" />
<line fill="none" stroke="olive" stroke-width="3" x1="261.386" y1="306.025" x2="267.327" y2="316.58" />
<line fill="none" stroke="olive" stroke-width="3" x1="267.327" y1="316.58" x2="273.267" y2="327.936" />
<line fill="none" stroke="olive" stroke-width="3" x1="273.267" y1="327.936" x2="279.208" y2="338.207" />
<line fill="none" stroke="olive" stroke-width="3" x1="279.208" y1="338.207" x2="285.149" y2="345.952" />
<line fill="none" stroke="olive" stroke-width="3" x1="285.149" y1="345.952" x2="291.089" y2="354.551" />
<line fill="none" stroke="olive" stroke-width="3" x1="291.089" y1="354.551" x2="297.03" y2="363.966" />
<line fill="none" stroke="olive" stroke-width="3" x1="297.03" y1="363.966" x2="302.97" y2="353.509" />
<line fill="none" stroke="olive" stroke-width="3" x1="302.97" y1="353.509" x2="308.911" y2="374.353" />
<line fill="none" stroke="olive" stroke-width="3" x1="308.911" y1="374.353" x2="314.851" y2="368.524" />
<line fill="none" stroke="olive" stroke-width="3" x1="314.851" y1="368.524" x2="320.792" y2="346.667" />
<line fill="none" stroke="olive" stroke-width="3" x1="320.792" y1="346.667" x2="326.733" y2="318.298" />
<line fill="none" stroke="olive" stroke-width="3" x1="326.733" y1="318.298" x2="332.673" y2="279.64" />
<line fill="none" stroke="olive" stroke-width="3" x1="332.673" y1="279.64" x2="338.614" y2="241.964" />
<line fill="none" stroke="olive" stroke-width="3" x1="338.614" y1="241.964" x2="344.554" y2="210.401" />
<line fill="none" stroke="olive" stroke-width="3" x1="344.554" y1="210.401" x2="350.495" y2="187.845" />
<line fill="none" stroke="olive" stroke-width="3" x1="350.495" y1="187.845" x2="356.436" y2="157.516" />
<line fill="none" stroke="olive" stroke-width="3" x1="356.436" y1="157.516" x2="362.376" y2="146.313" />
<line fill="none" stroke-dasharray = "10, 10"  stroke="orange" stroke-width="6" x1="362.376" y1="300" x2="368.317" y2="300" />
<line fill="none" stroke-dasharray = "10, 10"  stroke="orange" stroke-width="6" x1="368.317" y1="300" x2="374.257" y2="300" />
<line fill="none" stroke-dasharray = "10, 10"  stroke="orange" stroke-width="6" x1="374.257" y1="300" x2="380.198" y2="300" />
<line fill="none" stroke-dasharray = "10, 10"  stroke="orange" stroke-width="6" x1="380.198" y1="300" x2="386.139" y2="300" />
<line fill="none" stroke-dasharray = "10, 10"  stroke="orange" stroke-width="6" x1="386.139" y1="300" x2="392.079" y2="300" />
<line fill="none" stroke-dasharray = "10, 10"  stroke="orange" stroke-width="6" x1="392.079" y1="300" x2="398.02" y2="300" />
<line fill="none" stroke-dasharray = "10, 10"  stroke="orange" stroke-width="6" x1="398.02" y1="300" x2="403.96" y2="300" />
<line fill="none" stroke-dasharray = "10, 10"  stroke="orange" stroke-width="6" x1="403.96" y1="300" x2="409.901" y2="300" />
<line fill="none" stroke-dasharray = "10, 10"  stroke="orange" stroke-width="6" x1="409.901" y1="300" x2="415.842" y2="300" />
<line fill="none" stroke-dasharray = "10, 10"  stroke="orange" stroke-width="6" x1="415.842" y1="300" x2="421.782" y2="300" />
<line fill="none" stroke-dasharray = "10, 10"  stroke="orange" stroke-width="6" x1="421.782" y1="300" x2="427.723" y2="300" />
<line fill="none" stroke-dasharray = "10, 10"  stroke="orange" stroke-width="6" x1="427.723" y1="300" x2="433.663" y2="300" />
<line fill="none" stroke-dasharray = "10, 10"  stroke="orange" stroke-width="6" x1="433.663" y1="300" x2="439.604" y2="300" />
<line fill="none" stroke-dasharray = "10, 10"  stroke="orange" stroke-width="6" x1="439.604" y1="300" x2="445.545" y2="300" />
<line fill="none" stroke-dasharray = "10, 10"  stroke="orange" stroke-width="6" x1="445.545" y1="300" x2="451.485" y2="300" />
<line fill="none" stroke-dasharray = "10, 10"  stroke="orange" stroke-width="6" x1="451.485" y1="300" x2="457.426" y2="300" />
<line fill="none" stroke-dasharray = "10, 10"  stroke="orange" stroke-width="6" x1="457.426" y1="300" x2="463.366" y2="300" />
<line fill="none" stroke-dasharray = "10, 10"  stroke="orange" stroke-width="6" x1="463.366" y1="300" x2="469.307" y2="300" />
<line fill="none" stroke-dasharray = "10, 10"  stroke="orange" stroke-width="6" x1="469.307" y1="300" x2="475.248" y2="300" />
<line fill="none" stroke-dasharray = "10, 10"  stroke="orange" stroke-width="6" x1="475.248" y1="300" x2="481.188" y2="300" />
<line fill="none" stroke-dasharray = "10, 10"  stroke="orange" stroke-width="6" x1="481.188" y1="300" x2="487.129" y2="300" />
<line fill="none" stroke-dasharray = "10, 10"  stroke="orange" stroke-width="6" x1="487.129" y1="300" x2="493.069" y2="300" />
<line fill="none" stroke-dasharray = "10, 10"  stroke="orange" stroke-width="6" x1="493.069" y1="300" x2="499.01" y2="300" />
<line fill="none" stroke-dasharray = "10, 10"  stroke="orange" stroke-width="6" x1="499.01" y1="300" x2="504.95" y2="300" />
<line fill="none" stroke-dasharray = "10, 10"  stroke="orange" stroke-width="6" x1="504.95" y1="300" x2="510.891" y2="300" />
<line fill="none" stroke-dasharray = "10, 10"  stroke="orange" stroke-width="6" x1="510.891" y1="300" x2="516.832" y2="300" />
<line fill="none" stroke-dasharray = "10, 10"  stroke="orange" stroke-width="6" x1="516.832" y1="300" x2="522.772" y2="300" />
<line fill="none" stroke-dasharray = "10, 10"  stroke="orange" stroke-width="6" x1="522.772" y1="300" x2="528.713" y2="300" />
<line fill="none" stroke-dasharray = "10, 10"  stroke="orange" stroke-width="6" x1="528.713" y1="300" x2="534.653" y2="300" />
<line fill="none" stroke-dasharray = "10, 10"  stroke="orange" stroke-width="6" x1="534.653" y1="300" x2="540.594" y2="300" />
<line fill="none" stroke-dasharray = "10, 10"  stroke="orange" stroke-width="6" x1="540.594" y1="300" x2="546.535" y2="300" />
<line fill="none" stroke-dasharray = "10, 10"  stroke="orange" stroke-width="6" x1="546.535" y1="300" x2="552.475" y2="300" />
<line fill="none" stroke-dasharray = "10, 10"  stroke="orange" stroke-width="6" x1="552.475" y1="300" x2="558.416" y2="300" />
<line fill="none" stroke-dasharray = "10, 10"  stroke="orange" stroke-width="6" x1="558.416" y1="300" x2="564.356" y2="300" />
<line fill="none" stroke-dasharray = "10, 10"  stroke="orange" stroke-width="6" x1="564.356" y1="300" x2="570.297" y2="300" />
<line fill="none" stroke-dasharray = "10, 10"  stroke="orange" stroke-width="6" x1="570.297" y1="300" x2="576.238" y2="300" />
<line fill="none" stroke-dasharray = "10, 10"  stroke="orange" stroke-width="6" x1="576.238" y1="300" x2="582.178" y2="300" />
<line fill="none" stroke-dasharray = "10, 10"  stroke="orange" stroke-width="6" x1="582.178" y1="300" x2="588.119" y2="300" />
<line fill="none" stroke-dasharray = "10, 10"  stroke="orange" stroke-width="6" x1="588.119" y1="300" x2="594.059" y2="300" />

<!--Draw Glitches -->

<line fill="none" stroke="black" stroke-width="4" x1="368.317" y1="-255.455" x2="368.317" y2="-305.455"  stroke-dasharray = "10,5" />
<text transform="scale(1,-1)" font-family="sans-serif" font-size="30" stroke = "rgb(0,0,0)" line = "rgb(0,0,0)"  fill = "lightblue" x="373.317" y="305.455" >61</text>

<!-- -->


<!--Draw Glitches -->

<line fill="none" stroke="black" stroke-width="4" x1="356.436" y1="147.516" x2="356.436" y2="97.5165"  stroke-dasharray = "10,5" />
<text transform="scale(1,-1)" font-family="sans-serif" font-size="30" stroke = "rgb(0,0,0)" line = "rgb(0,0,0)"  fill = "olive" x="361.436" y="-97.5165" >59</text>
<line fill="none" stroke="black" stroke-width="4" x1="368.317" y1="-255.455" x2="368.317" y2="-305.455"  stroke-dasharray = "10,5" />
<text transform="scale(1,-1)" font-family="sans-serif" font-size="30" stroke = "rgb(0,0,0)" line = "rgb(0,0,0)"  fill = "olive" x="373.317" y="305.455" >61</text>

<!-- -->


<!--Draw the X and Y axes -->
<polyline fill="none" stroke="black" stroke-width="6"  points=" 600,0 0,0 0, 600" />
<polyline fill="none" stroke="black" stroke-width="1"  points=" 0 600  600 600  600 0" />
<!-- -->


<!--Draw labels and tics for X axis -->

<line fill="none" stroke="black"  stroke-width="6"  x1="0.5" y1="0" x2="0.5" y2="-20" />
<text transform="scale(1,-1)" font-family="sans-serif" font-size="30" x="-24.5" y="45" >0</text>
<line fill="none" stroke="black"  stroke-width="6"  x1="119.312" y1="0" x2="119.312" y2="-20" />
<text transform="scale(1,-1)" font-family="sans-serif" font-size="30" x="94.3119" y="45" >20</text>
<line fill="none" stroke="black"  stroke-width="6"  x1="238.124" y1="0" x2="238.124" y2="-20" />
<text transform="scale(1,-1)" font-family="sans-serif" font-size="30" x="213.124" y="45" >40</text>
<line fill="none" stroke="black"  stroke-width="6"  x1="356.936" y1="0" x2="356.936" y2="-20" />
<text transform="scale(1,-1)" font-family="sans-serif" font-size="30" x="331.936" y="45" >60</text>
<line fill="none" stroke="black"  stroke-width="6"  x1="475.748" y1="0" x2="475.748" y2="-20" />
<text transform="scale(1,-1)" font-family="sans-serif" font-size="30" x="450.748" y="45" >80</text>
<line fill="none" stroke="black"  stroke-width="6"  x1="594.559" y1="0" x2="594.559" y2="-20" />
<text transform="scale(1,-1)" font-family="sans-serif" font-size="30" x="569.559" y="45" >100</text>


<!--Draw labels and tics for Y axis -->

<line fill="none" stroke="black" stroke-width="6" x1="0.0" y1="0" x2="-20" y2="0" />
<text transform="scale(1,-1)" text-anchor="end" font-family="sans-serif" font-size="30" x="-25" y="10" >8</text>
<line fill="none" stroke="black" stroke-width="6" x1="0.0" y1="54.5455" x2="-20" y2="54.5455" />
<text transform="scale(1,-1)" text-anchor="end" font-family="sans-serif" font-size="30" x="-25" y="-44.5455" >10</text>
<line fill="none" stroke="black" stroke-width="6" x1="0.0" y1="109.091" x2="-20" y2="109.091" />
<text transform="scale(1,-1)" text-anchor="end" font-family="sans-serif" font-size="30" x="-25" y="-99.0909" >12</text>
<line fill="none" stroke="black" stroke-width="6" x1="0.0" y1="163.636" x2="-20" y2="163.636" />
<text transform="scale(1,-1)" text-anchor="end" font-family="sans-serif" font-size="30" x="-25" y="-153.636" >14</text>
<line fill="none" stroke="black" stroke-width="6" x1="0.0" y1="218.182" x2="-20" y2="218.182" />
<text transform="scale(1,-1)" text-anchor="end" font-family="sans-serif" font-size="30" x="-25" y="-208.182" >16</text>
<line fill="none" stroke="black" stroke-width="6" x1="0.0" y1="272.727" x2="-20" y2="272.727" />
<text transform="scale(1,-1)" text-anchor="end" font-family="sans-serif" font-size="30" x="-25" y="-262.727" >18</text>
<line fill="none" stroke="black" stroke-width="6" x1="0.0" y1="327.273" x2="-20" y2="327.273" />
<text transform="scale(1,-1)" text-anchor="end" font-family="sans-serif" font-size="30" x="-25" y="-317.273" >20</text>
<line fill="none" stroke="black" stroke-width="6" x1="0.0" y1="381.818" x2="-20" y2="381.818" />
<text transform="scale(1,-1)" text-anchor="end" font-family="sans-serif" font-size="30" x="-25" y="-371.818" >22</text>
<line fill="none" stroke="black" stroke-width="6" x1="0.0" y1="436.364" x2="-20" y2="436.364" />
<text transform="scale(1,-1)" text-anchor="end" font-family="sans-serif" font-size="30" x="-25" y="-426.364" >24</text>
<line fill="none" stroke="black" stroke-width="6" x1="0.0" y1="490.909" x2="-20" y2="490.909" />
<text transform="scale(1,-1)" text-anchor="end" font-family="sans-serif" font-size="30" x="-25" y="-480.909" >26</text>
<line fill="none" stroke="black" stroke-width="6" x1="0.0" y1="545.455" x2="-20" y2="545.455" />
<text transform="scale(1,-1)" text-anchor="end" font-family="sans-serif" font-size="30" x="-25" y="-535.455" >28</text>
<line fill="none" stroke="black" stroke-width="6" x1="0.0" y1="600" x2="-20" y2="600" />
<text transform="scale(1,-1)" text-anchor="end" font-family="sans-serif" font-size="30" x="-25" y="-590" >30</text>

-->
</g>
</g>
<!-- Run Constants
PRINTDISTANCEDATA bool true
GLITCHESONLY bool true
PLOT 2doubles 3 4
PERTURBBY double 0.05
GLITCHLEVEL double 3
BOUNDARYWINDOW double 0.065
FRAMESPERPATH int 200
STEPSPERFRAME int 100
TRIALS int 1
ALLBLACK bool true
FILEPREFIX string Fol
GRAPHSIZE int 0
BORDER int 0
PLOTSIZE int 0
G6LINEWIDTH int 3
DELONELINEWIDTH int 10
AXISWIDTH int 6
TICLENGTH int 20
VECTOR g6 
FOLLOWERMODE FollowerMode line
FIXRANDOMSEED fixRandomSeed false
RANDOMSEED int 19191
TIMESTAMP bool true
END end 




-->
</svg>
