<?xml version="1.0" standalone="no"?>
<!-- the width and height set the total pixel output of the image in the browser -->
<!-- whatever is within the viewbox will be remapped to show in this size -->
<svg width="1000" height="1000" viewBox="1 0 1000 1000"  version="1.1" xmlns="http://www.w3.org/2000/svg" xmlns:xlink="http://www.w3.org/1999/xlink">
 <desc>ID (and file name) = Fol_2018-05-14.12_53_09.12_11.svg </desc> 
 <text x="560" y="30" font-family="sans-serif" font-size="20">Wall time passed: 17330 msec.</text>
<text x="300" y="60"   font-family="sans-serif" font-size="20" fill="lightblue">S6  lightblue</text>
<text x="300" y="85"   font-family="sans-serif" font-size="20" fill="slategrey">NCDist  slategrey</text>
<text x="300" y="110"  font-family="sans-serif" font-size="20" fill="violet">D7  violet</text>
<text x="300" y="135"  font-family="sans-serif" font-size="20" fill="olive">CS6Dist  olive</text>

 <text x="140"  y="30"  font-family="sans-serif" font-size="20" >Fol_2018-05-14.12_53_09.12_11.svg  </text> 


 <!--DISTANCE PLOT BEGINS-->


<!-- the following will scale and place the distance plot -->
<g  transform="translate(0,50) ">
<g transform="translate(150,700) scale(1 -1)">
   <polyline fill="none" stroke=" lightblue " stroke-width=" 12 " points=" 0.6,189.623 1.2,188.391 1.8,187.163 2.4,185.94 3,184.72 3.6,183.504 4.2,182.292 4.8,181.084 5.4,179.88 6,178.68 6.6,177.483 7.2,176.291 7.8,175.103 8.4,173.919 9,172.739 9.6,171.563 10.2,170.391 10.8,169.223 11.4,168.059 12,166.9 12.6,165.744 13.2,164.592 13.8,163.445 14.4,162.302 15,161.162 15.6,160.027 16.2,158.897 16.8,157.77 17.4,156.647 18,155.529 18.6,154.415 19.2,153.305 19.8,152.199 20.4,151.098 21,150.001 21.6,148.908 22.2,147.819 22.8,146.735 23.4,145.655 24,144.579 24.6,143.508 25.2,142.441 25.8,141.378 26.4,140.319 27,139.265 27.6,138.216 28.2,137.17 28.8,136.129 29.4,135.093 30,134.061 30.6,133.033 31.2,132.01 31.8,130.991 32.4,129.977 33,128.967 33.6,127.961 34.2,126.796 34.8,125.184 35.4,123.575 36,121.97 36.6,120.367 37.2,118.768 37.8,117.173 38.4,115.58 39,113.991 39.6,112.405 40.2,110.823 40.8,109.244 41.4,107.668 42,106.095 42.6,104.526 43.2,102.961 43.8,101.398 44.4,99.8397 45,98.2843 45.6,96.7323 46.2,95.1839 46.8,93.6389 47.4,92.0974 48,90.5594 48.6,89.0249 49.2,87.4939 49.8,85.9665 50.4,84.4426 51,82.9223 51.6,81.4056 52.2,79.8925 52.8,78.3829 53.4,76.877 54,75.3748 54.6,73.8761 55.2,72.3812 55.8,70.8899 56.4,69.4023 57,67.9184 57.6,66.4383 58.2,64.9618 58.8,63.4892 59.4,62.0202 60,60.5551 60.6,59.0937 61.2,57.6361 61.8,56.7161 62.4,56.0787 63,55.4454 63.6,54.8161 64.2,54.1909 64.8,53.5697 65.4,52.9525 66,52.3395 66.6,51.7305 67.2,51.1256 67.8,50.5247 68.4,49.928 69,49.3353 69.6,48.7468 70.2,48.1624 70.8,47.5821 71.4,47.0059 72,46.4338 72.6,45.8659 73.2,45.3021 73.8,44.7425 74.4,44.187 75,43.6357 75.6,43.0885 76.2,42.5455 76.8,42.0067 77.4,41.4721 78,40.9416 78.6,40.4154 79.2,39.8933 79.8,39.3755 80.4,38.8618 81,38.3524 81.6,37.8472 82.2,37.3462 82.8,36.8495 83.4,36.3569 84,35.8687 84.6,35.3847 85.2,34.9049 85.8,34.4294 86.4,33.9582 87,33.4912 87.6,33.0285 88.2,32.5701 88.8,32.1159 89.4,31.6661 90,31.2206 90.6,30.7793 91.2,30.3424 91.8,29.9097 92.4,29.4814 93,29.0574 93.6,28.6377 94.2,28.2224 94.8,27.8114 95.4,27.4047 96,27.0024 96.6,26.6044 97.2,26.2107 97.8,25.8215 98.4,25.4366 99,25.056 99.6,24.6798 100.2,24.308 100.8,23.9406 101.4,23.5775 102,23.2189 102.6,22.8646 103.2,22.5147 103.8,22.1692 104.4,21.8282 105,21.4915 105.6,21.1592 106.2,20.8314 106.8,20.508 107.4,20.1889 108,19.8744 108.6,19.5642 109.2,19.2585 109.8,18.9572 110.4,18.6604 111,18.368 111.6,18.08 112.2,17.7965 112.8,17.5174 113.4,17.2428 114,16.9727 114.6,16.707 115.2,16.4458 115.8,16.1891 116.4,15.9368 117,15.689 117.6,15.4457 118.2,15.2069 118.8,14.9725 119.4,14.7427 120,14.5173 120.6,14.2964 121.2,16.6723 121.8,17.7341 122.4,18.7984 123,19.8653 123.6,20.9347 124.2,22.0065 124.8,23.0809 125.4,24.1577 126,25.2371 126.6,26.3189 127.2,27.4031 127.8,28.4898 128.4,29.579 129,30.6707 129.6,31.7647 130.2,32.8612 130.8,33.9601 131.4,35.0615 132,36.1652 132.6,37.2714 133.2,38.3799 133.8,39.4909 134.4,40.6042 135,41.7199 135.6,42.838 136.2,43.9584 136.8,45.0812 137.4,46.2064 138,47.3339 138.6,48.4637 139.2,49.5958 139.8,50.7303 140.4,51.8671 141,53.0062 141.6,54.1476 142.2,55.2913 142.8,56.4373 143.4,57.5856 144,58.7362 144.6,59.889 145.2,61.0441 145.8,62.2014 146.4,63.361 147,64.5228 147.6,65.6869 148.2,66.8532 148.8,68.0217 149.4,69.1925 150,70.3654 150.6,71.5406 151.2,72.7179 151.8,73.8975 152.4,75.0792 153,76.2631 153.6,77.4492 154.2,78.6374 154.8,79.8279 155.4,81.0204 156,82.2151 156.6,83.412 157.2,84.6109 157.8,85.812 158.4,87.0153 159,88.2206 159.6,89.428 160.2,90.6376 160.8,91.8492 161.4,93.063 162,94.2788 162.6,95.4967 163.2,96.7166 163.8,97.9387 164.4,99.1628 165,100.389 165.6,101.617 166.2,102.847 166.8,104.08 167.4,105.314 168,106.55 168.6,107.788 169.2,109.029 169.8,110.271 170.4,111.515 171,112.762 171.6,114.01 172.2,115.26 172.8,116.513 173.4,117.767 174,119.023 174.6,120.281 175.2,121.541 175.8,122.803 176.4,124.067 177,125.333 177.6,126.601 178.2,127.871 178.8,129.142 179.4,130.416 180,131.692 180.6,132.969 181.2,134.248 181.8,135.529 182.4,136.812 183,138.097 183.6,139.384 184.2,140.673 184.8,141.963 185.4,143.256 186,144.55 186.6,145.846 187.2,147.144 187.8,148.443 188.4,149.745 189,151.048 189.6,152.353 190.2,153.66 190.8,154.969 191.4,156.28 192,157.592 192.6,158.906 193.2,160.222 193.8,161.54 194.4,162.859 195,164.18 195.6,165.503 196.2,166.828 196.8,168.154 197.4,169.483 198,170.812 198.6,172.144 199.2,173.478 199.8,174.813 200.4,176.149 201,177.488 201.6,178.828 202.2,180.17 202.8,181.514 203.4,182.859 204,184.206 204.6,185.555 205.2,186.905 205.8,188.257 206.4,189.611 207,190.966 207.6,192.323 208.2,193.682 208.8,195.042 209.4,196.404 210,197.767 210.6,199.133 211.2,200.499 211.8,201.868 212.4,203.238 213,204.609 213.6,205.983 214.2,207.358 214.8,208.734 215.4,210.112 216,211.492 216.6,212.873 217.2,214.255 217.8,215.64 218.4,217.026 219,218.413 219.6,219.802 220.2,221.193 220.8,222.585 221.4,223.978 222,225.373 222.6,226.77 223.2,228.168 223.8,229.568 224.4,230.969 225,232.372 225.6,233.776 226.2,235.182 226.8,236.589 227.4,237.998 228,239.408 228.6,240.82 229.2,242.158 229.8,243.131 230.4,244.105 231,245.082 231.6,246.061 232.2,247.042 232.8,248.025 233.4,249.011 234,249.999 234.6,250.988 235.2,251.981 235.8,252.975 236.4,253.972 237,254.97 237.6,255.971 238.2,256.975 238.8,257.98 239.4,258.987 240,259.997 240.6,261.009 241.2,262.023 241.8,263.039 242.4,264.057 243,265.078 243.6,266.1 244.2,267.125 244.8,268.152 245.4,269.18 246,270.211 246.6,271.245 247.2,272.28 247.8,273.317 248.4,274.357 249,275.398 249.6,276.442 250.2,277.488 250.8,278.535 251.4,279.585 252,280.637 252.6,281.691 253.2,282.747 253.8,283.805 254.4,284.866 255,285.928 255.6,286.992 256.2,288.055 256.8,289.087 257.4,290.12 258,291.156 258.6,292.194 259.2,293.234 259.8,294.276 260.4,295.32 261,296.367 261.6,297.415 262.2,298.465 262.8,299.517 263.4,300.572 264,301.628 264.6,302.687 265.2,303.747 265.8,304.81 266.4,305.874 267,306.941 267.6,308.009 268.2,309.08 268.8,310.152 269.4,311.227 270,312.303 270.6,313.382 271.2,314.462 271.8,315.544 272.4,316.629 273,317.715 273.6,318.804 274.2,319.894 274.8,320.986 275.4,322.08 276,323.176 276.6,324.275 277.2,325.375 277.8,326.476 278.4,327.58 279,328.686 279.6,329.794 280.2,330.903 280.8,332.015 281.4,333.128 282,334.244 282.6,335.361 283.2,336.48 283.8,337.601 284.4,338.724 285,339.849 285.6,340.975 286.2,342.104 286.8,343.234 287.4,344.367 288,345.501 288.6,346.637 289.2,347.774 289.8,348.914 290.4,350.056 291,351.199 291.6,352.344 292.2,353.491 292.8,354.64 293.4,355.79 294,356.943 294.6,358.097 295.2,359.253 295.8,360.411 296.4,361.571 297,362.732 297.6,363.895 298.2,365.06 298.8,366.227 299.4,367.396 300,368.566 300.6,366.7 301.2,368.172 301.8,369.644 302.4,371.118 303,372.593 303.6,374.068 304.2,375.545 304.8,377.023 305.4,378.502 306,379.982 306.6,381.463 307.2,382.945 307.8,384.428 308.4,385.912 309,387.397 309.6,388.883 310.2,390.37 310.8,391.859 311.4,393.348 312,394.838 312.6,396.329 313.2,397.821 313.8,399.314 314.4,400.809 315,402.304 315.6,403.8 316.2,405.297 316.8,406.795 317.4,408.295 318,409.795 318.6,411.296 319.2,412.798 319.8,414.301 320.4,415.805 321,417.31 321.6,418.816 322.2,420.323 322.8,421.831 323.4,423.339 324,424.849 324.6,426.36 325.2,427.872 325.8,429.384 326.4,430.898 327,432.412 327.6,433.928 328.2,435.444 328.8,436.961 329.4,438.48 330,439.999 330.6,441.519 331.2,443.04 331.8,444.562 332.4,446.085 333,447.608 333.6,449.133 334.2,450.659 334.8,452.185 335.4,453.713 336,455.241 336.6,456.77 337.2,458.3 337.8,459.831 338.4,461.363 339,462.896 339.6,464.429 340.2,465.964 340.8,467.499 341.4,469.035 342,470.572 342.6,472.11 343.2,473.649 343.8,475.189 344.4,476.73 345,478.271 345.6,479.813 346.2,481.356 346.8,482.9 347.4,484.445 348,485.991 348.6,487.538 349.2,489.085 349.8,490.633 350.4,492.182 351,493.732 351.6,495.283 352.2,496.835 352.8,498.387 353.4,499.94 354,501.494 354.6,503.049 355.2,504.605 355.8,506.162 356.4,507.719 357,509.277 357.6,510.836 358.2,512.396 358.8,513.956 359.4,515.518 360,517.08 360.6,518.643 361.2,520.207 361.8,521.771 362.4,523.337 363,524.903 363.6,526.47 364.2,528.037 364.8,529.606 365.4,531.175 366,532.745 366.6,534.316 367.2,535.888 367.8,537.46 368.4,538.194 369,538.912 369.6,539.633 370.2,540.355 370.8,541.079 371.4,541.806 372,542.534 372.6,543.264 373.2,543.996 373.8,544.73 374.4,545.465 375,546.203 375.6,546.943 376.2,547.684 376.8,548.428 377.4,549.173 378,549.921 378.6,550.67 379.2,551.421 379.8,552.174 380.4,552.929 381,553.686 381.6,554.444 382.2,555.205 382.8,555.967 383.4,556.687 384,556.689 384.6,556.693 385.2,556.699 385.8,556.707 386.4,556.718 387,556.731 387.6,556.746 388.2,556.763 388.8,556.783 389.4,556.804 390,556.828 390.6,556.855 391.2,556.883 391.8,556.914 392.4,556.947 393,556.982 393.6,557.019 394.2,557.059 394.8,557.101 395.4,557.145 396,557.191 396.6,557.24 397.2,557.291 397.8,557.344 398.4,557.399 399,557.456 399.6,557.516 400.2,557.578 400.8,557.642 401.4,557.709 402,557.777 402.6,557.848 403.2,557.921 403.8,557.996 404.4,558.074 405,558.154 405.6,558.236 406.2,558.32 406.8,558.401 407.4,557.798 408,557.196 408.6,556.597 409.2,556 409.8,555.405 410.4,554.811 411,554.22 411.6,553.631 412.2,553.044 412.8,552.459 413.4,551.876 414,551.295 414.6,550.716 415.2,550.139 415.8,549.564 416.4,548.991 417,548.421 417.6,547.852 418.2,547.285 418.8,546.72 419.4,546.158 420,545.597 420.6,545.039 421.2,544.483 421.8,543.928 422.4,543.376 423,542.826 423.6,541.783 424.2,540.381 424.8,538.98 425.4,537.581 426,536.182 426.6,534.785 427.2,533.388 427.8,531.993 428.4,530.599 429,529.206 429.6,527.814 430.2,526.423 430.8,525.033 431.4,523.644 432,522.256 432.6,520.87 433.2,519.485 433.8,518.1 434.4,516.717 435,515.335 435.6,513.954 436.2,512.574 436.8,511.196 437.4,509.818 438,508.442 438.6,507.067 439.2,505.693 439.8,504.32 440.4,502.948 441,501.577 441.6,500.208 442.2,498.839 442.8,497.472 443.4,496.106 444,494.741 444.6,493.378 445.2,492.015 445.8,490.654 446.4,489.294 447,487.935 447.6,486.577 448.2,485.22 448.8,483.865 449.4,482.511 450,481.158 450.6,479.806 451.2,478.455 451.8,477.106 452.4,475.758 453,474.41 453.6,473.065 454.2,471.72 454.8,470.377 455.4,469.035 456,467.694 456.6,466.354 457.2,465.016 457.8,463.678 458.4,462.342 459,461.008 459.6,459.674 460.2,458.342 460.8,457.011 461.4,455.681 462,454.353 462.6,453.025 463.2,451.7 463.8,450.375 464.4,449.051 465,447.729 465.6,446.408 466.2,445.089 466.8,443.77 467.4,442.453 468,441.138 468.6,439.823 469.2,438.51 469.8,437.198 470.4,435.888 471,434.578 471.6,433.271 472.2,431.964 472.8,430.659 473.4,429.355 474,428.052 474.6,426.751 475.2,425.451 475.8,424.152 476.4,422.855 477,421.559 477.6,420.264 478.2,418.971 478.8,417.679 479.4,416.388 480,415.099 480.6,413.811 481.2,412.524 481.8,411.239 482.4,409.955 483,408.673 483.6,407.392 484.2,406.112 484.8,404.834 485.4,403.557 486,402.282 486.6,401.007 487.2,399.735 487.8,398.463 488.4,397.193 489,395.925 489.6,394.658 490.2,393.392 490.8,392.128 491.4,390.865 492,389.604 492.6,388.344 493.2,387.085 493.8,385.828 494.4,384.572 495,383.318 495.6,382.065 496.2,380.814 496.8,379.564 497.4,378.316 498,377.069 498.6,375.823 499.2,374.579 499.8,373.337 500.4,372.095 501,370.856 501.6,369.618 502.2,368.381 502.8,367.146 503.4,365.912 504,364.68 504.6,363.449 505.2,362.22 505.8,360.993 506.4,359.767 507,358.542 507.6,357.319 508.2,356.097 508.8,354.877 509.4,353.659 510,352.442 510.6,351.226 511.2,350.012 511.8,348.8 512.4,347.589 513,346.38 513.6,345.172 514.2,343.966 514.8,342.762 515.4,341.559 516,340.357 516.6,339.158 517.2,337.959 517.8,336.763 518.4,335.568 519,334.374 519.6,333.182 520.2,331.992 520.8,330.803 521.4,329.616 522,328.431 522.6,327.247 523.2,326.065 523.8,324.884 524.4,323.705 525,322.528 525.6,321.352 526.2,320.178 526.8,319.006 527.4,317.835 528,316.666 528.6,315.499 529.2,314.333 529.8,313.169 530.4,312.006 531,310.846 531.6,309.686 532.2,308.529 532.8,307.373 533.4,306.219 534,305.067 534.6,303.916 535.2,302.767 535.8,301.62 536.4,300.475 537,299.331 537.6,298.189 538.2,297.048 538.8,295.91 539.4,294.773 540,293.638 540.6,292.504 541.2,291.372 541.8,290.242 542.4,289.114 543,287.988 543.6,286.863 544.2,285.74 544.8,284.619 545.4,283.5 546,282.382 546.6,281.266 547.2,280.152 547.8,279.04 548.4,277.929 549,276.821 549.6,275.714 550.2,274.609 550.8,273.506 551.4,272.404 552,271.305 552.6,270.207 553.2,269.111 553.8,268.017 554.4,266.925 555,265.834 555.6,264.745 556.2,263.659 556.8,262.574 557.4,261.491 558,260.41 558.6,259.33 559.2,258.253 559.8,257.177 560.4,256.104 561,255.032 561.6,253.962 562.2,252.894 562.8,251.828 563.4,250.764 564,249.701 564.6,248.641 565.2,247.583 565.8,246.526 566.4,245.471 567,244.419 567.6,243.368 568.2,242.319 568.8,241.272 569.4,240.227 570,239.184 570.6,238.143 571.2,237.104 571.8,236.067 572.4,235.032 573,233.999 573.6,232.967 574.2,231.938 574.8,230.911 575.4,229.886 576,228.863 576.6,227.841 577.2,226.822 577.8,225.805 578.4,224.79 579,223.777 579.6,222.765 580.2,221.756 580.8,220.749 581.4,219.744 582,218.741 582.6,217.74 583.2,216.741 583.8,215.744 584.4,214.749 585,213.757 585.6,212.766 586.2,211.777 586.8,210.791 587.4,209.807 588,208.824 588.6,207.844 589.2,206.866 589.8,205.89 590.4,204.916 591,203.944 591.6,202.974 592.2,202.007 592.8,201.041 593.4,200.078 594,199.116 594.6,198.157 595.2,197.2 595.8,196.246 596.4,195.293 597,194.343 597.6,193.394 598.2,192.448 598.8,191.504 599.4,190.562 600,189.623 " />
   <polyline fill="none" stroke=" slategrey " stroke-width=" 9 " points=" " />
   <polyline fill="none" stroke=" violet " stroke-width=" 6 " points=" " />
   <polyline fill="none" stroke=" olive " stroke-width=" 3 " points=" 0.6,211.042 1.2,212.414 1.8,213.791 2.4,215.171 3,214.775 3.6,213.011 4.2,211.25 4.8,209.491 5.4,207.736 6,205.982 6.6,204.232 7.2,202.484 7.8,200.739 8.4,198.997 9,197.257 9.6,195.52 10.2,193.786 10.8,192.055 11.4,190.326 12,188.6 12.6,186.877 13.2,185.157 13.8,183.439 14.4,181.725 15,180.013 15.6,178.304 16.2,176.598 16.8,174.894 17.4,173.194 18,171.497 18.6,169.802 19.2,168.11 19.8,166.421 20.4,164.735 21,163.053 21.6,161.373 22.2,159.696 22.8,158.021 23.4,156.35 24,154.682 24.6,153.017 25.2,151.355 25.8,149.696 26.4,148.04 27,146.388 27.6,144.738 28.2,143.091 28.8,141.447 29.4,139.807 30,138.169 30.6,136.535 31.2,134.904 31.8,133.276 32.4,131.651 33,130.03 33.6,128.411 34.2,126.796 34.8,125.184 35.4,123.575 36,121.97 36.6,120.367 37.2,118.768 37.8,117.173 38.4,115.58 39,113.991 39.6,112.405 40.2,110.823 40.8,109.244 41.4,107.668 42,106.095 42.6,104.526 43.2,102.961 43.8,101.398 44.4,99.8397 45,98.2843 45.6,96.7323 46.2,95.1839 46.8,93.6389 47.4,92.0974 48,90.5594 48.6,89.0249 49.2,87.4939 49.8,85.9665 50.4,84.4426 51,82.9223 51.6,81.4056 52.2,79.8925 52.8,78.3829 53.4,76.877 54,75.3748 54.6,73.8761 55.2,72.3812 55.8,70.8899 56.4,69.4023 57,67.9184 57.6,66.4383 58.2,64.9618 58.8,63.4892 59.4,62.0202 60,60.5551 60.6,59.0937 61.2,57.6361 61.8,86.475 62.4,86.4887 63,86.5067 63.6,86.529 64.2,86.5555 64.8,86.5864 65.4,86.6214 66,86.6608 66.6,86.7044 67.2,86.7522 67.8,86.8044 68.4,86.8607 69,86.9214 69.6,86.9863 70.2,87.0555 70.8,87.1289 71.4,87.2066 72,87.2886 72.6,87.3748 73.2,87.4652 73.8,87.56 74.4,87.6589 75,87.7622 75.6,87.8696 76.2,87.9814 76.8,88.0974 77.4,88.2176 78,88.3421 78.6,88.4708 79.2,88.6037 79.8,88.741 80.4,88.8824 81,89.0281 81.6,89.178 82.2,89.3322 82.8,89.4906 83.4,89.6533 84,89.8201 84.6,89.9912 85.2,90.1666 85.8,90.3461 86.4,90.5299 87,90.7179 87.6,90.9101 88.2,91.1066 88.8,91.3073 89.4,91.5121 90,91.7212 90.6,91.9345 91.2,92.1521 91.8,92.3738 92.4,92.5997 93,92.8298 93.6,93.0642 94.2,93.3027 94.8,93.5454 95.4,93.7923 96,94.0434 96.6,94.2987 97.2,94.5582 97.8,94.8218 98.4,95.0896 99,95.3616 99.6,95.6378 100.2,95.9182 100.8,96.2027 101.4,96.4914 102,96.7842 102.6,97.0812 103.2,97.3824 103.8,97.6877 104.4,97.9972 105,98.3108 105.6,98.6285 106.2,98.9504 106.8,99.2764 107.4,99.6066 108,99.9409 108.6,100.279 109.2,100.622 109.8,100.969 110.4,101.319 111,101.674 111.6,102.033 112.2,102.396 112.8,102.763 113.4,103.135 114,103.51 114.6,103.89 115.2,104.273 115.8,104.661 116.4,105.053 117,105.448 117.6,105.848 118.2,106.252 118.8,106.66 119.4,107.072 120,107.489 120.6,107.909 121.2,231.266 121.8,231.726 122.4,232.187 123,232.652 123.6,233.12 124.2,233.59 124.8,234.063 125.4,234.539 126,235.018 126.6,235.499 127.2,235.983 127.8,236.47 128.4,236.96 129,237.452 129.6,237.948 130.2,238.446 130.8,238.947 131.4,239.45 132,239.957 132.6,240.466 133.2,240.977 133.8,241.492 134.4,242.009 135,242.529 135.6,243.052 136.2,243.578 136.8,244.106 137.4,244.637 138,245.171 138.6,245.707 139.2,246.246 139.8,246.788 140.4,247.333 141,247.88 141.6,248.43 142.2,248.982 142.8,249.538 143.4,250.096 144,250.657 144.6,251.22 145.2,251.786 145.8,252.355 146.4,252.927 147,253.501 147.6,254.078 148.2,254.657 148.8,255.239 149.4,255.824 150,256.411 150.6,257.002 151.2,257.594 151.8,258.19 152.4,258.788 153,259.389 153.6,259.992 154.2,260.598 154.8,261.207 155.4,261.818 156,262.432 156.6,263.048 157.2,263.667 157.8,264.289 158.4,264.913 159,265.54 159.6,266.17 160.2,266.802 160.8,267.437 161.4,268.074 162,268.714 162.6,269.356 163.2,270.001 163.8,270.649 164.4,271.299 165,271.952 165.6,272.607 166.2,273.265 166.8,273.926 167.4,274.589 168,275.254 168.6,275.923 169.2,276.593 169.8,277.266 170.4,277.942 171,278.621 171.6,279.301 172.2,279.985 172.8,280.671 173.4,281.359 174,282.05 174.6,282.743 175.2,283.439 175.8,284.138 176.4,284.839 177,285.542 177.6,286.248 178.2,286.956 178.8,287.667 179.4,288.381 180,289.096 180.6,289.815 181.2,290.536 181.8,291.259 182.4,291.985 183,292.713 183.6,293.443 184.2,294.176 184.8,294.912 185.4,295.65 186,296.39 186.6,297.133 187.2,297.879 187.8,298.626 188.4,299.376 189,300.129 189.6,300.884 190.2,301.641 190.8,302.401 191.4,303.163 192,303.928 192.6,304.695 193.2,305.464 193.8,306.236 194.4,307.01 195,307.787 195.6,308.566 196.2,309.347 196.8,310.131 197.4,310.917 198,311.705 198.6,312.496 199.2,313.289 199.8,314.085 200.4,314.883 201,315.683 201.6,316.485 202.2,317.29 202.8,318.097 203.4,318.907 204,319.719 204.6,320.533 205.2,321.349 205.8,322.168 206.4,322.989 207,323.813 207.6,324.638 208.2,325.466 208.8,326.297 209.4,327.129 210,327.964 210.6,328.801 211.2,329.641 211.8,329.082 212.4,328.44 213,327.8 213.6,327.163 214.2,326.528 214.8,325.896 215.4,325.267 216,324.639 216.6,324.015 217.2,323.393 217.8,322.773 218.4,322.156 219,321.542 219.6,320.93 220.2,320.32 220.8,319.713 221.4,319.109 222,318.507 222.6,317.908 223.2,317.311 223.8,316.717 224.4,316.125 225,315.536 225.6,314.95 226.2,314.366 226.8,313.784 227.4,313.206 228,312.63 228.6,312.056 229.2,311.485 229.8,310.916 230.4,310.351 231,309.787 231.6,309.227 232.2,308.668 232.8,308.113 233.4,307.56 234,307.01 234.6,306.462 235.2,305.917 235.8,305.375 236.4,304.835 237,304.298 237.6,303.763 238.2,303.231 238.8,302.702 239.4,302.175 240,301.651 240.6,301.13 241.2,300.611 241.8,300.095 242.4,299.581 243,299.071 243.6,298.563 244.2,298.057 244.8,297.554 245.4,297.054 246,296.556 246.6,296.062 247.2,295.569 247.8,295.08 248.4,294.593 249,294.109 249.6,293.628 250.2,293.149 250.8,292.673 251.4,292.199 252,291.729 252.6,291.261 253.2,290.795 253.8,290.333 254.4,289.873 255,289.416 255.6,288.961 256.2,288.509 256.8,288.06 257.4,287.614 258,287.17 258.6,286.729 259.2,286.291 259.8,285.856 260.4,285.423 261,284.993 261.6,284.566 262.2,284.141 262.8,283.72 263.4,283.301 264,282.884 264.6,282.471 265.2,282.06 265.8,281.652 266.4,281.247 267,280.844 267.6,280.444 268.2,280.047 268.8,279.653 269.4,279.262 270,278.873 270.6,278.487 271.2,278.104 271.8,277.723 272.4,277.346 273,276.971 273.6,276.599 274.2,276.23 274.8,275.863 275.4,275.5 276,275.139 276.6,274.781 277.2,274.425 277.8,274.073 278.4,273.723 279,273.376 279.6,273.032 280.2,272.691 280.8,272.352 281.4,272.017 282,271.684 282.6,271.354 283.2,271.027 283.8,270.702 284.4,270.381 285,270.062 285.6,269.746 286.2,269.433 286.8,269.123 287.4,268.815 288,268.51 288.6,268.209 289.2,267.91 289.8,267.614 290.4,267.32 291,267.03 291.6,266.742 292.2,266.458 292.8,266.176 293.4,265.897 294,265.62 294.6,265.347 295.2,265.077 295.8,264.809 296.4,264.544 297,264.282 297.6,264.023 298.2,263.767 298.8,263.514 299.4,263.263 300,263.016 300.6,262.508 301.2,261.74 301.8,260.974 302.4,260.211 303,259.45 303.6,258.691 304.2,257.934 304.8,257.18 305.4,256.428 306,255.679 306.6,254.931 307.2,254.186 307.8,253.444 308.4,252.704 309,251.966 309.6,251.23 310.2,250.497 310.8,249.766 311.4,249.038 312,248.312 312.6,247.588 313.2,246.867 313.8,246.148 314.4,245.431 315,244.717 315.6,244.005 316.2,243.296 316.8,242.589 317.4,241.884 318,241.182 318.6,240.482 319.2,239.785 319.8,239.09 320.4,238.397 321,237.707 321.6,237.019 322.2,236.334 322.8,235.651 323.4,234.966 324,234.284 324.6,233.603 325.2,232.925 325.8,232.25 326.4,231.577 327,230.906 327.6,230.238 328.2,229.572 328.8,228.909 329.4,228.248 330,227.59 330.6,226.934 331.2,226.28 331.8,225.63 332.4,224.981 333,224.335 333.6,223.692 334.2,223.051 334.8,222.412 335.4,221.777 336,221.143 336.6,220.512 337.2,219.884 337.8,219.258 338.4,218.635 339,218.014 339.6,217.395 340.2,216.78 340.8,216.166 341.4,215.556 342,214.948 342.6,214.342 343.2,213.739 343.8,213.138 344.4,212.541 345,211.945 345.6,211.352 346.2,210.762 346.8,210.174 347.4,209.589 348,209.007 348.6,208.427 349.2,207.849 349.8,207.275 350.4,206.702 351,206.133 351.6,205.566 352.2,205.001 352.8,204.439 353.4,203.88 354,203.324 354.6,202.77 355.2,202.218 355.8,201.67 356.4,201.123 357,200.58 357.6,200.039 358.2,199.501 358.8,198.965 359.4,198.432 360,197.902 360.6,197.374 361.2,196.849 361.8,196.327 362.4,195.807 363,195.29 363.6,194.776 364.2,194.264 364.8,193.755 365.4,193.249 366,192.745 366.6,192.244 367.2,191.745 367.8,191.25 368.4,190.757 369,190.266 369.6,189.779 370.2,189.294 370.8,188.812 371.4,188.332 372,187.855 372.6,187.381 373.2,186.91 373.8,186.441 374.4,185.975 375,185.512 375.6,185.051 376.2,184.594 376.8,184.139 377.4,183.686 378,183.237 378.6,182.79 379.2,182.346 379.8,181.904 380.4,181.466 381,181.03 381.6,180.597 382.2,180.166 382.8,179.739 383.4,179.314 384,178.892 384.6,178.472 385.2,178.056 385.8,177.642 386.4,177.231 387,176.823 387.6,176.417 388.2,176.014 388.8,175.614 389.4,175.217 390,174.823 390.6,174.431 391.2,174.043 391.8,173.657 392.4,173.273 393,172.893 393.6,172.515 394.2,172.141 394.8,171.764 395.4,171.387 396,171.012 396.6,170.64 397.2,170.271 397.8,169.905 398.4,169.541 399,169.181 399.6,168.823 400.2,168.468 400.8,168.116 401.4,167.766 402,167.42 402.6,167.076 403.2,166.735 403.8,166.397 404.4,166.062 405,165.73 405.6,165.4 406.2,165.074 406.8,164.75 407.4,164.429 408,164.111 408.6,163.796 409.2,163.483 409.8,163.174 410.4,162.867 411,162.563 411.6,162.262 412.2,161.964 412.8,161.669 413.4,161.377 414,161.088 414.6,160.801 415.2,160.517 415.8,160.237 416.4,159.959 417,159.684 417.6,159.412 418.2,159.142 418.8,158.876 419.4,158.612 420,158.352 420.6,158.094 421.2,157.839 421.8,157.588 422.4,157.339 423,157.092 423.6,156.849 424.2,156.609 424.8,156.372 425.4,156.137 426,155.906 426.6,155.677 427.2,155.451 427.8,155.229 428.4,155.009 429,154.792 429.6,154.578 430.2,154.366 430.8,154.158 431.4,153.953 432,153.751 432.6,153.551 433.2,153.355 433.8,153.161 434.4,152.97 435,152.783 435.6,152.598 436.2,152.416 436.8,152.237 437.4,152.061 438,151.888 438.6,151.718 439.2,151.551 439.8,151.387 440.4,151.225 441,151.067 441.6,150.912 442.2,150.759 442.8,150.61 443.4,150.463 444,150.32 444.6,150.179 445.2,150.041 445.8,149.907 446.4,149.775 447,149.646 447.6,149.52 448.2,149.397 448.8,149.277 449.4,149.16 450,149.046 450.6,148.935 451.2,148.827 451.8,148.722 452.4,148.62 453,148.52 453.6,148.424 454.2,148.331 454.8,148.24 455.4,148.153 456,148.069 456.6,147.987 457.2,147.909 457.8,147.833 458.4,147.761 459,147.691 459.6,147.624 460.2,147.561 460.8,147.5 461.4,147.442 462,147.388 462.6,147.336 463.2,147.287 463.8,147.241 464.4,147.198 465,147.159 465.6,147.122 466.2,147.088 466.8,147.057 467.4,147.029 468,147.004 468.6,146.978 469.2,146.954 469.8,146.932 470.4,146.914 471,146.899 471.6,146.887 472.2,146.877 472.8,146.871 473.4,146.867 474,146.867 474.6,146.869 475.2,146.875 475.8,146.883 476.4,146.895 477,146.909 477.6,146.927 478.2,146.947 478.8,146.97 479.4,146.997 480,147.026 480.6,147.058 481.2,147.094 481.8,147.132 482.4,147.173 483,147.217 483.6,147.264 484.2,147.314 484.8,147.368 485.4,147.424 486,147.483 486.6,147.545 487.2,147.61 487.8,147.677 488.4,147.748 489,147.822 489.6,147.899 490.2,147.979 490.8,148.062 491.4,148.147 492,148.236 492.6,148.328 493.2,148.422 493.8,148.52 494.4,148.621 495,148.724 495.6,148.831 496.2,148.94 496.8,149.052 497.4,149.168 498,149.286 498.6,149.407 499.2,149.532 499.8,149.659 500.4,149.789 501,149.922 501.6,150.058 502.2,150.197 502.8,150.339 503.4,150.484 504,150.632 504.6,150.783 505.2,150.936 505.8,151.093 506.4,151.253 507,151.415 507.6,151.581 508.2,151.749 508.8,151.921 509.4,152.095 510,152.272 510.6,152.452 511.2,152.636 511.8,152.822 512.4,153.011 513,153.203 513.6,153.397 514.2,153.595 514.8,153.796 515.4,154 516,154.206 516.6,154.416 517.2,154.628 517.8,154.844 518.4,155.062 519,155.283 519.6,155.507 520.2,155.734 520.8,155.964 521.4,156.197 522,156.433 522.6,156.671 523.2,156.913 523.8,157.157 524.4,157.405 525,157.655 525.6,157.908 526.2,158.164 526.8,158.423 527.4,158.685 528,158.95 528.6,159.217 529.2,159.488 529.8,159.761 530.4,160.038 531,160.317 531.6,160.599 532.2,160.884 532.8,161.172 533.4,161.462 534,161.756 534.6,162.052 535.2,162.352 535.8,162.654 536.4,162.959 537,163.267 537.6,163.578 538.2,163.891 538.8,164.208 539.4,164.527 540,164.849 540.6,165.174 541.2,165.502 541.8,165.833 542.4,166.167 543,166.503 543.6,166.842 544.2,167.185 544.8,167.529 545.4,167.877 546,168.228 546.6,168.581 547.2,168.938 547.8,169.297 548.4,169.659 549,170.023 549.6,170.391 550.2,170.761 550.8,171.134 551.4,171.51 552,171.889 552.6,172.271 553.2,172.655 553.8,173.042 554.4,173.432 555,173.825 555.6,174.221 556.2,174.619 556.8,175.02 557.4,175.424 558,175.831 558.6,176.24 559.2,176.653 559.8,177.068 560.4,177.485 561,177.906 561.6,178.329 562.2,178.755 562.8,179.184 563.4,179.616 564,180.05 564.6,180.487 565.2,180.927 565.8,181.37 566.4,181.815 567,182.263 567.6,182.714 568.2,183.168 568.8,183.624 569.4,184.083 570,184.545 570.6,185.009 571.2,185.477 571.8,185.947 572.4,186.419 573,186.895 573.6,187.373 574.2,187.853 574.8,188.337 575.4,188.823 576,189.312 576.6,189.804 577.2,190.298 577.8,190.795 578.4,191.294 579,191.797 579.6,192.302 580.2,192.809 580.8,193.32 581.4,193.833 582,194.348 582.6,194.867 583.2,195.388 583.8,195.911 584.4,196.438 585,196.966 585.6,197.498 586.2,198.032 586.8,198.569 587.4,199.109 588,199.651 588.6,200.196 589.2,200.743 589.8,201.293 590.4,201.846 591,202.401 591.6,202.959 592.2,203.519 592.8,204.082 593.4,204.648 594,205.216 594.6,205.787 595.2,206.361 595.8,206.937 596.4,207.516 597,208.097 597.6,208.681 598.2,209.267 598.8,209.856 599.4,210.448 600,211.042 " />

<!--Draw the X and Y axes -->
<polyline fill="none" stroke="black" stroke-width="6"  points=" 600,0 0,0 0, 600" />
<polyline fill="none" stroke="black" stroke-width="1"  points=" 0 600  600 600  600 0" />
<!-- -->


<!--Draw labels and tics for X axis -->

<line fill="none" stroke="black"  stroke-width="6"  x1="0.5" y1="0" x2="0.5" y2="-20" />
<text transform="scale(1,-1)" font-family="sans-serif" font-size="30" x="-24.5" y="45" >0</text>
<line fill="none" stroke="black"  stroke-width="6"  x1="120.5" y1="0" x2="120.5" y2="-20" />
<text transform="scale(1,-1)" font-family="sans-serif" font-size="30" x="95.5" y="45" >200</text>
<line fill="none" stroke="black"  stroke-width="6"  x1="240.5" y1="0" x2="240.5" y2="-20" />
<text transform="scale(1,-1)" font-family="sans-serif" font-size="30" x="215.5" y="45" >400</text>
<line fill="none" stroke="black"  stroke-width="6"  x1="360.5" y1="0" x2="360.5" y2="-20" />
<text transform="scale(1,-1)" font-family="sans-serif" font-size="30" x="335.5" y="45" >600</text>
<line fill="none" stroke="black"  stroke-width="6"  x1="480.5" y1="0" x2="480.5" y2="-20" />
<text transform="scale(1,-1)" font-family="sans-serif" font-size="30" x="455.5" y="45" >800</text>
<line fill="none" stroke="black"  stroke-width="6"  x1="600.5" y1="0" x2="600.5" y2="-20" />
<text transform="scale(1,-1)" font-family="sans-serif" font-size="30" x="575.5" y="45" >1000</text>


<!--Draw labels and tics for Y axis -->

<line fill="none" stroke="black" stroke-width="6" x1="0.0" y1="0" x2="-20" y2="0" />
<text transform="scale(1,-1)" text-anchor="end" font-family="sans-serif" font-size="30" x="-25" y="10" >30</text>
<line fill="none" stroke="black" stroke-width="6" x1="0.0" y1="75" x2="-20" y2="75" />
<text transform="scale(1,-1)" text-anchor="end" font-family="sans-serif" font-size="30" x="-25" y="-65" >32</text>
<line fill="none" stroke="black" stroke-width="6" x1="0.0" y1="150" x2="-20" y2="150" />
<text transform="scale(1,-1)" text-anchor="end" font-family="sans-serif" font-size="30" x="-25" y="-140" >34</text>
<line fill="none" stroke="black" stroke-width="6" x1="0.0" y1="225" x2="-20" y2="225" />
<text transform="scale(1,-1)" text-anchor="end" font-family="sans-serif" font-size="30" x="-25" y="-215" >36</text>
<line fill="none" stroke="black" stroke-width="6" x1="0.0" y1="300" x2="-20" y2="300" />
<text transform="scale(1,-1)" text-anchor="end" font-family="sans-serif" font-size="30" x="-25" y="-290" >38</text>
<line fill="none" stroke="black" stroke-width="6" x1="0.0" y1="375" x2="-20" y2="375" />
<text transform="scale(1,-1)" text-anchor="end" font-family="sans-serif" font-size="30" x="-25" y="-365" >40</text>
<line fill="none" stroke="black" stroke-width="6" x1="0.0" y1="450" x2="-20" y2="450" />
<text transform="scale(1,-1)" text-anchor="end" font-family="sans-serif" font-size="30" x="-25" y="-440" >42</text>
<line fill="none" stroke="black" stroke-width="6" x1="0.0" y1="525" x2="-20" y2="525" />
<text transform="scale(1,-1)" text-anchor="end" font-family="sans-serif" font-size="30" x="-25" y="-515" >44</text>
<line fill="none" stroke="black" stroke-width="6" x1="0.0" y1="600" x2="-20" y2="600" />
<text transform="scale(1,-1)" text-anchor="end" font-family="sans-serif" font-size="30" x="-25" y="-590" >46</text>

-->
</g>
</g>
<!-- Run Constants
CIRCLEPLOT bool false
DISTANCEPLOT bool true
PRINTDISTANCEDATA bool true
GLITCHESONLY bool false
PLOT 2doubles 3 4
PERTURBBY double 0.05
GLITCHLEVEL double 3
BOUNDARYWINDOW double 0.065
FRAMESPERPATH int 200
STEPSPERFRAME int 1000
TRIALS int 1
ALLBLACK bool true
FILEPREFIX string Fol
GRAPHSIZE int 0
BORDER int 0
PLOTSIZE int 0
G6LINEWIDTH int 3
DELONELINEWIDTH int 10
AXISWIDTH int 6
TICLENGTH int 20
VECTOR g6 
FOLLOWERMODE FollowerMode line
FIXRANDOMSEED fixRandomSeed false
RANDOMSEED int 19191
TIMESTAMP bool true
END end 




-->
</svg>
