<?xml version="1.0" standalone="no"?>
<!-- the width and height set the total pixel output of the image in the browser -->
<!-- whatever is within the viewbox will be remapped to show in this size -->
<svg width="1000" height="1000" viewBox="1 0  1200 1200"  version="1.1" xmlns="http://www.w3.org/2000/svg" xmlns:xlink="http://www.w3.org/1999/xlink">
 <desc>ID (and file name) = Fol_.19_0.svg  mode = LINE3 </desc> 
<g transform = "scale(1 1)">

<text x = "-850" y="50" transform="rotate(-90)"  font-family="sans-serif" font-size="40" stroke ="lightgray" fill="none"> PointDistanceFollower   Mar 12 2020</text>
 <text x="200"  y="30"  font-family="sans-serif" font-size="20" >Fol_.19_0.svg</text>
<text x="300" y="60"   font-family="sans-serif" font-size="20" fill="lightblue">  S6  </text>
<text x="300" y="85"   font-family="sans-serif" font-size="20" fill="olive">  CS6Dist  </text>
<text x="300" y="110"   font-family="sans-serif" font-size="20" fill="black">  LM  </text>



 <!--DISTANCE PLOT BEGINS   mode = LINE3-->


<!-- the following will scale and place the distance plot -->
<g transform="translate(150,975) scale(1 -1)">
   <polyline fill="none" stroke=" lightblue " stroke-width=" 12 " stroke-dasharray = " 10,5 " points=" 7.92079,0 15.8416,13.1639 23.7624,26.3279 31.6832,39.4918 39.604,52.6557 47.5248,65.8197 55.4455,78.9836 63.3663,92.1476 71.2871,105.311 79.2079,118.475 87.1287,131.639 95.0495,144.803 102.97,157.967 110.891,171.131 118.812,184.295 126.733,197.459 134.653,210.623 142.574,223.787 150.495,236.951 158.416,250.115 166.337,263.279 174.257,276.443 182.178,289.607 190.099,302.771 198.02,315.934 205.941,329.098 213.861,342.262 221.782,355.426 229.703,368.59 237.624,381.754 245.545,394.918 253.465,408.082 261.386,421.246 269.307,434.41 277.228,447.574 285.149,460.738 293.069,473.902 300.99,487.066 308.911,500.23 316.832,513.394 324.752,526.557 332.673,539.721 340.594,552.885 348.515,566.049 356.436,577.692 364.356,569.559 372.277,561.617 380.198,553.874 388.119,546.339 396.04,539.02 403.96,531.926 411.881,525.066 419.802,518.45 427.723,512.087 435.644,505.986 443.564,500.157 451.485,494.61 459.406,489.355 467.327,484.4 475.248,479.755 483.168,475.43 491.089,471.433 499.01,467.772 506.931,464.455 514.851,461.49 522.772,458.884 530.693,456.643 538.614,454.772 546.535,453.275 554.455,452.157 562.376,451.42 570.297,451.067 578.218,451.097 586.139,451.511 594.059,452.805 601.98,456.924 609.901,461.255 617.822,465.79 625.743,470.525 633.663,475.454 641.584,480.57 649.505,485.867 657.426,491.34 665.347,496.983 673.267,502.791 681.188,508.756 689.109,514.875 697.03,521.141 704.95,527.55 712.871,534.096 720.792,540.774 728.713,547.58 736.634,554.508 744.554,561.554 752.475,568.715 760.396,575.985 768.317,587.156 776.238,601.987 784.158,615.295 792.079,629.003 " />

   <polyline fill="none" stroke=" olive " stroke-width=" 3 " stroke-dasharray = " 5,10 " points=" 7.92079,0 15.8416,13.1639 23.7624,26.3279 31.6832,39.4918 39.604,52.6557 47.5248,65.8197 55.4455,78.9836 63.3663,92.1476 71.2871,105.311 79.2079,118.475 87.1287,131.639 95.0495,144.803 102.97,157.967 110.891,171.131 118.812,184.295 126.733,197.459 134.653,210.623 142.574,223.787 150.495,236.951 158.416,250.115 166.337,263.279 174.257,276.443 182.178,289.607 190.099,302.771 198.02,315.934 205.941,329.098 213.861,342.262 221.782,355.426 229.703,368.59 237.624,381.754 245.545,394.918 253.465,408.082 261.386,421.246 269.307,434.41 277.228,447.574 285.149,460.738 293.069,473.902 300.99,487.066 308.911,500.23 316.832,513.394 324.752,526.557 332.673,539.721 340.594,552.885 348.515,566.049 356.436,577.692 364.356,569.559 372.277,561.617 380.198,553.874 388.119,546.339 396.04,539.02 403.96,531.926 411.881,525.066 419.802,518.45 427.723,512.087 435.644,505.986 443.564,500.157 451.485,494.61 459.406,489.355 467.327,484.4 475.248,479.755 483.168,475.43 491.089,471.433 499.01,467.772 506.931,464.455 514.851,461.49 522.772,458.884 530.693,456.643 538.614,454.772 546.535,453.275 554.455,452.157 562.376,451.42 570.297,451.067 578.218,451.097 586.139,451.511 594.059,453.333 601.98,460.665 609.901,468.185 617.822,475.888 625.743,483.771 633.663,491.831 641.584,500.062 649.505,508.463 657.426,517.027 665.347,525.752 673.267,534.632 681.188,543.665 689.109,552.846 697.03,562.171 704.95,571.635 712.871,581.236 720.792,590.968 728.713,600.829 736.634,610.813 744.554,620.918 752.475,631.139 760.396,641.474 768.317,656.102 776.238,675.224 784.158,694.777 792.079,714.737 " />

   <polyline fill="none" stroke=" black " stroke-width=" 3 " stroke-dasharray = "  " points=" 7.92079,0 15.8416,13.1639 23.7624,26.3279 31.6832,39.4918 39.604,52.6557 47.5248,65.8197 55.4455,78.9836 63.3663,92.1476 71.2871,105.311 79.2079,118.475 87.1287,131.639 95.0495,144.803 102.97,157.967 110.891,171.131 118.812,184.295 126.733,197.459 134.653,210.623 142.574,223.787 150.495,236.951 158.416,250.115 166.337,263.279 174.257,276.443 182.178,289.607 190.099,302.771 198.02,315.934 205.941,329.098 213.861,342.262 221.782,355.426 229.703,368.59 237.624,381.754 245.545,394.918 253.465,408.082 261.386,421.246 269.307,434.41 277.228,447.574 285.149,460.738 293.069,473.902 300.99,487.066 308.911,500.23 316.832,513.394 324.752,526.557 332.673,539.721 340.594,552.885 348.515,566.049 356.436,577.692 364.356,569.559 372.277,561.617 380.198,553.874 388.119,546.339 396.04,539.02 403.96,531.926 411.881,525.066 419.802,518.45 427.723,512.087 435.644,505.986 443.564,500.157 451.485,494.61 459.406,489.355 467.327,484.4 475.248,479.755 483.168,475.43 491.089,470.149 499.01,464.568 506.931,459.444 514.851,454.793 522.772,450.63 530.693,446.968 538.614,443.82 546.535,441.196 554.455,439.107 562.376,437.559 570.297,436.559 578.218,436.11 586.139,436.214 594.059,436.87 601.98,438.077 609.901,439.829 617.822,442.12 625.743,444.942 633.663,448.284 641.584,452.136 649.505,456.484 657.426,461.314 665.347,466.612 673.267,467.671 681.188,465.79 689.109,465.602 697.03,467.11 704.95,470.298 712.871,475.131 720.792,481.561 728.713,489.524 736.634,498.946 744.554,509.748 752.475,521.843 760.396,535.143 768.317,549.562 776.238,562.86 784.158,570.833 792.079,578.995 " />


<!--Draw the X and Y axes -->
<polyline fill="none" stroke="black" stroke-width="6"  points=" 800,0 0,0 0, 800" />
<polyline fill="none" stroke="black" stroke-width="1"  points=" 0 800  800 800  800 0" />
<!-- -->


<!--Draw labels and tics for X axis -->

<line fill="none" stroke="black"  stroke-width="6"  x1="0.5" y1="0" x2="0.5" y2="-20" />
<text transform="scale(1,-1)" font-family="sans-serif" font-size="30" x="-24.5" y="45" >0</text>
<line fill="none" stroke="black"  stroke-width="6"  x1="158.916" y1="0" x2="158.916" y2="-20" />
<text transform="scale(1,-1)" font-family="sans-serif" font-size="30" x="133.916" y="45" >20</text>
<line fill="none" stroke="black"  stroke-width="6"  x1="317.332" y1="0" x2="317.332" y2="-20" />
<text transform="scale(1,-1)" font-family="sans-serif" font-size="30" x="292.332" y="45" >40</text>
<line fill="none" stroke="black"  stroke-width="6"  x1="475.748" y1="0" x2="475.748" y2="-20" />
<text transform="scale(1,-1)" font-family="sans-serif" font-size="30" x="450.748" y="45" >60</text>
<line fill="none" stroke="black"  stroke-width="6"  x1="634.163" y1="0" x2="634.163" y2="-20" />
<text transform="scale(1,-1)" font-family="sans-serif" font-size="30" x="609.163" y="45" >80</text>
<line fill="none" stroke="black"  stroke-width="6"  x1="792.579" y1="0" x2="792.579" y2="-20" />
<text transform="scale(1,-1)" font-family="sans-serif" font-size="30" x="767.579" y="45" >100</text>


<!--Draw labels and tics for Y axis -->

<line fill="none" stroke="black" stroke-width="6" x1="0.0" y1="0" x2="-20" y2="0" />
<text transform="scale(1,-1)" text-anchor="end" font-family="sans-serif" font-size="30" x="-25" y="10" >0</text>
<line fill="none" stroke="black" stroke-width="6" x1="0.0" y1="133.333" x2="-20" y2="133.333" />
<text transform="scale(1,-1)" text-anchor="end" font-family="sans-serif" font-size="30" x="-25" y="-123.333" >5</text>
<line fill="none" stroke="black" stroke-width="6" x1="0.0" y1="266.667" x2="-20" y2="266.667" />
<text transform="scale(1,-1)" text-anchor="end" font-family="sans-serif" font-size="30" x="-25" y="-256.667" >10</text>
<line fill="none" stroke="black" stroke-width="6" x1="0.0" y1="400" x2="-20" y2="400" />
<text transform="scale(1,-1)" text-anchor="end" font-family="sans-serif" font-size="30" x="-25" y="-390" >15</text>
<line fill="none" stroke="black" stroke-width="6" x1="0.0" y1="533.333" x2="-20" y2="533.333" />
<text transform="scale(1,-1)" text-anchor="end" font-family="sans-serif" font-size="30" x="-25" y="-523.333" >20</text>
<line fill="none" stroke="black" stroke-width="6" x1="0.0" y1="666.667" x2="-20" y2="666.667" />
<text transform="scale(1,-1)" text-anchor="end" font-family="sans-serif" font-size="30" x="-25" y="-656.667" >25</text>
<line fill="none" stroke="black" stroke-width="6" x1="0.0" y1="800" x2="-20" y2="800" />
<text transform="scale(1,-1)" text-anchor="end" font-family="sans-serif" font-size="30" x="-25" y="-790" >30</text>

-->
</g>
</g>
<!-- Run Constants
PRINTDISTANCEDATA bool true
GLITCHESONLY bool false
PERTURBBY double 0.05
GLITCHLEVEL double 3
BOUNDARYWINDOW double 0.065
STEPSPERFRAME int 100
TRIALS int 1
ALLBLACK bool true
FILEPREFIX string Fol
NIGGLISELLINGFIRST bool false
ENABLE DistanceEnableString 
DISABLE DistanceDisableString 
GRAPHSIZE int 0
BORDER int 0
PLOTSIZE int 0
AXISWIDTH int 6
TICLENGTH int 20
VECTOR g6 
FOLLOWERMODE FollowerMode line
FIXRANDOMSEED fixRandomSeed true
RANDOMSEED int 18
TIMESTAMP bool false
END end 


-->
</svg>
