<?xml version="1.0" standalone="no"?>
<!-- the width and height set the total pixel output of the image in the browser -->
<!-- whatever is within the viewbox will be remapped to show in this size -->
<svg width="1000" height="1000" viewBox="1 0 1000 1000"  version="1.1" xmlns="http://www.w3.org/2000/svg" xmlns:xlink="http://www.w3.org/1999/xlink">
 <desc>ID (and file name) = Fol_2018-05-14.13_03_05.49_48.svg </desc> 
 <text x="560" y="30" font-family="sans-serif" font-size="20">Wall time passed: 15495 msec.</text>
<text x="300" y="60"   font-family="sans-serif" font-size="20" fill="lightblue">S6  lightblue</text>
<text x="300" y="85"   font-family="sans-serif" font-size="20" fill="slategrey">NCDist  slategrey</text>
<text x="300" y="110"  font-family="sans-serif" font-size="20" fill="violet">D7  violet</text>
<text x="300" y="135"  font-family="sans-serif" font-size="20" fill="olive">CS6Dist  olive</text>

 <text x="140"  y="30"  font-family="sans-serif" font-size="20" >Fol_2018-05-14.13_03_05.49_48.svg  </text> 


 <!--DISTANCE PLOT BEGINS-->


<!-- the following will scale and place the distance plot -->
<g  transform="translate(0,50) ">
<g transform="translate(150,700) scale(1 -1)">
   <polyline fill="none" stroke=" lightblue " stroke-width=" 12 " points=" 0.6,36.2048 1.2,36.2215 1.8,36.2394 2.4,36.2586 3,36.2792 3.6,36.301 4.2,36.324 4.8,36.3484 5.4,36.374 6,36.401 6.6,36.4292 7.2,36.4587 7.8,36.4895 8.4,36.5215 9,36.5549 9.6,36.5895 10.2,36.6254 10.8,36.6626 11.4,36.7011 12,36.7408 12.6,36.7819 13.2,36.8242 13.8,36.8678 14.4,36.9127 15,36.9588 15.6,37.0063 16.2,37.055 16.8,37.105 17.4,37.1563 18,37.2089 18.6,37.2627 19.2,37.3179 19.8,37.3743 20.4,37.432 21,37.4909 21.6,37.5512 22.2,37.6127 22.8,37.6755 23.4,37.7396 24,37.805 24.6,37.8716 25.2,37.9395 25.8,38.0087 26.4,38.0792 27,38.1509 27.6,38.224 28.2,38.2983 28.8,38.3738 29.4,38.4507 30,38.5288 30.6,38.6082 31.2,38.6889 31.8,38.7709 32.4,38.8541 33,38.9386 33.6,39.0244 34.2,39.1114 34.8,39.1998 35.4,39.2894 36,39.3802 36.6,39.4724 37.2,39.5658 37.8,39.6605 38.4,39.7564 39,39.8537 39.6,39.9522 40.2,40.0519 40.8,40.153 41.4,40.2553 42,40.3589 42.6,40.4637 43.2,40.5699 43.8,40.6772 44.4,40.7859 45,40.8958 45.6,41.007 46.2,41.1195 46.8,41.2332 47.4,41.3482 48,41.4644 48.6,41.5819 49.2,41.7007 49.8,41.8208 50.4,41.9421 51,42.0647 51.6,42.1885 52.2,42.3136 52.8,42.44 53.4,42.5676 54,42.6965 54.6,42.8266 55.2,42.958 55.8,43.0907 56.4,43.2246 57,43.3598 57.6,43.4962 58.2,43.6339 58.8,43.7729 59.4,43.9131 60,44.0546 60.6,44.1973 61.2,44.3413 61.8,44.4865 62.4,44.633 63,44.7807 63.6,44.9297 64.2,45.08 64.8,45.2315 65.4,45.3842 66,45.5382 66.6,45.6935 67.2,45.85 67.8,46.0077 68.4,46.1667 69,46.327 69.6,46.4885 70.2,46.6512 70.8,46.8152 71.4,46.9805 72,47.147 72.6,47.3147 73.2,47.4837 73.8,47.6539 74.4,47.8254 75,47.9981 75.6,48.172 76.2,48.3472 76.8,48.5236 77.4,48.7013 78,48.8802 78.6,49.0604 79.2,49.2417 79.8,49.4244 80.4,49.6082 81,49.7933 81.6,49.9797 82.2,50.1672 82.8,50.356 83.4,50.5461 84,50.7374 84.6,50.9299 85.2,51.1236 85.8,51.3186 86.4,51.5148 87,51.7122 87.6,51.9109 88.2,52.1107 88.8,52.3119 89.4,52.5142 90,52.7178 90.6,52.9226 91.2,53.1286 91.8,53.3358 92.4,53.5443 93,53.754 93.6,53.9649 94.2,54.177 94.8,54.3904 95.4,54.605 96,54.8208 96.6,55.0378 97.2,55.256 97.8,55.4755 98.4,55.6961 99,55.918 99.6,56.1411 100.2,56.3654 100.8,56.5909 101.4,56.8177 102,57.0456 102.6,57.2748 103.2,57.5052 103.8,57.7368 104.4,57.9695 105,58.2035 105.6,58.4388 106.2,58.6752 106.8,58.9128 107.4,59.1516 108,59.3916 108.6,59.6329 109.2,59.8753 109.8,60.1189 110.4,60.3638 111,60.6098 111.6,60.8571 112.2,61.1055 112.8,61.3551 113.4,61.606 114,61.858 114.6,62.1112 115.2,62.3656 115.8,62.6212 116.4,62.878 117,63.136 117.6,63.3952 118.2,63.6556 118.8,63.9172 119.4,64.1799 120,64.4439 120.6,64.709 121.2,64.9753 121.8,65.2428 122.4,65.5115 123,65.7814 123.6,66.0524 124.2,66.3247 124.8,66.5981 125.4,66.8727 126,67.1484 126.6,67.4254 127.2,67.7035 127.8,67.9828 128.4,68.2633 129,68.5449 129.6,68.8278 130.2,69.1118 130.8,69.3969 131.4,69.6833 132,69.9708 132.6,70.2595 133.2,70.5493 133.8,70.8404 134.4,71.1325 135,71.4259 135.6,71.7204 136.2,72.0161 136.8,72.3129 137.4,72.6109 138,72.9101 138.6,73.2104 139.2,73.5119 139.8,73.8145 140.4,74.1183 141,74.4233 141.6,74.7294 142.2,75.0366 142.8,75.345 143.4,75.6546 144,75.9653 144.6,76.2772 145.2,76.5902 145.8,76.9044 146.4,77.2197 147,77.5361 147.6,77.8537 148.2,78.1725 148.8,78.4924 149.4,78.8134 150,79.1356 150.6,79.4589 151.2,79.7833 151.8,80.1089 152.4,80.4357 153,80.7635 153.6,81.0925 154.2,81.4227 154.8,81.7539 155.4,82.0863 156,82.4199 156.6,82.7545 157.2,83.0903 157.8,83.4272 158.4,83.7653 159,84.1045 159.6,84.4447 160.2,84.7862 160.8,85.1287 161.4,85.4724 162,85.8172 162.6,86.1631 163.2,86.5101 163.8,86.8582 164.4,87.2075 165,87.5579 165.6,87.9094 166.2,88.262 166.8,88.6157 167.4,88.9705 168,89.3265 168.6,89.6835 169.2,90.0417 169.8,90.4009 170.4,90.7613 171,91.1228 171.6,91.4853 172.2,91.849 172.8,92.2138 173.4,92.5797 174,92.9467 174.6,93.3148 175.2,93.6839 175.8,94.0542 176.4,94.4256 177,94.7981 177.6,95.1716 178.2,95.5463 178.8,95.922 179.4,96.2988 180,96.6768 180.6,97.0558 181.2,97.4359 181.8,97.817 182.4,98.1993 183,98.5827 183.6,98.9671 184.2,99.3526 184.8,99.7392 185.4,100.127 186,100.516 186.6,100.905 187.2,101.296 187.8,101.688 188.4,102.081 189,102.476 189.6,102.871 190.2,103.267 190.8,103.664 191.4,104.063 192,104.462 192.6,104.863 193.2,105.264 193.8,105.667 194.4,106.071 195,106.475 195.6,106.881 196.2,107.288 196.8,107.696 197.4,108.105 198,108.515 198.6,108.926 199.2,109.339 199.8,109.752 200.4,110.166 201,110.581 201.6,110.998 202.2,111.415 202.8,111.834 203.4,112.253 204,112.674 204.6,113.095 205.2,113.518 205.8,113.942 206.4,114.366 207,114.792 207.6,115.219 208.2,115.647 208.8,116.076 209.4,116.506 210,116.937 210.6,117.368 211.2,117.801 211.8,118.235 212.4,118.671 213,119.107 213.6,119.544 214.2,119.982 214.8,120.421 215.4,120.861 216,121.302 216.6,121.745 217.2,122.188 217.8,122.632 218.4,123.077 219,123.524 219.6,123.971 220.2,124.419 220.8,105.581 221.4,105.374 222,105.167 222.6,104.961 223.2,104.757 223.8,104.553 224.4,104.35 225,104.148 225.6,103.947 226.2,103.747 226.8,103.548 227.4,103.35 228,103.153 228.6,102.957 229.2,102.761 229.8,102.567 230.4,102.373 231,102.181 231.6,101.989 232.2,101.799 232.8,101.609 233.4,101.42 234,101.233 234.6,101.046 235.2,100.86 235.8,100.675 236.4,100.491 237,100.308 237.6,100.126 238.2,99.9446 238.8,99.7644 239.4,99.5852 240,99.4068 240.6,99.2295 241.2,99.0531 241.8,98.8776 242.4,98.7031 243,98.5295 243.6,98.3569 244.2,98.1853 244.8,98.0146 245.4,97.8448 246,97.676 246.6,97.5082 247.2,97.3413 247.8,97.1753 248.4,97.0103 249,96.8463 249.6,96.6832 250.2,96.5211 250.8,96.36 251.4,96.1997 252,96.0405 252.6,95.8822 253.2,95.7249 253.8,95.5685 254.4,95.4131 255,95.2586 255.6,95.1051 256.2,94.9526 256.8,94.801 257.4,94.6504 258,94.5008 258.6,94.3521 259.2,94.2043 259.8,94.0576 260.4,93.9118 261,93.7669 261.6,93.6231 262.2,93.4801 262.8,93.3382 263.4,93.1972 264,93.0572 264.6,92.9181 265.2,92.7801 265.8,92.6429 266.4,92.5068 267,92.3716 267.6,92.2374 268.2,92.1041 268.8,91.9718 269.4,91.8405 270,91.7102 270.6,91.5808 271.2,91.4524 271.8,91.3249 272.4,91.1985 273,91.073 273.6,90.9484 274.2,90.8249 274.8,90.7023 275.4,90.5807 276,90.46 276.6,90.3403 277.2,90.2216 277.8,90.1039 278.4,89.9872 279,89.8714 279.6,89.7566 280.2,89.6427 280.8,89.5299 281.4,89.418 282,89.3071 282.6,89.1971 283.2,89.0882 283.8,88.9802 284.4,88.8732 285,88.7671 285.6,88.6621 286.2,88.558 286.8,88.4549 287.4,88.3528 288,88.2516 288.6,88.1515 289.2,88.0523 289.8,87.9541 290.4,87.8568 291,87.7606 291.6,87.6653 292.2,87.571 292.8,87.4777 293.4,87.3853 294,87.294 294.6,87.2036 295.2,87.1142 295.8,87.0258 296.4,86.9384 297,86.8519 297.6,86.7664 298.2,86.6819 298.8,86.5984 299.4,86.5159 300,86.4344 300.6,86.3538 301.2,86.2742 301.8,86.1956 302.4,86.118 303,86.0414 303.6,85.9657 304.2,85.8911 304.8,85.8174 305.4,85.7447 306,85.673 306.6,85.6023 307.2,85.5326 307.8,85.4638 308.4,85.396 309,85.3293 309.6,85.2635 310.2,85.1986 310.8,85.1348 311.4,85.072 312,85.0101 312.6,84.9493 313.2,84.8894 313.8,84.8305 314.4,84.7726 315,84.7157 315.6,84.6597 316.2,84.6048 316.8,84.5508 317.4,84.4979 318,84.4459 318.6,84.3949 319.2,84.3449 319.8,84.2959 320.4,84.2478 321,84.2008 321.6,84.1548 322.2,84.1097 322.8,84.0656 323.4,84.0225 324,83.9804 324.6,83.9393 325.2,83.8992 325.8,83.8601 326.4,83.822 327,83.7848 327.6,83.7486 328.2,83.7135 328.8,83.6793 329.4,83.6461 330,83.6139 330.6,83.5827 331.2,83.5525 331.8,83.5232 332.4,83.495 333,83.4678 333.6,83.4415 334.2,83.4162 334.8,83.392 335.4,83.3687 336,83.3464 336.6,83.3251 337.2,83.3048 337.8,83.2854 338.4,83.2671 339,83.2498 339.6,83.2334 340.2,83.2181 340.8,83.2037 341.4,83.1903 342,83.178 342.6,83.1666 343.2,83.1562 343.8,83.1467 344.4,83.1383 345,83.1309 345.6,83.1245 346.2,83.119 346.8,83.1146 347.4,83.1111 348,83.1086 348.6,83.1072 349.2,83.1067 349.8,83.1072 350.4,83.1087 351,83.1112 351.6,83.1147 352.2,83.1191 352.8,83.1246 353.4,83.131 354,83.1385 354.6,83.1469 355.2,83.1564 355.8,83.1668 356.4,83.1782 357,83.1906 357.6,83.204 358.2,83.2184 358.8,83.2337 359.4,83.2501 360,83.2675 360.6,83.2858 361.2,83.3052 361.8,83.3255 362.4,83.3468 363,83.3691 363.6,83.3924 364.2,83.4167 364.8,83.442 365.4,83.4683 366,83.4956 366.6,83.5238 367.2,83.5531 367.8,83.5833 368.4,83.6145 369,83.6468 369.6,83.68 370.2,83.7142 370.8,83.7494 371.4,83.7855 372,83.8227 372.6,83.8609 373.2,83.9 373.8,83.9401 374.4,83.9813 375,84.0234 375.6,84.0665 376.2,84.1106 376.8,84.1557 377.4,84.2017 378,84.2488 378.6,84.2968 379.2,84.3459 379.8,84.3959 380.4,84.4469 381,84.4989 381.6,84.5519 382.2,84.6059 382.8,84.6608 383.4,84.7168 384,84.7737 384.6,84.8317 385.2,84.8906 385.8,84.9505 386.4,85.0114 387,85.0732 387.6,85.1361 388.2,85.1999 388.8,85.2648 389.4,85.3306 390,85.3974 390.6,85.4652 391.2,85.5339 391.8,85.6037 392.4,85.6744 393,85.7462 393.6,85.8189 394.2,85.8926 394.8,85.9672 395.4,86.0429 396,86.1196 396.6,86.1972 397.2,86.2758 397.8,86.3554 398.4,86.436 399,86.5175 399.6,86.6001 400.2,86.6836 400.8,86.7681 401.4,86.8536 402,86.9401 402.6,87.0275 403.2,86.9663 403.8,86.6439 404.4,86.3223 405,86.0017 405.6,85.682 406.2,85.3632 406.8,85.0453 407.4,84.7283 408,84.4121 408.6,84.0969 409.2,83.7826 409.8,83.4692 410.4,83.1567 411,82.8451 411.6,82.5344 412.2,82.2246 412.8,81.9157 413.4,81.6077 414,81.3006 414.6,80.9945 415.2,80.6892 415.8,80.3849 416.4,80.0814 417,79.7789 417.6,79.4773 418.2,79.1766 418.8,78.8768 419.4,78.5779 420,78.28 420.6,77.9829 421.2,77.6868 421.8,77.3916 422.4,77.0973 423,76.8039 423.6,76.5115 424.2,76.2199 424.8,75.9293 425.4,75.6396 426,75.3509 426.6,75.063 427.2,74.7761 427.8,74.4901 428.4,74.205 429,73.9209 429.6,73.6377 430.2,73.3554 430.8,73.074 431.4,72.7936 432,72.5141 432.6,72.2355 433.2,71.9579 433.8,71.6812 434.4,71.4054 435,71.1306 435.6,70.8567 436.2,70.5837 436.8,70.3116 437.4,70.0405 438,69.7704 438.6,69.5011 439.2,69.2328 439.8,68.9655 440.4,68.6991 441,68.4336 441.6,68.1691 442.2,67.9055 442.8,67.6428 443.4,67.3811 444,67.1204 444.6,66.8605 445.2,66.6017 445.8,66.3437 446.4,66.0868 447,65.8307 447.6,65.5756 448.2,65.3215 448.8,65.0683 449.4,64.8161 450,64.5648 450.6,64.3144 451.2,64.065 451.8,63.8166 452.4,63.5691 453,63.3226 453.6,63.077 454.2,62.8324 454.8,62.5887 455.4,62.346 456,62.1042 456.6,61.8635 457.2,61.6236 457.8,61.3847 458.4,61.1468 459,60.9098 459.6,60.6738 460.2,60.4388 460.8,60.2047 461.4,59.9716 462,59.7395 462.6,59.5083 463.2,59.278 463.8,59.0488 464.4,58.8205 465,58.5931 465.6,58.3668 466.2,58.1414 466.8,57.917 467.4,57.6935 468,57.471 468.6,57.2495 469.2,57.0289 469.8,56.8094 470.4,56.5907 471,56.3731 471.6,56.1564 472.2,55.9407 472.8,55.726 473.4,55.5123 474,55.2995 474.6,55.0877 475.2,54.8769 475.8,54.6671 476.4,54.4582 477,54.2503 477.6,54.0434 478.2,53.8375 478.8,53.6325 479.4,53.4285 480,53.2256 480.6,53.0235 481.2,52.8225 481.8,52.6225 482.4,52.4234 483,52.2253 483.6,52.0282 484.2,51.8321 484.8,51.637 485.4,51.4428 486,51.2497 486.6,51.0575 487.2,50.8663 487.8,50.6761 488.4,50.4869 489,50.2987 489.6,50.1115 490.2,49.9252 490.8,49.74 491.4,49.5557 492,49.3725 492.6,49.1902 493.2,49.0089 493.8,48.8286 494.4,48.6493 495,48.471 495.6,48.2937 496.2,48.1174 496.8,47.9421 497.4,47.7677 498,47.5944 498.6,47.4221 499.2,47.2507 499.8,47.0804 500.4,46.911 501,46.7427 501.6,46.5753 502.2,46.409 502.8,46.2437 503.4,46.0793 504,45.916 504.6,45.7536 505.2,45.5923 505.8,45.4319 506.4,45.2726 507,45.1143 507.6,44.9569 508.2,44.8006 508.8,44.6453 509.4,44.491 510,44.3377 510.6,44.1853 511.2,44.034 511.8,43.8837 512.4,43.7345 513,43.5862 513.6,43.4389 514.2,43.2926 514.8,43.1474 515.4,43.0031 516,42.8599 516.6,42.7177 517.2,42.5764 517.8,42.4362 518.4,42.297 519,42.1589 519.6,42.0217 520.2,41.8855 520.8,41.7504 521.4,41.6162 522,41.4831 522.6,41.351 523.2,41.2199 523.8,41.0898 524.4,40.9608 525,40.8327 525.6,40.7057 526.2,40.5797 526.8,40.4546 527.4,40.3307 528,40.2077 528.6,40.0857 529.2,39.9648 529.8,39.8449 530.4,39.726 531,39.6081 531.6,39.4912 532.2,39.3754 532.8,39.2606 533.4,39.1468 534,39.034 534.6,38.9222 535.2,38.8115 535.8,38.7018 536.4,38.5931 537,38.4854 537.6,38.3787 538.2,38.2731 538.8,38.1685 539.4,38.0649 540,37.9624 540.6,37.8608 541.2,28.5049 541.8,28.8469 542.4,29.1905 543,29.5358 543.6,29.8827 544.2,30.2312 544.8,30.5814 545.4,30.9331 546,31.2865 546.6,31.6415 547.2,31.9981 547.8,32.3563 548.4,32.7161 549,33.0776 549.6,33.4406 550.2,33.8053 550.8,34.1715 551.4,34.5394 552,34.9088 552.6,35.2799 553.2,35.6526 553.8,36.0268 554.4,36.4027 555,36.7801 555.6,37.1591 556.2,37.5398 556.8,37.922 557.4,38.3058 558,38.6912 558.6,39.0781 559.2,39.4667 559.8,39.8568 560.4,40.2485 561,40.6418 561.6,41.0366 562.2,41.4331 562.8,41.8311 563.4,42.2306 564,42.6318 564.6,43.0345 565.2,43.4387 565.8,43.8446 566.4,44.2519 567,44.6609 567.6,45.0714 568.2,45.4834 568.8,45.897 569.4,46.3122 570,46.7289 570.6,47.1472 571.2,47.567 571.8,47.9883 572.4,48.4112 573,48.8356 573.6,49.2616 574.2,49.6891 574.8,50.1181 575.4,50.5487 576,50.9808 576.6,51.4145 577.2,51.8496 577.8,52.2863 578.4,52.7245 579,53.1642 579.6,53.6055 580.2,54.0483 580.8,54.4925 581.4,54.9383 582,55.3857 582.6,55.8345 583.2,56.2848 583.8,56.7367 584.4,57.19 585,57.6449 585.6,58.1012 586.2,58.5591 586.8,59.0184 587.4,58.2161 588,57.1612 588.6,56.1069 589.2,55.0532 589.8,54.0003 590.4,52.948 591,51.8964 591.6,50.8454 592.2,49.7952 592.8,48.7456 593.4,47.6967 594,46.6486 594.6,45.601 595.2,44.5542 595.8,43.5081 596.4,42.4627 597,41.4179 597.6,40.3739 598.2,39.3306 598.8,38.2879 599.4,37.246 600,36.2048 " />
   <polyline fill="none" stroke=" slategrey " stroke-width=" 9 " points=" " />
   <polyline fill="none" stroke=" violet " stroke-width=" 6 " points=" " />
   <polyline fill="none" stroke=" olive " stroke-width=" 3 " points=" 0.6,248.072 1.2,248.814 1.8,249.556 2.4,250.298 3,251.042 3.6,251.786 4.2,252.53 4.8,253.276 5.4,254.021 6,254.768 6.6,255.515 7.2,256.263 7.8,257.011 8.4,257.76 9,258.51 9.6,259.26 10.2,260.011 10.8,260.763 11.4,261.515 12,262.268 12.6,263.021 13.2,263.775 13.8,264.53 14.4,265.285 15,266.041 15.6,266.797 16.2,267.554 16.8,268.312 17.4,269.07 18,269.829 18.6,270.589 19.2,271.349 19.8,272.11 20.4,272.871 21,273.633 21.6,274.395 22.2,275.159 22.8,275.922 23.4,276.687 24,277.452 24.6,278.217 25.2,278.983 25.8,279.75 26.4,280.518 27,281.285 27.6,282.054 28.2,282.823 28.8,283.593 29.4,284.363 30,285.134 30.6,285.906 31.2,286.678 31.8,287.45 32.4,288.224 33,288.997 33.6,289.772 34.2,290.547 34.8,291.322 35.4,292.098 36,292.875 36.6,293.653 37.2,294.43 37.8,295.209 38.4,295.988 39,296.768 39.6,297.548 40.2,298.328 40.8,299.11 41.4,299.892 42,300.674 42.6,301.457 43.2,302.241 43.8,303.025 44.4,303.81 45,304.595 45.6,305.381 46.2,306.167 46.8,306.954 47.4,307.742 48,308.53 48.6,309.318 49.2,310.108 49.8,310.897 50.4,311.688 51,312.479 51.6,313.27 52.2,314.062 52.8,314.855 53.4,315.648 54,316.441 54.6,317.236 55.2,318.03 55.8,318.825 56.4,319.621 57,320.418 57.6,321.215 58.2,322.012 58.8,322.81 59.4,323.609 60,324.408 60.6,325.207 61.2,326.007 61.8,326.808 62.4,327.609 63,328.411 63.6,329.213 64.2,330.016 64.8,330.819 65.4,331.623 66,332.428 66.6,333.233 67.2,334.038 67.8,334.844 68.4,335.651 69,336.458 69.6,337.265 70.2,338.073 70.8,338.882 71.4,339.691 72,340.501 72.6,341.311 73.2,342.122 73.8,342.933 74.4,343.744 75,344.557 75.6,345.369 76.2,346.183 76.8,346.997 77.4,347.811 78,348.626 78.6,349.441 79.2,350.257 79.8,351.073 80.4,351.89 81,352.707 81.6,353.525 82.2,354.344 82.8,355.162 83.4,355.982 84,356.802 84.6,357.622 85.2,358.443 85.8,359.264 86.4,360.086 87,360.908 87.6,361.731 88.2,362.555 88.8,363.379 89.4,364.203 90,365.028 90.6,365.853 91.2,366.679 91.8,367.505 92.4,368.332 93,369.159 93.6,369.987 94.2,370.815 94.8,371.644 95.4,372.473 96,373.265 96.6,373.978 97.2,374.691 97.8,375.405 98.4,376.119 99,376.834 99.6,377.55 100.2,378.266 100.8,378.983 101.4,379.7 102,380.418 102.6,381.137 103.2,381.856 103.8,382.576 104.4,383.296 105,384.018 105.6,384.739 106.2,385.461 106.8,386.184 107.4,386.908 108,387.632 108.6,388.356 109.2,389.082 109.8,389.808 110.4,390.534 111,391.261 111.6,391.989 112.2,392.717 112.8,393.446 113.4,394.175 114,394.905 114.6,395.636 115.2,396.367 115.8,397.098 116.4,397.831 117,398.564 117.6,399.297 118.2,400.031 118.8,400.766 119.4,401.501 120,402.237 120.6,402.973 121.2,403.71 121.8,404.447 122.4,405.186 123,405.924 123.6,406.663 124.2,407.403 124.8,408.144 125.4,408.885 126,409.626 126.6,410.368 127.2,411.111 127.8,411.854 128.4,412.598 129,413.342 129.6,414.087 130.2,414.832 130.8,415.578 131.4,416.325 132,417.072 132.6,417.82 133.2,418.568 133.8,419.317 134.4,420.066 135,420.816 135.6,421.567 136.2,422.318 136.8,423.07 137.4,423.822 138,424.574 138.6,425.328 139.2,426.081 139.8,426.836 140.4,427.591 141,428.346 141.6,429.102 142.2,429.859 142.8,430.616 143.4,431.373 144,432.132 144.6,432.89 145.2,433.65 145.8,434.409 146.4,435.17 147,435.931 147.6,436.692 148.2,437.454 148.8,438.216 149.4,438.979 150,439.743 150.6,440.507 151.2,441.272 151.8,442.037 152.4,442.803 153,443.569 153.6,444.336 154.2,445.103 154.8,445.871 155.4,446.639 156,447.408 156.6,448.177 157.2,448.947 157.8,449.718 158.4,450.489 159,451.26 159.6,452.032 160.2,452.805 160.8,453.578 161.4,454.351 162,455.125 162.6,455.9 163.2,456.675 163.8,457.451 164.4,458.227 165,459.003 165.6,459.78 166.2,460.558 166.8,461.336 167.4,462.115 168,462.894 168.6,463.674 169.2,464.454 169.8,465.235 170.4,466.016 171,466.798 171.6,467.58 172.2,468.363 172.8,469.146 173.4,469.93 174,470.714 174.6,471.499 175.2,472.284 175.8,473.07 176.4,473.856 177,474.643 177.6,475.43 178.2,476.218 178.8,477.007 179.4,477.795 180,478.585 180.6,479.374 181.2,480.165 181.8,480.955 182.4,481.746 183,482.538 183.6,483.33 184.2,484.123 184.8,484.916 185.4,485.71 186,486.504 186.6,487.299 187.2,488.094 187.8,488.889 188.4,489.686 189,490.482 189.6,491.279 190.2,492.077 190.8,492.875 191.4,493.673 192,494.472 192.6,495.272 193.2,496.072 193.8,496.872 194.4,497.673 195,498.474 195.6,499.276 196.2,500.078 196.8,500.881 197.4,501.684 198,502.488 198.6,503.292 199.2,504.097 199.8,504.902 200.4,505.708 201,506.514 201.6,507.32 202.2,508.127 202.8,508.935 203.4,509.743 204,510.551 204.6,511.36 205.2,512.169 205.8,512.979 206.4,513.789 207,514.6 207.6,515.411 208.2,516.223 208.8,517.035 209.4,517.848 210,518.661 210.6,519.474 211.2,520.288 211.8,521.102 212.4,521.917 213,522.733 213.6,523.548 214.2,524.364 214.8,525.181 215.4,525.998 216,526.816 216.6,527.634 217.2,528.452 217.8,529.271 218.4,530.09 219,530.91 219.6,531.73 220.2,532.551 220.8,522.271 221.4,521.617 222,520.963 222.6,520.309 223.2,519.656 223.8,519.003 224.4,518.351 225,517.699 225.6,517.048 226.2,516.397 226.8,515.746 227.4,515.096 228,514.447 228.6,513.797 229.2,513.149 229.8,512.5 230.4,511.853 231,511.205 231.6,510.558 232.2,509.912 232.8,509.266 233.4,508.62 234,507.975 234.6,507.33 235.2,506.686 235.8,506.042 236.4,505.398 237,504.755 237.6,504.113 238.2,503.471 238.8,502.829 239.4,502.188 240,501.547 240.6,500.907 241.2,500.267 241.8,499.628 242.4,498.989 243,498.351 243.6,497.713 244.2,497.075 244.8,496.438 245.4,495.802 246,495.165 246.6,494.53 247.2,493.894 247.8,493.26 248.4,492.625 249,491.992 249.6,491.358 250.2,490.725 250.8,490.093 251.4,489.461 252,488.829 252.6,488.198 253.2,487.567 253.8,486.937 254.4,486.308 255,485.678 255.6,485.05 256.2,484.421 256.8,483.794 257.4,483.166 258,482.539 258.6,481.913 259.2,481.287 259.8,480.661 260.4,480.036 261,479.412 261.6,478.788 262.2,478.164 262.8,477.541 263.4,476.919 264,476.296 264.6,475.675 265.2,475.054 265.8,474.433 266.4,473.813 267,473.193 267.6,472.573 268.2,471.955 268.8,471.336 269.4,470.718 270,470.101 270.6,469.484 271.2,468.868 271.8,468.252 272.4,467.636 273,467.021 273.6,466.407 274.2,465.793 274.8,465.179 275.4,464.566 276,463.954 276.6,463.342 277.2,462.73 277.8,462.119 278.4,461.509 279,460.898 279.6,460.289 280.2,459.68 280.8,459.071 281.4,458.463 282,457.855 282.6,457.248 283.2,456.642 283.8,456.035 284.4,455.43 285,454.825 285.6,454.22 286.2,453.616 286.8,453.012 287.4,452.409 288,451.806 288.6,451.204 289.2,450.602 289.8,450.001 290.4,449.4 291,448.8 291.6,448.201 292.2,447.601 292.8,447.003 293.4,446.405 294,445.807 294.6,445.21 295.2,444.613 295.8,444.017 296.4,443.421 297,442.826 297.6,442.232 298.2,441.638 298.8,441.044 299.4,440.451 300,439.858 300.6,439.266 301.2,438.675 301.8,438.084 302.4,437.493 303,436.903 303.6,436.314 304.2,435.725 304.8,435.136 305.4,434.548 306,433.961 306.6,433.374 307.2,432.788 307.8,432.202 308.4,431.616 309,431.031 309.6,430.447 310.2,429.863 310.8,429.28 311.4,428.697 312,428.115 312.6,427.533 313.2,426.952 313.8,426.372 314.4,425.792 315,425.212 315.6,424.633 316.2,424.054 316.8,423.476 317.4,422.899 318,422.322 318.6,421.745 319.2,421.17 319.8,420.594 320.4,420.019 321,419.445 321.6,418.871 322.2,418.298 322.8,417.725 323.4,417.153 324,416.582 324.6,416.011 325.2,415.44 325.8,414.87 326.4,414.301 327,413.732 327.6,413.163 328.2,412.595 328.8,412.028 329.4,411.461 330,410.895 330.6,410.329 331.2,409.764 331.8,409.2 332.4,408.636 333,408.072 333.6,407.509 334.2,406.947 334.8,406.385 335.4,405.824 336,405.263 336.6,404.703 337.2,404.143 337.8,403.584 338.4,403.025 339,402.467 339.6,401.91 340.2,401.353 340.8,400.797 341.4,400.241 342,399.686 342.6,399.131 343.2,398.577 343.8,398.023 344.4,397.47 345,396.918 345.6,396.366 346.2,395.815 346.8,395.264 347.4,394.714 348,394.164 348.6,393.615 349.2,393.066 349.8,392.518 350.4,391.971 351,391.424 351.6,390.878 352.2,390.332 352.8,389.787 353.4,389.243 354,388.699 354.6,388.155 355.2,387.612 355.8,387.07 356.4,386.528 357,385.798 357.6,385.054 358.2,384.309 358.8,383.565 359.4,382.821 360,382.078 360.6,381.335 361.2,380.592 361.8,379.85 362.4,379.109 363,378.367 363.6,377.626 364.2,376.886 364.8,376.145 365.4,375.406 366,374.666 366.6,373.927 367.2,373.189 367.8,372.45 368.4,371.713 369,370.975 369.6,370.238 370.2,369.502 370.8,368.765 371.4,368.03 372,367.294 372.6,366.559 373.2,365.825 373.8,365.09 374.4,364.357 375,363.623 375.6,362.89 376.2,362.158 376.8,361.425 377.4,360.694 378,359.962 378.6,359.231 379.2,358.501 379.8,357.771 380.4,357.041 381,356.312 381.6,355.583 382.2,354.854 382.8,354.126 383.4,353.399 384,352.671 384.6,351.945 385.2,351.218 385.8,350.492 386.4,349.767 387,349.041 387.6,348.317 388.2,347.592 388.8,346.868 389.4,346.145 390,345.422 390.6,344.699 391.2,343.977 391.8,343.255 392.4,342.534 393,341.813 393.6,341.093 394.2,340.372 394.8,339.653 395.4,338.934 396,338.215 396.6,337.496 397.2,336.778 397.8,336.061 398.4,335.344 399,334.627 399.6,333.911 400.2,333.195 400.8,332.48 401.4,331.765 402,331.05 402.6,330.336 403.2,329.623 403.8,328.91 404.4,328.197 405,327.484 405.6,326.773 406.2,326.061 406.8,325.35 407.4,324.64 408,323.93 408.6,323.22 409.2,322.511 409.8,321.802 410.4,321.094 411,320.386 411.6,319.678 412.2,318.971 412.8,318.265 413.4,317.559 414,316.853 414.6,316.148 415.2,315.443 415.8,314.739 416.4,314.035 417,313.332 417.6,312.629 418.2,311.926 418.8,311.224 419.4,310.522 420,309.821 420.6,309.121 421.2,308.421 421.8,307.721 422.4,307.021 423,306.323 423.6,305.624 424.2,304.926 424.8,304.229 425.4,303.532 426,302.835 426.6,302.139 427.2,301.444 427.8,300.749 428.4,300.054 429,299.36 429.6,298.666 430.2,297.973 430.8,297.28 431.4,296.588 432,295.896 432.6,295.204 433.2,294.514 433.8,293.823 434.4,293.133 435,292.444 435.6,291.755 436.2,291.066 436.8,290.378 437.4,289.69 438,289.003 438.6,288.317 439.2,287.631 439.8,286.945 440.4,286.26 441,285.575 441.6,284.891 442.2,284.207 442.8,283.524 443.4,282.841 444,282.159 444.6,281.477 445.2,280.796 445.8,280.115 446.4,279.434 447,278.755 447.6,278.075 448.2,277.396 448.8,276.718 449.4,276.04 450,275.363 450.6,274.686 451.2,274.009 451.8,273.333 452.4,272.658 453,271.983 453.6,271.309 454.2,270.635 454.8,269.961 455.4,269.288 456,268.616 456.6,267.944 457.2,267.273 457.8,266.602 458.4,265.931 459,265.261 459.6,264.592 460.2,263.923 460.8,263.255 461.4,262.587 462,261.919 462.6,261.253 463.2,260.586 463.8,259.92 464.4,259.255 465,258.59 465.6,257.926 466.2,257.262 466.8,256.599 467.4,255.936 468,255.274 468.6,254.612 469.2,253.951 469.8,253.29 470.4,252.63 471,251.97 471.6,251.311 472.2,250.653 472.8,249.995 473.4,249.337 474,248.68 474.6,248.023 475.2,247.367 475.8,246.712 476.4,246.057 477,245.403 477.6,244.749 478.2,244.095 478.8,243.443 479.4,242.79 480,242.139 480.6,241.487 481.2,240.837 481.8,240.187 482.4,239.537 483,238.888 483.6,238.239 484.2,237.591 484.8,236.944 485.4,236.297 486,235.651 486.6,235.005 487.2,234.359 487.8,233.715 488.4,233.071 489,232.427 489.6,231.784 490.2,231.141 490.8,230.499 491.4,229.858 492,229.217 492.6,228.576 493.2,227.937 493.8,227.297 494.4,226.659 495,226.02 495.6,225.383 496.2,224.746 496.8,224.109 497.4,223.473 498,222.838 498.6,222.203 499.2,221.569 499.8,220.935 500.4,220.302 501,219.669 501.6,219.037 502.2,218.406 502.8,217.775 503.4,217.145 504,216.515 504.6,215.886 505.2,215.257 505.8,214.629 506.4,214.002 507,213.375 507.6,212.748 508.2,212.123 508.8,211.497 509.4,210.873 510,210.249 510.6,209.625 511.2,209.002 511.8,208.38 512.4,207.758 513,207.137 513.6,206.516 514.2,205.896 514.8,205.277 515.4,204.658 516,204.04 516.6,203.422 517.2,202.805 517.8,202.189 518.4,201.573 519,200.957 519.6,200.343 520.2,199.729 520.8,199.115 521.4,198.502 522,197.89 522.6,197.278 523.2,196.667 523.8,196.056 524.4,195.446 525,194.837 525.6,194.228 526.2,193.62 526.8,193.012 527.4,192.405 528,191.799 528.6,191.193 529.2,190.588 529.8,189.983 530.4,189.379 531,188.776 531.6,188.173 532.2,187.571 532.8,186.969 533.4,186.368 534,185.768 534.6,185.168 535.2,184.569 535.8,183.971 536.4,183.373 537,182.775 537.6,182.179 538.2,181.583 538.8,180.987 539.4,180.393 540,179.798 540.6,179.205 541.2,207.161 541.8,207.513 542.4,207.867 543,208.222 543.6,208.578 544.2,208.936 544.8,209.295 545.4,209.655 546,210.017 546.6,210.38 547.2,210.745 547.8,211.111 548.4,211.478 549,211.847 549.6,212.217 550.2,212.589 550.8,212.961 551.4,213.336 552,213.711 552.6,214.088 553.2,214.466 553.8,214.846 554.4,215.227 555,215.61 555.6,215.993 556.2,216.378 556.8,216.765 557.4,217.153 558,217.542 558.6,217.932 559.2,218.324 559.8,218.718 560.4,219.112 561,219.508 561.6,219.905 562.2,220.304 562.8,220.704 563.4,221.105 564,221.508 564.6,221.912 565.2,222.317 565.8,222.724 566.4,223.132 567,223.541 567.6,223.952 568.2,224.364 568.8,224.777 569.4,225.192 570,225.608 570.6,226.025 571.2,226.444 571.8,226.864 572.4,227.285 573,227.708 573.6,228.132 574.2,228.557 574.8,228.984 575.4,229.411 576,229.841 576.6,230.271 577.2,230.703 577.8,231.136 578.4,231.571 579,232.006 579.6,232.444 580.2,232.882 580.8,233.322 581.4,233.763 582,234.205 582.6,234.648 583.2,235.093 583.8,235.54 584.4,235.987 585,236.436 585.6,236.886 586.2,237.337 586.8,237.79 587.4,238.244 588,238.699 588.6,239.156 589.2,239.613 589.8,240.073 590.4,240.533 591,240.995 591.6,241.458 592.2,241.922 592.8,242.387 593.4,242.854 594,243.322 594.6,243.791 595.2,244.262 595.8,244.734 596.4,245.207 597,245.681 597.6,246.157 598.2,246.634 598.8,247.112 599.4,247.592 600,248.072 " />

<!--Draw the X and Y axes -->
<polyline fill="none" stroke="black" stroke-width="6"  points=" 600,0 0,0 0, 600" />
<polyline fill="none" stroke="black" stroke-width="1"  points=" 0 600  600 600  600 0" />
<!-- -->


<!--Draw labels and tics for X axis -->

<line fill="none" stroke="black"  stroke-width="6"  x1="0.5" y1="0" x2="0.5" y2="-20" />
<text transform="scale(1,-1)" font-family="sans-serif" font-size="30" x="-24.5" y="45" >0</text>
<line fill="none" stroke="black"  stroke-width="6"  x1="120.5" y1="0" x2="120.5" y2="-20" />
<text transform="scale(1,-1)" font-family="sans-serif" font-size="30" x="95.5" y="45" >200</text>
<line fill="none" stroke="black"  stroke-width="6"  x1="240.5" y1="0" x2="240.5" y2="-20" />
<text transform="scale(1,-1)" font-family="sans-serif" font-size="30" x="215.5" y="45" >400</text>
<line fill="none" stroke="black"  stroke-width="6"  x1="360.5" y1="0" x2="360.5" y2="-20" />
<text transform="scale(1,-1)" font-family="sans-serif" font-size="30" x="335.5" y="45" >600</text>
<line fill="none" stroke="black"  stroke-width="6"  x1="480.5" y1="0" x2="480.5" y2="-20" />
<text transform="scale(1,-1)" font-family="sans-serif" font-size="30" x="455.5" y="45" >800</text>
<line fill="none" stroke="black"  stroke-width="6"  x1="600.5" y1="0" x2="600.5" y2="-20" />
<text transform="scale(1,-1)" font-family="sans-serif" font-size="30" x="575.5" y="45" >1000</text>


<!--Draw labels and tics for Y axis -->

<line fill="none" stroke="black" stroke-width="6" x1="0.0" y1="0" x2="-20" y2="0" />
<text transform="scale(1,-1)" text-anchor="end" font-family="sans-serif" font-size="30" x="-25" y="10" >24</text>
<line fill="none" stroke="black" stroke-width="6" x1="0.0" y1="85.7143" x2="-20" y2="85.7143" />
<text transform="scale(1,-1)" text-anchor="end" font-family="sans-serif" font-size="30" x="-25" y="-75.7143" >26</text>
<line fill="none" stroke="black" stroke-width="6" x1="0.0" y1="171.429" x2="-20" y2="171.429" />
<text transform="scale(1,-1)" text-anchor="end" font-family="sans-serif" font-size="30" x="-25" y="-161.429" >28</text>
<line fill="none" stroke="black" stroke-width="6" x1="0.0" y1="257.143" x2="-20" y2="257.143" />
<text transform="scale(1,-1)" text-anchor="end" font-family="sans-serif" font-size="30" x="-25" y="-247.143" >30</text>
<line fill="none" stroke="black" stroke-width="6" x1="0.0" y1="342.857" x2="-20" y2="342.857" />
<text transform="scale(1,-1)" text-anchor="end" font-family="sans-serif" font-size="30" x="-25" y="-332.857" >32</text>
<line fill="none" stroke="black" stroke-width="6" x1="0.0" y1="428.571" x2="-20" y2="428.571" />
<text transform="scale(1,-1)" text-anchor="end" font-family="sans-serif" font-size="30" x="-25" y="-418.571" >34</text>
<line fill="none" stroke="black" stroke-width="6" x1="0.0" y1="514.286" x2="-20" y2="514.286" />
<text transform="scale(1,-1)" text-anchor="end" font-family="sans-serif" font-size="30" x="-25" y="-504.286" >36</text>
<line fill="none" stroke="black" stroke-width="6" x1="0.0" y1="600" x2="-20" y2="600" />
<text transform="scale(1,-1)" text-anchor="end" font-family="sans-serif" font-size="30" x="-25" y="-590" >38</text>

-->
</g>
</g>
<!-- Run Constants
CIRCLEPLOT bool false
DISTANCEPLOT bool true
PRINTDISTANCEDATA bool true
GLITCHESONLY bool false
PLOT 2doubles 3 4
PERTURBBY double 0.05
GLITCHLEVEL double 3
BOUNDARYWINDOW double 0.065
FRAMESPERPATH int 200
STEPSPERFRAME int 1000
TRIALS int 1
ALLBLACK bool true
FILEPREFIX string Fol
GRAPHSIZE int 0
BORDER int 0
PLOTSIZE int 0
G6LINEWIDTH int 3
DELONELINEWIDTH int 10
AXISWIDTH int 6
TICLENGTH int 20
VECTOR g6 
FOLLOWERMODE FollowerMode line
FIXRANDOMSEED fixRandomSeed false
RANDOMSEED int 19191
TIMESTAMP bool true
END end 




-->
</svg>
