<?xml version="1.0" standalone="no"?>
<!-- the width and height set the total pixel output of the image in the browser -->
<!-- whatever is within the viewbox will be remapped to show in this size -->
<svg width="900" height="800" viewBox="1 0 900 800"  version="1.1" xmlns="http://www.w3.org/2000/svg" xmlns:xlink="http://www.w3.org/1999/xlink">
 <desc>ID (and file name) = Fol_2018-05-16.16_23_52.68_67.svg </desc> 
<text x = "-750" y="50" transform="rotate(-90)"  font-family="sans-serif" font-size="40" stroke ="lightgray" fill="none"> PointDistanceFollower   May 16 2018</text>
 <text x="560" y="30" font-family="sans-serif" font-size="20">Wall time passed: 1555 msec.</text>
<text x="300" y="60"   font-family="sans-serif" font-size="20" fill="lightblue">S6  lightblue</text>
<text x="300" y="85"   font-family="sans-serif" font-size="20" fill="slategrey">NCDist  slategrey</text>
<text x="300" y="110"  font-family="sans-serif" font-size="20" fill="violet">D7  violet</text>
<text x="300" y="135"  font-family="sans-serif" font-size="20" fill="olive">CS6Dist  olive</text>

 <text x="140"  y="30"  font-family="sans-serif" font-size="20" >Fol_2018-05-16.16_23_52.68_67.svg  </text> 


 <!--DISTANCE PLOT BEGINS-->


<!-- the following will scale and place the distance plot -->
<g  transform="translate(0, 50) ">
<g transform="translate(150,700) scale(1 -1)">
<line fill="none" stroke="lightblue" stroke-width="12" x1="0" y1="81.7943" x2="5.94059" y2="81.7943" />
<line fill="none" stroke="lightblue" stroke-width="12" x1="5.94059" y1="81.7943" x2="11.8812" y2="63.3583" />
<line fill="none" stroke="lightblue" stroke-width="12" x1="11.8812" y1="63.3583" x2="17.8218" y2="50.4695" />
<line fill="none" stroke="lightblue" stroke-width="12" x1="17.8218" y1="50.4695" x2="23.7624" y2="43.8197" />
<line fill="none" stroke="lightblue" stroke-width="12" x1="23.7624" y1="43.8197" x2="29.703" y2="43.8098" />
<line fill="none" stroke="lightblue" stroke-width="12" x1="29.703" y1="43.8098" x2="35.6436" y2="50.4406" />
<line fill="none" stroke="lightblue" stroke-width="12" x1="35.6436" y1="50.4406" x2="41.5842" y2="63.312" />
<line fill="none" stroke="lightblue" stroke-width="12" x1="41.5842" y1="63.312" x2="47.5248" y2="81.733" />
<line fill="none" stroke="lightblue" stroke-width="12" x1="47.5248" y1="81.733" x2="53.4653" y2="104.879" />
<line fill="none" stroke="lightblue" stroke-width="12" x1="53.4653" y1="104.879" x2="59.4059" y2="131.928" />
<line fill="none" stroke="lightblue" stroke-width="12" x1="59.4059" y1="131.928" x2="65.3465" y2="162.142" />
<line fill="none" stroke="lightblue" stroke-width="12" x1="65.3465" y1="162.142" x2="71.2871" y2="194.899" />
<line fill="none" stroke="lightblue" stroke-width="12" x1="71.2871" y1="194.899" x2="77.2277" y2="229.697" />
<line fill="none" stroke="lightblue" stroke-width="12" x1="77.2277" y1="229.697" x2="83.1683" y2="250.644" />
<line fill="none" stroke="lightblue" stroke-width="12" x1="83.1683" y1="250.644" x2="89.1089" y2="271.302" />
<line fill="none" stroke="lightblue" stroke-width="12" x1="89.1089" y1="271.302" x2="95.0495" y2="294.918" />
<line fill="none" stroke="lightblue" stroke-width="12" x1="95.0495" y1="294.918" x2="100.99" y2="321.136" />
<line fill="none" stroke="lightblue" stroke-width="12" x1="100.99" y1="321.136" x2="106.931" y2="349.624" />
<line fill="none" stroke="lightblue" stroke-width="12" x1="106.931" y1="349.624" x2="112.871" y2="380.082" />
<line fill="none" stroke="lightblue" stroke-width="12" x1="112.871" y1="380.082" x2="118.812" y2="407.19" />
<line fill="none" stroke="lightblue" stroke-width="12" x1="118.812" y1="407.19" x2="124.752" y2="434.919" />
<line fill="none" stroke="lightblue" stroke-width="12" x1="124.752" y1="434.919" x2="130.693" y2="464.567" />
<line fill="none" stroke="lightblue" stroke-width="12" x1="130.693" y1="464.567" x2="136.634" y2="495.911" />
<line fill="none" stroke="lightblue" stroke-width="12" x1="136.634" y1="495.911" x2="142.574" y2="528.749" />
<line fill="none" stroke="lightblue" stroke-width="12" x1="142.574" y1="528.749" x2="148.515" y2="562.906" />
<line fill="none" stroke="lightblue" stroke-width="12" x1="148.515" y1="562.906" x2="154.455" y2="563.249" />
<line fill="none" stroke="lightblue" stroke-width="12" x1="154.455" y1="563.249" x2="160.396" y2="561.37" />
<line fill="none" stroke="lightblue" stroke-width="12" x1="160.396" y1="561.37" x2="166.337" y2="554.754" />
<line fill="none" stroke="lightblue" stroke-width="12" x1="166.337" y1="554.754" x2="172.277" y2="548.669" />
<line fill="none" stroke="lightblue" stroke-width="12" x1="172.277" y1="548.669" x2="178.218" y2="543.549" />
<line fill="none" stroke="lightblue" stroke-width="12" x1="178.218" y1="543.549" x2="184.158" y2="538.948" />
<line fill="none" stroke="lightblue" stroke-width="12" x1="184.158" y1="538.948" x2="190.099" y2="535.142" />
<line fill="none" stroke="lightblue" stroke-width="12" x1="190.099" y1="535.142" x2="196.04" y2="532.343" />
<line fill="none" stroke="lightblue" stroke-width="12" x1="196.04" y1="532.343" x2="201.98" y2="530.561" />
<line fill="none" stroke="lightblue" stroke-width="12" x1="201.98" y1="530.561" x2="207.921" y2="529.804" />
<line fill="none" stroke="lightblue" stroke-width="12" x1="207.921" y1="529.804" x2="213.861" y2="524.011" />
<line fill="none" stroke="lightblue" stroke-width="12" x1="213.861" y1="524.011" x2="219.802" y2="516.095" />
<line fill="none" stroke="lightblue" stroke-width="12" x1="219.802" y1="516.095" x2="225.743" y2="508.867" />
<line fill="none" stroke="lightblue" stroke-width="12" x1="225.743" y1="508.867" x2="231.683" y2="502.348" />
<line fill="none" stroke="lightblue" stroke-width="12" x1="231.683" y1="502.348" x2="237.624" y2="496.555" />
<line fill="none" stroke="lightblue" stroke-width="12" x1="237.624" y1="496.555" x2="243.564" y2="491.506" />
<line fill="none" stroke="lightblue" stroke-width="12" x1="243.564" y1="491.506" x2="249.505" y2="487.215" />
<line fill="none" stroke="lightblue" stroke-width="12" x1="249.505" y1="487.215" x2="255.446" y2="482.272" />
<line fill="none" stroke="lightblue" stroke-width="12" x1="255.446" y1="482.272" x2="261.386" y2="471.411" />
<line fill="none" stroke="lightblue" stroke-width="12" x1="261.386" y1="471.411" x2="267.327" y2="461.209" />
<line fill="none" stroke="lightblue" stroke-width="12" x1="267.327" y1="461.209" x2="273.267" y2="451.693" />
<line fill="none" stroke="lightblue" stroke-width="12" x1="273.267" y1="451.693" x2="279.208" y2="442.89" />
<line fill="none" stroke="lightblue" stroke-width="12" x1="279.208" y1="442.89" x2="285.149" y2="434.829" />
<line fill="none" stroke="lightblue" stroke-width="12" x1="285.149" y1="434.829" x2="291.089" y2="427.534" />
<line fill="none" stroke="lightblue" stroke-width="12" x1="291.089" y1="427.534" x2="297.03" y2="421.029" />
<line fill="none" stroke="lightblue" stroke-width="12" x1="297.03" y1="421.029" x2="302.97" y2="415.343" />
<line fill="none" stroke="lightblue" stroke-width="12" x1="302.97" y1="415.343" x2="308.911" y2="410.356" />
<line fill="none" stroke="lightblue" stroke-width="12" x1="308.911" y1="410.356" x2="314.851" y2="406.03" />
<line fill="none" stroke="lightblue" stroke-width="12" x1="314.851" y1="406.03" x2="320.792" y2="402.379" />
<line fill="none" stroke="lightblue" stroke-width="12" x1="320.792" y1="402.379" x2="326.733" y2="399.415" />
<line fill="none" stroke="lightblue" stroke-width="12" x1="326.733" y1="399.415" x2="332.673" y2="397.145" />
<line fill="none" stroke="lightblue" stroke-width="12" x1="332.673" y1="397.145" x2="338.614" y2="395.578" />
<line fill="none" stroke="lightblue" stroke-width="12" x1="338.614" y1="395.578" x2="344.554" y2="394.718" />
<line fill="none" stroke="lightblue" stroke-width="12" x1="344.554" y1="394.718" x2="350.495" y2="394.569" />
<line fill="none" stroke="lightblue" stroke-width="12" x1="350.495" y1="394.569" x2="356.436" y2="395.13" />
<line fill="none" stroke="lightblue" stroke-width="12" x1="356.436" y1="395.13" x2="362.376" y2="396.4" />
<line fill="none" stroke="lightblue" stroke-width="12" x1="362.376" y1="396.4" x2="368.317" y2="398.374" />
<line fill="none" stroke="lightblue" stroke-width="12" x1="368.317" y1="398.374" x2="374.257" y2="401.047" />
<line fill="none" stroke="lightblue" stroke-width="12" x1="374.257" y1="401.047" x2="380.198" y2="393.699" />
<line fill="none" stroke="lightblue" stroke-width="12" x1="380.198" y1="393.699" x2="386.139" y2="375.165" />
<line fill="none" stroke="lightblue" stroke-width="12" x1="386.139" y1="375.165" x2="392.079" y2="356.834" />
<line fill="none" stroke="lightblue" stroke-width="12" x1="392.079" y1="356.834" x2="398.02" y2="338.723" />
<line fill="none" stroke="lightblue" stroke-width="12" x1="398.02" y1="338.723" x2="403.96" y2="320.855" />
<line fill="none" stroke="lightblue" stroke-width="12" x1="403.96" y1="320.855" x2="409.901" y2="303.252" />
<line fill="none" stroke="lightblue" stroke-width="12" x1="409.901" y1="303.252" x2="415.842" y2="285.938" />
<line fill="none" stroke="lightblue" stroke-width="12" x1="415.842" y1="285.938" x2="421.782" y2="268.942" />
<line fill="none" stroke="lightblue" stroke-width="12" x1="421.782" y1="268.942" x2="427.723" y2="252.295" />
<line fill="none" stroke="lightblue" stroke-width="12" x1="427.723" y1="252.295" x2="433.663" y2="236.033" />
<line fill="none" stroke="lightblue" stroke-width="12" x1="433.663" y1="236.033" x2="439.604" y2="219.731" />
<line fill="none" stroke="lightblue" stroke-width="12" x1="439.604" y1="219.731" x2="445.545" y2="202.804" />
<line fill="none" stroke="lightblue" stroke-width="12" x1="445.545" y1="202.804" x2="451.485" y2="186.283" />
<line fill="none" stroke="lightblue" stroke-width="12" x1="451.485" y1="186.283" x2="457.426" y2="170.212" />
<line fill="none" stroke="lightblue" stroke-width="12" x1="457.426" y1="170.212" x2="463.366" y2="154.645" />
<line fill="none" stroke="lightblue" stroke-width="12" x1="463.366" y1="154.645" x2="469.307" y2="139.638" />
<line fill="none" stroke="lightblue" stroke-width="12" x1="469.307" y1="139.638" x2="475.248" y2="125.257" />
<line fill="none" stroke="lightblue" stroke-width="12" x1="475.248" y1="125.257" x2="481.188" y2="111.572" />
<line fill="none" stroke="lightblue" stroke-width="12" x1="481.188" y1="111.572" x2="487.129" y2="98.6616" />
<line fill="none" stroke="lightblue" stroke-width="12" x1="487.129" y1="98.6616" x2="493.069" y2="86.6112" />
<line fill="none" stroke="lightblue" stroke-width="12" x1="493.069" y1="86.6112" x2="499.01" y2="75.5114" />
<line fill="none" stroke="lightblue" stroke-width="12" x1="499.01" y1="75.5114" x2="504.95" y2="65.4576" />
<line fill="none" stroke="lightblue" stroke-width="12" x1="504.95" y1="65.4576" x2="510.891" y2="56.5473" />
<line fill="none" stroke="lightblue" stroke-width="12" x1="510.891" y1="56.5473" x2="516.832" y2="48.8774" />
<line fill="none" stroke="lightblue" stroke-width="12" x1="516.832" y1="48.8774" x2="522.772" y2="42.5403" />
<line fill="none" stroke="lightblue" stroke-width="12" x1="522.772" y1="42.5403" x2="528.713" y2="37.6192" />
<line fill="none" stroke="lightblue" stroke-width="12" x1="528.713" y1="37.6192" x2="534.653" y2="34.1836" />
<line fill="none" stroke="lightblue" stroke-width="12" x1="534.653" y1="34.1836" x2="540.594" y2="32.2848" />
<line fill="none" stroke="lightblue" stroke-width="12" x1="540.594" y1="32.2848" x2="546.535" y2="31.9521" />
<line fill="none" stroke="lightblue" stroke-width="12" x1="546.535" y1="31.9521" x2="552.475" y2="33.1906" />
<line fill="none" stroke="lightblue" stroke-width="12" x1="552.475" y1="33.1906" x2="558.416" y2="35.9812" />
<line fill="none" stroke="lightblue" stroke-width="12" x1="558.416" y1="35.9812" x2="564.356" y2="40.2814" />
<line fill="none" stroke="lightblue" stroke-width="12" x1="564.356" y1="40.2814" x2="570.297" y2="46.0289" />
<line fill="none" stroke="lightblue" stroke-width="12" x1="570.297" y1="46.0289" x2="576.238" y2="53.1459" />
<line fill="none" stroke="lightblue" stroke-width="12" x1="576.238" y1="53.1459" x2="582.178" y2="61.5431" />
<line fill="none" stroke="lightblue" stroke-width="12" x1="582.178" y1="61.5431" x2="588.119" y2="71.1252" />
<line fill="none" stroke="lightblue" stroke-width="12" x1="588.119" y1="71.1252" x2="594.059" y2="81.7943" />
<line fill="none" stroke="olive" stroke-width="3" x1="0" y1="81.7943" x2="5.94059" y2="81.7943" />
<line fill="none" stroke="olive" stroke-width="3" x1="5.94059" y1="81.7943" x2="11.8812" y2="63.3583" />
<line fill="none" stroke="olive" stroke-width="3" x1="11.8812" y1="63.3583" x2="17.8218" y2="50.4695" />
<line fill="none" stroke="olive" stroke-width="3" x1="17.8218" y1="50.4695" x2="23.7624" y2="43.8197" />
<line fill="none" stroke="olive" stroke-width="3" x1="23.7624" y1="43.8197" x2="29.703" y2="43.8098" />
<line fill="none" stroke="olive" stroke-width="3" x1="29.703" y1="43.8098" x2="35.6436" y2="50.4406" />
<line fill="none" stroke="olive" stroke-width="3" x1="35.6436" y1="50.4406" x2="41.5842" y2="63.312" />
<line fill="none" stroke="olive" stroke-width="3" x1="41.5842" y1="63.312" x2="47.5248" y2="81.733" />
<line fill="none" stroke="olive" stroke-width="3" x1="47.5248" y1="81.733" x2="53.4653" y2="104.879" />
<line fill="none" stroke="olive" stroke-width="3" x1="53.4653" y1="104.879" x2="59.4059" y2="131.928" />
<line fill="none" stroke="olive" stroke-width="3" x1="59.4059" y1="131.928" x2="65.3465" y2="162.142" />
<line fill="none" stroke="olive" stroke-width="3" x1="65.3465" y1="162.142" x2="71.2871" y2="194.899" />
<line fill="none" stroke="olive" stroke-width="3" x1="71.2871" y1="194.899" x2="77.2277" y2="229.697" />
<line fill="none" stroke="olive" stroke-width="3" x1="77.2277" y1="229.697" x2="83.1683" y2="266.136" />
<line fill="none" stroke="olive" stroke-width="3" x1="83.1683" y1="266.136" x2="89.1089" y2="303.901" />
<line fill="none" stroke="olive" stroke-width="3" x1="89.1089" y1="303.901" x2="95.0495" y2="342.746" />
<line fill="none" stroke="olive" stroke-width="3" x1="95.0495" y1="342.746" x2="100.99" y2="382.477" />
<line fill="none" stroke="olive" stroke-width="3" x1="100.99" y1="382.477" x2="106.931" y2="422.941" />
<line fill="none" stroke="olive" stroke-width="3" x1="106.931" y1="422.941" x2="112.871" y2="464.016" />
<line fill="none" stroke="olive" stroke-width="3" x1="112.871" y1="464.016" x2="118.812" y2="407.19" />
<line fill="none" stroke="olive" stroke-width="3" x1="118.812" y1="407.19" x2="124.752" y2="434.919" />
<line fill="none" stroke="olive" stroke-width="3" x1="124.752" y1="434.919" x2="130.693" y2="464.567" />
<line fill="none" stroke="olive" stroke-width="3" x1="130.693" y1="464.567" x2="136.634" y2="495.911" />
<line fill="none" stroke="olive" stroke-width="3" x1="136.634" y1="495.911" x2="142.574" y2="528.749" />
<line fill="none" stroke="olive" stroke-width="3" x1="142.574" y1="528.749" x2="148.515" y2="562.906" />
<line fill="none" stroke="olive" stroke-width="3" x1="148.515" y1="562.906" x2="154.455" y2="569.732" />
<line fill="none" stroke="olive" stroke-width="3" x1="154.455" y1="569.732" x2="160.396" y2="561.783" />
<line fill="none" stroke="olive" stroke-width="3" x1="160.396" y1="561.783" x2="166.337" y2="554.754" />
<line fill="none" stroke="olive" stroke-width="3" x1="166.337" y1="554.754" x2="172.277" y2="548.669" />
<line fill="none" stroke="olive" stroke-width="3" x1="172.277" y1="548.669" x2="178.218" y2="543.549" />
<line fill="none" stroke="olive" stroke-width="3" x1="178.218" y1="543.549" x2="184.158" y2="539.413" />
<line fill="none" stroke="olive" stroke-width="3" x1="184.158" y1="539.413" x2="190.099" y2="536.275" />
<line fill="none" stroke="olive" stroke-width="3" x1="190.099" y1="536.275" x2="196.04" y2="534.148" />
<line fill="none" stroke="olive" stroke-width="3" x1="196.04" y1="534.148" x2="201.98" y2="533.039" />
<line fill="none" stroke="olive" stroke-width="3" x1="201.98" y1="533.039" x2="207.921" y2="532.953" />
<line fill="none" stroke="olive" stroke-width="3" x1="207.921" y1="532.953" x2="213.861" y2="588.385" />
<line fill="none" stroke="olive" stroke-width="3" x1="213.861" y1="588.385" x2="219.802" y2="573.654" />
<line fill="none" stroke="olive" stroke-width="3" x1="219.802" y1="573.654" x2="225.743" y2="559.383" />
<line fill="none" stroke="olive" stroke-width="3" x1="225.743" y1="559.383" x2="231.683" y2="545.596" />
<line fill="none" stroke="olive" stroke-width="3" x1="231.683" y1="545.596" x2="237.624" y2="532.319" />
<line fill="none" stroke="olive" stroke-width="3" x1="237.624" y1="532.319" x2="243.564" y2="519.576" />
<line fill="none" stroke="olive" stroke-width="3" x1="243.564" y1="519.576" x2="249.505" y2="507.395" />
<line fill="none" stroke="olive" stroke-width="3" x1="249.505" y1="507.395" x2="255.446" y2="495.802" />
<line fill="none" stroke="olive" stroke-width="3" x1="255.446" y1="495.802" x2="261.386" y2="484.824" />
<line fill="none" stroke="olive" stroke-width="3" x1="261.386" y1="484.824" x2="267.327" y2="474.49" />
<line fill="none" stroke="olive" stroke-width="3" x1="267.327" y1="474.49" x2="273.267" y2="464.826" />
<line fill="none" stroke="olive" stroke-width="3" x1="273.267" y1="464.826" x2="279.208" y2="455.859" />
<line fill="none" stroke="olive" stroke-width="3" x1="279.208" y1="455.859" x2="285.149" y2="447.615" />
<line fill="none" stroke="olive" stroke-width="3" x1="285.149" y1="447.615" x2="291.089" y2="440.12" />
<line fill="none" stroke="olive" stroke-width="3" x1="291.089" y1="440.12" x2="297.03" y2="433.397" />
<line fill="none" stroke="olive" stroke-width="3" x1="297.03" y1="433.397" x2="302.97" y2="545.86" />
<line fill="none" stroke="olive" stroke-width="3" x1="302.97" y1="545.86" x2="308.911" y2="538.308" />
<line fill="none" stroke="olive" stroke-width="3" x1="308.911" y1="538.308" x2="314.851" y2="531.274" />
<line fill="none" stroke="olive" stroke-width="3" x1="314.851" y1="531.274" x2="320.792" y2="524.771" />
<line fill="none" stroke="olive" stroke-width="3" x1="320.792" y1="524.771" x2="326.733" y2="518.813" />
<line fill="none" stroke="olive" stroke-width="3" x1="326.733" y1="518.813" x2="332.673" y2="513.412" />
<line fill="none" stroke="olive" stroke-width="3" x1="332.673" y1="513.412" x2="338.614" y2="508.581" />
<line fill="none" stroke="olive" stroke-width="3" x1="338.614" y1="508.581" x2="344.554" y2="504.329" />
<line fill="none" stroke="olive" stroke-width="3" x1="344.554" y1="504.329" x2="350.495" y2="500.666" />
<line fill="none" stroke="olive" stroke-width="3" x1="350.495" y1="500.666" x2="356.436" y2="482.874" />
<line fill="none" stroke="olive" stroke-width="3" x1="356.436" y1="482.874" x2="362.376" y2="463.039" />
<line fill="none" stroke="olive" stroke-width="3" x1="362.376" y1="463.039" x2="368.317" y2="443.312" />
<line fill="none" stroke="olive" stroke-width="3" x1="368.317" y1="443.312" x2="374.257" y2="423.702" />
<line fill="none" stroke="olive" stroke-width="3" x1="374.257" y1="423.702" x2="380.198" y2="404.219" />
<line fill="none" stroke="olive" stroke-width="3" x1="380.198" y1="404.219" x2="386.139" y2="384.875" />
<line fill="none" stroke="olive" stroke-width="3" x1="386.139" y1="384.875" x2="392.079" y2="365.683" />
<line fill="none" stroke="olive" stroke-width="3" x1="392.079" y1="365.683" x2="398.02" y2="346.657" />
<line fill="none" stroke="olive" stroke-width="3" x1="398.02" y1="346.657" x2="403.96" y2="327.812" />
<line fill="none" stroke="olive" stroke-width="3" x1="403.96" y1="327.812" x2="409.901" y2="309.167" />
<line fill="none" stroke="olive" stroke-width="3" x1="409.901" y1="309.167" x2="415.842" y2="290.742" />
<line fill="none" stroke="olive" stroke-width="3" x1="415.842" y1="290.742" x2="421.782" y2="272.558" />
<line fill="none" stroke="olive" stroke-width="3" x1="421.782" y1="272.558" x2="427.723" y2="254.643" />
<line fill="none" stroke="olive" stroke-width="3" x1="427.723" y1="254.643" x2="433.663" y2="237.023" />
<line fill="none" stroke="olive" stroke-width="3" x1="433.663" y1="237.023" x2="439.604" y2="219.731" />
<line fill="none" stroke="olive" stroke-width="3" x1="439.604" y1="219.731" x2="445.545" y2="202.804" />
<line fill="none" stroke="olive" stroke-width="3" x1="445.545" y1="202.804" x2="451.485" y2="186.283" />
<line fill="none" stroke="olive" stroke-width="3" x1="451.485" y1="186.283" x2="457.426" y2="170.212" />
<line fill="none" stroke="olive" stroke-width="3" x1="457.426" y1="170.212" x2="463.366" y2="154.645" />
<line fill="none" stroke="olive" stroke-width="3" x1="463.366" y1="154.645" x2="469.307" y2="139.638" />
<line fill="none" stroke="olive" stroke-width="3" x1="469.307" y1="139.638" x2="475.248" y2="125.257" />
<line fill="none" stroke="olive" stroke-width="3" x1="475.248" y1="125.257" x2="481.188" y2="111.572" />
<line fill="none" stroke="olive" stroke-width="3" x1="481.188" y1="111.572" x2="487.129" y2="98.6616" />
<line fill="none" stroke="olive" stroke-width="3" x1="487.129" y1="98.6616" x2="493.069" y2="86.6112" />
<line fill="none" stroke="olive" stroke-width="3" x1="493.069" y1="86.6112" x2="499.01" y2="75.5114" />
<line fill="none" stroke="olive" stroke-width="3" x1="499.01" y1="75.5114" x2="504.95" y2="65.4576" />
<line fill="none" stroke="olive" stroke-width="3" x1="504.95" y1="65.4576" x2="510.891" y2="56.5473" />
<line fill="none" stroke="olive" stroke-width="3" x1="510.891" y1="56.5473" x2="516.832" y2="48.8774" />
<line fill="none" stroke="olive" stroke-width="3" x1="516.832" y1="48.8774" x2="522.772" y2="42.5403" />
<line fill="none" stroke="olive" stroke-width="3" x1="522.772" y1="42.5403" x2="528.713" y2="37.6192" />
<line fill="none" stroke="olive" stroke-width="3" x1="528.713" y1="37.6192" x2="534.653" y2="34.1836" />
<line fill="none" stroke="olive" stroke-width="3" x1="534.653" y1="34.1836" x2="540.594" y2="32.2848" />
<line fill="none" stroke="olive" stroke-width="3" x1="540.594" y1="32.2848" x2="546.535" y2="31.9521" />
<line fill="none" stroke="olive" stroke-width="3" x1="546.535" y1="31.9521" x2="552.475" y2="33.1906" />
<line fill="none" stroke="olive" stroke-width="3" x1="552.475" y1="33.1906" x2="558.416" y2="35.9812" />
<line fill="none" stroke="olive" stroke-width="3" x1="558.416" y1="35.9812" x2="564.356" y2="40.2814" />
<line fill="none" stroke="olive" stroke-width="3" x1="564.356" y1="40.2814" x2="570.297" y2="46.0289" />
<line fill="none" stroke="olive" stroke-width="3" x1="570.297" y1="46.0289" x2="576.238" y2="53.1459" />
<line fill="none" stroke="olive" stroke-width="3" x1="576.238" y1="53.1459" x2="582.178" y2="61.5431" />
<line fill="none" stroke="olive" stroke-width="3" x1="582.178" y1="61.5431" x2="588.119" y2="71.1252" />
<line fill="none" stroke="olive" stroke-width="3" x1="588.119" y1="71.1252" x2="594.059" y2="81.7943" />

<!--Draw Glitches -->

<line fill="none" stroke="black" stroke-width="4" x1="302.97" y1="535.86" x2="302.97" y2="485.86"  stroke-dasharray = "10,5" />
<text transform="scale(1,-1)" font-family="sans-serif" font-size="30" stroke = "rgb(0,0,0)" line = "rgb(0,0,0)"  fill = "olive" x="307.97" y="-485.86" >50</text>

<!-- -->


<!--Draw the X and Y axes -->
<polyline fill="none" stroke="black" stroke-width="6"  points=" 600,0 0,0 0, 600" />
<polyline fill="none" stroke="black" stroke-width="1"  points=" 0 600  600 600  600 0" />
<!-- -->


<!--Draw labels and tics for X axis -->

<line fill="none" stroke="black"  stroke-width="6"  x1="0.5" y1="0" x2="0.5" y2="-20" />
<text transform="scale(1,-1)" font-family="sans-serif" font-size="30" x="-24.5" y="45" >0</text>
<line fill="none" stroke="black"  stroke-width="6"  x1="119.312" y1="0" x2="119.312" y2="-20" />
<text transform="scale(1,-1)" font-family="sans-serif" font-size="30" x="94.3119" y="45" >20</text>
<line fill="none" stroke="black"  stroke-width="6"  x1="238.124" y1="0" x2="238.124" y2="-20" />
<text transform="scale(1,-1)" font-family="sans-serif" font-size="30" x="213.124" y="45" >40</text>
<line fill="none" stroke="black"  stroke-width="6"  x1="356.936" y1="0" x2="356.936" y2="-20" />
<text transform="scale(1,-1)" font-family="sans-serif" font-size="30" x="331.936" y="45" >60</text>
<line fill="none" stroke="black"  stroke-width="6"  x1="475.748" y1="0" x2="475.748" y2="-20" />
<text transform="scale(1,-1)" font-family="sans-serif" font-size="30" x="450.748" y="45" >80</text>
<line fill="none" stroke="black"  stroke-width="6"  x1="594.559" y1="0" x2="594.559" y2="-20" />
<text transform="scale(1,-1)" font-family="sans-serif" font-size="30" x="569.559" y="45" >100</text>


<!--Draw labels and tics for Y axis -->

<line fill="none" stroke="black" stroke-width="6" x1="0.0" y1="0" x2="-20" y2="0" />
<text transform="scale(1,-1)" text-anchor="end" font-family="sans-serif" font-size="30" x="-25" y="10" >8</text>
<line fill="none" stroke="black" stroke-width="6" x1="0.0" y1="66.6667" x2="-20" y2="66.6667" />
<text transform="scale(1,-1)" text-anchor="end" font-family="sans-serif" font-size="30" x="-25" y="-56.6667" >10</text>
<line fill="none" stroke="black" stroke-width="6" x1="0.0" y1="133.333" x2="-20" y2="133.333" />
<text transform="scale(1,-1)" text-anchor="end" font-family="sans-serif" font-size="30" x="-25" y="-123.333" >12</text>
<line fill="none" stroke="black" stroke-width="6" x1="0.0" y1="200" x2="-20" y2="200" />
<text transform="scale(1,-1)" text-anchor="end" font-family="sans-serif" font-size="30" x="-25" y="-190" >14</text>
<line fill="none" stroke="black" stroke-width="6" x1="0.0" y1="266.667" x2="-20" y2="266.667" />
<text transform="scale(1,-1)" text-anchor="end" font-family="sans-serif" font-size="30" x="-25" y="-256.667" >16</text>
<line fill="none" stroke="black" stroke-width="6" x1="0.0" y1="333.333" x2="-20" y2="333.333" />
<text transform="scale(1,-1)" text-anchor="end" font-family="sans-serif" font-size="30" x="-25" y="-323.333" >18</text>
<line fill="none" stroke="black" stroke-width="6" x1="0.0" y1="400" x2="-20" y2="400" />
<text transform="scale(1,-1)" text-anchor="end" font-family="sans-serif" font-size="30" x="-25" y="-390" >20</text>
<line fill="none" stroke="black" stroke-width="6" x1="0.0" y1="466.667" x2="-20" y2="466.667" />
<text transform="scale(1,-1)" text-anchor="end" font-family="sans-serif" font-size="30" x="-25" y="-456.667" >22</text>
<line fill="none" stroke="black" stroke-width="6" x1="0.0" y1="533.333" x2="-20" y2="533.333" />
<text transform="scale(1,-1)" text-anchor="end" font-family="sans-serif" font-size="30" x="-25" y="-523.333" >24</text>
<line fill="none" stroke="black" stroke-width="6" x1="0.0" y1="600" x2="-20" y2="600" />
<text transform="scale(1,-1)" text-anchor="end" font-family="sans-serif" font-size="30" x="-25" y="-590" >26</text>

-->
</g>
</g>
<!-- Run Constants
PRINTDISTANCEDATA bool true
GLITCHESONLY bool true
PLOT 2doubles 3 4
PERTURBBY double 0.05
GLITCHLEVEL double 3
BOUNDARYWINDOW double 0.065
FRAMESPERPATH int 200
STEPSPERFRAME int 100
TRIALS int 1
ALLBLACK bool true
FILEPREFIX string Fol
GRAPHSIZE int 0
BORDER int 0
PLOTSIZE int 0
G6LINEWIDTH int 3
DELONELINEWIDTH int 10
AXISWIDTH int 6
TICLENGTH int 20
VECTOR g6 
FOLLOWERMODE FollowerMode line
FIXRANDOMSEED fixRandomSeed false
RANDOMSEED int 19191
TIMESTAMP bool true
END end 




-->
</svg>
