<?xml version="1.0" standalone="no"?>
<!-- the width and height set the total pixel output of the image in the browser -->
<!-- whatever is within the viewbox will be remapped to show in this size -->
<svg width="1000" height="1000" viewBox="1 0 1000 1000"  version="1.1" xmlns="http://www.w3.org/2000/svg" xmlns:xlink="http://www.w3.org/1999/xlink">
 <desc>ID (and file name) = Fol_2018-05-09.10_19_08.1_21.svg </desc> 
 <text x="700" y="30" font-family="sans-serif" font-size="20">Wall time passed: -35083 msec.</text>
<text x="300" y="60"   font-family="sans-serif" font-size="20" fill="lightblue">S6  lightblue</text>
<text x="300" y="85"   font-family="sans-serif" font-size="20" fill="slategrey">NCDist  slategrey</text>
<text x="300" y="110"  font-family="sans-serif" font-size="20" fill="violet">D7  violet</text>
<text x="300" y="135"  font-family="sans-serif" font-size="20" fill="olive">CS6Dist  olive</text>



 <!--DISTANCE PLOT BEGINS-->


<!-- the following will scale and place the distance plot -->
<g  transform="translate(0,50) ">
<g transform="translate(150,700) scale(1 -1)">
   <polyline fill="none" stroke=" lightblue " stroke-width=" 12 " points=" 5.2,0 10.4,8.92657 15.6,17.8531 20.8,26.7797 26,35.7063 31.2,44.6329 36.4,53.5594 41.6,62.486 46.8,71.4126 52,80.3392 57.2,89.2657 62.4,98.1923 67.6,107.119 72.8,116.045 78,124.972 83.2,133.899 88.4,142.825 93.6,151.752 98.8,155.37 104,158.117 109.2,161.311 114.4,164.928 119.6,168.939 124.8,173.317 130,178.036 135.2,183.069 140.4,188.39 145.6,193.976 150.8,199.806 156,205.857 161.2,212.111 166.4,218.551 171.6,225.161 176.8,231.926 182,238.833 187.2,245.871 192.4,253.027 197.6,260.293 202.8,267.659 208,275.118 213.2,282.662 218.4,290.284 223.6,297.979 228.8,305.741 234,313.564 239.2,321.446 244.4,329.38 249.6,337.364 254.8,345.395 260,353.468 265.2,353.468 270.4,345.395 275.6,337.364 280.8,329.38 286,321.446 291.2,313.564 296.4,305.741 301.6,297.979 306.8,290.284 312,282.662 317.2,275.118 322.4,267.659 327.6,260.293 332.8,253.027 338,245.871 343.2,238.833 348.4,231.926 353.6,225.161 358.8,218.551 364,212.111 369.2,205.857 374.4,199.806 379.6,193.976 384.8,188.39 390,183.069 395.2,178.036 400.4,173.317 405.6,168.939 410.8,164.928 416,161.311 421.2,158.117 426.4,155.37 431.6,151.752 436.8,142.825 442,133.899 447.2,124.972 452.4,116.045 457.6,107.119 462.8,98.1923 468,89.2657 473.2,80.3392 478.4,71.4126 483.6,62.486 488.8,53.5594 494,44.6329 499.2,35.7063 504.4,26.7797 509.6,17.8531 514.8,8.92657 520,0 " />
   <polyline fill="none" stroke=" slategrey " stroke-width=" 9 " points=" 5.2,0 10.4,12.4021 15.6,24.8041 20.8,37.2062 26,49.6083 31.2,62.0104 36.4,74.4124 41.6,86.8145 46.8,99.2166 52,111.619 57.2,122.693 62.4,131.076 67.6,139.712 72.8,148.575 78,157.638 83.2,166.882 88.4,175.824 93.6,178.744 98.8,181.768 104,185.792 109.2,189.648 114.4,193.744 119.6,198.067 124.8,202.602 130,207.333 135.2,212.25 140.4,217.338 145.6,222.587 150.8,227.984 156,233.521 161.2,239.186 166.4,244.972 171.6,250.869 176.8,256.871 182,262.969 187.2,269.158 192.4,275.432 197.6,281.784 202.8,288.209 208,294.703 213.2,301.262 218.4,307.88 223.6,314.555 228.8,321.283 234,328.06 239.2,334.884 244.4,341.752 249.6,348.661 254.8,355.608 260,362.592 265.2,362.592 270.4,355.608 275.6,348.661 280.8,341.752 286,334.884 291.2,328.06 296.4,321.283 301.6,314.555 306.8,307.88 312,301.262 317.2,294.703 322.4,288.209 327.6,281.784 332.8,275.432 338,269.158 343.2,262.969 348.4,256.871 353.6,250.869 358.8,244.972 364,239.186 369.2,233.521 374.4,227.984 379.6,222.587 384.8,217.338 390,212.25 395.2,207.333 400.4,202.602 405.6,198.067 410.8,193.744 416,189.648 421.2,185.792 426.4,181.768 431.6,178.744 436.8,175.824 442,166.882 447.2,157.638 452.4,148.575 457.6,139.712 462.8,131.076 468,122.693 473.2,111.619 478.4,99.2166 483.6,86.8145 488.8,74.4124 494,62.0104 499.2,49.6083 504.4,37.2062 509.6,24.8041 514.8,12.4021 520,8.70878e-14 " />
   <polyline fill="none" stroke=" violet " stroke-width=" 6 " points=" 5.2,4.67549e-05 10.4,12.6708 15.6,25.3416 20.8,38.0124 26,50.6832 31.2,63.354 36.4,76.0248 41.6,88.6956 46.8,101.366 52,114.037 57.2,126.708 62.4,139.379 67.6,152.05 72.8,164.72 78,177.391 83.2,190.062 88.4,202.733 93.6,215.404 98.8,220.596 104,224.563 109.2,229.162 114.4,234.358 119.6,240.11 124.8,246.38 130,253.129 135.2,260.321 140.4,267.919 145.6,275.89 150.8,284.203 156,292.828 161.2,301.738 166.4,310.91 171.6,320.321 176.8,329.949 182,339.778 187.2,349.789 192.4,359.968 197.6,370.301 202.8,380.775 208,391.379 213.2,402.103 218.4,412.937 223.6,423.872 228.8,434.902 234,446.02 239.2,457.218 244.4,468.491 249.6,479.834 254.8,491.241 260,502.71 265.2,502.71 270.4,491.241 275.6,479.834 280.8,468.491 286,457.218 291.2,446.02 296.4,434.902 301.6,423.872 306.8,412.937 312,402.103 317.2,391.379 322.4,380.775 327.6,370.301 332.8,359.968 338,349.789 343.2,339.778 348.4,329.949 353.6,320.321 358.8,310.91 364,301.738 369.2,292.828 374.4,284.203 379.6,275.89 384.8,267.919 390,260.321 395.2,253.129 400.4,246.38 405.6,240.11 410.8,234.358 416,229.162 421.2,224.563 426.4,220.596 431.6,215.404 436.8,202.733 442,190.062 447.2,177.391 452.4,164.72 457.6,152.05 462.8,139.379 468,126.708 473.2,114.037 478.4,101.366 483.6,88.6956 488.8,76.0248 494,63.354 499.2,50.6832 504.4,38.0124 509.6,25.3416 514.8,12.6708 520,4.67549e-05 " />
   <polyline fill="none" stroke=" olive " stroke-width=" 3 " points=" 5.2,1.65304e-05 10.4,8.92657 15.6,17.8531 20.8,26.7797 26,35.7063 31.2,44.6329 36.4,53.5594 41.6,62.486 46.8,71.4126 52,80.3392 57.2,89.2657 62.4,98.1923 67.6,107.119 72.8,116.045 78,124.972 83.2,133.899 88.4,142.825 93.6,151.752 98.8,155.37 104,158.117 109.2,161.311 114.4,164.928 119.6,168.939 124.8,173.317 130,178.036 135.2,183.069 140.4,188.39 145.6,193.976 150.8,199.806 156,205.857 161.2,212.111 166.4,218.551 171.6,225.161 176.8,231.926 182,238.833 187.2,245.871 192.4,253.027 197.6,260.293 202.8,267.659 208,275.118 213.2,282.662 218.4,290.284 223.6,297.979 228.8,305.741 234,313.564 239.2,321.446 244.4,329.38 249.6,337.364 254.8,345.395 260,353.468 265.2,353.468 270.4,345.395 275.6,337.364 280.8,329.38 286,321.446 291.2,313.564 296.4,305.741 301.6,297.979 306.8,290.284 312,282.662 317.2,275.118 322.4,267.659 327.6,260.293 332.8,253.027 338,245.871 343.2,238.833 348.4,231.926 353.6,225.161 358.8,218.551 364,212.111 369.2,205.857 374.4,199.806 379.6,193.976 384.8,188.39 390,183.069 395.2,178.036 400.4,173.317 405.6,168.939 410.8,164.928 416,161.311 421.2,158.117 426.4,155.37 431.6,151.752 436.8,142.825 442,133.899 447.2,124.972 452.4,116.045 457.6,107.119 462.8,98.1923 468,89.2657 473.2,80.3392 478.4,71.4126 483.6,62.486 488.8,53.5594 494,44.6329 499.2,35.7063 504.4,26.7797 509.6,17.8531 514.8,8.92657 520,1.65304e-05 " />

<!--Draw the X and Y axes -->
<polyline fill="none" stroke="black" stroke-width="6"  points=" 600,0 0,0 0,520" />
<!-- -->


<!--Draw labels and tics for X axis -->

<line fill="none" stroke="black"  stroke-width="6"  x1="0.5" y1="0" x2="0.5" y2="-20" />
<text transform="scale(1,-1)" font-family="sans-serif" font-size="30" x="-24.5" y="45" >0</text>
<line fill="none" stroke="black"  stroke-width="6"  x1="104.5" y1="0" x2="104.5" y2="-20" />
<text transform="scale(1,-1)" font-family="sans-serif" font-size="30" x="79.5" y="45" >20</text>
<line fill="none" stroke="black"  stroke-width="6"  x1="208.5" y1="0" x2="208.5" y2="-20" />
<text transform="scale(1,-1)" font-family="sans-serif" font-size="30" x="183.5" y="45" >40</text>
<line fill="none" stroke="black"  stroke-width="6"  x1="312.5" y1="0" x2="312.5" y2="-20" />
<text transform="scale(1,-1)" font-family="sans-serif" font-size="30" x="287.5" y="45" >60</text>
<line fill="none" stroke="black"  stroke-width="6"  x1="416.5" y1="0" x2="416.5" y2="-20" />
<text transform="scale(1,-1)" font-family="sans-serif" font-size="30" x="391.5" y="45" >80</text>
<line fill="none" stroke="black"  stroke-width="6"  x1="520.5" y1="0" x2="520.5" y2="-20" />
<text transform="scale(1,-1)" font-family="sans-serif" font-size="30" x="495.5" y="45" >100</text>


<!--Draw labels and tics for Y axis -->

<line fill="none" stroke="black" stroke-width="6" x1="0.0" y1="0" x2="-20" y2="0" />
<text transform="scale(1,-1)" text-anchor="end" font-family="sans-serif" font-size="30" x="-25" y="10" >0</text>
<line fill="none" stroke="black" stroke-width="6" x1="0.0" y1="86.6667" x2="-20" y2="86.6667" />
<text transform="scale(1,-1)" text-anchor="end" font-family="sans-serif" font-size="30" x="-25" y="-76.6667" >5</text>
<line fill="none" stroke="black" stroke-width="6" x1="0.0" y1="173.333" x2="-20" y2="173.333" />
<text transform="scale(1,-1)" text-anchor="end" font-family="sans-serif" font-size="30" x="-25" y="-163.333" >10</text>
<line fill="none" stroke="black" stroke-width="6" x1="0.0" y1="260" x2="-20" y2="260" />
<text transform="scale(1,-1)" text-anchor="end" font-family="sans-serif" font-size="30" x="-25" y="-250" >15</text>
<line fill="none" stroke="black" stroke-width="6" x1="0.0" y1="346.667" x2="-20" y2="346.667" />
<text transform="scale(1,-1)" text-anchor="end" font-family="sans-serif" font-size="30" x="-25" y="-336.667" >20</text>
<line fill="none" stroke="black" stroke-width="6" x1="0.0" y1="433.333" x2="-20" y2="433.333" />
<text transform="scale(1,-1)" text-anchor="end" font-family="sans-serif" font-size="30" x="-25" y="-423.333" >25</text>
<line fill="none" stroke="black" stroke-width="6" x1="0.0" y1="520" x2="-20" y2="520" />
<text transform="scale(1,-1)" text-anchor="end" font-family="sans-serif" font-size="30" x="-25" y="-510" >30</text>

-->
</g>
</g>
<!-- Run Constants
CIRCLEPLOT bool false
DISTANCEPLOT bool true
PRINTDISTANCEDATA bool true
GLITCHESONLY bool false
PLOT 2doubles 3 4
PERTURBBY double 0.05
GLITCHLEVEL double 3
BOUNDARYWINDOW double 0.065
FRAMESPERPATH int 200
STEPSPERFRAME int 100
TRIALS int 30
ALLBLACK bool true
FILEPREFIX string Fol
GRAPHSIZE int 0
BORDER int 0
PLOTSIZE int 0
CIRCLEPLOTSIZE int 2000
CIRCLERADIUS int 300
CIRCLESTROKEWIDTH int 30
G6LINEWIDTH int 3
DELONELINEWIDTH int 10
AXISWIDTH int 6
TICLENGTH int 20
VECTOR g6 
MOVIEMODE MovieMode STAR
FOLLOWERMODE FollowerMode Follow
FIXRANDOMSEED fixRandomSeed false
RANDOMSEED int 19191
TIMESTAMP bool true
END end 




-->
</svg>
