<?xml version="1.0" standalone="no"?>
<!-- the width and height set the total pixel output of the image in the browser -->
<!-- whatever is within the viewbox will be remapped to show in this size -->
<svg width="1000" height="1000" viewBox="1 0  1200 1200"  version="1.1" xmlns="http://www.w3.org/2000/svg" xmlns:xlink="http://www.w3.org/1999/xlink">
 <desc>ID (and file name) = Fol_2020-03-23.17_12_12.15_0.svg  mode = LINE3 </desc> 
<g transform = "scale(1 1)">

<text x = "-850" y="50" transform="rotate(-90)"  font-family="sans-serif" font-size="40" stroke ="lightgray" fill="none"> PointDistanceFollower   Mar 23 2020</text>
 <text x="200"  y="30"  font-family="sans-serif" font-size="20" >Fol_2020-03-23.17_12_12.15_0.svg  &#160;&#160;&#160;&#160;&#160; Wall time passed: 1938 msec.</text>
<text x="300" y="60"   font-family="sans-serif" font-size="20" fill="lightblue">  S6  50 msec </text>
<text x="300" y="85"   font-family="sans-serif" font-size="20" fill="olive">  CS6Dist  3 msec </text>
<text x="300" y="110"   font-family="sans-serif" font-size="20" fill="black">  LM  1885 msec </text>



 <!--DISTANCE PLOT BEGINS   mode = LINE3-->


<!-- the following will scale and place the distance plot -->
<g transform="translate(150,975) scale(1 -1)">
   <polyline fill="none" stroke=" lightblue " stroke-width=" 12 " stroke-dasharray = " 10,5 " points=" 7.92079,0 15.8416,60.6245 23.7624,121.249 31.6832,181.874 39.604,242.498 47.5248,303.123 55.4455,363.747 63.3663,424.372 71.2871,474.431 79.2079,478.101 87.1287,465.937 95.0495,458.727 102.97,456.707 110.891,459.945 118.812,455.953 126.733,453.8 134.653,451.33 142.574,451.794 150.495,457.553 158.416,468.411 166.337,484.025 174.257,503.954 182.178,527.709 190.099,554.798 198.02,584.759 205.941,617.173 213.861,651.674 221.782,682.163 229.703,702.122 237.624,694.113 245.545,684.285 253.465,675.027 261.386,665.982 269.307,657.755 277.228,650.377 285.149,643.877 293.069,638.281 300.99,633.614 308.911,629.897 316.832,627.145 324.752,622.732 332.673,608.874 340.594,591.19 348.515,570.969 356.436,552.742 364.356,536.713 372.277,523.084 380.198,512.046 388.119,496.76 396.04,480.739 403.96,467.406 411.881,456.996 419.802,449.712 427.723,445.708 435.644,445.073 443.564,447.513 451.485,440.206 459.406,436.25 467.327,435.736 475.248,438.675 483.168,445 491.089,454.569 499.01,467.183 506.931,482.602 514.851,500.569 522.772,520.819 530.693,533.99 538.614,526.662 546.535,522.673 554.455,521.727 562.376,518.039 570.297,517.801 578.218,521.015 586.139,527.62 594.059,537.491 601.98,542.132 609.901,534.484 617.822,525.497 625.743,516.992 633.663,511.86 641.584,495.271 649.505,466.645 657.426,445.08 665.347,431.636 673.267,424.745 681.188,416.823 689.109,397.523 697.03,386.136 704.95,384.775 712.871,387.361 720.792,345.51 728.713,345.477 736.634,431.715 744.554,659.354 " />

<line fill="none" stroke-dasharray = "10, 10"  stroke="orange" stroke-width="6" x1="752.475" y1="400" x2="792.079" y2="400" />
   <polyline fill="none" stroke=" olive " stroke-width=" 3 " stroke-dasharray = " 5,10 " points=" 7.92079,1.49855e-05 15.8416,60.6245 23.7624,121.249 31.6832,181.874 39.604,242.498 47.5248,303.123 55.4455,363.747 63.3663,424.372 71.2871,481.064 79.2079,478.101 87.1287,465.937 95.0495,458.727 102.97,456.707 110.891,459.945 118.812,455.953 126.733,453.8 134.653,456.94 142.574,465.264 150.495,472.83 158.416,482.533 166.337,497.222 174.257,516.445 182.178,539.687 190.099,566.427 198.02,596.169 205.941,628.465 213.861,662.924 221.782,699.212 229.703,737.047 237.624,735.093 245.545,725.856 253.465,717.13 261.386,709.206 269.307,702.11 277.228,695.87 285.149,690.51 293.069,686.051 300.99,682.512 308.911,668.614 316.832,653.329 324.752,628.59 332.673,613.209 340.594,591.19 348.515,570.969 356.436,552.742 364.356,536.713 372.277,523.084 380.198,512.046 388.119,496.76 396.04,480.739 403.96,467.406 411.881,456.996 419.802,449.712 427.723,445.708 435.644,445.073 443.564,447.819 451.485,447.361 459.406,445.28 467.327,446.583 475.248,451.239 483.168,459.147 491.089,470.142 499.01,483.629 506.931,498.935 514.851,516.869 522.772,537.153 530.693,555.944 538.614,554.162 546.535,554.264 554.455,556.471 562.376,561.015 570.297,568.119 578.218,575.774 586.139,590.82 594.059,606.728 601.98,598.538 609.901,580.542 617.822,564.809 625.743,551.218 633.663,539.635 641.584,511.287 649.505,483.11 657.426,462.273 665.347,448.308 673.267,440.647 681.188,418.117 689.109,397.523 697.03,386.136 704.95,384.775 712.871,390.643 720.792,352.944 728.713,345.477 736.634,443.249 744.554,659.354 " />

<line fill="none" stroke-dasharray = "10, 10"  stroke="orange" stroke-width="6" x1="752.475" y1="400" x2="792.079" y2="400" />
   <polyline fill="none" stroke=" black " stroke-width=" 3 " stroke-dasharray = "  " points=" 7.92079,0 15.8416,60.6245 23.7624,121.249 31.6832,181.874 39.604,242.498 47.5248,303.123 55.4455,363.747 63.3663,424.372 71.2871,481.064 79.2079,478.101 87.1287,465.937 95.0495,458.727 102.97,456.707 110.891,459.945 118.812,455.953 126.733,453.8 134.653,456.94 142.574,465.264 150.495,478.503 158.416,496.263 166.337,518.079 174.257,543.464 182.178,571.942 190.099,600.421 198.02,626.478 205.941,655.18 213.861,686.195 221.782,719.226 229.703,752.589 237.624,745.431 245.545,739.041 253.465,733.441 261.386,728.648 269.307,724.679 277.228,721.546 285.149,719.262 293.069,717.833 300.99,714.287 308.911,688.256 316.832,661.907 324.752,636.839 332.673,613.209 340.594,591.19 348.515,570.969 356.436,552.742 364.356,536.713 372.277,523.084 380.198,512.046 388.119,496.76 396.04,480.739 403.96,467.406 411.881,456.996 419.802,449.712 427.723,445.708 435.644,445.073 443.564,447.819 451.485,447.361 459.406,445.28 467.327,446.583 475.248,451.239 483.168,459.147 491.089,470.142 499.01,484.015 506.931,500.526 514.851,519.423 522.772,540.457 530.693,563.388 538.614,587.994 546.535,614.073 554.455,641.447 562.376,669.956 570.297,699.462 578.218,729.844 586.139,743.027 594.059,729.241 601.98,717.693 609.901,652.849 617.822,583.329 625.743,515.966 633.663,451.725 641.584,392.145 649.505,339.686 657.426,298.132 665.347,272.517 673.267,263.717 681.188,260.912 689.109,280.162 697.03,312.283 704.95,316.29 712.871,334.888 720.792,311.234 728.713,274.162 736.634,338.23 744.554,540.125 " />

<line fill="none" stroke-dasharray = "10, 10"  stroke="orange" stroke-width="6" x1="752.475" y1="400" x2="792.079" y2="400" />

<!--Draw the X and Y axes -->
<polyline fill="none" stroke="black" stroke-width="6"  points=" 800,0 0,0 0, 800" />
<polyline fill="none" stroke="black" stroke-width="1"  points=" 0 800  800 800  800 0" />
<!-- -->


<!--Draw labels and tics for X axis -->

<line fill="none" stroke="black"  stroke-width="6"  x1="0.5" y1="0" x2="0.5" y2="-20" />
<text transform="scale(1,-1)" font-family="sans-serif" font-size="30" x="-24.5" y="45" >0</text>
<line fill="none" stroke="black"  stroke-width="6"  x1="158.916" y1="0" x2="158.916" y2="-20" />
<text transform="scale(1,-1)" font-family="sans-serif" font-size="30" x="133.916" y="45" >20</text>
<line fill="none" stroke="black"  stroke-width="6"  x1="317.332" y1="0" x2="317.332" y2="-20" />
<text transform="scale(1,-1)" font-family="sans-serif" font-size="30" x="292.332" y="45" >40</text>
<line fill="none" stroke="black"  stroke-width="6"  x1="475.748" y1="0" x2="475.748" y2="-20" />
<text transform="scale(1,-1)" font-family="sans-serif" font-size="30" x="450.748" y="45" >60</text>
<line fill="none" stroke="black"  stroke-width="6"  x1="634.163" y1="0" x2="634.163" y2="-20" />
<text transform="scale(1,-1)" font-family="sans-serif" font-size="30" x="609.163" y="45" >80</text>
<line fill="none" stroke="black"  stroke-width="6"  x1="792.579" y1="0" x2="792.579" y2="-20" />
<text transform="scale(1,-1)" font-family="sans-serif" font-size="30" x="767.579" y="45" >100</text>


<!--Draw labels and tics for Y axis -->

<line fill="none" stroke="black" stroke-width="6" x1="0.0" y1="0" x2="-20" y2="0" />
<text transform="scale(1,-1)" text-anchor="end" font-family="sans-serif" font-size="30" x="-25" y="10" >0</text>
<line fill="none" stroke="black" stroke-width="6" x1="0.0" y1="88.8889" x2="-20" y2="88.8889" />
<text transform="scale(1,-1)" text-anchor="end" font-family="sans-serif" font-size="30" x="-25" y="-78.8889" >2</text>
<line fill="none" stroke="black" stroke-width="6" x1="0.0" y1="177.778" x2="-20" y2="177.778" />
<text transform="scale(1,-1)" text-anchor="end" font-family="sans-serif" font-size="30" x="-25" y="-167.778" >4</text>
<line fill="none" stroke="black" stroke-width="6" x1="0.0" y1="266.667" x2="-20" y2="266.667" />
<text transform="scale(1,-1)" text-anchor="end" font-family="sans-serif" font-size="30" x="-25" y="-256.667" >6</text>
<line fill="none" stroke="black" stroke-width="6" x1="0.0" y1="355.556" x2="-20" y2="355.556" />
<text transform="scale(1,-1)" text-anchor="end" font-family="sans-serif" font-size="30" x="-25" y="-345.556" >8</text>
<line fill="none" stroke="black" stroke-width="6" x1="0.0" y1="444.444" x2="-20" y2="444.444" />
<text transform="scale(1,-1)" text-anchor="end" font-family="sans-serif" font-size="30" x="-25" y="-434.444" >10</text>
<line fill="none" stroke="black" stroke-width="6" x1="0.0" y1="533.333" x2="-20" y2="533.333" />
<text transform="scale(1,-1)" text-anchor="end" font-family="sans-serif" font-size="30" x="-25" y="-523.333" >12</text>
<line fill="none" stroke="black" stroke-width="6" x1="0.0" y1="622.222" x2="-20" y2="622.222" />
<text transform="scale(1,-1)" text-anchor="end" font-family="sans-serif" font-size="30" x="-25" y="-612.222" >14</text>
<line fill="none" stroke="black" stroke-width="6" x1="0.0" y1="711.111" x2="-20" y2="711.111" />
<text transform="scale(1,-1)" text-anchor="end" font-family="sans-serif" font-size="30" x="-25" y="-701.111" >16</text>
<line fill="none" stroke="black" stroke-width="6" x1="0.0" y1="800" x2="-20" y2="800" />
<text transform="scale(1,-1)" text-anchor="end" font-family="sans-serif" font-size="30" x="-25" y="-790" >18</text>

-->
</g>
</g>
<!-- Run Constants
PRINTDISTANCEDATA bool true
GLITCHESONLY bool false
PERTURBBY double 0.05
GLITCHLEVEL double 3
BOUNDARYWINDOW double 0.065
STEPSPERFRAME int 100
TRIALS int 1
ALLBLACK bool true
FILEPREFIX string Fol
NIGGLISELLINGFIRST bool false
ENABLE DistanceEnableString 
DISABLE DistanceDisableString 
GRAPHSIZE int 0
BORDER int 0
PLOTSIZE int 0
AXISWIDTH int 6
TICLENGTH int 20
VECTOR g6 
FOLLOWERMODE FollowerMode line
FIXRANDOMSEED fixRandomSeed true
RANDOMSEED int 18
TIMESTAMP bool true
END end 


-->
</svg>
