<?xml version="1.0" standalone="no"?>
<!-- the width and height set the total pixel output of the image in the browser -->
<!-- whatever is within the viewbox will be remapped to show in this size -->
<svg width="1000" height="1000" viewBox="1 0  1200 1200"  version="1.1" xmlns="http://www.w3.org/2000/svg" xmlns:xlink="http://www.w3.org/1999/xlink">
 <desc>ID (and file name) = Fol_.5_0.svg  mode = LINE3 </desc> 
<g transform = "scale(1 1)">

<text x = "-850" y="50" transform="rotate(-90)"  font-family="sans-serif" font-size="40" stroke ="lightgray" fill="none"> PointDistanceFollower   Mar 12 2020</text>
 <text x="200"  y="30"  font-family="sans-serif" font-size="20" >Fol_.5_0.svg</text>
<text x="300" y="60"   font-family="sans-serif" font-size="20" fill="lightblue">  S6  </text>
<text x="300" y="85"   font-family="sans-serif" font-size="20" fill="olive">  CS6Dist  </text>
<text x="300" y="110"   font-family="sans-serif" font-size="20" fill="black">  LM  </text>



 <!--DISTANCE PLOT BEGINS   mode = LINE3-->


<!-- the following will scale and place the distance plot -->
<g transform="translate(150,975) scale(1 -1)">
   <polyline fill="none" stroke=" lightblue " stroke-width=" 12 " stroke-dasharray = " 10,5 " points=" 7.92079,133.333 15.8416,160.659 23.7624,187.985 31.6832,215.312 39.604,242.638 47.5248,269.964 55.4455,297.29 63.3663,324.616 71.2871,351.942 79.2079,379.268 87.1287,406.594 95.0495,433.92 102.97,461.246 110.891,488.572 118.812,515.898 126.733,543.224 134.653,570.299 142.574,591.934 150.495,588.399 158.416,577.711 166.337,561.128 174.257,545.691 182.178,531.533 190.099,518.795 198.02,507.621 205.941,498.156 213.861,490.536 221.782,480.43 229.703,469.694 237.624,460.892 245.545,454.182 253.465,449.698 261.386,446.446 269.307,441.388 277.228,437.444 285.149,434.657 293.069,430.895 300.99,426.825 308.911,423.951 316.832,422.309 324.752,415.937 332.673,410.136 340.594,405.549 348.515,402.24 356.436,400.255 364.356,399.623 372.277,400.355 380.198,402.44 388.119,405.845 396.04,410.524 403.96,415.09 411.881,413.347 419.802,412.896 427.723,413.744 435.644,415.879 443.564,420.166 451.485,430.161 459.406,442.709 467.327,457.513 475.248,474.28 483.168,472.064 491.089,450.637 499.01,445.705 506.931,459.13 514.851,503.379 522.772,555.523 530.693,600.248 538.614,637.434 546.535,676.33 554.455,697.325 562.376,771.622 " />

<line fill="none" stroke-dasharray = "10, 10"  stroke="orange" stroke-width="6" x1="570.297" y1="400" x2="792.079" y2="400" />
   <polyline fill="none" stroke=" olive " stroke-width=" 3 " stroke-dasharray = " 5,10 " points=" 7.92079,133.333 15.8416,160.659 23.7624,187.985 31.6832,215.312 39.604,242.638 47.5248,269.964 55.4455,297.29 63.3663,324.616 71.2871,351.942 79.2079,379.268 87.1287,406.594 95.0495,433.92 102.97,461.246 110.891,488.572 118.812,515.898 126.733,543.224 134.653,570.299 142.574,591.934 150.495,588.399 158.416,577.711 166.337,561.128 174.257,545.691 182.178,531.533 190.099,518.795 198.02,507.621 205.941,498.156 213.861,490.536 221.782,484.88 229.703,481.284 237.624,479.812 245.545,471.024 253.465,457.101 261.386,446.446 269.307,441.388 277.228,437.444 285.149,434.657 293.069,430.895 300.99,426.825 308.911,423.951 316.832,422.309 324.752,415.937 332.673,410.136 340.594,405.549 348.515,402.24 356.436,400.255 364.356,399.623 372.277,400.355 380.198,402.44 388.119,405.845 396.04,410.524 403.96,415.09 411.881,413.347 419.802,412.896 427.723,413.744 435.644,415.879 443.564,420.804 451.485,434.006 459.406,449.843 467.327,468.061 475.248,488.389 483.168,479.959 491.089,451.04 499.01,445.705 506.931,459.13 514.851,511.946 522.772,573.712 530.693,604.026 538.614,637.434 546.535,676.33 554.455,697.325 562.376,772.62 " />

<line fill="none" stroke-dasharray = "10, 10"  stroke="orange" stroke-width="6" x1="570.297" y1="400" x2="792.079" y2="400" />
   <polyline fill="none" stroke=" black " stroke-width=" 3 " stroke-dasharray = "  " points=" 7.92079,133.333 15.8416,160.659 23.7624,187.985 31.6832,215.312 39.604,242.638 47.5248,269.964 55.4455,297.29 63.3663,324.616 71.2871,351.942 79.2079,379.268 87.1287,406.594 95.0495,433.92 102.97,461.246 110.891,488.572 118.812,515.898 126.733,543.224 134.653,570.299 142.574,591.934 150.495,588.399 158.416,577.711 166.337,561.128 174.257,545.691 182.178,531.533 190.099,518.795 198.02,507.621 205.941,498.156 213.861,490.536 221.782,484.88 229.703,476.665 237.624,467.739 245.545,459.683 253.465,452.564 261.386,446.446 269.307,441.388 277.228,437.444 285.149,434.657 293.069,430.895 300.99,426.825 308.911,423.951 316.832,422.309 324.752,415.937 332.673,410.136 340.594,405.549 348.515,402.24 356.436,400.255 364.356,399.623 372.277,400.355 380.198,402.44 388.119,405.845 396.04,410.524 403.96,394.378 411.881,381.247 419.802,374.118 427.723,373.525 435.644,379.516 443.564,391.633 451.485,399.888 459.406,403.24 467.327,412.343 475.248,426.663 483.168,445.483 491.089,449.957 499.01,408.808 506.931,432.3 514.851,424.75 522.772,442.144 530.693,463.823 538.614,489.005 546.535,517 554.455,651.334 562.376,585.804 " />

<line fill="none" stroke-dasharray = "10, 10"  stroke="orange" stroke-width="6" x1="570.297" y1="400" x2="792.079" y2="400" />

<!--Draw Glitches -->

<line fill="none" stroke="black" stroke-width="4" x1="514.851" y1="493.379" x2="514.851" y2="443.379"  stroke-dasharray = "10,5" />
<text transform="scale(1,-1)" font-family="sans-serif" font-size="30" stroke = "rgb(0,0,0)" line = "rgb(0,0,0)"  fill = "lightblue" x="519.851" y="-443.379" >64</text>

<!-- -->


<!--Draw Glitches -->

<line fill="none" stroke="black" stroke-width="4" x1="514.851" y1="501.946" x2="514.851" y2="451.946"  stroke-dasharray = "10,5" />
<text transform="scale(1,-1)" font-family="sans-serif" font-size="30" stroke = "rgb(0,0,0)" line = "rgb(0,0,0)"  fill = "olive" x="519.851" y="-451.946" >64</text>

<!-- -->


<!--Draw Glitches -->

<line fill="none" stroke="black" stroke-width="4" x1="499.01" y1="398.808" x2="499.01" y2="348.808"  stroke-dasharray = "10,5" />
<text transform="scale(1,-1)" font-family="sans-serif" font-size="30" stroke = "rgb(0,0,0)" line = "rgb(0,0,0)"  fill = "black" x="504.01" y="-348.808" >62</text>
<line fill="none" stroke="black" stroke-width="4" x1="538.614" y1="479.005" x2="538.614" y2="429.005"  stroke-dasharray = "10,5" />
<text transform="scale(1,-1)" font-family="sans-serif" font-size="30" stroke = "rgb(0,0,0)" line = "rgb(0,0,0)"  fill = "black" x="543.614" y="-429.005" >67</text>

<!-- -->


<!--Draw the X and Y axes -->
<polyline fill="none" stroke="black" stroke-width="6"  points=" 800,0 0,0 0, 800" />
<polyline fill="none" stroke="black" stroke-width="1"  points=" 0 800  800 800  800 0" />
<!-- -->


<!--Draw labels and tics for X axis -->

<line fill="none" stroke="black"  stroke-width="6"  x1="0.5" y1="0" x2="0.5" y2="-20" />
<text transform="scale(1,-1)" font-family="sans-serif" font-size="30" x="-24.5" y="45" >0</text>
<line fill="none" stroke="black"  stroke-width="6"  x1="158.916" y1="0" x2="158.916" y2="-20" />
<text transform="scale(1,-1)" font-family="sans-serif" font-size="30" x="133.916" y="45" >20</text>
<line fill="none" stroke="black"  stroke-width="6"  x1="317.332" y1="0" x2="317.332" y2="-20" />
<text transform="scale(1,-1)" font-family="sans-serif" font-size="30" x="292.332" y="45" >40</text>
<line fill="none" stroke="black"  stroke-width="6"  x1="475.748" y1="0" x2="475.748" y2="-20" />
<text transform="scale(1,-1)" font-family="sans-serif" font-size="30" x="450.748" y="45" >60</text>
<line fill="none" stroke="black"  stroke-width="6"  x1="634.163" y1="0" x2="634.163" y2="-20" />
<text transform="scale(1,-1)" font-family="sans-serif" font-size="30" x="609.163" y="45" >80</text>
<line fill="none" stroke="black"  stroke-width="6"  x1="792.579" y1="0" x2="792.579" y2="-20" />
<text transform="scale(1,-1)" font-family="sans-serif" font-size="30" x="767.579" y="45" >100</text>


<!--Draw labels and tics for Y axis -->

<line fill="none" stroke="black" stroke-width="6" x1="0.0" y1="0" x2="-20" y2="0" />
<text transform="scale(1,-1)" text-anchor="end" font-family="sans-serif" font-size="30" x="-25" y="10" >-5</text>
<line fill="none" stroke="black" stroke-width="6" x1="0.0" y1="133.333" x2="-20" y2="133.333" />
<text transform="scale(1,-1)" text-anchor="end" font-family="sans-serif" font-size="30" x="-25" y="-123.333" >0</text>
<line fill="none" stroke="black" stroke-width="6" x1="0.0" y1="266.667" x2="-20" y2="266.667" />
<text transform="scale(1,-1)" text-anchor="end" font-family="sans-serif" font-size="30" x="-25" y="-256.667" >5</text>
<line fill="none" stroke="black" stroke-width="6" x1="0.0" y1="400" x2="-20" y2="400" />
<text transform="scale(1,-1)" text-anchor="end" font-family="sans-serif" font-size="30" x="-25" y="-390" >10</text>
<line fill="none" stroke="black" stroke-width="6" x1="0.0" y1="533.333" x2="-20" y2="533.333" />
<text transform="scale(1,-1)" text-anchor="end" font-family="sans-serif" font-size="30" x="-25" y="-523.333" >15</text>
<line fill="none" stroke="black" stroke-width="6" x1="0.0" y1="666.667" x2="-20" y2="666.667" />
<text transform="scale(1,-1)" text-anchor="end" font-family="sans-serif" font-size="30" x="-25" y="-656.667" >20</text>
<line fill="none" stroke="black" stroke-width="6" x1="0.0" y1="800" x2="-20" y2="800" />
<text transform="scale(1,-1)" text-anchor="end" font-family="sans-serif" font-size="30" x="-25" y="-790" >25</text>

-->
</g>
</g>
<!-- Run Constants
PRINTDISTANCEDATA bool true
GLITCHESONLY bool false
PERTURBBY double 0.05
GLITCHLEVEL double 3
BOUNDARYWINDOW double 0.065
STEPSPERFRAME int 100
TRIALS int 1
ALLBLACK bool true
FILEPREFIX string Fol
NIGGLISELLINGFIRST bool false
ENABLE DistanceEnableString 
DISABLE DistanceDisableString 
GRAPHSIZE int 0
BORDER int 0
PLOTSIZE int 0
AXISWIDTH int 6
TICLENGTH int 20
VECTOR g6 
FOLLOWERMODE FollowerMode line
FIXRANDOMSEED fixRandomSeed true
RANDOMSEED int 18
TIMESTAMP bool false
END end 


-->
</svg>
