<?xml version="1.0" standalone="no"?>
<!-- the width and height set the total pixel output of the image in the browser -->
<!-- whatever is within the viewbox will be remapped to show in this size -->
<svg width="1000" height="1000" viewBox="1 0 1000 1000"  version="1.1" xmlns="http://www.w3.org/2000/svg" xmlns:xlink="http://www.w3.org/1999/xlink">
 <desc>ID (and file name) = Fol_2018-05-14.13_11_42.80_79.svg </desc> 
 <text x="560" y="30" font-family="sans-serif" font-size="20">Wall time passed: 13774 msec.</text>
<text x="300" y="60"   font-family="sans-serif" font-size="20" fill="lightblue">S6  lightblue</text>
<text x="300" y="85"   font-family="sans-serif" font-size="20" fill="slategrey">NCDist  slategrey</text>
<text x="300" y="110"  font-family="sans-serif" font-size="20" fill="violet">D7  violet</text>
<text x="300" y="135"  font-family="sans-serif" font-size="20" fill="olive">CS6Dist  olive</text>

 <text x="140"  y="30"  font-family="sans-serif" font-size="20" >Fol_2018-05-14.13_11_42.80_79.svg  </text> 


 <!--DISTANCE PLOT BEGINS-->


<!-- the following will scale and place the distance plot -->
<g  transform="translate(0,50) ">
<g transform="translate(150,700) scale(1 -1)">
   <polyline fill="none" stroke=" lightblue " stroke-width=" 12 " points=" 0.6,564.549 1.2,564.232 1.8,563.92 2.4,563.612 3,563.308 3.6,563.008 4.2,562.712 4.8,562.42 5.4,562.132 6,561.848 6.6,561.568 7.2,561.292 7.8,561.021 8.4,560.753 9,560.489 9.6,560.23 10.2,559.974 10.8,559.723 11.4,559.475 12,559.232 12.6,558.993 13.2,558.758 13.8,558.527 14.4,558.3 15,558.077 15.6,557.858 16.2,557.643 16.8,557.433 17.4,557.226 18,557.024 18.6,556.826 19.2,556.632 19.8,556.442 20.4,556.256 21,556.074 21.6,555.896 22.2,555.723 22.8,555.553 23.4,555.388 24,555.227 24.6,555.07 25.2,554.917 25.8,554.768 26.4,556.546 27,556.52 27.6,556.495 28.2,556.471 28.8,556.45 29.4,556.429 30,556.411 30.6,556.394 31.2,556.379 31.8,556.365 32.4,556.353 33,556.343 33.6,556.334 34.2,556.327 34.8,556.321 35.4,556.317 36,556.315 36.6,556.314 37.2,556.315 37.8,556.317 38.4,556.321 39,556.327 39.6,556.334 40.2,556.343 40.8,556.354 41.4,556.366 42,556.38 42.6,556.395 43.2,556.413 43.8,556.431 44.4,556.452 45,556.473 45.6,556.497 46.2,556.522 46.8,556.549 47.4,556.577 48,556.607 48.6,556.639 49.2,556.672 49.8,556.707 50.4,556.743 51,556.781 51.6,556.821 52.2,556.862 52.8,556.905 53.4,556.95 54,556.996 54.6,557.044 55.2,557.093 55.8,557.144 56.4,557.197 57,557.251 57.6,557.307 58.2,557.364 58.8,557.423 59.4,557.484 60,557.546 60.6,557.61 61.2,557.675 61.8,557.742 62.4,557.811 63,557.881 63.6,557.953 64.2,558.027 64.8,558.102 65.4,558.179 66,558.257 66.6,558.337 67.2,558.419 67.8,558.502 68.4,558.586 69,558.673 69.6,558.761 70.2,558.85 70.8,558.942 71.4,559.034 72,559.129 72.6,559.114 73.2,559.097 73.8,559.08 74.4,559.065 75,559.051 75.6,559.039 76.2,559.028 76.8,559.018 77.4,559.01 78,559.003 78.6,558.998 79.2,558.994 79.8,558.991 80.4,558.99 81,558.99 81.6,558.992 82.2,558.995 82.8,558.999 83.4,559.005 84,559.012 84.6,559.02 85.2,559.03 85.8,559.041 86.4,559.054 87,559.068 87.6,559.083 88.2,559.1 88.8,559.118 89.4,559.138 90,559.159 90.6,559.181 91.2,559.205 91.8,559.23 92.4,559.256 93,559.284 93.6,559.314 94.2,559.344 94.8,559.376 95.4,559.41 96,559.444 96.6,559.481 97.2,559.518 97.8,559.557 98.4,559.597 99,559.639 99.6,559.682 100.2,559.727 100.8,559.772 101.4,559.82 102,559.868 102.6,559.918 103.2,559.97 103.8,560.022 104.4,560.076 105,560.132 105.6,560.189 106.2,560.247 106.8,560.307 107.4,560.368 108,560.43 108.6,560.494 109.2,560.559 109.8,560.626 110.4,560.694 111,560.763 111.6,560.834 112.2,560.906 112.8,560.979 113.4,561.054 114,561.13 114.6,561.208 115.2,561.287 115.8,561.367 116.4,561.449 117,561.532 117.6,561.616 118.2,561.702 118.8,561.789 119.4,561.878 120,561.968 120.6,562.059 121.2,562.152 121.8,562.246 122.4,562.342 123,562.438 123.6,562.537 124.2,562.636 124.8,562.737 125.4,562.839 126,562.943 126.6,563.048 127.2,563.154 127.8,563.262 128.4,563.371 129,563.482 129.6,563.594 130.2,563.707 130.8,563.822 131.4,563.938 132,564.055 132.6,564.174 133.2,564.294 133.8,564.415 134.4,564.538 135,564.662 135.6,564.788 136.2,564.914 136.8,565.043 137.4,565.172 138,565.303 138.6,565.435 139.2,565.569 139.8,565.704 140.4,565.841 141,565.978 141.6,566.117 142.2,566.258 142.8,566.4 143.4,566.543 144,566.687 144.6,566.833 145.2,566.98 145.8,567.129 146.4,567.279 147,567.43 147.6,567.583 148.2,567.737 148.8,567.892 149.4,568.049 150,568.207 150.6,568.366 151.2,568.527 151.8,568.689 152.4,568.852 153,569.017 153.6,569.183 154.2,569.351 154.8,569.519 155.4,569.689 156,569.861 156.6,570.034 157.2,570.208 157.8,570.383 158.4,570.56 159,570.605 159.6,570.603 160.2,570.602 160.8,570.603 161.4,570.605 162,570.608 162.6,570.613 163.2,570.619 163.8,570.627 164.4,570.636 165,570.646 165.6,570.658 166.2,570.671 166.8,570.685 167.4,570.701 168,570.718 168.6,570.736 169.2,570.756 169.8,570.777 170.4,570.8 171,570.824 171.6,570.849 172.2,570.876 172.8,570.904 173.4,570.934 174,570.964 174.6,570.997 175.2,571.03 175.8,571.065 176.4,571.101 177,571.139 177.6,571.178 178.2,571.218 178.8,571.26 179.4,571.303 180,571.348 180.6,571.394 181.2,571.441 181.8,571.489 182.4,571.539 183,571.591 183.6,571.643 184.2,571.697 184.8,571.753 185.4,571.81 186,571.868 186.6,571.927 187.2,571.988 187.8,572.05 188.4,572.114 189,572.179 189.6,572.245 190.2,572.313 190.8,572.382 191.4,572.452 192,572.524 192.6,572.597 193.2,572.672 193.8,572.747 194.4,572.825 195,572.903 195.6,572.983 196.2,573.064 196.8,573.147 197.4,573.231 198,573.316 198.6,573.403 199.2,573.491 199.8,573.581 200.4,573.671 201,573.764 201.6,573.857 202.2,573.952 202.8,574.048 203.4,574.146 204,574.245 204.6,574.345 205.2,574.447 205.8,574.55 206.4,574.654 207,574.76 207.6,574.867 208.2,574.975 208.8,575.085 209.4,575.196 210,575.308 210.6,575.422 211.2,575.537 211.8,575.654 212.4,575.772 213,575.891 213.6,576.011 214.2,576.133 214.8,576.256 215.4,576.381 216,576.507 216.6,576.634 217.2,576.763 217.8,576.893 218.4,577.024 219,577.157 219.6,577.291 220.2,577.426 220.8,577.563 221.4,577.701 222,577.84 222.6,577.981 223.2,578.123 223.8,578.266 224.4,578.411 225,578.557 225.6,578.704 226.2,572.631 226.8,572.623 227.4,572.617 228,572.611 228.6,572.606 229.2,572.602 229.8,572.598 230.4,572.596 231,572.594 231.6,572.592 232.2,572.592 232.8,572.592 233.4,572.593 234,572.595 234.6,572.597 235.2,572.6 235.8,572.604 236.4,572.609 237,572.614 237.6,572.621 238.2,572.627 238.8,572.635 239.4,572.644 240,572.653 240.6,572.663 241.2,572.673 241.8,572.685 242.4,572.697 243,572.71 243.6,572.723 244.2,572.737 244.8,572.753 245.4,572.768 246,572.785 246.6,572.802 247.2,572.82 247.8,572.839 248.4,572.859 249,572.879 249.6,572.9 250.2,572.922 250.8,572.944 251.4,572.968 252,572.992 252.6,573.016 253.2,573.042 253.8,573.068 254.4,573.095 255,573.123 255.6,573.151 256.2,573.181 256.8,573.211 257.4,573.241 258,573.273 258.6,573.305 259.2,573.338 259.8,573.371 260.4,573.406 261,573.441 261.6,573.477 262.2,573.514 262.8,573.551 263.4,573.589 264,573.628 264.6,573.667 265.2,573.708 265.8,573.749 266.4,573.791 267,573.833 267.6,573.877 268.2,573.921 268.8,573.965 269.4,574.011 270,574.057 270.6,574.104 271.2,574.152 271.8,574.201 272.4,574.25 273,574.3 273.6,574.35 274.2,574.402 274.8,574.454 275.4,574.507 276,574.561 276.6,574.615 277.2,574.67 277.8,574.726 278.4,574.783 279,574.84 279.6,574.898 280.2,574.957 280.8,575.017 281.4,575.077 282,575.138 282.6,575.2 283.2,575.262 283.8,575.326 284.4,575.39 285,575.454 285.6,575.52 286.2,575.586 286.8,575.653 287.4,575.721 288,575.789 288.6,575.858 289.2,575.928 289.8,575.999 290.4,576.07 291,576.142 291.6,576.215 292.2,576.289 292.8,576.363 293.4,576.438 294,576.514 294.6,576.591 295.2,576.668 295.8,576.746 296.4,576.825 297,576.904 297.6,576.984 298.2,577.065 298.8,577.147 299.4,577.229 300,577.312 300.6,577.396 301.2,577.481 301.8,577.566 302.4,577.652 303,577.739 303.6,577.827 304.2,577.915 304.8,578.004 305.4,578.094 306,578.184 306.6,578.275 307.2,578.367 307.8,578.46 308.4,578.553 309,578.647 309.6,578.742 310.2,578.838 310.8,578.934 311.4,579.031 312,579.129 312.6,579.227 313.2,579.326 313.8,579.426 314.4,579.527 315,579.629 315.6,579.731 316.2,579.833 316.8,579.937 317.4,580.041 318,580.146 318.6,580.252 319.2,580.359 319.8,580.466 320.4,580.574 321,580.664 321.6,580.534 322.2,580.406 322.8,580.278 323.4,580.152 324,580.027 324.6,579.904 325.2,579.782 325.8,579.661 326.4,579.542 327,579.424 327.6,579.307 328.2,579.192 328.8,579.05 329.4,578.834 330,578.619 330.6,578.405 331.2,578.193 331.8,577.982 332.4,577.772 333,577.563 333.6,577.356 334.2,577.151 334.8,576.946 335.4,576.743 336,576.541 336.6,576.341 337.2,576.142 337.8,575.944 338.4,575.747 339,575.552 339.6,575.359 340.2,575.166 340.8,574.975 341.4,574.785 342,574.597 342.6,574.41 343.2,574.224 343.8,574.039 344.4,573.856 345,573.674 345.6,573.494 346.2,573.315 346.8,573.137 347.4,572.961 348,572.786 348.6,572.612 349.2,572.44 349.8,572.269 350.4,572.099 351,571.931 351.6,571.764 352.2,571.598 352.8,571.434 353.4,571.271 354,571.109 354.6,570.949 355.2,570.79 355.8,570.632 356.4,570.476 357,570.321 357.6,570.168 358.2,570.016 358.8,569.865 359.4,569.716 360,569.568 360.6,569.421 361.2,569.276 361.8,569.132 362.4,568.989 363,568.848 363.6,568.708 364.2,568.569 364.8,568.432 365.4,568.296 366,568.162 366.6,568.029 367.2,567.897 367.8,567.767 368.4,567.638 369,567.51 369.6,567.384 370.2,567.259 370.8,567.135 371.4,567.013 372,566.892 372.6,566.773 373.2,566.655 373.8,566.538 374.4,566.423 375,566.309 375.6,566.196 376.2,566.085 376.8,565.975 377.4,565.867 378,565.759 378.6,565.654 379.2,565.549 379.8,565.446 380.4,565.345 381,565.245 381.6,565.146 382.2,565.048 382.8,564.952 383.4,564.857 384,564.764 384.6,564.672 385.2,564.581 385.8,564.492 386.4,564.404 387,564.318 387.6,564.233 388.2,564.149 388.8,564.067 389.4,563.986 390,563.906 390.6,563.828 391.2,563.751 391.8,563.676 392.4,563.602 393,563.529 393.6,563.458 394.2,563.388 394.8,563.32 395.4,563.253 396,563.187 396.6,563.122 397.2,563.059 397.8,562.998 398.4,562.938 399,562.879 399.6,562.821 400.2,562.765 400.8,562.711 401.4,562.657 402,562.606 402.6,562.555 403.2,562.506 403.8,562.458 404.4,562.412 405,562.367 405.6,562.323 406.2,562.281 406.8,562.241 407.4,562.201 408,562.163 408.6,562.127 409.2,562.091 409.8,562.057 410.4,562.025 411,561.994 411.6,561.964 412.2,561.936 412.8,561.909 413.4,561.884 414,561.859 414.6,561.837 415.2,561.815 415.8,561.795 416.4,561.777 417,561.76 417.6,561.744 418.2,561.73 418.8,561.717 419.4,561.705 420,561.695 420.6,561.686 421.2,561.679 421.8,561.673 422.4,561.668 423,561.665 423.6,561.663 424.2,561.662 424.8,561.663 425.4,561.666 426,554.597 426.6,554.347 427.2,554.1 427.8,553.855 428.4,553.612 429,553.372 429.6,553.135 430.2,552.899 430.8,552.667 431.4,552.436 432,552.209 432.6,551.983 433.2,551.76 433.8,551.54 434.4,551.322 435,551.106 435.6,550.893 436.2,550.683 436.8,550.474 437.4,550.269 438,550.065 438.6,549.865 439.2,549.666 439.8,549.471 440.4,549.277 441,549.086 441.6,548.898 442.2,548.712 442.8,548.529 443.4,548.348 444,548.169 444.6,547.993 445.2,547.82 445.8,547.649 446.4,547.48 447,547.314 447.6,547.151 448.2,546.99 448.8,546.831 449.4,546.675 450,546.522 450.6,546.371 451.2,546.222 451.8,546.076 452.4,545.933 453,545.791 453.6,545.653 454.2,545.517 454.8,545.383 455.4,545.252 456,545.124 456.6,544.998 457.2,544.874 457.8,544.753 458.4,544.635 459,544.519 459.6,544.405 460.2,544.294 460.8,544.186 461.4,544.08 462,543.977 462.6,543.876 463.2,543.778 463.8,543.682 464.4,543.588 465,543.498 465.6,543.409 466.2,543.324 466.8,543.24 467.4,543.16 468,543.081 468.6,543.006 469.2,542.933 469.8,542.862 470.4,542.794 471,542.729 471.6,542.665 472.2,542.605 472.8,542.547 473.4,542.492 474,542.439 474.6,542.388 475.2,542.34 475.8,542.295 476.4,542.252 477,542.212 477.6,542.174 478.2,542.139 478.8,542.107 479.4,542.076 480,542.049 480.6,542.024 481.2,542.001 481.8,541.981 482.4,541.964 483,541.949 483.6,541.937 484.2,541.927 484.8,541.919 485.4,541.915 486,541.912 486.6,541.913 487.2,541.916 487.8,541.921 488.4,541.929 489,541.939 489.6,541.952 490.2,541.968 490.8,541.986 491.4,542.006 492,542.029 492.6,542.055 493.2,542.083 493.8,542.114 494.4,542.147 495,542.183 495.6,542.221 496.2,542.262 496.8,542.305 497.4,542.351 498,542.4 498.6,542.451 499.2,542.504 499.8,542.56 500.4,542.619 501,542.68 501.6,542.743 502.2,542.809 502.8,542.878 503.4,542.949 504,543.023 504.6,543.099 505.2,543.178 505.8,543.174 506.4,543.127 507,543.082 507.6,543.04 508.2,543 508.8,542.963 509.4,542.928 510,542.896 510.6,542.866 511.2,542.839 511.8,542.814 512.4,542.792 513,542.772 513.6,542.755 514.2,542.741 514.8,542.729 515.4,542.719 516,542.712 516.6,542.708 517.2,542.706 517.8,542.707 518.4,542.71 519,542.715 519.6,542.724 520.2,542.735 520.8,542.748 521.4,542.764 522,542.782 522.6,542.803 523.2,542.826 523.8,542.852 524.4,542.881 525,542.912 525.6,542.946 526.2,542.982 526.8,543.02 527.4,543.061 528,543.105 528.6,543.151 529.2,543.2 529.8,543.251 530.4,543.305 531,543.362 531.6,543.42 532.2,543.482 532.8,543.546 533.4,543.612 534,543.681 534.6,543.753 535.2,543.827 535.8,543.903 536.4,543.982 537,544.064 537.6,544.148 538.2,544.234 538.8,544.324 539.4,544.415 540,544.509 540.6,544.606 541.2,544.705 541.8,544.807 542.4,544.911 543,545.018 543.6,545.127 544.2,545.239 544.8,545.353 545.4,545.47 546,545.59 546.6,545.711 547.2,545.836 547.8,545.963 548.4,546.092 549,546.224 549.6,546.358 550.2,546.495 550.8,546.634 551.4,546.776 552,546.921 552.6,547.068 553.2,547.217 553.8,547.369 554.4,547.523 555,547.68 555.6,547.839 556.2,548.001 556.8,548.165 557.4,548.332 558,548.502 558.6,548.673 559.2,548.848 559.8,549.024 560.4,549.204 561,549.385 561.6,549.569 562.2,549.756 562.8,549.945 563.4,550.137 564,550.331 564.6,550.528 565.2,550.727 565.8,550.928 566.4,551.132 567,551.339 567.6,551.547 568.2,551.759 568.8,551.973 569.4,552.189 570,552.408 570.6,552.629 571.2,552.853 571.8,553.079 572.4,553.307 573,553.538 573.6,553.772 574.2,554.008 574.8,554.246 575.4,554.487 576,554.73 576.6,554.976 577.2,555.224 577.8,555.474 578.4,555.727 579,555.983 579.6,556.24 580.2,556.501 580.8,556.763 581.4,557.028 582,557.296 582.6,557.566 583.2,557.838 583.8,558.113 584.4,558.39 585,558.67 585.6,558.952 586.2,559.236 586.8,559.523 587.4,559.812 588,560.104 588.6,560.398 589.2,560.694 589.8,560.993 590.4,561.294 591,561.598 591.6,561.904 592.2,562.212 592.8,562.523 593.4,562.836 594,563.151 594.6,563.469 595.2,563.789 595.8,563.985 596.4,564.06 597,564.137 597.6,564.216 598.2,564.296 598.8,564.378 599.4,564.463 600,564.549 " />
   <polyline fill="none" stroke=" slategrey " stroke-width=" 9 " points=" " />
   <polyline fill="none" stroke=" violet " stroke-width=" 6 " points=" " />
   <polyline fill="none" stroke=" olive " stroke-width=" 3 " points=" 0.6,81.8109 1.2,81.9722 1.8,82.1337 2.4,82.2953 3,82.4572 3.6,82.6193 4.2,82.7815 4.8,82.9439 5.4,83.1066 6,83.2694 6.6,83.4324 7.2,83.5956 7.8,83.7591 8.4,83.9227 9,84.0864 9.6,84.2504 10.2,84.4146 10.8,84.579 11.4,84.7436 12,84.9083 12.6,85.0733 13.2,85.2385 13.8,85.4038 14.4,85.5694 15,85.7351 15.6,85.6991 16.2,85.4312 16.8,85.1638 17.4,84.897 18,84.6306 18.6,84.3648 19.2,84.0994 19.8,83.8346 20.4,83.5703 21,83.3065 21.6,83.0431 22.2,82.7803 22.8,82.518 23.4,82.2562 24,81.9949 24.6,81.7341 25.2,81.4738 25.8,81.214 26.4,81.1773 27,81.437 27.6,81.6972 28.2,81.958 28.8,82.2192 29.4,82.481 30,82.7432 30.6,83.0059 31.2,83.2692 31.8,83.5329 32.4,83.7972 33,84.0619 33.6,84.3272 34.2,84.593 34.8,84.8593 35.4,85.1261 36,85.3934 36.6,85.6612 37.2,85.9295 37.8,86.1984 38.4,86.4677 39,86.6239 39.6,86.521 40.2,86.418 40.8,86.3152 41.4,86.2124 42,86.1098 42.6,86.0072 43.2,85.9046 43.8,85.8022 44.4,85.6998 45,85.5975 45.6,85.4952 46.2,85.3931 46.8,85.291 47.4,85.189 48,85.087 48.6,84.9852 49.2,84.8834 49.8,84.7817 50.4,84.68 51,84.5785 51.6,84.477 52.2,84.3755 52.8,84.2742 53.4,84.1729 54,84.0717 54.6,83.9706 55.2,83.8696 55.8,83.7686 56.4,83.6677 57,83.5669 57.6,83.4661 58.2,83.3654 58.8,83.2648 59.4,83.1643 60,83.0638 60.6,82.9635 61.2,82.8631 61.8,82.7629 62.4,82.6627 63,82.5627 63.6,82.4626 64.2,82.3627 64.8,82.2628 65.4,82.163 66,82.0633 66.6,81.9636 67.2,81.864 67.8,81.7645 68.4,81.6651 69,81.5657 69.6,81.4664 70.2,81.3672 70.8,81.2681 71.4,81.169 72,81.07 72.6,81.1608 73.2,81.2599 73.8,81.359 74.4,81.4582 75,81.5575 75.6,81.6569 76.2,81.7563 76.8,81.8558 77.4,81.9554 78,82.055 78.6,82.1548 79.2,82.2546 79.8,82.3544 80.4,82.4544 81,82.5544 81.6,82.6545 82.2,82.7546 82.8,82.8549 83.4,82.9552 84,83.0555 84.6,83.156 85.2,83.2565 85.8,83.3571 86.4,83.4578 87,83.5585 87.6,83.6594 88.2,83.7603 88.8,83.8612 89.4,83.9623 90,84.0634 90.6,84.1646 91.2,84.2658 91.8,84.3672 92.4,84.4686 93,84.5701 93.6,84.6716 94.2,84.7733 94.8,84.875 95.4,84.9767 96,85.0786 96.6,85.1805 97.2,85.2825 97.8,85.3846 98.4,85.4868 99,85.589 99.6,85.6913 100.2,85.7937 100.8,85.8961 101.4,85.9987 102,86.1013 102.6,86.204 103.2,86.3067 103.8,86.4095 104.4,86.5124 105,86.6154 105.6,86.7185 106.2,86.8216 106.8,86.9248 107.4,87.0281 108,87.1315 108.6,87.2349 109.2,87.3384 109.8,87.442 110.4,87.5457 111,87.6494 111.6,87.7532 112.2,87.8571 112.8,87.9611 113.4,88.0651 114,88.1692 114.6,88.2734 115.2,88.3777 115.8,88.482 116.4,88.5864 117,88.6909 117.6,88.7955 118.2,88.9002 118.8,89.0049 119.4,89.1097 120,89.2146 120.6,89.3195 121.2,89.4246 121.8,89.5297 122.4,89.6349 123,89.7402 123.6,89.8455 124.2,89.9509 124.8,90.0564 125.4,90.162 126,90.2676 126.6,90.3734 127.2,90.4792 127.8,90.5851 128.4,90.691 129,90.7971 129.6,90.9032 130.2,91.0094 130.8,91.1157 131.4,91.222 132,91.3284 132.6,91.435 133.2,91.5415 133.8,91.6482 134.4,91.755 135,91.8618 135.6,91.9687 136.2,92.0756 136.8,92.1827 137.4,92.2898 138,92.3971 138.6,92.5043 139.2,92.6117 139.8,92.7192 140.4,92.8267 141,92.9343 141.6,93.042 142.2,93.1497 142.8,93.2576 143.4,93.3655 144,93.4735 144.6,93.5816 145.2,93.6898 145.8,93.798 146.4,93.9063 147,94.0147 147.6,94.1232 148.2,94.2317 148.8,94.3404 149.4,94.4491 150,94.5579 150.6,94.6668 151.2,94.7757 151.8,94.8848 152.4,94.9939 153,95.1031 153.6,95.2124 154.2,95.3217 154.8,95.4311 155.4,95.5407 156,95.6503 156.6,95.7599 157.2,95.8697 157.8,95.9795 158.4,96.0895 159,96.1995 159.6,96.3095 160.2,96.4197 160.8,96.5299 161.4,96.6403 162,96.7507 162.6,96.8611 163.2,96.9717 163.8,97.0824 164.4,97.1931 165,97.3039 165.6,97.4148 166.2,97.5258 166.8,97.6368 167.4,97.7479 168,97.8592 168.6,97.9705 169.2,98.0818 169.8,98.1933 170.4,98.3048 171,98.4165 171.6,98.5282 172.2,98.64 172.8,98.7518 173.4,98.8638 174,98.9758 174.6,99.0879 175.2,99.2001 175.8,99.3124 176.4,99.4248 177,99.5372 177.6,99.6498 178.2,99.7624 178.8,99.8751 179.4,99.9878 180,100.101 180.6,100.214 181.2,100.327 181.8,100.44 182.4,100.553 183,100.666 183.6,100.659 184.2,100.362 184.8,100.066 185.4,99.7708 186,99.4759 186.6,99.1816 187.2,98.8879 187.8,98.5947 188.4,98.3021 189,98.01 189.6,97.7185 190.2,97.4276 190.8,97.1372 191.4,96.8474 192,96.5581 192.6,96.2694 193.2,95.9812 193.8,95.6936 194.4,95.4066 195,95.12 195.6,94.8341 196.2,94.5487 196.8,94.2638 197.4,93.9795 198,93.6958 198.6,93.4125 199.2,93.1299 199.8,92.8477 200.4,92.5661 201,92.2851 201.6,92.0046 202.2,91.7246 202.8,91.4452 203.4,91.1662 204,90.8879 204.6,90.61 205.2,90.3327 205.8,90.056 206.4,89.7797 207,89.504 207.6,89.2288 208.2,88.9542 208.8,88.6801 209.4,88.4065 210,88.1334 210.6,87.8608 211.2,87.5888 211.8,87.3173 212.4,87.0463 213,86.7758 213.6,86.5059 214.2,86.2364 214.8,85.9675 215.4,85.6991 216,85.4312 216.6,85.1638 217.2,84.897 217.8,84.6306 218.4,84.3648 219,84.0994 219.6,83.8346 220.2,83.5703 220.8,83.3065 221.4,83.0431 222,82.7803 222.6,82.518 223.2,82.2562 223.8,81.9949 224.4,81.7341 225,81.4738 225.6,81.214 226.2,81.1773 226.8,81.437 227.4,81.6972 228,81.958 228.6,82.2192 229.2,82.481 229.8,82.7432 230.4,83.0059 231,83.2692 231.6,83.5329 232.2,83.7972 232.8,84.0619 233.4,84.3272 234,84.593 234.6,84.8593 235.2,85.1261 235.8,85.3934 236.4,85.6612 237,85.9295 237.6,86.1984 238.2,86.4677 238.8,86.7376 239.4,87.008 240,87.2789 240.6,87.5504 241.2,87.8223 241.8,88.0948 242.4,88.3678 243,88.6413 243.6,88.9154 244.2,89.19 244.8,89.4651 245.4,89.7407 246,90.0169 246.6,90.2936 247.2,90.5708 247.8,90.8485 248.4,91.1268 249,91.4057 249.6,91.685 250.2,91.9649 250.8,92.2454 251.4,92.5263 252,92.8079 252.6,93.0899 253.2,93.3725 253.8,93.6557 254.4,93.9393 255,94.2236 255.6,94.5084 256.2,94.7937 256.8,95.0796 257.4,95.366 258,95.653 258.6,95.9405 259.2,96.2286 259.8,96.5172 260.4,96.8064 261,97.0961 261.6,97.3864 262.2,97.6773 262.8,97.5321 263.4,97.3523 264,97.1728 264.6,96.9935 265.2,96.8144 265.8,96.6355 266.4,96.4568 267,96.2784 267.6,96.1001 268.2,95.9221 268.8,95.7443 269.4,95.5666 270,95.3892 270.6,95.212 271.2,95.0351 271.8,94.8583 272.4,94.6817 273,94.5054 273.6,94.3292 274.2,94.1533 274.8,93.9776 275.4,93.802 276,93.6267 276.6,93.4516 277.2,93.2767 277.8,93.1021 278.4,92.9276 279,92.7533 279.6,92.5792 280.2,92.4054 280.8,92.2317 281.4,92.0583 282,91.885 282.6,91.712 283.2,91.5392 283.8,91.3665 284.4,91.1941 285,91.0219 285.6,90.8499 286.2,90.6781 286.8,90.5065 287.4,90.3351 288,90.1639 288.6,89.9929 289.2,89.8221 289.8,89.6515 290.4,89.4811 291,89.3109 291.6,89.141 292.2,88.9712 292.8,88.8016 293.4,88.6322 294,88.463 294.6,88.2941 295.2,88.1253 295.8,87.9567 296.4,87.7883 297,87.6202 297.6,87.4522 298.2,87.2844 298.8,87.1168 299.4,86.9494 300,86.7823 300.6,86.6153 301.2,86.4485 301.8,86.2819 302.4,86.1155 303,85.9493 303.6,85.7833 304.2,85.6175 304.8,85.4519 305.4,85.2865 306,85.1213 306.6,84.9563 307.2,84.7914 307.8,84.6268 308.4,84.4624 309,84.2981 309.6,84.1341 310.2,83.9702 310.8,83.8066 311.4,83.6431 312,83.4798 312.6,83.3168 313.2,83.1539 313.8,82.9912 314.4,82.8287 315,82.6664 315.6,82.5043 316.2,82.3424 316.8,82.1806 317.4,82.0191 318,81.8577 318.6,81.6966 319.2,81.5356 319.8,81.3748 320.4,81.2142 321,81.078 321.6,81.2384 322.2,81.399 322.8,81.5598 323.4,81.7208 324,81.882 324.6,82.0434 325.2,82.205 325.8,82.3667 326.4,82.5287 327,82.6908 327.6,82.8532 328.2,83.0157 328.8,83.1784 329.4,83.3413 330,83.5044 330.6,83.6677 331.2,83.8312 331.8,83.9949 332.4,84.1588 333,84.3229 333.6,84.4871 334.2,84.6516 334.8,84.8162 335.4,84.9811 336,85.1461 336.6,85.3114 337.2,85.4768 337.8,85.6425 338.4,85.8083 339,85.9743 339.6,86.1405 340.2,86.307 340.8,86.4736 341.4,86.6404 342,86.8074 342.6,86.9746 343.2,87.1421 343.8,87.3097 344.4,87.4775 345,87.6455 345.6,87.8137 346.2,87.9821 346.8,88.1507 347.4,88.3195 348,88.4885 348.6,88.6577 349.2,88.8271 349.8,88.9967 350.4,89.1666 351,89.3366 351.6,89.5068 352.2,89.6772 352.8,89.8478 353.4,90.0186 354,90.1897 354.6,90.3609 355.2,90.5323 355.8,90.704 356.4,90.8758 357,91.0478 357.6,91.2201 358.2,91.3925 358.8,91.5652 359.4,91.7381 360,91.9111 360.6,92.0844 361.2,92.2579 361.8,92.4316 362.4,92.6054 363,92.7795 363.6,92.9538 364.2,93.1284 364.8,93.3031 365.4,93.478 366,93.6531 366.6,93.8285 367.2,94.004 367.8,94.1798 368.4,94.3557 369,94.5319 369.6,94.7083 370.2,94.8849 370.8,95.0617 371.4,95.2387 372,95.416 372.6,95.5934 373.2,95.771 373.8,95.9489 374.4,96.127 375,96.3052 375.6,96.4837 376.2,96.6624 376.8,96.8414 377.4,97.0205 378,97.1998 378.6,97.3794 379.2,97.5592 379.8,97.7392 380.4,97.9193 381,98.0998 381.6,98.2804 382.2,98.4612 382.8,98.6423 383.4,98.8236 384,99.005 384.6,99.1867 385.2,99.3687 385.8,99.4759 386.4,99.1816 387,98.8879 387.6,98.5947 388.2,98.3021 388.8,98.01 389.4,97.7185 390,97.4276 390.6,97.1372 391.2,96.8474 391.8,96.5581 392.4,96.2694 393,95.9812 393.6,95.6936 394.2,95.4066 394.8,95.12 395.4,94.8341 396,94.5487 396.6,94.2638 397.2,93.9795 397.8,93.6958 398.4,93.4125 399,93.1299 399.6,92.8477 400.2,92.5661 400.8,92.2851 401.4,92.0046 402,91.7246 402.6,91.4452 403.2,91.1662 403.8,90.8879 404.4,90.61 405,90.3327 405.6,90.056 406.2,89.7797 406.8,89.504 407.4,89.2288 408,88.9542 408.6,88.6801 409.2,88.4065 409.8,88.1334 410.4,87.8608 411,87.5888 411.6,87.3173 412.2,87.0463 412.8,86.7758 413.4,86.5059 414,86.2364 414.6,85.9675 415.2,85.6991 415.8,85.4312 416.4,85.1638 417,84.897 417.6,84.6306 418.2,84.3648 418.8,84.0994 419.4,83.8346 420,83.5703 420.6,83.3065 421.2,83.0431 421.8,82.7803 422.4,82.518 423,82.2562 423.6,81.9949 424.2,81.7341 424.8,81.4738 425.4,81.214 426,81.1773 426.6,81.437 427.2,81.6972 427.8,81.958 428.4,82.2192 429,82.481 429.6,82.7432 430.2,83.0059 430.8,83.2692 431.4,83.5329 432,83.7972 432.6,84.0619 433.2,84.3272 433.8,84.593 434.4,84.8593 435,85.1261 435.6,85.3934 436.2,85.6612 436.8,85.9295 437.4,86.1984 438,86.4677 438.6,86.7376 439.2,87.008 439.8,87.2789 440.4,87.5504 441,87.8223 441.6,88.0948 442.2,88.3678 442.8,88.6413 443.4,88.9154 444,89.19 444.6,89.4651 445.2,89.7407 445.8,90.0169 446.4,90.2936 447,90.5708 447.6,90.8485 448.2,91.1268 448.8,91.4057 449.4,91.685 450,91.9649 450.6,92.2454 451.2,92.5263 451.8,92.8079 452.4,93.0899 453,93.3725 453.6,93.6557 454.2,93.9393 454.8,94.2236 455.4,94.5084 456,94.7937 456.6,95.0796 457.2,95.366 457.8,95.653 458.4,95.9405 459,96.2286 459.6,96.5172 460.2,96.8064 460.8,97.0961 461.4,97.3864 462,97.6773 462.6,97.9687 463.2,98.2607 463.8,98.5533 464.4,98.8464 465,99.14 465.6,99.4343 466.2,99.7291 466.8,100.024 467.4,100.32 468,100.617 468.6,100.914 469.2,101.212 469.8,101.51 470.4,101.809 471,102.108 471.6,102.408 472.2,102.708 472.8,102.896 473.4,102.781 474,102.666 474.6,102.551 475.2,102.437 475.8,102.322 476.4,102.208 477,102.093 477.6,101.979 478.2,101.865 478.8,101.75 479.4,101.636 480,101.522 480.6,101.408 481.2,101.295 481.8,101.181 482.4,101.067 483,100.954 483.6,100.84 484.2,100.727 484.8,100.613 485.4,100.5 486,100.387 486.6,100.274 487.2,100.161 487.8,100.048 488.4,99.9353 489,99.8226 489.6,99.7099 490.2,99.5973 490.8,99.4849 491.4,99.3724 492,99.2601 492.6,99.1479 493.2,99.0357 493.8,98.9236 494.4,98.8116 495,98.6997 495.6,98.5879 496.2,98.4761 496.8,98.3645 497.4,98.2529 498,98.1414 498.6,98.03 499.2,97.9186 499.8,97.8074 500.4,97.6962 501,97.5851 501.6,97.4741 502.2,97.3631 502.8,97.2523 503.4,97.1415 504,97.0308 504.6,96.9202 505.2,96.8097 505.8,96.6992 506.4,96.5889 507,96.4786 507.6,96.3684 508.2,96.2583 508.8,96.1482 509.4,96.0382 510,95.9284 510.6,95.8186 511.2,95.7088 511.8,95.5992 512.4,95.4896 513,95.3802 513.6,95.2708 514.2,95.1614 514.8,95.0522 515.4,94.9431 516,94.834 516.6,94.725 517.2,94.6161 517.8,94.5072 518.4,94.3985 519,94.2898 519.6,94.1812 520.2,94.0727 520.8,93.9642 521.4,93.8559 522,93.7476 522.6,93.6394 523.2,93.5312 523.8,93.4232 524.4,93.3152 525,93.2074 525.6,93.0995 526.2,92.9918 526.8,92.8842 527.4,92.7766 528,92.6691 528.6,92.5617 529.2,92.4544 529.8,92.3471 530.4,92.2399 531,92.1328 531.6,92.0258 532.2,91.9189 532.8,91.812 533.4,91.7052 534,91.5985 534.6,91.4919 535.2,91.3853 535.8,91.2789 536.4,91.1725 537,91.0662 537.6,90.9599 538.2,90.8538 538.8,90.7477 539.4,90.6417 540,90.5357 540.6,90.4299 541.2,90.3241 541.8,90.2184 542.4,90.1128 543,90.0073 543.6,89.9018 544.2,89.7964 544.8,89.6911 545.4,89.5859 546,89.4807 546.6,89.3757 547.2,89.2707 547.8,89.1657 548.4,89.0609 549,88.9561 549.6,88.8514 550.2,88.7468 550.8,88.6423 551.4,88.5378 552,88.4334 552.6,88.3291 553.2,88.2249 553.8,88.1207 554.4,88.0166 555,87.9126 555.6,87.8087 556.2,87.7048 556.8,87.6011 557.4,87.4974 558,87.3937 558.6,87.2902 559.2,87.1867 559.8,87.0833 560.4,86.98 561,86.8767 561.6,86.7736 562.2,86.6705 562.8,86.5675 563.4,86.4645 564,86.3616 564.6,86.2588 565.2,86.1561 565.8,86.0535 566.4,85.9509 567,85.8484 567.6,85.746 568.2,85.6437 568.8,85.5414 569.4,85.4392 570,85.3371 570.6,85.235 571.2,85.133 571.8,85.0312 572.4,84.9293 573,84.8276 573.6,84.7259 574.2,84.6243 574.8,84.5228 575.4,84.4213 576,84.32 576.6,84.2187 577.2,84.1174 577.8,84.0163 578.4,83.9152 579,83.8142 579.6,83.7133 580.2,83.6124 580.8,83.5116 581.4,83.4109 582,83.3103 582.6,83.2097 583.2,83.1092 583.8,83.0088 584.4,82.9084 585,82.8082 585.6,82.708 586.2,82.6078 586.8,82.5078 587.4,82.4078 588,82.3079 588.6,82.2081 589.2,82.1083 589.8,82.0086 590.4,81.909 591,81.8095 591.6,81.71 592.2,81.6106 592.8,81.5113 593.4,81.412 594,81.3128 594.6,81.2137 595.2,81.1147 595.8,81.1161 596.4,81.2151 597,81.3142 597.6,81.4134 598.2,81.5127 598.8,81.612 599.4,81.7114 600,81.8109 " />

<!--Draw the X and Y axes -->
<polyline fill="none" stroke="black" stroke-width="6"  points=" 600,0 0,0 0, 600" />
<polyline fill="none" stroke="black" stroke-width="1"  points=" 0 600  600 600  600 0" />
<!-- -->


<!--Draw labels and tics for X axis -->

<line fill="none" stroke="black"  stroke-width="6"  x1="0.5" y1="0" x2="0.5" y2="-20" />
<text transform="scale(1,-1)" font-family="sans-serif" font-size="30" x="-24.5" y="45" >0</text>
<line fill="none" stroke="black"  stroke-width="6"  x1="120.5" y1="0" x2="120.5" y2="-20" />
<text transform="scale(1,-1)" font-family="sans-serif" font-size="30" x="95.5" y="45" >200</text>
<line fill="none" stroke="black"  stroke-width="6"  x1="240.5" y1="0" x2="240.5" y2="-20" />
<text transform="scale(1,-1)" font-family="sans-serif" font-size="30" x="215.5" y="45" >400</text>
<line fill="none" stroke="black"  stroke-width="6"  x1="360.5" y1="0" x2="360.5" y2="-20" />
<text transform="scale(1,-1)" font-family="sans-serif" font-size="30" x="335.5" y="45" >600</text>
<line fill="none" stroke="black"  stroke-width="6"  x1="480.5" y1="0" x2="480.5" y2="-20" />
<text transform="scale(1,-1)" font-family="sans-serif" font-size="30" x="455.5" y="45" >800</text>
<line fill="none" stroke="black"  stroke-width="6"  x1="600.5" y1="0" x2="600.5" y2="-20" />
<text transform="scale(1,-1)" font-family="sans-serif" font-size="30" x="575.5" y="45" >1000</text>


<!--Draw labels and tics for Y axis -->

<line fill="none" stroke="black" stroke-width="6" x1="0.0" y1="0" x2="-20" y2="0" />
<text transform="scale(1,-1)" text-anchor="end" font-family="sans-serif" font-size="30" x="-25" y="10" >20</text>
<line fill="none" stroke="black" stroke-width="6" x1="0.0" y1="100" x2="-20" y2="100" />
<text transform="scale(1,-1)" text-anchor="end" font-family="sans-serif" font-size="30" x="-25" y="-90" >25</text>
<line fill="none" stroke="black" stroke-width="6" x1="0.0" y1="200" x2="-20" y2="200" />
<text transform="scale(1,-1)" text-anchor="end" font-family="sans-serif" font-size="30" x="-25" y="-190" >30</text>
<line fill="none" stroke="black" stroke-width="6" x1="0.0" y1="300" x2="-20" y2="300" />
<text transform="scale(1,-1)" text-anchor="end" font-family="sans-serif" font-size="30" x="-25" y="-290" >35</text>
<line fill="none" stroke="black" stroke-width="6" x1="0.0" y1="400" x2="-20" y2="400" />
<text transform="scale(1,-1)" text-anchor="end" font-family="sans-serif" font-size="30" x="-25" y="-390" >40</text>
<line fill="none" stroke="black" stroke-width="6" x1="0.0" y1="500" x2="-20" y2="500" />
<text transform="scale(1,-1)" text-anchor="end" font-family="sans-serif" font-size="30" x="-25" y="-490" >45</text>
<line fill="none" stroke="black" stroke-width="6" x1="0.0" y1="600" x2="-20" y2="600" />
<text transform="scale(1,-1)" text-anchor="end" font-family="sans-serif" font-size="30" x="-25" y="-590" >50</text>

-->
</g>
</g>
<!-- Run Constants
CIRCLEPLOT bool false
DISTANCEPLOT bool true
PRINTDISTANCEDATA bool true
GLITCHESONLY bool false
PLOT 2doubles 3 4
PERTURBBY double 0.05
GLITCHLEVEL double 3
BOUNDARYWINDOW double 0.065
FRAMESPERPATH int 200
STEPSPERFRAME int 1000
TRIALS int 1
ALLBLACK bool true
FILEPREFIX string Fol
GRAPHSIZE int 0
BORDER int 0
PLOTSIZE int 0
G6LINEWIDTH int 3
DELONELINEWIDTH int 10
AXISWIDTH int 6
TICLENGTH int 20
VECTOR g6 
FOLLOWERMODE FollowerMode line
FIXRANDOMSEED fixRandomSeed false
RANDOMSEED int 19191
TIMESTAMP bool true
END end 




-->
</svg>
