<?xml version="1.0" standalone="no"?>
<!-- the width and height set the total pixel output of the image in the browser -->
<!-- whatever is within the viewbox will be remapped to show in this size -->
<svg width="1000" height="1000" viewBox="1 0 1000 1000"  version="1.1" xmlns="http://www.w3.org/2000/svg" xmlns:xlink="http://www.w3.org/1999/xlink">
 <desc>ID (and file name) = Fol_2018-05-14.13_13_41.88_87.svg </desc> 
 <text x="560" y="30" font-family="sans-serif" font-size="20">Wall time passed: 11531 msec.</text>
<text x="300" y="60"   font-family="sans-serif" font-size="20" fill="lightblue">S6  lightblue</text>
<text x="300" y="85"   font-family="sans-serif" font-size="20" fill="slategrey">NCDist  slategrey</text>
<text x="300" y="110"  font-family="sans-serif" font-size="20" fill="violet">D7  violet</text>
<text x="300" y="135"  font-family="sans-serif" font-size="20" fill="olive">CS6Dist  olive</text>

 <text x="140"  y="30"  font-family="sans-serif" font-size="20" >Fol_2018-05-14.13_13_41.88_87.svg  </text> 


 <!--DISTANCE PLOT BEGINS-->


<!-- the following will scale and place the distance plot -->
<g  transform="translate(0,50) ">
<g transform="translate(150,700) scale(1 -1)">
   <polyline fill="none" stroke=" lightblue " stroke-width=" 12 " points=" 0.6,211.643 1.2,208.717 1.8,205.82 2.4,202.952 3,200.114 3.6,197.305 4.2,194.526 4.8,191.776 5.4,189.057 6,186.367 6.6,183.707 7.2,181.077 7.8,178.477 8.4,175.908 9,173.368 9.6,170.859 10.2,168.38 10.8,165.932 11.4,163.514 12,161.126 12.6,158.769 13.2,156.443 13.8,154.148 14.4,151.883 15,149.65 15.6,147.447 16.2,145.276 16.8,143.135 17.4,141.025 18,138.947 18.6,136.9 19.2,134.885 19.8,132.9 20.4,130.947 21,129.026 21.6,127.136 22.2,125.278 22.8,123.451 23.4,121.657 24,119.893 24.6,118.162 25.2,116.463 25.8,114.795 26.4,113.16 27,111.556 27.6,109.985 28.2,108.446 28.8,106.939 29.4,105.464 30,104.021 30.6,102.611 31.2,101.233 31.8,99.887 32.4,98.5738 33,97.293 33.6,96.0447 34.2,94.829 34.8,93.6459 35.4,92.4954 36,91.3775 36.6,90.2923 37.2,89.2398 37.8,88.2201 38.4,87.2331 39,86.279 39.6,85.3577 40.2,84.4693 40.8,83.6138 41.4,82.7912 42,82.0015 42.6,81.2449 43.2,80.5212 43.8,79.8305 44.4,79.1729 45,78.5484 45.6,77.9569 46.2,77.3986 46.8,76.8733 47.4,76.3812 48,75.9223 48.6,75.4965 49.2,75.1039 49.8,74.7444 50.4,74.4182 51,74.1252 51.6,73.8654 52.2,73.6389 52.8,73.4456 53.4,73.2855 54,73.1587 54.6,73.0651 55.2,73.0048 55.8,72.9777 56.4,72.9839 57,73.0234 57.6,73.0961 58.2,73.2021 58.8,73.3413 59.4,73.5138 60,73.7195 60.6,73.9584 61.2,74.2306 61.8,74.536 62.4,74.8746 63,75.2464 63.6,75.6514 64.2,76.0896 64.8,76.5609 65.4,77.0653 66,77.6029 66.6,78.1737 67.2,78.7775 67.8,79.4143 68.4,80.0843 69,80.7872 69.6,81.5232 70.2,82.2922 70.8,83.0941 71.4,83.929 72,84.7968 72.6,85.6975 73.2,86.631 73.8,87.5974 74.4,88.5966 75,89.6285 75.6,90.6932 76.2,91.7906 76.8,92.9207 77.4,94.0834 78,95.2787 78.6,96.5065 79.2,97.7669 79.8,99.0598 80.4,100.385 81,101.743 81.6,103.133 82.2,104.555 82.8,106.01 83.4,107.497 84,109.016 84.6,110.567 85.2,112.151 85.8,113.766 86.4,115.414 87,117.093 87.6,118.804 88.2,120.547 88.8,122.322 89.4,124.129 90,125.967 90.6,127.837 91.2,129.739 91.8,131.672 92.4,133.637 93,135.633 93.6,137.66 94.2,139.719 94.8,141.809 95.4,143.93 96,146.082 96.6,148.265 97.2,150.479 97.8,152.724 98.4,155.001 99,157.307 99.6,159.645 100.2,162.013 100.8,164.412 101.4,166.841 102,169.301 102.6,171.791 103.2,174.312 103.8,176.862 104.4,179.443 105,182.054 105.6,184.696 106.2,187.367 106.8,190.068 107.4,192.798 108,195.559 108.6,198.349 109.2,201.169 109.8,204.018 110.4,206.897 111,209.805 111.6,212.742 112.2,215.709 112.8,218.705 113.4,221.729 114,224.783 114.6,227.866 115.2,230.977 115.8,234.117 116.4,237.286 117,240.483 117.6,243.709 118.2,246.964 118.8,250.246 119.4,253.557 120,256.896 120.6,260.263 121.2,263.658 121.8,267.081 122.4,270.532 123,274.01 123.6,277.516 124.2,281.05 124.8,284.611 125.4,288.199 126,291.815 126.6,295.458 127.2,299.128 127.8,302.825 128.4,306.549 129,310.3 129.6,314.078 130.2,317.882 130.8,321.713 131.4,325.57 132,329.454 132.6,333.364 133.2,337.301 133.8,341.263 134.4,345.252 135,349.266 135.6,353.306 136.2,357.372 136.8,361.464 137.4,365.582 138,369.724 138.6,373.893 139.2,378.086 139.8,382.305 140.4,386.549 141,390.818 141.6,395.112 142.2,399.431 142.8,403.774 143.4,408.142 144,412.535 144.6,416.953 145.2,421.394 145.8,425.86 146.4,430.35 147,434.865 147.6,439.403 148.2,443.965 148.8,448.551 149.4,453.161 150,457.794 150.6,462.451 151.2,467.132 151.8,471.836 152.4,476.563 153,481.313 153.6,486.086 154.2,490.883 154.8,495.702 155.4,500.544 156,505.409 156.6,510.297 157.2,515.207 157.8,520.139 158.4,525.094 159,522.214 159.6,518.131 160.2,514.073 160.8,510.039 161.4,506.031 162,502.047 162.6,498.088 163.2,494.154 163.8,490.245 164.4,486.361 165,482.502 165.6,478.668 166.2,474.86 166.8,471.078 167.4,467.321 168,463.589 168.6,459.884 169.2,456.204 169.8,452.55 170.4,448.922 171,445.32 171.6,441.744 172.2,438.194 172.8,434.67 173.4,431.173 174,427.702 174.6,424.258 175.2,420.84 175.8,417.449 176.4,414.085 177,410.747 177.6,407.437 178.2,404.153 178.8,400.896 179.4,397.667 180,394.464 180.6,391.289 181.2,388.142 181.8,385.021 182.4,381.929 183,378.863 183.6,375.826 184.2,372.816 184.8,369.834 185.4,366.879 186,363.953 186.6,361.055 187.2,358.184 187.8,355.342 188.4,352.528 189,349.742 189.6,346.985 190.2,344.256 190.8,341.556 191.4,338.884 192,336.24 192.6,333.626 193.2,331.04 193.8,328.483 194.4,325.955 195,323.455 195.6,320.985 196.2,318.544 196.8,316.132 197.4,313.749 198,311.396 198.6,309.071 199.2,306.776 199.8,304.511 200.4,302.275 201,300.068 201.6,297.892 202.2,295.744 202.8,293.627 203.4,291.539 204,289.482 204.6,287.454 205.2,285.456 205.8,283.488 206.4,281.55 207,279.642 207.6,277.764 208.2,275.917 208.8,274.099 209.4,272.312 210,270.556 210.6,268.83 211.2,267.134 211.8,265.469 212.4,263.834 213,262.23 213.6,260.656 214.2,259.113 214.8,257.601 215.4,256.12 216,254.669 216.6,253.25 217.2,251.861 217.8,250.503 218.4,249.176 219,247.88 219.6,246.615 220.2,245.381 220.8,244.178 221.4,243.006 222,241.865 222.6,240.756 223.2,239.678 223.8,238.631 224.4,237.615 225,236.631 225.6,235.678 226.2,234.756 226.8,233.866 227.4,233.007 228,232.18 228.6,231.384 229.2,230.619 229.8,229.886 230.4,229.185 231,228.515 231.6,227.877 232.2,227.27 232.8,226.695 233.4,226.152 234,225.64 234.6,225.16 235.2,224.711 235.8,224.294 236.4,223.909 237,223.556 237.6,223.234 238.2,222.944 238.8,222.686 239.4,222.459 240,222.264 240.6,222.101 241.2,221.97 241.8,221.87 242.4,221.802 243,221.766 243.6,221.762 244.2,221.79 244.8,221.849 245.4,221.94 246,222.063 246.6,222.217 247.2,222.403 247.8,222.621 248.4,222.871 249,223.153 249.6,223.466 250.2,223.811 250.8,224.187 251.4,224.596 252,225.036 252.6,225.507 253.2,226.011 253.8,226.546 254.4,227.112 255,227.71 255.6,228.34 256.2,229.001 256.8,229.694 257.4,230.419 258,231.175 258.6,231.962 259.2,232.781 259.8,233.631 260.4,234.513 261,235.426 261.6,236.371 262.2,237.347 262.8,238.354 263.4,239.393 264,240.462 264.6,241.563 265.2,242.696 265.8,243.859 266.4,245.053 267,246.279 267.6,247.536 268.2,248.823 268.8,250.142 269.4,251.492 270,252.872 270.6,254.284 271.2,255.726 271.8,257.199 272.4,258.703 273,260.238 273.6,261.803 274.2,263.399 274.8,265.025 275.4,266.682 276,268.37 276.6,270.088 277.2,271.836 277.8,273.615 278.4,275.424 279,277.263 279.6,279.133 280.2,281.033 280.8,282.962 281.4,284.922 282,286.912 282.6,288.932 283.2,290.982 283.8,293.062 284.4,295.171 285,297.31 285.6,299.479 286.2,301.677 286.8,303.905 287.4,306.163 288,308.45 288.6,310.766 289.2,313.112 289.8,315.487 290.4,317.891 291,320.325 291.6,322.787 292.2,325.278 292.8,327.799 293.4,330.348 294,332.926 294.6,335.533 295.2,338.169 295.8,340.833 296.4,343.526 297,346.247 297.6,348.997 298.2,351.775 298.8,354.581 299.4,357.416 300,360.278 300.6,360.278 301.2,357.416 301.8,354.581 302.4,351.775 303,348.997 303.6,346.247 304.2,343.526 304.8,340.833 305.4,338.169 306,335.533 306.6,332.926 307.2,330.348 307.8,327.799 308.4,325.278 309,322.787 309.6,320.325 310.2,317.891 310.8,315.487 311.4,313.112 312,310.766 312.6,308.45 313.2,306.163 313.8,303.905 314.4,301.677 315,299.479 315.6,297.31 316.2,295.171 316.8,293.062 317.4,290.982 318,288.932 318.6,286.912 319.2,284.922 319.8,282.962 320.4,281.033 321,279.133 321.6,277.263 322.2,275.424 322.8,273.615 323.4,271.836 324,270.088 324.6,268.37 325.2,266.682 325.8,265.025 326.4,263.399 327,261.803 327.6,260.238 328.2,258.703 328.8,257.199 329.4,255.726 330,254.284 330.6,252.872 331.2,251.492 331.8,250.142 332.4,248.823 333,247.536 333.6,246.279 334.2,245.053 334.8,243.859 335.4,242.696 336,241.563 336.6,240.462 337.2,239.393 337.8,238.354 338.4,237.347 339,236.371 339.6,235.426 340.2,234.513 340.8,233.631 341.4,232.781 342,231.962 342.6,231.175 343.2,230.419 343.8,229.694 344.4,229.001 345,228.34 345.6,227.71 346.2,227.112 346.8,226.546 347.4,226.011 348,225.507 348.6,225.036 349.2,224.596 349.8,224.187 350.4,223.811 351,223.466 351.6,223.153 352.2,222.871 352.8,222.621 353.4,222.403 354,222.217 354.6,222.063 355.2,221.94 355.8,221.849 356.4,221.79 357,221.762 357.6,221.766 358.2,221.802 358.8,221.87 359.4,221.97 360,222.101 360.6,222.264 361.2,222.459 361.8,222.686 362.4,222.944 363,223.234 363.6,223.556 364.2,223.909 364.8,224.294 365.4,224.711 366,225.16 366.6,225.64 367.2,226.152 367.8,226.695 368.4,227.27 369,227.877 369.6,228.515 370.2,229.185 370.8,229.886 371.4,230.619 372,231.384 372.6,232.18 373.2,233.007 373.8,233.866 374.4,234.756 375,235.678 375.6,236.631 376.2,237.615 376.8,238.631 377.4,239.678 378,240.756 378.6,241.865 379.2,243.006 379.8,244.178 380.4,245.381 381,246.615 381.6,247.88 382.2,249.176 382.8,250.503 383.4,251.861 384,253.25 384.6,254.669 385.2,256.12 385.8,257.601 386.4,259.113 387,260.656 387.6,262.23 388.2,263.834 388.8,265.469 389.4,267.134 390,268.83 390.6,270.556 391.2,272.312 391.8,274.099 392.4,275.917 393,277.764 393.6,279.642 394.2,281.55 394.8,283.488 395.4,285.456 396,287.454 396.6,289.482 397.2,291.539 397.8,293.627 398.4,295.744 399,297.892 399.6,300.068 400.2,302.275 400.8,304.511 401.4,306.776 402,309.071 402.6,311.396 403.2,313.749 403.8,316.132 404.4,318.544 405,320.985 405.6,323.455 406.2,325.955 406.8,328.483 407.4,331.04 408,333.626 408.6,336.24 409.2,338.884 409.8,341.556 410.4,344.256 411,346.985 411.6,349.742 412.2,352.528 412.8,355.342 413.4,358.184 414,361.055 414.6,363.953 415.2,366.879 415.8,369.834 416.4,372.816 417,375.826 417.6,378.863 418.2,381.929 418.8,385.021 419.4,388.142 420,391.289 420.6,394.464 421.2,397.667 421.8,400.896 422.4,404.153 423,407.437 423.6,410.747 424.2,414.085 424.8,417.449 425.4,420.84 426,424.258 426.6,427.702 427.2,431.173 427.8,434.67 428.4,438.194 429,441.744 429.6,445.32 430.2,448.922 430.8,452.55 431.4,456.204 432,459.884 432.6,463.589 433.2,467.321 433.8,471.078 434.4,474.86 435,478.668 435.6,482.502 436.2,486.361 436.8,490.245 437.4,494.154 438,498.088 438.6,502.047 439.2,506.031 439.8,510.039 440.4,514.073 441,518.131 441.6,522.214 442.2,525.094 442.8,520.139 443.4,515.207 444,510.297 444.6,505.409 445.2,500.544 445.8,495.702 446.4,490.883 447,486.086 447.6,481.313 448.2,476.563 448.8,471.836 449.4,467.132 450,462.451 450.6,457.794 451.2,453.161 451.8,448.551 452.4,443.965 453,439.403 453.6,434.865 454.2,430.35 454.8,425.86 455.4,421.394 456,416.953 456.6,412.535 457.2,408.142 457.8,403.774 458.4,399.431 459,395.112 459.6,390.818 460.2,386.549 460.8,382.305 461.4,378.086 462,373.893 462.6,369.724 463.2,365.582 463.8,361.464 464.4,357.372 465,353.306 465.6,349.266 466.2,345.252 466.8,341.263 467.4,337.301 468,333.364 468.6,329.454 469.2,325.57 469.8,321.713 470.4,317.882 471,314.078 471.6,310.3 472.2,306.549 472.8,302.825 473.4,299.128 474,295.458 474.6,291.815 475.2,288.199 475.8,284.611 476.4,281.05 477,277.516 477.6,274.01 478.2,270.532 478.8,267.081 479.4,263.658 480,260.263 480.6,256.896 481.2,253.557 481.8,250.246 482.4,246.964 483,243.709 483.6,240.483 484.2,237.286 484.8,234.117 485.4,230.977 486,227.866 486.6,224.783 487.2,221.729 487.8,218.705 488.4,215.709 489,212.742 489.6,209.805 490.2,206.897 490.8,204.018 491.4,201.169 492,198.349 492.6,195.559 493.2,192.798 493.8,190.068 494.4,187.367 495,184.696 495.6,182.054 496.2,179.443 496.8,176.862 497.4,174.312 498,171.791 498.6,169.301 499.2,166.841 499.8,164.412 500.4,162.013 501,159.645 501.6,157.307 502.2,155.001 502.8,152.724 503.4,150.479 504,148.265 504.6,146.082 505.2,143.93 505.8,141.809 506.4,139.719 507,137.66 507.6,135.633 508.2,133.637 508.8,131.672 509.4,129.739 510,127.837 510.6,125.967 511.2,124.129 511.8,122.322 512.4,120.547 513,118.804 513.6,117.093 514.2,115.414 514.8,113.766 515.4,112.151 516,110.567 516.6,109.016 517.2,107.497 517.8,106.01 518.4,104.555 519,103.133 519.6,101.743 520.2,100.385 520.8,99.0598 521.4,97.7669 522,96.5065 522.6,95.2787 523.2,94.0834 523.8,92.9207 524.4,91.7906 525,90.6932 525.6,89.6285 526.2,88.5966 526.8,87.5974 527.4,86.631 528,85.6975 528.6,84.7968 529.2,83.929 529.8,83.0941 530.4,82.2922 531,81.5232 531.6,80.7872 532.2,80.0843 532.8,79.4143 533.4,78.7775 534,78.1737 534.6,77.6029 535.2,77.0653 535.8,76.5609 536.4,76.0896 537,75.6514 537.6,75.2464 538.2,74.8746 538.8,74.536 539.4,74.2306 540,73.9584 540.6,73.7195 541.2,73.5138 541.8,73.3413 542.4,73.2021 543,73.0961 543.6,73.0234 544.2,72.9839 544.8,72.9777 545.4,73.0048 546,73.0651 546.6,73.1587 547.2,73.2855 547.8,73.4456 548.4,73.6389 549,73.8654 549.6,74.1252 550.2,74.4182 550.8,74.7444 551.4,75.1039 552,75.4965 552.6,75.9223 553.2,76.3812 553.8,76.8733 554.4,77.3986 555,77.9569 555.6,78.5484 556.2,79.1729 556.8,79.8305 557.4,80.5212 558,81.2449 558.6,82.0015 559.2,82.7912 559.8,83.6138 560.4,84.4693 561,85.3577 561.6,86.279 562.2,87.2331 562.8,88.2201 563.4,89.2398 564,90.2923 564.6,91.3775 565.2,92.4954 565.8,93.6459 566.4,94.829 567,96.0447 567.6,97.293 568.2,98.5738 568.8,99.887 569.4,101.233 570,102.611 570.6,104.021 571.2,105.464 571.8,106.939 572.4,108.446 573,109.985 573.6,111.556 574.2,113.16 574.8,114.795 575.4,116.463 576,118.162 576.6,119.893 577.2,121.657 577.8,123.451 578.4,125.278 579,127.136 579.6,129.026 580.2,130.947 580.8,132.9 581.4,134.885 582,136.9 582.6,138.947 583.2,141.025 583.8,143.135 584.4,145.276 585,147.447 585.6,149.65 586.2,151.883 586.8,154.148 587.4,156.443 588,158.769 588.6,161.126 589.2,163.514 589.8,165.932 590.4,168.38 591,170.859 591.6,173.368 592.2,175.908 592.8,178.477 593.4,181.077 594,183.707 594.6,186.367 595.2,189.057 595.8,191.776 596.4,194.526 597,197.305 597.6,200.114 598.2,202.952 598.8,205.82 599.4,208.717 600,211.643 " />
   <polyline fill="none" stroke=" slategrey " stroke-width=" 9 " points=" " />
   <polyline fill="none" stroke=" violet " stroke-width=" 6 " points=" " />
   <polyline fill="none" stroke=" olive " stroke-width=" 3 " points=" 0.6,211.643 1.2,208.717 1.8,205.82 2.4,202.952 3,200.114 3.6,197.305 4.2,194.526 4.8,191.776 5.4,189.057 6,186.367 6.6,183.707 7.2,181.077 7.8,178.477 8.4,175.908 9,173.368 9.6,170.859 10.2,168.38 10.8,165.932 11.4,163.514 12,161.126 12.6,158.769 13.2,156.443 13.8,154.148 14.4,151.883 15,149.65 15.6,147.447 16.2,145.276 16.8,143.135 17.4,141.025 18,138.947 18.6,136.9 19.2,134.885 19.8,132.9 20.4,130.947 21,129.026 21.6,127.136 22.2,125.278 22.8,123.451 23.4,121.657 24,119.893 24.6,118.162 25.2,116.463 25.8,114.795 26.4,113.16 27,111.556 27.6,109.985 28.2,108.446 28.8,106.939 29.4,105.464 30,104.021 30.6,102.611 31.2,101.233 31.8,99.887 32.4,98.5738 33,97.293 33.6,96.0447 34.2,94.829 34.8,93.6459 35.4,92.4954 36,91.3775 36.6,90.2923 37.2,89.2398 37.8,88.2201 38.4,87.2331 39,86.279 39.6,85.3577 40.2,84.4693 40.8,83.6138 41.4,82.7912 42,82.0015 42.6,81.2449 43.2,80.5212 43.8,79.8305 44.4,79.1729 45,78.5484 45.6,77.9569 46.2,77.3986 46.8,76.8733 47.4,76.3812 48,75.9223 48.6,75.4965 49.2,75.1039 49.8,74.7444 50.4,74.4182 51,74.1252 51.6,73.8654 52.2,73.6389 52.8,73.4456 53.4,73.2855 54,73.1587 54.6,73.0651 55.2,73.0048 55.8,72.9777 56.4,72.9839 57,73.0234 57.6,73.0961 58.2,73.2021 58.8,73.3413 59.4,73.5138 60,73.7195 60.6,73.9584 61.2,74.2306 61.8,74.536 62.4,74.8746 63,75.2464 63.6,75.6514 64.2,76.0896 64.8,76.5609 65.4,77.0653 66,77.6029 66.6,78.1737 67.2,78.7775 67.8,79.4143 68.4,80.0843 69,80.7872 69.6,81.5232 70.2,82.2922 70.8,83.0941 71.4,83.929 72,84.7968 72.6,85.6975 73.2,86.631 73.8,87.5974 74.4,88.5966 75,89.6285 75.6,90.6932 76.2,91.7906 76.8,92.9207 77.4,94.0834 78,95.2787 78.6,96.5065 79.2,97.7669 79.8,99.0598 80.4,100.385 81,101.743 81.6,103.133 82.2,104.555 82.8,106.01 83.4,107.497 84,109.016 84.6,110.567 85.2,112.151 85.8,113.766 86.4,115.414 87,117.093 87.6,118.804 88.2,120.547 88.8,122.322 89.4,124.129 90,125.967 90.6,127.837 91.2,129.739 91.8,131.672 92.4,133.637 93,135.633 93.6,137.66 94.2,139.719 94.8,141.809 95.4,143.93 96,146.082 96.6,148.265 97.2,150.479 97.8,152.724 98.4,155.001 99,157.307 99.6,159.645 100.2,162.013 100.8,164.412 101.4,166.841 102,169.301 102.6,171.791 103.2,174.312 103.8,176.862 104.4,179.443 105,182.054 105.6,184.696 106.2,187.367 106.8,190.068 107.4,192.798 108,195.559 108.6,198.349 109.2,201.169 109.8,204.018 110.4,206.897 111,209.805 111.6,212.742 112.2,215.709 112.8,218.705 113.4,221.729 114,224.783 114.6,227.866 115.2,230.977 115.8,234.117 116.4,237.286 117,240.483 117.6,243.709 118.2,246.964 118.8,250.246 119.4,253.557 120,256.896 120.6,260.263 121.2,263.658 121.8,267.081 122.4,270.532 123,274.01 123.6,277.516 124.2,281.05 124.8,284.611 125.4,288.199 126,291.815 126.6,295.458 127.2,299.128 127.8,302.825 128.4,306.549 129,310.3 129.6,314.078 130.2,317.882 130.8,321.713 131.4,325.57 132,329.454 132.6,333.364 133.2,337.301 133.8,341.263 134.4,345.252 135,349.266 135.6,353.306 136.2,357.372 136.8,361.464 137.4,365.582 138,369.724 138.6,373.893 139.2,378.086 139.8,382.305 140.4,386.549 141,390.818 141.6,395.112 142.2,399.431 142.8,403.774 143.4,408.142 144,412.535 144.6,416.953 145.2,421.394 145.8,425.86 146.4,430.35 147,434.865 147.6,439.403 148.2,443.965 148.8,448.551 149.4,453.161 150,457.794 150.6,462.451 151.2,467.132 151.8,471.836 152.4,476.563 153,481.313 153.6,486.086 154.2,490.883 154.8,495.702 155.4,500.544 156,505.409 156.6,510.297 157.2,515.207 157.8,520.139 158.4,525.094 159,530.071 159.6,535.07 160.2,540.092 160.8,541.267 161.4,537.274 162,533.305 162.6,529.361 163.2,525.442 163.8,521.548 164.4,517.678 165,513.834 165.6,510.015 166.2,506.221 166.8,502.452 167.4,498.708 168,494.991 168.6,491.298 169.2,487.631 169.8,483.99 170.4,480.374 171,476.785 171.6,473.221 172.2,469.683 172.8,466.171 173.4,462.686 174,459.226 174.6,455.793 175.2,452.386 175.8,449.006 176.4,445.652 177,442.325 177.6,439.024 178.2,435.751 178.8,432.504 179.4,429.283 180,426.09 180.6,422.924 181.2,419.785 181.8,416.673 182.4,413.589 183,410.531 183.6,407.502 184.2,404.499 184.8,401.524 185.4,398.577 186,395.658 186.6,392.766 187.2,389.902 187.8,387.066 188.4,384.258 189,381.477 189.6,378.725 190.2,376.002 190.8,373.306 191.4,370.639 192,368 192.6,365.389 193.2,362.807 193.8,360.253 194.4,357.728 195,355.232 195.6,352.765 196.2,350.326 196.8,347.916 197.4,345.535 198,343.183 198.6,340.86 199.2,338.567 199.8,336.302 200.4,334.067 201,331.861 201.6,329.684 202.2,327.536 202.8,325.418 203.4,323.33 204,321.271 204.6,319.242 205.2,317.242 205.8,315.272 206.4,313.332 207,311.422 207.6,309.541 208.2,307.691 208.8,305.87 209.4,304.08 210,302.319 210.6,300.589 211.2,298.888 211.8,297.218 212.4,295.579 213,293.969 213.6,292.39 214.2,290.841 214.8,289.323 215.4,287.835 216,286.377 216.6,284.95 217.2,283.554 217.8,282.188 218.4,280.853 219,279.549 219.6,278.275 220.2,277.032 220.8,275.82 221.4,274.639 222,273.489 222.6,272.369 223.2,271.281 223.8,270.223 224.4,269.196 225,268.201 225.6,267.236 226.2,266.302 226.8,265.4 227.4,264.528 228,263.688 228.6,262.879 229.2,262.101 229.8,261.355 230.4,260.639 231,259.955 231.6,259.302 232.2,258.68 232.8,258.09 233.4,257.531 234,257.003 234.6,256.507 235.2,256.042 235.8,255.608 236.4,255.206 237,254.835 237.6,254.496 238.2,254.188 238.8,253.911 239.4,253.666 240,253.453 240.6,253.27 241.2,253.12 241.8,253 242.4,252.912 243,252.856 243.6,252.831 244.2,252.838 244.8,252.876 245.4,252.945 246,253.046 246.6,253.178 247.2,253.342 247.8,253.538 248.4,253.764 249,254.023 249.6,254.312 250.2,254.633 250.8,254.986 251.4,255.37 252,255.785 252.6,256.231 253.2,256.71 253.8,257.219 254.4,257.76 255,258.332 255.6,258.935 256.2,259.57 256.8,260.236 257.4,260.933 258,261.661 258.6,262.421 259.2,263.212 259.8,264.034 260.4,264.887 261,265.771 261.6,266.687 262.2,267.633 262.8,268.611 263.4,269.619 264,270.659 264.6,271.729 265.2,272.831 265.8,273.963 266.4,275.126 267,276.32 267.6,277.545 268.2,278.801 268.8,280.087 269.4,281.405 270,282.752 270.6,284.131 271.2,285.54 271.8,286.979 272.4,288.45 273,289.95 273.6,291.481 274.2,293.043 274.8,294.634 275.4,296.257 276,297.909 276.6,299.592 277.2,301.304 277.8,303.047 278.4,304.82 279,306.623 279.6,308.456 280.2,310.319 280.8,312.212 281.4,314.135 282,316.087 282.6,318.07 283.2,320.082 283.8,322.123 284.4,324.194 285,326.295 285.6,328.425 286.2,330.585 286.8,332.774 287.4,334.992 288,337.24 288.6,339.517 289.2,341.822 289.8,344.157 290.4,346.521 291,348.914 291.6,351.336 292.2,353.787 292.8,356.266 293.4,358.774 294,361.311 294.6,363.877 295.2,366.471 295.8,369.093 296.4,371.744 297,374.423 297.6,377.13 298.2,379.866 298.8,382.63 299.4,385.421 300,388.241 300.6,388.241 301.2,385.421 301.8,382.63 302.4,379.866 303,377.13 303.6,374.423 304.2,371.744 304.8,369.093 305.4,366.471 306,363.877 306.6,361.311 307.2,358.774 307.8,356.266 308.4,353.787 309,351.336 309.6,348.914 310.2,346.521 310.8,344.157 311.4,341.822 312,339.517 312.6,337.24 313.2,334.992 313.8,332.774 314.4,330.585 315,328.425 315.6,326.295 316.2,324.194 316.8,322.123 317.4,320.082 318,318.07 318.6,316.087 319.2,314.135 319.8,312.212 320.4,310.319 321,308.456 321.6,306.623 322.2,304.82 322.8,303.047 323.4,301.304 324,299.592 324.6,297.909 325.2,296.257 325.8,294.634 326.4,293.043 327,291.481 327.6,289.95 328.2,288.45 328.8,286.979 329.4,285.54 330,284.131 330.6,282.752 331.2,281.405 331.8,280.087 332.4,278.801 333,277.545 333.6,276.32 334.2,275.126 334.8,273.963 335.4,272.831 336,271.729 336.6,270.659 337.2,269.619 337.8,268.611 338.4,267.633 339,266.687 339.6,265.771 340.2,264.887 340.8,264.034 341.4,263.212 342,262.421 342.6,261.661 343.2,260.933 343.8,260.236 344.4,259.57 345,258.935 345.6,258.332 346.2,257.76 346.8,257.219 347.4,256.71 348,256.231 348.6,255.785 349.2,255.37 349.8,254.986 350.4,254.633 351,254.312 351.6,254.023 352.2,253.764 352.8,253.538 353.4,253.342 354,253.178 354.6,253.046 355.2,252.945 355.8,252.876 356.4,252.838 357,252.831 357.6,252.856 358.2,252.912 358.8,253 359.4,253.12 360,253.27 360.6,253.453 361.2,253.666 361.8,253.911 362.4,254.188 363,254.496 363.6,254.835 364.2,255.206 364.8,255.608 365.4,256.042 366,256.507 366.6,257.003 367.2,257.531 367.8,258.09 368.4,258.68 369,259.302 369.6,259.955 370.2,260.639 370.8,261.355 371.4,262.101 372,262.879 372.6,263.688 373.2,264.528 373.8,265.4 374.4,266.302 375,267.236 375.6,268.201 376.2,269.196 376.8,270.223 377.4,271.281 378,272.369 378.6,273.489 379.2,274.639 379.8,275.82 380.4,277.032 381,278.275 381.6,279.549 382.2,280.853 382.8,282.188 383.4,283.554 384,284.95 384.6,286.377 385.2,287.835 385.8,289.323 386.4,290.841 387,292.39 387.6,293.969 388.2,295.579 388.8,297.218 389.4,298.888 390,300.589 390.6,302.319 391.2,304.08 391.8,305.87 392.4,307.691 393,309.541 393.6,311.422 394.2,313.332 394.8,315.272 395.4,317.242 396,319.242 396.6,321.271 397.2,323.33 397.8,325.418 398.4,327.536 399,329.684 399.6,331.861 400.2,334.067 400.8,336.302 401.4,338.567 402,340.86 402.6,343.183 403.2,345.535 403.8,347.916 404.4,350.326 405,352.765 405.6,355.232 406.2,357.728 406.8,360.253 407.4,362.807 408,365.389 408.6,368 409.2,370.639 409.8,373.306 410.4,376.002 411,378.725 411.6,381.477 412.2,384.258 412.8,387.066 413.4,389.902 414,392.766 414.6,395.658 415.2,398.577 415.8,401.524 416.4,404.499 417,407.502 417.6,410.531 418.2,413.589 418.8,416.673 419.4,419.785 420,422.924 420.6,426.09 421.2,429.283 421.8,432.504 422.4,435.751 423,439.024 423.6,442.325 424.2,445.652 424.8,449.006 425.4,452.386 426,455.793 426.6,459.226 427.2,462.686 427.8,466.171 428.4,469.683 429,473.221 429.6,476.785 430.2,480.374 430.8,483.99 431.4,487.631 432,491.298 432.6,494.991 433.2,498.708 433.8,502.452 434.4,506.221 435,510.015 435.6,513.834 436.2,517.678 436.8,521.548 437.4,525.442 438,529.361 438.6,533.305 439.2,537.274 439.8,541.267 440.4,540.092 441,535.07 441.6,530.071 442.2,525.094 442.8,520.139 443.4,515.207 444,510.297 444.6,505.409 445.2,500.544 445.8,495.702 446.4,490.883 447,486.086 447.6,481.313 448.2,476.563 448.8,471.836 449.4,467.132 450,462.451 450.6,457.794 451.2,453.161 451.8,448.551 452.4,443.965 453,439.403 453.6,434.865 454.2,430.35 454.8,425.86 455.4,421.394 456,416.953 456.6,412.535 457.2,408.142 457.8,403.774 458.4,399.431 459,395.112 459.6,390.818 460.2,386.549 460.8,382.305 461.4,378.086 462,373.893 462.6,369.724 463.2,365.582 463.8,361.464 464.4,357.372 465,353.306 465.6,349.266 466.2,345.252 466.8,341.263 467.4,337.301 468,333.364 468.6,329.454 469.2,325.57 469.8,321.713 470.4,317.882 471,314.078 471.6,310.3 472.2,306.549 472.8,302.825 473.4,299.128 474,295.458 474.6,291.815 475.2,288.199 475.8,284.611 476.4,281.05 477,277.516 477.6,274.01 478.2,270.532 478.8,267.081 479.4,263.658 480,260.263 480.6,256.896 481.2,253.557 481.8,250.246 482.4,246.964 483,243.709 483.6,240.483 484.2,237.286 484.8,234.117 485.4,230.977 486,227.866 486.6,224.783 487.2,221.729 487.8,218.705 488.4,215.709 489,212.742 489.6,209.805 490.2,206.897 490.8,204.018 491.4,201.169 492,198.349 492.6,195.559 493.2,192.798 493.8,190.068 494.4,187.367 495,184.696 495.6,182.054 496.2,179.443 496.8,176.862 497.4,174.312 498,171.791 498.6,169.301 499.2,166.841 499.8,164.412 500.4,162.013 501,159.645 501.6,157.307 502.2,155.001 502.8,152.724 503.4,150.479 504,148.265 504.6,146.082 505.2,143.93 505.8,141.809 506.4,139.719 507,137.66 507.6,135.633 508.2,133.637 508.8,131.672 509.4,129.739 510,127.837 510.6,125.967 511.2,124.129 511.8,122.322 512.4,120.547 513,118.804 513.6,117.093 514.2,115.414 514.8,113.766 515.4,112.151 516,110.567 516.6,109.016 517.2,107.497 517.8,106.01 518.4,104.555 519,103.133 519.6,101.743 520.2,100.385 520.8,99.0598 521.4,97.7669 522,96.5065 522.6,95.2787 523.2,94.0834 523.8,92.9207 524.4,91.7906 525,90.6932 525.6,89.6285 526.2,88.5966 526.8,87.5974 527.4,86.631 528,85.6975 528.6,84.7968 529.2,83.929 529.8,83.0941 530.4,82.2922 531,81.5232 531.6,80.7872 532.2,80.0843 532.8,79.4143 533.4,78.7775 534,78.1737 534.6,77.6029 535.2,77.0653 535.8,76.5609 536.4,76.0896 537,75.6514 537.6,75.2464 538.2,74.8746 538.8,74.536 539.4,74.2306 540,73.9584 540.6,73.7195 541.2,73.5138 541.8,73.3413 542.4,73.2021 543,73.0961 543.6,73.0234 544.2,72.9839 544.8,72.9777 545.4,73.0048 546,73.0651 546.6,73.1587 547.2,73.2855 547.8,73.4456 548.4,73.6389 549,73.8654 549.6,74.1252 550.2,74.4182 550.8,74.7444 551.4,75.1039 552,75.4965 552.6,75.9223 553.2,76.3812 553.8,76.8733 554.4,77.3986 555,77.9569 555.6,78.5484 556.2,79.1729 556.8,79.8305 557.4,80.5212 558,81.2449 558.6,82.0015 559.2,82.7912 559.8,83.6138 560.4,84.4693 561,85.3577 561.6,86.279 562.2,87.2331 562.8,88.2201 563.4,89.2398 564,90.2923 564.6,91.3775 565.2,92.4954 565.8,93.6459 566.4,94.829 567,96.0447 567.6,97.293 568.2,98.5738 568.8,99.887 569.4,101.233 570,102.611 570.6,104.021 571.2,105.464 571.8,106.939 572.4,108.446 573,109.985 573.6,111.556 574.2,113.16 574.8,114.795 575.4,116.463 576,118.162 576.6,119.893 577.2,121.657 577.8,123.451 578.4,125.278 579,127.136 579.6,129.026 580.2,130.947 580.8,132.9 581.4,134.885 582,136.9 582.6,138.947 583.2,141.025 583.8,143.135 584.4,145.276 585,147.447 585.6,149.65 586.2,151.883 586.8,154.148 587.4,156.443 588,158.769 588.6,161.126 589.2,163.514 589.8,165.932 590.4,168.38 591,170.859 591.6,173.368 592.2,175.908 592.8,178.477 593.4,181.077 594,183.707 594.6,186.367 595.2,189.057 595.8,191.776 596.4,194.526 597,197.305 597.6,200.114 598.2,202.952 598.8,205.82 599.4,208.717 600,211.643 " />

<!--Draw the X and Y axes -->
<polyline fill="none" stroke="black" stroke-width="6"  points=" 600,0 0,0 0, 600" />
<polyline fill="none" stroke="black" stroke-width="1"  points=" 0 600  600 600  600 0" />
<!-- -->


<!--Draw labels and tics for X axis -->

<line fill="none" stroke="black"  stroke-width="6"  x1="0.5" y1="0" x2="0.5" y2="-20" />
<text transform="scale(1,-1)" font-family="sans-serif" font-size="30" x="-24.5" y="45" >0</text>
<line fill="none" stroke="black"  stroke-width="6"  x1="120.5" y1="0" x2="120.5" y2="-20" />
<text transform="scale(1,-1)" font-family="sans-serif" font-size="30" x="95.5" y="45" >200</text>
<line fill="none" stroke="black"  stroke-width="6"  x1="240.5" y1="0" x2="240.5" y2="-20" />
<text transform="scale(1,-1)" font-family="sans-serif" font-size="30" x="215.5" y="45" >400</text>
<line fill="none" stroke="black"  stroke-width="6"  x1="360.5" y1="0" x2="360.5" y2="-20" />
<text transform="scale(1,-1)" font-family="sans-serif" font-size="30" x="335.5" y="45" >600</text>
<line fill="none" stroke="black"  stroke-width="6"  x1="480.5" y1="0" x2="480.5" y2="-20" />
<text transform="scale(1,-1)" font-family="sans-serif" font-size="30" x="455.5" y="45" >800</text>
<line fill="none" stroke="black"  stroke-width="6"  x1="600.5" y1="0" x2="600.5" y2="-20" />
<text transform="scale(1,-1)" font-family="sans-serif" font-size="30" x="575.5" y="45" >1000</text>


<!--Draw labels and tics for Y axis -->

<line fill="none" stroke="black" stroke-width="6" x1="0.0" y1="0" x2="-20" y2="0" />
<text transform="scale(1,-1)" text-anchor="end" font-family="sans-serif" font-size="30" x="-25" y="10" >18</text>
<line fill="none" stroke="black" stroke-width="6" x1="0.0" y1="85.7143" x2="-20" y2="85.7143" />
<text transform="scale(1,-1)" text-anchor="end" font-family="sans-serif" font-size="30" x="-25" y="-75.7143" >18.5</text>
<line fill="none" stroke="black" stroke-width="6" x1="0.0" y1="171.429" x2="-20" y2="171.429" />
<text transform="scale(1,-1)" text-anchor="end" font-family="sans-serif" font-size="30" x="-25" y="-161.429" >19</text>
<line fill="none" stroke="black" stroke-width="6" x1="0.0" y1="257.143" x2="-20" y2="257.143" />
<text transform="scale(1,-1)" text-anchor="end" font-family="sans-serif" font-size="30" x="-25" y="-247.143" >19.5</text>
<line fill="none" stroke="black" stroke-width="6" x1="0.0" y1="342.857" x2="-20" y2="342.857" />
<text transform="scale(1,-1)" text-anchor="end" font-family="sans-serif" font-size="30" x="-25" y="-332.857" >20</text>
<line fill="none" stroke="black" stroke-width="6" x1="0.0" y1="428.571" x2="-20" y2="428.571" />
<text transform="scale(1,-1)" text-anchor="end" font-family="sans-serif" font-size="30" x="-25" y="-418.571" >20.5</text>
<line fill="none" stroke="black" stroke-width="6" x1="0.0" y1="514.286" x2="-20" y2="514.286" />
<text transform="scale(1,-1)" text-anchor="end" font-family="sans-serif" font-size="30" x="-25" y="-504.286" >21</text>
<line fill="none" stroke="black" stroke-width="6" x1="0.0" y1="600" x2="-20" y2="600" />
<text transform="scale(1,-1)" text-anchor="end" font-family="sans-serif" font-size="30" x="-25" y="-590" >21.5</text>

-->
</g>
</g>
<!-- Run Constants
CIRCLEPLOT bool false
DISTANCEPLOT bool true
PRINTDISTANCEDATA bool true
GLITCHESONLY bool false
PLOT 2doubles 3 4
PERTURBBY double 0.05
GLITCHLEVEL double 3
BOUNDARYWINDOW double 0.065
FRAMESPERPATH int 200
STEPSPERFRAME int 1000
TRIALS int 1
ALLBLACK bool true
FILEPREFIX string Fol
GRAPHSIZE int 0
BORDER int 0
PLOTSIZE int 0
G6LINEWIDTH int 3
DELONELINEWIDTH int 10
AXISWIDTH int 6
TICLENGTH int 20
VECTOR g6 
FOLLOWERMODE FollowerMode line
FIXRANDOMSEED fixRandomSeed false
RANDOMSEED int 19191
TIMESTAMP bool true
END end 




-->
</svg>
