<?xml version="1.0" standalone="no"?>
<!-- the width and height set the total pixel output of the image in the browser -->
<!-- whatever is within the viewbox will be remapped to show in this size -->
<svg width="1000" height="1000" viewBox="1 0  1200 1200"  version="1.1" xmlns="http://www.w3.org/2000/svg" xmlns:xlink="http://www.w3.org/1999/xlink">
 <desc>ID (and file name) = Fol_2019-12-16.15_26_15.0_15.svg  mode = Single Point </desc> 
<g transform = "scale(1 1)">

<text x = "-850" y="50" transform="rotate(-90)"  font-family="sans-serif" font-size="40" stroke ="lightgray" fill="none"> PointDistanceFollower   Dec 16 2019</text>
 <text x="200"  y="30"  font-family="sans-serif" font-size="20" >Fol_2019-12-16.15_26_15.0_15.svg  &#160;&#160;&#160;&#160;&#160; Wall time passed: 140 msec.</text>
<text x="300" y="60"   font-family="sans-serif" font-size="20" fill="lightblue">  S6  38 msec </text>
<text x="300" y="85"   font-family="sans-serif" font-size="20" fill="olive">  CS6Dist  1 msec </text>
<text x="300" y="110"   font-family="sans-serif" font-size="20" fill="black">  LM  100 msec </text>



 <!--DISTANCE PLOT BEGINS   mode = Single Point-->


<!-- the following will scale and place the distance plot -->
<g transform="translate(150,975) scale(1 -1)">
   <polyline fill="none" stroke=" lightblue " stroke-width=" 12 " stroke-dasharray = " 10,5 " points=" 7.92079,0 15.8416,15.8898 23.7624,31.7797 31.6832,47.6695 39.604,63.5593 47.5248,79.4492 55.4455,95.339 63.3663,111.229 71.2871,127.119 79.2079,143.009 87.1287,158.898 95.0495,174.788 102.97,190.678 110.891,206.568 118.812,222.458 126.733,238.348 134.653,254.237 142.574,270.127 150.495,286.017 158.416,301.907 166.337,317.797 174.257,333.687 182.178,349.576 190.099,365.466 198.02,381.356 205.941,397.246 213.861,413.136 221.782,429.026 229.703,444.915 237.624,460.805 245.545,476.695 253.465,492.585 261.386,508.475 269.307,524.365 277.228,540.254 285.149,556.144 293.069,572.034 300.99,587.924 308.911,603.814 316.832,619.704 324.752,635.593 332.673,651.483 340.594,667.373 348.515,683.263 356.436,699.153 364.356,715.043 372.277,730.932 380.198,746.822 388.119,762.712 396.04,778.602 403.96,778.602 411.881,762.712 419.802,746.822 427.723,730.932 435.644,715.043 443.564,699.153 451.485,683.263 459.406,667.373 467.327,651.483 475.248,635.593 483.168,619.704 491.089,603.814 499.01,587.924 506.931,572.034 514.851,556.144 522.772,540.254 530.693,524.365 538.614,508.475 546.535,492.585 554.455,476.695 562.376,460.805 570.297,444.915 578.218,429.026 586.139,413.136 594.059,397.246 601.98,381.356 609.901,365.466 617.822,349.576 625.743,333.687 633.663,317.797 641.584,301.907 649.505,286.017 657.426,270.127 665.347,254.237 673.267,238.348 681.188,222.458 689.109,206.568 697.03,190.678 704.95,174.788 712.871,158.898 720.792,143.009 728.713,127.119 736.634,111.229 744.554,95.339 752.475,79.4492 760.396,63.5593 768.317,47.6695 776.238,31.7797 784.158,15.8898 792.079,0 " />

   <polyline fill="none" stroke=" olive " stroke-width=" 3 " stroke-dasharray = " 5,10 " points=" 7.92079,0.000143861 15.8416,15.8898 23.7624,31.7797 31.6832,47.6695 39.604,63.5593 47.5248,79.4492 55.4455,95.339 63.3663,111.229 71.2871,127.119 79.2079,143.009 87.1287,158.898 95.0495,174.788 102.97,190.678 110.891,206.568 118.812,222.458 126.733,238.348 134.653,254.237 142.574,270.127 150.495,286.017 158.416,301.907 166.337,317.797 174.257,333.687 182.178,349.576 190.099,365.466 198.02,381.356 205.941,397.246 213.861,413.136 221.782,429.026 229.703,444.915 237.624,460.805 245.545,476.695 253.465,492.585 261.386,508.475 269.307,524.365 277.228,540.254 285.149,556.144 293.069,572.034 300.99,587.924 308.911,603.814 316.832,619.704 324.752,635.593 332.673,651.483 340.594,667.373 348.515,683.263 356.436,699.153 364.356,715.043 372.277,730.932 380.198,746.822 388.119,762.712 396.04,778.602 403.96,778.602 411.881,762.712 419.802,746.822 427.723,730.932 435.644,715.043 443.564,699.153 451.485,683.263 459.406,667.373 467.327,651.483 475.248,635.593 483.168,619.704 491.089,603.814 499.01,587.924 506.931,572.034 514.851,556.144 522.772,540.254 530.693,524.365 538.614,508.475 546.535,492.585 554.455,476.695 562.376,460.805 570.297,444.915 578.218,429.026 586.139,413.136 594.059,397.246 601.98,381.356 609.901,365.466 617.822,349.576 625.743,333.687 633.663,317.797 641.584,301.907 649.505,286.017 657.426,270.127 665.347,254.237 673.267,238.348 681.188,222.458 689.109,206.568 697.03,190.678 704.95,174.788 712.871,158.898 720.792,143.009 728.713,127.119 736.634,111.229 744.554,95.339 752.475,79.4492 760.396,63.5593 768.317,47.6695 776.238,31.7797 784.158,15.8898 792.079,0.000143861 " />

   <polyline fill="none" stroke=" black " stroke-width=" 3 " stroke-dasharray = "  " points=" 7.92079,0 15.8416,15.8898 23.7624,31.7797 31.6832,47.6695 39.604,63.5593 47.5248,79.4492 55.4455,95.339 63.3663,111.229 71.2871,127.119 79.2079,143.009 87.1287,158.898 95.0495,174.788 102.97,190.678 110.891,206.568 118.812,222.458 126.733,238.348 134.653,254.237 142.574,270.127 150.495,286.017 158.416,301.907 166.337,317.797 174.257,333.687 182.178,349.576 190.099,365.466 198.02,381.356 205.941,397.246 213.861,413.136 221.782,429.026 229.703,444.915 237.624,460.805 245.545,476.695 253.465,492.585 261.386,508.475 269.307,524.365 277.228,540.254 285.149,556.144 293.069,572.034 300.99,587.924 308.911,603.814 316.832,619.704 324.752,635.593 332.673,651.483 340.594,667.373 348.515,683.263 356.436,699.153 364.356,715.043 372.277,730.932 380.198,746.822 388.119,762.712 396.04,778.602 403.96,778.602 411.881,762.712 419.802,746.822 427.723,730.932 435.644,715.043 443.564,699.153 451.485,683.263 459.406,667.373 467.327,651.483 475.248,635.593 483.168,619.704 491.089,603.814 499.01,587.924 506.931,572.034 514.851,556.144 522.772,540.254 530.693,524.365 538.614,508.475 546.535,492.585 554.455,476.695 562.376,460.805 570.297,444.915 578.218,429.026 586.139,413.136 594.059,397.246 601.98,381.356 609.901,365.466 617.822,349.576 625.743,333.687 633.663,317.797 641.584,301.907 649.505,286.017 657.426,270.127 665.347,254.237 673.267,238.348 681.188,222.458 689.109,206.568 697.03,190.678 704.95,174.788 712.871,158.898 720.792,143.009 728.713,127.119 736.634,111.229 744.554,95.339 752.475,79.4492 760.396,63.5593 768.317,47.6695 776.238,31.7797 784.158,15.8898 792.079,0 " />


<!--Draw the X and Y axes -->
<polyline fill="none" stroke="black" stroke-width="6"  points=" 800,0 0,0 0, 800" />
<polyline fill="none" stroke="black" stroke-width="1"  points=" 0 800  800 800  800 0" />
<!-- -->


<!--Draw labels and tics for X axis -->

<line fill="none" stroke="black"  stroke-width="6"  x1="0.5" y1="0" x2="0.5" y2="-20" />
<text transform="scale(1,-1)" font-family="sans-serif" font-size="30" x="-24.5" y="45" >0</text>
<line fill="none" stroke="black"  stroke-width="6"  x1="158.916" y1="0" x2="158.916" y2="-20" />
<text transform="scale(1,-1)" font-family="sans-serif" font-size="30" x="133.916" y="45" >20</text>
<line fill="none" stroke="black"  stroke-width="6"  x1="317.332" y1="0" x2="317.332" y2="-20" />
<text transform="scale(1,-1)" font-family="sans-serif" font-size="30" x="292.332" y="45" >40</text>
<line fill="none" stroke="black"  stroke-width="6"  x1="475.748" y1="0" x2="475.748" y2="-20" />
<text transform="scale(1,-1)" font-family="sans-serif" font-size="30" x="450.748" y="45" >60</text>
<line fill="none" stroke="black"  stroke-width="6"  x1="634.163" y1="0" x2="634.163" y2="-20" />
<text transform="scale(1,-1)" font-family="sans-serif" font-size="30" x="609.163" y="45" >80</text>
<line fill="none" stroke="black"  stroke-width="6"  x1="792.579" y1="0" x2="792.579" y2="-20" />
<text transform="scale(1,-1)" font-family="sans-serif" font-size="30" x="767.579" y="45" >100</text>


<!--Draw labels and tics for Y axis -->

<line fill="none" stroke="black" stroke-width="6" x1="0.0" y1="0" x2="-20" y2="0" />
<text transform="scale(1,-1)" text-anchor="end" font-family="sans-serif" font-size="30" x="-25" y="10" >0</text>
<line fill="none" stroke="black" stroke-width="6" x1="0.0" y1="133.333" x2="-20" y2="133.333" />
<text transform="scale(1,-1)" text-anchor="end" font-family="sans-serif" font-size="30" x="-25" y="-123.333" >5</text>
<line fill="none" stroke="black" stroke-width="6" x1="0.0" y1="266.667" x2="-20" y2="266.667" />
<text transform="scale(1,-1)" text-anchor="end" font-family="sans-serif" font-size="30" x="-25" y="-256.667" >10</text>
<line fill="none" stroke="black" stroke-width="6" x1="0.0" y1="400" x2="-20" y2="400" />
<text transform="scale(1,-1)" text-anchor="end" font-family="sans-serif" font-size="30" x="-25" y="-390" >15</text>
<line fill="none" stroke="black" stroke-width="6" x1="0.0" y1="533.333" x2="-20" y2="533.333" />
<text transform="scale(1,-1)" text-anchor="end" font-family="sans-serif" font-size="30" x="-25" y="-523.333" >20</text>
<line fill="none" stroke="black" stroke-width="6" x1="0.0" y1="666.667" x2="-20" y2="666.667" />
<text transform="scale(1,-1)" text-anchor="end" font-family="sans-serif" font-size="30" x="-25" y="-656.667" >25</text>
<line fill="none" stroke="black" stroke-width="6" x1="0.0" y1="800" x2="-20" y2="800" />
<text transform="scale(1,-1)" text-anchor="end" font-family="sans-serif" font-size="30" x="-25" y="-790" >30</text>

-->
</g>
</g>
<!-- Run Constants
PRINTDISTANCEDATA bool true
GLITCHESONLY bool false
PERTURBBY double 0.05
GLITCHLEVEL double 3
BOUNDARYWINDOW double 0.065
STEPSPERFRAME int 100
TRIALS int 20
ALLBLACK bool true
FILEPREFIX string Fol
NIGGLISELLINGFIRST bool false
ENABLE DistanceEnableString 
DISABLE DistanceDisableString 
GRAPHSIZE int 0
BORDER int 0
PLOTSIZE int 0
AXISWIDTH int 6
TICLENGTH int 20
VECTOR g6 
FOLLOWERMODE FollowerMode point
FIXRANDOMSEED fixRandomSeed false
RANDOMSEED int 21
TIMESTAMP bool true
END end 


-->
</svg>
