<?xml version="1.0" standalone="no"?>
<!-- the width and height set the total pixel output of the image in the browser -->
<!-- whatever is within the viewbox will be remapped to show in this size -->
<svg width="1000" height="1000" viewBox="1 0 1000 1000"  version="1.1" xmlns="http://www.w3.org/2000/svg" xmlns:xlink="http://www.w3.org/1999/xlink">
 <desc>ID (and file name) = Fol_2018-05-06.16_52_17.1_8.svg </desc> 
 <text x="700" y="30" font-family="sans-serif" font-size="20">Wall time passed: 306826 msec.</text>
<text x="300" y="60"   font-family="sans-serif" font-size="20" fill="lightblue">S6  lightblue</text>
<text x="300" y="85"   font-family="sans-serif" font-size="20" fill="slategrey">NCDist  slategrey</text>
<text x="300" y="110"  font-family="sans-serif" font-size="20" fill="violet">D7  violet</text>
<text x="300" y="135"  font-family="sans-serif" font-size="20" fill="olive">CS6Dist  olive</text>



 <!--DISTANCE PLOT BEGINS-->


<!-- the following will scale and place the distance plot -->
<g  transform="translate(0,50) ">
<g transform="translate(150,700) scale(1 -1)">
   <polyline fill="none" stroke=" lightblue " stroke-width=" 12 " points=" 5.2,0 10.4,9.39776 15.6,15.3461 20.8,21.5168 26,27.2592 31.2,33.7826 36.4,40.7133 41.6,47.8747 46.8,55.1771 52,61.3799 57.2,66.2293 62.4,71.5768 67.6,77.3194 72.8,83.3752 78,89.681 83.2,96.137 88.4,102.388 93.6,108.823 98.8,115.41 104,122.126 109.2,128.95 114.4,135.866 119.6,142.861 124.8,149.923 130,157.044 135.2,164.216 140.4,171.432 145.6,178.687 150.8,185.977 156,193.297 161.2,200.644 166.4,208.016 171.6,215.41 176.8,222.823 182,230.255 187.2,237.702 192.4,245.164 197.6,252.639 202.8,260.127 208,267.625 213.2,275.134 218.4,282.653 223.6,290.18 228.8,297.715 234,305.258 239.2,312.807 244.4,320.363 249.6,327.925 254.8,335.493 260,337.535 265.2,338.535 270.4,339.705 275.6,341.045 280.8,340.553 286,341.055 291.2,340.269 296.4,335.833 301.6,327.713 306.8,319.601 312,311.496 317.2,303.398 322.4,295.31 327.6,287.231 332.8,279.162 338,271.104 343.2,263.058 348.4,255.026 353.6,247.008 358.8,239.006 364,231.022 369.2,223.057 374.4,215.114 379.6,207.196 384.8,199.304 390,191.443 395.2,183.617 400.4,175.83 405.6,168.087 410.8,160.395 416,152.762 421.2,145.196 426.4,137.71 431.6,130.316 436.8,123.031 442,115.877 447.2,108.878 452.4,101.27 457.6,93.1143 462.8,84.9772 468,76.8649 473.2,68.7862 478.4,60.7545 483.6,52.7912 488.8,44.9327 494,37.2453 499.2,29.8617 504.4,23.0753 509.6,16.5067 514.8,8.25337 520,0 " />
   <polyline fill="none" stroke=" slategrey " stroke-width=" 9 " points=" 5.2,0 10.4,20.8311 15.6,41.6622 20.8,62.4933 26,83.3244 31.2,104.156 36.4,124.987 41.6,139.721 46.8,154.662 52,164.505 57.2,172.711 62.4,179.957 67.6,185.541 72.8,191.616 78,198.136 83.2,205.061 88.4,212.348 93.6,219.964 98.8,227.874 104,236.05 109.2,244.464 114.4,253.093 119.6,261.916 124.8,270.913 130,280.068 135.2,289.366 140.4,298.793 145.6,308.338 150.8,317.99 156,327.74 161.2,337.578 166.4,347.499 171.6,357.494 176.8,367.557 182,377.684 187.2,380.04 192.4,387.136 197.6,385.495 202.8,381.862 208,375.945 213.2,372.4 218.4,372.013 223.6,371.981 228.8,372.306 234,372.985 239.2,374.017 244.4,375.399 249.6,377.127 254.8,379.197 260,381.603 265.2,384.333 270.4,380.491 275.6,372.004 280.8,363.83 286,356.255 291.2,348.732 296.4,341.265 301.6,333.859 306.8,326.517 312,319.243 317.2,312.043 322.4,304.921 327.6,297.883 332.8,290.936 338,284.086 343.2,277.34 348.4,270.706 353.6,264.192 358.8,257.808 364,251.563 369.2,245.468 374.4,239.534 379.6,233.775 384.8,228.202 390,222.83 395.2,217.673 400.4,212.748 405.6,208.072 410.8,203.66 416,199.53 421.2,195.701 426.4,192.191 431.6,189.016 436.8,186.195 442,183.744 447.2,179.18 452.4,170.736 457.6,161.116 462.8,147.69 468,134.264 473.2,120.837 478.4,107.411 483.6,93.9846 488.8,80.5582 494,67.1319 499.2,53.7055 504.4,40.2791 509.6,26.8527 514.8,13.4264 520,3.11041e-13 " />
   <polyline fill="none" stroke=" violet " stroke-width=" 6 " points=" 5.2,0 10.4,14.824 15.6,25.5581 20.8,35.1912 26,45.4579 31.2,55.9764 36.4,66.6179 41.6,77.3281 46.8,88.0804 52,96.0126 57.2,101.207 62.4,107.317 67.6,114.196 72.8,121.703 78,129.722 83.2,138.158 88.4,146.935 93.6,155.992 98.8,165.281 104,174.751 109.2,184.344 114.4,194.073 119.6,203.921 124.8,213.871 130,223.91 135.2,234.025 140.4,244.207 145.6,254.448 150.8,264.741 156,275.08 161.2,285.459 166.4,295.876 171.6,306.325 176.8,316.804 182,327.311 187.2,337.842 192.4,348.396 197.6,358.97 202.8,369.564 208,380.175 213.2,390.803 218.4,401.447 223.6,412.105 228.8,422.664 234,433.247 239.2,443.854 244.4,454.484 249.6,465.136 254.8,475.705 260,481.191 265.2,482.018 270.4,482.796 275.6,483.817 280.8,484.892 286,485.841 291.2,487.067 296.4,479.211 301.6,467.998 306.8,456.809 312,445.647 317.2,434.512 322.4,423.408 327.6,412.337 332.8,401.302 338,390.305 343.2,379.351 348.4,368.443 353.6,357.586 358.8,346.784 364,336.042 369.2,325.368 374.4,314.767 379.6,304.247 384.8,293.817 390,283.487 395.2,273.268 400.4,263.172 405.6,253.214 410.8,242.588 416,232.076 421.2,221.705 426.4,210.257 431.6,198.576 436.8,186.895 442,175.214 447.2,163.533 452.4,151.852 457.6,140.171 462.8,128.491 468,116.81 473.2,105.129 478.4,93.4476 483.6,81.7667 488.8,70.0857 494,58.4048 499.2,46.7238 504.4,35.0429 509.6,23.3619 514.8,11.681 520,0 " />
   <polyline fill="none" stroke=" olive " stroke-width=" 3 " points=" 5.2,0 10.4,466.377 15.6,463.774 20.8,461.284 26,458.91 31.2,456.652 36.4,454.513 41.6,452.495 46.8,450.599 52,448.826 57.2,445.04 62.4,440.12 67.6,435.279 72.8,430.521 78,425.849 83.2,421.265 88.4,416.772 93.6,412.374 98.8,408.073 104,403.872 109.2,399.775 114.4,395.785 119.6,391.905 124.8,388.138 130,384.488 135.2,380.958 140.4,377.552 145.6,374.272 150.8,371.122 156,368.106 161.2,365.227 166.4,362.488 171.6,359.892 176.8,357.442 182,355.142 187.2,352.994 192.4,351.002 197.6,349.167 202.8,347.492 208,345.98 213.2,344.633 218.4,343.453 223.6,342.441 228.8,341.598 234,340.928 239.2,340.429 244.4,340.103 249.6,339.951 254.8,339.972 260,340.167 265.2,340.535 270.4,341.076 275.6,341.789 280.8,344.334 286,345.511 291.2,346.88 296.4,348.44 301.6,343.113 306.8,335.121 312,327.143 317.2,319.178 322.4,311.228 327.6,303.295 332.8,295.379 338,287.482 343.2,279.606 348.4,271.752 353.6,263.922 358.8,255.854 364,247.601 369.2,239.348 374.4,231.094 379.6,222.841 384.8,214.588 390,206.334 395.2,198.081 400.4,189.827 405.6,181.574 410.8,173.321 416,165.067 421.2,156.814 426.4,148.561 431.6,140.307 436.8,132.054 442,123.801 447.2,115.547 452.4,107.294 457.6,99.0404 462.8,90.787 468,82.5337 473.2,74.2803 478.4,66.0269 483.6,57.7736 488.8,49.5202 494,41.2668 499.2,33.0135 504.4,24.7601 509.6,16.5067 514.8,8.25337 520,0 " />

<!--Draw the X and Y axes -->
<polyline fill="none" stroke="black" stroke-width="6"  points=" 600,0 0,0 0,520" />
<!-- -->


<!--Draw labels and tics for X axis -->

<line fill="none" stroke="black"  stroke-width="6"  x1="0.5" y1="0" x2="0.5" y2="-20" />
<text transform="scale(1,-1)" font-family="sans-serif" font-size="30" x="-24.5" y="45" >0</text>
<line fill="none" stroke="black"  stroke-width="6"  x1="104.5" y1="0" x2="104.5" y2="-20" />
<text transform="scale(1,-1)" font-family="sans-serif" font-size="30" x="79.5" y="45" >20</text>
<line fill="none" stroke="black"  stroke-width="6"  x1="208.5" y1="0" x2="208.5" y2="-20" />
<text transform="scale(1,-1)" font-family="sans-serif" font-size="30" x="183.5" y="45" >40</text>
<line fill="none" stroke="black"  stroke-width="6"  x1="312.5" y1="0" x2="312.5" y2="-20" />
<text transform="scale(1,-1)" font-family="sans-serif" font-size="30" x="287.5" y="45" >60</text>
<line fill="none" stroke="black"  stroke-width="6"  x1="416.5" y1="0" x2="416.5" y2="-20" />
<text transform="scale(1,-1)" font-family="sans-serif" font-size="30" x="391.5" y="45" >80</text>
<line fill="none" stroke="black"  stroke-width="6"  x1="520.5" y1="0" x2="520.5" y2="-20" />
<text transform="scale(1,-1)" font-family="sans-serif" font-size="30" x="495.5" y="45" >100</text>


<!--Draw labels and tics for Y axis -->

<line fill="none" stroke="black" stroke-width="6" x1="0.0" y1="0" x2="-20" y2="0" />
<text transform="scale(1,-1)" text-anchor="end" font-family="sans-serif" font-size="30" x="-25" y="10" >0</text>
<line fill="none" stroke="black" stroke-width="6" x1="0.0" y1="47.2727" x2="-20" y2="47.2727" />
<text transform="scale(1,-1)" text-anchor="end" font-family="sans-serif" font-size="30" x="-25" y="-37.2727" >5</text>
<line fill="none" stroke="black" stroke-width="6" x1="0.0" y1="94.5455" x2="-20" y2="94.5455" />
<text transform="scale(1,-1)" text-anchor="end" font-family="sans-serif" font-size="30" x="-25" y="-84.5455" >10</text>
<line fill="none" stroke="black" stroke-width="6" x1="0.0" y1="141.818" x2="-20" y2="141.818" />
<text transform="scale(1,-1)" text-anchor="end" font-family="sans-serif" font-size="30" x="-25" y="-131.818" >15</text>
<line fill="none" stroke="black" stroke-width="6" x1="0.0" y1="189.091" x2="-20" y2="189.091" />
<text transform="scale(1,-1)" text-anchor="end" font-family="sans-serif" font-size="30" x="-25" y="-179.091" >20</text>
<line fill="none" stroke="black" stroke-width="6" x1="0.0" y1="236.364" x2="-20" y2="236.364" />
<text transform="scale(1,-1)" text-anchor="end" font-family="sans-serif" font-size="30" x="-25" y="-226.364" >25</text>
<line fill="none" stroke="black" stroke-width="6" x1="0.0" y1="283.636" x2="-20" y2="283.636" />
<text transform="scale(1,-1)" text-anchor="end" font-family="sans-serif" font-size="30" x="-25" y="-273.636" >30</text>
<line fill="none" stroke="black" stroke-width="6" x1="0.0" y1="330.909" x2="-20" y2="330.909" />
<text transform="scale(1,-1)" text-anchor="end" font-family="sans-serif" font-size="30" x="-25" y="-320.909" >35</text>
<line fill="none" stroke="black" stroke-width="6" x1="0.0" y1="378.182" x2="-20" y2="378.182" />
<text transform="scale(1,-1)" text-anchor="end" font-family="sans-serif" font-size="30" x="-25" y="-368.182" >40</text>
<line fill="none" stroke="black" stroke-width="6" x1="0.0" y1="425.455" x2="-20" y2="425.455" />
<text transform="scale(1,-1)" text-anchor="end" font-family="sans-serif" font-size="30" x="-25" y="-415.455" >45</text>
<line fill="none" stroke="black" stroke-width="6" x1="0.0" y1="472.727" x2="-20" y2="472.727" />
<text transform="scale(1,-1)" text-anchor="end" font-family="sans-serif" font-size="30" x="-25" y="-462.727" >50</text>
<line fill="none" stroke="black" stroke-width="6" x1="0.0" y1="520" x2="-20" y2="520" />
<text transform="scale(1,-1)" text-anchor="end" font-family="sans-serif" font-size="30" x="-25" y="-510" >55</text>

-->
</g>
</g>
<!-- Run Constants
CIRCLEPLOT bool false
DISTANCEPLOT bool true
PRINTDISTANCEDATA bool true
GLITCHESONLY bool false
PLOT 2doubles 3 4
PERTURBBY double 0.05
GLITCHLEVEL double 3
BOUNDARYWINDOW double 0.065
FRAMESPERPATH int 200
STEPSPERFRAME int 100
TRIALS int 10
ALLBLACK bool true
FILEPREFIX string Fol
GRAPHSIZE int 0
BORDER int 0
PLOTSIZE int 0
CIRCLEPLOTSIZE int 2000
CIRCLERADIUS int 300
CIRCLESTROKEWIDTH int 30
G6LINEWIDTH int 3
DELONELINEWIDTH int 10
AXISWIDTH int 6
TICLENGTH int 20
VECTOR g6 
MOVIEMODE MovieMode STAR
FOLLOWERMODE FollowerMode Follow
FIXRANDOMSEED fixRandomSeed false
RANDOMSEED int 19191
TIMESTAMP bool true
END end 




-->
</svg>
