<?xml version="1.0" standalone="no"?>
<!-- the width and height set the total pixel output of the image in the browser -->
<!-- whatever is within the viewbox will be remapped to show in this size -->
<svg width="1000" height="1000" viewBox="1 0 1000 1000"  version="1.1" xmlns="http://www.w3.org/2000/svg" xmlns:xlink="http://www.w3.org/1999/xlink">
 <desc>ID (and file name) = Fol_2018-05-05.11_43_23.1_12.svg </desc> 
 <text x="700" y="30" font-family="sans-serif" font-size="20">Wall time passed: 0 msec.</text>
<text x="300" y="60"   font-family="sans-serif" font-size="20" fill="lightblue">S6  lightblue</text>
<text x="300" y="85"   font-family="sans-serif" font-size="20" fill="slategrey">NCDist  slategrey</text>
<text x="300" y="110"  font-family="sans-serif" font-size="20" fill="violet">D7  violet</text>
<text x="300" y="135"  font-family="sans-serif" font-size="20" fill="olive">CS6Dist  olive</text>



 <!--DISTANCE PLOT BEGINS-->


<!-- the following will scale and place the distance plot -->
<g  transform="translate(0,50) ">
<g transform="translate(150,700) scale(1 -1)">
   <polyline fill="none" stroke=" lightblue " stroke-width=" 12 " points=" 5.2,0 10.4,21.6051 15.6,36.6652 20.8,55.9247 26,65.3312 31.2,72.0973 36.4,80.5805 41.6,90.2983 46.8,88.7415 52,88.3669 57.2,90.0428 62.4,93.6593 67.6,99.0038 72.8,105.815 78,113.09 83.2,119.873 88.4,127.73 93.6,136.477 98.8,145.952 104,156.024 109.2,166.38 114.4,173.958 119.6,173.036 124.8,172.584 130,172.146 135.2,171.568 140.4,171.536 145.6,172.049 150.8,173.104 156,174.69 161.2,176.792 166.4,179.393 171.6,182.472 176.8,186.005 182,189.965 187.2,194.328 192.4,199.067 197.6,204.155 202.8,209.567 208,215.279 213.2,221.268 218.4,227.511 223.6,233.988 228.8,240.681 234,247.572 239.2,254.644 244.4,261.883 249.6,269.276 254.8,276.811 260,284.475 265.2,292.26 270.4,300.154 275.6,308.151 280.8,316.242 286,324.421 291.2,332.614 296.4,331.814 301.6,331.295 306.8,331.058 312,331.104 317.2,331.434 322.4,332.045 327.6,332.938 332.8,334.108 338,335.554 343.2,337.272 348.4,333.897 353.6,325.008 358.8,316.166 364,307.198 369.2,297.679 374.4,288.171 379.6,278.674 384.8,269.191 390,259.723 395.2,250.271 400.4,240.838 405.6,231.425 410.8,222.036 416,212.672 421.2,203.339 426.4,194.04 431.6,184.781 436.8,175.567 442,166.407 447.2,160.195 452.4,148.753 457.6,137.31 462.8,125.868 468,114.425 473.2,102.983 478.4,91.5402 483.6,80.0977 488.8,68.6551 494,57.2126 499.2,45.7701 504.4,34.3276 509.6,22.885 514.8,11.4425 520,0 " />
   <polyline fill="none" stroke=" slategrey " stroke-width=" 9 " points=" 5.2,0 10.4,25.484 15.6,50.968 20.8,76.452 26,101.936 31.2,112.429 36.4,114.011 41.6,121.06 46.8,130.42 52,141.609 57.2,154.938 62.4,168.511 67.6,183.756 72.8,202.134 78,220.922 83.2,238.012 88.4,255.934 93.6,274.527 98.8,283.078 104,289.537 109.2,296.524 114.4,304.004 119.6,311.587 124.8,319.497 130,327.821 135.2,336.529 140.4,345.592 145.6,354.981 150.8,364.673 156,374.644 161.2,384.872 166.4,395.337 171.6,406.02 176.8,416.905 182,427.977 187.2,439.222 192.4,450.626 197.6,458.864 202.8,451.983 208,445.42 213.2,439.189 218.4,433.305 223.6,427.78 228.8,422.629 234,417.866 239.2,413.503 244.4,409.554 249.6,406.029 254.8,402.941 260,400.298 265.2,398.109 270.4,396.381 275.6,395.121 280.8,394.332 286,390.807 291.2,390.696 296.4,391.201 301.6,392.318 306.8,392.694 312,393.137 317.2,394.13 322.4,394.547 327.6,396.157 332.8,398.832 338,392.279 343.2,382.038 348.4,371.872 353.6,361.788 358.8,351.792 364,341.892 369.2,332.097 374.4,322.416 379.6,311.128 384.8,299.605 390,288.082 395.2,276.558 400.4,265.035 405.6,253.512 410.8,241.989 416,230.465 421.2,218.942 426.4,207.419 431.6,195.896 436.8,184.372 442,172.849 447.2,161.326 452.4,149.802 457.6,138.279 462.8,126.756 468,115.233 473.2,103.709 478.4,92.1861 483.6,80.6629 488.8,69.1396 494,57.6163 499.2,46.0931 504.4,34.5698 509.6,23.0465 514.8,11.5233 520,1.51608e-13 " />
   <polyline fill="none" stroke=" violet " stroke-width=" 6 " points=" 5.2,2.83378e-05 10.4,51.9585 15.6,84.3697 20.8,111.207 26,128.365 31.2,147.707 36.4,162.976 41.6,166.854 46.8,168.718 52,172.957 57.2,179.405 62.4,187.833 67.6,197.99 72.8,209.623 78,221.746 83.2,233.386 88.4,246.15 93.6,259.873 98.8,274.411 104,289.642 109.2,305.339 114.4,316.52 119.6,314.588 124.8,313.173 130,311.993 135.2,310.992 140.4,310.619 145.6,310.879 150.8,311.772 156,313.294 161.2,315.438 166.4,318.194 171.6,321.546 176.8,325.478 182,329.969 187.2,334.997 192.4,340.539 197.6,346.57 202.8,353.064 208,359.997 213.2,356.461 218.4,348.783 223.6,343.609 228.8,341.704 234,343.815 239.2,350.271 244.4,360.731 249.6,370.395 254.8,383.192 260,398.488 265.2,415.682 270.4,434.317 275.6,454.062 280.8,474.685 286,489.931 291.2,487.9 296.4,486.256 301.6,485.001 306.8,484.14 312,483.674 317.2,483.605 322.4,483.933 327.6,484.656 332.8,485.774 338,487.283 343.2,489.18 348.4,489.037 353.6,477.009 358.8,465.307 364,453.788 369.2,442.731 374.4,430.668 379.6,418.585 384.8,405.398 390,391.314 395.2,377.223 400.4,363.127 405.6,349.027 410.8,334.924 416,320.822 421.2,306.724 426.4,292.633 431.6,278.555 436.8,264.499 442,250.474 447.2,236.044 452.4,219.184 457.6,202.324 462.8,185.463 468,168.603 473.2,151.743 478.4,134.883 483.6,118.022 488.8,101.162 494,84.3016 499.2,67.4413 504.4,50.5809 509.6,33.7206 514.8,16.8603 520,2.83378e-05 " />
   <polyline fill="none" stroke=" olive " stroke-width=" 3 " points=" 5.2,0 10.4,73.0422 15.6,63.9777 20.8,61.2928 26,108.6 31.2,101.322 36.4,95.4138 41.6,91.1413 46.8,88.7415 52,88.3669 57.2,90.0428 62.4,93.6593 67.6,99.0038 72.8,105.815 78,113.09 83.2,119.873 88.4,127.73 93.6,136.477 98.8,145.952 104,156.024 109.2,166.585 114.4,173.958 119.6,173.036 124.8,172.584 130,469.18 135.2,462.369 140.4,455.661 145.6,449.063 150.8,442.578 156,436.211 161.2,429.968 166.4,423.854 171.6,417.876 176.8,412.038 182,406.347 187.2,400.81 192.4,395.431 197.6,390.22 202.8,385.181 208,380.321 213.2,375.649 218.4,371.171 223.6,366.893 228.8,362.823 234,358.969 239.2,355.337 244.4,351.933 249.6,348.766 254.8,345.84 260,343.163 265.2,340.741 270.4,338.577 275.6,336.679 280.8,335.05 286,333.694 291.2,332.614 296.4,331.814 301.6,331.295 306.8,331.058 312,331.104 317.2,331.434 322.4,332.045 327.6,332.938 332.8,334.108 338,335.554 343.2,337.272 348.4,339.258 353.6,341.021 358.8,340.37 364,339.994 369.2,339.894 374.4,337.476 379.6,328.469 384.8,319.501 390,310.577 395.2,301.7 400.4,292.873 405.6,284.102 410.8,275.393 416,266.75 421.2,258.182 426.4,249.695 431.6,241.298 436.8,233.001 442,224.814 447.2,160.195 452.4,148.753 457.6,137.31 462.8,125.868 468,114.425 473.2,102.983 478.4,91.5402 483.6,80.0977 488.8,68.6551 494,57.2126 499.2,45.7701 504.4,34.3276 509.6,22.885 514.8,11.4425 520,0 " />

<!--Draw the X and Y axes -->
<polyline fill="none" stroke="black" stroke-width="6"  points=" 600,0 0,0 0,520" />
<!-- -->


<!--Draw labels and tics for X axis -->

<line fill="none" stroke="black"  stroke-width="6"  x1="0.5" y1="0" x2="0.5" y2="-20" />
<text transform="scale(1,-1)" font-family="sans-serif" font-size="30" x="-24.5" y="45" >0</text>
<line fill="none" stroke="black"  stroke-width="6"  x1="104.5" y1="0" x2="104.5" y2="-20" />
<text transform="scale(1,-1)" font-family="sans-serif" font-size="30" x="79.5" y="45" >20</text>
<line fill="none" stroke="black"  stroke-width="6"  x1="208.5" y1="0" x2="208.5" y2="-20" />
<text transform="scale(1,-1)" font-family="sans-serif" font-size="30" x="183.5" y="45" >40</text>
<line fill="none" stroke="black"  stroke-width="6"  x1="312.5" y1="0" x2="312.5" y2="-20" />
<text transform="scale(1,-1)" font-family="sans-serif" font-size="30" x="287.5" y="45" >60</text>
<line fill="none" stroke="black"  stroke-width="6"  x1="416.5" y1="0" x2="416.5" y2="-20" />
<text transform="scale(1,-1)" font-family="sans-serif" font-size="30" x="391.5" y="45" >80</text>
<line fill="none" stroke="black"  stroke-width="6"  x1="520.5" y1="0" x2="520.5" y2="-20" />
<text transform="scale(1,-1)" font-family="sans-serif" font-size="30" x="495.5" y="45" >100</text>


<!--Draw labels and tics for Y axis -->

<line fill="none" stroke="black" stroke-width="6" x1="0.0" y1="0" x2="-20" y2="0" />
<text transform="scale(1,-1)" text-anchor="end" font-family="sans-serif" font-size="30" x="-25" y="10" >0</text>
<line fill="none" stroke="black" stroke-width="6" x1="0.0" y1="74.2857" x2="-20" y2="74.2857" />
<text transform="scale(1,-1)" text-anchor="end" font-family="sans-serif" font-size="30" x="-25" y="-64.2857" >5</text>
<line fill="none" stroke="black" stroke-width="6" x1="0.0" y1="148.571" x2="-20" y2="148.571" />
<text transform="scale(1,-1)" text-anchor="end" font-family="sans-serif" font-size="30" x="-25" y="-138.571" >10</text>
<line fill="none" stroke="black" stroke-width="6" x1="0.0" y1="222.857" x2="-20" y2="222.857" />
<text transform="scale(1,-1)" text-anchor="end" font-family="sans-serif" font-size="30" x="-25" y="-212.857" >15</text>
<line fill="none" stroke="black" stroke-width="6" x1="0.0" y1="297.143" x2="-20" y2="297.143" />
<text transform="scale(1,-1)" text-anchor="end" font-family="sans-serif" font-size="30" x="-25" y="-287.143" >20</text>
<line fill="none" stroke="black" stroke-width="6" x1="0.0" y1="371.429" x2="-20" y2="371.429" />
<text transform="scale(1,-1)" text-anchor="end" font-family="sans-serif" font-size="30" x="-25" y="-361.429" >25</text>
<line fill="none" stroke="black" stroke-width="6" x1="0.0" y1="445.714" x2="-20" y2="445.714" />
<text transform="scale(1,-1)" text-anchor="end" font-family="sans-serif" font-size="30" x="-25" y="-435.714" >30</text>
<line fill="none" stroke="black" stroke-width="6" x1="0.0" y1="520" x2="-20" y2="520" />
<text transform="scale(1,-1)" text-anchor="end" font-family="sans-serif" font-size="30" x="-25" y="-510" >35</text>

-->
</g>
</g>
<!-- Run Constants
CIRCLEPLOT bool false
DISTANCEPLOT bool true
PRINTDISTANCEDATA bool true
GLITCHESONLY bool false
PLOT 2doubles 3 4
PERTURBBY double 0.05
GLITCHLEVEL double 3
BOUNDARYWINDOW double 0.065
FRAMESPERPATH int 200
STEPSPERFRAME int 100
TRIALS int 20
ALLBLACK bool true
FILEPREFIX string Fol
GRAPHSIZE int 0
BORDER int 0
PLOTSIZE int 0
CIRCLEPLOTSIZE int 2000
CIRCLERADIUS int 300
CIRCLESTROKEWIDTH int 30
G6LINEWIDTH int 3
DELONELINEWIDTH int 10
AXISWIDTH int 6
TICLENGTH int 20
VECTOR g6 
MOVIEMODE MovieMode STAR
FOLLOWERMODE FollowerMode Follow
FIXRANDOMSEED fixRandomSeed false
RANDOMSEED int 19191
TIMESTAMP bool true
END end 




-->
</svg>
