<?xml version="1.0" standalone="no"?>
<!-- the width and height set the total pixel output of the image in the browser -->
<!-- whatever is within the viewbox will be remapped to show in this size -->
<svg width="900" height="900" viewBox="1 0 900 900"  version="1.1" xmlns="http://www.w3.org/2000/svg" xmlns:xlink="http://www.w3.org/1999/xlink">
 <desc>ID (and file name) = Fol_2018-05-19.10_14_12.1_1.svg  mode = LINE3 </desc> 
<text x = "-750" y="50" transform="rotate(-90)"  font-family="sans-serif" font-size="40" stroke ="lightgray" fill="none"> PointDistanceFollower   May 19 2018</text>
 <text x="560" y="30" font-family="sans-serif" font-size="20">Wall time passed: 80896 msec.</text>
<text x="300" y="60"   font-family="sans-serif" font-size="20" fill="lightblue">S6  lightblue</text>
<text x="300" y="85"   font-family="sans-serif" font-size="20" fill="slategrey">NCDist  slategrey</text>
<text x="300" y="110"  font-family="sans-serif" font-size="20" fill="violet">D7  violet</text>
<text x="300" y="135"  font-family="sans-serif" font-size="20" fill="olive">CS6Dist  olive</text>

 <text x="140"  y="30"  font-family="sans-serif" font-size="20" >Fol_2018-05-19.10_14_12.1_1.svg  </text> 


 <!--DISTANCE PLOT BEGINS-->


<!-- the following will scale and place the distance plot -->
<g  transform="translate(0, 50) ">
<g transform="translate(150,700) scale(1 -1)">
<line fill="none" stroke="lightblue" stroke-width="12" x1="0" y1="587.23" x2="5.94059" y2="587.23" />
<line fill="none" stroke="lightblue" stroke-width="12" x1="5.94059" y1="587.23" x2="11.8812" y2="575.245" />
<line fill="none" stroke="lightblue" stroke-width="12" x1="11.8812" y1="575.245" x2="17.8218" y2="563.739" />
<line fill="none" stroke="lightblue" stroke-width="12" x1="17.8218" y1="563.739" x2="23.7624" y2="552.73" />
<line fill="none" stroke="lightblue" stroke-width="12" x1="23.7624" y1="552.73" x2="29.703" y2="537.365" />
<line fill="none" stroke="lightblue" stroke-width="12" x1="29.703" y1="537.365" x2="35.6436" y2="517.757" />
<line fill="none" stroke="lightblue" stroke-width="12" x1="35.6436" y1="517.757" x2="41.5842" y2="498.376" />
<line fill="none" stroke="lightblue" stroke-width="12" x1="41.5842" y1="498.376" x2="47.5248" y2="479.239" />
<line fill="none" stroke="lightblue" stroke-width="12" x1="47.5248" y1="479.239" x2="53.4653" y2="460.363" />
<line fill="none" stroke="lightblue" stroke-width="12" x1="53.4653" y1="460.363" x2="59.4059" y2="441.767" />
<line fill="none" stroke="lightblue" stroke-width="12" x1="59.4059" y1="441.767" x2="65.3465" y2="423.472" />
<line fill="none" stroke="lightblue" stroke-width="12" x1="65.3465" y1="423.472" x2="71.2871" y2="405.501" />
<line fill="none" stroke="lightblue" stroke-width="12" x1="71.2871" y1="405.501" x2="77.2277" y2="387.877" />
<line fill="none" stroke="lightblue" stroke-width="12" x1="77.2277" y1="387.877" x2="83.1683" y2="370.625" />
<line fill="none" stroke="lightblue" stroke-width="12" x1="83.1683" y1="370.625" x2="89.1089" y2="353.775" />
<line fill="none" stroke="lightblue" stroke-width="12" x1="89.1089" y1="353.775" x2="95.0495" y2="337.356" />
<line fill="none" stroke="lightblue" stroke-width="12" x1="95.0495" y1="337.356" x2="100.99" y2="321.4" />
<line fill="none" stroke="lightblue" stroke-width="12" x1="100.99" y1="321.4" x2="106.931" y2="305.941" />
<line fill="none" stroke="lightblue" stroke-width="12" x1="106.931" y1="305.941" x2="112.871" y2="291.017" />
<line fill="none" stroke="lightblue" stroke-width="12" x1="112.871" y1="291.017" x2="118.812" y2="276.667" />
<line fill="none" stroke="lightblue" stroke-width="12" x1="118.812" y1="276.667" x2="124.752" y2="262.931" />
<line fill="none" stroke="lightblue" stroke-width="12" x1="124.752" y1="262.931" x2="130.693" y2="249.852" />
<line fill="none" stroke="lightblue" stroke-width="12" x1="130.693" y1="249.852" x2="136.634" y2="237.477" />
<line fill="none" stroke="lightblue" stroke-width="12" x1="136.634" y1="237.477" x2="142.574" y2="225.849" />
<line fill="none" stroke="lightblue" stroke-width="12" x1="142.574" y1="225.849" x2="148.515" y2="215.019" />
<line fill="none" stroke="lightblue" stroke-width="12" x1="148.515" y1="215.019" x2="154.455" y2="205.031" />
<line fill="none" stroke="lightblue" stroke-width="12" x1="154.455" y1="205.031" x2="160.396" y2="195.935" />
<line fill="none" stroke="lightblue" stroke-width="12" x1="160.396" y1="195.935" x2="166.337" y2="187.777" />
<line fill="none" stroke="lightblue" stroke-width="12" x1="166.337" y1="187.777" x2="172.277" y2="180.6" />
<line fill="none" stroke="lightblue" stroke-width="12" x1="172.277" y1="180.6" x2="178.218" y2="174.446" />
<line fill="none" stroke="lightblue" stroke-width="12" x1="178.218" y1="174.446" x2="184.158" y2="169.352" />
<line fill="none" stroke="lightblue" stroke-width="12" x1="184.158" y1="169.352" x2="190.099" y2="165.351" />
<line fill="none" stroke="lightblue" stroke-width="12" x1="190.099" y1="165.351" x2="196.04" y2="162.469" />
<line fill="none" stroke="lightblue" stroke-width="12" x1="196.04" y1="162.469" x2="201.98" y2="160.725" />
<line fill="none" stroke="lightblue" stroke-width="12" x1="201.98" y1="160.725" x2="207.921" y2="160.131" />
<line fill="none" stroke="lightblue" stroke-width="12" x1="207.921" y1="160.131" x2="213.861" y2="160.691" />
<line fill="none" stroke="lightblue" stroke-width="12" x1="213.861" y1="160.691" x2="219.802" y2="162.402" />
<line fill="none" stroke="lightblue" stroke-width="12" x1="219.802" y1="162.402" x2="225.743" y2="165.251" />
<line fill="none" stroke="lightblue" stroke-width="12" x1="225.743" y1="165.251" x2="231.683" y2="169.22" />
<line fill="none" stroke="lightblue" stroke-width="12" x1="231.683" y1="169.22" x2="237.624" y2="174.282" />
<line fill="none" stroke="lightblue" stroke-width="12" x1="237.624" y1="174.282" x2="243.564" y2="180.405" />
<line fill="none" stroke="lightblue" stroke-width="12" x1="243.564" y1="180.405" x2="249.505" y2="187.553" />
<line fill="none" stroke="lightblue" stroke-width="12" x1="249.505" y1="187.553" x2="255.446" y2="195.683" />
<line fill="none" stroke="lightblue" stroke-width="12" x1="255.446" y1="195.683" x2="261.386" y2="201.993" />
<line fill="none" stroke="lightblue" stroke-width="12" x1="261.386" y1="201.993" x2="267.327" y2="209.26" />
<line fill="none" stroke="lightblue" stroke-width="12" x1="267.327" y1="209.26" x2="273.267" y2="217.468" />
<line fill="none" stroke="lightblue" stroke-width="12" x1="273.267" y1="217.468" x2="279.208" y2="223.905" />
<line fill="none" stroke="lightblue" stroke-width="12" x1="279.208" y1="223.905" x2="285.149" y2="215.405" />
<line fill="none" stroke="lightblue" stroke-width="12" x1="285.149" y1="215.405" x2="291.089" y2="207.827" />
<line fill="none" stroke="lightblue" stroke-width="12" x1="291.089" y1="207.827" x2="297.03" y2="201.21" />
<line fill="none" stroke="lightblue" stroke-width="12" x1="297.03" y1="201.21" x2="302.97" y2="195.59" />
<line fill="none" stroke="lightblue" stroke-width="12" x1="302.97" y1="195.59" x2="308.911" y2="190.998" />
<line fill="none" stroke="lightblue" stroke-width="12" x1="308.911" y1="190.998" x2="314.851" y2="187.462" />
<line fill="none" stroke="lightblue" stroke-width="12" x1="314.851" y1="187.462" x2="320.792" y2="185.004" />
<line fill="none" stroke="lightblue" stroke-width="12" x1="320.792" y1="185.004" x2="326.733" y2="183.638" />
<line fill="none" stroke="lightblue" stroke-width="12" x1="326.733" y1="183.638" x2="332.673" y2="183.372" />
<line fill="none" stroke="lightblue" stroke-width="12" x1="332.673" y1="183.372" x2="338.614" y2="184.21" />
<line fill="none" stroke="lightblue" stroke-width="12" x1="338.614" y1="184.21" x2="344.554" y2="179.219" />
<line fill="none" stroke="lightblue" stroke-width="12" x1="344.554" y1="179.219" x2="350.495" y2="149.882" />
<line fill="none" stroke="lightblue" stroke-width="12" x1="350.495" y1="149.882" x2="356.436" y2="122.925" />
<line fill="none" stroke="lightblue" stroke-width="12" x1="356.436" y1="122.925" x2="362.376" y2="98.792" />
<line fill="none" stroke="lightblue" stroke-width="12" x1="362.376" y1="98.792" x2="368.317" y2="76.7172" />
<line fill="none" stroke="lightblue" stroke-width="12" x1="368.317" y1="76.7172" x2="374.257" y2="58.3516" />
<line fill="none" stroke="lightblue" stroke-width="12" x1="374.257" y1="58.3516" x2="380.198" y2="44.2455" />
<line fill="none" stroke="lightblue" stroke-width="12" x1="380.198" y1="44.2455" x2="386.139" y2="34.8834" />
<line fill="none" stroke="lightblue" stroke-width="12" x1="386.139" y1="34.8834" x2="392.079" y2="30.6273" />
<line fill="none" stroke="lightblue" stroke-width="12" x1="392.079" y1="30.6273" x2="398.02" y2="31.6539" />
<line fill="none" stroke="lightblue" stroke-width="12" x1="398.02" y1="31.6539" x2="403.96" y2="37.9199" />
<line fill="none" stroke="lightblue" stroke-width="12" x1="403.96" y1="37.9199" x2="409.901" y2="49.1707" />
<line fill="none" stroke="lightblue" stroke-width="12" x1="409.901" y1="49.1707" x2="415.842" y2="64.9884" />
<line fill="none" stroke="lightblue" stroke-width="12" x1="415.842" y1="64.9884" x2="421.782" y2="84.8603" />
<line fill="none" stroke="lightblue" stroke-width="12" x1="421.782" y1="84.8603" x2="427.723" y2="106.95" />
<line fill="none" stroke="lightblue" stroke-width="12" x1="427.723" y1="106.95" x2="433.663" y2="99.8218" />
<line fill="none" stroke="lightblue" stroke-width="12" x1="433.663" y1="99.8218" x2="439.604" y2="103.877" />
<line fill="none" stroke="lightblue" stroke-width="12" x1="439.604" y1="103.877" x2="445.545" y2="118.819" />
<line fill="none" stroke="lightblue" stroke-width="12" x1="445.545" y1="118.819" x2="451.485" y2="143.632" />
<line fill="none" stroke="lightblue" stroke-width="12" x1="451.485" y1="143.632" x2="457.426" y2="176.892" />
<line fill="none" stroke="lightblue" stroke-width="12" x1="457.426" y1="176.892" x2="463.366" y2="197.65" />
<line fill="none" stroke="lightblue" stroke-width="12" x1="463.366" y1="197.65" x2="469.307" y2="203.538" />
<line fill="none" stroke="lightblue" stroke-width="12" x1="469.307" y1="203.538" x2="475.248" y2="220.582" />
<line fill="none" stroke="lightblue" stroke-width="12" x1="475.248" y1="220.582" x2="481.188" y2="214.939" />
<line fill="none" stroke="lightblue" stroke-width="12" x1="481.188" y1="214.939" x2="487.129" y2="225.509" />
<line fill="none" stroke="lightblue" stroke-width="12" x1="487.129" y1="225.509" x2="493.069" y2="247.577" />
<line fill="none" stroke="lightblue" stroke-width="12" x1="493.069" y1="247.577" x2="499.01" y2="274.501" />
<line fill="none" stroke="lightblue" stroke-width="12" x1="499.01" y1="274.501" x2="504.95" y2="316.667" />
<line fill="none" stroke="lightblue" stroke-width="12" x1="504.95" y1="316.667" x2="510.891" y2="417.788" />
<line fill="none" stroke="lightblue" stroke-width="12" x1="510.891" y1="417.788" x2="516.832" y2="559.371" />
<line fill="none" stroke-dasharray = "10, 10"  stroke="orange" stroke-width="6" x1="516.832" y1="300" x2="522.772" y2="300" />
<line fill="none" stroke-dasharray = "10, 10"  stroke="orange" stroke-width="6" x1="522.772" y1="300" x2="528.713" y2="300" />
<line fill="none" stroke-dasharray = "10, 10"  stroke="orange" stroke-width="6" x1="528.713" y1="300" x2="534.653" y2="300" />
<line fill="none" stroke-dasharray = "10, 10"  stroke="orange" stroke-width="6" x1="534.653" y1="300" x2="540.594" y2="300" />
<line fill="none" stroke-dasharray = "10, 10"  stroke="orange" stroke-width="6" x1="540.594" y1="300" x2="546.535" y2="300" />
<line fill="none" stroke-dasharray = "10, 10"  stroke="orange" stroke-width="6" x1="546.535" y1="300" x2="552.475" y2="300" />
<line fill="none" stroke-dasharray = "10, 10"  stroke="orange" stroke-width="6" x1="552.475" y1="300" x2="558.416" y2="300" />
<line fill="none" stroke-dasharray = "10, 10"  stroke="orange" stroke-width="6" x1="558.416" y1="300" x2="564.356" y2="300" />
<line fill="none" stroke-dasharray = "10, 10"  stroke="orange" stroke-width="6" x1="564.356" y1="300" x2="570.297" y2="300" />
<line fill="none" stroke-dasharray = "10, 10"  stroke="orange" stroke-width="6" x1="570.297" y1="300" x2="576.238" y2="300" />
<line fill="none" stroke-dasharray = "10, 10"  stroke="orange" stroke-width="6" x1="576.238" y1="300" x2="582.178" y2="300" />
<line fill="none" stroke-dasharray = "10, 10"  stroke="orange" stroke-width="6" x1="582.178" y1="300" x2="588.119" y2="300" />
<line fill="none" stroke-dasharray = "10, 10"  stroke="orange" stroke-width="6" x1="588.119" y1="300" x2="594.059" y2="300" />
<line fill="none" stroke="olive" stroke-width="3" x1="0" y1="587.23" x2="5.94059" y2="587.23" />
<line fill="none" stroke="olive" stroke-width="3" x1="5.94059" y1="587.23" x2="11.8812" y2="575.245" />
<line fill="none" stroke="olive" stroke-width="3" x1="11.8812" y1="575.245" x2="17.8218" y2="563.739" />
<line fill="none" stroke="olive" stroke-width="3" x1="17.8218" y1="563.739" x2="23.7624" y2="552.73" />
<line fill="none" stroke="olive" stroke-width="3" x1="23.7624" y1="552.73" x2="29.703" y2="537.365" />
<line fill="none" stroke="olive" stroke-width="3" x1="29.703" y1="537.365" x2="35.6436" y2="517.757" />
<line fill="none" stroke="olive" stroke-width="3" x1="35.6436" y1="517.757" x2="41.5842" y2="498.376" />
<line fill="none" stroke="olive" stroke-width="3" x1="41.5842" y1="498.376" x2="47.5248" y2="479.239" />
<line fill="none" stroke="olive" stroke-width="3" x1="47.5248" y1="479.239" x2="53.4653" y2="460.363" />
<line fill="none" stroke="olive" stroke-width="3" x1="53.4653" y1="460.363" x2="59.4059" y2="441.767" />
<line fill="none" stroke="olive" stroke-width="3" x1="59.4059" y1="441.767" x2="65.3465" y2="423.472" />
<line fill="none" stroke="olive" stroke-width="3" x1="65.3465" y1="423.472" x2="71.2871" y2="405.501" />
<line fill="none" stroke="olive" stroke-width="3" x1="71.2871" y1="405.501" x2="77.2277" y2="387.877" />
<line fill="none" stroke="olive" stroke-width="3" x1="77.2277" y1="387.877" x2="83.1683" y2="370.625" />
<line fill="none" stroke="olive" stroke-width="3" x1="83.1683" y1="370.625" x2="89.1089" y2="353.775" />
<line fill="none" stroke="olive" stroke-width="3" x1="89.1089" y1="353.775" x2="95.0495" y2="337.356" />
<line fill="none" stroke="olive" stroke-width="3" x1="95.0495" y1="337.356" x2="100.99" y2="321.4" />
<line fill="none" stroke="olive" stroke-width="3" x1="100.99" y1="321.4" x2="106.931" y2="305.941" />
<line fill="none" stroke="olive" stroke-width="3" x1="106.931" y1="305.941" x2="112.871" y2="291.017" />
<line fill="none" stroke="olive" stroke-width="3" x1="112.871" y1="291.017" x2="118.812" y2="276.667" />
<line fill="none" stroke="olive" stroke-width="3" x1="118.812" y1="276.667" x2="124.752" y2="262.931" />
<line fill="none" stroke="olive" stroke-width="3" x1="124.752" y1="262.931" x2="130.693" y2="249.852" />
<line fill="none" stroke="olive" stroke-width="3" x1="130.693" y1="249.852" x2="136.634" y2="237.477" />
<line fill="none" stroke="olive" stroke-width="3" x1="136.634" y1="237.477" x2="142.574" y2="225.849" />
<line fill="none" stroke="olive" stroke-width="3" x1="142.574" y1="225.849" x2="148.515" y2="215.019" />
<line fill="none" stroke="olive" stroke-width="3" x1="148.515" y1="215.019" x2="154.455" y2="205.031" />
<line fill="none" stroke="olive" stroke-width="3" x1="154.455" y1="205.031" x2="160.396" y2="195.935" />
<line fill="none" stroke="olive" stroke-width="3" x1="160.396" y1="195.935" x2="166.337" y2="187.777" />
<line fill="none" stroke="olive" stroke-width="3" x1="166.337" y1="187.777" x2="172.277" y2="180.6" />
<line fill="none" stroke="olive" stroke-width="3" x1="172.277" y1="180.6" x2="178.218" y2="174.446" />
<line fill="none" stroke="olive" stroke-width="3" x1="178.218" y1="174.446" x2="184.158" y2="169.352" />
<line fill="none" stroke="olive" stroke-width="3" x1="184.158" y1="169.352" x2="190.099" y2="165.351" />
<line fill="none" stroke="olive" stroke-width="3" x1="190.099" y1="165.351" x2="196.04" y2="162.469" />
<line fill="none" stroke="olive" stroke-width="3" x1="196.04" y1="162.469" x2="201.98" y2="160.725" />
<line fill="none" stroke="olive" stroke-width="3" x1="201.98" y1="160.725" x2="207.921" y2="160.131" />
<line fill="none" stroke="olive" stroke-width="3" x1="207.921" y1="160.131" x2="213.861" y2="160.691" />
<line fill="none" stroke="olive" stroke-width="3" x1="213.861" y1="160.691" x2="219.802" y2="162.402" />
<line fill="none" stroke="olive" stroke-width="3" x1="219.802" y1="162.402" x2="225.743" y2="165.251" />
<line fill="none" stroke="olive" stroke-width="3" x1="225.743" y1="165.251" x2="231.683" y2="169.22" />
<line fill="none" stroke="olive" stroke-width="3" x1="231.683" y1="169.22" x2="237.624" y2="174.282" />
<line fill="none" stroke="olive" stroke-width="3" x1="237.624" y1="174.282" x2="243.564" y2="180.405" />
<line fill="none" stroke="olive" stroke-width="3" x1="243.564" y1="180.405" x2="249.505" y2="187.553" />
<line fill="none" stroke="olive" stroke-width="3" x1="249.505" y1="187.553" x2="255.446" y2="195.683" />
<line fill="none" stroke="olive" stroke-width="3" x1="255.446" y1="195.683" x2="261.386" y2="204.753" />
<line fill="none" stroke="olive" stroke-width="3" x1="261.386" y1="204.753" x2="267.327" y2="214.714" />
<line fill="none" stroke="olive" stroke-width="3" x1="267.327" y1="214.714" x2="273.267" y2="224.825" />
<line fill="none" stroke="olive" stroke-width="3" x1="273.267" y1="224.825" x2="279.208" y2="228.122" />
<line fill="none" stroke="olive" stroke-width="3" x1="279.208" y1="228.122" x2="285.149" y2="232.409" />
<line fill="none" stroke="olive" stroke-width="3" x1="285.149" y1="232.409" x2="291.089" y2="237.664" />
<line fill="none" stroke="olive" stroke-width="3" x1="291.089" y1="237.664" x2="297.03" y2="243.861" />
<line fill="none" stroke="olive" stroke-width="3" x1="297.03" y1="243.861" x2="302.97" y2="250.97" />
<line fill="none" stroke="olive" stroke-width="3" x1="302.97" y1="250.97" x2="308.911" y2="258.959" />
<line fill="none" stroke="olive" stroke-width="3" x1="308.911" y1="258.959" x2="314.851" y2="267.793" />
<line fill="none" stroke="olive" stroke-width="3" x1="314.851" y1="267.793" x2="320.792" y2="277.434" />
<line fill="none" stroke="olive" stroke-width="3" x1="320.792" y1="277.434" x2="326.733" y2="287.847" />
<line fill="none" stroke="olive" stroke-width="3" x1="326.733" y1="287.847" x2="332.673" y2="298.992" />
<line fill="none" stroke="olive" stroke-width="3" x1="332.673" y1="298.992" x2="338.614" y2="310.833" />
<line fill="none" stroke="olive" stroke-width="3" x1="338.614" y1="310.833" x2="344.554" y2="179.219" />
<line fill="none" stroke="olive" stroke-width="3" x1="344.554" y1="179.219" x2="350.495" y2="149.882" />
<line fill="none" stroke="olive" stroke-width="3" x1="350.495" y1="149.882" x2="356.436" y2="122.925" />
<line fill="none" stroke="olive" stroke-width="3" x1="356.436" y1="122.925" x2="362.376" y2="98.792" />
<line fill="none" stroke="olive" stroke-width="3" x1="362.376" y1="98.792" x2="368.317" y2="76.7172" />
<line fill="none" stroke="olive" stroke-width="3" x1="368.317" y1="76.7172" x2="374.257" y2="58.3516" />
<line fill="none" stroke="olive" stroke-width="3" x1="374.257" y1="58.3516" x2="380.198" y2="44.2455" />
<line fill="none" stroke="olive" stroke-width="3" x1="380.198" y1="44.2455" x2="386.139" y2="34.8834" />
<line fill="none" stroke="olive" stroke-width="3" x1="386.139" y1="34.8834" x2="392.079" y2="30.6273" />
<line fill="none" stroke="olive" stroke-width="3" x1="392.079" y1="30.6273" x2="398.02" y2="31.6539" />
<line fill="none" stroke="olive" stroke-width="3" x1="398.02" y1="31.6539" x2="403.96" y2="37.9199" />
<line fill="none" stroke="olive" stroke-width="3" x1="403.96" y1="37.9199" x2="409.901" y2="49.1707" />
<line fill="none" stroke="olive" stroke-width="3" x1="409.901" y1="49.1707" x2="415.842" y2="64.9884" />
<line fill="none" stroke="olive" stroke-width="3" x1="415.842" y1="64.9884" x2="421.782" y2="84.8603" />
<line fill="none" stroke="olive" stroke-width="3" x1="421.782" y1="84.8603" x2="427.723" y2="369.993" />
<line fill="none" stroke="olive" stroke-width="3" x1="427.723" y1="369.993" x2="433.663" y2="358.683" />
<line fill="none" stroke="olive" stroke-width="3" x1="433.663" y1="358.683" x2="439.604" y2="350.531" />
<line fill="none" stroke="olive" stroke-width="3" x1="439.604" y1="350.531" x2="445.545" y2="313.948" />
<line fill="none" stroke="olive" stroke-width="3" x1="445.545" y1="313.948" x2="451.485" y2="283.17" />
<line fill="none" stroke="olive" stroke-width="3" x1="451.485" y1="283.17" x2="457.426" y2="259.096" />
<line fill="none" stroke="olive" stroke-width="3" x1="457.426" y1="259.096" x2="463.366" y2="242.561" />
<line fill="none" stroke="olive" stroke-width="3" x1="463.366" y1="242.561" x2="469.307" y2="234.22" />
<line fill="none" stroke="olive" stroke-width="3" x1="469.307" y1="234.22" x2="475.248" y2="348.088" />
<line fill="none" stroke="olive" stroke-width="3" x1="475.248" y1="348.088" x2="481.188" y2="302.653" />
<line fill="none" stroke="olive" stroke-width="3" x1="481.188" y1="302.653" x2="487.129" y2="276.351" />
<line fill="none" stroke="olive" stroke-width="3" x1="487.129" y1="276.351" x2="493.069" y2="271.667" />
<line fill="none" stroke="olive" stroke-width="3" x1="493.069" y1="271.667" x2="499.01" y2="277.396" />
<line fill="none" stroke="olive" stroke-width="3" x1="499.01" y1="277.396" x2="504.95" y2="327.943" />
<line fill="none" stroke="olive" stroke-width="3" x1="504.95" y1="327.943" x2="510.891" y2="439.528" />
<line fill="none" stroke="olive" stroke-width="3" x1="510.891" y1="439.528" x2="516.832" y2="335.505" />
<line fill="none" stroke-dasharray = "10, 10"  stroke="orange" stroke-width="6" x1="516.832" y1="300" x2="522.772" y2="300" />
<line fill="none" stroke-dasharray = "10, 10"  stroke="orange" stroke-width="6" x1="522.772" y1="300" x2="528.713" y2="300" />
<line fill="none" stroke-dasharray = "10, 10"  stroke="orange" stroke-width="6" x1="528.713" y1="300" x2="534.653" y2="300" />
<line fill="none" stroke-dasharray = "10, 10"  stroke="orange" stroke-width="6" x1="534.653" y1="300" x2="540.594" y2="300" />
<line fill="none" stroke-dasharray = "10, 10"  stroke="orange" stroke-width="6" x1="540.594" y1="300" x2="546.535" y2="300" />
<line fill="none" stroke-dasharray = "10, 10"  stroke="orange" stroke-width="6" x1="546.535" y1="300" x2="552.475" y2="300" />
<line fill="none" stroke-dasharray = "10, 10"  stroke="orange" stroke-width="6" x1="552.475" y1="300" x2="558.416" y2="300" />
<line fill="none" stroke-dasharray = "10, 10"  stroke="orange" stroke-width="6" x1="558.416" y1="300" x2="564.356" y2="300" />
<line fill="none" stroke-dasharray = "10, 10"  stroke="orange" stroke-width="6" x1="564.356" y1="300" x2="570.297" y2="300" />
<line fill="none" stroke-dasharray = "10, 10"  stroke="orange" stroke-width="6" x1="570.297" y1="300" x2="576.238" y2="300" />
<line fill="none" stroke-dasharray = "10, 10"  stroke="orange" stroke-width="6" x1="576.238" y1="300" x2="582.178" y2="300" />
<line fill="none" stroke-dasharray = "10, 10"  stroke="orange" stroke-width="6" x1="582.178" y1="300" x2="588.119" y2="300" />
<line fill="none" stroke-dasharray = "10, 10"  stroke="orange" stroke-width="6" x1="588.119" y1="300" x2="594.059" y2="300" />

<!--Draw Glitches -->


<!-- -->


<!--Draw Glitches -->

<line fill="none" stroke="black" stroke-width="4" x1="344.554" y1="169.219" x2="344.554" y2="119.219"  stroke-dasharray = "10,5" />
<text transform="scale(1,-1)" font-family="sans-serif" font-size="30" stroke = "rgb(0,0,0)" line = "rgb(0,0,0)"  fill = "olive" x="349.554" y="-119.219" >57</text>
<line fill="none" stroke="black" stroke-width="4" x1="427.723" y1="359.993" x2="427.723" y2="309.993"  stroke-dasharray = "10,5" />
<text transform="scale(1,-1)" font-family="sans-serif" font-size="30" stroke = "rgb(0,0,0)" line = "rgb(0,0,0)"  fill = "olive" x="432.723" y="-309.993" >71</text>
<line fill="none" stroke="black" stroke-width="4" x1="475.248" y1="338.088" x2="475.248" y2="288.088"  stroke-dasharray = "10,5" />
<text transform="scale(1,-1)" font-family="sans-serif" font-size="30" stroke = "rgb(0,0,0)" line = "rgb(0,0,0)"  fill = "olive" x="480.248" y="-288.088" >79</text>
<line fill="none" stroke="black" stroke-width="4" x1="510.891" y1="429.528" x2="510.891" y2="379.528"  stroke-dasharray = "10,5" />
<text transform="scale(1,-1)" font-family="sans-serif" font-size="30" stroke = "rgb(0,0,0)" line = "rgb(0,0,0)"  fill = "olive" x="515.891" y="-379.528" >85</text>

<!-- -->


<!--Draw the X and Y axes -->
<polyline fill="none" stroke="black" stroke-width="6"  points=" 600,0 0,0 0, 600" />
<polyline fill="none" stroke="black" stroke-width="1"  points=" 0 600  600 600  600 0" />
<!-- -->


<!--Draw labels and tics for X axis -->

<line fill="none" stroke="black"  stroke-width="6"  x1="0.5" y1="0" x2="0.5" y2="-20" />
<text transform="scale(1,-1)" font-family="sans-serif" font-size="30" x="-24.5" y="45" >0</text>
<line fill="none" stroke="black"  stroke-width="6"  x1="119.312" y1="0" x2="119.312" y2="-20" />
<text transform="scale(1,-1)" font-family="sans-serif" font-size="30" x="94.3119" y="45" >20</text>
<line fill="none" stroke="black"  stroke-width="6"  x1="238.124" y1="0" x2="238.124" y2="-20" />
<text transform="scale(1,-1)" font-family="sans-serif" font-size="30" x="213.124" y="45" >40</text>
<line fill="none" stroke="black"  stroke-width="6"  x1="356.936" y1="0" x2="356.936" y2="-20" />
<text transform="scale(1,-1)" font-family="sans-serif" font-size="30" x="331.936" y="45" >60</text>
<line fill="none" stroke="black"  stroke-width="6"  x1="475.748" y1="0" x2="475.748" y2="-20" />
<text transform="scale(1,-1)" font-family="sans-serif" font-size="30" x="450.748" y="45" >80</text>
<line fill="none" stroke="black"  stroke-width="6"  x1="594.559" y1="0" x2="594.559" y2="-20" />
<text transform="scale(1,-1)" font-family="sans-serif" font-size="30" x="569.559" y="45" >100</text>


<!--Draw labels and tics for Y axis -->

<line fill="none" stroke="black" stroke-width="6" x1="0.0" y1="0" x2="-20" y2="0" />
<text transform="scale(1,-1)" text-anchor="end" font-family="sans-serif" font-size="30" x="-25" y="10" >9</text>
<line fill="none" stroke="black" stroke-width="6" x1="0.0" y1="75" x2="-20" y2="75" />
<text transform="scale(1,-1)" text-anchor="end" font-family="sans-serif" font-size="30" x="-25" y="-65" >11</text>
<line fill="none" stroke="black" stroke-width="6" x1="0.0" y1="150" x2="-20" y2="150" />
<text transform="scale(1,-1)" text-anchor="end" font-family="sans-serif" font-size="30" x="-25" y="-140" >13</text>
<line fill="none" stroke="black" stroke-width="6" x1="0.0" y1="225" x2="-20" y2="225" />
<text transform="scale(1,-1)" text-anchor="end" font-family="sans-serif" font-size="30" x="-25" y="-215" >15</text>
<line fill="none" stroke="black" stroke-width="6" x1="0.0" y1="300" x2="-20" y2="300" />
<text transform="scale(1,-1)" text-anchor="end" font-family="sans-serif" font-size="30" x="-25" y="-290" >17</text>
<line fill="none" stroke="black" stroke-width="6" x1="0.0" y1="375" x2="-20" y2="375" />
<text transform="scale(1,-1)" text-anchor="end" font-family="sans-serif" font-size="30" x="-25" y="-365" >19</text>
<line fill="none" stroke="black" stroke-width="6" x1="0.0" y1="450" x2="-20" y2="450" />
<text transform="scale(1,-1)" text-anchor="end" font-family="sans-serif" font-size="30" x="-25" y="-440" >21</text>
<line fill="none" stroke="black" stroke-width="6" x1="0.0" y1="525" x2="-20" y2="525" />
<text transform="scale(1,-1)" text-anchor="end" font-family="sans-serif" font-size="30" x="-25" y="-515" >23</text>
<line fill="none" stroke="black" stroke-width="6" x1="0.0" y1="600" x2="-20" y2="600" />
<text transform="scale(1,-1)" text-anchor="end" font-family="sans-serif" font-size="30" x="-25" y="-590" >25</text>

-->
</g>
</g>
<!-- Run Constants
PRINTDISTANCEDATA bool true
GLITCHESONLY bool false
PLOT 2doubles 3 4
PERTURBBY double 0.1
GLITCHLEVEL double 3
BOUNDARYWINDOW double 0.065
FRAMESPERPATH int 200
STEPSPERFRAME int 100
TRIALS int 4
ALLBLACK bool true
FILEPREFIX string Fol
GRAPHSIZE int 0
BORDER int 0
PLOTSIZE int 0
G6LINEWIDTH int 3
DELONELINEWIDTH int 10
AXISWIDTH int 6
TICLENGTH int 20
VECTOR g6 
FOLLOWERMODE FollowerMode line
FIXRANDOMSEED fixRandomSeed false
RANDOMSEED int 19191
TIMESTAMP bool true
END end 




-->
</svg>
