<?xml version="1.0" standalone="no"?>
<!-- the width and height set the total pixel output of the image in the browser -->
<!-- whatever is within the viewbox will be remapped to show in this size -->
<svg width="1000" height="1000" viewBox="1 0 1000 1000"  version="1.1" xmlns="http://www.w3.org/2000/svg" xmlns:xlink="http://www.w3.org/1999/xlink">
 <desc>ID (and file name) = Fol_2018-05-14.17_23_14.1_14.svg </desc> 
 <text x="560" y="30" font-family="sans-serif" font-size="20">Wall time passed: 1532 msec.</text>
<text x="300" y="60"   font-family="sans-serif" font-size="20" fill="lightblue">S6  lightblue</text>
<text x="300" y="85"   font-family="sans-serif" font-size="20" fill="slategrey">NCDist  slategrey</text>
<text x="300" y="110"  font-family="sans-serif" font-size="20" fill="violet">D7  violet</text>
<text x="300" y="135"  font-family="sans-serif" font-size="20" fill="olive">CS6Dist  olive</text>

 <text x="140"  y="30"  font-family="sans-serif" font-size="20" >Fol_2018-05-14.17_23_14.1_14.svg  </text> 


 <!--DISTANCE PLOT BEGINS-->


<!-- the following will scale and place the distance plot -->
<g  transform="translate(0,50) ">
<g transform="translate(150,700) scale(1 -1)">
   <polyline fill="none" stroke=" lightblue " stroke-width=" 12 " points=" 6,0 12,14.0725 18,28.1451 24,42.2176 30,56.2901 36,70.3627 42,84.4352 48,98.5077 54,112.58 60,126.653 66,140.725 72,154.798 78,168.87 84,182.943 90,189.97 96,192.55 102,191.647 108,188.269 114,185.397 120,183.052 126,181.257 132,180.026 138,179.373 144,179.304 150,179.818 156,180.911 162,182.573 168,184.789 174,187.538 180,190.797 186,194.542 192,198.744 198,203.375 204,208.407 210,213.811 216,219.56 222,225.628 228,231.989 234,238.619 240,245.498 246,252.605 252,259.921 258,267.429 264,275.114 270,280.808 276,286.534 282,292.506 288,298.709 294,305.131 300,311.756 306,318.573 312,325.569 318,332.734 324,340.055 330,347.525 336,355.132 342,357.318 348,354.054 354,351.059 360,348.339 366,345.901 372,343.751 378,341.895 384,340.336 390,339.079 396,338.128 402,339.212 408,340.825 414,342.907 420,334.419 426,322.387 432,310.414 438,298.506 444,286.672 450,274.921 456,263.265 462,251.716 468,240.29 474,229.005 480,217.884 486,206.953 492,196.243 498,185.793 504,175.649 510,165.867 516,156.516 522,147.676 528,139.446 534,131.94 540,125.287 546,114.879 552,102.115 558,89.3505 564,76.5861 570,63.8218 576,51.0574 582,38.2931 588,25.5287 594,12.7644 600,0 " />
   <polyline fill="none" stroke=" slategrey " stroke-width=" 9 " points=" " />
   <polyline fill="none" stroke=" violet " stroke-width=" 6 " points=" " />
   <polyline fill="none" stroke=" olive " stroke-width=" 3 " points=" 6,0 12,14.0725 18,28.1451 24,42.2176 30,56.2901 36,70.3627 42,84.4352 48,98.5077 54,112.58 60,126.653 66,140.725 72,154.798 78,168.87 84,182.943 90,555.896 96,553.554 102,548.067 108,540.977 114,533.989 120,527.107 126,520.335 132,513.679 138,507.141 144,500.728 150,494.444 156,488.294 162,482.282 168,476.415 174,470.698 180,465.136 186,459.734 192,454.499 198,449.437 204,444.552 210,439.852 216,435.342 222,431.028 228,426.917 234,423.013 240,419.323 246,415.852 252,412.606 258,409.591 264,406.811 270,404.271 276,401.977 282,399.931 288,397.501 294,392.171 300,387.039 306,382.112 312,377.399 318,372.907 324,368.645 330,364.621 336,360.843 342,357.318 348,354.054 354,351.059 360,348.339 366,345.901 372,343.751 378,341.895 384,340.336 390,339.079 396,338.128 402,341.424 408,342.611 414,344.267 420,334.419 426,322.387 432,310.414 438,298.506 444,286.672 450,274.921 456,263.265 462,251.716 468,240.29 474,229.005 480,217.884 486,206.953 492,196.243 498,185.793 504,175.649 510,165.867 516,156.516 522,147.676 528,139.446 534,131.94 540,125.287 546,114.879 552,102.115 558,89.3505 564,76.5861 570,63.8218 576,51.0574 582,38.2931 588,25.5287 594,12.7644 600,0 " />

<!--Draw Glitches -->

<line fill="none" stroke="black" stroke-width="4" x1="90" y1="545.896" x2="90" y2="495.896"  stroke-dasharray = "10,5" />
<text transform="scale(1,-1)" font-family="sans-serif" font-size="30" stroke = "rgb(0,0,0)" line = "rgb(0,0,0)"  fill = "olive" x="95" y="-495.896" >14</text>

<!-- -->


<!--Draw the X and Y axes -->
<polyline fill="none" stroke="black" stroke-width="6"  points=" 600,0 0,0 0, 600" />
<polyline fill="none" stroke="black" stroke-width="1"  points=" 0 600  600 600  600 0" />
<!-- -->


<!--Draw labels and tics for X axis -->

<line fill="none" stroke="black"  stroke-width="6"  x1="0.5" y1="0" x2="0.5" y2="-20" />
<text transform="scale(1,-1)" font-family="sans-serif" font-size="30" x="-24.5" y="45" >0</text>
<line fill="none" stroke="black"  stroke-width="6"  x1="120.5" y1="0" x2="120.5" y2="-20" />
<text transform="scale(1,-1)" font-family="sans-serif" font-size="30" x="95.5" y="45" >20</text>
<line fill="none" stroke="black"  stroke-width="6"  x1="240.5" y1="0" x2="240.5" y2="-20" />
<text transform="scale(1,-1)" font-family="sans-serif" font-size="30" x="215.5" y="45" >40</text>
<line fill="none" stroke="black"  stroke-width="6"  x1="360.5" y1="0" x2="360.5" y2="-20" />
<text transform="scale(1,-1)" font-family="sans-serif" font-size="30" x="335.5" y="45" >60</text>
<line fill="none" stroke="black"  stroke-width="6"  x1="480.5" y1="0" x2="480.5" y2="-20" />
<text transform="scale(1,-1)" font-family="sans-serif" font-size="30" x="455.5" y="45" >80</text>
<line fill="none" stroke="black"  stroke-width="6"  x1="600.5" y1="0" x2="600.5" y2="-20" />
<text transform="scale(1,-1)" font-family="sans-serif" font-size="30" x="575.5" y="45" >100</text>


<!--Draw labels and tics for Y axis -->

<line fill="none" stroke="black" stroke-width="6" x1="0.0" y1="0" x2="-20" y2="0" />
<text transform="scale(1,-1)" text-anchor="end" font-family="sans-serif" font-size="30" x="-25" y="10" >0</text>
<line fill="none" stroke="black" stroke-width="6" x1="0.0" y1="150" x2="-20" y2="150" />
<text transform="scale(1,-1)" text-anchor="end" font-family="sans-serif" font-size="30" x="-25" y="-140" >10</text>
<line fill="none" stroke="black" stroke-width="6" x1="0.0" y1="300" x2="-20" y2="300" />
<text transform="scale(1,-1)" text-anchor="end" font-family="sans-serif" font-size="30" x="-25" y="-290" >20</text>
<line fill="none" stroke="black" stroke-width="6" x1="0.0" y1="450" x2="-20" y2="450" />
<text transform="scale(1,-1)" text-anchor="end" font-family="sans-serif" font-size="30" x="-25" y="-440" >30</text>
<line fill="none" stroke="black" stroke-width="6" x1="0.0" y1="600" x2="-20" y2="600" />
<text transform="scale(1,-1)" text-anchor="end" font-family="sans-serif" font-size="30" x="-25" y="-590" >40</text>

-->
</g>
</g>
<!-- Run Constants
CIRCLEPLOT bool false
DISTANCEPLOT bool true
PRINTDISTANCEDATA bool true
GLITCHESONLY bool false
PLOT 2doubles 3 4
PERTURBBY double 0.05
GLITCHLEVEL double 3
BOUNDARYWINDOW double 0.065
FRAMESPERPATH int 200
STEPSPERFRAME int 100
TRIALS int 100
ALLBLACK bool true
FILEPREFIX string Fol
GRAPHSIZE int 0
BORDER int 0
PLOTSIZE int 0
G6LINEWIDTH int 3
DELONELINEWIDTH int 10
AXISWIDTH int 6
TICLENGTH int 20
VECTOR g6 
FOLLOWERMODE FollowerMode point
FIXRANDOMSEED fixRandomSeed false
RANDOMSEED int 19191
TIMESTAMP bool true
END end 




-->
</svg>
