<?xml version="1.0" standalone="no"?>
<!-- the width and height set the total pixel output of the image in the browser -->
<!-- whatever is within the viewbox will be remapped to show in this size -->
<svg width="1000" height="1000" viewBox="1 0  1200 1200"  version="1.1" xmlns="http://www.w3.org/2000/svg" xmlns:xlink="http://www.w3.org/1999/xlink">
 <desc>ID (and file name) = Fol_2020-05-05.14_54_03.19_0.svg  mode = LINE3 </desc> 
<g transform = "scale(1 1)">

<text x = "-850" y="50" transform="rotate(-90)"  font-family="sans-serif" font-size="40" stroke ="lightgray" fill="none"> PointDistanceFollower   May  5 2020</text>
 <text x="200"  y="30"  font-family="sans-serif" font-size="20" >Fol_2020-05-05.14_54_03.19_0.svg  &#160;&#160;&#160;&#160;&#160; Wall time passed: 127726 msec.</text>
<text x="300" y="60"   font-family="sans-serif" font-size="20" fill="lightblue">  S6  52 msec </text>
<text x="300" y="85"   font-family="sans-serif" font-size="20" fill="olive">  CS6Dist  8 msec </text>
<text x="300" y="110"   font-family="sans-serif" font-size="20" fill="black">  LM  127666 msec </text>



 <!--DISTANCE PLOT BEGINS   mode = LINE3-->


<!-- the following will scale and place the distance plot -->
<g transform="translate(150,975) scale(1 -1)">
   <polyline fill="none" stroke=" lightblue " stroke-width=" 12 " stroke-dasharray = " 10,5 " points=" 7.92079,0 15.8416,15.7967 23.7624,31.5934 31.6832,47.3902 39.604,63.1869 47.5248,78.9836 55.4455,94.7803 63.3663,110.577 71.2871,126.374 79.2079,142.171 87.1287,157.967 95.0495,173.764 102.97,189.561 110.891,205.357 118.812,221.154 126.733,236.951 134.653,252.748 142.574,268.544 150.495,284.341 158.416,300.138 166.337,315.934 174.257,331.731 182.178,347.528 190.099,363.325 198.02,379.121 205.941,394.918 213.861,410.715 221.782,426.512 229.703,442.308 237.624,458.105 245.545,473.902 253.465,489.698 261.386,505.495 269.307,521.292 277.228,537.089 285.149,552.885 293.069,568.682 300.99,584.479 308.911,600.276 316.832,616.072 324.752,631.869 332.673,647.666 340.594,663.462 348.515,679.259 356.436,693.23 364.356,683.471 372.277,673.941 380.198,664.649 388.119,655.607 396.04,646.824 403.96,638.311 411.881,630.079 419.802,622.14 427.723,614.504 435.644,607.183 443.564,600.189 451.485,593.532 459.406,587.226 467.327,581.28 475.248,575.707 483.168,570.516 491.089,565.719 499.01,561.326 506.931,557.346 514.851,553.789 522.772,550.661 530.693,547.972 538.614,545.726 546.535,543.93 554.455,542.589 562.376,541.704 570.297,541.28 578.218,541.316 586.139,541.814 594.059,543.366 601.98,548.309 609.901,553.506 617.822,558.948 625.743,564.63 633.663,570.545 641.584,576.684 649.505,583.041 657.426,589.608 665.347,596.38 673.267,603.349 681.188,610.507 689.109,617.85 697.03,625.369 704.95,633.06 712.871,640.915 720.792,648.929 728.713,657.096 736.634,665.41 744.554,673.865 752.475,682.458 760.396,691.182 768.317,704.587 776.238,722.385 784.158,738.355 792.079,754.803 " />

   <polyline fill="none" stroke=" olive " stroke-width=" 3 " stroke-dasharray = " 5,10 " points=" 7.92079,0 15.8416,15.7967 23.7624,31.5934 31.6832,47.3902 39.604,63.1869 47.5248,78.9836 55.4455,94.7803 63.3663,110.577 71.2871,126.374 79.2079,142.171 87.1287,157.967 95.0495,173.764 102.97,189.561 110.891,205.357 118.812,221.154 126.733,236.951 134.653,252.748 142.574,268.544 150.495,284.341 158.416,300.138 166.337,315.934 174.257,331.731 182.178,347.528 190.099,363.325 198.02,379.121 205.941,394.918 213.861,410.715 221.782,426.512 229.703,442.308 237.624,458.105 245.545,473.902 253.465,489.698 261.386,505.495 269.307,521.292 277.228,537.089 285.149,552.885 293.069,568.682 300.99,584.479 308.911,600.276 316.832,616.072 324.752,631.869 332.673,647.666 340.594,663.462 348.515,679.259 356.436,693.23 364.356,683.471 372.277,673.941 380.198,664.649 388.119,655.607 396.04,646.824 403.96,638.311 411.881,630.079 419.802,622.14 427.723,614.504 435.644,607.183 443.564,600.189 451.485,593.532 459.406,587.226 467.327,581.28 475.248,575.707 483.168,570.516 491.089,565.719 499.01,561.326 506.931,557.346 514.851,553.789 522.772,550.661 530.693,547.972 538.614,545.726 546.535,543.93 554.455,542.589 562.376,541.704 570.297,541.28 578.218,541.316 586.139,541.814 594.059,543.403 601.98,548.659 609.901,554.318 617.822,560.382 625.743,566.849 633.663,573.716 641.584,580.981 649.505,588.64 657.426,596.688 665.347,605.119 673.267,600.567 681.188,591.297 689.109,591.302 697.03,605.809 704.95,620.481 712.871,635.318 720.792,650.316 728.713,665.473 736.634,680.787 744.554,696.255 752.475,711.875 760.396,727.644 768.317,726.194 776.238,743.876 784.158,762.906 792.079,777.803 " />

   <polyline fill="none" stroke=" black " stroke-width=" 3 " stroke-dasharray = "  " points=" 7.92079,0 15.8416,15.7967 23.7624,31.5934 31.6832,47.3902 39.604,63.1869 47.5248,78.9836 55.4455,94.7803 63.3663,110.577 71.2871,126.374 79.2079,142.171 87.1287,157.967 95.0495,173.764 102.97,189.561 110.891,205.357 118.812,221.154 126.733,236.951 134.653,252.748 142.574,268.544 150.495,284.341 158.416,300.138 166.337,315.934 174.257,331.731 182.178,347.528 190.099,363.325 198.02,379.121 205.941,394.918 213.861,410.715 221.782,426.512 229.703,442.308 237.624,458.105 245.545,473.902 253.465,489.698 261.386,505.495 269.307,521.292 277.228,537.089 285.149,552.885 293.069,568.682 300.99,584.479 308.911,600.276 316.832,616.072 324.752,631.869 332.673,647.666 340.594,663.462 348.515,679.259 356.436,693.23 364.356,683.471 372.277,673.941 380.198,664.649 388.119,655.607 396.04,646.824 403.96,638.311 411.881,630.079 419.802,622.14 427.723,614.504 435.644,607.183 443.564,600.189 451.485,593.532 459.406,587.226 467.327,581.28 475.248,575.707 483.168,570.516 491.089,564.179 499.01,557.481 506.931,551.333 514.851,545.752 522.772,540.756 530.693,536.362 538.614,532.584 546.535,529.436 554.455,526.928 562.376,525.071 570.297,523.871 578.218,523.332 586.139,523.456 594.059,524.244 601.98,525.692 609.901,527.795 617.822,530.544 625.743,533.93 633.663,537.941 641.584,542.563 649.505,547.781 657.426,553.577 665.347,559.934 673.267,561.206 681.188,558.948 689.109,558.723 697.03,560.532 704.95,564.357 712.871,570.157 720.792,577.873 728.713,587.428 736.634,598.735 744.554,611.697 752.475,626.211 760.396,642.172 768.317,659.474 776.238,675.432 784.158,685 792.079,694.794 " />


<!--Draw the X and Y axes -->
<polyline fill="none" stroke="black" stroke-width="6"  points=" 800,0 0,0 0, 800" />
<polyline fill="none" stroke="black" stroke-width="1"  points=" 0 800  800 800  800 0" />
<!-- -->


<!--Draw labels and tics for X axis -->

<line fill="none" stroke="black"  stroke-width="6"  x1="0.5" y1="0" x2="0.5" y2="-20" />
<text transform="scale(1,-1)" font-family="sans-serif" font-size="30" x="-24.5" y="45" >0</text>
<line fill="none" stroke="black"  stroke-width="6"  x1="158.916" y1="0" x2="158.916" y2="-20" />
<text transform="scale(1,-1)" font-family="sans-serif" font-size="30" x="133.916" y="45" >20</text>
<line fill="none" stroke="black"  stroke-width="6"  x1="317.332" y1="0" x2="317.332" y2="-20" />
<text transform="scale(1,-1)" font-family="sans-serif" font-size="30" x="292.332" y="45" >40</text>
<line fill="none" stroke="black"  stroke-width="6"  x1="475.748" y1="0" x2="475.748" y2="-20" />
<text transform="scale(1,-1)" font-family="sans-serif" font-size="30" x="450.748" y="45" >60</text>
<line fill="none" stroke="black"  stroke-width="6"  x1="634.163" y1="0" x2="634.163" y2="-20" />
<text transform="scale(1,-1)" font-family="sans-serif" font-size="30" x="609.163" y="45" >80</text>
<line fill="none" stroke="black"  stroke-width="6"  x1="792.579" y1="0" x2="792.579" y2="-20" />
<text transform="scale(1,-1)" font-family="sans-serif" font-size="30" x="767.579" y="45" >100</text>


<!--Draw labels and tics for Y axis -->

<line fill="none" stroke="black" stroke-width="6" x1="0.0" y1="0" x2="-20" y2="0" />
<text transform="scale(1,-1)" text-anchor="end" font-family="sans-serif" font-size="30" x="-25" y="10" >0</text>
<line fill="none" stroke="black" stroke-width="6" x1="0.0" y1="160" x2="-20" y2="160" />
<text transform="scale(1,-1)" text-anchor="end" font-family="sans-serif" font-size="30" x="-25" y="-150" >5</text>
<line fill="none" stroke="black" stroke-width="6" x1="0.0" y1="320" x2="-20" y2="320" />
<text transform="scale(1,-1)" text-anchor="end" font-family="sans-serif" font-size="30" x="-25" y="-310" >10</text>
<line fill="none" stroke="black" stroke-width="6" x1="0.0" y1="480" x2="-20" y2="480" />
<text transform="scale(1,-1)" text-anchor="end" font-family="sans-serif" font-size="30" x="-25" y="-470" >15</text>
<line fill="none" stroke="black" stroke-width="6" x1="0.0" y1="640" x2="-20" y2="640" />
<text transform="scale(1,-1)" text-anchor="end" font-family="sans-serif" font-size="30" x="-25" y="-630" >20</text>
<line fill="none" stroke="black" stroke-width="6" x1="0.0" y1="800" x2="-20" y2="800" />
<text transform="scale(1,-1)" text-anchor="end" font-family="sans-serif" font-size="30" x="-25" y="-790" >25</text>

-->
</g>
</g>
<!-- Run Constants
PRINTDISTANCEDATA bool true
GLITCHESONLY bool false
PERTURBBY double 0.05
GLITCHLEVEL double 3
BOUNDARYWINDOW double 0.065
STEPSPERFRAME int 100
TRIALS int 1
ALLBLACK bool true
FILEPREFIX string Fol
NIGGLISELLINGFIRST bool false
ENABLE DistanceEnableString 
DISABLE DistanceDisableString 
GRAPHSIZE int 0
BORDER int 0
PLOTSIZE int 0
AXISWIDTH int 6
TICLENGTH int 20
VECTOR g6 
FOLLOWERMODE FollowerMode line
FIXRANDOMSEED fixRandomSeed true
RANDOMSEED int 18
TIMESTAMP bool true
END end 


-->
</svg>
