<?xml version="1.0" standalone="no"?>
<!-- the width and height set the total pixel output of the image in the browser -->
<!-- whatever is within the viewbox will be remapped to show in this size -->
<svg width="900" height="900" viewBox="1 0 900 900"  version="1.1" xmlns="http://www.w3.org/2000/svg" xmlns:xlink="http://www.w3.org/1999/xlink">
 <desc>ID (and file name) = Fol_2018-05-19.10_16_54.1_3.svg  mode = LINE3 </desc> 
<text x = "-750" y="50" transform="rotate(-90)"  font-family="sans-serif" font-size="40" stroke ="lightgray" fill="none"> PointDistanceFollower   May 19 2018</text>
 <text x="560" y="30" font-family="sans-serif" font-size="20">Wall time passed: 82647 msec.</text>
<text x="300" y="60"   font-family="sans-serif" font-size="20" fill="lightblue">S6  lightblue</text>
<text x="300" y="85"   font-family="sans-serif" font-size="20" fill="slategrey">NCDist  slategrey</text>
<text x="300" y="110"  font-family="sans-serif" font-size="20" fill="violet">D7  violet</text>
<text x="300" y="135"  font-family="sans-serif" font-size="20" fill="olive">CS6Dist  olive</text>

 <text x="140"  y="30"  font-family="sans-serif" font-size="20" >Fol_2018-05-19.10_16_54.1_3.svg  </text> 


 <!--DISTANCE PLOT BEGINS-->


<!-- the following will scale and place the distance plot -->
<g  transform="translate(0, 50) ">
<g transform="translate(150,700) scale(1 -1)">
<line fill="none" stroke="lightblue" stroke-width="12" x1="0" y1="539.152" x2="5.94059" y2="539.152" />
<line fill="none" stroke="lightblue" stroke-width="12" x1="5.94059" y1="539.152" x2="11.8812" y2="522.26" />
<line fill="none" stroke="lightblue" stroke-width="12" x1="11.8812" y1="522.26" x2="17.8218" y2="506.017" />
<line fill="none" stroke="lightblue" stroke-width="12" x1="17.8218" y1="506.017" x2="23.7624" y2="490.455" />
<line fill="none" stroke="lightblue" stroke-width="12" x1="23.7624" y1="490.455" x2="29.703" y2="475.606" />
<line fill="none" stroke="lightblue" stroke-width="12" x1="29.703" y1="475.606" x2="35.6436" y2="461.502" />
<line fill="none" stroke="lightblue" stroke-width="12" x1="35.6436" y1="461.502" x2="41.5842" y2="448.174" />
<line fill="none" stroke="lightblue" stroke-width="12" x1="41.5842" y1="448.174" x2="47.5248" y2="435.656" />
<line fill="none" stroke="lightblue" stroke-width="12" x1="47.5248" y1="435.656" x2="53.4653" y2="423.98" />
<line fill="none" stroke="lightblue" stroke-width="12" x1="53.4653" y1="423.98" x2="59.4059" y2="413.176" />
<line fill="none" stroke="lightblue" stroke-width="12" x1="59.4059" y1="413.176" x2="65.3465" y2="392.997" />
<line fill="none" stroke="lightblue" stroke-width="12" x1="65.3465" y1="392.997" x2="71.2871" y2="372.716" />
<line fill="none" stroke="lightblue" stroke-width="12" x1="71.2871" y1="372.716" x2="77.2277" y2="353.053" />
<line fill="none" stroke="lightblue" stroke-width="12" x1="77.2277" y1="353.053" x2="83.1683" y2="334.053" />
<line fill="none" stroke="lightblue" stroke-width="12" x1="83.1683" y1="334.053" x2="89.1089" y2="315.759" />
<line fill="none" stroke="lightblue" stroke-width="12" x1="89.1089" y1="315.759" x2="95.0495" y2="298.219" />
<line fill="none" stroke="lightblue" stroke-width="12" x1="95.0495" y1="298.219" x2="100.99" y2="281.482" />
<line fill="none" stroke="lightblue" stroke-width="12" x1="100.99" y1="281.482" x2="106.931" y2="265.599" />
<line fill="none" stroke="lightblue" stroke-width="12" x1="106.931" y1="265.599" x2="112.871" y2="250.622" />
<line fill="none" stroke="lightblue" stroke-width="12" x1="112.871" y1="250.622" x2="118.812" y2="236.605" />
<line fill="none" stroke="lightblue" stroke-width="12" x1="118.812" y1="236.605" x2="124.752" y2="223.602" />
<line fill="none" stroke="lightblue" stroke-width="12" x1="124.752" y1="223.602" x2="130.693" y2="211.667" />
<line fill="none" stroke="lightblue" stroke-width="12" x1="130.693" y1="211.667" x2="136.634" y2="200.851" />
<line fill="none" stroke="lightblue" stroke-width="12" x1="136.634" y1="200.851" x2="142.574" y2="191.207" />
<line fill="none" stroke="lightblue" stroke-width="12" x1="142.574" y1="191.207" x2="148.515" y2="182.781" />
<line fill="none" stroke="lightblue" stroke-width="12" x1="148.515" y1="182.781" x2="154.455" y2="175.618" />
<line fill="none" stroke="lightblue" stroke-width="12" x1="154.455" y1="175.618" x2="160.396" y2="169.757" />
<line fill="none" stroke="lightblue" stroke-width="12" x1="160.396" y1="169.757" x2="166.337" y2="165.23" />
<line fill="none" stroke="lightblue" stroke-width="12" x1="166.337" y1="165.23" x2="172.277" y2="162.065" />
<line fill="none" stroke="lightblue" stroke-width="12" x1="172.277" y1="162.065" x2="178.218" y2="160.281" />
<line fill="none" stroke="lightblue" stroke-width="12" x1="178.218" y1="160.281" x2="184.158" y2="159.887" />
<line fill="none" stroke="lightblue" stroke-width="12" x1="184.158" y1="159.887" x2="190.099" y2="160.887" />
<line fill="none" stroke="lightblue" stroke-width="12" x1="190.099" y1="160.887" x2="196.04" y2="159.643" />
<line fill="none" stroke="lightblue" stroke-width="12" x1="196.04" y1="159.643" x2="201.98" y2="152.226" />
<line fill="none" stroke="lightblue" stroke-width="12" x1="201.98" y1="152.226" x2="207.921" y2="146.151" />
<line fill="none" stroke="lightblue" stroke-width="12" x1="207.921" y1="146.151" x2="213.861" y2="141.456" />
<line fill="none" stroke="lightblue" stroke-width="12" x1="213.861" y1="141.456" x2="219.802" y2="138.168" />
<line fill="none" stroke="lightblue" stroke-width="12" x1="219.802" y1="138.168" x2="225.743" y2="136.31" />
<line fill="none" stroke="lightblue" stroke-width="12" x1="225.743" y1="136.31" x2="231.683" y2="135.893" />
<line fill="none" stroke="lightblue" stroke-width="12" x1="231.683" y1="135.893" x2="237.624" y2="136.92" />
<line fill="none" stroke="lightblue" stroke-width="12" x1="237.624" y1="136.92" x2="243.564" y2="139.384" />
<line fill="none" stroke="lightblue" stroke-width="12" x1="243.564" y1="139.384" x2="249.505" y2="143.269" />
<line fill="none" stroke="lightblue" stroke-width="12" x1="249.505" y1="143.269" x2="255.446" y2="148.551" />
<line fill="none" stroke="lightblue" stroke-width="12" x1="255.446" y1="148.551" x2="261.386" y2="155.197" />
<line fill="none" stroke="lightblue" stroke-width="12" x1="261.386" y1="155.197" x2="267.327" y2="163.168" />
<line fill="none" stroke="lightblue" stroke-width="12" x1="267.327" y1="163.168" x2="273.267" y2="172.418" />
<line fill="none" stroke="lightblue" stroke-width="12" x1="273.267" y1="172.418" x2="279.208" y2="182.898" />
<line fill="none" stroke="lightblue" stroke-width="12" x1="279.208" y1="182.898" x2="285.149" y2="194.552" />
<line fill="none" stroke="lightblue" stroke-width="12" x1="285.149" y1="194.552" x2="291.089" y2="207.326" />
<line fill="none" stroke="lightblue" stroke-width="12" x1="291.089" y1="207.326" x2="297.03" y2="221.162" />
<line fill="none" stroke="lightblue" stroke-width="12" x1="297.03" y1="221.162" x2="302.97" y2="236.002" />
<line fill="none" stroke="lightblue" stroke-width="12" x1="302.97" y1="236.002" x2="308.911" y2="244.533" />
<line fill="none" stroke="lightblue" stroke-width="12" x1="308.911" y1="244.533" x2="314.851" y2="253.443" />
<line fill="none" stroke="lightblue" stroke-width="12" x1="314.851" y1="253.443" x2="320.792" y2="263.465" />
<line fill="none" stroke="lightblue" stroke-width="12" x1="320.792" y1="263.465" x2="326.733" y2="241.603" />
<line fill="none" stroke="lightblue" stroke-width="12" x1="326.733" y1="241.603" x2="332.673" y2="223.748" />
<line fill="none" stroke="lightblue" stroke-width="12" x1="332.673" y1="223.748" x2="338.614" y2="211.297" />
<line fill="none" stroke="lightblue" stroke-width="12" x1="338.614" y1="211.297" x2="344.554" y2="204.528" />
<line fill="none" stroke="lightblue" stroke-width="12" x1="344.554" y1="204.528" x2="350.495" y2="203.598" />
<line fill="none" stroke="lightblue" stroke-width="12" x1="350.495" y1="203.598" x2="356.436" y2="208.53" />
<line fill="none" stroke="lightblue" stroke-width="12" x1="356.436" y1="208.53" x2="362.376" y2="219.206" />
<line fill="none" stroke="lightblue" stroke-width="12" x1="362.376" y1="219.206" x2="368.317" y2="210.174" />
<line fill="none" stroke="lightblue" stroke-width="12" x1="368.317" y1="210.174" x2="374.257" y2="203.606" />
<line fill="none" stroke="lightblue" stroke-width="12" x1="374.257" y1="203.606" x2="380.198" y2="160.233" />
<line fill="none" stroke="lightblue" stroke-width="12" x1="380.198" y1="160.233" x2="386.139" y2="120.591" />
<line fill="none" stroke="lightblue" stroke-width="12" x1="386.139" y1="120.591" x2="392.079" y2="85.4076" />
<line fill="none" stroke="lightblue" stroke-width="12" x1="392.079" y1="85.4076" x2="398.02" y2="55.495" />
<line fill="none" stroke="lightblue" stroke-width="12" x1="398.02" y1="55.495" x2="403.96" y2="31.703" />
<line fill="none" stroke="lightblue" stroke-width="12" x1="403.96" y1="31.703" x2="409.901" y2="27.1159" />
<line fill="none" stroke="lightblue" stroke-width="12" x1="409.901" y1="27.1159" x2="415.842" y2="19.7461" />
<line fill="none" stroke="lightblue" stroke-width="12" x1="415.842" y1="19.7461" x2="421.782" y2="66.8632" />
<line fill="none" stroke="lightblue" stroke-width="12" x1="421.782" y1="66.8632" x2="427.723" y2="181.477" />
<line fill="none" stroke="lightblue" stroke-width="12" x1="427.723" y1="181.477" x2="433.663" y2="271.197" />
<line fill="none" stroke="lightblue" stroke-width="12" x1="433.663" y1="271.197" x2="439.604" y2="310.614" />
<line fill="none" stroke="lightblue" stroke-width="12" x1="439.604" y1="310.614" x2="445.545" y2="546.077" />
<line fill="none" stroke-dasharray = "10, 10"  stroke="orange" stroke-width="6" x1="445.545" y1="300" x2="451.485" y2="300" />
<line fill="none" stroke-dasharray = "10, 10"  stroke="orange" stroke-width="6" x1="451.485" y1="300" x2="457.426" y2="300" />
<line fill="none" stroke-dasharray = "10, 10"  stroke="orange" stroke-width="6" x1="457.426" y1="300" x2="463.366" y2="300" />
<line fill="none" stroke-dasharray = "10, 10"  stroke="orange" stroke-width="6" x1="463.366" y1="300" x2="469.307" y2="300" />
<line fill="none" stroke-dasharray = "10, 10"  stroke="orange" stroke-width="6" x1="469.307" y1="300" x2="475.248" y2="300" />
<line fill="none" stroke-dasharray = "10, 10"  stroke="orange" stroke-width="6" x1="475.248" y1="300" x2="481.188" y2="300" />
<line fill="none" stroke-dasharray = "10, 10"  stroke="orange" stroke-width="6" x1="481.188" y1="300" x2="487.129" y2="300" />
<line fill="none" stroke-dasharray = "10, 10"  stroke="orange" stroke-width="6" x1="487.129" y1="300" x2="493.069" y2="300" />
<line fill="none" stroke-dasharray = "10, 10"  stroke="orange" stroke-width="6" x1="493.069" y1="300" x2="499.01" y2="300" />
<line fill="none" stroke-dasharray = "10, 10"  stroke="orange" stroke-width="6" x1="499.01" y1="300" x2="504.95" y2="300" />
<line fill="none" stroke-dasharray = "10, 10"  stroke="orange" stroke-width="6" x1="504.95" y1="300" x2="510.891" y2="300" />
<line fill="none" stroke-dasharray = "10, 10"  stroke="orange" stroke-width="6" x1="510.891" y1="300" x2="516.832" y2="300" />
<line fill="none" stroke-dasharray = "10, 10"  stroke="orange" stroke-width="6" x1="516.832" y1="300" x2="522.772" y2="300" />
<line fill="none" stroke-dasharray = "10, 10"  stroke="orange" stroke-width="6" x1="522.772" y1="300" x2="528.713" y2="300" />
<line fill="none" stroke-dasharray = "10, 10"  stroke="orange" stroke-width="6" x1="528.713" y1="300" x2="534.653" y2="300" />
<line fill="none" stroke-dasharray = "10, 10"  stroke="orange" stroke-width="6" x1="534.653" y1="300" x2="540.594" y2="300" />
<line fill="none" stroke-dasharray = "10, 10"  stroke="orange" stroke-width="6" x1="540.594" y1="300" x2="546.535" y2="300" />
<line fill="none" stroke-dasharray = "10, 10"  stroke="orange" stroke-width="6" x1="546.535" y1="300" x2="552.475" y2="300" />
<line fill="none" stroke-dasharray = "10, 10"  stroke="orange" stroke-width="6" x1="552.475" y1="300" x2="558.416" y2="300" />
<line fill="none" stroke-dasharray = "10, 10"  stroke="orange" stroke-width="6" x1="558.416" y1="300" x2="564.356" y2="300" />
<line fill="none" stroke-dasharray = "10, 10"  stroke="orange" stroke-width="6" x1="564.356" y1="300" x2="570.297" y2="300" />
<line fill="none" stroke-dasharray = "10, 10"  stroke="orange" stroke-width="6" x1="570.297" y1="300" x2="576.238" y2="300" />
<line fill="none" stroke-dasharray = "10, 10"  stroke="orange" stroke-width="6" x1="576.238" y1="300" x2="582.178" y2="300" />
<line fill="none" stroke-dasharray = "10, 10"  stroke="orange" stroke-width="6" x1="582.178" y1="300" x2="588.119" y2="300" />
<line fill="none" stroke-dasharray = "10, 10"  stroke="orange" stroke-width="6" x1="588.119" y1="300" x2="594.059" y2="300" />
<line fill="none" stroke="olive" stroke-width="3" x1="0" y1="539.152" x2="5.94059" y2="539.152" />
<line fill="none" stroke="olive" stroke-width="3" x1="5.94059" y1="539.152" x2="11.8812" y2="522.26" />
<line fill="none" stroke="olive" stroke-width="3" x1="11.8812" y1="522.26" x2="17.8218" y2="506.017" />
<line fill="none" stroke="olive" stroke-width="3" x1="17.8218" y1="506.017" x2="23.7624" y2="490.455" />
<line fill="none" stroke="olive" stroke-width="3" x1="23.7624" y1="490.455" x2="29.703" y2="475.606" />
<line fill="none" stroke="olive" stroke-width="3" x1="29.703" y1="475.606" x2="35.6436" y2="461.502" />
<line fill="none" stroke="olive" stroke-width="3" x1="35.6436" y1="461.502" x2="41.5842" y2="448.174" />
<line fill="none" stroke="olive" stroke-width="3" x1="41.5842" y1="448.174" x2="47.5248" y2="435.656" />
<line fill="none" stroke="olive" stroke-width="3" x1="47.5248" y1="435.656" x2="53.4653" y2="423.98" />
<line fill="none" stroke="olive" stroke-width="3" x1="53.4653" y1="423.98" x2="59.4059" y2="413.176" />
<line fill="none" stroke="olive" stroke-width="3" x1="59.4059" y1="413.176" x2="65.3465" y2="403.276" />
<line fill="none" stroke="olive" stroke-width="3" x1="65.3465" y1="403.276" x2="71.2871" y2="394.308" />
<line fill="none" stroke="olive" stroke-width="3" x1="71.2871" y1="394.308" x2="77.2277" y2="386.301" />
<line fill="none" stroke="olive" stroke-width="3" x1="77.2277" y1="386.301" x2="83.1683" y2="379.279" />
<line fill="none" stroke="olive" stroke-width="3" x1="83.1683" y1="379.279" x2="89.1089" y2="368.382" />
<line fill="none" stroke="olive" stroke-width="3" x1="89.1089" y1="368.382" x2="95.0495" y2="357.281" />
<line fill="none" stroke="olive" stroke-width="3" x1="95.0495" y1="357.281" x2="100.99" y2="347.133" />
<line fill="none" stroke="olive" stroke-width="3" x1="100.99" y1="347.133" x2="106.931" y2="337.974" />
<line fill="none" stroke="olive" stroke-width="3" x1="106.931" y1="337.974" x2="112.871" y2="329.834" />
<line fill="none" stroke="olive" stroke-width="3" x1="112.871" y1="329.834" x2="118.812" y2="322.743" />
<line fill="none" stroke="olive" stroke-width="3" x1="118.812" y1="322.743" x2="124.752" y2="316.728" />
<line fill="none" stroke="olive" stroke-width="3" x1="124.752" y1="316.728" x2="130.693" y2="311.811" />
<line fill="none" stroke="olive" stroke-width="3" x1="130.693" y1="311.811" x2="136.634" y2="296.449" />
<line fill="none" stroke="olive" stroke-width="3" x1="136.634" y1="296.449" x2="142.574" y2="278.48" />
<line fill="none" stroke="olive" stroke-width="3" x1="142.574" y1="278.48" x2="148.515" y2="261.315" />
<line fill="none" stroke="olive" stroke-width="3" x1="148.515" y1="261.315" x2="154.455" y2="245.009" />
<line fill="none" stroke="olive" stroke-width="3" x1="154.455" y1="245.009" x2="160.396" y2="229.615" />
<line fill="none" stroke="olive" stroke-width="3" x1="160.396" y1="229.615" x2="166.337" y2="215.192" />
<line fill="none" stroke="olive" stroke-width="3" x1="166.337" y1="215.192" x2="172.277" y2="201.798" />
<line fill="none" stroke="olive" stroke-width="3" x1="172.277" y1="201.798" x2="178.218" y2="189.49" />
<line fill="none" stroke="olive" stroke-width="3" x1="178.218" y1="189.49" x2="184.158" y2="178.325" />
<line fill="none" stroke="olive" stroke-width="3" x1="184.158" y1="178.325" x2="190.099" y2="168.358" />
<line fill="none" stroke="olive" stroke-width="3" x1="190.099" y1="168.358" x2="196.04" y2="159.643" />
<line fill="none" stroke="olive" stroke-width="3" x1="196.04" y1="159.643" x2="201.98" y2="152.226" />
<line fill="none" stroke="olive" stroke-width="3" x1="201.98" y1="152.226" x2="207.921" y2="146.151" />
<line fill="none" stroke="olive" stroke-width="3" x1="207.921" y1="146.151" x2="213.861" y2="141.456" />
<line fill="none" stroke="olive" stroke-width="3" x1="213.861" y1="141.456" x2="219.802" y2="138.168" />
<line fill="none" stroke="olive" stroke-width="3" x1="219.802" y1="138.168" x2="225.743" y2="136.31" />
<line fill="none" stroke="olive" stroke-width="3" x1="225.743" y1="136.31" x2="231.683" y2="135.893" />
<line fill="none" stroke="olive" stroke-width="3" x1="231.683" y1="135.893" x2="237.624" y2="136.92" />
<line fill="none" stroke="olive" stroke-width="3" x1="237.624" y1="136.92" x2="243.564" y2="139.384" />
<line fill="none" stroke="olive" stroke-width="3" x1="243.564" y1="139.384" x2="249.505" y2="143.269" />
<line fill="none" stroke="olive" stroke-width="3" x1="249.505" y1="143.269" x2="255.446" y2="148.551" />
<line fill="none" stroke="olive" stroke-width="3" x1="255.446" y1="148.551" x2="261.386" y2="155.197" />
<line fill="none" stroke="olive" stroke-width="3" x1="261.386" y1="155.197" x2="267.327" y2="163.168" />
<line fill="none" stroke="olive" stroke-width="3" x1="267.327" y1="163.168" x2="273.267" y2="172.418" />
<line fill="none" stroke="olive" stroke-width="3" x1="273.267" y1="172.418" x2="279.208" y2="182.898" />
<line fill="none" stroke="olive" stroke-width="3" x1="279.208" y1="182.898" x2="285.149" y2="194.552" />
<line fill="none" stroke="olive" stroke-width="3" x1="285.149" y1="194.552" x2="291.089" y2="207.326" />
<line fill="none" stroke="olive" stroke-width="3" x1="291.089" y1="207.326" x2="297.03" y2="221.162" />
<line fill="none" stroke="olive" stroke-width="3" x1="297.03" y1="221.162" x2="302.97" y2="236.002" />
<line fill="none" stroke="olive" stroke-width="3" x1="302.97" y1="236.002" x2="308.911" y2="244.533" />
<line fill="none" stroke="olive" stroke-width="3" x1="308.911" y1="244.533" x2="314.851" y2="253.443" />
<line fill="none" stroke="olive" stroke-width="3" x1="314.851" y1="253.443" x2="320.792" y2="263.465" />
<line fill="none" stroke="olive" stroke-width="3" x1="320.792" y1="263.465" x2="326.733" y2="377.382" />
<line fill="none" stroke="olive" stroke-width="3" x1="326.733" y1="377.382" x2="332.673" y2="340.723" />
<line fill="none" stroke="olive" stroke-width="3" x1="332.673" y1="340.723" x2="338.614" y2="307.602" />
<line fill="none" stroke="olive" stroke-width="3" x1="338.614" y1="307.602" x2="344.554" y2="278.458" />
<line fill="none" stroke="olive" stroke-width="3" x1="344.554" y1="278.458" x2="350.495" y2="253.735" />
<line fill="none" stroke="olive" stroke-width="3" x1="350.495" y1="253.735" x2="356.436" y2="233.867" />
<line fill="none" stroke="olive" stroke-width="3" x1="356.436" y1="233.867" x2="362.376" y2="219.242" />
<line fill="none" stroke="olive" stroke-width="3" x1="362.376" y1="219.242" x2="368.317" y2="210.174" />
<line fill="none" stroke="olive" stroke-width="3" x1="368.317" y1="210.174" x2="374.257" y2="203.606" />
<line fill="none" stroke="olive" stroke-width="3" x1="374.257" y1="203.606" x2="380.198" y2="160.233" />
<line fill="none" stroke="olive" stroke-width="3" x1="380.198" y1="160.233" x2="386.139" y2="120.591" />
<line fill="none" stroke="olive" stroke-width="3" x1="386.139" y1="120.591" x2="392.079" y2="85.4076" />
<line fill="none" stroke="olive" stroke-width="3" x1="392.079" y1="85.4076" x2="398.02" y2="55.495" />
<line fill="none" stroke="olive" stroke-width="3" x1="398.02" y1="55.495" x2="403.96" y2="31.703" />
<line fill="none" stroke="olive" stroke-width="3" x1="403.96" y1="31.703" x2="409.901" y2="308.069" />
<line fill="none" stroke="olive" stroke-width="3" x1="409.901" y1="308.069" x2="415.842" y2="19.7461" />
<line fill="none" stroke="olive" stroke-width="3" x1="415.842" y1="19.7461" x2="421.782" y2="66.8632" />
<line fill="none" stroke="olive" stroke-width="3" x1="421.782" y1="66.8632" x2="427.723" y2="181.477" />
<line fill="none" stroke="olive" stroke-width="3" x1="427.723" y1="181.477" x2="433.663" y2="271.197" />
<line fill="none" stroke="olive" stroke-width="3" x1="433.663" y1="271.197" x2="439.604" y2="310.614" />
<line fill="none" stroke="olive" stroke-width="3" x1="439.604" y1="310.614" x2="445.545" y2="50.71" />
<line fill="none" stroke-dasharray = "10, 10"  stroke="orange" stroke-width="6" x1="445.545" y1="300" x2="451.485" y2="300" />
<line fill="none" stroke-dasharray = "10, 10"  stroke="orange" stroke-width="6" x1="451.485" y1="300" x2="457.426" y2="300" />
<line fill="none" stroke-dasharray = "10, 10"  stroke="orange" stroke-width="6" x1="457.426" y1="300" x2="463.366" y2="300" />
<line fill="none" stroke-dasharray = "10, 10"  stroke="orange" stroke-width="6" x1="463.366" y1="300" x2="469.307" y2="300" />
<line fill="none" stroke-dasharray = "10, 10"  stroke="orange" stroke-width="6" x1="469.307" y1="300" x2="475.248" y2="300" />
<line fill="none" stroke-dasharray = "10, 10"  stroke="orange" stroke-width="6" x1="475.248" y1="300" x2="481.188" y2="300" />
<line fill="none" stroke-dasharray = "10, 10"  stroke="orange" stroke-width="6" x1="481.188" y1="300" x2="487.129" y2="300" />
<line fill="none" stroke-dasharray = "10, 10"  stroke="orange" stroke-width="6" x1="487.129" y1="300" x2="493.069" y2="300" />
<line fill="none" stroke-dasharray = "10, 10"  stroke="orange" stroke-width="6" x1="493.069" y1="300" x2="499.01" y2="300" />
<line fill="none" stroke-dasharray = "10, 10"  stroke="orange" stroke-width="6" x1="499.01" y1="300" x2="504.95" y2="300" />
<line fill="none" stroke-dasharray = "10, 10"  stroke="orange" stroke-width="6" x1="504.95" y1="300" x2="510.891" y2="300" />
<line fill="none" stroke-dasharray = "10, 10"  stroke="orange" stroke-width="6" x1="510.891" y1="300" x2="516.832" y2="300" />
<line fill="none" stroke-dasharray = "10, 10"  stroke="orange" stroke-width="6" x1="516.832" y1="300" x2="522.772" y2="300" />
<line fill="none" stroke-dasharray = "10, 10"  stroke="orange" stroke-width="6" x1="522.772" y1="300" x2="528.713" y2="300" />
<line fill="none" stroke-dasharray = "10, 10"  stroke="orange" stroke-width="6" x1="528.713" y1="300" x2="534.653" y2="300" />
<line fill="none" stroke-dasharray = "10, 10"  stroke="orange" stroke-width="6" x1="534.653" y1="300" x2="540.594" y2="300" />
<line fill="none" stroke-dasharray = "10, 10"  stroke="orange" stroke-width="6" x1="540.594" y1="300" x2="546.535" y2="300" />
<line fill="none" stroke-dasharray = "10, 10"  stroke="orange" stroke-width="6" x1="546.535" y1="300" x2="552.475" y2="300" />
<line fill="none" stroke-dasharray = "10, 10"  stroke="orange" stroke-width="6" x1="552.475" y1="300" x2="558.416" y2="300" />
<line fill="none" stroke-dasharray = "10, 10"  stroke="orange" stroke-width="6" x1="558.416" y1="300" x2="564.356" y2="300" />
<line fill="none" stroke-dasharray = "10, 10"  stroke="orange" stroke-width="6" x1="564.356" y1="300" x2="570.297" y2="300" />
<line fill="none" stroke-dasharray = "10, 10"  stroke="orange" stroke-width="6" x1="570.297" y1="300" x2="576.238" y2="300" />
<line fill="none" stroke-dasharray = "10, 10"  stroke="orange" stroke-width="6" x1="576.238" y1="300" x2="582.178" y2="300" />
<line fill="none" stroke-dasharray = "10, 10"  stroke="orange" stroke-width="6" x1="582.178" y1="300" x2="588.119" y2="300" />
<line fill="none" stroke-dasharray = "10, 10"  stroke="orange" stroke-width="6" x1="588.119" y1="300" x2="594.059" y2="300" />

<!--Draw Glitches -->


<!-- -->


<!--Draw Glitches -->

<line fill="none" stroke="black" stroke-width="4" x1="326.733" y1="367.382" x2="326.733" y2="317.382"  stroke-dasharray = "10,5" />
<text transform="scale(1,-1)" font-family="sans-serif" font-size="30" stroke = "rgb(0,0,0)" line = "rgb(0,0,0)"  fill = "olive" x="331.733" y="-317.382" >54</text>
<line fill="none" stroke="black" stroke-width="4" x1="409.901" y1="298.069" x2="409.901" y2="248.069"  stroke-dasharray = "10,5" />
<text transform="scale(1,-1)" font-family="sans-serif" font-size="30" stroke = "rgb(0,0,0)" line = "rgb(0,0,0)"  fill = "olive" x="414.901" y="-248.069" >68</text>
<line fill="none" stroke="black" stroke-width="4" x1="427.723" y1="171.477" x2="427.723" y2="121.477"  stroke-dasharray = "10,5" />
<text transform="scale(1,-1)" font-family="sans-serif" font-size="30" stroke = "rgb(0,0,0)" line = "rgb(0,0,0)"  fill = "olive" x="432.723" y="-121.477" >71</text>

<!-- -->


<!--Draw the X and Y axes -->
<polyline fill="none" stroke="black" stroke-width="6"  points=" 600,0 0,0 0, 600" />
<polyline fill="none" stroke="black" stroke-width="1"  points=" 0 600  600 600  600 0" />
<!-- -->


<!--Draw labels and tics for X axis -->

<line fill="none" stroke="black"  stroke-width="6"  x1="0.5" y1="0" x2="0.5" y2="-20" />
<text transform="scale(1,-1)" font-family="sans-serif" font-size="30" x="-24.5" y="45" >0</text>
<line fill="none" stroke="black"  stroke-width="6"  x1="119.312" y1="0" x2="119.312" y2="-20" />
<text transform="scale(1,-1)" font-family="sans-serif" font-size="30" x="94.3119" y="45" >20</text>
<line fill="none" stroke="black"  stroke-width="6"  x1="238.124" y1="0" x2="238.124" y2="-20" />
<text transform="scale(1,-1)" font-family="sans-serif" font-size="30" x="213.124" y="45" >40</text>
<line fill="none" stroke="black"  stroke-width="6"  x1="356.936" y1="0" x2="356.936" y2="-20" />
<text transform="scale(1,-1)" font-family="sans-serif" font-size="30" x="331.936" y="45" >60</text>
<line fill="none" stroke="black"  stroke-width="6"  x1="475.748" y1="0" x2="475.748" y2="-20" />
<text transform="scale(1,-1)" font-family="sans-serif" font-size="30" x="450.748" y="45" >80</text>
<line fill="none" stroke="black"  stroke-width="6"  x1="594.559" y1="0" x2="594.559" y2="-20" />
<text transform="scale(1,-1)" font-family="sans-serif" font-size="30" x="569.559" y="45" >100</text>


<!--Draw labels and tics for Y axis -->

<line fill="none" stroke="black" stroke-width="6" x1="0.0" y1="0" x2="-20" y2="0" />
<text transform="scale(1,-1)" text-anchor="end" font-family="sans-serif" font-size="30" x="-25" y="10" >14</text>
<line fill="none" stroke="black" stroke-width="6" x1="0.0" y1="75" x2="-20" y2="75" />
<text transform="scale(1,-1)" text-anchor="end" font-family="sans-serif" font-size="30" x="-25" y="-65" >16</text>
<line fill="none" stroke="black" stroke-width="6" x1="0.0" y1="150" x2="-20" y2="150" />
<text transform="scale(1,-1)" text-anchor="end" font-family="sans-serif" font-size="30" x="-25" y="-140" >18</text>
<line fill="none" stroke="black" stroke-width="6" x1="0.0" y1="225" x2="-20" y2="225" />
<text transform="scale(1,-1)" text-anchor="end" font-family="sans-serif" font-size="30" x="-25" y="-215" >20</text>
<line fill="none" stroke="black" stroke-width="6" x1="0.0" y1="300" x2="-20" y2="300" />
<text transform="scale(1,-1)" text-anchor="end" font-family="sans-serif" font-size="30" x="-25" y="-290" >22</text>
<line fill="none" stroke="black" stroke-width="6" x1="0.0" y1="375" x2="-20" y2="375" />
<text transform="scale(1,-1)" text-anchor="end" font-family="sans-serif" font-size="30" x="-25" y="-365" >24</text>
<line fill="none" stroke="black" stroke-width="6" x1="0.0" y1="450" x2="-20" y2="450" />
<text transform="scale(1,-1)" text-anchor="end" font-family="sans-serif" font-size="30" x="-25" y="-440" >26</text>
<line fill="none" stroke="black" stroke-width="6" x1="0.0" y1="525" x2="-20" y2="525" />
<text transform="scale(1,-1)" text-anchor="end" font-family="sans-serif" font-size="30" x="-25" y="-515" >28</text>
<line fill="none" stroke="black" stroke-width="6" x1="0.0" y1="600" x2="-20" y2="600" />
<text transform="scale(1,-1)" text-anchor="end" font-family="sans-serif" font-size="30" x="-25" y="-590" >30</text>

-->
</g>
</g>
<!-- Run Constants
PRINTDISTANCEDATA bool true
GLITCHESONLY bool false
PLOT 2doubles 3 4
PERTURBBY double 0.1
GLITCHLEVEL double 3
BOUNDARYWINDOW double 0.065
FRAMESPERPATH int 200
STEPSPERFRAME int 100
TRIALS int 4
ALLBLACK bool true
FILEPREFIX string Fol
GRAPHSIZE int 0
BORDER int 0
PLOTSIZE int 0
G6LINEWIDTH int 3
DELONELINEWIDTH int 10
AXISWIDTH int 6
TICLENGTH int 20
VECTOR g6 
FOLLOWERMODE FollowerMode line
FIXRANDOMSEED fixRandomSeed false
RANDOMSEED int 19191
TIMESTAMP bool true
END end 




-->
</svg>
