<?xml version="1.0" standalone="no"?>
<!-- the width and height set the total pixel output of the image in the browser -->
<!-- whatever is within the viewbox will be remapped to show in this size -->
<svg width="900" height="900" viewBox="1 0 900 900"  version="1.1" xmlns="http://www.w3.org/2000/svg" xmlns:xlink="http://www.w3.org/1999/xlink">
 <desc>ID (and file name) = Fol_2018-05-26.10_15_43.0_7.svg  mode = LINE3 </desc> 
<text x = "-750" y="50" transform="rotate(-90)"  font-family="sans-serif" font-size="40" stroke ="lightgray" fill="none"> PointDistanceFollower   May 26 2018</text>
 <text x="560" y="30" font-family="sans-serif" font-size="20">Wall time passed: 13143 msec.</text>
<text x="300" y="60"   font-family="sans-serif" font-size="20" fill="lightblue">S6  lightblue</text>
<text x="300" y="85"   font-family="sans-serif" font-size="20" fill="slategrey">NCDist  slategrey</text>
<text x="300" y="110"  font-family="sans-serif" font-size="20" fill="violet">D7  violet</text>
<text x="300" y="135"  font-family="sans-serif" font-size="20" fill="olive">CS6Dist  olive</text>

 <text x="140"  y="30"  font-family="sans-serif" font-size="20" >Fol_2018-05-26.10_15_43.0_7.svg  </text> 


 <!--DISTANCE PLOT BEGINS   mode = LINE3-->


<!-- the following will scale and place the distance plot -->
<g  transform="translate(0, 50) ">
<g transform="translate(150,700) scale(1 -1)">
   <polyline fill="none" stroke=" lightblue " stroke-width=" 12 " points=" 0.599401,264.816 1.1988,264.129 1.7982,263.443 2.3976,262.761 2.997,262.08 3.5964,261.402 4.1958,260.727 4.7952,260.054 5.39461,259.384 5.99401,258.717 6.59341,258.052 7.19281,257.389 7.79221,256.729 8.39161,256.072 8.99101,255.418 9.59041,254.766 10.1898,254.117 10.7892,253.471 11.3886,252.827 11.988,252.186 12.5874,251.548 13.1868,250.912 13.7862,250.28 14.3856,249.65 14.985,249.023 15.5844,248.399 16.1838,247.778 16.7832,247.159 17.3826,246.544 17.982,245.931 18.5814,245.322 19.1808,244.715 19.7802,244.111 20.3796,243.51 20.979,242.913 21.5784,242.318 22.1778,241.726 22.7772,241.138 23.3766,240.552 23.976,239.97 24.5754,239.39 25.1748,238.814 25.7742,238.241 26.3736,237.671 26.973,237.104 27.5724,236.541 28.1718,235.98 28.7712,235.423 29.3706,234.869 29.97,234.319 30.5694,233.772 31.1688,233.228 31.7682,232.687 32.3676,232.15 32.967,231.616 33.5664,231.085 34.1658,230.558 34.7652,230.034 35.3646,229.514 35.964,228.997 36.5634,228.484 37.1628,227.974 37.7622,227.468 38.3616,226.965 38.961,226.466 39.5604,225.97 40.1598,225.478 40.7592,224.99 41.3586,224.505 41.958,224.024 42.5574,223.546 43.1568,223.072 43.7562,222.602 44.3556,222.136 44.955,221.673 45.5544,221.214 46.1538,220.759 46.7532,220.307 47.3526,219.86 47.952,219.416 48.5514,218.976 49.1508,218.429 49.7502,217.807 50.3497,217.189 50.9491,216.573 51.5485,215.961 52.1479,215.352 52.7473,214.746 53.3467,214.144 53.9461,213.544 54.5455,212.949 55.1449,212.356 55.7443,211.767 56.3437,211.181 56.9431,210.599 57.5425,210.02 58.1419,209.445 58.7413,208.873 59.3407,208.305 59.9401,207.74 60.5395,207.179 61.1389,206.621 61.7383,206.067 62.3377,205.517 62.9371,204.97 63.5365,204.427 64.1359,203.888 64.7353,203.352 65.3347,202.82 65.9341,202.292 66.5335,201.768 67.1329,201.247 67.7323,200.73 68.3317,200.218 68.9311,199.709 69.5305,199.203 70.1299,198.702 70.7293,198.205 71.3287,197.712 71.9281,197.223 72.5275,196.737 73.1269,196.256 73.7263,195.779 74.3257,195.306 74.9251,194.837 75.5245,194.372 76.1239,193.911 76.7233,193.455 77.3227,193.003 77.9221,192.555 78.5215,192.111 79.1209,191.671 79.7203,191.236 80.3197,190.805 80.9191,190.378 81.5185,189.956 82.1179,189.538 82.7173,189.124 83.3167,188.715 83.9161,188.311 84.5155,187.91 85.1149,187.515 85.7143,187.123 86.3137,186.737 86.9131,186.355 87.5125,185.977 88.1119,185.604 88.7113,185.236 89.3107,184.872 89.9101,184.513 90.5095,184.158 91.1089,183.809 91.7083,183.464 92.3077,183.123 92.9071,182.788 93.5065,182.457 94.1059,182.131 94.7053,181.81 95.3047,181.494 95.9041,181.182 96.5035,180.876 97.1029,180.574 97.7023,180.277 98.3017,179.985 98.9011,179.699 99.5005,179.417 100.1,179.14 100.699,178.868 101.299,178.601 101.898,178.339 102.498,178.082 103.097,177.83 103.696,177.583 104.296,177.342 104.895,177.105 105.495,176.874 106.094,176.647 106.693,176.426 107.293,176.21 107.892,176 108.492,175.794 109.091,175.594 109.69,175.399 110.29,175.209 110.889,175.024 111.489,174.845 112.088,174.671 112.687,174.502 113.287,174.338 113.886,174.18 114.486,174.027 115.085,173.88 115.684,173.614 116.284,173.158 116.883,172.705 117.483,172.257 118.082,171.814 118.681,171.376 119.281,170.942 119.88,170.512 120.48,170.088 121.079,169.668 121.678,169.252 122.278,168.842 122.877,168.436 123.477,168.035 124.076,167.638 124.675,167.247 125.275,166.86 125.874,166.479 126.474,166.102 127.073,165.73 127.672,165.363 128.272,165.002 128.871,164.645 129.471,164.293 130.07,163.946 130.669,163.604 131.269,163.268 131.868,162.936 132.468,162.61 133.067,162.289 133.666,161.973 134.266,161.662 134.865,161.357 135.465,161.056 136.064,160.762 136.663,160.472 137.263,160.188 137.862,159.909 138.462,159.635 139.061,159.367 139.66,159.104 140.26,158.846 140.859,158.594 141.459,158.348 142.058,158.107 142.657,157.871 143.257,157.641 143.856,157.417 144.456,157.198 145.055,156.985 145.654,156.777 146.254,156.575 146.853,156.378 147.453,156.187 148.052,156.002 148.651,155.822 149.251,155.648 149.85,155.48 150.45,155.318 151.049,155.161 151.648,155.01 152.248,154.864 152.847,154.725 153.447,154.591 154.046,154.463 154.645,154.34 155.245,154.224 155.844,154.113 156.444,154.008 157.043,153.909 157.642,153.816 158.242,153.729 158.841,153.647 159.441,153.571 160.04,153.501 160.639,153.437 161.239,153.379 161.838,153.327 162.438,153.281 163.037,153.24 163.636,153.205 164.236,153.177 164.835,153.154 165.435,153.137 166.034,153.126 166.633,153.121 167.233,153.121 167.832,153.128 168.432,153.141 169.031,153.159 169.63,153.183 170.23,153.213 170.829,153.249 171.429,153.291 172.028,153.339 172.627,153.393 173.227,153.453 173.826,153.518 174.426,153.589 175.025,153.666 175.624,153.749 176.224,153.838 176.823,153.933 177.423,154.033 178.022,154.14 178.621,154.252 179.221,154.37 179.82,154.494 180.42,154.623 181.019,154.758 181.618,154.899 182.218,155.046 182.817,155.199 183.417,155.357 184.016,155.521 184.615,155.691 185.215,155.866 185.814,156.047 186.414,156.234 187.013,156.426 187.612,156.624 188.212,156.827 188.811,157.037 189.411,157.251 190.01,157.472 190.609,157.697 191.209,157.929 191.808,158.166 192.408,158.408 193.007,158.656 193.606,158.909 194.206,159.168 194.805,159.432 195.405,159.702 196.004,159.977 196.603,160.257 197.203,160.542 197.802,160.833 198.402,161.13 199.001,161.431 199.6,161.738 200.2,162.05 200.799,162.367 201.399,162.69 201.998,163.017 202.597,163.35 203.197,163.688 203.796,164.031 204.396,164.379 204.995,164.732 205.594,165.09 206.194,165.453 206.793,165.821 207.393,166.194 207.992,166.572 208.591,166.955 209.191,167.343 209.79,167.735 210.39,168.133 210.989,168.535 211.588,168.942 212.188,169.354 212.787,169.77 213.387,170.191 213.986,170.617 214.585,171.048 215.185,171.483 215.784,171.923 216.384,172.367 216.983,172.816 217.582,173.269 218.182,173.727 218.781,174.189 219.381,174.656 219.98,175.127 220.579,175.603 221.179,176.083 221.778,176.567 222.378,177.056 222.977,177.549 223.576,178.046 224.176,178.547 224.775,179.053 225.375,179.563 225.974,180.077 226.573,180.595 227.173,181.117 227.772,181.643 228.372,182.173 228.971,182.707 229.57,183.246 230.17,183.788 230.769,184.334 231.369,184.884 231.968,185.438 232.567,185.996 233.167,186.557 233.766,187.123 234.366,187.692 234.965,188.265 235.564,188.842 236.164,189.422 236.763,190.006 237.363,190.594 237.962,191.185 238.561,191.78 239.161,192.379 239.76,192.981 240.36,193.586 240.959,194.195 241.558,194.808 242.158,195.424 242.757,196.043 243.357,196.666 243.956,197.292 244.555,197.922 245.155,198.555 245.754,199.191 246.354,199.831 246.953,200.473 247.552,201.119 248.152,201.768 248.751,202.421 249.351,203.076 249.95,203.735 250.549,204.397 251.149,205.061 251.748,205.606 252.348,206 252.947,206.405 253.546,206.821 254.146,207.247 254.745,207.631 255.345,207.987 255.944,208.353 256.543,208.731 257.143,209.118 257.742,209.517 258.342,209.926 258.941,210.345 259.54,210.775 260.14,211.215 260.739,211.666 261.339,212.127 261.938,212.598 262.537,213.079 263.137,213.57 263.736,214.072 264.336,214.583 264.935,215.104 265.534,215.636 266.134,216.177 266.733,216.727 267.333,217.288 267.932,217.858 268.531,218.438 269.131,219.027 269.73,219.626 270.33,220.234 270.929,220.852 271.528,221.478 272.128,222.115 272.727,222.76 273.327,223.414 273.926,224.078 274.525,224.75 275.125,225.431 275.724,226.121 276.324,226.82 276.923,227.528 277.522,228.244 278.122,228.969 278.721,229.703 279.321,230.445 279.92,231.195 280.519,231.954 281.119,232.72 281.718,233.496 282.318,234.279 282.917,235.07 283.516,235.87 284.116,236.677 284.715,237.492 285.315,238.315 285.914,239.146 286.513,239.984 287.113,240.83 287.712,241.684 288.312,242.545 288.911,243.414 289.51,244.29 290.11,245.173 290.709,246.064 291.309,246.961 291.908,247.866 292.507,248.778 293.107,249.697 293.706,250.623 294.306,251.555 294.905,252.495 295.504,253.441 296.104,254.394 296.703,255.353 297.303,256.319 297.902,257.292 298.501,258.271 299.101,259.257 299.7,260.248 300.3,261.246 300.899,262.251 301.499,263.261 302.098,264.277 302.697,265.3 303.297,266.328 303.896,267.363 304.496,268.403 305.095,269.449 305.694,270.501 306.294,271.559 306.893,272.622 307.493,273.691 308.092,274.765 308.691,275.845 309.291,276.93 309.89,278.021 310.49,279.117 311.089,280.218 311.688,281.324 312.288,282.436 312.887,283.553 313.487,284.675 314.086,285.802 314.685,286.933 315.285,288.07 315.884,289.212 316.484,290.358 317.083,291.51 317.682,292.666 318.282,293.827 318.881,294.992 319.481,296.162 320.08,297.336 320.679,298.516 321.279,299.699 321.878,300.887 322.478,302.079 323.077,303.276 323.676,304.477 324.276,305.682 324.875,306.892 325.475,308.105 326.074,309.323 326.673,310.545 327.273,311.771 327.872,313 328.472,314.234 329.071,315.43 329.67,315.698 330.27,315.973 330.869,316.256 331.469,316.546 332.068,316.845 332.667,317.151 333.267,317.464 333.866,317.786 334.466,318.115 335.065,318.451 335.664,318.796 336.264,319.148 336.863,319.507 337.463,319.874 338.062,320.248 338.661,320.631 339.261,321.02 339.86,321.417 340.46,321.821 341.059,322.233 341.658,322.652 342.258,323.079 342.857,323.513 343.457,323.954 344.056,324.403 344.655,324.859 345.255,325.322 345.854,325.792 346.454,326.269 347.053,326.754 347.652,327.246 348.252,327.744 348.851,328.25 349.451,328.763 350.05,329.283 350.649,329.81 351.249,330.344 351.848,330.885 352.448,331.433 353.047,331.988 353.646,332.549 354.246,333.117 354.845,333.693 355.445,334.274 356.044,334.863 356.643,335.458 357.243,336.06 357.842,336.548 358.442,336.844 359.041,337.147 359.64,337.458 360.24,337.775 360.839,338.101 361.439,338.433 362.038,338.773 362.637,339.12 363.237,339.474 363.836,339.835 364.436,340.203 365.035,340.579 365.634,340.962 366.234,341.352 366.833,341.748 367.433,342.152 368.032,342.563 368.631,342.981 369.231,343.406 369.83,343.838 370.43,342.902 371.029,341.968 371.628,341.041 372.228,340.118 372.827,339.201 373.427,338.289 374.026,337.383 374.625,336.482 375.225,335.587 375.824,334.697 376.424,333.813 377.023,332.935 377.622,332.062 378.222,331.195 378.821,330.334 379.421,329.478 380.02,328.628 380.619,327.785 381.219,326.947 381.818,326.115 382.418,325.289 383.017,324.469 383.616,323.655 384.216,322.847 384.815,322.045 385.415,321.25 386.014,320.461 386.613,319.677 387.213,318.901 387.812,318.13 388.412,317.366 389.011,316.609 389.61,315.858 390.21,315.113 390.809,314.375 391.409,313.643 392.008,312.918 392.607,312.2 393.207,311.488 393.806,310.783 394.406,310.085 395.005,309.393 395.604,308.709 396.204,308.031 396.803,307.36 397.403,306.696 398.002,306.04 398.601,305.39 399.201,304.747 399.8,304.085 400.4,303.333 400.999,302.588 401.598,301.85 402.198,301.118 402.797,300.393 403.397,299.676 403.996,298.965 404.595,298.261 405.195,297.564 405.794,296.874 406.394,296.191 406.993,295.515 407.592,294.847 408.192,294.186 408.791,293.531 409.391,292.885 409.99,292.245 410.589,291.613 411.189,290.988 411.788,290.371 412.388,289.761 412.987,289.159 413.586,288.564 414.186,287.977 414.785,287.397 415.385,286.826 415.984,286.261 416.583,285.705 417.183,285.156 417.782,284.494 418.382,283.79 418.981,283.093 419.58,282.403 420.18,281.72 420.779,281.045 421.379,280.377 421.978,279.717 422.577,279.064 423.177,278.419 423.776,277.782 424.376,277.152 424.975,276.53 425.574,275.916 426.174,275.309 426.773,274.711 427.373,274.12 427.972,273.537 428.571,272.963 429.171,272.396 429.77,271.837 430.37,271.287 430.969,270.744 431.568,270.21 432.168,269.684 432.767,269.166 433.367,268.657 433.966,268.156 434.565,267.663 435.165,267.179 435.764,266.703 436.364,266.236 436.963,264.767 437.562,263.725 438.162,262.711 438.761,261.725 439.361,260.768 439.96,259.84 440.559,258.941 441.159,258.071 441.758,257.231 442.358,256.421 442.957,255.641 443.556,254.891 444.156,254.172 444.755,253.483 445.355,252.826 445.954,252.199 446.553,251.604 447.153,251.04 447.752,250.508 448.352,250.008 448.951,249.539 449.55,249.103 450.15,248.699 450.749,248.328 451.349,247.989 451.948,247.682 452.547,247.409 453.147,247.168 453.746,246.96 454.346,246.785 454.945,246.642 455.544,245.979 456.144,244.864 456.743,243.848 457.343,242.93 457.942,242.375 458.541,246.204 459.141,250.277 459.74,254.585 460.34,259.119 460.939,262.55 461.538,266.214 462.138,270.622 462.737,276.636 463.337,282.788 463.936,289.07 464.535,295.476 465.135,301.999 465.734,308.633 466.334,315.372 466.933,322.347 467.532,335.373 468.132,348.7 468.731,362.298 469.331,376.142 469.93,390.151 470.529,404.191 471.129,418.25 471.728,419.437 472.328,421.016 472.927,423.195 473.526,425.966 474.126,429.319 474.725,442.884 475.325,460.396 475.924,466.704 " />

<line fill="none" stroke-dasharray = "10, 10"  stroke="orange" stroke-width="6" x1="476.523" y1="300" x2="598.801" y2="300" />
   <polyline fill="none" stroke=" slategrey " stroke-width=" 9 " points=" " />

   <polyline fill="none" stroke=" violet " stroke-width=" 6 " points=" " />

   <polyline fill="none" stroke=" olive " stroke-width=" 3 " points=" 0.599401,557.094 1.1988,556.842 1.7982,556.592 2.3976,556.344 2.997,556.097 3.5964,555.853 4.1958,555.611 4.7952,555.37 5.39461,555.132 5.99401,554.895 6.59341,554.661 7.19281,554.428 7.79221,554.198 8.39161,553.969 8.99101,553.743 9.59041,553.518 10.1898,553.296 10.7892,553.075 11.3886,552.856 11.988,552.64 12.5874,552.425 13.1868,552.213 13.7862,552.002 14.3856,551.794 14.985,551.587 15.5844,551.382 16.1838,551.18 16.7832,550.979 17.3826,550.781 17.982,550.584 18.5814,550.39 19.1808,550.197 19.7802,550.007 20.3796,549.818 20.979,549.632 21.5784,549.447 22.1778,549.265 22.7772,549.085 23.3766,548.906 23.976,548.73 24.5754,548.556 25.1748,548.384 25.7742,548.214 26.3736,548.046 26.973,547.879 27.5724,547.715 28.1718,547.553 28.7712,547.394 29.3706,547.236 29.97,547.08 30.5694,546.926 31.1688,546.774 31.7682,546.625 32.3676,546.477 32.967,546.332 33.5664,546.188 34.1658,546.047 34.7652,545.907 35.3646,545.77 35.964,545.635 36.5634,545.502 37.1628,545.37 37.7622,545.241 38.3616,545.114 38.961,544.99 39.5604,544.867 40.1598,544.746 40.7592,544.627 41.3586,544.511 41.958,544.396 42.5574,544.284 43.1568,544.174 43.7562,544.065 44.3556,543.959 44.955,543.855 45.5544,543.753 46.1538,543.653 46.7532,543.555 47.3526,543.46 47.952,543.366 48.5514,543.274 49.1508,543.185 49.7502,543.098 50.3497,543.012 50.9491,542.929 51.5485,542.848 52.1479,542.769 52.7473,542.692 53.3467,542.617 53.9461,542.545 54.5455,542.474 55.1449,542.406 55.7443,542.339 56.3437,542.275 56.9431,542.213 57.5425,542.153 58.1419,542.095 58.7413,542.039 59.3407,541.985 59.9401,541.933 60.5395,541.884 61.1389,541.836 61.7383,541.791 62.3377,541.748 62.9371,541.706 63.5365,541.667 64.1359,541.252 64.7353,540.538 65.3347,539.825 65.9341,539.113 66.5335,538.403 67.1329,537.694 67.7323,536.987 68.3317,536.28 68.9311,535.575 69.5305,534.871 70.1299,534.169 70.7293,533.468 71.3287,532.768 71.9281,532.07 72.5275,531.372 73.1269,530.677 73.7263,529.982 74.3257,529.289 74.9251,528.597 75.5245,527.907 76.1239,527.217 76.7233,526.53 77.3227,525.843 77.9221,525.158 78.5215,524.474 79.1209,523.792 79.7203,523.111 80.3197,522.432 80.9191,521.753 81.5185,521.077 82.1179,520.401 82.7173,519.727 83.3167,519.055 83.9161,518.384 84.5155,517.714 85.1149,517.046 85.7143,516.379 86.3137,515.713 86.9131,515.049 87.5125,514.387 88.1119,513.726 88.7113,513.066 89.3107,512.408 89.9101,511.751 90.5095,511.096 91.1089,510.442 91.7083,509.79 92.3077,509.139 92.9071,508.49 93.5065,507.842 94.1059,507.195 94.7053,506.55 95.3047,505.907 95.9041,505.265 96.5035,504.625 97.1029,503.986 97.7023,503.349 98.3017,502.713 98.9011,502.079 99.5005,501.447 100.1,500.816 100.699,500.186 101.299,499.558 101.898,498.932 102.498,498.307 103.097,497.684 103.696,497.062 104.296,496.442 104.895,495.823 105.495,495.207 106.094,494.591 106.693,493.978 107.293,493.366 107.892,492.755 108.492,492.146 109.091,491.539 109.69,490.934 110.29,490.33 110.889,489.728 111.489,489.127 112.088,488.528 112.687,487.931 113.287,487.335 113.886,486.741 114.486,486.149 115.085,485.559 115.684,173.614 116.284,173.158 116.883,172.705 117.483,172.257 118.082,171.814 118.681,171.376 119.281,170.942 119.88,170.512 120.48,170.088 121.079,169.668 121.678,169.252 122.278,168.842 122.877,168.436 123.477,168.035 124.076,167.638 124.675,167.247 125.275,166.86 125.874,166.479 126.474,166.102 127.073,165.73 127.672,165.363 128.272,165.002 128.871,164.645 129.471,164.293 130.07,163.946 130.669,163.604 131.269,163.268 131.868,162.936 132.468,162.61 133.067,162.289 133.666,161.973 134.266,161.662 134.865,161.357 135.465,161.056 136.064,160.762 136.663,160.472 137.263,160.188 137.862,159.909 138.462,159.635 139.061,159.367 139.66,159.104 140.26,158.846 140.859,158.594 141.459,158.348 142.058,158.107 142.657,157.871 143.257,157.641 143.856,157.417 144.456,157.198 145.055,156.985 145.654,156.777 146.254,156.575 146.853,156.378 147.453,156.187 148.052,156.002 148.651,155.822 149.251,155.648 149.85,155.48 150.45,155.318 151.049,155.161 151.648,155.01 152.248,154.864 152.847,154.725 153.447,154.591 154.046,154.463 154.645,154.34 155.245,154.224 155.844,154.113 156.444,154.008 157.043,153.909 157.642,153.816 158.242,153.729 158.841,153.647 159.441,153.571 160.04,153.501 160.639,153.437 161.239,153.379 161.838,153.327 162.438,153.281 163.037,153.24 163.636,153.205 164.236,153.177 164.835,153.154 165.435,153.137 166.034,153.126 166.633,153.121 167.233,153.121 167.832,153.128 168.432,153.141 169.031,153.159 169.63,153.183 170.23,153.213 170.829,153.249 171.429,153.291 172.028,153.339 172.627,153.393 173.227,153.453 173.826,153.518 174.426,153.589 175.025,153.666 175.624,153.749 176.224,153.838 176.823,153.933 177.423,154.033 178.022,154.14 178.621,154.252 179.221,154.37 179.82,154.494 180.42,154.623 181.019,154.758 181.618,154.899 182.218,155.046 182.817,155.199 183.417,155.357 184.016,155.521 184.615,155.691 185.215,155.866 185.814,156.047 186.414,156.234 187.013,156.426 187.612,156.624 188.212,156.827 188.811,157.037 189.411,157.251 190.01,157.472 190.609,157.697 191.209,157.929 191.808,158.166 192.408,158.408 193.007,158.656 193.606,158.909 194.206,159.168 194.805,159.432 195.405,159.702 196.004,159.977 196.603,160.257 197.203,160.542 197.802,160.833 198.402,161.13 199.001,161.431 199.6,161.738 200.2,162.05 200.799,162.367 201.399,162.69 201.998,163.017 202.597,163.35 203.197,163.688 203.796,164.031 204.396,164.379 204.995,164.732 205.594,165.09 206.194,165.453 206.793,165.821 207.393,166.194 207.992,166.572 208.591,166.955 209.191,167.343 209.79,167.735 210.39,168.133 210.989,168.535 211.588,168.942 212.188,169.354 212.787,169.77 213.387,170.191 213.986,170.617 214.585,171.048 215.185,171.483 215.784,171.923 216.384,172.367 216.983,172.816 217.582,173.269 218.182,173.727 218.781,174.189 219.381,174.656 219.98,175.127 220.579,175.603 221.179,176.083 221.778,176.567 222.378,177.056 222.977,177.549 223.576,178.046 224.176,178.547 224.775,179.053 225.375,179.563 225.974,180.077 226.573,180.595 227.173,181.117 227.772,181.643 228.372,182.173 228.971,182.707 229.57,183.246 230.17,183.788 230.769,184.334 231.369,184.884 231.968,185.438 232.567,185.996 233.167,186.557 233.766,187.123 234.366,187.692 234.965,188.265 235.564,188.842 236.164,189.422 236.763,190.006 237.363,190.594 237.962,191.185 238.561,191.78 239.161,192.379 239.76,192.981 240.36,193.586 240.959,194.195 241.558,194.808 242.158,195.424 242.757,196.043 243.357,196.666 243.956,197.292 244.555,197.922 245.155,198.555 245.754,199.191 246.354,199.831 246.953,200.473 247.552,201.119 248.152,201.768 248.751,202.421 249.351,203.076 249.95,203.735 250.549,204.397 251.149,205.061 251.748,206.013 252.348,206.315 252.947,206.627 253.546,206.951 254.146,207.285 254.745,207.631 255.345,207.987 255.944,208.353 256.543,208.731 257.143,209.118 257.742,209.517 258.342,209.926 258.941,210.345 259.54,210.775 260.14,211.215 260.739,211.666 261.339,212.127 261.938,212.598 262.537,213.079 263.137,213.57 263.736,214.072 264.336,214.583 264.935,215.104 265.534,215.636 266.134,216.177 266.733,216.727 267.333,217.288 267.932,217.858 268.531,218.438 269.131,219.027 269.73,219.626 270.33,220.234 270.929,220.852 271.528,221.478 272.128,222.115 272.727,222.76 273.327,223.414 273.926,224.078 274.525,224.75 275.125,225.431 275.724,226.121 276.324,226.82 276.923,227.528 277.522,228.244 278.122,228.969 278.721,229.703 279.321,230.445 279.92,231.195 280.519,231.954 281.119,232.72 281.718,233.496 282.318,234.279 282.917,235.07 283.516,235.87 284.116,236.677 284.715,237.492 285.315,238.315 285.914,239.146 286.513,239.984 287.113,240.83 287.712,241.684 288.312,242.545 288.911,243.414 289.51,244.29 290.11,245.173 290.709,246.064 291.309,246.961 291.908,247.866 292.507,248.778 293.107,249.697 293.706,250.623 294.306,251.555 294.905,252.495 295.504,253.441 296.104,254.394 296.703,255.353 297.303,256.319 297.902,257.292 298.501,258.271 299.101,259.257 299.7,260.248 300.3,261.246 300.899,262.251 301.499,263.261 302.098,264.277 302.697,265.3 303.297,266.328 303.896,267.363 304.496,268.403 305.095,269.449 305.694,270.501 306.294,271.559 306.893,272.622 307.493,273.691 308.092,274.765 308.691,275.845 309.291,276.93 309.89,278.021 310.49,279.117 311.089,280.218 311.688,281.324 312.288,282.436 312.887,283.553 313.487,284.675 314.086,285.802 314.685,286.933 315.285,288.07 315.884,289.212 316.484,290.358 317.083,291.51 317.682,292.666 318.282,293.827 318.881,294.992 319.481,296.162 320.08,297.336 320.679,298.516 321.279,299.699 321.878,300.887 322.478,302.079 323.077,303.276 323.676,304.477 324.276,305.682 324.875,306.892 325.475,308.105 326.074,309.323 326.673,310.545 327.273,311.771 327.872,313 328.472,314.234 329.071,315.43 329.67,315.698 330.27,315.973 330.869,316.256 331.469,316.546 332.068,316.845 332.667,317.151 333.267,317.464 333.866,317.786 334.466,318.115 335.065,318.451 335.664,318.796 336.264,319.148 336.863,319.507 337.463,319.874 338.062,320.248 338.661,320.631 339.261,321.02 339.86,321.417 340.46,321.821 341.059,322.233 341.658,322.652 342.258,323.079 342.857,323.513 343.457,323.954 344.056,324.403 344.655,324.859 345.255,325.322 345.854,325.792 346.454,326.269 347.053,326.754 347.652,327.246 348.252,327.744 348.851,328.25 349.451,328.763 350.05,329.283 350.649,329.81 351.249,330.344 351.848,330.885 352.448,331.433 353.047,331.988 353.646,331.547 354.246,330.726 354.845,329.911 355.445,329.102 356.044,328.3 356.643,327.503 357.243,326.713 357.842,325.929 358.442,325.151 359.041,324.38 359.64,323.614 360.24,322.856 360.839,322.103 361.439,321.357 362.038,320.618 362.637,319.885 363.237,319.158 363.836,318.439 364.436,317.726 365.035,317.019 365.634,316.319 366.234,315.626 366.833,314.94 367.433,314.261 368.032,313.588 368.631,312.923 369.231,312.264 369.83,311.612 370.43,310.968 371.029,310.33 371.628,309.699 372.228,309.076 372.827,308.46 373.427,307.851 374.026,307.249 374.625,306.654 375.225,306.067 375.824,305.487 376.424,304.915 377.023,304.35 377.622,303.792 378.222,303.242 378.821,302.699 379.421,302.164 380.02,301.637 380.619,301.117 381.219,300.605 381.818,300.1 382.418,299.603 383.017,299.114 383.616,298.633 384.216,298.16 384.815,297.694 385.415,297.236 386.014,296.786 386.613,296.344 387.213,295.911 387.812,295.485 388.412,295.067 389.011,294.657 389.61,294.255 390.21,293.862 390.809,293.476 391.409,293.099 392.008,292.73 392.607,292.369 393.207,292.016 393.806,291.672 394.406,291.335 395.005,291.008 395.604,290.688 396.204,290.377 396.803,290.073 397.403,289.769 398.002,289.474 398.601,289.187 399.201,288.908 399.8,288.638 400.4,288.376 400.999,288.123 401.598,287.878 402.198,287.642 402.797,287.415 403.397,287.196 403.996,286.985 404.595,286.784 405.195,286.59 405.794,286.406 406.394,286.23 406.993,286.063 407.592,285.905 408.192,285.755 408.791,285.614 409.391,285.482 409.99,285.358 410.589,285.244 411.189,285.138 411.788,285.04 412.388,284.952 412.987,284.872 413.586,284.801 414.186,284.739 414.785,284.686 415.385,284.641 415.984,284.606 416.583,284.579 417.183,284.561 417.782,284.551 418.382,284.551 418.981,284.559 419.58,284.576 420.18,284.166 420.779,283.674 421.379,283.189 421.978,282.713 422.577,282.244 423.177,281.784 423.776,281.332 424.376,280.888 424.975,280.452 425.574,280.025 426.174,279.606 426.773,279.195 427.373,278.793 427.972,278.399 428.571,278.013 429.171,277.636 429.77,277.267 430.37,276.907 430.969,276.555 431.568,276.212 432.168,275.877 432.767,275.551 433.367,275.234 433.966,274.925 434.565,274.625 435.165,274.333 435.764,274.051 436.364,273.777 436.963,272.5 437.562,271.387 438.162,270.302 438.761,269.244 439.361,268.213 439.96,267.21 440.559,266.235 441.159,265.288 441.758,264.37 442.358,263.481 442.957,262.621 443.556,261.79 444.156,260.988 444.755,260.216 445.355,259.474 445.954,258.762 446.553,258.08 447.153,257.429 447.752,256.809 448.352,256.219 448.951,255.661 449.55,255.133 450.15,254.638 450.749,254.173 451.349,253.74 451.948,253.34 452.547,252.97 453.147,252.633 453.746,252.329 454.346,252.056 454.945,251.816 455.544,245.979 456.144,244.864 456.743,243.848 457.343,242.93 457.942,275.801 458.541,269.904 459.141,264.182 459.74,258.643 460.34,253.299 460.939,248.158 461.538,243.232 462.138,237.975 462.737,231.33 463.337,224.826 463.936,218.471 464.535,212.277 465.135,206.256 465.734,200.418 466.334,194.778 466.933,189.149 467.532,175.329 468.132,161.974 468.731,149.176 469.331,137.045 469.93,125.716 470.529,115.347 471.129,106.125 471.728,98.2535 472.328,91.9506 472.927,87.4231 473.526,84.8426 474.126,84.3168 474.725,70.6396 475.325,45.917 475.924,35.2146 " />

<line fill="none" stroke-dasharray = "10, 10"  stroke="orange" stroke-width="6" x1="476.523" y1="300" x2="598.801" y2="300" />

<!--Draw Glitches -->


<!-- -->


<!--Draw Glitches -->

<line fill="none" stroke="black" stroke-width="4" x1="115.684" y1="163.614" x2="115.684" y2="113.614"  stroke-dasharray = "10,5" />
<text transform="scale(1,-1)" font-family="sans-serif" font-size="30" stroke = "rgb(0,0,0)" line = "rgb(0,0,0)"  fill = "olive" x="120.684" y="-113.614" >192</text>
<line fill="none" stroke="black" stroke-width="4" x1="475.325" y1="35.917" x2="475.325" y2="-14.083"  stroke-dasharray = "10,5" />
<text transform="scale(1,-1)" font-family="sans-serif" font-size="30" stroke = "rgb(0,0,0)" line = "rgb(0,0,0)"  fill = "olive" x="480.325" y="14.083" >792</text>

<!-- -->


<!--Draw the X and Y axes -->
<polyline fill="none" stroke="black" stroke-width="6"  points=" 600,0 0,0 0, 600" />
<polyline fill="none" stroke="black" stroke-width="1"  points=" 0 600  600 600  600 0" />
<!-- -->


<!--Draw labels and tics for X axis -->

<line fill="none" stroke="black"  stroke-width="6"  x1="0.5" y1="0" x2="0.5" y2="-20" />
<text transform="scale(1,-1)" font-family="sans-serif" font-size="30" x="-24.5" y="45" >0</text>
<line fill="none" stroke="black"  stroke-width="6"  x1="120.38" y1="0" x2="120.38" y2="-20" />
<text transform="scale(1,-1)" font-family="sans-serif" font-size="30" x="95.3801" y="45" >200</text>
<line fill="none" stroke="black"  stroke-width="6"  x1="240.26" y1="0" x2="240.26" y2="-20" />
<text transform="scale(1,-1)" font-family="sans-serif" font-size="30" x="215.26" y="45" >400</text>
<line fill="none" stroke="black"  stroke-width="6"  x1="360.14" y1="0" x2="360.14" y2="-20" />
<text transform="scale(1,-1)" font-family="sans-serif" font-size="30" x="335.14" y="45" >600</text>
<line fill="none" stroke="black"  stroke-width="6"  x1="480.02" y1="0" x2="480.02" y2="-20" />
<text transform="scale(1,-1)" font-family="sans-serif" font-size="30" x="455.02" y="45" >800</text>
<line fill="none" stroke="black"  stroke-width="6"  x1="599.901" y1="0" x2="599.901" y2="-20" />
<text transform="scale(1,-1)" font-family="sans-serif" font-size="30" x="574.901" y="45" >1000</text>


<!--Draw labels and tics for Y axis -->

<line fill="none" stroke="black" stroke-width="6" x1="0.0" y1="0" x2="-20" y2="0" />
<text transform="scale(1,-1)" text-anchor="end" font-family="sans-serif" font-size="30" x="-25" y="10" >5</text>
<line fill="none" stroke="black" stroke-width="6" x1="0.0" y1="60" x2="-20" y2="60" />
<text transform="scale(1,-1)" text-anchor="end" font-family="sans-serif" font-size="30" x="-25" y="-50" >10</text>
<line fill="none" stroke="black" stroke-width="6" x1="0.0" y1="120" x2="-20" y2="120" />
<text transform="scale(1,-1)" text-anchor="end" font-family="sans-serif" font-size="30" x="-25" y="-110" >15</text>
<line fill="none" stroke="black" stroke-width="6" x1="0.0" y1="180" x2="-20" y2="180" />
<text transform="scale(1,-1)" text-anchor="end" font-family="sans-serif" font-size="30" x="-25" y="-170" >20</text>
<line fill="none" stroke="black" stroke-width="6" x1="0.0" y1="240" x2="-20" y2="240" />
<text transform="scale(1,-1)" text-anchor="end" font-family="sans-serif" font-size="30" x="-25" y="-230" >25</text>
<line fill="none" stroke="black" stroke-width="6" x1="0.0" y1="300" x2="-20" y2="300" />
<text transform="scale(1,-1)" text-anchor="end" font-family="sans-serif" font-size="30" x="-25" y="-290" >30</text>
<line fill="none" stroke="black" stroke-width="6" x1="0.0" y1="360" x2="-20" y2="360" />
<text transform="scale(1,-1)" text-anchor="end" font-family="sans-serif" font-size="30" x="-25" y="-350" >35</text>
<line fill="none" stroke="black" stroke-width="6" x1="0.0" y1="420" x2="-20" y2="420" />
<text transform="scale(1,-1)" text-anchor="end" font-family="sans-serif" font-size="30" x="-25" y="-410" >40</text>
<line fill="none" stroke="black" stroke-width="6" x1="0.0" y1="480" x2="-20" y2="480" />
<text transform="scale(1,-1)" text-anchor="end" font-family="sans-serif" font-size="30" x="-25" y="-470" >45</text>
<line fill="none" stroke="black" stroke-width="6" x1="0.0" y1="540" x2="-20" y2="540" />
<text transform="scale(1,-1)" text-anchor="end" font-family="sans-serif" font-size="30" x="-25" y="-530" >50</text>
<line fill="none" stroke="black" stroke-width="6" x1="0.0" y1="600" x2="-20" y2="600" />
<text transform="scale(1,-1)" text-anchor="end" font-family="sans-serif" font-size="30" x="-25" y="-590" >55</text>

-->
</g>
</g>
<!-- Run Constants
PRINTDISTANCEDATA bool true
GLITCHESONLY bool false
PLOT 2doubles 3 4
PERTURBBY double 0.05
GLITCHLEVEL double 3
BOUNDARYWINDOW double 0.065
FRAMESPERPATH int 200
STEPSPERFRAME int 1000
TRIALS int 20
ALLBLACK bool true
FILEPREFIX string Fol
GRAPHSIZE int 0
BORDER int 0
PLOTSIZE int 0
G6LINEWIDTH int 3
DELONELINEWIDTH int 10
AXISWIDTH int 6
TICLENGTH int 20
VECTOR g6 
FOLLOWERMODE FollowerMode line
FIXRANDOMSEED fixRandomSeed false
RANDOMSEED int 19191
TIMESTAMP bool true
END end 




-->
</svg>
