<?xml version="1.0" standalone="no"?>
<!-- the width and height set the total pixel output of the image in the browser -->
<!-- whatever is within the viewbox will be remapped to show in this size -->
<svg width="900" height="800" viewBox="1 0 900 800"  version="1.1" xmlns="http://www.w3.org/2000/svg" xmlns:xlink="http://www.w3.org/1999/xlink">
 <desc>ID (and file name) = Fol_2018-05-16.16_30_14.32_31.svg </desc> 
<text x = "-750" y="50" transform="rotate(-90)"  font-family="sans-serif" font-size="40" stroke ="lightgray" fill="none"> PointDistanceFollower   May 16 2018</text>
 <text x="560" y="30" font-family="sans-serif" font-size="20">Wall time passed: 1259 msec.</text>
<text x="300" y="60"   font-family="sans-serif" font-size="20" fill="lightblue">S6  lightblue</text>
<text x="300" y="85"   font-family="sans-serif" font-size="20" fill="slategrey">NCDist  slategrey</text>
<text x="300" y="110"  font-family="sans-serif" font-size="20" fill="violet">D7  violet</text>
<text x="300" y="135"  font-family="sans-serif" font-size="20" fill="olive">CS6Dist  olive</text>

 <text x="140"  y="30"  font-family="sans-serif" font-size="20" >Fol_2018-05-16.16_30_14.32_31.svg  </text> 


 <!--DISTANCE PLOT BEGINS-->


<!-- the following will scale and place the distance plot -->
<g  transform="translate(0, 50) ">
<g transform="translate(150,700) scale(1 -1)">
<line fill="none" stroke="lightblue" stroke-width="12" x1="0" y1="255.423" x2="5.94059" y2="255.423" />
<line fill="none" stroke="lightblue" stroke-width="12" x1="5.94059" y1="255.423" x2="11.8812" y2="260.007" />
<line fill="none" stroke="lightblue" stroke-width="12" x1="11.8812" y1="260.007" x2="17.8218" y2="264.712" />
<line fill="none" stroke="lightblue" stroke-width="12" x1="17.8218" y1="264.712" x2="23.7624" y2="269.533" />
<line fill="none" stroke="lightblue" stroke-width="12" x1="23.7624" y1="269.533" x2="29.703" y2="272.864" />
<line fill="none" stroke="lightblue" stroke-width="12" x1="29.703" y1="272.864" x2="35.6436" y2="273.888" />
<line fill="none" stroke="lightblue" stroke-width="12" x1="35.6436" y1="273.888" x2="41.5842" y2="275.077" />
<line fill="none" stroke="lightblue" stroke-width="12" x1="41.5842" y1="275.077" x2="47.5248" y2="280.565" />
<line fill="none" stroke="lightblue" stroke-width="12" x1="47.5248" y1="280.565" x2="53.4653" y2="284.011" />
<line fill="none" stroke="lightblue" stroke-width="12" x1="53.4653" y1="284.011" x2="59.4059" y2="282.469" />
<line fill="none" stroke="lightblue" stroke-width="12" x1="59.4059" y1="282.469" x2="65.3465" y2="280.869" />
<line fill="none" stroke="lightblue" stroke-width="12" x1="65.3465" y1="280.869" x2="71.2871" y2="279.417" />
<line fill="none" stroke="lightblue" stroke-width="12" x1="71.2871" y1="279.417" x2="77.2277" y2="278.117" />
<line fill="none" stroke="lightblue" stroke-width="12" x1="77.2277" y1="278.117" x2="83.1683" y2="276.969" />
<line fill="none" stroke="lightblue" stroke-width="12" x1="83.1683" y1="276.969" x2="89.1089" y2="275.975" />
<line fill="none" stroke="lightblue" stroke-width="12" x1="89.1089" y1="275.975" x2="95.0495" y2="275.136" />
<line fill="none" stroke="lightblue" stroke-width="12" x1="95.0495" y1="275.136" x2="100.99" y2="274.452" />
<line fill="none" stroke="lightblue" stroke-width="12" x1="100.99" y1="274.452" x2="106.931" y2="273.924" />
<line fill="none" stroke="lightblue" stroke-width="12" x1="106.931" y1="273.924" x2="112.871" y2="273.553" />
<line fill="none" stroke="lightblue" stroke-width="12" x1="112.871" y1="273.553" x2="118.812" y2="273.34" />
<line fill="none" stroke="lightblue" stroke-width="12" x1="118.812" y1="273.34" x2="124.752" y2="273.284" />
<line fill="none" stroke="lightblue" stroke-width="12" x1="124.752" y1="273.284" x2="130.693" y2="273.385" />
<line fill="none" stroke="lightblue" stroke-width="12" x1="130.693" y1="273.385" x2="136.634" y2="273.645" />
<line fill="none" stroke="lightblue" stroke-width="12" x1="136.634" y1="273.645" x2="142.574" y2="274.27" />
<line fill="none" stroke="lightblue" stroke-width="12" x1="142.574" y1="274.27" x2="148.515" y2="276.285" />
<line fill="none" stroke="lightblue" stroke-width="12" x1="148.515" y1="276.285" x2="154.455" y2="278.73" />
<line fill="none" stroke="lightblue" stroke-width="12" x1="154.455" y1="278.73" x2="160.396" y2="281.598" />
<line fill="none" stroke="lightblue" stroke-width="12" x1="160.396" y1="281.598" x2="166.337" y2="284.881" />
<line fill="none" stroke="lightblue" stroke-width="12" x1="166.337" y1="284.881" x2="172.277" y2="288.569" />
<line fill="none" stroke="lightblue" stroke-width="12" x1="172.277" y1="288.569" x2="178.218" y2="292.651" />
<line fill="none" stroke="lightblue" stroke-width="12" x1="178.218" y1="292.651" x2="184.158" y2="297.119" />
<line fill="none" stroke="lightblue" stroke-width="12" x1="184.158" y1="297.119" x2="190.099" y2="301.958" />
<line fill="none" stroke="lightblue" stroke-width="12" x1="190.099" y1="301.958" x2="196.04" y2="307.159" />
<line fill="none" stroke="lightblue" stroke-width="12" x1="196.04" y1="307.159" x2="201.98" y2="312.709" />
<line fill="none" stroke="lightblue" stroke-width="12" x1="201.98" y1="312.709" x2="207.921" y2="322.17" />
<line fill="none" stroke="lightblue" stroke-width="12" x1="207.921" y1="322.17" x2="213.861" y2="335.119" />
<line fill="none" stroke="lightblue" stroke-width="12" x1="213.861" y1="335.119" x2="219.802" y2="348.499" />
<line fill="none" stroke="lightblue" stroke-width="12" x1="219.802" y1="348.499" x2="225.743" y2="356.085" />
<line fill="none" stroke="lightblue" stroke-width="12" x1="225.743" y1="356.085" x2="231.683" y2="356.168" />
<line fill="none" stroke="lightblue" stroke-width="12" x1="231.683" y1="356.168" x2="237.624" y2="347.078" />
<line fill="none" stroke="lightblue" stroke-width="12" x1="237.624" y1="347.078" x2="243.564" y2="358.418" />
<line fill="none" stroke="lightblue" stroke-width="12" x1="243.564" y1="358.418" x2="249.505" y2="366.716" />
<line fill="none" stroke="lightblue" stroke-width="12" x1="249.505" y1="366.716" x2="255.446" y2="373.209" />
<line fill="none" stroke="lightblue" stroke-width="12" x1="255.446" y1="373.209" x2="261.386" y2="382.823" />
<line fill="none" stroke="lightblue" stroke-width="12" x1="261.386" y1="382.823" x2="267.327" y2="403.755" />
<line fill="none" stroke="lightblue" stroke-width="12" x1="267.327" y1="403.755" x2="273.267" y2="442.291" />
<line fill="none" stroke="lightblue" stroke-width="12" x1="273.267" y1="442.291" x2="279.208" y2="483.651" />
<line fill="none" stroke="lightblue" stroke-width="12" x1="279.208" y1="483.651" x2="285.149" y2="524.123" />
<line fill="none" stroke="lightblue" stroke-width="12" x1="285.149" y1="524.123" x2="291.089" y2="560.121" />
<line fill="none" stroke="lightblue" stroke-width="12" x1="291.089" y1="560.121" x2="297.03" y2="599.904" />
<line fill="none" stroke-dasharray = "10, 10"  stroke="orange" stroke-width="6" x1="297.03" y1="300" x2="302.97" y2="300" />
<line fill="none" stroke-dasharray = "10, 10"  stroke="orange" stroke-width="6" x1="302.97" y1="300" x2="308.911" y2="300" />
<line fill="none" stroke-dasharray = "10, 10"  stroke="orange" stroke-width="6" x1="308.911" y1="300" x2="314.851" y2="300" />
<line fill="none" stroke-dasharray = "10, 10"  stroke="orange" stroke-width="6" x1="314.851" y1="300" x2="320.792" y2="300" />
<line fill="none" stroke-dasharray = "10, 10"  stroke="orange" stroke-width="6" x1="320.792" y1="300" x2="326.733" y2="300" />
<line fill="none" stroke-dasharray = "10, 10"  stroke="orange" stroke-width="6" x1="326.733" y1="300" x2="332.673" y2="300" />
<line fill="none" stroke-dasharray = "10, 10"  stroke="orange" stroke-width="6" x1="332.673" y1="300" x2="338.614" y2="300" />
<line fill="none" stroke-dasharray = "10, 10"  stroke="orange" stroke-width="6" x1="338.614" y1="300" x2="344.554" y2="300" />
<line fill="none" stroke-dasharray = "10, 10"  stroke="orange" stroke-width="6" x1="344.554" y1="300" x2="350.495" y2="300" />
<line fill="none" stroke-dasharray = "10, 10"  stroke="orange" stroke-width="6" x1="350.495" y1="300" x2="356.436" y2="300" />
<line fill="none" stroke-dasharray = "10, 10"  stroke="orange" stroke-width="6" x1="356.436" y1="300" x2="362.376" y2="300" />
<line fill="none" stroke-dasharray = "10, 10"  stroke="orange" stroke-width="6" x1="362.376" y1="300" x2="368.317" y2="300" />
<line fill="none" stroke-dasharray = "10, 10"  stroke="orange" stroke-width="6" x1="368.317" y1="300" x2="374.257" y2="300" />
<line fill="none" stroke-dasharray = "10, 10"  stroke="orange" stroke-width="6" x1="374.257" y1="300" x2="380.198" y2="300" />
<line fill="none" stroke-dasharray = "10, 10"  stroke="orange" stroke-width="6" x1="380.198" y1="300" x2="386.139" y2="300" />
<line fill="none" stroke-dasharray = "10, 10"  stroke="orange" stroke-width="6" x1="386.139" y1="300" x2="392.079" y2="300" />
<line fill="none" stroke-dasharray = "10, 10"  stroke="orange" stroke-width="6" x1="392.079" y1="300" x2="398.02" y2="300" />
<line fill="none" stroke-dasharray = "10, 10"  stroke="orange" stroke-width="6" x1="398.02" y1="300" x2="403.96" y2="300" />
<line fill="none" stroke-dasharray = "10, 10"  stroke="orange" stroke-width="6" x1="403.96" y1="300" x2="409.901" y2="300" />
<line fill="none" stroke-dasharray = "10, 10"  stroke="orange" stroke-width="6" x1="409.901" y1="300" x2="415.842" y2="300" />
<line fill="none" stroke-dasharray = "10, 10"  stroke="orange" stroke-width="6" x1="415.842" y1="300" x2="421.782" y2="300" />
<line fill="none" stroke-dasharray = "10, 10"  stroke="orange" stroke-width="6" x1="421.782" y1="300" x2="427.723" y2="300" />
<line fill="none" stroke-dasharray = "10, 10"  stroke="orange" stroke-width="6" x1="427.723" y1="300" x2="433.663" y2="300" />
<line fill="none" stroke-dasharray = "10, 10"  stroke="orange" stroke-width="6" x1="433.663" y1="300" x2="439.604" y2="300" />
<line fill="none" stroke-dasharray = "10, 10"  stroke="orange" stroke-width="6" x1="439.604" y1="300" x2="445.545" y2="300" />
<line fill="none" stroke-dasharray = "10, 10"  stroke="orange" stroke-width="6" x1="445.545" y1="300" x2="451.485" y2="300" />
<line fill="none" stroke-dasharray = "10, 10"  stroke="orange" stroke-width="6" x1="451.485" y1="300" x2="457.426" y2="300" />
<line fill="none" stroke-dasharray = "10, 10"  stroke="orange" stroke-width="6" x1="457.426" y1="300" x2="463.366" y2="300" />
<line fill="none" stroke-dasharray = "10, 10"  stroke="orange" stroke-width="6" x1="463.366" y1="300" x2="469.307" y2="300" />
<line fill="none" stroke-dasharray = "10, 10"  stroke="orange" stroke-width="6" x1="469.307" y1="300" x2="475.248" y2="300" />
<line fill="none" stroke-dasharray = "10, 10"  stroke="orange" stroke-width="6" x1="475.248" y1="300" x2="481.188" y2="300" />
<line fill="none" stroke-dasharray = "10, 10"  stroke="orange" stroke-width="6" x1="481.188" y1="300" x2="487.129" y2="300" />
<line fill="none" stroke-dasharray = "10, 10"  stroke="orange" stroke-width="6" x1="487.129" y1="300" x2="493.069" y2="300" />
<line fill="none" stroke-dasharray = "10, 10"  stroke="orange" stroke-width="6" x1="493.069" y1="300" x2="499.01" y2="300" />
<line fill="none" stroke-dasharray = "10, 10"  stroke="orange" stroke-width="6" x1="499.01" y1="300" x2="504.95" y2="300" />
<line fill="none" stroke-dasharray = "10, 10"  stroke="orange" stroke-width="6" x1="504.95" y1="300" x2="510.891" y2="300" />
<line fill="none" stroke-dasharray = "10, 10"  stroke="orange" stroke-width="6" x1="510.891" y1="300" x2="516.832" y2="300" />
<line fill="none" stroke-dasharray = "10, 10"  stroke="orange" stroke-width="6" x1="516.832" y1="300" x2="522.772" y2="300" />
<line fill="none" stroke-dasharray = "10, 10"  stroke="orange" stroke-width="6" x1="522.772" y1="300" x2="528.713" y2="300" />
<line fill="none" stroke-dasharray = "10, 10"  stroke="orange" stroke-width="6" x1="528.713" y1="300" x2="534.653" y2="300" />
<line fill="none" stroke-dasharray = "10, 10"  stroke="orange" stroke-width="6" x1="534.653" y1="300" x2="540.594" y2="300" />
<line fill="none" stroke-dasharray = "10, 10"  stroke="orange" stroke-width="6" x1="540.594" y1="300" x2="546.535" y2="300" />
<line fill="none" stroke-dasharray = "10, 10"  stroke="orange" stroke-width="6" x1="546.535" y1="300" x2="552.475" y2="300" />
<line fill="none" stroke-dasharray = "10, 10"  stroke="orange" stroke-width="6" x1="552.475" y1="300" x2="558.416" y2="300" />
<line fill="none" stroke-dasharray = "10, 10"  stroke="orange" stroke-width="6" x1="558.416" y1="300" x2="564.356" y2="300" />
<line fill="none" stroke-dasharray = "10, 10"  stroke="orange" stroke-width="6" x1="564.356" y1="300" x2="570.297" y2="300" />
<line fill="none" stroke-dasharray = "10, 10"  stroke="orange" stroke-width="6" x1="570.297" y1="300" x2="576.238" y2="300" />
<line fill="none" stroke-dasharray = "10, 10"  stroke="orange" stroke-width="6" x1="576.238" y1="300" x2="582.178" y2="300" />
<line fill="none" stroke-dasharray = "10, 10"  stroke="orange" stroke-width="6" x1="582.178" y1="300" x2="588.119" y2="300" />
<line fill="none" stroke-dasharray = "10, 10"  stroke="orange" stroke-width="6" x1="588.119" y1="300" x2="594.059" y2="300" />
<line fill="none" stroke="olive" stroke-width="3" x1="0" y1="299.98" x2="5.94059" y2="299.98" />
<line fill="none" stroke="olive" stroke-width="3" x1="5.94059" y1="299.98" x2="11.8812" y2="304.207" />
<line fill="none" stroke="olive" stroke-width="3" x1="11.8812" y1="304.207" x2="17.8218" y2="308.551" />
<line fill="none" stroke="olive" stroke-width="3" x1="17.8218" y1="308.551" x2="23.7624" y2="313.006" />
<line fill="none" stroke="olive" stroke-width="3" x1="23.7624" y1="313.006" x2="29.703" y2="317.572" />
<line fill="none" stroke="olive" stroke-width="3" x1="29.703" y1="317.572" x2="35.6436" y2="322.243" />
<line fill="none" stroke="olive" stroke-width="3" x1="35.6436" y1="322.243" x2="41.5842" y2="327.018" />
<line fill="none" stroke="olive" stroke-width="3" x1="41.5842" y1="327.018" x2="47.5248" y2="331.497" />
<line fill="none" stroke="olive" stroke-width="3" x1="47.5248" y1="331.497" x2="53.4653" y2="335.793" />
<line fill="none" stroke="olive" stroke-width="3" x1="53.4653" y1="335.793" x2="59.4059" y2="340.188" />
<line fill="none" stroke="olive" stroke-width="3" x1="59.4059" y1="340.188" x2="65.3465" y2="344.678" />
<line fill="none" stroke="olive" stroke-width="3" x1="65.3465" y1="344.678" x2="71.2871" y2="349.261" />
<line fill="none" stroke="olive" stroke-width="3" x1="71.2871" y1="349.261" x2="77.2277" y2="353.936" />
<line fill="none" stroke="olive" stroke-width="3" x1="77.2277" y1="353.936" x2="83.1683" y2="358.698" />
<line fill="none" stroke="olive" stroke-width="3" x1="83.1683" y1="358.698" x2="89.1089" y2="356.339" />
<line fill="none" stroke="olive" stroke-width="3" x1="89.1089" y1="356.339" x2="95.0495" y2="352.995" />
<line fill="none" stroke="olive" stroke-width="3" x1="95.0495" y1="352.995" x2="100.99" y2="349.763" />
<line fill="none" stroke="olive" stroke-width="3" x1="100.99" y1="349.763" x2="106.931" y2="346.645" />
<line fill="none" stroke="olive" stroke-width="3" x1="106.931" y1="346.645" x2="112.871" y2="343.641" />
<line fill="none" stroke="olive" stroke-width="3" x1="112.871" y1="343.641" x2="118.812" y2="340.756" />
<line fill="none" stroke="olive" stroke-width="3" x1="118.812" y1="340.756" x2="124.752" y2="337.99" />
<line fill="none" stroke="olive" stroke-width="3" x1="124.752" y1="337.99" x2="130.693" y2="335.346" />
<line fill="none" stroke="olive" stroke-width="3" x1="130.693" y1="335.346" x2="136.634" y2="332.825" />
<line fill="none" stroke="olive" stroke-width="3" x1="136.634" y1="332.825" x2="142.574" y2="274.27" />
<line fill="none" stroke="olive" stroke-width="3" x1="142.574" y1="274.27" x2="148.515" y2="276.285" />
<line fill="none" stroke="olive" stroke-width="3" x1="148.515" y1="276.285" x2="154.455" y2="278.73" />
<line fill="none" stroke="olive" stroke-width="3" x1="154.455" y1="278.73" x2="160.396" y2="281.598" />
<line fill="none" stroke="olive" stroke-width="3" x1="160.396" y1="281.598" x2="166.337" y2="284.881" />
<line fill="none" stroke="olive" stroke-width="3" x1="166.337" y1="284.881" x2="172.277" y2="288.569" />
<line fill="none" stroke="olive" stroke-width="3" x1="172.277" y1="288.569" x2="178.218" y2="292.651" />
<line fill="none" stroke="olive" stroke-width="3" x1="178.218" y1="292.651" x2="184.158" y2="297.119" />
<line fill="none" stroke="olive" stroke-width="3" x1="184.158" y1="297.119" x2="190.099" y2="301.958" />
<line fill="none" stroke="olive" stroke-width="3" x1="190.099" y1="301.958" x2="196.04" y2="307.159" />
<line fill="none" stroke="olive" stroke-width="3" x1="196.04" y1="307.159" x2="201.98" y2="312.709" />
<line fill="none" stroke="olive" stroke-width="3" x1="201.98" y1="312.709" x2="207.921" y2="398.402" />
<line fill="none" stroke="olive" stroke-width="3" x1="207.921" y1="398.402" x2="213.861" y2="388.421" />
<line fill="none" stroke="olive" stroke-width="3" x1="213.861" y1="388.421" x2="219.802" y2="378.985" />
<line fill="none" stroke="olive" stroke-width="3" x1="219.802" y1="378.985" x2="225.743" y2="370.125" />
<line fill="none" stroke="olive" stroke-width="3" x1="225.743" y1="370.125" x2="231.683" y2="361.87" />
<line fill="none" stroke="olive" stroke-width="3" x1="231.683" y1="361.87" x2="237.624" y2="348.438" />
<line fill="none" stroke="olive" stroke-width="3" x1="237.624" y1="348.438" x2="243.564" y2="320.997" />
<line fill="none" stroke="olive" stroke-width="3" x1="243.564" y1="320.997" x2="249.505" y2="294.61" />
<line fill="none" stroke="olive" stroke-width="3" x1="249.505" y1="294.61" x2="255.446" y2="269.479" />
<line fill="none" stroke="olive" stroke-width="3" x1="255.446" y1="269.479" x2="261.386" y2="245.542" />
<line fill="none" stroke="olive" stroke-width="3" x1="261.386" y1="245.542" x2="267.327" y2="213.682" />
<line fill="none" stroke="olive" stroke-width="3" x1="267.327" y1="213.682" x2="273.267" y2="167.493" />
<line fill="none" stroke="olive" stroke-width="3" x1="273.267" y1="167.493" x2="279.208" y2="123.26" />
<line fill="none" stroke="olive" stroke-width="3" x1="279.208" y1="123.26" x2="285.149" y2="82.1753" />
<line fill="none" stroke="olive" stroke-width="3" x1="285.149" y1="82.1753" x2="291.089" y2="44.1362" />
<line fill="none" stroke="olive" stroke-width="3" x1="291.089" y1="44.1362" x2="297.03" y2="41.471" />
<line fill="none" stroke-dasharray = "10, 10"  stroke="orange" stroke-width="6" x1="297.03" y1="300" x2="302.97" y2="300" />
<line fill="none" stroke-dasharray = "10, 10"  stroke="orange" stroke-width="6" x1="302.97" y1="300" x2="308.911" y2="300" />
<line fill="none" stroke-dasharray = "10, 10"  stroke="orange" stroke-width="6" x1="308.911" y1="300" x2="314.851" y2="300" />
<line fill="none" stroke-dasharray = "10, 10"  stroke="orange" stroke-width="6" x1="314.851" y1="300" x2="320.792" y2="300" />
<line fill="none" stroke-dasharray = "10, 10"  stroke="orange" stroke-width="6" x1="320.792" y1="300" x2="326.733" y2="300" />
<line fill="none" stroke-dasharray = "10, 10"  stroke="orange" stroke-width="6" x1="326.733" y1="300" x2="332.673" y2="300" />
<line fill="none" stroke-dasharray = "10, 10"  stroke="orange" stroke-width="6" x1="332.673" y1="300" x2="338.614" y2="300" />
<line fill="none" stroke-dasharray = "10, 10"  stroke="orange" stroke-width="6" x1="338.614" y1="300" x2="344.554" y2="300" />
<line fill="none" stroke-dasharray = "10, 10"  stroke="orange" stroke-width="6" x1="344.554" y1="300" x2="350.495" y2="300" />
<line fill="none" stroke-dasharray = "10, 10"  stroke="orange" stroke-width="6" x1="350.495" y1="300" x2="356.436" y2="300" />
<line fill="none" stroke-dasharray = "10, 10"  stroke="orange" stroke-width="6" x1="356.436" y1="300" x2="362.376" y2="300" />
<line fill="none" stroke-dasharray = "10, 10"  stroke="orange" stroke-width="6" x1="362.376" y1="300" x2="368.317" y2="300" />
<line fill="none" stroke-dasharray = "10, 10"  stroke="orange" stroke-width="6" x1="368.317" y1="300" x2="374.257" y2="300" />
<line fill="none" stroke-dasharray = "10, 10"  stroke="orange" stroke-width="6" x1="374.257" y1="300" x2="380.198" y2="300" />
<line fill="none" stroke-dasharray = "10, 10"  stroke="orange" stroke-width="6" x1="380.198" y1="300" x2="386.139" y2="300" />
<line fill="none" stroke-dasharray = "10, 10"  stroke="orange" stroke-width="6" x1="386.139" y1="300" x2="392.079" y2="300" />
<line fill="none" stroke-dasharray = "10, 10"  stroke="orange" stroke-width="6" x1="392.079" y1="300" x2="398.02" y2="300" />
<line fill="none" stroke-dasharray = "10, 10"  stroke="orange" stroke-width="6" x1="398.02" y1="300" x2="403.96" y2="300" />
<line fill="none" stroke-dasharray = "10, 10"  stroke="orange" stroke-width="6" x1="403.96" y1="300" x2="409.901" y2="300" />
<line fill="none" stroke-dasharray = "10, 10"  stroke="orange" stroke-width="6" x1="409.901" y1="300" x2="415.842" y2="300" />
<line fill="none" stroke-dasharray = "10, 10"  stroke="orange" stroke-width="6" x1="415.842" y1="300" x2="421.782" y2="300" />
<line fill="none" stroke-dasharray = "10, 10"  stroke="orange" stroke-width="6" x1="421.782" y1="300" x2="427.723" y2="300" />
<line fill="none" stroke-dasharray = "10, 10"  stroke="orange" stroke-width="6" x1="427.723" y1="300" x2="433.663" y2="300" />
<line fill="none" stroke-dasharray = "10, 10"  stroke="orange" stroke-width="6" x1="433.663" y1="300" x2="439.604" y2="300" />
<line fill="none" stroke-dasharray = "10, 10"  stroke="orange" stroke-width="6" x1="439.604" y1="300" x2="445.545" y2="300" />
<line fill="none" stroke-dasharray = "10, 10"  stroke="orange" stroke-width="6" x1="445.545" y1="300" x2="451.485" y2="300" />
<line fill="none" stroke-dasharray = "10, 10"  stroke="orange" stroke-width="6" x1="451.485" y1="300" x2="457.426" y2="300" />
<line fill="none" stroke-dasharray = "10, 10"  stroke="orange" stroke-width="6" x1="457.426" y1="300" x2="463.366" y2="300" />
<line fill="none" stroke-dasharray = "10, 10"  stroke="orange" stroke-width="6" x1="463.366" y1="300" x2="469.307" y2="300" />
<line fill="none" stroke-dasharray = "10, 10"  stroke="orange" stroke-width="6" x1="469.307" y1="300" x2="475.248" y2="300" />
<line fill="none" stroke-dasharray = "10, 10"  stroke="orange" stroke-width="6" x1="475.248" y1="300" x2="481.188" y2="300" />
<line fill="none" stroke-dasharray = "10, 10"  stroke="orange" stroke-width="6" x1="481.188" y1="300" x2="487.129" y2="300" />
<line fill="none" stroke-dasharray = "10, 10"  stroke="orange" stroke-width="6" x1="487.129" y1="300" x2="493.069" y2="300" />
<line fill="none" stroke-dasharray = "10, 10"  stroke="orange" stroke-width="6" x1="493.069" y1="300" x2="499.01" y2="300" />
<line fill="none" stroke-dasharray = "10, 10"  stroke="orange" stroke-width="6" x1="499.01" y1="300" x2="504.95" y2="300" />
<line fill="none" stroke-dasharray = "10, 10"  stroke="orange" stroke-width="6" x1="504.95" y1="300" x2="510.891" y2="300" />
<line fill="none" stroke-dasharray = "10, 10"  stroke="orange" stroke-width="6" x1="510.891" y1="300" x2="516.832" y2="300" />
<line fill="none" stroke-dasharray = "10, 10"  stroke="orange" stroke-width="6" x1="516.832" y1="300" x2="522.772" y2="300" />
<line fill="none" stroke-dasharray = "10, 10"  stroke="orange" stroke-width="6" x1="522.772" y1="300" x2="528.713" y2="300" />
<line fill="none" stroke-dasharray = "10, 10"  stroke="orange" stroke-width="6" x1="528.713" y1="300" x2="534.653" y2="300" />
<line fill="none" stroke-dasharray = "10, 10"  stroke="orange" stroke-width="6" x1="534.653" y1="300" x2="540.594" y2="300" />
<line fill="none" stroke-dasharray = "10, 10"  stroke="orange" stroke-width="6" x1="540.594" y1="300" x2="546.535" y2="300" />
<line fill="none" stroke-dasharray = "10, 10"  stroke="orange" stroke-width="6" x1="546.535" y1="300" x2="552.475" y2="300" />
<line fill="none" stroke-dasharray = "10, 10"  stroke="orange" stroke-width="6" x1="552.475" y1="300" x2="558.416" y2="300" />
<line fill="none" stroke-dasharray = "10, 10"  stroke="orange" stroke-width="6" x1="558.416" y1="300" x2="564.356" y2="300" />
<line fill="none" stroke-dasharray = "10, 10"  stroke="orange" stroke-width="6" x1="564.356" y1="300" x2="570.297" y2="300" />
<line fill="none" stroke-dasharray = "10, 10"  stroke="orange" stroke-width="6" x1="570.297" y1="300" x2="576.238" y2="300" />
<line fill="none" stroke-dasharray = "10, 10"  stroke="orange" stroke-width="6" x1="576.238" y1="300" x2="582.178" y2="300" />
<line fill="none" stroke-dasharray = "10, 10"  stroke="orange" stroke-width="6" x1="582.178" y1="300" x2="588.119" y2="300" />
<line fill="none" stroke-dasharray = "10, 10"  stroke="orange" stroke-width="6" x1="588.119" y1="300" x2="594.059" y2="300" />

<!--Draw Glitches -->

<line fill="none" stroke="black" stroke-width="4" x1="302.97" y1="-175" x2="302.97" y2="-225"  stroke-dasharray = "10,5" />
<text transform="scale(1,-1)" font-family="sans-serif" font-size="30" stroke = "rgb(0,0,0)" line = "rgb(0,0,0)"  fill = "lightblue" x="307.97" y="225" >50</text>

<!-- -->


<!--Draw Glitches -->

<line fill="none" stroke="black" stroke-width="4" x1="142.574" y1="264.27" x2="142.574" y2="214.27"  stroke-dasharray = "10,5" />
<text transform="scale(1,-1)" font-family="sans-serif" font-size="30" stroke = "rgb(0,0,0)" line = "rgb(0,0,0)"  fill = "olive" x="147.574" y="-214.27" >23</text>
<line fill="none" stroke="black" stroke-width="4" x1="207.921" y1="388.402" x2="207.921" y2="338.402"  stroke-dasharray = "10,5" />
<text transform="scale(1,-1)" font-family="sans-serif" font-size="30" stroke = "rgb(0,0,0)" line = "rgb(0,0,0)"  fill = "olive" x="212.921" y="-338.402" >34</text>
<line fill="none" stroke="black" stroke-width="4" x1="291.089" y1="34.1362" x2="291.089" y2="-15.8638"  stroke-dasharray = "10,5" />
<text transform="scale(1,-1)" font-family="sans-serif" font-size="30" stroke = "rgb(0,0,0)" line = "rgb(0,0,0)"  fill = "olive" x="296.089" y="15.8638" >48</text>
<line fill="none" stroke="black" stroke-width="4" x1="302.97" y1="-175" x2="302.97" y2="-225"  stroke-dasharray = "10,5" />
<text transform="scale(1,-1)" font-family="sans-serif" font-size="30" stroke = "rgb(0,0,0)" line = "rgb(0,0,0)"  fill = "olive" x="307.97" y="225" >50</text>

<!-- -->


<!--Draw the X and Y axes -->
<polyline fill="none" stroke="black" stroke-width="6"  points=" 600,0 0,0 0, 600" />
<polyline fill="none" stroke="black" stroke-width="1"  points=" 0 600  600 600  600 0" />
<!-- -->


<!--Draw labels and tics for X axis -->

<line fill="none" stroke="black"  stroke-width="6"  x1="0.5" y1="0" x2="0.5" y2="-20" />
<text transform="scale(1,-1)" font-family="sans-serif" font-size="30" x="-24.5" y="45" >0</text>
<line fill="none" stroke="black"  stroke-width="6"  x1="119.312" y1="0" x2="119.312" y2="-20" />
<text transform="scale(1,-1)" font-family="sans-serif" font-size="30" x="94.3119" y="45" >20</text>
<line fill="none" stroke="black"  stroke-width="6"  x1="238.124" y1="0" x2="238.124" y2="-20" />
<text transform="scale(1,-1)" font-family="sans-serif" font-size="30" x="213.124" y="45" >40</text>
<line fill="none" stroke="black"  stroke-width="6"  x1="356.936" y1="0" x2="356.936" y2="-20" />
<text transform="scale(1,-1)" font-family="sans-serif" font-size="30" x="331.936" y="45" >60</text>
<line fill="none" stroke="black"  stroke-width="6"  x1="475.748" y1="0" x2="475.748" y2="-20" />
<text transform="scale(1,-1)" font-family="sans-serif" font-size="30" x="450.748" y="45" >80</text>
<line fill="none" stroke="black"  stroke-width="6"  x1="594.559" y1="0" x2="594.559" y2="-20" />
<text transform="scale(1,-1)" font-family="sans-serif" font-size="30" x="569.559" y="45" >100</text>


<!--Draw labels and tics for Y axis -->

<line fill="none" stroke="black" stroke-width="6" x1="0.0" y1="0" x2="-20" y2="0" />
<text transform="scale(1,-1)" text-anchor="end" font-family="sans-serif" font-size="30" x="-25" y="10" >10</text>
<line fill="none" stroke="black" stroke-width="6" x1="0.0" y1="150" x2="-20" y2="150" />
<text transform="scale(1,-1)" text-anchor="end" font-family="sans-serif" font-size="30" x="-25" y="-140" >20</text>
<line fill="none" stroke="black" stroke-width="6" x1="0.0" y1="300" x2="-20" y2="300" />
<text transform="scale(1,-1)" text-anchor="end" font-family="sans-serif" font-size="30" x="-25" y="-290" >30</text>
<line fill="none" stroke="black" stroke-width="6" x1="0.0" y1="450" x2="-20" y2="450" />
<text transform="scale(1,-1)" text-anchor="end" font-family="sans-serif" font-size="30" x="-25" y="-440" >40</text>
<line fill="none" stroke="black" stroke-width="6" x1="0.0" y1="600" x2="-20" y2="600" />
<text transform="scale(1,-1)" text-anchor="end" font-family="sans-serif" font-size="30" x="-25" y="-590" >50</text>

-->
</g>
</g>
<!-- Run Constants
PRINTDISTANCEDATA bool true
GLITCHESONLY bool true
PLOT 2doubles 3 4
PERTURBBY double 0.05
GLITCHLEVEL double 3
BOUNDARYWINDOW double 0.065
FRAMESPERPATH int 200
STEPSPERFRAME int 100
TRIALS int 1
ALLBLACK bool true
FILEPREFIX string Fol
GRAPHSIZE int 0
BORDER int 0
PLOTSIZE int 0
G6LINEWIDTH int 3
DELONELINEWIDTH int 10
AXISWIDTH int 6
TICLENGTH int 20
VECTOR g6 
FOLLOWERMODE FollowerMode line
FIXRANDOMSEED fixRandomSeed false
RANDOMSEED int 19191
TIMESTAMP bool true
END end 




-->
</svg>
