<?xml version="1.0" standalone="no"?>
<!-- the width and height set the total pixel output of the image in the browser -->
<!-- whatever is within the viewbox will be remapped to show in this size -->
<svg width="900" height="900" viewBox="1 0 900 900"  version="1.1" xmlns="http://www.w3.org/2000/svg" xmlns:xlink="http://www.w3.org/1999/xlink">
 <desc>ID (and file name) = Fol_2018-05-26.10_18_55.0_19.svg  mode = LINE3 </desc> 
<text x = "-750" y="50" transform="rotate(-90)"  font-family="sans-serif" font-size="40" stroke ="lightgray" fill="none"> PointDistanceFollower   May 26 2018</text>
 <text x="560" y="30" font-family="sans-serif" font-size="20">Wall time passed: 12278 msec.</text>
<text x="300" y="60"   font-family="sans-serif" font-size="20" fill="lightblue">S6  lightblue</text>
<text x="300" y="85"   font-family="sans-serif" font-size="20" fill="slategrey">NCDist  slategrey</text>
<text x="300" y="110"  font-family="sans-serif" font-size="20" fill="violet">D7  violet</text>
<text x="300" y="135"  font-family="sans-serif" font-size="20" fill="olive">CS6Dist  olive</text>

 <text x="140"  y="30"  font-family="sans-serif" font-size="20" >Fol_2018-05-26.10_18_55.0_19.svg  </text> 


 <!--DISTANCE PLOT BEGINS   mode = LINE3-->


<!-- the following will scale and place the distance plot -->
<g  transform="translate(0, 50) ">
<g transform="translate(150,700) scale(1 -1)">
   <polyline fill="none" stroke=" lightblue " stroke-width=" 12 " points=" 0.599401,184.968 1.1988,184.035 1.7982,183.106 2.3976,182.18 2.997,181.258 3.5964,180.34 4.1958,179.426 4.7952,178.515 5.39461,177.609 5.99401,176.706 6.59341,175.808 7.19281,174.914 7.79221,174.023 8.39161,173.137 8.99101,172.255 9.59041,171.377 10.1898,170.503 10.7892,169.633 11.3886,168.768 11.988,167.907 12.5874,167.05 13.1868,166.198 13.7862,165.35 14.3856,164.506 14.985,163.667 15.5844,162.833 16.1838,162.003 16.7832,161.177 17.3826,160.356 17.982,159.54 18.5814,158.729 19.1808,157.922 19.7802,157.12 20.3796,156.323 20.979,155.53 21.5784,154.743 22.1778,153.96 22.7772,153.183 23.3766,152.41 23.976,151.643 24.5754,150.88 25.1748,150.123 25.7742,149.371 26.3736,148.623 26.973,147.882 27.5724,147.145 28.1718,146.414 28.7712,145.688 29.3706,144.967 29.97,144.252 30.5694,143.542 31.1688,142.838 31.7682,142.14 32.3676,141.447 32.967,140.759 33.5664,140.077 34.1658,139.401 34.7652,138.731 35.3646,138.066 35.964,137.408 36.5634,136.755 37.1628,136.108 37.7622,135.467 38.3616,134.832 38.961,134.203 39.5604,133.58 40.1598,132.963 40.7592,132.352 41.3586,131.747 41.958,131.149 42.5574,130.557 43.1568,129.971 43.7562,129.392 44.3556,128.819 44.955,128.252 45.5544,127.692 46.1538,127.138 46.7532,126.591 47.3526,126.05 47.952,125.516 48.5514,124.989 49.1508,124.468 49.7502,123.954 50.3497,123.447 50.9491,122.947 51.5485,122.453 52.1479,121.967 52.7473,121.487 53.3467,121.014 53.9461,120.267 54.5455,119.409 55.1449,118.556 55.7443,117.709 56.3437,116.866 56.9431,116.029 57.5425,115.197 58.1419,114.371 58.7413,113.55 59.3407,112.734 59.9401,111.924 60.5395,111.119 61.1389,110.321 61.7383,109.527 62.3377,108.74 62.9371,107.958 63.5365,107.183 64.1359,106.413 64.7353,105.649 65.3347,104.891 65.9341,104.139 66.5335,103.393 67.1329,102.654 67.7323,101.92 68.3317,101.193 68.9311,100.473 69.5305,99.7582 70.1299,99.0503 70.7293,98.3488 71.3287,97.6539 71.9281,96.9657 72.5275,96.284 73.1269,95.6091 73.7263,94.941 74.3257,94.2797 74.9251,93.6253 75.5245,92.9778 76.1239,92.3373 76.7233,91.7039 77.3227,91.0775 77.9221,90.4583 78.5215,89.8464 79.1209,89.2417 79.7203,88.6443 80.3197,88.0543 80.9191,87.4718 81.5185,86.8967 82.1179,86.3292 82.7173,85.7693 83.3167,85.217 83.9161,84.6725 84.5155,84.1357 85.1149,83.6068 85.7143,83.0857 86.3137,82.5725 86.9131,82.0673 87.5125,81.5701 88.1119,81.081 88.7113,80.6 89.3107,80.1273 89.9101,79.6627 90.5095,79.2064 91.1089,78.7585 91.7083,78.319 92.3077,77.8878 92.9071,77.4652 93.5065,77.051 94.1059,76.6455 94.7053,76.2486 95.3047,75.8603 95.9041,75.4807 96.5035,75.1099 97.1029,74.7479 97.7023,74.3947 98.3017,74.0504 98.9011,73.715 99.5005,73.3886 100.1,73.0711 100.699,72.7627 101.299,72.4634 101.898,72.1732 102.498,71.8922 103.097,71.6203 103.696,71.3576 104.296,71.1042 104.895,70.8601 105.495,70.6253 106.094,70.3998 106.693,70.1837 107.293,69.977 107.892,69.7797 108.492,69.5919 109.091,69.4136 109.69,69.2447 110.29,69.0854 110.889,68.9356 111.489,68.7953 112.088,68.6647 112.687,68.5436 113.287,68.4322 113.886,68.3303 114.486,68.2381 115.085,68.1556 115.684,68.0827 116.284,68.0195 116.883,67.966 117.483,67.9222 118.082,67.8881 118.681,67.8636 119.281,67.8489 119.88,67.8438 120.48,67.8485 121.079,67.8629 121.678,67.887 122.278,67.9207 122.877,67.9642 123.477,68.0174 124.076,68.0802 124.675,68.1527 125.275,68.2349 125.874,68.3267 126.474,68.4282 127.073,68.5393 127.672,68.66 128.272,68.7903 128.871,68.9301 129.471,69.0796 130.07,69.2386 130.669,69.4071 131.269,69.5851 131.868,69.7725 132.468,69.9695 133.067,70.1758 133.666,70.3916 134.266,70.3006 134.865,69.9134 135.465,69.5349 136.064,69.1651 136.663,68.8042 137.263,68.4522 137.862,68.1091 138.462,67.775 139.061,67.4498 139.66,67.1337 140.26,66.8266 140.859,66.5287 141.459,66.2399 142.058,65.9603 142.657,65.6899 143.257,65.4288 143.856,65.177 144.456,64.9345 145.055,63.947 145.654,62.9489 146.254,61.9668 146.853,61.001 147.453,60.0515 148.052,59.1187 148.651,58.2028 149.251,57.304 149.85,56.4226 150.45,55.5587 151.049,54.7125 151.648,53.8844 152.248,53.0745 152.847,52.283 153.447,51.5102 154.046,50.7562 154.645,50.0214 155.245,49.3058 155.844,48.6097 156.444,47.9334 157.043,47.2769 157.642,46.6406 158.242,46.0245 158.841,45.429 159.441,44.8542 160.04,44.3002 160.639,43.7673 161.239,43.2556 161.838,42.7652 162.438,42.2965 163.037,41.8495 163.636,41.4243 164.236,41.0211 164.835,40.6401 165.435,40.2814 166.034,39.9451 166.633,39.6313 167.233,39.3402 167.832,39.0718 168.432,38.8262 169.031,38.6036 169.63,38.404 170.23,38.2275 170.829,38.0741 171.429,37.944 172.028,37.8371 172.627,37.7535 173.227,37.6932 173.826,37.6563 174.426,37.6428 175.025,37.6526 175.624,37.6858 176.224,37.7423 176.823,37.8222 177.423,37.9254 178.022,38.0518 178.621,38.2015 179.221,38.3743 179.82,38.5702 180.42,38.7892 181.019,39.0311 181.618,39.2958 182.218,39.5834 182.817,39.8935 183.417,40.2263 184.016,40.5814 184.615,40.9589 185.215,41.3585 185.814,41.7802 186.414,42.2238 187.013,42.6891 187.612,43.176 188.212,43.6843 188.811,44.2138 189.411,44.7644 190.01,45.336 190.609,45.9282 191.209,46.541 191.808,47.1741 192.408,47.8274 193.007,48.5006 193.606,49.1935 194.206,49.906 194.805,50.6378 195.405,51.3887 196.004,52.1585 196.603,52.9471 197.203,53.754 197.802,54.5793 198.402,55.4226 199.001,56.2837 199.6,57.1623 200.2,58.0584 200.799,58.9716 201.399,59.9017 201.998,60.8485 202.597,61.8118 203.197,62.7913 203.796,63.7868 204.396,64.7982 204.995,65.8251 205.594,66.8674 206.194,67.9249 206.793,68.9972 207.393,70.0843 207.992,71.1858 208.591,72.3016 209.191,73.4315 209.79,74.5752 210.39,75.7325 210.989,76.9033 211.588,78.0873 212.188,79.2843 212.787,80.4941 213.387,81.7165 213.986,82.9513 214.585,84.1984 215.185,85.4574 215.784,86.7283 216.384,88.0108 216.983,89.3048 217.582,90.6101 218.182,91.9264 218.781,93.2536 219.381,94.5916 219.98,95.9401 220.579,97.299 221.179,98.6681 221.778,100.047 222.378,101.436 222.977,102.835 223.576,104.243 224.176,105.661 224.775,107.088 225.375,108.524 225.974,109.969 226.573,111.423 227.173,112.885 227.772,114.356 228.372,115.835 228.971,117.323 229.57,118.818 230.17,120.322 230.769,121.833 231.369,123.352 231.968,124.879 232.567,126.413 233.167,127.954 233.766,129.502 234.366,131.058 234.965,132.62 235.564,134.19 236.164,135.766 236.763,137.349 237.363,138.938 237.962,140.533 238.561,142.135 239.161,143.743 239.76,145.358 240.36,146.978 240.959,148.604 241.558,150.236 242.158,151.873 242.757,153.517 243.357,155.165 243.956,156.819 244.555,158.479 245.155,160.144 245.754,161.814 246.354,163.489 246.953,165.169 247.552,166.854 248.152,168.544 248.751,170.238 249.351,171.937 249.95,173.641 250.549,175.35 251.149,177.063 251.748,178.78 252.348,180.502 252.947,182.228 253.546,183.958 254.146,185.693 254.745,187.431 255.345,189.174 255.944,190.92 256.543,192.67 257.143,194.424 257.742,196.182 258.342,197.944 258.941,199.709 259.54,201.478 260.14,203.251 260.739,205.027 261.339,206.806 261.938,208.589 262.537,210.375 263.137,212.165 263.736,213.958 264.336,215.754 264.935,217.553 265.534,219.355 266.134,221.16 266.733,222.968 267.333,224.78 267.932,226.594 268.531,228.411 269.131,230.231 269.73,232.054 270.33,233.879 270.929,235.707 271.528,237.538 272.128,239.372 272.727,241.208 273.327,243.047 273.926,244.888 274.525,246.732 275.125,248.579 275.724,250.427 276.324,252.278 276.923,254.132 277.522,255.988 278.122,257.846 278.721,259.707 279.321,261.569 279.92,263.434 280.519,265.301 281.119,267.171 281.718,269.042 282.318,270.915 282.917,272.791 283.516,274.669 284.116,276.548 284.715,278.43 285.315,280.313 285.914,282.199 286.513,284.086 287.113,285.976 287.712,287.867 288.312,289.76 288.911,291.655 289.51,293.551 290.11,295.45 290.709,297.35 291.309,299.252 291.908,301.155 292.507,303.06 293.107,304.967 293.706,306.876 294.306,308.786 294.905,310.574 295.504,310.416 296.104,310.267 296.703,310.128 297.303,309.998 297.902,309.877 298.501,309.767 299.101,309.665 299.7,309.574 300.3,309.491 300.899,309.416 301.499,309.332 302.098,309.257 302.697,309.192 303.297,309.136 303.896,309.089 304.496,309.053 305.095,309.025 305.694,309.008 306.294,308.999 306.893,309.001 307.493,309.012 308.092,309.032 308.691,309.062 309.291,309.102 309.89,309.151 310.49,309.21 311.089,309.278 311.688,309.356 312.288,309.443 312.887,309.54 313.487,309.647 314.086,309.762 314.685,309.888 315.285,310.023 315.884,310.167 316.484,310.321 317.083,310.484 317.682,310.657 318.282,310.839 318.881,311.031 319.481,311.232 320.08,311.443 320.679,311.663 321.279,311.697 321.878,311.717 322.478,311.745 323.077,311.784 323.676,311.832 324.276,311.889 324.875,311.956 325.475,312.032 326.074,312.118 326.673,312.214 327.273,312.318 327.872,312.433 328.472,312.556 329.071,312.689 329.67,312.832 330.27,312.984 330.869,313.145 331.469,313.316 332.068,313.496 332.667,313.686 333.267,313.885 333.866,314.093 334.466,314.311 335.065,314.538 335.664,314.774 336.264,315.02 336.863,315.275 337.463,315.539 338.062,315.813 338.661,316.096 339.261,316.388 339.86,316.689 340.46,316.999 341.059,317.319 341.658,317.648 342.258,317.985 342.857,318.332 343.457,318.689 344.056,319.054 344.655,319.428 345.255,319.811 345.854,320.204 346.454,320.605 347.053,321.015 347.652,321.434 348.252,321.862 348.851,322.299 349.451,322.745 350.05,323.2 350.649,323.664 351.249,324.136 351.848,324.617 352.448,325.107 353.047,325.606 353.646,326.113 354.246,326.629 354.845,327.153 355.445,327.686 356.044,328.228 356.643,328.779 357.243,329.337 357.842,329.905 358.442,330.48 359.041,331.065 359.64,331.646 360.24,332.219 360.839,332.8 361.439,332.269 362.038,330.973 362.637,329.682 363.237,328.398 363.836,327.119 364.436,325.845 365.035,324.578 365.634,323.316 366.234,322.06 366.833,320.784 367.433,319.4 368.032,318.022 368.631,316.649 369.231,315.281 369.83,313.919 370.43,312.562 371.029,311.211 371.628,309.865 372.228,308.525 372.827,307.191 373.427,305.862 374.026,304.539 374.625,303.222 375.225,301.911 375.824,300.605 376.424,299.306 377.023,298.013 377.622,296.725 378.222,295.444 378.821,294.169 379.421,292.901 380.02,291.638 380.619,290.382 381.219,289.132 381.818,287.889 382.418,286.652 383.017,285.422 383.616,284.198 384.216,282.981 384.815,281.771 385.415,280.568 386.014,279.371 386.613,278.182 387.213,276.999 387.812,275.823 388.412,274.655 389.011,273.493 389.61,272.339 390.21,271.192 390.809,270.052 391.409,268.919 392.008,267.794 392.607,266.677 393.207,265.567 393.806,264.465 394.406,263.37 395.005,262.283 395.604,261.204 396.204,260.133 396.803,259.069 397.403,258.014 398.002,257.613 398.601,257.967 399.201,258.35 399.8,258.76 400.4,259.198 400.999,259.665 401.598,260.159 402.198,260.681 402.797,261.23 403.397,261.807 403.996,262.412 404.595,263.044 405.195,263.703 405.794,264.389 406.394,265.102 406.993,265.841 407.592,266.608 408.192,267.401 408.791,268.22 409.391,269.065 409.99,269.936 410.589,270.834 411.189,271.762 411.788,272.778 412.388,273.894 412.987,275.111 413.586,276.427 414.186,277.841 414.785,279.14 415.385,280.291 415.984,281.54 416.583,282.886 417.183,284.33 417.782,285.869 418.382,287.503 418.981,289.23 419.58,291.05 420.18,292.961 420.779,294.963 421.379,297.053 421.978,299.286 422.577,303.441 423.177,307.653 423.776,311.922 424.376,315.855 424.975,319.713 425.574,323.632 426.174,327.61 426.773,331.646 427.373,334.422 427.972,332.872 428.571,331.459 429.171,334.331 429.77,338.386 430.37,342.62 430.969,354.743 " />

<line fill="none" stroke-dasharray = "10, 10"  stroke="orange" stroke-width="6" x1="431.568" y1="300" x2="598.801" y2="300" />
   <polyline fill="none" stroke=" slategrey " stroke-width=" 9 " points=" " />

   <polyline fill="none" stroke=" violet " stroke-width=" 6 " points=" " />

   <polyline fill="none" stroke=" olive " stroke-width=" 3 " points=" 0.599401,576.608 1.1988,576.365 1.7982,576.125 2.3976,575.888 2.997,575.653 3.5964,575.422 4.1958,575.193 4.7952,574.967 5.39461,574.744 5.99401,574.524 6.59341,574.307 7.19281,574.093 7.79221,573.881 8.39161,573.672 8.99101,573.467 9.59041,573.264 10.1898,573.064 10.7892,572.866 11.3886,572.672 11.988,572.481 12.5874,572.292 13.1868,572.106 13.7862,571.923 14.3856,571.743 14.985,571.566 15.5844,571.392 16.1838,571.221 16.7832,571.052 17.3826,570.887 17.982,570.724 18.5814,570.565 19.1808,570.408 19.7802,570.254 20.3796,570.103 20.979,569.955 21.5784,569.81 22.1778,569.667 22.7772,569.528 23.3766,569.391 23.976,569.258 24.5754,569.127 25.1748,568.999 25.7742,568.875 26.3736,568.753 26.973,568.634 27.5724,568.518 28.1718,568.405 28.7712,568.294 29.3706,568.187 29.97,568.083 30.5694,567.981 31.1688,567.883 31.7682,567.787 32.3676,567.695 32.967,567.605 33.5664,567.518 34.1658,567.434 34.7652,567.354 35.3646,567.276 35.964,567.201 36.5634,567.128 37.1628,567.059 37.7622,566.993 38.3616,566.93 38.961,566.87 39.5604,566.812 40.1598,566.758 40.7592,566.706 41.3586,566.658 41.958,566.612 42.5574,566.57 43.1568,566.53 43.7562,566.493 44.3556,566.46 44.955,566.429 45.5544,566.401 46.1538,566.376 46.7532,566.354 47.3526,566.335 47.952,566.319 48.5514,566.306 49.1508,566.296 49.7502,566.288 50.3497,566.284 50.9491,566.283 51.5485,566.284 52.1479,566.289 52.7473,566.297 53.3467,566.307 53.9461,566.32 54.5455,566.337 55.1449,566.356 55.7443,566.378 56.3437,566.404 56.9431,566.432 57.5425,566.463 58.1419,566.497 58.7413,566.534 59.3407,566.574 59.9401,566.617 60.5395,566.663 61.1389,566.712 61.7383,566.764 62.3377,566.818 62.9371,566.876 63.5365,566.937 64.1359,567 64.7353,567.067 65.3347,567.136 65.9341,567.208 66.5335,567.284 67.1329,566.727 67.7323,565.866 68.3317,565.007 68.9311,564.15 69.5305,563.294 70.1299,562.441 70.7293,561.59 71.3287,560.74 71.9281,559.893 72.5275,559.047 73.1269,558.203 73.7263,557.362 74.3257,556.522 74.9251,555.685 75.5245,554.849 76.1239,554.015 76.7233,553.184 77.3227,552.354 77.9221,551.527 78.5215,550.701 79.1209,549.878 79.7203,549.056 80.3197,548.237 80.9191,547.42 81.5185,546.604 82.1179,545.791 82.7173,544.98 83.3167,544.171 83.9161,543.365 84.5155,542.56 85.1149,541.757 85.7143,540.957 86.3137,540.159 86.9131,539.362 87.5125,538.568 88.1119,537.777 88.7113,536.987 89.3107,536.199 89.9101,535.414 90.5095,534.631 91.1089,533.85 91.7083,533.071 92.3077,532.295 92.9071,531.52 93.5065,530.748 94.1059,529.978 94.7053,529.211 95.3047,528.445 95.9041,527.682 96.5035,526.921 97.1029,526.163 97.7023,525.406 98.3017,524.652 98.9011,523.9 99.5005,523.151 100.1,522.404 100.699,521.659 101.299,520.917 101.898,520.176 102.498,519.439 103.097,518.703 103.696,517.97 104.296,517.239 104.895,516.511 105.495,515.785 106.094,515.061 106.693,514.34 107.293,513.621 107.892,512.905 108.492,512.191 109.091,511.479 109.69,510.77 110.29,510.063 110.889,509.359 111.489,508.657 112.088,507.958 112.687,507.261 113.287,506.567 113.886,505.875 114.486,505.185 115.085,504.498 115.684,503.814 116.284,503.076 116.883,502.296 117.483,501.518 118.082,500.743 118.681,499.969 119.281,499.198 119.88,498.43 120.48,497.664 121.079,496.9 121.678,496.138 122.278,495.379 122.877,494.623 123.477,493.868 124.076,493.117 124.675,492.367 125.275,491.62 125.874,490.875 126.474,490.133 127.073,489.393 127.672,488.656 128.272,487.921 128.871,487.189 129.471,486.459 130.07,485.732 130.669,485.007 131.269,484.284 131.868,483.564 132.468,482.847 133.067,482.132 133.666,481.42 134.266,70.3006 134.865,69.9134 135.465,69.5349 136.064,69.1651 136.663,68.8042 137.263,68.4522 137.862,68.1091 138.462,67.775 139.061,67.4498 139.66,67.1337 140.26,66.8266 140.859,66.5287 141.459,66.2399 142.058,65.9603 142.657,65.6899 143.257,65.4288 143.856,65.177 144.456,64.9345 145.055,64.6594 145.654,63.6678 146.254,62.6922 146.853,61.7328 147.453,60.7899 148.052,59.8636 148.651,58.9542 149.251,58.0619 149.85,57.1869 150.45,56.3295 151.049,55.4898 151.648,54.6682 152.248,53.8647 152.847,53.0796 153.447,52.3132 154.046,51.5656 154.645,50.8371 155.245,50.1278 155.844,49.438 156.444,48.7679 157.043,48.1176 157.642,47.4874 158.242,46.8774 158.841,46.2879 159.441,45.7191 160.04,45.171 160.639,44.644 161.239,44.1381 161.838,43.6535 162.438,43.1904 163.037,42.7489 163.636,42.3293 164.236,41.9315 164.835,41.5559 165.435,41.2024 166.034,40.8713 166.633,40.5626 167.233,40.2764 167.832,40.0129 168.432,39.7722 169.031,39.5542 169.63,39.3592 170.23,39.1872 170.829,39.0382 171.429,38.9123 172.028,38.8095 172.627,38.7299 173.227,38.6736 173.826,38.6404 174.426,38.6306 175.025,38.6439 175.624,38.6805 176.224,38.7404 176.823,38.8234 177.423,38.9296 178.022,39.059 178.621,39.2114 179.221,39.3869 179.82,39.5853 180.42,39.8067 181.019,40.0508 181.618,40.3177 182.218,40.6073 182.817,40.9193 183.417,41.2538 184.016,41.6106 184.615,41.9896 185.215,42.3906 185.814,42.8135 186.414,43.2582 187.013,43.7245 187.612,44.2123 188.212,44.7214 188.811,45.2516 189.411,45.8027 190.01,46.3747 190.609,46.9673 191.209,47.5802 191.808,48.2135 192.408,48.8667 193.007,49.5398 193.606,50.2325 194.206,50.9447 194.805,51.6761 195.405,52.4265 196.004,53.1957 196.603,53.9835 197.203,54.7898 197.802,55.6141 198.402,56.4565 199.001,57.3165 199.6,58.1941 200.2,59.089 200.799,60.0009 201.399,60.9297 201.998,61.8751 202.597,62.8369 203.197,63.8149 203.796,64.8089 204.396,65.8186 204.995,66.8438 205.594,67.8843 206.194,68.9399 206.793,70.0104 207.393,71.0956 207.992,72.1951 208.591,73.3089 209.191,74.4367 209.79,75.5783 210.39,76.7335 210.989,77.9021 211.588,79.0839 212.188,80.2787 212.787,81.4862 213.387,82.7063 213.986,83.9388 214.585,85.1835 215.185,86.4402 215.784,87.7087 216.384,88.9888 216.983,90.2803 217.582,91.5831 218.182,92.8969 218.781,94.2217 219.381,95.5571 219.98,96.9031 220.579,98.2594 221.179,99.626 221.778,101.003 222.378,102.389 222.977,103.785 223.576,105.191 224.176,106.606 224.775,108.03 225.375,109.464 225.974,110.906 226.573,112.357 227.173,113.817 227.772,115.285 228.372,116.762 228.971,118.247 229.57,119.74 230.17,121.241 230.769,122.749 231.369,124.266 231.968,125.79 232.567,127.321 233.167,128.86 233.766,130.406 234.366,131.959 234.965,133.519 235.564,135.085 236.164,136.659 236.763,138.239 237.363,139.826 237.962,141.419 238.561,143.018 239.161,144.624 239.76,146.235 240.36,147.853 240.959,149.477 241.558,151.106 242.158,152.741 242.757,154.382 243.357,156.028 243.956,157.68 244.555,159.337 245.155,160.999 245.754,162.667 246.354,164.34 246.953,166.017 247.552,167.7 248.152,169.387 248.751,171.08 249.351,172.777 249.95,174.478 250.549,176.184 251.149,177.895 251.748,179.61 252.348,181.33 252.947,183.053 253.546,184.781 254.146,186.513 254.745,188.25 255.345,189.99 255.944,191.734 256.543,193.482 257.143,195.234 257.742,196.99 258.342,198.75 258.941,200.513 259.54,202.28 260.14,204.05 260.739,205.824 261.339,207.601 261.938,209.382 262.537,211.166 263.137,212.954 263.736,214.745 264.336,216.538 264.935,218.336 265.534,220.136 266.134,221.939 266.733,223.745 267.333,225.555 267.932,227.367 268.531,229.182 269.131,231 269.73,232.821 270.33,234.645 270.929,236.471 271.528,238.3 272.128,240.132 272.727,241.966 273.327,243.803 273.926,245.643 274.525,247.485 275.125,249.33 275.724,251.176 276.324,253.026 276.923,254.878 277.522,256.732 278.122,258.588 278.721,260.447 279.321,262.308 279.92,264.171 280.519,266.037 281.119,267.904 281.718,269.774 282.318,271.646 282.917,273.52 283.516,275.396 284.116,277.274 284.715,279.154 285.315,281.036 285.914,282.92 286.513,284.805 287.113,286.693 287.712,288.583 288.312,290.474 288.911,292.368 289.51,294.263 290.11,296.16 290.709,298.058 291.309,299.959 291.908,301.861 292.507,303.764 293.107,305.67 293.706,307.577 294.306,309.486 294.905,310.784 295.504,310.605 296.104,310.435 296.703,310.274 297.303,310.123 297.902,309.982 298.501,309.85 299.101,309.727 299.7,309.277 300.3,308.24 300.899,307.21 301.499,306.188 302.098,305.173 302.697,304.165 303.297,303.165 303.896,302.173 304.496,301.188 305.095,300.21 305.694,299.241 306.294,298.279 306.893,297.325 307.493,296.379 308.092,295.441 308.691,294.51 309.291,293.588 309.89,292.674 310.49,291.768 311.089,290.87 311.688,289.98 312.288,289.098 312.887,288.225 313.487,287.36 314.086,286.503 314.685,285.655 315.285,284.816 315.884,283.985 316.484,283.163 317.083,282.349 317.682,281.544 318.282,280.748 318.881,279.96 319.481,279.181 320.08,278.412 320.679,277.651 321.279,276.899 321.878,276.156 322.478,275.414 323.077,274.67 323.676,273.935 324.276,273.209 324.875,272.493 325.475,271.786 326.074,271.088 326.673,270.4 327.273,269.72 327.872,269.051 328.472,268.391 329.071,267.74 329.67,267.099 330.27,266.468 330.869,265.846 331.469,265.234 332.068,264.631 332.667,264.039 333.267,263.456 333.866,262.884 334.466,262.321 335.065,261.768 335.664,261.225 336.264,260.692 336.863,260.17 337.463,259.657 338.062,259.155 338.661,258.663 339.261,258.181 339.86,257.709 340.46,257.248 341.059,256.797 341.658,256.356 342.258,255.926 342.857,255.506 343.457,255.097 344.056,254.698 344.655,254.31 345.255,253.932 345.854,253.565 346.454,253.209 347.053,252.863 347.652,252.528 348.252,252.204 348.851,251.89 349.451,251.588 350.05,251.296 350.649,251.015 351.249,250.744 351.848,250.485 352.448,250.236 353.047,249.999 353.646,249.772 354.246,249.556 354.845,249.351 355.445,249.158 356.044,248.975 356.643,248.803 357.243,248.642 357.842,248.493 358.442,248.354 359.041,248.226 359.64,248.11 360.24,248.004 360.839,247.91 361.439,247.827 362.038,247.755 362.637,247.694 363.237,247.644 363.836,247.605 364.436,247.577 365.035,247.561 365.634,247.555 366.234,247.561 366.833,247.578 367.433,247.606 368.032,247.645 368.631,247.696 369.231,247.757 369.83,247.829 370.43,247.913 371.029,248.008 371.628,248.114 372.228,248.231 372.827,248.359 373.427,248.498 374.026,248.648 374.625,248.809 375.225,248.981 375.824,249.164 376.424,249.358 377.023,249.564 377.622,249.78 378.222,250.007 378.821,250.245 379.421,250.494 380.02,250.754 380.619,251.024 381.219,251.306 381.818,251.598 382.418,251.901 383.017,252.215 383.616,252.54 384.216,252.875 384.815,253.221 385.415,253.578 386.014,253.945 386.613,254.323 387.213,254.712 387.812,255.111 388.412,255.521 389.011,255.941 389.61,256.371 390.21,256.812 390.809,257.264 391.409,257.725 392.008,258.197 392.607,258.68 393.207,259.172 393.806,259.675 394.406,260.188 395.005,260.711 395.604,261.244 396.204,261.787 396.803,262.34 397.403,262.903 398.002,257.613 398.601,257.967 399.201,258.35 399.8,258.729 400.4,257.493 400.999,256.283 401.598,255.098 402.198,253.938 402.797,252.804 403.397,251.697 403.996,250.615 404.595,249.56 405.195,248.532 405.794,247.53 406.394,246.556 406.993,245.609 407.592,244.689 408.192,243.797 408.791,242.933 409.391,242.097 409.99,241.289 410.589,240.509 411.189,239.686 411.788,238.806 412.388,238.038 412.987,237.383 413.586,236.841 414.186,236.413 414.785,236.099 415.385,235.899 415.984,235.814 416.583,235.843 417.183,235.987 417.782,236.245 418.382,236.618 418.981,237.104 419.58,237.704 420.18,238.416 420.779,239.241 421.379,240.178 421.978,241.169 422.577,240.356 423.177,239.653 423.776,239.062 424.376,238.584 424.975,238.218 425.574,237.965 426.174,237.826 426.773,237.8 427.373,237.887 427.972,238.088 428.571,238.352 429.171,236.923 429.77,236.419 430.37,235.903 430.969,239.188 " />

<line fill="none" stroke-dasharray = "10, 10"  stroke="orange" stroke-width="6" x1="431.568" y1="300" x2="598.801" y2="300" />

<!--Draw Glitches -->


<!-- -->


<!--Draw Glitches -->

<line fill="none" stroke="black" stroke-width="4" x1="134.266" y1="60.3006" x2="134.266" y2="10.3006"  stroke-dasharray = "10,5" />
<text transform="scale(1,-1)" font-family="sans-serif" font-size="30" stroke = "rgb(0,0,0)" line = "rgb(0,0,0)"  fill = "olive" x="139.266" y="-10.3006" >223</text>

<!-- -->


<!--Draw the X and Y axes -->
<polyline fill="none" stroke="black" stroke-width="6"  points=" 600,0 0,0 0, 600" />
<polyline fill="none" stroke="black" stroke-width="1"  points=" 0 600  600 600  600 0" />
<!-- -->


<!--Draw labels and tics for X axis -->

<line fill="none" stroke="black"  stroke-width="6"  x1="0.5" y1="0" x2="0.5" y2="-20" />
<text transform="scale(1,-1)" font-family="sans-serif" font-size="30" x="-24.5" y="45" >0</text>
<line fill="none" stroke="black"  stroke-width="6"  x1="120.38" y1="0" x2="120.38" y2="-20" />
<text transform="scale(1,-1)" font-family="sans-serif" font-size="30" x="95.3801" y="45" >200</text>
<line fill="none" stroke="black"  stroke-width="6"  x1="240.26" y1="0" x2="240.26" y2="-20" />
<text transform="scale(1,-1)" font-family="sans-serif" font-size="30" x="215.26" y="45" >400</text>
<line fill="none" stroke="black"  stroke-width="6"  x1="360.14" y1="0" x2="360.14" y2="-20" />
<text transform="scale(1,-1)" font-family="sans-serif" font-size="30" x="335.14" y="45" >600</text>
<line fill="none" stroke="black"  stroke-width="6"  x1="480.02" y1="0" x2="480.02" y2="-20" />
<text transform="scale(1,-1)" font-family="sans-serif" font-size="30" x="455.02" y="45" >800</text>
<line fill="none" stroke="black"  stroke-width="6"  x1="599.901" y1="0" x2="599.901" y2="-20" />
<text transform="scale(1,-1)" font-family="sans-serif" font-size="30" x="574.901" y="45" >1000</text>


<!--Draw labels and tics for Y axis -->

<line fill="none" stroke="black" stroke-width="6" x1="0.0" y1="0" x2="-20" y2="0" />
<text transform="scale(1,-1)" text-anchor="end" font-family="sans-serif" font-size="30" x="-25" y="10" >10</text>
<line fill="none" stroke="black" stroke-width="6" x1="0.0" y1="150" x2="-20" y2="150" />
<text transform="scale(1,-1)" text-anchor="end" font-family="sans-serif" font-size="30" x="-25" y="-140" >20</text>
<line fill="none" stroke="black" stroke-width="6" x1="0.0" y1="300" x2="-20" y2="300" />
<text transform="scale(1,-1)" text-anchor="end" font-family="sans-serif" font-size="30" x="-25" y="-290" >30</text>
<line fill="none" stroke="black" stroke-width="6" x1="0.0" y1="450" x2="-20" y2="450" />
<text transform="scale(1,-1)" text-anchor="end" font-family="sans-serif" font-size="30" x="-25" y="-440" >40</text>
<line fill="none" stroke="black" stroke-width="6" x1="0.0" y1="600" x2="-20" y2="600" />
<text transform="scale(1,-1)" text-anchor="end" font-family="sans-serif" font-size="30" x="-25" y="-590" >50</text>

-->
</g>
</g>
<!-- Run Constants
PRINTDISTANCEDATA bool true
GLITCHESONLY bool false
PLOT 2doubles 3 4
PERTURBBY double 0.05
GLITCHLEVEL double 3
BOUNDARYWINDOW double 0.065
FRAMESPERPATH int 200
STEPSPERFRAME int 1000
TRIALS int 20
ALLBLACK bool true
FILEPREFIX string Fol
GRAPHSIZE int 0
BORDER int 0
PLOTSIZE int 0
G6LINEWIDTH int 3
DELONELINEWIDTH int 10
AXISWIDTH int 6
TICLENGTH int 20
VECTOR g6 
FOLLOWERMODE FollowerMode line
FIXRANDOMSEED fixRandomSeed false
RANDOMSEED int 19191
TIMESTAMP bool true
END end 




-->
</svg>
