<?xml version="1.0" standalone="no"?>
<!-- the width and height set the total pixel output of the image in the browser -->
<!-- whatever is within the viewbox will be remapped to show in this size -->
<svg width="900" height="900" viewBox="1 0 900 900"  version="1.1" xmlns="http://www.w3.org/2000/svg" xmlns:xlink="http://www.w3.org/1999/xlink">
 <desc>ID (and file name) = Fol_2018-05-26.10_16_16.0_9.svg  mode = LINE3 </desc> 
<text x = "-750" y="50" transform="rotate(-90)"  font-family="sans-serif" font-size="40" stroke ="lightgray" fill="none"> PointDistanceFollower   May 26 2018</text>
 <text x="560" y="30" font-family="sans-serif" font-size="20">Wall time passed: 12129 msec.</text>
<text x="300" y="60"   font-family="sans-serif" font-size="20" fill="lightblue">S6  lightblue</text>
<text x="300" y="85"   font-family="sans-serif" font-size="20" fill="slategrey">NCDist  slategrey</text>
<text x="300" y="110"  font-family="sans-serif" font-size="20" fill="violet">D7  violet</text>
<text x="300" y="135"  font-family="sans-serif" font-size="20" fill="olive">CS6Dist  olive</text>

 <text x="140"  y="30"  font-family="sans-serif" font-size="20" >Fol_2018-05-26.10_16_16.0_9.svg  </text> 


 <!--DISTANCE PLOT BEGINS   mode = LINE3-->


<!-- the following will scale and place the distance plot -->
<g  transform="translate(0, 50) ">
<g transform="translate(150,700) scale(1 -1)">
   <polyline fill="none" stroke=" lightblue " stroke-width=" 12 " points=" 0.599401,325.823 1.1988,325.567 1.7982,325.331 2.3976,325.113 2.997,324.914 3.5964,324.734 4.1958,324.572 4.7952,324.43 5.39461,324.307 5.99401,324.203 6.59341,324.118 7.19281,324.052 7.79221,324.005 8.39161,323.977 8.99101,323.969 9.59041,323.979 10.1898,324.008 10.7892,324.057 11.3886,324.124 11.988,324.211 12.5874,324.316 13.1868,324.441 13.7862,324.585 14.3856,324.747 14.985,324.929 15.5844,325.129 16.1838,325.349 16.7832,325.587 17.3826,325.844 17.982,326.12 18.5814,326.415 19.1808,326.729 19.7802,327.061 20.3796,327.411 20.979,327.781 21.5784,328.169 22.1778,328.575 22.7772,329 23.3766,329.443 23.976,329.905 24.5754,330.385 25.1748,330.882 25.7742,331.399 26.3736,331.933 26.973,332.485 27.5724,333.055 28.1718,333.643 28.7712,334.248 29.3706,334.871 29.97,335.512 30.5694,336.171 31.1688,336.846 31.7682,337.539 32.3676,338.25 32.967,338.977 33.5664,339.722 34.1658,340.484 34.7652,341.262 35.3646,342.057 35.964,342.869 36.5634,343.698 37.1628,344.543 37.7622,345.405 38.3616,346.282 38.961,347.176 39.5604,348.086 40.1598,349.012 40.7592,349.954 41.3586,350.912 41.958,351.886 42.5574,352.875 43.1568,353.669 43.7562,353.585 44.3556,353.506 44.955,353.434 45.5544,353.367 46.1538,353.306 46.7532,353.252 47.3526,353.203 47.952,353.16 48.5514,353.123 49.1508,352.669 49.7502,351.887 50.3497,351.114 50.9491,350.351 51.5485,349.599 52.1479,348.856 52.7473,348.123 53.3467,347.4 53.9461,346.687 54.5455,345.985 55.1449,345.293 55.7443,344.611 56.3437,343.939 56.9431,343.277 57.5425,342.626 58.1419,341.986 58.7413,341.356 59.3407,340.736 59.9401,340.128 60.5395,339.529 61.1389,338.942 61.7383,338.365 62.3377,337.799 62.9371,337.244 63.5365,336.7 64.1359,336.166 64.7353,335.644 65.3347,335.133 65.9341,334.632 66.5335,334.143 67.1329,333.665 67.7323,333.198 68.3317,332.742 68.9311,332.297 69.5305,331.864 70.1299,331.442 70.7293,331.032 71.3287,330.491 71.9281,329.376 72.5275,328.271 73.1269,327.174 73.7263,326.086 74.3257,325.006 74.9251,322.395 75.5245,320.577 76.1239,318.76 76.7233,316.946 77.3227,315.134 77.9221,313.323 78.5215,311.515 79.1209,309.708 79.7203,307.904 80.3197,306.101 80.9191,304.301 81.5185,302.503 82.1179,300.707 82.7173,298.913 83.3167,297.121 83.9161,295.332 84.5155,293.545 85.1149,291.76 85.7143,289.977 86.3137,288.197 86.9131,286.419 87.5125,284.644 88.1119,282.871 88.7113,281.101 89.3107,279.333 89.9101,277.568 90.5095,275.806 91.1089,274.046 91.7083,272.289 92.3077,270.534 92.9071,268.783 93.5065,267.034 94.1059,265.288 94.7053,263.545 95.3047,261.805 95.9041,260.068 96.5035,258.334 97.1029,256.604 97.7023,254.876 98.3017,253.152 98.9011,251.431 99.5005,249.713 100.1,247.998 100.699,246.287 101.299,244.58 101.898,242.876 102.498,241.176 103.097,239.479 103.696,237.786 104.296,236.097 104.895,234.411 105.495,232.73 106.094,231.052 106.693,229.379 107.293,227.709 107.892,226.044 108.492,224.383 109.091,222.726 109.69,221.074 110.29,219.426 110.889,217.782 111.489,216.143 112.088,214.509 112.687,212.88 113.287,211.255 113.886,209.636 114.486,208.021 115.085,206.412 115.684,204.807 116.284,203.208 116.883,201.614 117.483,200.026 118.082,198.443 118.681,196.866 119.281,195.295 119.88,193.729 120.48,192.17 121.079,190.616 121.678,189.069 122.278,187.528 122.877,185.993 123.477,184.465 124.076,182.943 124.675,181.429 125.275,179.921 125.874,178.419 126.474,176.911 127.073,175.397 127.672,173.89 128.272,172.389 128.871,170.897 129.471,169.411 130.07,168.031 130.669,166.724 131.269,165.421 131.868,164.122 132.468,162.828 133.067,161.54 133.666,160.256 134.266,158.977 134.865,157.703 135.465,156.435 136.064,155.172 136.663,153.914 137.263,152.661 137.862,151.414 138.462,150.173 139.061,148.938 139.66,147.708 140.26,146.484 140.859,145.266 141.459,144.055 142.058,142.849 142.657,141.65 143.257,140.458 143.856,139.272 144.456,138.092 145.055,136.919 145.654,135.754 146.254,134.595 146.853,133.443 147.453,132.298 148.052,131.161 148.651,130.031 149.251,128.909 149.85,127.795 150.45,126.688 151.049,125.59 151.648,124.499 152.248,123.417 152.847,122.343 153.447,121.278 154.046,120.221 154.645,119.173 155.245,118.134 155.844,117.104 156.444,116.083 157.043,115.072 157.642,114.07 158.242,113.078 158.841,112.095 159.441,111.123 160.04,110.161 160.639,109.209 161.239,108.268 161.838,107.337 162.438,106.417 163.037,105.508 163.636,104.61 164.236,103.723 164.835,102.848 165.435,101.984 166.034,101.132 166.633,100.293 167.233,99.4649 167.832,98.6495 168.432,97.8466 169.031,97.0564 169.63,96.279 170.23,95.5146 170.829,94.7635 171.429,94.0256 172.028,93.3014 172.627,92.5908 173.227,91.8941 173.826,91.2115 174.426,90.5432 175.025,89.8892 175.624,89.2499 176.224,88.6253 176.823,88.0156 177.423,87.421 178.022,86.8417 178.621,86.2778 179.221,85.7295 179.82,85.197 180.42,84.6803 181.019,84.1797 181.618,83.6954 182.218,83.2274 182.817,82.7759 183.417,82.341 184.016,81.9229 184.615,81.5218 185.215,81.1377 185.814,80.7708 186.414,80.4212 187.013,80.089 187.612,79.7743 188.212,79.4773 188.811,79.198 189.411,78.9365 190.01,78.693 190.609,78.4675 191.209,78.26 191.808,78.0708 192.408,77.8997 193.007,77.747 193.606,77.6126 194.206,77.4966 194.805,77.3991 195.405,77.32 196.004,77.2594 196.603,77.2174 197.203,77.1938 197.802,77.1889 198.402,77.2025 199.001,77.2346 199.6,77.2853 200.2,77.3545 200.799,77.4421 201.399,77.5483 201.998,77.6728 202.597,77.8157 203.197,77.977 203.796,78.1565 204.396,78.3542 204.995,78.5701 205.594,78.804 206.194,79.0559 206.793,79.3256 207.393,79.6132 207.992,79.9184 208.591,80.2413 209.191,80.5816 209.79,80.9392 210.39,81.3142 210.989,81.7062 211.588,82.1152 212.188,82.5411 212.787,82.9837 213.387,83.4429 213.986,83.9186 214.585,84.4105 215.185,84.9186 215.784,85.4426 216.384,85.9825 216.983,86.5381 217.582,87.1092 218.182,87.6956 218.781,88.2972 219.381,88.9139 219.98,89.5454 220.579,90.1915 221.179,90.8522 221.778,91.5272 222.378,92.2164 222.977,92.9195 223.576,93.6365 224.176,94.367 224.775,95.1111 225.375,95.8684 225.974,96.6389 226.573,97.4223 227.173,98.2184 227.772,99.0271 228.372,99.8482 228.971,100.682 229.57,101.527 230.17,102.384 230.769,103.253 231.369,104.134 231.968,105.026 232.567,105.929 233.167,106.843 233.766,107.768 234.366,108.704 234.965,109.65 235.564,110.607 236.164,111.574 236.763,112.551 237.363,113.538 237.962,114.535 238.561,115.541 239.161,116.557 239.76,117.582 240.36,118.616 240.959,119.659 241.558,120.711 242.158,121.772 242.757,122.841 243.357,123.919 243.956,125.005 244.555,126.1 245.155,127.202 245.754,128.312 246.354,129.43 246.953,130.556 247.552,131.689 248.152,132.83 248.751,133.978 249.351,135.133 249.95,136.295 250.549,137.464 251.149,138.64 251.748,139.822 252.348,141.011 252.947,142.207 253.546,143.409 254.146,144.617 254.745,145.832 255.345,147.053 255.944,148.279 256.543,149.512 257.143,150.75 257.742,151.994 258.342,153.243 258.941,154.498 259.54,155.758 260.14,157.024 260.739,158.295 261.339,159.571 261.938,160.852 262.537,162.138 263.137,163.429 263.736,164.725 264.336,166.026 264.935,167.331 265.534,168.641 266.134,169.955 266.733,171.274 267.333,172.598 267.932,173.925 268.531,175.257 269.131,176.593 269.73,177.933 270.33,179.277 270.929,180.374 271.528,180.225 272.128,180.088 272.727,179.961 273.327,179.846 273.926,179.741 274.525,179.648 275.125,179.565 275.724,179.494 276.324,179.434 276.923,179.385 277.522,179.347 278.122,179.32 278.721,179.304 279.321,179.299 279.92,179.305 280.519,179.323 281.119,179.351 281.718,179.391 282.318,179.441 282.917,179.503 283.516,179.576 284.116,179.66 284.715,179.755 285.315,179.861 285.914,179.978 286.513,180.106 287.113,180.245 287.712,180.395 288.312,180.556 288.911,180.728 289.51,180.911 290.11,181.105 290.709,181.309 291.309,181.525 291.908,181.751 292.507,181.988 293.107,182.236 293.706,182.495 294.306,182.764 294.905,183.044 295.504,183.334 296.104,183.635 296.703,183.947 297.303,184.269 297.902,184.602 298.501,184.945 299.101,185.299 299.7,185.662 300.3,186.037 300.899,186.421 301.499,186.816 302.098,187.22 302.697,187.635 303.297,188.06 303.896,188.495 304.496,188.94 305.095,189.395 305.694,189.86 306.294,190.335 306.893,190.819 307.493,191.314 308.092,191.817 308.691,192.331 309.291,192.854 309.89,193.386 310.49,193.928 311.089,194.48 311.688,195.04 312.288,195.61 312.887,196.189 313.487,196.778 314.086,197.375 314.685,197.981 315.285,198.597 315.884,199.221 316.484,199.854 317.083,200.496 317.682,201.147 318.282,201.806 318.881,202.474 319.481,203.151 320.08,203.836 320.679,204.529 321.279,205.231 321.878,205.941 322.478,206.659 323.077,207.386 323.676,208.12 324.276,208.863 324.875,209.614 325.475,210.372 326.074,211.139 326.673,211.913 327.273,212.57 327.872,212.967 328.472,213.372 329.071,213.786 329.67,214.21 330.27,214.643 330.869,215.085 331.469,215.536 332.068,215.996 332.667,216.465 333.267,216.942 333.866,217.429 334.466,217.925 335.065,218.429 335.664,218.942 336.264,219.464 336.863,219.994 337.463,220.533 338.062,221.081 338.661,221.637 339.261,222.201 339.86,222.774 340.46,223.356 341.059,223.945 341.658,224.543 342.258,225.149 342.857,225.764 343.457,226.386 344.056,227.016 344.655,227.655 345.255,228.301 345.854,228.956 346.454,229.618 347.053,230.288 347.652,230.966 348.252,231.651 348.851,232.344 349.451,233.045 350.05,233.753 350.649,234.469 351.249,235.192 351.848,235.923 352.448,236.661 353.047,237.406 353.646,238.159 354.246,238.919 354.845,239.686 355.445,240.46 356.044,241.24 356.643,242.028 357.243,242.823 357.842,243.625 358.442,244.434 359.041,245.249 359.64,246.071 360.24,246.9 360.839,247.324 361.439,246.421 362.038,245.524 362.637,244.634 363.237,243.75 363.836,242.872 364.436,242.001 365.035,241.136 365.634,240.278 366.234,239.427 366.833,238.582 367.433,237.744 368.032,236.913 368.631,236.089 369.231,235.272 369.83,234.461 370.43,233.658 371.029,232.862 371.628,232.072 372.228,231.29 372.827,230.516 373.427,229.748 374.026,228.988 374.625,228.235 375.225,227.49 375.824,226.752 376.424,226.022 377.023,225.3 377.622,224.585 378.222,223.878 378.821,223.179 379.421,222.487 380.02,221.804 380.619,221.128 381.219,220.46 381.818,219.801 382.418,219.149 383.017,218.506 383.616,217.871 384.216,217.244 384.815,216.626 385.415,216.016 386.014,215.414 386.613,214.821 387.213,214.237 387.812,213.661 388.412,213.094 389.011,212.535 389.61,211.985 390.21,211.444 390.809,210.912 391.409,210.389 392.008,209.874 392.607,209.369 393.207,208.873 393.806,208.386 394.406,207.908 395.005,207.439 395.604,206.979 396.204,206.529 396.803,206.088 397.403,205.656 398.002,205.234 398.601,204.821 399.201,204.418 399.8,204.024 400.4,203.64 400.999,203.265 401.598,202.9 402.198,202.545 402.797,202.199 403.397,201.864 403.996,201.538 404.595,201.222 405.195,200.915 405.794,200.619 406.394,200.333 406.993,200.056 407.592,199.79 408.192,199.534 408.791,199.287 409.391,199.051 409.99,198.825 410.589,198.609 411.189,198.403 411.788,198.207 412.388,198.022 412.987,197.847 413.586,197.681 414.186,197.527 414.785,197.382 415.385,197.248 415.984,197.124 416.583,197.011 417.183,196.907 417.782,196.815 418.382,196.732 418.981,196.66 419.58,196.598 420.18,196.547 420.779,196.506 421.379,195.66 421.978,194.803 422.577,193.954 423.177,193.113 423.776,192.279 424.376,191.454 424.975,190.637 425.574,189.827 426.174,189.026 426.773,188.234 427.373,187.45 427.972,186.674 428.571,172.36 429.171,172.747 429.77,173.185 430.37,173.674 430.969,174.214 431.568,174.805 432.168,177.895 432.767,176.919 433.367,176.022 433.966,175.204 434.565,174.467 435.165,173.811 435.764,173.237 436.364,172.744 436.963,172.335 437.562,172.009 438.162,171.766 438.761,171.607 439.361,171.531 439.96,171.54 440.559,171.633 441.159,171.81 441.758,173.247 442.358,175.223 442.957,177.519 443.556,180.127 444.156,183.036 444.755,186.238 445.355,189.721 445.954,193.475 446.553,197.488 447.153,201.749 447.752,206.247 448.352,210.97 448.951,216.209 449.55,221.804 450.15,227.559 450.749,233.468 451.349,239.52 451.948,245.708 452.547,252.024 453.147,258.46 453.746,264.531 454.346,270.075 454.945,275.76 455.544,281.579 456.144,287.526 456.743,293.595 457.343,299.779 457.942,306.073 458.541,312.472 459.141,318.97 459.74,325.563 460.34,332.246 460.939,339.015 461.538,343.336 462.138,344.457 462.737,346.303 463.337,348.863 463.936,352.125 464.535,355.766 465.135,362.513 465.734,381.576 466.334,399.697 466.933,411.458 467.532,437.534 468.132,458.808 468.731,478.137 " />

<line fill="none" stroke-dasharray = "10, 10"  stroke="orange" stroke-width="6" x1="469.331" y1="300" x2="598.801" y2="300" />
   <polyline fill="none" stroke=" slategrey " stroke-width=" 9 " points=" " />

   <polyline fill="none" stroke=" violet " stroke-width=" 6 " points=" " />

   <polyline fill="none" stroke=" olive " stroke-width=" 3 " points=" 0.599401,330.315 1.1988,330.208 1.7982,330.12 2.3976,330.05 2.997,329.999 3.5964,329.967 4.1958,329.954 4.7952,329.96 5.39461,329.984 5.99401,330.028 6.59341,330.09 7.19281,330.17 7.79221,330.27 8.39161,330.388 8.99101,330.525 9.59041,330.681 10.1898,330.856 10.7892,331.049 11.3886,331.26 11.988,331.491 12.5874,331.74 13.1868,332.007 13.7862,332.293 14.3856,332.598 14.985,332.921 15.5844,333.262 16.1838,333.622 16.7832,333.999 17.3826,334.396 17.982,334.81 18.5814,335.243 19.1808,335.693 19.7802,336.162 20.3796,336.648 20.979,337.153 21.5784,337.675 22.1778,338.215 22.7772,338.773 23.3766,339.348 23.976,339.941 24.5754,340.551 25.1748,341.179 25.7742,341.824 26.3736,342.486 26.973,343.166 27.5724,343.862 28.1718,344.575 28.7712,345.306 29.3706,346.053 29.97,346.817 30.5694,347.597 31.1688,348.394 31.7682,349.208 32.3676,350.038 32.967,350.884 33.5664,351.746 34.1658,352.625 34.7652,353.519 35.3646,354.429 35.964,355.355 36.5634,356.296 37.1628,357.253 37.7622,358.226 38.3616,359.214 38.961,360.217 39.5604,361.235 40.1598,362.269 40.7592,363.317 41.3586,364.38 41.958,365.458 42.5574,366.55 43.1568,353.669 43.7562,353.585 44.3556,353.506 44.955,353.434 45.5544,353.367 46.1538,353.306 46.7532,353.252 47.3526,353.203 47.952,353.16 48.5514,353.123 49.1508,541.676 49.7502,541.846 50.3497,542.015 50.9491,542.185 51.5485,542.356 52.1479,542.526 52.7473,542.697 53.3467,542.869 53.9461,543.04 54.5455,543.212 55.1449,543.384 55.7443,543.557 56.3437,543.729 56.9431,543.902 57.5425,544.076 58.1419,544.249 58.7413,544.423 59.3407,544.598 59.9401,544.772 60.5395,544.947 61.1389,545.122 61.7383,545.298 62.3377,545.474 62.9371,545.65 63.5365,545.826 64.1359,546.003 64.7353,545.897 65.3347,545.636 65.9341,545.377 66.5335,545.118 67.1329,544.859 67.7323,544.602 68.3317,544.345 68.9311,544.089 69.5305,543.833 70.1299,543.578 70.7293,543.324 71.3287,543.07 71.9281,542.817 72.5275,542.565 73.1269,542.313 73.7263,542.062 74.3257,541.811 74.9251,323.874 75.5245,322.045 76.1239,320.218 76.7233,318.393 77.3227,316.57 77.9221,314.748 78.5215,312.929 79.1209,311.111 79.7203,309.295 80.3197,307.481 80.9191,305.67 81.5185,303.86 82.1179,302.052 82.7173,300.246 83.3167,298.442 83.9161,296.641 84.5155,294.841 85.1149,293.044 85.7143,291.249 86.3137,289.456 86.9131,287.665 87.5125,285.877 88.1119,284.091 88.7113,282.308 89.3107,280.527 89.9101,278.748 90.5095,276.972 91.1089,275.198 91.7083,273.427 92.3077,271.659 92.9071,269.893 93.5065,268.13 94.1059,266.369 94.7053,264.611 95.3047,262.857 95.9041,261.105 96.5035,259.356 97.1029,257.609 97.7023,255.866 98.3017,254.126 98.9011,252.389 99.5005,250.655 100.1,248.925 100.699,247.197 101.299,245.473 101.898,243.752 102.498,242.035 103.097,240.321 103.696,238.61 104.296,236.903 104.895,235.2 105.495,233.501 106.094,231.805 106.693,230.113 107.293,228.425 107.892,226.741 108.492,225.06 109.091,223.384 109.69,221.712 110.29,220.045 110.889,218.381 111.489,216.722 112.088,215.068 112.687,213.417 113.287,211.772 113.886,210.131 114.486,208.495 115.085,206.864 115.684,205.237 116.284,203.616 116.883,202 117.483,200.389 118.082,198.783 118.681,197.182 119.281,195.588 119.88,193.998 120.48,192.414 121.079,190.836 121.678,189.264 122.278,187.698 122.877,186.138 123.477,184.584 124.076,183.037 124.675,181.495 125.275,179.961 125.874,178.433 126.474,176.911 127.073,175.397 127.672,173.89 128.272,172.389 128.871,170.897 129.471,169.411 130.07,168.216 130.669,166.938 131.269,165.664 131.868,164.396 132.468,163.133 133.067,161.875 133.666,160.622 134.266,159.375 134.865,158.133 135.465,156.896 136.064,155.665 136.663,154.44 137.263,153.221 137.862,152.007 138.462,150.8 139.061,149.599 139.66,148.403 140.26,147.214 140.859,146.032 141.459,144.856 142.058,143.686 142.657,142.524 143.257,141.368 143.856,140.218 144.456,139.076 145.055,137.941 145.654,136.814 146.254,135.693 146.853,134.581 147.453,133.475 148.052,132.378 148.651,131.288 149.251,130.206 149.85,129.133 150.45,128.067 151.049,127.01 151.648,125.962 152.248,124.922 152.847,123.891 153.447,122.869 154.046,121.855 154.645,120.851 155.245,119.857 155.844,118.871 156.444,117.896 157.043,116.93 157.642,115.974 158.242,115.028 158.841,114.092 159.441,113.167 160.04,112.252 160.639,111.348 161.239,110.454 161.838,109.572 162.438,108.7 163.037,107.84 163.636,106.992 164.236,106.155 164.835,105.329 165.435,104.516 166.034,103.715 166.633,102.926 167.233,102.15 167.832,101.386 168.432,100.635 169.031,99.8964 169.63,99.1712 170.23,98.4593 170.829,97.7608 171.429,97.0759 172.028,96.4047 172.627,95.7474 173.227,95.1042 173.826,94.4752 174.426,93.8606 175.025,93.2605 175.624,92.6751 176.224,92.1045 176.823,91.5489 177.423,91.0085 178.022,90.4834 178.621,89.9737 179.221,89.4796 179.82,89.0013 180.42,88.5388 181.019,88.0923 181.618,87.6619 182.218,87.2478 182.817,86.8501 183.417,86.4689 184.016,86.1043 184.615,85.7565 185.215,85.4254 185.814,85.1114 186.414,84.8144 187.013,84.5345 187.612,84.2719 188.212,84.0266 188.811,83.7987 189.411,83.5883 190.01,83.3954 190.609,83.2201 191.209,83.0625 191.808,82.9227 192.408,82.8006 193.007,82.6963 193.606,82.6098 194.206,82.5412 194.805,82.4905 195.405,82.4578 196.004,82.4429 196.603,82.446 197.203,82.4671 197.802,82.506 198.402,82.5629 199.001,82.6376 199.6,82.7302 200.2,82.8407 200.799,82.9689 201.399,83.1149 201.998,83.2786 202.597,83.46 203.197,83.6589 203.796,83.8754 204.396,84.1093 204.995,84.3606 205.594,84.6292 206.194,84.915 206.793,85.2178 207.393,85.5378 207.992,85.8746 208.591,86.2282 209.191,86.5986 209.79,86.9855 210.39,87.3889 210.989,87.8086 211.588,88.2445 212.188,88.6966 212.787,89.1646 213.387,89.6484 213.986,90.1478 214.585,90.6629 215.185,91.1933 215.784,91.7389 216.384,92.2997 216.983,92.8754 217.582,93.4659 218.182,94.071 218.781,94.6906 219.381,95.3246 219.98,95.9727 220.579,96.6348 221.179,97.3107 221.778,98.0003 222.378,98.7035 222.977,99.42 223.576,100.15 224.176,100.892 224.775,101.648 225.375,102.416 225.974,103.197 226.573,103.99 227.173,104.796 227.772,105.613 228.372,106.442 228.971,107.283 229.57,108.136 230.17,109 230.769,109.875 231.369,110.761 231.968,111.658 232.567,112.566 233.167,113.485 233.766,114.414 234.366,115.353 234.965,116.303 235.564,117.262 236.164,118.231 236.763,119.21 237.363,120.199 237.962,121.197 238.561,122.204 239.161,123.22 239.76,124.246 240.36,125.28 240.959,126.323 241.558,127.374 242.158,128.434 242.757,129.502 243.357,130.579 243.956,131.663 244.555,132.756 245.155,133.856 245.754,134.964 246.354,136.079 246.953,137.202 247.552,138.332 248.152,139.47 248.751,140.614 249.351,141.766 249.95,142.924 250.549,144.089 251.149,145.261 251.748,146.439 252.348,147.624 252.947,148.815 253.546,150.012 254.146,151.216 254.745,152.426 255.345,153.641 255.944,154.862 256.543,156.09 257.143,157.322 257.742,158.561 258.342,159.805 258.941,161.054 259.54,162.308 260.14,163.568 260.739,164.833 261.339,166.103 261.938,167.378 262.537,168.658 263.137,169.943 263.736,171.233 264.336,172.527 264.935,173.826 265.534,175.129 266.134,176.437 266.733,177.749 267.333,179.066 267.932,180.387 268.531,181.078 269.131,180.885 269.73,180.704 270.33,180.533 270.929,180.374 271.528,180.225 272.128,180.088 272.727,179.961 273.327,179.846 273.926,179.741 274.525,179.648 275.125,179.565 275.724,179.494 276.324,179.434 276.923,179.385 277.522,179.347 278.122,179.32 278.721,179.304 279.321,179.299 279.92,179.305 280.519,179.323 281.119,179.351 281.718,179.391 282.318,179.441 282.917,179.503 283.516,179.576 284.116,179.66 284.715,179.755 285.315,179.861 285.914,179.978 286.513,180.106 287.113,180.245 287.712,180.395 288.312,180.556 288.911,180.728 289.51,180.911 290.11,181.105 290.709,181.309 291.309,181.525 291.908,181.751 292.507,181.988 293.107,182.236 293.706,182.495 294.306,182.764 294.905,183.044 295.504,183.334 296.104,183.635 296.703,183.947 297.303,184.269 297.902,184.602 298.501,184.945 299.101,185.299 299.7,185.662 300.3,186.037 300.899,186.421 301.499,186.816 302.098,187.22 302.697,187.635 303.297,188.06 303.896,188.495 304.496,188.94 305.095,189.395 305.694,189.86 306.294,190.335 306.893,190.819 307.493,191.314 308.092,191.817 308.691,192.331 309.291,192.854 309.89,193.386 310.49,193.928 311.089,194.48 311.688,195.04 312.288,195.61 312.887,196.189 313.487,196.778 314.086,197.375 314.685,197.981 315.285,198.597 315.884,199.221 316.484,199.854 317.083,200.496 317.682,201.147 318.282,201.806 318.881,202.474 319.481,203.151 320.08,203.836 320.679,204.529 321.279,205.231 321.878,205.941 322.478,206.659 323.077,207.386 323.676,208.12 324.276,208.863 324.875,209.614 325.475,210.372 326.074,211.139 326.673,211.913 327.273,212.695 327.872,213.484 328.472,214.282 329.071,215.086 329.67,215.899 330.27,216.718 330.869,217.545 331.469,218.379 332.068,219.221 332.667,220.07 333.267,220.925 333.866,221.788 334.466,222.658 335.065,223.535 335.664,224.418 336.264,225.309 336.863,226.206 337.463,227.11 338.062,228.012 338.661,228.584 339.261,229.164 339.86,229.753 340.46,230.35 341.059,230.954 341.658,231.567 342.258,232.188 342.857,232.817 343.457,233.453 344.056,234.098 344.655,234.75 345.255,235.41 345.854,236.077 346.454,236.752 347.053,237.435 347.652,238.125 348.252,238.823 348.851,239.528 349.451,240.241 350.05,240.961 350.649,241.688 351.249,242.422 351.848,243.164 352.448,243.913 353.047,244.668 353.646,245.431 354.246,246.201 354.845,246.978 355.445,247.761 356.044,248.552 356.643,249.349 357.243,250.153 357.842,250.964 358.442,251.781 359.041,252.605 359.64,253.435 360.24,254.272 360.839,255.115 361.439,255.965 362.038,256.821 362.637,257.683 363.237,258.551 363.836,259.426 364.436,260.307 365.035,261.194 365.634,262.087 366.234,262.986 366.833,263.891 367.433,264.802 368.032,265.718 368.631,266.641 369.231,267.569 369.83,268.503 370.43,269.442 371.029,270.388 371.628,271.338 372.228,272.295 372.827,273.256 373.427,274.224 374.026,275.196 374.625,276.174 375.225,277.157 375.824,278.146 376.424,279.14 377.023,280.139 377.622,281.143 378.222,282.152 378.821,283.166 379.421,284.185 380.02,285.209 380.619,286.238 381.219,287.272 381.818,288.311 382.418,289.354 383.017,288.995 383.616,288.509 384.216,288.03 384.815,287.558 385.415,287.094 386.014,286.636 386.613,286.186 387.213,285.743 387.812,285.308 388.412,284.88 389.011,284.459 389.61,284.045 390.21,283.639 390.809,283.24 391.409,282.849 392.008,282.465 392.607,282.089 393.207,281.72 393.806,281.359 394.406,281.005 395.005,280.659 395.604,280.321 396.204,279.99 396.803,279.666 397.403,279.351 398.002,279.043 398.601,278.743 399.201,278.451 399.8,278.166 400.4,277.889 400.999,277.62 401.598,277.359 402.198,277.105 402.797,276.86 403.397,276.622 403.996,276.392 404.595,276.17 405.195,275.956 405.794,275.75 406.394,275.551 406.993,275.361 407.592,275.179 408.192,275.005 408.791,274.838 409.391,274.68 409.99,274.529 410.589,274.387 411.189,274.253 411.788,274.126 412.388,274.008 412.987,273.898 413.586,273.796 414.186,273.702 414.785,273.616 415.385,273.538 415.984,273.468 416.583,273.406 417.183,273.353 417.782,273.307 418.382,273.27 418.981,273.24 419.58,273.219 420.18,273.206 420.779,273.201 421.379,273.204 421.978,273.215 422.577,273.234 423.177,273.262 423.776,273.297 424.376,273.341 424.975,273.393 425.574,273.452 426.174,273.39 426.773,273.25 427.373,273.117 427.972,272.993 428.571,186.478 429.171,187.677 429.77,188.92 430.37,190.205 430.969,191.533 431.568,192.902 432.168,198.242 432.767,197.732 433.367,197.298 433.966,196.939 434.565,196.655 435.165,196.448 435.764,196.317 436.364,196.262 436.963,196.283 437.562,196.381 438.162,196.555 438.761,196.805 439.361,197.13 439.96,197.532 440.559,198.008 441.159,198.56 441.758,173.247 442.358,175.223 442.957,177.519 443.556,180.127 444.156,183.036 444.755,186.238 445.355,189.721 445.954,193.475 446.553,197.488 447.153,201.749 447.752,206.247 448.352,210.97 448.951,226.145 449.55,230.289 450.15,234.636 450.749,239.179 451.349,243.908 451.948,248.816 452.547,243.029 453.147,236.717 453.746,230.546 454.346,224.526 454.945,218.665 455.544,212.974 456.144,207.465 456.743,202.15 457.343,197.039 457.942,192.146 458.541,187.485 459.141,183.068 459.74,178.909 460.34,175.023 460.939,171.423 461.538,164.254 462.138,154.745 462.737,146.306 463.337,139.075 463.936,133.191 464.535,128.783 465.135,122.411 465.734,103.924 466.334,87.2909 466.933,74.1631 467.532,49.609 468.132,26.8984 468.731,0.891921 " />

<line fill="none" stroke-dasharray = "10, 10"  stroke="orange" stroke-width="6" x1="469.331" y1="300" x2="598.801" y2="300" />

<!--Draw Glitches -->


<!-- -->


<!--Draw Glitches -->

<line fill="none" stroke="black" stroke-width="4" x1="49.1508" y1="531.676" x2="49.1508" y2="481.676"  stroke-dasharray = "10,5" />
<text transform="scale(1,-1)" font-family="sans-serif" font-size="30" stroke = "rgb(0,0,0)" line = "rgb(0,0,0)"  fill = "olive" x="54.1508" y="-481.676" >81</text>
<line fill="none" stroke="black" stroke-width="4" x1="74.9251" y1="313.874" x2="74.9251" y2="263.874"  stroke-dasharray = "10,5" />
<text transform="scale(1,-1)" font-family="sans-serif" font-size="30" stroke = "rgb(0,0,0)" line = "rgb(0,0,0)"  fill = "olive" x="79.9251" y="-263.874" >124</text>
<line fill="none" stroke="black" stroke-width="4" x1="428.571" y1="176.478" x2="428.571" y2="126.478"  stroke-dasharray = "10,5" />
<text transform="scale(1,-1)" font-family="sans-serif" font-size="30" stroke = "rgb(0,0,0)" line = "rgb(0,0,0)"  fill = "olive" x="433.571" y="-126.478" >714</text>

<!-- -->


<!--Draw the X and Y axes -->
<polyline fill="none" stroke="black" stroke-width="6"  points=" 600,0 0,0 0, 600" />
<polyline fill="none" stroke="black" stroke-width="1"  points=" 0 600  600 600  600 0" />
<!-- -->


<!--Draw labels and tics for X axis -->

<line fill="none" stroke="black"  stroke-width="6"  x1="0.5" y1="0" x2="0.5" y2="-20" />
<text transform="scale(1,-1)" font-family="sans-serif" font-size="30" x="-24.5" y="45" >0</text>
<line fill="none" stroke="black"  stroke-width="6"  x1="120.38" y1="0" x2="120.38" y2="-20" />
<text transform="scale(1,-1)" font-family="sans-serif" font-size="30" x="95.3801" y="45" >200</text>
<line fill="none" stroke="black"  stroke-width="6"  x1="240.26" y1="0" x2="240.26" y2="-20" />
<text transform="scale(1,-1)" font-family="sans-serif" font-size="30" x="215.26" y="45" >400</text>
<line fill="none" stroke="black"  stroke-width="6"  x1="360.14" y1="0" x2="360.14" y2="-20" />
<text transform="scale(1,-1)" font-family="sans-serif" font-size="30" x="335.14" y="45" >600</text>
<line fill="none" stroke="black"  stroke-width="6"  x1="480.02" y1="0" x2="480.02" y2="-20" />
<text transform="scale(1,-1)" font-family="sans-serif" font-size="30" x="455.02" y="45" >800</text>
<line fill="none" stroke="black"  stroke-width="6"  x1="599.901" y1="0" x2="599.901" y2="-20" />
<text transform="scale(1,-1)" font-family="sans-serif" font-size="30" x="574.901" y="45" >1000</text>


<!--Draw labels and tics for Y axis -->

<line fill="none" stroke="black" stroke-width="6" x1="0.0" y1="0" x2="-20" y2="0" />
<text transform="scale(1,-1)" text-anchor="end" font-family="sans-serif" font-size="30" x="-25" y="10" >5</text>
<line fill="none" stroke="black" stroke-width="6" x1="0.0" y1="75" x2="-20" y2="75" />
<text transform="scale(1,-1)" text-anchor="end" font-family="sans-serif" font-size="30" x="-25" y="-65" >10</text>
<line fill="none" stroke="black" stroke-width="6" x1="0.0" y1="150" x2="-20" y2="150" />
<text transform="scale(1,-1)" text-anchor="end" font-family="sans-serif" font-size="30" x="-25" y="-140" >15</text>
<line fill="none" stroke="black" stroke-width="6" x1="0.0" y1="225" x2="-20" y2="225" />
<text transform="scale(1,-1)" text-anchor="end" font-family="sans-serif" font-size="30" x="-25" y="-215" >20</text>
<line fill="none" stroke="black" stroke-width="6" x1="0.0" y1="300" x2="-20" y2="300" />
<text transform="scale(1,-1)" text-anchor="end" font-family="sans-serif" font-size="30" x="-25" y="-290" >25</text>
<line fill="none" stroke="black" stroke-width="6" x1="0.0" y1="375" x2="-20" y2="375" />
<text transform="scale(1,-1)" text-anchor="end" font-family="sans-serif" font-size="30" x="-25" y="-365" >30</text>
<line fill="none" stroke="black" stroke-width="6" x1="0.0" y1="450" x2="-20" y2="450" />
<text transform="scale(1,-1)" text-anchor="end" font-family="sans-serif" font-size="30" x="-25" y="-440" >35</text>
<line fill="none" stroke="black" stroke-width="6" x1="0.0" y1="525" x2="-20" y2="525" />
<text transform="scale(1,-1)" text-anchor="end" font-family="sans-serif" font-size="30" x="-25" y="-515" >40</text>
<line fill="none" stroke="black" stroke-width="6" x1="0.0" y1="600" x2="-20" y2="600" />
<text transform="scale(1,-1)" text-anchor="end" font-family="sans-serif" font-size="30" x="-25" y="-590" >45</text>

-->
</g>
</g>
<!-- Run Constants
PRINTDISTANCEDATA bool true
GLITCHESONLY bool false
PLOT 2doubles 3 4
PERTURBBY double 0.05
GLITCHLEVEL double 3
BOUNDARYWINDOW double 0.065
FRAMESPERPATH int 200
STEPSPERFRAME int 1000
TRIALS int 20
ALLBLACK bool true
FILEPREFIX string Fol
GRAPHSIZE int 0
BORDER int 0
PLOTSIZE int 0
G6LINEWIDTH int 3
DELONELINEWIDTH int 10
AXISWIDTH int 6
TICLENGTH int 20
VECTOR g6 
FOLLOWERMODE FollowerMode line
FIXRANDOMSEED fixRandomSeed false
RANDOMSEED int 19191
TIMESTAMP bool true
END end 




-->
</svg>
