<?xml version="1.0" standalone="no"?>
<!-- the width and height set the total pixel output of the image in the browser -->
<!-- whatever is within the viewbox will be remapped to show in this size -->
<svg width="900" height="800" viewBox="1 0 900 800"  version="1.1" xmlns="http://www.w3.org/2000/svg" xmlns:xlink="http://www.w3.org/1999/xlink">
 <desc>ID (and file name) = Fol_2018-05-16.16_22_39.34_33.svg </desc> 
<text x = "-750" y="50" transform="rotate(-90)"  font-family="sans-serif" font-size="40" stroke ="lightgray" fill="none"> PointDistanceFollower   May 16 2018</text>
 <text x="560" y="30" font-family="sans-serif" font-size="20">Wall time passed: 1079 msec.</text>
<text x="300" y="60"   font-family="sans-serif" font-size="20" fill="lightblue">S6  lightblue</text>
<text x="300" y="85"   font-family="sans-serif" font-size="20" fill="slategrey">NCDist  slategrey</text>
<text x="300" y="110"  font-family="sans-serif" font-size="20" fill="violet">D7  violet</text>
<text x="300" y="135"  font-family="sans-serif" font-size="20" fill="olive">CS6Dist  olive</text>

 <text x="140"  y="30"  font-family="sans-serif" font-size="20" >Fol_2018-05-16.16_22_39.34_33.svg  </text> 


 <!--DISTANCE PLOT BEGINS-->


<!-- the following will scale and place the distance plot -->
<g  transform="translate(0, 50) ">
<g transform="translate(150,700) scale(1 -1)">
<line fill="none" stroke="lightblue" stroke-width="12" x1="0" y1="71.8302" x2="5.94059" y2="71.8302" />
<line fill="none" stroke="lightblue" stroke-width="12" x1="5.94059" y1="71.8302" x2="11.8812" y2="77.1539" />
<line fill="none" stroke="lightblue" stroke-width="12" x1="11.8812" y1="77.1539" x2="17.8218" y2="82.9605" />
<line fill="none" stroke="lightblue" stroke-width="12" x1="17.8218" y1="82.9605" x2="23.7624" y2="89.236" />
<line fill="none" stroke="lightblue" stroke-width="12" x1="23.7624" y1="89.236" x2="29.703" y2="95.9661" />
<line fill="none" stroke="lightblue" stroke-width="12" x1="29.703" y1="95.9661" x2="35.6436" y2="102.527" />
<line fill="none" stroke="lightblue" stroke-width="12" x1="35.6436" y1="102.527" x2="41.5842" y2="99.9182" />
<line fill="none" stroke="lightblue" stroke-width="12" x1="41.5842" y1="99.9182" x2="47.5248" y2="97.5218" />
<line fill="none" stroke="lightblue" stroke-width="12" x1="47.5248" y1="97.5218" x2="53.4653" y2="95.3404" />
<line fill="none" stroke="lightblue" stroke-width="12" x1="53.4653" y1="95.3404" x2="59.4059" y2="93.3763" />
<line fill="none" stroke="lightblue" stroke-width="12" x1="59.4059" y1="93.3763" x2="65.3465" y2="91.6316" />
<line fill="none" stroke="lightblue" stroke-width="12" x1="65.3465" y1="91.6316" x2="71.2871" y2="90.1082" />
<line fill="none" stroke="lightblue" stroke-width="12" x1="71.2871" y1="90.1082" x2="77.2277" y2="88.8078" />
<line fill="none" stroke="lightblue" stroke-width="12" x1="77.2277" y1="88.8078" x2="83.1683" y2="87.7319" />
<line fill="none" stroke="lightblue" stroke-width="12" x1="83.1683" y1="87.7319" x2="89.1089" y2="86.8815" />
<line fill="none" stroke="lightblue" stroke-width="12" x1="89.1089" y1="86.8815" x2="95.0495" y2="86.2578" />
<line fill="none" stroke="lightblue" stroke-width="12" x1="95.0495" y1="86.2578" x2="100.99" y2="85.8613" />
<line fill="none" stroke="lightblue" stroke-width="12" x1="100.99" y1="85.8613" x2="106.931" y2="85.6926" />
<line fill="none" stroke="lightblue" stroke-width="12" x1="106.931" y1="85.6926" x2="112.871" y2="85.7519" />
<line fill="none" stroke="lightblue" stroke-width="12" x1="112.871" y1="85.7519" x2="118.812" y2="86.039" />
<line fill="none" stroke="lightblue" stroke-width="12" x1="118.812" y1="86.039" x2="124.752" y2="86.5537" />
<line fill="none" stroke="lightblue" stroke-width="12" x1="124.752" y1="86.5537" x2="130.693" y2="87.2953" />
<line fill="none" stroke="lightblue" stroke-width="12" x1="130.693" y1="87.2953" x2="136.634" y2="88.2631" />
<line fill="none" stroke="lightblue" stroke-width="12" x1="136.634" y1="88.2631" x2="142.574" y2="89.4558" />
<line fill="none" stroke="lightblue" stroke-width="12" x1="142.574" y1="89.4558" x2="148.515" y2="90.8723" />
<line fill="none" stroke="lightblue" stroke-width="12" x1="148.515" y1="90.8723" x2="154.455" y2="92.511" />
<line fill="none" stroke="lightblue" stroke-width="12" x1="154.455" y1="92.511" x2="160.396" y2="94.37" />
<line fill="none" stroke="lightblue" stroke-width="12" x1="160.396" y1="94.37" x2="166.337" y2="96.4473" />
<line fill="none" stroke="lightblue" stroke-width="12" x1="166.337" y1="96.4473" x2="172.277" y2="98.7407" />
<line fill="none" stroke="lightblue" stroke-width="12" x1="172.277" y1="98.7407" x2="178.218" y2="101.248" />
<line fill="none" stroke="lightblue" stroke-width="12" x1="178.218" y1="101.248" x2="184.158" y2="103.966" />
<line fill="none" stroke="lightblue" stroke-width="12" x1="184.158" y1="103.966" x2="190.099" y2="106.893" />
<line fill="none" stroke="lightblue" stroke-width="12" x1="190.099" y1="106.893" x2="196.04" y2="110.025" />
<line fill="none" stroke="lightblue" stroke-width="12" x1="196.04" y1="110.025" x2="201.98" y2="113.359" />
<line fill="none" stroke="lightblue" stroke-width="12" x1="201.98" y1="113.359" x2="207.921" y2="116.892" />
<line fill="none" stroke="lightblue" stroke-width="12" x1="207.921" y1="116.892" x2="213.861" y2="120.621" />
<line fill="none" stroke="lightblue" stroke-width="12" x1="213.861" y1="120.621" x2="219.802" y2="124.543" />
<line fill="none" stroke="lightblue" stroke-width="12" x1="219.802" y1="124.543" x2="225.743" y2="128.653" />
<line fill="none" stroke="lightblue" stroke-width="12" x1="225.743" y1="128.653" x2="231.683" y2="132.949" />
<line fill="none" stroke="lightblue" stroke-width="12" x1="231.683" y1="132.949" x2="237.624" y2="137.426" />
<line fill="none" stroke="lightblue" stroke-width="12" x1="237.624" y1="137.426" x2="243.564" y2="142.081" />
<line fill="none" stroke="lightblue" stroke-width="12" x1="243.564" y1="142.081" x2="249.505" y2="146.911" />
<line fill="none" stroke="lightblue" stroke-width="12" x1="249.505" y1="146.911" x2="255.446" y2="151.91" />
<line fill="none" stroke="lightblue" stroke-width="12" x1="255.446" y1="151.91" x2="261.386" y2="157.076" />
<line fill="none" stroke="lightblue" stroke-width="12" x1="261.386" y1="157.076" x2="267.327" y2="162.405" />
<line fill="none" stroke="lightblue" stroke-width="12" x1="267.327" y1="162.405" x2="273.267" y2="167.892" />
<line fill="none" stroke="lightblue" stroke-width="12" x1="273.267" y1="167.892" x2="279.208" y2="173.535" />
<line fill="none" stroke="lightblue" stroke-width="12" x1="279.208" y1="173.535" x2="285.149" y2="179.329" />
<line fill="none" stroke="lightblue" stroke-width="12" x1="285.149" y1="179.329" x2="291.089" y2="185.271" />
<line fill="none" stroke="lightblue" stroke-width="12" x1="291.089" y1="185.271" x2="297.03" y2="191.356" />
<line fill="none" stroke="lightblue" stroke-width="12" x1="297.03" y1="191.356" x2="302.97" y2="197.582" />
<line fill="none" stroke="lightblue" stroke-width="12" x1="302.97" y1="197.582" x2="308.911" y2="203.944" />
<line fill="none" stroke="lightblue" stroke-width="12" x1="308.911" y1="203.944" x2="314.851" y2="210.439" />
<line fill="none" stroke="lightblue" stroke-width="12" x1="314.851" y1="210.439" x2="320.792" y2="217.063" />
<line fill="none" stroke="lightblue" stroke-width="12" x1="320.792" y1="217.063" x2="326.733" y2="223.813" />
<line fill="none" stroke="lightblue" stroke-width="12" x1="326.733" y1="223.813" x2="332.673" y2="230.686" />
<line fill="none" stroke="lightblue" stroke-width="12" x1="332.673" y1="230.686" x2="338.614" y2="237.677" />
<line fill="none" stroke="lightblue" stroke-width="12" x1="338.614" y1="237.677" x2="344.554" y2="244.785" />
<line fill="none" stroke="lightblue" stroke-width="12" x1="344.554" y1="244.785" x2="350.495" y2="244.465" />
<line fill="none" stroke="lightblue" stroke-width="12" x1="350.495" y1="244.465" x2="356.436" y2="237.493" />
<line fill="none" stroke="lightblue" stroke-width="12" x1="356.436" y1="237.493" x2="362.376" y2="230.638" />
<line fill="none" stroke="lightblue" stroke-width="12" x1="362.376" y1="230.638" x2="368.317" y2="223.906" />
<line fill="none" stroke="lightblue" stroke-width="12" x1="368.317" y1="223.906" x2="374.257" y2="217.298" />
<line fill="none" stroke="lightblue" stroke-width="12" x1="374.257" y1="217.298" x2="380.198" y2="210.819" />
<line fill="none" stroke="lightblue" stroke-width="12" x1="380.198" y1="210.819" x2="386.139" y2="204.471" />
<line fill="none" stroke="lightblue" stroke-width="12" x1="386.139" y1="204.471" x2="392.079" y2="198.26" />
<line fill="none" stroke="lightblue" stroke-width="12" x1="392.079" y1="198.26" x2="398.02" y2="192.187" />
<line fill="none" stroke="lightblue" stroke-width="12" x1="398.02" y1="192.187" x2="403.96" y2="186.256" />
<line fill="none" stroke="lightblue" stroke-width="12" x1="403.96" y1="186.256" x2="409.901" y2="180.472" />
<line fill="none" stroke="lightblue" stroke-width="12" x1="409.901" y1="180.472" x2="415.842" y2="174.838" />
<line fill="none" stroke="lightblue" stroke-width="12" x1="415.842" y1="174.838" x2="421.782" y2="169.358" />
<line fill="none" stroke="lightblue" stroke-width="12" x1="421.782" y1="169.358" x2="427.723" y2="164.035" />
<line fill="none" stroke="lightblue" stroke-width="12" x1="427.723" y1="164.035" x2="433.663" y2="158.873" />
<line fill="none" stroke="lightblue" stroke-width="12" x1="433.663" y1="158.873" x2="439.604" y2="153.876" />
<line fill="none" stroke="lightblue" stroke-width="12" x1="439.604" y1="153.876" x2="445.545" y2="149.047" />
<line fill="none" stroke="lightblue" stroke-width="12" x1="445.545" y1="149.047" x2="451.485" y2="144.391" />
<line fill="none" stroke="lightblue" stroke-width="12" x1="451.485" y1="144.391" x2="457.426" y2="139.911" />
<line fill="none" stroke="lightblue" stroke-width="12" x1="457.426" y1="139.911" x2="463.366" y2="135.61" />
<line fill="none" stroke="lightblue" stroke-width="12" x1="463.366" y1="135.61" x2="469.307" y2="131.493" />
<line fill="none" stroke="lightblue" stroke-width="12" x1="469.307" y1="131.493" x2="475.248" y2="127.562" />
<line fill="none" stroke="lightblue" stroke-width="12" x1="475.248" y1="127.562" x2="481.188" y2="123.821" />
<line fill="none" stroke="lightblue" stroke-width="12" x1="481.188" y1="123.821" x2="487.129" y2="120.274" />
<line fill="none" stroke="lightblue" stroke-width="12" x1="487.129" y1="120.274" x2="493.069" y2="116.924" />
<line fill="none" stroke="lightblue" stroke-width="12" x1="493.069" y1="116.924" x2="499.01" y2="113.774" />
<line fill="none" stroke="lightblue" stroke-width="12" x1="499.01" y1="113.774" x2="504.95" y2="110.826" />
<line fill="none" stroke="lightblue" stroke-width="12" x1="504.95" y1="110.826" x2="510.891" y2="108.085" />
<line fill="none" stroke="lightblue" stroke-width="12" x1="510.891" y1="108.085" x2="516.832" y2="105.552" />
<line fill="none" stroke="lightblue" stroke-width="12" x1="516.832" y1="105.552" x2="522.772" y2="103.23" />
<line fill="none" stroke="lightblue" stroke-width="12" x1="522.772" y1="103.23" x2="528.713" y2="101.122" />
<line fill="none" stroke="lightblue" stroke-width="12" x1="528.713" y1="101.122" x2="534.653" y2="99.229" />
<line fill="none" stroke="lightblue" stroke-width="12" x1="534.653" y1="99.229" x2="540.594" y2="97.5541" />
<line fill="none" stroke="lightblue" stroke-width="12" x1="540.594" y1="97.5541" x2="546.535" y2="96.0988" />
<line fill="none" stroke="lightblue" stroke-width="12" x1="546.535" y1="96.0988" x2="552.475" y2="94.8646" />
<line fill="none" stroke="lightblue" stroke-width="12" x1="552.475" y1="94.8646" x2="558.416" y2="93.8528" />
<line fill="none" stroke="lightblue" stroke-width="12" x1="558.416" y1="93.8528" x2="564.356" y2="93.0646" />
<line fill="none" stroke="lightblue" stroke-width="12" x1="564.356" y1="93.0646" x2="570.297" y2="92.5008" />
<line fill="none" stroke="lightblue" stroke-width="12" x1="570.297" y1="92.5008" x2="576.238" y2="92.162" />
<line fill="none" stroke="lightblue" stroke-width="12" x1="576.238" y1="92.162" x2="582.178" y2="86.5581" />
<line fill="none" stroke="lightblue" stroke-width="12" x1="582.178" y1="86.5581" x2="588.119" y2="78.9678" />
<line fill="none" stroke="lightblue" stroke-width="12" x1="588.119" y1="78.9678" x2="594.059" y2="71.8302" />
<line fill="none" stroke="olive" stroke-width="3" x1="0" y1="71.8302" x2="5.94059" y2="71.8302" />
<line fill="none" stroke="olive" stroke-width="3" x1="5.94059" y1="71.8302" x2="11.8812" y2="77.1539" />
<line fill="none" stroke="olive" stroke-width="3" x1="11.8812" y1="77.1539" x2="17.8218" y2="82.9605" />
<line fill="none" stroke="olive" stroke-width="3" x1="17.8218" y1="82.9605" x2="23.7624" y2="89.236" />
<line fill="none" stroke="olive" stroke-width="3" x1="23.7624" y1="89.236" x2="29.703" y2="95.9661" />
<line fill="none" stroke="olive" stroke-width="3" x1="29.703" y1="95.9661" x2="35.6436" y2="430.524" />
<line fill="none" stroke="olive" stroke-width="3" x1="35.6436" y1="430.524" x2="41.5842" y2="425.263" />
<line fill="none" stroke="olive" stroke-width="3" x1="41.5842" y1="425.263" x2="47.5248" y2="420.117" />
<line fill="none" stroke="olive" stroke-width="3" x1="47.5248" y1="420.117" x2="53.4653" y2="415.091" />
<line fill="none" stroke="olive" stroke-width="3" x1="53.4653" y1="415.091" x2="59.4059" y2="410.185" />
<line fill="none" stroke="olive" stroke-width="3" x1="59.4059" y1="410.185" x2="65.3465" y2="405.402" />
<line fill="none" stroke="olive" stroke-width="3" x1="65.3465" y1="405.402" x2="71.2871" y2="400.743" />
<line fill="none" stroke="olive" stroke-width="3" x1="71.2871" y1="400.743" x2="77.2277" y2="396.21" />
<line fill="none" stroke="olive" stroke-width="3" x1="77.2277" y1="396.21" x2="83.1683" y2="391.806" />
<line fill="none" stroke="olive" stroke-width="3" x1="83.1683" y1="391.806" x2="89.1089" y2="387.532" />
<line fill="none" stroke="olive" stroke-width="3" x1="89.1089" y1="387.532" x2="95.0495" y2="383.39" />
<line fill="none" stroke="olive" stroke-width="3" x1="95.0495" y1="383.39" x2="100.99" y2="379.382" />
<line fill="none" stroke="olive" stroke-width="3" x1="100.99" y1="379.382" x2="106.931" y2="375.51" />
<line fill="none" stroke="olive" stroke-width="3" x1="106.931" y1="375.51" x2="112.871" y2="371.775" />
<line fill="none" stroke="olive" stroke-width="3" x1="112.871" y1="371.775" x2="118.812" y2="368.179" />
<line fill="none" stroke="olive" stroke-width="3" x1="118.812" y1="368.179" x2="124.752" y2="364.724" />
<line fill="none" stroke="olive" stroke-width="3" x1="124.752" y1="364.724" x2="130.693" y2="361.412" />
<line fill="none" stroke="olive" stroke-width="3" x1="130.693" y1="361.412" x2="136.634" y2="358.244" />
<line fill="none" stroke="olive" stroke-width="3" x1="136.634" y1="358.244" x2="142.574" y2="355.221" />
<line fill="none" stroke="olive" stroke-width="3" x1="142.574" y1="355.221" x2="148.515" y2="352.346" />
<line fill="none" stroke="olive" stroke-width="3" x1="148.515" y1="352.346" x2="154.455" y2="349.62" />
<line fill="none" stroke="olive" stroke-width="3" x1="154.455" y1="349.62" x2="160.396" y2="347.044" />
<line fill="none" stroke="olive" stroke-width="3" x1="160.396" y1="347.044" x2="166.337" y2="344.62" />
<line fill="none" stroke="olive" stroke-width="3" x1="166.337" y1="344.62" x2="172.277" y2="342.348" />
<line fill="none" stroke="olive" stroke-width="3" x1="172.277" y1="342.348" x2="178.218" y2="340.23" />
<line fill="none" stroke="olive" stroke-width="3" x1="178.218" y1="340.23" x2="184.158" y2="338.268" />
<line fill="none" stroke="olive" stroke-width="3" x1="184.158" y1="338.268" x2="190.099" y2="336.461" />
<line fill="none" stroke="olive" stroke-width="3" x1="190.099" y1="336.461" x2="196.04" y2="334.812" />
<line fill="none" stroke="olive" stroke-width="3" x1="196.04" y1="334.812" x2="201.98" y2="333.321" />
<line fill="none" stroke="olive" stroke-width="3" x1="201.98" y1="333.321" x2="207.921" y2="331.99" />
<line fill="none" stroke="olive" stroke-width="3" x1="207.921" y1="331.99" x2="213.861" y2="330.818" />
<line fill="none" stroke="olive" stroke-width="3" x1="213.861" y1="330.818" x2="219.802" y2="329.806" />
<line fill="none" stroke="olive" stroke-width="3" x1="219.802" y1="329.806" x2="225.743" y2="328.955" />
<line fill="none" stroke="olive" stroke-width="3" x1="225.743" y1="328.955" x2="231.683" y2="328.266" />
<line fill="none" stroke="olive" stroke-width="3" x1="231.683" y1="328.266" x2="237.624" y2="327.739" />
<line fill="none" stroke="olive" stroke-width="3" x1="237.624" y1="327.739" x2="243.564" y2="327.374" />
<line fill="none" stroke="olive" stroke-width="3" x1="243.564" y1="327.374" x2="249.505" y2="327.171" />
<line fill="none" stroke="olive" stroke-width="3" x1="249.505" y1="327.171" x2="255.446" y2="327.131" />
<line fill="none" stroke="olive" stroke-width="3" x1="255.446" y1="327.131" x2="261.386" y2="327.254" />
<line fill="none" stroke="olive" stroke-width="3" x1="261.386" y1="327.254" x2="267.327" y2="327.538" />
<line fill="none" stroke="olive" stroke-width="3" x1="267.327" y1="327.538" x2="273.267" y2="327.986" />
<line fill="none" stroke="olive" stroke-width="3" x1="273.267" y1="327.986" x2="279.208" y2="328.595" />
<line fill="none" stroke="olive" stroke-width="3" x1="279.208" y1="328.595" x2="285.149" y2="329.366" />
<line fill="none" stroke="olive" stroke-width="3" x1="285.149" y1="329.366" x2="291.089" y2="330.298" />
<line fill="none" stroke="olive" stroke-width="3" x1="291.089" y1="330.298" x2="297.03" y2="331.391" />
<line fill="none" stroke="olive" stroke-width="3" x1="297.03" y1="331.391" x2="302.97" y2="332.644" />
<line fill="none" stroke="olive" stroke-width="3" x1="302.97" y1="332.644" x2="308.911" y2="334.056" />
<line fill="none" stroke="olive" stroke-width="3" x1="308.911" y1="334.056" x2="314.851" y2="335.627" />
<line fill="none" stroke="olive" stroke-width="3" x1="314.851" y1="335.627" x2="320.792" y2="337.356" />
<line fill="none" stroke="olive" stroke-width="3" x1="320.792" y1="337.356" x2="326.733" y2="339.242" />
<line fill="none" stroke="olive" stroke-width="3" x1="326.733" y1="339.242" x2="332.673" y2="341.283" />
<line fill="none" stroke="olive" stroke-width="3" x1="332.673" y1="341.283" x2="338.614" y2="343.479" />
<line fill="none" stroke="olive" stroke-width="3" x1="338.614" y1="343.479" x2="344.554" y2="345.828" />
<line fill="none" stroke="olive" stroke-width="3" x1="344.554" y1="345.828" x2="350.495" y2="348.329" />
<line fill="none" stroke="olive" stroke-width="3" x1="350.495" y1="348.329" x2="356.436" y2="350.982" />
<line fill="none" stroke="olive" stroke-width="3" x1="356.436" y1="350.982" x2="362.376" y2="353.783" />
<line fill="none" stroke="olive" stroke-width="3" x1="362.376" y1="353.783" x2="368.317" y2="356.733" />
<line fill="none" stroke="olive" stroke-width="3" x1="368.317" y1="356.733" x2="374.257" y2="359.83" />
<line fill="none" stroke="olive" stroke-width="3" x1="374.257" y1="359.83" x2="380.198" y2="363.071" />
<line fill="none" stroke="olive" stroke-width="3" x1="380.198" y1="363.071" x2="386.139" y2="366.456" />
<line fill="none" stroke="olive" stroke-width="3" x1="386.139" y1="366.456" x2="392.079" y2="369.982" />
<line fill="none" stroke="olive" stroke-width="3" x1="392.079" y1="369.982" x2="398.02" y2="373.648" />
<line fill="none" stroke="olive" stroke-width="3" x1="398.02" y1="373.648" x2="403.96" y2="377.453" />
<line fill="none" stroke="olive" stroke-width="3" x1="403.96" y1="377.453" x2="409.901" y2="381.395" />
<line fill="none" stroke="olive" stroke-width="3" x1="409.901" y1="381.395" x2="415.842" y2="385.471" />
<line fill="none" stroke="olive" stroke-width="3" x1="415.842" y1="385.471" x2="421.782" y2="389.68" />
<line fill="none" stroke="olive" stroke-width="3" x1="421.782" y1="389.68" x2="427.723" y2="394.02" />
<line fill="none" stroke="olive" stroke-width="3" x1="427.723" y1="394.02" x2="433.663" y2="398.489" />
<line fill="none" stroke="olive" stroke-width="3" x1="433.663" y1="398.489" x2="439.604" y2="403.086" />
<line fill="none" stroke="olive" stroke-width="3" x1="439.604" y1="403.086" x2="445.545" y2="407.808" />
<line fill="none" stroke="olive" stroke-width="3" x1="445.545" y1="407.808" x2="451.485" y2="412.653" />
<line fill="none" stroke="olive" stroke-width="3" x1="451.485" y1="412.653" x2="457.426" y2="417.621" />
<line fill="none" stroke="olive" stroke-width="3" x1="457.426" y1="417.621" x2="463.366" y2="422.707" />
<line fill="none" stroke="olive" stroke-width="3" x1="463.366" y1="422.707" x2="469.307" y2="427.912" />
<line fill="none" stroke="olive" stroke-width="3" x1="469.307" y1="427.912" x2="475.248" y2="433.232" />
<line fill="none" stroke="olive" stroke-width="3" x1="475.248" y1="433.232" x2="481.188" y2="438.666" />
<line fill="none" stroke="olive" stroke-width="3" x1="481.188" y1="438.666" x2="487.129" y2="444.212" />
<line fill="none" stroke="olive" stroke-width="3" x1="487.129" y1="444.212" x2="493.069" y2="449.868" />
<line fill="none" stroke="olive" stroke-width="3" x1="493.069" y1="449.868" x2="499.01" y2="455.633" />
<line fill="none" stroke="olive" stroke-width="3" x1="499.01" y1="455.633" x2="504.95" y2="461.503" />
<line fill="none" stroke="olive" stroke-width="3" x1="504.95" y1="461.503" x2="510.891" y2="467.477" />
<line fill="none" stroke="olive" stroke-width="3" x1="510.891" y1="467.477" x2="516.832" y2="473.554" />
<line fill="none" stroke="olive" stroke-width="3" x1="516.832" y1="473.554" x2="522.772" y2="479.731" />
<line fill="none" stroke="olive" stroke-width="3" x1="522.772" y1="479.731" x2="528.713" y2="486.007" />
<line fill="none" stroke="olive" stroke-width="3" x1="528.713" y1="486.007" x2="534.653" y2="492.379" />
<line fill="none" stroke="olive" stroke-width="3" x1="534.653" y1="492.379" x2="540.594" y2="498.847" />
<line fill="none" stroke="olive" stroke-width="3" x1="540.594" y1="498.847" x2="546.535" y2="505.407" />
<line fill="none" stroke="olive" stroke-width="3" x1="546.535" y1="505.407" x2="552.475" y2="512.059" />
<line fill="none" stroke="olive" stroke-width="3" x1="552.475" y1="512.059" x2="558.416" y2="518.801" />
<line fill="none" stroke="olive" stroke-width="3" x1="558.416" y1="518.801" x2="564.356" y2="525.63" />
<line fill="none" stroke="olive" stroke-width="3" x1="564.356" y1="525.63" x2="570.297" y2="532.545" />
<line fill="none" stroke="olive" stroke-width="3" x1="570.297" y1="532.545" x2="576.238" y2="539.545" />
<line fill="none" stroke="olive" stroke-width="3" x1="576.238" y1="539.545" x2="582.178" y2="86.5581" />
<line fill="none" stroke="olive" stroke-width="3" x1="582.178" y1="86.5581" x2="588.119" y2="78.9678" />
<line fill="none" stroke="olive" stroke-width="3" x1="588.119" y1="78.9678" x2="594.059" y2="71.8302" />

<!--Draw Glitches -->

<line fill="none" stroke="black" stroke-width="4" x1="35.6436" y1="420.524" x2="35.6436" y2="370.524"  stroke-dasharray = "10,5" />
<text transform="scale(1,-1)" font-family="sans-serif" font-size="30" stroke = "rgb(0,0,0)" line = "rgb(0,0,0)"  fill = "olive" x="40.6436" y="-370.524" >5</text>

<!-- -->


<!--Draw the X and Y axes -->
<polyline fill="none" stroke="black" stroke-width="6"  points=" 600,0 0,0 0, 600" />
<polyline fill="none" stroke="black" stroke-width="1"  points=" 0 600  600 600  600 0" />
<!-- -->


<!--Draw labels and tics for X axis -->

<line fill="none" stroke="black"  stroke-width="6"  x1="0.5" y1="0" x2="0.5" y2="-20" />
<text transform="scale(1,-1)" font-family="sans-serif" font-size="30" x="-24.5" y="45" >0</text>
<line fill="none" stroke="black"  stroke-width="6"  x1="119.312" y1="0" x2="119.312" y2="-20" />
<text transform="scale(1,-1)" font-family="sans-serif" font-size="30" x="94.3119" y="45" >20</text>
<line fill="none" stroke="black"  stroke-width="6"  x1="238.124" y1="0" x2="238.124" y2="-20" />
<text transform="scale(1,-1)" font-family="sans-serif" font-size="30" x="213.124" y="45" >40</text>
<line fill="none" stroke="black"  stroke-width="6"  x1="356.936" y1="0" x2="356.936" y2="-20" />
<text transform="scale(1,-1)" font-family="sans-serif" font-size="30" x="331.936" y="45" >60</text>
<line fill="none" stroke="black"  stroke-width="6"  x1="475.748" y1="0" x2="475.748" y2="-20" />
<text transform="scale(1,-1)" font-family="sans-serif" font-size="30" x="450.748" y="45" >80</text>
<line fill="none" stroke="black"  stroke-width="6"  x1="594.559" y1="0" x2="594.559" y2="-20" />
<text transform="scale(1,-1)" font-family="sans-serif" font-size="30" x="569.559" y="45" >100</text>


<!--Draw labels and tics for Y axis -->

<line fill="none" stroke="black" stroke-width="6" x1="0.0" y1="0" x2="-20" y2="0" />
<text transform="scale(1,-1)" text-anchor="end" font-family="sans-serif" font-size="30" x="-25" y="10" >6</text>
<line fill="none" stroke="black" stroke-width="6" x1="0.0" y1="85.7143" x2="-20" y2="85.7143" />
<text transform="scale(1,-1)" text-anchor="end" font-family="sans-serif" font-size="30" x="-25" y="-75.7143" >7</text>
<line fill="none" stroke="black" stroke-width="6" x1="0.0" y1="171.429" x2="-20" y2="171.429" />
<text transform="scale(1,-1)" text-anchor="end" font-family="sans-serif" font-size="30" x="-25" y="-161.429" >8</text>
<line fill="none" stroke="black" stroke-width="6" x1="0.0" y1="257.143" x2="-20" y2="257.143" />
<text transform="scale(1,-1)" text-anchor="end" font-family="sans-serif" font-size="30" x="-25" y="-247.143" >9</text>
<line fill="none" stroke="black" stroke-width="6" x1="0.0" y1="342.857" x2="-20" y2="342.857" />
<text transform="scale(1,-1)" text-anchor="end" font-family="sans-serif" font-size="30" x="-25" y="-332.857" >10</text>
<line fill="none" stroke="black" stroke-width="6" x1="0.0" y1="428.571" x2="-20" y2="428.571" />
<text transform="scale(1,-1)" text-anchor="end" font-family="sans-serif" font-size="30" x="-25" y="-418.571" >11</text>
<line fill="none" stroke="black" stroke-width="6" x1="0.0" y1="514.286" x2="-20" y2="514.286" />
<text transform="scale(1,-1)" text-anchor="end" font-family="sans-serif" font-size="30" x="-25" y="-504.286" >12</text>
<line fill="none" stroke="black" stroke-width="6" x1="0.0" y1="600" x2="-20" y2="600" />
<text transform="scale(1,-1)" text-anchor="end" font-family="sans-serif" font-size="30" x="-25" y="-590" >13</text>

-->
</g>
</g>
<!-- Run Constants
PRINTDISTANCEDATA bool true
GLITCHESONLY bool true
PLOT 2doubles 3 4
PERTURBBY double 0.05
GLITCHLEVEL double 3
BOUNDARYWINDOW double 0.065
FRAMESPERPATH int 200
STEPSPERFRAME int 100
TRIALS int 1
ALLBLACK bool true
FILEPREFIX string Fol
GRAPHSIZE int 0
BORDER int 0
PLOTSIZE int 0
G6LINEWIDTH int 3
DELONELINEWIDTH int 10
AXISWIDTH int 6
TICLENGTH int 20
VECTOR g6 
FOLLOWERMODE FollowerMode line
FIXRANDOMSEED fixRandomSeed false
RANDOMSEED int 19191
TIMESTAMP bool true
END end 




-->
</svg>
