<?xml version="1.0" standalone="no"?>
<!-- the width and height set the total pixel output of the image in the browser -->
<!-- whatever is within the viewbox will be remapped to show in this size -->
<svg width="1000" height="1000" viewBox="1 0 1000 1000"  version="1.1" xmlns="http://www.w3.org/2000/svg" xmlns:xlink="http://www.w3.org/1999/xlink">
 <desc>ID (and file name) = Fol_2018-05-09.12_32_42.1_7.svg </desc> 
 <text x="700" y="30" font-family="sans-serif" font-size="20">Wall time passed: -331976 msec.</text>
<text x="300" y="60"   font-family="sans-serif" font-size="20" fill="lightblue">S6  lightblue</text>
<text x="300" y="85"   font-family="sans-serif" font-size="20" fill="slategrey">NCDist  slategrey</text>
<text x="300" y="110"  font-family="sans-serif" font-size="20" fill="violet">D7  violet</text>
<text x="300" y="135"  font-family="sans-serif" font-size="20" fill="olive">CS6Dist  olive</text>



 <!--DISTANCE PLOT BEGINS-->


<!-- the following will scale and place the distance plot -->
<g  transform="translate(0,50) ">
<g transform="translate(150,700) scale(1 -1)">
   <polyline fill="none" stroke=" lightblue " stroke-width=" 12 " points=" 0.52,0 1.04,1.7289 1.56,3.45781 2.08,5.18671 2.6,6.91561 3.12,8.64452 3.64,10.3734 4.16,12.1023 4.68,13.8312 5.2,15.5601 5.72,17.289 6.24,19.0179 6.76,20.7468 7.28,22.4757 7.8,24.2046 8.32,25.9336 8.84,27.6625 9.36,29.3914 9.88,31.1203 10.4,32.8492 10.92,34.5781 11.44,36.307 11.96,38.0359 12.48,39.7648 13,41.4937 13.52,43.2226 14.04,44.9515 14.56,46.6804 15.08,48.4093 15.6,50.1382 16.12,51.8671 16.64,53.596 17.16,55.3249 17.68,57.0538 18.2,58.7827 18.72,60.5116 19.24,62.2405 19.76,63.9694 20.28,65.6983 20.8,67.4272 21.32,69.1561 21.84,70.885 22.36,72.6139 22.88,74.3428 23.4,76.0717 23.92,77.8007 24.44,79.5296 24.96,81.2585 25.48,82.9874 26,84.7163 26.52,86.4452 27.04,88.1741 27.56,89.903 28.08,91.6319 28.6,93.3608 29.12,95.0897 29.64,96.8186 30.16,98.5475 30.68,100.276 31.2,102.005 31.72,103.734 32.24,105.463 32.76,107.192 33.28,108.921 33.8,110.65 34.32,112.379 34.84,114.108 35.36,115.837 35.88,117.565 36.4,119.294 36.92,121.023 37.44,122.752 37.96,124.481 38.48,126.21 39,127.939 39.52,129.668 40.04,131.084 40.56,132.425 41.08,133.778 41.6,135.141 42.12,136.515 42.64,137.899 43.16,139.293 43.68,140.697 44.2,142.11 44.72,143.532 45.24,144.963 45.76,146.402 46.28,147.85 46.8,149.306 47.32,150.77 47.84,152.241 48.36,153.72 48.88,155.206 49.4,156.699 49.92,158.199 50.44,159.706 50.96,161.218 51.48,162.737 52,164.263 52.52,165.794 53.04,167.33 53.56,168.873 54.08,170.42 54.6,171.973 55.12,173.531 55.64,175.095 56.16,176.663 56.68,178.235 57.2,179.813 57.72,181.395 58.24,182.981 58.76,184.571 59.28,185.028 59.8,184.68 60.32,184.335 60.84,183.994 61.36,183.657 61.88,183.325 62.4,182.997 62.92,182.672 63.44,182.353 63.96,182.037 64.48,181.726 65,181.418 65.52,181.116 66.04,180.817 66.56,180.523 67.08,180.233 67.6,179.948 68.12,179.667 68.64,179.391 69.16,179.119 69.68,178.851 70.2,178.588 70.72,178.33 71.24,178.076 71.76,177.826 72.28,177.581 72.8,177.341 73.32,177.105 73.84,176.874 74.36,176.648 74.88,176.426 75.4,176.209 75.92,175.997 76.44,175.789 76.96,175.586 77.48,175.388 78,175.195 78.52,175.006 79.04,174.822 79.56,174.643 80.08,174.469 80.6,174.3 81.12,174.135 81.64,173.976 82.16,173.821 82.68,173.671 83.2,173.526 83.72,173.386 84.24,173.251 84.76,173.121 85.28,172.996 85.8,172.876 86.32,172.761 86.84,172.65 87.36,172.545 87.88,172.445 88.4,172.35 88.92,172.26 89.44,172.175 89.96,172.095 90.48,172.019 91,171.949 91.52,171.885 92.04,171.825 92.56,171.77 93.08,171.72 93.6,171.676 94.12,171.636 94.64,171.601 95.16,171.572 95.68,171.548 96.2,171.529 96.72,171.515 97.24,171.505 97.76,171.502 98.28,171.503 98.8,171.509 99.32,171.52 99.84,171.537 100.36,171.559 100.88,171.585 101.4,171.617 101.92,171.654 102.44,171.696 102.96,171.743 103.48,171.795 104,171.852 104.52,171.914 105.04,171.982 105.56,172.054 106.08,172.131 106.6,172.214 107.12,172.301 107.64,172.394 108.16,172.491 108.68,172.594 109.2,172.701 109.72,172.814 110.24,172.931 110.76,173.054 111.28,173.181 111.8,173.314 112.32,173.451 112.84,173.593 113.36,173.741 113.88,173.893 114.4,174.05 114.92,174.212 115.44,174.378 115.96,174.55 116.48,174.726 117,174.908 117.52,175.094 118.04,175.284 118.56,175.48 119.08,175.68 119.6,175.886 120.12,176.095 120.64,176.31 121.16,176.529 121.68,176.753 122.2,176.982 122.72,177.215 123.24,177.453 123.76,177.695 124.28,177.942 124.8,178.194 125.32,178.45 125.84,178.579 126.36,178.708 126.88,178.84 127.4,178.975 127.92,179.114 128.44,179.256 128.96,179.402 129.48,179.551 130,179.703 130.52,179.859 131.04,180.019 131.56,180.182 132.08,180.348 132.6,180.517 133.12,180.69 133.64,180.866 134.16,181.046 134.68,181.229 135.2,181.415 135.72,181.604 136.24,181.797 136.76,181.993 137.28,182.193 137.8,182.395 138.32,182.601 138.84,182.81 139.36,183.023 139.88,183.238 140.4,183.457 140.92,183.679 141.44,183.904 141.96,184.133 142.48,184.364 143,184.599 143.52,184.837 144.04,185.078 144.56,185.322 145.08,185.569 145.6,185.82 146.12,186.073 146.64,186.33 147.16,186.589 147.68,186.852 148.2,187.117 148.72,187.386 149.24,187.657 149.76,187.932 150.28,188.21 150.8,188.49 151.32,188.774 151.84,189.06 152.36,189.35 152.88,189.642 153.4,189.937 153.92,190.235 154.44,190.536 154.96,190.84 155.48,191.146 156,191.456 156.52,191.768 157.04,192.083 157.56,192.401 158.08,192.722 158.6,193.045 159.12,193.371 159.64,193.7 160.16,194.032 160.68,194.366 161.2,194.703 161.72,195.043 162.24,195.385 162.76,195.73 163.28,196.078 163.8,196.428 164.32,196.781 164.84,197.137 165.36,197.495 165.88,197.855 166.4,198.219 166.92,198.584 167.44,198.952 167.96,199.323 168.48,199.696 169,200.072 169.52,200.45 170.04,200.831 170.56,201.214 171.08,201.6 171.6,201.988 172.12,202.378 172.64,202.771 173.16,203.166 173.68,203.563 174.2,203.963 174.72,204.365 175.24,204.77 175.76,205.176 176.28,205.585 176.8,205.997 177.32,206.41 177.84,206.826 178.36,207.244 178.88,207.664 179.4,208.087 179.92,208.511 180.44,208.938 180.96,209.367 181.48,209.799 182,210.232 182.52,210.667 183.04,211.105 183.56,211.544 184.08,211.986 184.6,212.43 185.12,212.876 185.64,213.324 186.16,213.774 186.68,214.226 187.2,214.68 187.72,215.136 188.24,215.594 188.76,216.054 189.28,216.516 189.8,216.98 190.32,217.445 190.84,217.913 191.36,218.383 191.88,218.854 192.4,219.328 192.92,219.803 193.44,220.212 193.96,220.573 194.48,220.937 195,221.303 195.52,221.671 196.04,222.041 196.56,222.413 197.08,222.788 197.6,223.165 198.12,223.544 198.64,223.925 199.16,224.309 199.68,224.695 200.2,225.082 200.72,225.472 201.24,225.865 201.76,226.259 202.28,226.655 202.8,227.054 203.32,227.454 203.84,227.857 204.36,228.262 204.88,228.669 205.4,229.078 205.92,229.489 206.44,229.901 206.96,230.316 207.48,230.733 208,231.152 208.52,231.573 209.04,231.996 209.56,232.421 210.08,232.848 210.6,233.277 211.12,233.708 211.64,234.141 212.16,234.575 212.68,235.012 213.2,235.45 213.72,235.89 214.24,236.332 214.76,236.776 215.28,237.222 215.8,237.67 216.32,238.12 216.84,238.571 217.36,239.024 217.88,239.479 218.4,239.936 218.92,240.394 219.44,240.855 219.96,241.317 220.48,241.78 221,242.246 221.52,242.713 222.04,243.182 222.56,243.653 223.08,244.125 223.6,244.599 224.12,245.075 224.64,245.553 225.16,252.234 225.68,252.477 226.2,252.722 226.72,252.969 227.24,253.217 227.76,253.467 228.28,253.719 228.8,253.972 229.32,254.227 229.84,254.483 230.36,254.741 230.88,255 231.4,255.262 231.92,255.524 232.44,255.788 232.96,255.849 233.48,255.773 234,255.699 234.52,255.626 235.04,255.556 235.56,255.487 236.08,255.42 236.6,255.355 237.12,255.291 237.64,255.23 238.16,255.17 238.68,255.112 239.2,255.056 239.72,255.002 240.24,254.95 240.76,254.899 241.28,254.85 241.8,254.803 242.32,254.758 242.84,254.715 243.36,254.674 243.88,254.634 244.4,254.596 244.92,254.56 245.44,254.526 245.96,254.494 246.48,254.464 247,254.435 247.52,254.408 248.04,254.384 248.56,254.361 249.08,254.339 249.6,254.32 250.12,254.302 250.64,254.287 251.16,254.273 251.68,254.261 252.2,254.251 252.72,254.243 253.24,254.236 253.76,254.231 254.28,254.229 254.8,254.228 255.32,254.229 255.84,254.231 256.36,254.236 256.88,254.242 257.4,254.251 257.92,254.261 258.44,254.273 258.96,254.287 259.48,254.302 260,254.32 260.52,254.339 261.04,254.36 261.56,254.383 262.08,254.408 262.6,254.435 263.12,254.464 263.64,254.494 264.16,254.526 264.68,254.56 265.2,254.596 265.72,254.634 266.24,254.673 266.76,254.715 267.28,254.758 267.8,254.803 268.32,254.85 268.84,254.899 269.36,254.949 269.88,255.002 270.4,255.056 270.92,255.112 271.44,255.17 271.96,255.229 272.48,255.291 273,255.354 273.52,255.419 274.04,255.486 274.56,255.555 275.08,255.626 275.6,255.698 276.12,255.772 276.64,255.848 277.16,255.926 277.68,256.006 278.2,256.087 278.72,256.171 279.24,256.256 279.76,256.343 280.28,256.431 280.8,256.522 281.32,256.614 281.84,256.708 282.36,256.804 282.88,256.902 283.4,257.001 283.92,257.102 284.44,257.205 284.96,257.31 285.48,257.416 286,257.525 286.52,257.635 287.04,257.747 287.56,257.86 288.08,257.976 288.6,258.093 289.12,258.212 289.64,258.332 290.16,258.455 290.68,258.579 291.2,258.705 291.72,258.833 292.24,258.962 292.76,259.093 293.28,259.226 293.8,259.361 294.32,259.497 294.84,259.635 295.36,259.775 295.88,259.917 296.4,260.06 296.92,260.205 297.44,260.352 297.96,260.501 298.48,260.651 299,260.803 299.52,260.956 300.04,261.112 300.56,261.269 301.08,261.427 301.6,261.588 302.12,261.75 302.64,261.914 303.16,262.079 303.68,262.246 304.2,262.415 304.72,262.586 305.24,262.758 305.76,262.932 306.28,263.107 306.8,263.284 307.32,263.463 307.84,263.644 308.36,263.826 308.88,264.01 309.4,264.195 309.92,264.382 310.44,264.571 310.96,264.761 311.48,264.953 312,265.147 312.52,265.342 313.04,265.539 313.56,265.738 314.08,265.938 314.6,266.14 315.12,266.343 315.64,266.548 316.16,266.754 316.68,266.962 317.2,267.172 317.72,267.383 318.24,267.596 318.76,267.811 319.28,268.027 319.8,268.245 320.32,268.464 320.84,268.684 321.36,268.907 321.88,269.131 322.4,269.356 322.92,269.583 323.44,269.812 323.96,270.042 324.48,270.273 325,270.507 325.52,270.741 326.04,270.977 326.56,271.215 327.08,271.454 327.6,271.695 328.12,271.937 328.64,272.181 329.16,272.426 329.68,272.673 330.2,272.922 330.72,273.171 331.24,273.423 331.76,273.675 332.28,273.929 332.8,274.185 333.32,274.442 333.84,274.701 334.36,274.961 334.88,275.223 335.4,275.486 335.92,275.75 336.44,276.016 336.96,276.283 337.48,276.552 338,276.822 338.52,277.094 339.04,277.367 339.56,277.641 340.08,277.917 340.6,278.194 341.12,278.473 341.64,278.753 342.16,279.035 342.68,279.318 343.2,279.602 343.72,279.888 344.24,280.175 344.76,280.463 345.28,280.753 345.8,281.044 346.32,281.337 346.84,281.631 347.36,281.224 347.88,280.57 348.4,279.915 348.92,279.26 349.44,278.606 349.96,277.952 350.48,277.297 351,276.643 351.52,275.99 352.04,275.336 352.56,274.682 353.08,274.029 353.6,273.376 354.12,272.723 354.64,272.07 355.16,271.417 355.68,270.764 356.2,269.919 356.72,269.062 357.24,268.205 357.76,267.348 358.28,266.491 358.8,265.634 359.32,264.778 359.84,263.921 360.36,263.064 360.88,262.207 361.4,261.35 361.92,260.493 362.44,259.636 362.96,258.779 363.48,257.922 364,257.066 364.52,256.209 365.04,255.352 365.56,254.495 366.08,253.638 366.6,252.781 367.12,251.924 367.64,251.067 368.16,250.21 368.68,249.354 369.2,248.497 369.72,247.64 370.24,246.783 370.76,245.926 371.28,245.069 371.8,244.212 372.32,243.355 372.84,242.499 373.36,241.642 373.88,240.785 374.4,239.928 374.92,239.071 375.44,238.214 375.96,237.357 376.48,236.5 377,235.643 377.52,234.787 378.04,233.93 378.56,233.073 379.08,232.216 379.6,231.359 380.12,230.502 380.64,229.645 381.16,228.788 381.68,227.931 382.2,227.075 382.72,226.218 383.24,225.361 383.76,224.504 384.28,223.647 384.8,222.79 385.32,221.933 385.84,221.076 386.36,220.219 386.88,219.363 387.4,218.506 387.92,217.649 388.44,216.792 388.96,215.935 389.48,215.078 390,214.221 390.52,213.364 391.04,212.508 391.56,211.651 392.08,210.794 392.6,209.937 393.12,209.08 393.64,208.223 394.16,207.366 394.68,206.509 395.2,205.652 395.72,204.796 396.24,203.939 396.76,203.082 397.28,202.225 397.8,201.368 398.32,200.511 398.84,199.654 399.36,198.797 399.88,197.94 400.4,197.084 400.92,196.227 401.44,195.37 401.96,194.513 402.48,193.656 403,192.799 403.52,191.942 404.04,191.085 404.56,190.229 405.08,189.372 405.6,188.515 406.12,187.658 406.64,186.801 407.16,185.944 407.68,185.087 408.2,184.23 408.72,183.373 409.24,182.517 409.76,181.66 410.28,180.803 410.8,179.946 411.32,179.089 411.84,178.232 412.36,177.375 412.88,176.518 413.4,175.661 413.92,174.805 414.44,173.948 414.96,173.091 415.48,172.234 416,171.377 416.52,170.52 417.04,169.663 417.56,168.806 418.08,167.95 418.6,167.093 419.12,166.236 419.64,165.379 420.16,164.522 420.68,163.665 421.2,162.808 421.72,161.951 422.24,161.094 422.76,160.238 423.28,159.381 423.8,158.524 424.32,157.667 424.84,156.81 425.36,155.953 425.88,155.096 426.4,154.239 426.92,153.382 427.44,152.526 427.96,151.669 428.48,150.812 429,149.955 429.52,149.098 430.04,148.241 430.56,147.384 431.08,146.527 431.6,145.67 432.12,144.814 432.64,143.957 433.16,143.1 433.68,142.243 434.2,141.386 434.72,140.529 435.24,139.672 435.76,138.815 436.28,137.959 436.8,137.102 437.32,136.245 437.84,135.388 438.36,134.531 438.88,133.674 439.4,132.817 439.92,131.96 440.44,131.103 440.96,130.247 441.48,129.39 442,128.533 442.52,127.676 443.04,126.819 443.56,125.962 444.08,125.105 444.6,124.248 445.12,123.391 445.64,122.535 446.16,121.678 446.68,120.821 447.2,119.964 447.72,119.107 448.24,118.25 448.76,117.393 449.28,116.536 449.8,115.68 450.32,114.823 450.84,113.966 451.36,113.109 451.88,112.252 452.4,111.395 452.92,110.538 453.44,109.681 453.96,108.824 454.48,107.968 455,107.111 455.52,106.254 456.04,105.397 456.56,104.54 457.08,103.683 457.6,102.826 458.12,101.969 458.64,101.112 459.16,100.256 459.68,99.3987 460.2,98.5418 460.72,97.6849 461.24,96.828 461.76,95.9711 462.28,95.1143 462.8,94.2574 463.32,93.4005 463.84,92.5436 464.36,91.6867 464.88,90.8298 465.4,89.9729 465.92,89.1161 466.44,88.2592 466.96,87.4023 467.48,86.5454 468,85.6885 468.52,84.8316 469.04,83.9748 469.56,83.1179 470.08,82.261 470.6,81.4041 471.12,80.5472 471.64,79.6903 472.16,78.8334 472.68,77.9766 473.2,77.1197 473.72,76.2628 474.24,75.4059 474.76,74.549 475.28,73.6921 475.8,72.8352 476.32,71.9784 476.84,71.1215 477.36,70.2646 477.88,69.4077 478.4,68.5508 478.92,67.6939 479.44,66.837 479.96,65.9802 480.48,65.1233 481,64.2664 481.52,63.4095 482.04,62.5526 482.56,61.6957 483.08,60.8388 483.6,59.982 484.12,59.1251 484.64,58.2682 485.16,57.4113 485.68,56.5544 486.2,55.6975 486.72,54.8407 487.24,53.9838 487.76,53.1269 488.28,52.27 488.8,51.4131 489.32,50.5562 489.84,49.6993 490.36,48.8425 490.88,47.9856 491.4,47.1287 491.92,46.2718 492.44,45.4149 492.96,44.558 493.48,43.7011 494,42.8443 494.52,41.9874 495.04,41.1305 495.56,40.2736 496.08,39.4167 496.6,38.5598 497.12,37.7029 497.64,36.8461 498.16,35.9892 498.68,35.1323 499.2,34.2754 499.72,33.4185 500.24,32.5616 500.76,31.7048 501.28,30.8479 501.8,29.991 502.32,29.1341 502.84,28.2772 503.36,27.4203 503.88,26.5634 504.4,25.7066 504.92,24.8497 505.44,23.9928 505.96,23.1359 506.48,22.279 507,21.4221 507.52,20.5652 508.04,19.7084 508.56,18.8515 509.08,17.9946 509.6,17.1377 510.12,16.2808 510.64,15.4239 511.16,14.567 511.68,13.7102 512.2,12.8533 512.72,11.9964 513.24,11.1395 513.76,10.2826 514.28,9.42574 514.8,8.56885 515.32,7.71197 515.84,6.85508 516.36,5.9982 516.88,5.14131 517.4,4.28443 517.92,3.42754 518.44,2.57066 518.96,1.71377 519.48,0.856885 520,0 " />
   <polyline fill="none" stroke=" slategrey " stroke-width=" 9 " points=" 0.52,0 1.04,1.42233 1.56,2.84467 2.08,4.267 2.6,5.68934 3.12,7.11167 3.64,8.534 4.16,9.95634 4.68,11.3787 5.2,12.801 5.72,14.2233 6.24,15.6457 6.76,17.068 7.28,18.4903 7.8,19.9127 8.32,21.335 8.84,22.7573 9.36,24.1797 9.88,25.602 10.4,27.0243 10.92,28.4467 11.44,29.869 11.96,31.2913 12.48,32.7137 13,34.136 13.52,35.5583 14.04,36.9807 14.56,38.403 15.08,39.8253 15.6,41.2477 16.12,42.67 16.64,44.0924 17.16,45.5147 17.68,46.937 18.2,48.3594 18.72,49.7817 19.24,51.204 19.76,52.6264 20.28,54.0487 20.8,55.471 21.32,56.8934 21.84,58.3157 22.36,59.738 22.88,61.1604 23.4,62.5827 23.92,64.005 24.44,65.4274 24.96,66.8497 25.48,68.272 26,69.6944 26.52,71.1167 27.04,72.539 27.56,73.9614 28.08,75.3837 28.6,76.806 29.12,78.2284 29.64,79.6507 30.16,81.073 30.68,82.4954 31.2,83.9177 31.72,85.34 32.24,86.7624 32.76,88.1847 33.28,89.607 33.8,91.0294 34.32,92.4517 34.84,93.874 35.36,95.2964 35.88,96.7187 36.4,98.141 36.92,99.5634 37.44,100.986 37.96,102.408 38.48,103.83 39,105.253 39.52,106.675 40.04,108.097 40.56,109.52 41.08,110.942 41.6,112.364 42.12,113.787 42.64,115.209 43.16,116.631 43.68,118.054 44.2,119.476 44.72,120.898 45.24,122.321 45.76,123.743 46.28,125.165 46.8,126.588 47.32,128.01 47.84,129.432 48.36,130.855 48.88,132.277 49.4,133.699 49.92,135.122 50.44,136.544 50.96,137.966 51.48,139.389 52,140.811 52.52,142.233 53.04,143.656 53.56,145.078 54.08,146.5 54.6,147.923 55.12,149.345 55.64,150.767 56.16,152.19 56.68,153.612 57.2,155.034 57.72,156.457 58.24,157.386 58.76,157.156 59.28,156.938 59.8,156.734 60.32,156.541 60.84,156.362 61.36,156.195 61.88,156.041 62.4,155.9 62.92,155.771 63.44,155.656 63.96,155.553 64.48,155.464 65,155.387 65.52,155.323 66.04,155.273 66.56,155.235 67.08,155.211 67.6,155.199 68.12,155.201 68.64,155.215 69.16,155.243 69.68,155.283 70.2,155.337 70.72,155.403 71.24,155.483 71.76,155.575 72.28,155.681 72.8,155.799 73.32,155.931 73.84,156.075 74.36,156.232 74.88,156.401 75.4,156.584 75.92,156.779 76.44,156.987 76.96,157.207 77.48,157.44 78,157.685 78.52,157.943 79.04,158.213 79.56,158.496 80.08,158.791 80.6,159.098 81.12,159.417 81.64,159.748 82.16,160.091 82.68,160.446 83.2,160.812 83.72,161.191 84.24,161.581 84.76,161.982 85.28,162.395 85.8,162.82 86.32,163.255 86.84,163.702 87.36,164.16 87.88,164.629 88.4,165.109 88.92,165.6 89.44,166.102 89.96,166.614 90.48,167.136 91,167.669 91.52,168.213 92.04,168.767 92.56,169.33 93.08,169.904 93.6,170.488 94.12,171.082 94.64,171.685 95.16,172.298 95.68,172.92 96.2,173.552 96.72,174.194 97.24,174.844 97.76,175.504 98.28,176.172 98.8,176.85 99.32,177.536 99.84,178.231 100.36,178.935 100.88,179.647 101.4,180.367 101.92,181.096 102.44,181.833 102.96,182.579 103.48,183.332 104,184.093 104.52,184.862 105.04,185.638 105.56,186.422 106.08,187.214 106.6,188.013 107.12,188.82 107.64,189.634 108.16,190.454 108.68,191.282 109.2,192.117 109.72,192.959 110.24,193.808 110.76,194.663 111.28,195.525 111.8,196.393 112.32,197.268 112.84,198.149 113.36,199.036 113.88,199.93 114.4,200.83 114.92,201.735 115.44,202.647 115.96,203.565 116.48,204.488 117,205.417 117.52,206.351 118.04,207.292 118.56,208.237 119.08,209.188 119.6,210.144 120.12,211.106 120.64,212.073 121.16,213.045 121.68,214.022 122.2,215.003 122.72,215.99 123.24,216.982 123.76,217.978 124.28,218.979 124.8,219.985 125.32,220.995 125.84,222.01 126.36,223.029 126.88,224.053 127.4,225.081 127.92,226.113 128.44,227.15 128.96,228.191 129.48,229.235 130,230.284 130.52,231.337 131.04,232.394 131.56,233.454 132.08,234.519 132.6,235.587 133.12,236.659 133.64,237.734 134.16,238.814 134.68,239.896 135.2,240.983 135.72,242.073 136.24,243.166 136.76,244.263 137.28,245.363 137.8,246.466 138.32,247.572 138.84,248.682 139.36,249.795 139.88,250.911 140.4,252.03 140.92,253.152 141.44,254.278 141.96,255.406 142.48,256.537 143,257.671 143.52,258.808 144.04,259.947 144.56,261.09 145.08,262.235 145.6,263.383 146.12,264.533 146.64,265.686 147.16,266.842 147.68,268 148.2,269.161 148.72,270.324 149.24,271.49 149.76,272.659 150.28,273.829 150.8,275.002 151.32,276.178 151.84,277.355 152.36,278.535 152.88,279.717 153.4,280.902 153.92,282.088 154.44,283.277 154.96,284.468 155.48,285.661 156,286.856 156.52,288.054 157.04,289.253 157.56,290.454 158.08,291.657 158.6,292.863 159.12,294.07 159.64,295.279 160.16,296.49 160.68,297.703 161.2,298.917 161.72,300.134 162.24,301.352 162.76,302.572 163.28,303.794 163.8,305.018 164.32,306.243 164.84,307.47 165.36,308.699 165.88,309.929 166.4,311.161 166.92,312.395 167.44,313.63 167.96,314.866 168.48,316.105 169,317.345 169.52,318.586 170.04,319.829 170.56,321.073 171.08,322.319 171.6,323.567 172.12,324.815 172.64,326.066 173.16,327.317 173.68,328.57 174.2,329.824 174.72,331.08 175.24,332.337 175.76,333.596 176.28,334.855 176.8,336.116 177.32,337.378 177.84,337.959 178.36,338.536 178.88,339.113 179.4,339.601 179.92,339.739 180.44,339.878 180.96,340.021 181.48,340.166 182,340.314 182.52,340.464 183.04,340.617 183.56,340.773 184.08,340.932 184.6,341.093 185.12,341.256 185.64,341.423 186.16,341.592 186.68,341.763 187.2,341.937 187.72,342.114 188.24,342.294 188.76,342.476 189.28,342.66 189.8,342.847 190.32,343.037 190.84,343.23 191.36,343.425 191.88,343.622 192.4,343.822 192.92,344.025 193.44,344.23 193.96,344.438 194.48,344.649 195,344.862 195.52,345.077 196.04,345.295 196.56,345.516 197.08,345.739 197.6,345.965 198.12,346.193 198.64,346.424 199.16,346.657 199.68,346.893 200.2,347.131 200.72,347.372 201.24,347.615 201.76,347.861 202.28,348.109 202.8,348.36 203.32,348.613 203.84,348.869 204.36,349.127 204.88,349.388 205.4,349.651 205.92,349.916 206.44,350.184 206.96,350.454 207.48,350.727 208,351.002 208.52,351.28 209.04,351.56 209.56,351.843 210.08,352.128 210.6,352.415 211.12,352.704 211.64,352.996 212.16,353.291 212.68,353.588 213.2,353.887 213.72,354.188 214.24,354.492 214.76,354.798 215.28,355.107 215.8,355.418 216.32,355.731 216.84,356.047 217.36,356.365 217.88,356.685 218.4,357.007 218.92,357.332 219.44,357.659 219.96,357.989 220.48,358.32 221,358.654 221.52,358.99 222.04,359.329 222.56,359.669 223.08,360.012 223.6,360.358 224.12,360.705 224.64,361.055 225.16,361.407 225.68,361.761 226.2,362.117 226.72,362.475 227.24,362.836 227.76,363.199 228.28,363.564 228.8,363.931 229.32,364.301 229.84,364.672 230.36,365.046 230.88,365.422 231.4,365.8 231.92,366.18 232.44,366.563 232.96,366.947 233.48,367.334 234,367.722 234.52,368.113 235.04,368.506 235.56,368.901 236.08,369.298 236.6,369.697 237.12,370.098 237.64,370.502 238.16,370.907 238.68,371.314 239.2,371.724 239.72,372.135 240.24,372.549 240.76,372.964 241.28,373.382 241.8,373.801 242.32,374.223 242.84,374.646 243.36,375.072 243.88,375.499 244.4,375.929 244.92,376.36 245.44,376.793 245.96,377.229 246.48,377.666 247,378.105 247.52,378.547 248.04,378.99 248.56,379.435 249.08,379.882 249.6,380.33 250.12,380.781 250.64,381.234 251.16,381.688 251.68,382.145 252.2,382.603 252.72,383.063 253.24,383.525 253.76,383.989 254.28,384.455 254.8,384.922 255.32,385.392 255.84,385.863 256.36,386.336 256.88,386.811 257.4,387.288 257.92,387.766 258.44,388.246 258.96,388.729 259.48,389.212 260,389.698 260.52,390.185 261.04,390.674 261.56,391.165 262.08,391.658 262.6,392.152 263.12,392.649 263.64,393.146 264.16,393.646 264.68,394.147 265.2,394.65 265.72,395.155 266.24,395.661 266.76,396.169 267.28,396.679 267.8,397.191 268.32,397.704 268.84,398.218 269.36,398.735 269.88,399.253 270.4,399.773 270.92,400.294 271.44,400.817 271.96,401.342 272.48,401.868 273,402.396 273.52,402.925 274.04,403.456 274.56,403.989 275.08,404.523 275.6,405.059 276.12,405.596 276.64,406.135 277.16,406.676 277.68,407.218 278.2,407.761 278.72,408.307 279.24,408.853 279.76,409.402 280.28,409.951 280.8,410.503 281.32,411.055 281.84,411.61 282.36,412.165 282.88,412.723 283.4,413.281 283.92,413.842 284.44,414.403 284.96,414.967 285.48,415.531 286,416.097 286.52,416.665 287.04,417.234 287.56,417.804 288.08,418.303 288.6,418.418 289.12,418.536 289.64,418.656 290.16,418.777 290.68,418.902 291.2,419.028 291.72,419.156 292.24,419.287 292.76,419.42 293.28,419.458 293.8,418.496 294.32,417.534 294.84,416.572 295.36,415.61 295.88,414.648 296.4,413.685 296.92,412.723 297.44,411.761 297.96,410.799 298.48,409.837 299,408.875 299.52,407.913 300.04,406.951 300.56,405.989 301.08,405.027 301.6,404.065 302.12,403.103 302.64,402.141 303.16,401.179 303.68,400.217 304.2,399.255 304.72,398.293 305.24,397.33 305.76,396.368 306.28,395.406 306.8,394.444 307.32,393.482 307.84,392.52 308.36,391.558 308.88,390.596 309.4,389.634 309.92,388.672 310.44,387.71 310.96,386.748 311.48,385.786 312,384.824 312.52,383.862 313.04,382.9 313.56,381.938 314.08,380.975 314.6,380.013 315.12,379.051 315.64,378.089 316.16,377.127 316.68,376.165 317.2,375.203 317.72,374.241 318.24,373.279 318.76,372.317 319.28,371.355 319.8,370.393 320.32,369.431 320.84,368.469 321.36,367.507 321.88,366.545 322.4,365.583 322.92,364.62 323.44,363.658 323.96,362.696 324.48,361.734 325,360.772 325.52,359.81 326.04,358.848 326.56,357.886 327.08,356.924 327.6,355.962 328.12,355 328.64,354.038 329.16,353.076 329.68,352.114 330.2,351.152 330.72,350.19 331.24,349.228 331.76,348.265 332.28,347.303 332.8,346.341 333.32,345.379 333.84,344.417 334.36,343.455 334.88,342.493 335.4,341.531 335.92,340.569 336.44,339.607 336.96,338.645 337.48,337.683 338,336.721 338.52,335.759 339.04,334.797 339.56,333.835 340.08,332.873 340.6,331.91 341.12,330.948 341.64,329.986 342.16,329.024 342.68,328.062 343.2,327.1 343.72,326.138 344.24,325.176 344.76,324.214 345.28,323.252 345.8,322.29 346.32,321.328 346.84,320.366 347.36,319.404 347.88,318.442 348.4,317.48 348.92,316.518 349.44,315.555 349.96,314.593 350.48,313.631 351,312.669 351.52,311.707 352.04,310.745 352.56,309.783 353.08,308.821 353.6,307.859 354.12,306.897 354.64,305.935 355.16,304.973 355.68,304.011 356.2,303.049 356.72,302.087 357.24,301.125 357.76,300.162 358.28,299.2 358.8,298.238 359.32,297.276 359.84,296.314 360.36,295.352 360.88,294.39 361.4,293.428 361.92,292.466 362.44,291.504 362.96,290.542 363.48,289.58 364,288.618 364.52,287.656 365.04,286.694 365.56,285.732 366.08,284.77 366.6,283.807 367.12,282.845 367.64,281.883 368.16,280.921 368.68,279.959 369.2,278.997 369.72,278.035 370.24,277.073 370.76,276.111 371.28,275.149 371.8,274.187 372.32,273.225 372.84,272.263 373.36,271.301 373.88,270.339 374.4,269.377 374.92,268.415 375.44,267.452 375.96,266.49 376.48,265.528 377,264.566 377.52,263.604 378.04,262.642 378.56,261.68 379.08,260.718 379.6,259.756 380.12,258.794 380.64,257.832 381.16,256.87 381.68,255.908 382.2,254.946 382.72,253.984 383.24,253.022 383.76,252.06 384.28,251.097 384.8,250.135 385.32,249.173 385.84,248.211 386.36,247.249 386.88,246.287 387.4,245.325 387.92,244.363 388.44,243.401 388.96,242.439 389.48,241.477 390,240.515 390.52,239.553 391.04,238.591 391.56,237.629 392.08,236.667 392.6,235.705 393.12,234.742 393.64,233.78 394.16,232.818 394.68,231.856 395.2,230.894 395.72,229.932 396.24,228.97 396.76,228.008 397.28,227.046 397.8,226.084 398.32,225.122 398.84,224.16 399.36,223.198 399.88,222.236 400.4,221.274 400.92,220.312 401.44,219.35 401.96,218.387 402.48,217.425 403,216.463 403.52,215.501 404.04,214.539 404.56,213.577 405.08,212.615 405.6,211.653 406.12,210.691 406.64,209.729 407.16,208.767 407.68,207.805 408.2,206.843 408.72,205.881 409.24,204.919 409.76,203.957 410.28,202.995 410.8,202.032 411.32,201.07 411.84,200.108 412.36,199.146 412.88,198.184 413.4,197.222 413.92,196.26 414.44,195.298 414.96,194.336 415.48,193.374 416,192.412 416.52,191.45 417.04,190.488 417.56,189.526 418.08,188.564 418.6,187.602 419.12,186.639 419.64,185.677 420.16,184.715 420.68,183.753 421.2,182.791 421.72,181.829 422.24,180.867 422.76,179.905 423.28,178.943 423.8,177.981 424.32,177.019 424.84,176.057 425.36,175.095 425.88,174.133 426.4,173.171 426.92,172.209 427.44,171.247 427.96,170.284 428.48,169.322 429,168.36 429.52,167.398 430.04,166.436 430.56,165.474 431.08,164.512 431.6,163.55 432.12,162.588 432.64,161.626 433.16,160.664 433.68,159.702 434.2,158.74 434.72,157.778 435.24,156.816 435.76,155.854 436.28,154.892 436.8,153.929 437.32,152.967 437.84,152.005 438.36,151.043 438.88,150.081 439.4,149.119 439.92,148.157 440.44,147.195 440.96,146.233 441.48,145.271 442,144.309 442.52,143.347 443.04,142.385 443.56,141.423 444.08,140.461 444.6,139.499 445.12,138.537 445.64,137.574 446.16,136.612 446.68,135.65 447.2,134.688 447.72,133.726 448.24,132.764 448.76,131.802 449.28,130.84 449.8,129.878 450.32,128.916 450.84,127.954 451.36,126.992 451.88,126.03 452.4,125.068 452.92,124.106 453.44,123.144 453.96,122.182 454.48,121.219 455,120.257 455.52,119.295 456.04,118.333 456.56,117.371 457.08,116.409 457.6,115.447 458.12,114.485 458.64,113.523 459.16,112.561 459.68,111.599 460.2,110.637 460.72,109.675 461.24,108.713 461.76,107.751 462.28,106.789 462.8,105.827 463.32,104.864 463.84,103.902 464.36,102.94 464.88,101.978 465.4,101.016 465.92,100.054 466.44,99.0921 466.96,98.13 467.48,97.168 468,96.2059 468.52,95.2439 469.04,94.2818 469.56,93.3197 470.08,92.3577 470.6,91.3956 471.12,90.4336 471.64,89.4715 472.16,88.5095 472.68,87.5474 473.2,86.5853 473.72,85.6233 474.24,84.6612 474.76,83.6992 475.28,82.7371 475.8,81.775 476.32,80.813 476.84,79.8509 477.36,78.8889 477.88,77.9268 478.4,76.9647 478.92,76.0027 479.44,75.0406 479.96,74.0786 480.48,73.1165 481,72.1544 481.52,71.1924 482.04,70.2303 482.56,69.2683 483.08,68.3062 483.6,67.3441 484.12,66.3821 484.64,65.42 485.16,64.458 485.68,63.4959 486.2,62.5339 486.72,61.5718 487.24,60.6097 487.76,59.6477 488.28,58.6856 488.8,57.7236 489.32,56.7615 489.84,55.7994 490.36,54.8374 490.88,53.8753 491.4,52.9133 491.92,51.9512 492.44,50.9891 492.96,50.0271 493.48,49.065 494,48.103 494.52,47.1409 495.04,46.1788 495.56,45.2168 496.08,44.2547 496.6,43.2927 497.12,42.3306 497.64,41.3685 498.16,40.4065 498.68,39.4444 499.2,38.4824 499.72,37.5203 500.24,36.5583 500.76,35.5962 501.28,34.6341 501.8,33.6721 502.32,32.71 502.84,31.748 503.36,30.7859 503.88,29.8238 504.4,28.8618 504.92,27.8997 505.44,26.9377 505.96,25.9756 506.48,25.0135 507,24.0515 507.52,23.0894 508.04,22.1274 508.56,21.1653 509.08,20.2032 509.6,19.2412 510.12,18.2791 510.64,17.3171 511.16,16.355 511.68,15.3929 512.2,14.4309 512.72,13.4688 513.24,12.5068 513.76,11.5447 514.28,10.5827 514.8,9.62059 515.32,8.65853 515.84,7.69647 516.36,6.73441 516.88,5.77236 517.4,4.8103 517.92,3.84824 518.44,2.88618 518.96,1.92412 519.48,0.962059 520,2.24156e-13 " />
   <polyline fill="none" stroke=" violet " stroke-width=" 6 " points=" 0.52,3.30607e-05 1.04,3.2869 1.56,6.5738 2.08,9.8607 2.6,13.1476 3.12,16.4345 3.64,19.7214 4.16,23.0083 4.68,26.2952 5.2,29.5821 5.72,32.869 6.24,36.1559 6.76,39.4428 7.28,42.7297 7.8,46.0166 8.32,49.3035 8.84,52.5904 9.36,55.8773 9.88,59.1642 10.4,62.4511 10.92,65.738 11.44,69.0249 11.96,72.3118 12.48,75.5987 13,78.8856 13.52,82.1725 14.04,85.4594 14.56,88.7463 15.08,92.0332 15.6,95.3201 16.12,98.607 16.64,101.894 17.16,105.181 17.68,108.468 18.2,111.755 18.72,115.041 19.24,118.328 19.76,121.615 20.28,124.902 20.8,128.189 21.32,131.476 21.84,134.763 22.36,138.05 22.88,141.337 23.4,144.624 23.92,147.91 24.44,151.197 24.96,154.484 25.48,157.771 26,161.058 26.52,164.345 27.04,167.632 27.56,170.919 28.08,174.206 28.6,177.493 29.12,180.779 29.64,184.066 30.16,187.353 30.68,190.64 31.2,193.927 31.72,197.214 32.24,200.501 32.76,203.788 33.28,207.075 33.8,210.362 34.32,213.648 34.84,216.935 35.36,220.222 35.88,223.509 36.4,226.796 36.92,230.083 37.44,233.37 37.96,236.657 38.48,239.944 39,243.231 39.52,246.517 40.04,249.223 40.56,251.776 41.08,254.338 41.6,256.908 42.12,259.486 42.64,262.072 43.16,264.665 43.68,267.265 44.2,269.872 44.72,272.487 45.24,275.107 45.76,277.735 46.28,280.368 46.8,283.008 47.32,285.653 47.84,288.305 48.36,290.961 48.88,293.623 49.4,296.291 49.92,298.963 50.44,301.641 50.96,304.323 51.48,307.01 52,309.701 52.52,312.397 53.04,315.097 53.56,317.801 54.08,320.51 54.6,323.222 55.12,325.938 55.64,328.658 56.16,331.382 56.68,334.109 57.2,336.839 57.72,339.573 58.24,342.311 58.76,345.051 59.28,345.806 59.8,345.585 60.32,345.368 60.84,345.157 61.36,344.951 61.88,344.749 62.4,344.553 62.92,344.362 63.44,344.175 63.96,343.994 64.48,343.818 65,343.647 65.52,343.482 66.04,343.321 66.56,343.165 67.08,343.015 67.6,342.87 68.12,342.729 68.64,342.594 69.16,342.465 69.68,342.34 70.2,342.22 70.72,342.106 71.24,341.996 71.76,341.892 72.28,341.793 72.8,341.7 73.32,341.611 73.84,341.528 74.36,341.45 74.88,341.377 75.4,341.309 75.92,341.246 76.44,341.189 76.96,341.137 77.48,341.09 78,341.048 78.52,341.011 79.04,340.98 79.56,340.954 80.08,340.933 80.6,340.917 81.12,340.907 81.64,340.902 82.16,340.902 82.68,340.907 83.2,340.917 83.72,340.933 84.24,340.954 84.76,340.98 85.28,341.011 85.8,341.048 86.32,341.09 86.84,341.137 87.36,341.189 87.88,341.246 88.4,341.309 88.92,341.376 89.44,341.449 89.96,341.528 90.48,341.611 91,341.7 91.52,341.793 92.04,341.892 92.56,341.997 93.08,342.106 93.6,342.22 94.12,342.34 94.64,342.465 95.16,342.595 95.68,342.73 96.2,342.871 96.72,343.016 97.24,343.167 97.76,343.322 98.28,343.483 98.8,343.649 99.32,343.821 99.84,343.997 100.36,344.178 100.88,344.365 101.4,344.556 101.92,344.753 102.44,344.954 102.96,345.161 103.48,345.373 104,345.59 104.52,345.812 105.04,346.039 105.56,346.271 106.08,346.508 106.6,346.75 107.12,346.997 107.64,347.249 108.16,347.506 108.68,347.767 109.2,348.034 109.72,348.306 110.24,348.583 110.76,348.865 111.28,349.151 111.8,349.443 112.32,349.739 112.84,350.041 113.36,350.347 113.88,350.658 114.4,350.974 114.92,351.294 115.44,351.62 115.96,351.95 116.48,352.285 117,352.625 117.52,352.97 118.04,353.32 118.56,353.674 119.08,354.033 119.6,354.397 120.12,354.765 120.64,355.138 121.16,355.516 121.68,355.899 122.2,356.286 122.72,356.678 123.24,357.074 123.76,357.475 124.28,357.881 124.8,358.291 125.32,358.706 125.84,358.881 126.36,359.051 126.88,359.225 127.4,359.402 127.92,359.582 128.44,359.767 128.96,359.954 129.48,360.145 130,360.339 130.52,360.537 131.04,360.739 131.56,360.943 132.08,361.151 132.6,361.363 133.12,361.578 133.64,361.796 134.16,362.018 134.68,362.243 135.2,362.472 135.72,362.703 136.24,362.939 136.76,363.177 137.28,363.419 137.8,363.665 138.32,363.913 138.84,364.165 139.36,364.42 139.88,364.679 140.4,364.941 140.92,365.206 141.44,365.475 141.96,365.746 142.48,366.022 143,366.3 143.52,366.582 144.04,366.867 144.56,367.155 145.08,367.446 145.6,367.741 146.12,368.039 146.64,368.34 147.16,368.644 147.68,368.951 148.2,369.262 148.72,369.576 149.24,369.893 149.76,370.213 150.28,370.537 150.8,370.863 151.32,371.193 151.84,371.526 152.36,371.862 152.88,372.201 153.4,372.543 153.92,372.889 154.44,373.237 154.96,373.589 155.48,373.943 156,374.301 156.52,374.662 157.04,375.026 157.56,375.392 158.08,375.762 158.6,376.135 159.12,376.511 159.64,376.89 160.16,377.272 160.68,377.657 161.2,378.045 161.72,378.436 162.24,378.83 162.76,379.226 163.28,379.626 163.8,380.029 164.32,380.434 164.84,380.843 165.36,381.254 165.88,381.669 166.4,382.086 166.92,382.506 167.44,382.929 167.96,383.355 168.48,383.784 169,384.215 169.52,384.65 170.04,385.087 170.56,385.527 171.08,385.97 171.6,386.415 172.12,386.864 172.64,387.315 173.16,387.769 173.68,388.225 174.2,388.685 174.72,389.147 175.24,389.612 175.76,390.079 176.28,390.55 176.8,391.023 177.32,391.498 177.84,391.977 178.36,392.458 178.88,392.941 179.4,393.428 179.92,393.917 180.44,394.408 180.96,394.903 181.48,395.399 182,395.899 182.52,396.401 183.04,396.905 183.56,397.413 184.08,397.922 184.6,398.435 185.12,398.949 185.64,399.467 186.16,399.987 186.68,400.509 187.2,401.034 187.72,401.561 188.24,402.091 188.76,402.623 189.28,403.158 189.8,403.695 190.32,404.235 190.84,404.777 191.36,405.322 191.88,405.869 192.4,406.418 192.92,406.97 193.44,407.524 193.96,408.08 194.48,408.639 195,409.2 195.52,409.764 196.04,410.33 196.56,410.898 197.08,411.468 197.6,412.041 198.12,412.616 198.64,413.194 199.16,413.773 199.68,414.355 200.2,414.94 200.72,415.526 201.24,416.115 201.76,416.706 202.28,417.299 202.8,417.894 203.32,418.492 203.84,419.092 204.36,419.693 204.88,420.298 205.4,420.904 205.92,421.512 206.44,422.123 206.96,422.736 207.48,423.35 208,423.967 208.52,424.586 209.04,425.208 209.56,425.831 210.08,426.456 210.6,427.083 211.12,427.713 211.64,428.344 212.16,428.978 212.68,429.614 213.2,430.251 213.72,430.891 214.24,431.532 214.76,432.176 215.28,432.822 215.8,433.469 216.32,434.119 216.84,434.771 217.36,435.424 217.88,436.079 218.4,436.737 218.92,437.396 219.44,438.057 219.96,438.721 220.48,439.386 221,440.053 221.52,440.721 222.04,441.392 222.56,442.065 223.08,442.739 223.6,443.415 224.12,444.093 224.64,444.773 225.16,445.163 225.68,445.43 226.2,445.699 226.72,445.971 227.24,446.245 227.76,446.522 228.28,446.801 228.8,447.083 229.32,447.367 229.84,447.654 230.36,447.943 230.88,448.234 231.4,448.528 231.92,448.825 232.44,449.123 232.96,449.425 233.48,449.728 234,450.035 234.52,450.343 235.04,450.654 235.56,450.968 236.08,451.284 236.6,451.602 237.12,451.923 237.64,452.246 238.16,452.572 238.68,452.9 239.2,453.231 239.72,453.564 240.24,453.899 240.76,454.237 241.28,454.578 241.8,454.921 242.32,455.266 242.84,455.614 243.36,455.964 243.88,456.316 244.4,456.671 244.92,456.379 245.44,456.065 245.96,455.753 246.48,455.444 247,455.137 247.52,454.832 248.04,454.529 248.56,454.229 249.08,453.931 249.6,453.635 250.12,453.342 250.64,453.05 251.16,452.761 251.68,452.475 252.2,452.19 252.72,451.908 253.24,451.628 253.76,451.35 254.28,451.075 254.8,450.802 255.32,450.531 255.84,450.262 256.36,449.996 256.88,449.732 257.4,449.47 257.92,449.211 258.44,448.953 258.96,448.699 259.48,448.446 260,448.196 260.52,447.948 261.04,447.702 261.56,447.459 262.08,447.218 262.6,446.979 263.12,446.742 263.64,446.508 264.16,446.277 264.68,446.047 265.2,445.82 265.72,445.595 266.24,445.372 266.76,445.152 267.28,444.934 267.8,444.719 268.32,444.505 268.84,444.294 269.36,444.086 269.88,443.879 270.4,443.675 270.92,443.474 271.44,443.274 271.96,443.077 272.48,442.883 273,442.69 273.52,442.5 274.04,442.313 274.56,442.127 275.08,441.944 275.6,441.764 276.12,441.585 276.64,441.409 277.16,441.236 277.68,441.065 278.2,440.896 278.72,440.729 279.24,440.565 279.76,440.403 280.28,440.243 280.8,440.086 281.32,439.931 281.84,439.778 282.36,439.628 282.88,439.48 283.4,439.335 283.92,439.191 284.44,439.051 284.96,438.912 285.48,438.776 286,438.642 286.52,438.51 287.04,438.381 287.56,438.255 288.08,438.13 288.6,438.008 289.12,437.888 289.64,437.771 290.16,437.656 290.68,437.543 291.2,437.432 291.72,437.324 292.24,437.219 292.76,437.115 293.28,437.014 293.8,436.915 294.32,436.819 294.84,436.725 295.36,436.633 295.88,436.544 296.4,436.457 296.92,436.372 297.44,436.29 297.96,436.21 298.48,436.132 299,436.056 299.52,435.983 300.04,435.913 300.56,435.844 301.08,435.778 301.6,435.714 302.12,435.653 302.64,435.594 303.16,435.537 303.68,435.483 304.2,435.431 304.72,435.381 305.24,435.333 305.76,435.288 306.28,435.245 306.8,435.205 307.32,435.166 307.84,435.13 308.36,435.097 308.88,435.065 309.4,435.036 309.92,435.01 310.44,434.985 310.96,434.963 311.48,434.943 312,434.926 312.52,434.91 313.04,434.897 313.56,434.887 314.08,434.878 314.6,434.872 315.12,434.868 315.64,434.867 316.16,434.868 316.68,434.871 317.2,434.876 317.72,434.884 318.24,434.893 318.76,434.906 319.28,434.92 319.8,434.937 320.32,434.956 320.84,434.977 321.36,435 321.88,435.026 322.4,435.054 322.92,435.084 323.44,435.116 323.96,435.151 324.48,435.188 325,435.227 325.52,435.269 326.04,435.312 326.56,435.358 327.08,435.406 327.6,435.457 328.12,435.509 328.64,435.564 329.16,435.621 329.68,435.68 330.2,435.742 330.72,435.805 331.24,435.871 331.76,435.939 332.28,436.01 332.8,436.082 333.32,436.157 333.84,436.234 334.36,436.313 334.88,436.394 335.4,436.477 335.92,436.563 336.44,436.651 336.96,436.741 337.48,436.833 338,436.927 338.52,437.024 339.04,437.122 339.56,437.223 340.08,437.326 340.6,437.431 341.12,437.539 341.64,437.648 342.16,437.76 342.68,437.873 343.2,437.989 343.72,438.107 344.24,438.227 344.76,438.349 345.28,438.474 345.8,438.6 346.32,438.729 346.84,438.019 347.36,436.994 347.88,435.97 348.4,434.946 348.92,433.922 349.44,432.897 349.96,431.873 350.48,430.849 351,429.825 351.52,428.802 352.04,427.778 352.56,426.754 353.08,425.73 353.6,424.707 354.12,423.683 354.64,422.66 355.16,421.636 355.68,420.613 356.2,419.299 356.72,417.968 357.24,416.637 357.76,415.306 358.28,413.974 358.8,412.643 359.32,411.312 359.84,409.981 360.36,408.65 360.88,407.319 361.4,405.988 361.92,404.657 362.44,403.326 362.96,401.994 363.48,400.663 364,399.332 364.52,398.001 365.04,396.67 365.56,395.339 366.08,394.008 366.6,392.677 367.12,391.346 367.64,390.014 368.16,388.683 368.68,387.352 369.2,386.021 369.72,384.69 370.24,383.359 370.76,382.028 371.28,380.697 371.8,379.366 372.32,378.035 372.84,376.703 373.36,375.372 373.88,374.041 374.4,372.71 374.92,371.379 375.44,370.048 375.96,368.717 376.48,367.386 377,366.055 377.52,364.723 378.04,363.392 378.56,362.061 379.08,360.73 379.6,359.399 380.12,358.068 380.64,356.737 381.16,355.406 381.68,354.075 382.2,352.743 382.72,351.412 383.24,350.081 383.76,348.75 384.28,347.419 384.8,346.088 385.32,344.757 385.84,343.426 386.36,342.095 386.88,340.763 387.4,339.432 387.92,338.101 388.44,336.77 388.96,335.439 389.48,334.108 390,332.777 390.52,331.446 391.04,330.115 391.56,328.784 392.08,327.452 392.6,326.121 393.12,324.79 393.64,323.459 394.16,322.128 394.68,320.797 395.2,319.466 395.72,318.135 396.24,316.804 396.76,315.472 397.28,314.141 397.8,312.81 398.32,311.479 398.84,310.148 399.36,308.817 399.88,307.486 400.4,306.155 400.92,304.824 401.44,303.492 401.96,302.161 402.48,300.83 403,299.499 403.52,298.168 404.04,296.837 404.56,295.506 405.08,294.175 405.6,292.844 406.12,291.513 406.64,290.181 407.16,288.85 407.68,287.519 408.2,286.188 408.72,284.857 409.24,283.526 409.76,282.195 410.28,280.864 410.8,279.533 411.32,278.201 411.84,276.87 412.36,275.539 412.88,274.208 413.4,272.877 413.92,271.546 414.44,270.215 414.96,268.884 415.48,267.553 416,266.221 416.52,264.89 417.04,263.559 417.56,262.228 418.08,260.897 418.6,259.566 419.12,258.235 419.64,256.904 420.16,255.573 420.68,254.242 421.2,252.91 421.72,251.579 422.24,250.248 422.76,248.917 423.28,247.586 423.8,246.255 424.32,244.924 424.84,243.593 425.36,242.262 425.88,240.93 426.4,239.599 426.92,238.268 427.44,236.937 427.96,235.606 428.48,234.275 429,232.944 429.52,231.613 430.04,230.282 430.56,228.95 431.08,227.619 431.6,226.288 432.12,224.957 432.64,223.626 433.16,222.295 433.68,220.964 434.2,219.633 434.72,218.302 435.24,216.971 435.76,215.639 436.28,214.308 436.8,212.977 437.32,211.646 437.84,210.315 438.36,208.984 438.88,207.653 439.4,206.322 439.92,204.991 440.44,203.659 440.96,202.328 441.48,200.997 442,199.666 442.52,198.335 443.04,197.004 443.56,195.673 444.08,194.342 444.6,193.011 445.12,191.679 445.64,190.348 446.16,189.017 446.68,187.686 447.2,186.355 447.72,185.024 448.24,183.693 448.76,182.362 449.28,181.031 449.8,179.699 450.32,178.368 450.84,177.037 451.36,175.706 451.88,174.375 452.4,173.044 452.92,171.713 453.44,170.382 453.96,169.051 454.48,167.72 455,166.388 455.52,165.057 456.04,163.726 456.56,162.395 457.08,161.064 457.6,159.733 458.12,158.402 458.64,157.071 459.16,155.74 459.68,154.408 460.2,153.077 460.72,151.746 461.24,150.415 461.76,149.084 462.28,147.753 462.8,146.422 463.32,145.091 463.84,143.76 464.36,142.428 464.88,141.097 465.4,139.766 465.92,138.435 466.44,137.104 466.96,135.773 467.48,134.442 468,133.111 468.52,131.78 469.04,130.449 469.56,129.117 470.08,127.786 470.6,126.455 471.12,125.124 471.64,123.793 472.16,122.462 472.68,121.131 473.2,119.8 473.72,118.469 474.24,117.137 474.76,115.806 475.28,114.475 475.8,113.144 476.32,111.813 476.84,110.482 477.36,109.151 477.88,107.82 478.4,106.489 478.92,105.157 479.44,103.826 479.96,102.495 480.48,101.164 481,99.8331 481.52,98.5019 482.04,97.1708 482.56,95.8397 483.08,94.5086 483.6,93.1775 484.12,91.8464 484.64,90.5153 485.16,89.1842 485.68,87.8531 486.2,86.522 486.72,85.1909 487.24,83.8598 487.76,82.5287 488.28,81.1976 488.8,79.8664 489.32,78.5353 489.84,77.2042 490.36,75.8731 490.88,74.542 491.4,73.2109 491.92,71.8798 492.44,70.5487 492.96,69.2176 493.48,67.8865 494,66.5554 494.52,65.2243 495.04,63.8932 495.56,62.562 496.08,61.2309 496.6,59.8998 497.12,58.5687 497.64,57.2376 498.16,55.9065 498.68,54.5754 499.2,53.2443 499.72,51.9132 500.24,50.5821 500.76,49.251 501.28,47.9199 501.8,46.5888 502.32,45.2577 502.84,43.9265 503.36,42.5954 503.88,41.2643 504.4,39.9332 504.92,38.6021 505.44,37.271 505.96,35.9399 506.48,34.6088 507,33.2777 507.52,31.9466 508.04,30.6155 508.56,29.2844 509.08,27.9533 509.6,26.6221 510.12,25.291 510.64,23.9599 511.16,22.6288 511.68,21.2977 512.2,19.9666 512.72,18.6355 513.24,17.3044 513.76,15.9733 514.28,14.6422 514.8,13.3111 515.32,11.98 515.84,10.6489 516.36,9.31775 516.88,7.98664 517.4,6.65554 517.92,5.32443 518.44,3.99332 518.96,2.66221 519.48,1.33111 520,3.30607e-05 " />
   <polyline fill="none" stroke=" olive " stroke-width=" 3 " points=" 0.52,1.16887e-05 1.04,1.7289 1.56,3.45781 2.08,5.18671 2.6,6.91561 3.12,8.64452 3.64,10.3734 4.16,12.1023 4.68,13.8312 5.2,15.5601 5.72,17.289 6.24,19.0179 6.76,20.7468 7.28,22.4757 7.8,24.2046 8.32,25.9336 8.84,27.6625 9.36,29.3914 9.88,31.1203 10.4,32.8492 10.92,34.5781 11.44,36.307 11.96,38.0359 12.48,39.7648 13,41.4937 13.52,43.2226 14.04,44.9515 14.56,46.6804 15.08,48.4093 15.6,50.1382 16.12,51.8671 16.64,53.596 17.16,55.3249 17.68,57.0538 18.2,58.7827 18.72,60.5116 19.24,62.2405 19.76,63.9694 20.28,65.6983 20.8,67.4272 21.32,69.1561 21.84,70.885 22.36,72.6139 22.88,74.3428 23.4,76.0717 23.92,77.8007 24.44,79.5296 24.96,81.2585 25.48,82.9874 26,84.7163 26.52,86.4452 27.04,88.1741 27.56,89.903 28.08,91.6319 28.6,93.3608 29.12,95.0897 29.64,96.8186 30.16,98.5475 30.68,100.276 31.2,102.005 31.72,103.734 32.24,105.463 32.76,107.192 33.28,108.921 33.8,110.65 34.32,112.379 34.84,114.108 35.36,115.837 35.88,117.565 36.4,119.294 36.92,121.023 37.44,122.752 37.96,124.481 38.48,126.21 39,127.939 39.52,129.668 40.04,175.271 40.56,176.335 41.08,177.411 41.6,178.499 42.12,179.598 42.64,180.71 43.16,181.833 43.68,182.966 44.2,184.111 44.72,185.267 45.24,186.433 45.76,187.61 46.28,188.796 46.8,189.993 47.32,191.2 47.84,192.416 48.36,193.641 48.88,194.876 49.4,196.12 49.92,197.372 50.44,198.634 50.96,199.904 51.48,201.182 52,202.469 52.52,203.763 53.04,205.066 53.56,206.377 54.08,207.695 54.6,209.02 55.12,210.353 55.64,211.693 56.16,213.04 56.68,214.395 57.2,215.755 57.72,217.123 58.24,218.497 58.76,219.878 59.28,218.269 59.8,217.854 60.32,217.442 60.84,217.033 61.36,216.628 61.88,216.226 62.4,215.827 62.92,215.431 63.44,215.039 63.96,214.65 64.48,214.265 65,213.882 65.52,213.504 66.04,213.129 66.56,212.757 67.08,212.388 67.6,212.024 68.12,211.662 68.64,211.304 69.16,210.95 69.68,210.599 70.2,210.252 70.72,209.909 71.24,209.569 71.76,209.232 72.28,208.9 72.8,208.571 73.32,208.245 73.84,207.924 74.36,207.606 74.88,207.291 75.4,206.981 75.92,206.674 76.44,206.371 76.96,206.072 77.48,205.777 78,205.485 78.52,205.198 79.04,204.914 79.56,204.634 80.08,204.358 80.6,204.086 81.12,203.818 81.64,203.554 82.16,203.293 82.68,203.037 83.2,202.785 83.72,202.537 84.24,202.292 84.76,202.052 85.28,201.816 85.8,201.584 86.32,201.356 86.84,201.132 87.36,200.912 87.88,200.696 88.4,200.485 88.92,200.277 89.44,200.074 89.96,199.875 90.48,199.68 91,199.489 91.52,199.302 92.04,199.12 92.56,198.942 93.08,198.768 93.6,198.598 94.12,198.433 94.64,198.272 95.16,198.115 95.68,197.963 96.2,197.814 96.72,197.67 97.24,197.531 97.76,197.396 98.28,197.265 98.8,197.138 99.32,197.016 99.84,196.898 100.36,196.785 100.88,196.675 101.4,196.571 101.92,196.47 102.44,196.375 102.96,196.283 103.48,196.196 104,196.113 104.52,196.035 105.04,195.961 105.56,195.892 106.08,195.827 106.6,195.766 107.12,195.71 107.64,195.659 108.16,195.612 108.68,195.569 109.2,195.531 109.72,195.497 110.24,195.468 110.76,195.443 111.28,195.423 111.8,195.407 112.32,195.395 112.84,195.388 113.36,195.386 113.88,195.388 114.4,195.395 114.92,195.406 115.44,195.421 115.96,195.441 116.48,195.465 117,195.494 117.52,195.528 118.04,195.565 118.56,195.608 119.08,195.654 119.6,195.706 120.12,195.761 120.64,195.821 121.16,195.886 121.68,195.955 122.2,196.028 122.72,196.106 123.24,196.188 123.76,196.275 124.28,196.366 124.8,196.462 125.32,196.562 125.84,178.579 126.36,178.708 126.88,178.84 127.4,178.975 127.92,179.114 128.44,179.256 128.96,179.402 129.48,179.551 130,179.703 130.52,179.859 131.04,180.019 131.56,180.182 132.08,180.348 132.6,180.517 133.12,180.69 133.64,180.866 134.16,181.046 134.68,181.229 135.2,181.415 135.72,181.604 136.24,181.797 136.76,181.993 137.28,182.193 137.8,182.395 138.32,182.601 138.84,182.81 139.36,183.023 139.88,183.238 140.4,183.457 140.92,183.679 141.44,183.904 141.96,184.133 142.48,184.364 143,184.599 143.52,184.837 144.04,185.078 144.56,185.322 145.08,185.569 145.6,185.82 146.12,186.073 146.64,186.33 147.16,186.589 147.68,186.852 148.2,187.117 148.72,187.386 149.24,187.657 149.76,187.932 150.28,188.21 150.8,188.49 151.32,188.774 151.84,189.06 152.36,189.35 152.88,189.642 153.4,189.937 153.92,190.235 154.44,190.536 154.96,190.84 155.48,191.146 156,191.456 156.52,191.768 157.04,192.083 157.56,192.401 158.08,192.722 158.6,193.045 159.12,193.371 159.64,193.7 160.16,194.032 160.68,194.366 161.2,194.703 161.72,195.043 162.24,195.385 162.76,195.73 163.28,196.078 163.8,196.428 164.32,196.781 164.84,197.137 165.36,197.495 165.88,197.855 166.4,198.219 166.92,198.584 167.44,198.952 167.96,199.323 168.48,199.696 169,200.072 169.52,200.45 170.04,200.831 170.56,201.214 171.08,201.6 171.6,201.988 172.12,202.378 172.64,202.771 173.16,203.166 173.68,203.563 174.2,203.963 174.72,204.365 175.24,204.77 175.76,205.176 176.28,205.585 176.8,205.997 177.32,206.41 177.84,206.826 178.36,207.244 178.88,207.664 179.4,208.087 179.92,208.511 180.44,208.938 180.96,209.367 181.48,209.799 182,210.232 182.52,210.667 183.04,211.105 183.56,211.544 184.08,211.986 184.6,212.43 185.12,212.876 185.64,213.324 186.16,213.774 186.68,214.226 187.2,214.68 187.72,215.136 188.24,215.594 188.76,216.054 189.28,216.516 189.8,216.98 190.32,217.445 190.84,217.913 191.36,218.383 191.88,218.854 192.4,219.328 192.92,219.803 193.44,220.28 193.96,220.759 194.48,221.24 195,221.723 195.52,222.207 196.04,222.694 196.56,223.182 197.08,223.671 197.6,224.163 198.12,224.656 198.64,225.152 199.16,225.648 199.68,226.147 200.2,226.647 200.72,227.149 201.24,227.653 201.76,228.158 202.28,228.665 202.8,229.174 203.32,229.684 203.84,230.196 204.36,230.71 204.88,231.225 205.4,231.742 205.92,232.26 206.44,232.78 206.96,233.301 207.48,233.825 208,234.349 208.52,234.875 209.04,235.403 209.56,235.932 210.08,236.463 210.6,236.995 211.12,237.529 211.64,238.064 212.16,238.6 212.68,239.139 213.2,239.678 213.72,240.219 214.24,240.761 214.76,241.305 215.28,241.85 215.8,242.397 216.32,242.945 216.84,243.494 217.36,244.045 217.88,244.597 218.4,245.151 218.92,245.705 219.44,246.261 219.96,246.819 220.48,247.378 221,247.938 221.52,248.499 222.04,249.062 222.56,249.626 223.08,250.191 223.6,250.757 224.12,251.325 224.64,251.894 225.16,460.801 225.68,460.143 226.2,459.484 226.72,458.826 227.24,458.168 227.76,457.51 228.28,456.852 228.8,456.194 229.32,455.536 229.84,454.878 230.36,454.221 230.88,453.563 231.4,452.905 231.92,452.248 232.44,451.591 232.96,450.933 233.48,450.276 234,449.619 234.52,448.962 235.04,448.305 235.56,447.648 236.08,446.991 236.6,446.334 237.12,445.678 237.64,445.021 238.16,444.365 238.68,443.708 239.2,443.052 239.72,442.396 240.24,441.74 240.76,441.084 241.28,440.428 241.8,439.772 242.32,439.116 242.84,438.46 243.36,437.805 243.88,437.149 244.4,436.494 244.92,435.839 245.44,435.183 245.96,434.528 246.48,433.873 247,433.218 247.52,432.563 248.04,431.909 248.56,431.254 249.08,430.599 249.6,429.945 250.12,429.29 250.64,428.636 251.16,427.982 251.68,427.328 252.2,426.674 252.72,426.02 253.24,425.366 253.76,424.712 254.28,424.059 254.8,423.405 255.32,422.752 255.84,422.098 256.36,421.445 256.88,420.792 257.4,420.139 257.92,419.486 258.44,418.833 258.96,418.18 259.48,417.528 260,416.875 260.52,416.223 261.04,415.57 261.56,414.918 262.08,414.266 262.6,413.614 263.12,412.962 263.64,412.31 264.16,411.658 264.68,411.007 265.2,410.355 265.72,409.704 266.24,409.053 266.76,408.402 267.28,407.751 267.8,407.1 268.32,406.449 268.84,405.798 269.36,405.147 269.88,404.497 270.4,403.847 270.92,403.196 271.44,402.546 271.96,401.896 272.48,401.246 273,400.596 273.52,399.947 274.04,399.297 274.56,398.648 275.08,397.998 275.6,397.349 276.12,396.7 276.64,396.051 277.16,395.402 277.68,394.753 278.2,394.105 278.72,393.456 279.24,392.808 279.76,392.16 280.28,391.512 280.8,390.864 281.32,390.216 281.84,389.568 282.36,388.92 282.88,388.273 283.4,387.625 283.92,386.978 284.44,386.331 284.96,385.684 285.48,385.037 286,384.39 286.52,383.744 287.04,383.097 287.56,382.451 288.08,381.805 288.6,381.159 289.12,380.513 289.64,379.867 290.16,379.221 290.68,378.576 291.2,377.931 291.72,377.285 292.24,376.64 292.76,375.995 293.28,375.35 293.8,374.706 294.32,374.061 294.84,373.417 295.36,372.773 295.88,372.128 296.4,371.485 296.92,370.841 297.44,370.197 297.96,369.553 298.48,368.91 299,368.267 299.52,367.624 300.04,366.981 300.56,366.338 301.08,365.695 301.6,365.053 302.12,364.411 302.64,363.769 303.16,363.127 303.68,362.485 304.2,361.843 304.72,361.201 305.24,360.56 305.76,359.919 306.28,359.278 306.8,358.637 307.32,357.996 307.84,357.356 308.36,356.715 308.88,356.075 309.4,355.435 309.92,354.795 310.44,354.155 310.96,353.516 311.48,352.876 312,352.237 312.52,351.598 313.04,350.959 313.56,350.32 314.08,349.682 314.6,349.043 315.12,348.405 315.64,347.767 316.16,347.129 316.68,346.492 317.2,345.854 317.72,345.217 318.24,344.58 318.76,343.943 319.28,343.306 319.8,342.669 320.32,342.033 320.84,341.397 321.36,340.761 321.88,340.125 322.4,339.489 322.92,338.854 323.44,338.219 323.96,337.584 324.48,336.949 325,336.314 325.52,335.68 326.04,335.045 326.56,334.411 327.08,333.777 327.6,333.144 328.12,332.51 328.64,331.877 329.16,331.244 329.68,330.611 330.2,329.978 330.72,329.346 331.24,328.714 331.76,328.082 332.28,327.45 332.8,326.818 333.32,326.187 333.84,325.556 334.36,324.925 334.88,324.294 335.4,323.663 335.92,323.033 336.44,322.403 336.96,321.773 337.48,321.144 338,320.514 338.52,319.885 339.04,319.256 339.56,318.627 340.08,317.999 340.6,317.371 341.12,316.742 341.64,316.115 342.16,315.487 342.68,314.86 343.2,314.233 343.72,313.606 344.24,312.979 344.76,312.353 345.28,311.727 345.8,311.101 346.32,310.475 346.84,309.85 347.36,309.225 347.88,308.6 348.4,307.975 348.92,307.351 349.44,306.727 349.96,306.103 350.48,305.48 351,304.856 351.52,304.233 352.04,303.61 352.56,302.988 353.08,302.366 353.6,301.744 354.12,301.122 354.64,300.501 355.16,299.879 355.68,299.259 356.2,269.919 356.72,269.062 357.24,268.205 357.76,267.348 358.28,266.491 358.8,265.634 359.32,264.778 359.84,263.921 360.36,263.064 360.88,262.207 361.4,261.35 361.92,260.493 362.44,259.636 362.96,258.779 363.48,257.922 364,257.066 364.52,256.209 365.04,255.352 365.56,254.495 366.08,253.638 366.6,252.781 367.12,251.924 367.64,251.067 368.16,250.21 368.68,249.354 369.2,248.497 369.72,247.64 370.24,246.783 370.76,245.926 371.28,245.069 371.8,244.212 372.32,243.355 372.84,242.499 373.36,241.642 373.88,240.785 374.4,239.928 374.92,239.071 375.44,238.214 375.96,237.357 376.48,236.5 377,235.643 377.52,234.787 378.04,233.93 378.56,233.073 379.08,232.216 379.6,231.359 380.12,230.502 380.64,229.645 381.16,228.788 381.68,227.931 382.2,227.075 382.72,226.218 383.24,225.361 383.76,224.504 384.28,223.647 384.8,222.79 385.32,221.933 385.84,221.076 386.36,220.219 386.88,219.363 387.4,218.506 387.92,217.649 388.44,216.792 388.96,215.935 389.48,215.078 390,214.221 390.52,213.364 391.04,212.508 391.56,211.651 392.08,210.794 392.6,209.937 393.12,209.08 393.64,208.223 394.16,207.366 394.68,206.509 395.2,205.652 395.72,204.796 396.24,203.939 396.76,203.082 397.28,202.225 397.8,201.368 398.32,200.511 398.84,199.654 399.36,198.797 399.88,197.94 400.4,197.084 400.92,196.227 401.44,195.37 401.96,194.513 402.48,193.656 403,192.799 403.52,191.942 404.04,191.085 404.56,190.229 405.08,189.372 405.6,188.515 406.12,187.658 406.64,186.801 407.16,185.944 407.68,185.087 408.2,184.23 408.72,183.373 409.24,182.517 409.76,181.66 410.28,180.803 410.8,179.946 411.32,179.089 411.84,178.232 412.36,177.375 412.88,176.518 413.4,175.661 413.92,174.805 414.44,173.948 414.96,173.091 415.48,172.234 416,171.377 416.52,170.52 417.04,169.663 417.56,168.806 418.08,167.95 418.6,167.093 419.12,166.236 419.64,165.379 420.16,164.522 420.68,163.665 421.2,162.808 421.72,161.951 422.24,161.094 422.76,160.238 423.28,159.381 423.8,158.524 424.32,157.667 424.84,156.81 425.36,155.953 425.88,155.096 426.4,154.239 426.92,153.382 427.44,152.526 427.96,151.669 428.48,150.812 429,149.955 429.52,149.098 430.04,148.241 430.56,147.384 431.08,146.527 431.6,145.67 432.12,144.814 432.64,143.957 433.16,143.1 433.68,142.243 434.2,141.386 434.72,140.529 435.24,139.672 435.76,138.815 436.28,137.959 436.8,137.102 437.32,136.245 437.84,135.388 438.36,134.531 438.88,133.674 439.4,132.817 439.92,131.96 440.44,131.103 440.96,130.247 441.48,129.39 442,128.533 442.52,127.676 443.04,126.819 443.56,125.962 444.08,125.105 444.6,124.248 445.12,123.391 445.64,122.535 446.16,121.678 446.68,120.821 447.2,119.964 447.72,119.107 448.24,118.25 448.76,117.393 449.28,116.536 449.8,115.68 450.32,114.823 450.84,113.966 451.36,113.109 451.88,112.252 452.4,111.395 452.92,110.538 453.44,109.681 453.96,108.824 454.48,107.968 455,107.111 455.52,106.254 456.04,105.397 456.56,104.54 457.08,103.683 457.6,102.826 458.12,101.969 458.64,101.112 459.16,100.256 459.68,99.3987 460.2,98.5418 460.72,97.6849 461.24,96.828 461.76,95.9711 462.28,95.1143 462.8,94.2574 463.32,93.4005 463.84,92.5436 464.36,91.6867 464.88,90.8298 465.4,89.9729 465.92,89.1161 466.44,88.2592 466.96,87.4023 467.48,86.5454 468,85.6885 468.52,84.8316 469.04,83.9748 469.56,83.1179 470.08,82.261 470.6,81.4041 471.12,80.5472 471.64,79.6903 472.16,78.8334 472.68,77.9766 473.2,77.1197 473.72,76.2628 474.24,75.4059 474.76,74.549 475.28,73.6921 475.8,72.8352 476.32,71.9784 476.84,71.1215 477.36,70.2646 477.88,69.4077 478.4,68.5508 478.92,67.6939 479.44,66.837 479.96,65.9802 480.48,65.1233 481,64.2664 481.52,63.4095 482.04,62.5526 482.56,61.6957 483.08,60.8388 483.6,59.982 484.12,59.1251 484.64,58.2682 485.16,57.4113 485.68,56.5544 486.2,55.6975 486.72,54.8407 487.24,53.9838 487.76,53.1269 488.28,52.27 488.8,51.4131 489.32,50.5562 489.84,49.6993 490.36,48.8425 490.88,47.9856 491.4,47.1287 491.92,46.2718 492.44,45.4149 492.96,44.558 493.48,43.7011 494,42.8443 494.52,41.9874 495.04,41.1305 495.56,40.2736 496.08,39.4167 496.6,38.5598 497.12,37.7029 497.64,36.8461 498.16,35.9892 498.68,35.1323 499.2,34.2754 499.72,33.4185 500.24,32.5616 500.76,31.7048 501.28,30.8479 501.8,29.991 502.32,29.1341 502.84,28.2772 503.36,27.4203 503.88,26.5634 504.4,25.7066 504.92,24.8497 505.44,23.9928 505.96,23.1359 506.48,22.279 507,21.4221 507.52,20.5652 508.04,19.7084 508.56,18.8515 509.08,17.9946 509.6,17.1377 510.12,16.2808 510.64,15.4239 511.16,14.567 511.68,13.7102 512.2,12.8533 512.72,11.9964 513.24,11.1395 513.76,10.2826 514.28,9.42574 514.8,8.56885 515.32,7.71197 515.84,6.85508 516.36,5.9982 516.88,5.14131 517.4,4.28443 517.92,3.42754 518.44,2.57066 518.96,1.71377 519.48,0.856885 520,1.16887e-05 " />

<!--Draw the X and Y axes -->
<polyline fill="none" stroke="black" stroke-width="6"  points=" 600,0 0,0 0,520" />
<!-- -->


<!--Draw labels and tics for X axis -->

<line fill="none" stroke="black"  stroke-width="6"  x1="0.5" y1="0" x2="0.5" y2="-20" />
<text transform="scale(1,-1)" font-family="sans-serif" font-size="30" x="-24.5" y="45" >0</text>
<line fill="none" stroke="black"  stroke-width="6"  x1="104.5" y1="0" x2="104.5" y2="-20" />
<text transform="scale(1,-1)" font-family="sans-serif" font-size="30" x="79.5" y="45" >200</text>
<line fill="none" stroke="black"  stroke-width="6"  x1="208.5" y1="0" x2="208.5" y2="-20" />
<text transform="scale(1,-1)" font-family="sans-serif" font-size="30" x="183.5" y="45" >400</text>
<line fill="none" stroke="black"  stroke-width="6"  x1="312.5" y1="0" x2="312.5" y2="-20" />
<text transform="scale(1,-1)" font-family="sans-serif" font-size="30" x="287.5" y="45" >600</text>
<line fill="none" stroke="black"  stroke-width="6"  x1="416.5" y1="0" x2="416.5" y2="-20" />
<text transform="scale(1,-1)" font-family="sans-serif" font-size="30" x="391.5" y="45" >800</text>
<line fill="none" stroke="black"  stroke-width="6"  x1="520.5" y1="0" x2="520.5" y2="-20" />
<text transform="scale(1,-1)" font-family="sans-serif" font-size="30" x="495.5" y="45" >1000</text>


<!--Draw labels and tics for Y axis -->

<line fill="none" stroke="black" stroke-width="6" x1="0.0" y1="0" x2="-20" y2="0" />
<text transform="scale(1,-1)" text-anchor="end" font-family="sans-serif" font-size="30" x="-25" y="10" >0</text>
<line fill="none" stroke="black" stroke-width="6" x1="0.0" y1="86.6667" x2="-20" y2="86.6667" />
<text transform="scale(1,-1)" text-anchor="end" font-family="sans-serif" font-size="30" x="-25" y="-76.6667" >5</text>
<line fill="none" stroke="black" stroke-width="6" x1="0.0" y1="173.333" x2="-20" y2="173.333" />
<text transform="scale(1,-1)" text-anchor="end" font-family="sans-serif" font-size="30" x="-25" y="-163.333" >10</text>
<line fill="none" stroke="black" stroke-width="6" x1="0.0" y1="260" x2="-20" y2="260" />
<text transform="scale(1,-1)" text-anchor="end" font-family="sans-serif" font-size="30" x="-25" y="-250" >15</text>
<line fill="none" stroke="black" stroke-width="6" x1="0.0" y1="346.667" x2="-20" y2="346.667" />
<text transform="scale(1,-1)" text-anchor="end" font-family="sans-serif" font-size="30" x="-25" y="-336.667" >20</text>
<line fill="none" stroke="black" stroke-width="6" x1="0.0" y1="433.333" x2="-20" y2="433.333" />
<text transform="scale(1,-1)" text-anchor="end" font-family="sans-serif" font-size="30" x="-25" y="-423.333" >25</text>
<line fill="none" stroke="black" stroke-width="6" x1="0.0" y1="520" x2="-20" y2="520" />
<text transform="scale(1,-1)" text-anchor="end" font-family="sans-serif" font-size="30" x="-25" y="-510" >30</text>

-->
</g>
</g>
<!-- Run Constants
CIRCLEPLOT bool false
DISTANCEPLOT bool true
PRINTDISTANCEDATA bool true
GLITCHESONLY bool false
PLOT 2doubles 3 4
PERTURBBY double 0.05
GLITCHLEVEL double 3
BOUNDARYWINDOW double 0.065
FRAMESPERPATH int 200
STEPSPERFRAME int 1000
TRIALS int 10
ALLBLACK bool true
FILEPREFIX string Fol
GRAPHSIZE int 0
BORDER int 0
PLOTSIZE int 0
CIRCLEPLOTSIZE int 2000
CIRCLERADIUS int 300
CIRCLESTROKEWIDTH int 30
G6LINEWIDTH int 3
DELONELINEWIDTH int 10
AXISWIDTH int 6
TICLENGTH int 20
VECTOR g6 
MOVIEMODE MovieMode STAR
FOLLOWERMODE FollowerMode Follow
FIXRANDOMSEED fixRandomSeed false
RANDOMSEED int 19191
TIMESTAMP bool true
END end 




-->
</svg>
