<?xml version="1.0" standalone="no"?>
<!-- the width and height set the total pixel output of the image in the browser -->
<!-- whatever is within the viewbox will be remapped to show in this size -->
<svg width="900" height="800" viewBox="1 0 900 800"  version="1.1" xmlns="http://www.w3.org/2000/svg" xmlns:xlink="http://www.w3.org/1999/xlink">
 <desc>ID (and file name) = Fol_2018-05-16.16_29_25.2_1.svg </desc> 
<text x = "-750" y="50" transform="rotate(-90)"  font-family="sans-serif" font-size="40" stroke ="lightgray" fill="none"> PointDistanceFollower   May 16 2018</text>
 <text x="560" y="30" font-family="sans-serif" font-size="20">Wall time passed: 990 msec.</text>
<text x="300" y="60"   font-family="sans-serif" font-size="20" fill="lightblue">S6  lightblue</text>
<text x="300" y="85"   font-family="sans-serif" font-size="20" fill="slategrey">NCDist  slategrey</text>
<text x="300" y="110"  font-family="sans-serif" font-size="20" fill="violet">D7  violet</text>
<text x="300" y="135"  font-family="sans-serif" font-size="20" fill="olive">CS6Dist  olive</text>

 <text x="140"  y="30"  font-family="sans-serif" font-size="20" >Fol_2018-05-16.16_29_25.2_1.svg  </text> 


 <!--DISTANCE PLOT BEGINS-->


<!-- the following will scale and place the distance plot -->
<g  transform="translate(0, 50) ">
<g transform="translate(150,700) scale(1 -1)">
<line fill="none" stroke="lightblue" stroke-width="12" x1="0" y1="448.278" x2="5.94059" y2="448.278" />
<line fill="none" stroke="lightblue" stroke-width="12" x1="5.94059" y1="448.278" x2="11.8812" y2="451.453" />
<line fill="none" stroke="lightblue" stroke-width="12" x1="11.8812" y1="451.453" x2="17.8218" y2="455.215" />
<line fill="none" stroke="lightblue" stroke-width="12" x1="17.8218" y1="455.215" x2="23.7624" y2="459.552" />
<line fill="none" stroke="lightblue" stroke-width="12" x1="23.7624" y1="459.552" x2="29.703" y2="477.327" />
<line fill="none" stroke="lightblue" stroke-width="12" x1="29.703" y1="477.327" x2="35.6436" y2="456.819" />
<line fill="none" stroke="lightblue" stroke-width="12" x1="35.6436" y1="456.819" x2="41.5842" y2="435.51" />
<line fill="none" stroke="lightblue" stroke-width="12" x1="41.5842" y1="435.51" x2="47.5248" y2="410.026" />
<line fill="none" stroke="lightblue" stroke-width="12" x1="47.5248" y1="410.026" x2="53.4653" y2="374.207" />
<line fill="none" stroke="lightblue" stroke-width="12" x1="53.4653" y1="374.207" x2="59.4059" y2="339.747" />
<line fill="none" stroke="lightblue" stroke-width="12" x1="59.4059" y1="339.747" x2="65.3465" y2="308.253" />
<line fill="none" stroke="lightblue" stroke-width="12" x1="65.3465" y1="308.253" x2="71.2871" y2="280.4" />
<line fill="none" stroke="lightblue" stroke-width="12" x1="71.2871" y1="280.4" x2="77.2277" y2="256.961" />
<line fill="none" stroke="lightblue" stroke-width="12" x1="77.2277" y1="256.961" x2="83.1683" y2="238.764" />
<line fill="none" stroke="lightblue" stroke-width="12" x1="83.1683" y1="238.764" x2="89.1089" y2="222.822" />
<line fill="none" stroke="lightblue" stroke-width="12" x1="89.1089" y1="222.822" x2="95.0495" y2="206.915" />
<line fill="none" stroke="lightblue" stroke-width="12" x1="95.0495" y1="206.915" x2="100.99" y2="197.809" />
<line fill="none" stroke="lightblue" stroke-width="12" x1="100.99" y1="197.809" x2="106.931" y2="196.061" />
<line fill="none" stroke="lightblue" stroke-width="12" x1="106.931" y1="196.061" x2="112.871" y2="192.849" />
<line fill="none" stroke="lightblue" stroke-width="12" x1="112.871" y1="192.849" x2="118.812" y2="176.288" />
<line fill="none" stroke="lightblue" stroke-width="12" x1="118.812" y1="176.288" x2="124.752" y2="154.836" />
<line fill="none" stroke="lightblue" stroke-width="12" x1="124.752" y1="154.836" x2="130.693" y2="140.85" />
<line fill="none" stroke="lightblue" stroke-width="12" x1="130.693" y1="140.85" x2="136.634" y2="135.487" />
<line fill="none" stroke="lightblue" stroke-width="12" x1="136.634" y1="135.487" x2="142.574" y2="139.249" />
<line fill="none" stroke="lightblue" stroke-width="12" x1="142.574" y1="139.249" x2="148.515" y2="151.78" />
<line fill="none" stroke="lightblue" stroke-width="12" x1="148.515" y1="151.78" x2="154.455" y2="172.013" />
<line fill="none" stroke="lightblue" stroke-width="12" x1="154.455" y1="172.013" x2="160.396" y2="198.554" />
<line fill="none" stroke="lightblue" stroke-width="12" x1="160.396" y1="198.554" x2="166.337" y2="194.782" />
<line fill="none" stroke="lightblue" stroke-width="12" x1="166.337" y1="194.782" x2="172.277" y2="214.7" />
<line fill="none" stroke="lightblue" stroke-width="12" x1="172.277" y1="214.7" x2="178.218" y2="255.259" />
<line fill="none" stroke="lightblue" stroke-width="12" x1="178.218" y1="255.259" x2="184.158" y2="288.661" />
<line fill="none" stroke="lightblue" stroke-width="12" x1="184.158" y1="288.661" x2="190.099" y2="363.739" />
<line fill="none" stroke="lightblue" stroke-width="12" x1="190.099" y1="363.739" x2="196.04" y2="478.495" />
<line fill="none" stroke-dasharray = "10, 10"  stroke="orange" stroke-width="6" x1="196.04" y1="300" x2="201.98" y2="300" />
<line fill="none" stroke-dasharray = "10, 10"  stroke="orange" stroke-width="6" x1="201.98" y1="300" x2="207.921" y2="300" />
<line fill="none" stroke-dasharray = "10, 10"  stroke="orange" stroke-width="6" x1="207.921" y1="300" x2="213.861" y2="300" />
<line fill="none" stroke-dasharray = "10, 10"  stroke="orange" stroke-width="6" x1="213.861" y1="300" x2="219.802" y2="300" />
<line fill="none" stroke-dasharray = "10, 10"  stroke="orange" stroke-width="6" x1="219.802" y1="300" x2="225.743" y2="300" />
<line fill="none" stroke-dasharray = "10, 10"  stroke="orange" stroke-width="6" x1="225.743" y1="300" x2="231.683" y2="300" />
<line fill="none" stroke-dasharray = "10, 10"  stroke="orange" stroke-width="6" x1="231.683" y1="300" x2="237.624" y2="300" />
<line fill="none" stroke-dasharray = "10, 10"  stroke="orange" stroke-width="6" x1="237.624" y1="300" x2="243.564" y2="300" />
<line fill="none" stroke-dasharray = "10, 10"  stroke="orange" stroke-width="6" x1="243.564" y1="300" x2="249.505" y2="300" />
<line fill="none" stroke-dasharray = "10, 10"  stroke="orange" stroke-width="6" x1="249.505" y1="300" x2="255.446" y2="300" />
<line fill="none" stroke-dasharray = "10, 10"  stroke="orange" stroke-width="6" x1="255.446" y1="300" x2="261.386" y2="300" />
<line fill="none" stroke-dasharray = "10, 10"  stroke="orange" stroke-width="6" x1="261.386" y1="300" x2="267.327" y2="300" />
<line fill="none" stroke-dasharray = "10, 10"  stroke="orange" stroke-width="6" x1="267.327" y1="300" x2="273.267" y2="300" />
<line fill="none" stroke-dasharray = "10, 10"  stroke="orange" stroke-width="6" x1="273.267" y1="300" x2="279.208" y2="300" />
<line fill="none" stroke-dasharray = "10, 10"  stroke="orange" stroke-width="6" x1="279.208" y1="300" x2="285.149" y2="300" />
<line fill="none" stroke-dasharray = "10, 10"  stroke="orange" stroke-width="6" x1="285.149" y1="300" x2="291.089" y2="300" />
<line fill="none" stroke-dasharray = "10, 10"  stroke="orange" stroke-width="6" x1="291.089" y1="300" x2="297.03" y2="300" />
<line fill="none" stroke-dasharray = "10, 10"  stroke="orange" stroke-width="6" x1="297.03" y1="300" x2="302.97" y2="300" />
<line fill="none" stroke-dasharray = "10, 10"  stroke="orange" stroke-width="6" x1="302.97" y1="300" x2="308.911" y2="300" />
<line fill="none" stroke-dasharray = "10, 10"  stroke="orange" stroke-width="6" x1="308.911" y1="300" x2="314.851" y2="300" />
<line fill="none" stroke-dasharray = "10, 10"  stroke="orange" stroke-width="6" x1="314.851" y1="300" x2="320.792" y2="300" />
<line fill="none" stroke-dasharray = "10, 10"  stroke="orange" stroke-width="6" x1="320.792" y1="300" x2="326.733" y2="300" />
<line fill="none" stroke-dasharray = "10, 10"  stroke="orange" stroke-width="6" x1="326.733" y1="300" x2="332.673" y2="300" />
<line fill="none" stroke-dasharray = "10, 10"  stroke="orange" stroke-width="6" x1="332.673" y1="300" x2="338.614" y2="300" />
<line fill="none" stroke-dasharray = "10, 10"  stroke="orange" stroke-width="6" x1="338.614" y1="300" x2="344.554" y2="300" />
<line fill="none" stroke-dasharray = "10, 10"  stroke="orange" stroke-width="6" x1="344.554" y1="300" x2="350.495" y2="300" />
<line fill="none" stroke-dasharray = "10, 10"  stroke="orange" stroke-width="6" x1="350.495" y1="300" x2="356.436" y2="300" />
<line fill="none" stroke-dasharray = "10, 10"  stroke="orange" stroke-width="6" x1="356.436" y1="300" x2="362.376" y2="300" />
<line fill="none" stroke-dasharray = "10, 10"  stroke="orange" stroke-width="6" x1="362.376" y1="300" x2="368.317" y2="300" />
<line fill="none" stroke-dasharray = "10, 10"  stroke="orange" stroke-width="6" x1="368.317" y1="300" x2="374.257" y2="300" />
<line fill="none" stroke-dasharray = "10, 10"  stroke="orange" stroke-width="6" x1="374.257" y1="300" x2="380.198" y2="300" />
<line fill="none" stroke-dasharray = "10, 10"  stroke="orange" stroke-width="6" x1="380.198" y1="300" x2="386.139" y2="300" />
<line fill="none" stroke-dasharray = "10, 10"  stroke="orange" stroke-width="6" x1="386.139" y1="300" x2="392.079" y2="300" />
<line fill="none" stroke-dasharray = "10, 10"  stroke="orange" stroke-width="6" x1="392.079" y1="300" x2="398.02" y2="300" />
<line fill="none" stroke-dasharray = "10, 10"  stroke="orange" stroke-width="6" x1="398.02" y1="300" x2="403.96" y2="300" />
<line fill="none" stroke-dasharray = "10, 10"  stroke="orange" stroke-width="6" x1="403.96" y1="300" x2="409.901" y2="300" />
<line fill="none" stroke-dasharray = "10, 10"  stroke="orange" stroke-width="6" x1="409.901" y1="300" x2="415.842" y2="300" />
<line fill="none" stroke-dasharray = "10, 10"  stroke="orange" stroke-width="6" x1="415.842" y1="300" x2="421.782" y2="300" />
<line fill="none" stroke-dasharray = "10, 10"  stroke="orange" stroke-width="6" x1="421.782" y1="300" x2="427.723" y2="300" />
<line fill="none" stroke-dasharray = "10, 10"  stroke="orange" stroke-width="6" x1="427.723" y1="300" x2="433.663" y2="300" />
<line fill="none" stroke-dasharray = "10, 10"  stroke="orange" stroke-width="6" x1="433.663" y1="300" x2="439.604" y2="300" />
<line fill="none" stroke-dasharray = "10, 10"  stroke="orange" stroke-width="6" x1="439.604" y1="300" x2="445.545" y2="300" />
<line fill="none" stroke-dasharray = "10, 10"  stroke="orange" stroke-width="6" x1="445.545" y1="300" x2="451.485" y2="300" />
<line fill="none" stroke-dasharray = "10, 10"  stroke="orange" stroke-width="6" x1="451.485" y1="300" x2="457.426" y2="300" />
<line fill="none" stroke-dasharray = "10, 10"  stroke="orange" stroke-width="6" x1="457.426" y1="300" x2="463.366" y2="300" />
<line fill="none" stroke-dasharray = "10, 10"  stroke="orange" stroke-width="6" x1="463.366" y1="300" x2="469.307" y2="300" />
<line fill="none" stroke-dasharray = "10, 10"  stroke="orange" stroke-width="6" x1="469.307" y1="300" x2="475.248" y2="300" />
<line fill="none" stroke-dasharray = "10, 10"  stroke="orange" stroke-width="6" x1="475.248" y1="300" x2="481.188" y2="300" />
<line fill="none" stroke-dasharray = "10, 10"  stroke="orange" stroke-width="6" x1="481.188" y1="300" x2="487.129" y2="300" />
<line fill="none" stroke-dasharray = "10, 10"  stroke="orange" stroke-width="6" x1="487.129" y1="300" x2="493.069" y2="300" />
<line fill="none" stroke-dasharray = "10, 10"  stroke="orange" stroke-width="6" x1="493.069" y1="300" x2="499.01" y2="300" />
<line fill="none" stroke-dasharray = "10, 10"  stroke="orange" stroke-width="6" x1="499.01" y1="300" x2="504.95" y2="300" />
<line fill="none" stroke-dasharray = "10, 10"  stroke="orange" stroke-width="6" x1="504.95" y1="300" x2="510.891" y2="300" />
<line fill="none" stroke-dasharray = "10, 10"  stroke="orange" stroke-width="6" x1="510.891" y1="300" x2="516.832" y2="300" />
<line fill="none" stroke-dasharray = "10, 10"  stroke="orange" stroke-width="6" x1="516.832" y1="300" x2="522.772" y2="300" />
<line fill="none" stroke-dasharray = "10, 10"  stroke="orange" stroke-width="6" x1="522.772" y1="300" x2="528.713" y2="300" />
<line fill="none" stroke-dasharray = "10, 10"  stroke="orange" stroke-width="6" x1="528.713" y1="300" x2="534.653" y2="300" />
<line fill="none" stroke-dasharray = "10, 10"  stroke="orange" stroke-width="6" x1="534.653" y1="300" x2="540.594" y2="300" />
<line fill="none" stroke-dasharray = "10, 10"  stroke="orange" stroke-width="6" x1="540.594" y1="300" x2="546.535" y2="300" />
<line fill="none" stroke-dasharray = "10, 10"  stroke="orange" stroke-width="6" x1="546.535" y1="300" x2="552.475" y2="300" />
<line fill="none" stroke-dasharray = "10, 10"  stroke="orange" stroke-width="6" x1="552.475" y1="300" x2="558.416" y2="300" />
<line fill="none" stroke-dasharray = "10, 10"  stroke="orange" stroke-width="6" x1="558.416" y1="300" x2="564.356" y2="300" />
<line fill="none" stroke-dasharray = "10, 10"  stroke="orange" stroke-width="6" x1="564.356" y1="300" x2="570.297" y2="300" />
<line fill="none" stroke-dasharray = "10, 10"  stroke="orange" stroke-width="6" x1="570.297" y1="300" x2="576.238" y2="300" />
<line fill="none" stroke-dasharray = "10, 10"  stroke="orange" stroke-width="6" x1="576.238" y1="300" x2="582.178" y2="300" />
<line fill="none" stroke-dasharray = "10, 10"  stroke="orange" stroke-width="6" x1="582.178" y1="300" x2="588.119" y2="300" />
<line fill="none" stroke-dasharray = "10, 10"  stroke="orange" stroke-width="6" x1="588.119" y1="300" x2="594.059" y2="300" />
<line fill="none" stroke="olive" stroke-width="3" x1="0" y1="471.705" x2="5.94059" y2="471.705" />
<line fill="none" stroke="olive" stroke-width="3" x1="5.94059" y1="471.705" x2="11.8812" y2="472.651" />
<line fill="none" stroke="olive" stroke-width="3" x1="11.8812" y1="472.651" x2="17.8218" y2="474.179" />
<line fill="none" stroke="olive" stroke-width="3" x1="17.8218" y1="474.179" x2="23.7624" y2="476.286" />
<line fill="none" stroke="olive" stroke-width="3" x1="23.7624" y1="476.286" x2="29.703" y2="596.101" />
<line fill="none" stroke="olive" stroke-width="3" x1="29.703" y1="596.101" x2="35.6436" y2="572.793" />
<line fill="none" stroke="olive" stroke-width="3" x1="35.6436" y1="572.793" x2="41.5842" y2="550.359" />
<line fill="none" stroke="olive" stroke-width="3" x1="41.5842" y1="550.359" x2="47.5248" y2="528.888" />
<line fill="none" stroke="olive" stroke-width="3" x1="47.5248" y1="528.888" x2="53.4653" y2="374.207" />
<line fill="none" stroke="olive" stroke-width="3" x1="53.4653" y1="374.207" x2="59.4059" y2="339.747" />
<line fill="none" stroke="olive" stroke-width="3" x1="59.4059" y1="339.747" x2="65.3465" y2="308.253" />
<line fill="none" stroke="olive" stroke-width="3" x1="65.3465" y1="308.253" x2="71.2871" y2="280.4" />
<line fill="none" stroke="olive" stroke-width="3" x1="71.2871" y1="280.4" x2="77.2277" y2="256.961" />
<line fill="none" stroke="olive" stroke-width="3" x1="77.2277" y1="256.961" x2="83.1683" y2="238.764" />
<line fill="none" stroke="olive" stroke-width="3" x1="83.1683" y1="238.764" x2="89.1089" y2="226.6" />
<line fill="none" stroke="olive" stroke-width="3" x1="89.1089" y1="226.6" x2="95.0495" y2="221.084" />
<line fill="none" stroke="olive" stroke-width="3" x1="95.0495" y1="221.084" x2="100.99" y2="222.524" />
<line fill="none" stroke="olive" stroke-width="3" x1="100.99" y1="222.524" x2="106.931" y2="230.836" />
<line fill="none" stroke="olive" stroke-width="3" x1="106.931" y1="230.836" x2="112.871" y2="203.798" />
<line fill="none" stroke="olive" stroke-width="3" x1="112.871" y1="203.798" x2="118.812" y2="166.719" />
<line fill="none" stroke="olive" stroke-width="3" x1="118.812" y1="166.719" x2="124.752" y2="126.499" />
<line fill="none" stroke="olive" stroke-width="3" x1="124.752" y1="126.499" x2="130.693" y2="90.2182" />
<line fill="none" stroke="olive" stroke-width="3" x1="130.693" y1="90.2182" x2="136.634" y2="60.0706" />
<line fill="none" stroke="olive" stroke-width="3" x1="136.634" y1="60.0706" x2="142.574" y2="39.2443" />
<line fill="none" stroke="olive" stroke-width="3" x1="142.574" y1="39.2443" x2="148.515" y2="31.2507" />
<line fill="none" stroke="olive" stroke-width="3" x1="148.515" y1="31.2507" x2="154.455" y2="37.8652" />
<line fill="none" stroke="olive" stroke-width="3" x1="154.455" y1="37.8652" x2="160.396" y2="15.0276" />
<line fill="none" stroke="olive" stroke-width="3" x1="160.396" y1="15.0276" x2="166.337" y2="194.782" />
<line fill="none" stroke="olive" stroke-width="3" x1="166.337" y1="194.782" x2="172.277" y2="214.7" />
<line fill="none" stroke="olive" stroke-width="3" x1="172.277" y1="214.7" x2="178.218" y2="255.259" />
<line fill="none" stroke="olive" stroke-width="3" x1="178.218" y1="255.259" x2="184.158" y2="306.771" />
<line fill="none" stroke="olive" stroke-width="3" x1="184.158" y1="306.771" x2="190.099" y2="257.054" />
<line fill="none" stroke="olive" stroke-width="3" x1="190.099" y1="257.054" x2="196.04" y2="139.222" />
<line fill="none" stroke-dasharray = "10, 10"  stroke="orange" stroke-width="6" x1="196.04" y1="300" x2="201.98" y2="300" />
<line fill="none" stroke-dasharray = "10, 10"  stroke="orange" stroke-width="6" x1="201.98" y1="300" x2="207.921" y2="300" />
<line fill="none" stroke-dasharray = "10, 10"  stroke="orange" stroke-width="6" x1="207.921" y1="300" x2="213.861" y2="300" />
<line fill="none" stroke-dasharray = "10, 10"  stroke="orange" stroke-width="6" x1="213.861" y1="300" x2="219.802" y2="300" />
<line fill="none" stroke-dasharray = "10, 10"  stroke="orange" stroke-width="6" x1="219.802" y1="300" x2="225.743" y2="300" />
<line fill="none" stroke-dasharray = "10, 10"  stroke="orange" stroke-width="6" x1="225.743" y1="300" x2="231.683" y2="300" />
<line fill="none" stroke-dasharray = "10, 10"  stroke="orange" stroke-width="6" x1="231.683" y1="300" x2="237.624" y2="300" />
<line fill="none" stroke-dasharray = "10, 10"  stroke="orange" stroke-width="6" x1="237.624" y1="300" x2="243.564" y2="300" />
<line fill="none" stroke-dasharray = "10, 10"  stroke="orange" stroke-width="6" x1="243.564" y1="300" x2="249.505" y2="300" />
<line fill="none" stroke-dasharray = "10, 10"  stroke="orange" stroke-width="6" x1="249.505" y1="300" x2="255.446" y2="300" />
<line fill="none" stroke-dasharray = "10, 10"  stroke="orange" stroke-width="6" x1="255.446" y1="300" x2="261.386" y2="300" />
<line fill="none" stroke-dasharray = "10, 10"  stroke="orange" stroke-width="6" x1="261.386" y1="300" x2="267.327" y2="300" />
<line fill="none" stroke-dasharray = "10, 10"  stroke="orange" stroke-width="6" x1="267.327" y1="300" x2="273.267" y2="300" />
<line fill="none" stroke-dasharray = "10, 10"  stroke="orange" stroke-width="6" x1="273.267" y1="300" x2="279.208" y2="300" />
<line fill="none" stroke-dasharray = "10, 10"  stroke="orange" stroke-width="6" x1="279.208" y1="300" x2="285.149" y2="300" />
<line fill="none" stroke-dasharray = "10, 10"  stroke="orange" stroke-width="6" x1="285.149" y1="300" x2="291.089" y2="300" />
<line fill="none" stroke-dasharray = "10, 10"  stroke="orange" stroke-width="6" x1="291.089" y1="300" x2="297.03" y2="300" />
<line fill="none" stroke-dasharray = "10, 10"  stroke="orange" stroke-width="6" x1="297.03" y1="300" x2="302.97" y2="300" />
<line fill="none" stroke-dasharray = "10, 10"  stroke="orange" stroke-width="6" x1="302.97" y1="300" x2="308.911" y2="300" />
<line fill="none" stroke-dasharray = "10, 10"  stroke="orange" stroke-width="6" x1="308.911" y1="300" x2="314.851" y2="300" />
<line fill="none" stroke-dasharray = "10, 10"  stroke="orange" stroke-width="6" x1="314.851" y1="300" x2="320.792" y2="300" />
<line fill="none" stroke-dasharray = "10, 10"  stroke="orange" stroke-width="6" x1="320.792" y1="300" x2="326.733" y2="300" />
<line fill="none" stroke-dasharray = "10, 10"  stroke="orange" stroke-width="6" x1="326.733" y1="300" x2="332.673" y2="300" />
<line fill="none" stroke-dasharray = "10, 10"  stroke="orange" stroke-width="6" x1="332.673" y1="300" x2="338.614" y2="300" />
<line fill="none" stroke-dasharray = "10, 10"  stroke="orange" stroke-width="6" x1="338.614" y1="300" x2="344.554" y2="300" />
<line fill="none" stroke-dasharray = "10, 10"  stroke="orange" stroke-width="6" x1="344.554" y1="300" x2="350.495" y2="300" />
<line fill="none" stroke-dasharray = "10, 10"  stroke="orange" stroke-width="6" x1="350.495" y1="300" x2="356.436" y2="300" />
<line fill="none" stroke-dasharray = "10, 10"  stroke="orange" stroke-width="6" x1="356.436" y1="300" x2="362.376" y2="300" />
<line fill="none" stroke-dasharray = "10, 10"  stroke="orange" stroke-width="6" x1="362.376" y1="300" x2="368.317" y2="300" />
<line fill="none" stroke-dasharray = "10, 10"  stroke="orange" stroke-width="6" x1="368.317" y1="300" x2="374.257" y2="300" />
<line fill="none" stroke-dasharray = "10, 10"  stroke="orange" stroke-width="6" x1="374.257" y1="300" x2="380.198" y2="300" />
<line fill="none" stroke-dasharray = "10, 10"  stroke="orange" stroke-width="6" x1="380.198" y1="300" x2="386.139" y2="300" />
<line fill="none" stroke-dasharray = "10, 10"  stroke="orange" stroke-width="6" x1="386.139" y1="300" x2="392.079" y2="300" />
<line fill="none" stroke-dasharray = "10, 10"  stroke="orange" stroke-width="6" x1="392.079" y1="300" x2="398.02" y2="300" />
<line fill="none" stroke-dasharray = "10, 10"  stroke="orange" stroke-width="6" x1="398.02" y1="300" x2="403.96" y2="300" />
<line fill="none" stroke-dasharray = "10, 10"  stroke="orange" stroke-width="6" x1="403.96" y1="300" x2="409.901" y2="300" />
<line fill="none" stroke-dasharray = "10, 10"  stroke="orange" stroke-width="6" x1="409.901" y1="300" x2="415.842" y2="300" />
<line fill="none" stroke-dasharray = "10, 10"  stroke="orange" stroke-width="6" x1="415.842" y1="300" x2="421.782" y2="300" />
<line fill="none" stroke-dasharray = "10, 10"  stroke="orange" stroke-width="6" x1="421.782" y1="300" x2="427.723" y2="300" />
<line fill="none" stroke-dasharray = "10, 10"  stroke="orange" stroke-width="6" x1="427.723" y1="300" x2="433.663" y2="300" />
<line fill="none" stroke-dasharray = "10, 10"  stroke="orange" stroke-width="6" x1="433.663" y1="300" x2="439.604" y2="300" />
<line fill="none" stroke-dasharray = "10, 10"  stroke="orange" stroke-width="6" x1="439.604" y1="300" x2="445.545" y2="300" />
<line fill="none" stroke-dasharray = "10, 10"  stroke="orange" stroke-width="6" x1="445.545" y1="300" x2="451.485" y2="300" />
<line fill="none" stroke-dasharray = "10, 10"  stroke="orange" stroke-width="6" x1="451.485" y1="300" x2="457.426" y2="300" />
<line fill="none" stroke-dasharray = "10, 10"  stroke="orange" stroke-width="6" x1="457.426" y1="300" x2="463.366" y2="300" />
<line fill="none" stroke-dasharray = "10, 10"  stroke="orange" stroke-width="6" x1="463.366" y1="300" x2="469.307" y2="300" />
<line fill="none" stroke-dasharray = "10, 10"  stroke="orange" stroke-width="6" x1="469.307" y1="300" x2="475.248" y2="300" />
<line fill="none" stroke-dasharray = "10, 10"  stroke="orange" stroke-width="6" x1="475.248" y1="300" x2="481.188" y2="300" />
<line fill="none" stroke-dasharray = "10, 10"  stroke="orange" stroke-width="6" x1="481.188" y1="300" x2="487.129" y2="300" />
<line fill="none" stroke-dasharray = "10, 10"  stroke="orange" stroke-width="6" x1="487.129" y1="300" x2="493.069" y2="300" />
<line fill="none" stroke-dasharray = "10, 10"  stroke="orange" stroke-width="6" x1="493.069" y1="300" x2="499.01" y2="300" />
<line fill="none" stroke-dasharray = "10, 10"  stroke="orange" stroke-width="6" x1="499.01" y1="300" x2="504.95" y2="300" />
<line fill="none" stroke-dasharray = "10, 10"  stroke="orange" stroke-width="6" x1="504.95" y1="300" x2="510.891" y2="300" />
<line fill="none" stroke-dasharray = "10, 10"  stroke="orange" stroke-width="6" x1="510.891" y1="300" x2="516.832" y2="300" />
<line fill="none" stroke-dasharray = "10, 10"  stroke="orange" stroke-width="6" x1="516.832" y1="300" x2="522.772" y2="300" />
<line fill="none" stroke-dasharray = "10, 10"  stroke="orange" stroke-width="6" x1="522.772" y1="300" x2="528.713" y2="300" />
<line fill="none" stroke-dasharray = "10, 10"  stroke="orange" stroke-width="6" x1="528.713" y1="300" x2="534.653" y2="300" />
<line fill="none" stroke-dasharray = "10, 10"  stroke="orange" stroke-width="6" x1="534.653" y1="300" x2="540.594" y2="300" />
<line fill="none" stroke-dasharray = "10, 10"  stroke="orange" stroke-width="6" x1="540.594" y1="300" x2="546.535" y2="300" />
<line fill="none" stroke-dasharray = "10, 10"  stroke="orange" stroke-width="6" x1="546.535" y1="300" x2="552.475" y2="300" />
<line fill="none" stroke-dasharray = "10, 10"  stroke="orange" stroke-width="6" x1="552.475" y1="300" x2="558.416" y2="300" />
<line fill="none" stroke-dasharray = "10, 10"  stroke="orange" stroke-width="6" x1="558.416" y1="300" x2="564.356" y2="300" />
<line fill="none" stroke-dasharray = "10, 10"  stroke="orange" stroke-width="6" x1="564.356" y1="300" x2="570.297" y2="300" />
<line fill="none" stroke-dasharray = "10, 10"  stroke="orange" stroke-width="6" x1="570.297" y1="300" x2="576.238" y2="300" />
<line fill="none" stroke-dasharray = "10, 10"  stroke="orange" stroke-width="6" x1="576.238" y1="300" x2="582.178" y2="300" />
<line fill="none" stroke-dasharray = "10, 10"  stroke="orange" stroke-width="6" x1="582.178" y1="300" x2="588.119" y2="300" />
<line fill="none" stroke-dasharray = "10, 10"  stroke="orange" stroke-width="6" x1="588.119" y1="300" x2="594.059" y2="300" />

<!--Draw Glitches -->

<line fill="none" stroke="black" stroke-width="4" x1="201.98" y1="-173.636" x2="201.98" y2="-223.636"  stroke-dasharray = "10,5" />
<text transform="scale(1,-1)" font-family="sans-serif" font-size="30" stroke = "rgb(0,0,0)" line = "rgb(0,0,0)"  fill = "lightblue" x="206.98" y="223.636" >33</text>

<!-- -->


<!--Draw Glitches -->

<line fill="none" stroke="black" stroke-width="4" x1="29.703" y1="586.101" x2="29.703" y2="536.101"  stroke-dasharray = "10,5" />
<text transform="scale(1,-1)" font-family="sans-serif" font-size="30" stroke = "rgb(0,0,0)" line = "rgb(0,0,0)"  fill = "olive" x="34.703" y="-536.101" >4</text>
<line fill="none" stroke="black" stroke-width="4" x1="53.4653" y1="364.207" x2="53.4653" y2="314.207"  stroke-dasharray = "10,5" />
<text transform="scale(1,-1)" font-family="sans-serif" font-size="30" stroke = "rgb(0,0,0)" line = "rgb(0,0,0)"  fill = "olive" x="58.4653" y="-314.207" >8</text>
<line fill="none" stroke="black" stroke-width="4" x1="166.337" y1="184.782" x2="166.337" y2="134.782"  stroke-dasharray = "10,5" />
<text transform="scale(1,-1)" font-family="sans-serif" font-size="30" stroke = "rgb(0,0,0)" line = "rgb(0,0,0)"  fill = "olive" x="171.337" y="-134.782" >27</text>
<line fill="none" stroke="black" stroke-width="4" x1="178.218" y1="245.259" x2="178.218" y2="195.259"  stroke-dasharray = "10,5" />
<text transform="scale(1,-1)" font-family="sans-serif" font-size="30" stroke = "rgb(0,0,0)" line = "rgb(0,0,0)"  fill = "olive" x="183.218" y="-195.259" >29</text>
<line fill="none" stroke="black" stroke-width="4" x1="201.98" y1="-173.636" x2="201.98" y2="-223.636"  stroke-dasharray = "10,5" />
<text transform="scale(1,-1)" font-family="sans-serif" font-size="30" stroke = "rgb(0,0,0)" line = "rgb(0,0,0)"  fill = "olive" x="206.98" y="223.636" >33</text>

<!-- -->


<!--Draw the X and Y axes -->
<polyline fill="none" stroke="black" stroke-width="6"  points=" 600,0 0,0 0, 600" />
<polyline fill="none" stroke="black" stroke-width="1"  points=" 0 600  600 600  600 0" />
<!-- -->


<!--Draw labels and tics for X axis -->

<line fill="none" stroke="black"  stroke-width="6"  x1="0.5" y1="0" x2="0.5" y2="-20" />
<text transform="scale(1,-1)" font-family="sans-serif" font-size="30" x="-24.5" y="45" >0</text>
<line fill="none" stroke="black"  stroke-width="6"  x1="119.312" y1="0" x2="119.312" y2="-20" />
<text transform="scale(1,-1)" font-family="sans-serif" font-size="30" x="94.3119" y="45" >20</text>
<line fill="none" stroke="black"  stroke-width="6"  x1="238.124" y1="0" x2="238.124" y2="-20" />
<text transform="scale(1,-1)" font-family="sans-serif" font-size="30" x="213.124" y="45" >40</text>
<line fill="none" stroke="black"  stroke-width="6"  x1="356.936" y1="0" x2="356.936" y2="-20" />
<text transform="scale(1,-1)" font-family="sans-serif" font-size="30" x="331.936" y="45" >60</text>
<line fill="none" stroke="black"  stroke-width="6"  x1="475.748" y1="0" x2="475.748" y2="-20" />
<text transform="scale(1,-1)" font-family="sans-serif" font-size="30" x="450.748" y="45" >80</text>
<line fill="none" stroke="black"  stroke-width="6"  x1="594.559" y1="0" x2="594.559" y2="-20" />
<text transform="scale(1,-1)" font-family="sans-serif" font-size="30" x="569.559" y="45" >100</text>


<!--Draw labels and tics for Y axis -->

<line fill="none" stroke="black" stroke-width="6" x1="0.0" y1="0" x2="-20" y2="0" />
<text transform="scale(1,-1)" text-anchor="end" font-family="sans-serif" font-size="30" x="-25" y="10" >5</text>
<line fill="none" stroke="black" stroke-width="6" x1="0.0" y1="54.5455" x2="-20" y2="54.5455" />
<text transform="scale(1,-1)" text-anchor="end" font-family="sans-serif" font-size="30" x="-25" y="-44.5455" >7</text>
<line fill="none" stroke="black" stroke-width="6" x1="0.0" y1="109.091" x2="-20" y2="109.091" />
<text transform="scale(1,-1)" text-anchor="end" font-family="sans-serif" font-size="30" x="-25" y="-99.0909" >9</text>
<line fill="none" stroke="black" stroke-width="6" x1="0.0" y1="163.636" x2="-20" y2="163.636" />
<text transform="scale(1,-1)" text-anchor="end" font-family="sans-serif" font-size="30" x="-25" y="-153.636" >11</text>
<line fill="none" stroke="black" stroke-width="6" x1="0.0" y1="218.182" x2="-20" y2="218.182" />
<text transform="scale(1,-1)" text-anchor="end" font-family="sans-serif" font-size="30" x="-25" y="-208.182" >13</text>
<line fill="none" stroke="black" stroke-width="6" x1="0.0" y1="272.727" x2="-20" y2="272.727" />
<text transform="scale(1,-1)" text-anchor="end" font-family="sans-serif" font-size="30" x="-25" y="-262.727" >15</text>
<line fill="none" stroke="black" stroke-width="6" x1="0.0" y1="327.273" x2="-20" y2="327.273" />
<text transform="scale(1,-1)" text-anchor="end" font-family="sans-serif" font-size="30" x="-25" y="-317.273" >17</text>
<line fill="none" stroke="black" stroke-width="6" x1="0.0" y1="381.818" x2="-20" y2="381.818" />
<text transform="scale(1,-1)" text-anchor="end" font-family="sans-serif" font-size="30" x="-25" y="-371.818" >19</text>
<line fill="none" stroke="black" stroke-width="6" x1="0.0" y1="436.364" x2="-20" y2="436.364" />
<text transform="scale(1,-1)" text-anchor="end" font-family="sans-serif" font-size="30" x="-25" y="-426.364" >21</text>
<line fill="none" stroke="black" stroke-width="6" x1="0.0" y1="490.909" x2="-20" y2="490.909" />
<text transform="scale(1,-1)" text-anchor="end" font-family="sans-serif" font-size="30" x="-25" y="-480.909" >23</text>
<line fill="none" stroke="black" stroke-width="6" x1="0.0" y1="545.455" x2="-20" y2="545.455" />
<text transform="scale(1,-1)" text-anchor="end" font-family="sans-serif" font-size="30" x="-25" y="-535.455" >25</text>
<line fill="none" stroke="black" stroke-width="6" x1="0.0" y1="600" x2="-20" y2="600" />
<text transform="scale(1,-1)" text-anchor="end" font-family="sans-serif" font-size="30" x="-25" y="-590" >27</text>

-->
</g>
</g>
<!-- Run Constants
PRINTDISTANCEDATA bool true
GLITCHESONLY bool true
PLOT 2doubles 3 4
PERTURBBY double 0.05
GLITCHLEVEL double 3
BOUNDARYWINDOW double 0.065
FRAMESPERPATH int 200
STEPSPERFRAME int 100
TRIALS int 1
ALLBLACK bool true
FILEPREFIX string Fol
GRAPHSIZE int 0
BORDER int 0
PLOTSIZE int 0
G6LINEWIDTH int 3
DELONELINEWIDTH int 10
AXISWIDTH int 6
TICLENGTH int 20
VECTOR g6 
FOLLOWERMODE FollowerMode line
FIXRANDOMSEED fixRandomSeed false
RANDOMSEED int 19191
TIMESTAMP bool true
END end 




-->
</svg>
