<?xml version="1.0" standalone="no"?>
<!-- the width and height set the total pixel output of the image in the browser -->
<!-- whatever is within the viewbox will be remapped to show in this size -->
<svg width="900" height="800" viewBox="1 0 900 800"  version="1.1" xmlns="http://www.w3.org/2000/svg" xmlns:xlink="http://www.w3.org/1999/xlink">
 <desc>ID (and file name) = Fol_2018-05-16.16_31_13.67_66.svg </desc> 
<text x = "-750" y="50" transform="rotate(-90)"  font-family="sans-serif" font-size="40" stroke ="lightgray" fill="none"> PointDistanceFollower   May 16 2018</text>
 <text x="560" y="30" font-family="sans-serif" font-size="20">Wall time passed: 1295 msec.</text>
<text x="300" y="60"   font-family="sans-serif" font-size="20" fill="lightblue">S6  lightblue</text>
<text x="300" y="85"   font-family="sans-serif" font-size="20" fill="slategrey">NCDist  slategrey</text>
<text x="300" y="110"  font-family="sans-serif" font-size="20" fill="violet">D7  violet</text>
<text x="300" y="135"  font-family="sans-serif" font-size="20" fill="olive">CS6Dist  olive</text>

 <text x="140"  y="30"  font-family="sans-serif" font-size="20" >Fol_2018-05-16.16_31_13.67_66.svg  </text> 


 <!--DISTANCE PLOT BEGINS-->


<!-- the following will scale and place the distance plot -->
<g  transform="translate(0, 50) ">
<g transform="translate(150,700) scale(1 -1)">
<line fill="none" stroke="lightblue" stroke-width="12" x1="0" y1="558.613" x2="5.94059" y2="558.613" />
<line fill="none" stroke="lightblue" stroke-width="12" x1="5.94059" y1="558.613" x2="11.8812" y2="550.943" />
<line fill="none" stroke="lightblue" stroke-width="12" x1="11.8812" y1="550.943" x2="17.8218" y2="543.295" />
<line fill="none" stroke="lightblue" stroke-width="12" x1="17.8218" y1="543.295" x2="23.7624" y2="535.67" />
<line fill="none" stroke="lightblue" stroke-width="12" x1="23.7624" y1="535.67" x2="29.703" y2="528.07" />
<line fill="none" stroke="lightblue" stroke-width="12" x1="29.703" y1="528.07" x2="35.6436" y2="520.495" />
<line fill="none" stroke="lightblue" stroke-width="12" x1="35.6436" y1="520.495" x2="41.5842" y2="512.946" />
<line fill="none" stroke="lightblue" stroke-width="12" x1="41.5842" y1="512.946" x2="47.5248" y2="505.425" />
<line fill="none" stroke="lightblue" stroke-width="12" x1="47.5248" y1="505.425" x2="53.4653" y2="497.931" />
<line fill="none" stroke="lightblue" stroke-width="12" x1="53.4653" y1="497.931" x2="59.4059" y2="490.467" />
<line fill="none" stroke="lightblue" stroke-width="12" x1="59.4059" y1="490.467" x2="65.3465" y2="483.034" />
<line fill="none" stroke="lightblue" stroke-width="12" x1="65.3465" y1="483.034" x2="71.2871" y2="475.632" />
<line fill="none" stroke="lightblue" stroke-width="12" x1="71.2871" y1="475.632" x2="77.2277" y2="468.263" />
<line fill="none" stroke="lightblue" stroke-width="12" x1="77.2277" y1="468.263" x2="83.1683" y2="460.927" />
<line fill="none" stroke="lightblue" stroke-width="12" x1="83.1683" y1="460.927" x2="89.1089" y2="453.628" />
<line fill="none" stroke="lightblue" stroke-width="12" x1="89.1089" y1="453.628" x2="95.0495" y2="446.365" />
<line fill="none" stroke="lightblue" stroke-width="12" x1="95.0495" y1="446.365" x2="100.99" y2="439.141" />
<line fill="none" stroke="lightblue" stroke-width="12" x1="100.99" y1="439.141" x2="106.931" y2="431.956" />
<line fill="none" stroke="lightblue" stroke-width="12" x1="106.931" y1="431.956" x2="112.871" y2="424.813" />
<line fill="none" stroke="lightblue" stroke-width="12" x1="112.871" y1="424.813" x2="118.812" y2="417.714" />
<line fill="none" stroke="lightblue" stroke-width="12" x1="118.812" y1="417.714" x2="124.752" y2="410.66" />
<line fill="none" stroke="lightblue" stroke-width="12" x1="124.752" y1="410.66" x2="130.693" y2="403.652" />
<line fill="none" stroke="lightblue" stroke-width="12" x1="130.693" y1="403.652" x2="136.634" y2="396.694" />
<line fill="none" stroke="lightblue" stroke-width="12" x1="136.634" y1="396.694" x2="142.574" y2="389.786" />
<line fill="none" stroke="lightblue" stroke-width="12" x1="142.574" y1="389.786" x2="148.515" y2="382.932" />
<line fill="none" stroke="lightblue" stroke-width="12" x1="148.515" y1="382.932" x2="154.455" y2="376.134" />
<line fill="none" stroke="lightblue" stroke-width="12" x1="154.455" y1="376.134" x2="160.396" y2="369.393" />
<line fill="none" stroke="lightblue" stroke-width="12" x1="160.396" y1="369.393" x2="166.337" y2="362.713" />
<line fill="none" stroke="lightblue" stroke-width="12" x1="166.337" y1="362.713" x2="172.277" y2="356.097" />
<line fill="none" stroke="lightblue" stroke-width="12" x1="172.277" y1="356.097" x2="178.218" y2="349.546" />
<line fill="none" stroke="lightblue" stroke-width="12" x1="178.218" y1="349.546" x2="184.158" y2="343.064" />
<line fill="none" stroke="lightblue" stroke-width="12" x1="184.158" y1="343.064" x2="190.099" y2="336.654" />
<line fill="none" stroke="lightblue" stroke-width="12" x1="190.099" y1="336.654" x2="196.04" y2="330.319" />
<line fill="none" stroke="lightblue" stroke-width="12" x1="196.04" y1="330.319" x2="201.98" y2="324.063" />
<line fill="none" stroke="lightblue" stroke-width="12" x1="201.98" y1="324.063" x2="207.921" y2="317.889" />
<line fill="none" stroke="lightblue" stroke-width="12" x1="207.921" y1="317.889" x2="213.861" y2="311.801" />
<line fill="none" stroke="lightblue" stroke-width="12" x1="213.861" y1="311.801" x2="219.802" y2="305.802" />
<line fill="none" stroke="lightblue" stroke-width="12" x1="219.802" y1="305.802" x2="225.743" y2="299.897" />
<line fill="none" stroke="lightblue" stroke-width="12" x1="225.743" y1="299.897" x2="231.683" y2="293.251" />
<line fill="none" stroke="lightblue" stroke-width="12" x1="231.683" y1="293.251" x2="237.624" y2="285.129" />
<line fill="none" stroke="lightblue" stroke-width="12" x1="237.624" y1="285.129" x2="243.564" y2="277.028" />
<line fill="none" stroke="lightblue" stroke-width="12" x1="243.564" y1="277.028" x2="249.505" y2="268.948" />
<line fill="none" stroke="lightblue" stroke-width="12" x1="249.505" y1="268.948" x2="255.446" y2="260.89" />
<line fill="none" stroke="lightblue" stroke-width="12" x1="255.446" y1="260.89" x2="261.386" y2="252.857" />
<line fill="none" stroke="lightblue" stroke-width="12" x1="261.386" y1="252.857" x2="267.327" y2="242.494" />
<line fill="none" stroke="lightblue" stroke-width="12" x1="267.327" y1="242.494" x2="273.267" y2="228.809" />
<line fill="none" stroke="lightblue" stroke-width="12" x1="273.267" y1="228.809" x2="279.208" y2="215.352" />
<line fill="none" stroke="lightblue" stroke-width="12" x1="279.208" y1="215.352" x2="285.149" y2="202.242" />
<line fill="none" stroke="lightblue" stroke-width="12" x1="285.149" y1="202.242" x2="291.089" y2="190.679" />
<line fill="none" stroke="lightblue" stroke-width="12" x1="291.089" y1="190.679" x2="297.03" y2="178.692" />
<line fill="none" stroke="lightblue" stroke-width="12" x1="297.03" y1="178.692" x2="302.97" y2="167.568" />
<line fill="none" stroke="lightblue" stroke-width="12" x1="302.97" y1="167.568" x2="308.911" y2="157.421" />
<line fill="none" stroke="lightblue" stroke-width="12" x1="308.911" y1="157.421" x2="314.851" y2="148.369" />
<line fill="none" stroke="lightblue" stroke-width="12" x1="314.851" y1="148.369" x2="320.792" y2="140.537" />
<line fill="none" stroke="lightblue" stroke-width="12" x1="320.792" y1="140.537" x2="326.733" y2="133.404" />
<line fill="none" stroke="lightblue" stroke-width="12" x1="326.733" y1="133.404" x2="332.673" y2="127.356" />
<line fill="none" stroke="lightblue" stroke-width="12" x1="332.673" y1="127.356" x2="338.614" y2="111.289" />
<line fill="none" stroke="lightblue" stroke-width="12" x1="338.614" y1="111.289" x2="344.554" y2="88.4705" />
<line fill="none" stroke="lightblue" stroke-width="12" x1="344.554" y1="88.4705" x2="350.495" y2="68.7018" />
<line fill="none" stroke="lightblue" stroke-width="12" x1="350.495" y1="68.7018" x2="356.436" y2="53.1683" />
<line fill="none" stroke="lightblue" stroke-width="12" x1="356.436" y1="53.1683" x2="362.376" y2="39.7556" />
<line fill="none" stroke="lightblue" stroke-width="12" x1="362.376" y1="39.7556" x2="368.317" y2="43.6809" />
<line fill="none" stroke="lightblue" stroke-width="12" x1="368.317" y1="43.6809" x2="374.257" y2="61.9788" />
<line fill="none" stroke="lightblue" stroke-width="12" x1="374.257" y1="61.9788" x2="380.198" y2="88.2842" />
<line fill="none" stroke="lightblue" stroke-width="12" x1="380.198" y1="88.2842" x2="386.139" y2="96.6978" />
<line fill="none" stroke-dasharray = "10, 10"  stroke="orange" stroke-width="6" x1="386.139" y1="300" x2="392.079" y2="300" />
<line fill="none" stroke-dasharray = "10, 10"  stroke="orange" stroke-width="6" x1="392.079" y1="300" x2="398.02" y2="300" />
<line fill="none" stroke-dasharray = "10, 10"  stroke="orange" stroke-width="6" x1="398.02" y1="300" x2="403.96" y2="300" />
<line fill="none" stroke-dasharray = "10, 10"  stroke="orange" stroke-width="6" x1="403.96" y1="300" x2="409.901" y2="300" />
<line fill="none" stroke-dasharray = "10, 10"  stroke="orange" stroke-width="6" x1="409.901" y1="300" x2="415.842" y2="300" />
<line fill="none" stroke-dasharray = "10, 10"  stroke="orange" stroke-width="6" x1="415.842" y1="300" x2="421.782" y2="300" />
<line fill="none" stroke-dasharray = "10, 10"  stroke="orange" stroke-width="6" x1="421.782" y1="300" x2="427.723" y2="300" />
<line fill="none" stroke-dasharray = "10, 10"  stroke="orange" stroke-width="6" x1="427.723" y1="300" x2="433.663" y2="300" />
<line fill="none" stroke-dasharray = "10, 10"  stroke="orange" stroke-width="6" x1="433.663" y1="300" x2="439.604" y2="300" />
<line fill="none" stroke-dasharray = "10, 10"  stroke="orange" stroke-width="6" x1="439.604" y1="300" x2="445.545" y2="300" />
<line fill="none" stroke-dasharray = "10, 10"  stroke="orange" stroke-width="6" x1="445.545" y1="300" x2="451.485" y2="300" />
<line fill="none" stroke-dasharray = "10, 10"  stroke="orange" stroke-width="6" x1="451.485" y1="300" x2="457.426" y2="300" />
<line fill="none" stroke-dasharray = "10, 10"  stroke="orange" stroke-width="6" x1="457.426" y1="300" x2="463.366" y2="300" />
<line fill="none" stroke-dasharray = "10, 10"  stroke="orange" stroke-width="6" x1="463.366" y1="300" x2="469.307" y2="300" />
<line fill="none" stroke-dasharray = "10, 10"  stroke="orange" stroke-width="6" x1="469.307" y1="300" x2="475.248" y2="300" />
<line fill="none" stroke-dasharray = "10, 10"  stroke="orange" stroke-width="6" x1="475.248" y1="300" x2="481.188" y2="300" />
<line fill="none" stroke-dasharray = "10, 10"  stroke="orange" stroke-width="6" x1="481.188" y1="300" x2="487.129" y2="300" />
<line fill="none" stroke-dasharray = "10, 10"  stroke="orange" stroke-width="6" x1="487.129" y1="300" x2="493.069" y2="300" />
<line fill="none" stroke-dasharray = "10, 10"  stroke="orange" stroke-width="6" x1="493.069" y1="300" x2="499.01" y2="300" />
<line fill="none" stroke-dasharray = "10, 10"  stroke="orange" stroke-width="6" x1="499.01" y1="300" x2="504.95" y2="300" />
<line fill="none" stroke-dasharray = "10, 10"  stroke="orange" stroke-width="6" x1="504.95" y1="300" x2="510.891" y2="300" />
<line fill="none" stroke-dasharray = "10, 10"  stroke="orange" stroke-width="6" x1="510.891" y1="300" x2="516.832" y2="300" />
<line fill="none" stroke-dasharray = "10, 10"  stroke="orange" stroke-width="6" x1="516.832" y1="300" x2="522.772" y2="300" />
<line fill="none" stroke-dasharray = "10, 10"  stroke="orange" stroke-width="6" x1="522.772" y1="300" x2="528.713" y2="300" />
<line fill="none" stroke-dasharray = "10, 10"  stroke="orange" stroke-width="6" x1="528.713" y1="300" x2="534.653" y2="300" />
<line fill="none" stroke-dasharray = "10, 10"  stroke="orange" stroke-width="6" x1="534.653" y1="300" x2="540.594" y2="300" />
<line fill="none" stroke-dasharray = "10, 10"  stroke="orange" stroke-width="6" x1="540.594" y1="300" x2="546.535" y2="300" />
<line fill="none" stroke-dasharray = "10, 10"  stroke="orange" stroke-width="6" x1="546.535" y1="300" x2="552.475" y2="300" />
<line fill="none" stroke-dasharray = "10, 10"  stroke="orange" stroke-width="6" x1="552.475" y1="300" x2="558.416" y2="300" />
<line fill="none" stroke-dasharray = "10, 10"  stroke="orange" stroke-width="6" x1="558.416" y1="300" x2="564.356" y2="300" />
<line fill="none" stroke-dasharray = "10, 10"  stroke="orange" stroke-width="6" x1="564.356" y1="300" x2="570.297" y2="300" />
<line fill="none" stroke-dasharray = "10, 10"  stroke="orange" stroke-width="6" x1="570.297" y1="300" x2="576.238" y2="300" />
<line fill="none" stroke-dasharray = "10, 10"  stroke="orange" stroke-width="6" x1="576.238" y1="300" x2="582.178" y2="300" />
<line fill="none" stroke-dasharray = "10, 10"  stroke="orange" stroke-width="6" x1="582.178" y1="300" x2="588.119" y2="300" />
<line fill="none" stroke-dasharray = "10, 10"  stroke="orange" stroke-width="6" x1="588.119" y1="300" x2="594.059" y2="300" />
<line fill="none" stroke="olive" stroke-width="3" x1="0" y1="170.189" x2="5.94059" y2="170.189" />
<line fill="none" stroke="olive" stroke-width="3" x1="5.94059" y1="170.189" x2="11.8812" y2="170.471" />
<line fill="none" stroke="olive" stroke-width="3" x1="11.8812" y1="170.471" x2="17.8218" y2="170.754" />
<line fill="none" stroke="olive" stroke-width="3" x1="17.8218" y1="170.754" x2="23.7624" y2="171.037" />
<line fill="none" stroke="olive" stroke-width="3" x1="23.7624" y1="171.037" x2="29.703" y2="171.322" />
<line fill="none" stroke="olive" stroke-width="3" x1="29.703" y1="171.322" x2="35.6436" y2="171.607" />
<line fill="none" stroke="olive" stroke-width="3" x1="35.6436" y1="171.607" x2="41.5842" y2="171.894" />
<line fill="none" stroke="olive" stroke-width="3" x1="41.5842" y1="171.894" x2="47.5248" y2="172.181" />
<line fill="none" stroke="olive" stroke-width="3" x1="47.5248" y1="172.181" x2="53.4653" y2="172.47" />
<line fill="none" stroke="olive" stroke-width="3" x1="53.4653" y1="172.47" x2="59.4059" y2="172.759" />
<line fill="none" stroke="olive" stroke-width="3" x1="59.4059" y1="172.759" x2="65.3465" y2="173.049" />
<line fill="none" stroke="olive" stroke-width="3" x1="65.3465" y1="173.049" x2="71.2871" y2="173.34" />
<line fill="none" stroke="olive" stroke-width="3" x1="71.2871" y1="173.34" x2="77.2277" y2="173.633" />
<line fill="none" stroke="olive" stroke-width="3" x1="77.2277" y1="173.633" x2="83.1683" y2="173.926" />
<line fill="none" stroke="olive" stroke-width="3" x1="83.1683" y1="173.926" x2="89.1089" y2="174.22" />
<line fill="none" stroke="olive" stroke-width="3" x1="89.1089" y1="174.22" x2="95.0495" y2="174.515" />
<line fill="none" stroke="olive" stroke-width="3" x1="95.0495" y1="174.515" x2="100.99" y2="174.811" />
<line fill="none" stroke="olive" stroke-width="3" x1="100.99" y1="174.811" x2="106.931" y2="175.108" />
<line fill="none" stroke="olive" stroke-width="3" x1="106.931" y1="175.108" x2="112.871" y2="175.406" />
<line fill="none" stroke="olive" stroke-width="3" x1="112.871" y1="175.406" x2="118.812" y2="175.705" />
<line fill="none" stroke="olive" stroke-width="3" x1="118.812" y1="175.705" x2="124.752" y2="176.005" />
<line fill="none" stroke="olive" stroke-width="3" x1="124.752" y1="176.005" x2="130.693" y2="176.306" />
<line fill="none" stroke="olive" stroke-width="3" x1="130.693" y1="176.306" x2="136.634" y2="176.608" />
<line fill="none" stroke="olive" stroke-width="3" x1="136.634" y1="176.608" x2="142.574" y2="176.911" />
<line fill="none" stroke="olive" stroke-width="3" x1="142.574" y1="176.911" x2="148.515" y2="177.215" />
<line fill="none" stroke="olive" stroke-width="3" x1="148.515" y1="177.215" x2="154.455" y2="177.52" />
<line fill="none" stroke="olive" stroke-width="3" x1="154.455" y1="177.52" x2="160.396" y2="177.826" />
<line fill="none" stroke="olive" stroke-width="3" x1="160.396" y1="177.826" x2="166.337" y2="178.133" />
<line fill="none" stroke="olive" stroke-width="3" x1="166.337" y1="178.133" x2="172.277" y2="178.441" />
<line fill="none" stroke="olive" stroke-width="3" x1="172.277" y1="178.441" x2="178.218" y2="178.75" />
<line fill="none" stroke="olive" stroke-width="3" x1="178.218" y1="178.75" x2="184.158" y2="179.06" />
<line fill="none" stroke="olive" stroke-width="3" x1="184.158" y1="179.06" x2="190.099" y2="179.371" />
<line fill="none" stroke="olive" stroke-width="3" x1="190.099" y1="179.371" x2="196.04" y2="179.683" />
<line fill="none" stroke="olive" stroke-width="3" x1="196.04" y1="179.683" x2="201.98" y2="179.564" />
<line fill="none" stroke="olive" stroke-width="3" x1="201.98" y1="179.564" x2="207.921" y2="178.878" />
<line fill="none" stroke="olive" stroke-width="3" x1="207.921" y1="178.878" x2="213.861" y2="178.198" />
<line fill="none" stroke="olive" stroke-width="3" x1="213.861" y1="178.198" x2="219.802" y2="177.523" />
<line fill="none" stroke="olive" stroke-width="3" x1="219.802" y1="177.523" x2="225.743" y2="176.852" />
<line fill="none" stroke="olive" stroke-width="3" x1="225.743" y1="176.852" x2="231.683" y2="175.357" />
<line fill="none" stroke="olive" stroke-width="3" x1="231.683" y1="175.357" x2="237.624" y2="173.153" />
<line fill="none" stroke="olive" stroke-width="3" x1="237.624" y1="173.153" x2="243.564" y2="171.003" />
<line fill="none" stroke="olive" stroke-width="3" x1="243.564" y1="171.003" x2="249.505" y2="168.905" />
<line fill="none" stroke="olive" stroke-width="3" x1="249.505" y1="168.905" x2="255.446" y2="166.859" />
<line fill="none" stroke="olive" stroke-width="3" x1="255.446" y1="166.859" x2="261.386" y2="164.862" />
<line fill="none" stroke="olive" stroke-width="3" x1="261.386" y1="164.862" x2="267.327" y2="164.484" />
<line fill="none" stroke="olive" stroke-width="3" x1="267.327" y1="164.484" x2="273.267" y2="166.472" />
<line fill="none" stroke="olive" stroke-width="3" x1="273.267" y1="166.472" x2="279.208" y2="166.074" />
<line fill="none" stroke="olive" stroke-width="3" x1="279.208" y1="166.074" x2="285.149" y2="163.868" />
<line fill="none" stroke="olive" stroke-width="3" x1="285.149" y1="163.868" x2="291.089" y2="166.43" />
<line fill="none" stroke="olive" stroke-width="3" x1="291.089" y1="166.43" x2="297.03" y2="169.075" />
<line fill="none" stroke="olive" stroke-width="3" x1="297.03" y1="169.075" x2="302.97" y2="167.568" />
<line fill="none" stroke="olive" stroke-width="3" x1="302.97" y1="167.568" x2="308.911" y2="157.421" />
<line fill="none" stroke="olive" stroke-width="3" x1="308.911" y1="157.421" x2="314.851" y2="148.369" />
<line fill="none" stroke="olive" stroke-width="3" x1="314.851" y1="148.369" x2="320.792" y2="140.537" />
<line fill="none" stroke="olive" stroke-width="3" x1="320.792" y1="140.537" x2="326.733" y2="133.404" />
<line fill="none" stroke="olive" stroke-width="3" x1="326.733" y1="133.404" x2="332.673" y2="127.356" />
<line fill="none" stroke="olive" stroke-width="3" x1="332.673" y1="127.356" x2="338.614" y2="111.289" />
<line fill="none" stroke="olive" stroke-width="3" x1="338.614" y1="111.289" x2="344.554" y2="88.4705" />
<line fill="none" stroke="olive" stroke-width="3" x1="344.554" y1="88.4705" x2="350.495" y2="68.7018" />
<line fill="none" stroke="olive" stroke-width="3" x1="350.495" y1="68.7018" x2="356.436" y2="53.1683" />
<line fill="none" stroke="olive" stroke-width="3" x1="356.436" y1="53.1683" x2="362.376" y2="43.2545" />
<line fill="none" stroke="olive" stroke-width="3" x1="362.376" y1="43.2545" x2="368.317" y2="43.6809" />
<line fill="none" stroke="olive" stroke-width="3" x1="368.317" y1="43.6809" x2="374.257" y2="61.9788" />
<line fill="none" stroke="olive" stroke-width="3" x1="374.257" y1="61.9788" x2="380.198" y2="88.2842" />
<line fill="none" stroke="olive" stroke-width="3" x1="380.198" y1="88.2842" x2="386.139" y2="16.6485" />
<line fill="none" stroke-dasharray = "10, 10"  stroke="orange" stroke-width="6" x1="386.139" y1="300" x2="392.079" y2="300" />
<line fill="none" stroke-dasharray = "10, 10"  stroke="orange" stroke-width="6" x1="392.079" y1="300" x2="398.02" y2="300" />
<line fill="none" stroke-dasharray = "10, 10"  stroke="orange" stroke-width="6" x1="398.02" y1="300" x2="403.96" y2="300" />
<line fill="none" stroke-dasharray = "10, 10"  stroke="orange" stroke-width="6" x1="403.96" y1="300" x2="409.901" y2="300" />
<line fill="none" stroke-dasharray = "10, 10"  stroke="orange" stroke-width="6" x1="409.901" y1="300" x2="415.842" y2="300" />
<line fill="none" stroke-dasharray = "10, 10"  stroke="orange" stroke-width="6" x1="415.842" y1="300" x2="421.782" y2="300" />
<line fill="none" stroke-dasharray = "10, 10"  stroke="orange" stroke-width="6" x1="421.782" y1="300" x2="427.723" y2="300" />
<line fill="none" stroke-dasharray = "10, 10"  stroke="orange" stroke-width="6" x1="427.723" y1="300" x2="433.663" y2="300" />
<line fill="none" stroke-dasharray = "10, 10"  stroke="orange" stroke-width="6" x1="433.663" y1="300" x2="439.604" y2="300" />
<line fill="none" stroke-dasharray = "10, 10"  stroke="orange" stroke-width="6" x1="439.604" y1="300" x2="445.545" y2="300" />
<line fill="none" stroke-dasharray = "10, 10"  stroke="orange" stroke-width="6" x1="445.545" y1="300" x2="451.485" y2="300" />
<line fill="none" stroke-dasharray = "10, 10"  stroke="orange" stroke-width="6" x1="451.485" y1="300" x2="457.426" y2="300" />
<line fill="none" stroke-dasharray = "10, 10"  stroke="orange" stroke-width="6" x1="457.426" y1="300" x2="463.366" y2="300" />
<line fill="none" stroke-dasharray = "10, 10"  stroke="orange" stroke-width="6" x1="463.366" y1="300" x2="469.307" y2="300" />
<line fill="none" stroke-dasharray = "10, 10"  stroke="orange" stroke-width="6" x1="469.307" y1="300" x2="475.248" y2="300" />
<line fill="none" stroke-dasharray = "10, 10"  stroke="orange" stroke-width="6" x1="475.248" y1="300" x2="481.188" y2="300" />
<line fill="none" stroke-dasharray = "10, 10"  stroke="orange" stroke-width="6" x1="481.188" y1="300" x2="487.129" y2="300" />
<line fill="none" stroke-dasharray = "10, 10"  stroke="orange" stroke-width="6" x1="487.129" y1="300" x2="493.069" y2="300" />
<line fill="none" stroke-dasharray = "10, 10"  stroke="orange" stroke-width="6" x1="493.069" y1="300" x2="499.01" y2="300" />
<line fill="none" stroke-dasharray = "10, 10"  stroke="orange" stroke-width="6" x1="499.01" y1="300" x2="504.95" y2="300" />
<line fill="none" stroke-dasharray = "10, 10"  stroke="orange" stroke-width="6" x1="504.95" y1="300" x2="510.891" y2="300" />
<line fill="none" stroke-dasharray = "10, 10"  stroke="orange" stroke-width="6" x1="510.891" y1="300" x2="516.832" y2="300" />
<line fill="none" stroke-dasharray = "10, 10"  stroke="orange" stroke-width="6" x1="516.832" y1="300" x2="522.772" y2="300" />
<line fill="none" stroke-dasharray = "10, 10"  stroke="orange" stroke-width="6" x1="522.772" y1="300" x2="528.713" y2="300" />
<line fill="none" stroke-dasharray = "10, 10"  stroke="orange" stroke-width="6" x1="528.713" y1="300" x2="534.653" y2="300" />
<line fill="none" stroke-dasharray = "10, 10"  stroke="orange" stroke-width="6" x1="534.653" y1="300" x2="540.594" y2="300" />
<line fill="none" stroke-dasharray = "10, 10"  stroke="orange" stroke-width="6" x1="540.594" y1="300" x2="546.535" y2="300" />
<line fill="none" stroke-dasharray = "10, 10"  stroke="orange" stroke-width="6" x1="546.535" y1="300" x2="552.475" y2="300" />
<line fill="none" stroke-dasharray = "10, 10"  stroke="orange" stroke-width="6" x1="552.475" y1="300" x2="558.416" y2="300" />
<line fill="none" stroke-dasharray = "10, 10"  stroke="orange" stroke-width="6" x1="558.416" y1="300" x2="564.356" y2="300" />
<line fill="none" stroke-dasharray = "10, 10"  stroke="orange" stroke-width="6" x1="564.356" y1="300" x2="570.297" y2="300" />
<line fill="none" stroke-dasharray = "10, 10"  stroke="orange" stroke-width="6" x1="570.297" y1="300" x2="576.238" y2="300" />
<line fill="none" stroke-dasharray = "10, 10"  stroke="orange" stroke-width="6" x1="576.238" y1="300" x2="582.178" y2="300" />
<line fill="none" stroke-dasharray = "10, 10"  stroke="orange" stroke-width="6" x1="582.178" y1="300" x2="588.119" y2="300" />
<line fill="none" stroke-dasharray = "10, 10"  stroke="orange" stroke-width="6" x1="588.119" y1="300" x2="594.059" y2="300" />

<!--Draw Glitches -->

<line fill="none" stroke="black" stroke-width="4" x1="380.198" y1="78.2842" x2="380.198" y2="28.2842"  stroke-dasharray = "10,5" />
<text transform="scale(1,-1)" font-family="sans-serif" font-size="30" stroke = "rgb(0,0,0)" line = "rgb(0,0,0)"  fill = "lightblue" x="385.198" y="-28.2842" >63</text>
<line fill="none" stroke="black" stroke-width="4" x1="392.079" y1="-120" x2="392.079" y2="-170"  stroke-dasharray = "10,5" />
<text transform="scale(1,-1)" font-family="sans-serif" font-size="30" stroke = "rgb(0,0,0)" line = "rgb(0,0,0)"  fill = "lightblue" x="397.079" y="170" >65</text>

<!-- -->


<!--Draw Glitches -->

<line fill="none" stroke="black" stroke-width="4" x1="392.079" y1="-120" x2="392.079" y2="-170"  stroke-dasharray = "10,5" />
<text transform="scale(1,-1)" font-family="sans-serif" font-size="30" stroke = "rgb(0,0,0)" line = "rgb(0,0,0)"  fill = "olive" x="397.079" y="170" >65</text>

<!-- -->


<!--Draw the X and Y axes -->
<polyline fill="none" stroke="black" stroke-width="6"  points=" 600,0 0,0 0, 600" />
<polyline fill="none" stroke="black" stroke-width="1"  points=" 0 600  600 600  600 0" />
<!-- -->


<!--Draw labels and tics for X axis -->

<line fill="none" stroke="black"  stroke-width="6"  x1="0.5" y1="0" x2="0.5" y2="-20" />
<text transform="scale(1,-1)" font-family="sans-serif" font-size="30" x="-24.5" y="45" >0</text>
<line fill="none" stroke="black"  stroke-width="6"  x1="119.312" y1="0" x2="119.312" y2="-20" />
<text transform="scale(1,-1)" font-family="sans-serif" font-size="30" x="94.3119" y="45" >20</text>
<line fill="none" stroke="black"  stroke-width="6"  x1="238.124" y1="0" x2="238.124" y2="-20" />
<text transform="scale(1,-1)" font-family="sans-serif" font-size="30" x="213.124" y="45" >40</text>
<line fill="none" stroke="black"  stroke-width="6"  x1="356.936" y1="0" x2="356.936" y2="-20" />
<text transform="scale(1,-1)" font-family="sans-serif" font-size="30" x="331.936" y="45" >60</text>
<line fill="none" stroke="black"  stroke-width="6"  x1="475.748" y1="0" x2="475.748" y2="-20" />
<text transform="scale(1,-1)" font-family="sans-serif" font-size="30" x="450.748" y="45" >80</text>
<line fill="none" stroke="black"  stroke-width="6"  x1="594.559" y1="0" x2="594.559" y2="-20" />
<text transform="scale(1,-1)" font-family="sans-serif" font-size="30" x="569.559" y="45" >100</text>


<!--Draw labels and tics for Y axis -->

<line fill="none" stroke="black" stroke-width="6" x1="0.0" y1="0" x2="-20" y2="0" />
<text transform="scale(1,-1)" text-anchor="end" font-family="sans-serif" font-size="30" x="-25" y="10" >10</text>
<line fill="none" stroke="black" stroke-width="6" x1="0.0" y1="100" x2="-20" y2="100" />
<text transform="scale(1,-1)" text-anchor="end" font-family="sans-serif" font-size="30" x="-25" y="-90" >20</text>
<line fill="none" stroke="black" stroke-width="6" x1="0.0" y1="200" x2="-20" y2="200" />
<text transform="scale(1,-1)" text-anchor="end" font-family="sans-serif" font-size="30" x="-25" y="-190" >30</text>
<line fill="none" stroke="black" stroke-width="6" x1="0.0" y1="300" x2="-20" y2="300" />
<text transform="scale(1,-1)" text-anchor="end" font-family="sans-serif" font-size="30" x="-25" y="-290" >40</text>
<line fill="none" stroke="black" stroke-width="6" x1="0.0" y1="400" x2="-20" y2="400" />
<text transform="scale(1,-1)" text-anchor="end" font-family="sans-serif" font-size="30" x="-25" y="-390" >50</text>
<line fill="none" stroke="black" stroke-width="6" x1="0.0" y1="500" x2="-20" y2="500" />
<text transform="scale(1,-1)" text-anchor="end" font-family="sans-serif" font-size="30" x="-25" y="-490" >60</text>
<line fill="none" stroke="black" stroke-width="6" x1="0.0" y1="600" x2="-20" y2="600" />
<text transform="scale(1,-1)" text-anchor="end" font-family="sans-serif" font-size="30" x="-25" y="-590" >70</text>

-->
</g>
</g>
<!-- Run Constants
PRINTDISTANCEDATA bool true
GLITCHESONLY bool true
PLOT 2doubles 3 4
PERTURBBY double 0.05
GLITCHLEVEL double 3
BOUNDARYWINDOW double 0.065
FRAMESPERPATH int 200
STEPSPERFRAME int 100
TRIALS int 1
ALLBLACK bool true
FILEPREFIX string Fol
GRAPHSIZE int 0
BORDER int 0
PLOTSIZE int 0
G6LINEWIDTH int 3
DELONELINEWIDTH int 10
AXISWIDTH int 6
TICLENGTH int 20
VECTOR g6 
FOLLOWERMODE FollowerMode line
FIXRANDOMSEED fixRandomSeed false
RANDOMSEED int 19191
TIMESTAMP bool true
END end 




-->
</svg>
