<?xml version="1.0" standalone="no"?>
<!-- the width and height set the total pixel output of the image in the browser -->
<!-- whatever is within the viewbox will be remapped to show in this size -->
<svg width="1000" height="1000" viewBox="1 0  1200 1200"  version="1.1" xmlns="http://www.w3.org/2000/svg" xmlns:xlink="http://www.w3.org/1999/xlink">
 <desc>ID (and file name) = Fol_2019-12-26.16_22_41.1_0.svg  mode = Line </desc> 
<g transform = "scale(1 1)">

<text x = "-850" y="50" transform="rotate(-90)"  font-family="sans-serif" font-size="40" stroke ="lightgray" fill="none"> PointDistanceFollower   Dec 21 2019</text>
 <text x="200"  y="30"  font-family="sans-serif" font-size="20" >Fol_2019-12-26.16_22_41.1_0.svg  &#160;&#160;&#160;&#160;&#160; Wall time passed: 259 msec.</text>
<text x="300" y="60"   font-family="sans-serif" font-size="20" fill="lightblue">  S6  45 msec </text>
<text x="300" y="85"   font-family="sans-serif" font-size="20" fill="olive">  CS6Dist  1 msec </text>
<text x="300" y="110"   font-family="sans-serif" font-size="20" fill="black">  LM  213 msec </text>



 <!--DISTANCE PLOT BEGINS   mode = Line-->


<!-- the following will scale and place the distance plot -->
<g transform="translate(150,975) scale(1 -1)">
   <polyline fill="none" stroke=" lightblue " stroke-width=" 12 " stroke-dasharray = " 10,5 " points=" 7.92079,0 15.8416,17.8695 23.7624,35.739 31.6832,53.6085 39.604,71.4781 47.5248,89.3476 55.4455,107.217 63.3663,125.087 71.2871,142.956 79.2079,160.826 87.1287,178.695 95.0495,196.565 102.97,214.434 110.891,232.304 118.812,250.173 126.733,268.043 134.653,285.912 142.574,303.782 150.495,321.651 158.416,339.521 166.337,357.39 174.257,375.26 182.178,393.129 190.099,410.999 198.02,428.868 205.941,446.738 213.861,464.607 221.782,482.477 229.703,500.346 237.624,518.216 245.545,535.781 253.465,549.012 261.386,562.499 269.307,576.225 277.228,590.173 285.149,604.327 293.069,618.674 300.99,624.63 308.911,627.971 316.832,629.293 324.752,631.483 332.673,634.532 340.594,638.428 348.515,643.155 356.436,648.697 364.356,655.031 372.277,662.135 380.198,669.984 388.119,678.553 396.04,687.815 403.96,687.815 411.881,678.553 419.802,669.984 427.723,662.135 435.644,655.031 443.564,648.697 451.485,643.155 459.406,638.428 467.327,634.532 475.248,631.483 483.168,629.293 491.089,627.971 499.01,624.63 506.931,618.674 514.851,604.327 522.772,590.173 530.693,576.225 538.614,562.499 546.535,549.012 554.455,535.781 562.376,518.216 570.297,500.346 578.218,482.477 586.139,464.607 594.059,446.738 601.98,428.868 609.901,410.999 617.822,393.129 625.743,375.26 633.663,357.39 641.584,339.521 649.505,321.651 657.426,303.782 665.347,285.912 673.267,268.043 681.188,250.173 689.109,232.304 697.03,214.434 704.95,196.565 712.871,178.695 720.792,160.826 728.713,142.956 736.634,125.087 744.554,107.217 752.475,89.3476 760.396,71.4781 768.317,53.6085 776.238,35.739 784.158,17.8695 792.079,0 " />

   <polyline fill="none" stroke=" olive " stroke-width=" 3 " stroke-dasharray = " 5,10 " points=" 7.92079,0 15.8416,17.8695 23.7624,35.739 31.6832,53.6085 39.604,71.4781 47.5248,89.3476 55.4455,107.217 63.3663,125.087 71.2871,142.956 79.2079,160.826 87.1287,178.695 95.0495,196.565 102.97,214.434 110.891,232.304 118.812,250.173 126.733,268.043 134.653,285.912 142.574,303.782 150.495,321.651 158.416,339.521 166.337,357.39 174.257,375.26 182.178,393.129 190.099,410.999 198.02,428.868 205.941,446.738 213.861,464.607 221.782,482.477 229.703,500.346 237.624,518.216 245.545,536.085 253.465,553.955 261.386,571.824 269.307,589.694 277.228,602.306 285.149,613.26 293.069,624.268 300.99,626.311 308.911,627.971 316.832,629.293 324.752,631.483 332.673,634.532 340.594,638.428 348.515,643.155 356.436,648.697 364.356,655.031 372.277,662.135 380.198,669.984 388.119,678.553 396.04,687.815 403.96,687.815 411.881,678.553 419.802,669.984 427.723,662.135 435.644,655.031 443.564,648.697 451.485,643.155 459.406,638.428 467.327,634.532 475.248,631.483 483.168,629.293 491.089,627.971 499.01,626.311 506.931,624.268 514.851,613.26 522.772,602.306 530.693,589.694 538.614,571.824 546.535,553.955 554.455,536.085 562.376,518.216 570.297,500.346 578.218,482.477 586.139,464.607 594.059,446.738 601.98,428.868 609.901,410.999 617.822,393.129 625.743,375.26 633.663,357.39 641.584,339.521 649.505,321.651 657.426,303.782 665.347,285.912 673.267,268.043 681.188,250.173 689.109,232.304 697.03,214.434 704.95,196.565 712.871,178.695 720.792,160.826 728.713,142.956 736.634,125.087 744.554,107.217 752.475,89.3476 760.396,71.4781 768.317,53.6085 776.238,35.739 784.158,17.8695 792.079,0 " />

   <polyline fill="none" stroke=" black " stroke-width=" 3 " stroke-dasharray = "  " points=" 7.92079,0 15.8416,17.8695 23.7624,35.739 31.6832,53.6085 39.604,71.4781 47.5248,89.3476 55.4455,107.217 63.3663,125.087 71.2871,142.956 79.2079,160.826 87.1287,178.695 95.0495,196.565 102.97,214.434 110.891,232.304 118.812,250.173 126.733,268.043 134.653,285.912 142.574,303.782 150.495,321.651 158.416,339.521 166.337,357.39 174.257,375.26 182.178,393.129 190.099,410.999 198.02,428.868 205.941,446.738 213.861,464.607 221.782,482.477 229.703,496.497 237.624,508.959 245.545,522.176 253.465,536.094 261.386,550.658 269.307,565.819 277.228,581.53 285.149,597.749 293.069,614.434 300.99,627.524 308.911,731.502 316.832,742.909 324.752,754.567 332.673,766.463 340.594,778.589 348.515,790.932 356.436,648.697 364.356,655.031 372.277,662.135 380.198,669.984 388.119,678.553 396.04,687.815 403.96,687.815 411.881,678.553 419.802,669.984 427.723,662.135 435.644,655.031 443.564,648.697 451.485,790.932 459.406,778.589 467.327,766.463 475.248,754.567 483.168,742.909 491.089,731.502 499.01,627.524 506.931,614.434 514.851,597.749 522.772,581.53 530.693,565.819 538.614,550.658 546.535,536.094 554.455,522.176 562.376,508.959 570.297,496.497 578.218,482.477 586.139,464.607 594.059,446.738 601.98,428.868 609.901,410.999 617.822,393.129 625.743,375.26 633.663,357.39 641.584,339.521 649.505,321.651 657.426,303.782 665.347,285.912 673.267,268.043 681.188,250.173 689.109,232.304 697.03,214.434 704.95,196.565 712.871,178.695 720.792,160.826 728.713,142.956 736.634,125.087 744.554,107.217 752.475,89.3476 760.396,71.4781 768.317,53.6085 776.238,35.739 784.158,17.8695 792.079,0 " />


<!--Draw Glitches -->

<line fill="none" stroke="black" stroke-width="4" x1="308.911" y1="721.502" x2="308.911" y2="671.502"  stroke-dasharray = "10,5" />
<text transform="scale(1,-1)" font-family="sans-serif" font-size="30" stroke = "rgb(0,0,0)" line = "rgb(0,0,0)"  fill = "black" x="313.911" y="-671.502" >38</text>
<line fill="none" stroke="black" stroke-width="4" x1="356.436" y1="638.697" x2="356.436" y2="588.697"  stroke-dasharray = "10,5" />
<text transform="scale(1,-1)" font-family="sans-serif" font-size="30" stroke = "rgb(0,0,0)" line = "rgb(0,0,0)"  fill = "black" x="361.436" y="-588.697" >44</text>
<line fill="none" stroke="black" stroke-width="4" x1="451.485" y1="780.932" x2="451.485" y2="730.932"  stroke-dasharray = "10,5" />
<text transform="scale(1,-1)" font-family="sans-serif" font-size="30" stroke = "rgb(0,0,0)" line = "rgb(0,0,0)"  fill = "black" x="456.485" y="-730.932" >56</text>
<line fill="none" stroke="black" stroke-width="4" x1="499.01" y1="617.524" x2="499.01" y2="567.524"  stroke-dasharray = "10,5" />
<text transform="scale(1,-1)" font-family="sans-serif" font-size="30" stroke = "rgb(0,0,0)" line = "rgb(0,0,0)"  fill = "black" x="504.01" y="-567.524" >62</text>

<!-- -->


<!--Draw the X and Y axes -->
<polyline fill="none" stroke="black" stroke-width="6"  points=" 800,0 0,0 0, 800" />
<polyline fill="none" stroke="black" stroke-width="1"  points=" 0 800  800 800  800 0" />
<!-- -->


<!--Draw labels and tics for X axis -->

<line fill="none" stroke="black"  stroke-width="6"  x1="0.5" y1="0" x2="0.5" y2="-20" />
<text transform="scale(1,-1)" font-family="sans-serif" font-size="30" x="-24.5" y="45" >0</text>
<line fill="none" stroke="black"  stroke-width="6"  x1="158.916" y1="0" x2="158.916" y2="-20" />
<text transform="scale(1,-1)" font-family="sans-serif" font-size="30" x="133.916" y="45" >20</text>
<line fill="none" stroke="black"  stroke-width="6"  x1="317.332" y1="0" x2="317.332" y2="-20" />
<text transform="scale(1,-1)" font-family="sans-serif" font-size="30" x="292.332" y="45" >40</text>
<line fill="none" stroke="black"  stroke-width="6"  x1="475.748" y1="0" x2="475.748" y2="-20" />
<text transform="scale(1,-1)" font-family="sans-serif" font-size="30" x="450.748" y="45" >60</text>
<line fill="none" stroke="black"  stroke-width="6"  x1="634.163" y1="0" x2="634.163" y2="-20" />
<text transform="scale(1,-1)" font-family="sans-serif" font-size="30" x="609.163" y="45" >80</text>
<line fill="none" stroke="black"  stroke-width="6"  x1="792.579" y1="0" x2="792.579" y2="-20" />
<text transform="scale(1,-1)" font-family="sans-serif" font-size="30" x="767.579" y="45" >100</text>


<!--Draw labels and tics for Y axis -->

<line fill="none" stroke="black" stroke-width="6" x1="0.0" y1="0" x2="-20" y2="0" />
<text transform="scale(1,-1)" text-anchor="end" font-family="sans-serif" font-size="30" x="-25" y="10" >0</text>
<line fill="none" stroke="black" stroke-width="6" x1="0.0" y1="88.8889" x2="-20" y2="88.8889" />
<text transform="scale(1,-1)" text-anchor="end" font-family="sans-serif" font-size="30" x="-25" y="-78.8889" >2</text>
<line fill="none" stroke="black" stroke-width="6" x1="0.0" y1="177.778" x2="-20" y2="177.778" />
<text transform="scale(1,-1)" text-anchor="end" font-family="sans-serif" font-size="30" x="-25" y="-167.778" >4</text>
<line fill="none" stroke="black" stroke-width="6" x1="0.0" y1="266.667" x2="-20" y2="266.667" />
<text transform="scale(1,-1)" text-anchor="end" font-family="sans-serif" font-size="30" x="-25" y="-256.667" >6</text>
<line fill="none" stroke="black" stroke-width="6" x1="0.0" y1="355.556" x2="-20" y2="355.556" />
<text transform="scale(1,-1)" text-anchor="end" font-family="sans-serif" font-size="30" x="-25" y="-345.556" >8</text>
<line fill="none" stroke="black" stroke-width="6" x1="0.0" y1="444.444" x2="-20" y2="444.444" />
<text transform="scale(1,-1)" text-anchor="end" font-family="sans-serif" font-size="30" x="-25" y="-434.444" >10</text>
<line fill="none" stroke="black" stroke-width="6" x1="0.0" y1="533.333" x2="-20" y2="533.333" />
<text transform="scale(1,-1)" text-anchor="end" font-family="sans-serif" font-size="30" x="-25" y="-523.333" >12</text>
<line fill="none" stroke="black" stroke-width="6" x1="0.0" y1="622.222" x2="-20" y2="622.222" />
<text transform="scale(1,-1)" text-anchor="end" font-family="sans-serif" font-size="30" x="-25" y="-612.222" >14</text>
<line fill="none" stroke="black" stroke-width="6" x1="0.0" y1="711.111" x2="-20" y2="711.111" />
<text transform="scale(1,-1)" text-anchor="end" font-family="sans-serif" font-size="30" x="-25" y="-701.111" >16</text>
<line fill="none" stroke="black" stroke-width="6" x1="0.0" y1="800" x2="-20" y2="800" />
<text transform="scale(1,-1)" text-anchor="end" font-family="sans-serif" font-size="30" x="-25" y="-790" >18</text>

-->
</g>
</g>
<!-- Run Constants
PRINTDISTANCEDATA bool true
GLITCHESONLY bool false
PERTURBBY double 0.05
GLITCHLEVEL double 3
BOUNDARYWINDOW double 0.065
STEPSPERFRAME int 100
TRIALS int 1
ALLBLACK bool true
FILEPREFIX string Fol
NIGGLISELLINGFIRST bool false
ENABLE DistanceEnableString 
DISABLE DistanceDisableString 
GRAPHSIZE int 0
BORDER int 0
PLOTSIZE int 0
AXISWIDTH int 6
TICLENGTH int 20
VECTOR g6 
FOLLOWERMODE FollowerMode line
FIXRANDOMSEED fixRandomSeed false
RANDOMSEED int 21
TIMESTAMP bool true
END end 


-->
</svg>
