<?xml version="1.0" standalone="no"?>
<!-- the width and height set the total pixel output of the image in the browser -->
<!-- whatever is within the viewbox will be remapped to show in this size -->
<svg width="1000" height="1000" viewBox="1 0  1200 1200"  version="1.1" xmlns="http://www.w3.org/2000/svg" xmlns:xlink="http://www.w3.org/1999/xlink">
 <desc>ID (and file name) = Fol_2019-12-16.15_26_13.0_6.svg  mode = Single Point </desc> 
<g transform = "scale(1 1)">

<text x = "-850" y="50" transform="rotate(-90)"  font-family="sans-serif" font-size="40" stroke ="lightgray" fill="none"> PointDistanceFollower   Dec 16 2019</text>
 <text x="200"  y="30"  font-family="sans-serif" font-size="20" >Fol_2019-12-16.15_26_13.0_6.svg  &#160;&#160;&#160;&#160;&#160; Wall time passed: 238 msec.</text>
<text x="300" y="60"   font-family="sans-serif" font-size="20" fill="lightblue">  S6  46 msec </text>
<text x="300" y="85"   font-family="sans-serif" font-size="20" fill="olive">  CS6Dist  1 msec </text>
<text x="300" y="110"   font-family="sans-serif" font-size="20" fill="black">  LM  191 msec </text>



 <!--DISTANCE PLOT BEGINS   mode = Single Point-->


<!-- the following will scale and place the distance plot -->
<g transform="translate(150,975) scale(1 -1)">
   <polyline fill="none" stroke=" lightblue " stroke-width=" 12 " stroke-dasharray = " 10,5 " points=" 7.92079,0 15.8416,15.8393 23.7624,31.6785 31.6832,47.5178 39.604,63.3571 47.5248,79.1963 55.4455,95.0356 63.3663,110.875 71.2871,126.714 79.2079,142.553 87.1287,158.393 95.0495,174.232 102.97,190.071 110.891,205.91 118.812,221.75 126.733,237.589 134.653,253.428 142.574,269.268 150.495,285.107 158.416,300.946 166.337,316.785 174.257,332.625 182.178,348.464 190.099,364.303 198.02,380.142 205.941,395.982 213.861,411.821 221.782,427.66 229.703,443.5 237.624,459.339 245.545,475.178 253.465,491.017 261.386,506.857 269.307,522.696 277.228,538.535 285.149,554.374 293.069,570.214 300.99,586.053 308.911,601.892 316.832,617.731 324.752,633.571 332.673,649.41 340.594,665.249 348.515,681.089 356.436,696.928 364.356,712.767 372.277,728.606 380.198,744.446 388.119,760.285 396.04,769.251 403.96,769.251 411.881,760.285 419.802,744.446 427.723,728.606 435.644,712.767 443.564,696.928 451.485,681.089 459.406,665.249 467.327,649.41 475.248,633.571 483.168,617.731 491.089,601.892 499.01,586.053 506.931,570.214 514.851,554.374 522.772,538.535 530.693,522.696 538.614,506.857 546.535,491.017 554.455,475.178 562.376,459.339 570.297,443.5 578.218,427.66 586.139,411.821 594.059,395.982 601.98,380.142 609.901,364.303 617.822,348.464 625.743,332.625 633.663,316.785 641.584,300.946 649.505,285.107 657.426,269.268 665.347,253.428 673.267,237.589 681.188,221.75 689.109,205.91 697.03,190.071 704.95,174.232 712.871,158.393 720.792,142.553 728.713,126.714 736.634,110.875 744.554,95.0356 752.475,79.1963 760.396,63.3571 768.317,47.5178 776.238,31.6785 784.158,15.8393 792.079,0 " />

   <polyline fill="none" stroke=" olive " stroke-width=" 3 " stroke-dasharray = " 5,10 " points=" 7.92079,0 15.8416,15.8393 23.7624,31.6785 31.6832,47.5178 39.604,63.3571 47.5248,79.1963 55.4455,95.0356 63.3663,110.875 71.2871,126.714 79.2079,142.553 87.1287,158.393 95.0495,174.232 102.97,190.071 110.891,205.91 118.812,221.75 126.733,237.589 134.653,253.428 142.574,269.268 150.495,285.107 158.416,300.946 166.337,316.785 174.257,332.625 182.178,348.464 190.099,364.303 198.02,380.142 205.941,395.982 213.861,411.821 221.782,427.66 229.703,443.5 237.624,459.339 245.545,475.178 253.465,491.017 261.386,506.857 269.307,522.696 277.228,538.535 285.149,554.374 293.069,570.214 300.99,586.053 308.911,601.892 316.832,617.731 324.752,633.571 332.673,649.41 340.594,665.249 348.515,681.089 356.436,696.928 364.356,712.767 372.277,728.606 380.198,744.446 388.119,760.285 396.04,773.612 403.96,773.612 411.881,760.285 419.802,744.446 427.723,728.606 435.644,712.767 443.564,696.928 451.485,681.089 459.406,665.249 467.327,649.41 475.248,633.571 483.168,617.731 491.089,601.892 499.01,586.053 506.931,570.214 514.851,554.374 522.772,538.535 530.693,522.696 538.614,506.857 546.535,491.017 554.455,475.178 562.376,459.339 570.297,443.5 578.218,427.66 586.139,411.821 594.059,395.982 601.98,380.142 609.901,364.303 617.822,348.464 625.743,332.625 633.663,316.785 641.584,300.946 649.505,285.107 657.426,269.268 665.347,253.428 673.267,237.589 681.188,221.75 689.109,205.91 697.03,190.071 704.95,174.232 712.871,158.393 720.792,142.553 728.713,126.714 736.634,110.875 744.554,95.0356 752.475,79.1963 760.396,63.3571 768.317,47.5178 776.238,31.6785 784.158,15.8393 792.079,0 " />

   <polyline fill="none" stroke=" black " stroke-width=" 3 " stroke-dasharray = "  " points=" 7.92079,0 15.8416,15.8393 23.7624,31.6785 31.6832,47.5178 39.604,63.3571 47.5248,79.1963 55.4455,95.0356 63.3663,110.875 71.2871,126.714 79.2079,142.553 87.1287,158.393 95.0495,174.232 102.97,190.071 110.891,205.91 118.812,221.75 126.733,237.589 134.653,253.428 142.574,269.268 150.495,285.107 158.416,300.946 166.337,316.785 174.257,332.625 182.178,348.464 190.099,364.303 198.02,380.142 205.941,395.982 213.861,411.821 221.782,427.66 229.703,443.5 237.624,459.339 245.545,475.178 253.465,491.017 261.386,506.857 269.307,522.696 277.228,538.535 285.149,554.374 293.069,570.214 300.99,586.053 308.911,601.892 316.832,617.731 324.752,633.571 332.673,649.41 340.594,665.249 348.515,681.089 356.436,696.928 364.356,709.475 372.277,716.371 380.198,723.546 388.119,730.993 396.04,738.703 403.96,738.703 411.881,730.993 419.802,723.546 427.723,716.371 435.644,709.475 443.564,696.928 451.485,681.089 459.406,665.249 467.327,649.41 475.248,633.571 483.168,617.731 491.089,601.892 499.01,586.053 506.931,570.214 514.851,554.374 522.772,538.535 530.693,522.696 538.614,506.857 546.535,491.017 554.455,475.178 562.376,459.339 570.297,443.5 578.218,427.66 586.139,411.821 594.059,395.982 601.98,380.142 609.901,364.303 617.822,348.464 625.743,332.625 633.663,316.785 641.584,300.946 649.505,285.107 657.426,269.268 665.347,253.428 673.267,237.589 681.188,221.75 689.109,205.91 697.03,190.071 704.95,174.232 712.871,158.393 720.792,142.553 728.713,126.714 736.634,110.875 744.554,95.0356 752.475,79.1963 760.396,63.3571 768.317,47.5178 776.238,31.6785 784.158,15.8393 792.079,0 " />


<!--Draw the X and Y axes -->
<polyline fill="none" stroke="black" stroke-width="6"  points=" 800,0 0,0 0, 800" />
<polyline fill="none" stroke="black" stroke-width="1"  points=" 0 800  800 800  800 0" />
<!-- -->


<!--Draw labels and tics for X axis -->

<line fill="none" stroke="black"  stroke-width="6"  x1="0.5" y1="0" x2="0.5" y2="-20" />
<text transform="scale(1,-1)" font-family="sans-serif" font-size="30" x="-24.5" y="45" >0</text>
<line fill="none" stroke="black"  stroke-width="6"  x1="158.916" y1="0" x2="158.916" y2="-20" />
<text transform="scale(1,-1)" font-family="sans-serif" font-size="30" x="133.916" y="45" >20</text>
<line fill="none" stroke="black"  stroke-width="6"  x1="317.332" y1="0" x2="317.332" y2="-20" />
<text transform="scale(1,-1)" font-family="sans-serif" font-size="30" x="292.332" y="45" >40</text>
<line fill="none" stroke="black"  stroke-width="6"  x1="475.748" y1="0" x2="475.748" y2="-20" />
<text transform="scale(1,-1)" font-family="sans-serif" font-size="30" x="450.748" y="45" >60</text>
<line fill="none" stroke="black"  stroke-width="6"  x1="634.163" y1="0" x2="634.163" y2="-20" />
<text transform="scale(1,-1)" font-family="sans-serif" font-size="30" x="609.163" y="45" >80</text>
<line fill="none" stroke="black"  stroke-width="6"  x1="792.579" y1="0" x2="792.579" y2="-20" />
<text transform="scale(1,-1)" font-family="sans-serif" font-size="30" x="767.579" y="45" >100</text>


<!--Draw labels and tics for Y axis -->

<line fill="none" stroke="black" stroke-width="6" x1="0.0" y1="0" x2="-20" y2="0" />
<text transform="scale(1,-1)" text-anchor="end" font-family="sans-serif" font-size="30" x="-25" y="10" >0</text>
<line fill="none" stroke="black" stroke-width="6" x1="0.0" y1="133.333" x2="-20" y2="133.333" />
<text transform="scale(1,-1)" text-anchor="end" font-family="sans-serif" font-size="30" x="-25" y="-123.333" >10</text>
<line fill="none" stroke="black" stroke-width="6" x1="0.0" y1="266.667" x2="-20" y2="266.667" />
<text transform="scale(1,-1)" text-anchor="end" font-family="sans-serif" font-size="30" x="-25" y="-256.667" >20</text>
<line fill="none" stroke="black" stroke-width="6" x1="0.0" y1="400" x2="-20" y2="400" />
<text transform="scale(1,-1)" text-anchor="end" font-family="sans-serif" font-size="30" x="-25" y="-390" >30</text>
<line fill="none" stroke="black" stroke-width="6" x1="0.0" y1="533.333" x2="-20" y2="533.333" />
<text transform="scale(1,-1)" text-anchor="end" font-family="sans-serif" font-size="30" x="-25" y="-523.333" >40</text>
<line fill="none" stroke="black" stroke-width="6" x1="0.0" y1="666.667" x2="-20" y2="666.667" />
<text transform="scale(1,-1)" text-anchor="end" font-family="sans-serif" font-size="30" x="-25" y="-656.667" >50</text>
<line fill="none" stroke="black" stroke-width="6" x1="0.0" y1="800" x2="-20" y2="800" />
<text transform="scale(1,-1)" text-anchor="end" font-family="sans-serif" font-size="30" x="-25" y="-790" >60</text>

-->
</g>
</g>
<!-- Run Constants
PRINTDISTANCEDATA bool true
GLITCHESONLY bool false
PERTURBBY double 0.05
GLITCHLEVEL double 3
BOUNDARYWINDOW double 0.065
STEPSPERFRAME int 100
TRIALS int 20
ALLBLACK bool true
FILEPREFIX string Fol
NIGGLISELLINGFIRST bool false
ENABLE DistanceEnableString 
DISABLE DistanceDisableString 
GRAPHSIZE int 0
BORDER int 0
PLOTSIZE int 0
AXISWIDTH int 6
TICLENGTH int 20
VECTOR g6 
FOLLOWERMODE FollowerMode point
FIXRANDOMSEED fixRandomSeed false
RANDOMSEED int 21
TIMESTAMP bool true
END end 


-->
</svg>
