<?xml version="1.0" standalone="no"?>
<!-- the width and height set the total pixel output of the image in the browser -->
<!-- whatever is within the viewbox will be remapped to show in this size -->
<svg width="900" height="900" viewBox="1 0 900 900"  version="1.1" xmlns="http://www.w3.org/2000/svg" xmlns:xlink="http://www.w3.org/1999/xlink">
 <desc>ID (and file name) = Fol_2018-05-27.16_50_17.1_0.svg  mode = LINE3 </desc> 
<text x = "-750" y="50" transform="rotate(-90)"  font-family="sans-serif" font-size="40" stroke ="lightgray" fill="none"> PointDistanceFollower   May 27 2018</text>
 <text x="560" y="30" font-family="sans-serif" font-size="20">Wall time passed: 28535 msec.</text>
<text x="300" y="60"   font-family="sans-serif" font-size="20" fill="lightblue">S6  lightblue</text>
<text x="300" y="85"   font-family="sans-serif" font-size="20" fill="slategrey">NCDist  slategrey</text>
<text x="300" y="110"  font-family="sans-serif" font-size="20" fill="violet">D7  violet</text>
<text x="300" y="135"  font-family="sans-serif" font-size="20" fill="olive">CS6Dist  olive</text>

 <text x="140"  y="30"  font-family="sans-serif" font-size="20" >Fol_2018-05-27.16_50_17.1_0.svg  </text> 


 <!--DISTANCE PLOT BEGINS   mode = LINE3-->


<!-- the following will scale and place the distance plot -->
<g  transform="translate(0, 50) ">
<g transform="translate(150,700) scale(1 -1)">
   <polyline fill="none" stroke=" lightblue " stroke-width=" 12 " points=" 5.94059,156.821 11.8812,151.265 17.8218,145.781 23.7624,140.375 29.703,135.052 35.6436,129.817 41.5842,124.677 47.5248,119.638 53.4653,114.706 59.4059,109.89 65.3465,105.196 71.2871,100.633 77.2277,96.2095 83.1683,91.9351 89.1089,87.8192 95.0495,83.8721 100.99,80.1042 106.931,76.5266 112.871,73.1503 118.812,69.9869 124.752,67.0476 130.693,64.3441 136.634,61.8874 142.574,59.6883 148.515,57.757 154.455,56.1029 160.396,54.7344 166.337,53.6587 172.277,52.8816 178.218,52.4075 184.158,52.239 190.099,52.377 196.04,52.8209 201.98,53.568 207.921,54.6142 213.861,45.1481 219.802,38.7168 225.743,33.431 231.683,29.4219 237.624,26.8026 243.564,25.6541 " />

<line fill="none" stroke-dasharray = "10, 10"  stroke="orange" stroke-width="6" x1="249.505" y1="300" x2="594.059" y2="300" />
   <polyline fill="none" stroke=" slategrey " stroke-width=" 9 " points=" 5.94059,516.06 11.8812,504.297 17.8218,492.697 23.7624,481.268 29.703,470.02 35.6436,458.965 41.5842,448.113 47.5248,437.478 53.4653,427.071 59.4059,416.907 65.3465,406.999 71.2871,397.363 77.2277,388.014 83.1683,378.97 89.1089,370.247 95.0495,361.863 100.99,352.77 106.931,343.97 112.871,335.517 118.812,327.434 124.752,319.74 130.693,312.457 136.634,305.607 142.574,299.211 148.515,293.291 154.455,287.869 160.396,282.964 166.337,278.597 172.277,274.786 178.218,271.548 184.158,268.897 190.099,266.846 196.04,265.404 201.98,264.579 207.921,264.375 213.861,264.793 219.802,265.831 225.743,267.483 231.683,269.742 237.624,265.988 243.564,260.687 " />

<line fill="none" stroke-dasharray = "10, 10"  stroke="orange" stroke-width="6" x1="249.505" y1="300" x2="594.059" y2="300" />
   <polyline fill="none" stroke=" violet " stroke-width=" 6 " points=" 5.94059,567.149 11.8812,557.18 17.8218,547.281 23.7624,537.458 29.703,527.712 35.6436,518.048 41.5842,508.468 47.5248,498.978 53.4653,489.581 59.4059,480.281 65.3465,471.083 71.2871,461.991 77.2277,453.012 83.1683,444.15 89.1089,435.411 95.0495,426.8 100.99,418.325 106.931,409.991 112.871,401.806 118.812,393.777 124.752,385.91 130.693,378.215 136.634,370.699 142.574,363.371 148.515,356.239 154.455,349.313 160.396,342.603 166.337,336.117 172.277,329.866 178.218,323.859 184.158,318.108 190.099,312.623 196.04,307.414 201.98,302.491 207.921,294.391 213.861,278.407 219.802,260.991 225.743,244.504 231.683,229.08 237.624,214.874 243.564,202.046 " />

<line fill="none" stroke-dasharray = "10, 10"  stroke="orange" stroke-width="6" x1="249.505" y1="300" x2="594.059" y2="300" />
   <polyline fill="none" stroke=" olive " stroke-width=" 3 " points=" 5.94059,159.109 11.8812,153.528 17.8218,148.019 23.7624,142.586 29.703,137.236 35.6436,131.973 41.5842,126.803 47.5248,121.733 53.4653,116.77 59.4059,111.921 65.3465,107.193 71.2871,102.595 77.2277,98.1358 83.1683,93.8244 89.1089,89.6705 95.0495,85.6845 100.99,81.877 106.931,78.2591 112.871,74.842 118.812,71.6374 124.752,68.6569 130.693,65.9122 136.634,63.4147 142.574,61.1754 148.515,59.2049 154.455,57.5127 160.396,56.1076 166.337,54.9972 172.277,54.1875 178.218,53.683 184.158,53.4867 190.099,53.5997 196.04,54.0213 201.98,54.7492 207.921,55.7792 213.861,45.746 219.802,39.3189 225.743,34.0442 231.683,30.0543 237.624,27.4632 243.564,26.3518 " />

<line fill="none" stroke-dasharray = "10, 10"  stroke="orange" stroke-width="6" x1="249.505" y1="300" x2="594.059" y2="300" />

<!--Draw Glitches -->


<!-- -->


<!--Draw Glitches -->


<!-- -->


<!--Draw Glitches -->


<!-- -->


<!--Draw Glitches -->


<!-- -->


<!--Draw the X and Y axes -->
<polyline fill="none" stroke="black" stroke-width="6"  points=" 600,0 0,0 0, 600" />
<polyline fill="none" stroke="black" stroke-width="1"  points=" 0 600  600 600  600 0" />
<!-- -->


<!--Draw labels and tics for X axis -->

<line fill="none" stroke="black"  stroke-width="6"  x1="0.5" y1="0" x2="0.5" y2="-20" />
<text transform="scale(1,-1)" font-family="sans-serif" font-size="30" x="-24.5" y="45" >0</text>
<line fill="none" stroke="black"  stroke-width="6"  x1="119.312" y1="0" x2="119.312" y2="-20" />
<text transform="scale(1,-1)" font-family="sans-serif" font-size="30" x="94.3119" y="45" >20</text>
<line fill="none" stroke="black"  stroke-width="6"  x1="238.124" y1="0" x2="238.124" y2="-20" />
<text transform="scale(1,-1)" font-family="sans-serif" font-size="30" x="213.124" y="45" >40</text>
<line fill="none" stroke="black"  stroke-width="6"  x1="356.936" y1="0" x2="356.936" y2="-20" />
<text transform="scale(1,-1)" font-family="sans-serif" font-size="30" x="331.936" y="45" >60</text>
<line fill="none" stroke="black"  stroke-width="6"  x1="475.748" y1="0" x2="475.748" y2="-20" />
<text transform="scale(1,-1)" font-family="sans-serif" font-size="30" x="450.748" y="45" >80</text>
<line fill="none" stroke="black"  stroke-width="6"  x1="594.559" y1="0" x2="594.559" y2="-20" />
<text transform="scale(1,-1)" font-family="sans-serif" font-size="30" x="569.559" y="45" >100</text>


<!--Draw labels and tics for Y axis -->

<line fill="none" stroke="black" stroke-width="6" x1="0.0" y1="0" x2="-20" y2="0" />
<text transform="scale(1,-1)" text-anchor="end" font-family="sans-serif" font-size="30" x="-25" y="10" >10</text>
<line fill="none" stroke="black" stroke-width="6" x1="0.0" y1="54.5455" x2="-20" y2="54.5455" />
<text transform="scale(1,-1)" text-anchor="end" font-family="sans-serif" font-size="30" x="-25" y="-44.5455" >15</text>
<line fill="none" stroke="black" stroke-width="6" x1="0.0" y1="109.091" x2="-20" y2="109.091" />
<text transform="scale(1,-1)" text-anchor="end" font-family="sans-serif" font-size="30" x="-25" y="-99.0909" >20</text>
<line fill="none" stroke="black" stroke-width="6" x1="0.0" y1="163.636" x2="-20" y2="163.636" />
<text transform="scale(1,-1)" text-anchor="end" font-family="sans-serif" font-size="30" x="-25" y="-153.636" >25</text>
<line fill="none" stroke="black" stroke-width="6" x1="0.0" y1="218.182" x2="-20" y2="218.182" />
<text transform="scale(1,-1)" text-anchor="end" font-family="sans-serif" font-size="30" x="-25" y="-208.182" >30</text>
<line fill="none" stroke="black" stroke-width="6" x1="0.0" y1="272.727" x2="-20" y2="272.727" />
<text transform="scale(1,-1)" text-anchor="end" font-family="sans-serif" font-size="30" x="-25" y="-262.727" >35</text>
<line fill="none" stroke="black" stroke-width="6" x1="0.0" y1="327.273" x2="-20" y2="327.273" />
<text transform="scale(1,-1)" text-anchor="end" font-family="sans-serif" font-size="30" x="-25" y="-317.273" >40</text>
<line fill="none" stroke="black" stroke-width="6" x1="0.0" y1="381.818" x2="-20" y2="381.818" />
<text transform="scale(1,-1)" text-anchor="end" font-family="sans-serif" font-size="30" x="-25" y="-371.818" >45</text>
<line fill="none" stroke="black" stroke-width="6" x1="0.0" y1="436.364" x2="-20" y2="436.364" />
<text transform="scale(1,-1)" text-anchor="end" font-family="sans-serif" font-size="30" x="-25" y="-426.364" >50</text>
<line fill="none" stroke="black" stroke-width="6" x1="0.0" y1="490.909" x2="-20" y2="490.909" />
<text transform="scale(1,-1)" text-anchor="end" font-family="sans-serif" font-size="30" x="-25" y="-480.909" >55</text>
<line fill="none" stroke="black" stroke-width="6" x1="0.0" y1="545.455" x2="-20" y2="545.455" />
<text transform="scale(1,-1)" text-anchor="end" font-family="sans-serif" font-size="30" x="-25" y="-535.455" >60</text>
<line fill="none" stroke="black" stroke-width="6" x1="0.0" y1="600" x2="-20" y2="600" />
<text transform="scale(1,-1)" text-anchor="end" font-family="sans-serif" font-size="30" x="-25" y="-590" >65</text>

-->
</g>
</g>
<!-- Run Constants
PRINTDISTANCEDATA bool true
GLITCHESONLY bool false
PLOT 2doubles 3 4
PERTURBBY double 0.05
GLITCHLEVEL double 3
BOUNDARYWINDOW double 0.065
FRAMESPERPATH int 200
STEPSPERFRAME int 100
TRIALS int 3
ALLBLACK bool true
FILEPREFIX string Fol
GRAPHSIZE int 0
BORDER int 0
PLOTSIZE int 0
G6LINEWIDTH int 3
DELONELINEWIDTH int 10
AXISWIDTH int 6
TICLENGTH int 20
VECTOR g6 
FOLLOWERMODE FollowerMode line
FIXRANDOMSEED fixRandomSeed false
RANDOMSEED int 19191
TIMESTAMP bool true
END end 




-->
</svg>
