<?xml version="1.0" standalone="no"?>
<!-- the width and height set the total pixel output of the image in the browser -->
<!-- whatever is within the viewbox will be remapped to show in this size -->
<svg width="1000" height="1000" viewBox="1 0 1000 1000"  version="1.1" xmlns="http://www.w3.org/2000/svg" xmlns:xlink="http://www.w3.org/1999/xlink">
 <desc>ID (and file name) = Fol_2018-05-06.16_57_17.2_17.svg </desc> 
 <text x="700" y="30" font-family="sans-serif" font-size="20">Wall time passed: 609850 msec.</text>
<text x="300" y="60"   font-family="sans-serif" font-size="20" fill="lightblue">S6  lightblue</text>
<text x="300" y="85"   font-family="sans-serif" font-size="20" fill="slategrey">NCDist  slategrey</text>
<text x="300" y="110"  font-family="sans-serif" font-size="20" fill="violet">D7  violet</text>
<text x="300" y="135"  font-family="sans-serif" font-size="20" fill="olive">CS6Dist  olive</text>



 <!--DISTANCE PLOT BEGINS-->


<!-- the following will scale and place the distance plot -->
<g  transform="translate(0,50) ">
<g transform="translate(150,700) scale(1 -1)">
   <polyline fill="none" stroke=" lightblue " stroke-width=" 12 " points=" 5.2,0 10.4,28.0897 15.6,56.1795 20.8,84.2692 26,112.359 31.2,140.449 36.4,156.345 41.6,173.475 46.8,193.188 52,198.383 57.2,194.561 62.4,191.754 67.6,190.007 72.8,189.349 78,189.791 83.2,191.325 88.4,193.927 93.6,195.91 98.8,197.931 104,200.972 109.2,204.988 114.4,209.923 119.6,215.714 124.8,222.295 130,229.596 135.2,232.2 140.4,228.479 145.6,223.682 150.8,219.133 156,214.85 161.2,210.848 166.4,207.143 171.6,203.753 176.8,200.692 182,197.92 187.2,195.404 192.4,193.258 197.6,191.493 202.8,190.121 208,189.149 213.2,188.584 218.4,188.429 223.6,188.686 228.8,189.354 234,190.426 239.2,191.898 244.4,193.759 249.6,195.999 254.8,198.605 260,201.562 265.2,204.855 270.4,204.917 275.6,201.279 280.8,197.966 286,194.995 291.2,192.382 296.4,190.141 301.6,188.286 306.8,186.829 312,185.778 317.2,185.141 322.4,184.922 327.6,185.122 332.8,185.741 338,186.773 343.2,188.212 348.4,190.05 353.6,192.273 358.8,194.87 364,197.825 369.2,201.123 374.4,204.747 379.6,208.681 384.8,212.906 390,217.406 395.2,211.418 400.4,202.609 405.6,193.8 410.8,184.991 416,176.182 421.2,167.373 426.4,158.564 431.6,149.755 436.8,140.946 442,132.136 447.2,123.327 452.4,114.518 457.6,105.709 462.8,96.9 468,88.0909 473.2,79.2819 478.4,70.4728 483.6,61.6637 488.8,52.8546 494,44.0455 499.2,35.2364 504.4,26.4273 509.6,17.6182 514.8,8.80909 520,0 " />
   <polyline fill="none" stroke=" slategrey " stroke-width=" 9 " points=" 5.2,0 10.4,20.9484 15.6,41.8967 20.8,62.8451 26,83.7934 31.2,104.742 36.4,125.69 41.6,146.639 46.8,167.587 52,166.871 57.2,162.667 62.4,160.89 67.6,161.488 72.8,164.769 78,170.579 83.2,178.669 88.4,188.749 93.6,200.518 98.8,213.696 104,228.041 109.2,243.345 114.4,259.439 119.6,276.184 124.8,293.47 130,311.207 135.2,317.091 140.4,315.909 145.6,316.114 150.8,317.703 156,320.655 161.2,324.934 166.4,330.488 171.6,337.253 176.8,345.16 182,354.13 187.2,364.087 192.4,374.95 197.6,386.644 202.8,399.096 208,412.236 213.2,426.002 218.4,440.335 223.6,447.553 228.8,447.273 234,441.761 239.2,432.77 244.4,424.021 249.6,415.528 254.8,407.307 260,399.374 265.2,391.748 270.4,384.446 275.6,377.488 280.8,370.892 286,364.679 291.2,358.869 296.4,353.48 301.6,348.533 306.8,344.047 312,340.039 317.2,336.528 322.4,333.529 327.6,331.055 332.8,329.119 338,327.73 343.2,326.895 348.4,326.618 353.6,326.901 358.8,327.742 364,329.137 369.2,331.079 374.4,333.558 379.6,336.563 384.8,340.08 390,344.092 395.2,348.584 400.4,353.536 405.6,346.04 410.8,330.311 416,314.582 421.2,298.853 426.4,283.124 431.6,267.395 436.8,251.665 442,235.936 447.2,220.207 452.4,204.478 457.6,188.749 462.8,173.02 468,157.291 473.2,141.562 478.4,125.833 483.6,110.104 488.8,94.3745 494,78.6455 499.2,62.9164 504.4,47.1873 509.6,31.4582 514.8,15.7291 520,1.57548e-13 " />
   <polyline fill="none" stroke=" violet " stroke-width=" 6 " points=" 5.2,0 10.4,47.768 15.6,95.536 20.8,143.304 26,191.072 31.2,238.84 36.4,286.608 41.6,334.376 46.8,378 52,379.592 57.2,378.619 62.4,378.986 67.6,380.689 72.8,383.71 78,388.019 83.2,393.573 88.4,400.32 93.6,408.202 98.8,417.153 104,427.108 109.2,437.996 114.4,449.751 119.6,462.307 124.8,475.599 130,489.569 135.2,498.345 140.4,496.578 145.6,488.754 150.8,481.177 156,473.861 161.2,466.816 166.4,460.056 171.6,453.594 176.8,447.441 182,441.544 187.2,435.907 192.4,430.615 197.6,425.682 202.8,421.12 208,416.94 213.2,413.155 218.4,409.776 223.6,406.812 228.8,404.273 234,402.168 239.2,400.502 244.4,399.281 249.6,398.51 254.8,398.191 260,398.325 265.2,398.912 270.4,392.959 275.6,386.299 280.8,380.001 286,374.085 291.2,368.571 296.4,363.48 301.6,358.833 306.8,354.647 312,350.943 317.2,347.737 322.4,345.045 327.6,342.882 332.8,341.258 338,340.184 343.2,339.665 348.4,339.707 353.6,340.308 358.8,341.468 364,343.179 369.2,339.821 374.4,337.026 379.6,336.789 384.8,338.552 390,335.964 395.2,322.525 400.4,309.086 405.6,295.648 410.8,282.209 416,268.771 421.2,255.332 426.4,241.894 431.6,228.455 436.8,215.017 442,201.578 447.2,188.14 452.4,174.701 457.6,161.263 462.8,147.824 468,134.385 473.2,120.947 478.4,107.508 483.6,94.0698 488.8,80.6313 494,67.1927 499.2,53.7542 504.4,40.3156 509.6,26.8771 514.8,13.4385 520,3.60662e-05 " />
   <polyline fill="none" stroke=" olive " stroke-width=" 3 " points=" 5.2,1.27513e-05 10.4,28.0897 15.6,56.1795 20.8,84.2692 26,112.359 31.2,140.449 36.4,168.538 41.6,196.628 46.8,224.718 52,216.893 57.2,211.019 62.4,205.993 67.6,201.877 72.8,198.728 78,196.592 83.2,195.504 88.4,195.479 93.6,196.519 98.8,198.607 104,201.711 109.2,205.784 114.4,210.77 119.6,216.606 124.8,223.226 130,230.561 135.2,388.964 140.4,240.905 145.6,236.782 150.8,232.92 156,229.332 161.2,226.03 166.4,223.027 171.6,220.336 176.8,217.967 182,215.933 187.2,214.241 192.4,212.901 197.6,211.919 202.8,211.3 208,211.047 213.2,211.161 218.4,211.643 223.6,212.489 228.8,213.695 234,215.255 239.2,217.161 244.4,219.405 249.6,221.976 254.8,224.863 260,228.054 265.2,231.536 270.4,235.297 275.6,239.322 280.8,243.601 286,248.118 291.2,252.861 296.4,257.818 301.6,262.977 306.8,268.327 312,273.855 317.2,279.551 322.4,285.405 327.6,291.409 332.8,297.552 338,303.826 343.2,299.509 348.4,290.7 353.6,281.891 358.8,273.082 364,264.273 369.2,255.464 374.4,246.655 379.6,237.846 384.8,229.036 390,220.227 395.2,211.418 400.4,202.609 405.6,193.8 410.8,184.991 416,176.182 421.2,167.373 426.4,158.564 431.6,149.755 436.8,140.946 442,132.136 447.2,123.327 452.4,114.518 457.6,105.709 462.8,96.9 468,88.0909 473.2,79.2819 478.4,70.4728 483.6,61.6637 488.8,52.8546 494,44.0455 499.2,35.2364 504.4,26.4273 509.6,17.6182 514.8,8.80909 520,1.27513e-05 " />

<!--Draw the X and Y axes -->
<polyline fill="none" stroke="black" stroke-width="6"  points=" 600,0 0,0 0,520" />
<!-- -->


<!--Draw labels and tics for X axis -->

<line fill="none" stroke="black"  stroke-width="6"  x1="0.5" y1="0" x2="0.5" y2="-20" />
<text transform="scale(1,-1)" font-family="sans-serif" font-size="30" x="-24.5" y="45" >0</text>
<line fill="none" stroke="black"  stroke-width="6"  x1="104.5" y1="0" x2="104.5" y2="-20" />
<text transform="scale(1,-1)" font-family="sans-serif" font-size="30" x="79.5" y="45" >20</text>
<line fill="none" stroke="black"  stroke-width="6"  x1="208.5" y1="0" x2="208.5" y2="-20" />
<text transform="scale(1,-1)" font-family="sans-serif" font-size="30" x="183.5" y="45" >40</text>
<line fill="none" stroke="black"  stroke-width="6"  x1="312.5" y1="0" x2="312.5" y2="-20" />
<text transform="scale(1,-1)" font-family="sans-serif" font-size="30" x="287.5" y="45" >60</text>
<line fill="none" stroke="black"  stroke-width="6"  x1="416.5" y1="0" x2="416.5" y2="-20" />
<text transform="scale(1,-1)" font-family="sans-serif" font-size="30" x="391.5" y="45" >80</text>
<line fill="none" stroke="black"  stroke-width="6"  x1="520.5" y1="0" x2="520.5" y2="-20" />
<text transform="scale(1,-1)" font-family="sans-serif" font-size="30" x="495.5" y="45" >100</text>


<!--Draw labels and tics for Y axis -->

<line fill="none" stroke="black" stroke-width="6" x1="0.0" y1="0" x2="-20" y2="0" />
<text transform="scale(1,-1)" text-anchor="end" font-family="sans-serif" font-size="30" x="-25" y="10" >0</text>
<line fill="none" stroke="black" stroke-width="6" x1="0.0" y1="47.2727" x2="-20" y2="47.2727" />
<text transform="scale(1,-1)" text-anchor="end" font-family="sans-serif" font-size="30" x="-25" y="-37.2727" >5</text>
<line fill="none" stroke="black" stroke-width="6" x1="0.0" y1="94.5455" x2="-20" y2="94.5455" />
<text transform="scale(1,-1)" text-anchor="end" font-family="sans-serif" font-size="30" x="-25" y="-84.5455" >10</text>
<line fill="none" stroke="black" stroke-width="6" x1="0.0" y1="141.818" x2="-20" y2="141.818" />
<text transform="scale(1,-1)" text-anchor="end" font-family="sans-serif" font-size="30" x="-25" y="-131.818" >15</text>
<line fill="none" stroke="black" stroke-width="6" x1="0.0" y1="189.091" x2="-20" y2="189.091" />
<text transform="scale(1,-1)" text-anchor="end" font-family="sans-serif" font-size="30" x="-25" y="-179.091" >20</text>
<line fill="none" stroke="black" stroke-width="6" x1="0.0" y1="236.364" x2="-20" y2="236.364" />
<text transform="scale(1,-1)" text-anchor="end" font-family="sans-serif" font-size="30" x="-25" y="-226.364" >25</text>
<line fill="none" stroke="black" stroke-width="6" x1="0.0" y1="283.636" x2="-20" y2="283.636" />
<text transform="scale(1,-1)" text-anchor="end" font-family="sans-serif" font-size="30" x="-25" y="-273.636" >30</text>
<line fill="none" stroke="black" stroke-width="6" x1="0.0" y1="330.909" x2="-20" y2="330.909" />
<text transform="scale(1,-1)" text-anchor="end" font-family="sans-serif" font-size="30" x="-25" y="-320.909" >35</text>
<line fill="none" stroke="black" stroke-width="6" x1="0.0" y1="378.182" x2="-20" y2="378.182" />
<text transform="scale(1,-1)" text-anchor="end" font-family="sans-serif" font-size="30" x="-25" y="-368.182" >40</text>
<line fill="none" stroke="black" stroke-width="6" x1="0.0" y1="425.455" x2="-20" y2="425.455" />
<text transform="scale(1,-1)" text-anchor="end" font-family="sans-serif" font-size="30" x="-25" y="-415.455" >45</text>
<line fill="none" stroke="black" stroke-width="6" x1="0.0" y1="472.727" x2="-20" y2="472.727" />
<text transform="scale(1,-1)" text-anchor="end" font-family="sans-serif" font-size="30" x="-25" y="-462.727" >50</text>
<line fill="none" stroke="black" stroke-width="6" x1="0.0" y1="520" x2="-20" y2="520" />
<text transform="scale(1,-1)" text-anchor="end" font-family="sans-serif" font-size="30" x="-25" y="-510" >55</text>

-->
</g>
</g>
<!-- Run Constants
CIRCLEPLOT bool false
DISTANCEPLOT bool true
PRINTDISTANCEDATA bool true
GLITCHESONLY bool false
PLOT 2doubles 3 4
PERTURBBY double 0.05
GLITCHLEVEL double 3
BOUNDARYWINDOW double 0.065
FRAMESPERPATH int 200
STEPSPERFRAME int 100
TRIALS int 10
ALLBLACK bool true
FILEPREFIX string Fol
GRAPHSIZE int 0
BORDER int 0
PLOTSIZE int 0
CIRCLEPLOTSIZE int 2000
CIRCLERADIUS int 300
CIRCLESTROKEWIDTH int 30
G6LINEWIDTH int 3
DELONELINEWIDTH int 10
AXISWIDTH int 6
TICLENGTH int 20
VECTOR g6 
MOVIEMODE MovieMode STAR
FOLLOWERMODE FollowerMode Follow
FIXRANDOMSEED fixRandomSeed false
RANDOMSEED int 19191
TIMESTAMP bool true
END end 




-->
</svg>
