<?xml version="1.0" standalone="no"?>
<!-- the width and height set the total pixel output of the image in the browser -->
<!-- whatever is within the viewbox will be remapped to show in this size -->
<svg width="1000" height="1000" viewBox="1 0 1000 1000"  version="1.1" xmlns="http://www.w3.org/2000/svg" xmlns:xlink="http://www.w3.org/1999/xlink">
 <desc>ID (and file name) = Fol_2018-05-05.12_01_32.19_18.svg </desc> 
 <text x="700" y="30" font-family="sans-serif" font-size="20">Wall time passed: 0 msec.</text>
<text x="300" y="60"   font-family="sans-serif" font-size="20" fill="lightblue">S6  lightblue</text>
<text x="300" y="85"   font-family="sans-serif" font-size="20" fill="slategrey">NCDist  slategrey</text>
<text x="300" y="110"  font-family="sans-serif" font-size="20" fill="violet">D7  violet</text>
<text x="300" y="135"  font-family="sans-serif" font-size="20" fill="olive">CS6Dist  olive</text>



 <!--DISTANCE PLOT BEGINS-->


<!-- the following will scale and place the distance plot -->
<g  transform="translate(0,50) ">
<g transform="translate(150,700) scale(1 -1)">
   <polyline fill="none" stroke=" lightblue " stroke-width=" 12 " points=" 5.2,0 10.4,47.5974 15.6,82.7603 20.8,109.224 26,117.848 31.2,126.32 36.4,136.808 41.6,148.523 46.8,161.858 52,166.568 57.2,171.444 62.4,176.575 67.6,182.105 72.8,187.889 78,193.017 83.2,195.239 88.4,197.943 93.6,201.109 98.8,204.715 104,208.739 109.2,213.157 114.4,217.945 119.6,222.977 124.8,221.181 130,219.523 135.2,218.005 140.4,216.631 145.6,215.403 150.8,214.324 156,213.396 161.2,212.618 166.4,211.945 171.6,211.427 176.8,211.067 182,210.865 187.2,210.821 192.4,210.935 197.6,211.084 202.8,211.326 208,211.726 213.2,212.282 218.4,212.994 223.6,213.859 228.8,214.876 234,216.044 239.2,217.358 244.4,218.817 249.6,220.419 254.8,222.159 260,224.034 265.2,226.042 270.4,228.179 275.6,230.441 280.8,232.824 286,235.325 291.2,237.94 296.4,235.207 301.6,229.489 306.8,223.775 312,218.064 317.2,212.357 322.4,206.653 327.6,200.954 332.8,195.26 338,189.571 343.2,183.887 348.4,178.21 353.6,172.539 358.8,166.875 364,161.22 369.2,155.574 374.4,149.938 379.6,144.313 384.8,138.701 390,133.103 395.2,127.522 400.4,121.958 405.6,116.416 410.8,110.898 416,105.408 421.2,99.9499 426.4,94.5302 431.6,89.1557 436.8,83.835 442,78.579 447.2,73.4016 452.4,68.3208 457.6,63.3596 462.8,58.5486 468,53.928 473.2,49.5509 478.4,44.4904 483.6,38.941 488.8,33.4692 494,28.1205 499.2,22.981 504.4,17.3361 509.6,11.5574 514.8,5.7787 520,0 " />
   <polyline fill="none" stroke=" slategrey " stroke-width=" 9 " points=" 5.2,0 10.4,79.1625 15.6,89.8801 20.8,113.291 26,141.979 31.2,169.455 36.4,180.622 41.6,192.4 46.8,203.499 52,215.945 57.2,229.614 62.4,244.257 67.6,259.099 72.8,272.793 78,272.333 83.2,271.36 88.4,270.707 93.6,270.377 98.8,270.37 104,270.688 109.2,271.328 114.4,272.288 119.6,273.617 124.8,275.208 130,277.105 135.2,279.304 140.4,281.796 145.6,284.575 150.8,287.631 156,290.957 161.2,294.543 166.4,298.379 171.6,301.697 176.8,302.021 182,302.593 187.2,303.562 192.4,305.093 197.6,306.486 202.8,305.035 208,303.946 213.2,303.221 218.4,302.865 223.6,302.878 228.8,303.417 234,304.779 239.2,306.262 244.4,307.868 249.6,309.599 254.8,309.085 260,308.421 265.2,307.665 270.4,306.751 275.6,305.981 280.8,301.541 286,297.447 291.2,297.252 296.4,297.208 301.6,297.317 306.8,297.577 312,296.792 317.2,290.303 322.4,283.824 327.6,277.357 332.8,270.903 338,264.461 343.2,258.034 348.4,251.622 353.6,245.227 358.8,238.849 364,232.491 369.2,226.154 374.4,219.84 379.6,213.55 384.8,207.288 390,201.055 395.2,194.855 400.4,188.69 405.6,182.565 410.8,176.482 416,170.448 421.2,164.467 426.4,158.546 431.6,152.69 436.8,146.343 442,139.007 447.2,131.747 452.4,124.574 457.6,118.195 462.8,111.95 468,104.174 473.2,96.5004 478.4,87.5314 483.6,76.7178 488.8,66.042 494,55.5834 499.2,44.9037 504.4,33.6778 509.6,22.4519 514.8,11.2259 520,5.33042e-12 " />
   <polyline fill="none" stroke=" violet " stroke-width=" 6 " points=" 5.2,1.10202e-05 10.4,137.182 15.6,225.941 20.8,285.021 26,307.556 31.2,327.657 36.4,349.42 41.6,372.335 46.8,396.604 52,406.344 57.2,415.415 62.4,424.751 67.6,434.184 72.8,443.952 78,451.687 83.2,454.508 88.4,457.749 93.6,461.403 98.8,465.382 104,469.505 109.2,474.062 114.4,479.032 119.6,483.649 124.8,478.347 130,473.174 135.2,468.134 140.4,463.233 145.6,458.475 150.8,453.863 156,449.404 161.2,445.1 166.4,440.957 171.6,436.98 176.8,433.173 182,429.54 187.2,426.086 192.4,422.815 197.6,419.609 202.8,416.526 208,413.636 213.2,410.944 218.4,408.453 223.6,406.167 228.8,404.089 234,402.223 239.2,400.571 244.4,399.137 249.6,397.922 254.8,396.929 260,396.158 265.2,395.612 270.4,395.292 275.6,395.198 280.8,395.33 286,395.687 291.2,396.271 296.4,391.02 301.6,381.646 306.8,372.277 312,362.912 317.2,353.551 322.4,344.196 327.6,334.847 332.8,325.504 338,316.168 343.2,306.839 348.4,297.517 353.6,288.205 358.8,278.902 364,269.61 369.2,260.329 374.4,251.061 379.6,241.808 384.8,232.572 390,223.353 395.2,214.155 400.4,204.981 405.6,195.833 410.8,186.716 416,177.634 421.2,168.594 426.4,159.601 431.6,150.665 436.8,141.796 442,133.008 447.2,124.318 452.4,115.749 457.6,107.328 462.8,99.0941 468,91.0981 473.2,82.776 478.4,73.5359 483.6,64.3585 488.8,55.2751 494,46.3411 499.2,37.6632 504.4,28.3668 509.6,18.9112 514.8,9.4556 520,0 " />
   <polyline fill="none" stroke=" olive " stroke-width=" 3 " points=" 5.2,5.51012e-06 10.4,47.8562 15.6,85.3295 20.8,112.406 26,119.628 31.2,126.956 36.4,136.827 41.6,148.733 46.8,162.228 52,167.767 57.2,172.679 62.4,178.013 67.6,183.731 72.8,189.8 78,194.901 83.2,197.177 88.4,199.928 93.6,203.135 98.8,206.777 104,210.832 109.2,215.275 114.4,220.083 119.6,223.376 124.8,221.582 130,219.926 135.2,218.41 140.4,217.037 145.6,215.811 150.8,214.733 156,213.805 161.2,213.031 166.4,212.411 171.6,211.946 176.8,211.639 182,211.489 187.2,211.497 192.4,211.663 197.6,211.986 202.8,212.466 208,213.101 213.2,213.891 218.4,214.834 223.6,215.927 228.8,217.168 234,218.555 239.2,220.086 244.4,221.756 249.6,223.563 254.8,225.504 260,227.575 265.2,229.773 270.4,232.094 275.6,234.534 280.8,235.247 286,233.785 291.2,232.458 296.4,231.267 301.6,230.215 306.8,227.769 312,222.067 317.2,216.37 322.4,210.676 327.6,204.987 332.8,199.304 338,193.626 343.2,187.954 348.4,182.289 353.6,176.632 358.8,170.982 364,165.342 369.2,159.711 374.4,154.091 379.6,148.484 384.8,142.89 390,137.311 395.2,131.75 400.4,126.208 405.6,120.688 410.8,115.194 416,109.729 421.2,104.298 426.4,98.9059 431.6,93.5604 436.8,88.2694 442,83.0435 447.2,77.8957 452.4,72.8426 457.6,67.9054 462.8,63.1111 468,57.787 473.2,52.0083 478.4,46.2296 483.6,40.4509 488.8,34.6722 494,28.8935 499.2,23.1148 504.4,17.3361 509.6,11.5574 514.8,5.7787 520,5.51012e-06 " />

<!--Draw the X and Y axes -->
<polyline fill="none" stroke="black" stroke-width="6"  points=" 600,0 0,0 0,520" />
<!-- -->


<!--Draw labels and tics for X axis -->

<line fill="none" stroke="black"  stroke-width="6"  x1="0.5" y1="0" x2="0.5" y2="-20" />
<text transform="scale(1,-1)" font-family="sans-serif" font-size="30" x="-24.5" y="45" >0</text>
<line fill="none" stroke="black"  stroke-width="6"  x1="104.5" y1="0" x2="104.5" y2="-20" />
<text transform="scale(1,-1)" font-family="sans-serif" font-size="30" x="79.5" y="45" >20</text>
<line fill="none" stroke="black"  stroke-width="6"  x1="208.5" y1="0" x2="208.5" y2="-20" />
<text transform="scale(1,-1)" font-family="sans-serif" font-size="30" x="183.5" y="45" >40</text>
<line fill="none" stroke="black"  stroke-width="6"  x1="312.5" y1="0" x2="312.5" y2="-20" />
<text transform="scale(1,-1)" font-family="sans-serif" font-size="30" x="287.5" y="45" >60</text>
<line fill="none" stroke="black"  stroke-width="6"  x1="416.5" y1="0" x2="416.5" y2="-20" />
<text transform="scale(1,-1)" font-family="sans-serif" font-size="30" x="391.5" y="45" >80</text>
<line fill="none" stroke="black"  stroke-width="6"  x1="520.5" y1="0" x2="520.5" y2="-20" />
<text transform="scale(1,-1)" font-family="sans-serif" font-size="30" x="495.5" y="45" >100</text>


<!--Draw labels and tics for Y axis -->

<line fill="none" stroke="black" stroke-width="6" x1="0.0" y1="0" x2="-20" y2="0" />
<text transform="scale(1,-1)" text-anchor="end" font-family="sans-serif" font-size="30" x="-25" y="10" >0</text>
<line fill="none" stroke="black" stroke-width="6" x1="0.0" y1="57.7778" x2="-20" y2="57.7778" />
<text transform="scale(1,-1)" text-anchor="end" font-family="sans-serif" font-size="30" x="-25" y="-47.7778" >5</text>
<line fill="none" stroke="black" stroke-width="6" x1="0.0" y1="115.556" x2="-20" y2="115.556" />
<text transform="scale(1,-1)" text-anchor="end" font-family="sans-serif" font-size="30" x="-25" y="-105.556" >10</text>
<line fill="none" stroke="black" stroke-width="6" x1="0.0" y1="173.333" x2="-20" y2="173.333" />
<text transform="scale(1,-1)" text-anchor="end" font-family="sans-serif" font-size="30" x="-25" y="-163.333" >15</text>
<line fill="none" stroke="black" stroke-width="6" x1="0.0" y1="231.111" x2="-20" y2="231.111" />
<text transform="scale(1,-1)" text-anchor="end" font-family="sans-serif" font-size="30" x="-25" y="-221.111" >20</text>
<line fill="none" stroke="black" stroke-width="6" x1="0.0" y1="288.889" x2="-20" y2="288.889" />
<text transform="scale(1,-1)" text-anchor="end" font-family="sans-serif" font-size="30" x="-25" y="-278.889" >25</text>
<line fill="none" stroke="black" stroke-width="6" x1="0.0" y1="346.667" x2="-20" y2="346.667" />
<text transform="scale(1,-1)" text-anchor="end" font-family="sans-serif" font-size="30" x="-25" y="-336.667" >30</text>
<line fill="none" stroke="black" stroke-width="6" x1="0.0" y1="404.444" x2="-20" y2="404.444" />
<text transform="scale(1,-1)" text-anchor="end" font-family="sans-serif" font-size="30" x="-25" y="-394.444" >35</text>
<line fill="none" stroke="black" stroke-width="6" x1="0.0" y1="462.222" x2="-20" y2="462.222" />
<text transform="scale(1,-1)" text-anchor="end" font-family="sans-serif" font-size="30" x="-25" y="-452.222" >40</text>
<line fill="none" stroke="black" stroke-width="6" x1="0.0" y1="520" x2="-20" y2="520" />
<text transform="scale(1,-1)" text-anchor="end" font-family="sans-serif" font-size="30" x="-25" y="-510" >45</text>

-->
</g>
</g>
<!-- Run Constants
CIRCLEPLOT bool false
DISTANCEPLOT bool true
PRINTDISTANCEDATA bool true
GLITCHESONLY bool false
PLOT 2doubles 3 4
PERTURBBY double 0.05
GLITCHLEVEL double 3
BOUNDARYWINDOW double 0.065
FRAMESPERPATH int 200
STEPSPERFRAME int 100
TRIALS int 1
ALLBLACK bool true
FILEPREFIX string Fol
GRAPHSIZE int 0
BORDER int 0
PLOTSIZE int 0
CIRCLEPLOTSIZE int 2000
CIRCLERADIUS int 300
CIRCLESTROKEWIDTH int 30
G6LINEWIDTH int 3
DELONELINEWIDTH int 10
AXISWIDTH int 6
TICLENGTH int 20
VECTOR g6 
MOVIEMODE MovieMode STAR
FOLLOWERMODE FollowerMode Follow
FIXRANDOMSEED fixRandomSeed false
RANDOMSEED int 19191
TIMESTAMP bool true
END end 




-->
</svg>
