<?xml version="1.0" standalone="no"?>
<!-- the width and height set the total pixel output of the image in the browser -->
<!-- whatever is within the viewbox will be remapped to show in this size -->
<svg width="1000" height="1000" viewBox="1 0  1200 1200"  version="1.1" xmlns="http://www.w3.org/2000/svg" xmlns:xlink="http://www.w3.org/1999/xlink">
 <desc>ID (and file name) = Fol_2019-12-16.15_26_15.0_13.svg  mode = Single Point </desc> 
<g transform = "scale(1 1)">

<text x = "-850" y="50" transform="rotate(-90)"  font-family="sans-serif" font-size="40" stroke ="lightgray" fill="none"> PointDistanceFollower   Dec 16 2019</text>
 <text x="200"  y="30"  font-family="sans-serif" font-size="20" >Fol_2019-12-16.15_26_15.0_13.svg  &#160;&#160;&#160;&#160;&#160; Wall time passed: 159 msec.</text>
<text x="300" y="60"   font-family="sans-serif" font-size="20" fill="lightblue">  S6  40 msec </text>
<text x="300" y="85"   font-family="sans-serif" font-size="20" fill="olive">  CS6Dist  0 msec </text>
<text x="300" y="110"   font-family="sans-serif" font-size="20" fill="black">  LM  118 msec </text>



 <!--DISTANCE PLOT BEGINS   mode = Single Point-->


<!-- the following will scale and place the distance plot -->
<g transform="translate(150,975) scale(1 -1)">
   <polyline fill="none" stroke=" lightblue " stroke-width=" 12 " stroke-dasharray = " 10,5 " points=" 7.92079,0 15.8416,15.9696 23.7624,31.9393 31.6832,47.9089 39.604,63.8785 47.5248,79.8482 55.4455,95.8178 63.3663,111.787 71.2871,127.757 79.2079,143.727 87.1287,159.696 95.0495,175.666 102.97,191.636 110.891,207.605 118.812,223.575 126.733,239.545 134.653,255.514 142.574,271.484 150.495,287.453 158.416,303.423 166.337,319.393 174.257,335.362 182.178,351.332 190.099,367.302 198.02,383.271 205.941,399.241 213.861,415.211 221.782,431.18 229.703,447.15 237.624,463.119 245.545,479.089 253.465,495.059 261.386,511.028 269.307,526.998 277.228,542.968 285.149,558.937 293.069,574.907 300.99,590.877 308.911,606.846 316.832,622.816 324.752,638.785 332.673,654.755 340.594,670.725 348.515,686.694 356.436,702.664 364.356,718.634 372.277,734.603 380.198,750.573 388.119,760.815 396.04,769.272 403.96,769.272 411.881,760.815 419.802,750.573 427.723,734.603 435.644,718.634 443.564,702.664 451.485,686.694 459.406,670.725 467.327,654.755 475.248,638.785 483.168,622.816 491.089,606.846 499.01,590.877 506.931,574.907 514.851,558.937 522.772,542.968 530.693,526.998 538.614,511.028 546.535,495.059 554.455,479.089 562.376,463.119 570.297,447.15 578.218,431.18 586.139,415.211 594.059,399.241 601.98,383.271 609.901,367.302 617.822,351.332 625.743,335.362 633.663,319.393 641.584,303.423 649.505,287.453 657.426,271.484 665.347,255.514 673.267,239.545 681.188,223.575 689.109,207.605 697.03,191.636 704.95,175.666 712.871,159.696 720.792,143.727 728.713,127.757 736.634,111.787 744.554,95.8178 752.475,79.8482 760.396,63.8785 768.317,47.9089 776.238,31.9393 784.158,15.9696 792.079,0 " />

   <polyline fill="none" stroke=" olive " stroke-width=" 3 " stroke-dasharray = " 5,10 " points=" 7.92079,0 15.8416,15.9696 23.7624,31.9393 31.6832,47.9089 39.604,63.8785 47.5248,79.8482 55.4455,95.8178 63.3663,111.787 71.2871,127.757 79.2079,143.727 87.1287,159.696 95.0495,175.666 102.97,191.636 110.891,207.605 118.812,223.575 126.733,239.545 134.653,255.514 142.574,271.484 150.495,287.453 158.416,303.423 166.337,319.393 174.257,335.362 182.178,351.332 190.099,367.302 198.02,383.271 205.941,399.241 213.861,415.211 221.782,431.18 229.703,447.15 237.624,463.119 245.545,479.089 253.465,495.059 261.386,511.028 269.307,526.998 277.228,542.968 285.149,558.937 293.069,574.907 300.99,590.877 308.911,606.846 316.832,622.816 324.752,638.785 332.673,654.755 340.594,670.725 348.515,686.694 356.436,702.664 364.356,718.634 372.277,734.603 380.198,750.573 388.119,766.543 396.04,773.732 403.96,773.732 411.881,766.543 419.802,750.573 427.723,734.603 435.644,718.634 443.564,702.664 451.485,686.694 459.406,670.725 467.327,654.755 475.248,638.785 483.168,622.816 491.089,606.846 499.01,590.877 506.931,574.907 514.851,558.937 522.772,542.968 530.693,526.998 538.614,511.028 546.535,495.059 554.455,479.089 562.376,463.119 570.297,447.15 578.218,431.18 586.139,415.211 594.059,399.241 601.98,383.271 609.901,367.302 617.822,351.332 625.743,335.362 633.663,319.393 641.584,303.423 649.505,287.453 657.426,271.484 665.347,255.514 673.267,239.545 681.188,223.575 689.109,207.605 697.03,191.636 704.95,175.666 712.871,159.696 720.792,143.727 728.713,127.757 736.634,111.787 744.554,95.8178 752.475,79.8482 760.396,63.8785 768.317,47.9089 776.238,31.9393 784.158,15.9696 792.079,0 " />

   <polyline fill="none" stroke=" black " stroke-width=" 3 " stroke-dasharray = "  " points=" 7.92079,0 15.8416,15.9696 23.7624,31.9393 31.6832,47.9089 39.604,63.8785 47.5248,79.8482 55.4455,95.8178 63.3663,111.787 71.2871,127.757 79.2079,143.727 87.1287,159.696 95.0495,175.666 102.97,191.636 110.891,207.605 118.812,223.575 126.733,239.545 134.653,255.514 142.574,271.484 150.495,287.453 158.416,303.423 166.337,319.393 174.257,335.362 182.178,351.332 190.099,367.302 198.02,383.271 205.941,399.241 213.861,415.211 221.782,431.18 229.703,447.15 237.624,463.119 245.545,479.089 253.465,495.059 261.386,511.028 269.307,526.998 277.228,542.968 285.149,558.937 293.069,574.907 300.99,590.877 308.911,606.846 316.832,622.816 324.752,638.785 332.673,654.755 340.594,670.725 348.515,686.694 356.436,696.942 364.356,703.841 372.277,711.028 380.198,718.495 388.119,726.233 396.04,734.234 403.96,734.234 411.881,726.233 419.802,718.495 427.723,711.028 435.644,703.841 443.564,696.942 451.485,686.694 459.406,670.725 467.327,654.755 475.248,638.785 483.168,622.816 491.089,606.846 499.01,590.877 506.931,574.907 514.851,558.937 522.772,542.968 530.693,526.998 538.614,511.028 546.535,495.059 554.455,479.089 562.376,463.119 570.297,447.15 578.218,431.18 586.139,415.211 594.059,399.241 601.98,383.271 609.901,367.302 617.822,351.332 625.743,335.362 633.663,319.393 641.584,303.423 649.505,287.453 657.426,271.484 665.347,255.514 673.267,239.545 681.188,223.575 689.109,207.605 697.03,191.636 704.95,175.666 712.871,159.696 720.792,143.727 728.713,127.757 736.634,111.787 744.554,95.8178 752.475,79.8482 760.396,63.8785 768.317,47.9089 776.238,31.9393 784.158,15.9696 792.079,0 " />


<!--Draw the X and Y axes -->
<polyline fill="none" stroke="black" stroke-width="6"  points=" 800,0 0,0 0, 800" />
<polyline fill="none" stroke="black" stroke-width="1"  points=" 0 800  800 800  800 0" />
<!-- -->


<!--Draw labels and tics for X axis -->

<line fill="none" stroke="black"  stroke-width="6"  x1="0.5" y1="0" x2="0.5" y2="-20" />
<text transform="scale(1,-1)" font-family="sans-serif" font-size="30" x="-24.5" y="45" >0</text>
<line fill="none" stroke="black"  stroke-width="6"  x1="158.916" y1="0" x2="158.916" y2="-20" />
<text transform="scale(1,-1)" font-family="sans-serif" font-size="30" x="133.916" y="45" >20</text>
<line fill="none" stroke="black"  stroke-width="6"  x1="317.332" y1="0" x2="317.332" y2="-20" />
<text transform="scale(1,-1)" font-family="sans-serif" font-size="30" x="292.332" y="45" >40</text>
<line fill="none" stroke="black"  stroke-width="6"  x1="475.748" y1="0" x2="475.748" y2="-20" />
<text transform="scale(1,-1)" font-family="sans-serif" font-size="30" x="450.748" y="45" >60</text>
<line fill="none" stroke="black"  stroke-width="6"  x1="634.163" y1="0" x2="634.163" y2="-20" />
<text transform="scale(1,-1)" font-family="sans-serif" font-size="30" x="609.163" y="45" >80</text>
<line fill="none" stroke="black"  stroke-width="6"  x1="792.579" y1="0" x2="792.579" y2="-20" />
<text transform="scale(1,-1)" font-family="sans-serif" font-size="30" x="767.579" y="45" >100</text>


<!--Draw labels and tics for Y axis -->

<line fill="none" stroke="black" stroke-width="6" x1="0.0" y1="0" x2="-20" y2="0" />
<text transform="scale(1,-1)" text-anchor="end" font-family="sans-serif" font-size="30" x="-25" y="10" >0</text>
<line fill="none" stroke="black" stroke-width="6" x1="0.0" y1="133.333" x2="-20" y2="133.333" />
<text transform="scale(1,-1)" text-anchor="end" font-family="sans-serif" font-size="30" x="-25" y="-123.333" >10</text>
<line fill="none" stroke="black" stroke-width="6" x1="0.0" y1="266.667" x2="-20" y2="266.667" />
<text transform="scale(1,-1)" text-anchor="end" font-family="sans-serif" font-size="30" x="-25" y="-256.667" >20</text>
<line fill="none" stroke="black" stroke-width="6" x1="0.0" y1="400" x2="-20" y2="400" />
<text transform="scale(1,-1)" text-anchor="end" font-family="sans-serif" font-size="30" x="-25" y="-390" >30</text>
<line fill="none" stroke="black" stroke-width="6" x1="0.0" y1="533.333" x2="-20" y2="533.333" />
<text transform="scale(1,-1)" text-anchor="end" font-family="sans-serif" font-size="30" x="-25" y="-523.333" >40</text>
<line fill="none" stroke="black" stroke-width="6" x1="0.0" y1="666.667" x2="-20" y2="666.667" />
<text transform="scale(1,-1)" text-anchor="end" font-family="sans-serif" font-size="30" x="-25" y="-656.667" >50</text>
<line fill="none" stroke="black" stroke-width="6" x1="0.0" y1="800" x2="-20" y2="800" />
<text transform="scale(1,-1)" text-anchor="end" font-family="sans-serif" font-size="30" x="-25" y="-790" >60</text>

-->
</g>
</g>
<!-- Run Constants
PRINTDISTANCEDATA bool true
GLITCHESONLY bool false
PERTURBBY double 0.05
GLITCHLEVEL double 3
BOUNDARYWINDOW double 0.065
STEPSPERFRAME int 100
TRIALS int 20
ALLBLACK bool true
FILEPREFIX string Fol
NIGGLISELLINGFIRST bool false
ENABLE DistanceEnableString 
DISABLE DistanceDisableString 
GRAPHSIZE int 0
BORDER int 0
PLOTSIZE int 0
AXISWIDTH int 6
TICLENGTH int 20
VECTOR g6 
FOLLOWERMODE FollowerMode point
FIXRANDOMSEED fixRandomSeed false
RANDOMSEED int 21
TIMESTAMP bool true
END end 


-->
</svg>
