<?xml version="1.0" standalone="no"?>
<!-- the width and height set the total pixel output of the image in the browser -->
<!-- whatever is within the viewbox will be remapped to show in this size -->
<svg width="900" height="800" viewBox="1 0 900 800"  version="1.1" xmlns="http://www.w3.org/2000/svg" xmlns:xlink="http://www.w3.org/1999/xlink">
 <desc>ID (and file name) = Fol_2018-05-16.16_30_15.33_32.svg </desc> 
<text x = "-750" y="50" transform="rotate(-90)"  font-family="sans-serif" font-size="40" stroke ="lightgray" fill="none"> PointDistanceFollower   May 16 2018</text>
 <text x="560" y="30" font-family="sans-serif" font-size="20">Wall time passed: 1085 msec.</text>
<text x="300" y="60"   font-family="sans-serif" font-size="20" fill="lightblue">S6  lightblue</text>
<text x="300" y="85"   font-family="sans-serif" font-size="20" fill="slategrey">NCDist  slategrey</text>
<text x="300" y="110"  font-family="sans-serif" font-size="20" fill="violet">D7  violet</text>
<text x="300" y="135"  font-family="sans-serif" font-size="20" fill="olive">CS6Dist  olive</text>

 <text x="140"  y="30"  font-family="sans-serif" font-size="20" >Fol_2018-05-16.16_30_15.33_32.svg  </text> 


 <!--DISTANCE PLOT BEGINS-->


<!-- the following will scale and place the distance plot -->
<g  transform="translate(0, 50) ">
<g transform="translate(150,700) scale(1 -1)">
<line fill="none" stroke="lightblue" stroke-width="12" x1="0" y1="331.264" x2="5.94059" y2="331.264" />
<line fill="none" stroke="lightblue" stroke-width="12" x1="5.94059" y1="331.264" x2="11.8812" y2="337.302" />
<line fill="none" stroke="lightblue" stroke-width="12" x1="11.8812" y1="337.302" x2="17.8218" y2="333.353" />
<line fill="none" stroke="lightblue" stroke-width="12" x1="17.8218" y1="333.353" x2="23.7624" y2="329.79" />
<line fill="none" stroke="lightblue" stroke-width="12" x1="23.7624" y1="329.79" x2="29.703" y2="326.624" />
<line fill="none" stroke="lightblue" stroke-width="12" x1="29.703" y1="326.624" x2="35.6436" y2="323.868" />
<line fill="none" stroke="lightblue" stroke-width="12" x1="35.6436" y1="323.868" x2="41.5842" y2="321.532" />
<line fill="none" stroke="lightblue" stroke-width="12" x1="41.5842" y1="321.532" x2="47.5248" y2="319.625" />
<line fill="none" stroke="lightblue" stroke-width="12" x1="47.5248" y1="319.625" x2="53.4653" y2="318.155" />
<line fill="none" stroke="lightblue" stroke-width="12" x1="53.4653" y1="318.155" x2="59.4059" y2="317.127" />
<line fill="none" stroke="lightblue" stroke-width="12" x1="59.4059" y1="317.127" x2="65.3465" y2="316.547" />
<line fill="none" stroke="lightblue" stroke-width="12" x1="65.3465" y1="316.547" x2="71.2871" y2="316.417" />
<line fill="none" stroke="lightblue" stroke-width="12" x1="71.2871" y1="316.417" x2="77.2277" y2="316.737" />
<line fill="none" stroke="lightblue" stroke-width="12" x1="77.2277" y1="316.737" x2="83.1683" y2="317.506" />
<line fill="none" stroke="lightblue" stroke-width="12" x1="83.1683" y1="317.506" x2="89.1089" y2="318.72" />
<line fill="none" stroke="lightblue" stroke-width="12" x1="89.1089" y1="318.72" x2="95.0495" y2="320.376" />
<line fill="none" stroke="lightblue" stroke-width="12" x1="95.0495" y1="320.376" x2="100.99" y2="322.464" />
<line fill="none" stroke="lightblue" stroke-width="12" x1="100.99" y1="322.464" x2="106.931" y2="324.979" />
<line fill="none" stroke="lightblue" stroke-width="12" x1="106.931" y1="324.979" x2="112.871" y2="327.909" />
<line fill="none" stroke="lightblue" stroke-width="12" x1="112.871" y1="327.909" x2="118.812" y2="331.243" />
<line fill="none" stroke="lightblue" stroke-width="12" x1="118.812" y1="331.243" x2="124.752" y2="334.971" />
<line fill="none" stroke="lightblue" stroke-width="12" x1="124.752" y1="334.971" x2="130.693" y2="339.077" />
<line fill="none" stroke="lightblue" stroke-width="12" x1="130.693" y1="339.077" x2="136.634" y2="343.55" />
<line fill="none" stroke="lightblue" stroke-width="12" x1="136.634" y1="343.55" x2="142.574" y2="348.375" />
<line fill="none" stroke="lightblue" stroke-width="12" x1="142.574" y1="348.375" x2="148.515" y2="353.537" />
<line fill="none" stroke="lightblue" stroke-width="12" x1="148.515" y1="353.537" x2="154.455" y2="354.156" />
<line fill="none" stroke="lightblue" stroke-width="12" x1="154.455" y1="354.156" x2="160.396" y2="350.396" />
<line fill="none" stroke="lightblue" stroke-width="12" x1="160.396" y1="350.396" x2="166.337" y2="347.65" />
<line fill="none" stroke="lightblue" stroke-width="12" x1="166.337" y1="347.65" x2="172.277" y2="345.941" />
<line fill="none" stroke="lightblue" stroke-width="12" x1="172.277" y1="345.941" x2="178.218" y2="345.285" />
<line fill="none" stroke="lightblue" stroke-width="12" x1="178.218" y1="345.285" x2="184.158" y2="345.688" />
<line fill="none" stroke="lightblue" stroke-width="12" x1="184.158" y1="345.688" x2="190.099" y2="347.147" />
<line fill="none" stroke="lightblue" stroke-width="12" x1="190.099" y1="347.147" x2="196.04" y2="349.648" />
<line fill="none" stroke="lightblue" stroke-width="12" x1="196.04" y1="349.648" x2="201.98" y2="353.169" />
<line fill="none" stroke="lightblue" stroke-width="12" x1="201.98" y1="353.169" x2="207.921" y2="367.496" />
<line fill="none" stroke="lightblue" stroke-width="12" x1="207.921" y1="367.496" x2="213.861" y2="361.42" />
<line fill="none" stroke="lightblue" stroke-width="12" x1="213.861" y1="361.42" x2="219.802" y2="364.523" />
<line fill="none" stroke="lightblue" stroke-width="12" x1="219.802" y1="364.523" x2="225.743" y2="317.386" />
<line fill="none" stroke="lightblue" stroke-width="12" x1="225.743" y1="317.386" x2="231.683" y2="237.58" />
<line fill="none" stroke="lightblue" stroke-width="12" x1="231.683" y1="237.58" x2="237.624" y2="320.032" />
<line fill="none" stroke="lightblue" stroke-width="12" x1="237.624" y1="320.032" x2="243.564" y2="586.596" />
<line fill="none" stroke-dasharray = "10, 10"  stroke="orange" stroke-width="6" x1="243.564" y1="300" x2="249.505" y2="300" />
<line fill="none" stroke-dasharray = "10, 10"  stroke="orange" stroke-width="6" x1="249.505" y1="300" x2="255.446" y2="300" />
<line fill="none" stroke-dasharray = "10, 10"  stroke="orange" stroke-width="6" x1="255.446" y1="300" x2="261.386" y2="300" />
<line fill="none" stroke-dasharray = "10, 10"  stroke="orange" stroke-width="6" x1="261.386" y1="300" x2="267.327" y2="300" />
<line fill="none" stroke-dasharray = "10, 10"  stroke="orange" stroke-width="6" x1="267.327" y1="300" x2="273.267" y2="300" />
<line fill="none" stroke-dasharray = "10, 10"  stroke="orange" stroke-width="6" x1="273.267" y1="300" x2="279.208" y2="300" />
<line fill="none" stroke-dasharray = "10, 10"  stroke="orange" stroke-width="6" x1="279.208" y1="300" x2="285.149" y2="300" />
<line fill="none" stroke-dasharray = "10, 10"  stroke="orange" stroke-width="6" x1="285.149" y1="300" x2="291.089" y2="300" />
<line fill="none" stroke-dasharray = "10, 10"  stroke="orange" stroke-width="6" x1="291.089" y1="300" x2="297.03" y2="300" />
<line fill="none" stroke-dasharray = "10, 10"  stroke="orange" stroke-width="6" x1="297.03" y1="300" x2="302.97" y2="300" />
<line fill="none" stroke-dasharray = "10, 10"  stroke="orange" stroke-width="6" x1="302.97" y1="300" x2="308.911" y2="300" />
<line fill="none" stroke-dasharray = "10, 10"  stroke="orange" stroke-width="6" x1="308.911" y1="300" x2="314.851" y2="300" />
<line fill="none" stroke-dasharray = "10, 10"  stroke="orange" stroke-width="6" x1="314.851" y1="300" x2="320.792" y2="300" />
<line fill="none" stroke-dasharray = "10, 10"  stroke="orange" stroke-width="6" x1="320.792" y1="300" x2="326.733" y2="300" />
<line fill="none" stroke-dasharray = "10, 10"  stroke="orange" stroke-width="6" x1="326.733" y1="300" x2="332.673" y2="300" />
<line fill="none" stroke-dasharray = "10, 10"  stroke="orange" stroke-width="6" x1="332.673" y1="300" x2="338.614" y2="300" />
<line fill="none" stroke-dasharray = "10, 10"  stroke="orange" stroke-width="6" x1="338.614" y1="300" x2="344.554" y2="300" />
<line fill="none" stroke-dasharray = "10, 10"  stroke="orange" stroke-width="6" x1="344.554" y1="300" x2="350.495" y2="300" />
<line fill="none" stroke-dasharray = "10, 10"  stroke="orange" stroke-width="6" x1="350.495" y1="300" x2="356.436" y2="300" />
<line fill="none" stroke-dasharray = "10, 10"  stroke="orange" stroke-width="6" x1="356.436" y1="300" x2="362.376" y2="300" />
<line fill="none" stroke-dasharray = "10, 10"  stroke="orange" stroke-width="6" x1="362.376" y1="300" x2="368.317" y2="300" />
<line fill="none" stroke-dasharray = "10, 10"  stroke="orange" stroke-width="6" x1="368.317" y1="300" x2="374.257" y2="300" />
<line fill="none" stroke-dasharray = "10, 10"  stroke="orange" stroke-width="6" x1="374.257" y1="300" x2="380.198" y2="300" />
<line fill="none" stroke-dasharray = "10, 10"  stroke="orange" stroke-width="6" x1="380.198" y1="300" x2="386.139" y2="300" />
<line fill="none" stroke-dasharray = "10, 10"  stroke="orange" stroke-width="6" x1="386.139" y1="300" x2="392.079" y2="300" />
<line fill="none" stroke-dasharray = "10, 10"  stroke="orange" stroke-width="6" x1="392.079" y1="300" x2="398.02" y2="300" />
<line fill="none" stroke-dasharray = "10, 10"  stroke="orange" stroke-width="6" x1="398.02" y1="300" x2="403.96" y2="300" />
<line fill="none" stroke-dasharray = "10, 10"  stroke="orange" stroke-width="6" x1="403.96" y1="300" x2="409.901" y2="300" />
<line fill="none" stroke-dasharray = "10, 10"  stroke="orange" stroke-width="6" x1="409.901" y1="300" x2="415.842" y2="300" />
<line fill="none" stroke-dasharray = "10, 10"  stroke="orange" stroke-width="6" x1="415.842" y1="300" x2="421.782" y2="300" />
<line fill="none" stroke-dasharray = "10, 10"  stroke="orange" stroke-width="6" x1="421.782" y1="300" x2="427.723" y2="300" />
<line fill="none" stroke-dasharray = "10, 10"  stroke="orange" stroke-width="6" x1="427.723" y1="300" x2="433.663" y2="300" />
<line fill="none" stroke-dasharray = "10, 10"  stroke="orange" stroke-width="6" x1="433.663" y1="300" x2="439.604" y2="300" />
<line fill="none" stroke-dasharray = "10, 10"  stroke="orange" stroke-width="6" x1="439.604" y1="300" x2="445.545" y2="300" />
<line fill="none" stroke-dasharray = "10, 10"  stroke="orange" stroke-width="6" x1="445.545" y1="300" x2="451.485" y2="300" />
<line fill="none" stroke-dasharray = "10, 10"  stroke="orange" stroke-width="6" x1="451.485" y1="300" x2="457.426" y2="300" />
<line fill="none" stroke-dasharray = "10, 10"  stroke="orange" stroke-width="6" x1="457.426" y1="300" x2="463.366" y2="300" />
<line fill="none" stroke-dasharray = "10, 10"  stroke="orange" stroke-width="6" x1="463.366" y1="300" x2="469.307" y2="300" />
<line fill="none" stroke-dasharray = "10, 10"  stroke="orange" stroke-width="6" x1="469.307" y1="300" x2="475.248" y2="300" />
<line fill="none" stroke-dasharray = "10, 10"  stroke="orange" stroke-width="6" x1="475.248" y1="300" x2="481.188" y2="300" />
<line fill="none" stroke-dasharray = "10, 10"  stroke="orange" stroke-width="6" x1="481.188" y1="300" x2="487.129" y2="300" />
<line fill="none" stroke-dasharray = "10, 10"  stroke="orange" stroke-width="6" x1="487.129" y1="300" x2="493.069" y2="300" />
<line fill="none" stroke-dasharray = "10, 10"  stroke="orange" stroke-width="6" x1="493.069" y1="300" x2="499.01" y2="300" />
<line fill="none" stroke-dasharray = "10, 10"  stroke="orange" stroke-width="6" x1="499.01" y1="300" x2="504.95" y2="300" />
<line fill="none" stroke-dasharray = "10, 10"  stroke="orange" stroke-width="6" x1="504.95" y1="300" x2="510.891" y2="300" />
<line fill="none" stroke-dasharray = "10, 10"  stroke="orange" stroke-width="6" x1="510.891" y1="300" x2="516.832" y2="300" />
<line fill="none" stroke-dasharray = "10, 10"  stroke="orange" stroke-width="6" x1="516.832" y1="300" x2="522.772" y2="300" />
<line fill="none" stroke-dasharray = "10, 10"  stroke="orange" stroke-width="6" x1="522.772" y1="300" x2="528.713" y2="300" />
<line fill="none" stroke-dasharray = "10, 10"  stroke="orange" stroke-width="6" x1="528.713" y1="300" x2="534.653" y2="300" />
<line fill="none" stroke-dasharray = "10, 10"  stroke="orange" stroke-width="6" x1="534.653" y1="300" x2="540.594" y2="300" />
<line fill="none" stroke-dasharray = "10, 10"  stroke="orange" stroke-width="6" x1="540.594" y1="300" x2="546.535" y2="300" />
<line fill="none" stroke-dasharray = "10, 10"  stroke="orange" stroke-width="6" x1="546.535" y1="300" x2="552.475" y2="300" />
<line fill="none" stroke-dasharray = "10, 10"  stroke="orange" stroke-width="6" x1="552.475" y1="300" x2="558.416" y2="300" />
<line fill="none" stroke-dasharray = "10, 10"  stroke="orange" stroke-width="6" x1="558.416" y1="300" x2="564.356" y2="300" />
<line fill="none" stroke-dasharray = "10, 10"  stroke="orange" stroke-width="6" x1="564.356" y1="300" x2="570.297" y2="300" />
<line fill="none" stroke-dasharray = "10, 10"  stroke="orange" stroke-width="6" x1="570.297" y1="300" x2="576.238" y2="300" />
<line fill="none" stroke-dasharray = "10, 10"  stroke="orange" stroke-width="6" x1="576.238" y1="300" x2="582.178" y2="300" />
<line fill="none" stroke-dasharray = "10, 10"  stroke="orange" stroke-width="6" x1="582.178" y1="300" x2="588.119" y2="300" />
<line fill="none" stroke-dasharray = "10, 10"  stroke="orange" stroke-width="6" x1="588.119" y1="300" x2="594.059" y2="300" />
<line fill="none" stroke="olive" stroke-width="3" x1="0" y1="397.178" x2="5.94059" y2="397.178" />
<line fill="none" stroke="olive" stroke-width="3" x1="5.94059" y1="397.178" x2="11.8812" y2="396.747" />
<line fill="none" stroke="olive" stroke-width="3" x1="11.8812" y1="396.747" x2="17.8218" y2="396.674" />
<line fill="none" stroke="olive" stroke-width="3" x1="17.8218" y1="396.674" x2="23.7624" y2="396.961" />
<line fill="none" stroke="olive" stroke-width="3" x1="23.7624" y1="396.961" x2="29.703" y2="397.607" />
<line fill="none" stroke="olive" stroke-width="3" x1="29.703" y1="397.607" x2="35.6436" y2="398.609" />
<line fill="none" stroke="olive" stroke-width="3" x1="35.6436" y1="398.609" x2="41.5842" y2="399.965" />
<line fill="none" stroke="olive" stroke-width="3" x1="41.5842" y1="399.965" x2="47.5248" y2="401.671" />
<line fill="none" stroke="olive" stroke-width="3" x1="47.5248" y1="401.671" x2="53.4653" y2="403.724" />
<line fill="none" stroke="olive" stroke-width="3" x1="53.4653" y1="403.724" x2="59.4059" y2="406.117" />
<line fill="none" stroke="olive" stroke-width="3" x1="59.4059" y1="406.117" x2="65.3465" y2="408.845" />
<line fill="none" stroke="olive" stroke-width="3" x1="65.3465" y1="408.845" x2="71.2871" y2="411.901" />
<line fill="none" stroke="olive" stroke-width="3" x1="71.2871" y1="411.901" x2="77.2277" y2="415.278" />
<line fill="none" stroke="olive" stroke-width="3" x1="77.2277" y1="415.278" x2="83.1683" y2="418.968" />
<line fill="none" stroke="olive" stroke-width="3" x1="83.1683" y1="418.968" x2="89.1089" y2="422.963" />
<line fill="none" stroke="olive" stroke-width="3" x1="89.1089" y1="422.963" x2="95.0495" y2="427.254" />
<line fill="none" stroke="olive" stroke-width="3" x1="95.0495" y1="427.254" x2="100.99" y2="431.832" />
<line fill="none" stroke="olive" stroke-width="3" x1="100.99" y1="431.832" x2="106.931" y2="436.69" />
<line fill="none" stroke="olive" stroke-width="3" x1="106.931" y1="436.69" x2="112.871" y2="441.816" />
<line fill="none" stroke="olive" stroke-width="3" x1="112.871" y1="441.816" x2="118.812" y2="447.203" />
<line fill="none" stroke="olive" stroke-width="3" x1="118.812" y1="447.203" x2="124.752" y2="452.84" />
<line fill="none" stroke="olive" stroke-width="3" x1="124.752" y1="452.84" x2="130.693" y2="458.719" />
<line fill="none" stroke="olive" stroke-width="3" x1="130.693" y1="458.719" x2="136.634" y2="464.83" />
<line fill="none" stroke="olive" stroke-width="3" x1="136.634" y1="464.83" x2="142.574" y2="471.164" />
<line fill="none" stroke="olive" stroke-width="3" x1="142.574" y1="471.164" x2="148.515" y2="477.713" />
<line fill="none" stroke="olive" stroke-width="3" x1="148.515" y1="477.713" x2="154.455" y2="484.055" />
<line fill="none" stroke="olive" stroke-width="3" x1="154.455" y1="484.055" x2="160.396" y2="490.608" />
<line fill="none" stroke="olive" stroke-width="3" x1="160.396" y1="490.608" x2="166.337" y2="497.811" />
<line fill="none" stroke="olive" stroke-width="3" x1="166.337" y1="497.811" x2="172.277" y2="505.635" />
<line fill="none" stroke="olive" stroke-width="3" x1="172.277" y1="505.635" x2="178.218" y2="514.052" />
<line fill="none" stroke="olive" stroke-width="3" x1="178.218" y1="514.052" x2="184.158" y2="523.034" />
<line fill="none" stroke="olive" stroke-width="3" x1="184.158" y1="523.034" x2="190.099" y2="532.552" />
<line fill="none" stroke="olive" stroke-width="3" x1="190.099" y1="532.552" x2="196.04" y2="542.578" />
<line fill="none" stroke="olive" stroke-width="3" x1="196.04" y1="542.578" x2="201.98" y2="553.084" />
<line fill="none" stroke="olive" stroke-width="3" x1="201.98" y1="553.084" x2="207.921" y2="558.783" />
<line fill="none" stroke="olive" stroke-width="3" x1="207.921" y1="558.783" x2="213.861" y2="553.117" />
<line fill="none" stroke="olive" stroke-width="3" x1="213.861" y1="553.117" x2="219.802" y2="566.898" />
<line fill="none" stroke="olive" stroke-width="3" x1="219.802" y1="566.898" x2="225.743" y2="513.578" />
<line fill="none" stroke="olive" stroke-width="3" x1="225.743" y1="513.578" x2="231.683" y2="432.689" />
<line fill="none" stroke="olive" stroke-width="3" x1="231.683" y1="432.689" x2="237.624" y2="407.199" />
<line fill="none" stroke="olive" stroke-width="3" x1="237.624" y1="407.199" x2="243.564" y2="51.2294" />
<line fill="none" stroke-dasharray = "10, 10"  stroke="orange" stroke-width="6" x1="243.564" y1="300" x2="249.505" y2="300" />
<line fill="none" stroke-dasharray = "10, 10"  stroke="orange" stroke-width="6" x1="249.505" y1="300" x2="255.446" y2="300" />
<line fill="none" stroke-dasharray = "10, 10"  stroke="orange" stroke-width="6" x1="255.446" y1="300" x2="261.386" y2="300" />
<line fill="none" stroke-dasharray = "10, 10"  stroke="orange" stroke-width="6" x1="261.386" y1="300" x2="267.327" y2="300" />
<line fill="none" stroke-dasharray = "10, 10"  stroke="orange" stroke-width="6" x1="267.327" y1="300" x2="273.267" y2="300" />
<line fill="none" stroke-dasharray = "10, 10"  stroke="orange" stroke-width="6" x1="273.267" y1="300" x2="279.208" y2="300" />
<line fill="none" stroke-dasharray = "10, 10"  stroke="orange" stroke-width="6" x1="279.208" y1="300" x2="285.149" y2="300" />
<line fill="none" stroke-dasharray = "10, 10"  stroke="orange" stroke-width="6" x1="285.149" y1="300" x2="291.089" y2="300" />
<line fill="none" stroke-dasharray = "10, 10"  stroke="orange" stroke-width="6" x1="291.089" y1="300" x2="297.03" y2="300" />
<line fill="none" stroke-dasharray = "10, 10"  stroke="orange" stroke-width="6" x1="297.03" y1="300" x2="302.97" y2="300" />
<line fill="none" stroke-dasharray = "10, 10"  stroke="orange" stroke-width="6" x1="302.97" y1="300" x2="308.911" y2="300" />
<line fill="none" stroke-dasharray = "10, 10"  stroke="orange" stroke-width="6" x1="308.911" y1="300" x2="314.851" y2="300" />
<line fill="none" stroke-dasharray = "10, 10"  stroke="orange" stroke-width="6" x1="314.851" y1="300" x2="320.792" y2="300" />
<line fill="none" stroke-dasharray = "10, 10"  stroke="orange" stroke-width="6" x1="320.792" y1="300" x2="326.733" y2="300" />
<line fill="none" stroke-dasharray = "10, 10"  stroke="orange" stroke-width="6" x1="326.733" y1="300" x2="332.673" y2="300" />
<line fill="none" stroke-dasharray = "10, 10"  stroke="orange" stroke-width="6" x1="332.673" y1="300" x2="338.614" y2="300" />
<line fill="none" stroke-dasharray = "10, 10"  stroke="orange" stroke-width="6" x1="338.614" y1="300" x2="344.554" y2="300" />
<line fill="none" stroke-dasharray = "10, 10"  stroke="orange" stroke-width="6" x1="344.554" y1="300" x2="350.495" y2="300" />
<line fill="none" stroke-dasharray = "10, 10"  stroke="orange" stroke-width="6" x1="350.495" y1="300" x2="356.436" y2="300" />
<line fill="none" stroke-dasharray = "10, 10"  stroke="orange" stroke-width="6" x1="356.436" y1="300" x2="362.376" y2="300" />
<line fill="none" stroke-dasharray = "10, 10"  stroke="orange" stroke-width="6" x1="362.376" y1="300" x2="368.317" y2="300" />
<line fill="none" stroke-dasharray = "10, 10"  stroke="orange" stroke-width="6" x1="368.317" y1="300" x2="374.257" y2="300" />
<line fill="none" stroke-dasharray = "10, 10"  stroke="orange" stroke-width="6" x1="374.257" y1="300" x2="380.198" y2="300" />
<line fill="none" stroke-dasharray = "10, 10"  stroke="orange" stroke-width="6" x1="380.198" y1="300" x2="386.139" y2="300" />
<line fill="none" stroke-dasharray = "10, 10"  stroke="orange" stroke-width="6" x1="386.139" y1="300" x2="392.079" y2="300" />
<line fill="none" stroke-dasharray = "10, 10"  stroke="orange" stroke-width="6" x1="392.079" y1="300" x2="398.02" y2="300" />
<line fill="none" stroke-dasharray = "10, 10"  stroke="orange" stroke-width="6" x1="398.02" y1="300" x2="403.96" y2="300" />
<line fill="none" stroke-dasharray = "10, 10"  stroke="orange" stroke-width="6" x1="403.96" y1="300" x2="409.901" y2="300" />
<line fill="none" stroke-dasharray = "10, 10"  stroke="orange" stroke-width="6" x1="409.901" y1="300" x2="415.842" y2="300" />
<line fill="none" stroke-dasharray = "10, 10"  stroke="orange" stroke-width="6" x1="415.842" y1="300" x2="421.782" y2="300" />
<line fill="none" stroke-dasharray = "10, 10"  stroke="orange" stroke-width="6" x1="421.782" y1="300" x2="427.723" y2="300" />
<line fill="none" stroke-dasharray = "10, 10"  stroke="orange" stroke-width="6" x1="427.723" y1="300" x2="433.663" y2="300" />
<line fill="none" stroke-dasharray = "10, 10"  stroke="orange" stroke-width="6" x1="433.663" y1="300" x2="439.604" y2="300" />
<line fill="none" stroke-dasharray = "10, 10"  stroke="orange" stroke-width="6" x1="439.604" y1="300" x2="445.545" y2="300" />
<line fill="none" stroke-dasharray = "10, 10"  stroke="orange" stroke-width="6" x1="445.545" y1="300" x2="451.485" y2="300" />
<line fill="none" stroke-dasharray = "10, 10"  stroke="orange" stroke-width="6" x1="451.485" y1="300" x2="457.426" y2="300" />
<line fill="none" stroke-dasharray = "10, 10"  stroke="orange" stroke-width="6" x1="457.426" y1="300" x2="463.366" y2="300" />
<line fill="none" stroke-dasharray = "10, 10"  stroke="orange" stroke-width="6" x1="463.366" y1="300" x2="469.307" y2="300" />
<line fill="none" stroke-dasharray = "10, 10"  stroke="orange" stroke-width="6" x1="469.307" y1="300" x2="475.248" y2="300" />
<line fill="none" stroke-dasharray = "10, 10"  stroke="orange" stroke-width="6" x1="475.248" y1="300" x2="481.188" y2="300" />
<line fill="none" stroke-dasharray = "10, 10"  stroke="orange" stroke-width="6" x1="481.188" y1="300" x2="487.129" y2="300" />
<line fill="none" stroke-dasharray = "10, 10"  stroke="orange" stroke-width="6" x1="487.129" y1="300" x2="493.069" y2="300" />
<line fill="none" stroke-dasharray = "10, 10"  stroke="orange" stroke-width="6" x1="493.069" y1="300" x2="499.01" y2="300" />
<line fill="none" stroke-dasharray = "10, 10"  stroke="orange" stroke-width="6" x1="499.01" y1="300" x2="504.95" y2="300" />
<line fill="none" stroke-dasharray = "10, 10"  stroke="orange" stroke-width="6" x1="504.95" y1="300" x2="510.891" y2="300" />
<line fill="none" stroke-dasharray = "10, 10"  stroke="orange" stroke-width="6" x1="510.891" y1="300" x2="516.832" y2="300" />
<line fill="none" stroke-dasharray = "10, 10"  stroke="orange" stroke-width="6" x1="516.832" y1="300" x2="522.772" y2="300" />
<line fill="none" stroke-dasharray = "10, 10"  stroke="orange" stroke-width="6" x1="522.772" y1="300" x2="528.713" y2="300" />
<line fill="none" stroke-dasharray = "10, 10"  stroke="orange" stroke-width="6" x1="528.713" y1="300" x2="534.653" y2="300" />
<line fill="none" stroke-dasharray = "10, 10"  stroke="orange" stroke-width="6" x1="534.653" y1="300" x2="540.594" y2="300" />
<line fill="none" stroke-dasharray = "10, 10"  stroke="orange" stroke-width="6" x1="540.594" y1="300" x2="546.535" y2="300" />
<line fill="none" stroke-dasharray = "10, 10"  stroke="orange" stroke-width="6" x1="546.535" y1="300" x2="552.475" y2="300" />
<line fill="none" stroke-dasharray = "10, 10"  stroke="orange" stroke-width="6" x1="552.475" y1="300" x2="558.416" y2="300" />
<line fill="none" stroke-dasharray = "10, 10"  stroke="orange" stroke-width="6" x1="558.416" y1="300" x2="564.356" y2="300" />
<line fill="none" stroke-dasharray = "10, 10"  stroke="orange" stroke-width="6" x1="564.356" y1="300" x2="570.297" y2="300" />
<line fill="none" stroke-dasharray = "10, 10"  stroke="orange" stroke-width="6" x1="570.297" y1="300" x2="576.238" y2="300" />
<line fill="none" stroke-dasharray = "10, 10"  stroke="orange" stroke-width="6" x1="576.238" y1="300" x2="582.178" y2="300" />
<line fill="none" stroke-dasharray = "10, 10"  stroke="orange" stroke-width="6" x1="582.178" y1="300" x2="588.119" y2="300" />
<line fill="none" stroke-dasharray = "10, 10"  stroke="orange" stroke-width="6" x1="588.119" y1="300" x2="594.059" y2="300" />

<!--Draw Glitches -->

<line fill="none" stroke="black" stroke-width="4" x1="231.683" y1="227.58" x2="231.683" y2="177.58"  stroke-dasharray = "10,5" />
<text transform="scale(1,-1)" font-family="sans-serif" font-size="30" stroke = "rgb(0,0,0)" line = "rgb(0,0,0)"  fill = "lightblue" x="236.683" y="-177.58" >38</text>
<line fill="none" stroke="black" stroke-width="4" x1="249.505" y1="-23.3333" x2="249.505" y2="-73.3333"  stroke-dasharray = "10,5" />
<text transform="scale(1,-1)" font-family="sans-serif" font-size="30" stroke = "rgb(0,0,0)" line = "rgb(0,0,0)"  fill = "lightblue" x="254.505" y="73.3333" >41</text>

<!-- -->


<!--Draw Glitches -->

<line fill="none" stroke="black" stroke-width="4" x1="231.683" y1="422.689" x2="231.683" y2="372.689"  stroke-dasharray = "10,5" />
<text transform="scale(1,-1)" font-family="sans-serif" font-size="30" stroke = "rgb(0,0,0)" line = "rgb(0,0,0)"  fill = "olive" x="236.683" y="-372.689" >38</text>
<line fill="none" stroke="black" stroke-width="4" x1="249.505" y1="-23.3333" x2="249.505" y2="-73.3333"  stroke-dasharray = "10,5" />
<text transform="scale(1,-1)" font-family="sans-serif" font-size="30" stroke = "rgb(0,0,0)" line = "rgb(0,0,0)"  fill = "olive" x="254.505" y="73.3333" >41</text>

<!-- -->


<!--Draw the X and Y axes -->
<polyline fill="none" stroke="black" stroke-width="6"  points=" 600,0 0,0 0, 600" />
<polyline fill="none" stroke="black" stroke-width="1"  points=" 0 600  600 600  600 0" />
<!-- -->


<!--Draw labels and tics for X axis -->

<line fill="none" stroke="black"  stroke-width="6"  x1="0.5" y1="0" x2="0.5" y2="-20" />
<text transform="scale(1,-1)" font-family="sans-serif" font-size="30" x="-24.5" y="45" >0</text>
<line fill="none" stroke="black"  stroke-width="6"  x1="119.312" y1="0" x2="119.312" y2="-20" />
<text transform="scale(1,-1)" font-family="sans-serif" font-size="30" x="94.3119" y="45" >20</text>
<line fill="none" stroke="black"  stroke-width="6"  x1="238.124" y1="0" x2="238.124" y2="-20" />
<text transform="scale(1,-1)" font-family="sans-serif" font-size="30" x="213.124" y="45" >40</text>
<line fill="none" stroke="black"  stroke-width="6"  x1="356.936" y1="0" x2="356.936" y2="-20" />
<text transform="scale(1,-1)" font-family="sans-serif" font-size="30" x="331.936" y="45" >60</text>
<line fill="none" stroke="black"  stroke-width="6"  x1="475.748" y1="0" x2="475.748" y2="-20" />
<text transform="scale(1,-1)" font-family="sans-serif" font-size="30" x="450.748" y="45" >80</text>
<line fill="none" stroke="black"  stroke-width="6"  x1="594.559" y1="0" x2="594.559" y2="-20" />
<text transform="scale(1,-1)" font-family="sans-serif" font-size="30" x="569.559" y="45" >100</text>


<!--Draw labels and tics for Y axis -->

<line fill="none" stroke="black" stroke-width="6" x1="0.0" y1="0" x2="-20" y2="0" />
<text transform="scale(1,-1)" text-anchor="end" font-family="sans-serif" font-size="30" x="-25" y="10" >0</text>
<line fill="none" stroke="black" stroke-width="6" x1="0.0" y1="66.6667" x2="-20" y2="66.6667" />
<text transform="scale(1,-1)" text-anchor="end" font-family="sans-serif" font-size="30" x="-25" y="-56.6667" >5</text>
<line fill="none" stroke="black" stroke-width="6" x1="0.0" y1="133.333" x2="-20" y2="133.333" />
<text transform="scale(1,-1)" text-anchor="end" font-family="sans-serif" font-size="30" x="-25" y="-123.333" >10</text>
<line fill="none" stroke="black" stroke-width="6" x1="0.0" y1="200" x2="-20" y2="200" />
<text transform="scale(1,-1)" text-anchor="end" font-family="sans-serif" font-size="30" x="-25" y="-190" >15</text>
<line fill="none" stroke="black" stroke-width="6" x1="0.0" y1="266.667" x2="-20" y2="266.667" />
<text transform="scale(1,-1)" text-anchor="end" font-family="sans-serif" font-size="30" x="-25" y="-256.667" >20</text>
<line fill="none" stroke="black" stroke-width="6" x1="0.0" y1="333.333" x2="-20" y2="333.333" />
<text transform="scale(1,-1)" text-anchor="end" font-family="sans-serif" font-size="30" x="-25" y="-323.333" >25</text>
<line fill="none" stroke="black" stroke-width="6" x1="0.0" y1="400" x2="-20" y2="400" />
<text transform="scale(1,-1)" text-anchor="end" font-family="sans-serif" font-size="30" x="-25" y="-390" >30</text>
<line fill="none" stroke="black" stroke-width="6" x1="0.0" y1="466.667" x2="-20" y2="466.667" />
<text transform="scale(1,-1)" text-anchor="end" font-family="sans-serif" font-size="30" x="-25" y="-456.667" >35</text>
<line fill="none" stroke="black" stroke-width="6" x1="0.0" y1="533.333" x2="-20" y2="533.333" />
<text transform="scale(1,-1)" text-anchor="end" font-family="sans-serif" font-size="30" x="-25" y="-523.333" >40</text>
<line fill="none" stroke="black" stroke-width="6" x1="0.0" y1="600" x2="-20" y2="600" />
<text transform="scale(1,-1)" text-anchor="end" font-family="sans-serif" font-size="30" x="-25" y="-590" >45</text>

-->
</g>
</g>
<!-- Run Constants
PRINTDISTANCEDATA bool true
GLITCHESONLY bool true
PLOT 2doubles 3 4
PERTURBBY double 0.05
GLITCHLEVEL double 3
BOUNDARYWINDOW double 0.065
FRAMESPERPATH int 200
STEPSPERFRAME int 100
TRIALS int 1
ALLBLACK bool true
FILEPREFIX string Fol
GRAPHSIZE int 0
BORDER int 0
PLOTSIZE int 0
G6LINEWIDTH int 3
DELONELINEWIDTH int 10
AXISWIDTH int 6
TICLENGTH int 20
VECTOR g6 
FOLLOWERMODE FollowerMode line
FIXRANDOMSEED fixRandomSeed false
RANDOMSEED int 19191
TIMESTAMP bool true
END end 




-->
</svg>
