<?xml version="1.0" standalone="no"?>
<!-- the width and height set the total pixel output of the image in the browser -->
<!-- whatever is within the viewbox will be remapped to show in this size -->
<svg width="1000" height="1000" viewBox="1 0  1200 1200"  version="1.1" xmlns="http://www.w3.org/2000/svg" xmlns:xlink="http://www.w3.org/1999/xlink">
 <desc>ID (and file name) = Fol_2020-05-12.13_41_02.2_0.svg  mode = Single Point </desc> 
<g transform = "scale(1 1)">

<text x = "-850" y="50" transform="rotate(-90)"  font-family="sans-serif" font-size="40" stroke ="lightgray" fill="none"> PointDistanceFollower   May  5 2020</text>
 <text x="200"  y="30"  font-family="sans-serif" font-size="20" >Fol_2020-05-12.13_41_02.2_0.svg  &#160;&#160;&#160;&#160;&#160; Wall time passed: 34483 msec.</text>
<text x="300" y="60"   font-family="sans-serif" font-size="20" fill="lightblue">  S6  55 msec </text>
<text x="300" y="85"   font-family="sans-serif" font-size="20" fill="olive">  CS6Dist  10 msec </text>
<text x="300" y="110"   font-family="sans-serif" font-size="20" fill="black">  LM  34418 msec </text>



 <!--DISTANCE PLOT BEGINS   mode = Single Point-->


<!-- the following will scale and place the distance plot -->
<g transform="translate(150,975) scale(1 -1)">
   <polyline fill="none" stroke=" lightblue " stroke-width=" 12 " stroke-dasharray = " 10,5 " points=" 7.92079,0 15.8416,15.2404 23.7624,30.4807 31.6832,45.7211 39.604,60.9615 47.5248,76.2019 55.4455,91.4422 63.3663,106.683 71.2871,121.923 79.2079,137.163 87.1287,152.404 95.0495,167.644 102.97,182.884 110.891,198.125 118.812,213.365 126.733,228.606 134.653,243.846 142.574,259.086 150.495,274.327 158.416,289.567 166.337,304.807 174.257,320.048 182.178,335.288 190.099,350.529 198.02,365.769 205.941,381.009 213.861,396.25 221.782,411.49 229.703,426.73 237.624,441.971 245.545,457.211 253.465,472.452 261.386,487.692 269.307,502.932 277.228,518.173 285.149,533.413 293.069,548.653 300.99,563.894 308.911,579.134 316.832,594.375 324.752,609.615 332.673,624.855 340.594,640.096 348.515,655.336 356.436,670.576 364.356,685.817 372.277,701.057 380.198,715.552 388.119,723.302 396.04,731.288 403.96,731.288 411.881,723.302 419.802,715.552 427.723,701.057 435.644,685.817 443.564,670.576 451.485,655.336 459.406,640.096 467.327,624.855 475.248,609.615 483.168,594.375 491.089,579.134 499.01,563.894 506.931,548.653 514.851,533.413 522.772,518.173 530.693,502.932 538.614,487.692 546.535,472.452 554.455,457.211 562.376,441.971 570.297,426.73 578.218,411.49 586.139,396.25 594.059,381.009 601.98,365.769 609.901,350.529 617.822,335.288 625.743,320.048 633.663,304.807 641.584,289.567 649.505,274.327 657.426,259.086 665.347,243.846 673.267,228.606 681.188,213.365 689.109,198.125 697.03,182.884 704.95,167.644 712.871,152.404 720.792,137.163 728.713,121.923 736.634,106.683 744.554,91.4422 752.475,76.2019 760.396,60.9615 768.317,45.7211 776.238,30.4807 784.158,15.2404 792.079,0 " />

   <polyline fill="none" stroke=" olive " stroke-width=" 3 " stroke-dasharray = " 5,10 " points=" 7.92079,0 15.8416,15.1262 23.7624,30.354 31.6832,45.5855 39.604,60.8179 47.5248,76.0507 55.4455,91.2837 63.3663,106.517 71.2871,121.75 79.2079,136.983 87.1287,152.216 95.0495,167.45 102.97,182.683 110.891,197.916 118.812,213.149 126.733,228.383 134.653,243.616 142.574,258.849 150.495,274.083 158.416,289.316 166.337,304.549 174.257,319.783 182.178,335.016 190.099,350.249 198.02,365.483 205.941,380.716 213.861,395.949 221.782,411.183 229.703,426.416 237.624,441.649 245.545,456.883 253.465,472.116 261.386,487.349 269.307,502.583 277.228,517.816 285.149,533.049 293.069,548.283 300.99,563.516 308.911,578.749 316.832,593.983 324.752,609.216 332.673,624.449 340.594,639.683 348.515,654.916 356.436,670.149 364.356,685.383 372.277,700.616 380.198,715.541 388.119,723.296 396.04,731.286 403.96,731.286 411.881,723.296 419.802,715.541 427.723,700.616 435.644,685.383 443.564,670.149 451.485,654.916 459.406,639.683 467.327,624.449 475.248,609.216 483.168,593.983 491.089,578.749 499.01,563.516 506.931,548.283 514.851,533.049 522.772,517.816 530.693,502.583 538.614,487.349 546.535,472.116 554.455,456.883 562.376,441.649 570.297,426.416 578.218,411.183 586.139,395.949 594.059,380.716 601.98,365.483 609.901,350.249 617.822,335.016 625.743,319.783 633.663,304.549 641.584,289.316 649.505,274.083 657.426,258.849 665.347,243.616 673.267,228.383 681.188,213.149 689.109,197.916 697.03,182.683 704.95,167.45 712.871,152.216 720.792,136.983 728.713,121.75 736.634,106.517 744.554,91.2837 752.475,76.0507 760.396,60.8179 768.317,45.5855 776.238,30.354 784.158,15.1262 792.079,0 " />

   <polyline fill="none" stroke=" black " stroke-width=" 3 " stroke-dasharray = "  " points=" 7.92079,0 15.8416,15.2404 23.7624,30.4807 31.6832,45.7211 39.604,60.9615 47.5248,76.2019 55.4455,91.4422 63.3663,106.683 71.2871,121.923 79.2079,137.163 87.1287,152.404 95.0495,167.644 102.97,182.884 110.891,198.125 118.812,213.365 126.733,228.606 134.653,243.846 142.574,259.086 150.495,274.327 158.416,289.567 166.337,304.807 174.257,320.048 182.178,335.288 190.099,350.529 198.02,365.769 205.941,381.009 213.861,396.25 221.782,411.49 229.703,426.73 237.624,441.971 245.545,457.211 253.465,472.452 261.386,487.692 269.307,502.932 277.228,518.173 285.149,533.413 293.069,548.653 300.99,563.894 308.911,579.134 316.832,594.375 324.752,609.615 332.673,624.855 340.594,640.096 348.515,655.336 356.436,670.576 364.356,685.817 372.277,701.057 380.198,715.552 388.119,723.302 396.04,731.288 403.96,731.288 411.881,723.302 419.802,715.552 427.723,701.057 435.644,685.817 443.564,670.576 451.485,655.336 459.406,640.096 467.327,624.855 475.248,609.615 483.168,594.375 491.089,579.134 499.01,563.894 506.931,548.653 514.851,533.413 522.772,518.173 530.693,502.932 538.614,487.692 546.535,472.452 554.455,457.211 562.376,441.971 570.297,426.73 578.218,411.49 586.139,396.25 594.059,381.009 601.98,365.769 609.901,350.529 617.822,335.288 625.743,320.048 633.663,304.807 641.584,289.567 649.505,274.327 657.426,259.086 665.347,243.846 673.267,228.606 681.188,213.365 689.109,198.125 697.03,182.884 704.95,167.644 712.871,152.404 720.792,137.163 728.713,121.923 736.634,106.683 744.554,91.4422 752.475,76.2019 760.396,60.9615 768.317,45.7211 776.238,30.4807 784.158,15.2404 792.079,0 " />


<!--Draw the X and Y axes -->
<polyline fill="none" stroke="black" stroke-width="6"  points=" 800,0 0,0 0, 800" />
<polyline fill="none" stroke="black" stroke-width="1"  points=" 0 800  800 800  800 0" />
<!-- -->


<!--Draw labels and tics for X axis -->

<line fill="none" stroke="black"  stroke-width="6"  x1="0.5" y1="0" x2="0.5" y2="-20" />
<text transform="scale(1,-1)" font-family="sans-serif" font-size="30" x="-24.5" y="45" >0</text>
<line fill="none" stroke="black"  stroke-width="6"  x1="158.916" y1="0" x2="158.916" y2="-20" />
<text transform="scale(1,-1)" font-family="sans-serif" font-size="30" x="133.916" y="45" >20</text>
<line fill="none" stroke="black"  stroke-width="6"  x1="317.332" y1="0" x2="317.332" y2="-20" />
<text transform="scale(1,-1)" font-family="sans-serif" font-size="30" x="292.332" y="45" >40</text>
<line fill="none" stroke="black"  stroke-width="6"  x1="475.748" y1="0" x2="475.748" y2="-20" />
<text transform="scale(1,-1)" font-family="sans-serif" font-size="30" x="450.748" y="45" >60</text>
<line fill="none" stroke="black"  stroke-width="6"  x1="634.163" y1="0" x2="634.163" y2="-20" />
<text transform="scale(1,-1)" font-family="sans-serif" font-size="30" x="609.163" y="45" >80</text>
<line fill="none" stroke="black"  stroke-width="6"  x1="792.579" y1="0" x2="792.579" y2="-20" />
<text transform="scale(1,-1)" font-family="sans-serif" font-size="30" x="767.579" y="45" >100</text>


<!--Draw labels and tics for Y axis -->

<line fill="none" stroke="black" stroke-width="6" x1="0.0" y1="0" x2="-20" y2="0" />
<text transform="scale(1,-1)" text-anchor="end" font-family="sans-serif" font-size="30" x="-25" y="10" >0</text>
<line fill="none" stroke="black" stroke-width="6" x1="0.0" y1="72.7273" x2="-20" y2="72.7273" />
<text transform="scale(1,-1)" text-anchor="end" font-family="sans-serif" font-size="30" x="-25" y="-62.7273" >500</text>
<line fill="none" stroke="black" stroke-width="6" x1="0.0" y1="145.455" x2="-20" y2="145.455" />
<text transform="scale(1,-1)" text-anchor="end" font-family="sans-serif" font-size="30" x="-25" y="-135.455" >1000</text>
<line fill="none" stroke="black" stroke-width="6" x1="0.0" y1="218.182" x2="-20" y2="218.182" />
<text transform="scale(1,-1)" text-anchor="end" font-family="sans-serif" font-size="30" x="-25" y="-208.182" >1500</text>
<line fill="none" stroke="black" stroke-width="6" x1="0.0" y1="290.909" x2="-20" y2="290.909" />
<text transform="scale(1,-1)" text-anchor="end" font-family="sans-serif" font-size="30" x="-25" y="-280.909" >2000</text>
<line fill="none" stroke="black" stroke-width="6" x1="0.0" y1="363.636" x2="-20" y2="363.636" />
<text transform="scale(1,-1)" text-anchor="end" font-family="sans-serif" font-size="30" x="-25" y="-353.636" >2500</text>
<line fill="none" stroke="black" stroke-width="6" x1="0.0" y1="436.364" x2="-20" y2="436.364" />
<text transform="scale(1,-1)" text-anchor="end" font-family="sans-serif" font-size="30" x="-25" y="-426.364" >3000</text>
<line fill="none" stroke="black" stroke-width="6" x1="0.0" y1="509.091" x2="-20" y2="509.091" />
<text transform="scale(1,-1)" text-anchor="end" font-family="sans-serif" font-size="30" x="-25" y="-499.091" >3500</text>
<line fill="none" stroke="black" stroke-width="6" x1="0.0" y1="581.818" x2="-20" y2="581.818" />
<text transform="scale(1,-1)" text-anchor="end" font-family="sans-serif" font-size="30" x="-25" y="-571.818" >4000</text>
<line fill="none" stroke="black" stroke-width="6" x1="0.0" y1="654.545" x2="-20" y2="654.545" />
<text transform="scale(1,-1)" text-anchor="end" font-family="sans-serif" font-size="30" x="-25" y="-644.545" >4500</text>
<line fill="none" stroke="black" stroke-width="6" x1="0.0" y1="727.273" x2="-20" y2="727.273" />
<text transform="scale(1,-1)" text-anchor="end" font-family="sans-serif" font-size="30" x="-25" y="-717.273" >5000</text>
<line fill="none" stroke="black" stroke-width="6" x1="0.0" y1="800" x2="-20" y2="800" />
<text transform="scale(1,-1)" text-anchor="end" font-family="sans-serif" font-size="30" x="-25" y="-790" >5500</text>

-->
</g>
</g>
<!-- Run Constants
PRINTDISTANCEDATA bool true
GLITCHESONLY bool false
PERTURBBY double 0.05
GLITCHLEVEL double 3
BOUNDARYWINDOW double 0.065
STEPSPERFRAME int 100
TRIALS int 1
ALLBLACK bool true
FILEPREFIX string Fol
NIGGLISELLINGFIRST bool false
ENABLE DistanceEnableString 
DISABLE DistanceDisableString 
GRAPHSIZE int 0
BORDER int 0
PLOTSIZE int 0
AXISWIDTH int 6
TICLENGTH int 20
VECTOR g6 
FOLLOWERMODE FollowerMode point
FIXRANDOMSEED fixRandomSeed true
RANDOMSEED int 18
TIMESTAMP bool true
END end 


-->
</svg>
