<?xml version="1.0" standalone="no"?>
<!-- the width and height set the total pixel output of the image in the browser -->
<!-- whatever is within the viewbox will be remapped to show in this size -->
<svg width="900" height="800" viewBox="1 0 900 800"  version="1.1" xmlns="http://www.w3.org/2000/svg" xmlns:xlink="http://www.w3.org/1999/xlink">
 <desc>ID (and file name) = Fol_2018-05-16.16_22_52.41_40.svg </desc> 
<text x = "-750" y="50" transform="rotate(-90)"  font-family="sans-serif" font-size="40" stroke ="lightgray" fill="none"> PointDistanceFollower   May 16 2018</text>
 <text x="560" y="30" font-family="sans-serif" font-size="20">Wall time passed: 2015 msec.</text>
<text x="300" y="60"   font-family="sans-serif" font-size="20" fill="lightblue">S6  lightblue</text>
<text x="300" y="85"   font-family="sans-serif" font-size="20" fill="slategrey">NCDist  slategrey</text>
<text x="300" y="110"  font-family="sans-serif" font-size="20" fill="violet">D7  violet</text>
<text x="300" y="135"  font-family="sans-serif" font-size="20" fill="olive">CS6Dist  olive</text>

 <text x="140"  y="30"  font-family="sans-serif" font-size="20" >Fol_2018-05-16.16_22_52.41_40.svg  </text> 


 <!--DISTANCE PLOT BEGINS-->


<!-- the following will scale and place the distance plot -->
<g  transform="translate(0, 50) ">
<g transform="translate(150,700) scale(1 -1)">
<line fill="none" stroke="lightblue" stroke-width="12" x1="0" y1="207.224" x2="5.94059" y2="207.224" />
<line fill="none" stroke="lightblue" stroke-width="12" x1="5.94059" y1="207.224" x2="11.8812" y2="207.347" />
<line fill="none" stroke="lightblue" stroke-width="12" x1="11.8812" y1="207.347" x2="17.8218" y2="207.646" />
<line fill="none" stroke="lightblue" stroke-width="12" x1="17.8218" y1="207.646" x2="23.7624" y2="208.119" />
<line fill="none" stroke="lightblue" stroke-width="12" x1="23.7624" y1="208.119" x2="29.703" y2="208.767" />
<line fill="none" stroke="lightblue" stroke-width="12" x1="29.703" y1="208.767" x2="35.6436" y2="209.59" />
<line fill="none" stroke="lightblue" stroke-width="12" x1="35.6436" y1="209.59" x2="41.5842" y2="210.586" />
<line fill="none" stroke="lightblue" stroke-width="12" x1="41.5842" y1="210.586" x2="47.5248" y2="211.756" />
<line fill="none" stroke="lightblue" stroke-width="12" x1="47.5248" y1="211.756" x2="53.4653" y2="213.099" />
<line fill="none" stroke="lightblue" stroke-width="12" x1="53.4653" y1="213.099" x2="59.4059" y2="214.615" />
<line fill="none" stroke="lightblue" stroke-width="12" x1="59.4059" y1="214.615" x2="65.3465" y2="216.302" />
<line fill="none" stroke="lightblue" stroke-width="12" x1="65.3465" y1="216.302" x2="71.2871" y2="218.159" />
<line fill="none" stroke="lightblue" stroke-width="12" x1="71.2871" y1="218.159" x2="77.2277" y2="220.187" />
<line fill="none" stroke="lightblue" stroke-width="12" x1="77.2277" y1="220.187" x2="83.1683" y2="222.383" />
<line fill="none" stroke="lightblue" stroke-width="12" x1="83.1683" y1="222.383" x2="89.1089" y2="224.747" />
<line fill="none" stroke="lightblue" stroke-width="12" x1="89.1089" y1="224.747" x2="95.0495" y2="227.279" />
<line fill="none" stroke="lightblue" stroke-width="12" x1="95.0495" y1="227.279" x2="100.99" y2="229.975" />
<line fill="none" stroke="lightblue" stroke-width="12" x1="100.99" y1="229.975" x2="106.931" y2="232.836" />
<line fill="none" stroke="lightblue" stroke-width="12" x1="106.931" y1="232.836" x2="112.871" y2="235.861" />
<line fill="none" stroke="lightblue" stroke-width="12" x1="112.871" y1="235.861" x2="118.812" y2="239.047" />
<line fill="none" stroke="lightblue" stroke-width="12" x1="118.812" y1="239.047" x2="124.752" y2="234.628" />
<line fill="none" stroke="lightblue" stroke-width="12" x1="124.752" y1="234.628" x2="130.693" y2="230.091" />
<line fill="none" stroke="lightblue" stroke-width="12" x1="130.693" y1="230.091" x2="136.634" y2="225.706" />
<line fill="none" stroke="lightblue" stroke-width="12" x1="136.634" y1="225.706" x2="142.574" y2="221.477" />
<line fill="none" stroke="lightblue" stroke-width="12" x1="142.574" y1="221.477" x2="148.515" y2="217.405" />
<line fill="none" stroke="lightblue" stroke-width="12" x1="148.515" y1="217.405" x2="154.455" y2="213.491" />
<line fill="none" stroke="lightblue" stroke-width="12" x1="154.455" y1="213.491" x2="160.396" y2="209.737" />
<line fill="none" stroke="lightblue" stroke-width="12" x1="160.396" y1="209.737" x2="166.337" y2="206.146" />
<line fill="none" stroke="lightblue" stroke-width="12" x1="166.337" y1="206.146" x2="172.277" y2="202.719" />
<line fill="none" stroke="lightblue" stroke-width="12" x1="172.277" y1="202.719" x2="178.218" y2="199.457" />
<line fill="none" stroke="lightblue" stroke-width="12" x1="178.218" y1="199.457" x2="184.158" y2="196.361" />
<line fill="none" stroke="lightblue" stroke-width="12" x1="184.158" y1="196.361" x2="190.099" y2="193.434" />
<line fill="none" stroke="lightblue" stroke-width="12" x1="190.099" y1="193.434" x2="196.04" y2="190.677" />
<line fill="none" stroke="lightblue" stroke-width="12" x1="196.04" y1="190.677" x2="201.98" y2="188.091" />
<line fill="none" stroke="lightblue" stroke-width="12" x1="201.98" y1="188.091" x2="207.921" y2="185.678" />
<line fill="none" stroke="lightblue" stroke-width="12" x1="207.921" y1="185.678" x2="213.861" y2="183.438" />
<line fill="none" stroke="lightblue" stroke-width="12" x1="213.861" y1="183.438" x2="219.802" y2="181.372" />
<line fill="none" stroke="lightblue" stroke-width="12" x1="219.802" y1="181.372" x2="225.743" y2="179.483" />
<line fill="none" stroke="lightblue" stroke-width="12" x1="225.743" y1="179.483" x2="231.683" y2="177.77" />
<line fill="none" stroke="lightblue" stroke-width="12" x1="231.683" y1="177.77" x2="237.624" y2="176.235" />
<line fill="none" stroke="lightblue" stroke-width="12" x1="237.624" y1="176.235" x2="243.564" y2="174.878" />
<line fill="none" stroke="lightblue" stroke-width="12" x1="243.564" y1="174.878" x2="249.505" y2="173.7" />
<line fill="none" stroke="lightblue" stroke-width="12" x1="249.505" y1="173.7" x2="255.446" y2="172.702" />
<line fill="none" stroke="lightblue" stroke-width="12" x1="255.446" y1="172.702" x2="261.386" y2="171.885" />
<line fill="none" stroke="lightblue" stroke-width="12" x1="261.386" y1="171.885" x2="267.327" y2="171.247" />
<line fill="none" stroke="lightblue" stroke-width="12" x1="267.327" y1="171.247" x2="273.267" y2="170.791" />
<line fill="none" stroke="lightblue" stroke-width="12" x1="273.267" y1="170.791" x2="279.208" y2="170.517" />
<line fill="none" stroke="lightblue" stroke-width="12" x1="279.208" y1="170.517" x2="285.149" y2="170.423" />
<line fill="none" stroke="lightblue" stroke-width="12" x1="285.149" y1="170.423" x2="291.089" y2="170.511" />
<line fill="none" stroke="lightblue" stroke-width="12" x1="291.089" y1="170.511" x2="297.03" y2="170.78" />
<line fill="none" stroke="lightblue" stroke-width="12" x1="297.03" y1="170.78" x2="302.97" y2="156.785" />
<line fill="none" stroke="lightblue" stroke-width="12" x1="302.97" y1="156.785" x2="308.911" y2="148.849" />
<line fill="none" stroke="lightblue" stroke-width="12" x1="308.911" y1="148.849" x2="314.851" y2="141.072" />
<line fill="none" stroke="lightblue" stroke-width="12" x1="314.851" y1="141.072" x2="320.792" y2="133.46" />
<line fill="none" stroke="lightblue" stroke-width="12" x1="320.792" y1="133.46" x2="326.733" y2="126.015" />
<line fill="none" stroke="lightblue" stroke-width="12" x1="326.733" y1="126.015" x2="332.673" y2="118.742" />
<line fill="none" stroke="lightblue" stroke-width="12" x1="332.673" y1="118.742" x2="338.614" y2="111.645" />
<line fill="none" stroke="lightblue" stroke-width="12" x1="338.614" y1="111.645" x2="344.554" y2="104.727" />
<line fill="none" stroke="lightblue" stroke-width="12" x1="344.554" y1="104.727" x2="350.495" y2="97.9919" />
<line fill="none" stroke="lightblue" stroke-width="12" x1="350.495" y1="97.9919" x2="356.436" y2="91.4441" />
<line fill="none" stroke="lightblue" stroke-width="12" x1="356.436" y1="91.4441" x2="362.376" y2="85.0874" />
<line fill="none" stroke="lightblue" stroke-width="12" x1="362.376" y1="85.0874" x2="368.317" y2="78.9256" />
<line fill="none" stroke="lightblue" stroke-width="12" x1="368.317" y1="78.9256" x2="374.257" y2="72.9627" />
<line fill="none" stroke="lightblue" stroke-width="12" x1="374.257" y1="72.9627" x2="380.198" y2="67.2025" />
<line fill="none" stroke="lightblue" stroke-width="12" x1="380.198" y1="67.2025" x2="386.139" y2="61.6487" />
<line fill="none" stroke="lightblue" stroke-width="12" x1="386.139" y1="61.6487" x2="392.079" y2="56.3052" />
<line fill="none" stroke="lightblue" stroke-width="12" x1="392.079" y1="56.3052" x2="398.02" y2="51.1757" />
<line fill="none" stroke="lightblue" stroke-width="12" x1="398.02" y1="51.1757" x2="403.96" y2="63.3659" />
<line fill="none" stroke="lightblue" stroke-width="12" x1="403.96" y1="63.3659" x2="409.901" y2="65.9057" />
<line fill="none" stroke="lightblue" stroke-width="12" x1="409.901" y1="65.9057" x2="415.842" y2="68.6483" />
<line fill="none" stroke="lightblue" stroke-width="12" x1="415.842" y1="68.6483" x2="421.782" y2="71.5918" />
<line fill="none" stroke="lightblue" stroke-width="12" x1="421.782" y1="71.5918" x2="427.723" y2="74.7343" />
<line fill="none" stroke="lightblue" stroke-width="12" x1="427.723" y1="74.7343" x2="433.663" y2="78.0739" />
<line fill="none" stroke="lightblue" stroke-width="12" x1="433.663" y1="78.0739" x2="439.604" y2="81.6085" />
<line fill="none" stroke="lightblue" stroke-width="12" x1="439.604" y1="81.6085" x2="445.545" y2="85.3357" />
<line fill="none" stroke="lightblue" stroke-width="12" x1="445.545" y1="85.3357" x2="451.485" y2="89.2535" />
<line fill="none" stroke="lightblue" stroke-width="12" x1="451.485" y1="89.2535" x2="457.426" y2="93.186" />
<line fill="none" stroke="lightblue" stroke-width="12" x1="457.426" y1="93.186" x2="463.366" y2="96.8638" />
<line fill="none" stroke="lightblue" stroke-width="12" x1="463.366" y1="96.8638" x2="469.307" y2="100.73" />
<line fill="none" stroke="lightblue" stroke-width="12" x1="469.307" y1="100.73" x2="475.248" y2="104.783" />
<line fill="none" stroke="lightblue" stroke-width="12" x1="475.248" y1="104.783" x2="481.188" y2="109.02" />
<line fill="none" stroke="lightblue" stroke-width="12" x1="481.188" y1="109.02" x2="487.129" y2="113.438" />
<line fill="none" stroke="lightblue" stroke-width="12" x1="487.129" y1="113.438" x2="493.069" y2="118.035" />
<line fill="none" stroke="lightblue" stroke-width="12" x1="493.069" y1="118.035" x2="499.01" y2="122.809" />
<line fill="none" stroke="lightblue" stroke-width="12" x1="499.01" y1="122.809" x2="504.95" y2="127.757" />
<line fill="none" stroke="lightblue" stroke-width="12" x1="504.95" y1="127.757" x2="510.891" y2="132.876" />
<line fill="none" stroke="lightblue" stroke-width="12" x1="510.891" y1="132.876" x2="516.832" y2="138.164" />
<line fill="none" stroke="lightblue" stroke-width="12" x1="516.832" y1="138.164" x2="522.772" y2="143.618" />
<line fill="none" stroke="lightblue" stroke-width="12" x1="522.772" y1="143.618" x2="528.713" y2="149.236" />
<line fill="none" stroke="lightblue" stroke-width="12" x1="528.713" y1="149.236" x2="534.653" y2="155.014" />
<line fill="none" stroke="lightblue" stroke-width="12" x1="534.653" y1="155.014" x2="540.594" y2="160.95" />
<line fill="none" stroke="lightblue" stroke-width="12" x1="540.594" y1="160.95" x2="546.535" y2="167.041" />
<line fill="none" stroke="lightblue" stroke-width="12" x1="546.535" y1="167.041" x2="552.475" y2="173.284" />
<line fill="none" stroke="lightblue" stroke-width="12" x1="552.475" y1="173.284" x2="558.416" y2="179.677" />
<line fill="none" stroke="lightblue" stroke-width="12" x1="558.416" y1="179.677" x2="564.356" y2="183.861" />
<line fill="none" stroke="lightblue" stroke-width="12" x1="564.356" y1="183.861" x2="570.297" y2="188.213" />
<line fill="none" stroke="lightblue" stroke-width="12" x1="570.297" y1="188.213" x2="576.238" y2="192.728" />
<line fill="none" stroke="lightblue" stroke-width="12" x1="576.238" y1="192.728" x2="582.178" y2="197.402" />
<line fill="none" stroke="lightblue" stroke-width="12" x1="582.178" y1="197.402" x2="588.119" y2="202.235" />
<line fill="none" stroke="lightblue" stroke-width="12" x1="588.119" y1="202.235" x2="594.059" y2="207.224" />
<line fill="none" stroke="olive" stroke-width="3" x1="0" y1="292.514" x2="5.94059" y2="292.514" />
<line fill="none" stroke="olive" stroke-width="3" x1="5.94059" y1="292.514" x2="11.8812" y2="294.991" />
<line fill="none" stroke="olive" stroke-width="3" x1="11.8812" y1="294.991" x2="17.8218" y2="297.624" />
<line fill="none" stroke="olive" stroke-width="3" x1="17.8218" y1="297.624" x2="23.7624" y2="300.413" />
<line fill="none" stroke="olive" stroke-width="3" x1="23.7624" y1="300.413" x2="29.703" y2="303.355" />
<line fill="none" stroke="olive" stroke-width="3" x1="29.703" y1="303.355" x2="35.6436" y2="306.451" />
<line fill="none" stroke="olive" stroke-width="3" x1="35.6436" y1="306.451" x2="41.5842" y2="309.697" />
<line fill="none" stroke="olive" stroke-width="3" x1="41.5842" y1="309.697" x2="47.5248" y2="313.095" />
<line fill="none" stroke="olive" stroke-width="3" x1="47.5248" y1="313.095" x2="53.4653" y2="316.641" />
<line fill="none" stroke="olive" stroke-width="3" x1="53.4653" y1="316.641" x2="59.4059" y2="320.335" />
<line fill="none" stroke="olive" stroke-width="3" x1="59.4059" y1="320.335" x2="65.3465" y2="324.175" />
<line fill="none" stroke="olive" stroke-width="3" x1="65.3465" y1="324.175" x2="71.2871" y2="328.16" />
<line fill="none" stroke="olive" stroke-width="3" x1="71.2871" y1="328.16" x2="77.2277" y2="332.288" />
<line fill="none" stroke="olive" stroke-width="3" x1="77.2277" y1="332.288" x2="83.1683" y2="336.558" />
<line fill="none" stroke="olive" stroke-width="3" x1="83.1683" y1="336.558" x2="89.1089" y2="340.969" />
<line fill="none" stroke="olive" stroke-width="3" x1="89.1089" y1="340.969" x2="95.0495" y2="345.519" />
<line fill="none" stroke="olive" stroke-width="3" x1="95.0495" y1="345.519" x2="100.99" y2="350.206" />
<line fill="none" stroke="olive" stroke-width="3" x1="100.99" y1="350.206" x2="106.931" y2="355.028" />
<line fill="none" stroke="olive" stroke-width="3" x1="106.931" y1="355.028" x2="112.871" y2="359.985" />
<line fill="none" stroke="olive" stroke-width="3" x1="112.871" y1="359.985" x2="118.812" y2="365.074" />
<line fill="none" stroke="olive" stroke-width="3" x1="118.812" y1="365.074" x2="124.752" y2="370.294" />
<line fill="none" stroke="olive" stroke-width="3" x1="124.752" y1="370.294" x2="130.693" y2="375.643" />
<line fill="none" stroke="olive" stroke-width="3" x1="130.693" y1="375.643" x2="136.634" y2="381.119" />
<line fill="none" stroke="olive" stroke-width="3" x1="136.634" y1="381.119" x2="142.574" y2="386.722" />
<line fill="none" stroke="olive" stroke-width="3" x1="142.574" y1="386.722" x2="148.515" y2="392.448" />
<line fill="none" stroke="olive" stroke-width="3" x1="148.515" y1="392.448" x2="154.455" y2="398.297" />
<line fill="none" stroke="olive" stroke-width="3" x1="154.455" y1="398.297" x2="160.396" y2="404.267" />
<line fill="none" stroke="olive" stroke-width="3" x1="160.396" y1="404.267" x2="166.337" y2="410.355" />
<line fill="none" stroke="olive" stroke-width="3" x1="166.337" y1="410.355" x2="172.277" y2="416.561" />
<line fill="none" stroke="olive" stroke-width="3" x1="172.277" y1="416.561" x2="178.218" y2="422.882" />
<line fill="none" stroke="olive" stroke-width="3" x1="178.218" y1="422.882" x2="184.158" y2="429.318" />
<line fill="none" stroke="olive" stroke-width="3" x1="184.158" y1="429.318" x2="190.099" y2="435.798" />
<line fill="none" stroke="olive" stroke-width="3" x1="190.099" y1="435.798" x2="196.04" y2="442.277" />
<line fill="none" stroke="olive" stroke-width="3" x1="196.04" y1="442.277" x2="201.98" y2="448.867" />
<line fill="none" stroke="olive" stroke-width="3" x1="201.98" y1="448.867" x2="207.921" y2="455.565" />
<line fill="none" stroke="olive" stroke-width="3" x1="207.921" y1="455.565" x2="213.861" y2="462.371" />
<line fill="none" stroke="olive" stroke-width="3" x1="213.861" y1="462.371" x2="219.802" y2="469.283" />
<line fill="none" stroke="olive" stroke-width="3" x1="219.802" y1="469.283" x2="225.743" y2="476.298" />
<line fill="none" stroke="olive" stroke-width="3" x1="225.743" y1="476.298" x2="231.683" y2="483.416" />
<line fill="none" stroke="olive" stroke-width="3" x1="231.683" y1="483.416" x2="237.624" y2="490.635" />
<line fill="none" stroke="olive" stroke-width="3" x1="237.624" y1="490.635" x2="243.564" y2="497.953" />
<line fill="none" stroke="olive" stroke-width="3" x1="243.564" y1="497.953" x2="249.505" y2="505.368" />
<line fill="none" stroke="olive" stroke-width="3" x1="249.505" y1="505.368" x2="255.446" y2="512.88" />
<line fill="none" stroke="olive" stroke-width="3" x1="255.446" y1="512.88" x2="261.386" y2="520.485" />
<line fill="none" stroke="olive" stroke-width="3" x1="261.386" y1="520.485" x2="267.327" y2="528.184" />
<line fill="none" stroke="olive" stroke-width="3" x1="267.327" y1="528.184" x2="273.267" y2="535.974" />
<line fill="none" stroke="olive" stroke-width="3" x1="273.267" y1="535.974" x2="279.208" y2="543.853" />
<line fill="none" stroke="olive" stroke-width="3" x1="279.208" y1="543.853" x2="285.149" y2="551.821" />
<line fill="none" stroke="olive" stroke-width="3" x1="285.149" y1="551.821" x2="291.089" y2="559.876" />
<line fill="none" stroke="olive" stroke-width="3" x1="291.089" y1="559.876" x2="297.03" y2="568.016" />
<line fill="none" stroke="olive" stroke-width="3" x1="297.03" y1="568.016" x2="302.97" y2="561.944" />
<line fill="none" stroke="olive" stroke-width="3" x1="302.97" y1="561.944" x2="308.911" y2="554.438" />
<line fill="none" stroke="olive" stroke-width="3" x1="308.911" y1="554.438" x2="314.851" y2="547.05" />
<line fill="none" stroke="olive" stroke-width="3" x1="314.851" y1="547.05" x2="320.792" y2="539.782" />
<line fill="none" stroke="olive" stroke-width="3" x1="320.792" y1="539.782" x2="326.733" y2="532.637" />
<line fill="none" stroke="olive" stroke-width="3" x1="326.733" y1="532.637" x2="332.673" y2="525.616" />
<line fill="none" stroke="olive" stroke-width="3" x1="332.673" y1="525.616" x2="338.614" y2="518.721" />
<line fill="none" stroke="olive" stroke-width="3" x1="338.614" y1="518.721" x2="344.554" y2="511.955" />
<line fill="none" stroke="olive" stroke-width="3" x1="344.554" y1="511.955" x2="350.495" y2="505.318" />
<line fill="none" stroke="olive" stroke-width="3" x1="350.495" y1="505.318" x2="356.436" y2="498.813" />
<line fill="none" stroke="olive" stroke-width="3" x1="356.436" y1="498.813" x2="362.376" y2="492.442" />
<line fill="none" stroke="olive" stroke-width="3" x1="362.376" y1="492.442" x2="368.317" y2="486.207" />
<line fill="none" stroke="olive" stroke-width="3" x1="368.317" y1="486.207" x2="374.257" y2="480.11" />
<line fill="none" stroke="olive" stroke-width="3" x1="374.257" y1="480.11" x2="380.198" y2="474.151" />
<line fill="none" stroke="olive" stroke-width="3" x1="380.198" y1="474.151" x2="386.139" y2="468.335" />
<line fill="none" stroke="olive" stroke-width="3" x1="386.139" y1="468.335" x2="392.079" y2="462.661" />
<line fill="none" stroke="olive" stroke-width="3" x1="392.079" y1="462.661" x2="398.02" y2="457.133" />
<line fill="none" stroke="olive" stroke-width="3" x1="398.02" y1="457.133" x2="403.96" y2="129.395" />
<line fill="none" stroke="olive" stroke-width="3" x1="403.96" y1="129.395" x2="409.901" y2="130.021" />
<line fill="none" stroke="olive" stroke-width="3" x1="409.901" y1="130.021" x2="415.842" y2="130.843" />
<line fill="none" stroke="olive" stroke-width="3" x1="415.842" y1="130.843" x2="421.782" y2="131.86" />
<line fill="none" stroke="olive" stroke-width="3" x1="421.782" y1="131.86" x2="427.723" y2="133.072" />
<line fill="none" stroke="olive" stroke-width="3" x1="427.723" y1="133.072" x2="433.663" y2="134.479" />
<line fill="none" stroke="olive" stroke-width="3" x1="433.663" y1="134.479" x2="439.604" y2="136.079" />
<line fill="none" stroke="olive" stroke-width="3" x1="439.604" y1="136.079" x2="445.545" y2="137.872" />
<line fill="none" stroke="olive" stroke-width="3" x1="445.545" y1="137.872" x2="451.485" y2="139.856" />
<line fill="none" stroke="olive" stroke-width="3" x1="451.485" y1="139.856" x2="457.426" y2="142.031" />
<line fill="none" stroke="olive" stroke-width="3" x1="457.426" y1="142.031" x2="463.366" y2="144.394" />
<line fill="none" stroke="olive" stroke-width="3" x1="463.366" y1="144.394" x2="469.307" y2="146.946" />
<line fill="none" stroke="olive" stroke-width="3" x1="469.307" y1="146.946" x2="475.248" y2="149.684" />
<line fill="none" stroke="olive" stroke-width="3" x1="475.248" y1="149.684" x2="481.188" y2="152.606" />
<line fill="none" stroke="olive" stroke-width="3" x1="481.188" y1="152.606" x2="487.129" y2="155.712" />
<line fill="none" stroke="olive" stroke-width="3" x1="487.129" y1="155.712" x2="493.069" y2="159" />
<line fill="none" stroke="olive" stroke-width="3" x1="493.069" y1="159" x2="499.01" y2="162.467" />
<line fill="none" stroke="olive" stroke-width="3" x1="499.01" y1="162.467" x2="504.95" y2="166.113" />
<line fill="none" stroke="olive" stroke-width="3" x1="504.95" y1="166.113" x2="510.891" y2="169.934" />
<line fill="none" stroke="olive" stroke-width="3" x1="510.891" y1="169.934" x2="516.832" y2="173.93" />
<line fill="none" stroke="olive" stroke-width="3" x1="516.832" y1="173.93" x2="522.772" y2="178.097" />
<line fill="none" stroke="olive" stroke-width="3" x1="522.772" y1="178.097" x2="528.713" y2="182.435" />
<line fill="none" stroke="olive" stroke-width="3" x1="528.713" y1="182.435" x2="534.653" y2="186.248" />
<line fill="none" stroke="olive" stroke-width="3" x1="534.653" y1="186.248" x2="540.594" y2="190.132" />
<line fill="none" stroke="olive" stroke-width="3" x1="540.594" y1="190.132" x2="546.535" y2="194.186" />
<line fill="none" stroke="olive" stroke-width="3" x1="546.535" y1="194.186" x2="552.475" y2="198.409" />
<line fill="none" stroke="olive" stroke-width="3" x1="552.475" y1="198.409" x2="558.416" y2="202.798" />
<line fill="none" stroke="olive" stroke-width="3" x1="558.416" y1="202.798" x2="564.356" y2="304.06" />
<line fill="none" stroke="olive" stroke-width="3" x1="564.356" y1="304.06" x2="570.297" y2="301.433" />
<line fill="none" stroke="olive" stroke-width="3" x1="570.297" y1="301.433" x2="576.238" y2="298.965" />
<line fill="none" stroke="olive" stroke-width="3" x1="576.238" y1="298.965" x2="582.178" y2="296.654" />
<line fill="none" stroke="olive" stroke-width="3" x1="582.178" y1="296.654" x2="588.119" y2="294.504" />
<line fill="none" stroke="olive" stroke-width="3" x1="588.119" y1="294.504" x2="594.059" y2="292.514" />

<!--Draw Glitches -->

<line fill="none" stroke="black" stroke-width="4" x1="403.96" y1="119.395" x2="403.96" y2="69.3954"  stroke-dasharray = "10,5" />
<text transform="scale(1,-1)" font-family="sans-serif" font-size="30" stroke = "rgb(0,0,0)" line = "rgb(0,0,0)"  fill = "olive" x="408.96" y="-69.3954" >67</text>

<!-- -->


<!--Draw the X and Y axes -->
<polyline fill="none" stroke="black" stroke-width="6"  points=" 600,0 0,0 0, 600" />
<polyline fill="none" stroke="black" stroke-width="1"  points=" 0 600  600 600  600 0" />
<!-- -->


<!--Draw labels and tics for X axis -->

<line fill="none" stroke="black"  stroke-width="6"  x1="0.5" y1="0" x2="0.5" y2="-20" />
<text transform="scale(1,-1)" font-family="sans-serif" font-size="30" x="-24.5" y="45" >0</text>
<line fill="none" stroke="black"  stroke-width="6"  x1="119.312" y1="0" x2="119.312" y2="-20" />
<text transform="scale(1,-1)" font-family="sans-serif" font-size="30" x="94.3119" y="45" >20</text>
<line fill="none" stroke="black"  stroke-width="6"  x1="238.124" y1="0" x2="238.124" y2="-20" />
<text transform="scale(1,-1)" font-family="sans-serif" font-size="30" x="213.124" y="45" >40</text>
<line fill="none" stroke="black"  stroke-width="6"  x1="356.936" y1="0" x2="356.936" y2="-20" />
<text transform="scale(1,-1)" font-family="sans-serif" font-size="30" x="331.936" y="45" >60</text>
<line fill="none" stroke="black"  stroke-width="6"  x1="475.748" y1="0" x2="475.748" y2="-20" />
<text transform="scale(1,-1)" font-family="sans-serif" font-size="30" x="450.748" y="45" >80</text>
<line fill="none" stroke="black"  stroke-width="6"  x1="594.559" y1="0" x2="594.559" y2="-20" />
<text transform="scale(1,-1)" font-family="sans-serif" font-size="30" x="569.559" y="45" >100</text>


<!--Draw labels and tics for Y axis -->

<line fill="none" stroke="black" stroke-width="6" x1="0.0" y1="0" x2="-20" y2="0" />
<text transform="scale(1,-1)" text-anchor="end" font-family="sans-serif" font-size="30" x="-25" y="10" >20</text>
<line fill="none" stroke="black" stroke-width="6" x1="0.0" y1="85.7143" x2="-20" y2="85.7143" />
<text transform="scale(1,-1)" text-anchor="end" font-family="sans-serif" font-size="30" x="-25" y="-75.7143" >22</text>
<line fill="none" stroke="black" stroke-width="6" x1="0.0" y1="171.429" x2="-20" y2="171.429" />
<text transform="scale(1,-1)" text-anchor="end" font-family="sans-serif" font-size="30" x="-25" y="-161.429" >24</text>
<line fill="none" stroke="black" stroke-width="6" x1="0.0" y1="257.143" x2="-20" y2="257.143" />
<text transform="scale(1,-1)" text-anchor="end" font-family="sans-serif" font-size="30" x="-25" y="-247.143" >26</text>
<line fill="none" stroke="black" stroke-width="6" x1="0.0" y1="342.857" x2="-20" y2="342.857" />
<text transform="scale(1,-1)" text-anchor="end" font-family="sans-serif" font-size="30" x="-25" y="-332.857" >28</text>
<line fill="none" stroke="black" stroke-width="6" x1="0.0" y1="428.571" x2="-20" y2="428.571" />
<text transform="scale(1,-1)" text-anchor="end" font-family="sans-serif" font-size="30" x="-25" y="-418.571" >30</text>
<line fill="none" stroke="black" stroke-width="6" x1="0.0" y1="514.286" x2="-20" y2="514.286" />
<text transform="scale(1,-1)" text-anchor="end" font-family="sans-serif" font-size="30" x="-25" y="-504.286" >32</text>
<line fill="none" stroke="black" stroke-width="6" x1="0.0" y1="600" x2="-20" y2="600" />
<text transform="scale(1,-1)" text-anchor="end" font-family="sans-serif" font-size="30" x="-25" y="-590" >34</text>

-->
</g>
</g>
<!-- Run Constants
PRINTDISTANCEDATA bool true
GLITCHESONLY bool true
PLOT 2doubles 3 4
PERTURBBY double 0.05
GLITCHLEVEL double 3
BOUNDARYWINDOW double 0.065
FRAMESPERPATH int 200
STEPSPERFRAME int 100
TRIALS int 1
ALLBLACK bool true
FILEPREFIX string Fol
GRAPHSIZE int 0
BORDER int 0
PLOTSIZE int 0
G6LINEWIDTH int 3
DELONELINEWIDTH int 10
AXISWIDTH int 6
TICLENGTH int 20
VECTOR g6 
FOLLOWERMODE FollowerMode line
FIXRANDOMSEED fixRandomSeed false
RANDOMSEED int 19191
TIMESTAMP bool true
END end 




-->
</svg>
