<?xml version="1.0" standalone="no"?>
<!-- the width and height set the total pixel output of the image in the browser -->
<!-- whatever is within the viewbox will be remapped to show in this size -->
<svg width="1000" height="1000" viewBox="1 0 1000 1000"  version="1.1" xmlns="http://www.w3.org/2000/svg" xmlns:xlink="http://www.w3.org/1999/xlink">
 <desc>ID (and file name) = Fol_2018-05-14.13_13_02.85_84.svg </desc> 
 <text x="560" y="30" font-family="sans-serif" font-size="20">Wall time passed: 11608 msec.</text>
<text x="300" y="60"   font-family="sans-serif" font-size="20" fill="lightblue">S6  lightblue</text>
<text x="300" y="85"   font-family="sans-serif" font-size="20" fill="slategrey">NCDist  slategrey</text>
<text x="300" y="110"  font-family="sans-serif" font-size="20" fill="violet">D7  violet</text>
<text x="300" y="135"  font-family="sans-serif" font-size="20" fill="olive">CS6Dist  olive</text>

 <text x="140"  y="30"  font-family="sans-serif" font-size="20" >Fol_2018-05-14.13_13_02.85_84.svg  </text> 


 <!--DISTANCE PLOT BEGINS-->


<!-- the following will scale and place the distance plot -->
<g  transform="translate(0,50) ">
<g transform="translate(150,700) scale(1 -1)">
   <polyline fill="none" stroke=" lightblue " stroke-width=" 12 " points=" 0.6,121.734 1.2,119.909 1.8,118.098 2.4,116.3 3,114.517 3.6,112.747 4.2,110.992 4.8,109.25 5.4,107.523 6,105.81 6.6,104.112 7.2,102.428 7.8,100.758 8.4,99.1034 9,97.4633 9.6,95.838 10.2,94.2275 10.8,92.6321 11.4,91.0517 12,89.4864 12.6,87.9364 13.2,86.4017 13.8,84.8823 14.4,83.3785 15,81.8902 15.6,80.4175 16.2,78.9606 16.8,77.5194 17.4,76.0942 18,74.6849 18.6,73.2917 19.2,71.9146 19.8,70.5537 20.4,69.209 21,67.8808 21.6,66.569 22.2,65.2737 22.8,63.995 23.4,62.733 24,61.4877 24.6,60.2593 25.2,59.0478 25.8,57.8532 26.4,56.6758 27,55.5154 27.6,54.3722 28.2,53.2463 28.8,52.1378 29.4,51.0466 30,49.973 30.6,48.9169 31.2,47.8784 31.8,46.8576 32.4,45.8546 33,44.8694 33.6,43.9021 34.2,42.9527 34.8,42.0214 35.4,41.1081 36,40.213 36.6,39.336 37.2,38.4774 37.8,37.637 38.4,36.815 39,36.0115 39.6,35.2264 40.2,34.4599 40.8,33.712 41.4,32.9827 42,32.2722 42.6,31.5804 43.2,30.9074 43.8,30.2532 44.4,29.6179 45,29.0016 45.6,28.4043 46.2,27.8259 46.8,27.2667 47.4,26.7265 48,26.2056 48.6,25.7038 49.2,25.2212 49.8,24.7578 50.4,24.3138 51,23.8891 51.6,23.4838 52.2,23.0978 52.8,22.7312 53.4,22.3841 54,22.0565 54.6,21.7483 55.2,21.4597 55.8,21.1906 56.4,20.9411 57,20.7111 57.6,20.5007 58.2,20.3099 58.8,20.1388 59.4,19.9873 60,19.8554 60.6,19.7432 61.2,19.6507 61.8,19.5778 62.4,19.5246 63,19.4911 63.6,19.4773 64.2,19.4831 64.8,19.5087 65.4,19.5539 66,19.6188 66.6,19.7034 67.2,19.8077 67.8,19.9316 68.4,20.0751 69,20.2383 69.6,20.4211 70.2,20.6236 70.8,20.8456 71.4,21.0873 72,21.3484 72.6,21.6292 73.2,21.9294 73.8,22.2492 74.4,22.5884 75,22.9471 75.6,23.3252 76.2,23.7227 76.8,24.1396 77.4,24.5758 78,25.0313 78.6,25.5061 79.2,26.0002 79.8,26.5134 80.4,27.0458 81,27.5973 81.6,28.1679 82.2,28.7576 82.8,29.3662 83.4,29.9938 84,30.6403 84.6,31.3057 85.2,31.9899 85.8,32.6929 86.4,33.4146 87,34.155 87.6,34.914 88.2,35.6915 88.8,36.4876 89.4,37.3021 90,38.135 90.6,38.9863 91.2,39.8558 91.8,40.7436 92.4,41.6496 93,42.5736 93.6,43.5157 94.2,44.4757 94.8,45.4537 95.4,46.4495 96,47.4632 96.6,48.4945 97.2,49.5435 97.8,50.61 98.4,51.6941 99,52.7956 99.6,53.9145 100.2,55.0507 100.8,56.2041 101.4,57.3746 102,58.5623 102.6,59.7669 103.2,60.9885 103.8,62.227 104.4,63.4822 105,64.7542 105.6,66.0428 106.2,67.3479 106.8,68.6695 107.4,70.0075 108,71.3618 108.6,72.7324 109.2,74.1191 109.8,75.5219 110.4,76.9407 111,78.3754 111.6,79.826 112.2,81.2923 112.8,82.7742 113.4,84.2718 114,85.7849 114.6,87.3134 115.2,88.8572 115.8,90.4163 116.4,91.9906 117,93.58 117.6,95.1844 118.2,96.8037 118.8,98.4378 119.4,100.087 120,101.75 120.6,103.428 121.2,105.121 121.8,106.828 122.4,108.55 123,110.285 123.6,112.035 124.2,113.799 124.8,115.577 125.4,117.369 126,119.174 126.6,120.994 127.2,122.827 127.8,124.673 128.4,126.534 129,128.407 129.6,130.294 130.2,132.194 130.8,134.107 131.4,136.033 132,137.973 132.6,139.925 133.2,141.89 133.8,143.868 134.4,145.858 135,147.861 135.6,149.876 136.2,151.904 136.8,153.944 137.4,155.996 138,158.061 138.6,160.138 139.2,162.226 139.8,164.327 140.4,166.439 141,168.563 141.6,170.699 142.2,172.846 142.8,175.005 143.4,177.175 144,179.357 144.6,181.55 145.2,183.754 145.8,185.969 146.4,188.195 147,190.433 147.6,192.681 148.2,194.94 148.8,197.209 149.4,199.49 150,201.78 150.6,204.082 151.2,206.394 151.8,208.716 152.4,211.048 153,213.391 153.6,215.744 154.2,218.107 154.8,220.48 155.4,222.862 156,225.255 156.6,227.657 157.2,230.07 157.8,232.491 158.4,234.923 159,237.363 159.6,239.814 160.2,242.273 160.8,244.742 161.4,247.22 162,249.708 162.6,252.204 163.2,254.709 163.8,257.224 164.4,259.747 165,262.279 165.6,264.82 166.2,267.369 166.8,269.927 167.4,272.494 168,275.069 168.6,277.653 169.2,280.245 169.8,282.845 170.4,285.453 171,288.07 171.6,290.695 172.2,293.328 172.8,295.969 173.4,298.618 174,301.274 174.6,303.939 175.2,306.611 175.8,309.291 176.4,311.979 177,314.674 177.6,317.377 178.2,320.088 178.8,322.805 179.4,325.53 180,328.263 180.6,331.003 181.2,333.749 181.8,336.504 182.4,339.265 183,342.033 183.6,344.808 184.2,347.59 184.8,350.379 185.4,353.175 186,355.978 186.6,358.787 187.2,361.603 187.8,364.426 188.4,367.256 189,370.091 189.6,372.934 190.2,375.782 190.8,378.638 191.4,381.499 192,384.367 192.6,387.241 193.2,390.121 193.8,393.008 194.4,395.9 195,398.799 195.6,401.703 196.2,403.257 196.8,403.733 197.4,404.227 198,404.738 198.6,405.267 199.2,405.812 199.8,406.376 200.4,406.956 201,407.554 201.6,408.168 202.2,408.8 202.8,409.449 203.4,410.116 204,410.799 204.6,411.5 205.2,412.217 205.8,412.952 206.4,413.703 207,414.472 207.6,415.257 208.2,416.059 208.8,416.878 209.4,417.714 210,418.567 210.6,419.436 211.2,420.322 211.8,421.225 212.4,422.144 213,423.08 213.6,424.033 214.2,425.002 214.8,425.987 215.4,426.989 216,428.007 216.6,429.042 217.2,430.093 217.8,431.16 218.4,432.243 219,433.343 219.6,434.459 220.2,435.59 220.8,436.738 221.4,437.902 222,439.082 222.6,440.277 223.2,441.489 223.8,442.716 224.4,443.959 225,445.218 225.6,446.492 226.2,447.782 226.8,449.087 227.4,450.408 228,451.745 228.6,453.097 229.2,454.464 229.8,455.847 230.4,457.244 231,458.657 231.6,460.085 232.2,461.529 232.8,462.987 233.4,464.46 234,465.948 234.6,467.451 235.2,468.969 235.8,470.502 236.4,472.049 237,473.611 237.6,475.188 238.2,476.779 238.8,478.384 239.4,480.004 240,481.639 240.6,483.288 241.2,484.951 241.8,486.628 242.4,488.319 243,490.025 243.6,491.744 244.2,493.478 244.8,495.225 245.4,496.986 246,498.761 246.6,500.55 247.2,502.352 247.8,504.169 248.4,505.998 249,507.841 249.6,509.698 250.2,511.568 250.8,513.451 251.4,515.348 252,517.258 252.6,519.181 253.2,521.117 253.8,523.066 254.4,525.028 255,527.003 255.6,528.991 256.2,530.992 256.8,533.006 257.4,533.43 258,532.06 258.6,530.705 259.2,529.364 259.8,528.037 260.4,526.726 261,525.428 261.6,524.146 262.2,522.878 262.8,521.625 263.4,520.386 264,519.163 264.6,517.954 265.2,516.76 265.8,515.581 266.4,514.417 267,512.93 267.6,510.638 268.2,508.358 268.8,506.091 269.4,503.835 270,501.592 270.6,499.361 271.2,497.142 271.8,494.936 272.4,492.742 273,490.56 273.6,488.392 274.2,486.235 274.8,484.092 275.4,481.961 276,479.844 276.6,477.739 277.2,475.647 277.8,473.568 278.4,471.503 279,469.45 279.6,467.411 280.2,465.385 280.8,463.373 281.4,461.373 282,459.388 282.6,457.416 283.2,455.458 283.8,453.513 284.4,451.582 285,449.665 285.6,447.762 286.2,445.873 286.8,443.998 287.4,442.137 288,440.29 288.6,438.458 289.2,436.64 289.8,434.836 290.4,433.046 291,431.272 291.6,429.511 292.2,427.765 292.8,426.034 293.4,424.318 294,422.617 294.6,420.93 295.2,419.259 295.8,417.602 296.4,415.96 297,414.334 297.6,412.723 298.2,411.127 298.8,409.546 299.4,407.981 300,406.431 300.6,404.897 301.2,403.378 301.8,401.875 302.4,400.388 303,398.916 303.6,397.461 304.2,396.021 304.8,394.597 305.4,393.189 306,391.797 306.6,390.421 307.2,389.061 307.8,387.718 308.4,386.391 309,385.08 309.6,383.785 310.2,382.507 310.8,381.246 311.4,380.001 312,378.773 312.6,377.561 313.2,376.366 313.8,375.188 314.4,374.027 315,372.882 315.6,371.755 316.2,370.644 316.8,369.55 317.4,368.474 318,367.415 318.6,366.373 319.2,365.348 319.8,364.34 320.4,363.35 321,362.377 321.6,361.421 322.2,360.483 322.8,359.562 323.4,358.659 324,357.773 324.6,356.906 325.2,356.055 325.8,355.223 326.4,354.408 327,353.611 327.6,352.832 328.2,352.07 328.8,351.327 329.4,350.601 330,349.894 330.6,349.204 331.2,348.532 331.8,347.879 332.4,347.243 333,346.626 333.6,346.027 334.2,345.446 334.8,344.883 335.4,344.339 336,343.813 336.6,343.305 337.2,342.815 337.8,342.344 338.4,341.891 339,341.456 339.6,341.04 340.2,340.642 340.8,340.263 341.4,339.902 342,339.56 342.6,339.236 343.2,338.931 343.8,338.645 344.4,338.376 345,338.127 345.6,337.896 346.2,337.683 346.8,337.49 347.4,337.314 348,337.158 348.6,337.02 349.2,336.9 349.8,336.8 350.4,336.718 351,336.654 351.6,336.61 352.2,336.584 352.8,336.576 353.4,336.587 354,336.617 354.6,336.666 355.2,336.733 355.8,336.819 356.4,336.923 357,337.046 357.6,337.188 358.2,337.349 358.8,337.528 359.4,337.725 360,337.941 360.6,338.176 361.2,338.43 361.8,338.702 362.4,338.992 363,339.301 363.6,339.629 364.2,339.975 364.8,340.339 365.4,340.722 366,341.124 366.6,341.544 367.2,341.982 367.8,342.439 368.4,342.914 369,343.407 369.6,343.919 370.2,344.449 370.8,344.997 371.4,345.563 372,346.148 372.6,346.751 373.2,347.372 373.8,348.011 374.4,348.668 375,349.343 375.6,350.037 376.2,350.748 376.8,351.477 377.4,352.224 378,352.989 378.6,353.772 379.2,354.573 379.8,355.391 380.4,356.228 381,357.082 381.6,357.953 382.2,358.842 382.8,359.749 383.4,360.673 384,361.615 384.6,362.574 385.2,363.551 385.8,364.545 386.4,365.556 387,366.584 387.6,367.63 388.2,368.693 388.8,369.773 389.4,370.87 390,371.984 390.6,373.115 391.2,374.263 391.8,375.427 392.4,376.609 393,377.807 393.6,379.022 394.2,380.254 394.8,381.502 395.4,382.767 396,382.791 396.6,380.827 397.2,378.867 397.8,376.912 398.4,374.961 399,373.014 399.6,371.071 400.2,369.133 400.8,367.199 401.4,365.269 402,363.344 402.6,361.423 403.2,359.507 403.8,357.595 404.4,355.687 405,353.784 405.6,351.886 406.2,349.992 406.8,348.103 407.4,346.218 408,344.338 408.6,342.462 409.2,340.592 409.8,338.726 410.4,336.864 411,335.007 411.6,333.156 412.2,331.309 412.8,329.466 413.4,327.629 414,325.796 414.6,323.969 415.2,322.146 415.8,320.328 416.4,318.515 417,316.707 417.6,314.904 418.2,313.106 418.8,311.313 419.4,309.526 420,307.743 420.6,305.966 421.2,304.193 421.8,302.426 422.4,300.664 423,298.908 423.6,297.156 424.2,295.41 424.8,293.669 425.4,291.934 426,290.204 426.6,288.479 427.2,286.76 427.8,285.046 428.4,283.337 429,281.635 429.6,279.937 430.2,278.245 430.8,276.559 431.4,274.879 432,273.204 432.6,271.534 433.2,269.871 433.8,268.213 434.4,266.561 435,264.914 435.6,263.274 436.2,261.639 436.8,260.01 437.4,258.387 438,256.77 438.6,255.159 439.2,253.554 439.8,251.955 440.4,250.362 441,248.775 441.6,247.194 442.2,245.619 442.8,244.05 443.4,242.488 444,240.931 444.6,239.381 445.2,237.838 445.8,236.3 446.4,234.769 447,233.244 447.6,231.725 448.2,230.213 448.8,228.707 449.4,227.208 450,225.716 450.6,224.229 451.2,222.75 451.8,221.277 452.4,219.81 453,218.35 453.6,216.897 454.2,215.451 454.8,214.011 455.4,212.578 456,211.152 456.6,209.732 457.2,208.32 457.8,206.914 458.4,205.515 459,204.124 459.6,202.739 460.2,201.361 460.8,199.99 461.4,198.626 462,197.27 462.6,195.92 463.2,194.578 463.8,193.242 464.4,191.914 465,190.594 465.6,189.28 466.2,187.974 466.8,186.675 467.4,185.383 468,184.099 468.6,182.823 469.2,181.553 469.8,180.292 470.4,179.037 471,177.79 471.6,176.551 472.2,175.32 472.8,174.096 473.4,172.879 474,171.671 474.6,170.47 475.2,169.277 475.8,168.091 476.4,166.914 477,165.744 477.6,164.582 478.2,163.428 478.8,162.282 479.4,161.144 480,160.014 480.6,158.892 481.2,157.778 481.8,156.672 482.4,155.574 483,154.484 483.6,153.403 484.2,152.329 484.8,151.264 485.4,150.207 486,149.159 486.6,148.118 487.2,147.086 487.8,146.063 488.4,145.047 489,144.04 489.6,143.042 490.2,142.052 490.8,141.071 491.4,140.098 492,139.133 492.6,138.178 493.2,137.23 493.8,136.292 494.4,135.362 495,134.441 495.6,133.528 496.2,132.625 496.8,131.73 497.4,130.844 498,129.966 498.6,129.098 499.2,128.238 499.8,127.388 500.4,126.546 501,125.713 501.6,124.889 502.2,124.074 502.8,123.269 503.4,122.472 504,121.684 504.6,120.906 505.2,120.136 505.8,119.376 506.4,118.625 507,117.883 507.6,117.15 508.2,116.427 508.8,115.712 509.4,115.007 510,114.312 510.6,113.626 511.2,112.949 511.8,112.281 512.4,111.623 513,110.974 513.6,110.335 514.2,109.705 514.8,109.085 515.4,108.474 516,107.872 516.6,107.281 517.2,106.698 517.8,106.126 518.4,105.563 519,105.009 519.6,104.465 520.2,103.931 520.8,103.407 521.4,102.892 522,102.387 522.6,101.891 523.2,101.406 523.8,100.93 524.4,100.464 525,100.007 525.6,99.5609 526.2,99.1242 526.8,98.6973 527.4,98.2803 528,97.8731 528.6,97.4759 529.2,97.0885 529.8,96.711 530.4,96.3434 531,95.9857 531.6,95.638 532.2,95.3003 532.8,94.9725 533.4,94.6547 534,94.3468 534.6,94.049 535.2,93.7612 535.8,93.4834 536.4,93.2156 537,92.9579 537.6,92.7102 538.2,92.4726 538.8,92.245 539.4,92.0275 540,91.8201 540.6,91.6227 541.2,91.4355 541.8,91.2584 542.4,91.0913 543,90.9344 543.6,90.7876 544.2,90.651 544.8,90.5244 545.4,90.408 546,90.3017 546.6,90.2056 547.2,90.1196 547.8,90.0437 548.4,89.9781 549,89.9225 549.6,89.8771 550.2,89.8419 550.8,89.8168 551.4,89.8019 552,89.7972 552.6,89.8026 553.2,89.8181 553.8,89.8438 554.4,89.8797 555,89.9257 555.6,89.9819 556.2,90.0483 556.8,90.1248 557.4,90.2114 558,90.3082 558.6,90.4151 559.2,90.5322 559.8,90.6594 560.4,90.7967 561,90.9441 561.6,91.1017 562.2,91.2693 562.8,91.4471 563.4,91.635 564,91.833 564.6,92.041 565.2,92.2592 565.8,92.4874 566.4,92.7257 567,92.974 567.6,93.2324 568.2,93.5008 568.8,93.7792 569.4,94.0677 570,94.3661 570.6,94.6746 571.2,94.9931 571.8,95.3215 572.4,95.6599 573,96.0082 573.6,96.3665 574.2,96.7347 574.8,97.1128 575.4,97.5009 576,97.8988 576.6,98.3066 577.2,98.7242 577.8,99.1517 578.4,99.5891 579,100.036 579.6,100.493 580.2,100.96 580.8,101.436 581.4,101.923 582,102.419 582.6,102.924 583.2,103.44 583.8,103.965 584.4,104.5 585,105.044 585.6,105.598 586.2,106.162 586.8,106.735 587.4,107.318 588,107.91 588.6,108.512 589.2,109.124 589.8,109.745 590.4,110.375 591,111.015 591.6,111.665 592.2,112.323 592.8,112.991 593.4,113.669 594,114.356 594.6,115.052 595.2,115.758 595.8,116.472 596.4,117.196 597,117.93 597.6,118.672 598.2,119.424 598.8,120.185 599.4,120.955 600,121.734 " />
   <polyline fill="none" stroke=" slategrey " stroke-width=" 9 " points=" " />
   <polyline fill="none" stroke=" violet " stroke-width=" 6 " points=" " />
   <polyline fill="none" stroke=" olive " stroke-width=" 3 " points=" 0.6,121.734 1.2,119.909 1.8,118.098 2.4,116.3 3,114.517 3.6,112.747 4.2,110.992 4.8,109.25 5.4,107.523 6,105.81 6.6,104.112 7.2,102.428 7.8,100.758 8.4,99.1034 9,97.4633 9.6,95.838 10.2,94.2275 10.8,92.6321 11.4,91.0517 12,89.4864 12.6,87.9364 13.2,86.4017 13.8,84.8823 14.4,83.3785 15,81.8902 15.6,80.4175 16.2,78.9606 16.8,77.5194 17.4,76.0942 18,74.6849 18.6,73.2917 19.2,71.9146 19.8,70.5537 20.4,69.209 21,67.8808 21.6,66.569 22.2,65.2737 22.8,63.995 23.4,62.733 24,61.4877 24.6,60.2593 25.2,59.0478 25.8,57.8532 26.4,56.6758 27,55.5154 27.6,54.3722 28.2,53.2463 28.8,52.1378 29.4,51.0466 30,49.973 30.6,48.9169 31.2,47.8784 31.8,46.8576 32.4,45.8546 33,44.8694 33.6,43.9021 34.2,42.9527 34.8,42.0214 35.4,41.1081 36,40.213 36.6,39.336 37.2,38.4774 37.8,37.637 38.4,36.815 39,36.0115 39.6,35.2264 40.2,34.4599 40.8,33.712 41.4,32.9827 42,32.2722 42.6,31.5804 43.2,30.9074 43.8,30.2532 44.4,29.6179 45,29.0016 45.6,28.4043 46.2,27.8259 46.8,27.2667 47.4,26.7265 48,26.2056 48.6,25.7038 49.2,25.2212 49.8,24.7578 50.4,24.3138 51,23.8891 51.6,23.4838 52.2,23.0978 52.8,22.7312 53.4,22.3841 54,22.0565 54.6,21.7483 55.2,21.4597 55.8,21.1906 56.4,20.9411 57,20.7111 57.6,20.5007 58.2,20.3099 58.8,20.1388 59.4,19.9873 60,19.8554 60.6,19.7432 61.2,19.6507 61.8,19.5778 62.4,19.5246 63,19.4911 63.6,19.4773 64.2,19.4831 64.8,19.5087 65.4,19.5539 66,19.6188 66.6,19.7034 67.2,19.8077 67.8,19.9316 68.4,20.0751 69,20.2383 69.6,20.4211 70.2,20.6236 70.8,20.8456 71.4,21.0873 72,21.3484 72.6,21.6292 73.2,21.9294 73.8,22.2492 74.4,22.5884 75,22.9471 75.6,23.3252 76.2,23.7227 76.8,24.1396 77.4,24.5758 78,25.0313 78.6,25.5061 79.2,26.0002 79.8,26.5134 80.4,27.0458 81,27.5973 81.6,28.1679 82.2,28.7576 82.8,29.3662 83.4,29.9938 84,30.6403 84.6,31.3057 85.2,31.9899 85.8,32.6929 86.4,33.4146 87,34.155 87.6,34.914 88.2,35.6915 88.8,36.4876 89.4,37.3021 90,38.135 90.6,38.9863 91.2,39.8558 91.8,40.7436 92.4,41.6496 93,42.5736 93.6,43.5157 94.2,44.4757 94.8,45.4537 95.4,46.4495 96,47.4632 96.6,48.4945 97.2,49.5435 97.8,50.61 98.4,51.6941 99,52.7956 99.6,53.9145 100.2,55.0507 100.8,56.2041 101.4,57.3746 102,58.5623 102.6,59.7669 103.2,60.9885 103.8,62.227 104.4,63.4822 105,64.7542 105.6,66.0428 106.2,67.3479 106.8,68.6695 107.4,70.0075 108,71.3618 108.6,72.7324 109.2,74.1191 109.8,75.5219 110.4,76.9407 111,78.3754 111.6,79.826 112.2,81.2923 112.8,82.7742 113.4,84.2718 114,85.7849 114.6,87.3134 115.2,88.8572 115.8,90.4163 116.4,91.9906 117,93.58 117.6,95.1844 118.2,96.8037 118.8,98.4378 119.4,100.087 120,101.75 120.6,103.428 121.2,105.121 121.8,106.828 122.4,108.55 123,110.285 123.6,112.035 124.2,113.799 124.8,115.577 125.4,117.369 126,119.174 126.6,120.994 127.2,122.827 127.8,124.673 128.4,126.534 129,128.407 129.6,130.294 130.2,132.194 130.8,134.107 131.4,136.033 132,137.973 132.6,139.925 133.2,141.89 133.8,143.868 134.4,145.858 135,147.861 135.6,149.876 136.2,151.904 136.8,153.944 137.4,155.996 138,158.061 138.6,160.138 139.2,162.226 139.8,164.327 140.4,166.439 141,168.563 141.6,170.699 142.2,172.846 142.8,175.005 143.4,177.175 144,179.357 144.6,181.55 145.2,183.754 145.8,185.969 146.4,188.195 147,190.433 147.6,192.681 148.2,194.94 148.8,197.209 149.4,199.49 150,201.78 150.6,204.082 151.2,206.394 151.8,208.716 152.4,211.048 153,213.391 153.6,215.744 154.2,218.107 154.8,220.48 155.4,222.862 156,225.255 156.6,227.657 157.2,230.07 157.8,232.491 158.4,234.923 159,237.363 159.6,239.814 160.2,242.273 160.8,244.742 161.4,247.22 162,249.708 162.6,252.204 163.2,254.709 163.8,257.224 164.4,259.747 165,262.279 165.6,264.82 166.2,267.369 166.8,269.927 167.4,272.494 168,275.069 168.6,277.653 169.2,280.245 169.8,282.845 170.4,285.453 171,288.07 171.6,290.695 172.2,293.328 172.8,295.969 173.4,298.618 174,301.274 174.6,303.939 175.2,306.611 175.8,309.291 176.4,311.979 177,314.674 177.6,317.377 178.2,320.088 178.8,322.805 179.4,325.53 180,328.263 180.6,331.003 181.2,333.749 181.8,336.504 182.4,339.265 183,342.033 183.6,344.808 184.2,347.59 184.8,350.379 185.4,353.175 186,355.978 186.6,358.787 187.2,361.603 187.8,364.426 188.4,367.256 189,370.091 189.6,372.934 190.2,375.782 190.8,378.638 191.4,381.499 192,384.367 192.6,387.241 193.2,390.121 193.8,393.008 194.4,395.9 195,398.799 195.6,401.703 196.2,529.553 196.8,529.814 197.4,530.09 198,530.382 198.6,530.689 199.2,531.013 199.8,531.352 200.4,531.707 201,532.078 201.6,532.464 202.2,532.866 202.8,533.284 203.4,533.718 204,534.167 204.6,534.632 205.2,535.112 205.8,535.608 206.4,536.12 207,536.647 207.6,537.19 208.2,537.749 208.8,538.323 209.4,538.912 210,539.517 210.6,540.138 211.2,540.773 211.8,541.425 212.4,542.091 213,542.774 213.6,543.471 214.2,544.184 214.8,544.912 215.4,545.655 216,546.414 216.6,547.187 217.2,547.976 217.8,548.78 218.4,549.6 219,550.434 219.6,551.283 220.2,552.148 220.8,553.027 221.4,553.922 222,554.831 222.6,555.756 223.2,556.695 223.8,557.649 224.4,558.618 225,559.602 225.6,560.601 226.2,561.614 226.8,562.642 227.4,563.685 228,564.742 228.6,565.814 229.2,566.901 229.8,568.002 230.4,569.117 231,570.247 231.6,571.392 232.2,572.55 232.8,573.723 233.4,574.911 234,576.113 234.6,577.328 235.2,578.559 235.8,579.803 236.4,581.061 237,582.334 237.6,583.62 238.2,584.921 238.8,586.235 239.4,587.564 240,588.906 240.6,590.262 241.2,591.632 241.8,593.015 242.4,594.413 243,595.232 243.6,594.888 244.2,594.548 244.8,592.775 245.4,591.015 246,589.268 246.6,587.534 247.2,585.813 247.8,584.105 248.4,582.41 249,580.728 249.6,579.06 250.2,577.404 250.8,575.762 251.4,574.134 252,572.518 252.6,570.916 253.2,569.328 253.8,567.753 254.4,566.191 255,564.643 255.6,563.109 256.2,561.589 256.8,560.082 257.4,558.589 258,557.11 258.6,555.645 259.2,554.194 259.8,552.757 260.4,551.334 261,549.925 261.6,548.53 262.2,547.149 262.8,545.783 263.4,544.431 264,543.093 264.6,541.769 265.2,540.46 265.8,539.165 266.4,537.885 267,536.619 267.6,535.368 268.2,534.131 268.8,532.91 269.4,531.702 270,530.51 270.6,529.332 271.2,528.169 271.8,527.021 272.4,525.888 273,524.77 273.6,523.667 274.2,522.579 274.8,521.505 275.4,520.447 276,519.404 276.6,518.377 277.2,517.364 277.8,516.367 278.4,515.385 279,514.418 279.6,513.467 280.2,512.53 280.8,511.61 281.4,510.705 282,509.815 282.6,508.941 283.2,508.082 283.8,507.239 284.4,506.412 285,505.6 285.6,504.803 286.2,504.023 286.8,503.258 287.4,502.509 288,501.776 288.6,501.059 289.2,500.357 289.8,499.671 290.4,499.001 291,498.347 291.6,497.709 292.2,497.087 292.8,496.481 293.4,495.891 294,495.317 294.6,494.759 295.2,494.217 295.8,493.691 296.4,493.182 297,492.688 297.6,492.211 298.2,491.749 298.8,491.304 299.4,490.875 300,490.463 300.6,490.066 301.2,489.686 301.8,489.322 302.4,488.975 303,488.643 303.6,488.328 304.2,488.03 304.8,487.747 305.4,487.141 306,486.031 306.6,484.936 307.2,483.857 307.8,482.793 308.4,481.745 309,480.712 309.6,479.696 310.2,478.694 310.8,477.709 311.4,476.739 312,475.785 312.6,474.847 313.2,473.925 313.8,473.019 314.4,472.129 315,471.254 315.6,470.396 316.2,469.554 316.8,468.728 317.4,467.918 318,467.124 318.6,466.346 319.2,465.585 319.8,464.839 320.4,464.11 321,463.398 321.6,462.701 322.2,462.021 322.8,461.357 323.4,460.71 324,460.079 324.6,459.465 325.2,458.867 325.8,458.286 326.4,457.721 327,457.173 327.6,456.641 328.2,456.126 328.8,455.627 329.4,455.145 330,454.68 330.6,454.232 331.2,453.8 331.8,453.385 332.4,452.986 333,452.605 333.6,452.24 334.2,451.892 334.8,451.56 335.4,451.246 336,450.948 336.6,450.667 337.2,450.403 337.8,450.156 338.4,449.926 339,449.712 339.6,449.516 340.2,449.336 340.8,449.174 341.4,449.028 342,448.899 342.6,448.787 343.2,448.692 343.8,448.613 344.4,448.552 345,448.508 345.6,448.481 346.2,448.47 346.8,448.477 347.4,448.5 348,448.54 348.6,448.598 349.2,448.672 349.8,448.763 350.4,448.871 351,448.996 351.6,449.138 352.2,449.297 352.8,449.473 353.4,449.665 354,449.875 354.6,450.101 355.2,450.344 355.8,450.604 356.4,450.881 357,451.175 357.6,451.486 358.2,451.813 358.8,452.157 359.4,452.518 360,452.896 360.6,453.29 361.2,453.702 361.8,454.13 362.4,454.574 363,455.036 363.6,455.514 364.2,456.008 364.8,456.519 365.4,457.047 366,457.592 366.6,458.153 367.2,458.73 367.8,459.324 368.4,459.935 369,460.562 369.6,461.205 370.2,461.865 370.8,462.541 371.4,463.234 372,463.943 372.6,464.668 373.2,465.41 373.8,466.167 374.4,466.941 375,467.731 375.6,468.538 376.2,469.36 376.8,470.199 377.4,471.053 378,471.924 378.6,472.81 379.2,473.713 379.8,474.631 380.4,475.566 381,476.516 381.6,477.482 382.2,478.463 382.8,479.461 383.4,480.474 384,481.503 384.6,482.547 385.2,483.608 385.8,484.683 386.4,485.774 387,486.881 387.6,488.003 388.2,489.14 388.8,490.293 389.4,491.461 390,492.644 390.6,493.843 391.2,495.056 391.8,496.285 392.4,497.529 393,498.788 393.6,500.062 394.2,501.35 394.8,502.654 395.4,503.973 396,382.791 396.6,380.827 397.2,378.867 397.8,376.912 398.4,374.961 399,373.014 399.6,371.071 400.2,369.133 400.8,367.199 401.4,365.269 402,363.344 402.6,361.423 403.2,359.507 403.8,357.595 404.4,355.687 405,353.784 405.6,351.886 406.2,349.992 406.8,348.103 407.4,346.218 408,344.338 408.6,342.462 409.2,340.592 409.8,338.726 410.4,336.864 411,335.007 411.6,333.156 412.2,331.309 412.8,329.466 413.4,327.629 414,325.796 414.6,323.969 415.2,322.146 415.8,320.328 416.4,318.515 417,316.707 417.6,314.904 418.2,313.106 418.8,311.313 419.4,309.526 420,307.743 420.6,305.966 421.2,304.193 421.8,302.426 422.4,300.664 423,298.908 423.6,297.156 424.2,295.41 424.8,293.669 425.4,291.934 426,290.204 426.6,288.479 427.2,286.76 427.8,285.046 428.4,283.337 429,281.635 429.6,279.937 430.2,278.245 430.8,276.559 431.4,274.879 432,273.204 432.6,271.534 433.2,269.871 433.8,268.213 434.4,266.561 435,264.914 435.6,263.274 436.2,261.639 436.8,260.01 437.4,258.387 438,256.77 438.6,255.159 439.2,253.554 439.8,251.955 440.4,250.362 441,248.775 441.6,247.194 442.2,245.619 442.8,244.05 443.4,242.488 444,240.931 444.6,239.381 445.2,237.838 445.8,236.3 446.4,234.769 447,233.244 447.6,231.725 448.2,230.213 448.8,228.707 449.4,227.208 450,225.716 450.6,224.229 451.2,222.75 451.8,221.277 452.4,219.81 453,218.35 453.6,216.897 454.2,215.451 454.8,214.011 455.4,212.578 456,211.152 456.6,209.732 457.2,208.32 457.8,206.914 458.4,205.515 459,204.124 459.6,202.739 460.2,201.361 460.8,199.99 461.4,198.626 462,197.27 462.6,195.92 463.2,194.578 463.8,193.242 464.4,191.914 465,190.594 465.6,189.28 466.2,187.974 466.8,186.675 467.4,185.383 468,184.099 468.6,182.823 469.2,181.553 469.8,180.292 470.4,179.037 471,177.79 471.6,176.551 472.2,175.32 472.8,174.096 473.4,172.879 474,171.671 474.6,170.47 475.2,169.277 475.8,168.091 476.4,166.914 477,165.744 477.6,164.582 478.2,163.428 478.8,162.282 479.4,161.144 480,160.014 480.6,158.892 481.2,157.778 481.8,156.672 482.4,155.574 483,154.484 483.6,153.403 484.2,152.329 484.8,151.264 485.4,150.207 486,149.159 486.6,148.118 487.2,147.086 487.8,146.063 488.4,145.047 489,144.04 489.6,143.042 490.2,142.052 490.8,141.071 491.4,140.098 492,139.133 492.6,138.178 493.2,137.23 493.8,136.292 494.4,135.362 495,134.441 495.6,133.528 496.2,132.625 496.8,131.73 497.4,130.844 498,129.966 498.6,129.098 499.2,128.238 499.8,127.388 500.4,126.546 501,125.713 501.6,124.889 502.2,124.074 502.8,123.269 503.4,122.472 504,121.684 504.6,120.906 505.2,120.136 505.8,119.376 506.4,118.625 507,117.883 507.6,117.15 508.2,116.427 508.8,115.712 509.4,115.007 510,114.312 510.6,113.626 511.2,112.949 511.8,112.281 512.4,111.623 513,110.974 513.6,110.335 514.2,109.705 514.8,109.085 515.4,108.474 516,107.872 516.6,107.281 517.2,106.698 517.8,106.126 518.4,105.563 519,105.009 519.6,104.465 520.2,103.931 520.8,103.407 521.4,102.892 522,102.387 522.6,101.891 523.2,101.406 523.8,100.93 524.4,100.464 525,100.007 525.6,99.5609 526.2,99.1242 526.8,98.6973 527.4,98.2803 528,97.8731 528.6,97.4759 529.2,97.0885 529.8,96.711 530.4,96.3434 531,95.9857 531.6,95.638 532.2,95.3003 532.8,94.9725 533.4,94.6547 534,94.3468 534.6,94.049 535.2,93.7612 535.8,93.4834 536.4,93.2156 537,92.9579 537.6,92.7102 538.2,92.4726 538.8,92.245 539.4,92.0275 540,91.8201 540.6,91.6227 541.2,91.4355 541.8,91.2584 542.4,91.0913 543,90.9344 543.6,90.7876 544.2,90.651 544.8,90.5244 545.4,90.408 546,90.3017 546.6,90.2056 547.2,90.1196 547.8,90.0437 548.4,89.9781 549,89.9225 549.6,89.8771 550.2,89.8419 550.8,89.8168 551.4,89.8019 552,89.7972 552.6,89.8026 553.2,89.8181 553.8,89.8438 554.4,89.8797 555,89.9257 555.6,89.9819 556.2,90.0483 556.8,90.1248 557.4,90.2114 558,90.3082 558.6,90.4151 559.2,90.5322 559.8,90.6594 560.4,90.7967 561,90.9441 561.6,91.1017 562.2,91.2693 562.8,91.4471 563.4,91.635 564,91.833 564.6,92.041 565.2,92.2592 565.8,92.4874 566.4,92.7257 567,92.974 567.6,93.2324 568.2,93.5008 568.8,93.7792 569.4,94.0677 570,94.3661 570.6,94.6746 571.2,94.9931 571.8,95.3215 572.4,95.6599 573,96.0082 573.6,96.3665 574.2,96.7347 574.8,97.1128 575.4,97.5009 576,97.8988 576.6,98.3066 577.2,98.7242 577.8,99.1517 578.4,99.5891 579,100.036 579.6,100.493 580.2,100.96 580.8,101.436 581.4,101.923 582,102.419 582.6,102.924 583.2,103.44 583.8,103.965 584.4,104.5 585,105.044 585.6,105.598 586.2,106.162 586.8,106.735 587.4,107.318 588,107.91 588.6,108.512 589.2,109.124 589.8,109.745 590.4,110.375 591,111.015 591.6,111.665 592.2,112.323 592.8,112.991 593.4,113.669 594,114.356 594.6,115.052 595.2,115.758 595.8,116.472 596.4,117.196 597,117.93 597.6,118.672 598.2,119.424 598.8,120.185 599.4,120.955 600,121.734 " />

<!--Draw the X and Y axes -->
<polyline fill="none" stroke="black" stroke-width="6"  points=" 600,0 0,0 0, 600" />
<polyline fill="none" stroke="black" stroke-width="1"  points=" 0 600  600 600  600 0" />
<!-- -->


<!--Draw labels and tics for X axis -->

<line fill="none" stroke="black"  stroke-width="6"  x1="0.5" y1="0" x2="0.5" y2="-20" />
<text transform="scale(1,-1)" font-family="sans-serif" font-size="30" x="-24.5" y="45" >0</text>
<line fill="none" stroke="black"  stroke-width="6"  x1="120.5" y1="0" x2="120.5" y2="-20" />
<text transform="scale(1,-1)" font-family="sans-serif" font-size="30" x="95.5" y="45" >200</text>
<line fill="none" stroke="black"  stroke-width="6"  x1="240.5" y1="0" x2="240.5" y2="-20" />
<text transform="scale(1,-1)" font-family="sans-serif" font-size="30" x="215.5" y="45" >400</text>
<line fill="none" stroke="black"  stroke-width="6"  x1="360.5" y1="0" x2="360.5" y2="-20" />
<text transform="scale(1,-1)" font-family="sans-serif" font-size="30" x="335.5" y="45" >600</text>
<line fill="none" stroke="black"  stroke-width="6"  x1="480.5" y1="0" x2="480.5" y2="-20" />
<text transform="scale(1,-1)" font-family="sans-serif" font-size="30" x="455.5" y="45" >800</text>
<line fill="none" stroke="black"  stroke-width="6"  x1="600.5" y1="0" x2="600.5" y2="-20" />
<text transform="scale(1,-1)" font-family="sans-serif" font-size="30" x="575.5" y="45" >1000</text>


<!--Draw labels and tics for Y axis -->

<line fill="none" stroke="black" stroke-width="6" x1="0.0" y1="0" x2="-20" y2="0" />
<text transform="scale(1,-1)" text-anchor="end" font-family="sans-serif" font-size="30" x="-25" y="10" >14</text>
<line fill="none" stroke="black" stroke-width="6" x1="0.0" y1="54.5455" x2="-20" y2="54.5455" />
<text transform="scale(1,-1)" text-anchor="end" font-family="sans-serif" font-size="30" x="-25" y="-44.5455" >15</text>
<line fill="none" stroke="black" stroke-width="6" x1="0.0" y1="109.091" x2="-20" y2="109.091" />
<text transform="scale(1,-1)" text-anchor="end" font-family="sans-serif" font-size="30" x="-25" y="-99.0909" >16</text>
<line fill="none" stroke="black" stroke-width="6" x1="0.0" y1="163.636" x2="-20" y2="163.636" />
<text transform="scale(1,-1)" text-anchor="end" font-family="sans-serif" font-size="30" x="-25" y="-153.636" >17</text>
<line fill="none" stroke="black" stroke-width="6" x1="0.0" y1="218.182" x2="-20" y2="218.182" />
<text transform="scale(1,-1)" text-anchor="end" font-family="sans-serif" font-size="30" x="-25" y="-208.182" >18</text>
<line fill="none" stroke="black" stroke-width="6" x1="0.0" y1="272.727" x2="-20" y2="272.727" />
<text transform="scale(1,-1)" text-anchor="end" font-family="sans-serif" font-size="30" x="-25" y="-262.727" >19</text>
<line fill="none" stroke="black" stroke-width="6" x1="0.0" y1="327.273" x2="-20" y2="327.273" />
<text transform="scale(1,-1)" text-anchor="end" font-family="sans-serif" font-size="30" x="-25" y="-317.273" >20</text>
<line fill="none" stroke="black" stroke-width="6" x1="0.0" y1="381.818" x2="-20" y2="381.818" />
<text transform="scale(1,-1)" text-anchor="end" font-family="sans-serif" font-size="30" x="-25" y="-371.818" >21</text>
<line fill="none" stroke="black" stroke-width="6" x1="0.0" y1="436.364" x2="-20" y2="436.364" />
<text transform="scale(1,-1)" text-anchor="end" font-family="sans-serif" font-size="30" x="-25" y="-426.364" >22</text>
<line fill="none" stroke="black" stroke-width="6" x1="0.0" y1="490.909" x2="-20" y2="490.909" />
<text transform="scale(1,-1)" text-anchor="end" font-family="sans-serif" font-size="30" x="-25" y="-480.909" >23</text>
<line fill="none" stroke="black" stroke-width="6" x1="0.0" y1="545.455" x2="-20" y2="545.455" />
<text transform="scale(1,-1)" text-anchor="end" font-family="sans-serif" font-size="30" x="-25" y="-535.455" >24</text>
<line fill="none" stroke="black" stroke-width="6" x1="0.0" y1="600" x2="-20" y2="600" />
<text transform="scale(1,-1)" text-anchor="end" font-family="sans-serif" font-size="30" x="-25" y="-590" >25</text>

-->
</g>
</g>
<!-- Run Constants
CIRCLEPLOT bool false
DISTANCEPLOT bool true
PRINTDISTANCEDATA bool true
GLITCHESONLY bool false
PLOT 2doubles 3 4
PERTURBBY double 0.05
GLITCHLEVEL double 3
BOUNDARYWINDOW double 0.065
FRAMESPERPATH int 200
STEPSPERFRAME int 1000
TRIALS int 1
ALLBLACK bool true
FILEPREFIX string Fol
GRAPHSIZE int 0
BORDER int 0
PLOTSIZE int 0
G6LINEWIDTH int 3
DELONELINEWIDTH int 10
AXISWIDTH int 6
TICLENGTH int 20
VECTOR g6 
FOLLOWERMODE FollowerMode line
FIXRANDOMSEED fixRandomSeed false
RANDOMSEED int 19191
TIMESTAMP bool true
END end 




-->
</svg>
