<?xml version="1.0" standalone="no"?>
<!-- the width and height set the total pixel output of the image in the browser -->
<!-- whatever is within the viewbox will be remapped to show in this size -->
<svg width="900" height="800" viewBox="1 0 900 800"  version="1.1" xmlns="http://www.w3.org/2000/svg" xmlns:xlink="http://www.w3.org/1999/xlink">
 <desc>ID (and file name) = Fol_2018-05-16.16_23_01.44_43.svg </desc> 
<text x = "-750" y="50" transform="rotate(-90)"  font-family="sans-serif" font-size="40" stroke ="lightgray" fill="none"> PointDistanceFollower   May 16 2018</text>
 <text x="560" y="30" font-family="sans-serif" font-size="20">Wall time passed: 1628 msec.</text>
<text x="300" y="60"   font-family="sans-serif" font-size="20" fill="lightblue">S6  lightblue</text>
<text x="300" y="85"   font-family="sans-serif" font-size="20" fill="slategrey">NCDist  slategrey</text>
<text x="300" y="110"  font-family="sans-serif" font-size="20" fill="violet">D7  violet</text>
<text x="300" y="135"  font-family="sans-serif" font-size="20" fill="olive">CS6Dist  olive</text>

 <text x="140"  y="30"  font-family="sans-serif" font-size="20" >Fol_2018-05-16.16_23_01.44_43.svg  </text> 


 <!--DISTANCE PLOT BEGINS-->


<!-- the following will scale and place the distance plot -->
<g  transform="translate(0, 50) ">
<g transform="translate(150,700) scale(1 -1)">
<line fill="none" stroke="lightblue" stroke-width="12" x1="0" y1="466.913" x2="5.94059" y2="466.913" />
<line fill="none" stroke="lightblue" stroke-width="12" x1="5.94059" y1="466.913" x2="11.8812" y2="465.249" />
<line fill="none" stroke="lightblue" stroke-width="12" x1="11.8812" y1="465.249" x2="17.8218" y2="463.72" />
<line fill="none" stroke="lightblue" stroke-width="12" x1="17.8218" y1="463.72" x2="23.7624" y2="462.328" />
<line fill="none" stroke="lightblue" stroke-width="12" x1="23.7624" y1="462.328" x2="29.703" y2="461.073" />
<line fill="none" stroke="lightblue" stroke-width="12" x1="29.703" y1="461.073" x2="35.6436" y2="459.957" />
<line fill="none" stroke="lightblue" stroke-width="12" x1="35.6436" y1="459.957" x2="41.5842" y2="458.981" />
<line fill="none" stroke="lightblue" stroke-width="12" x1="41.5842" y1="458.981" x2="47.5248" y2="458.145" />
<line fill="none" stroke="lightblue" stroke-width="12" x1="47.5248" y1="458.145" x2="53.4653" y2="457.451" />
<line fill="none" stroke="lightblue" stroke-width="12" x1="53.4653" y1="457.451" x2="59.4059" y2="456.899" />
<line fill="none" stroke="lightblue" stroke-width="12" x1="59.4059" y1="456.899" x2="65.3465" y2="456.49" />
<line fill="none" stroke="lightblue" stroke-width="12" x1="65.3465" y1="456.49" x2="71.2871" y2="456.223" />
<line fill="none" stroke="lightblue" stroke-width="12" x1="71.2871" y1="456.223" x2="77.2277" y2="456.1" />
<line fill="none" stroke="lightblue" stroke-width="12" x1="77.2277" y1="456.1" x2="83.1683" y2="456.121" />
<line fill="none" stroke="lightblue" stroke-width="12" x1="83.1683" y1="456.121" x2="89.1089" y2="456.284" />
<line fill="none" stroke="lightblue" stroke-width="12" x1="89.1089" y1="456.284" x2="95.0495" y2="456.591" />
<line fill="none" stroke="lightblue" stroke-width="12" x1="95.0495" y1="456.591" x2="100.99" y2="457.041" />
<line fill="none" stroke="lightblue" stroke-width="12" x1="100.99" y1="457.041" x2="106.931" y2="457.633" />
<line fill="none" stroke="lightblue" stroke-width="12" x1="106.931" y1="457.633" x2="112.871" y2="458.368" />
<line fill="none" stroke="lightblue" stroke-width="12" x1="112.871" y1="458.368" x2="118.812" y2="459.243" />
<line fill="none" stroke="lightblue" stroke-width="12" x1="118.812" y1="459.243" x2="124.752" y2="460.259" />
<line fill="none" stroke="lightblue" stroke-width="12" x1="124.752" y1="460.259" x2="130.693" y2="461.415" />
<line fill="none" stroke="lightblue" stroke-width="12" x1="130.693" y1="461.415" x2="136.634" y2="460.022" />
<line fill="none" stroke="lightblue" stroke-width="12" x1="136.634" y1="460.022" x2="142.574" y2="456.966" />
<line fill="none" stroke="lightblue" stroke-width="12" x1="142.574" y1="456.966" x2="148.515" y2="454.034" />
<line fill="none" stroke="lightblue" stroke-width="12" x1="148.515" y1="454.034" x2="154.455" y2="451.227" />
<line fill="none" stroke="lightblue" stroke-width="12" x1="154.455" y1="451.227" x2="160.396" y2="448.549" />
<line fill="none" stroke="lightblue" stroke-width="12" x1="160.396" y1="448.549" x2="166.337" y2="446.001" />
<line fill="none" stroke="lightblue" stroke-width="12" x1="166.337" y1="446.001" x2="172.277" y2="443.586" />
<line fill="none" stroke="lightblue" stroke-width="12" x1="172.277" y1="443.586" x2="178.218" y2="441.307" />
<line fill="none" stroke="lightblue" stroke-width="12" x1="178.218" y1="441.307" x2="184.158" y2="439.079" />
<line fill="none" stroke="lightblue" stroke-width="12" x1="184.158" y1="439.079" x2="190.099" y2="436.94" />
<line fill="none" stroke="lightblue" stroke-width="12" x1="190.099" y1="436.94" x2="196.04" y2="434.94" />
<line fill="none" stroke="lightblue" stroke-width="12" x1="196.04" y1="434.94" x2="201.98" y2="433.083" />
<line fill="none" stroke="lightblue" stroke-width="12" x1="201.98" y1="433.083" x2="207.921" y2="431.369" />
<line fill="none" stroke="lightblue" stroke-width="12" x1="207.921" y1="431.369" x2="213.861" y2="429.8" />
<line fill="none" stroke="lightblue" stroke-width="12" x1="213.861" y1="429.8" x2="219.802" y2="428.378" />
<line fill="none" stroke="lightblue" stroke-width="12" x1="219.802" y1="428.378" x2="225.743" y2="427.105" />
<line fill="none" stroke="lightblue" stroke-width="12" x1="225.743" y1="427.105" x2="231.683" y2="425.981" />
<line fill="none" stroke="lightblue" stroke-width="12" x1="231.683" y1="425.981" x2="237.624" y2="425.009" />
<line fill="none" stroke="lightblue" stroke-width="12" x1="237.624" y1="425.009" x2="243.564" y2="424.188" />
<line fill="none" stroke="lightblue" stroke-width="12" x1="243.564" y1="424.188" x2="249.505" y2="423.52" />
<line fill="none" stroke="lightblue" stroke-width="12" x1="249.505" y1="423.52" x2="255.446" y2="423.006" />
<line fill="none" stroke="lightblue" stroke-width="12" x1="255.446" y1="423.006" x2="261.386" y2="422.646" />
<line fill="none" stroke="lightblue" stroke-width="12" x1="261.386" y1="422.646" x2="267.327" y2="422.441" />
<line fill="none" stroke="lightblue" stroke-width="12" x1="267.327" y1="422.441" x2="273.267" y2="422.39" />
<line fill="none" stroke="lightblue" stroke-width="12" x1="273.267" y1="422.39" x2="279.208" y2="422.494" />
<line fill="none" stroke="lightblue" stroke-width="12" x1="279.208" y1="422.494" x2="285.149" y2="422.753" />
<line fill="none" stroke="lightblue" stroke-width="12" x1="285.149" y1="422.753" x2="291.089" y2="423.166" />
<line fill="none" stroke="lightblue" stroke-width="12" x1="291.089" y1="423.166" x2="297.03" y2="423.733" />
<line fill="none" stroke="lightblue" stroke-width="12" x1="297.03" y1="423.733" x2="302.97" y2="422.925" />
<line fill="none" stroke="lightblue" stroke-width="12" x1="302.97" y1="422.925" x2="308.911" y2="422.023" />
<line fill="none" stroke="lightblue" stroke-width="12" x1="308.911" y1="422.023" x2="314.851" y2="421.037" />
<line fill="none" stroke="lightblue" stroke-width="12" x1="314.851" y1="421.037" x2="320.792" y2="419.484" />
<line fill="none" stroke="lightblue" stroke-width="12" x1="320.792" y1="419.484" x2="326.733" y2="418.042" />
<line fill="none" stroke="lightblue" stroke-width="12" x1="326.733" y1="418.042" x2="332.673" y2="416.712" />
<line fill="none" stroke="lightblue" stroke-width="12" x1="332.673" y1="416.712" x2="338.614" y2="415.495" />
<line fill="none" stroke="lightblue" stroke-width="12" x1="338.614" y1="415.495" x2="344.554" y2="414.392" />
<line fill="none" stroke="lightblue" stroke-width="12" x1="344.554" y1="414.392" x2="350.495" y2="413.404" />
<line fill="none" stroke="lightblue" stroke-width="12" x1="350.495" y1="413.404" x2="356.436" y2="412.532" />
<line fill="none" stroke="lightblue" stroke-width="12" x1="356.436" y1="412.532" x2="362.376" y2="411.777" />
<line fill="none" stroke="lightblue" stroke-width="12" x1="362.376" y1="411.777" x2="368.317" y2="411.139" />
<line fill="none" stroke="lightblue" stroke-width="12" x1="368.317" y1="411.139" x2="374.257" y2="410.619" />
<line fill="none" stroke="lightblue" stroke-width="12" x1="374.257" y1="410.619" x2="380.198" y2="410.217" />
<line fill="none" stroke="lightblue" stroke-width="12" x1="380.198" y1="410.217" x2="386.139" y2="409.934" />
<line fill="none" stroke="lightblue" stroke-width="12" x1="386.139" y1="409.934" x2="392.079" y2="409.769" />
<line fill="none" stroke="lightblue" stroke-width="12" x1="392.079" y1="409.769" x2="398.02" y2="409.724" />
<line fill="none" stroke="lightblue" stroke-width="12" x1="398.02" y1="409.724" x2="403.96" y2="409.797" />
<line fill="none" stroke="lightblue" stroke-width="12" x1="403.96" y1="409.797" x2="409.901" y2="409.99" />
<line fill="none" stroke="lightblue" stroke-width="12" x1="409.901" y1="409.99" x2="415.842" y2="410.301" />
<line fill="none" stroke="lightblue" stroke-width="12" x1="415.842" y1="410.301" x2="421.782" y2="410.731" />
<line fill="none" stroke="lightblue" stroke-width="12" x1="421.782" y1="410.731" x2="427.723" y2="411.222" />
<line fill="none" stroke="lightblue" stroke-width="12" x1="427.723" y1="411.222" x2="433.663" y2="411.744" />
<line fill="none" stroke="lightblue" stroke-width="12" x1="433.663" y1="411.744" x2="439.604" y2="412.384" />
<line fill="none" stroke="lightblue" stroke-width="12" x1="439.604" y1="412.384" x2="445.545" y2="413.141" />
<line fill="none" stroke="lightblue" stroke-width="12" x1="445.545" y1="413.141" x2="451.485" y2="414.014" />
<line fill="none" stroke="lightblue" stroke-width="12" x1="451.485" y1="414.014" x2="457.426" y2="415.003" />
<line fill="none" stroke="lightblue" stroke-width="12" x1="457.426" y1="415.003" x2="463.366" y2="416.107" />
<line fill="none" stroke="lightblue" stroke-width="12" x1="463.366" y1="416.107" x2="469.307" y2="417.324" />
<line fill="none" stroke="lightblue" stroke-width="12" x1="469.307" y1="417.324" x2="475.248" y2="418.655" />
<line fill="none" stroke="lightblue" stroke-width="12" x1="475.248" y1="418.655" x2="481.188" y2="420.098" />
<line fill="none" stroke="lightblue" stroke-width="12" x1="481.188" y1="420.098" x2="487.129" y2="421.651" />
<line fill="none" stroke="lightblue" stroke-width="12" x1="487.129" y1="421.651" x2="493.069" y2="423.314" />
<line fill="none" stroke="lightblue" stroke-width="12" x1="493.069" y1="423.314" x2="499.01" y2="425.086" />
<line fill="none" stroke="lightblue" stroke-width="12" x1="499.01" y1="425.086" x2="504.95" y2="426.964" />
<line fill="none" stroke="lightblue" stroke-width="12" x1="504.95" y1="426.964" x2="510.891" y2="428.947" />
<line fill="none" stroke="lightblue" stroke-width="12" x1="510.891" y1="428.947" x2="516.832" y2="431.035" />
<line fill="none" stroke="lightblue" stroke-width="12" x1="516.832" y1="431.035" x2="522.772" y2="433.225" />
<line fill="none" stroke="lightblue" stroke-width="12" x1="522.772" y1="433.225" x2="528.713" y2="435.516" />
<line fill="none" stroke="lightblue" stroke-width="12" x1="528.713" y1="435.516" x2="534.653" y2="437.907" />
<line fill="none" stroke="lightblue" stroke-width="12" x1="534.653" y1="437.907" x2="540.594" y2="440.395" />
<line fill="none" stroke="lightblue" stroke-width="12" x1="540.594" y1="440.395" x2="546.535" y2="442.98" />
<line fill="none" stroke="lightblue" stroke-width="12" x1="546.535" y1="442.98" x2="552.475" y2="445.659" />
<line fill="none" stroke="lightblue" stroke-width="12" x1="552.475" y1="445.659" x2="558.416" y2="448.431" />
<line fill="none" stroke="lightblue" stroke-width="12" x1="558.416" y1="448.431" x2="564.356" y2="451.293" />
<line fill="none" stroke="lightblue" stroke-width="12" x1="564.356" y1="451.293" x2="570.297" y2="454.246" />
<line fill="none" stroke="lightblue" stroke-width="12" x1="570.297" y1="454.246" x2="576.238" y2="457.285" />
<line fill="none" stroke="lightblue" stroke-width="12" x1="576.238" y1="457.285" x2="582.178" y2="460.411" />
<line fill="none" stroke="lightblue" stroke-width="12" x1="582.178" y1="460.411" x2="588.119" y2="463.621" />
<line fill="none" stroke="lightblue" stroke-width="12" x1="588.119" y1="463.621" x2="594.059" y2="466.913" />
<line fill="none" stroke="olive" stroke-width="3" x1="0" y1="278.325" x2="5.94059" y2="278.325" />
<line fill="none" stroke="olive" stroke-width="3" x1="5.94059" y1="278.325" x2="11.8812" y2="280.398" />
<line fill="none" stroke="olive" stroke-width="3" x1="11.8812" y1="280.398" x2="17.8218" y2="282.687" />
<line fill="none" stroke="olive" stroke-width="3" x1="17.8218" y1="282.687" x2="23.7624" y2="285.187" />
<line fill="none" stroke="olive" stroke-width="3" x1="23.7624" y1="285.187" x2="29.703" y2="287.892" />
<line fill="none" stroke="olive" stroke-width="3" x1="29.703" y1="287.892" x2="35.6436" y2="290.797" />
<line fill="none" stroke="olive" stroke-width="3" x1="35.6436" y1="290.797" x2="41.5842" y2="293.896" />
<line fill="none" stroke="olive" stroke-width="3" x1="41.5842" y1="293.896" x2="47.5248" y2="297.183" />
<line fill="none" stroke="olive" stroke-width="3" x1="47.5248" y1="297.183" x2="53.4653" y2="300.652" />
<line fill="none" stroke="olive" stroke-width="3" x1="53.4653" y1="300.652" x2="59.4059" y2="304.296" />
<line fill="none" stroke="olive" stroke-width="3" x1="59.4059" y1="304.296" x2="65.3465" y2="308.109" />
<line fill="none" stroke="olive" stroke-width="3" x1="65.3465" y1="308.109" x2="71.2871" y2="312.085" />
<line fill="none" stroke="olive" stroke-width="3" x1="71.2871" y1="312.085" x2="77.2277" y2="316.218" />
<line fill="none" stroke="olive" stroke-width="3" x1="77.2277" y1="316.218" x2="83.1683" y2="320.502" />
<line fill="none" stroke="olive" stroke-width="3" x1="83.1683" y1="320.502" x2="89.1089" y2="324.931" />
<line fill="none" stroke="olive" stroke-width="3" x1="89.1089" y1="324.931" x2="95.0495" y2="329.499" />
<line fill="none" stroke="olive" stroke-width="3" x1="95.0495" y1="329.499" x2="100.99" y2="334.2" />
<line fill="none" stroke="olive" stroke-width="3" x1="100.99" y1="334.2" x2="106.931" y2="339.029" />
<line fill="none" stroke="olive" stroke-width="3" x1="106.931" y1="339.029" x2="112.871" y2="343.98" />
<line fill="none" stroke="olive" stroke-width="3" x1="112.871" y1="343.98" x2="118.812" y2="349.048" />
<line fill="none" stroke="olive" stroke-width="3" x1="118.812" y1="349.048" x2="124.752" y2="354.229" />
<line fill="none" stroke="olive" stroke-width="3" x1="124.752" y1="354.229" x2="130.693" y2="359.517" />
<line fill="none" stroke="olive" stroke-width="3" x1="130.693" y1="359.517" x2="136.634" y2="364.907" />
<line fill="none" stroke="olive" stroke-width="3" x1="136.634" y1="364.907" x2="142.574" y2="370.396" />
<line fill="none" stroke="olive" stroke-width="3" x1="142.574" y1="370.396" x2="148.515" y2="375.978" />
<line fill="none" stroke="olive" stroke-width="3" x1="148.515" y1="375.978" x2="154.455" y2="381.65" />
<line fill="none" stroke="olive" stroke-width="3" x1="154.455" y1="381.65" x2="160.396" y2="387.408" />
<line fill="none" stroke="olive" stroke-width="3" x1="160.396" y1="387.408" x2="166.337" y2="393.248" />
<line fill="none" stroke="olive" stroke-width="3" x1="166.337" y1="393.248" x2="172.277" y2="399.166" />
<line fill="none" stroke="olive" stroke-width="3" x1="172.277" y1="399.166" x2="178.218" y2="405.16" />
<line fill="none" stroke="olive" stroke-width="3" x1="178.218" y1="405.16" x2="184.158" y2="411.225" />
<line fill="none" stroke="olive" stroke-width="3" x1="184.158" y1="411.225" x2="190.099" y2="417.358" />
<line fill="none" stroke="olive" stroke-width="3" x1="190.099" y1="417.358" x2="196.04" y2="423.558" />
<line fill="none" stroke="olive" stroke-width="3" x1="196.04" y1="423.558" x2="201.98" y2="429.82" />
<line fill="none" stroke="olive" stroke-width="3" x1="201.98" y1="429.82" x2="207.921" y2="432.003" />
<line fill="none" stroke="olive" stroke-width="3" x1="207.921" y1="432.003" x2="213.861" y2="430.574" />
<line fill="none" stroke="olive" stroke-width="3" x1="213.861" y1="430.574" x2="219.802" y2="429.293" />
<line fill="none" stroke="olive" stroke-width="3" x1="219.802" y1="429.293" x2="225.743" y2="428.16" />
<line fill="none" stroke="olive" stroke-width="3" x1="225.743" y1="428.16" x2="231.683" y2="427.178" />
<line fill="none" stroke="olive" stroke-width="3" x1="231.683" y1="427.178" x2="237.624" y2="426.347" />
<line fill="none" stroke="olive" stroke-width="3" x1="237.624" y1="426.347" x2="243.564" y2="425.668" />
<line fill="none" stroke="olive" stroke-width="3" x1="243.564" y1="425.668" x2="249.505" y2="425.142" />
<line fill="none" stroke="olive" stroke-width="3" x1="249.505" y1="425.142" x2="255.446" y2="424.769" />
<line fill="none" stroke="olive" stroke-width="3" x1="255.446" y1="424.769" x2="261.386" y2="424.549" />
<line fill="none" stroke="olive" stroke-width="3" x1="261.386" y1="424.549" x2="267.327" y2="424.484" />
<line fill="none" stroke="olive" stroke-width="3" x1="267.327" y1="424.484" x2="273.267" y2="424.573" />
<line fill="none" stroke="olive" stroke-width="3" x1="273.267" y1="424.573" x2="279.208" y2="424.816" />
<line fill="none" stroke="olive" stroke-width="3" x1="279.208" y1="424.816" x2="285.149" y2="425.213" />
<line fill="none" stroke="olive" stroke-width="3" x1="285.149" y1="425.213" x2="291.089" y2="425.763" />
<line fill="none" stroke="olive" stroke-width="3" x1="291.089" y1="425.763" x2="297.03" y2="426.465" />
<line fill="none" stroke="olive" stroke-width="3" x1="297.03" y1="426.465" x2="302.97" y2="420.184" />
<line fill="none" stroke="olive" stroke-width="3" x1="302.97" y1="420.184" x2="308.911" y2="438.541" />
<line fill="none" stroke="olive" stroke-width="3" x1="308.911" y1="438.541" x2="314.851" y2="591.021" />
<line fill="none" stroke="olive" stroke-width="3" x1="314.851" y1="591.021" x2="320.792" y2="585.208" />
<line fill="none" stroke="olive" stroke-width="3" x1="320.792" y1="585.208" x2="326.733" y2="579.254" />
<line fill="none" stroke="olive" stroke-width="3" x1="326.733" y1="579.254" x2="332.673" y2="573.152" />
<line fill="none" stroke="olive" stroke-width="3" x1="332.673" y1="573.152" x2="338.614" y2="566.898" />
<line fill="none" stroke="olive" stroke-width="3" x1="338.614" y1="566.898" x2="344.554" y2="560.488" />
<line fill="none" stroke="olive" stroke-width="3" x1="344.554" y1="560.488" x2="350.495" y2="553.916" />
<line fill="none" stroke="olive" stroke-width="3" x1="350.495" y1="553.916" x2="356.436" y2="547.175" />
<line fill="none" stroke="olive" stroke-width="3" x1="356.436" y1="547.175" x2="362.376" y2="540.26" />
<line fill="none" stroke="olive" stroke-width="3" x1="362.376" y1="540.26" x2="368.317" y2="533.164" />
<line fill="none" stroke="olive" stroke-width="3" x1="368.317" y1="533.164" x2="374.257" y2="525.88" />
<line fill="none" stroke="olive" stroke-width="3" x1="374.257" y1="525.88" x2="380.198" y2="518.399" />
<line fill="none" stroke="olive" stroke-width="3" x1="380.198" y1="518.399" x2="386.139" y2="510.713" />
<line fill="none" stroke="olive" stroke-width="3" x1="386.139" y1="510.713" x2="392.079" y2="502.813" />
<line fill="none" stroke="olive" stroke-width="3" x1="392.079" y1="502.813" x2="398.02" y2="494.688" />
<line fill="none" stroke="olive" stroke-width="3" x1="398.02" y1="494.688" x2="403.96" y2="486.327" />
<line fill="none" stroke="olive" stroke-width="3" x1="403.96" y1="486.327" x2="409.901" y2="477.718" />
<line fill="none" stroke="olive" stroke-width="3" x1="409.901" y1="477.718" x2="415.842" y2="468.846" />
<line fill="none" stroke="olive" stroke-width="3" x1="415.842" y1="468.846" x2="421.782" y2="459.697" />
<line fill="none" stroke="olive" stroke-width="3" x1="421.782" y1="459.697" x2="427.723" y2="450.255" />
<line fill="none" stroke="olive" stroke-width="3" x1="427.723" y1="450.255" x2="433.663" y2="440.499" />
<line fill="none" stroke="olive" stroke-width="3" x1="433.663" y1="440.499" x2="439.604" y2="430.409" />
<line fill="none" stroke="olive" stroke-width="3" x1="439.604" y1="430.409" x2="445.545" y2="419.96" />
<line fill="none" stroke="olive" stroke-width="3" x1="445.545" y1="419.96" x2="451.485" y2="409.126" />
<line fill="none" stroke="olive" stroke-width="3" x1="451.485" y1="409.126" x2="457.426" y2="397.874" />
<line fill="none" stroke="olive" stroke-width="3" x1="457.426" y1="397.874" x2="463.366" y2="386.168" />
<line fill="none" stroke="olive" stroke-width="3" x1="463.366" y1="386.168" x2="469.307" y2="373.966" />
<line fill="none" stroke="olive" stroke-width="3" x1="469.307" y1="373.966" x2="475.248" y2="361.217" />
<line fill="none" stroke="olive" stroke-width="3" x1="475.248" y1="361.217" x2="481.188" y2="347.861" />
<line fill="none" stroke="olive" stroke-width="3" x1="481.188" y1="347.861" x2="487.129" y2="333.825" />
<line fill="none" stroke="olive" stroke-width="3" x1="487.129" y1="333.825" x2="493.069" y2="319.02" />
<line fill="none" stroke="olive" stroke-width="3" x1="493.069" y1="319.02" x2="499.01" y2="303.333" />
<line fill="none" stroke="olive" stroke-width="3" x1="499.01" y1="303.333" x2="504.95" y2="286.618" />
<line fill="none" stroke="olive" stroke-width="3" x1="504.95" y1="286.618" x2="510.891" y2="268.686" />
<line fill="none" stroke="olive" stroke-width="3" x1="510.891" y1="268.686" x2="516.832" y2="249.271" />
<line fill="none" stroke="olive" stroke-width="3" x1="516.832" y1="249.271" x2="522.772" y2="227.998" />
<line fill="none" stroke="olive" stroke-width="3" x1="522.772" y1="227.998" x2="528.713" y2="204.285" />
<line fill="none" stroke="olive" stroke-width="3" x1="528.713" y1="204.285" x2="534.653" y2="177.155" />
<line fill="none" stroke="olive" stroke-width="3" x1="534.653" y1="177.155" x2="540.594" y2="144.699" />
<line fill="none" stroke="olive" stroke-width="3" x1="540.594" y1="144.699" x2="546.535" y2="101.953" />
<line fill="none" stroke="olive" stroke-width="3" x1="546.535" y1="101.953" x2="552.475" y2="15.7025" />
<line fill="none" stroke="olive" stroke-width="3" x1="552.475" y1="15.7025" x2="558.416" y2="104.81" />
<line fill="none" stroke="olive" stroke-width="3" x1="558.416" y1="104.81" x2="564.356" y2="147.72" />
<line fill="none" stroke="olive" stroke-width="3" x1="564.356" y1="147.72" x2="570.297" y2="180.983" />
<line fill="none" stroke="olive" stroke-width="3" x1="570.297" y1="180.983" x2="576.238" y2="209.251" />
<line fill="none" stroke="olive" stroke-width="3" x1="576.238" y1="209.251" x2="582.178" y2="234.339" />
<line fill="none" stroke="olive" stroke-width="3" x1="582.178" y1="234.339" x2="588.119" y2="257.179" />
<line fill="none" stroke="olive" stroke-width="3" x1="588.119" y1="257.179" x2="594.059" y2="278.325" />

<!--Draw Glitches -->

<line fill="none" stroke="black" stroke-width="4" x1="314.851" y1="581.021" x2="314.851" y2="531.021"  stroke-dasharray = "10,5" />
<text transform="scale(1,-1)" font-family="sans-serif" font-size="30" stroke = "rgb(0,0,0)" line = "rgb(0,0,0)"  fill = "olive" x="319.851" y="-531.021" >52</text>
<line fill="none" stroke="black" stroke-width="4" x1="552.475" y1="5.70246" x2="552.475" y2="-44.2975"  stroke-dasharray = "10,5" />
<text transform="scale(1,-1)" font-family="sans-serif" font-size="30" stroke = "rgb(0,0,0)" line = "rgb(0,0,0)"  fill = "olive" x="557.475" y="44.2975" >92</text>

<!-- -->


<!--Draw the X and Y axes -->
<polyline fill="none" stroke="black" stroke-width="6"  points=" 600,0 0,0 0, 600" />
<polyline fill="none" stroke="black" stroke-width="1"  points=" 0 600  600 600  600 0" />
<!-- -->


<!--Draw labels and tics for X axis -->

<line fill="none" stroke="black"  stroke-width="6"  x1="0.5" y1="0" x2="0.5" y2="-20" />
<text transform="scale(1,-1)" font-family="sans-serif" font-size="30" x="-24.5" y="45" >0</text>
<line fill="none" stroke="black"  stroke-width="6"  x1="119.312" y1="0" x2="119.312" y2="-20" />
<text transform="scale(1,-1)" font-family="sans-serif" font-size="30" x="94.3119" y="45" >20</text>
<line fill="none" stroke="black"  stroke-width="6"  x1="238.124" y1="0" x2="238.124" y2="-20" />
<text transform="scale(1,-1)" font-family="sans-serif" font-size="30" x="213.124" y="45" >40</text>
<line fill="none" stroke="black"  stroke-width="6"  x1="356.936" y1="0" x2="356.936" y2="-20" />
<text transform="scale(1,-1)" font-family="sans-serif" font-size="30" x="331.936" y="45" >60</text>
<line fill="none" stroke="black"  stroke-width="6"  x1="475.748" y1="0" x2="475.748" y2="-20" />
<text transform="scale(1,-1)" font-family="sans-serif" font-size="30" x="450.748" y="45" >80</text>
<line fill="none" stroke="black"  stroke-width="6"  x1="594.559" y1="0" x2="594.559" y2="-20" />
<text transform="scale(1,-1)" font-family="sans-serif" font-size="30" x="569.559" y="45" >100</text>


<!--Draw labels and tics for Y axis -->

<line fill="none" stroke="black" stroke-width="6" x1="0.0" y1="0" x2="-20" y2="0" />
<text transform="scale(1,-1)" text-anchor="end" font-family="sans-serif" font-size="30" x="-25" y="10" >0</text>
<line fill="none" stroke="black" stroke-width="6" x1="0.0" y1="150" x2="-20" y2="150" />
<text transform="scale(1,-1)" text-anchor="end" font-family="sans-serif" font-size="30" x="-25" y="-140" >10</text>
<line fill="none" stroke="black" stroke-width="6" x1="0.0" y1="300" x2="-20" y2="300" />
<text transform="scale(1,-1)" text-anchor="end" font-family="sans-serif" font-size="30" x="-25" y="-290" >20</text>
<line fill="none" stroke="black" stroke-width="6" x1="0.0" y1="450" x2="-20" y2="450" />
<text transform="scale(1,-1)" text-anchor="end" font-family="sans-serif" font-size="30" x="-25" y="-440" >30</text>
<line fill="none" stroke="black" stroke-width="6" x1="0.0" y1="600" x2="-20" y2="600" />
<text transform="scale(1,-1)" text-anchor="end" font-family="sans-serif" font-size="30" x="-25" y="-590" >40</text>

-->
</g>
</g>
<!-- Run Constants
PRINTDISTANCEDATA bool true
GLITCHESONLY bool true
PLOT 2doubles 3 4
PERTURBBY double 0.05
GLITCHLEVEL double 3
BOUNDARYWINDOW double 0.065
FRAMESPERPATH int 200
STEPSPERFRAME int 100
TRIALS int 1
ALLBLACK bool true
FILEPREFIX string Fol
GRAPHSIZE int 0
BORDER int 0
PLOTSIZE int 0
G6LINEWIDTH int 3
DELONELINEWIDTH int 10
AXISWIDTH int 6
TICLENGTH int 20
VECTOR g6 
FOLLOWERMODE FollowerMode line
FIXRANDOMSEED fixRandomSeed false
RANDOMSEED int 19191
TIMESTAMP bool true
END end 




-->
</svg>
