<?xml version="1.0" standalone="no"?>
<!-- the width and height set the total pixel output of the image in the browser -->
<!-- whatever is within the viewbox will be remapped to show in this size -->
<svg width="900" height="800" viewBox="1 0 900 800"  version="1.1" xmlns="http://www.w3.org/2000/svg" xmlns:xlink="http://www.w3.org/1999/xlink">
 <desc>ID (and file name) = Fol_2018-05-16.16_30_02.25_24.svg </desc> 
<text x = "-750" y="50" transform="rotate(-90)"  font-family="sans-serif" font-size="40" stroke ="lightgray" fill="none"> PointDistanceFollower   May 16 2018</text>
 <text x="560" y="30" font-family="sans-serif" font-size="20">Wall time passed: 1341 msec.</text>
<text x="300" y="60"   font-family="sans-serif" font-size="20" fill="lightblue">S6  lightblue</text>
<text x="300" y="85"   font-family="sans-serif" font-size="20" fill="slategrey">NCDist  slategrey</text>
<text x="300" y="110"  font-family="sans-serif" font-size="20" fill="violet">D7  violet</text>
<text x="300" y="135"  font-family="sans-serif" font-size="20" fill="olive">CS6Dist  olive</text>

 <text x="140"  y="30"  font-family="sans-serif" font-size="20" >Fol_2018-05-16.16_30_02.25_24.svg  </text> 


 <!--DISTANCE PLOT BEGINS-->


<!-- the following will scale and place the distance plot -->
<g  transform="translate(0, 50) ">
<g transform="translate(150,700) scale(1 -1)">
<line fill="none" stroke="lightblue" stroke-width="12" x1="0" y1="372.115" x2="5.94059" y2="372.115" />
<line fill="none" stroke="lightblue" stroke-width="12" x1="5.94059" y1="372.115" x2="11.8812" y2="369.828" />
<line fill="none" stroke="lightblue" stroke-width="12" x1="11.8812" y1="369.828" x2="17.8218" y2="367.476" />
<line fill="none" stroke="lightblue" stroke-width="12" x1="17.8218" y1="367.476" x2="23.7624" y2="365.234" />
<line fill="none" stroke="lightblue" stroke-width="12" x1="23.7624" y1="365.234" x2="29.703" y2="363.104" />
<line fill="none" stroke="lightblue" stroke-width="12" x1="29.703" y1="363.104" x2="35.6436" y2="361.087" />
<line fill="none" stroke="lightblue" stroke-width="12" x1="35.6436" y1="361.087" x2="41.5842" y2="359.185" />
<line fill="none" stroke="lightblue" stroke-width="12" x1="41.5842" y1="359.185" x2="47.5248" y2="358.011" />
<line fill="none" stroke="lightblue" stroke-width="12" x1="47.5248" y1="358.011" x2="53.4653" y2="358.5" />
<line fill="none" stroke="lightblue" stroke-width="12" x1="53.4653" y1="358.5" x2="59.4059" y2="359.04" />
<line fill="none" stroke="lightblue" stroke-width="12" x1="59.4059" y1="359.04" x2="65.3465" y2="361.661" />
<line fill="none" stroke="lightblue" stroke-width="12" x1="65.3465" y1="361.661" x2="71.2871" y2="363.955" />
<line fill="none" stroke="lightblue" stroke-width="12" x1="71.2871" y1="363.955" x2="77.2277" y2="366.358" />
<line fill="none" stroke="lightblue" stroke-width="12" x1="77.2277" y1="366.358" x2="83.1683" y2="367.205" />
<line fill="none" stroke="lightblue" stroke-width="12" x1="83.1683" y1="367.205" x2="89.1089" y2="367.077" />
<line fill="none" stroke="lightblue" stroke-width="12" x1="89.1089" y1="367.077" x2="95.0495" y2="367.069" />
<line fill="none" stroke="lightblue" stroke-width="12" x1="95.0495" y1="367.069" x2="100.99" y2="367.126" />
<line fill="none" stroke="lightblue" stroke-width="12" x1="100.99" y1="367.126" x2="106.931" y2="367.011" />
<line fill="none" stroke="lightblue" stroke-width="12" x1="106.931" y1="367.011" x2="112.871" y2="367.018" />
<line fill="none" stroke="lightblue" stroke-width="12" x1="112.871" y1="367.018" x2="118.812" y2="367.146" />
<line fill="none" stroke="lightblue" stroke-width="12" x1="118.812" y1="367.146" x2="124.752" y2="367.394" />
<line fill="none" stroke="lightblue" stroke-width="12" x1="124.752" y1="367.394" x2="130.693" y2="367.764" />
<line fill="none" stroke="lightblue" stroke-width="12" x1="130.693" y1="367.764" x2="136.634" y2="368.254" />
<line fill="none" stroke="lightblue" stroke-width="12" x1="136.634" y1="368.254" x2="142.574" y2="368.864" />
<line fill="none" stroke="lightblue" stroke-width="12" x1="142.574" y1="368.864" x2="148.515" y2="369.594" />
<line fill="none" stroke="lightblue" stroke-width="12" x1="148.515" y1="369.594" x2="154.455" y2="370.443" />
<line fill="none" stroke="lightblue" stroke-width="12" x1="154.455" y1="370.443" x2="160.396" y2="371.41" />
<line fill="none" stroke="lightblue" stroke-width="12" x1="160.396" y1="371.41" x2="166.337" y2="372.495" />
<line fill="none" stroke="lightblue" stroke-width="12" x1="166.337" y1="372.495" x2="172.277" y2="373.11" />
<line fill="none" stroke="lightblue" stroke-width="12" x1="172.277" y1="373.11" x2="178.218" y2="378.517" />
<line fill="none" stroke="lightblue" stroke-width="12" x1="178.218" y1="378.517" x2="184.158" y2="388.285" />
<line fill="none" stroke="lightblue" stroke-width="12" x1="184.158" y1="388.285" x2="190.099" y2="400.279" />
<line fill="none" stroke="lightblue" stroke-width="12" x1="190.099" y1="400.279" x2="196.04" y2="412.477" />
<line fill="none" stroke="lightblue" stroke-width="12" x1="196.04" y1="412.477" x2="201.98" y2="424.864" />
<line fill="none" stroke="lightblue" stroke-width="12" x1="201.98" y1="424.864" x2="207.921" y2="437.426" />
<line fill="none" stroke="lightblue" stroke-width="12" x1="207.921" y1="437.426" x2="213.861" y2="450.153" />
<line fill="none" stroke="lightblue" stroke-width="12" x1="213.861" y1="450.153" x2="219.802" y2="463.033" />
<line fill="none" stroke="lightblue" stroke-width="12" x1="219.802" y1="463.033" x2="225.743" y2="476.057" />
<line fill="none" stroke="lightblue" stroke-width="12" x1="225.743" y1="476.057" x2="231.683" y2="489.214" />
<line fill="none" stroke="lightblue" stroke-width="12" x1="231.683" y1="489.214" x2="237.624" y2="502.496" />
<line fill="none" stroke="lightblue" stroke-width="12" x1="237.624" y1="502.496" x2="243.564" y2="515.228" />
<line fill="none" stroke="lightblue" stroke-width="12" x1="243.564" y1="515.228" x2="249.505" y2="523.062" />
<line fill="none" stroke="lightblue" stroke-width="12" x1="249.505" y1="523.062" x2="255.446" y2="531.189" />
<line fill="none" stroke="lightblue" stroke-width="12" x1="255.446" y1="531.189" x2="261.386" y2="539.6" />
<line fill="none" stroke="lightblue" stroke-width="12" x1="261.386" y1="539.6" x2="267.327" y2="548.282" />
<line fill="none" stroke="lightblue" stroke-width="12" x1="267.327" y1="548.282" x2="273.267" y2="548.819" />
<line fill="none" stroke="lightblue" stroke-width="12" x1="273.267" y1="548.819" x2="279.208" y2="545.712" />
<line fill="none" stroke="lightblue" stroke-width="12" x1="279.208" y1="545.712" x2="285.149" y2="538.056" />
<line fill="none" stroke="lightblue" stroke-width="12" x1="285.149" y1="538.056" x2="291.089" y2="530.639" />
<line fill="none" stroke="lightblue" stroke-width="12" x1="291.089" y1="530.639" x2="297.03" y2="524.337" />
<line fill="none" stroke="lightblue" stroke-width="12" x1="297.03" y1="524.337" x2="302.97" y2="567.807" />
<line fill="none" stroke-dasharray = "10, 10"  stroke="orange" stroke-width="6" x1="302.97" y1="300" x2="308.911" y2="300" />
<line fill="none" stroke-dasharray = "10, 10"  stroke="orange" stroke-width="6" x1="308.911" y1="300" x2="314.851" y2="300" />
<line fill="none" stroke-dasharray = "10, 10"  stroke="orange" stroke-width="6" x1="314.851" y1="300" x2="320.792" y2="300" />
<line fill="none" stroke-dasharray = "10, 10"  stroke="orange" stroke-width="6" x1="320.792" y1="300" x2="326.733" y2="300" />
<line fill="none" stroke-dasharray = "10, 10"  stroke="orange" stroke-width="6" x1="326.733" y1="300" x2="332.673" y2="300" />
<line fill="none" stroke-dasharray = "10, 10"  stroke="orange" stroke-width="6" x1="332.673" y1="300" x2="338.614" y2="300" />
<line fill="none" stroke-dasharray = "10, 10"  stroke="orange" stroke-width="6" x1="338.614" y1="300" x2="344.554" y2="300" />
<line fill="none" stroke-dasharray = "10, 10"  stroke="orange" stroke-width="6" x1="344.554" y1="300" x2="350.495" y2="300" />
<line fill="none" stroke-dasharray = "10, 10"  stroke="orange" stroke-width="6" x1="350.495" y1="300" x2="356.436" y2="300" />
<line fill="none" stroke-dasharray = "10, 10"  stroke="orange" stroke-width="6" x1="356.436" y1="300" x2="362.376" y2="300" />
<line fill="none" stroke-dasharray = "10, 10"  stroke="orange" stroke-width="6" x1="362.376" y1="300" x2="368.317" y2="300" />
<line fill="none" stroke-dasharray = "10, 10"  stroke="orange" stroke-width="6" x1="368.317" y1="300" x2="374.257" y2="300" />
<line fill="none" stroke-dasharray = "10, 10"  stroke="orange" stroke-width="6" x1="374.257" y1="300" x2="380.198" y2="300" />
<line fill="none" stroke-dasharray = "10, 10"  stroke="orange" stroke-width="6" x1="380.198" y1="300" x2="386.139" y2="300" />
<line fill="none" stroke-dasharray = "10, 10"  stroke="orange" stroke-width="6" x1="386.139" y1="300" x2="392.079" y2="300" />
<line fill="none" stroke-dasharray = "10, 10"  stroke="orange" stroke-width="6" x1="392.079" y1="300" x2="398.02" y2="300" />
<line fill="none" stroke-dasharray = "10, 10"  stroke="orange" stroke-width="6" x1="398.02" y1="300" x2="403.96" y2="300" />
<line fill="none" stroke-dasharray = "10, 10"  stroke="orange" stroke-width="6" x1="403.96" y1="300" x2="409.901" y2="300" />
<line fill="none" stroke-dasharray = "10, 10"  stroke="orange" stroke-width="6" x1="409.901" y1="300" x2="415.842" y2="300" />
<line fill="none" stroke-dasharray = "10, 10"  stroke="orange" stroke-width="6" x1="415.842" y1="300" x2="421.782" y2="300" />
<line fill="none" stroke-dasharray = "10, 10"  stroke="orange" stroke-width="6" x1="421.782" y1="300" x2="427.723" y2="300" />
<line fill="none" stroke-dasharray = "10, 10"  stroke="orange" stroke-width="6" x1="427.723" y1="300" x2="433.663" y2="300" />
<line fill="none" stroke-dasharray = "10, 10"  stroke="orange" stroke-width="6" x1="433.663" y1="300" x2="439.604" y2="300" />
<line fill="none" stroke-dasharray = "10, 10"  stroke="orange" stroke-width="6" x1="439.604" y1="300" x2="445.545" y2="300" />
<line fill="none" stroke-dasharray = "10, 10"  stroke="orange" stroke-width="6" x1="445.545" y1="300" x2="451.485" y2="300" />
<line fill="none" stroke-dasharray = "10, 10"  stroke="orange" stroke-width="6" x1="451.485" y1="300" x2="457.426" y2="300" />
<line fill="none" stroke-dasharray = "10, 10"  stroke="orange" stroke-width="6" x1="457.426" y1="300" x2="463.366" y2="300" />
<line fill="none" stroke-dasharray = "10, 10"  stroke="orange" stroke-width="6" x1="463.366" y1="300" x2="469.307" y2="300" />
<line fill="none" stroke-dasharray = "10, 10"  stroke="orange" stroke-width="6" x1="469.307" y1="300" x2="475.248" y2="300" />
<line fill="none" stroke-dasharray = "10, 10"  stroke="orange" stroke-width="6" x1="475.248" y1="300" x2="481.188" y2="300" />
<line fill="none" stroke-dasharray = "10, 10"  stroke="orange" stroke-width="6" x1="481.188" y1="300" x2="487.129" y2="300" />
<line fill="none" stroke-dasharray = "10, 10"  stroke="orange" stroke-width="6" x1="487.129" y1="300" x2="493.069" y2="300" />
<line fill="none" stroke-dasharray = "10, 10"  stroke="orange" stroke-width="6" x1="493.069" y1="300" x2="499.01" y2="300" />
<line fill="none" stroke-dasharray = "10, 10"  stroke="orange" stroke-width="6" x1="499.01" y1="300" x2="504.95" y2="300" />
<line fill="none" stroke-dasharray = "10, 10"  stroke="orange" stroke-width="6" x1="504.95" y1="300" x2="510.891" y2="300" />
<line fill="none" stroke-dasharray = "10, 10"  stroke="orange" stroke-width="6" x1="510.891" y1="300" x2="516.832" y2="300" />
<line fill="none" stroke-dasharray = "10, 10"  stroke="orange" stroke-width="6" x1="516.832" y1="300" x2="522.772" y2="300" />
<line fill="none" stroke-dasharray = "10, 10"  stroke="orange" stroke-width="6" x1="522.772" y1="300" x2="528.713" y2="300" />
<line fill="none" stroke-dasharray = "10, 10"  stroke="orange" stroke-width="6" x1="528.713" y1="300" x2="534.653" y2="300" />
<line fill="none" stroke-dasharray = "10, 10"  stroke="orange" stroke-width="6" x1="534.653" y1="300" x2="540.594" y2="300" />
<line fill="none" stroke-dasharray = "10, 10"  stroke="orange" stroke-width="6" x1="540.594" y1="300" x2="546.535" y2="300" />
<line fill="none" stroke-dasharray = "10, 10"  stroke="orange" stroke-width="6" x1="546.535" y1="300" x2="552.475" y2="300" />
<line fill="none" stroke-dasharray = "10, 10"  stroke="orange" stroke-width="6" x1="552.475" y1="300" x2="558.416" y2="300" />
<line fill="none" stroke-dasharray = "10, 10"  stroke="orange" stroke-width="6" x1="558.416" y1="300" x2="564.356" y2="300" />
<line fill="none" stroke-dasharray = "10, 10"  stroke="orange" stroke-width="6" x1="564.356" y1="300" x2="570.297" y2="300" />
<line fill="none" stroke-dasharray = "10, 10"  stroke="orange" stroke-width="6" x1="570.297" y1="300" x2="576.238" y2="300" />
<line fill="none" stroke-dasharray = "10, 10"  stroke="orange" stroke-width="6" x1="576.238" y1="300" x2="582.178" y2="300" />
<line fill="none" stroke-dasharray = "10, 10"  stroke="orange" stroke-width="6" x1="582.178" y1="300" x2="588.119" y2="300" />
<line fill="none" stroke-dasharray = "10, 10"  stroke="orange" stroke-width="6" x1="588.119" y1="300" x2="594.059" y2="300" />
<line fill="none" stroke="olive" stroke-width="3" x1="0" y1="241.057" x2="5.94059" y2="241.057" />
<line fill="none" stroke="olive" stroke-width="3" x1="5.94059" y1="241.057" x2="11.8812" y2="243.861" />
<line fill="none" stroke="olive" stroke-width="3" x1="11.8812" y1="243.861" x2="17.8218" y2="246.823" />
<line fill="none" stroke="olive" stroke-width="3" x1="17.8218" y1="246.823" x2="23.7624" y2="249.939" />
<line fill="none" stroke="olive" stroke-width="3" x1="23.7624" y1="249.939" x2="29.703" y2="253.203" />
<line fill="none" stroke="olive" stroke-width="3" x1="29.703" y1="253.203" x2="35.6436" y2="256.611" />
<line fill="none" stroke="olive" stroke-width="3" x1="35.6436" y1="256.611" x2="41.5842" y2="260.159" />
<line fill="none" stroke="olive" stroke-width="3" x1="41.5842" y1="260.159" x2="47.5248" y2="263.215" />
<line fill="none" stroke="olive" stroke-width="3" x1="47.5248" y1="263.215" x2="53.4653" y2="264.731" />
<line fill="none" stroke="olive" stroke-width="3" x1="53.4653" y1="264.731" x2="59.4059" y2="266.314" />
<line fill="none" stroke="olive" stroke-width="3" x1="59.4059" y1="266.314" x2="65.3465" y2="267.2" />
<line fill="none" stroke="olive" stroke-width="3" x1="65.3465" y1="267.2" x2="71.2871" y2="264.924" />
<line fill="none" stroke="olive" stroke-width="3" x1="71.2871" y1="264.924" x2="77.2277" y2="262.806" />
<line fill="none" stroke="olive" stroke-width="3" x1="77.2277" y1="262.806" x2="83.1683" y2="260.847" />
<line fill="none" stroke="olive" stroke-width="3" x1="83.1683" y1="260.847" x2="89.1089" y2="259.052" />
<line fill="none" stroke="olive" stroke-width="3" x1="89.1089" y1="259.052" x2="95.0495" y2="257.422" />
<line fill="none" stroke="olive" stroke-width="3" x1="95.0495" y1="257.422" x2="100.99" y2="255.91" />
<line fill="none" stroke="olive" stroke-width="3" x1="100.99" y1="255.91" x2="106.931" y2="254.31" />
<line fill="none" stroke="olive" stroke-width="3" x1="106.931" y1="254.31" x2="112.871" y2="252.88" />
<line fill="none" stroke="olive" stroke-width="3" x1="112.871" y1="252.88" x2="118.812" y2="251.624" />
<line fill="none" stroke="olive" stroke-width="3" x1="118.812" y1="251.624" x2="124.752" y2="250.542" />
<line fill="none" stroke="olive" stroke-width="3" x1="124.752" y1="250.542" x2="130.693" y2="249.637" />
<line fill="none" stroke="olive" stroke-width="3" x1="130.693" y1="249.637" x2="136.634" y2="248.911" />
<line fill="none" stroke="olive" stroke-width="3" x1="136.634" y1="248.911" x2="142.574" y2="248.364" />
<line fill="none" stroke="olive" stroke-width="3" x1="142.574" y1="248.364" x2="148.515" y2="247.998" />
<line fill="none" stroke="olive" stroke-width="3" x1="148.515" y1="247.998" x2="154.455" y2="247.812" />
<line fill="none" stroke="olive" stroke-width="3" x1="154.455" y1="247.812" x2="160.396" y2="247.808" />
<line fill="none" stroke="olive" stroke-width="3" x1="160.396" y1="247.808" x2="166.337" y2="247.986" />
<line fill="none" stroke="olive" stroke-width="3" x1="166.337" y1="247.986" x2="172.277" y2="240.691" />
<line fill="none" stroke="olive" stroke-width="3" x1="172.277" y1="240.691" x2="178.218" y2="232.077" />
<line fill="none" stroke="olive" stroke-width="3" x1="178.218" y1="232.077" x2="184.158" y2="220.571" />
<line fill="none" stroke="olive" stroke-width="3" x1="184.158" y1="220.571" x2="190.099" y2="207.638" />
<line fill="none" stroke="olive" stroke-width="3" x1="190.099" y1="207.638" x2="196.04" y2="195.017" />
<line fill="none" stroke="olive" stroke-width="3" x1="196.04" y1="195.017" x2="201.98" y2="182.754" />
<line fill="none" stroke="olive" stroke-width="3" x1="201.98" y1="182.754" x2="207.921" y2="170.903" />
<line fill="none" stroke="olive" stroke-width="3" x1="207.921" y1="170.903" x2="213.861" y2="159.529" />
<line fill="none" stroke="olive" stroke-width="3" x1="213.861" y1="159.529" x2="219.802" y2="148.706" />
<line fill="none" stroke="olive" stroke-width="3" x1="219.802" y1="148.706" x2="225.743" y2="138.519" />
<line fill="none" stroke="olive" stroke-width="3" x1="225.743" y1="138.519" x2="231.683" y2="129.067" />
<line fill="none" stroke="olive" stroke-width="3" x1="231.683" y1="129.067" x2="237.624" y2="120.46" />
<line fill="none" stroke="olive" stroke-width="3" x1="237.624" y1="120.46" x2="243.564" y2="112.816" />
<line fill="none" stroke="olive" stroke-width="3" x1="243.564" y1="112.816" x2="249.505" y2="106.261" />
<line fill="none" stroke="olive" stroke-width="3" x1="249.505" y1="106.261" x2="255.446" y2="100.92" />
<line fill="none" stroke="olive" stroke-width="3" x1="255.446" y1="100.92" x2="261.386" y2="96.9108" />
<line fill="none" stroke="olive" stroke-width="3" x1="261.386" y1="96.9108" x2="267.327" y2="93.9581" />
<line fill="none" stroke="olive" stroke-width="3" x1="267.327" y1="93.9581" x2="273.267" y2="89.2206" />
<line fill="none" stroke="olive" stroke-width="3" x1="273.267" y1="89.2206" x2="279.208" y2="76.2457" />
<line fill="none" stroke="olive" stroke-width="3" x1="279.208" y1="76.2457" x2="285.149" y2="67.6442" />
<line fill="none" stroke="olive" stroke-width="3" x1="285.149" y1="67.6442" x2="291.089" y2="64.2601" />
<line fill="none" stroke="olive" stroke-width="3" x1="291.089" y1="64.2601" x2="297.03" y2="66.4823" />
<line fill="none" stroke="olive" stroke-width="3" x1="297.03" y1="66.4823" x2="302.97" y2="28.7503" />
<line fill="none" stroke-dasharray = "10, 10"  stroke="orange" stroke-width="6" x1="302.97" y1="300" x2="308.911" y2="300" />
<line fill="none" stroke-dasharray = "10, 10"  stroke="orange" stroke-width="6" x1="308.911" y1="300" x2="314.851" y2="300" />
<line fill="none" stroke-dasharray = "10, 10"  stroke="orange" stroke-width="6" x1="314.851" y1="300" x2="320.792" y2="300" />
<line fill="none" stroke-dasharray = "10, 10"  stroke="orange" stroke-width="6" x1="320.792" y1="300" x2="326.733" y2="300" />
<line fill="none" stroke-dasharray = "10, 10"  stroke="orange" stroke-width="6" x1="326.733" y1="300" x2="332.673" y2="300" />
<line fill="none" stroke-dasharray = "10, 10"  stroke="orange" stroke-width="6" x1="332.673" y1="300" x2="338.614" y2="300" />
<line fill="none" stroke-dasharray = "10, 10"  stroke="orange" stroke-width="6" x1="338.614" y1="300" x2="344.554" y2="300" />
<line fill="none" stroke-dasharray = "10, 10"  stroke="orange" stroke-width="6" x1="344.554" y1="300" x2="350.495" y2="300" />
<line fill="none" stroke-dasharray = "10, 10"  stroke="orange" stroke-width="6" x1="350.495" y1="300" x2="356.436" y2="300" />
<line fill="none" stroke-dasharray = "10, 10"  stroke="orange" stroke-width="6" x1="356.436" y1="300" x2="362.376" y2="300" />
<line fill="none" stroke-dasharray = "10, 10"  stroke="orange" stroke-width="6" x1="362.376" y1="300" x2="368.317" y2="300" />
<line fill="none" stroke-dasharray = "10, 10"  stroke="orange" stroke-width="6" x1="368.317" y1="300" x2="374.257" y2="300" />
<line fill="none" stroke-dasharray = "10, 10"  stroke="orange" stroke-width="6" x1="374.257" y1="300" x2="380.198" y2="300" />
<line fill="none" stroke-dasharray = "10, 10"  stroke="orange" stroke-width="6" x1="380.198" y1="300" x2="386.139" y2="300" />
<line fill="none" stroke-dasharray = "10, 10"  stroke="orange" stroke-width="6" x1="386.139" y1="300" x2="392.079" y2="300" />
<line fill="none" stroke-dasharray = "10, 10"  stroke="orange" stroke-width="6" x1="392.079" y1="300" x2="398.02" y2="300" />
<line fill="none" stroke-dasharray = "10, 10"  stroke="orange" stroke-width="6" x1="398.02" y1="300" x2="403.96" y2="300" />
<line fill="none" stroke-dasharray = "10, 10"  stroke="orange" stroke-width="6" x1="403.96" y1="300" x2="409.901" y2="300" />
<line fill="none" stroke-dasharray = "10, 10"  stroke="orange" stroke-width="6" x1="409.901" y1="300" x2="415.842" y2="300" />
<line fill="none" stroke-dasharray = "10, 10"  stroke="orange" stroke-width="6" x1="415.842" y1="300" x2="421.782" y2="300" />
<line fill="none" stroke-dasharray = "10, 10"  stroke="orange" stroke-width="6" x1="421.782" y1="300" x2="427.723" y2="300" />
<line fill="none" stroke-dasharray = "10, 10"  stroke="orange" stroke-width="6" x1="427.723" y1="300" x2="433.663" y2="300" />
<line fill="none" stroke-dasharray = "10, 10"  stroke="orange" stroke-width="6" x1="433.663" y1="300" x2="439.604" y2="300" />
<line fill="none" stroke-dasharray = "10, 10"  stroke="orange" stroke-width="6" x1="439.604" y1="300" x2="445.545" y2="300" />
<line fill="none" stroke-dasharray = "10, 10"  stroke="orange" stroke-width="6" x1="445.545" y1="300" x2="451.485" y2="300" />
<line fill="none" stroke-dasharray = "10, 10"  stroke="orange" stroke-width="6" x1="451.485" y1="300" x2="457.426" y2="300" />
<line fill="none" stroke-dasharray = "10, 10"  stroke="orange" stroke-width="6" x1="457.426" y1="300" x2="463.366" y2="300" />
<line fill="none" stroke-dasharray = "10, 10"  stroke="orange" stroke-width="6" x1="463.366" y1="300" x2="469.307" y2="300" />
<line fill="none" stroke-dasharray = "10, 10"  stroke="orange" stroke-width="6" x1="469.307" y1="300" x2="475.248" y2="300" />
<line fill="none" stroke-dasharray = "10, 10"  stroke="orange" stroke-width="6" x1="475.248" y1="300" x2="481.188" y2="300" />
<line fill="none" stroke-dasharray = "10, 10"  stroke="orange" stroke-width="6" x1="481.188" y1="300" x2="487.129" y2="300" />
<line fill="none" stroke-dasharray = "10, 10"  stroke="orange" stroke-width="6" x1="487.129" y1="300" x2="493.069" y2="300" />
<line fill="none" stroke-dasharray = "10, 10"  stroke="orange" stroke-width="6" x1="493.069" y1="300" x2="499.01" y2="300" />
<line fill="none" stroke-dasharray = "10, 10"  stroke="orange" stroke-width="6" x1="499.01" y1="300" x2="504.95" y2="300" />
<line fill="none" stroke-dasharray = "10, 10"  stroke="orange" stroke-width="6" x1="504.95" y1="300" x2="510.891" y2="300" />
<line fill="none" stroke-dasharray = "10, 10"  stroke="orange" stroke-width="6" x1="510.891" y1="300" x2="516.832" y2="300" />
<line fill="none" stroke-dasharray = "10, 10"  stroke="orange" stroke-width="6" x1="516.832" y1="300" x2="522.772" y2="300" />
<line fill="none" stroke-dasharray = "10, 10"  stroke="orange" stroke-width="6" x1="522.772" y1="300" x2="528.713" y2="300" />
<line fill="none" stroke-dasharray = "10, 10"  stroke="orange" stroke-width="6" x1="528.713" y1="300" x2="534.653" y2="300" />
<line fill="none" stroke-dasharray = "10, 10"  stroke="orange" stroke-width="6" x1="534.653" y1="300" x2="540.594" y2="300" />
<line fill="none" stroke-dasharray = "10, 10"  stroke="orange" stroke-width="6" x1="540.594" y1="300" x2="546.535" y2="300" />
<line fill="none" stroke-dasharray = "10, 10"  stroke="orange" stroke-width="6" x1="546.535" y1="300" x2="552.475" y2="300" />
<line fill="none" stroke-dasharray = "10, 10"  stroke="orange" stroke-width="6" x1="552.475" y1="300" x2="558.416" y2="300" />
<line fill="none" stroke-dasharray = "10, 10"  stroke="orange" stroke-width="6" x1="558.416" y1="300" x2="564.356" y2="300" />
<line fill="none" stroke-dasharray = "10, 10"  stroke="orange" stroke-width="6" x1="564.356" y1="300" x2="570.297" y2="300" />
<line fill="none" stroke-dasharray = "10, 10"  stroke="orange" stroke-width="6" x1="570.297" y1="300" x2="576.238" y2="300" />
<line fill="none" stroke-dasharray = "10, 10"  stroke="orange" stroke-width="6" x1="576.238" y1="300" x2="582.178" y2="300" />
<line fill="none" stroke-dasharray = "10, 10"  stroke="orange" stroke-width="6" x1="582.178" y1="300" x2="588.119" y2="300" />
<line fill="none" stroke-dasharray = "10, 10"  stroke="orange" stroke-width="6" x1="588.119" y1="300" x2="594.059" y2="300" />

<!--Draw Glitches -->

<line fill="none" stroke="black" stroke-width="4" x1="308.911" y1="-130" x2="308.911" y2="-180"  stroke-dasharray = "10,5" />
<text transform="scale(1,-1)" font-family="sans-serif" font-size="30" stroke = "rgb(0,0,0)" line = "rgb(0,0,0)"  fill = "lightblue" x="313.911" y="180" >51</text>

<!-- -->


<!--Draw Glitches -->

<line fill="none" stroke="black" stroke-width="4" x1="308.911" y1="-130" x2="308.911" y2="-180"  stroke-dasharray = "10,5" />
<text transform="scale(1,-1)" font-family="sans-serif" font-size="30" stroke = "rgb(0,0,0)" line = "rgb(0,0,0)"  fill = "olive" x="313.911" y="180" >51</text>

<!-- -->


<!--Draw the X and Y axes -->
<polyline fill="none" stroke="black" stroke-width="6"  points=" 600,0 0,0 0, 600" />
<polyline fill="none" stroke="black" stroke-width="1"  points=" 0 600  600 600  600 0" />
<!-- -->


<!--Draw labels and tics for X axis -->

<line fill="none" stroke="black"  stroke-width="6"  x1="0.5" y1="0" x2="0.5" y2="-20" />
<text transform="scale(1,-1)" font-family="sans-serif" font-size="30" x="-24.5" y="45" >0</text>
<line fill="none" stroke="black"  stroke-width="6"  x1="119.312" y1="0" x2="119.312" y2="-20" />
<text transform="scale(1,-1)" font-family="sans-serif" font-size="30" x="94.3119" y="45" >20</text>
<line fill="none" stroke="black"  stroke-width="6"  x1="238.124" y1="0" x2="238.124" y2="-20" />
<text transform="scale(1,-1)" font-family="sans-serif" font-size="30" x="213.124" y="45" >40</text>
<line fill="none" stroke="black"  stroke-width="6"  x1="356.936" y1="0" x2="356.936" y2="-20" />
<text transform="scale(1,-1)" font-family="sans-serif" font-size="30" x="331.936" y="45" >60</text>
<line fill="none" stroke="black"  stroke-width="6"  x1="475.748" y1="0" x2="475.748" y2="-20" />
<text transform="scale(1,-1)" font-family="sans-serif" font-size="30" x="450.748" y="45" >80</text>
<line fill="none" stroke="black"  stroke-width="6"  x1="594.559" y1="0" x2="594.559" y2="-20" />
<text transform="scale(1,-1)" font-family="sans-serif" font-size="30" x="569.559" y="45" >100</text>


<!--Draw labels and tics for Y axis -->

<line fill="none" stroke="black" stroke-width="6" x1="0.0" y1="0" x2="-20" y2="0" />
<text transform="scale(1,-1)" text-anchor="end" font-family="sans-serif" font-size="30" x="-25" y="10" >10</text>
<line fill="none" stroke="black" stroke-width="6" x1="0.0" y1="54.5455" x2="-20" y2="54.5455" />
<text transform="scale(1,-1)" text-anchor="end" font-family="sans-serif" font-size="30" x="-25" y="-44.5455" >15</text>
<line fill="none" stroke="black" stroke-width="6" x1="0.0" y1="109.091" x2="-20" y2="109.091" />
<text transform="scale(1,-1)" text-anchor="end" font-family="sans-serif" font-size="30" x="-25" y="-99.0909" >20</text>
<line fill="none" stroke="black" stroke-width="6" x1="0.0" y1="163.636" x2="-20" y2="163.636" />
<text transform="scale(1,-1)" text-anchor="end" font-family="sans-serif" font-size="30" x="-25" y="-153.636" >25</text>
<line fill="none" stroke="black" stroke-width="6" x1="0.0" y1="218.182" x2="-20" y2="218.182" />
<text transform="scale(1,-1)" text-anchor="end" font-family="sans-serif" font-size="30" x="-25" y="-208.182" >30</text>
<line fill="none" stroke="black" stroke-width="6" x1="0.0" y1="272.727" x2="-20" y2="272.727" />
<text transform="scale(1,-1)" text-anchor="end" font-family="sans-serif" font-size="30" x="-25" y="-262.727" >35</text>
<line fill="none" stroke="black" stroke-width="6" x1="0.0" y1="327.273" x2="-20" y2="327.273" />
<text transform="scale(1,-1)" text-anchor="end" font-family="sans-serif" font-size="30" x="-25" y="-317.273" >40</text>
<line fill="none" stroke="black" stroke-width="6" x1="0.0" y1="381.818" x2="-20" y2="381.818" />
<text transform="scale(1,-1)" text-anchor="end" font-family="sans-serif" font-size="30" x="-25" y="-371.818" >45</text>
<line fill="none" stroke="black" stroke-width="6" x1="0.0" y1="436.364" x2="-20" y2="436.364" />
<text transform="scale(1,-1)" text-anchor="end" font-family="sans-serif" font-size="30" x="-25" y="-426.364" >50</text>
<line fill="none" stroke="black" stroke-width="6" x1="0.0" y1="490.909" x2="-20" y2="490.909" />
<text transform="scale(1,-1)" text-anchor="end" font-family="sans-serif" font-size="30" x="-25" y="-480.909" >55</text>
<line fill="none" stroke="black" stroke-width="6" x1="0.0" y1="545.455" x2="-20" y2="545.455" />
<text transform="scale(1,-1)" text-anchor="end" font-family="sans-serif" font-size="30" x="-25" y="-535.455" >60</text>
<line fill="none" stroke="black" stroke-width="6" x1="0.0" y1="600" x2="-20" y2="600" />
<text transform="scale(1,-1)" text-anchor="end" font-family="sans-serif" font-size="30" x="-25" y="-590" >65</text>

-->
</g>
</g>
<!-- Run Constants
PRINTDISTANCEDATA bool true
GLITCHESONLY bool true
PLOT 2doubles 3 4
PERTURBBY double 0.05
GLITCHLEVEL double 3
BOUNDARYWINDOW double 0.065
FRAMESPERPATH int 200
STEPSPERFRAME int 100
TRIALS int 1
ALLBLACK bool true
FILEPREFIX string Fol
GRAPHSIZE int 0
BORDER int 0
PLOTSIZE int 0
G6LINEWIDTH int 3
DELONELINEWIDTH int 10
AXISWIDTH int 6
TICLENGTH int 20
VECTOR g6 
FOLLOWERMODE FollowerMode line
FIXRANDOMSEED fixRandomSeed false
RANDOMSEED int 19191
TIMESTAMP bool true
END end 




-->
</svg>
