<?xml version="1.0" standalone="no"?>
<!-- the width and height set the total pixel output of the image in the browser -->
<!-- whatever is within the viewbox will be remapped to show in this size -->
<svg width="1000" height="1000" viewBox="1 0  1200 1200"  version="1.1" xmlns="http://www.w3.org/2000/svg" xmlns:xlink="http://www.w3.org/1999/xlink">
 <desc>ID (and file name) = Fol_2020-04-20.10_16_11.1_0.svg  mode = LINE3 </desc> 
<g transform = "scale(1 1)">

<text x = "-850" y="50" transform="rotate(-90)"  font-family="sans-serif" font-size="40" stroke ="lightgray" fill="none"> PointDistanceFollower   Apr 20 2020</text>
 <text x="200"  y="30"  font-family="sans-serif" font-size="20" >Fol_2020-04-20.10_16_11.1_0.svg  &#160;&#160;&#160;&#160;&#160; Wall time passed: 75261 msec.</text>
<text x="300" y="60"   font-family="sans-serif" font-size="20" fill="lightblue">  S6  51 msec </text>
<text x="300" y="85"   font-family="sans-serif" font-size="20" fill="olive">  CS6Dist  7 msec </text>
<text x="300" y="110"   font-family="sans-serif" font-size="20" fill="black">  LM  75203 msec </text>



 <!--DISTANCE PLOT BEGINS   mode = LINE3-->


<!-- the following will scale and place the distance plot -->
<g transform="translate(150,975) scale(1 -1)">
   <polyline fill="none" stroke=" lightblue " stroke-width=" 12 " stroke-dasharray = " 10,5 " points=" 7.92079,0 15.8416,35.7524 23.7624,71.5048 31.6832,107.257 39.604,143.01 47.5248,178.762 55.4455,198.38 63.3663,209.642 71.2871,221.802 79.2079,227.523 87.1287,234.469 95.0495,229.821 102.97,218.379 110.891,207.874 118.812,198.457 126.733,190.289 134.653,183.537 142.574,178.361 150.495,174.901 158.416,173.26 166.337,173.491 174.257,175.585 182.178,179.477 190.099,185.054 198.02,192.169 205.941,200.659 213.861,210.357 221.782,221.105 229.703,232.757 237.624,245.184 245.545,258.274 253.465,271.931 261.386,286.075 269.307,300.637 277.228,314.081 285.149,326.806 293.069,340.673 300.99,355.55 308.911,371.315 316.832,387.859 324.752,405.088 332.673,422.917 340.594,440.754 348.515,456.864 356.436,473.589 364.356,490.867 372.277,508.64 380.198,526.859 388.119,545.479 396.04,564.461 403.96,583.769 411.881,603.315 419.802,621.88 427.723,636.313 435.644,638.035 443.564,640.367 451.485,643.302 459.406,646.831 467.327,650.946 475.248,655.635 483.168,659.028 491.089,659.9 499.01,661.366 506.931,663.422 514.851,666.061 522.772,669.278 530.693,673.064 538.614,677.409 546.535,682.303 554.455,687.734 562.376,693.085 570.297,697.864 578.218,703.169 586.139,708.989 594.059,713.678 601.98,715.931 609.901,718.725 617.822,722.053 625.743,707.752 633.663,691.82 641.584,676.725 649.505,661.68 657.426,647.869 665.347,635.372 673.267,628.84 681.188,636.737 689.109,647.045 697.03,659.651 704.95,674.427 712.871,684.922 720.792,694.885 728.713,705.609 736.634,713.84 744.554,702.087 752.475,662.881 760.396,544.053 768.317,384.259 " />

<line fill="none" stroke-dasharray = "10, 10"  stroke="orange" stroke-width="6" x1="776.238" y1="400" x2="792.079" y2="400" />
   <polyline fill="none" stroke=" olive " stroke-width=" 3 " stroke-dasharray = " 5,10 " points=" 7.92079,0 15.8416,35.7524 23.7624,71.5048 31.6832,107.257 39.604,111.637 47.5248,98.6298 55.4455,110.639 63.3663,132.992 71.2871,155.897 79.2079,179.234 87.1287,202.911 95.0495,224.961 102.97,218.379 110.891,207.874 118.812,198.457 126.733,190.289 134.653,183.537 142.574,178.361 150.495,174.901 158.416,173.26 166.337,173.491 174.257,175.585 182.178,179.477 190.099,185.054 198.02,192.169 205.941,200.659 213.861,210.357 221.782,221.105 229.703,232.757 237.624,245.184 245.545,258.274 253.465,271.931 261.386,286.075 269.307,300.637 277.228,316.568 285.149,334.668 293.069,353.896 300.99,374.132 308.911,395.268 316.832,412.413 324.752,428.457 332.673,443.961 340.594,448.841 348.515,424.472 356.436,421.833 364.356,420.35 372.277,516.507 380.198,532.934 388.119,548.326 396.04,552.536 403.96,557.215 411.881,562.324 419.802,567.828 427.723,553.585 435.644,573.228 443.564,593.222 451.485,608.162 459.406,620.3 467.327,632.934 475.248,646.059 483.168,649.359 491.089,652.161 499.01,655.625 506.931,659.744 514.851,661.813 522.772,656.386 530.693,655.344 538.614,660.045 546.535,671.682 554.455,690.691 562.376,699.15 570.297,706.724 578.218,714.819 586.139,712.515 594.059,702.247 601.98,692.193 609.901,682.346 617.822,672.702 625.743,674.619 633.663,679.17 641.584,677.028 649.505,663.452 657.426,651.168 665.347,640.251 673.267,628.84 681.188,636.737 689.109,647.045 697.03,659.651 704.95,674.427 712.871,684.922 720.792,694.885 728.713,705.609 736.634,713.84 744.554,702.087 752.475,666.184 760.396,506.474 768.317,382.735 " />

<line fill="none" stroke-dasharray = "10, 10"  stroke="orange" stroke-width="6" x1="776.238" y1="400" x2="792.079" y2="400" />
   <polyline fill="none" stroke=" black " stroke-width=" 3 " stroke-dasharray = "  " points=" 7.92079,0 15.8416,35.7524 23.7624,71.5048 31.6832,107.257 39.604,140.902 47.5248,134.768 55.4455,108.253 63.3663,126.296 71.2871,144.338 79.2079,162.38 87.1287,180.422 95.0495,198.465 102.97,216.507 110.891,207.874 118.812,198.457 126.733,190.289 134.653,183.537 142.574,178.361 150.495,174.901 158.416,173.26 166.337,173.491 174.257,175.585 182.178,179.477 190.099,185.054 198.02,192.169 205.941,200.659 213.861,210.357 221.782,221.105 229.703,232.757 237.624,245.184 245.545,258.274 253.465,271.931 261.386,286.075 269.307,300.637 277.228,323.697 285.149,343.114 293.069,363.011 300.99,382.632 308.911,397.109 316.832,412.413 324.752,428.457 332.673,416.579 340.594,401.086 348.515,386.397 356.436,372.609 364.356,359.824 372.277,348.152 380.198,337.71 388.119,328.615 396.04,320.981 403.96,314.914 411.881,310.506 419.802,307.829 427.723,390.255 435.644,394.12 443.564,398.934 451.485,404.663 459.406,411.269 467.327,465.595 475.248,478.272 483.168,491.422 491.089,501.88 499.01,508.807 506.931,507.542 514.851,507.049 522.772,507.331 530.693,503.027 538.614,506.004 546.535,504.137 554.455,503.045 562.376,502.733 570.297,500.661 578.218,498.068 586.139,496.254 594.059,495.228 601.98,494.995 609.901,495.556 617.822,496.907 625.743,464.341 633.663,478.673 641.584,494.664 649.505,512.159 657.426,531.01 665.347,551.077 673.267,590.493 681.188,616.019 689.109,633.346 697.03,643.582 704.95,656.131 712.871,656.766 720.792,629.035 728.713,602.716 736.634,578.004 744.554,589.873 752.475,606.066 760.396,544.053 768.317,388.611 " />

<line fill="none" stroke-dasharray = "10, 10"  stroke="orange" stroke-width="6" x1="776.238" y1="400" x2="792.079" y2="400" />

<!--Draw Glitches -->

<line fill="none" stroke="black" stroke-width="4" x1="39.604" y1="101.637" x2="39.604" y2="51.6368"  stroke-dasharray = "10,5" />
<text transform="scale(1,-1)" font-family="sans-serif" font-size="30" stroke = "rgb(0,0,0)" line = "rgb(0,0,0)"  fill = "olive" x="44.604" y="-51.6368" >4</text>
<line fill="none" stroke="black" stroke-width="4" x1="372.277" y1="506.507" x2="372.277" y2="456.507"  stroke-dasharray = "10,5" />
<text transform="scale(1,-1)" font-family="sans-serif" font-size="30" stroke = "rgb(0,0,0)" line = "rgb(0,0,0)"  fill = "olive" x="377.277" y="-456.507" >46</text>

<!-- -->


<!--Draw Glitches -->

<line fill="none" stroke="black" stroke-width="4" x1="55.4455" y1="98.2534" x2="55.4455" y2="48.2534"  stroke-dasharray = "10,5" />
<text transform="scale(1,-1)" font-family="sans-serif" font-size="30" stroke = "rgb(0,0,0)" line = "rgb(0,0,0)"  fill = "black" x="60.4455" y="-48.2534" >6</text>
<line fill="none" stroke="black" stroke-width="4" x1="427.723" y1="380.255" x2="427.723" y2="330.255"  stroke-dasharray = "10,5" />
<text transform="scale(1,-1)" font-family="sans-serif" font-size="30" stroke = "rgb(0,0,0)" line = "rgb(0,0,0)"  fill = "black" x="432.723" y="-330.255" >53</text>
<line fill="none" stroke="black" stroke-width="4" x1="467.327" y1="455.595" x2="467.327" y2="405.595"  stroke-dasharray = "10,5" />
<text transform="scale(1,-1)" font-family="sans-serif" font-size="30" stroke = "rgb(0,0,0)" line = "rgb(0,0,0)"  fill = "black" x="472.327" y="-405.595" >58</text>

<!-- -->


<!--Draw the X and Y axes -->
<polyline fill="none" stroke="black" stroke-width="6"  points=" 800,0 0,0 0, 800" />
<polyline fill="none" stroke="black" stroke-width="1"  points=" 0 800  800 800  800 0" />
<!-- -->


<!--Draw labels and tics for X axis -->

<line fill="none" stroke="black"  stroke-width="6"  x1="0.5" y1="0" x2="0.5" y2="-20" />
<text transform="scale(1,-1)" font-family="sans-serif" font-size="30" x="-24.5" y="45" >0</text>
<line fill="none" stroke="black"  stroke-width="6"  x1="158.916" y1="0" x2="158.916" y2="-20" />
<text transform="scale(1,-1)" font-family="sans-serif" font-size="30" x="133.916" y="45" >20</text>
<line fill="none" stroke="black"  stroke-width="6"  x1="317.332" y1="0" x2="317.332" y2="-20" />
<text transform="scale(1,-1)" font-family="sans-serif" font-size="30" x="292.332" y="45" >40</text>
<line fill="none" stroke="black"  stroke-width="6"  x1="475.748" y1="0" x2="475.748" y2="-20" />
<text transform="scale(1,-1)" font-family="sans-serif" font-size="30" x="450.748" y="45" >60</text>
<line fill="none" stroke="black"  stroke-width="6"  x1="634.163" y1="0" x2="634.163" y2="-20" />
<text transform="scale(1,-1)" font-family="sans-serif" font-size="30" x="609.163" y="45" >80</text>
<line fill="none" stroke="black"  stroke-width="6"  x1="792.579" y1="0" x2="792.579" y2="-20" />
<text transform="scale(1,-1)" font-family="sans-serif" font-size="30" x="767.579" y="45" >100</text>


<!--Draw labels and tics for Y axis -->

<line fill="none" stroke="black" stroke-width="6" x1="0.0" y1="0" x2="-20" y2="0" />
<text transform="scale(1,-1)" text-anchor="end" font-family="sans-serif" font-size="30" x="-25" y="10" >0</text>
<line fill="none" stroke="black" stroke-width="6" x1="0.0" y1="133.333" x2="-20" y2="133.333" />
<text transform="scale(1,-1)" text-anchor="end" font-family="sans-serif" font-size="30" x="-25" y="-123.333" >5</text>
<line fill="none" stroke="black" stroke-width="6" x1="0.0" y1="266.667" x2="-20" y2="266.667" />
<text transform="scale(1,-1)" text-anchor="end" font-family="sans-serif" font-size="30" x="-25" y="-256.667" >10</text>
<line fill="none" stroke="black" stroke-width="6" x1="0.0" y1="400" x2="-20" y2="400" />
<text transform="scale(1,-1)" text-anchor="end" font-family="sans-serif" font-size="30" x="-25" y="-390" >15</text>
<line fill="none" stroke="black" stroke-width="6" x1="0.0" y1="533.333" x2="-20" y2="533.333" />
<text transform="scale(1,-1)" text-anchor="end" font-family="sans-serif" font-size="30" x="-25" y="-523.333" >20</text>
<line fill="none" stroke="black" stroke-width="6" x1="0.0" y1="666.667" x2="-20" y2="666.667" />
<text transform="scale(1,-1)" text-anchor="end" font-family="sans-serif" font-size="30" x="-25" y="-656.667" >25</text>
<line fill="none" stroke="black" stroke-width="6" x1="0.0" y1="800" x2="-20" y2="800" />
<text transform="scale(1,-1)" text-anchor="end" font-family="sans-serif" font-size="30" x="-25" y="-790" >30</text>

-->
</g>
</g>
<!-- Run Constants
PRINTDISTANCEDATA bool true
GLITCHESONLY bool false
PERTURBBY double 0.05
GLITCHLEVEL double 3
BOUNDARYWINDOW double 0.065
STEPSPERFRAME int 100
TRIALS int 1
ALLBLACK bool true
FILEPREFIX string Fol
NIGGLISELLINGFIRST bool false
ENABLE DistanceEnableString 
DISABLE DistanceDisableString 
GRAPHSIZE int 0
BORDER int 0
PLOTSIZE int 0
AXISWIDTH int 6
TICLENGTH int 20
VECTOR g6 
FOLLOWERMODE FollowerMode line
FIXRANDOMSEED fixRandomSeed true
RANDOMSEED int 18
TIMESTAMP bool true
END end 


-->
</svg>
