<?xml version="1.0" standalone="no"?>
<!-- the width and height set the total pixel output of the image in the browser -->
<!-- whatever is within the viewbox will be remapped to show in this size -->
<svg width="1000" height="1000" viewBox="1 0 1000 1000"  version="1.1" xmlns="http://www.w3.org/2000/svg" xmlns:xlink="http://www.w3.org/1999/xlink">
 <desc>ID (and file name) = Fol_2018-05-09.10_08_33.1_3.svg </desc> 
 <text x="700" y="30" font-family="sans-serif" font-size="20">Wall time passed: -35534 msec.</text>
<text x="300" y="60"   font-family="sans-serif" font-size="20" fill="lightblue">S6  lightblue</text>
<text x="300" y="85"   font-family="sans-serif" font-size="20" fill="slategrey">NCDist  slategrey</text>
<text x="300" y="110"  font-family="sans-serif" font-size="20" fill="violet">D7  violet</text>
<text x="300" y="135"  font-family="sans-serif" font-size="20" fill="olive">CS6Dist  olive</text>



 <!--DISTANCE PLOT BEGINS-->


<!-- the following will scale and place the distance plot -->
<g  transform="translate(0,50) ">
<g transform="translate(150,700) scale(1 -1)">
   <polyline fill="none" stroke=" lightblue " stroke-width=" 12 " points=" 5.2,0 10.4,21.2582 15.6,42.5164 20.8,60.6459 26,75.163 31.2,90.6227 36.4,106.616 41.6,118.746 46.8,120.668 52,123.209 57.2,126.331 62.4,123.301 67.6,120.481 72.8,118.269 78,116.701 83.2,115.801 88.4,115.587 93.6,116.061 98.8,114.884 104,113.762 109.2,113.335 114.4,113.609 119.6,114.582 124.8,116.234 130,118.537 135.2,121.455 140.4,124.945 145.6,128.959 150.8,133.451 156,138.374 161.2,143.684 166.4,149.34 171.6,155.303 176.8,161.54 182,168.02 187.2,174.717 192.4,181.605 197.6,188.665 202.8,195.878 208,203.227 213.2,210.698 218.4,218.344 223.6,226.394 228.8,234.656 234,243.11 239.2,251.735 244.4,258.038 249.6,263.401 254.8,268.991 260,274.796 265.2,280.801 270.4,286.994 275.6,293.364 280.8,299.899 286,304.303 291.2,302.7 296.4,295.034 301.6,287.377 306.8,279.727 312,272.087 317.2,264.458 322.4,256.839 327.6,249.232 332.8,241.673 338,234.144 343.2,226.627 348.4,219.123 353.6,211.633 358.8,204.159 364,196.702 369.2,189.265 374.4,181.851 379.6,174.461 384.8,167.1 390,159.771 395.2,152.479 400.4,145.229 405.6,138.029 410.8,130.885 416,123.809 421.2,116.812 426.4,109.909 431.6,103.12 436.8,96.4687 442,89.985 447.2,83.7081 452.4,77.6882 457.6,71.9899 462.8,66.6956 468,61.9091 473.2,57.7567 478.4,54.3839 483.6,51.9429 488.8,46.2179 494,38.5149 499.2,30.8119 504.4,23.1089 509.6,15.406 514.8,7.70298 520,0 " />
   <polyline fill="none" stroke=" slategrey " stroke-width=" 9 " points=" 5.2,0 10.4,17.0656 15.6,34.1312 20.8,51.1968 26,68.2624 31.2,85.328 36.4,102.394 41.6,119.459 46.8,133.385 52,130.22 57.2,129.25 62.4,130.523 67.6,133.975 72.8,139.445 78,146.707 83.2,155.51 88.4,165.609 93.6,175.446 98.8,177.395 104,176.999 109.2,177.011 114.4,177.432 119.6,178.26 124.8,179.487 130,181.107 135.2,183.109 140.4,185.48 145.6,188.206 150.8,191.273 156,194.664 161.2,198.363 166.4,202.353 171.6,206.616 176.8,211.137 182,215.898 187.2,220.886 192.4,226.083 197.6,231.478 202.8,237.055 208,242.803 213.2,248.709 218.4,254.763 223.6,260.788 228.8,263.174 234,265.811 239.2,268.692 244.4,271.809 249.6,275.154 254.8,278.72 260,282.497 265.2,286.477 270.4,290.652 275.6,295.013 280.8,299.554 286,304.199 291.2,307.601 296.4,311.199 301.6,314.986 306.8,312.669 312,304.939 317.2,297.252 322.4,289.612 327.6,282.021 332.8,274.485 338,267.007 343.2,259.593 348.4,252.248 353.6,244.979 358.8,237.792 364,230.696 369.2,223.699 374.4,216.81 379.6,210.04 384.8,203.401 390,196.906 395.2,190.571 400.4,184.41 405.6,178.444 410.8,172.69 416,167.173 421.2,161.915 426.4,156.943 431.6,152.285 436.8,147.971 442,144.031 447.2,140.496 452.4,137.399 457.6,134.77 462.8,132.635 468,131.02 473.2,128.8 478.4,123.563 483.6,118.644 488.8,101.985 494,84.9878 499.2,67.9902 504.4,50.9927 509.6,33.9951 514.8,16.9976 520,6.84657e-13 " />
   <polyline fill="none" stroke=" violet " stroke-width=" 6 " points=" 5.2,0 10.4,37.8083 15.6,75.6166 20.8,110.721 26,142.95 31.2,173.793 36.4,199.954 41.6,218.567 46.8,223.371 52,228.957 57.2,231.754 62.4,229.686 67.6,228.696 72.8,228.827 78,230.105 83.2,232.111 88.4,232.116 93.6,232.902 98.8,234.46 104,236.776 109.2,239.826 114.4,243.584 119.6,248.017 124.8,253.09 130,258.765 135.2,265.004 140.4,271.767 145.6,279.017 150.8,286.717 156,294.831 161.2,303.326 166.4,312.171 171.6,321.338 176.8,330.799 182,340.53 187.2,350.508 192.4,360.713 197.6,371.126 202.8,381.731 208,392.511 213.2,403.453 218.4,414.534 223.6,425.816 228.8,437.379 234,449.201 239.2,461.263 244.4,468.004 249.6,473.76 254.8,479.828 260,486.196 265.2,492.853 270.4,499.785 275.6,506.983 280.8,514.435 286,517.765 291.2,513.639 296.4,501.328 301.6,489.028 306.8,476.74 312,464.467 317.2,452.207 322.4,439.964 327.6,427.738 332.8,415.445 338,403.128 343.2,390.839 348.4,378.581 353.6,366.356 358.8,354.168 364,342.023 369.2,329.924 374.4,317.878 379.6,305.891 384.8,293.971 390,282.127 395.2,270.371 400.4,258.716 405.6,247.176 410.8,235.769 416,224.519 421.2,213.451 426.4,202.597 431.6,191.995 436.8,181.63 442,170.846 447.2,160.287 452.4,150.011 457.6,140.092 462.8,130.63 468,121.764 473.2,113.499 478.4,101.713 483.6,88.9986 488.8,76.2845 494,63.5704 499.2,50.8563 504.4,38.1423 509.6,25.4282 514.8,12.7141 520,2.83378e-05 " />
   <polyline fill="none" stroke=" olive " stroke-width=" 3 " points=" 5.2,0 10.4,21.2582 15.6,42.5164 20.8,96.4282 26,108.361 31.2,121.562 36.4,135.661 41.6,149.81 46.8,148.437 52,147.593 57.2,144.888 62.4,139.499 67.6,134.488 72.8,129.898 78,125.776 83.2,122.168 88.4,119.122 93.6,116.681 98.8,114.884 104,113.762 109.2,113.335 114.4,113.609 119.6,114.582 124.8,116.234 130,118.537 135.2,121.455 140.4,124.945 145.6,128.959 150.8,133.451 156,138.374 161.2,143.684 166.4,149.34 171.6,155.303 176.8,161.54 182,168.02 187.2,174.717 192.4,181.605 197.6,188.665 202.8,195.878 208,203.227 213.2,210.698 218.4,442.552 223.6,436.837 228.8,431.312 234,425.984 239.2,420.862 244.4,294.157 249.6,299.995 254.8,306.016 260,312.209 265.2,318.565 270.4,325.073 275.6,331.726 280.8,338.513 286,353.208 291.2,302.7 296.4,295.034 301.6,287.377 306.8,279.727 312,272.087 317.2,264.458 322.4,256.839 327.6,249.232 332.8,277.307 338,269.604 343.2,261.901 348.4,254.198 353.6,246.495 358.8,238.792 364,231.089 369.2,223.386 374.4,215.683 379.6,207.98 384.8,200.277 390,192.574 395.2,184.871 400.4,177.168 405.6,169.465 410.8,161.763 416,154.06 421.2,146.357 426.4,138.654 431.6,130.951 436.8,123.248 442,115.545 447.2,107.842 452.4,100.139 457.6,92.4357 462.8,84.7327 468,77.0298 473.2,69.3268 478.4,61.6238 483.6,53.9208 488.8,46.2179 494,38.5149 499.2,30.8119 504.4,23.1089 509.6,15.406 514.8,7.70298 520,0 " />

<!--Draw the X and Y axes -->
<polyline fill="none" stroke="black" stroke-width="6"  points=" 600,0 0,0 0,520" />
<!-- -->


<!--Draw labels and tics for X axis -->

<line fill="none" stroke="black"  stroke-width="6"  x1="0.5" y1="0" x2="0.5" y2="-20" />
<text transform="scale(1,-1)" font-family="sans-serif" font-size="30" x="-24.5" y="45" >0</text>
<line fill="none" stroke="black"  stroke-width="6"  x1="104.5" y1="0" x2="104.5" y2="-20" />
<text transform="scale(1,-1)" font-family="sans-serif" font-size="30" x="79.5" y="45" >20</text>
<line fill="none" stroke="black"  stroke-width="6"  x1="208.5" y1="0" x2="208.5" y2="-20" />
<text transform="scale(1,-1)" font-family="sans-serif" font-size="30" x="183.5" y="45" >40</text>
<line fill="none" stroke="black"  stroke-width="6"  x1="312.5" y1="0" x2="312.5" y2="-20" />
<text transform="scale(1,-1)" font-family="sans-serif" font-size="30" x="287.5" y="45" >60</text>
<line fill="none" stroke="black"  stroke-width="6"  x1="416.5" y1="0" x2="416.5" y2="-20" />
<text transform="scale(1,-1)" font-family="sans-serif" font-size="30" x="391.5" y="45" >80</text>
<line fill="none" stroke="black"  stroke-width="6"  x1="520.5" y1="0" x2="520.5" y2="-20" />
<text transform="scale(1,-1)" font-family="sans-serif" font-size="30" x="495.5" y="45" >100</text>


<!--Draw labels and tics for Y axis -->

<line fill="none" stroke="black" stroke-width="6" x1="0.0" y1="0" x2="-20" y2="0" />
<text transform="scale(1,-1)" text-anchor="end" font-family="sans-serif" font-size="30" x="-25" y="10" >0</text>
<line fill="none" stroke="black" stroke-width="6" x1="0.0" y1="74.2857" x2="-20" y2="74.2857" />
<text transform="scale(1,-1)" text-anchor="end" font-family="sans-serif" font-size="30" x="-25" y="-64.2857" >5</text>
<line fill="none" stroke="black" stroke-width="6" x1="0.0" y1="148.571" x2="-20" y2="148.571" />
<text transform="scale(1,-1)" text-anchor="end" font-family="sans-serif" font-size="30" x="-25" y="-138.571" >10</text>
<line fill="none" stroke="black" stroke-width="6" x1="0.0" y1="222.857" x2="-20" y2="222.857" />
<text transform="scale(1,-1)" text-anchor="end" font-family="sans-serif" font-size="30" x="-25" y="-212.857" >15</text>
<line fill="none" stroke="black" stroke-width="6" x1="0.0" y1="297.143" x2="-20" y2="297.143" />
<text transform="scale(1,-1)" text-anchor="end" font-family="sans-serif" font-size="30" x="-25" y="-287.143" >20</text>
<line fill="none" stroke="black" stroke-width="6" x1="0.0" y1="371.429" x2="-20" y2="371.429" />
<text transform="scale(1,-1)" text-anchor="end" font-family="sans-serif" font-size="30" x="-25" y="-361.429" >25</text>
<line fill="none" stroke="black" stroke-width="6" x1="0.0" y1="445.714" x2="-20" y2="445.714" />
<text transform="scale(1,-1)" text-anchor="end" font-family="sans-serif" font-size="30" x="-25" y="-435.714" >30</text>
<line fill="none" stroke="black" stroke-width="6" x1="0.0" y1="520" x2="-20" y2="520" />
<text transform="scale(1,-1)" text-anchor="end" font-family="sans-serif" font-size="30" x="-25" y="-510" >35</text>

-->
</g>
</g>
<!-- Run Constants
CIRCLEPLOT bool false
DISTANCEPLOT bool true
PRINTDISTANCEDATA bool true
GLITCHESONLY bool false
PLOT 2doubles 3 4
PERTURBBY double 0.05
GLITCHLEVEL double 3
BOUNDARYWINDOW double 0.065
FRAMESPERPATH int 200
STEPSPERFRAME int 100
TRIALS int 30
ALLBLACK bool true
FILEPREFIX string Fol
GRAPHSIZE int 0
BORDER int 0
PLOTSIZE int 0
CIRCLEPLOTSIZE int 2000
CIRCLERADIUS int 300
CIRCLESTROKEWIDTH int 30
G6LINEWIDTH int 3
DELONELINEWIDTH int 10
AXISWIDTH int 6
TICLENGTH int 20
VECTOR g6 
MOVIEMODE MovieMode STAR
FOLLOWERMODE FollowerMode Follow
FIXRANDOMSEED fixRandomSeed false
RANDOMSEED int 19191
TIMESTAMP bool true
END end 




-->
</svg>
