<?xml version="1.0" standalone="no"?>
<!-- the width and height set the total pixel output of the image in the browser -->
<!-- whatever is within the viewbox will be remapped to show in this size -->
<svg width="900" height="900" viewBox="1 0900 900"  version="1.1" xmlns="http://www.w3.org/2000/svg" xmlns:xlink="http://www.w3.org/1999/xlink">
 <desc>ID (and file name) = Fol_2018-06-14.11_27_46.53_0.svg  mode = Single Point </desc> 
<g transform = "scale(1 1)">

<text x = "-850" y="50" transform="rotate(-90)"  font-family="sans-serif" font-size="40" stroke ="lightgray" fill="none"> PointDistanceFollower   Jun 14 2018</text>
 <text x="140"  y="30"  font-family="sans-serif" font-size="20" >Fol_2018-06-14.11_27_46.53_0.svg  &#160;&#160;&#160;&#160;&#160; Wall time passed: 13724 msec.</text>
<text x="300" y="60"   font-family="sans-serif" font-size="20" fill="lightblue">S6  lightblue     msec  13670</text>
<text x="300" y="85"   font-family="sans-serif" font-size="20" fill="olive">CS6Dist  olive     msec  50</text>



 <!--DISTANCE PLOT BEGINS   mode = Single Point-->


<!-- the following will scale and place the distance plot -->
<g transform="translate(150,850) scale(1 -1)">
   <polyline fill="none" stroke=" lightblue " stroke-width=" 12 " points=" 0.699301,0 1.3986,1.71396 2.0979,3.42793 2.7972,5.14189 3.4965,6.85585 4.1958,8.56982 4.8951,10.2838 5.59441,11.9977 6.29371,13.7117 6.99301,15.4257 7.69231,17.1396 8.39161,18.8536 9.09091,20.5676 9.79021,22.2815 10.4895,23.9955 11.1888,25.7095 11.8881,27.4234 12.5874,29.1374 13.2867,30.8513 13.986,32.5653 14.6853,34.2793 15.3846,35.9932 16.0839,37.7072 16.7832,39.4212 17.4825,41.1351 18.1818,42.8491 18.8811,44.563 19.5804,46.277 20.2797,47.991 20.979,49.7049 21.6783,51.4189 22.3776,53.1329 23.0769,54.8468 23.7762,56.5608 24.4755,58.2748 25.1748,59.9887 25.8741,61.7027 26.5734,63.4166 27.2727,65.1306 27.972,66.8446 28.6713,68.5585 29.3706,70.2725 30.0699,71.9865 30.7692,73.7004 31.4685,75.4144 32.1678,77.1284 32.8671,78.8423 33.5664,80.5563 34.2657,82.2702 34.965,83.9842 35.6643,85.6982 36.3636,87.4121 37.0629,89.1261 37.7622,90.8401 38.4615,92.554 39.1608,94.268 39.8601,95.982 40.5594,97.6959 41.2587,99.4099 41.958,101.124 42.6573,102.838 43.3566,104.552 44.0559,106.266 44.7552,107.98 45.4545,109.694 46.1538,111.408 46.8531,113.122 47.5524,114.733 48.2517,115.999 48.951,117.27 49.6503,118.546 50.3497,119.828 51.049,121.115 51.7483,122.406 52.4476,123.702 53.1469,125.003 53.8462,126.308 54.5455,127.618 55.2448,128.931 55.9441,130.249 56.6434,131.57 57.3427,132.895 58.042,134.224 58.7413,135.556 59.4406,136.892 60.1399,138.231 60.8392,139.574 61.5385,140.919 62.2378,142.268 62.9371,143.619 63.6364,144.974 64.3357,146.331 65.035,147.691 65.7343,149.054 66.4336,150.419 67.1329,151.787 67.8322,153.157 68.5315,154.53 69.2308,155.905 69.9301,157.282 70.6294,158.662 71.3287,160.044 72.028,161.427 72.7273,162.813 73.4266,164.201 74.1259,165.59 74.8252,166.982 75.5245,168.375 76.2238,169.771 76.9231,171.168 77.6224,172.566 78.3217,173.967 79.021,175.369 79.7203,176.772 80.4196,178.177 81.1189,179.584 81.8182,180.992 82.5175,182.402 83.2168,183.813 83.9161,185.225 84.6154,186.639 85.3147,188.054 86.014,189.47 86.7133,190.888 87.4126,192.307 88.1119,193.727 88.8112,195.148 89.5105,196.57 90.2098,197.994 90.9091,199.418 91.6084,200.844 92.3077,202.271 93.007,203.698 93.7063,205.127 94.4056,206.557 95.1049,207.988 95.8042,209.419 96.5035,210.852 97.2028,212.286 97.9021,213.72 98.6014,215.156 99.3007,216.592 100,218.029 100.699,219.467 101.399,220.905 102.098,222.345 102.797,223.785 103.497,225.226 104.196,226.668 104.895,228.11 105.594,229.554 106.294,230.998 106.993,232.442 107.692,233.888 108.392,235.334 109.091,236.78 109.79,238.228 110.49,239.676 111.189,241.124 111.888,242.573 112.587,244.023 113.287,245.473 113.986,246.924 114.685,248.376 115.385,249.828 116.084,251.281 116.783,252.734 117.483,254.187 118.182,255.642 118.881,257.096 119.58,258.552 120.28,260.007 120.979,261.464 121.678,262.92 122.378,264.378 123.077,265.835 123.776,267.293 124.476,268.752 125.175,270.211 125.874,271.67 126.573,273.13 127.273,274.59 127.972,276.051 128.671,277.512 129.371,278.974 130.07,280.436 130.769,281.898 131.469,283.361 132.168,284.824 132.867,286.287 133.566,287.751 134.266,289.215 134.965,290.679 135.664,292.144 136.364,293.609 137.063,295.075 137.762,296.541 138.462,298.007 139.161,299.474 139.86,300.94 140.559,302.408 141.259,303.875 141.958,305.343 142.657,306.811 143.357,308.279 144.056,309.748 144.755,311.217 145.455,312.686 146.154,314.156 146.853,315.625 147.552,317.095 148.252,318.566 148.951,320.036 149.65,321.507 150.35,322.978 151.049,324.45 151.748,325.921 152.448,327.393 153.147,328.865 153.846,330.338 154.545,331.81 155.245,333.283 155.944,334.756 156.643,336.229 157.343,337.703 158.042,339.177 158.741,340.651 159.441,342.125 160.14,343.599 160.839,345.074 161.538,346.549 162.238,348.024 162.937,349.499 163.636,350.974 164.336,352.45 165.035,353.926 165.734,355.402 166.434,356.878 167.133,358.354 167.832,359.831 168.531,361.308 169.231,362.785 169.93,364.262 170.629,365.739 171.329,367.217 172.028,368.694 172.727,370.172 173.427,371.65 174.126,373.128 174.825,374.606 175.524,376.085 176.224,377.564 176.923,379.042 177.622,380.521 178.322,382 179.021,383.48 179.72,384.959 180.42,386.439 181.119,387.918 181.818,389.398 182.517,390.878 183.217,392.359 183.916,393.839 184.615,395.319 185.315,396.8 186.014,398.281 186.713,399.761 187.413,401.242 188.112,402.724 188.811,404.205 189.51,405.686 190.21,407.168 190.909,408.649 191.608,410.131 192.308,411.613 193.007,413.095 193.706,414.577 194.406,416.059 195.105,417.542 195.804,419.024 196.503,420.507 197.203,421.99 197.902,423.472 198.601,424.955 199.301,426.438 200,427.922 200.699,429.405 201.399,430.888 202.098,432.372 202.797,433.855 203.497,435.339 204.196,436.823 204.895,438.307 205.594,439.791 206.294,441.275 206.993,442.759 207.692,444.243 208.392,445.728 209.091,447.212 209.79,448.697 210.49,450.182 211.189,451.667 211.888,453.151 212.587,454.636 213.287,456.121 213.986,457.607 214.685,459.092 215.385,460.577 216.084,462.063 216.783,463.548 217.483,465.034 218.182,466.519 218.881,468.005 219.58,469.491 220.28,470.977 220.979,472.463 221.678,473.949 222.378,475.435 223.077,476.922 223.776,478.408 224.476,479.894 225.175,481.381 225.874,482.867 226.573,484.354 227.273,485.841 227.972,487.328 228.671,488.815 229.371,490.301 230.07,491.789 230.769,493.276 231.469,494.763 232.168,496.25 232.867,497.737 233.566,499.225 234.266,500.712 234.965,502.2 235.664,503.687 236.364,505.175 237.063,545.424 237.762,545.837 238.462,546.258 239.161,546.688 239.86,547.126 240.559,547.572 241.259,548.027 241.958,548.491 242.657,548.962 243.357,549.442 244.056,549.93 244.755,550.427 245.455,550.931 246.154,551.444 246.853,551.965 247.552,552.495 248.252,553.032 248.951,553.578 249.65,554.131 250.35,554.693 251.049,555.263 251.748,554.688 252.448,554.018 253.147,553.356 253.846,552.701 254.545,552.055 255.245,551.416 255.944,550.785 256.643,550.163 257.343,549.548 258.042,548.941 258.741,548.343 259.441,547.752 260.14,547.17 260.839,546.596 261.538,546.03 262.238,545.472 262.937,544.922 263.636,544.381 264.336,543.847 265.035,543.323 265.734,542.806 266.434,542.298 267.133,541.798 267.832,541.306 268.531,540.823 269.231,540.349 269.93,539.882 270.629,539.425 271.329,538.975 272.028,538.535 272.727,538.102 273.427,537.679 274.126,537.264 274.825,536.857 275.524,536.459 276.224,536.07 276.923,535.689 277.622,535.318 278.322,534.954 279.021,534.6 279.72,534.254 280.42,533.917 281.119,533.589 281.818,533.269 282.517,532.958 283.217,532.657 283.916,532.363 284.615,532.079 285.315,531.804 286.014,531.537 286.713,531.28 287.413,531.031 288.112,530.791 288.811,530.56 289.51,530.338 290.21,530.125 290.909,529.921 291.608,529.725 292.308,529.539 293.007,529.362 293.706,529.194 294.406,529.034 295.105,528.884 295.804,528.743 296.503,528.611 297.203,528.487 297.902,528.373 298.601,528.268 299.301,528.172 300,528.085 300.699,528.007 301.399,527.938 302.098,527.878 302.797,527.827 303.497,527.785 304.196,527.753 304.895,527.729 305.594,527.715 306.294,527.709 306.993,527.713 307.692,527.725 308.392,527.747 309.091,527.778 309.79,527.818 310.49,527.867 311.189,527.925 311.888,527.992 312.587,528.068 313.287,528.153 313.986,528.247 314.685,528.35 315.385,528.463 316.084,528.584 316.783,528.714 317.483,528.854 318.182,529.002 318.881,529.16 319.58,529.326 320.28,529.501 320.979,529.686 321.678,529.879 322.378,530.081 323.077,530.292 323.776,530.513 324.476,530.742 325.175,530.98 325.874,531.227 326.573,531.482 327.273,531.747 327.972,532.021 328.671,532.303 329.371,532.594 330.07,532.894 330.769,533.203 331.469,533.521 332.168,533.847 332.867,534.183 333.566,534.527 334.266,534.879 334.965,535.241 335.664,535.611 336.364,535.99 337.063,536.377 337.762,536.773 338.462,537.178 339.161,537.591 339.86,538.013 340.559,538.443 341.259,538.882 341.958,539.33 342.657,539.786 343.357,540.25 344.056,540.723 344.755,541.204 345.455,541.694 346.154,542.192 346.853,542.699 347.552,543.214 348.252,543.737 348.951,544.268 349.65,544.808 350.35,544.937 351.049,544.655 351.748,544.38 352.448,544.113 353.147,543.854 353.846,543.603 354.545,543.359 355.245,543.123 355.944,542.894 356.643,542.673 357.343,542.46 358.042,542.255 358.741,542.057 359.441,541.867 360.14,541.685 360.839,541.511 361.538,541.344 362.238,541.185 362.937,541.034 363.636,540.891 364.336,540.756 365.035,540.628 365.734,540.508 366.434,540.396 367.133,540.292 367.832,540.195 368.531,540.107 369.231,540.026 369.93,539.953 370.629,539.888 371.329,539.831 372.028,539.781 372.727,539.74 373.427,539.706 374.126,539.68 374.825,539.662 375.524,539.652 376.224,539.649 376.923,539.655 377.622,539.668 378.322,539.689 379.021,539.718 379.72,539.755 380.42,539.8 381.119,539.852 381.818,539.913 382.517,539.981 383.217,540.057 383.916,540.141 384.615,540.232 385.315,540.332 386.014,540.439 386.713,540.554 387.413,540.677 388.112,540.808 388.811,540.947 389.51,541.093 390.21,541.247 390.909,541.409 391.608,541.579 392.308,541.756 393.007,541.941 393.706,542.134 394.406,542.335 395.105,542.543 395.804,542.759 396.503,542.983 397.203,543.215 397.902,543.454 398.601,543.701 399.301,543.955 400,544.218 400.699,544.488 401.399,544.765 402.098,545.05 402.797,545.343 403.497,545.643 404.196,545.951 404.895,546.267 405.594,546.59 406.294,546.921 406.993,547.259 407.692,547.605 408.392,547.958 409.091,548.319 409.79,548.687 410.49,549.062 411.189,549.446 411.888,549.836 412.587,550.234 413.287,550.639 413.986,551.052 414.685,551.472 415.385,551.9 416.084,552.335 416.783,552.777 417.483,553.226 418.182,553.683 418.881,554.147 419.58,554.618 420.28,555.096 420.979,555.582 421.678,556.075 422.378,556.575 423.077,557.082 423.776,557.597 424.476,558.118 425.175,558.646 425.874,559.182 426.573,559.725 427.273,560.274 427.972,560.831 428.671,561.395 429.371,561.965 430.07,562.543 430.769,563.127 431.469,563.719 432.168,564.317 432.867,564.922 433.566,565.534 434.266,566.153 434.965,566.779 435.664,567.411 436.364,568.05 437.063,568.696 437.762,569.349 438.462,570.008 439.161,570.674 439.86,571.346 440.559,572.026 441.259,572.711 441.958,573.404 442.657,574.103 443.357,574.808 444.056,575.52 444.755,576.238 445.455,576.963 446.154,577.694 446.853,578.432 447.552,579.176 448.252,579.926 448.951,580.683 449.65,581.445 450.35,582.215 451.049,582.99 451.748,583.772 452.448,584.56 453.147,585.354 453.846,586.154 454.545,586.96 455.245,587.773 455.944,588.591 456.643,589.416 457.343,590.246 458.042,591.083 458.741,591.925 459.441,592.774 460.14,593.628 460.839,594.488 461.538,595.355 462.238,596.227 462.937,597.104 463.636,597.988 464.336,598.877 465.035,599.772 465.734,600.673 466.434,601.58 467.133,602.492 467.832,603.41 468.531,604.333 469.231,605.262 469.93,606.197 470.629,607.137 471.329,608.083 472.028,609.034 472.727,609.99 473.427,610.952 474.126,611.92 474.825,612.892 475.524,613.871 476.224,614.854 476.923,615.843 477.622,616.837 478.322,617.836 479.021,618.841 479.72,619.85 480.42,620.865 481.119,621.885 481.818,622.911 482.517,623.941 483.217,624.976 483.916,626.017 484.615,627.062 485.315,628.113 486.014,627.604 486.713,625.547 487.413,623.489 488.112,621.431 488.811,619.374 489.51,617.316 490.21,615.258 490.909,613.2 491.608,611.143 492.308,609.085 493.007,607.027 493.706,604.97 494.406,602.912 495.105,600.854 495.804,598.796 496.503,596.739 497.203,594.681 497.902,592.623 498.601,590.566 499.301,588.508 500,586.45 500.699,584.392 501.399,582.335 502.098,580.277 502.797,578.219 503.497,576.161 504.196,574.104 504.895,572.046 505.594,569.988 506.294,567.931 506.993,565.873 507.692,563.815 508.392,561.757 509.091,559.7 509.79,557.642 510.49,555.584 511.189,553.527 511.888,551.469 512.587,549.411 513.287,547.353 513.986,545.296 514.685,543.238 515.385,541.18 516.084,539.123 516.783,537.065 517.483,535.007 518.182,532.949 518.881,530.892 519.58,528.834 520.28,526.776 520.979,524.718 521.678,522.661 522.378,520.603 523.077,518.545 523.776,516.488 524.476,514.43 525.175,512.372 525.874,510.314 526.573,508.257 527.273,506.199 527.972,504.141 528.671,502.084 529.371,500.026 530.07,497.968 530.769,495.91 531.469,493.853 532.168,491.795 532.867,489.737 533.566,487.68 534.266,485.622 534.965,483.564 535.664,481.506 536.364,479.449 537.063,477.391 537.762,475.333 538.462,473.275 539.161,471.218 539.86,469.16 540.559,467.102 541.259,465.045 541.958,462.987 542.657,460.929 543.357,458.871 544.056,456.814 544.755,454.756 545.455,452.698 546.154,450.641 546.853,448.583 547.552,446.525 548.252,444.467 548.951,442.41 549.65,440.352 550.35,438.294 551.049,436.237 551.748,434.179 552.448,432.121 553.147,430.063 553.846,428.006 554.545,425.948 555.245,423.89 555.944,421.833 556.643,419.775 557.343,417.717 558.042,415.659 558.741,413.602 559.441,411.544 560.14,409.486 560.839,407.428 561.538,405.371 562.238,403.313 562.937,401.255 563.636,399.198 564.336,397.14 565.035,395.082 565.734,393.024 566.434,390.967 567.133,388.909 567.832,386.851 568.531,384.794 569.231,382.736 569.93,380.678 570.629,378.62 571.329,376.563 572.028,374.505 572.727,372.447 573.427,370.39 574.126,368.332 574.825,366.274 575.524,364.216 576.224,362.159 576.923,360.101 577.622,358.043 578.322,355.985 579.021,353.928 579.72,351.87 580.42,349.812 581.119,347.755 581.818,345.697 582.517,343.639 583.217,341.581 583.916,339.524 584.615,337.466 585.315,335.408 586.014,333.351 586.713,331.293 587.413,329.235 588.112,327.177 588.811,325.12 589.51,323.062 590.21,321.004 590.909,318.947 591.608,316.889 592.308,314.831 593.007,312.773 593.706,310.716 594.406,308.658 595.105,306.6 595.804,304.542 596.503,302.485 597.203,300.427 597.902,298.369 598.601,296.312 599.301,294.254 600,292.196 600.699,290.138 601.399,288.081 602.098,286.023 602.797,283.965 603.497,281.908 604.196,279.85 604.895,277.792 605.594,275.734 606.294,273.677 606.993,271.619 607.692,269.561 608.392,267.504 609.091,265.446 609.79,263.388 610.49,261.33 611.189,259.273 611.888,257.215 612.587,255.157 613.287,253.1 613.986,251.042 614.685,248.984 615.385,246.926 616.084,244.869 616.783,242.811 617.483,240.753 618.182,238.695 618.881,236.638 619.58,234.58 620.28,232.522 620.979,230.465 621.678,228.407 622.378,226.349 623.077,224.291 623.776,222.234 624.476,220.176 625.175,218.118 625.874,216.061 626.573,214.003 627.273,211.945 627.972,209.887 628.671,207.83 629.371,205.772 630.07,203.714 630.769,201.657 631.469,199.599 632.168,197.541 632.867,195.483 633.566,193.426 634.266,191.368 634.965,189.31 635.664,187.252 636.364,185.195 637.063,183.137 637.762,181.079 638.462,179.022 639.161,176.964 639.86,174.906 640.559,172.848 641.259,170.791 641.958,168.733 642.657,166.675 643.357,164.618 644.056,162.56 644.755,160.502 645.455,158.444 646.154,156.387 646.853,154.329 647.552,152.271 648.252,150.214 648.951,148.156 649.65,146.098 650.35,144.04 651.049,141.983 651.748,139.925 652.448,137.867 653.147,135.809 653.846,133.752 654.545,131.694 655.245,129.636 655.944,127.579 656.643,125.521 657.343,123.463 658.042,121.405 658.741,119.348 659.441,117.29 660.14,115.232 660.839,113.175 661.538,111.117 662.238,109.059 662.937,107.001 663.636,104.944 664.336,102.886 665.035,100.828 665.734,98.7705 666.434,96.7128 667.133,94.6551 667.832,92.5974 668.531,90.5397 669.231,88.4819 669.93,86.4242 670.629,84.3665 671.329,82.3088 672.028,80.2511 672.727,78.1933 673.427,76.1356 674.126,74.0779 674.825,72.0202 675.524,69.9625 676.224,67.9047 676.923,65.847 677.622,63.7893 678.322,61.7316 679.021,59.6739 679.72,57.6161 680.42,55.5584 681.119,53.5007 681.818,51.443 682.517,49.3853 683.217,47.3275 683.916,45.2698 684.615,43.2121 685.315,41.1544 686.014,39.0967 686.713,37.039 687.413,34.9812 688.112,32.9235 688.811,30.8658 689.51,28.8081 690.21,26.7504 690.909,24.6926 691.608,22.6349 692.308,20.5772 693.007,18.5195 693.706,16.4618 694.406,14.404 695.105,12.3463 695.804,10.2886 696.503,8.23088 697.203,6.17316 697.902,4.11544 698.601,2.05772 699.301,0 " />

   <polyline fill="none" stroke=" olive " stroke-width=" 3 " points=" 0.699301,0 1.3986,1.71396 2.0979,3.42793 2.7972,5.14189 3.4965,6.85585 4.1958,8.56982 4.8951,10.2838 5.59441,11.9977 6.29371,13.7117 6.99301,15.4257 7.69231,17.1396 8.39161,18.8536 9.09091,20.5676 9.79021,22.2815 10.4895,23.9955 11.1888,25.7095 11.8881,27.4234 12.5874,29.1374 13.2867,30.8513 13.986,32.5653 14.6853,34.2793 15.3846,35.9932 16.0839,37.7072 16.7832,39.4212 17.4825,41.1351 18.1818,42.8491 18.8811,44.563 19.5804,46.277 20.2797,47.991 20.979,49.7049 21.6783,51.4189 22.3776,53.1329 23.0769,54.8468 23.7762,56.5608 24.4755,58.2748 25.1748,59.9887 25.8741,61.7027 26.5734,63.4166 27.2727,65.1306 27.972,66.8446 28.6713,68.5585 29.3706,70.2725 30.0699,71.9865 30.7692,73.7004 31.4685,75.4144 32.1678,77.1284 32.8671,78.8423 33.5664,80.5563 34.2657,82.2702 34.965,83.9842 35.6643,85.6982 36.3636,87.4121 37.0629,89.1261 37.7622,90.8401 38.4615,92.554 39.1608,94.268 39.8601,95.982 40.5594,97.6959 41.2587,99.4099 41.958,101.124 42.6573,102.838 43.3566,104.552 44.0559,106.266 44.7552,107.98 45.4545,109.694 46.1538,111.408 46.8531,113.122 47.5524,114.75 48.2517,116.088 48.951,117.43 49.6503,118.776 50.3497,120.125 51.049,121.478 51.7483,122.834 52.4476,124.193 53.1469,125.556 53.8462,126.921 54.5455,128.29 55.2448,129.662 55.9441,131.036 56.6434,132.414 57.3427,133.794 58.042,135.176 58.7413,136.562 59.4406,137.949 60.1399,139.34 60.8392,140.732 61.5385,142.127 62.2378,143.524 62.9371,144.923 63.6364,146.324 64.3357,147.728 65.035,149.133 65.7343,150.541 66.4336,151.95 67.1329,153.361 67.8322,154.774 68.5315,156.189 69.2308,157.605 69.9301,159.023 70.6294,160.443 71.3287,161.864 72.028,163.287 72.7273,164.712 73.4266,166.138 74.1259,167.565 74.8252,168.994 75.5245,170.424 76.2238,171.855 76.9231,173.288 77.6224,174.722 78.3217,176.157 79.021,177.594 79.7203,179.032 80.4196,180.471 81.1189,181.911 81.8182,183.352 82.5175,184.794 83.2168,186.237 83.9161,187.681 84.6154,189.127 85.3147,190.573 86.014,192.02 86.7133,193.468 87.4126,194.917 88.1119,196.367 88.8112,197.818 89.5105,199.27 90.2098,200.722 90.9091,202.176 91.6084,203.63 92.3077,205.085 93.007,206.541 93.7063,207.997 94.4056,209.454 95.1049,210.912 95.8042,212.371 96.5035,213.83 97.2028,215.29 97.9021,216.751 98.6014,218.212 99.3007,219.674 100,221.136 100.699,222.6 101.399,224.063 102.098,225.528 102.797,226.992 103.497,228.458 104.196,229.924 104.895,231.39 105.594,232.857 106.294,234.325 106.993,235.793 107.692,237.261 108.392,238.73 109.091,240.2 109.79,241.67 110.49,243.14 111.189,244.611 111.888,246.082 112.587,247.554 113.287,249.026 113.986,250.499 114.685,251.972 115.385,253.445 116.084,254.919 116.783,256.393 117.483,257.867 118.182,259.342 118.881,260.817 119.58,262.293 120.28,263.769 120.979,265.245 121.678,266.721 122.378,268.198 123.077,269.676 123.776,271.153 124.476,272.631 125.175,274.109 125.874,275.587 126.573,277.066 127.273,278.545 127.972,280.024 128.671,281.504 129.371,282.984 130.07,284.464 130.769,285.944 131.469,287.425 132.168,288.906 132.867,290.387 133.566,291.868 134.266,293.35 134.965,294.832 135.664,296.314 136.364,297.796 137.063,299.279 137.762,300.761 138.462,302.244 139.161,303.728 139.86,305.211 140.559,306.695 141.259,308.178 141.958,309.662 142.657,311.146 143.357,312.631 144.056,314.115 144.755,315.6 145.455,317.085 146.154,318.57 146.853,320.055 147.552,321.541 148.252,323.027 148.951,324.512 149.65,325.998 150.35,327.484 151.049,328.971 151.748,330.457 152.448,331.944 153.147,333.431 153.846,334.917 154.545,336.405 155.245,337.892 155.944,339.379 156.643,340.867 157.343,342.354 158.042,343.842 158.741,345.33 159.441,346.818 160.14,348.306 160.839,349.794 161.538,351.283 162.238,352.771 162.937,354.26 163.636,355.749 164.336,357.238 165.035,358.727 165.734,360.216 166.434,361.705 167.133,363.194 167.832,364.684 168.531,366.173 169.231,367.663 169.93,369.153 170.629,370.643 171.329,372.133 172.028,373.623 172.727,375.113 173.427,376.603 174.126,378.094 174.825,379.584 175.524,381.075 176.224,382.566 176.923,384.056 177.622,385.547 178.322,387.038 179.021,388.529 179.72,390.02 180.42,391.512 181.119,393.003 181.818,394.494 182.517,395.986 183.217,397.477 183.916,398.969 184.615,400.46 185.315,401.952 186.014,403.444 186.713,404.936 187.413,406.428 188.112,407.92 188.811,409.412 189.51,410.904 190.21,412.397 190.909,413.889 191.608,415.382 192.308,416.874 193.007,418.367 193.706,419.859 194.406,421.352 195.105,422.845 195.804,424.337 196.503,425.83 197.203,427.323 197.902,428.816 198.601,430.309 199.301,431.802 200,433.296 200.699,434.789 201.399,436.282 202.098,437.776 202.797,439.269 203.497,440.762 204.196,442.256 204.895,443.749 205.594,445.243 206.294,446.737 206.993,448.23 207.692,449.724 208.392,451.218 209.091,452.712 209.79,454.206 210.49,455.7 211.189,457.194 211.888,458.688 212.587,460.182 213.287,461.676 213.986,463.17 214.685,464.665 215.385,466.159 216.084,467.653 216.783,469.148 217.483,470.642 218.182,472.137 218.881,473.631 219.58,475.126 220.28,476.62 220.979,478.115 221.678,479.61 222.378,481.104 223.077,482.599 223.776,484.094 224.476,485.589 225.175,487.083 225.874,488.578 226.573,490.073 227.273,491.568 227.972,493.063 228.671,494.558 229.371,496.053 230.07,497.549 230.769,499.044 231.469,500.539 232.168,502.034 232.867,503.529 233.566,505.025 234.266,506.52 234.965,508.015 235.664,509.511 236.364,511.006 237.063,545.721 237.762,546.452 238.462,547.189 239.161,547.932 239.86,548.682 240.559,549.439 241.259,550.201 241.958,550.97 242.657,551.745 243.357,552.527 244.056,553.315 244.755,554.11 245.455,554.91 246.154,555.718 246.853,556.531 247.552,557.352 248.252,558.178 248.951,559.012 249.65,559.851 250.35,560.697 251.049,561.55 251.748,562.409 252.448,563.275 253.147,564.147 253.846,565.026 254.545,565.911 255.245,566.803 255.944,567.701 256.643,568.606 257.343,569.517 258.042,570.435 258.741,570.145 259.441,569.406 260.14,568.675 260.839,567.953 261.538,567.24 262.238,566.537 262.937,565.842 263.636,565.156 264.336,564.479 265.035,563.811 265.734,563.152 266.434,562.502 267.133,561.861 267.832,561.229 268.531,560.606 269.231,559.992 269.93,559.387 270.629,558.791 271.329,558.204 272.028,557.625 272.727,557.056 273.427,556.496 274.126,555.944 274.825,555.402 275.524,554.868 276.224,554.343 276.923,553.828 277.622,553.321 278.322,552.822 279.021,552.333 279.72,551.853 280.42,551.381 281.119,550.919 281.818,550.465 282.517,550.02 283.217,549.583 283.916,549.156 284.615,548.737 285.315,548.327 286.014,547.926 286.713,547.533 287.413,547.149 288.112,546.774 288.811,546.408 289.51,546.05 290.21,545.701 290.909,545.36 291.608,545.028 292.308,544.704 293.007,544.39 293.706,544.083 294.406,543.785 295.105,543.496 295.804,543.215 296.503,542.943 297.203,542.679 297.902,542.423 298.601,542.176 299.301,541.937 300,541.707 300.699,541.484 301.399,541.27 302.098,541.065 302.797,540.867 303.497,540.678 304.196,540.497 304.895,540.325 305.594,540.16 306.294,540.003 306.993,539.855 307.692,539.715 308.392,539.582 309.091,539.458 309.79,539.342 310.49,539.233 311.189,539.133 311.888,539.041 312.587,538.956 313.287,538.879 313.986,538.81 314.685,538.749 315.385,538.696 316.084,538.65 316.783,538.612 317.483,538.581 318.182,538.559 318.881,538.544 319.58,538.536 320.28,538.536 320.979,538.544 321.678,538.559 322.378,538.582 323.077,538.611 323.776,538.649 324.476,538.694 325.175,538.746 325.874,538.805 326.573,538.872 327.273,538.945 327.972,539.026 328.671,539.115 329.371,539.21 330.07,539.313 330.769,539.422 331.469,539.539 332.168,539.662 332.867,539.793 333.566,539.93 334.266,540.075 334.965,540.226 335.664,540.384 336.364,540.549 337.063,540.721 337.762,540.9 338.462,541.085 339.161,541.277 339.86,541.475 340.559,541.681 341.259,541.892 341.958,542.111 342.657,542.335 343.357,542.567 344.056,542.804 344.755,543.049 345.455,543.299 346.154,543.556 346.853,543.819 347.552,544.089 348.252,544.364 348.951,544.646 349.65,544.934 350.35,544.937 351.049,544.655 351.748,544.38 352.448,544.113 353.147,543.854 353.846,543.603 354.545,543.359 355.245,543.123 355.944,542.894 356.643,542.673 357.343,542.46 358.042,542.255 358.741,542.057 359.441,541.867 360.14,541.685 360.839,541.511 361.538,541.344 362.238,541.185 362.937,541.034 363.636,540.891 364.336,540.756 365.035,540.628 365.734,540.508 366.434,540.396 367.133,540.292 367.832,540.195 368.531,540.107 369.231,540.026 369.93,539.953 370.629,539.888 371.329,539.831 372.028,539.781 372.727,539.74 373.427,539.706 374.126,539.68 374.825,539.662 375.524,539.652 376.224,539.649 376.923,539.655 377.622,539.668 378.322,539.689 379.021,539.718 379.72,539.755 380.42,539.8 381.119,539.852 381.818,539.913 382.517,539.981 383.217,540.057 383.916,540.141 384.615,540.232 385.315,540.332 386.014,540.439 386.713,540.554 387.413,540.677 388.112,540.808 388.811,540.947 389.51,541.093 390.21,541.247 390.909,541.409 391.608,541.579 392.308,541.756 393.007,541.941 393.706,542.134 394.406,542.335 395.105,542.543 395.804,542.759 396.503,542.983 397.203,543.215 397.902,543.454 398.601,543.701 399.301,543.955 400,544.218 400.699,544.488 401.399,544.765 402.098,545.05 402.797,545.343 403.497,545.643 404.196,545.951 404.895,546.267 405.594,546.59 406.294,546.921 406.993,547.259 407.692,547.605 408.392,547.958 409.091,548.319 409.79,548.687 410.49,549.062 411.189,549.446 411.888,549.836 412.587,550.234 413.287,550.639 413.986,551.052 414.685,551.472 415.385,551.9 416.084,552.335 416.783,552.777 417.483,553.226 418.182,553.683 418.881,554.147 419.58,554.618 420.28,555.096 420.979,555.582 421.678,556.075 422.378,556.575 423.077,557.082 423.776,557.597 424.476,558.118 425.175,558.646 425.874,559.182 426.573,559.725 427.273,560.274 427.972,560.831 428.671,561.395 429.371,561.965 430.07,562.543 430.769,563.127 431.469,563.719 432.168,564.317 432.867,564.922 433.566,565.534 434.266,566.153 434.965,566.779 435.664,567.411 436.364,568.05 437.063,568.696 437.762,569.349 438.462,570.008 439.161,570.674 439.86,571.346 440.559,572.026 441.259,572.711 441.958,573.404 442.657,574.103 443.357,574.808 444.056,575.52 444.755,576.238 445.455,576.963 446.154,577.694 446.853,578.432 447.552,579.176 448.252,579.926 448.951,580.683 449.65,581.445 450.35,582.215 451.049,582.99 451.748,583.772 452.448,584.56 453.147,585.354 453.846,586.154 454.545,586.96 455.245,587.773 455.944,588.591 456.643,589.416 457.343,590.246 458.042,591.083 458.741,591.925 459.441,592.774 460.14,593.628 460.839,594.488 461.538,595.355 462.238,596.227 462.937,597.104 463.636,597.988 464.336,598.877 465.035,599.772 465.734,600.673 466.434,601.58 467.133,602.492 467.832,603.41 468.531,604.333 469.231,605.262 469.93,606.197 470.629,607.137 471.329,608.083 472.028,609.034 472.727,609.99 473.427,610.952 474.126,611.92 474.825,612.892 475.524,613.871 476.224,614.854 476.923,615.843 477.622,616.837 478.322,617.836 479.021,618.841 479.72,619.85 480.42,620.865 481.119,621.885 481.818,622.911 482.517,623.941 483.217,624.976 483.916,626.017 484.615,627.062 485.315,628.113 486.014,627.604 486.713,625.547 487.413,623.489 488.112,621.431 488.811,619.374 489.51,617.316 490.21,615.258 490.909,613.2 491.608,611.143 492.308,609.085 493.007,607.027 493.706,604.97 494.406,602.912 495.105,600.854 495.804,598.796 496.503,596.739 497.203,594.681 497.902,592.623 498.601,590.566 499.301,588.508 500,586.45 500.699,584.392 501.399,582.335 502.098,580.277 502.797,578.219 503.497,576.161 504.196,574.104 504.895,572.046 505.594,569.988 506.294,567.931 506.993,565.873 507.692,563.815 508.392,561.757 509.091,559.7 509.79,557.642 510.49,555.584 511.189,553.527 511.888,551.469 512.587,549.411 513.287,547.353 513.986,545.296 514.685,543.238 515.385,541.18 516.084,539.123 516.783,537.065 517.483,535.007 518.182,532.949 518.881,530.892 519.58,528.834 520.28,526.776 520.979,524.718 521.678,522.661 522.378,520.603 523.077,518.545 523.776,516.488 524.476,514.43 525.175,512.372 525.874,510.314 526.573,508.257 527.273,506.199 527.972,504.141 528.671,502.084 529.371,500.026 530.07,497.968 530.769,495.91 531.469,493.853 532.168,491.795 532.867,489.737 533.566,487.68 534.266,485.622 534.965,483.564 535.664,481.506 536.364,479.449 537.063,477.391 537.762,475.333 538.462,473.275 539.161,471.218 539.86,469.16 540.559,467.102 541.259,465.045 541.958,462.987 542.657,460.929 543.357,458.871 544.056,456.814 544.755,454.756 545.455,452.698 546.154,450.641 546.853,448.583 547.552,446.525 548.252,444.467 548.951,442.41 549.65,440.352 550.35,438.294 551.049,436.237 551.748,434.179 552.448,432.121 553.147,430.063 553.846,428.006 554.545,425.948 555.245,423.89 555.944,421.833 556.643,419.775 557.343,417.717 558.042,415.659 558.741,413.602 559.441,411.544 560.14,409.486 560.839,407.428 561.538,405.371 562.238,403.313 562.937,401.255 563.636,399.198 564.336,397.14 565.035,395.082 565.734,393.024 566.434,390.967 567.133,388.909 567.832,386.851 568.531,384.794 569.231,382.736 569.93,380.678 570.629,378.62 571.329,376.563 572.028,374.505 572.727,372.447 573.427,370.39 574.126,368.332 574.825,366.274 575.524,364.216 576.224,362.159 576.923,360.101 577.622,358.043 578.322,355.985 579.021,353.928 579.72,351.87 580.42,349.812 581.119,347.755 581.818,345.697 582.517,343.639 583.217,341.581 583.916,339.524 584.615,337.466 585.315,335.408 586.014,333.351 586.713,331.293 587.413,329.235 588.112,327.177 588.811,325.12 589.51,323.062 590.21,321.004 590.909,318.947 591.608,316.889 592.308,314.831 593.007,312.773 593.706,310.716 594.406,308.658 595.105,306.6 595.804,304.542 596.503,302.485 597.203,300.427 597.902,298.369 598.601,296.312 599.301,294.254 600,292.196 600.699,290.138 601.399,288.081 602.098,286.023 602.797,283.965 603.497,281.908 604.196,279.85 604.895,277.792 605.594,275.734 606.294,273.677 606.993,271.619 607.692,269.561 608.392,267.504 609.091,265.446 609.79,263.388 610.49,261.33 611.189,259.273 611.888,257.215 612.587,255.157 613.287,253.1 613.986,251.042 614.685,248.984 615.385,246.926 616.084,244.869 616.783,242.811 617.483,240.753 618.182,238.695 618.881,236.638 619.58,234.58 620.28,232.522 620.979,230.465 621.678,228.407 622.378,226.349 623.077,224.291 623.776,222.234 624.476,220.176 625.175,218.118 625.874,216.061 626.573,214.003 627.273,211.945 627.972,209.887 628.671,207.83 629.371,205.772 630.07,203.714 630.769,201.657 631.469,199.599 632.168,197.541 632.867,195.483 633.566,193.426 634.266,191.368 634.965,189.31 635.664,187.252 636.364,185.195 637.063,183.137 637.762,181.079 638.462,179.022 639.161,176.964 639.86,174.906 640.559,172.848 641.259,170.791 641.958,168.733 642.657,166.675 643.357,164.618 644.056,162.56 644.755,160.502 645.455,158.444 646.154,156.387 646.853,154.329 647.552,152.271 648.252,150.214 648.951,148.156 649.65,146.098 650.35,144.04 651.049,141.983 651.748,139.925 652.448,137.867 653.147,135.809 653.846,133.752 654.545,131.694 655.245,129.636 655.944,127.579 656.643,125.521 657.343,123.463 658.042,121.405 658.741,119.348 659.441,117.29 660.14,115.232 660.839,113.175 661.538,111.117 662.238,109.059 662.937,107.001 663.636,104.944 664.336,102.886 665.035,100.828 665.734,98.7705 666.434,96.7128 667.133,94.6551 667.832,92.5974 668.531,90.5397 669.231,88.4819 669.93,86.4242 670.629,84.3665 671.329,82.3088 672.028,80.2511 672.727,78.1933 673.427,76.1356 674.126,74.0779 674.825,72.0202 675.524,69.9625 676.224,67.9047 676.923,65.847 677.622,63.7893 678.322,61.7316 679.021,59.6739 679.72,57.6161 680.42,55.5584 681.119,53.5007 681.818,51.443 682.517,49.3853 683.217,47.3275 683.916,45.2698 684.615,43.2121 685.315,41.1544 686.014,39.0967 686.713,37.039 687.413,34.9812 688.112,32.9235 688.811,30.8658 689.51,28.8081 690.21,26.7504 690.909,24.6926 691.608,22.6349 692.308,20.5772 693.007,18.5195 693.706,16.4618 694.406,14.404 695.105,12.3463 695.804,10.2886 696.503,8.23088 697.203,6.17316 697.902,4.11544 698.601,2.05772 699.301,0 " />


<!--Draw the X and Y axes -->
<polyline fill="none" stroke="black" stroke-width="6"  points=" 700,0 0,0 0, 700" />
<polyline fill="none" stroke="black" stroke-width="1"  points=" 0 700  700 700  700 0" />
<!-- -->


<!--Draw labels and tics for X axis -->

<line fill="none" stroke="black"  stroke-width="6"  x1="0.5" y1="0" x2="0.5" y2="-20" />
<text transform="scale(1,-1)" font-family="sans-serif" font-size="30" x="-24.5" y="45" >0</text>
<line fill="none" stroke="black"  stroke-width="6"  x1="140.36" y1="0" x2="140.36" y2="-20" />
<text transform="scale(1,-1)" font-family="sans-serif" font-size="30" x="115.36" y="45" >200</text>
<line fill="none" stroke="black"  stroke-width="6"  x1="280.22" y1="0" x2="280.22" y2="-20" />
<text transform="scale(1,-1)" font-family="sans-serif" font-size="30" x="255.22" y="45" >400</text>
<line fill="none" stroke="black"  stroke-width="6"  x1="420.08" y1="0" x2="420.08" y2="-20" />
<text transform="scale(1,-1)" font-family="sans-serif" font-size="30" x="395.08" y="45" >600</text>
<line fill="none" stroke="black"  stroke-width="6"  x1="559.941" y1="0" x2="559.941" y2="-20" />
<text transform="scale(1,-1)" font-family="sans-serif" font-size="30" x="534.941" y="45" >800</text>
<line fill="none" stroke="black"  stroke-width="6"  x1="699.801" y1="0" x2="699.801" y2="-20" />
<text transform="scale(1,-1)" font-family="sans-serif" font-size="30" x="674.801" y="45" >1000</text>


<!--Draw labels and tics for Y axis -->

<line fill="none" stroke="black" stroke-width="6" x1="0.0" y1="0" x2="-20" y2="0" />
<text transform="scale(1,-1)" text-anchor="end" font-family="sans-serif" font-size="30" x="-25" y="10" >0</text>
<line fill="none" stroke="black" stroke-width="6" x1="0.0" y1="77.7778" x2="-20" y2="77.7778" />
<text transform="scale(1,-1)" text-anchor="end" font-family="sans-serif" font-size="30" x="-25" y="-67.7778" >0.5</text>
<line fill="none" stroke="black" stroke-width="6" x1="0.0" y1="155.556" x2="-20" y2="155.556" />
<text transform="scale(1,-1)" text-anchor="end" font-family="sans-serif" font-size="30" x="-25" y="-145.556" >1</text>
<line fill="none" stroke="black" stroke-width="6" x1="0.0" y1="233.333" x2="-20" y2="233.333" />
<text transform="scale(1,-1)" text-anchor="end" font-family="sans-serif" font-size="30" x="-25" y="-223.333" >1.5</text>
<line fill="none" stroke="black" stroke-width="6" x1="0.0" y1="311.111" x2="-20" y2="311.111" />
<text transform="scale(1,-1)" text-anchor="end" font-family="sans-serif" font-size="30" x="-25" y="-301.111" >2</text>
<line fill="none" stroke="black" stroke-width="6" x1="0.0" y1="388.889" x2="-20" y2="388.889" />
<text transform="scale(1,-1)" text-anchor="end" font-family="sans-serif" font-size="30" x="-25" y="-378.889" >2.5</text>
<line fill="none" stroke="black" stroke-width="6" x1="0.0" y1="466.667" x2="-20" y2="466.667" />
<text transform="scale(1,-1)" text-anchor="end" font-family="sans-serif" font-size="30" x="-25" y="-456.667" >3</text>
<line fill="none" stroke="black" stroke-width="6" x1="0.0" y1="544.444" x2="-20" y2="544.444" />
<text transform="scale(1,-1)" text-anchor="end" font-family="sans-serif" font-size="30" x="-25" y="-534.444" >3.5</text>
<line fill="none" stroke="black" stroke-width="6" x1="0.0" y1="622.222" x2="-20" y2="622.222" />
<text transform="scale(1,-1)" text-anchor="end" font-family="sans-serif" font-size="30" x="-25" y="-612.222" >4</text>
<line fill="none" stroke="black" stroke-width="6" x1="0.0" y1="700" x2="-20" y2="700" />
<text transform="scale(1,-1)" text-anchor="end" font-family="sans-serif" font-size="30" x="-25" y="-690" >4.5</text>

-->
</g>
</g>
<!-- Run Constants
PRINTDISTANCEDATA bool true
GLITCHESONLY bool false
PERTURBBY double 0.05
GLITCHLEVEL double 3
BOUNDARYWINDOW double 0.065
STEPSPERFRAME int 1000
TRIALS int 1
ALLBLACK bool true
FILEPREFIX string Fol
ENABLE DistanceEnableString 
DISABLE DistanceDisableString 
GRAPHSIZE int 0
BORDER int 0
PLOTSIZE int 0
AXISWIDTH int 6
TICLENGTH int 20
VECTOR g6 
FOLLOWERMODE FollowerMode point
FIXRANDOMSEED fixRandomSeed true
RANDOMSEED int 18
TIMESTAMP bool true
END end 


-->
</svg>
