<?xml version="1.0" standalone="no"?>
<!-- the width and height set the total pixel output of the image in the browser -->
<!-- whatever is within the viewbox will be remapped to show in this size -->
<svg width="1000" height="1000" viewBox="1 0  1200 1200"  version="1.1" xmlns="http://www.w3.org/2000/svg" xmlns:xlink="http://www.w3.org/1999/xlink">
 <desc>ID (and file name) = Fol_2020-03-20.09_52_08.0_1.svg  mode = Single Point </desc> 
<g transform = "scale(1 1)">

<text x = "-850" y="50" transform="rotate(-90)"  font-family="sans-serif" font-size="40" stroke ="lightgray" fill="none"> PointDistanceFollower   Mar 19 2020</text>
 <text x="200"  y="30"  font-family="sans-serif" font-size="20" >Fol_2020-03-20.09_52_08.0_1.svg  &#160;&#160;&#160;&#160;&#160; Wall time passed: 882 msec.</text>
<text x="300" y="60"   font-family="sans-serif" font-size="20" fill="lightblue">  S6  58 msec </text>
<text x="300" y="85"   font-family="sans-serif" font-size="20" fill="olive">  CS6Dist  2 msec </text>
<text x="300" y="110"   font-family="sans-serif" font-size="20" fill="black">  LM  822 msec </text>



 <!--DISTANCE PLOT BEGINS   mode = Single Point-->


<!-- the following will scale and place the distance plot -->
<g transform="translate(150,975) scale(1 -1)">
   <polyline fill="none" stroke=" lightblue " stroke-width=" 12 " stroke-dasharray = " 10,5 " points=" 7.92079,0 15.8416,16.6013 23.7624,33.2025 31.6832,49.8038 39.604,66.4051 47.5248,83.0064 55.4455,99.6076 63.3663,116.209 71.2871,132.81 79.2079,149.411 87.1287,166.013 95.0495,182.352 102.97,198.166 110.891,214.099 118.812,230.127 126.733,246.23 134.653,258.756 142.574,270.448 150.495,282.632 158.416,295.247 166.337,308.24 174.257,321.565 182.178,335.183 190.099,349.059 198.02,363.164 205.941,377.473 213.861,391.962 221.782,406.612 229.703,421.407 237.624,436.333 245.545,451.375 253.465,466.523 261.386,481.767 269.307,497.098 277.228,512.508 285.149,527.99 293.069,543.538 300.99,559.147 308.911,574.811 316.832,590.527 324.752,606.29 332.673,622.096 340.594,637.943 348.515,653.827 356.436,669.746 364.356,685.698 372.277,701.679 380.198,717.689 388.119,733.725 396.04,749.786 403.96,749.786 411.881,733.725 419.802,717.689 427.723,701.679 435.644,685.698 443.564,669.746 451.485,653.827 459.406,637.943 467.327,622.096 475.248,606.29 483.168,590.527 491.089,574.811 499.01,559.147 506.931,543.538 514.851,527.99 522.772,512.508 530.693,497.098 538.614,481.767 546.535,466.523 554.455,451.375 562.376,436.333 570.297,421.407 578.218,406.612 586.139,391.962 594.059,377.473 601.98,363.164 609.901,349.059 617.822,335.183 625.743,321.565 633.663,308.24 641.584,295.247 649.505,282.632 657.426,270.448 665.347,258.756 673.267,246.23 681.188,230.127 689.109,214.099 697.03,198.166 704.95,182.352 712.871,166.013 720.792,149.411 728.713,132.81 736.634,116.209 744.554,99.6076 752.475,83.0064 760.396,66.4051 768.317,49.8038 776.238,33.2025 784.158,16.6013 792.079,0 " />

   <polyline fill="none" stroke=" olive " stroke-width=" 3 " stroke-dasharray = " 5,10 " points=" 7.92079,0 15.8416,16.6013 23.7624,33.2025 31.6832,49.8038 39.604,66.4051 47.5248,83.0064 55.4455,99.6076 63.3663,116.209 71.2871,132.81 79.2079,149.411 87.1287,166.013 95.0495,182.352 102.97,198.166 110.891,214.099 118.812,230.127 126.733,246.23 134.653,262.396 142.574,278.613 150.495,294.873 158.416,311.169 166.337,327.495 174.257,343.848 182.178,360.223 190.099,376.619 198.02,393.031 205.941,409.459 213.861,425.9 221.782,442.354 229.703,458.818 237.624,475.291 245.545,491.773 253.465,508.263 261.386,524.76 269.307,539.807 277.228,553.674 285.149,567.704 293.069,581.886 300.99,596.208 308.911,610.659 316.832,625.231 324.752,639.915 332.673,654.702 340.594,669.585 348.515,684.558 356.436,699.614 364.356,714.747 372.277,729.952 380.198,745.225 388.119,760.561 396.04,775.956 403.96,775.956 411.881,760.561 419.802,745.225 427.723,729.952 435.644,714.747 443.564,699.614 451.485,684.558 459.406,669.585 467.327,654.702 475.248,639.915 483.168,625.231 491.089,610.659 499.01,596.208 506.931,581.886 514.851,567.704 522.772,553.674 530.693,539.807 538.614,524.76 546.535,508.263 554.455,491.773 562.376,475.291 570.297,458.818 578.218,442.354 586.139,425.9 594.059,409.459 601.98,393.031 609.901,376.619 617.822,360.223 625.743,343.848 633.663,327.495 641.584,311.169 649.505,294.873 657.426,278.613 665.347,262.396 673.267,246.23 681.188,230.127 689.109,214.099 697.03,198.166 704.95,182.352 712.871,166.013 720.792,149.411 728.713,132.81 736.634,116.209 744.554,99.6076 752.475,83.0064 760.396,66.4051 768.317,49.8038 776.238,33.2025 784.158,16.6013 792.079,0 " />

   <polyline fill="none" stroke=" black " stroke-width=" 3 " stroke-dasharray = "  " points=" 7.92079,0 15.8416,16.6013 23.7624,33.2025 31.6832,49.8038 39.604,66.4051 47.5248,83.0064 55.4455,99.6076 63.3663,116.209 71.2871,132.81 79.2079,149.411 87.1287,166.013 95.0495,179.539 102.97,181.836 110.891,185.546 118.812,190.587 126.733,196.856 134.653,204.241 142.574,212.624 150.495,221.894 158.416,231.943 166.337,242.675 174.257,254.004 182.178,265.853 190.099,278.155 198.02,290.853 205.941,303.898 213.861,317.247 221.782,330.862 229.703,344.713 237.624,358.772 245.545,373.016 253.465,387.423 261.386,401.978 269.307,416.663 277.228,431.466 285.149,446.376 293.069,461.381 300.99,476.472 308.911,491.643 316.832,506.885 324.752,522.193 332.673,537.56 340.594,552.982 348.515,568.455 356.436,583.974 364.356,599.536 372.277,615.137 380.198,630.775 388.119,646.447 396.04,662.15 403.96,662.15 411.881,646.447 419.802,630.775 427.723,615.137 435.644,599.536 443.564,583.974 451.485,568.455 459.406,552.982 467.327,537.56 475.248,522.193 483.168,506.885 491.089,491.643 499.01,476.472 506.931,461.381 514.851,446.376 522.772,431.466 530.693,416.663 538.614,401.978 546.535,387.423 554.455,373.016 562.376,358.772 570.297,344.713 578.218,330.862 586.139,317.247 594.059,303.898 601.98,290.853 609.901,278.155 617.822,265.853 625.743,254.004 633.663,242.675 641.584,231.943 649.505,221.894 657.426,212.624 665.347,204.241 673.267,196.856 681.188,190.587 689.109,185.546 697.03,181.836 704.95,179.539 712.871,166.013 720.792,149.411 728.713,132.81 736.634,116.209 744.554,99.6076 752.475,83.0064 760.396,66.4051 768.317,49.8038 776.238,33.2025 784.158,16.6013 792.079,0 " />


<!--Draw the X and Y axes -->
<polyline fill="none" stroke="black" stroke-width="6"  points=" 800,0 0,0 0, 800" />
<polyline fill="none" stroke="black" stroke-width="1"  points=" 0 800  800 800  800 0" />
<!-- -->


<!--Draw labels and tics for X axis -->

<line fill="none" stroke="black"  stroke-width="6"  x1="0.5" y1="0" x2="0.5" y2="-20" />
<text transform="scale(1,-1)" font-family="sans-serif" font-size="30" x="-24.5" y="45" >0</text>
<line fill="none" stroke="black"  stroke-width="6"  x1="158.916" y1="0" x2="158.916" y2="-20" />
<text transform="scale(1,-1)" font-family="sans-serif" font-size="30" x="133.916" y="45" >20</text>
<line fill="none" stroke="black"  stroke-width="6"  x1="317.332" y1="0" x2="317.332" y2="-20" />
<text transform="scale(1,-1)" font-family="sans-serif" font-size="30" x="292.332" y="45" >40</text>
<line fill="none" stroke="black"  stroke-width="6"  x1="475.748" y1="0" x2="475.748" y2="-20" />
<text transform="scale(1,-1)" font-family="sans-serif" font-size="30" x="450.748" y="45" >60</text>
<line fill="none" stroke="black"  stroke-width="6"  x1="634.163" y1="0" x2="634.163" y2="-20" />
<text transform="scale(1,-1)" font-family="sans-serif" font-size="30" x="609.163" y="45" >80</text>
<line fill="none" stroke="black"  stroke-width="6"  x1="792.579" y1="0" x2="792.579" y2="-20" />
<text transform="scale(1,-1)" font-family="sans-serif" font-size="30" x="767.579" y="45" >100</text>


<!--Draw labels and tics for Y axis -->

<line fill="none" stroke="black" stroke-width="6" x1="0.0" y1="0" x2="-20" y2="0" />
<text transform="scale(1,-1)" text-anchor="end" font-family="sans-serif" font-size="30" x="-25" y="10" >0</text>
<line fill="none" stroke="black" stroke-width="6" x1="0.0" y1="114.286" x2="-20" y2="114.286" />
<text transform="scale(1,-1)" text-anchor="end" font-family="sans-serif" font-size="30" x="-25" y="-104.286" >10</text>
<line fill="none" stroke="black" stroke-width="6" x1="0.0" y1="228.571" x2="-20" y2="228.571" />
<text transform="scale(1,-1)" text-anchor="end" font-family="sans-serif" font-size="30" x="-25" y="-218.571" >20</text>
<line fill="none" stroke="black" stroke-width="6" x1="0.0" y1="342.857" x2="-20" y2="342.857" />
<text transform="scale(1,-1)" text-anchor="end" font-family="sans-serif" font-size="30" x="-25" y="-332.857" >30</text>
<line fill="none" stroke="black" stroke-width="6" x1="0.0" y1="457.143" x2="-20" y2="457.143" />
<text transform="scale(1,-1)" text-anchor="end" font-family="sans-serif" font-size="30" x="-25" y="-447.143" >40</text>
<line fill="none" stroke="black" stroke-width="6" x1="0.0" y1="571.429" x2="-20" y2="571.429" />
<text transform="scale(1,-1)" text-anchor="end" font-family="sans-serif" font-size="30" x="-25" y="-561.429" >50</text>
<line fill="none" stroke="black" stroke-width="6" x1="0.0" y1="685.714" x2="-20" y2="685.714" />
<text transform="scale(1,-1)" text-anchor="end" font-family="sans-serif" font-size="30" x="-25" y="-675.714" >60</text>
<line fill="none" stroke="black" stroke-width="6" x1="0.0" y1="800" x2="-20" y2="800" />
<text transform="scale(1,-1)" text-anchor="end" font-family="sans-serif" font-size="30" x="-25" y="-790" >70</text>

-->
</g>
</g>
<!-- Run Constants
PRINTDISTANCEDATA bool true
GLITCHESONLY bool false
PERTURBBY double 0.05
GLITCHLEVEL double 3
BOUNDARYWINDOW double 0.065
STEPSPERFRAME int 100
TRIALS int 20
ALLBLACK bool true
FILEPREFIX string Fol
NIGGLISELLINGFIRST bool false
ENABLE DistanceEnableString 
DISABLE DistanceDisableString 
GRAPHSIZE int 0
BORDER int 0
PLOTSIZE int 0
AXISWIDTH int 6
TICLENGTH int 20
VECTOR g6 
FOLLOWERMODE FollowerMode point
FIXRANDOMSEED fixRandomSeed false
RANDOMSEED int 19191
TIMESTAMP bool true
END end 


-->
</svg>
