<?xml version="1.0" standalone="no"?>
<!-- the width and height set the total pixel output of the image in the browser -->
<!-- whatever is within the viewbox will be remapped to show in this size -->
<svg width="1000" height="1000" viewBox="1 0 1000 1000"  version="1.1" xmlns="http://www.w3.org/2000/svg" xmlns:xlink="http://www.w3.org/1999/xlink">
 <desc>ID (and file name) = Fol_2018-05-14.17_25_07.1_84.svg </desc> 
 <text x="560" y="30" font-family="sans-serif" font-size="20">Wall time passed: 1640 msec.</text>
<text x="300" y="60"   font-family="sans-serif" font-size="20" fill="lightblue">S6  lightblue</text>
<text x="300" y="85"   font-family="sans-serif" font-size="20" fill="slategrey">NCDist  slategrey</text>
<text x="300" y="110"  font-family="sans-serif" font-size="20" fill="violet">D7  violet</text>
<text x="300" y="135"  font-family="sans-serif" font-size="20" fill="olive">CS6Dist  olive</text>

 <text x="140"  y="30"  font-family="sans-serif" font-size="20" >Fol_2018-05-14.17_25_07.1_84.svg  </text> 


 <!--DISTANCE PLOT BEGINS-->


<!-- the following will scale and place the distance plot -->
<g  transform="translate(0,50) ">
<g transform="translate(150,700) scale(1 -1)">
   <polyline fill="none" stroke=" lightblue " stroke-width=" 12 " points=" 6,0 12,24.4577 18,48.9153 24,71.1771 30,68.6095 36,66.6355 42,67.9549 48,72.3878 54,77.9018 60,78.2702 66,79.9643 72,82.9028 78,86.9597 84,91.987 90,97.8354 96,104.367 102,111.461 108,119.018 114,126.955 120,132.258 126,136.107 132,140.602 138,145.681 144,151.286 150,157.362 156,163.855 162,170.718 168,177.908 174,185.22 180,191.827 186,198.744 192,205.939 198,213.386 204,221.058 210,228.933 216,236.99 222,245.212 228,253.582 234,262.087 240,270.714 246,279.45 252,288.288 258,297.216 264,306.228 270,315.316 276,324.475 282,333.697 288,342.978 294,352.314 300,361.699 306,371.131 312,380.606 318,390.12 324,399.671 330,401.304 336,397.674 342,394.278 348,391.122 354,388.212 360,385.553 366,383.15 372,381.008 378,379.132 384,377.525 390,376.192 396,375.342 402,376.322 408,377.695 414,374.228 420,362.975 426,351.787 432,340.669 438,329.63 444,317.736 450,305.515 456,293.295 462,281.074 468,268.853 474,256.633 480,244.412 486,232.192 492,219.971 498,207.75 504,195.53 510,183.309 516,171.089 522,158.868 528,146.647 534,134.427 540,122.206 546,109.986 552,97.7649 558,85.5443 564,73.3237 570,61.1031 576,48.8824 582,36.6618 588,24.4412 594,12.2206 600,0 " />
   <polyline fill="none" stroke=" slategrey " stroke-width=" 9 " points=" " />
   <polyline fill="none" stroke=" violet " stroke-width=" 6 " points=" " />
   <polyline fill="none" stroke=" olive " stroke-width=" 3 " points=" 6,0 12,24.4577 18,48.9153 24,73.373 30,68.6095 36,66.6355 42,67.9549 48,72.3878 54,567.768 60,565.014 66,562.434 72,560.03 78,557.804 84,555.759 90,553.896 96,552.218 102,550.726 108,549.421 114,548.305 120,547.379 126,546.645 132,546.057 138,542.2 144,538.395 150,532.179 156,526.089 162,520.131 168,514.308 174,508.626 180,503.088 186,497.701 192,492.468 198,487.395 204,482.487 210,477.749 216,473.186 222,468.803 228,464.606 234,460.598 240,456.786 246,453.175 252,449.768 258,446.571 264,443.589 270,440.825 276,438.284 282,434.498 288,430.052 294,425.808 300,421.77 306,417.945 312,413.53 318,409.238 324,405.16 330,401.304 336,397.674 342,394.278 348,391.122 354,388.212 360,385.553 366,383.15 372,381.008 378,379.132 384,377.525 390,376.192 396,404.945 402,403.28 408,391.06 414,378.839 420,366.618 426,354.398 432,342.177 438,329.957 444,317.736 450,305.515 456,293.295 462,281.074 468,268.853 474,256.633 480,244.412 486,232.192 492,219.971 498,207.75 504,195.53 510,183.309 516,171.089 522,158.868 528,146.647 534,134.427 540,122.206 546,109.986 552,97.7649 558,85.5443 564,73.3237 570,61.1031 576,48.8824 582,36.6618 588,24.4412 594,12.2206 600,0 " />

<!--Draw Glitches -->

<line fill="none" stroke="black" stroke-width="4" x1="30" y1="58.6095" x2="30" y2="8.60952"  stroke-dasharray = "10,5" />
<text transform="scale(1,-1)" font-family="sans-serif" font-size="30" stroke = "rgb(0,0,0)" line = "rgb(0,0,0)"  fill = "lightblue" x="35" y="-8.60952" >4</text>

<!-- -->


<!--Draw Glitches -->

<line fill="none" stroke="black" stroke-width="4" x1="30" y1="58.6095" x2="30" y2="8.60952"  stroke-dasharray = "10,5" />
<text transform="scale(1,-1)" font-family="sans-serif" font-size="30" stroke = "rgb(0,0,0)" line = "rgb(0,0,0)"  fill = "olive" x="35" y="-8.60952" >4</text>
<line fill="none" stroke="black" stroke-width="4" x1="54" y1="557.768" x2="54" y2="507.768"  stroke-dasharray = "10,5" />
<text transform="scale(1,-1)" font-family="sans-serif" font-size="30" stroke = "rgb(0,0,0)" line = "rgb(0,0,0)"  fill = "olive" x="59" y="-507.768" >8</text>

<!-- -->


<!--Draw the X and Y axes -->
<polyline fill="none" stroke="black" stroke-width="6"  points=" 600,0 0,0 0, 600" />
<polyline fill="none" stroke="black" stroke-width="1"  points=" 0 600  600 600  600 0" />
<!-- -->


<!--Draw labels and tics for X axis -->

<line fill="none" stroke="black"  stroke-width="6"  x1="0.5" y1="0" x2="0.5" y2="-20" />
<text transform="scale(1,-1)" font-family="sans-serif" font-size="30" x="-24.5" y="45" >0</text>
<line fill="none" stroke="black"  stroke-width="6"  x1="120.5" y1="0" x2="120.5" y2="-20" />
<text transform="scale(1,-1)" font-family="sans-serif" font-size="30" x="95.5" y="45" >20</text>
<line fill="none" stroke="black"  stroke-width="6"  x1="240.5" y1="0" x2="240.5" y2="-20" />
<text transform="scale(1,-1)" font-family="sans-serif" font-size="30" x="215.5" y="45" >40</text>
<line fill="none" stroke="black"  stroke-width="6"  x1="360.5" y1="0" x2="360.5" y2="-20" />
<text transform="scale(1,-1)" font-family="sans-serif" font-size="30" x="335.5" y="45" >60</text>
<line fill="none" stroke="black"  stroke-width="6"  x1="480.5" y1="0" x2="480.5" y2="-20" />
<text transform="scale(1,-1)" font-family="sans-serif" font-size="30" x="455.5" y="45" >80</text>
<line fill="none" stroke="black"  stroke-width="6"  x1="600.5" y1="0" x2="600.5" y2="-20" />
<text transform="scale(1,-1)" font-family="sans-serif" font-size="30" x="575.5" y="45" >100</text>


<!--Draw labels and tics for Y axis -->

<line fill="none" stroke="black" stroke-width="6" x1="0.0" y1="0" x2="-20" y2="0" />
<text transform="scale(1,-1)" text-anchor="end" font-family="sans-serif" font-size="30" x="-25" y="10" >0</text>
<line fill="none" stroke="black" stroke-width="6" x1="0.0" y1="66.6667" x2="-20" y2="66.6667" />
<text transform="scale(1,-1)" text-anchor="end" font-family="sans-serif" font-size="30" x="-25" y="-56.6667" >5</text>
<line fill="none" stroke="black" stroke-width="6" x1="0.0" y1="133.333" x2="-20" y2="133.333" />
<text transform="scale(1,-1)" text-anchor="end" font-family="sans-serif" font-size="30" x="-25" y="-123.333" >10</text>
<line fill="none" stroke="black" stroke-width="6" x1="0.0" y1="200" x2="-20" y2="200" />
<text transform="scale(1,-1)" text-anchor="end" font-family="sans-serif" font-size="30" x="-25" y="-190" >15</text>
<line fill="none" stroke="black" stroke-width="6" x1="0.0" y1="266.667" x2="-20" y2="266.667" />
<text transform="scale(1,-1)" text-anchor="end" font-family="sans-serif" font-size="30" x="-25" y="-256.667" >20</text>
<line fill="none" stroke="black" stroke-width="6" x1="0.0" y1="333.333" x2="-20" y2="333.333" />
<text transform="scale(1,-1)" text-anchor="end" font-family="sans-serif" font-size="30" x="-25" y="-323.333" >25</text>
<line fill="none" stroke="black" stroke-width="6" x1="0.0" y1="400" x2="-20" y2="400" />
<text transform="scale(1,-1)" text-anchor="end" font-family="sans-serif" font-size="30" x="-25" y="-390" >30</text>
<line fill="none" stroke="black" stroke-width="6" x1="0.0" y1="466.667" x2="-20" y2="466.667" />
<text transform="scale(1,-1)" text-anchor="end" font-family="sans-serif" font-size="30" x="-25" y="-456.667" >35</text>
<line fill="none" stroke="black" stroke-width="6" x1="0.0" y1="533.333" x2="-20" y2="533.333" />
<text transform="scale(1,-1)" text-anchor="end" font-family="sans-serif" font-size="30" x="-25" y="-523.333" >40</text>
<line fill="none" stroke="black" stroke-width="6" x1="0.0" y1="600" x2="-20" y2="600" />
<text transform="scale(1,-1)" text-anchor="end" font-family="sans-serif" font-size="30" x="-25" y="-590" >45</text>

-->
</g>
</g>
<!-- Run Constants
CIRCLEPLOT bool false
DISTANCEPLOT bool true
PRINTDISTANCEDATA bool true
GLITCHESONLY bool false
PLOT 2doubles 3 4
PERTURBBY double 0.05
GLITCHLEVEL double 3
BOUNDARYWINDOW double 0.065
FRAMESPERPATH int 200
STEPSPERFRAME int 100
TRIALS int 100
ALLBLACK bool true
FILEPREFIX string Fol
GRAPHSIZE int 0
BORDER int 0
PLOTSIZE int 0
G6LINEWIDTH int 3
DELONELINEWIDTH int 10
AXISWIDTH int 6
TICLENGTH int 20
VECTOR g6 
FOLLOWERMODE FollowerMode point
FIXRANDOMSEED fixRandomSeed false
RANDOMSEED int 19191
TIMESTAMP bool true
END end 




-->
</svg>
