<?xml version="1.0" standalone="no"?>
<!-- the width and height set the total pixel output of the image in the browser -->
<!-- whatever is within the viewbox will be remapped to show in this size -->
<svg width="1000" height="1000" viewBox="1 0 1000 1000"  version="1.1" xmlns="http://www.w3.org/2000/svg" xmlns:xlink="http://www.w3.org/1999/xlink">
 <desc>ID (and file name) = Fol_2018-05-14.17_24_48.1_72.svg </desc> 
 <text x="560" y="30" font-family="sans-serif" font-size="20">Wall time passed: 1559 msec.</text>
<text x="300" y="60"   font-family="sans-serif" font-size="20" fill="lightblue">S6  lightblue</text>
<text x="300" y="85"   font-family="sans-serif" font-size="20" fill="slategrey">NCDist  slategrey</text>
<text x="300" y="110"  font-family="sans-serif" font-size="20" fill="violet">D7  violet</text>
<text x="300" y="135"  font-family="sans-serif" font-size="20" fill="olive">CS6Dist  olive</text>

 <text x="140"  y="30"  font-family="sans-serif" font-size="20" >Fol_2018-05-14.17_24_48.1_72.svg  </text> 


 <!--DISTANCE PLOT BEGINS-->


<!-- the following will scale and place the distance plot -->
<g  transform="translate(0,50) ">
<g transform="translate(150,700) scale(1 -1)">
   <polyline fill="none" stroke=" lightblue " stroke-width=" 12 " points=" 6,0 12,37.0069 18,51.0043 24,70.6251 30,93.0416 36,116.653 42,140.86 48,138.105 54,134.391 60,132.524 66,132.581 72,134.56 78,138.379 84,143.891 90,146.152 96,146.21 102,147.093 108,148.787 114,151.266 120,153.944 126,155.34 132,157.494 138,160.377 144,163.95 150,168.168 156,172.986 162,178.353 168,184.222 174,190.548 180,197.285 186,204.393 192,211.835 198,219.577 204,227.588 210,235.84 216,244.311 222,252.976 228,261.818 234,270.818 240,279.962 246,289.236 252,298.628 258,308.127 264,317.558 270,326.04 276,334.669 282,343.434 288,352.325 294,361.332 300,370.448 306,379.664 312,388.973 318,398.369 324,407.846 330,412.904 336,412.184 342,411.757 348,411.625 354,409.473 360,404.561 366,399.892 372,395.475 378,391.317 384,387.427 390,383.814 396,380.485 402,377.448 408,374.71 414,372.277 420,370.156 426,363.222 432,352.749 438,342.309 444,331.906 450,321.297 456,308.445 462,295.593 468,282.741 474,269.889 480,257.037 486,244.185 492,231.334 498,218.482 504,205.63 510,192.778 516,179.926 522,167.074 528,154.222 534,141.371 540,128.519 546,115.667 552,102.815 558,89.963 564,77.1112 570,64.2593 576,51.4075 582,38.5556 588,25.7037 594,12.8519 600,0 " />
   <polyline fill="none" stroke=" slategrey " stroke-width=" 9 " points=" " />
   <polyline fill="none" stroke=" violet " stroke-width=" 6 " points=" " />
   <polyline fill="none" stroke=" olive " stroke-width=" 3 " points=" 6,1.43051e-05 12,38.6952 18,51.0043 24,70.6251 30,93.0416 36,116.653 42,140.86 48,138.105 54,134.391 60,132.524 66,132.581 72,134.56 78,138.379 84,143.891 90,547.604 96,545.011 102,542.629 108,540.46 114,538.508 120,536.775 126,535.262 132,533.972 138,530.036 144,525.089 150,520.328 156,515.758 162,511.385 168,507.212 174,503.246 180,499.491 186,495.951 192,492.633 198,489.539 204,486.675 210,482.974 216,477.307 222,471.83 228,466.548 234,461.469 240,456.598 246,451.943 252,447.51 258,443.307 264,439.339 270,435.613 276,432.136 282,428.913 288,425.95 294,423.253 300,420.827 306,418.676 312,416.804 318,415.217 324,413.916 330,412.904 336,412.184 342,411.757 348,411.625 354,411.44 360,406.601 366,402.006 372,397.663 378,393.579 384,389.764 390,386.225 396,382.97 402,380.006 408,377.34 414,374.978 420,372.927 426,371.19 432,369.773 438,363.913 444,354.087 450,321.297 456,308.445 462,295.593 468,282.741 474,269.889 480,257.037 486,244.185 492,231.334 498,218.482 504,205.63 510,192.778 516,179.926 522,167.074 528,154.222 534,141.371 540,128.519 546,115.667 552,102.815 558,89.963 564,77.1112 570,64.2593 576,51.4075 582,38.5556 588,25.7037 594,12.8519 600,1.43051e-05 " />

<!--Draw Glitches -->

<line fill="none" stroke="black" stroke-width="4" x1="90" y1="537.604" x2="90" y2="487.604"  stroke-dasharray = "10,5" />
<text transform="scale(1,-1)" font-family="sans-serif" font-size="30" stroke = "rgb(0,0,0)" line = "rgb(0,0,0)"  fill = "olive" x="95" y="-487.604" >14</text>

<!-- -->


<!--Draw the X and Y axes -->
<polyline fill="none" stroke="black" stroke-width="6"  points=" 600,0 0,0 0, 600" />
<polyline fill="none" stroke="black" stroke-width="1"  points=" 0 600  600 600  600 0" />
<!-- -->


<!--Draw labels and tics for X axis -->

<line fill="none" stroke="black"  stroke-width="6"  x1="0.5" y1="0" x2="0.5" y2="-20" />
<text transform="scale(1,-1)" font-family="sans-serif" font-size="30" x="-24.5" y="45" >0</text>
<line fill="none" stroke="black"  stroke-width="6"  x1="120.5" y1="0" x2="120.5" y2="-20" />
<text transform="scale(1,-1)" font-family="sans-serif" font-size="30" x="95.5" y="45" >20</text>
<line fill="none" stroke="black"  stroke-width="6"  x1="240.5" y1="0" x2="240.5" y2="-20" />
<text transform="scale(1,-1)" font-family="sans-serif" font-size="30" x="215.5" y="45" >40</text>
<line fill="none" stroke="black"  stroke-width="6"  x1="360.5" y1="0" x2="360.5" y2="-20" />
<text transform="scale(1,-1)" font-family="sans-serif" font-size="30" x="335.5" y="45" >60</text>
<line fill="none" stroke="black"  stroke-width="6"  x1="480.5" y1="0" x2="480.5" y2="-20" />
<text transform="scale(1,-1)" font-family="sans-serif" font-size="30" x="455.5" y="45" >80</text>
<line fill="none" stroke="black"  stroke-width="6"  x1="600.5" y1="0" x2="600.5" y2="-20" />
<text transform="scale(1,-1)" font-family="sans-serif" font-size="30" x="575.5" y="45" >100</text>


<!--Draw labels and tics for Y axis -->

<line fill="none" stroke="black" stroke-width="6" x1="0.0" y1="0" x2="-20" y2="0" />
<text transform="scale(1,-1)" text-anchor="end" font-family="sans-serif" font-size="30" x="-25" y="10" >0</text>
<line fill="none" stroke="black" stroke-width="6" x1="0.0" y1="150" x2="-20" y2="150" />
<text transform="scale(1,-1)" text-anchor="end" font-family="sans-serif" font-size="30" x="-25" y="-140" >10</text>
<line fill="none" stroke="black" stroke-width="6" x1="0.0" y1="300" x2="-20" y2="300" />
<text transform="scale(1,-1)" text-anchor="end" font-family="sans-serif" font-size="30" x="-25" y="-290" >20</text>
<line fill="none" stroke="black" stroke-width="6" x1="0.0" y1="450" x2="-20" y2="450" />
<text transform="scale(1,-1)" text-anchor="end" font-family="sans-serif" font-size="30" x="-25" y="-440" >30</text>
<line fill="none" stroke="black" stroke-width="6" x1="0.0" y1="600" x2="-20" y2="600" />
<text transform="scale(1,-1)" text-anchor="end" font-family="sans-serif" font-size="30" x="-25" y="-590" >40</text>

-->
</g>
</g>
<!-- Run Constants
CIRCLEPLOT bool false
DISTANCEPLOT bool true
PRINTDISTANCEDATA bool true
GLITCHESONLY bool false
PLOT 2doubles 3 4
PERTURBBY double 0.05
GLITCHLEVEL double 3
BOUNDARYWINDOW double 0.065
FRAMESPERPATH int 200
STEPSPERFRAME int 100
TRIALS int 100
ALLBLACK bool true
FILEPREFIX string Fol
GRAPHSIZE int 0
BORDER int 0
PLOTSIZE int 0
G6LINEWIDTH int 3
DELONELINEWIDTH int 10
AXISWIDTH int 6
TICLENGTH int 20
VECTOR g6 
FOLLOWERMODE FollowerMode point
FIXRANDOMSEED fixRandomSeed false
RANDOMSEED int 19191
TIMESTAMP bool true
END end 




-->
</svg>
