<?xml version="1.0" standalone="no"?>
<!-- the width and height set the total pixel output of the image in the browser -->
<!-- whatever is within the viewbox will be remapped to show in this size -->
<svg width="900" height="900" viewBox="1 0 900 900"  version="1.1" xmlns="http://www.w3.org/2000/svg" xmlns:xlink="http://www.w3.org/1999/xlink">
 <desc>ID (and file name) = Fol_2018-05-19.10_07_14.0_0.svg  mode = LINE3 </desc> 
<text x = "-750" y="50" transform="rotate(-90)"  font-family="sans-serif" font-size="40" stroke ="lightgray" fill="none"> PointDistanceFollower   May 19 2018</text>
 <text x="560" y="30" font-family="sans-serif" font-size="20">Wall time passed: 84303 msec.</text>
<text x="300" y="60"   font-family="sans-serif" font-size="20" fill="lightblue">S6  lightblue</text>
<text x="300" y="85"   font-family="sans-serif" font-size="20" fill="slategrey">NCDist  slategrey</text>
<text x="300" y="110"  font-family="sans-serif" font-size="20" fill="violet">D7  violet</text>
<text x="300" y="135"  font-family="sans-serif" font-size="20" fill="olive">CS6Dist  olive</text>

 <text x="140"  y="30"  font-family="sans-serif" font-size="20" >Fol_2018-05-19.10_07_14.0_0.svg  </text> 


 <!--DISTANCE PLOT BEGINS-->


<!-- the following will scale and place the distance plot -->
<g  transform="translate(0, 50) ">
<g transform="translate(150,700) scale(1 -1)">
<line fill="none" stroke="lightblue" stroke-width="12" x1="0" y1="563.218" x2="5.94059" y2="563.218" />
<line fill="none" stroke="lightblue" stroke-width="12" x1="5.94059" y1="563.218" x2="11.8812" y2="547.194" />
<line fill="none" stroke="lightblue" stroke-width="12" x1="11.8812" y1="547.194" x2="17.8218" y2="531.245" />
<line fill="none" stroke="lightblue" stroke-width="12" x1="17.8218" y1="531.245" x2="23.7624" y2="515.377" />
<line fill="none" stroke="lightblue" stroke-width="12" x1="23.7624" y1="515.377" x2="29.703" y2="499.594" />
<line fill="none" stroke="lightblue" stroke-width="12" x1="29.703" y1="499.594" x2="35.6436" y2="483.901" />
<line fill="none" stroke="lightblue" stroke-width="12" x1="35.6436" y1="483.901" x2="41.5842" y2="468.304" />
<line fill="none" stroke="lightblue" stroke-width="12" x1="41.5842" y1="468.304" x2="47.5248" y2="452.809" />
<line fill="none" stroke="lightblue" stroke-width="12" x1="47.5248" y1="452.809" x2="53.4653" y2="437.423" />
<line fill="none" stroke="lightblue" stroke-width="12" x1="53.4653" y1="437.423" x2="59.4059" y2="422.152" />
<line fill="none" stroke="lightblue" stroke-width="12" x1="59.4059" y1="422.152" x2="65.3465" y2="407.003" />
<line fill="none" stroke="lightblue" stroke-width="12" x1="65.3465" y1="407.003" x2="71.2871" y2="391.985" />
<line fill="none" stroke="lightblue" stroke-width="12" x1="71.2871" y1="391.985" x2="77.2277" y2="377.106" />
<line fill="none" stroke="lightblue" stroke-width="12" x1="77.2277" y1="377.106" x2="83.1683" y2="362.377" />
<line fill="none" stroke="lightblue" stroke-width="12" x1="83.1683" y1="362.377" x2="89.1089" y2="347.806" />
<line fill="none" stroke="lightblue" stroke-width="12" x1="89.1089" y1="347.806" x2="95.0495" y2="333.405" />
<line fill="none" stroke="lightblue" stroke-width="12" x1="95.0495" y1="333.405" x2="100.99" y2="319.186" />
<line fill="none" stroke="lightblue" stroke-width="12" x1="100.99" y1="319.186" x2="106.931" y2="305.162" />
<line fill="none" stroke="lightblue" stroke-width="12" x1="106.931" y1="305.162" x2="112.871" y2="291.346" />
<line fill="none" stroke="lightblue" stroke-width="12" x1="112.871" y1="291.346" x2="118.812" y2="277.754" />
<line fill="none" stroke="lightblue" stroke-width="12" x1="118.812" y1="277.754" x2="124.752" y2="264.401" />
<line fill="none" stroke="lightblue" stroke-width="12" x1="124.752" y1="264.401" x2="130.693" y2="251.305" />
<line fill="none" stroke="lightblue" stroke-width="12" x1="130.693" y1="251.305" x2="136.634" y2="238.485" />
<line fill="none" stroke="lightblue" stroke-width="12" x1="136.634" y1="238.485" x2="142.574" y2="225.961" />
<line fill="none" stroke="lightblue" stroke-width="12" x1="142.574" y1="225.961" x2="148.515" y2="213.754" />
<line fill="none" stroke="lightblue" stroke-width="12" x1="148.515" y1="213.754" x2="154.455" y2="201.888" />
<line fill="none" stroke="lightblue" stroke-width="12" x1="154.455" y1="201.888" x2="160.396" y2="190.387" />
<line fill="none" stroke="lightblue" stroke-width="12" x1="160.396" y1="190.387" x2="166.337" y2="177.971" />
<line fill="none" stroke="lightblue" stroke-width="12" x1="166.337" y1="177.971" x2="172.277" y2="164.712" />
<line fill="none" stroke="lightblue" stroke-width="12" x1="172.277" y1="164.712" x2="178.218" y2="151.771" />
<line fill="none" stroke="lightblue" stroke-width="12" x1="178.218" y1="151.771" x2="184.158" y2="139.178" />
<line fill="none" stroke="lightblue" stroke-width="12" x1="184.158" y1="139.178" x2="190.099" y2="126.963" />
<line fill="none" stroke="lightblue" stroke-width="12" x1="190.099" y1="126.963" x2="196.04" y2="115.159" />
<line fill="none" stroke="lightblue" stroke-width="12" x1="196.04" y1="115.159" x2="201.98" y2="103.803" />
<line fill="none" stroke="lightblue" stroke-width="12" x1="201.98" y1="103.803" x2="207.921" y2="92.9335" />
<line fill="none" stroke="lightblue" stroke-width="12" x1="207.921" y1="92.9335" x2="213.861" y2="82.5915" />
<line fill="none" stroke="lightblue" stroke-width="12" x1="213.861" y1="82.5915" x2="219.802" y2="72.8212" />
<line fill="none" stroke="lightblue" stroke-width="12" x1="219.802" y1="72.8212" x2="225.743" y2="63.6687" />
<line fill="none" stroke="lightblue" stroke-width="12" x1="225.743" y1="63.6687" x2="231.683" y2="55.1818" />
<line fill="none" stroke="lightblue" stroke-width="12" x1="231.683" y1="55.1818" x2="237.624" y2="47.4092" />
<line fill="none" stroke="lightblue" stroke-width="12" x1="237.624" y1="47.4092" x2="243.564" y2="40.3998" />
<line fill="none" stroke="lightblue" stroke-width="12" x1="243.564" y1="40.3998" x2="249.505" y2="34.2018" />
<line fill="none" stroke="lightblue" stroke-width="12" x1="249.505" y1="34.2018" x2="255.446" y2="28.8609" />
<line fill="none" stroke="lightblue" stroke-width="12" x1="255.446" y1="28.8609" x2="261.386" y2="24.4196" />
<line fill="none" stroke="lightblue" stroke-width="12" x1="261.386" y1="24.4196" x2="267.327" y2="20.9151" />
<line fill="none" stroke="lightblue" stroke-width="12" x1="267.327" y1="20.9151" x2="273.267" y2="18.3784" />
<line fill="none" stroke="lightblue" stroke-width="12" x1="273.267" y1="18.3784" x2="279.208" y2="16.8327" />
<line fill="none" stroke="lightblue" stroke-width="12" x1="279.208" y1="16.8327" x2="285.149" y2="16.2926" />
<line fill="none" stroke="lightblue" stroke-width="12" x1="285.149" y1="16.2926" x2="291.089" y2="16.7633" />
<line fill="none" stroke="lightblue" stroke-width="12" x1="291.089" y1="16.7633" x2="297.03" y2="18.2401" />
<line fill="none" stroke="lightblue" stroke-width="12" x1="297.03" y1="18.2401" x2="302.97" y2="20.7093" />
<line fill="none" stroke="lightblue" stroke-width="12" x1="302.97" y1="20.7093" x2="308.911" y2="24.1482" />
<line fill="none" stroke="lightblue" stroke-width="12" x1="308.911" y1="24.1482" x2="314.851" y2="28.5263" />
<line fill="none" stroke="lightblue" stroke-width="12" x1="314.851" y1="28.5263" x2="320.792" y2="33.8066" />
<line fill="none" stroke="lightblue" stroke-width="12" x1="320.792" y1="33.8066" x2="326.733" y2="39.9471" />
<line fill="none" stroke="lightblue" stroke-width="12" x1="326.733" y1="39.9471" x2="332.673" y2="46.9022" />
<line fill="none" stroke="lightblue" stroke-width="12" x1="332.673" y1="46.9022" x2="338.614" y2="54.6239" />
<line fill="none" stroke="lightblue" stroke-width="12" x1="338.614" y1="54.6239" x2="344.554" y2="63.0633" />
<line fill="none" stroke="lightblue" stroke-width="12" x1="344.554" y1="63.0633" x2="350.495" y2="72.1716" />
<line fill="none" stroke="lightblue" stroke-width="12" x1="350.495" y1="72.1716" x2="356.436" y2="80.8941" />
<line fill="none" stroke="lightblue" stroke-width="12" x1="356.436" y1="80.8941" x2="362.376" y2="89.3988" />
<line fill="none" stroke="lightblue" stroke-width="12" x1="362.376" y1="89.3988" x2="368.317" y2="98.5252" />
<line fill="none" stroke="lightblue" stroke-width="12" x1="368.317" y1="98.5252" x2="374.257" y2="108.232" />
<line fill="none" stroke="lightblue" stroke-width="12" x1="374.257" y1="108.232" x2="380.198" y2="118.478" />
<line fill="none" stroke="lightblue" stroke-width="12" x1="380.198" y1="118.478" x2="386.139" y2="129.225" />
<line fill="none" stroke="lightblue" stroke-width="12" x1="386.139" y1="129.225" x2="392.079" y2="140.437" />
<line fill="none" stroke="lightblue" stroke-width="12" x1="392.079" y1="140.437" x2="398.02" y2="152.079" />
<line fill="none" stroke="lightblue" stroke-width="12" x1="398.02" y1="152.079" x2="403.96" y2="162.233" />
<line fill="none" stroke="lightblue" stroke-width="12" x1="403.96" y1="162.233" x2="409.901" y2="152.859" />
<line fill="none" stroke="lightblue" stroke-width="12" x1="409.901" y1="152.859" x2="415.842" y2="144.007" />
<line fill="none" stroke="lightblue" stroke-width="12" x1="415.842" y1="144.007" x2="421.782" y2="135.711" />
<line fill="none" stroke="lightblue" stroke-width="12" x1="421.782" y1="135.711" x2="427.723" y2="128.001" />
<line fill="none" stroke="lightblue" stroke-width="12" x1="427.723" y1="128.001" x2="433.663" y2="120.911" />
<line fill="none" stroke="lightblue" stroke-width="12" x1="433.663" y1="120.911" x2="439.604" y2="114.472" />
<line fill="none" stroke="lightblue" stroke-width="12" x1="439.604" y1="114.472" x2="445.545" y2="108.715" />
<line fill="none" stroke="lightblue" stroke-width="12" x1="445.545" y1="108.715" x2="451.485" y2="103.669" />
<line fill="none" stroke="lightblue" stroke-width="12" x1="451.485" y1="103.669" x2="457.426" y2="99.3614" />
<line fill="none" stroke="lightblue" stroke-width="12" x1="457.426" y1="99.3614" x2="463.366" y2="95.8156" />
<line fill="none" stroke="lightblue" stroke-width="12" x1="463.366" y1="95.8156" x2="469.307" y2="88.4224" />
<line fill="none" stroke="lightblue" stroke-width="12" x1="469.307" y1="88.4224" x2="475.248" y2="81.3227" />
<line fill="none" stroke="lightblue" stroke-width="12" x1="475.248" y1="81.3227" x2="481.188" y2="74.9426" />
<line fill="none" stroke="lightblue" stroke-width="12" x1="481.188" y1="74.9426" x2="487.129" y2="69.3193" />
<line fill="none" stroke="lightblue" stroke-width="12" x1="487.129" y1="69.3193" x2="493.069" y2="64.4879" />
<line fill="none" stroke="lightblue" stroke-width="12" x1="493.069" y1="64.4879" x2="499.01" y2="60.6265" />
<line fill="none" stroke="lightblue" stroke-width="12" x1="499.01" y1="60.6265" x2="504.95" y2="59.6923" />
<line fill="none" stroke="lightblue" stroke-width="12" x1="504.95" y1="59.6923" x2="510.891" y2="60.3671" />
<line fill="none" stroke="lightblue" stroke-width="12" x1="510.891" y1="60.3671" x2="516.832" y2="62.6419" />
<line fill="none" stroke="lightblue" stroke-width="12" x1="516.832" y1="62.6419" x2="522.772" y2="66.487" />
<line fill="none" stroke="lightblue" stroke-width="12" x1="522.772" y1="66.487" x2="528.713" y2="67.7607" />
<line fill="none" stroke="lightblue" stroke-width="12" x1="528.713" y1="67.7607" x2="534.653" y2="70.2269" />
<line fill="none" stroke="lightblue" stroke-width="12" x1="534.653" y1="70.2269" x2="540.594" y2="74.2282" />
<line fill="none" stroke="lightblue" stroke-width="12" x1="540.594" y1="74.2282" x2="546.535" y2="79.7163" />
<line fill="none" stroke="lightblue" stroke-width="12" x1="546.535" y1="79.7163" x2="552.475" y2="86.6277" />
<line fill="none" stroke="lightblue" stroke-width="12" x1="552.475" y1="86.6277" x2="558.416" y2="94.8878" />
<line fill="none" stroke="lightblue" stroke-width="12" x1="558.416" y1="94.8878" x2="564.356" y2="104.414" />
<line fill="none" stroke="lightblue" stroke-width="12" x1="564.356" y1="104.414" x2="570.297" y2="100.821" />
<line fill="none" stroke="lightblue" stroke-width="12" x1="570.297" y1="100.821" x2="576.238" y2="81.4317" />
<line fill="none" stroke="lightblue" stroke-width="12" x1="576.238" y1="81.4317" x2="582.178" y2="67.4721" />
<line fill="none" stroke="lightblue" stroke-width="12" x1="582.178" y1="67.4721" x2="588.119" y2="59.8918" />
<line fill="none" stroke="lightblue" stroke-width="12" x1="588.119" y1="59.8918" x2="594.059" y2="62.2452" />
<line fill="none" stroke="olive" stroke-width="3" x1="0" y1="598.789" x2="5.94059" y2="598.789" />
<line fill="none" stroke="olive" stroke-width="3" x1="5.94059" y1="598.789" x2="11.8812" y2="582.068" />
<line fill="none" stroke="olive" stroke-width="3" x1="11.8812" y1="582.068" x2="17.8218" y2="565.395" />
<line fill="none" stroke="olive" stroke-width="3" x1="17.8218" y1="565.395" x2="23.7624" y2="548.771" />
<line fill="none" stroke="olive" stroke-width="3" x1="23.7624" y1="548.771" x2="29.703" y2="532.199" />
<line fill="none" stroke="olive" stroke-width="3" x1="29.703" y1="532.199" x2="35.6436" y2="515.683" />
<line fill="none" stroke="olive" stroke-width="3" x1="35.6436" y1="515.683" x2="41.5842" y2="499.225" />
<line fill="none" stroke="olive" stroke-width="3" x1="41.5842" y1="499.225" x2="47.5248" y2="482.831" />
<line fill="none" stroke="olive" stroke-width="3" x1="47.5248" y1="482.831" x2="53.4653" y2="466.503" />
<line fill="none" stroke="olive" stroke-width="3" x1="53.4653" y1="466.503" x2="59.4059" y2="450.246" />
<line fill="none" stroke="olive" stroke-width="3" x1="59.4059" y1="450.246" x2="65.3465" y2="434.065" />
<line fill="none" stroke="olive" stroke-width="3" x1="65.3465" y1="434.065" x2="71.2871" y2="417.965" />
<line fill="none" stroke="olive" stroke-width="3" x1="71.2871" y1="417.965" x2="77.2277" y2="401.952" />
<line fill="none" stroke="olive" stroke-width="3" x1="77.2277" y1="401.952" x2="83.1683" y2="386.031" />
<line fill="none" stroke="olive" stroke-width="3" x1="83.1683" y1="386.031" x2="89.1089" y2="370.21" />
<line fill="none" stroke="olive" stroke-width="3" x1="89.1089" y1="370.21" x2="95.0495" y2="354.494" />
<line fill="none" stroke="olive" stroke-width="3" x1="95.0495" y1="354.494" x2="100.99" y2="338.893" />
<line fill="none" stroke="olive" stroke-width="3" x1="100.99" y1="338.893" x2="106.931" y2="323.415" />
<line fill="none" stroke="olive" stroke-width="3" x1="106.931" y1="323.415" x2="112.871" y2="308.069" />
<line fill="none" stroke="olive" stroke-width="3" x1="112.871" y1="308.069" x2="118.812" y2="292.865" />
<line fill="none" stroke="olive" stroke-width="3" x1="118.812" y1="292.865" x2="124.752" y2="277.816" />
<line fill="none" stroke="olive" stroke-width="3" x1="124.752" y1="277.816" x2="130.693" y2="262.932" />
<line fill="none" stroke="olive" stroke-width="3" x1="130.693" y1="262.932" x2="136.634" y2="248.227" />
<line fill="none" stroke="olive" stroke-width="3" x1="136.634" y1="248.227" x2="142.574" y2="233.717" />
<line fill="none" stroke="olive" stroke-width="3" x1="142.574" y1="233.717" x2="148.515" y2="219.418" />
<line fill="none" stroke="olive" stroke-width="3" x1="148.515" y1="219.418" x2="154.455" y2="205.347" />
<line fill="none" stroke="olive" stroke-width="3" x1="154.455" y1="205.347" x2="160.396" y2="191.524" />
<line fill="none" stroke="olive" stroke-width="3" x1="160.396" y1="191.524" x2="166.337" y2="177.971" />
<line fill="none" stroke="olive" stroke-width="3" x1="166.337" y1="177.971" x2="172.277" y2="164.712" />
<line fill="none" stroke="olive" stroke-width="3" x1="172.277" y1="164.712" x2="178.218" y2="151.771" />
<line fill="none" stroke="olive" stroke-width="3" x1="178.218" y1="151.771" x2="184.158" y2="139.178" />
<line fill="none" stroke="olive" stroke-width="3" x1="184.158" y1="139.178" x2="190.099" y2="126.963" />
<line fill="none" stroke="olive" stroke-width="3" x1="190.099" y1="126.963" x2="196.04" y2="115.159" />
<line fill="none" stroke="olive" stroke-width="3" x1="196.04" y1="115.159" x2="201.98" y2="103.803" />
<line fill="none" stroke="olive" stroke-width="3" x1="201.98" y1="103.803" x2="207.921" y2="92.9335" />
<line fill="none" stroke="olive" stroke-width="3" x1="207.921" y1="92.9335" x2="213.861" y2="82.5915" />
<line fill="none" stroke="olive" stroke-width="3" x1="213.861" y1="82.5915" x2="219.802" y2="72.8212" />
<line fill="none" stroke="olive" stroke-width="3" x1="219.802" y1="72.8212" x2="225.743" y2="63.6687" />
<line fill="none" stroke="olive" stroke-width="3" x1="225.743" y1="63.6687" x2="231.683" y2="55.1818" />
<line fill="none" stroke="olive" stroke-width="3" x1="231.683" y1="55.1818" x2="237.624" y2="47.4092" />
<line fill="none" stroke="olive" stroke-width="3" x1="237.624" y1="47.4092" x2="243.564" y2="40.3998" />
<line fill="none" stroke="olive" stroke-width="3" x1="243.564" y1="40.3998" x2="249.505" y2="34.2018" />
<line fill="none" stroke="olive" stroke-width="3" x1="249.505" y1="34.2018" x2="255.446" y2="28.8609" />
<line fill="none" stroke="olive" stroke-width="3" x1="255.446" y1="28.8609" x2="261.386" y2="24.4196" />
<line fill="none" stroke="olive" stroke-width="3" x1="261.386" y1="24.4196" x2="267.327" y2="20.9151" />
<line fill="none" stroke="olive" stroke-width="3" x1="267.327" y1="20.9151" x2="273.267" y2="18.3784" />
<line fill="none" stroke="olive" stroke-width="3" x1="273.267" y1="18.3784" x2="279.208" y2="16.8327" />
<line fill="none" stroke="olive" stroke-width="3" x1="279.208" y1="16.8327" x2="285.149" y2="16.2926" />
<line fill="none" stroke="olive" stroke-width="3" x1="285.149" y1="16.2926" x2="291.089" y2="16.7633" />
<line fill="none" stroke="olive" stroke-width="3" x1="291.089" y1="16.7633" x2="297.03" y2="18.2401" />
<line fill="none" stroke="olive" stroke-width="3" x1="297.03" y1="18.2401" x2="302.97" y2="20.7093" />
<line fill="none" stroke="olive" stroke-width="3" x1="302.97" y1="20.7093" x2="308.911" y2="24.1482" />
<line fill="none" stroke="olive" stroke-width="3" x1="308.911" y1="24.1482" x2="314.851" y2="28.5263" />
<line fill="none" stroke="olive" stroke-width="3" x1="314.851" y1="28.5263" x2="320.792" y2="33.8066" />
<line fill="none" stroke="olive" stroke-width="3" x1="320.792" y1="33.8066" x2="326.733" y2="39.9471" />
<line fill="none" stroke="olive" stroke-width="3" x1="326.733" y1="39.9471" x2="332.673" y2="46.9022" />
<line fill="none" stroke="olive" stroke-width="3" x1="332.673" y1="46.9022" x2="338.614" y2="54.6239" />
<line fill="none" stroke="olive" stroke-width="3" x1="338.614" y1="54.6239" x2="344.554" y2="63.0633" />
<line fill="none" stroke="olive" stroke-width="3" x1="344.554" y1="63.0633" x2="350.495" y2="72.1716" />
<line fill="none" stroke="olive" stroke-width="3" x1="350.495" y1="72.1716" x2="356.436" y2="81.9009" />
<line fill="none" stroke="olive" stroke-width="3" x1="356.436" y1="81.9009" x2="362.376" y2="92.205" />
<line fill="none" stroke="olive" stroke-width="3" x1="362.376" y1="92.205" x2="368.317" y2="103.04" />
<line fill="none" stroke="olive" stroke-width="3" x1="368.317" y1="103.04" x2="374.257" y2="114.364" />
<line fill="none" stroke="olive" stroke-width="3" x1="374.257" y1="114.364" x2="380.198" y2="126.138" />
<line fill="none" stroke="olive" stroke-width="3" x1="380.198" y1="126.138" x2="386.139" y2="138.326" />
<line fill="none" stroke="olive" stroke-width="3" x1="386.139" y1="138.326" x2="392.079" y2="150.894" />
<line fill="none" stroke="olive" stroke-width="3" x1="392.079" y1="150.894" x2="398.02" y2="163.812" />
<line fill="none" stroke="olive" stroke-width="3" x1="398.02" y1="163.812" x2="403.96" y2="177.05" />
<line fill="none" stroke="olive" stroke-width="3" x1="403.96" y1="177.05" x2="409.901" y2="190.584" />
<line fill="none" stroke="olive" stroke-width="3" x1="409.901" y1="190.584" x2="415.842" y2="204.388" />
<line fill="none" stroke="olive" stroke-width="3" x1="415.842" y1="204.388" x2="421.782" y2="218.443" />
<line fill="none" stroke="olive" stroke-width="3" x1="421.782" y1="218.443" x2="427.723" y2="232.727" />
<line fill="none" stroke="olive" stroke-width="3" x1="427.723" y1="232.727" x2="433.663" y2="247.223" />
<line fill="none" stroke="olive" stroke-width="3" x1="433.663" y1="247.223" x2="439.604" y2="261.915" />
<line fill="none" stroke="olive" stroke-width="3" x1="439.604" y1="261.915" x2="445.545" y2="276.787" />
<line fill="none" stroke="olive" stroke-width="3" x1="445.545" y1="276.787" x2="451.485" y2="281.114" />
<line fill="none" stroke="olive" stroke-width="3" x1="451.485" y1="281.114" x2="457.426" y2="277.01" />
<line fill="none" stroke="olive" stroke-width="3" x1="457.426" y1="277.01" x2="463.366" y2="273.434" />
<line fill="none" stroke="olive" stroke-width="3" x1="463.366" y1="273.434" x2="469.307" y2="270.397" />
<line fill="none" stroke="olive" stroke-width="3" x1="469.307" y1="270.397" x2="475.248" y2="267.907" />
<line fill="none" stroke="olive" stroke-width="3" x1="475.248" y1="267.907" x2="481.188" y2="265.972" />
<line fill="none" stroke="olive" stroke-width="3" x1="481.188" y1="265.972" x2="487.129" y2="264.598" />
<line fill="none" stroke="olive" stroke-width="3" x1="487.129" y1="264.598" x2="493.069" y2="263.787" />
<line fill="none" stroke="olive" stroke-width="3" x1="493.069" y1="263.787" x2="499.01" y2="91.7663" />
<line fill="none" stroke="olive" stroke-width="3" x1="499.01" y1="91.7663" x2="504.95" y2="98.7871" />
<line fill="none" stroke="olive" stroke-width="3" x1="504.95" y1="98.7871" x2="510.891" y2="107.112" />
<line fill="none" stroke="olive" stroke-width="3" x1="510.891" y1="107.112" x2="516.832" y2="116.663" />
<line fill="none" stroke="olive" stroke-width="3" x1="516.832" y1="116.663" x2="522.772" y2="127.358" />
<line fill="none" stroke="olive" stroke-width="3" x1="522.772" y1="127.358" x2="528.713" y2="133.489" />
<line fill="none" stroke="olive" stroke-width="3" x1="528.713" y1="133.489" x2="534.653" y2="140.005" />
<line fill="none" stroke="olive" stroke-width="3" x1="534.653" y1="140.005" x2="540.594" y2="147.721" />
<line fill="none" stroke="olive" stroke-width="3" x1="540.594" y1="147.721" x2="546.535" y2="156.578" />
<line fill="none" stroke="olive" stroke-width="3" x1="546.535" y1="156.578" x2="552.475" y2="166.51" />
<line fill="none" stroke="olive" stroke-width="3" x1="552.475" y1="166.51" x2="558.416" y2="177.45" />
<line fill="none" stroke="olive" stroke-width="3" x1="558.416" y1="177.45" x2="564.356" y2="189.33" />
<line fill="none" stroke="olive" stroke-width="3" x1="564.356" y1="189.33" x2="570.297" y2="100.821" />
<line fill="none" stroke="olive" stroke-width="3" x1="570.297" y1="100.821" x2="576.238" y2="81.4317" />
<line fill="none" stroke="olive" stroke-width="3" x1="576.238" y1="81.4317" x2="582.178" y2="67.4721" />
<line fill="none" stroke="olive" stroke-width="3" x1="582.178" y1="67.4721" x2="588.119" y2="85.8444" />
<line fill="none" stroke="olive" stroke-width="3" x1="588.119" y1="85.8444" x2="594.059" y2="87.6939" />

<!--Draw Glitches -->

<line fill="none" stroke="black" stroke-width="4" x1="499.01" y1="81.7663" x2="499.01" y2="31.7663"  stroke-dasharray = "10,5" />
<text transform="scale(1,-1)" font-family="sans-serif" font-size="30" stroke = "rgb(0,0,0)" line = "rgb(0,0,0)"  fill = "olive" x="504.01" y="-31.7663" >83</text>
<line fill="none" stroke="black" stroke-width="4" x1="570.297" y1="90.8209" x2="570.297" y2="40.8209"  stroke-dasharray = "10,5" />
<text transform="scale(1,-1)" font-family="sans-serif" font-size="30" stroke = "rgb(0,0,0)" line = "rgb(0,0,0)"  fill = "olive" x="575.297" y="-40.8209" >95</text>

<!-- -->


<!--Draw the X and Y axes -->
<polyline fill="none" stroke="black" stroke-width="6"  points=" 600,0 0,0 0, 600" />
<polyline fill="none" stroke="black" stroke-width="1"  points=" 0 600  600 600  600 0" />
<!-- -->


<!--Draw labels and tics for X axis -->

<line fill="none" stroke="black"  stroke-width="6"  x1="0.5" y1="0" x2="0.5" y2="-20" />
<text transform="scale(1,-1)" font-family="sans-serif" font-size="30" x="-24.5" y="45" >0</text>
<line fill="none" stroke="black"  stroke-width="6"  x1="119.312" y1="0" x2="119.312" y2="-20" />
<text transform="scale(1,-1)" font-family="sans-serif" font-size="30" x="94.3119" y="45" >20</text>
<line fill="none" stroke="black"  stroke-width="6"  x1="238.124" y1="0" x2="238.124" y2="-20" />
<text transform="scale(1,-1)" font-family="sans-serif" font-size="30" x="213.124" y="45" >40</text>
<line fill="none" stroke="black"  stroke-width="6"  x1="356.936" y1="0" x2="356.936" y2="-20" />
<text transform="scale(1,-1)" font-family="sans-serif" font-size="30" x="331.936" y="45" >60</text>
<line fill="none" stroke="black"  stroke-width="6"  x1="475.748" y1="0" x2="475.748" y2="-20" />
<text transform="scale(1,-1)" font-family="sans-serif" font-size="30" x="450.748" y="45" >80</text>
<line fill="none" stroke="black"  stroke-width="6"  x1="594.559" y1="0" x2="594.559" y2="-20" />
<text transform="scale(1,-1)" font-family="sans-serif" font-size="30" x="569.559" y="45" >100</text>


<!--Draw labels and tics for Y axis -->

<line fill="none" stroke="black" stroke-width="6" x1="0.0" y1="0" x2="-20" y2="0" />
<text transform="scale(1,-1)" text-anchor="end" font-family="sans-serif" font-size="30" x="-25" y="10" >15</text>
<line fill="none" stroke="black" stroke-width="6" x1="0.0" y1="100" x2="-20" y2="100" />
<text transform="scale(1,-1)" text-anchor="end" font-family="sans-serif" font-size="30" x="-25" y="-90" >20</text>
<line fill="none" stroke="black" stroke-width="6" x1="0.0" y1="200" x2="-20" y2="200" />
<text transform="scale(1,-1)" text-anchor="end" font-family="sans-serif" font-size="30" x="-25" y="-190" >25</text>
<line fill="none" stroke="black" stroke-width="6" x1="0.0" y1="300" x2="-20" y2="300" />
<text transform="scale(1,-1)" text-anchor="end" font-family="sans-serif" font-size="30" x="-25" y="-290" >30</text>
<line fill="none" stroke="black" stroke-width="6" x1="0.0" y1="400" x2="-20" y2="400" />
<text transform="scale(1,-1)" text-anchor="end" font-family="sans-serif" font-size="30" x="-25" y="-390" >35</text>
<line fill="none" stroke="black" stroke-width="6" x1="0.0" y1="500" x2="-20" y2="500" />
<text transform="scale(1,-1)" text-anchor="end" font-family="sans-serif" font-size="30" x="-25" y="-490" >40</text>
<line fill="none" stroke="black" stroke-width="6" x1="0.0" y1="600" x2="-20" y2="600" />
<text transform="scale(1,-1)" text-anchor="end" font-family="sans-serif" font-size="30" x="-25" y="-590" >45</text>

-->
</g>
</g>
<!-- Run Constants
PRINTDISTANCEDATA bool true
GLITCHESONLY bool false
PLOT 2doubles 3 4
PERTURBBY double 0.1
GLITCHLEVEL double 3
BOUNDARYWINDOW double 0.065
FRAMESPERPATH int 200
STEPSPERFRAME int 100
TRIALS int 4
ALLBLACK bool true
FILEPREFIX string Fol
GRAPHSIZE int 0
BORDER int 0
PLOTSIZE int 0
G6LINEWIDTH int 3
DELONELINEWIDTH int 10
AXISWIDTH int 6
TICLENGTH int 20
VECTOR g6 
FOLLOWERMODE FollowerMode line
FIXRANDOMSEED fixRandomSeed false
RANDOMSEED int 19191
TIMESTAMP bool true
END end 




-->
</svg>
