<?xml version="1.0" standalone="no"?>
<!-- the width and height set the total pixel output of the image in the browser -->
<!-- whatever is within the viewbox will be remapped to show in this size -->
<svg width="900" height="900" viewBox="1 0 900 900"  version="1.1" xmlns="http://www.w3.org/2000/svg" xmlns:xlink="http://www.w3.org/1999/xlink">
 <desc>ID (and file name) = Fol_2018-05-27.16_53_57.3_0.svg  mode = LINE3 </desc> 
<text x = "-750" y="50" transform="rotate(-90)"  font-family="sans-serif" font-size="40" stroke ="lightgray" fill="none"> PointDistanceFollower   May 27 2018</text>
 <text x="560" y="30" font-family="sans-serif" font-size="20">Wall time passed: 23509 msec.</text>
<text x="300" y="60"   font-family="sans-serif" font-size="20" fill="lightblue">S6  lightblue</text>
<text x="300" y="85"   font-family="sans-serif" font-size="20" fill="slategrey">NCDist  slategrey</text>
<text x="300" y="110"  font-family="sans-serif" font-size="20" fill="violet">D7  violet</text>
<text x="300" y="135"  font-family="sans-serif" font-size="20" fill="olive">CS6Dist  olive</text>

 <text x="140"  y="30"  font-family="sans-serif" font-size="20" >Fol_2018-05-27.16_53_57.3_0.svg  </text> 


 <!--DISTANCE PLOT BEGINS   mode = LINE3-->


<!-- the following will scale and place the distance plot -->
<g  transform="translate(0, 50) ">
<g transform="translate(150,700) scale(1 -1)">
   <polyline fill="none" stroke=" lightblue " stroke-width=" 12 " points=" 5.94059,97.7473 11.8812,93.9107 17.8218,90.5325 23.7624,87.6395 29.703,85.2562 35.6436,85.4182 41.5842,79.8042 47.5248,71.8285 53.4653,64.6693 59.4059,57.0317 65.3465,51.9903 71.2871,47.9362 77.2277,44.9615 83.1683,47.5523 89.1089,55.5904 95.0495,71.3298 100.99,89.2435 106.931,105.622 112.871,128.318 118.812,152.593 " />

<line fill="none" stroke-dasharray = "10, 10"  stroke="orange" stroke-width="6" x1="124.752" y1="300" x2="594.059" y2="300" />
   <polyline fill="none" stroke=" slategrey " stroke-width=" 9 " points=" 5.94059,92.6487 11.8812,87.7986 17.8218,85.9701 23.7624,84.9434 29.703,84.7331 35.6436,85.3422 41.5842,82.4812 47.5248,78.542 53.4653,77.0646 59.4059,78.1157 65.3465,81.6477 71.2871,87.5088 77.2277,95.4732 83.1683,99.5223 89.1089,99.392 95.0495,101.482 100.99,105.72 106.931,111.996 112.871,153.04 118.812,224.752 " />

<line fill="none" stroke-dasharray = "10, 10"  stroke="orange" stroke-width="6" x1="124.752" y1="300" x2="594.059" y2="300" />
   <polyline fill="none" stroke=" violet " stroke-width=" 6 " points=" 5.94059,292.09 11.8812,288.674 17.8218,285.83 23.7624,283.533 29.703,280.943 35.6436,281.201 41.5842,278.171 47.5248,277.865 53.4653,277.93 59.4059,277.637 65.3465,280.008 71.2871,283.434 77.2277,287.881 83.1683,303.07 89.1089,323.358 95.0495,363.374 100.99,405.813 106.931,448.119 112.871,513.291 118.812,591.234 " />

<line fill="none" stroke-dasharray = "10, 10"  stroke="orange" stroke-width="6" x1="124.752" y1="300" x2="594.059" y2="300" />
   <polyline fill="none" stroke=" olive " stroke-width=" 3 " points=" 5.94059,104.911 11.8812,100.27 17.8218,96.0869 23.7624,92.3882 29.703,89.198 35.6436,86.7735 41.5842,80.4166 47.5248,74.3366 53.4653,68.9699 59.4059,64.4334 65.3465,60.4027 71.2871,56.202 77.2277,53.082 83.1683,55.0651 89.1089,55.9606 95.0495,71.3298 100.99,89.2435 106.931,108.87 112.871,128.318 118.812,154.022 " />

<line fill="none" stroke-dasharray = "10, 10"  stroke="orange" stroke-width="6" x1="124.752" y1="300" x2="594.059" y2="300" />

<!--Draw Glitches -->

<line fill="none" stroke="black" stroke-width="4" x1="112.871" y1="118.318" x2="112.871" y2="68.3177"  stroke-dasharray = "10,5" />
<text transform="scale(1,-1)" font-family="sans-serif" font-size="30" stroke = "rgb(0,0,0)" line = "rgb(0,0,0)"  fill = "lightblue" x="117.871" y="-68.3177" >18</text>

<!-- -->


<!--Draw Glitches -->


<!-- -->


<!--Draw Glitches -->


<!-- -->


<!--Draw Glitches -->


<!-- -->


<!--Draw the X and Y axes -->
<polyline fill="none" stroke="black" stroke-width="6"  points=" 600,0 0,0 0, 600" />
<polyline fill="none" stroke="black" stroke-width="1"  points=" 0 600  600 600  600 0" />
<!-- -->


<!--Draw labels and tics for X axis -->

<line fill="none" stroke="black"  stroke-width="6"  x1="0.5" y1="0" x2="0.5" y2="-20" />
<text transform="scale(1,-1)" font-family="sans-serif" font-size="30" x="-24.5" y="45" >0</text>
<line fill="none" stroke="black"  stroke-width="6"  x1="119.312" y1="0" x2="119.312" y2="-20" />
<text transform="scale(1,-1)" font-family="sans-serif" font-size="30" x="94.3119" y="45" >20</text>
<line fill="none" stroke="black"  stroke-width="6"  x1="238.124" y1="0" x2="238.124" y2="-20" />
<text transform="scale(1,-1)" font-family="sans-serif" font-size="30" x="213.124" y="45" >40</text>
<line fill="none" stroke="black"  stroke-width="6"  x1="356.936" y1="0" x2="356.936" y2="-20" />
<text transform="scale(1,-1)" font-family="sans-serif" font-size="30" x="331.936" y="45" >60</text>
<line fill="none" stroke="black"  stroke-width="6"  x1="475.748" y1="0" x2="475.748" y2="-20" />
<text transform="scale(1,-1)" font-family="sans-serif" font-size="30" x="450.748" y="45" >80</text>
<line fill="none" stroke="black"  stroke-width="6"  x1="594.559" y1="0" x2="594.559" y2="-20" />
<text transform="scale(1,-1)" font-family="sans-serif" font-size="30" x="569.559" y="45" >100</text>


<!--Draw labels and tics for Y axis -->

<line fill="none" stroke="black" stroke-width="6" x1="0.0" y1="0" x2="-20" y2="0" />
<text transform="scale(1,-1)" text-anchor="end" font-family="sans-serif" font-size="30" x="-25" y="10" >10</text>
<line fill="none" stroke="black" stroke-width="6" x1="0.0" y1="85.7143" x2="-20" y2="85.7143" />
<text transform="scale(1,-1)" text-anchor="end" font-family="sans-serif" font-size="30" x="-25" y="-75.7143" >20</text>
<line fill="none" stroke="black" stroke-width="6" x1="0.0" y1="171.429" x2="-20" y2="171.429" />
<text transform="scale(1,-1)" text-anchor="end" font-family="sans-serif" font-size="30" x="-25" y="-161.429" >30</text>
<line fill="none" stroke="black" stroke-width="6" x1="0.0" y1="257.143" x2="-20" y2="257.143" />
<text transform="scale(1,-1)" text-anchor="end" font-family="sans-serif" font-size="30" x="-25" y="-247.143" >40</text>
<line fill="none" stroke="black" stroke-width="6" x1="0.0" y1="342.857" x2="-20" y2="342.857" />
<text transform="scale(1,-1)" text-anchor="end" font-family="sans-serif" font-size="30" x="-25" y="-332.857" >50</text>
<line fill="none" stroke="black" stroke-width="6" x1="0.0" y1="428.571" x2="-20" y2="428.571" />
<text transform="scale(1,-1)" text-anchor="end" font-family="sans-serif" font-size="30" x="-25" y="-418.571" >60</text>
<line fill="none" stroke="black" stroke-width="6" x1="0.0" y1="514.286" x2="-20" y2="514.286" />
<text transform="scale(1,-1)" text-anchor="end" font-family="sans-serif" font-size="30" x="-25" y="-504.286" >70</text>
<line fill="none" stroke="black" stroke-width="6" x1="0.0" y1="600" x2="-20" y2="600" />
<text transform="scale(1,-1)" text-anchor="end" font-family="sans-serif" font-size="30" x="-25" y="-590" >80</text>

-->
</g>
</g>
<!-- Run Constants
PRINTDISTANCEDATA bool true
GLITCHESONLY bool false
PLOT 2doubles 3 4
PERTURBBY double 0.05
GLITCHLEVEL double 3
BOUNDARYWINDOW double 0.065
FRAMESPERPATH int 200
STEPSPERFRAME int 100
TRIALS int 3
ALLBLACK bool true
FILEPREFIX string Fol
GRAPHSIZE int 0
BORDER int 0
PLOTSIZE int 0
G6LINEWIDTH int 3
DELONELINEWIDTH int 10
AXISWIDTH int 6
TICLENGTH int 20
VECTOR g6 
FOLLOWERMODE FollowerMode line
FIXRANDOMSEED fixRandomSeed false
RANDOMSEED int 19191
TIMESTAMP bool true
END end 




-->
</svg>
