<?xml version="1.0" standalone="no"?>
<!-- the width and height set the total pixel output of the image in the browser -->
<!-- whatever is within the viewbox will be remapped to show in this size -->
<svg width="1000" height="1000" viewBox="1 0 1000 1000"  version="1.1" xmlns="http://www.w3.org/2000/svg" xmlns:xlink="http://www.w3.org/1999/xlink">
 <desc>ID (and file name) = Fol_2018-05-14.17_23_48.1_35.svg </desc> 
 <text x="560" y="30" font-family="sans-serif" font-size="20">Wall time passed: 1328 msec.</text>
<text x="300" y="60"   font-family="sans-serif" font-size="20" fill="lightblue">S6  lightblue</text>
<text x="300" y="85"   font-family="sans-serif" font-size="20" fill="slategrey">NCDist  slategrey</text>
<text x="300" y="110"  font-family="sans-serif" font-size="20" fill="violet">D7  violet</text>
<text x="300" y="135"  font-family="sans-serif" font-size="20" fill="olive">CS6Dist  olive</text>

 <text x="140"  y="30"  font-family="sans-serif" font-size="20" >Fol_2018-05-14.17_23_48.1_35.svg  </text> 


 <!--DISTANCE PLOT BEGINS-->


<!-- the following will scale and place the distance plot -->
<g  transform="translate(0,50) ">
<g transform="translate(150,700) scale(1 -1)">
   <polyline fill="none" stroke=" lightblue " stroke-width=" 12 " points=" 6,0 12,24.4173 18,48.8345 24,73.2518 30,97.669 36,103.751 42,113.577 48,127.387 54,144.041 60,162.666 66,182.662 72,203.624 78,221.363 84,226.583 90,224.139 96,222.526 102,221.389 108,220.628 114,220.464 120,220.896 126,221.923 132,223.534 138,225.719 144,228.46 150,231.738 156,235.531 162,239.813 168,244.56 174,249.744 180,253.756 186,255.339 192,257.424 198,259.999 204,263.051 210,266.562 216,270.515 222,274.892 228,279.671 234,284.832 240,290.356 246,296.222 252,302.41 258,308.901 264,315.676 270,322.717 276,330.007 282,334.891 288,338.836 294,343.086 300,347.631 306,352.459 312,357.559 318,362.919 324,368.528 330,374.375 336,380.448 342,386.738 348,393.233 354,399.924 360,406.801 366,410.383 372,400.195 378,390.05 384,379.952 390,369.903 396,359.908 402,349.971 408,340.099 414,330.296 420,320.569 426,310.924 432,301.371 438,291.918 444,282.575 450,273.353 456,264.265 462,255.325 468,246.549 474,237.956 480,229.566 486,221.402 492,212.581 498,201.472 504,190.668 510,180.226 516,170.21 522,160.7 528,151.793 534,143.6 540,134.769 546,121.292 552,107.815 558,94.3381 564,80.8612 570,67.3844 576,53.9075 582,40.4306 588,26.9537 594,13.4769 600,0 " />
   <polyline fill="none" stroke=" slategrey " stroke-width=" 9 " points=" " />
   <polyline fill="none" stroke=" violet " stroke-width=" 6 " points=" " />
   <polyline fill="none" stroke=" olive " stroke-width=" 3 " points=" 6,1.61844e-05 12,24.4173 18,48.8345 24,73.2518 30,97.669 36,122.086 42,146.504 48,170.921 54,195.338 60,219.755 66,244.173 72,268.59 78,261.781 84,226.583 90,224.139 96,222.526 102,279.105 108,274.371 114,270.042 120,266.139 126,262.679 132,259.681 138,257.16 144,255.132 150,253.608 156,252.596 162,252.104 168,252.134 174,252.686 180,253.756 186,255.339 192,257.424 198,259.999 204,263.051 210,266.562 216,270.515 222,274.892 228,279.671 234,284.832 240,290.356 246,296.222 252,302.41 258,308.901 264,315.676 270,322.717 276,330.007 282,556.16 288,545.604 294,535.066 300,524.545 306,514.043 312,503.561 318,493.1 324,482.663 330,472.249 336,461.862 342,451.502 348,441.172 354,430.874 360,420.61 366,410.383 372,400.195 378,390.05 384,379.952 390,369.903 396,359.908 402,349.971 408,340.099 414,330.296 420,320.569 426,310.924 432,301.371 438,291.918 444,282.575 450,273.353 456,264.265 462,255.325 468,246.549 474,237.956 480,229.566 486,221.402 492,242.584 498,229.107 504,215.63 510,202.153 516,188.676 522,175.199 528,161.722 534,148.246 540,134.769 546,121.292 552,107.815 558,94.3381 564,80.8612 570,67.3844 576,53.9075 582,40.4306 588,26.9537 594,13.4769 600,1.61844e-05 " />

<!--Draw Glitches -->

<line fill="none" stroke="black" stroke-width="4" x1="42" y1="103.577" x2="42" y2="53.577"  stroke-dasharray = "10,5" />
<text transform="scale(1,-1)" font-family="sans-serif" font-size="30" stroke = "rgb(0,0,0)" line = "rgb(0,0,0)"  fill = "lightblue" x="47" y="-53.577" >6</text>

<!-- -->


<!--Draw Glitches -->

<line fill="none" stroke="black" stroke-width="4" x1="84" y1="216.583" x2="84" y2="166.583"  stroke-dasharray = "10,5" />
<text transform="scale(1,-1)" font-family="sans-serif" font-size="30" stroke = "rgb(0,0,0)" line = "rgb(0,0,0)"  fill = "olive" x="89" y="-166.583" >13</text>
<line fill="none" stroke="black" stroke-width="4" x1="102" y1="269.105" x2="102" y2="219.105"  stroke-dasharray = "10,5" />
<text transform="scale(1,-1)" font-family="sans-serif" font-size="30" stroke = "rgb(0,0,0)" line = "rgb(0,0,0)"  fill = "olive" x="107" y="-219.105" >16</text>
<line fill="none" stroke="black" stroke-width="4" x1="282" y1="546.16" x2="282" y2="496.16"  stroke-dasharray = "10,5" />
<text transform="scale(1,-1)" font-family="sans-serif" font-size="30" stroke = "rgb(0,0,0)" line = "rgb(0,0,0)"  fill = "olive" x="287" y="-496.16" >46</text>

<!-- -->


<!--Draw the X and Y axes -->
<polyline fill="none" stroke="black" stroke-width="6"  points=" 600,0 0,0 0, 600" />
<polyline fill="none" stroke="black" stroke-width="1"  points=" 0 600  600 600  600 0" />
<!-- -->


<!--Draw labels and tics for X axis -->

<line fill="none" stroke="black"  stroke-width="6"  x1="0.5" y1="0" x2="0.5" y2="-20" />
<text transform="scale(1,-1)" font-family="sans-serif" font-size="30" x="-24.5" y="45" >0</text>
<line fill="none" stroke="black"  stroke-width="6"  x1="120.5" y1="0" x2="120.5" y2="-20" />
<text transform="scale(1,-1)" font-family="sans-serif" font-size="30" x="95.5" y="45" >20</text>
<line fill="none" stroke="black"  stroke-width="6"  x1="240.5" y1="0" x2="240.5" y2="-20" />
<text transform="scale(1,-1)" font-family="sans-serif" font-size="30" x="215.5" y="45" >40</text>
<line fill="none" stroke="black"  stroke-width="6"  x1="360.5" y1="0" x2="360.5" y2="-20" />
<text transform="scale(1,-1)" font-family="sans-serif" font-size="30" x="335.5" y="45" >60</text>
<line fill="none" stroke="black"  stroke-width="6"  x1="480.5" y1="0" x2="480.5" y2="-20" />
<text transform="scale(1,-1)" font-family="sans-serif" font-size="30" x="455.5" y="45" >80</text>
<line fill="none" stroke="black"  stroke-width="6"  x1="600.5" y1="0" x2="600.5" y2="-20" />
<text transform="scale(1,-1)" font-family="sans-serif" font-size="30" x="575.5" y="45" >100</text>


<!--Draw labels and tics for Y axis -->

<line fill="none" stroke="black" stroke-width="6" x1="0.0" y1="0" x2="-20" y2="0" />
<text transform="scale(1,-1)" text-anchor="end" font-family="sans-serif" font-size="30" x="-25" y="10" >0</text>
<line fill="none" stroke="black" stroke-width="6" x1="0.0" y1="120" x2="-20" y2="120" />
<text transform="scale(1,-1)" text-anchor="end" font-family="sans-serif" font-size="30" x="-25" y="-110" >5</text>
<line fill="none" stroke="black" stroke-width="6" x1="0.0" y1="240" x2="-20" y2="240" />
<text transform="scale(1,-1)" text-anchor="end" font-family="sans-serif" font-size="30" x="-25" y="-230" >10</text>
<line fill="none" stroke="black" stroke-width="6" x1="0.0" y1="360" x2="-20" y2="360" />
<text transform="scale(1,-1)" text-anchor="end" font-family="sans-serif" font-size="30" x="-25" y="-350" >15</text>
<line fill="none" stroke="black" stroke-width="6" x1="0.0" y1="480" x2="-20" y2="480" />
<text transform="scale(1,-1)" text-anchor="end" font-family="sans-serif" font-size="30" x="-25" y="-470" >20</text>
<line fill="none" stroke="black" stroke-width="6" x1="0.0" y1="600" x2="-20" y2="600" />
<text transform="scale(1,-1)" text-anchor="end" font-family="sans-serif" font-size="30" x="-25" y="-590" >25</text>

-->
</g>
</g>
<!-- Run Constants
CIRCLEPLOT bool false
DISTANCEPLOT bool true
PRINTDISTANCEDATA bool true
GLITCHESONLY bool false
PLOT 2doubles 3 4
PERTURBBY double 0.05
GLITCHLEVEL double 3
BOUNDARYWINDOW double 0.065
FRAMESPERPATH int 200
STEPSPERFRAME int 100
TRIALS int 100
ALLBLACK bool true
FILEPREFIX string Fol
GRAPHSIZE int 0
BORDER int 0
PLOTSIZE int 0
G6LINEWIDTH int 3
DELONELINEWIDTH int 10
AXISWIDTH int 6
TICLENGTH int 20
VECTOR g6 
FOLLOWERMODE FollowerMode point
FIXRANDOMSEED fixRandomSeed false
RANDOMSEED int 19191
TIMESTAMP bool true
END end 




-->
</svg>
