<?xml version="1.0" standalone="no"?>
<!-- the width and height set the total pixel output of the image in the browser -->
<!-- whatever is within the viewbox will be remapped to show in this size -->
<svg width="1000" height="1000" viewBox="1 0 1000 1000"  version="1.1" xmlns="http://www.w3.org/2000/svg" xmlns:xlink="http://www.w3.org/1999/xlink">
 <desc>ID (and file name) = Fol_2018-05-05.12_23_59.1_9.svg </desc> 
 <text x="700" y="30" font-family="sans-serif" font-size="20">Wall time passed: 0 msec.</text>
<text x="300" y="60"   font-family="sans-serif" font-size="20" fill="lightblue">S6  lightblue</text>
<text x="300" y="85"   font-family="sans-serif" font-size="20" fill="slategrey">NCDist  slategrey</text>
<text x="300" y="110"  font-family="sans-serif" font-size="20" fill="violet">D7  violet</text>
<text x="300" y="135"  font-family="sans-serif" font-size="20" fill="olive">CS6Dist  olive</text>



 <!--DISTANCE PLOT BEGINS-->


<!-- the following will scale and place the distance plot -->
<g  transform="translate(0,50) ">
<g transform="translate(150,700) scale(1 -1)">
   <polyline fill="none" stroke=" lightblue " stroke-width=" 12 " points=" 5.2,0 10.4,17.8652 15.6,35.7304 20.8,53.5957 26,71.4609 31.2,89.3261 36.4,106.227 41.6,114.844 46.8,125.429 52,135.38 57.2,141.067 62.4,146.684 67.6,153.071 72.8,160.607 78,169.137 83.2,178.52 88.4,188.628 93.6,199.352 98.8,210.596 104,221.242 109.2,223.384 114.4,226.5 119.6,230.55 124.8,232.662 130,233.549 135.2,234.715 140.4,236.156 145.6,237.867 150.8,239.843 156,242.076 161.2,244.561 166.4,245.206 171.6,243.429 176.8,241.913 182,240.663 187.2,239.684 192.4,238.978 197.6,238.548 202.8,238.396 208,238.522 213.2,238.925 218.4,239.605 223.6,240.559 228.8,241.783 234,242.465 239.2,240.462 244.4,238.719 249.6,237.244 254.8,236.04 260,235.112 265.2,234.464 270.4,234.097 275.6,234.013 280.8,234.213 286,234.695 291.2,235.458 296.4,236.499 301.6,237.814 306.8,239.399 312,241.249 317.2,243.358 322.4,245.718 327.6,248.323 332.8,251.165 338,254.237 343.2,255.734 348.4,253.359 353.6,250.584 358.8,248.047 364,245.752 369.2,243.709 374.4,241.922 379.6,240.399 384.8,234.846 390,227.698 395.2,220.62 400.4,213.617 405.6,206.697 410.8,199.87 416,193.145 421.2,186.533 426.4,179.206 431.6,171.657 436.8,164.165 442,156.738 447.2,149.386 452.4,142.119 457.6,134.953 462.8,127.905 468,120.993 473.2,114.1 478.4,106.988 483.6,100.033 488.8,87.2316 494,72.693 499.2,58.1544 504.4,43.6158 509.6,29.0772 514.8,14.5386 520,0 " />
   <polyline fill="none" stroke=" slategrey " stroke-width=" 9 " points=" 5.2,0 10.4,39.6145 15.6,79.2289 20.8,97.7214 26,122.877 31.2,147.41 36.4,155.905 41.6,165.898 46.8,177.346 52,192.093 57.2,211.113 62.4,217.214 67.6,224.74 72.8,233.554 78,243.517 83.2,254.493 88.4,266.357 93.6,278.996 98.8,289.978 104,291.778 109.2,291.913 114.4,292.357 119.6,293.517 124.8,295.343 130,297.667 135.2,300.545 140.4,305.328 145.6,311.93 150.8,318.681 156,321.732 161.2,327.378 166.4,333.827 171.6,341.033 176.8,348.948 182,357.527 187.2,366.721 192.4,374.907 197.6,378.56 202.8,382.959 208,388.08 213.2,393.893 218.4,400.37 223.6,407.478 228.8,415.184 234,423.457 239.2,432.264 244.4,441.572 249.6,451.351 254.8,461.571 260,472.203 265.2,486.674 270.4,497.095 275.6,486.163 280.8,475.61 286,465.461 291.2,455.743 296.4,446.484 301.6,437.713 306.8,429.461 312,421.758 317.2,414.634 322.4,408.119 327.6,402.244 332.8,397.037 338,392.524 343.2,388.729 348.4,385.674 353.6,382.529 358.8,375.487 364,369.122 369.2,363.468 374.4,360.577 379.6,360.403 384.8,350.747 390,341.831 395.2,326.902 400.4,312.093 405.6,297.42 410.8,282.901 416,270.326 421.2,257.995 426.4,245.874 431.6,233.998 436.8,222.405 442,211.141 447.2,200.263 452.4,187.78 457.6,174.226 462.8,161.475 468,149.73 473.2,139.247 478.4,130.33 483.6,123.32 488.8,106.123 494,88.436 499.2,70.7488 504.4,53.0616 509.6,35.3744 514.8,17.6872 520,1.17855e-12 " />
   <polyline fill="none" stroke=" violet " stroke-width=" 6 " points=" 5.2,0 10.4,28.5404 15.6,57.0809 20.8,85.6213 26,114.162 31.2,142.702 36.4,171.243 41.6,193.043 46.8,208.97 52,224.566 57.2,234.365 62.4,244.081 67.6,254.722 72.8,266.745 78,279.972 83.2,294.24 88.4,309.406 93.6,325.344 98.8,341.945 104,359.119 109.2,367.933 114.4,376.342 119.6,386.225 124.8,396.53 130,400.973 135.2,401.667 140.4,401.982 145.6,402.216 150.8,402.726 156,403.574 161.2,404.758 166.4,406.276 171.6,408.123 176.8,410.295 182,412.786 187.2,415.592 192.4,418.705 197.6,422.12 202.8,425.828 208,429.822 213.2,434.095 218.4,438.637 223.6,443.441 228.8,448.499 234,453.801 239.2,459.34 244.4,465.107 249.6,471.093 254.8,476.206 260,468.624 265.2,461.215 270.4,453.985 275.6,446.945 280.8,440.102 286,433.467 291.2,427.049 296.4,420.858 301.6,414.904 306.8,409.197 312,403.749 317.2,398.568 322.4,393.667 327.6,389.056 332.8,384.745 338,380.744 343.2,377.063 348.4,373.272 353.6,368.942 358.8,364.936 364,361.263 369.2,357.935 374.4,354.961 379.6,352.35 384.8,344.244 390,333.962 395.2,323.776 400.4,313.695 405.6,303.729 410.8,293.891 416,284.193 421.2,274.65 426.4,265.279 431.6,256.099 436.8,247.131 442,238.346 447.2,228.618 452.4,219.081 457.6,209.126 462.8,197.488 468,185.868 473.2,174.273 478.4,162.712 483.6,151.199 488.8,131.623 494,109.686 499.2,87.7488 504.4,65.8116 509.6,43.8744 514.8,21.9372 520,0 " />
   <polyline fill="none" stroke=" olive " stroke-width=" 3 " points=" 5.2,1.26953e-05 10.4,17.8652 15.6,35.7304 20.8,53.5957 26,71.4609 31.2,89.3261 36.4,107.191 41.6,122.85 46.8,138.237 52,135.38 57.2,141.067 62.4,146.684 67.6,153.071 72.8,160.607 78,169.137 83.2,178.52 88.4,188.628 93.6,199.352 98.8,210.596 104,222.282 109.2,233.936 114.4,237.145 119.6,241.244 124.8,251.279 130,251.363 135.2,251.71 140.4,252.319 145.6,253.189 150.8,254.317 156,255.699 161.2,257.332 166.4,259.211 171.6,261.329 176.8,263.683 182,266.264 187.2,269.068 192.4,272.086 197.6,275.312 202.8,278.739 208,282.359 213.2,286.165 218.4,290.15 223.6,294.306 228.8,298.626 234,303.104 239.2,307.732 244.4,312.504 249.6,317.413 254.8,321.649 260,316.478 265.2,311.435 270.4,306.524 275.6,301.754 280.8,297.13 286,292.659 291.2,288.349 296.4,284.208 301.6,280.242 306.8,276.458 312,272.866 317.2,269.472 322.4,266.283 327.6,263.308 332.8,260.553 338,253.882 343.2,245.737 348.4,237.593 353.6,229.448 358.8,221.303 364,213.158 369.2,205.013 374.4,196.868 379.6,188.722 384.8,180.577 390,172.431 395.2,164.285 400.4,156.138 405.6,147.991 410.8,139.844 416,131.696 421.2,123.548 426.4,115.399 431.6,107.249 436.8,99.0978 442,90.9452 447.2,82.7908 452.4,74.6339 457.6,66.4736 462.8,58.3086 468,50.1364 473.2,41.9529 478.4,33.7499 483.6,25.5086 488.8,87.2316 494,72.693 499.2,58.1544 504.4,43.6158 509.6,29.0772 514.8,14.5386 520,1.26953e-05 " />

<!--Draw the X and Y axes -->
<polyline fill="none" stroke="black" stroke-width="6"  points=" 600,0 0,0 0,520" />
<!-- -->


<!--Draw labels and tics for X axis -->

<line fill="none" stroke="black"  stroke-width="6"  x1="0.5" y1="0" x2="0.5" y2="-20" />
<text transform="scale(1,-1)" font-family="sans-serif" font-size="30" x="-24.5" y="45" >0</text>
<line fill="none" stroke="black"  stroke-width="6"  x1="104.5" y1="0" x2="104.5" y2="-20" />
<text transform="scale(1,-1)" font-family="sans-serif" font-size="30" x="79.5" y="45" >20</text>
<line fill="none" stroke="black"  stroke-width="6"  x1="208.5" y1="0" x2="208.5" y2="-20" />
<text transform="scale(1,-1)" font-family="sans-serif" font-size="30" x="183.5" y="45" >40</text>
<line fill="none" stroke="black"  stroke-width="6"  x1="312.5" y1="0" x2="312.5" y2="-20" />
<text transform="scale(1,-1)" font-family="sans-serif" font-size="30" x="287.5" y="45" >60</text>
<line fill="none" stroke="black"  stroke-width="6"  x1="416.5" y1="0" x2="416.5" y2="-20" />
<text transform="scale(1,-1)" font-family="sans-serif" font-size="30" x="391.5" y="45" >80</text>
<line fill="none" stroke="black"  stroke-width="6"  x1="520.5" y1="0" x2="520.5" y2="-20" />
<text transform="scale(1,-1)" font-family="sans-serif" font-size="30" x="495.5" y="45" >100</text>


<!--Draw labels and tics for Y axis -->

<line fill="none" stroke="black" stroke-width="6" x1="0.0" y1="0" x2="-20" y2="0" />
<text transform="scale(1,-1)" text-anchor="end" font-family="sans-serif" font-size="30" x="-25" y="10" >0</text>
<line fill="none" stroke="black" stroke-width="6" x1="0.0" y1="104" x2="-20" y2="104" />
<text transform="scale(1,-1)" text-anchor="end" font-family="sans-serif" font-size="30" x="-25" y="-94" >500</text>
<line fill="none" stroke="black" stroke-width="6" x1="0.0" y1="208" x2="-20" y2="208" />
<text transform="scale(1,-1)" text-anchor="end" font-family="sans-serif" font-size="30" x="-25" y="-198" >1000</text>
<line fill="none" stroke="black" stroke-width="6" x1="0.0" y1="312" x2="-20" y2="312" />
<text transform="scale(1,-1)" text-anchor="end" font-family="sans-serif" font-size="30" x="-25" y="-302" >1500</text>
<line fill="none" stroke="black" stroke-width="6" x1="0.0" y1="416" x2="-20" y2="416" />
<text transform="scale(1,-1)" text-anchor="end" font-family="sans-serif" font-size="30" x="-25" y="-406" >2000</text>
<line fill="none" stroke="black" stroke-width="6" x1="0.0" y1="520" x2="-20" y2="520" />
<text transform="scale(1,-1)" text-anchor="end" font-family="sans-serif" font-size="30" x="-25" y="-510" >2500</text>

-->
</g>
</g>
<!-- Run Constants
CIRCLEPLOT bool false
DISTANCEPLOT bool true
PRINTDISTANCEDATA bool true
GLITCHESONLY bool false
PLOT 2doubles 3 4
PERTURBBY double 25
GLITCHLEVEL double 3
BOUNDARYWINDOW double 0.065
FRAMESPERPATH int 200
STEPSPERFRAME int 100
TRIALS int 10
ALLBLACK bool true
FILEPREFIX string Fol
GRAPHSIZE int 0
BORDER int 0
PLOTSIZE int 0
CIRCLEPLOTSIZE int 2000
CIRCLERADIUS int 300
CIRCLESTROKEWIDTH int 30
G6LINEWIDTH int 3
DELONELINEWIDTH int 10
AXISWIDTH int 6
TICLENGTH int 20
VECTOR g6 
MOVIEMODE MovieMode STAR
FOLLOWERMODE FollowerMode Follow
FIXRANDOMSEED fixRandomSeed false
RANDOMSEED int 15
TIMESTAMP bool true
END end 




-->
</svg>
