<?xml version="1.0" standalone="no"?>
<!-- the width and height set the total pixel output of the image in the browser -->
<!-- whatever is within the viewbox will be remapped to show in this size -->
<svg width="1000" height="1000" viewBox="1 0 1000 1000"  version="1.1" xmlns="http://www.w3.org/2000/svg" xmlns:xlink="http://www.w3.org/1999/xlink">
 <desc>ID (and file name) = Fol_2018-05-14.13_09_54.74_73.svg </desc> 
 <text x="560" y="30" font-family="sans-serif" font-size="20">Wall time passed: 14459 msec.</text>
<text x="300" y="60"   font-family="sans-serif" font-size="20" fill="lightblue">S6  lightblue</text>
<text x="300" y="85"   font-family="sans-serif" font-size="20" fill="slategrey">NCDist  slategrey</text>
<text x="300" y="110"  font-family="sans-serif" font-size="20" fill="violet">D7  violet</text>
<text x="300" y="135"  font-family="sans-serif" font-size="20" fill="olive">CS6Dist  olive</text>

 <text x="140"  y="30"  font-family="sans-serif" font-size="20" >Fol_2018-05-14.13_09_54.74_73.svg  </text> 


 <!--DISTANCE PLOT BEGINS-->


<!-- the following will scale and place the distance plot -->
<g  transform="translate(0,50) ">
<g transform="translate(150,700) scale(1 -1)">
   <polyline fill="none" stroke=" lightblue " stroke-width=" 12 " points=" 0.6,522.043 1.2,523.034 1.8,524.088 2.4,525.205 3,526.386 3.6,527.629 4.2,528.935 4.8,530.303 5.4,523.81 6,517.229 6.6,510.663 7.2,504.115 7.8,497.582 8.4,491.067 9,484.569 9.6,478.089 10.2,471.627 10.8,465.183 11.4,458.759 12,452.354 12.6,445.969 13.2,439.605 13.8,433.262 14.4,426.94 15,420.64 15.6,414.362 16.2,408.108 16.8,401.877 17.4,395.67 18,389.488 18.6,383.332 19.2,377.201 19.8,371.098 20.4,365.022 21,358.974 21.6,352.954 22.2,346.964 22.8,341.005 23.4,335.077 24,329.18 24.6,323.316 25.2,317.486 25.8,311.69 26.4,305.93 27,300.206 27.6,294.519 28.2,288.87 28.8,283.26 29.4,277.691 30,272.163 30.6,266.677 31.2,261.235 31.8,255.837 32.4,250.485 33,245.181 33.6,239.924 34.2,234.717 34.8,229.561 35.4,224.458 36,219.408 36.6,214.413 37.2,209.474 37.8,204.594 38.4,199.773 39,195.013 39.6,190.315 40.2,185.682 40.8,181.115 41.4,176.615 42,172.185 42.6,167.825 43.2,163.539 43.8,159.327 44.4,155.191 45,151.134 45.6,147.157 46.2,143.262 46.8,139.451 47.4,135.726 48,133.455 48.6,133.031 49.2,132.647 49.8,132.301 50.4,131.996 51,131.73 51.6,131.503 52.2,131.316 52.8,131.169 53.4,130.696 54,129.805 54.6,128.952 55.2,128.138 55.8,127.363 56.4,126.626 57,125.929 57.6,125.271 58.2,124.652 58.8,124.073 59.4,123.534 60,123.034 60.6,122.575 61.2,122.155 61.8,121.776 62.4,121.437 63,121.138 63.6,120.88 64.2,120.663 64.8,120.486 65.4,120.349 66,120.253 66.6,120.198 67.2,120.184 67.8,120.21 68.4,120.277 69,120.384 69.6,120.533 70.2,120.721 70.8,120.951 71.4,121.221 72,121.531 72.6,121.882 73.2,122.272 73.8,122.703 74.4,123.175 75,123.686 75.6,124.236 76.2,124.827 76.8,125.457 77.4,126.127 78,126.835 78.6,127.583 79.2,128.369 79.8,128.085 80.4,125.567 81,123.076 81.6,120.613 82.2,118.179 82.8,115.772 83.4,113.395 84,111.048 84.6,108.73 85.2,106.442 85.8,104.186 86.4,101.961 87,99.767 87.6,97.6056 88.2,95.4769 88.8,93.3812 89.4,91.3192 90,89.2911 90.6,87.2975 91.2,85.3389 91.8,83.4157 92.4,81.5284 93,79.6774 93.6,77.8632 94.2,76.0863 94.8,74.347 95.4,72.646 96,70.9835 96.6,69.3602 97.2,67.7763 97.8,66.2325 98.4,64.729 99,63.2663 99.6,61.8448 100.2,60.4651 100.8,59.1274 101.4,57.8322 102,56.5799 102.6,55.3708 103.2,54.2054 103.8,53.0839 104.4,52.0069 105,50.9746 105.6,49.9873 106.2,49.0455 106.8,48.1493 107.4,47.2991 108,46.4952 108.6,45.7379 109.2,45.0274 109.8,44.364 110.4,37.1171 111,37.5006 111.6,37.8999 112.2,38.3148 112.8,38.7453 113.4,39.1913 114,39.6528 114.6,40.1298 115.2,40.6221 115.8,41.1297 116.4,41.6525 117,42.1906 117.6,42.7438 118.2,43.3121 118.8,43.8954 119.4,44.4936 120,45.1067 120.6,45.7346 121.2,46.3773 121.8,47.0346 122.4,47.7066 123,48.393 123.6,49.094 124.2,49.8093 124.8,50.5389 125.4,51.2827 126,52.0408 126.6,52.8128 127.2,53.5989 127.8,54.3989 128.4,55.2127 129,56.0403 129.6,56.8816 130.2,57.7365 130.8,58.6048 131.4,59.4866 132,60.3817 132.6,61.2901 133.2,62.2117 133.8,63.1463 134.4,64.0939 135,65.0545 135.6,66.0279 136.2,67.014 136.8,68.0127 137.4,69.024 138,70.0478 138.6,71.084 139.2,72.1324 139.8,73.1931 140.4,74.2658 141,75.3506 141.6,76.4474 142.2,77.5559 142.8,78.6763 143.4,79.8082 144,80.9518 144.6,82.1069 145.2,83.2733 145.8,84.4511 146.4,85.64 147,86.8401 147.6,88.0513 148.2,89.2734 148.8,90.5063 149.4,91.75 150,93.0044 150.6,94.2694 151.2,95.5822 151.8,97.0293 152.4,98.4895 153,99.9628 153.6,101.449 154.2,102.948 154.8,104.46 155.4,105.984 156,107.521 156.6,109.07 157.2,110.632 157.8,112.205 158.4,113.791 159,115.388 159.6,116.997 160.2,118.617 160.8,120.25 161.4,121.893 162,123.548 162.6,125.214 163.2,126.891 163.8,128.578 164.4,130.277 165,131.986 165.6,133.706 166.2,135.437 166.8,137.177 167.4,138.928 168,139.457 168.6,139.846 169.2,140.248 169.8,140.662 170.4,141.089 171,141.528 171.6,141.979 172.2,142.442 172.8,142.917 173.4,143.404 174,143.904 174.6,141.829 175.2,141.955 175.8,142.086 176.4,142.223 177,142.364 177.6,142.512 178.2,142.664 178.8,142.822 179.4,142.985 180,143.154 180.6,143.328 181.2,143.507 181.8,143.692 182.4,143.882 183,144.077 183.6,144.278 184.2,144.484 184.8,144.695 185.4,144.911 186,145.133 186.6,145.36 187.2,145.593 187.8,145.83 188.4,146.073 189,146.322 189.6,146.575 190.2,146.834 190.8,147.098 191.4,147.367 192,147.641 192.6,147.921 193.2,148.205 193.8,148.495 194.4,148.79 195,149.091 195.6,149.396 196.2,149.707 196.8,150.023 197.4,150.343 198,150.669 198.6,151.001 199.2,151.337 199.8,151.678 200.4,152.025 201,152.376 201.6,152.733 202.2,153.094 202.8,153.461 203.4,153.833 204,154.209 204.6,154.591 205.2,154.978 205.8,155.37 206.4,155.766 207,156.168 207.6,156.575 208.2,156.986 208.8,157.403 209.4,157.824 210,158.25 210.6,158.682 211.2,159.118 211.8,159.559 212.4,160.004 213,160.455 213.6,160.911 214.2,161.371 214.8,161.836 215.4,162.306 216,162.781 216.6,163.26 217.2,163.744 217.8,164.233 218.4,164.727 219,165.225 219.6,165.728 220.2,166.236 220.8,166.749 221.4,167.266 222,167.788 222.6,168.314 223.2,168.845 223.8,169.381 224.4,169.921 225,170.466 225.6,171.015 226.2,171.569 226.8,172.128 227.4,172.691 228,173.258 228.6,173.83 229.2,174.406 229.8,174.987 230.4,175.573 231,176.163 231.6,176.757 232.2,177.355 232.8,177.958 233.4,178.566 234,179.178 234.6,179.794 235.2,180.414 235.8,181.039 236.4,181.668 237,182.301 237.6,182.939 238.2,183.581 238.8,184.227 239.4,184.877 240,185.532 240.6,186.191 241.2,186.854 241.8,187.521 242.4,188.192 243,188.867 243.6,189.547 244.2,190.23 244.8,190.918 245.4,191.61 246,192.306 246.6,193.006 247.2,193.71 247.8,194.417 248.4,195.129 249,195.845 249.6,196.565 250.2,197.289 250.8,198.017 251.4,198.748 252,199.484 252.6,200.223 253.2,200.967 253.8,201.714 254.4,202.465 255,203.22 255.6,203.979 256.2,204.741 256.8,205.507 257.4,206.277 258,207.051 258.6,207.829 259.2,208.61 259.8,209.395 260.4,210.183 261,210.976 261.6,211.772 262.2,212.571 262.8,213.375 263.4,214.182 264,214.992 264.6,215.806 265.2,216.624 265.8,217.445 266.4,218.27 267,219.098 267.6,219.93 268.2,220.765 268.8,221.603 269.4,222.446 270,223.291 270.6,224.14 271.2,224.993 271.8,225.849 272.4,226.708 273,227.571 273.6,228.437 274.2,229.306 274.8,230.179 275.4,231.055 276,231.934 276.6,232.816 277.2,233.702 277.8,234.591 278.4,235.484 279,236.379 279.6,237.278 280.2,238.18 280.8,239.085 281.4,239.993 282,240.905 282.6,241.82 283.2,242.737 283.8,243.658 284.4,244.582 285,245.509 285.6,246.439 286.2,247.372 286.8,248.309 287.4,249.248 288,250.19 288.6,251.135 289.2,252.083 289.8,253.035 290.4,253.989 291,254.946 291.6,255.891 292.2,256.829 292.8,257.769 293.4,258.713 294,259.659 294.6,260.609 295.2,261.561 295.8,262.516 296.4,263.474 297,264.435 297.6,265.399 298.2,266.366 298.8,267.335 299.4,268.308 300,269.283 300.6,270.261 301.2,271.242 301.8,272.226 302.4,273.212 303,274.201 303.6,275.193 304.2,276.188 304.8,277.185 305.4,278.185 306,279.188 306.6,280.193 307.2,281.201 307.8,282.212 308.4,283.225 309,284.241 309.6,285.26 310.2,286.281 310.8,287.305 311.4,288.332 312,289.361 312.6,290.392 313.2,291.426 313.8,292.463 314.4,293.502 315,294.543 315.6,295.588 316.2,296.634 316.8,297.683 317.4,298.735 318,299.789 318.6,300.845 319.2,301.904 319.8,302.965 320.4,304.029 321,305.095 321.6,306.163 322.2,307.234 322.8,308.307 323.4,309.383 324,310.46 324.6,311.541 325.2,312.623 325.8,313.708 326.4,314.795 327,315.884 327.6,316.976 328.2,318.069 328.8,319.166 329.4,320.264 330,321.364 330.6,322.467 331.2,323.572 331.8,324.679 332.4,325.788 333,326.9 333.6,328.014 334.2,329.129 334.8,330.247 335.4,331.367 336,332.489 336.6,333.614 337.2,334.74 337.8,335.869 338.4,336.999 339,338.132 339.6,339.266 340.2,340.403 340.8,341.542 341.4,342.683 342,343.825 342.6,344.97 343.2,346.117 343.8,347.266 344.4,348.416 345,349.569 345.6,350.724 346.2,351.88 346.8,353.039 347.4,354.199 348,355.362 348.6,356.526 349.2,357.692 349.8,358.86 350.4,360.03 351,361.202 351.6,362.376 352.2,363.552 352.8,364.729 353.4,365.908 354,367.089 354.6,368.272 355.2,369.457 355.8,370.644 356.4,371.832 357,373.022 357.6,374.214 358.2,375.408 358.8,376.603 359.4,377.8 360,378.999 360.6,380.2 361.2,381.402 361.8,382.606 362.4,383.812 363,385.019 363.6,386.229 364.2,387.439 364.8,388.652 365.4,389.866 366,391.082 366.6,392.3 367.2,393.519 367.8,394.74 368.4,395.962 369,397.186 369.6,398.412 370.2,399.639 370.8,400.868 371.4,402.098 372,403.33 372.6,404.564 373.2,405.799 373.8,406.948 374.4,408.011 375,409.076 375.6,410.143 376.2,411.212 376.8,412.283 377.4,413.356 378,414.431 378.6,415.508 379.2,416.588 379.8,417.669 380.4,418.752 381,419.837 381.6,420.924 382.2,422.013 382.8,423.104 383.4,424.197 384,425.292 384.6,426.389 385.2,427.488 385.8,428.588 386.4,429.691 387,430.795 387.6,431.902 388.2,433.01 388.8,434.12 389.4,435.232 390,436.346 390.6,437.462 391.2,438.579 391.8,439.699 392.4,440.82 393,441.943 393.6,443.068 394.2,444.195 394.8,445.323 395.4,446.454 396,447.586 396.6,448.72 397.2,449.855 397.8,450.993 398.4,452.132 399,453.273 399.6,454.415 400.2,455.56 400.8,456.706 401.4,457.854 402,459.003 402.6,460.155 403.2,461.308 403.8,462.462 404.4,463.619 405,464.777 405.6,465.936 406.2,467.098 406.8,468.261 407.4,469.425 408,470.592 408.6,471.759 409.2,472.929 409.8,474.1 410.4,475.273 411,476.447 411.6,477.623 412.2,478.801 412.8,479.98 413.4,481.161 414,482.343 414.6,483.527 415.2,484.713 415.8,485.9 416.4,487.088 417,488.278 417.6,489.47 418.2,490.663 418.8,491.858 419.4,493.054 420,494.252 420.6,495.451 421.2,496.652 421.8,497.854 422.4,499.058 423,500.263 423.6,501.47 424.2,502.678 424.8,503.887 425.4,505.098 426,506.311 426.6,507.525 427.2,508.74 427.8,509.957 428.4,511.175 429,512.395 429.6,513.616 430.2,514.838 430.8,516.062 431.4,517.287 432,518.514 432.6,519.742 433.2,520.971 433.8,522.202 434.4,523.434 435,524.668 435.6,525.902 436.2,527.139 436.8,528.376 437.4,529.615 438,530.855 438.6,532.097 439.2,533.339 439.8,534.584 440.4,535.829 441,537.076 441.6,538.324 442.2,539.573 442.8,540.824 443.4,542.076 444,543.329 444.6,544.583 445.2,545.839 445.8,547.096 446.4,548.354 447,549.614 447.6,550.875 448.2,552.137 448.8,553.4 449.4,554.664 450,555.93 450.6,557.197 451.2,558.465 451.8,559.734 452.4,561.005 453,562.276 453.6,563.549 454.2,564.823 454.8,566.099 455.4,567.375 456,568.653 456.6,569.932 457.2,571.212 457.8,572.493 458.4,573.775 459,575.058 459.6,576.343 460.2,577.629 460.8,578.916 461.4,580.204 462,581.493 462.6,582.783 463.2,584.074 463.8,585.367 464.4,586.66 465,587.955 465.6,589.251 466.2,589.021 466.8,588.649 467.4,588.28 468,587.913 468.6,587.549 469.2,587.188 469.8,586.83 470.4,586.475 471,586.122 471.6,585.772 472.2,585.425 472.8,585.08 473.4,584.738 474,584.399 474.6,584.063 475.2,583.73 475.8,583.399 476.4,583.071 477,582.746 477.6,582.424 478.2,582.104 478.8,581.787 479.4,581.473 480,581.162 480.6,580.853 481.2,580.548 481.8,580.245 482.4,579.945 483,579.647 483.6,579.353 484.2,579.061 484.8,578.772 485.4,578.486 486,578.203 486.6,577.923 487.2,577.645 487.8,577.37 488.4,577.098 489,576.829 489.6,576.563 490.2,576.299 490.8,576.038 491.4,575.781 492,575.526 492.6,575.273 493.2,575.024 493.8,574.778 494.4,574.534 495,574.293 495.6,574.055 496.2,573.82 496.8,573.588 497.4,573.359 498,573.132 498.6,572.909 499.2,572.688 499.8,572.47 500.4,572.255 501,572.043 501.6,571.833 502.2,571.627 502.8,571.423 503.4,571.223 504,571.025 504.6,570.83 505.2,570.638 505.8,570.449 506.4,570.262 507,570.079 507.6,569.898 508.2,569.721 508.8,569.546 509.4,569.374 510,569.205 510.6,569.039 511.2,568.876 511.8,568.716 512.4,568.559 513,568.404 513.6,568.253 514.2,568.104 514.8,567.958 515.4,567.816 516,567.676 516.6,567.539 517.2,567.405 517.8,567.274 518.4,567.145 519,567.02 519.6,566.898 520.2,566.778 520.8,566.662 521.4,566.548 522,566.437 522.6,566.33 523.2,566.225 523.8,566.123 524.4,566.024 525,565.928 525.6,565.835 526.2,565.744 526.8,565.657 527.4,565.573 528,565.491 528.6,565.413 529.2,565.337 529.8,565.265 530.4,565.195 531,565.128 531.6,565.064 532.2,565.003 532.8,564.945 533.4,564.89 534,564.838 534.6,564.789 535.2,564.743 535.8,564.7 536.4,564.659 537,564.622 537.6,564.588 538.2,564.556 538.8,564.528 539.4,564.502 540,564.479 540.6,564.46 541.2,564.443 541.8,564.429 542.4,564.418 543,564.41 543.6,564.405 544.2,564.403 544.8,564.404 545.4,564.408 546,564.414 546.6,564.424 547.2,564.437 547.8,564.452 548.4,564.471 549,564.492 549.6,564.517 550.2,564.544 550.8,564.574 551.4,564.608 552,564.644 552.6,564.683 553.2,564.725 553.8,564.77 554.4,564.818 555,564.869 555.6,564.923 556.2,564.979 556.8,565.039 557.4,565.102 558,565.167 558.6,565.236 559.2,565.307 559.8,565.382 560.4,565.459 561,565.539 561.6,565.622 562.2,565.708 562.8,565.797 563.4,565.889 564,565.984 564.6,566.082 565.2,566.183 565.8,566.286 566.4,566.393 567,566.503 567.6,565.811 568.2,565.054 568.8,564.299 569.4,563.547 570,562.796 570.6,562.048 571.2,561.303 571.8,560.56 572.4,559.819 573,559.08 573.6,558.344 574.2,557.611 574.8,556.879 575.4,556.058 576,555.184 576.6,554.312 577.2,553.442 577.8,552.574 578.4,551.709 579,550.846 579.6,549.984 580.2,549.126 580.8,548.269 581.4,547.414 582,546.562 582.6,545.712 583.2,544.864 583.8,544.018 584.4,543.175 585,542.333 585.6,541.494 586.2,540.657 586.8,539.823 587.4,538.99 588,538.16 588.6,537.333 589.2,536.507 589.8,535.684 590.4,534.863 591,534.044 591.6,533.228 592.2,532.414 592.8,531.602 593.4,530.792 594,529.985 594.6,529.18 595.2,528.378 595.8,527.578 596.4,526.78 597,525.985 597.6,525.191 598.2,524.401 598.8,523.612 599.4,522.826 600,522.043 " />
   <polyline fill="none" stroke=" slategrey " stroke-width=" 9 " points=" " />
   <polyline fill="none" stroke=" violet " stroke-width=" 6 " points=" " />
   <polyline fill="none" stroke=" olive " stroke-width=" 3 " points=" 0.6,328.995 1.2,332.319 1.8,335.711 2.4,339.17 3,342.694 3.6,346.283 4.2,349.935 4.8,353.65 5.4,357.427 6,361.264 6.6,365.161 7.2,369.116 7.8,373.129 8.4,377.199 9,381.324 9.6,385.505 10.2,389.739 10.8,394.026 11.4,398.366 12,402.756 12.6,407.197 13.2,411.687 13.8,416.225 14.4,420.811 15,420.64 15.6,414.362 16.2,408.108 16.8,401.877 17.4,395.67 18,389.488 18.6,383.332 19.2,377.201 19.8,371.098 20.4,365.022 21,358.974 21.6,352.954 22.2,346.964 22.8,341.005 23.4,335.077 24,329.18 24.6,323.316 25.2,317.486 25.8,311.69 26.4,305.93 27,300.206 27.6,294.519 28.2,288.87 28.8,283.26 29.4,277.691 30,272.163 30.6,266.677 31.2,261.235 31.8,255.837 32.4,250.485 33,245.181 33.6,239.924 34.2,234.717 34.8,229.561 35.4,224.458 36,219.408 36.6,214.413 37.2,209.474 37.8,204.594 38.4,199.773 39,195.013 39.6,190.315 40.2,185.682 40.8,181.115 41.4,176.615 42,172.185 42.6,167.825 43.2,163.539 43.8,159.327 44.4,155.191 45,151.134 45.6,147.157 46.2,143.262 46.8,139.451 47.4,135.726 48,513.944 48.6,515.262 49.2,516.601 49.8,517.96 50.4,519.339 51,520.738 51.6,522.157 52.2,523.596 52.8,525.054 53.4,526.532 54,528.03 54.6,529.547 55.2,531.084 55.8,532.64 56.4,534.215 57,535.809 57.6,537.422 58.2,539.053 58.8,540.704 59.4,542.373 60,544.061 60.6,545.767 61.2,547.491 61.8,549.234 62.4,550.994 63,552.773 63.6,554.57 64.2,556.384 64.8,558.216 65.4,560.066 66,561.933 66.6,563.818 67.2,565.72 67.8,567.639 68.4,569.575 69,571.528 69.6,573.498 70.2,575.484 70.8,577.487 71.4,579.507 72,581.543 72.6,583.596 73.2,585.665 73.8,587.749 74.4,589.85 75,588.348 75.6,585.655 76.2,582.975 76.8,580.308 77.4,577.654 78,575.014 78.6,572.387 79.2,569.773 79.8,567.174 80.4,564.588 81,562.016 81.6,559.458 82.2,556.915 82.8,554.385 83.4,551.871 84,549.37 84.6,546.884 85.2,544.414 85.8,541.957 86.4,539.516 87,537.091 87.6,534.68 88.2,532.285 88.8,529.905 89.4,527.541 90,525.192 90.6,522.86 91.2,520.543 91.8,518.243 92.4,515.959 93,513.691 93.6,511.44 94.2,509.206 94.8,506.988 95.4,504.787 96,502.603 96.6,500.437 97.2,498.287 97.8,496.156 98.4,494.041 99,491.945 99.6,489.866 100.2,487.805 100.8,485.762 101.4,483.737 102,481.731 102.6,479.743 103.2,477.774 103.8,475.824 104.4,473.892 105,471.98 105.6,470.086 106.2,468.212 106.8,466.357 107.4,464.522 108,462.706 108.6,460.911 109.2,459.135 109.8,457.379 110.4,44.5279 111,44.9297 111.6,45.3468 112.2,45.7793 112.8,46.227 113.4,46.6899 114,47.168 114.6,47.6612 115.2,48.1694 115.8,48.6927 116.4,49.2308 117,49.7839 117.6,50.3517 118.2,50.9343 118.8,51.5316 119.4,52.1435 120,52.77 120.6,53.411 121.2,54.0664 121.8,54.7362 122.4,55.4203 123,56.1186 123.6,56.831 124.2,57.5575 124.8,58.2981 125.4,59.0525 126,59.8208 126.6,60.6029 127.2,61.3987 127.8,62.2081 128.4,63.031 129,63.8675 129.6,64.7173 130.2,65.5804 130.8,66.4567 131.4,67.3462 132,68.2488 132.6,69.1643 133.2,70.0927 133.8,71.034 134.4,71.9879 135,72.9546 135.6,73.9337 136.2,74.9254 136.8,75.9295 137.4,76.9458 138,77.9744 138.6,79.0151 139.2,80.0679 139.8,81.1326 140.4,82.2092 141,83.2976 141.6,84.3977 142.2,85.5094 142.8,86.6327 143.4,87.7673 144,88.9134 144.6,90.0707 145.2,91.2392 145.8,92.4188 146.4,93.6094 147,94.8109 147.6,96.0233 148.2,97.2464 148.8,98.4802 149.4,99.7245 150,100.979 150.6,102.245 151.2,95.5822 151.8,97.0293 152.4,98.4895 153,99.9628 153.6,101.449 154.2,102.948 154.8,104.46 155.4,105.984 156,107.521 156.6,109.07 157.2,110.632 157.8,112.205 158.4,113.791 159,115.388 159.6,116.997 160.2,118.617 160.8,120.25 161.4,121.893 162,123.548 162.6,125.214 163.2,126.891 163.8,128.578 164.4,130.277 165,131.986 165.6,133.706 166.2,135.437 166.8,137.177 167.4,138.928 168,298.959 168.6,299.16 169.2,299.37 169.8,299.589 170.4,299.818 171,300.057 171.6,300.305 172.2,300.562 172.8,300.829 173.4,301.105 174,301.391 174.6,147.866 175.2,147.959 175.8,148.058 176.4,148.162 177,148.271 177.6,148.386 178.2,148.506 178.8,148.631 179.4,148.762 180,148.898 180.6,149.039 181.2,149.185 181.8,149.337 182.4,149.494 183,149.657 183.6,149.824 184.2,149.997 184.8,150.175 185.4,150.359 186,150.548 186.6,150.742 187.2,150.941 187.8,151.146 188.4,151.355 189,151.57 189.6,151.79 190.2,152.016 190.8,152.247 191.4,152.482 192,152.723 192.6,152.97 193.2,153.221 193.8,153.478 194.4,153.739 195,154.006 195.6,154.278 196.2,154.556 196.8,154.838 197.4,155.125 198,155.418 198.6,155.716 199.2,156.019 199.8,156.326 200.4,156.639 201,156.957 201.6,157.281 202.2,157.609 202.8,157.942 203.4,158.28 204,158.623 204.6,158.972 205.2,159.325 205.8,159.683 206.4,160.047 207,160.415 207.6,160.788 208.2,161.166 208.8,161.549 209.4,161.937 210,162.33 210.6,162.728 211.2,163.131 211.8,163.538 212.4,163.951 213,164.368 213.6,164.791 214.2,165.218 214.8,165.65 215.4,166.086 216,166.528 216.6,166.974 217.2,167.425 217.8,167.881 218.4,168.342 219,168.807 219.6,169.277 220.2,169.752 220.8,170.231 221.4,170.716 222,171.205 222.6,171.698 223.2,172.196 223.8,172.699 224.4,173.207 225,173.719 225.6,174.235 226.2,174.757 226.8,175.283 227.4,175.813 228,176.348 228.6,176.887 229.2,177.431 229.8,177.98 230.4,178.533 231,179.09 231.6,179.652 232.2,180.219 232.8,180.79 233.4,181.365 234,181.945 234.6,182.529 235.2,183.117 235.8,183.71 236.4,184.307 237,184.909 237.6,185.514 238.2,186.125 238.8,186.739 239.4,187.358 240,187.981 240.6,188.608 241.2,189.24 241.8,189.875 242.4,190.515 243,191.159 243.6,191.807 244.2,192.46 244.8,193.117 245.4,193.777 246,194.442 246.6,195.111 247.2,195.784 247.8,196.461 248.4,197.142 249,197.828 249.6,198.517 250.2,199.21 250.8,199.907 251.4,200.609 252,201.314 252.6,202.023 253.2,202.736 253.8,203.453 254.4,204.174 255,204.899 255.6,205.628 256.2,206.36 256.8,207.097 257.4,207.837 258,208.581 258.6,209.329 259.2,210.081 259.8,210.836 260.4,211.595 261,212.358 261.6,213.125 262.2,213.895 262.8,214.67 263.4,215.447 264,216.229 264.6,217.014 265.2,217.803 265.8,218.595 266.4,219.391 267,220.191 267.6,220.994 268.2,221.801 268.8,222.611 269.4,223.425 270,224.242 270.6,225.063 271.2,225.888 271.8,226.715 272.4,227.547 273,228.382 273.6,229.22 274.2,230.061 274.8,230.906 275.4,231.755 276,232.607 276.6,233.462 277.2,234.32 277.8,235.182 278.4,236.047 279,236.916 279.6,237.787 280.2,238.662 280.8,239.541 281.4,240.422 282,241.307 282.6,242.195 283.2,243.086 283.8,243.981 284.4,244.878 285,245.779 285.6,246.683 286.2,247.59 286.8,248.5 287.4,249.413 288,250.329 288.6,251.249 289.2,252.171 289.8,253.097 290.4,254.025 291,254.957 291.6,255.891 292.2,256.829 292.8,257.769 293.4,258.713 294,259.659 294.6,260.609 295.2,261.561 295.8,262.516 296.4,263.474 297,264.435 297.6,265.399 298.2,266.366 298.8,267.335 299.4,268.308 300,269.283 300.6,270.261 301.2,271.242 301.8,272.226 302.4,273.212 303,274.201 303.6,275.193 304.2,276.188 304.8,277.185 305.4,278.185 306,279.188 306.6,280.193 307.2,281.201 307.8,282.212 308.4,283.225 309,284.241 309.6,285.26 310.2,286.281 310.8,287.305 311.4,288.332 312,289.361 312.6,290.392 313.2,291.426 313.8,292.463 314.4,293.502 315,294.543 315.6,295.588 316.2,296.634 316.8,297.683 317.4,298.735 318,299.789 318.6,300.845 319.2,301.904 319.8,302.965 320.4,304.029 321,305.095 321.6,306.163 322.2,307.234 322.8,308.307 323.4,309.383 324,310.46 324.6,311.541 325.2,312.623 325.8,313.708 326.4,314.795 327,315.884 327.6,316.976 328.2,318.069 328.8,319.166 329.4,320.264 330,321.364 330.6,322.467 331.2,323.572 331.8,324.679 332.4,325.788 333,326.9 333.6,328.014 334.2,329.129 334.8,330.247 335.4,331.367 336,332.489 336.6,333.614 337.2,334.74 337.8,335.869 338.4,336.999 339,338.132 339.6,339.266 340.2,340.403 340.8,341.542 341.4,342.683 342,343.825 342.6,344.97 343.2,346.117 343.8,347.266 344.4,348.416 345,349.569 345.6,350.724 346.2,351.88 346.8,353.039 347.4,354.199 348,355.362 348.6,356.526 349.2,357.692 349.8,358.86 350.4,360.03 351,361.202 351.6,362.376 352.2,363.552 352.8,364.729 353.4,365.908 354,367.089 354.6,368.272 355.2,369.457 355.8,370.644 356.4,371.832 357,373.022 357.6,374.214 358.2,375.408 358.8,376.603 359.4,377.8 360,378.999 360.6,380.2 361.2,381.402 361.8,382.606 362.4,383.812 363,385.019 363.6,386.229 364.2,387.439 364.8,388.652 365.4,389.866 366,391.082 366.6,392.3 367.2,393.519 367.8,394.74 368.4,395.962 369,397.186 369.6,398.412 370.2,399.639 370.8,400.868 371.4,402.098 372,403.33 372.6,404.564 373.2,405.799 373.8,406.948 374.4,408.011 375,409.076 375.6,410.143 376.2,411.212 376.8,412.283 377.4,413.356 378,414.431 378.6,415.508 379.2,416.588 379.8,417.669 380.4,418.752 381,419.837 381.6,420.924 382.2,422.013 382.8,423.104 383.4,424.197 384,425.292 384.6,426.389 385.2,427.488 385.8,428.588 386.4,429.691 387,430.795 387.6,431.902 388.2,433.01 388.8,434.12 389.4,435.232 390,436.346 390.6,437.462 391.2,438.579 391.8,438.61 392.4,437.738 393,436.869 393.6,436.002 394.2,435.138 394.8,434.276 395.4,433.417 396,432.56 396.6,431.706 397.2,430.855 397.8,430.006 398.4,429.159 399,428.316 399.6,427.474 400.2,426.636 400.8,425.8 401.4,424.966 402,424.136 402.6,423.308 403.2,422.482 403.8,421.659 404.4,420.839 405,420.022 405.6,419.207 406.2,418.395 406.8,417.586 407.4,416.779 408,415.975 408.6,415.174 409.2,414.375 409.8,413.579 410.4,412.786 411,411.996 411.6,411.209 412.2,410.424 412.8,409.642 413.4,408.863 414,408.087 414.6,407.313 415.2,406.542 415.8,405.775 416.4,405.01 417,404.247 417.6,403.488 418.2,402.732 418.8,401.978 419.4,401.227 420,400.48 420.6,399.735 421.2,398.993 421.8,398.254 422.4,397.517 423,396.784 423.6,396.054 424.2,395.327 424.8,394.602 425.4,393.881 426,393.162 426.6,392.447 427.2,391.734 427.8,391.025 428.4,390.318 429,389.615 429.6,388.915 430.2,388.217 430.8,387.523 431.4,386.832 432,386.144 432.6,385.458 433.2,384.776 433.8,384.097 434.4,383.422 435,382.749 435.6,382.079 436.2,381.413 436.8,380.749 437.4,380.089 438,379.432 438.6,378.778 439.2,378.127 439.8,377.48 440.4,376.835 441,376.194 441.6,375.556 442.2,374.921 442.8,374.29 443.4,373.661 444,373.036 444.6,372.414 445.2,371.796 445.8,371.18 446.4,370.568 447,369.96 447.6,369.354 448.2,368.752 448.8,368.153 449.4,367.557 450,366.965 450.6,366.376 451.2,365.79 451.8,365.208 452.4,364.629 453,364.053 453.6,363.481 454.2,362.912 454.8,362.347 455.4,361.785 456,361.226 456.6,360.671 457.2,360.119 457.8,359.571 458.4,359.026 459,358.484 459.6,357.946 460.2,357.411 460.8,356.88 461.4,356.352 462,355.828 462.6,355.307 463.2,354.79 463.8,354.276 464.4,353.766 465,353.259 465.6,352.735 466.2,352.197 466.8,351.662 467.4,351.13 468,350.602 468.6,350.078 469.2,349.557 469.8,349.039 470.4,348.525 471,348.015 471.6,347.508 472.2,347.004 472.8,346.505 473.4,346.008 474,345.516 474.6,345.027 475.2,344.541 475.8,344.059 476.4,343.581 477,343.106 477.6,342.635 478.2,342.168 478.8,341.704 479.4,341.244 480,340.788 480.6,340.335 481.2,339.886 481.8,339.44 482.4,338.999 483,338.561 483.6,338.126 484.2,337.696 484.8,337.269 485.4,336.845 486,336.426 486.6,336.01 487.2,335.598 487.8,335.19 488.4,334.785 489,334.384 489.6,333.987 490.2,333.594 490.8,333.205 491.4,332.819 492,332.437 492.6,332.059 493.2,331.685 493.8,331.314 494.4,330.948 495,330.585 495.6,330.226 496.2,329.87 496.8,329.519 497.4,329.172 498,328.828 498.6,328.488 499.2,328.152 499.8,327.82 500.4,327.492 501,327.168 501.6,326.847 502.2,326.531 502.8,326.218 503.4,325.91 504,325.605 504.6,325.304 505.2,325.007 505.8,324.714 506.4,324.425 507,324.14 507.6,323.858 508.2,323.581 508.8,323.308 509.4,323.038 510,322.773 510.6,322.511 511.2,322.254 511.8,322 512.4,321.751 513,321.505 513.6,321.264 514.2,321.026 514.8,320.793 515.4,320.563 516,320.337 516.6,320.116 517.2,319.898 517.8,319.685 518.4,319.475 519,319.27 519.6,319.068 520.2,318.871 520.8,318.677 521.4,318.488 522,318.303 522.6,318.121 523.2,317.944 523.8,317.771 524.4,317.602 525,317.437 525.6,317.276 526.2,317.119 526.8,316.966 527.4,316.817 528,316.672 528.6,316.532 529.2,316.395 529.8,316.263 530.4,316.134 531,316.01 531.6,315.89 532.2,315.773 532.8,315.661 533.4,315.553 534,315.45 534.6,315.35 535.2,315.254 535.8,315.163 536.4,315.075 537,314.992 537.6,314.912 538.2,314.837 538.8,314.766 539.4,314.699 540,314.636 540.6,314.578 541.2,314.523 541.8,314.473 542.4,314.426 543,314.384 543.6,314.346 544.2,314.312 544.8,314.282 545.4,314.256 546,314.234 546.6,314.217 547.2,314.204 547.8,314.194 548.4,314.189 549,314.188 549.6,314.191 550.2,314.198 550.8,314.21 551.4,314.225 552,314.244 552.6,314.268 553.2,314.296 553.8,314.328 554.4,314.364 555,314.404 555.6,314.448 556.2,314.497 556.8,314.549 557.4,314.606 558,314.666 558.6,314.731 559.2,314.8 559.8,314.873 560.4,314.95 561,315.032 561.6,315.117 562.2,315.207 562.8,315.3 563.4,315.398 564,315.5 564.6,315.605 565.2,315.715 565.8,315.829 566.4,315.948 567,316.07 567.6,316.196 568.2,316.327 568.8,316.461 569.4,316.6 570,316.742 570.6,316.889 571.2,317.04 571.8,317.195 572.4,317.354 573,317.517 573.6,317.684 574.2,317.855 574.8,318.03 575.4,318.209 576,318.392 576.6,318.58 577.2,318.771 577.8,318.966 578.4,319.166 579,319.369 579.6,319.577 580.2,319.788 580.8,320.004 581.4,320.223 582,320.447 582.6,320.674 583.2,320.906 583.8,321.141 584.4,321.381 585,321.624 585.6,321.872 586.2,322.123 586.8,322.379 587.4,322.638 588,322.902 588.6,323.169 589.2,323.44 589.8,323.715 590.4,323.995 591,324.278 591.6,324.565 592.2,324.856 592.8,325.151 593.4,325.45 594,325.753 594.6,326.059 595.2,326.37 595.8,326.684 596.4,327.003 597,327.325 597.6,327.651 598.2,327.981 598.8,328.315 599.4,328.653 600,328.995 " />

<!--Draw Glitches -->

<line fill="none" stroke="black" stroke-width="2" x1="48" y1="863.944" x2="48" y2="813.944" />
<text transform="scale(1,-1)" font-family="sans-serif" font-size="30" x="53" y="-813.944" >79</text>
<line fill="none" stroke="black" stroke-width="2" x1="110.4" y1="394.528" x2="110.4" y2="344.528" />
<text transform="scale(1,-1)" font-family="sans-serif" font-size="30" x="115.4" y="-344.528" >183</text>
<line fill="none" stroke="black" stroke-width="2" x1="168" y1="648.959" x2="168" y2="598.959" />
<text transform="scale(1,-1)" font-family="sans-serif" font-size="30" x="173" y="-598.959" >279</text>
<line fill="none" stroke="black" stroke-width="2" x1="174.6" y1="497.866" x2="174.6" y2="447.866" />
<text transform="scale(1,-1)" font-family="sans-serif" font-size="30" x="179.6" y="-447.866" >290</text>

<!-- -->


<!--Draw the X and Y axes -->
<polyline fill="none" stroke="black" stroke-width="6"  points=" 600,0 0,0 0, 600" />
<polyline fill="none" stroke="black" stroke-width="1"  points=" 0 600  600 600  600 0" />
<!-- -->


<!--Draw labels and tics for X axis -->

<line fill="none" stroke="black"  stroke-width="6"  x1="0.5" y1="0" x2="0.5" y2="-20" />
<text transform="scale(1,-1)" font-family="sans-serif" font-size="30" x="-24.5" y="45" >0</text>
<line fill="none" stroke="black"  stroke-width="6"  x1="120.5" y1="0" x2="120.5" y2="-20" />
<text transform="scale(1,-1)" font-family="sans-serif" font-size="30" x="95.5" y="45" >200</text>
<line fill="none" stroke="black"  stroke-width="6"  x1="240.5" y1="0" x2="240.5" y2="-20" />
<text transform="scale(1,-1)" font-family="sans-serif" font-size="30" x="215.5" y="45" >400</text>
<line fill="none" stroke="black"  stroke-width="6"  x1="360.5" y1="0" x2="360.5" y2="-20" />
<text transform="scale(1,-1)" font-family="sans-serif" font-size="30" x="335.5" y="45" >600</text>
<line fill="none" stroke="black"  stroke-width="6"  x1="480.5" y1="0" x2="480.5" y2="-20" />
<text transform="scale(1,-1)" font-family="sans-serif" font-size="30" x="455.5" y="45" >800</text>
<line fill="none" stroke="black"  stroke-width="6"  x1="600.5" y1="0" x2="600.5" y2="-20" />
<text transform="scale(1,-1)" font-family="sans-serif" font-size="30" x="575.5" y="45" >1000</text>


<!--Draw labels and tics for Y axis -->

<line fill="none" stroke="black" stroke-width="6" x1="0.0" y1="0" x2="-20" y2="0" />
<text transform="scale(1,-1)" text-anchor="end" font-family="sans-serif" font-size="30" x="-25" y="10" >12</text>
<line fill="none" stroke="black" stroke-width="6" x1="0.0" y1="60" x2="-20" y2="60" />
<text transform="scale(1,-1)" text-anchor="end" font-family="sans-serif" font-size="30" x="-25" y="-50" >14</text>
<line fill="none" stroke="black" stroke-width="6" x1="0.0" y1="120" x2="-20" y2="120" />
<text transform="scale(1,-1)" text-anchor="end" font-family="sans-serif" font-size="30" x="-25" y="-110" >16</text>
<line fill="none" stroke="black" stroke-width="6" x1="0.0" y1="180" x2="-20" y2="180" />
<text transform="scale(1,-1)" text-anchor="end" font-family="sans-serif" font-size="30" x="-25" y="-170" >18</text>
<line fill="none" stroke="black" stroke-width="6" x1="0.0" y1="240" x2="-20" y2="240" />
<text transform="scale(1,-1)" text-anchor="end" font-family="sans-serif" font-size="30" x="-25" y="-230" >20</text>
<line fill="none" stroke="black" stroke-width="6" x1="0.0" y1="300" x2="-20" y2="300" />
<text transform="scale(1,-1)" text-anchor="end" font-family="sans-serif" font-size="30" x="-25" y="-290" >22</text>
<line fill="none" stroke="black" stroke-width="6" x1="0.0" y1="360" x2="-20" y2="360" />
<text transform="scale(1,-1)" text-anchor="end" font-family="sans-serif" font-size="30" x="-25" y="-350" >24</text>
<line fill="none" stroke="black" stroke-width="6" x1="0.0" y1="420" x2="-20" y2="420" />
<text transform="scale(1,-1)" text-anchor="end" font-family="sans-serif" font-size="30" x="-25" y="-410" >26</text>
<line fill="none" stroke="black" stroke-width="6" x1="0.0" y1="480" x2="-20" y2="480" />
<text transform="scale(1,-1)" text-anchor="end" font-family="sans-serif" font-size="30" x="-25" y="-470" >28</text>
<line fill="none" stroke="black" stroke-width="6" x1="0.0" y1="540" x2="-20" y2="540" />
<text transform="scale(1,-1)" text-anchor="end" font-family="sans-serif" font-size="30" x="-25" y="-530" >30</text>
<line fill="none" stroke="black" stroke-width="6" x1="0.0" y1="600" x2="-20" y2="600" />
<text transform="scale(1,-1)" text-anchor="end" font-family="sans-serif" font-size="30" x="-25" y="-590" >32</text>

-->
</g>
</g>
<!-- Run Constants
CIRCLEPLOT bool false
DISTANCEPLOT bool true
PRINTDISTANCEDATA bool true
GLITCHESONLY bool false
PLOT 2doubles 3 4
PERTURBBY double 0.05
GLITCHLEVEL double 3
BOUNDARYWINDOW double 0.065
FRAMESPERPATH int 200
STEPSPERFRAME int 1000
TRIALS int 1
ALLBLACK bool true
FILEPREFIX string Fol
GRAPHSIZE int 0
BORDER int 0
PLOTSIZE int 0
G6LINEWIDTH int 3
DELONELINEWIDTH int 10
AXISWIDTH int 6
TICLENGTH int 20
VECTOR g6 
FOLLOWERMODE FollowerMode line
FIXRANDOMSEED fixRandomSeed false
RANDOMSEED int 19191
TIMESTAMP bool true
END end 




-->
</svg>
