<?xml version="1.0" standalone="no"?>
<!-- the width and height set the total pixel output of the image in the browser -->
<!-- whatever is within the viewbox will be remapped to show in this size -->
<svg width="1000" height="1000" viewBox="1 0 1000 1000"  version="1.1" xmlns="http://www.w3.org/2000/svg" xmlns:xlink="http://www.w3.org/1999/xlink">
 <desc>ID (and file name) = Fol_2018-05-05.09_55_55.1_26.svg </desc> 
 <text x="700" y="30" font-family="sans-serif" font-size="20">Wall time passed: 0 msec.</text>
<text x="300" y="60"   font-family="sans-serif" font-size="20" fill="lightblue">S6  lightblue</text>
<text x="300" y="85"   font-family="sans-serif" font-size="20" fill="slategrey">G6  slategrey</text>
<text x="300" y="110"  font-family="sans-serif" font-size="20" fill="violet">D7  violet</text>
<text x="300" y="135"  font-family="sans-serif" font-size="20" fill="olive">CS  olive</text>



 <!--DISTANCE PLOT BEGINS-->


<!-- the following will scale and place the distance plot -->
<g  transform="translate(0,50) ">
<g transform="translate(150,700) scale(1 -1)">
   <polyline fill="none" stroke=" lightblue " stroke-width=" 12 " points=" 5.2,0 10.4,6.5805 15.6,13.161 20.8,19.7415 26,26.322 31.2,32.9025 36.4,39.483 41.6,46.0635 46.8,52.644 52,59.2245 57.2,65.805 62.4,72.3855 67.6,78.966 72.8,85.5465 78,92.127 83.2,98.7075 88.4,105.288 93.6,111.869 98.8,118.449 104,125.03 109.2,131.61 114.4,138.015 119.6,141.512 124.8,145.223 130,149.132 135.2,153.224 140.4,157.485 145.6,161.901 150.8,166.46 156,171.151 161.2,175.963 166.4,180.886 171.6,185.912 176.8,191.032 182,196.24 187.2,201.527 192.4,206.889 197.6,212.32 202.8,217.814 208,223.366 213.2,228.973 218.4,234.631 223.6,240.336 228.8,282.388 234,283.689 239.2,285.148 244.4,286.763 249.6,288.204 254.8,283.843 260,279.582 265.2,275.426 270.4,271.379 275.6,267.446 280.8,263.633 286,259.944 291.2,256.386 296.4,252.963 301.6,249.681 306.8,246.545 312,243.563 317.2,240.738 322.4,238.077 327.6,235.585 332.8,233.268 338,231.13 343.2,229.15 348.4,227.254 353.6,225.549 358.8,219.006 364,211.941 369.2,204.877 374.4,197.812 379.6,190.747 384.8,183.683 390,176.618 395.2,169.553 400.4,162.488 405.6,155.424 410.8,148.359 416,141.294 421.2,134.23 426.4,127.165 431.6,120.1 436.8,113.035 442,105.971 447.2,98.906 452.4,91.8413 457.6,84.7766 462.8,77.7119 468,70.6471 473.2,63.5824 478.4,56.5177 483.6,49.453 488.8,42.3883 494,35.3236 499.2,28.2589 504.4,21.1941 509.6,14.1294 514.8,7.06471 520,0 " />
   <polyline fill="none" stroke=" slategrey " stroke-width=" 9 " points=" 5.2,0 10.4,10.1652 15.6,20.3303 20.8,30.4955 26,40.6607 31.2,50.8258 36.4,60.991 41.6,71.1561 46.8,81.3213 52,91.4865 57.2,101.652 62.4,111.817 67.6,121.982 72.8,132.147 78,142.312 83.2,152.477 88.4,162.643 93.6,172.808 98.8,179.487 104,178.575 109.2,178.023 114.4,177.836 119.6,178.014 124.8,178.556 130,179.458 135.2,180.716 140.4,182.322 145.6,184.267 150.8,186.54 156,189.129 161.2,192.022 166.4,195.205 171.6,198.665 176.8,202.386 182,206.355 187.2,210.558 192.4,214.981 197.6,219.612 202.8,224.436 208,229.441 213.2,234.617 218.4,239.953 223.6,245.436 228.8,251.059 234,256.812 239.2,262.686 244.4,268.674 249.6,274.767 254.8,280.96 260,287.245 265.2,293.617 270.4,300.07 275.6,306.599 280.8,302.528 286,297.042 291.2,291.675 296.4,286.435 301.6,281.328 306.8,276.361 312,271.543 317.2,266.882 322.4,262.385 327.6,258.062 332.8,253.921 338,249.971 343.2,246.222 348.4,242.683 353.6,239.363 358.8,236.271 364,233.417 369.2,230.81 374.4,225.68 379.6,217.62 384.8,209.56 390,201.5 395.2,193.44 400.4,185.38 405.6,177.32 410.8,169.26 416,161.2 421.2,153.14 426.4,145.08 431.6,137.02 436.8,128.96 442,120.9 447.2,112.84 452.4,104.78 457.6,96.7202 462.8,88.6602 468,80.6001 473.2,72.5401 478.4,64.4801 483.6,56.4201 488.8,48.3601 494,40.3001 499.2,32.2401 504.4,24.18 509.6,16.12 514.8,8.06001 520,3.48351e-14 " />
   <polyline fill="none" stroke=" violet " stroke-width=" 6 " points=" 5.2,2.64486e-05 10.4,10.4942 15.6,20.9884 20.8,31.4826 26,41.9769 31.2,52.4711 36.4,62.9653 41.6,73.4595 46.8,83.9537 52,94.4479 57.2,104.942 62.4,115.436 67.6,125.931 72.8,136.425 78,146.919 83.2,157.413 88.4,167.907 93.6,178.402 98.8,188.896 104,199.39 109.2,209.884 114.4,220.378 119.6,230.873 124.8,241.367 130,251.861 135.2,262.355 140.4,272.85 145.6,283.344 150.8,293.838 156,304.332 161.2,314.826 166.4,325.321 171.6,335.815 176.8,346.309 182,356.803 187.2,367.297 192.4,377.792 197.6,388.286 202.8,398.78 208,409.274 213.2,419.769 218.4,430.263 223.6,440.757 228.8,450.372 234,452.74 239.2,455.303 244.4,458.056 249.6,460.996 254.8,458.46 260,455.742 265.2,453.215 270.4,450.883 275.6,448.75 280.8,443.749 286,437.776 291.2,431.944 296.4,426.258 301.6,420.603 306.8,415.076 312,409.708 317.2,404.504 322.4,399.471 327.6,394.613 332.8,389.939 338,385.453 343.2,381.162 348.4,377.072 353.6,373.189 358.8,362.259 364,350.573 369.2,338.887 374.4,327.202 379.6,315.516 384.8,303.83 390,292.144 395.2,280.458 400.4,268.773 405.6,257.087 410.8,245.401 416,233.715 421.2,222.03 426.4,210.344 431.6,198.658 436.8,186.972 442,175.287 447.2,163.601 452.4,151.915 457.6,140.229 462.8,128.543 468,116.858 473.2,105.172 478.4,93.4862 483.6,81.8004 488.8,70.1146 494,58.4288 499.2,46.7431 504.4,35.0573 509.6,23.3715 514.8,11.6858 520,0 " />
   <polyline fill="none" stroke=" olive " stroke-width=" 3 " points=" 5.2,0 10.4,6.5805 15.6,13.161 20.8,19.7415 26,26.322 31.2,32.9025 36.4,39.483 41.6,46.0635 46.8,52.644 52,59.2245 57.2,65.805 62.4,72.3855 67.6,78.966 72.8,85.5465 78,92.127 83.2,98.7075 88.4,105.288 93.6,111.869 98.8,118.449 104,125.03 109.2,131.61 114.4,138.191 119.6,144.771 124.8,151.352 130,157.932 135.2,164.513 140.4,171.093 145.6,177.674 150.8,184.254 156,190.835 161.2,197.415 166.4,203.996 171.6,210.576 176.8,217.157 182,223.737 187.2,230.318 192.4,236.898 197.6,243.479 202.8,250.059 208,256.64 213.2,263.22 218.4,269.801 223.6,276.381 228.8,301.818 234,299.175 239.2,296.668 244.4,294.298 249.6,292.071 254.8,289.987 260,288.052 265.2,286.268 270.4,284.637 275.6,283.163 280.8,281.848 286,280.694 291.2,279.703 296.4,278.876 301.6,278.019 306.8,277.304 312,276.756 317.2,276.377 322.4,276.167 327.6,276.127 332.8,276.257 338,276.557 343.2,276.416 348.4,275.064 353.6,273.877 358.8,219.006 364,211.941 369.2,204.877 374.4,197.812 379.6,190.747 384.8,183.683 390,176.618 395.2,169.553 400.4,162.488 405.6,155.424 410.8,148.359 416,141.294 421.2,134.23 426.4,127.165 431.6,120.1 436.8,113.035 442,105.971 447.2,98.906 452.4,91.8413 457.6,84.7766 462.8,77.7119 468,70.6471 473.2,63.5824 478.4,56.5177 483.6,49.453 488.8,42.3883 494,35.3236 499.2,28.2589 504.4,21.1941 509.6,14.1294 514.8,7.06471 520,0 " />

<!--Draw the X and Y axes -->
<polyline fill="none" stroke="black" stroke-width="6"  points=" 600,0 0,0 0,520" />
<!-- -->


<!--Draw labels and tics for X axis -->

<line fill="none" stroke="black"  stroke-width="6"  x1="0.5" y1="0" x2="0.5" y2="-20" />
<text transform="scale(1,-1)" font-family="sans-serif" font-size="30" x="-24.5" y="45" >0</text>
<line fill="none" stroke="black"  stroke-width="6"  x1="104.5" y1="0" x2="104.5" y2="-20" />
<text transform="scale(1,-1)" font-family="sans-serif" font-size="30" x="79.5" y="45" >20</text>
<line fill="none" stroke="black"  stroke-width="6"  x1="208.5" y1="0" x2="208.5" y2="-20" />
<text transform="scale(1,-1)" font-family="sans-serif" font-size="30" x="183.5" y="45" >40</text>
<line fill="none" stroke="black"  stroke-width="6"  x1="312.5" y1="0" x2="312.5" y2="-20" />
<text transform="scale(1,-1)" font-family="sans-serif" font-size="30" x="287.5" y="45" >60</text>
<line fill="none" stroke="black"  stroke-width="6"  x1="416.5" y1="0" x2="416.5" y2="-20" />
<text transform="scale(1,-1)" font-family="sans-serif" font-size="30" x="391.5" y="45" >80</text>
<line fill="none" stroke="black"  stroke-width="6"  x1="520.5" y1="0" x2="520.5" y2="-20" />
<text transform="scale(1,-1)" font-family="sans-serif" font-size="30" x="495.5" y="45" >100</text>


<!--Draw labels and tics for Y axis -->

<line fill="none" stroke="black" stroke-width="6" x1="0.0" y1="0" x2="-20" y2="0" />
<text transform="scale(1,-1)" text-anchor="end" font-family="sans-serif" font-size="30" x="-25" y="10" >0</text>
<line fill="none" stroke="black" stroke-width="6" x1="0.0" y1="86.6667" x2="-20" y2="86.6667" />
<text transform="scale(1,-1)" text-anchor="end" font-family="sans-serif" font-size="30" x="-25" y="-76.6667" >50</text>
<line fill="none" stroke="black" stroke-width="6" x1="0.0" y1="173.333" x2="-20" y2="173.333" />
<text transform="scale(1,-1)" text-anchor="end" font-family="sans-serif" font-size="30" x="-25" y="-163.333" >100</text>
<line fill="none" stroke="black" stroke-width="6" x1="0.0" y1="260" x2="-20" y2="260" />
<text transform="scale(1,-1)" text-anchor="end" font-family="sans-serif" font-size="30" x="-25" y="-250" >150</text>
<line fill="none" stroke="black" stroke-width="6" x1="0.0" y1="346.667" x2="-20" y2="346.667" />
<text transform="scale(1,-1)" text-anchor="end" font-family="sans-serif" font-size="30" x="-25" y="-336.667" >200</text>
<line fill="none" stroke="black" stroke-width="6" x1="0.0" y1="433.333" x2="-20" y2="433.333" />
<text transform="scale(1,-1)" text-anchor="end" font-family="sans-serif" font-size="30" x="-25" y="-423.333" >250</text>
<line fill="none" stroke="black" stroke-width="6" x1="0.0" y1="520" x2="-20" y2="520" />
<text transform="scale(1,-1)" text-anchor="end" font-family="sans-serif" font-size="30" x="-25" y="-510" >300</text>

-->
</g>
</g>
<!-- Run Constants
CIRCLEPLOT bool false
DISTANCEPLOT bool true
PRINTDISTANCEDATA bool true
GLITCHESONLY bool false
PLOT 2doubles 3 4
PERTURBBY double 1
GLITCHLEVEL double 3
BOUNDARYWINDOW double 0.065
FRAMESPERPATH int 200
STEPSPERFRAME int 100
TRIALS int 30
ALLBLACK bool true
FILEPREFIX string Fol
GRAPHSIZE int 0
BORDER int 0
PLOTSIZE int 0
CIRCLEPLOTSIZE int 2000
CIRCLERADIUS int 300
CIRCLESTROKEWIDTH int 30
G6LINEWIDTH int 3
DELONELINEWIDTH int 10
AXISWIDTH int 6
TICLENGTH int 20
VECTOR g6 
MOVIEMODE MovieMode STAR
FOLLOWERMODE FollowerMode Follow
FIXRANDOMSEED fixRandomSeed false
RANDOMSEED int 19191
TIMESTAMP bool true
END end 




-->
</svg>
