<?xml version="1.0" standalone="no"?>
<!-- the width and height set the total pixel output of the image in the browser -->
<!-- whatever is within the viewbox will be remapped to show in this size -->
<svg width="1000" height="1000" viewBox="1 0  1200 1200"  version="1.1" xmlns="http://www.w3.org/2000/svg" xmlns:xlink="http://www.w3.org/1999/xlink">
 <desc>ID (and file name) = Fol_2020-03-23.17_12_17.18_0.svg  mode = LINE3 </desc> 
<g transform = "scale(1 1)">

<text x = "-850" y="50" transform="rotate(-90)"  font-family="sans-serif" font-size="40" stroke ="lightgray" fill="none"> PointDistanceFollower   Mar 23 2020</text>
 <text x="200"  y="30"  font-family="sans-serif" font-size="20" >Fol_2020-03-23.17_12_17.18_0.svg  &#160;&#160;&#160;&#160;&#160; Wall time passed: 1427 msec.</text>
<text x="300" y="60"   font-family="sans-serif" font-size="20" fill="lightblue">  S6  41 msec </text>
<text x="300" y="85"   font-family="sans-serif" font-size="20" fill="olive">  CS6Dist  2 msec </text>
<text x="300" y="110"   font-family="sans-serif" font-size="20" fill="black">  LM  1384 msec </text>



 <!--DISTANCE PLOT BEGINS   mode = LINE3-->


<!-- the following will scale and place the distance plot -->
<g transform="translate(150,975) scale(1 -1)">
   <polyline fill="none" stroke=" lightblue " stroke-width=" 12 " stroke-dasharray = " 10,5 " points=" 7.92079,0 15.8416,7.01453 23.7624,14.0291 31.6832,21.0436 39.604,28.0581 47.5248,35.0727 55.4455,42.0872 63.3663,49.1017 71.2871,56.1163 79.2079,62.6872 87.1287,69.5955 95.0495,76.955 102.97,84.6482 110.891,92.5918 118.812,100.727 126.733,107.551 134.653,110.702 142.574,115.403 150.495,120.987 158.416,126.982 166.337,133.332 174.257,139.988 182.178,146.91 190.099,154.06 198.02,161.409 205.941,168.932 213.861,176.604 221.782,184.409 229.703,192.33 237.624,200.353 245.545,208.466 253.465,216.659 261.386,224.924 269.307,233.253 277.228,241.639 285.149,250.076 293.069,258.56 300.99,267.086 308.911,275.65 316.832,284.248 324.752,292.878 332.673,300.874 340.594,308.15 348.515,315.522 356.436,322.984 364.356,330.528 372.277,338.151 380.198,345.845 388.119,353.608 396.04,361.434 403.96,369.32 411.881,377.261 419.802,385.255 427.723,393.298 435.644,401.386 443.564,409.925 451.485,419.807 459.406,429.837 467.327,440.002 475.248,450.075 483.168,460.167 491.089,470.383 499.01,480.717 506.931,491.161 514.851,501.708 522.772,512.62 530.693,531.261 538.614,538.927 546.535,560.331 554.455,583.296 562.376,607.644 570.297,619.631 578.218,628.285 586.139,663.871 594.059,691.129 601.98,741.841 " />

<line fill="none" stroke-dasharray = "10, 10"  stroke="orange" stroke-width="6" x1="609.901" y1="400" x2="792.079" y2="400" />
   <polyline fill="none" stroke=" olive " stroke-width=" 3 " stroke-dasharray = " 5,10 " points=" 7.92079,1.3487e-05 15.8416,7.01453 23.7624,14.0291 31.6832,21.0436 39.604,28.0581 47.5248,35.0727 55.4455,42.0872 63.3663,49.1017 71.2871,56.1163 79.2079,63.9428 87.1287,72.6896 95.0495,81.9858 102.97,91.7028 110.891,101.744 118.812,109.121 126.733,109.887 134.653,111.258 142.574,115.403 150.495,120.987 158.416,126.982 166.337,133.332 174.257,139.988 182.178,146.91 190.099,154.06 198.02,161.409 205.941,168.932 213.861,176.604 221.782,184.409 229.703,192.33 237.624,200.353 245.545,208.466 253.465,216.659 261.386,224.924 269.307,233.253 277.228,241.639 285.149,250.076 293.069,258.56 300.99,267.086 308.911,275.65 316.832,284.248 324.752,292.878 332.673,301.537 340.594,310.223 348.515,318.933 356.436,327.665 364.356,336.418 372.277,344.699 380.198,352.527 388.119,360.417 396.04,368.363 403.96,376.363 411.881,384.413 419.802,392.509 427.723,400.65 435.644,408.831 443.564,412.273 451.485,422.495 459.406,432.858 467.327,443.353 475.248,453.971 483.168,464.705 491.089,475.546 499.01,486.489 506.931,497.528 514.851,508.656 522.772,520.105 530.693,535.752 538.614,538.927 546.535,560.331 554.455,583.296 562.376,607.644 570.297,623.158 578.218,628.285 586.139,663.871 594.059,693.164 601.98,743.713 " />

<line fill="none" stroke-dasharray = "10, 10"  stroke="orange" stroke-width="6" x1="609.901" y1="400" x2="792.079" y2="400" />
   <polyline fill="none" stroke=" black " stroke-width=" 3 " stroke-dasharray = "  " points=" 7.92079,0 15.8416,7.01453 23.7624,14.0291 31.6832,21.0436 39.604,28.0581 47.5248,35.0727 55.4455,42.0872 63.3663,49.1017 71.2871,56.1163 79.2079,63.1308 87.1287,70.1453 95.0495,77.1599 102.97,84.1744 110.891,88.3829 118.812,92.613 126.733,97.4904 134.653,102.923 142.574,108.828 150.495,115.133 158.416,121.775 166.337,128.703 174.257,135.872 182.178,143.247 190.099,150.797 198.02,158.497 205.941,166.326 213.861,174.268 221.782,179.997 229.703,185.458 237.624,190.972 245.545,196.535 253.465,202.142 261.386,207.791 269.307,213.478 277.228,219.199 285.149,224.953 293.069,230.737 300.99,236.548 308.911,242.385 316.832,248.246 324.752,254.13 332.673,260.034 340.594,265.957 348.515,271.898 356.436,277.856 364.356,283.831 372.277,289.82 380.198,295.823 388.119,301.839 396.04,304.542 403.96,312.599 411.881,319.958 419.802,326.02 427.723,332.091 435.644,338.172 443.564,340.142 451.485,342.882 459.406,346.628 467.327,351.348 475.248,357.004 483.168,363.552 491.089,370.946 499.01,379.134 506.931,388.068 514.851,397.696 522.772,421.413 530.693,433.232 538.614,434.538 546.535,455.495 554.455,478.887 562.376,504.037 570.297,515.486 578.218,509.128 586.139,554.474 594.059,574.521 601.98,635.143 " />

<line fill="none" stroke-dasharray = "10, 10"  stroke="orange" stroke-width="6" x1="609.901" y1="400" x2="792.079" y2="400" />

<!--Draw the X and Y axes -->
<polyline fill="none" stroke="black" stroke-width="6"  points=" 800,0 0,0 0, 800" />
<polyline fill="none" stroke="black" stroke-width="1"  points=" 0 800  800 800  800 0" />
<!-- -->


<!--Draw labels and tics for X axis -->

<line fill="none" stroke="black"  stroke-width="6"  x1="0.5" y1="0" x2="0.5" y2="-20" />
<text transform="scale(1,-1)" font-family="sans-serif" font-size="30" x="-24.5" y="45" >0</text>
<line fill="none" stroke="black"  stroke-width="6"  x1="158.916" y1="0" x2="158.916" y2="-20" />
<text transform="scale(1,-1)" font-family="sans-serif" font-size="30" x="133.916" y="45" >20</text>
<line fill="none" stroke="black"  stroke-width="6"  x1="317.332" y1="0" x2="317.332" y2="-20" />
<text transform="scale(1,-1)" font-family="sans-serif" font-size="30" x="292.332" y="45" >40</text>
<line fill="none" stroke="black"  stroke-width="6"  x1="475.748" y1="0" x2="475.748" y2="-20" />
<text transform="scale(1,-1)" font-family="sans-serif" font-size="30" x="450.748" y="45" >60</text>
<line fill="none" stroke="black"  stroke-width="6"  x1="634.163" y1="0" x2="634.163" y2="-20" />
<text transform="scale(1,-1)" font-family="sans-serif" font-size="30" x="609.163" y="45" >80</text>
<line fill="none" stroke="black"  stroke-width="6"  x1="792.579" y1="0" x2="792.579" y2="-20" />
<text transform="scale(1,-1)" font-family="sans-serif" font-size="30" x="767.579" y="45" >100</text>


<!--Draw labels and tics for Y axis -->

<line fill="none" stroke="black" stroke-width="6" x1="0.0" y1="0" x2="-20" y2="0" />
<text transform="scale(1,-1)" text-anchor="end" font-family="sans-serif" font-size="30" x="-25" y="10" >0</text>
<line fill="none" stroke="black" stroke-width="6" x1="0.0" y1="200" x2="-20" y2="200" />
<text transform="scale(1,-1)" text-anchor="end" font-family="sans-serif" font-size="30" x="-25" y="-190" >10</text>
<line fill="none" stroke="black" stroke-width="6" x1="0.0" y1="400" x2="-20" y2="400" />
<text transform="scale(1,-1)" text-anchor="end" font-family="sans-serif" font-size="30" x="-25" y="-390" >20</text>
<line fill="none" stroke="black" stroke-width="6" x1="0.0" y1="600" x2="-20" y2="600" />
<text transform="scale(1,-1)" text-anchor="end" font-family="sans-serif" font-size="30" x="-25" y="-590" >30</text>
<line fill="none" stroke="black" stroke-width="6" x1="0.0" y1="800" x2="-20" y2="800" />
<text transform="scale(1,-1)" text-anchor="end" font-family="sans-serif" font-size="30" x="-25" y="-790" >40</text>

-->
</g>
</g>
<!-- Run Constants
PRINTDISTANCEDATA bool true
GLITCHESONLY bool false
PERTURBBY double 0.05
GLITCHLEVEL double 3
BOUNDARYWINDOW double 0.065
STEPSPERFRAME int 100
TRIALS int 1
ALLBLACK bool true
FILEPREFIX string Fol
NIGGLISELLINGFIRST bool false
ENABLE DistanceEnableString 
DISABLE DistanceDisableString 
GRAPHSIZE int 0
BORDER int 0
PLOTSIZE int 0
AXISWIDTH int 6
TICLENGTH int 20
VECTOR g6 
FOLLOWERMODE FollowerMode line
FIXRANDOMSEED fixRandomSeed true
RANDOMSEED int 18
TIMESTAMP bool true
END end 


-->
</svg>
