<?xml version="1.0" standalone="no"?>
<!-- the width and height set the total pixel output of the image in the browser -->
<!-- whatever is within the viewbox will be remapped to show in this size -->
<svg width="1000" height="1000" viewBox="1 0 1000 1000"  version="1.1" xmlns="http://www.w3.org/2000/svg" xmlns:xlink="http://www.w3.org/1999/xlink">
 <desc>ID (and file name) = Fol_2018-05-14.09_12_21.1_3.svg </desc> 
 <text x="560" y="30" font-family="sans-serif" font-size="20">Wall time passed: 10558 msec.</text>
<text x="300" y="60"   font-family="sans-serif" font-size="20" fill="lightblue">S6  lightblue</text>
<text x="300" y="85"   font-family="sans-serif" font-size="20" fill="slategrey">NCDist  slategrey</text>
<text x="300" y="110"  font-family="sans-serif" font-size="20" fill="violet">D7  violet</text>
<text x="300" y="135"  font-family="sans-serif" font-size="20" fill="olive">CS6Dist  olive</text>

 <text x="140"  y="30"  font-family="sans-serif" font-size="20" >Fol_2018-05-14.09_12_21.1_3.svg  </text> 


 <!--DISTANCE PLOT BEGINS-->


<!-- the following will scale and place the distance plot -->
<g  transform="translate(0,50) ">
<g transform="translate(150,700) scale(1 -1)">
   <polyline fill="none" stroke=" lightblue " stroke-width=" 12 " points=" 0.6,0 1.2,3.40308 1.8,6.80616 2.4,10.2092 3,13.6123 3.6,17.0154 4.2,20.4185 4.8,23.8216 5.4,27.2246 6,30.6277 6.6,34.0308 7.2,37.4339 7.8,40.8369 8.4,44.24 9,47.6431 9.6,51.0462 10.2,54.4493 10.8,57.8523 11.4,61.2554 12,64.6585 12.6,68.0616 13.2,71.4647 13.8,74.8677 14.4,78.2708 15,81.6739 15.6,85.077 16.2,88.48 16.8,90.8864 17.4,93.0144 18,95.1744 18.6,97.3643 19.2,99.5822 19.8,101.826 20.4,104.095 21,106.386 21.6,108.699 22.2,111.032 22.8,113.383 23.4,115.753 24,118.139 24.6,120.54 25.2,122.957 25.8,125.387 26.4,127.83 27,130.286 27.6,132.753 28.2,135.231 28.8,137.72 29.4,140.219 30,142.727 30.6,145.244 31.2,147.769 31.8,150.302 32.4,152.843 33,155.391 33.6,157.946 34.2,160.508 34.8,163.075 35.4,165.649 36,168.228 36.6,170.813 37.2,173.403 37.8,175.998 38.4,178.598 39,181.202 39.6,183.81 40.2,186.423 40.8,190.956 41.4,191.18 42,191.414 42.6,191.659 43.2,191.914 43.8,192.179 44.4,192.455 45,192.741 45.6,193.037 46.2,193.343 46.8,193.659 47.4,193.985 48,194.321 48.6,194.667 49.2,195.023 49.8,195.389 50.4,195.764 51,196.149 51.6,196.544 52.2,196.949 52.8,197.363 53.4,197.786 54,198.219 54.6,198.661 55.2,199.112 55.8,199.573 56.4,200.043 57,200.522 57.6,201.01 58.2,201.507 58.8,202.012 59.4,202.527 60,203.05 60.6,203.582 61.2,204.123 61.8,204.019 62.4,203.446 63,202.883 63.6,202.327 64.2,201.781 64.8,201.243 65.4,200.714 66,200.193 66.6,199.682 67.2,199.179 67.8,198.686 68.4,198.201 69,197.726 69.6,197.26 70.2,196.803 70.8,196.355 71.4,195.917 72,195.489 72.6,195.069 73.2,194.66 73.8,194.26 74.4,193.87 75,193.49 75.6,193.119 76.2,192.759 76.8,192.408 77.4,192.067 78,191.737 78.6,191.416 79.2,191.106 79.8,190.806 80.4,190.516 81,190.236 81.6,189.967 82.2,189.708 82.8,189.459 83.4,189.222 84,188.994 84.6,188.777 85.2,188.571 85.8,188.375 86.4,188.19 87,188.016 87.6,187.852 88.2,187.699 88.8,187.557 89.4,187.426 90,187.305 90.6,187.196 91.2,187.097 91.8,187.009 92.4,186.932 93,186.866 93.6,186.811 94.2,186.766 94.8,186.733 95.4,186.711 96,186.699 96.6,186.699 97.2,186.709 97.8,186.73 98.4,186.763 99,186.806 99.6,186.86 100.2,186.925 100.8,187.001 101.4,187.088 102,187.186 102.6,187.294 103.2,187.414 103.8,187.544 104.4,187.685 105,187.681 105.6,187.371 106.2,187.072 106.8,186.783 107.4,186.505 108,186.237 108.6,185.98 109.2,185.734 109.8,185.498 110.4,185.273 111,185.059 111.6,184.855 112.2,184.662 112.8,184.481 113.4,184.31 114,184.15 114.6,184.001 115.2,183.863 115.8,183.736 116.4,183.62 117,183.515 117.6,183.422 118.2,183.339 118.8,183.267 119.4,183.207 120,183.158 120.6,183.12 121.2,183.093 121.8,183.077 122.4,183.072 123,183.079 123.6,183.096 124.2,183.125 124.8,183.165 125.4,183.216 126,183.279 126.6,183.352 127.2,183.436 127.8,183.532 128.4,183.639 129,183.756 129.6,183.885 130.2,184.025 130.8,184.176 131.4,184.337 132,184.51 132.6,184.694 133.2,184.888 133.8,185.093 134.4,185.309 135,185.536 135.6,185.774 136.2,186.022 136.8,186.281 137.4,186.55 138,186.831 138.6,187.121 139.2,187.422 139.8,187.733 140.4,188.055 141,188.387 141.6,188.729 142.2,189.082 142.8,189.445 143.4,189.817 144,190.2 144.6,190.593 145.2,190.995 145.8,191.407 146.4,191.83 147,192.261 147.6,192.703 148.2,193.154 148.8,193.614 149.4,194.084 150,194.564 150.6,195.052 151.2,195.55 151.8,196.057 152.4,196.573 153,197.099 153.6,197.633 154.2,198.176 154.8,198.727 155.4,199.288 156,199.857 156.6,200.435 157.2,201.021 157.8,201.616 158.4,202.219 159,202.83 159.6,203.449 160.2,204.077 160.8,204.713 161.4,205.356 162,206.008 162.6,206.667 163.2,207.334 163.8,208.009 164.4,208.692 165,209.382 165.6,210.079 166.2,210.784 166.8,211.496 167.4,212.216 168,212.942 168.6,213.676 169.2,214.417 169.8,215.164 170.4,215.919 171,216.68 171.6,217.448 172.2,218.223 172.8,219.004 173.4,219.792 174,220.586 174.6,221.387 175.2,222.194 175.8,223.007 176.4,223.826 177,224.652 177.6,225.483 178.2,226.321 178.8,227.164 179.4,228.013 180,228.868 180.6,229.729 181.2,230.596 181.8,231.467 182.4,232.345 183,233.228 183.6,234.116 184.2,235.01 184.8,235.909 185.4,236.813 186,237.722 186.6,238.637 187.2,239.556 187.8,240.481 188.4,241.41 189,242.344 189.6,243.284 190.2,244.227 190.8,245.176 191.4,246.129 192,247.087 192.6,248.049 193.2,249.016 193.8,249.987 194.4,250.963 195,251.943 195.6,252.927 196.2,253.915 196.8,254.908 197.4,255.905 198,256.906 198.6,257.911 199.2,258.919 199.8,259.932 200.4,260.949 201,261.97 201.6,262.994 202.2,264.022 202.8,265.054 203.4,266.09 204,267.129 204.6,268.172 205.2,269.218 205.8,270.268 206.4,271.321 207,272.378 207.6,273.438 208.2,274.502 208.8,275.568 209.4,276.639 210,277.712 210.6,278.788 211.2,279.868 211.8,280.951 212.4,282.037 213,283.126 213.6,284.218 214.2,285.313 214.8,286.41 215.4,287.511 216,288.615 216.6,289.721 217.2,290.831 217.8,291.943 218.4,293.058 219,294.175 219.6,295.296 220.2,296.419 220.8,297.544 221.4,298.673 222,299.803 222.6,300.937 223.2,302.072 223.8,303.211 224.4,304.351 225,305.495 225.6,306.64 226.2,307.788 226.8,308.938 227.4,310.091 228,311.246 228.6,312.403 229.2,313.563 229.8,314.724 230.4,315.888 231,317.054 231.6,318.222 232.2,319.393 232.8,320.565 233.4,321.74 234,322.916 234.6,324.095 235.2,325.275 235.8,326.458 236.4,327.643 237,328.829 237.6,330.018 238.2,331.208 238.8,332.4 239.4,333.594 240,334.79 240.6,335.988 241.2,337.187 241.8,338.389 242.4,339.592 243,340.797 243.6,342.003 244.2,343.212 244.8,344.422 245.4,345.633 246,346.847 246.6,348.062 247.2,349.278 247.8,350.521 248.4,351.787 249,353.056 249.6,354.329 250.2,355.606 250.8,356.887 251.4,358.171 252,359.459 252.6,360.75 253.2,362.045 253.8,363.344 254.4,364.645 255,365.951 255.6,367.259 256.2,368.571 256.8,369.886 257.4,371.205 258,372.526 258.6,373.851 259.2,375.179 259.8,376.51 260.4,377.845 261,379.182 261.6,380.522 262.2,381.866 262.8,383.212 263.4,384.561 264,385.913 264.6,387.268 265.2,388.626 265.8,389.986 266.4,391.35 267,392.716 267.6,394.085 268.2,395.456 268.8,396.831 269.4,398.207 270,399.587 270.6,400.969 271.2,402.354 271.8,403.741 272.4,405.13 273,406.522 273.6,407.917 274.2,409.314 274.8,410.713 275.4,412.115 276,413.519 276.6,414.926 277.2,416.335 277.8,417.746 278.4,415.842 279,416.679 279.6,417.519 280.2,418.364 280.8,419.212 281.4,420.064 282,420.92 282.6,421.78 283.2,422.643 283.8,423.51 284.4,424.38 285,425.255 285.6,426.133 286.2,427.014 286.8,427.899 287.4,428.788 288,429.68 288.6,430.576 289.2,431.475 289.8,432.377 290.4,433.283 291,434.193 291.6,435.106 292.2,436.022 292.8,436.942 293.4,437.865 294,438.791 294.6,439.72 295.2,440.653 295.8,441.589 296.4,442.529 297,443.471 297.6,444.417 298.2,445.366 298.8,446.318 299.4,447.273 300,448.232 300.6,449.193 301.2,450.157 301.8,451.125 302.4,452.096 303,453.069 303.6,454.046 304.2,455.025 304.8,456.008 305.4,456.993 306,457.982 306.6,458.973 307.2,459.967 307.8,460.964 308.4,461.964 309,462.967 309.6,463.972 310.2,464.98 310.8,465.992 311.4,467.005 312,468.022 312.6,469.041 313.2,470.063 313.8,471.088 314.4,472.115 315,473.145 315.6,474.178 316.2,475.213 316.8,476.251 317.4,477.291 318,478.334 318.6,479.379 319.2,480.427 319.8,481.478 320.4,482.531 321,483.586 321.6,484.644 322.2,485.705 322.8,486.657 323.4,487.26 324,487.868 324.6,488.481 325.2,489.099 325.8,489.723 326.4,490.351 327,490.985 327.6,491.624 328.2,492.269 328.8,492.918 329.4,493.572 330,494.232 330.6,494.896 331.2,494.648 331.8,493.163 332.4,491.679 333,490.205 333.6,488.977 334.2,487.749 334.8,486.522 335.4,485.294 336,484.067 336.6,482.84 337.2,481.613 337.8,480.386 338.4,479.159 339,477.932 339.6,476.705 340.2,475.479 340.8,474.253 341.4,473.026 342,471.8 342.6,470.574 343.2,469.348 343.8,468.123 344.4,466.897 345,465.672 345.6,464.446 346.2,463.221 346.8,461.996 347.4,460.771 348,459.546 348.6,458.322 349.2,457.097 349.8,455.873 350.4,454.649 351,453.425 351.6,452.201 352.2,450.977 352.8,449.754 353.4,448.53 354,447.307 354.6,446.084 355.2,444.861 355.8,443.638 356.4,442.415 357,441.193 357.6,439.97 358.2,438.748 358.8,437.526 359.4,436.304 360,435.082 360.6,433.861 361.2,432.639 361.8,431.418 362.4,430.197 363,428.976 363.6,427.755 364.2,426.535 364.8,425.315 365.4,424.094 366,422.874 366.6,421.655 367.2,420.435 367.8,419.215 368.4,417.996 369,416.777 369.6,415.558 370.2,414.34 370.8,413.121 371.4,411.903 372,410.685 372.6,409.467 373.2,408.249 373.8,407.031 374.4,405.814 375,404.597 375.6,403.38 376.2,402.163 376.8,400.947 377.4,399.73 378,398.514 378.6,397.305 379.2,396.098 379.8,394.891 380.4,393.685 381,392.478 381.6,391.272 382.2,390.066 382.8,388.86 383.4,387.654 384,386.448 384.6,385.243 385.2,384.038 385.8,382.832 386.4,381.628 387,380.423 387.6,379.218 388.2,378.014 388.8,376.81 389.4,375.606 390,374.402 390.6,373.198 391.2,371.995 391.8,370.791 392.4,369.588 393,368.385 393.6,367.183 394.2,365.98 394.8,364.778 395.4,363.576 396,362.374 396.6,361.173 397.2,359.971 397.8,358.77 398.4,357.569 399,356.368 399.6,355.168 400.2,353.967 400.8,352.767 401.4,351.567 402,350.368 402.6,349.168 403.2,347.969 403.8,346.77 404.4,345.572 405,344.373 405.6,343.175 406.2,341.977 406.8,340.779 407.4,339.582 408,338.385 408.6,337.188 409.2,335.991 409.8,334.795 410.4,333.599 411,332.403 411.6,331.207 412.2,330.012 412.8,328.817 413.4,327.622 414,326.428 414.6,325.234 415.2,324.04 415.8,322.846 416.4,321.653 417,320.46 417.6,319.267 418.2,318.075 418.8,316.883 419.4,315.691 420,314.499 420.6,313.308 421.2,312.118 421.8,310.927 422.4,309.737 423,308.547 423.6,307.358 424.2,306.169 424.8,304.98 425.4,303.792 426,302.604 426.6,301.416 427.2,300.229 427.8,299.042 428.4,297.855 429,296.669 429.6,295.483 430.2,294.298 430.8,293.113 431.4,291.928 432,290.744 432.6,289.56 433.2,288.377 433.8,287.194 434.4,286.011 435,284.829 435.6,283.647 436.2,282.466 436.8,281.285 437.4,280.105 438,278.925 438.6,277.746 439.2,276.567 439.8,275.388 440.4,274.21 441,273.033 441.6,271.856 442.2,270.679 442.8,269.503 443.4,268.328 444,267.153 444.6,265.978 445.2,264.804 445.8,263.631 446.4,262.458 447,261.286 447.6,260.114 448.2,258.943 448.8,257.772 449.4,256.603 450,255.433 450.6,254.264 451.2,253.096 451.8,251.929 452.4,250.762 453,249.595 453.6,248.43 454.2,247.265 454.8,246.1 455.4,244.937 456,243.774 456.6,242.612 457.2,241.45 457.8,240.289 458.4,239.129 459,237.97 459.6,236.811 460.2,235.653 460.8,234.496 461.4,233.339 462,232.184 462.6,231.029 463.2,229.875 463.8,228.722 464.4,227.57 465,226.418 465.6,225.268 466.2,224.118 466.8,222.969 467.4,221.821 468,220.674 468.6,219.528 469.2,218.383 469.8,217.239 470.4,216.096 471,214.954 471.6,213.813 472.2,212.672 472.8,211.533 473.4,210.395 474,209.258 474.6,208.123 475.2,206.988 475.8,205.854 476.4,204.722 477,203.591 477.6,202.46 478.2,201.332 478.8,200.204 479.4,199.077 480,197.952 480.6,196.829 481.2,195.706 481.8,194.585 482.4,193.465 483,192.347 483.6,191.23 484.2,190.114 484.8,189 485.4,187.887 486,186.776 486.6,185.666 487.2,184.558 487.8,183.452 488.4,182.347 489,181.244 489.6,180.143 490.2,179.043 490.8,177.945 491.4,176.849 492,175.754 492.6,174.662 493.2,173.571 493.8,172.482 494.4,171.396 495,170.311 495.6,169.228 496.2,168.147 496.8,167.069 497.4,165.992 498,164.918 498.6,163.846 499.2,162.776 499.8,161.709 500.4,160.644 501,159.581 501.6,158.521 502.2,157.464 502.8,156.409 503.4,155.356 504,154.306 504.6,153.259 505.2,152.215 505.8,151.174 506.4,150.135 507,149.1 507.6,148.067 508.2,147.038 508.8,146.012 509.4,144.989 510,143.969 510.6,142.953 511.2,141.94 511.8,140.93 512.4,139.925 513,138.922 513.6,137.924 514.2,136.929 514.8,135.939 515.4,134.952 516,133.969 516.6,132.991 517.2,132.017 517.8,131.047 518.4,130.082 519,129.121 519.6,128.165 520.2,127.213 520.8,126.267 521.4,125.325 522,124.389 522.6,123.458 523.2,122.532 523.8,121.612 524.4,120.697 525,119.788 525.6,118.885 526.2,117.987 526.8,117.096 527.4,116.211 528,115.333 528.6,114.461 529.2,113.595 529.8,112.737 530.4,111.885 531,111.041 531.6,110.204 532.2,109.375 532.8,108.553 533.4,107.739 534,106.933 534.6,106.135 535.2,105.346 535.8,104.565 536.4,103.793 537,103.03 537.6,102.277 538.2,101.532 538.8,100.797 539.4,100.072 540,99.3574 540.6,98.6526 541.2,97.9583 541.8,97.2746 542.4,96.6019 543,95.9402 543.6,95.29 544.2,94.6513 544.8,94.0245 545.4,93.4098 546,92.8073 546.6,92.2174 547.2,91.6404 547.8,91.0763 548.4,90.5256 549,89.9883 549.6,89.4649 550.2,88.9554 550.8,88.4602 551.4,87.9795 552,87.5136 552.6,87.0626 553.2,86.6268 553.8,86.2065 554.4,85.8018 555,85.413 555.6,85.0403 556.2,84.684 556.8,84.3441 557.4,84.021 558,83.7148 558.6,83.4257 559.2,83.1539 559.8,82.6188 560.4,81.3857 561,80.1526 561.6,78.9195 562.2,77.6864 562.8,76.4532 563.4,75.2201 564,73.987 564.6,72.7539 565.2,71.5208 565.8,70.2877 566.4,69.0545 567,67.8214 567.6,66.5883 568.2,65.3552 568.8,64.1221 569.4,62.889 570,61.6558 570.6,60.4227 571.2,59.1896 571.8,57.9565 572.4,56.7234 573,55.4903 573.6,54.2571 574.2,53.024 574.8,51.7909 575.4,50.5578 576,49.3247 576.6,48.0916 577.2,46.8584 577.8,45.6253 578.4,44.3922 579,43.1591 579.6,41.926 580.2,40.6929 580.8,39.4597 581.4,38.2266 582,36.9935 582.6,35.7604 583.2,34.5273 583.8,33.2942 584.4,32.061 585,30.8279 585.6,29.5948 586.2,28.3617 586.8,27.1286 587.4,25.8955 588,24.6623 588.6,23.4292 589.2,22.1961 589.8,20.963 590.4,19.7299 591,18.4968 591.6,17.2636 592.2,16.0305 592.8,14.7974 593.4,13.5643 594,12.3312 594.6,11.0981 595.2,9.86493 595.8,8.63182 596.4,7.3987 597,6.16558 597.6,4.93247 598.2,3.69935 598.8,2.46623 599.4,1.23312 600,0 " />
   <polyline fill="none" stroke=" slategrey " stroke-width=" 9 " points=" " />
   <polyline fill="none" stroke=" violet " stroke-width=" 6 " points=" " />
   <polyline fill="none" stroke=" olive " stroke-width=" 3 " points=" 0.6,0 1.2,3.40308 1.8,6.80616 2.4,10.2092 3,13.6123 3.6,17.0154 4.2,20.4185 4.8,23.8216 5.4,27.2246 6,30.6277 6.6,34.0308 7.2,37.4339 7.8,40.8369 8.4,44.24 9,47.6431 9.6,51.0462 10.2,54.4493 10.8,57.8523 11.4,61.2554 12,64.6585 12.6,68.0616 13.2,71.4647 13.8,74.8677 14.4,78.2708 15,81.6739 15.6,85.077 16.2,88.48 16.8,150.09 17.4,151.791 18,153.523 18.6,155.283 19.2,157.073 19.8,158.89 20.4,160.733 21,162.602 21.6,164.496 22.2,166.414 22.8,168.355 23.4,170.319 24,172.304 24.6,174.31 25.2,176.336 25.8,178.382 26.4,180.446 27,182.529 27.6,184.629 28.2,186.746 28.8,188.88 29.4,191.029 30,193.194 30.6,195.373 31.2,197.567 31.8,199.775 32.4,201.996 33,204.23 33.6,206.476 34.2,208.735 34.8,211.006 35.4,213.287 36,215.58 36.6,217.883 37.2,220.197 37.8,222.521 38.4,224.854 39,227.197 39.6,229.549 40.2,231.91 40.8,243.006 41.4,242.719 42,242.44 42.6,242.169 43.2,241.907 43.8,241.653 44.4,241.406 45,241.169 45.6,240.939 46.2,240.718 46.8,240.504 47.4,240.3 48,240.103 48.6,239.915 49.2,239.735 49.8,239.564 50.4,239.401 51,239.247 51.6,239.101 52.2,238.963 52.8,238.834 53.4,238.713 54,238.601 54.6,238.498 55.2,238.403 55.8,238.316 56.4,238.238 57,238.169 57.6,238.108 58.2,238.056 58.8,237.571 59.4,236.663 60,235.759 60.6,234.861 61.2,233.968 61.8,233.081 62.4,232.199 63,231.322 63.6,230.451 64.2,229.586 64.8,228.726 65.4,227.872 66,227.024 66.6,226.181 67.2,225.345 67.8,224.514 68.4,223.69 69,222.871 69.6,222.059 70.2,221.253 70.8,220.454 71.4,219.661 72,218.874 72.6,218.094 73.2,217.32 73.8,216.553 74.4,215.793 75,215.04 75.6,214.293 76.2,213.554 76.8,212.821 77.4,212.096 78,211.378 78.6,210.667 79.2,209.963 79.8,209.267 80.4,208.578 81,207.897 81.6,207.223 82.2,206.557 82.8,205.899 83.4,205.249 84,204.607 84.6,203.972 85.2,203.346 85.8,202.728 86.4,202.118 87,201.516 87.6,200.923 88.2,200.338 88.8,199.762 89.4,199.194 90,198.635 90.6,198.085 91.2,197.543 91.8,197.011 92.4,196.487 93,195.972 93.6,195.467 94.2,194.971 94.8,194.484 95.4,194.006 96,193.537 96.6,193.078 97.2,192.629 97.8,192.189 98.4,191.759 99,191.338 99.6,190.928 100.2,190.527 100.8,190.136 101.4,189.755 102,189.384 102.6,189.023 103.2,188.672 103.8,188.331 104.4,188.001 105,187.681 105.6,187.371 106.2,187.072 106.8,186.783 107.4,186.505 108,186.237 108.6,185.98 109.2,185.734 109.8,185.498 110.4,185.273 111,185.059 111.6,184.855 112.2,184.662 112.8,184.481 113.4,184.31 114,184.15 114.6,184.001 115.2,183.863 115.8,183.736 116.4,183.62 117,183.515 117.6,183.422 118.2,183.339 118.8,183.267 119.4,183.207 120,183.158 120.6,183.12 121.2,183.093 121.8,183.077 122.4,183.072 123,183.079 123.6,183.096 124.2,183.125 124.8,183.165 125.4,183.216 126,183.279 126.6,183.352 127.2,183.436 127.8,183.532 128.4,183.639 129,183.756 129.6,183.885 130.2,184.025 130.8,184.176 131.4,184.337 132,184.51 132.6,184.694 133.2,184.888 133.8,185.093 134.4,185.309 135,185.536 135.6,185.774 136.2,186.022 136.8,186.281 137.4,186.55 138,186.831 138.6,187.121 139.2,187.422 139.8,187.733 140.4,188.055 141,188.387 141.6,188.729 142.2,189.082 142.8,189.445 143.4,189.817 144,190.2 144.6,190.593 145.2,190.995 145.8,191.407 146.4,191.83 147,192.261 147.6,192.703 148.2,193.154 148.8,193.614 149.4,194.084 150,194.564 150.6,195.052 151.2,195.55 151.8,196.057 152.4,196.573 153,197.099 153.6,197.633 154.2,198.176 154.8,198.727 155.4,199.288 156,199.857 156.6,200.435 157.2,201.021 157.8,201.616 158.4,202.219 159,202.83 159.6,203.449 160.2,204.077 160.8,204.713 161.4,205.356 162,206.008 162.6,206.667 163.2,207.334 163.8,208.009 164.4,208.692 165,209.382 165.6,210.079 166.2,210.784 166.8,211.496 167.4,212.216 168,212.942 168.6,213.676 169.2,214.417 169.8,215.164 170.4,215.919 171,216.68 171.6,217.448 172.2,218.223 172.8,219.004 173.4,219.792 174,220.586 174.6,221.387 175.2,222.194 175.8,223.007 176.4,223.826 177,224.652 177.6,225.483 178.2,226.321 178.8,227.164 179.4,228.013 180,228.868 180.6,229.729 181.2,230.596 181.8,231.467 182.4,232.345 183,233.228 183.6,234.116 184.2,235.01 184.8,235.909 185.4,236.813 186,237.722 186.6,238.637 187.2,239.556 187.8,240.481 188.4,241.41 189,242.344 189.6,243.284 190.2,244.227 190.8,245.176 191.4,246.129 192,247.087 192.6,248.049 193.2,249.016 193.8,249.987 194.4,250.963 195,251.943 195.6,252.927 196.2,253.915 196.8,254.908 197.4,255.905 198,256.906 198.6,257.911 199.2,258.919 199.8,259.932 200.4,260.949 201,261.97 201.6,262.994 202.2,264.022 202.8,265.054 203.4,266.09 204,267.129 204.6,268.172 205.2,269.218 205.8,270.268 206.4,271.321 207,272.378 207.6,273.438 208.2,274.502 208.8,275.568 209.4,276.639 210,277.712 210.6,278.788 211.2,279.868 211.8,280.951 212.4,282.037 213,283.126 213.6,284.218 214.2,285.313 214.8,286.41 215.4,287.511 216,288.615 216.6,289.721 217.2,290.831 217.8,291.943 218.4,293.058 219,294.175 219.6,295.296 220.2,296.419 220.8,297.544 221.4,298.673 222,299.803 222.6,300.937 223.2,302.072 223.8,303.211 224.4,304.351 225,305.495 225.6,306.64 226.2,307.788 226.8,308.938 227.4,310.091 228,311.246 228.6,312.403 229.2,313.563 229.8,314.724 230.4,315.888 231,317.054 231.6,318.222 232.2,319.393 232.8,320.565 233.4,321.74 234,322.916 234.6,324.095 235.2,325.275 235.8,326.458 236.4,327.643 237,328.829 237.6,330.018 238.2,331.208 238.8,332.4 239.4,333.594 240,334.79 240.6,335.988 241.2,337.187 241.8,338.389 242.4,339.592 243,340.797 243.6,342.003 244.2,343.212 244.8,344.422 245.4,345.633 246,346.847 246.6,348.062 247.2,349.278 247.8,535.652 248.4,536.851 249,538.053 249.6,539.257 250.2,540.465 250.8,541.675 251.4,542.888 252,544.103 252.6,545.322 253.2,546.542 253.8,547.766 254.4,548.992 255,550.221 255.6,551.452 256.2,552.686 256.8,553.923 257.4,555.162 258,556.403 258.6,557.647 259.2,558.894 259.8,560.143 260.4,561.394 261,562.648 261.6,563.904 262.2,565.163 262.8,566.424 263.4,567.688 264,568.954 264.6,570.222 265.2,571.492 265.8,572.765 266.4,574.04 267,575.318 267.6,576.598 268.2,577.879 268.8,579.164 269.4,580.45 270,581.739 270.6,583.029 271.2,584.322 271.8,585.618 272.4,586.915 273,588.214 273.6,589.516 274.2,590.82 274.8,592.125 275.4,593.433 276,594.743 276.6,596.055 277.2,597.369 277.8,598.685 278.4,474.092 279,475.01 279.6,475.93 280.2,476.853 280.8,477.78 281.4,478.709 282,479.642 282.6,480.577 283.2,481.515 283.8,482.457 284.4,483.401 285,484.348 285.6,485.299 286.2,486.252 286.8,487.208 287.4,488.166 288,489.128 288.6,490.092 289.2,491.06 289.8,492.03 290.4,493.002 291,493.978 291.6,494.956 292.2,495.937 292.8,496.921 293.4,497.907 294,498.897 294.6,499.888 295.2,500.883 295.8,501.88 296.4,502.879 297,503.882 297.6,504.886 298.2,505.894 298.8,506.904 299.4,507.916 300,508.931 300.6,509.949 301.2,510.969 301.8,511.991 302.4,513.016 303,514.043 303.6,515.073 304.2,516.105 304.8,517.14 305.4,518.177 306,519.216 306.6,520.258 307.2,521.302 307.8,522.349 308.4,523.397 309,524.448 309.6,525.502 310.2,526.557 310.8,527.615 311.4,528.675 312,529.738 312.6,530.802 313.2,531.869 313.8,532.938 314.4,534.009 315,535.082 315.6,536.158 316.2,537.235 316.8,538.315 317.4,539.397 318,540.481 318.6,541.567 319.2,542.655 319.8,543.745 320.4,544.838 321,545.932 321.6,547.028 322.2,548.127 322.8,565.424 323.4,565.664 324,564.528 324.6,563.394 325.2,562.264 325.8,561.136 326.4,560.011 327,558.89 327.6,557.771 328.2,556.656 328.8,555.543 329.4,554.434 330,553.327 330.6,552.224 331.2,551.124 331.8,550.027 332.4,548.933 333,490.205 333.6,488.977 334.2,487.749 334.8,486.522 335.4,485.294 336,484.067 336.6,482.84 337.2,481.613 337.8,480.386 338.4,479.159 339,477.932 339.6,476.705 340.2,475.479 340.8,474.253 341.4,473.026 342,471.8 342.6,470.574 343.2,469.348 343.8,468.123 344.4,466.897 345,465.672 345.6,464.446 346.2,463.221 346.8,461.996 347.4,460.771 348,459.546 348.6,458.322 349.2,457.097 349.8,455.873 350.4,454.649 351,453.425 351.6,452.201 352.2,450.977 352.8,449.754 353.4,448.53 354,447.307 354.6,446.084 355.2,444.861 355.8,443.638 356.4,442.415 357,441.193 357.6,439.97 358.2,438.748 358.8,437.526 359.4,436.304 360,435.082 360.6,433.861 361.2,432.639 361.8,431.418 362.4,430.197 363,428.976 363.6,427.755 364.2,426.535 364.8,425.315 365.4,424.094 366,422.874 366.6,421.655 367.2,420.435 367.8,419.215 368.4,417.996 369,416.777 369.6,415.558 370.2,414.34 370.8,413.121 371.4,411.903 372,410.685 372.6,409.467 373.2,408.249 373.8,407.031 374.4,405.814 375,404.597 375.6,403.38 376.2,402.163 376.8,400.947 377.4,399.73 378,398.514 378.6,455.02 379.2,453.787 379.8,452.554 380.4,451.321 381,450.088 381.6,448.855 382.2,447.621 382.8,446.388 383.4,445.155 384,443.922 384.6,442.689 385.2,441.456 385.8,440.223 386.4,438.99 387,437.756 387.6,436.523 388.2,435.29 388.8,434.057 389.4,432.824 390,431.591 390.6,430.358 391.2,429.125 391.8,427.892 392.4,426.658 393,425.425 393.6,424.192 394.2,422.959 394.8,421.726 395.4,420.493 396,419.26 396.6,418.027 397.2,416.793 397.8,415.56 398.4,414.327 399,413.094 399.6,411.861 400.2,410.628 400.8,409.395 401.4,408.162 402,406.929 402.6,405.695 403.2,404.462 403.8,403.229 404.4,401.996 405,400.763 405.6,399.53 406.2,398.297 406.8,397.064 407.4,395.831 408,394.597 408.6,393.364 409.2,392.131 409.8,390.898 410.4,389.665 411,388.432 411.6,387.199 412.2,385.966 412.8,384.732 413.4,383.499 414,382.266 414.6,381.033 415.2,379.8 415.8,378.567 416.4,377.334 417,376.101 417.6,374.868 418.2,373.634 418.8,372.401 419.4,371.168 420,369.935 420.6,368.702 421.2,367.469 421.8,366.236 422.4,365.003 423,363.769 423.6,362.536 424.2,361.303 424.8,360.07 425.4,358.837 426,357.604 426.6,356.371 427.2,355.138 427.8,353.905 428.4,352.671 429,351.438 429.6,350.205 430.2,348.972 430.8,347.739 431.4,346.506 432,345.273 432.6,344.04 433.2,342.806 433.8,341.573 434.4,340.34 435,339.107 435.6,337.874 436.2,336.641 436.8,335.408 437.4,334.175 438,332.942 438.6,331.708 439.2,330.475 439.8,329.242 440.4,328.009 441,326.776 441.6,325.543 442.2,324.31 442.8,323.077 443.4,321.843 444,320.61 444.6,319.377 445.2,318.144 445.8,316.911 446.4,315.678 447,314.445 447.6,313.212 448.2,311.979 448.8,310.745 449.4,309.512 450,308.279 450.6,307.046 451.2,305.813 451.8,304.58 452.4,303.347 453,302.114 453.6,300.881 454.2,299.647 454.8,298.414 455.4,297.181 456,295.948 456.6,294.715 457.2,293.482 457.8,292.249 458.4,291.016 459,289.782 459.6,288.549 460.2,287.316 460.8,286.083 461.4,284.85 462,283.617 462.6,282.384 463.2,281.151 463.8,279.918 464.4,278.684 465,277.451 465.6,276.218 466.2,274.985 466.8,273.752 467.4,272.519 468,271.286 468.6,270.053 469.2,268.819 469.8,267.586 470.4,266.353 471,265.12 471.6,263.887 472.2,262.654 472.8,261.421 473.4,260.188 474,258.955 474.6,257.721 475.2,256.488 475.8,255.255 476.4,254.022 477,252.789 477.6,251.556 478.2,250.323 478.8,249.09 479.4,247.856 480,246.623 480.6,245.39 481.2,244.157 481.8,242.924 482.4,241.691 483,240.458 483.6,239.225 484.2,237.992 484.8,236.758 485.4,235.525 486,234.292 486.6,233.059 487.2,231.826 487.8,230.593 488.4,229.36 489,228.127 489.6,226.893 490.2,225.66 490.8,224.427 491.4,223.194 492,221.961 492.6,220.728 493.2,219.495 493.8,218.262 494.4,217.029 495,215.795 495.6,214.562 496.2,213.329 496.8,212.096 497.4,210.863 498,209.63 498.6,208.397 499.2,207.164 499.8,205.931 500.4,204.697 501,203.464 501.6,202.231 502.2,200.998 502.8,199.765 503.4,198.532 504,197.299 504.6,196.066 505.2,194.832 505.8,193.599 506.4,192.366 507,191.133 507.6,189.9 508.2,188.667 508.8,187.434 509.4,186.201 510,184.968 510.6,183.734 511.2,182.501 511.8,181.268 512.4,180.035 513,178.802 513.6,177.569 514.2,176.336 514.8,175.103 515.4,173.869 516,172.636 516.6,171.403 517.2,170.17 517.8,168.937 518.4,167.704 519,166.471 519.6,165.238 520.2,164.005 520.8,162.771 521.4,161.538 522,160.305 522.6,159.072 523.2,157.839 523.8,156.606 524.4,155.373 525,154.14 525.6,152.906 526.2,151.673 526.8,150.44 527.4,149.207 528,147.974 528.6,146.741 529.2,145.508 529.8,144.275 530.4,143.042 531,141.808 531.6,140.575 532.2,139.342 532.8,138.109 533.4,136.876 534,135.643 534.6,134.41 535.2,133.177 535.8,131.944 536.4,130.71 537,129.477 537.6,128.244 538.2,127.011 538.8,125.778 539.4,124.545 540,123.312 540.6,122.079 541.2,120.845 541.8,119.612 542.4,118.379 543,117.146 543.6,115.913 544.2,114.68 544.8,113.447 545.4,112.214 546,110.981 546.6,109.747 547.2,108.514 547.8,107.281 548.4,106.048 549,104.815 549.6,103.582 550.2,102.349 550.8,101.116 551.4,99.8825 552,98.6493 552.6,97.4162 553.2,96.1831 553.8,94.95 554.4,93.7169 555,92.4838 555.6,91.2506 556.2,90.0175 556.8,88.7844 557.4,87.5513 558,86.3182 558.6,85.0851 559.2,83.8519 559.8,82.6188 560.4,81.3857 561,80.1526 561.6,78.9195 562.2,77.6864 562.8,76.4532 563.4,75.2201 564,73.987 564.6,72.7539 565.2,71.5208 565.8,70.2877 566.4,69.0545 567,67.8214 567.6,66.5883 568.2,65.3552 568.8,64.1221 569.4,62.889 570,61.6558 570.6,60.4227 571.2,59.1896 571.8,57.9565 572.4,56.7234 573,55.4903 573.6,54.2571 574.2,53.024 574.8,51.7909 575.4,50.5578 576,49.3247 576.6,48.0916 577.2,46.8584 577.8,45.6253 578.4,44.3922 579,43.1591 579.6,41.926 580.2,40.6929 580.8,39.4597 581.4,38.2266 582,36.9935 582.6,35.7604 583.2,34.5273 583.8,33.2942 584.4,32.061 585,30.8279 585.6,29.5948 586.2,28.3617 586.8,27.1286 587.4,25.8955 588,24.6623 588.6,23.4292 589.2,22.1961 589.8,20.963 590.4,19.7299 591,18.4968 591.6,17.2636 592.2,16.0305 592.8,14.7974 593.4,13.5643 594,12.3312 594.6,11.0981 595.2,9.86493 595.8,8.63182 596.4,7.3987 597,6.16558 597.6,4.93247 598.2,3.69935 598.8,2.46623 599.4,1.23312 600,0 " />

<!--Draw Glitches -->

<line fill="none" stroke="black" stroke-width="2" x1="247.8" y1="525.652" x2="247.8" y2="475.652" />
<text transform="scale(1,-1)" font-family="sans-serif" font-size="30" x="252.8" y="-475.652" >412</text>
<line fill="none" stroke="black" stroke-width="2" x1="278.4" y1="464.092" x2="278.4" y2="414.092" />
<text transform="scale(1,-1)" font-family="sans-serif" font-size="30" x="283.4" y="-414.092" >463</text>
<line fill="none" stroke="black" stroke-width="2" x1="378.6" y1="445.02" x2="378.6" y2="395.02" />
<text transform="scale(1,-1)" font-family="sans-serif" font-size="30" x="383.6" y="-395.02" >630</text>

<!-- -->


<!--Draw the X and Y axes -->
<polyline fill="none" stroke="black" stroke-width="6"  points=" 600,0 0,0 0, 600" />
<polyline fill="none" stroke="black" stroke-width="1"  points=" 0 600  600 600  600 0" />
<!-- -->


<!--Draw labels and tics for X axis -->

<line fill="none" stroke="black"  stroke-width="6"  x1="0.5" y1="0" x2="0.5" y2="-20" />
<text transform="scale(1,-1)" font-family="sans-serif" font-size="30" x="-24.5" y="45" >0</text>
<line fill="none" stroke="black"  stroke-width="6"  x1="120.5" y1="0" x2="120.5" y2="-20" />
<text transform="scale(1,-1)" font-family="sans-serif" font-size="30" x="95.5" y="45" >200</text>
<line fill="none" stroke="black"  stroke-width="6"  x1="240.5" y1="0" x2="240.5" y2="-20" />
<text transform="scale(1,-1)" font-family="sans-serif" font-size="30" x="215.5" y="45" >400</text>
<line fill="none" stroke="black"  stroke-width="6"  x1="360.5" y1="0" x2="360.5" y2="-20" />
<text transform="scale(1,-1)" font-family="sans-serif" font-size="30" x="335.5" y="45" >600</text>
<line fill="none" stroke="black"  stroke-width="6"  x1="480.5" y1="0" x2="480.5" y2="-20" />
<text transform="scale(1,-1)" font-family="sans-serif" font-size="30" x="455.5" y="45" >800</text>
<line fill="none" stroke="black"  stroke-width="6"  x1="600.5" y1="0" x2="600.5" y2="-20" />
<text transform="scale(1,-1)" font-family="sans-serif" font-size="30" x="575.5" y="45" >1000</text>


<!--Draw labels and tics for Y axis -->

<line fill="none" stroke="black" stroke-width="6" x1="0.0" y1="0" x2="-20" y2="0" />
<text transform="scale(1,-1)" text-anchor="end" font-family="sans-serif" font-size="30" x="-25" y="10" >0</text>
<line fill="none" stroke="black" stroke-width="6" x1="0.0" y1="120" x2="-20" y2="120" />
<text transform="scale(1,-1)" text-anchor="end" font-family="sans-serif" font-size="30" x="-25" y="-110" >5</text>
<line fill="none" stroke="black" stroke-width="6" x1="0.0" y1="240" x2="-20" y2="240" />
<text transform="scale(1,-1)" text-anchor="end" font-family="sans-serif" font-size="30" x="-25" y="-230" >10</text>
<line fill="none" stroke="black" stroke-width="6" x1="0.0" y1="360" x2="-20" y2="360" />
<text transform="scale(1,-1)" text-anchor="end" font-family="sans-serif" font-size="30" x="-25" y="-350" >15</text>
<line fill="none" stroke="black" stroke-width="6" x1="0.0" y1="480" x2="-20" y2="480" />
<text transform="scale(1,-1)" text-anchor="end" font-family="sans-serif" font-size="30" x="-25" y="-470" >20</text>
<line fill="none" stroke="black" stroke-width="6" x1="0.0" y1="600" x2="-20" y2="600" />
<text transform="scale(1,-1)" text-anchor="end" font-family="sans-serif" font-size="30" x="-25" y="-590" >25</text>

-->
</g>
</g>
<!-- Run Constants
CIRCLEPLOT bool false
DISTANCEPLOT bool true
PRINTDISTANCEDATA bool true
GLITCHESONLY bool false
PLOT 2doubles 3 4
PERTURBBY double 0.05
GLITCHLEVEL double 3
BOUNDARYWINDOW double 0.065
FRAMESPERPATH int 200
STEPSPERFRAME int 1000
TRIALS int 10
ALLBLACK bool true
FILEPREFIX string Fol
GRAPHSIZE int 0
BORDER int 0
PLOTSIZE int 0
G6LINEWIDTH int 3
DELONELINEWIDTH int 10
AXISWIDTH int 6
TICLENGTH int 20
VECTOR g6 
FOLLOWERMODE FollowerMode point
FIXRANDOMSEED fixRandomSeed false
RANDOMSEED int 19191
TIMESTAMP bool true
END end 




-->
</svg>
