<?xml version="1.0" standalone="no"?>
<!-- the width and height set the total pixel output of the image in the browser -->
<!-- whatever is within the viewbox will be remapped to show in this size -->
<svg width="900" height="900" viewBox="1 0900 900"  version="1.1" xmlns="http://www.w3.org/2000/svg" xmlns:xlink="http://www.w3.org/1999/xlink">
 <desc>ID (and file name) = LINE3_RAND_20%_.89_0.svg  mode = LINE3 </desc> 
<g transform = "scale(1 1)">

<text x = "-850" y="50" transform="rotate(-90)"  font-family="sans-serif" font-size="40" stroke ="lightgray" fill="none"> PointDistanceFollower   Jun 17 2018</text>
 <text x="140"  y="30"  font-family="sans-serif" font-size="20" >LINE3_RAND_20%_.89_0.svg  &#160;&#160;&#160;&#160;&#160; Wall time passed: 45 msec.</text>
<text x="300" y="60"   font-family="sans-serif" font-size="20" fill="lightblue">S6  lightblue     msec  43</text>
<text x="300" y="85"   font-family="sans-serif" font-size="20" fill="olive">CS6Dist  olive     msec  2</text>



 <!--DISTANCE PLOT BEGINS   mode = LINE3-->


<!-- the following will scale and place the distance plot -->
<g transform="translate(150,850) scale(1 -1)">
   <polyline fill="none" stroke=" lightblue " stroke-width=" 12 " points=" 6.93069,27.2689 13.8614,28.9943 20.7921,30.9641 27.7228,33.1687 34.6535,35.5978 41.5842,38.2409 48.5149,41.0873 55.4455,44.1261 62.3762,47.3466 69.3069,50.7384 76.2376,54.2913 83.1683,57.9954 90.099,61.8413 97.0297,65.8201 103.96,69.9232 110.891,74.1427 117.822,78.471 124.752,82.9009 131.683,87.426 138.614,92.04 145.545,96.737 152.475,101.099 159.406,100.013 166.337,104.025 173.267,108.813 180.198,114.33 187.129,120.524 194.059,127.343 200.99,134.738 207.921,142.657 214.851,151.301 221.782,160.784 228.713,170.639 235.644,180.827 242.574,188.31 249.505,194.531 256.436,201.249 263.366,208.432 270.297,216.052 277.228,224.077 284.158,232.482 291.089,241.238 298.02,250.32 304.95,259.706 311.881,269.372 318.812,279.299 325.743,289.467 332.673,297.589 339.604,302.374 346.535,307.569 353.465,313.159 360.396,319.224 367.327,328.863 374.257,339.419 381.188,350.891 388.119,363.107 395.05,373.558 401.98,400.603 408.911,431.047 415.842,462.002 422.772,494.674 429.703,526.864 436.634,538.583 443.564,622.189 " />

<line fill="none" stroke-dasharray = "10, 10"  stroke="orange" stroke-width="6" x1="450.495" y1="350" x2="693.069" y2="350" />
   <polyline fill="none" stroke=" olive " stroke-width=" 3 " points=" 6.93069,28.3789 13.8614,30.2613 20.7921,32.3883 27.7228,34.7464 34.6535,37.3217 41.5842,40.1009 48.5149,43.0705 55.4455,46.2178 62.3762,49.5305 69.3069,52.9969 76.2376,56.6061 83.1683,60.3477 90.099,64.212 97.0297,68.1902 103.96,72.2738 110.891,76.4553 117.822,80.7274 124.752,85.0836 131.683,89.5178 138.614,94.0246 145.545,98.5988 152.475,102.757 159.406,100.013 166.337,104.025 173.267,108.813 180.198,114.33 187.129,120.524 194.059,127.343 200.99,134.738 207.921,142.657 214.851,151.393 221.782,161.137 228.713,171.264 235.644,181.737 242.574,189.508 249.505,196.021 256.436,203.037 263.366,210.527 270.297,218.46 277.228,226.808 284.158,235.541 291.089,244.632 298.02,254.058 304.95,263.792 311.881,273.814 318.812,284.102 325.743,293.227 332.673,297.589 339.604,302.374 346.535,307.569 353.465,313.159 360.396,319.319 367.327,331.87 374.257,345.271 381.188,357.049 388.119,369.501 395.05,374.848 401.98,400.603 408.911,431.047 415.842,462.002 422.772,494.674 429.703,528.802 436.634,539.059 443.564,622.318 " />

<line fill="none" stroke-dasharray = "10, 10"  stroke="orange" stroke-width="6" x1="450.495" y1="350" x2="693.069" y2="350" />

<!--Draw Glitches -->


<!-- -->


<!--Draw Glitches -->


<!-- -->


<!--Draw the X and Y axes -->
<polyline fill="none" stroke="black" stroke-width="6"  points=" 700,0 0,0 0, 700" />
<polyline fill="none" stroke="black" stroke-width="1"  points=" 0 700  700 700  700 0" />
<!-- -->


<!--Draw labels and tics for X axis -->

<line fill="none" stroke="black"  stroke-width="6"  x1="0.5" y1="0" x2="0.5" y2="-20" />
<text transform="scale(1,-1)" font-family="sans-serif" font-size="30" x="-24.5" y="45" >0</text>
<line fill="none" stroke="black"  stroke-width="6"  x1="139.114" y1="0" x2="139.114" y2="-20" />
<text transform="scale(1,-1)" font-family="sans-serif" font-size="30" x="114.114" y="45" >20</text>
<line fill="none" stroke="black"  stroke-width="6"  x1="277.728" y1="0" x2="277.728" y2="-20" />
<text transform="scale(1,-1)" font-family="sans-serif" font-size="30" x="252.728" y="45" >40</text>
<line fill="none" stroke="black"  stroke-width="6"  x1="416.342" y1="0" x2="416.342" y2="-20" />
<text transform="scale(1,-1)" font-family="sans-serif" font-size="30" x="391.342" y="45" >60</text>
<line fill="none" stroke="black"  stroke-width="6"  x1="554.955" y1="0" x2="554.955" y2="-20" />
<text transform="scale(1,-1)" font-family="sans-serif" font-size="30" x="529.955" y="45" >80</text>
<line fill="none" stroke="black"  stroke-width="6"  x1="693.569" y1="0" x2="693.569" y2="-20" />
<text transform="scale(1,-1)" font-family="sans-serif" font-size="30" x="668.569" y="45" >100</text>


<!--Draw labels and tics for Y axis -->

<line fill="none" stroke="black" stroke-width="6" x1="0.0" y1="0" x2="-20" y2="0" />
<text transform="scale(1,-1)" text-anchor="end" font-family="sans-serif" font-size="30" x="-25" y="10" >500</text>
<line fill="none" stroke="black" stroke-width="6" x1="0.0" y1="116.667" x2="-20" y2="116.667" />
<text transform="scale(1,-1)" text-anchor="end" font-family="sans-serif" font-size="30" x="-25" y="-106.667" >1000</text>
<line fill="none" stroke="black" stroke-width="6" x1="0.0" y1="233.333" x2="-20" y2="233.333" />
<text transform="scale(1,-1)" text-anchor="end" font-family="sans-serif" font-size="30" x="-25" y="-223.333" >1500</text>
<line fill="none" stroke="black" stroke-width="6" x1="0.0" y1="350" x2="-20" y2="350" />
<text transform="scale(1,-1)" text-anchor="end" font-family="sans-serif" font-size="30" x="-25" y="-340" >2000</text>
<line fill="none" stroke="black" stroke-width="6" x1="0.0" y1="466.667" x2="-20" y2="466.667" />
<text transform="scale(1,-1)" text-anchor="end" font-family="sans-serif" font-size="30" x="-25" y="-456.667" >2500</text>
<line fill="none" stroke="black" stroke-width="6" x1="0.0" y1="583.333" x2="-20" y2="583.333" />
<text transform="scale(1,-1)" text-anchor="end" font-family="sans-serif" font-size="30" x="-25" y="-573.333" >3000</text>
<line fill="none" stroke="black" stroke-width="6" x1="0.0" y1="700" x2="-20" y2="700" />
<text transform="scale(1,-1)" text-anchor="end" font-family="sans-serif" font-size="30" x="-25" y="-690" >3500</text>

-->
</g>
</g>
<!-- Run Constants
PRINTDISTANCEDATA bool true
GLITCHESONLY bool false
PERTURBBY double 20
GLITCHLEVEL double 3
BOUNDARYWINDOW double 0.065
STEPSPERFRAME int 100
TRIALS int 1
ALLBLACK bool true
FILEPREFIX string LINE3_RAND_20%
ENABLE DistanceEnableString 
DISABLE DistanceDisableString 
GRAPHSIZE int 0
BORDER int 0
PLOTSIZE int 0
AXISWIDTH int 6
TICLENGTH int 20
VECTOR g6 
FOLLOWERMODE FollowerMode line
FIXRANDOMSEED fixRandomSeed false
RANDOMSEED int 19191
TIMESTAMP bool false
END end 


-->
</svg>
