<?xml version="1.0" standalone="no"?>
<!-- the width and height set the total pixel output of the image in the browser -->
<!-- whatever is within the viewbox will be remapped to show in this size -->
<svg width="900" height="900" viewBox="1 0900 900"  version="1.1" xmlns="http://www.w3.org/2000/svg" xmlns:xlink="http://www.w3.org/1999/xlink">
 <desc>ID (and file name) = LINE3_RAND_20%_.6_0.svg  mode = LINE3 </desc> 
<g transform = "scale(1 1)">

<text x = "-850" y="50" transform="rotate(-90)"  font-family="sans-serif" font-size="40" stroke ="lightgray" fill="none"> PointDistanceFollower   Jun 17 2018</text>
 <text x="140"  y="30"  font-family="sans-serif" font-size="20" >LINE3_RAND_20%_.6_0.svg  &#160;&#160;&#160;&#160;&#160; Wall time passed: 58 msec.</text>
<text x="300" y="60"   font-family="sans-serif" font-size="20" fill="lightblue">S6  lightblue     msec  55</text>
<text x="300" y="85"   font-family="sans-serif" font-size="20" fill="olive">CS6Dist  olive     msec  2</text>



 <!--DISTANCE PLOT BEGINS   mode = LINE3-->


<!-- the following will scale and place the distance plot -->
<g transform="translate(150,850) scale(1 -1)">
   <polyline fill="none" stroke=" lightblue " stroke-width=" 12 " points=" 6.93069,166.355 13.8614,161.988 20.7921,159.548 27.7228,159.044 34.6535,160.477 41.5842,163.844 48.5149,169.131 55.4455,208.815 62.3762,205.138 69.3069,184.191 76.2376,162.981 83.1683,143.133 90.099,124.698 97.0297,107.721 103.96,92.2482 110.891,78.3232 117.822,65.9861 124.752,55.2736 131.683,46.2187 138.614,38.8499 145.545,33.1908 152.475,29.26 159.406,27.0705 166.337,26.6296 173.267,27.9387 180.198,30.9935 187.129,35.7838 194.059,42.2938 200.99,50.5026 207.921,60.3838 214.851,71.9068 221.782,85.0366 228.713,99.7346 235.644,115.959 242.574,133.666 249.505,152.808 256.436,173.337 263.366,195.205 270.297,218.361 277.228,242.755 284.158,268.338 291.089,295.058 298.02,322.868 304.95,351.719 311.881,381.564 318.812,412.358 325.743,637.4 332.673,644.179 339.604,652.189 346.535,485.909 353.465,471.998 360.396,459.363 367.327,348.774 374.257,341.55 381.188,335.761 388.119,331.42 395.05,328.537 401.98,327.12 408.911,327.171 415.842,328.69 422.772,331.674 429.703,336.115 436.634,321.853 443.564,301.588 450.495,282.603 457.426,264.939 464.356,248.634 471.287,233.726 478.218,220.25 485.149,208.24 492.079,197.725 499.01,188.734 505.941,181.291 512.871,175.414 519.802,171.946 526.733,190.564 533.663,212.644 540.594,238.055 547.525,266.658 554.455,298.303 561.386,332.837 568.317,364.508 575.248,275.59 582.178,274.597 589.109,281.227 596.04,295.396 602.97,316.933 609.901,345.585 616.832,381.033 623.762,422.909 630.693,470.813 637.624,501.55 644.554,496.771 651.485,469.734 658.416,449.306 665.347,434.954 672.277,427.348 679.208,426.77 686.139,388.246 693.069,415.396 " />

   <polyline fill="none" stroke=" olive " stroke-width=" 3 " points=" 6.93069,186.89 13.8614,186.626 20.7921,188.269 27.7228,191.813 34.6535,197.246 41.5842,204.551 48.5149,213.704 55.4455,222.307 62.3762,231.562 69.3069,241.536 76.2376,252.258 83.1683,263.756 90.099,268.07 97.0297,247.876 103.96,229.241 110.891,212.224 117.822,196.882 124.752,183.267 131.683,171.428 138.614,161.41 145.545,153.251 152.475,146.983 159.406,142.631 166.337,140.213 173.267,139.739 180.198,141.211 187.129,144.623 194.059,149.961 200.99,157.203 207.921,166.32 214.851,177.277 221.782,190.033 228.713,204.541 235.644,220.749 242.574,238.603 249.505,258.045 256.436,279.015 263.366,301.453 270.297,325.295 277.228,350.48 284.158,376.947 291.089,404.635 298.02,433.483 304.95,463.434 311.881,494.433 318.812,521.59 325.743,504.962 332.673,489.736 339.604,475.95 346.535,463.638 353.465,452.83 360.396,443.557 367.327,435.843 374.257,429.709 381.188,425.172 388.119,422.246 395.05,420.938 401.98,421.252 408.911,414.877 415.842,389.911 422.772,366.056 429.703,343.356 436.634,321.853 443.564,301.588 450.495,282.603 457.426,264.939 464.356,248.634 471.287,233.726 478.218,220.25 485.149,208.24 492.079,197.725 499.01,188.734 505.941,181.291 512.871,175.414 519.802,172.585 526.733,206.618 533.663,243.623 540.594,283.597 547.525,326.52 554.455,372.36 561.386,421.069 568.317,472.588 575.248,481.67 582.178,480.464 589.109,487.141 596.04,501.609 602.97,523.676 609.901,553.064 616.832,543.075 623.762,522.62 630.693,508.734 637.624,501.55 644.554,496.771 651.485,469.734 658.416,449.306 665.347,435.69 672.277,429.028 679.208,429.391 686.139,453.846 693.069,415.396 " />


<!--Draw Glitches -->

<line fill="none" stroke="black" stroke-width="4" x1="325.743" y1="627.4" x2="325.743" y2="577.4"  stroke-dasharray = "10,5" />
<text transform="scale(1,-1)" font-family="sans-serif" font-size="30" stroke = "rgb(0,0,0)" line = "rgb(0,0,0)"  fill = "lightblue" x="330.743" y="-577.4" >46</text>

<!-- -->


<!--Draw the X and Y axes -->
<polyline fill="none" stroke="black" stroke-width="6"  points=" 700,0 0,0 0, 700" />
<polyline fill="none" stroke="black" stroke-width="1"  points=" 0 700  700 700  700 0" />
<!-- -->


<!--Draw labels and tics for X axis -->

<line fill="none" stroke="black"  stroke-width="6"  x1="0.5" y1="0" x2="0.5" y2="-20" />
<text transform="scale(1,-1)" font-family="sans-serif" font-size="30" x="-24.5" y="45" >0</text>
<line fill="none" stroke="black"  stroke-width="6"  x1="139.114" y1="0" x2="139.114" y2="-20" />
<text transform="scale(1,-1)" font-family="sans-serif" font-size="30" x="114.114" y="45" >20</text>
<line fill="none" stroke="black"  stroke-width="6"  x1="277.728" y1="0" x2="277.728" y2="-20" />
<text transform="scale(1,-1)" font-family="sans-serif" font-size="30" x="252.728" y="45" >40</text>
<line fill="none" stroke="black"  stroke-width="6"  x1="416.342" y1="0" x2="416.342" y2="-20" />
<text transform="scale(1,-1)" font-family="sans-serif" font-size="30" x="391.342" y="45" >60</text>
<line fill="none" stroke="black"  stroke-width="6"  x1="554.955" y1="0" x2="554.955" y2="-20" />
<text transform="scale(1,-1)" font-family="sans-serif" font-size="30" x="529.955" y="45" >80</text>
<line fill="none" stroke="black"  stroke-width="6"  x1="693.569" y1="0" x2="693.569" y2="-20" />
<text transform="scale(1,-1)" font-family="sans-serif" font-size="30" x="668.569" y="45" >100</text>


<!--Draw labels and tics for Y axis -->

<line fill="none" stroke="black" stroke-width="6" x1="0.0" y1="0" x2="-20" y2="0" />
<text transform="scale(1,-1)" text-anchor="end" font-family="sans-serif" font-size="30" x="-25" y="10" >1100</text>
<line fill="none" stroke="black" stroke-width="6" x1="0.0" y1="140" x2="-20" y2="140" />
<text transform="scale(1,-1)" text-anchor="end" font-family="sans-serif" font-size="30" x="-25" y="-130" >1200</text>
<line fill="none" stroke="black" stroke-width="6" x1="0.0" y1="280" x2="-20" y2="280" />
<text transform="scale(1,-1)" text-anchor="end" font-family="sans-serif" font-size="30" x="-25" y="-270" >1300</text>
<line fill="none" stroke="black" stroke-width="6" x1="0.0" y1="420" x2="-20" y2="420" />
<text transform="scale(1,-1)" text-anchor="end" font-family="sans-serif" font-size="30" x="-25" y="-410" >1400</text>
<line fill="none" stroke="black" stroke-width="6" x1="0.0" y1="560" x2="-20" y2="560" />
<text transform="scale(1,-1)" text-anchor="end" font-family="sans-serif" font-size="30" x="-25" y="-550" >1500</text>
<line fill="none" stroke="black" stroke-width="6" x1="0.0" y1="700" x2="-20" y2="700" />
<text transform="scale(1,-1)" text-anchor="end" font-family="sans-serif" font-size="30" x="-25" y="-690" >1600</text>

-->
</g>
</g>
<!-- Run Constants
PRINTDISTANCEDATA bool true
GLITCHESONLY bool false
PERTURBBY double 20
GLITCHLEVEL double 3
BOUNDARYWINDOW double 0.065
STEPSPERFRAME int 100
TRIALS int 1
ALLBLACK bool true
FILEPREFIX string LINE3_RAND_20%
ENABLE DistanceEnableString 
DISABLE DistanceDisableString 
GRAPHSIZE int 0
BORDER int 0
PLOTSIZE int 0
AXISWIDTH int 6
TICLENGTH int 20
VECTOR g6 
FOLLOWERMODE FollowerMode line
FIXRANDOMSEED fixRandomSeed false
RANDOMSEED int 19191
TIMESTAMP bool false
END end 


-->
</svg>
