<?xml version="1.0" standalone="no"?>
<!-- the width and height set the total pixel output of the image in the browser -->
<!-- whatever is within the viewbox will be remapped to show in this size -->
<svg width="900" height="900" viewBox="1 0900 900"  version="1.1" xmlns="http://www.w3.org/2000/svg" xmlns:xlink="http://www.w3.org/1999/xlink">
 <desc>ID (and file name) = LINE3_RAND_20%_.19_0.svg  mode = LINE3 </desc> 
<g transform = "scale(1 1)">

<text x = "-850" y="50" transform="rotate(-90)"  font-family="sans-serif" font-size="40" stroke ="lightgray" fill="none"> PointDistanceFollower   Jun 17 2018</text>
 <text x="140"  y="30"  font-family="sans-serif" font-size="20" >LINE3_RAND_20%_.19_0.svg  &#160;&#160;&#160;&#160;&#160; Wall time passed: 43 msec.</text>
<text x="300" y="60"   font-family="sans-serif" font-size="20" fill="lightblue">S6  lightblue     msec  41</text>
<text x="300" y="85"   font-family="sans-serif" font-size="20" fill="olive">CS6Dist  olive     msec  2</text>



 <!--DISTANCE PLOT BEGINS   mode = LINE3-->


<!-- the following will scale and place the distance plot -->
<g transform="translate(150,850) scale(1 -1)">
   <polyline fill="none" stroke=" lightblue " stroke-width=" 12 " points=" 6.93069,3.56414 13.8614,16.4316 20.7921,31.1506 27.7228,47.6289 34.6535,65.7706 41.5842,85.4779 48.5149,106.653 55.4455,129.2 62.3762,153.025 69.3069,178.038 76.2376,204.154 83.1683,231.293 90.099,259.378 97.0297,288.339 103.96,301.798 110.891,310.527 117.822,320.721 124.752,332.344 131.683,345.352 138.614,359.701 145.545,369.428 152.475,379.694 159.406,391.318 166.337,404.262 173.267,418.486 180.198,433.946 187.129,450.598 194.059,468.397 200.99,484.942 207.921,500.543 214.851,517.048 221.782,534.647 228.713,553.299 235.644,572.964 242.574,593.598 249.505,615.161 256.436,637.612 263.366,660.911 " />

<line fill="none" stroke-dasharray = "10, 10"  stroke="orange" stroke-width="6" x1="270.297" y1="350" x2="693.069" y2="350" />
   <polyline fill="none" stroke=" olive " stroke-width=" 3 " points=" 6.93069,3.56414 13.8614,16.4316 20.7921,31.1506 27.7228,47.6289 34.6535,65.7706 41.5842,85.4779 48.5149,106.653 55.4455,129.2 62.3762,153.025 69.3069,178.038 76.2376,204.154 83.1683,231.293 90.099,259.378 97.0297,288.339 103.96,314.239 110.891,323.065 117.822,333.392 124.752,345.18 131.683,358.384 138.614,372.829 145.545,382.119 152.475,392.828 159.406,404.919 166.337,416.222 173.267,427.462 180.198,439.993 187.129,453.777 194.059,468.773 200.99,484.942 207.921,500.543 214.851,517.048 221.782,534.647 228.713,553.299 235.644,572.964 242.574,593.598 249.505,615.161 256.436,637.612 263.366,660.911 " />

<line fill="none" stroke-dasharray = "10, 10"  stroke="orange" stroke-width="6" x1="270.297" y1="350" x2="693.069" y2="350" />

<!--Draw Glitches -->


<!-- -->


<!--Draw Glitches -->


<!-- -->


<!--Draw the X and Y axes -->
<polyline fill="none" stroke="black" stroke-width="6"  points=" 700,0 0,0 0, 700" />
<polyline fill="none" stroke="black" stroke-width="1"  points=" 0 700  700 700  700 0" />
<!-- -->


<!--Draw labels and tics for X axis -->

<line fill="none" stroke="black"  stroke-width="6"  x1="0.5" y1="0" x2="0.5" y2="-20" />
<text transform="scale(1,-1)" font-family="sans-serif" font-size="30" x="-24.5" y="45" >0</text>
<line fill="none" stroke="black"  stroke-width="6"  x1="139.114" y1="0" x2="139.114" y2="-20" />
<text transform="scale(1,-1)" font-family="sans-serif" font-size="30" x="114.114" y="45" >20</text>
<line fill="none" stroke="black"  stroke-width="6"  x1="277.728" y1="0" x2="277.728" y2="-20" />
<text transform="scale(1,-1)" font-family="sans-serif" font-size="30" x="252.728" y="45" >40</text>
<line fill="none" stroke="black"  stroke-width="6"  x1="416.342" y1="0" x2="416.342" y2="-20" />
<text transform="scale(1,-1)" font-family="sans-serif" font-size="30" x="391.342" y="45" >60</text>
<line fill="none" stroke="black"  stroke-width="6"  x1="554.955" y1="0" x2="554.955" y2="-20" />
<text transform="scale(1,-1)" font-family="sans-serif" font-size="30" x="529.955" y="45" >80</text>
<line fill="none" stroke="black"  stroke-width="6"  x1="693.569" y1="0" x2="693.569" y2="-20" />
<text transform="scale(1,-1)" font-family="sans-serif" font-size="30" x="668.569" y="45" >100</text>


<!--Draw labels and tics for Y axis -->

<line fill="none" stroke="black" stroke-width="6" x1="0.0" y1="0" x2="-20" y2="0" />
<text transform="scale(1,-1)" text-anchor="end" font-family="sans-serif" font-size="30" x="-25" y="10" >1200</text>
<line fill="none" stroke="black" stroke-width="6" x1="0.0" y1="140" x2="-20" y2="140" />
<text transform="scale(1,-1)" text-anchor="end" font-family="sans-serif" font-size="30" x="-25" y="-130" >1400</text>
<line fill="none" stroke="black" stroke-width="6" x1="0.0" y1="280" x2="-20" y2="280" />
<text transform="scale(1,-1)" text-anchor="end" font-family="sans-serif" font-size="30" x="-25" y="-270" >1600</text>
<line fill="none" stroke="black" stroke-width="6" x1="0.0" y1="420" x2="-20" y2="420" />
<text transform="scale(1,-1)" text-anchor="end" font-family="sans-serif" font-size="30" x="-25" y="-410" >1800</text>
<line fill="none" stroke="black" stroke-width="6" x1="0.0" y1="560" x2="-20" y2="560" />
<text transform="scale(1,-1)" text-anchor="end" font-family="sans-serif" font-size="30" x="-25" y="-550" >2000</text>
<line fill="none" stroke="black" stroke-width="6" x1="0.0" y1="700" x2="-20" y2="700" />
<text transform="scale(1,-1)" text-anchor="end" font-family="sans-serif" font-size="30" x="-25" y="-690" >2200</text>

-->
</g>
</g>
<!-- Run Constants
PRINTDISTANCEDATA bool true
GLITCHESONLY bool false
PERTURBBY double 20
GLITCHLEVEL double 3
BOUNDARYWINDOW double 0.065
STEPSPERFRAME int 100
TRIALS int 1
ALLBLACK bool true
FILEPREFIX string LINE3_RAND_20%
ENABLE DistanceEnableString 
DISABLE DistanceDisableString 
GRAPHSIZE int 0
BORDER int 0
PLOTSIZE int 0
AXISWIDTH int 6
TICLENGTH int 20
VECTOR g6 
FOLLOWERMODE FollowerMode line
FIXRANDOMSEED fixRandomSeed false
RANDOMSEED int 19191
TIMESTAMP bool false
END end 


-->
</svg>
