<?xml version="1.0" standalone="no"?>
<!-- the width and height set the total pixel output of the image in the browser -->
<!-- whatever is within the viewbox will be remapped to show in this size -->
<svg width="900" height="900" viewBox="1 0 900 900"  version="1.1" xmlns="http://www.w3.org/2000/svg" xmlns:xlink="http://www.w3.org/1999/xlink">
 <desc>ID (and file name) = POINT_2018-05-27.17_23_05.1_22.svg  mode = Single Point </desc> 
<text x = "-750" y="50" transform="rotate(-90)"  font-family="sans-serif" font-size="40" stroke ="lightgray" fill="none"> PointDistanceFollower   May 27 2018</text>
 <text x="560" y="30" font-family="sans-serif" font-size="20">Wall time passed: 32140 msec.</text>
<text x="300" y="60"   font-family="sans-serif" font-size="20" fill="lightblue">S6  lightblue</text>
<text x="300" y="85"   font-family="sans-serif" font-size="20" fill="slategrey">NCDist  slategrey</text>
<text x="300" y="110"  font-family="sans-serif" font-size="20" fill="violet">D7  violet</text>
<text x="300" y="135"  font-family="sans-serif" font-size="20" fill="olive">CS6Dist  olive</text>

 <text x="140"  y="30"  font-family="sans-serif" font-size="20" >POINT_2018-05-27.17_23_05.1_22.svg  </text> 


 <!--DISTANCE PLOT BEGINS   mode = Single Point-->


<!-- the following will scale and place the distance plot -->
<g  transform="translate(0, 50) ">
<g transform="translate(150,700) scale(1 -1)">
   <polyline fill="none" stroke=" lightblue " stroke-width=" 12 " points=" 5.94059,0 11.8812,34.7778 17.8218,69.5557 23.7624,96.4799 29.703,107.054 35.6436,119.444 41.5842,133.143 47.5248,147.788 53.4653,150.764 59.4059,154.04 65.3465,158.625 71.2871,164.409 77.2277,171.27 83.1683,179.085 89.1089,187.735 95.0495,197.11 100.99,202.141 106.931,205.656 112.871,210.15 118.812,215.56 124.752,221.82 130.693,228.861 136.634,236.612 142.574,243.834 148.515,243.863 154.455,244.358 160.396,245.318 166.337,246.736 172.277,248.605 178.218,250.915 184.158,253.654 190.099,256.808 196.04,257.202 201.98,257.192 207.921,257.626 213.861,258.5 219.802,259.81 225.743,261.55 231.683,263.711 237.624,266.283 243.564,269.255 249.505,272.612 255.446,276.342 261.386,280.428 267.327,284.857 273.267,289.611 279.208,294.676 285.149,300.036 291.089,305.674 297.03,311.577 302.97,316.161 308.911,319.937 314.851,324.02 320.792,325.721 326.733,315.829 332.673,305.989 338.614,296.207 344.554,286.49 350.495,276.843 356.436,267.274 362.376,257.793 368.317,248.408 374.257,239.132 380.198,229.978 386.139,220.961 392.079,212.097 398.02,203.409 403.96,194.917 409.901,186.651 415.842,178.64 421.782,170.921 427.723,163.535 433.663,156.53 439.604,149.958 445.545,143.88 451.485,138.359 457.426,133.466 463.366,129.271 469.307,125.845 475.248,123.251 481.188,121.543 487.129,120.759 493.069,120.916 499.01,122.011 504.95,124.019 510.891,126.897 516.832,130.587 522.772,128.13 528.713,117.452 534.653,106.775 540.594,96.0974 546.535,85.4199 552.475,74.7424 558.416,64.0649 564.356,53.3874 570.297,42.7099 576.238,32.0325 582.178,21.355 588.119,10.6775 594.059,0 " />

   <polyline fill="none" stroke=" slategrey " stroke-width=" 9 " points=" 5.94059,0 11.8812,25.7091 17.8218,51.4182 23.7624,77.1274 29.703,102.836 35.6436,128.546 41.5842,154.255 47.5248,178.865 53.4653,200.945 59.4059,227.89 65.3465,228.751 71.2871,232.47 77.2277,237.565 83.1683,242.772 89.1089,249.679 95.0495,258.15 100.99,268.035 106.931,279.185 112.871,291.455 118.812,304.709 124.752,318.825 130.693,333.694 136.634,349.218 142.574,367.129 148.515,397.729 154.455,413.499 160.396,427.773 166.337,442.32 172.277,457.109 178.218,472.11 184.158,484.678 190.099,496.54 196.04,508.717 201.98,521.187 207.921,533.93 213.861,546.537 219.802,556.089 225.743,565.769 231.683,575.575 237.624,580.977 243.564,584.255 249.505,587.721 255.446,583.013 261.386,574.632 267.327,566.343 273.267,558.147 279.208,550.051 285.149,542.058 291.089,534.173 297.03,526.401 302.97,518.747 308.911,511.216 314.851,503.814 320.792,496.547 326.733,489.42 332.673,482.439 338.614,475.612 344.554,468.945 350.495,462.444 356.436,456.118 362.376,449.973 368.317,444.016 374.257,438.256 380.198,432.7 386.139,427.357 392.079,422.234 398.02,417.34 403.96,412.682 409.901,408.269 415.842,404.108 421.782,400.208 427.723,396.57 433.663,387.469 439.604,378.575 445.545,369.897 451.485,361.442 457.426,353.219 463.366,343.006 469.307,331.896 475.248,321.21 481.188,310.992 487.129,301.289 493.069,292.152 499.01,283.637 504.95,275.801 510.891,268.704 516.832,262.405 522.772,255.222 528.713,239.453 534.653,223.954 540.594,208.78 546.535,193.997 552.475,180.495 558.416,163.106 564.356,144.504 570.297,115.603 576.238,86.7024 582.178,57.8016 588.119,28.9008 594.059,0 " />

   <polyline fill="none" stroke=" violet " stroke-width=" 6 " points=" 5.94059,4.16149e-05 11.8812,61.5859 17.8218,123.172 23.7624,175.465 29.703,207.22 35.6436,239.704 41.5842,266.776 47.5248,278.506 53.4653,292.339 59.4059,310.359 65.3465,322.521 71.2871,332.793 77.2277,343.778 83.1683,351.679 89.1089,361.724 95.0495,368.007 100.99,375.02 106.931,383.158 112.871,392.353 118.812,402.53 124.752,413.619 130.693,425.548 136.634,438.247 142.574,450.048 148.515,451.875 154.455,454.263 160.396,457.221 166.337,460.755 172.277,464.868 178.218,469.563 184.158,474.839 190.099,480.691 196.04,486.488 201.98,485.531 207.921,485.134 213.861,485.299 219.802,486.023 225.743,487.304 231.683,487.015 237.624,482.628 243.564,479.071 249.505,479.564 255.446,483.881 261.386,491.032 267.327,495.102 273.267,499.003 279.208,503.536 285.149,508.671 291.089,514.378 297.03,520.633 302.97,527.412 308.911,521.636 314.851,507.081 320.792,492.589 326.733,478.164 332.673,463.814 338.614,449.544 344.554,435.364 350.495,421.282 356.436,407.308 362.376,393.454 368.317,379.733 374.257,366.159 380.198,352.751 386.139,339.527 392.079,326.51 398.02,313.726 403.96,301.204 409.901,288.979 415.842,277.089 421.782,265.58 427.723,254.503 433.663,243.918 439.604,233.89 445.545,224.496 451.485,215.817 457.426,207.943 463.366,200.968 469.307,194.99 475.248,190.102 481.188,186.391 487.129,183.926 493.069,182.76 499.01,182.916 504.95,184.391 510.891,187.154 516.832,191.15 522.772,186.834 528.713,171.265 534.653,155.695 540.594,140.126 546.535,124.556 552.475,108.987 558.416,93.4172 564.356,77.8477 570.297,62.2781 576.238,46.7086 582.178,31.1391 588.119,15.5695 594.059,4.16149e-05 " />

   <polyline fill="none" stroke=" olive " stroke-width=" 3 " points=" 5.94059,0 11.8812,34.7778 17.8218,69.5557 23.7624,98.956 29.703,116.979 35.6436,136.167 41.5842,151.035 47.5248,152.472 53.4653,158.032 59.4059,163.274 65.3465,167.374 71.2871,172.811 77.2277,179.447 83.1683,187.136 89.1089,195.74 95.0495,199.656 100.99,202.141 106.931,205.656 112.871,210.15 118.812,215.56 124.752,221.82 130.693,228.861 136.634,236.612 142.574,244.02 148.515,245.515 154.455,247.595 160.396,250.287 166.337,253.613 172.277,257.593 178.218,262.238 184.158,267.156 190.099,271.224 196.04,270.997 201.98,270.888 207.921,271.355 213.861,272.401 219.802,274.022 225.743,276.211 231.683,278.956 237.624,282.241 243.564,286.046 249.505,290.347 255.446,295.121 261.386,300.341 267.327,305.98 273.267,312.011 279.208,318.408 285.149,325.146 291.089,331.696 297.03,336.311 302.97,341.379 308.911,345.646 314.851,335.662 320.792,325.721 326.733,315.829 332.673,305.989 338.614,296.207 344.554,286.49 350.495,276.843 356.436,267.274 362.376,257.793 368.317,248.408 374.257,239.132 380.198,229.978 386.139,220.961 392.079,212.097 398.02,203.409 403.96,194.917 409.901,186.651 415.842,178.64 421.782,170.921 427.723,163.535 433.663,156.53 439.604,149.958 445.545,143.88 451.485,138.359 457.426,133.466 463.366,129.271 469.307,125.845 475.248,123.251 481.188,121.543 487.129,120.759 493.069,120.916 499.01,122.011 504.95,124.019 510.891,126.897 516.832,130.587 522.772,128.13 528.713,117.452 534.653,106.775 540.594,96.0974 546.535,85.4199 552.475,74.7424 558.416,64.0649 564.356,53.3874 570.297,42.7099 576.238,32.0325 582.178,21.355 588.119,10.6775 594.059,0 " />


<!--Draw Glitches -->

<line fill="none" stroke="black" stroke-width="4" x1="29.703" y1="97.054" x2="29.703" y2="47.054"  stroke-dasharray = "10,5" />
<text transform="scale(1,-1)" font-family="sans-serif" font-size="30" stroke = "rgb(0,0,0)" line = "rgb(0,0,0)"  fill = "lightblue" x="34.703" y="-47.054" >4</text>

<!-- -->


<!--Draw Glitches -->

<line fill="none" stroke="black" stroke-width="4" x1="570.297" y1="105.603" x2="570.297" y2="55.6032"  stroke-dasharray = "10,5" />
<text transform="scale(1,-1)" font-family="sans-serif" font-size="30" stroke = "rgb(0,0,0)" line = "rgb(0,0,0)"  fill = "slategrey" x="575.297" y="-55.6032" >95</text>

<!-- -->


<!--Draw Glitches -->

<line fill="none" stroke="black" stroke-width="4" x1="29.703" y1="197.22" x2="29.703" y2="147.22"  stroke-dasharray = "10,5" />
<text transform="scale(1,-1)" font-family="sans-serif" font-size="30" stroke = "rgb(0,0,0)" line = "rgb(0,0,0)"  fill = "violet" x="34.703" y="-147.22" >4</text>

<!-- -->


<!--Draw Glitches -->

<line fill="none" stroke="black" stroke-width="4" x1="29.703" y1="106.979" x2="29.703" y2="56.9786"  stroke-dasharray = "10,5" />
<text transform="scale(1,-1)" font-family="sans-serif" font-size="30" stroke = "rgb(0,0,0)" line = "rgb(0,0,0)"  fill = "olive" x="34.703" y="-56.9786" >4</text>

<!-- -->


<!--Draw the X and Y axes -->
<polyline fill="none" stroke="black" stroke-width="6"  points=" 600,0 0,0 0, 600" />
<polyline fill="none" stroke="black" stroke-width="1"  points=" 0 600  600 600  600 0" />
<!-- -->


<!--Draw labels and tics for X axis -->

<line fill="none" stroke="black"  stroke-width="6"  x1="0.5" y1="0" x2="0.5" y2="-20" />
<text transform="scale(1,-1)" font-family="sans-serif" font-size="30" x="-24.5" y="45" >0</text>
<line fill="none" stroke="black"  stroke-width="6"  x1="119.312" y1="0" x2="119.312" y2="-20" />
<text transform="scale(1,-1)" font-family="sans-serif" font-size="30" x="94.3119" y="45" >20</text>
<line fill="none" stroke="black"  stroke-width="6"  x1="238.124" y1="0" x2="238.124" y2="-20" />
<text transform="scale(1,-1)" font-family="sans-serif" font-size="30" x="213.124" y="45" >40</text>
<line fill="none" stroke="black"  stroke-width="6"  x1="356.936" y1="0" x2="356.936" y2="-20" />
<text transform="scale(1,-1)" font-family="sans-serif" font-size="30" x="331.936" y="45" >60</text>
<line fill="none" stroke="black"  stroke-width="6"  x1="475.748" y1="0" x2="475.748" y2="-20" />
<text transform="scale(1,-1)" font-family="sans-serif" font-size="30" x="450.748" y="45" >80</text>
<line fill="none" stroke="black"  stroke-width="6"  x1="594.559" y1="0" x2="594.559" y2="-20" />
<text transform="scale(1,-1)" font-family="sans-serif" font-size="30" x="569.559" y="45" >100</text>


<!--Draw labels and tics for Y axis -->

<line fill="none" stroke="black" stroke-width="6" x1="0.0" y1="0" x2="-20" y2="0" />
<text transform="scale(1,-1)" text-anchor="end" font-family="sans-serif" font-size="30" x="-25" y="10" >0</text>
<line fill="none" stroke="black" stroke-width="6" x1="0.0" y1="54.5455" x2="-20" y2="54.5455" />
<text transform="scale(1,-1)" text-anchor="end" font-family="sans-serif" font-size="30" x="-25" y="-44.5455" >5</text>
<line fill="none" stroke="black" stroke-width="6" x1="0.0" y1="109.091" x2="-20" y2="109.091" />
<text transform="scale(1,-1)" text-anchor="end" font-family="sans-serif" font-size="30" x="-25" y="-99.0909" >10</text>
<line fill="none" stroke="black" stroke-width="6" x1="0.0" y1="163.636" x2="-20" y2="163.636" />
<text transform="scale(1,-1)" text-anchor="end" font-family="sans-serif" font-size="30" x="-25" y="-153.636" >15</text>
<line fill="none" stroke="black" stroke-width="6" x1="0.0" y1="218.182" x2="-20" y2="218.182" />
<text transform="scale(1,-1)" text-anchor="end" font-family="sans-serif" font-size="30" x="-25" y="-208.182" >20</text>
<line fill="none" stroke="black" stroke-width="6" x1="0.0" y1="272.727" x2="-20" y2="272.727" />
<text transform="scale(1,-1)" text-anchor="end" font-family="sans-serif" font-size="30" x="-25" y="-262.727" >25</text>
<line fill="none" stroke="black" stroke-width="6" x1="0.0" y1="327.273" x2="-20" y2="327.273" />
<text transform="scale(1,-1)" text-anchor="end" font-family="sans-serif" font-size="30" x="-25" y="-317.273" >30</text>
<line fill="none" stroke="black" stroke-width="6" x1="0.0" y1="381.818" x2="-20" y2="381.818" />
<text transform="scale(1,-1)" text-anchor="end" font-family="sans-serif" font-size="30" x="-25" y="-371.818" >35</text>
<line fill="none" stroke="black" stroke-width="6" x1="0.0" y1="436.364" x2="-20" y2="436.364" />
<text transform="scale(1,-1)" text-anchor="end" font-family="sans-serif" font-size="30" x="-25" y="-426.364" >40</text>
<line fill="none" stroke="black" stroke-width="6" x1="0.0" y1="490.909" x2="-20" y2="490.909" />
<text transform="scale(1,-1)" text-anchor="end" font-family="sans-serif" font-size="30" x="-25" y="-480.909" >45</text>
<line fill="none" stroke="black" stroke-width="6" x1="0.0" y1="545.455" x2="-20" y2="545.455" />
<text transform="scale(1,-1)" text-anchor="end" font-family="sans-serif" font-size="30" x="-25" y="-535.455" >50</text>
<line fill="none" stroke="black" stroke-width="6" x1="0.0" y1="600" x2="-20" y2="600" />
<text transform="scale(1,-1)" text-anchor="end" font-family="sans-serif" font-size="30" x="-25" y="-590" >55</text>

-->
</g>
</g>
<!-- Run Constants
PRINTDISTANCEDATA bool true
GLITCHESONLY bool false
PLOT 2doubles 3 4
PERTURBBY double 0.05
GLITCHLEVEL double 3
BOUNDARYWINDOW double 0.065
FRAMESPERPATH int 200
STEPSPERFRAME int 100
TRIALS int 30
ALLBLACK bool true
FILEPREFIX string POINT
GRAPHSIZE int 0
BORDER int 0
PLOTSIZE int 0
G6LINEWIDTH int 3
DELONELINEWIDTH int 10
AXISWIDTH int 6
TICLENGTH int 20
VECTOR g6 
FOLLOWERMODE FollowerMode point
FIXRANDOMSEED fixRandomSeed false
RANDOMSEED int 19191
TIMESTAMP bool true
END end 




-->
</svg>
