<?xml version="1.0" standalone="no"?>
<!-- the width and height set the total pixel output of the image in the browser -->
<!-- whatever is within the viewbox will be remapped to show in this size -->
<svg width="900" height="900" viewBox="1 0 900 900"  version="1.1" xmlns="http://www.w3.org/2000/svg" xmlns:xlink="http://www.w3.org/1999/xlink">
 <desc>ID (and file name) = POINT_2018-05-27.17_04_06.0_16.svg  mode = Single Point </desc> 
<text x = "-750" y="50" transform="rotate(-90)"  font-family="sans-serif" font-size="40" stroke ="lightgray" fill="none"> PointDistanceFollower   May 27 2018</text>
 <text x="560" y="30" font-family="sans-serif" font-size="20">Wall time passed: 30617 msec.</text>
<text x="300" y="60"   font-family="sans-serif" font-size="20" fill="lightblue">S6  lightblue</text>
<text x="300" y="85"   font-family="sans-serif" font-size="20" fill="slategrey">NCDist  slategrey</text>
<text x="300" y="110"  font-family="sans-serif" font-size="20" fill="violet">D7  violet</text>
<text x="300" y="135"  font-family="sans-serif" font-size="20" fill="olive">CS6Dist  olive</text>

 <text x="140"  y="30"  font-family="sans-serif" font-size="20" >POINT_2018-05-27.17_04_06.0_16.svg  </text> 


 <!--DISTANCE PLOT BEGINS   mode = Single Point-->


<!-- the following will scale and place the distance plot -->
<g  transform="translate(0, 50) ">
<g transform="translate(150,700) scale(1 -1)">
   <polyline fill="none" stroke=" lightblue " stroke-width=" 12 " points=" 5.94059,0 11.8812,17.9353 17.8218,27.3533 23.7624,40.8405 29.703,51.0498 35.6436,61.2023 41.5842,71.2584 47.5248,82.7188 53.4653,93.2837 59.4059,95.7601 65.3465,98.8411 71.2871,102.472 77.2277,106.597 83.1683,111.162 89.1089,116.113 95.0495,121.404 100.99,126.992 106.931,132.841 112.871,138.916 118.812,145.19 124.752,151.638 130.693,158.238 136.634,164.973 142.574,171.826 148.515,178.784 154.455,185.835 160.396,192.969 166.337,200.177 172.277,207.438 178.218,214.728 184.158,222.074 190.099,229.472 196.04,236.915 201.98,244.402 207.921,251.926 213.861,259.486 219.802,267.077 225.743,274.698 231.683,282.346 237.624,290.019 243.564,297.715 249.505,305.432 255.446,313.169 261.386,320.924 267.327,328.696 273.267,336.484 279.208,344.287 285.149,352.103 291.089,359.932 297.03,367.773 302.97,375.626 308.911,383.488 314.851,391.062 320.792,389.273 326.733,386.024 332.673,377.975 338.614,369.928 344.554,361.884 350.495,353.843 356.436,345.805 362.376,337.77 368.317,329.738 374.257,321.71 380.198,313.687 386.139,305.667 392.079,297.653 398.02,289.643 403.96,281.025 409.901,272.47 415.842,263.915 421.782,255.361 427.723,246.807 433.663,238.254 439.604,229.702 445.545,221.151 451.485,212.6 457.426,204.051 463.366,195.503 469.307,186.956 475.248,178.411 481.188,169.868 487.129,161.327 493.069,152.788 499.01,144.253 504.95,135.721 510.891,127.193 516.832,118.67 522.772,110.153 528.713,101.644 534.653,92.8532 540.594,83.5679 546.535,74.2826 552.475,64.9973 558.416,55.7119 564.356,46.4266 570.297,37.1413 576.238,27.856 582.178,18.5706 588.119,9.28532 594.059,0 " />

   <polyline fill="none" stroke=" slategrey " stroke-width=" 9 " points=" 5.94059,0 11.8812,23.5645 17.8218,50.6727 23.7624,66.2673 29.703,66.2002 35.6436,70.0607 41.5842,77.2621 47.5248,85.7322 53.4653,93.8928 59.4059,103.09 65.3465,110.773 71.2871,117.678 77.2277,121.862 83.1683,127.383 89.1089,134.076 95.0495,141.774 100.99,150.324 106.931,159.589 112.871,169.451 118.812,179.812 124.752,190.592 130.693,201.721 136.634,213.147 142.574,224.824 148.515,236.714 154.455,248.787 160.396,261.018 166.337,273.386 172.277,285.872 178.218,298.462 184.158,311.143 190.099,323.905 196.04,336.738 201.98,349.635 207.921,362.588 213.861,374.311 219.802,383.978 225.743,385.653 231.683,387.797 237.624,390.403 243.564,393.461 249.505,396.96 255.446,400.89 261.386,405.236 267.327,409.984 273.267,414.636 279.208,418.713 285.149,423.248 291.089,427.889 297.03,431.331 302.97,435.232 308.911,439.579 314.851,444.361 320.792,441.122 326.733,433.162 332.673,425.172 338.614,417.158 344.554,409.128 350.495,400.183 356.436,391.021 362.376,381.868 368.317,372.724 374.257,363.59 380.198,354.466 386.139,345.353 392.079,336.252 398.02,327.165 403.96,318.345 409.901,309.58 415.842,300.755 421.782,291.877 427.723,282.288 433.663,272.563 439.604,262.886 445.545,253.263 451.485,243.701 457.426,234.208 463.366,224.792 469.307,215.464 475.248,206.236 481.188,197.122 487.129,186.854 493.069,176.501 499.01,166.147 504.95,155.793 510.891,145.438 516.832,135.082 522.772,124.628 528.713,113.899 534.653,103.606 540.594,93.4582 546.535,83.1129 552.475,72.7684 558.416,62.4249 564.356,52.083 570.297,41.7439 576.238,31.4105 582.178,21.091 588.119,10.8252 594.059,0 " />

   <polyline fill="none" stroke=" violet " stroke-width=" 6 " points=" 5.94059,2.94262e-05 11.8812,33.7195 17.8218,52.6871 23.7624,75.9514 29.703,96.3342 35.6436,113.053 41.5842,128.191 47.5248,145.033 53.4653,160.758 59.4059,164.012 65.3465,167.294 71.2871,171.283 77.2277,175.932 83.1683,181.189 89.1089,187.003 95.0495,193.324 100.99,200.104 106.931,207.298 112.871,214.835 118.812,222.649 124.752,230.771 130.693,239.167 136.634,247.812 142.574,256.679 148.515,265.746 154.455,274.994 160.396,284.405 166.337,293.963 172.277,303.654 178.218,313.466 184.158,323.389 190.099,333.411 196.04,343.525 201.98,353.722 207.921,363.996 213.861,374.34 219.802,384.749 225.743,395.217 231.683,405.74 237.624,416.313 243.564,426.934 249.505,437.598 255.446,448.302 261.386,459.044 267.327,469.821 273.267,480.631 279.208,491.471 285.149,502.34 291.089,513.235 297.03,524.156 302.97,535.1 308.911,546.066 314.851,556.633 320.792,554.372 326.733,550 332.673,538.626 338.614,527.258 344.554,515.894 350.495,504.536 356.436,493.184 362.376,481.838 368.317,470.498 374.257,459.165 380.198,447.84 386.139,436.523 392.079,425.215 398.02,413.916 403.96,401.303 409.901,389.121 415.842,376.94 421.782,364.759 427.723,352.579 433.663,340.399 439.604,328.22 445.545,316.042 451.485,303.865 457.426,291.689 463.366,279.514 469.307,267.34 475.248,255.168 481.188,242.997 487.129,230.829 493.069,218.663 499.01,206.5 504.95,194.34 510.891,182.184 516.832,170.033 522.772,157.887 528.713,145.75 534.653,133.18 540.594,119.862 546.535,106.544 552.475,93.2259 558.416,79.9079 564.356,66.59 570.297,53.272 576.238,39.954 582.178,26.636 588.119,13.318 594.059,2.94262e-05 " />

   <polyline fill="none" stroke=" olive " stroke-width=" 3 " points=" 5.94059,0 11.8812,17.9353 17.8218,27.3533 23.7624,40.8405 29.703,52.8438 35.6436,61.2023 41.5842,71.2584 47.5248,82.7188 53.4653,94.3136 59.4059,97.6238 65.3465,100.552 71.2871,104.031 77.2277,108.008 83.1683,112.429 89.1089,117.244 95.0495,122.408 100.99,127.877 106.931,133.615 112.871,139.587 118.812,145.766 124.752,152.126 130.693,158.646 136.634,165.305 142.574,172.089 148.515,178.983 154.455,185.975 160.396,193.054 166.337,200.211 172.277,207.438 178.218,214.728 184.158,222.074 190.099,229.472 196.04,236.915 201.98,244.402 207.921,251.926 213.861,259.486 219.802,267.077 225.743,274.698 231.683,282.346 237.624,290.019 243.564,297.715 249.505,305.432 255.446,313.169 261.386,320.924 267.327,328.696 273.267,336.484 279.208,344.287 285.149,352.103 291.089,359.932 297.03,367.773 302.97,375.626 308.911,383.488 314.851,391.062 320.792,391.122 326.733,387.734 332.673,381.319 338.614,373.92 344.554,366.461 350.495,358.491 356.436,350.467 362.376,342.447 368.317,334.43 374.257,326.163 380.198,317.6 386.139,309.04 392.079,300.483 398.02,291.929 403.96,281.184 409.901,272.626 415.842,264.069 421.782,255.511 427.723,246.955 433.663,238.398 439.604,229.842 445.545,221.287 451.485,212.732 457.426,204.178 463.366,195.625 469.307,187.073 475.248,178.522 481.188,169.972 487.129,161.424 493.069,152.877 499.01,144.333 504.95,135.79 510.891,127.251 516.832,118.715 522.772,110.183 528.713,101.657 534.653,92.8532 540.594,83.5679 546.535,74.2826 552.475,64.9973 558.416,55.7119 564.356,46.4266 570.297,37.1413 576.238,27.856 582.178,18.5706 588.119,9.28532 594.059,0 " />


<!--Draw Glitches -->

<line fill="none" stroke="black" stroke-width="4" x1="29.703" y1="41.0498" x2="29.703" y2="-8.95016"  stroke-dasharray = "10,5" />
<text transform="scale(1,-1)" font-family="sans-serif" font-size="30" stroke = "rgb(0,0,0)" line = "rgb(0,0,0)"  fill = "lightblue" x="34.703" y="8.95016" >4</text>

<!-- -->


<!--Draw the X and Y axes -->
<polyline fill="none" stroke="black" stroke-width="6"  points=" 600,0 0,0 0, 600" />
<polyline fill="none" stroke="black" stroke-width="1"  points=" 0 600  600 600  600 0" />
<!-- -->


<!--Draw labels and tics for X axis -->

<line fill="none" stroke="black"  stroke-width="6"  x1="0.5" y1="0" x2="0.5" y2="-20" />
<text transform="scale(1,-1)" font-family="sans-serif" font-size="30" x="-24.5" y="45" >0</text>
<line fill="none" stroke="black"  stroke-width="6"  x1="119.312" y1="0" x2="119.312" y2="-20" />
<text transform="scale(1,-1)" font-family="sans-serif" font-size="30" x="94.3119" y="45" >20</text>
<line fill="none" stroke="black"  stroke-width="6"  x1="238.124" y1="0" x2="238.124" y2="-20" />
<text transform="scale(1,-1)" font-family="sans-serif" font-size="30" x="213.124" y="45" >40</text>
<line fill="none" stroke="black"  stroke-width="6"  x1="356.936" y1="0" x2="356.936" y2="-20" />
<text transform="scale(1,-1)" font-family="sans-serif" font-size="30" x="331.936" y="45" >60</text>
<line fill="none" stroke="black"  stroke-width="6"  x1="475.748" y1="0" x2="475.748" y2="-20" />
<text transform="scale(1,-1)" font-family="sans-serif" font-size="30" x="450.748" y="45" >80</text>
<line fill="none" stroke="black"  stroke-width="6"  x1="594.559" y1="0" x2="594.559" y2="-20" />
<text transform="scale(1,-1)" font-family="sans-serif" font-size="30" x="569.559" y="45" >100</text>


<!--Draw labels and tics for Y axis -->

<line fill="none" stroke="black" stroke-width="6" x1="0.0" y1="0" x2="-20" y2="0" />
<text transform="scale(1,-1)" text-anchor="end" font-family="sans-serif" font-size="30" x="-25" y="10" >0</text>
<line fill="none" stroke="black" stroke-width="6" x1="0.0" y1="54.5455" x2="-20" y2="54.5455" />
<text transform="scale(1,-1)" text-anchor="end" font-family="sans-serif" font-size="30" x="-25" y="-44.5455" >5</text>
<line fill="none" stroke="black" stroke-width="6" x1="0.0" y1="109.091" x2="-20" y2="109.091" />
<text transform="scale(1,-1)" text-anchor="end" font-family="sans-serif" font-size="30" x="-25" y="-99.0909" >10</text>
<line fill="none" stroke="black" stroke-width="6" x1="0.0" y1="163.636" x2="-20" y2="163.636" />
<text transform="scale(1,-1)" text-anchor="end" font-family="sans-serif" font-size="30" x="-25" y="-153.636" >15</text>
<line fill="none" stroke="black" stroke-width="6" x1="0.0" y1="218.182" x2="-20" y2="218.182" />
<text transform="scale(1,-1)" text-anchor="end" font-family="sans-serif" font-size="30" x="-25" y="-208.182" >20</text>
<line fill="none" stroke="black" stroke-width="6" x1="0.0" y1="272.727" x2="-20" y2="272.727" />
<text transform="scale(1,-1)" text-anchor="end" font-family="sans-serif" font-size="30" x="-25" y="-262.727" >25</text>
<line fill="none" stroke="black" stroke-width="6" x1="0.0" y1="327.273" x2="-20" y2="327.273" />
<text transform="scale(1,-1)" text-anchor="end" font-family="sans-serif" font-size="30" x="-25" y="-317.273" >30</text>
<line fill="none" stroke="black" stroke-width="6" x1="0.0" y1="381.818" x2="-20" y2="381.818" />
<text transform="scale(1,-1)" text-anchor="end" font-family="sans-serif" font-size="30" x="-25" y="-371.818" >35</text>
<line fill="none" stroke="black" stroke-width="6" x1="0.0" y1="436.364" x2="-20" y2="436.364" />
<text transform="scale(1,-1)" text-anchor="end" font-family="sans-serif" font-size="30" x="-25" y="-426.364" >40</text>
<line fill="none" stroke="black" stroke-width="6" x1="0.0" y1="490.909" x2="-20" y2="490.909" />
<text transform="scale(1,-1)" text-anchor="end" font-family="sans-serif" font-size="30" x="-25" y="-480.909" >45</text>
<line fill="none" stroke="black" stroke-width="6" x1="0.0" y1="545.455" x2="-20" y2="545.455" />
<text transform="scale(1,-1)" text-anchor="end" font-family="sans-serif" font-size="30" x="-25" y="-535.455" >50</text>
<line fill="none" stroke="black" stroke-width="6" x1="0.0" y1="600" x2="-20" y2="600" />
<text transform="scale(1,-1)" text-anchor="end" font-family="sans-serif" font-size="30" x="-25" y="-590" >55</text>

-->
</g>
</g>
<!-- Run Constants
PRINTDISTANCEDATA bool true
GLITCHESONLY bool false
PLOT 2doubles 3 4
PERTURBBY double 0.05
GLITCHLEVEL double 3
BOUNDARYWINDOW double 0.065
FRAMESPERPATH int 200
STEPSPERFRAME int 100
TRIALS int 30
ALLBLACK bool true
FILEPREFIX string POINT
GRAPHSIZE int 0
BORDER int 0
PLOTSIZE int 0
G6LINEWIDTH int 3
DELONELINEWIDTH int 10
AXISWIDTH int 6
TICLENGTH int 20
VECTOR g6 
FOLLOWERMODE FollowerMode point
FIXRANDOMSEED fixRandomSeed false
RANDOMSEED int 19191
TIMESTAMP bool true
END end 




-->
</svg>
