<?xml version="1.0" standalone="no"?>
<!-- the width and height set the total pixel output of the image in the browser -->
<!-- whatever is within the viewbox will be remapped to show in this size -->
<svg width="900" height="900" viewBox="1 0 900 900"  version="1.1" xmlns="http://www.w3.org/2000/svg" xmlns:xlink="http://www.w3.org/1999/xlink">
 <desc>ID (and file name) = POINT_2018-05-27.17_36_50.2_19.svg  mode = Single Point </desc> 
<text x = "-750" y="50" transform="rotate(-90)"  font-family="sans-serif" font-size="40" stroke ="lightgray" fill="none"> PointDistanceFollower   May 27 2018</text>
 <text x="560" y="30" font-family="sans-serif" font-size="20">Wall time passed: 30732 msec.</text>
<text x="300" y="60"   font-family="sans-serif" font-size="20" fill="lightblue">S6  lightblue</text>
<text x="300" y="85"   font-family="sans-serif" font-size="20" fill="slategrey">NCDist  slategrey</text>
<text x="300" y="110"  font-family="sans-serif" font-size="20" fill="violet">D7  violet</text>
<text x="300" y="135"  font-family="sans-serif" font-size="20" fill="olive">CS6Dist  olive</text>

 <text x="140"  y="30"  font-family="sans-serif" font-size="20" >POINT_2018-05-27.17_36_50.2_19.svg  </text> 


 <!--DISTANCE PLOT BEGINS   mode = Single Point-->


<!-- the following will scale and place the distance plot -->
<g  transform="translate(0, 50) ">
<g transform="translate(150,700) scale(1 -1)">
   <polyline fill="none" stroke=" lightblue " stroke-width=" 12 " points=" 5.94059,0 11.8812,8.23625 17.8218,16.4725 23.7624,24.7087 29.703,32.945 35.6436,41.1812 41.5842,49.4175 47.5248,57.6537 53.4653,65.89 59.4059,74.1262 65.3465,82.3625 71.2871,90.5987 77.2277,98.835 83.1683,107.071 89.1089,115.307 95.0495,123.544 100.99,131.78 106.931,140.016 112.871,148.252 118.812,153.076 124.752,156.026 130.693,159.347 136.634,163.017 142.574,167.013 148.515,171.312 154.455,175.892 160.396,180.731 166.337,185.81 172.277,191.108 178.218,196.609 184.158,202.296 190.099,208.154 196.04,214.167 201.98,220.325 207.921,226.615 213.861,233.026 219.802,239.549 225.743,246.175 231.683,252.895 237.624,259.702 243.564,266.591 249.505,273.553 255.446,280.585 261.386,287.681 267.327,294.836 273.267,302.046 279.208,309.307 285.149,316.616 291.089,323.97 297.03,329.133 302.97,333.095 308.911,337.257 314.851,341.611 320.792,346.15 326.733,348.023 332.673,343.401 338.614,338.96 344.554,334.708 350.495,330.653 356.436,326.801 362.376,323.16 368.317,319.737 374.257,316.539 380.198,313.573 386.139,310.845 392.079,307.63 398.02,298.582 403.96,289.535 409.901,280.487 415.842,271.439 421.782,262.391 427.723,253.343 433.663,244.295 439.604,235.247 445.545,226.199 451.485,217.151 457.426,208.103 463.366,199.055 469.307,190.007 475.248,180.959 481.188,171.911 487.129,162.863 493.069,153.815 499.01,144.767 504.95,135.719 510.891,126.671 516.832,117.623 522.772,108.575 528.713,99.5275 534.653,90.4795 540.594,81.4316 546.535,72.3836 552.475,63.3357 558.416,54.2877 564.356,45.2398 570.297,36.1918 576.238,27.1439 582.178,18.0959 588.119,9.04795 594.059,0 " />

   <polyline fill="none" stroke=" slategrey " stroke-width=" 9 " points=" 5.94059,0 11.8812,18.3128 17.8218,36.6256 23.7624,54.9384 29.703,73.2512 35.6436,91.5639 41.5842,109.877 47.5248,128.19 53.4653,146.502 59.4059,155.791 65.3465,160.165 71.2871,166.45 77.2277,174.439 83.1683,183.911 89.1089,194.648 95.0495,204.229 100.99,211.451 106.931,210.728 112.871,210.985 118.812,212.217 124.752,214.408 130.693,217.527 136.634,221.534 142.574,226.379 148.515,232.008 154.455,238.365 160.396,245.39 166.337,253.026 172.277,261.219 178.218,269.915 184.158,279.066 190.099,288.628 196.04,298.561 201.98,308.827 207.921,319.393 213.861,330.231 219.802,341.314 225.743,352.617 231.683,364.121 237.624,375.806 243.564,387.656 249.505,399.655 255.446,411.79 261.386,424.05 267.327,436.423 273.267,448.901 279.208,461.474 285.149,474.135 291.089,486.877 297.03,488.945 302.97,482.452 308.911,476.293 314.851,470.484 320.792,465.035 326.733,459.962 332.673,455.276 338.614,450.989 344.554,447.114 350.495,443.662 356.436,440.641 362.376,438.063 368.317,435.934 374.257,434.262 380.198,433.051 386.139,432.305 392.079,432.736 398.02,439.235 403.96,443.99 409.901,429.893 415.842,415.797 421.782,401.702 427.723,387.608 433.663,373.515 439.604,359.423 445.545,345.333 451.485,331.244 457.426,317.156 463.366,303.071 469.307,288.988 475.248,274.907 481.188,260.829 487.129,246.754 493.069,232.684 499.01,218.619 504.95,204.559 510.891,190.506 516.832,176.462 522.772,162.43 528.713,148.411 534.653,134.411 540.594,120.437 546.535,106.497 552.475,92.6091 558.416,78.7988 564.356,65.1162 570.297,51.6629 576.238,38.6788 582.178,26.8535 588.119,18.3325 594.059,0 " />

   <polyline fill="none" stroke=" violet " stroke-width=" 6 " points=" 5.94059,4.0461e-05 11.8812,13.0887 17.8218,26.1774 23.7624,39.2661 29.703,52.3548 35.6436,65.4435 41.5842,78.5322 47.5248,91.621 53.4653,104.71 59.4059,117.798 65.3465,130.887 71.2871,143.976 77.2277,157.064 83.1683,170.153 89.1089,183.242 95.0495,196.331 100.99,209.419 106.931,222.508 112.871,235.597 118.812,244.401 124.752,250.889 130.693,257.879 136.634,265.331 142.574,273.207 148.515,281.471 154.455,290.091 160.396,299.035 166.337,308.276 172.277,317.787 178.218,327.545 184.158,337.529 190.099,347.719 196.04,358.097 201.98,368.648 207.921,379.357 213.861,390.211 219.802,401.199 225.743,412.309 231.683,423.532 237.624,434.86 243.564,446.284 249.505,457.797 255.446,469.393 261.386,481.065 267.327,492.809 273.267,504.618 279.208,516.49 285.149,528.419 291.089,540.401 297.03,548.998 302.97,555.638 308.911,562.462 314.851,569.465 320.792,576.642 326.733,583.99 332.673,583.618 338.614,575.833 344.554,568.214 350.495,560.764 356.436,553.33 362.376,546.047 368.317,539.028 374.257,532.281 380.198,525.817 386.139,519.646 392.079,512.75 398.02,497.669 403.96,482.588 409.901,467.507 415.842,452.427 421.782,437.346 427.723,422.265 433.663,407.184 439.604,392.103 445.545,377.022 451.485,361.941 457.426,346.86 463.366,331.779 469.307,316.699 475.248,301.618 481.188,286.537 487.129,271.456 493.069,256.375 499.01,241.294 504.95,226.213 510.891,211.132 516.832,196.052 522.772,180.971 528.713,165.89 534.653,150.809 540.594,135.728 546.535,120.647 552.475,105.566 558.416,90.4853 564.356,75.4044 570.297,60.3235 576.238,45.2427 582.178,30.1618 588.119,15.0809 594.059,4.0461e-05 " />

   <polyline fill="none" stroke=" olive " stroke-width=" 3 " points=" 5.94059,0 11.8812,8.23625 17.8218,16.4725 23.7624,24.7087 29.703,32.945 35.6436,41.1812 41.5842,49.4175 47.5248,57.6537 53.4653,65.89 59.4059,74.1262 65.3465,82.3625 71.2871,90.5987 77.2277,98.835 83.1683,107.071 89.1089,115.307 95.0495,123.544 100.99,131.78 106.931,140.016 112.871,148.252 118.812,153.076 124.752,156.026 130.693,159.347 136.634,163.017 142.574,167.013 148.515,171.312 154.455,175.892 160.396,180.731 166.337,185.81 172.277,191.108 178.218,196.609 184.158,202.296 190.099,208.154 196.04,214.167 201.98,220.325 207.921,226.615 213.861,233.026 219.802,239.549 225.743,246.175 231.683,252.895 237.624,259.702 243.564,266.591 249.505,273.553 255.446,280.585 261.386,287.681 267.327,294.836 273.267,302.046 279.208,309.307 285.149,316.616 291.089,323.97 297.03,329.924 302.97,335.173 308.911,340.626 314.851,346.275 320.792,352.109 326.733,358.118 332.673,357.045 338.614,351.309 344.554,345.742 350.495,340.353 356.436,335.148 362.376,330.135 368.317,325.321 374.257,320.714 380.198,316.321 386.139,312.148 392.079,307.63 398.02,298.582 403.96,289.535 409.901,280.487 415.842,271.439 421.782,262.391 427.723,253.343 433.663,244.295 439.604,235.247 445.545,226.199 451.485,217.151 457.426,208.103 463.366,199.055 469.307,190.007 475.248,180.959 481.188,171.911 487.129,162.863 493.069,153.815 499.01,144.767 504.95,135.719 510.891,126.671 516.832,117.623 522.772,108.575 528.713,99.5275 534.653,90.4795 540.594,81.4316 546.535,72.3836 552.475,63.3357 558.416,54.2877 564.356,45.2398 570.297,36.1918 576.238,27.1439 582.178,18.0959 588.119,9.04795 594.059,0 " />


<!--Draw the X and Y axes -->
<polyline fill="none" stroke="black" stroke-width="6"  points=" 600,0 0,0 0, 600" />
<polyline fill="none" stroke="black" stroke-width="1"  points=" 0 600  600 600  600 0" />
<!-- -->


<!--Draw labels and tics for X axis -->

<line fill="none" stroke="black"  stroke-width="6"  x1="0.5" y1="0" x2="0.5" y2="-20" />
<text transform="scale(1,-1)" font-family="sans-serif" font-size="30" x="-24.5" y="45" >0</text>
<line fill="none" stroke="black"  stroke-width="6"  x1="119.312" y1="0" x2="119.312" y2="-20" />
<text transform="scale(1,-1)" font-family="sans-serif" font-size="30" x="94.3119" y="45" >20</text>
<line fill="none" stroke="black"  stroke-width="6"  x1="238.124" y1="0" x2="238.124" y2="-20" />
<text transform="scale(1,-1)" font-family="sans-serif" font-size="30" x="213.124" y="45" >40</text>
<line fill="none" stroke="black"  stroke-width="6"  x1="356.936" y1="0" x2="356.936" y2="-20" />
<text transform="scale(1,-1)" font-family="sans-serif" font-size="30" x="331.936" y="45" >60</text>
<line fill="none" stroke="black"  stroke-width="6"  x1="475.748" y1="0" x2="475.748" y2="-20" />
<text transform="scale(1,-1)" font-family="sans-serif" font-size="30" x="450.748" y="45" >80</text>
<line fill="none" stroke="black"  stroke-width="6"  x1="594.559" y1="0" x2="594.559" y2="-20" />
<text transform="scale(1,-1)" font-family="sans-serif" font-size="30" x="569.559" y="45" >100</text>


<!--Draw labels and tics for Y axis -->

<line fill="none" stroke="black" stroke-width="6" x1="0.0" y1="0" x2="-20" y2="0" />
<text transform="scale(1,-1)" text-anchor="end" font-family="sans-serif" font-size="30" x="-25" y="10" >0</text>
<line fill="none" stroke="black" stroke-width="6" x1="0.0" y1="150" x2="-20" y2="150" />
<text transform="scale(1,-1)" text-anchor="end" font-family="sans-serif" font-size="30" x="-25" y="-140" >5</text>
<line fill="none" stroke="black" stroke-width="6" x1="0.0" y1="300" x2="-20" y2="300" />
<text transform="scale(1,-1)" text-anchor="end" font-family="sans-serif" font-size="30" x="-25" y="-290" >10</text>
<line fill="none" stroke="black" stroke-width="6" x1="0.0" y1="450" x2="-20" y2="450" />
<text transform="scale(1,-1)" text-anchor="end" font-family="sans-serif" font-size="30" x="-25" y="-440" >15</text>
<line fill="none" stroke="black" stroke-width="6" x1="0.0" y1="600" x2="-20" y2="600" />
<text transform="scale(1,-1)" text-anchor="end" font-family="sans-serif" font-size="30" x="-25" y="-590" >20</text>

-->
</g>
</g>
<!-- Run Constants
PRINTDISTANCEDATA bool true
GLITCHESONLY bool false
PLOT 2doubles 3 4
PERTURBBY double 0.05
GLITCHLEVEL double 3
BOUNDARYWINDOW double 0.065
FRAMESPERPATH int 200
STEPSPERFRAME int 100
TRIALS int 30
ALLBLACK bool true
FILEPREFIX string POINT
GRAPHSIZE int 0
BORDER int 0
PLOTSIZE int 0
G6LINEWIDTH int 3
DELONELINEWIDTH int 10
AXISWIDTH int 6
TICLENGTH int 20
VECTOR g6 
FOLLOWERMODE FollowerMode point
FIXRANDOMSEED fixRandomSeed false
RANDOMSEED int 19191
TIMESTAMP bool true
END end 




-->
</svg>
