<?xml version="1.0" standalone="no"?>
<!-- the width and height set the total pixel output of the image in the browser -->
<!-- whatever is within the viewbox will be remapped to show in this size -->
<svg width="900" height="900" viewBox="1 0 900 900"  version="1.1" xmlns="http://www.w3.org/2000/svg" xmlns:xlink="http://www.w3.org/1999/xlink">
 <desc>ID (and file name) = POINT_2018-05-27.17_08_44.0_25.svg  mode = Single Point </desc> 
<text x = "-750" y="50" transform="rotate(-90)"  font-family="sans-serif" font-size="40" stroke ="lightgray" fill="none"> PointDistanceFollower   May 27 2018</text>
 <text x="560" y="30" font-family="sans-serif" font-size="20">Wall time passed: 30921 msec.</text>
<text x="300" y="60"   font-family="sans-serif" font-size="20" fill="lightblue">S6  lightblue</text>
<text x="300" y="85"   font-family="sans-serif" font-size="20" fill="slategrey">NCDist  slategrey</text>
<text x="300" y="110"  font-family="sans-serif" font-size="20" fill="violet">D7  violet</text>
<text x="300" y="135"  font-family="sans-serif" font-size="20" fill="olive">CS6Dist  olive</text>

 <text x="140"  y="30"  font-family="sans-serif" font-size="20" >POINT_2018-05-27.17_08_44.0_25.svg  </text> 


 <!--DISTANCE PLOT BEGINS   mode = Single Point-->


<!-- the following will scale and place the distance plot -->
<g  transform="translate(0, 50) ">
<g transform="translate(150,700) scale(1 -1)">
   <polyline fill="none" stroke=" lightblue " stroke-width=" 12 " points=" 5.94059,0 11.8812,12.9798 17.8218,20.7566 23.7624,26.2713 29.703,32.152 35.6436,38.2301 41.5842,44.4248 47.5248,50.6932 53.4653,53.7876 59.4059,55.7269 65.3465,58.3274 71.2871,61.5054 77.2277,65.1764 83.1683,69.2621 89.1089,73.6935 95.0495,78.4121 100.99,83.3691 106.931,88.5244 112.871,93.8454 118.812,99.3054 124.752,104.883 130.693,110.56 136.634,116.322 142.574,122.157 148.515,128.055 154.455,134.007 160.396,140.008 166.337,146.05 172.277,152.129 178.218,158.24 184.158,164.381 190.099,170.547 196.04,176.737 201.98,182.947 207.921,189.176 213.861,195.422 219.802,201.683 225.743,207.959 231.683,214.247 237.624,220.546 243.564,226.857 249.505,233.177 255.446,239.506 261.386,245.844 267.327,252.189 273.267,258.542 279.208,264.901 285.149,271.266 291.089,277.637 297.03,284.014 302.97,284.014 308.911,277.637 314.851,271.266 320.792,264.901 326.733,258.542 332.673,252.189 338.614,245.844 344.554,239.506 350.495,233.177 356.436,226.857 362.376,220.546 368.317,214.247 374.257,207.959 380.198,201.683 386.139,195.422 392.079,189.176 398.02,182.947 403.96,176.737 409.901,170.547 415.842,164.381 421.782,158.24 427.723,152.129 433.663,146.05 439.604,140.008 445.545,134.007 451.485,128.055 457.426,122.157 463.366,116.322 469.307,110.56 475.248,104.883 481.188,99.3054 487.129,93.8454 493.069,88.5244 499.01,83.3691 504.95,78.4121 510.891,73.6935 516.832,69.2621 522.772,65.1764 528.713,61.5054 534.653,58.3274 540.594,55.7269 546.535,53.7876 552.475,50.6932 558.416,44.4248 564.356,38.2301 570.297,32.152 576.238,26.2713 582.178,20.7566 588.119,12.9798 594.059,0 " />

   <polyline fill="none" stroke=" slategrey " stroke-width=" 9 " points=" 5.94059,0 11.8812,16.0852 17.8218,35.1427 23.7624,54.7842 29.703,70.5675 35.6436,81.9932 41.5842,87.7212 47.5248,95.3613 53.4653,100.721 59.4059,107.284 65.3465,114.843 71.2871,123.217 77.2277,129.762 83.1683,136.401 89.1089,143.897 95.0495,152.111 100.99,160.926 106.931,170.242 112.871,179.976 118.812,190.058 124.752,200.435 130.693,211.059 136.634,221.893 142.574,232.907 148.515,244.074 154.455,255.374 160.396,266.789 166.337,278.305 172.277,289.908 178.218,301.589 184.158,313.338 190.099,325.148 196.04,337.012 201.98,348.924 207.921,360.88 213.861,372.875 219.802,384.905 225.743,396.967 231.683,409.058 237.624,421.176 243.564,433.318 249.505,445.482 255.446,457.667 261.386,469.87 267.327,482.091 273.267,494.328 279.208,506.579 285.149,518.845 291.089,531.123 297.03,543.413 302.97,543.413 308.911,531.123 314.851,518.845 320.792,506.579 326.733,494.328 332.673,482.091 338.614,469.87 344.554,457.667 350.495,445.482 356.436,433.318 362.376,421.176 368.317,409.058 374.257,396.967 380.198,384.905 386.139,372.875 392.079,360.88 398.02,348.924 403.96,337.012 409.901,325.148 415.842,313.338 421.782,301.589 427.723,289.908 433.663,278.305 439.604,266.789 445.545,255.374 451.485,244.074 457.426,232.907 463.366,221.893 469.307,211.059 475.248,200.435 481.188,190.058 487.129,179.976 493.069,170.242 499.01,160.926 504.95,152.111 510.891,143.897 516.832,136.401 522.772,129.762 528.713,123.217 534.653,114.843 540.594,107.284 546.535,100.721 552.475,95.3613 558.416,87.7212 564.356,81.9932 570.297,70.5675 576.238,54.7842 582.178,35.1427 588.119,16.0852 594.059,0 " />

   <polyline fill="none" stroke=" violet " stroke-width=" 6 " points=" 5.94059,0 11.8812,19.3146 17.8218,33.3076 23.7624,43.5438 29.703,51.3053 35.6436,59.5379 41.5842,68.0468 47.5248,76.729 53.4653,81.8609 59.4059,84.6971 65.3465,88.4901 71.2871,93.1116 77.2277,98.434 83.1683,104.341 89.1089,110.731 95.0495,117.519 100.99,124.636 106.931,132.025 112.871,139.64 118.812,147.443 124.752,155.406 130.693,163.502 136.634,171.713 142.574,180.022 148.515,188.415 154.455,196.882 160.396,205.412 166.337,213.998 172.277,222.633 178.218,231.311 184.158,240.028 190.099,248.779 196.04,257.56 201.98,266.37 207.921,275.204 213.861,284.06 219.802,292.937 225.743,301.832 231.683,310.744 237.624,319.672 243.564,328.614 249.505,337.568 255.446,346.535 261.386,355.512 267.327,364.5 273.267,373.497 279.208,382.503 285.149,391.517 291.089,400.539 297.03,409.568 302.97,409.568 308.911,400.539 314.851,391.517 320.792,382.503 326.733,373.497 332.673,364.5 338.614,355.512 344.554,346.535 350.495,337.568 356.436,328.614 362.376,319.672 368.317,310.744 374.257,301.832 380.198,292.937 386.139,284.06 392.079,275.204 398.02,266.37 403.96,257.56 409.901,248.779 415.842,240.028 421.782,231.311 427.723,222.633 433.663,213.998 439.604,205.412 445.545,196.882 451.485,188.415 457.426,180.022 463.366,171.713 469.307,163.502 475.248,155.406 481.188,147.443 487.129,139.64 493.069,132.025 499.01,124.636 504.95,117.519 510.891,110.731 516.832,104.341 522.772,98.434 528.713,93.1116 534.653,88.4901 540.594,84.6971 546.535,81.8609 552.475,76.729 558.416,68.0468 564.356,59.5379 570.297,51.3053 576.238,43.5438 582.178,33.3076 588.119,19.3146 594.059,0 " />

   <polyline fill="none" stroke=" olive " stroke-width=" 3 " points=" 5.94059,0 11.8812,12.9798 17.8218,22.5449 23.7624,29.7577 29.703,35.2637 35.6436,41.1048 41.5842,47.1394 47.5248,53.294 53.4653,57.0561 59.4059,59.0853 65.3465,61.7965 71.2871,65.0963 77.2277,68.8925 83.1683,73.1011 89.1089,77.6499 95.0495,82.4783 100.99,87.5368 106.931,92.7854 112.871,98.1916 118.812,103.729 124.752,109.378 130.693,115.119 136.634,120.941 142.574,126.83 148.515,132.777 154.455,138.775 160.396,144.818 166.337,150.899 172.277,157.013 178.218,163.158 184.158,169.33 190.099,175.525 196.04,181.741 201.98,187.977 207.921,194.229 213.861,200.497 219.802,206.779 225.743,213.074 231.683,219.381 237.624,225.698 243.564,232.025 249.505,238.36 255.446,244.705 261.386,251.056 267.327,257.415 273.267,263.78 279.208,270.151 285.149,276.528 291.089,282.91 297.03,289.297 302.97,289.297 308.911,282.91 314.851,276.528 320.792,270.151 326.733,263.78 332.673,257.415 338.614,251.056 344.554,244.705 350.495,238.36 356.436,232.025 362.376,225.698 368.317,219.381 374.257,213.074 380.198,206.779 386.139,200.497 392.079,194.229 398.02,187.977 403.96,181.741 409.901,175.525 415.842,169.33 421.782,163.158 427.723,157.013 433.663,150.899 439.604,144.818 445.545,138.775 451.485,132.777 457.426,126.83 463.366,120.941 469.307,115.119 475.248,109.378 481.188,103.729 487.129,98.1916 493.069,92.7854 499.01,87.5368 504.95,82.4783 510.891,77.6499 516.832,73.1011 522.772,68.8925 528.713,65.0963 534.653,61.7965 540.594,59.0853 546.535,57.0561 552.475,53.294 558.416,47.1394 564.356,41.1048 570.297,35.2637 576.238,29.7577 582.178,22.5449 588.119,12.9798 594.059,0 " />


<!--Draw Glitches -->

<line fill="none" stroke="black" stroke-width="4" x1="29.703" y1="60.5675" x2="29.703" y2="10.5675"  stroke-dasharray = "10,5" />
<text transform="scale(1,-1)" font-family="sans-serif" font-size="30" stroke = "rgb(0,0,0)" line = "rgb(0,0,0)"  fill = "slategrey" x="34.703" y="-10.5675" >4</text>
<line fill="none" stroke="black" stroke-width="4" x1="570.297" y1="60.5675" x2="570.297" y2="10.5675"  stroke-dasharray = "10,5" />
<text transform="scale(1,-1)" font-family="sans-serif" font-size="30" stroke = "rgb(0,0,0)" line = "rgb(0,0,0)"  fill = "slategrey" x="575.297" y="-10.5675" >95</text>

<!-- -->


<!--Draw the X and Y axes -->
<polyline fill="none" stroke="black" stroke-width="6"  points=" 600,0 0,0 0, 600" />
<polyline fill="none" stroke="black" stroke-width="1"  points=" 0 600  600 600  600 0" />
<!-- -->


<!--Draw labels and tics for X axis -->

<line fill="none" stroke="black"  stroke-width="6"  x1="0.5" y1="0" x2="0.5" y2="-20" />
<text transform="scale(1,-1)" font-family="sans-serif" font-size="30" x="-24.5" y="45" >0</text>
<line fill="none" stroke="black"  stroke-width="6"  x1="119.312" y1="0" x2="119.312" y2="-20" />
<text transform="scale(1,-1)" font-family="sans-serif" font-size="30" x="94.3119" y="45" >20</text>
<line fill="none" stroke="black"  stroke-width="6"  x1="238.124" y1="0" x2="238.124" y2="-20" />
<text transform="scale(1,-1)" font-family="sans-serif" font-size="30" x="213.124" y="45" >40</text>
<line fill="none" stroke="black"  stroke-width="6"  x1="356.936" y1="0" x2="356.936" y2="-20" />
<text transform="scale(1,-1)" font-family="sans-serif" font-size="30" x="331.936" y="45" >60</text>
<line fill="none" stroke="black"  stroke-width="6"  x1="475.748" y1="0" x2="475.748" y2="-20" />
<text transform="scale(1,-1)" font-family="sans-serif" font-size="30" x="450.748" y="45" >80</text>
<line fill="none" stroke="black"  stroke-width="6"  x1="594.559" y1="0" x2="594.559" y2="-20" />
<text transform="scale(1,-1)" font-family="sans-serif" font-size="30" x="569.559" y="45" >100</text>


<!--Draw labels and tics for Y axis -->

<line fill="none" stroke="black" stroke-width="6" x1="0.0" y1="0" x2="-20" y2="0" />
<text transform="scale(1,-1)" text-anchor="end" font-family="sans-serif" font-size="30" x="-25" y="10" >0</text>
<line fill="none" stroke="black" stroke-width="6" x1="0.0" y1="150" x2="-20" y2="150" />
<text transform="scale(1,-1)" text-anchor="end" font-family="sans-serif" font-size="30" x="-25" y="-140" >2</text>
<line fill="none" stroke="black" stroke-width="6" x1="0.0" y1="300" x2="-20" y2="300" />
<text transform="scale(1,-1)" text-anchor="end" font-family="sans-serif" font-size="30" x="-25" y="-290" >4</text>
<line fill="none" stroke="black" stroke-width="6" x1="0.0" y1="450" x2="-20" y2="450" />
<text transform="scale(1,-1)" text-anchor="end" font-family="sans-serif" font-size="30" x="-25" y="-440" >6</text>
<line fill="none" stroke="black" stroke-width="6" x1="0.0" y1="600" x2="-20" y2="600" />
<text transform="scale(1,-1)" text-anchor="end" font-family="sans-serif" font-size="30" x="-25" y="-590" >8</text>

-->
</g>
</g>
<!-- Run Constants
PRINTDISTANCEDATA bool true
GLITCHESONLY bool false
PLOT 2doubles 3 4
PERTURBBY double 0.05
GLITCHLEVEL double 3
BOUNDARYWINDOW double 0.065
FRAMESPERPATH int 200
STEPSPERFRAME int 100
TRIALS int 30
ALLBLACK bool true
FILEPREFIX string POINT
GRAPHSIZE int 0
BORDER int 0
PLOTSIZE int 0
G6LINEWIDTH int 3
DELONELINEWIDTH int 10
AXISWIDTH int 6
TICLENGTH int 20
VECTOR g6 
FOLLOWERMODE FollowerMode point
FIXRANDOMSEED fixRandomSeed false
RANDOMSEED int 19191
TIMESTAMP bool true
END end 




-->
</svg>
