<?xml version="1.0" standalone="no"?>
<!-- the width and height set the total pixel output of the image in the browser -->
<!-- whatever is within the viewbox will be remapped to show in this size -->
<svg width="900" height="900" viewBox="1 0 900 900"  version="1.1" xmlns="http://www.w3.org/2000/svg" xmlns:xlink="http://www.w3.org/1999/xlink">
 <desc>ID (and file name) = POINT_2018-05-27.16_56_15.0_1.svg  mode = Single Point </desc> 
<text x = "-750" y="50" transform="rotate(-90)"  font-family="sans-serif" font-size="40" stroke ="lightgray" fill="none"> PointDistanceFollower   May 27 2018</text>
 <text x="560" y="30" font-family="sans-serif" font-size="20">Wall time passed: 31859 msec.</text>
<text x="300" y="60"   font-family="sans-serif" font-size="20" fill="lightblue">S6  lightblue</text>
<text x="300" y="85"   font-family="sans-serif" font-size="20" fill="slategrey">NCDist  slategrey</text>
<text x="300" y="110"  font-family="sans-serif" font-size="20" fill="violet">D7  violet</text>
<text x="300" y="135"  font-family="sans-serif" font-size="20" fill="olive">CS6Dist  olive</text>

 <text x="140"  y="30"  font-family="sans-serif" font-size="20" >POINT_2018-05-27.16_56_15.0_1.svg  </text> 


 <!--DISTANCE PLOT BEGINS   mode = Single Point-->


<!-- the following will scale and place the distance plot -->
<g  transform="translate(0, 50) ">
<g transform="translate(150,700) scale(1 -1)">
   <polyline fill="none" stroke=" lightblue " stroke-width=" 12 " points=" 5.94059,0 11.8812,15.0662 17.8218,30.1324 23.7624,45.1986 29.703,60.2648 35.6436,75.331 41.5842,90.3972 47.5248,105.463 53.4653,120.53 59.4059,135.596 65.3465,150.662 71.2871,165.728 77.2277,179.195 83.1683,190.705 89.1089,202.681 95.0495,215.047 100.99,227.738 106.931,240.703 112.871,238.44 118.812,240.251 124.752,242.426 130.693,253.409 136.634,253.673 142.574,254.477 148.515,255.815 154.455,257.678 160.396,260.056 166.337,262.935 172.277,266.298 178.218,270.127 184.158,274.404 190.099,279.106 196.04,284.213 201.98,289.704 207.921,295.557 213.861,301.752 219.802,308.267 225.743,315.083 231.683,322.18 237.624,329.541 243.564,337.148 249.505,344.985 255.446,353.037 261.386,361.288 267.327,369.727 273.267,378.34 279.208,386.111 285.149,393.781 291.089,401.646 297.03,408.044 302.97,404.651 308.911,401.57 314.851,398.81 320.792,396.377 326.733,394.277 332.673,392.515 338.614,391.096 344.554,390.024 350.495,389.301 356.436,388.93 362.376,388.911 368.317,389.245 374.257,389.93 380.198,390.965 386.139,392.347 392.079,394.073 398.02,389.667 403.96,378.885 409.901,367.894 415.842,356.948 421.782,346.052 427.723,335.212 433.663,324.432 439.604,313.719 445.545,303.079 451.485,292.522 457.426,282.056 463.366,269.465 469.307,256.853 475.248,244.387 481.188,232.089 487.129,219.988 493.069,208.118 499.01,196.521 504.95,185.247 510.891,174.361 516.832,163.938 522.772,153.857 528.713,142.071 534.653,130.711 540.594,119.897 546.535,109.791 552.475,97.6175 558.416,83.6721 564.356,69.7268 570.297,55.7814 576.238,41.8361 582.178,27.8907 588.119,13.9454 594.059,0 " />

   <polyline fill="none" stroke=" slategrey " stroke-width=" 9 " points=" 5.94059,0 11.8812,29.9578 17.8218,59.9157 23.7624,89.8735 29.703,119.831 35.6436,149.789 41.5842,179.747 47.5248,207.939 53.4653,231.871 59.4059,249.781 65.3465,263.717 71.2871,278.249 77.2277,295.378 83.1683,306.245 89.1089,317.598 95.0495,329.386 100.99,338.286 106.931,346.88 112.871,356.023 118.812,365.672 124.752,375.79 130.693,390.947 136.634,404.174 142.574,415.406 148.515,426.979 154.455,438.865 160.396,451.038 166.337,463.476 172.277,476.157 178.218,489.063 184.158,502.175 190.099,515.479 196.04,528.958 201.98,542.601 207.921,556.394 213.861,567.704 219.802,554.884 225.743,542.327 231.683,530.231 237.624,518.595 243.564,508.224 249.505,499.762 255.446,491.935 261.386,484.774 267.327,478.309 273.267,472.569 279.208,467.579 285.149,463.365 291.089,459.948 297.03,457.345 302.97,455.57 308.911,454.037 314.851,448.337 320.792,440.083 326.733,437.498 332.673,435.568 338.614,434.3 344.554,433.7 350.495,433.773 356.436,434.516 362.376,435.927 368.317,438 374.257,440.724 380.198,444.088 386.139,445.28 392.079,446.501 398.02,447.906 403.96,449.173 409.901,449.707 415.842,448.391 421.782,434.078 427.723,420.135 433.663,406.588 439.604,393.464 445.545,380.791 451.485,368.599 457.426,356.918 463.366,348.224 469.307,340.24 475.248,332.844 481.188,326.077 487.129,319.978 493.069,314.586 499.01,309.939 504.95,306.069 510.891,294.96 516.832,283.182 522.772,266.346 528.713,241.975 534.653,217.988 540.594,194.526 546.535,171.806 552.475,150.164 558.416,130.139 564.356,112.597 570.297,98.8702 576.238,78.0885 582.178,52.059 588.119,26.0295 594.059,0 " />

   <polyline fill="none" stroke=" violet " stroke-width=" 6 " points=" 5.94059,0 11.8812,23.1587 17.8218,46.3173 23.7624,69.476 29.703,92.6347 35.6436,115.793 41.5842,138.952 47.5248,162.111 53.4653,185.269 59.4059,208.428 65.3465,231.587 71.2871,254.745 77.2277,277.904 83.1683,299.078 89.1089,320.444 95.0495,342.044 100.99,363.836 106.931,380.833 112.871,383.954 118.812,387.005 124.752,390.507 130.693,393.113 136.634,394.713 142.574,396.994 148.515,399.961 154.455,403.61 160.396,407.938 166.337,412.936 172.277,418.593 178.218,424.893 184.158,431.821 190.099,439.357 196.04,447.479 201.98,450.553 207.921,442.273 213.861,435.761 219.802,431.256 225.743,429.069 231.683,429.572 237.624,433.155 243.564,440.144 249.505,450.695 255.446,463.368 261.386,476.491 267.327,492.736 273.267,511.754 279.208,533.126 285.149,556.437 291.089,581.322 297.03,598.672 302.97,593.543 308.911,588.926 314.851,584.833 320.792,581.27 326.733,578.245 332.673,575.765 338.614,572.909 344.554,570.31 350.495,568.43 356.436,567.244 362.376,566.73 368.317,566.367 374.257,566.091 380.198,566.499 386.139,567.605 392.079,569.425 398.02,562.498 403.96,547.355 409.901,531.93 415.842,516.577 421.782,501.303 427.723,486.117 433.663,471.025 439.604,456.037 445.545,441.165 451.485,426.42 457.426,411.815 463.366,394.323 469.307,376.901 475.248,359.792 481.188,343.042 487.129,326.705 493.069,310.841 499.01,295.518 504.95,278.236 510.891,259.863 516.832,241.785 522.772,224.074 528.713,206.823 534.653,190.158 540.594,174.247 546.535,159.316 552.475,141.539 558.416,121.319 564.356,101.099 570.297,80.8792 576.238,60.6594 582.178,40.4396 588.119,20.2198 594.059,0 " />

   <polyline fill="none" stroke=" olive " stroke-width=" 3 " points=" 5.94059,1.63487e-05 11.8812,15.0662 17.8218,30.1324 23.7624,45.1986 29.703,60.2648 35.6436,75.331 41.5842,90.3972 47.5248,105.463 53.4653,120.53 59.4059,135.596 65.3465,150.662 71.2871,165.728 77.2277,180.794 83.1683,194.334 89.1089,208.021 95.0495,221.247 100.99,234.218 106.931,246.183 112.871,245.102 118.812,247.041 124.752,249.359 130.693,253.822 136.634,254.987 142.574,256.681 148.515,258.906 154.455,261.658 160.396,264.932 166.337,268.72 172.277,273.009 178.218,277.787 184.158,283.037 190.099,288.74 196.04,294.879 201.98,301.432 207.921,308.38 213.861,315.701 219.802,323.375 225.743,331.381 231.683,339.699 237.624,348.31 243.564,357.195 249.505,366.338 255.446,375.72 261.386,385.327 267.327,395.144 273.267,405.156 279.208,415.35 285.149,425.715 291.089,424.093 297.03,420.326 302.97,416.837 308.911,413.632 314.851,410.717 320.792,408.096 326.733,405.775 332.673,403.759 338.614,402.051 344.554,400.655 350.495,399.575 356.436,398.812 362.376,398.37 368.317,398.248 374.257,398.449 380.198,398.971 386.139,399.815 392.079,399.932 398.02,389.667 403.96,378.885 409.901,367.894 415.842,356.948 421.782,346.052 427.723,335.212 433.663,324.432 439.604,313.719 445.545,303.079 451.485,292.522 457.426,282.056 463.366,270.31 469.307,258.699 475.248,247.349 481.188,236.3 487.129,225.598 493.069,215.298 499.01,203.748 504.95,190.97 510.891,178.367 516.832,165.979 522.772,153.857 528.713,142.071 534.653,130.711 540.594,119.897 546.535,109.791 552.475,97.6175 558.416,83.6721 564.356,69.7268 570.297,55.7814 576.238,41.8361 582.178,27.8907 588.119,13.9454 594.059,1.63487e-05 " />


<!--Draw Glitches -->

<line fill="none" stroke="black" stroke-width="4" x1="576.238" y1="68.0885" x2="576.238" y2="18.0885"  stroke-dasharray = "10,5" />
<text transform="scale(1,-1)" font-family="sans-serif" font-size="30" stroke = "rgb(0,0,0)" line = "rgb(0,0,0)"  fill = "slategrey" x="581.238" y="-18.0885" >96</text>

<!-- -->


<!--Draw the X and Y axes -->
<polyline fill="none" stroke="black" stroke-width="6"  points=" 600,0 0,0 0, 600" />
<polyline fill="none" stroke="black" stroke-width="1"  points=" 0 600  600 600  600 0" />
<!-- -->


<!--Draw labels and tics for X axis -->

<line fill="none" stroke="black"  stroke-width="6"  x1="0.5" y1="0" x2="0.5" y2="-20" />
<text transform="scale(1,-1)" font-family="sans-serif" font-size="30" x="-24.5" y="45" >0</text>
<line fill="none" stroke="black"  stroke-width="6"  x1="119.312" y1="0" x2="119.312" y2="-20" />
<text transform="scale(1,-1)" font-family="sans-serif" font-size="30" x="94.3119" y="45" >20</text>
<line fill="none" stroke="black"  stroke-width="6"  x1="238.124" y1="0" x2="238.124" y2="-20" />
<text transform="scale(1,-1)" font-family="sans-serif" font-size="30" x="213.124" y="45" >40</text>
<line fill="none" stroke="black"  stroke-width="6"  x1="356.936" y1="0" x2="356.936" y2="-20" />
<text transform="scale(1,-1)" font-family="sans-serif" font-size="30" x="331.936" y="45" >60</text>
<line fill="none" stroke="black"  stroke-width="6"  x1="475.748" y1="0" x2="475.748" y2="-20" />
<text transform="scale(1,-1)" font-family="sans-serif" font-size="30" x="450.748" y="45" >80</text>
<line fill="none" stroke="black"  stroke-width="6"  x1="594.559" y1="0" x2="594.559" y2="-20" />
<text transform="scale(1,-1)" font-family="sans-serif" font-size="30" x="569.559" y="45" >100</text>


<!--Draw labels and tics for Y axis -->

<line fill="none" stroke="black" stroke-width="6" x1="0.0" y1="0" x2="-20" y2="0" />
<text transform="scale(1,-1)" text-anchor="end" font-family="sans-serif" font-size="30" x="-25" y="10" >0</text>
<line fill="none" stroke="black" stroke-width="6" x1="0.0" y1="85.7143" x2="-20" y2="85.7143" />
<text transform="scale(1,-1)" text-anchor="end" font-family="sans-serif" font-size="30" x="-25" y="-75.7143" >5</text>
<line fill="none" stroke="black" stroke-width="6" x1="0.0" y1="171.429" x2="-20" y2="171.429" />
<text transform="scale(1,-1)" text-anchor="end" font-family="sans-serif" font-size="30" x="-25" y="-161.429" >10</text>
<line fill="none" stroke="black" stroke-width="6" x1="0.0" y1="257.143" x2="-20" y2="257.143" />
<text transform="scale(1,-1)" text-anchor="end" font-family="sans-serif" font-size="30" x="-25" y="-247.143" >15</text>
<line fill="none" stroke="black" stroke-width="6" x1="0.0" y1="342.857" x2="-20" y2="342.857" />
<text transform="scale(1,-1)" text-anchor="end" font-family="sans-serif" font-size="30" x="-25" y="-332.857" >20</text>
<line fill="none" stroke="black" stroke-width="6" x1="0.0" y1="428.571" x2="-20" y2="428.571" />
<text transform="scale(1,-1)" text-anchor="end" font-family="sans-serif" font-size="30" x="-25" y="-418.571" >25</text>
<line fill="none" stroke="black" stroke-width="6" x1="0.0" y1="514.286" x2="-20" y2="514.286" />
<text transform="scale(1,-1)" text-anchor="end" font-family="sans-serif" font-size="30" x="-25" y="-504.286" >30</text>
<line fill="none" stroke="black" stroke-width="6" x1="0.0" y1="600" x2="-20" y2="600" />
<text transform="scale(1,-1)" text-anchor="end" font-family="sans-serif" font-size="30" x="-25" y="-590" >35</text>

-->
</g>
</g>
<!-- Run Constants
PRINTDISTANCEDATA bool true
GLITCHESONLY bool false
PLOT 2doubles 3 4
PERTURBBY double 0.05
GLITCHLEVEL double 3
BOUNDARYWINDOW double 0.065
FRAMESPERPATH int 200
STEPSPERFRAME int 100
TRIALS int 30
ALLBLACK bool true
FILEPREFIX string POINT
GRAPHSIZE int 0
BORDER int 0
PLOTSIZE int 0
G6LINEWIDTH int 3
DELONELINEWIDTH int 10
AXISWIDTH int 6
TICLENGTH int 20
VECTOR g6 
FOLLOWERMODE FollowerMode point
FIXRANDOMSEED fixRandomSeed false
RANDOMSEED int 19191
TIMESTAMP bool true
END end 




-->
</svg>
