<?xml version="1.0" standalone="no"?>
<!-- the width and height set the total pixel output of the image in the browser -->
<!-- whatever is within the viewbox will be remapped to show in this size -->
<svg width="900" height="900" viewBox="1 0 900 900"  version="1.1" xmlns="http://www.w3.org/2000/svg" xmlns:xlink="http://www.w3.org/1999/xlink">
 <desc>ID (and file name) = POINT_2018-05-27.17_22_01.1_20.svg  mode = Single Point </desc> 
<text x = "-750" y="50" transform="rotate(-90)"  font-family="sans-serif" font-size="40" stroke ="lightgray" fill="none"> PointDistanceFollower   May 27 2018</text>
 <text x="560" y="30" font-family="sans-serif" font-size="20">Wall time passed: 32447 msec.</text>
<text x="300" y="60"   font-family="sans-serif" font-size="20" fill="lightblue">S6  lightblue</text>
<text x="300" y="85"   font-family="sans-serif" font-size="20" fill="slategrey">NCDist  slategrey</text>
<text x="300" y="110"  font-family="sans-serif" font-size="20" fill="violet">D7  violet</text>
<text x="300" y="135"  font-family="sans-serif" font-size="20" fill="olive">CS6Dist  olive</text>

 <text x="140"  y="30"  font-family="sans-serif" font-size="20" >POINT_2018-05-27.17_22_01.1_20.svg  </text> 


 <!--DISTANCE PLOT BEGINS   mode = Single Point-->


<!-- the following will scale and place the distance plot -->
<g  transform="translate(0, 50) ">
<g transform="translate(150,700) scale(1 -1)">
   <polyline fill="none" stroke=" lightblue " stroke-width=" 12 " points=" 5.94059,0 11.8812,34.8156 17.8218,69.6312 23.7624,104.447 29.703,139.262 35.6436,166.64 41.5842,175.922 47.5248,186.511 53.4653,198.197 59.4059,210.798 65.3465,224.159 71.2871,224.108 77.2277,223.203 83.1683,226.937 89.1089,233.542 95.0495,241.301 100.99,238.748 106.931,236.588 112.871,234.832 118.812,233.489 124.752,232.567 130.693,230.514 136.634,224.267 142.574,218.297 148.515,212.628 154.455,207.284 160.396,202.291 166.337,197.675 172.277,193.464 178.218,189.685 184.158,186.364 190.099,183.525 196.04,181.191 201.98,179.383 207.921,178.116 213.861,177.401 219.802,177.246 225.743,177.651 231.683,178.614 237.624,180.125 243.564,182.17 249.505,184.732 255.446,187.789 261.386,191.319 267.327,195.294 273.267,199.689 279.208,204.477 285.149,209.63 291.089,215.122 297.03,220.929 302.97,227.026 308.911,233.389 314.851,239.999 320.792,246.835 326.733,253.879 332.673,261.114 338.614,268.525 344.554,261.614 350.495,254.057 356.436,246.671 362.376,239.474 368.317,232.481 374.257,225.713 380.198,219.19 386.139,212.935 392.079,206.971 398.02,201.325 403.96,196.025 409.901,191.099 415.842,186.576 421.782,182.487 427.723,178.861 433.663,175.728 439.604,173.113 445.545,171.041 451.485,169.532 457.426,168.6 463.366,168.255 469.307,168.501 475.248,169.336 481.188,170.75 487.129,172.729 493.069,169.575 499.01,159.6 504.95,149.625 510.891,139.65 516.832,129.675 522.772,119.7 528.713,109.725 534.653,99.75 540.594,89.775 546.535,79.8 552.475,69.825 558.416,59.85 564.356,49.875 570.297,39.9 576.238,29.925 582.178,19.95 588.119,9.975 594.059,0 " />

   <polyline fill="none" stroke=" slategrey " stroke-width=" 9 " points=" 5.94059,0 11.8812,25.4176 17.8218,50.8352 23.7624,76.2528 29.703,101.67 35.6436,127.088 41.5842,152.506 47.5248,177.923 53.4653,203.341 59.4059,220.065 65.3465,232.205 71.2871,246.377 77.2277,246.379 83.1683,263.917 89.1089,274.625 95.0495,274.124 100.99,286.889 106.931,293.282 112.871,294.675 118.812,298.235 124.752,303.887 130.693,311.517 136.634,320.983 142.574,332.128 148.515,344.791 154.455,358.81 160.396,370.842 166.337,381.899 172.277,394.04 178.218,407.199 184.158,417.486 190.099,427.026 196.04,432.987 201.98,439.514 207.921,446.582 213.861,454.164 219.802,462.237 225.743,470.775 231.683,479.33 237.624,486.727 243.564,494.415 249.505,502.603 255.446,512.002 261.386,525.074 267.327,536.074 273.267,541.173 279.208,554.007 285.149,555.125 291.089,556.448 297.03,557.976 302.97,559.706 308.911,559.959 314.851,551.407 320.792,541.551 326.733,529.667 332.673,527.953 338.614,528.476 344.554,520.85 350.495,513.343 356.436,505.961 362.376,498.711 368.317,491.598 374.257,484.629 380.198,477.81 386.139,471.147 392.079,462.126 398.02,452.15 403.96,442.324 409.901,432.653 415.842,423.144 421.782,411.521 427.723,399.166 433.663,387.049 439.604,375.193 445.545,363.622 451.485,352.367 457.426,341.457 463.366,332.476 469.307,324.203 475.248,316.331 481.188,308.899 487.129,301.954 493.069,288.353 499.01,272.886 504.95,257.441 510.891,242.02 516.832,226.63 522.772,211.277 528.713,195.969 534.653,180.718 540.594,165.541 546.535,150.458 552.475,135.503 558.416,120.721 564.356,106.186 570.297,92.0153 576.238,74.8403 582.178,51.6855 588.119,25.8428 594.059,0 " />

   <polyline fill="none" stroke=" violet " stroke-width=" 6 " points=" 5.94059,3.23688e-05 11.8812,61.4069 17.8218,122.814 23.7624,184.221 29.703,245.627 35.6436,297.524 41.5842,325.535 47.5248,354.198 53.4653,383.425 59.4059,407.881 65.3465,414.165 71.2871,422.597 77.2277,433.051 83.1683,446.347 89.1089,461.153 95.0495,470.545 100.99,467.705 106.931,463.215 112.871,459.155 118.812,455.538 124.752,452.379 130.693,449.688 136.634,443.649 142.574,435.501 148.515,427.702 154.455,420.274 160.396,413.24 166.337,406.622 172.277,400.444 178.218,394.73 184.158,389.503 190.099,384.787 196.04,380.604 201.98,376.976 207.921,373.922 213.861,371.459 219.802,369.602 225.743,368.362 231.683,367.75 237.624,367.768 243.564,368.419 249.505,369.699 255.446,371.603 261.386,374.119 267.327,377.235 273.267,380.934 279.208,385.198 285.149,390.005 291.089,395.333 297.03,401.158 302.97,407.456 308.911,414.202 314.851,421.371 320.792,422.058 326.733,417.548 332.673,417.37 338.614,413.836 344.554,402.323 350.495,391.017 356.436,379.936 362.376,369.099 368.317,358.53 374.257,348.252 380.198,338.292 386.139,328.679 392.079,319.444 398.02,310.621 403.96,302.246 409.901,294.357 415.842,286.995 421.782,280.201 427.723,274.016 433.663,268.485 439.604,263.646 445.545,259.54 451.485,256.2 457.426,253.659 463.366,251.939 469.307,251.058 475.248,251.025 481.188,251.839 487.129,253.493 493.069,248.201 499.01,233.601 504.95,219.001 510.891,204.401 516.832,189.801 522.772,175.201 528.713,160.601 534.653,146.001 540.594,131.401 546.535,116.801 552.475,102.201 558.416,87.6005 564.356,73.0004 570.297,58.4003 576.238,43.8003 582.178,29.2002 588.119,14.6001 594.059,3.23688e-05 " />

   <polyline fill="none" stroke=" olive " stroke-width=" 3 " points=" 5.94059,0 11.8812,34.8156 17.8218,69.6312 23.7624,104.447 29.703,139.262 35.6436,168.958 41.5842,186.029 47.5248,203.823 53.4653,222.293 59.4059,230.234 65.3465,226.466 71.2871,224.108 77.2277,223.203 83.1683,231.037 89.1089,244.081 95.0495,246.996 100.99,250.846 106.931,249.02 112.871,247.602 118.812,246.604 124.752,246.035 130.693,244.289 136.634,238.17 142.574,232.305 148.515,226.719 154.455,221.437 160.396,216.49 166.337,211.906 172.277,207.717 178.218,203.957 184.158,200.658 190.099,197.852 196.04,195.57 201.98,193.841 207.921,192.69 213.861,192.135 219.802,192.19 225.743,192.863 231.683,194.154 237.624,196.054 243.564,198.551 249.505,201.625 255.446,205.25 261.386,209.4 267.327,214.042 273.267,219.144 279.208,224.674 285.149,230.599 291.089,236.886 297.03,243.507 302.97,250.432 308.911,257.635 314.851,265.091 320.792,272.778 326.733,280.676 332.673,277.188 338.614,269.329 344.554,261.614 350.495,254.057 356.436,246.671 362.376,239.474 368.317,232.481 374.257,225.713 380.198,219.19 386.139,212.935 392.079,206.971 398.02,201.325 403.96,196.025 409.901,191.099 415.842,186.576 421.782,182.487 427.723,178.861 433.663,175.728 439.604,173.113 445.545,171.041 451.485,169.532 457.426,168.6 463.366,168.255 469.307,168.501 475.248,169.336 481.188,170.75 487.129,172.729 493.069,169.575 499.01,159.6 504.95,149.625 510.891,139.65 516.832,129.675 522.772,119.7 528.713,109.725 534.653,99.75 540.594,89.775 546.535,79.8 552.475,69.825 558.416,59.85 564.356,49.875 570.297,39.9 576.238,29.925 582.178,19.95 588.119,9.975 594.059,0 " />


<!--Draw the X and Y axes -->
<polyline fill="none" stroke="black" stroke-width="6"  points=" 600,0 0,0 0, 600" />
<polyline fill="none" stroke="black" stroke-width="1"  points=" 0 600  600 600  600 0" />
<!-- -->


<!--Draw labels and tics for X axis -->

<line fill="none" stroke="black"  stroke-width="6"  x1="0.5" y1="0" x2="0.5" y2="-20" />
<text transform="scale(1,-1)" font-family="sans-serif" font-size="30" x="-24.5" y="45" >0</text>
<line fill="none" stroke="black"  stroke-width="6"  x1="119.312" y1="0" x2="119.312" y2="-20" />
<text transform="scale(1,-1)" font-family="sans-serif" font-size="30" x="94.3119" y="45" >20</text>
<line fill="none" stroke="black"  stroke-width="6"  x1="238.124" y1="0" x2="238.124" y2="-20" />
<text transform="scale(1,-1)" font-family="sans-serif" font-size="30" x="213.124" y="45" >40</text>
<line fill="none" stroke="black"  stroke-width="6"  x1="356.936" y1="0" x2="356.936" y2="-20" />
<text transform="scale(1,-1)" font-family="sans-serif" font-size="30" x="331.936" y="45" >60</text>
<line fill="none" stroke="black"  stroke-width="6"  x1="475.748" y1="0" x2="475.748" y2="-20" />
<text transform="scale(1,-1)" font-family="sans-serif" font-size="30" x="450.748" y="45" >80</text>
<line fill="none" stroke="black"  stroke-width="6"  x1="594.559" y1="0" x2="594.559" y2="-20" />
<text transform="scale(1,-1)" font-family="sans-serif" font-size="30" x="569.559" y="45" >100</text>


<!--Draw labels and tics for Y axis -->

<line fill="none" stroke="black" stroke-width="6" x1="0.0" y1="0" x2="-20" y2="0" />
<text transform="scale(1,-1)" text-anchor="end" font-family="sans-serif" font-size="30" x="-25" y="10" >0</text>
<line fill="none" stroke="black" stroke-width="6" x1="0.0" y1="120" x2="-20" y2="120" />
<text transform="scale(1,-1)" text-anchor="end" font-family="sans-serif" font-size="30" x="-25" y="-110" >10</text>
<line fill="none" stroke="black" stroke-width="6" x1="0.0" y1="240" x2="-20" y2="240" />
<text transform="scale(1,-1)" text-anchor="end" font-family="sans-serif" font-size="30" x="-25" y="-230" >20</text>
<line fill="none" stroke="black" stroke-width="6" x1="0.0" y1="360" x2="-20" y2="360" />
<text transform="scale(1,-1)" text-anchor="end" font-family="sans-serif" font-size="30" x="-25" y="-350" >30</text>
<line fill="none" stroke="black" stroke-width="6" x1="0.0" y1="480" x2="-20" y2="480" />
<text transform="scale(1,-1)" text-anchor="end" font-family="sans-serif" font-size="30" x="-25" y="-470" >40</text>
<line fill="none" stroke="black" stroke-width="6" x1="0.0" y1="600" x2="-20" y2="600" />
<text transform="scale(1,-1)" text-anchor="end" font-family="sans-serif" font-size="30" x="-25" y="-590" >50</text>

-->
</g>
</g>
<!-- Run Constants
PRINTDISTANCEDATA bool true
GLITCHESONLY bool false
PLOT 2doubles 3 4
PERTURBBY double 0.05
GLITCHLEVEL double 3
BOUNDARYWINDOW double 0.065
FRAMESPERPATH int 200
STEPSPERFRAME int 100
TRIALS int 30
ALLBLACK bool true
FILEPREFIX string POINT
GRAPHSIZE int 0
BORDER int 0
PLOTSIZE int 0
G6LINEWIDTH int 3
DELONELINEWIDTH int 10
AXISWIDTH int 6
TICLENGTH int 20
VECTOR g6 
FOLLOWERMODE FollowerMode point
FIXRANDOMSEED fixRandomSeed false
RANDOMSEED int 19191
TIMESTAMP bool true
END end 




-->
</svg>
