<?xml version="1.0" standalone="no"?>
<!-- the width and height set the total pixel output of the image in the browser -->
<!-- whatever is within the viewbox will be remapped to show in this size -->
<svg width="900" height="900" viewBox="1 0 900 900"  version="1.1" xmlns="http://www.w3.org/2000/svg" xmlns:xlink="http://www.w3.org/1999/xlink">
 <desc>ID (and file name) = POINT_2018-05-27.17_38_21.2_22.svg  mode = Single Point </desc> 
<text x = "-750" y="50" transform="rotate(-90)"  font-family="sans-serif" font-size="40" stroke ="lightgray" fill="none"> PointDistanceFollower   May 27 2018</text>
 <text x="560" y="30" font-family="sans-serif" font-size="20">Wall time passed: 32546 msec.</text>
<text x="300" y="60"   font-family="sans-serif" font-size="20" fill="lightblue">S6  lightblue</text>
<text x="300" y="85"   font-family="sans-serif" font-size="20" fill="slategrey">NCDist  slategrey</text>
<text x="300" y="110"  font-family="sans-serif" font-size="20" fill="violet">D7  violet</text>
<text x="300" y="135"  font-family="sans-serif" font-size="20" fill="olive">CS6Dist  olive</text>

 <text x="140"  y="30"  font-family="sans-serif" font-size="20" >POINT_2018-05-27.17_38_21.2_22.svg  </text> 


 <!--DISTANCE PLOT BEGINS   mode = Single Point-->


<!-- the following will scale and place the distance plot -->
<g  transform="translate(0, 50) ">
<g transform="translate(150,700) scale(1 -1)">
   <polyline fill="none" stroke=" lightblue " stroke-width=" 12 " points=" 5.94059,0 11.8812,10.2266 17.8218,20.4532 23.7624,30.6798 29.703,40.9064 35.6436,51.1331 41.5842,61.3597 47.5248,71.5863 53.4653,81.8129 59.4059,92.0395 65.3465,102.266 71.2871,112.493 77.2277,122.719 83.1683,132.946 89.1089,143.173 95.0495,153.399 100.99,163.626 106.931,173.852 112.871,184.079 118.812,194.306 124.752,204.532 130.693,214.759 136.634,224.985 142.574,235.212 148.515,245.439 154.455,255.665 160.396,265.892 166.337,276.119 172.277,286.345 178.218,296.572 184.158,306.798 190.099,317.025 196.04,327.252 201.98,337.303 207.921,345.299 213.861,342.775 219.802,337.582 225.743,332.529 231.683,327.621 237.624,322.865 243.564,318.269 249.505,313.839 255.446,309.583 261.386,305.507 267.327,301.619 273.267,296.699 279.208,288.96 285.149,281.268 291.089,273.628 297.03,266.044 302.97,258.617 308.911,251.351 314.851,244.156 320.792,237.039 326.733,230.007 332.673,223.068 338.614,216.232 344.554,209.508 350.495,202.907 356.436,196.442 362.376,190.126 368.317,183.976 374.257,178.007 380.198,172.24 386.139,166.695 392.079,161.394 398.02,156.364 403.96,151.629 409.901,147.22 415.842,143.167 421.782,139.499 427.723,136.249 433.663,133.447 439.604,131.121 445.545,129.298 451.485,127.998 457.426,127.238 463.366,127.028 469.307,127.37 475.248,128.26 481.188,129.687 487.129,131.632 493.069,134.075 499.01,134.089 504.95,125.708 510.891,117.328 516.832,108.947 522.772,100.566 528.713,92.1859 534.653,83.8054 540.594,75.4248 546.535,67.0443 552.475,58.6638 558.416,50.2832 564.356,41.9027 570.297,33.5221 576.238,25.1416 582.178,16.7611 588.119,8.38054 594.059,0 " />

   <polyline fill="none" stroke=" slategrey " stroke-width=" 9 " points=" 5.94059,0 11.8812,14.9369 17.8218,29.8737 23.7624,44.8106 29.703,59.7474 35.6436,74.6843 41.5842,89.6212 47.5248,104.558 53.4653,119.495 59.4059,134.432 65.3465,149.369 71.2871,164.305 77.2277,179.242 83.1683,194.179 89.1089,206.594 95.0495,218.972 100.99,231.35 106.931,241.493 112.871,247.806 118.812,254.889 124.752,262.676 130.693,271.102 136.634,280.107 142.574,289.632 148.515,299.625 154.455,310.039 160.396,320.83 166.337,331.96 172.277,343.393 178.218,355.099 184.158,367.051 190.099,379.225 196.04,386.767 201.98,389.634 207.921,402.315 213.861,414.574 219.802,407.716 225.743,401.316 231.683,395.398 237.624,389.983 243.564,385.095 249.505,380.754 255.446,376.98 261.386,373.792 267.327,371.205 273.267,366.327 279.208,361.992 285.149,358.255 291.089,355.137 297.03,352.654 302.97,345.609 308.911,336.636 314.851,328.098 320.792,320.029 326.733,312.467 332.673,305.448 338.614,299.012 344.554,293.195 350.495,288.037 356.436,283.572 362.376,279.835 368.317,276.854 374.257,274.654 380.198,268.384 386.139,261.572 392.079,255.453 398.02,250.079 403.96,245.498 409.901,241.755 415.842,238.89 421.782,236.934 427.723,235.073 433.663,232.02 439.604,229.441 445.545,227.351 451.485,225.766 457.426,224.694 463.366,224.143 469.307,224.118 475.248,224.618 481.188,225.64 487.129,227.177 493.069,229.219 499.01,231.752 504.95,234.76 510.891,236.957 516.832,230.751 522.772,216.29 528.713,201.872 534.653,187.51 540.594,173.217 546.535,159.014 552.475,144.932 558.416,131.016 564.356,117.333 570.297,98.5478 576.238,74.3914 582.178,49.5943 588.119,24.7971 594.059,0 " />

   <polyline fill="none" stroke=" violet " stroke-width=" 6 " points=" 5.94059,4.57764e-05 11.8812,17.3098 17.8218,34.6197 23.7624,51.9295 29.703,69.2394 35.6436,86.5492 41.5842,103.859 47.5248,121.169 53.4653,138.479 59.4059,155.789 65.3465,173.098 71.2871,190.408 77.2277,207.718 83.1683,225.028 89.1089,242.338 95.0495,259.648 100.99,276.958 106.931,294.267 112.871,311.577 118.812,328.887 124.752,346.197 130.693,363.507 136.634,380.817 142.574,398.127 148.515,415.436 154.455,432.746 160.396,450.056 166.337,467.366 172.277,484.676 178.218,501.986 184.158,519.295 190.099,536.605 196.04,553.915 201.98,570.943 207.921,584.532 213.861,580.777 219.802,572.036 225.743,563.459 231.683,555.052 237.624,546.824 243.564,538.782 249.505,530.936 255.446,523.293 261.386,515.862 267.327,507.992 273.267,499.278 279.208,487.691 285.149,476.171 291.089,464.723 297.03,453.352 302.97,442.109 308.911,431.001 314.851,419.991 320.792,409.089 326.733,398.302 332.673,387.641 338.614,377.118 344.554,366.743 350.495,356.532 356.436,346.498 362.376,336.66 368.317,327.036 374.257,317.647 380.198,308.516 386.139,299.669 392.079,291.135 398.02,282.946 403.96,275.134 409.901,267.74 415.842,260.801 421.782,254.363 427.723,248.47 433.663,243.168 439.604,238.505 445.545,234.526 451.485,231.272 457.426,228.782 463.366,226.671 469.307,224.948 475.248,224.009 481.188,219.455 487.129,212.877 493.069,210.444 499.01,206.22 504.95,193.331 510.891,180.443 516.832,167.554 522.772,154.665 528.713,141.776 534.653,128.888 540.594,115.999 546.535,103.11 552.475,90.2213 558.416,77.3325 564.356,64.4438 570.297,51.555 576.238,38.6663 582.178,25.7775 588.119,12.8888 594.059,4.57764e-05 " />

   <polyline fill="none" stroke=" olive " stroke-width=" 3 " points=" 5.94059,0 11.8812,10.2266 17.8218,20.4532 23.7624,30.6798 29.703,40.9064 35.6436,51.1331 41.5842,61.3597 47.5248,71.5863 53.4653,81.8129 59.4059,92.0395 65.3465,102.266 71.2871,112.493 77.2277,122.719 83.1683,132.946 89.1089,143.173 95.0495,153.399 100.99,163.626 106.931,173.852 112.871,184.079 118.812,194.306 124.752,204.532 130.693,214.759 136.634,224.985 142.574,235.212 148.515,245.439 154.455,255.665 160.396,265.892 166.337,276.119 172.277,286.345 178.218,296.572 184.158,306.798 190.099,317.025 196.04,327.252 201.98,337.489 207.921,348.037 213.861,348.915 219.802,343.295 225.743,337.816 231.683,332.482 237.624,327.302 243.564,322.282 249.505,317.428 255.446,312.748 261.386,308.249 267.327,303.939 273.267,296.699 279.208,288.96 285.149,281.268 291.089,273.628 297.03,266.044 302.97,258.826 308.911,251.975 314.851,245.192 320.792,238.483 326.733,231.856 332.673,225.318 338.614,218.877 344.554,212.544 350.495,206.328 356.436,200.243 362.376,194.301 368.317,188.518 374.257,182.911 380.198,177.498 386.139,172.299 392.079,167.338 398.02,162.639 403.96,158.23 409.901,154.139 415.842,150.397 421.782,147.036 427.723,144.089 433.663,141.588 439.604,139.563 445.545,138.043 451.485,137.051 457.426,136.606 463.366,136.72 469.307,137.398 475.248,138.636 481.188,140.424 487.129,142.745 493.069,142.469 499.01,134.089 504.95,125.708 510.891,117.328 516.832,108.947 522.772,100.566 528.713,92.1859 534.653,83.8054 540.594,75.4248 546.535,67.0443 552.475,58.6638 558.416,50.2832 564.356,41.9027 570.297,33.5221 576.238,25.1416 582.178,16.7611 588.119,8.38054 594.059,0 " />


<!--Draw the X and Y axes -->
<polyline fill="none" stroke="black" stroke-width="6"  points=" 600,0 0,0 0, 600" />
<polyline fill="none" stroke="black" stroke-width="1"  points=" 0 600  600 600  600 0" />
<!-- -->


<!--Draw labels and tics for X axis -->

<line fill="none" stroke="black"  stroke-width="6"  x1="0.5" y1="0" x2="0.5" y2="-20" />
<text transform="scale(1,-1)" font-family="sans-serif" font-size="30" x="-24.5" y="45" >0</text>
<line fill="none" stroke="black"  stroke-width="6"  x1="119.312" y1="0" x2="119.312" y2="-20" />
<text transform="scale(1,-1)" font-family="sans-serif" font-size="30" x="94.3119" y="45" >20</text>
<line fill="none" stroke="black"  stroke-width="6"  x1="238.124" y1="0" x2="238.124" y2="-20" />
<text transform="scale(1,-1)" font-family="sans-serif" font-size="30" x="213.124" y="45" >40</text>
<line fill="none" stroke="black"  stroke-width="6"  x1="356.936" y1="0" x2="356.936" y2="-20" />
<text transform="scale(1,-1)" font-family="sans-serif" font-size="30" x="331.936" y="45" >60</text>
<line fill="none" stroke="black"  stroke-width="6"  x1="475.748" y1="0" x2="475.748" y2="-20" />
<text transform="scale(1,-1)" font-family="sans-serif" font-size="30" x="450.748" y="45" >80</text>
<line fill="none" stroke="black"  stroke-width="6"  x1="594.559" y1="0" x2="594.559" y2="-20" />
<text transform="scale(1,-1)" font-family="sans-serif" font-size="30" x="569.559" y="45" >100</text>


<!--Draw labels and tics for Y axis -->

<line fill="none" stroke="black" stroke-width="6" x1="0.0" y1="0" x2="-20" y2="0" />
<text transform="scale(1,-1)" text-anchor="end" font-family="sans-serif" font-size="30" x="-25" y="10" >0</text>
<line fill="none" stroke="black" stroke-width="6" x1="0.0" y1="120" x2="-20" y2="120" />
<text transform="scale(1,-1)" text-anchor="end" font-family="sans-serif" font-size="30" x="-25" y="-110" >5</text>
<line fill="none" stroke="black" stroke-width="6" x1="0.0" y1="240" x2="-20" y2="240" />
<text transform="scale(1,-1)" text-anchor="end" font-family="sans-serif" font-size="30" x="-25" y="-230" >10</text>
<line fill="none" stroke="black" stroke-width="6" x1="0.0" y1="360" x2="-20" y2="360" />
<text transform="scale(1,-1)" text-anchor="end" font-family="sans-serif" font-size="30" x="-25" y="-350" >15</text>
<line fill="none" stroke="black" stroke-width="6" x1="0.0" y1="480" x2="-20" y2="480" />
<text transform="scale(1,-1)" text-anchor="end" font-family="sans-serif" font-size="30" x="-25" y="-470" >20</text>
<line fill="none" stroke="black" stroke-width="6" x1="0.0" y1="600" x2="-20" y2="600" />
<text transform="scale(1,-1)" text-anchor="end" font-family="sans-serif" font-size="30" x="-25" y="-590" >25</text>

-->
</g>
</g>
<!-- Run Constants
PRINTDISTANCEDATA bool true
GLITCHESONLY bool false
PLOT 2doubles 3 4
PERTURBBY double 0.05
GLITCHLEVEL double 3
BOUNDARYWINDOW double 0.065
FRAMESPERPATH int 200
STEPSPERFRAME int 100
TRIALS int 30
ALLBLACK bool true
FILEPREFIX string POINT
GRAPHSIZE int 0
BORDER int 0
PLOTSIZE int 0
G6LINEWIDTH int 3
DELONELINEWIDTH int 10
AXISWIDTH int 6
TICLENGTH int 20
VECTOR g6 
FOLLOWERMODE FollowerMode point
FIXRANDOMSEED fixRandomSeed false
RANDOMSEED int 19191
TIMESTAMP bool true
END end 




-->
</svg>
