<?xml version="1.0" standalone="no"?>
<!-- the width and height set the total pixel output of the image in the browser -->
<!-- whatever is within the viewbox will be remapped to show in this size -->
<svg width="900" height="900" viewBox="1 0 900 900"  version="1.1" xmlns="http://www.w3.org/2000/svg" xmlns:xlink="http://www.w3.org/1999/xlink">
 <desc>ID (and file name) = POINT_2018-05-27.16_58_55.0_6.svg  mode = Single Point </desc> 
<text x = "-750" y="50" transform="rotate(-90)"  font-family="sans-serif" font-size="40" stroke ="lightgray" fill="none"> PointDistanceFollower   May 27 2018</text>
 <text x="560" y="30" font-family="sans-serif" font-size="20">Wall time passed: 32352 msec.</text>
<text x="300" y="60"   font-family="sans-serif" font-size="20" fill="lightblue">S6  lightblue</text>
<text x="300" y="85"   font-family="sans-serif" font-size="20" fill="slategrey">NCDist  slategrey</text>
<text x="300" y="110"  font-family="sans-serif" font-size="20" fill="violet">D7  violet</text>
<text x="300" y="135"  font-family="sans-serif" font-size="20" fill="olive">CS6Dist  olive</text>

 <text x="140"  y="30"  font-family="sans-serif" font-size="20" >POINT_2018-05-27.16_58_55.0_6.svg  </text> 


 <!--DISTANCE PLOT BEGINS   mode = Single Point-->


<!-- the following will scale and place the distance plot -->
<g  transform="translate(0, 50) ">
<g transform="translate(150,700) scale(1 -1)">
   <polyline fill="none" stroke=" lightblue " stroke-width=" 12 " points=" 5.94059,0 11.8812,10.2999 17.8218,20.5998 23.7624,30.8997 29.703,41.1996 35.6436,51.4995 41.5842,61.7994 47.5248,72.0992 53.4653,82.3991 59.4059,92.699 65.3465,102.999 71.2871,113.299 77.2277,123.599 83.1683,133.899 89.1089,144.198 95.0495,154.498 100.99,164.798 106.931,175.098 112.871,179.273 118.812,182.442 124.752,186.128 130.693,190.301 136.634,194.93 142.574,199.982 148.515,205.426 154.455,211.233 160.396,217.373 166.337,223.819 172.277,230.545 178.218,237.527 184.158,244.744 190.099,252.175 196.04,259.801 201.98,267.607 207.921,275.577 213.861,283.697 219.802,291.954 225.743,300.338 231.683,308.838 237.624,317.444 243.564,326.148 249.505,334.943 255.446,343.822 261.386,352.778 267.327,361.805 273.267,370.899 279.208,380.054 285.149,389.267 291.089,398.532 297.03,407.848 302.97,407.848 308.911,398.532 314.851,389.267 320.792,380.054 326.733,370.899 332.673,361.805 338.614,352.778 344.554,343.822 350.495,334.943 356.436,326.148 362.376,317.444 368.317,308.838 374.257,300.338 380.198,291.954 386.139,283.697 392.079,275.577 398.02,267.607 403.96,259.801 409.901,252.175 415.842,244.744 421.782,237.527 427.723,230.545 433.663,223.819 439.604,217.373 445.545,211.233 451.485,205.426 457.426,199.982 463.366,194.93 469.307,190.301 475.248,186.128 481.188,182.442 487.129,179.273 493.069,175.098 499.01,164.798 504.95,154.498 510.891,144.198 516.832,133.899 522.772,123.599 528.713,113.299 534.653,102.999 540.594,92.699 546.535,82.3991 552.475,72.0992 558.416,61.7994 564.356,51.4995 570.297,41.1996 576.238,30.8997 582.178,20.5998 588.119,10.2999 594.059,0 " />

   <polyline fill="none" stroke=" slategrey " stroke-width=" 9 " points=" 5.94059,0 11.8812,14.3101 17.8218,28.6202 23.7624,42.9303 29.703,57.2403 35.6436,71.5504 41.5842,85.8605 47.5248,100.171 53.4653,114.481 59.4059,128.791 65.3465,141.569 71.2871,151.242 77.2277,161.207 83.1683,171.432 89.1089,181.89 95.0495,192.556 100.99,202.874 106.931,206.243 112.871,209.732 118.812,214.375 124.752,218.824 130.693,223.551 136.634,228.539 142.574,233.771 148.515,239.231 154.455,244.904 160.396,250.775 166.337,256.831 172.277,263.059 178.218,269.447 184.158,275.984 190.099,282.66 196.04,289.464 201.98,296.389 207.921,303.426 213.861,310.567 219.802,317.806 225.743,325.135 231.683,332.549 237.624,340.042 243.564,347.61 249.505,355.247 255.446,362.948 261.386,370.711 267.327,378.531 273.267,386.405 279.208,394.329 285.149,402.301 291.089,410.317 297.03,418.376 302.97,418.376 308.911,410.317 314.851,402.301 320.792,394.329 326.733,386.405 332.673,378.531 338.614,370.711 344.554,362.948 350.495,355.247 356.436,347.61 362.376,340.042 368.317,332.549 374.257,325.135 380.198,317.806 386.139,310.567 392.079,303.426 398.02,296.389 403.96,289.464 409.901,282.66 415.842,275.984 421.782,269.447 427.723,263.059 433.663,256.831 439.604,250.775 445.545,244.904 451.485,239.231 457.426,233.771 463.366,228.539 469.307,223.551 475.248,218.824 481.188,214.375 487.129,209.732 493.069,206.243 499.01,202.874 504.95,192.556 510.891,181.89 516.832,171.432 522.772,161.207 528.713,151.242 534.653,141.569 540.594,128.791 546.535,114.481 552.475,100.171 558.416,85.8605 564.356,71.5504 570.297,57.2403 576.238,42.9303 582.178,28.6202 588.119,14.3101 594.059,0 " />

   <polyline fill="none" stroke=" violet " stroke-width=" 6 " points=" 5.94059,5.3948e-05 11.8812,14.6202 17.8218,29.2403 23.7624,43.8605 29.703,58.4806 35.6436,73.1008 41.5842,87.721 47.5248,102.341 53.4653,116.961 59.4059,131.581 65.3465,146.202 71.2871,160.822 77.2277,175.442 83.1683,190.062 89.1089,204.682 95.0495,219.302 100.99,233.923 106.931,248.543 112.871,254.534 118.812,259.111 124.752,264.418 130.693,270.413 136.634,277.05 142.574,284.285 148.515,292.072 154.455,300.37 160.396,309.137 166.337,318.335 172.277,327.926 178.218,337.878 184.158,348.16 190.099,358.743 196.04,369.601 201.98,380.711 207.921,392.051 213.861,403.603 219.802,415.348 225.743,427.27 231.683,439.356 237.624,451.591 243.564,463.965 249.505,476.465 255.446,489.084 261.386,501.81 267.327,514.638 273.267,527.559 279.208,540.566 285.149,553.654 291.089,566.817 297.03,580.049 302.97,580.049 308.911,566.817 314.851,553.654 320.792,540.566 326.733,527.559 332.673,514.638 338.614,501.81 344.554,489.084 350.495,476.465 356.436,463.965 362.376,451.591 368.317,439.356 374.257,427.27 380.198,415.348 386.139,403.603 392.079,392.051 398.02,380.711 403.96,369.601 409.901,358.743 415.842,348.16 421.782,337.878 427.723,327.926 433.663,318.335 439.604,309.137 445.545,300.37 451.485,292.072 457.426,284.285 463.366,277.05 469.307,270.413 475.248,264.418 481.188,259.111 487.129,254.534 493.069,248.543 499.01,233.923 504.95,219.302 510.891,204.682 516.832,190.062 522.772,175.442 528.713,160.822 534.653,146.202 540.594,131.581 546.535,116.961 552.475,102.341 558.416,87.721 564.356,73.1008 570.297,58.4806 576.238,43.8605 582.178,29.2403 588.119,14.6202 594.059,5.3948e-05 " />

   <polyline fill="none" stroke=" olive " stroke-width=" 3 " points=" 5.94059,0 11.8812,10.2999 17.8218,20.5998 23.7624,30.8997 29.703,41.1996 35.6436,51.4995 41.5842,61.7994 47.5248,72.0992 53.4653,82.3991 59.4059,92.699 65.3465,102.999 71.2871,113.299 77.2277,123.599 83.1683,133.899 89.1089,144.198 95.0495,154.498 100.99,164.798 106.931,175.098 112.871,179.273 118.812,182.442 124.752,186.128 130.693,190.301 136.634,194.93 142.574,199.982 148.515,205.426 154.455,211.233 160.396,217.373 166.337,223.819 172.277,230.545 178.218,237.527 184.158,244.744 190.099,252.175 196.04,259.801 201.98,267.607 207.921,275.577 213.861,283.697 219.802,291.954 225.743,300.338 231.683,308.838 237.624,317.444 243.564,326.148 249.505,334.943 255.446,343.822 261.386,352.778 267.327,361.805 273.267,370.899 279.208,380.054 285.149,389.267 291.089,398.532 297.03,407.848 302.97,407.848 308.911,398.532 314.851,389.267 320.792,380.054 326.733,370.899 332.673,361.805 338.614,352.778 344.554,343.822 350.495,334.943 356.436,326.148 362.376,317.444 368.317,308.838 374.257,300.338 380.198,291.954 386.139,283.697 392.079,275.577 398.02,267.607 403.96,259.801 409.901,252.175 415.842,244.744 421.782,237.527 427.723,230.545 433.663,223.819 439.604,217.373 445.545,211.233 451.485,205.426 457.426,199.982 463.366,194.93 469.307,190.301 475.248,186.128 481.188,182.442 487.129,179.273 493.069,175.098 499.01,164.798 504.95,154.498 510.891,144.198 516.832,133.899 522.772,123.599 528.713,113.299 534.653,102.999 540.594,92.699 546.535,82.3991 552.475,72.0992 558.416,61.7994 564.356,51.4995 570.297,41.1996 576.238,30.8997 582.178,20.5998 588.119,10.2999 594.059,0 " />


<!--Draw the X and Y axes -->
<polyline fill="none" stroke="black" stroke-width="6"  points=" 600,0 0,0 0, 600" />
<polyline fill="none" stroke="black" stroke-width="1"  points=" 0 600  600 600  600 0" />
<!-- -->


<!--Draw labels and tics for X axis -->

<line fill="none" stroke="black"  stroke-width="6"  x1="0.5" y1="0" x2="0.5" y2="-20" />
<text transform="scale(1,-1)" font-family="sans-serif" font-size="30" x="-24.5" y="45" >0</text>
<line fill="none" stroke="black"  stroke-width="6"  x1="119.312" y1="0" x2="119.312" y2="-20" />
<text transform="scale(1,-1)" font-family="sans-serif" font-size="30" x="94.3119" y="45" >20</text>
<line fill="none" stroke="black"  stroke-width="6"  x1="238.124" y1="0" x2="238.124" y2="-20" />
<text transform="scale(1,-1)" font-family="sans-serif" font-size="30" x="213.124" y="45" >40</text>
<line fill="none" stroke="black"  stroke-width="6"  x1="356.936" y1="0" x2="356.936" y2="-20" />
<text transform="scale(1,-1)" font-family="sans-serif" font-size="30" x="331.936" y="45" >60</text>
<line fill="none" stroke="black"  stroke-width="6"  x1="475.748" y1="0" x2="475.748" y2="-20" />
<text transform="scale(1,-1)" font-family="sans-serif" font-size="30" x="450.748" y="45" >80</text>
<line fill="none" stroke="black"  stroke-width="6"  x1="594.559" y1="0" x2="594.559" y2="-20" />
<text transform="scale(1,-1)" font-family="sans-serif" font-size="30" x="569.559" y="45" >100</text>


<!--Draw labels and tics for Y axis -->

<line fill="none" stroke="black" stroke-width="6" x1="0.0" y1="0" x2="-20" y2="0" />
<text transform="scale(1,-1)" text-anchor="end" font-family="sans-serif" font-size="30" x="-25" y="10" >0</text>
<line fill="none" stroke="black" stroke-width="6" x1="0.0" y1="100" x2="-20" y2="100" />
<text transform="scale(1,-1)" text-anchor="end" font-family="sans-serif" font-size="30" x="-25" y="-90" >5</text>
<line fill="none" stroke="black" stroke-width="6" x1="0.0" y1="200" x2="-20" y2="200" />
<text transform="scale(1,-1)" text-anchor="end" font-family="sans-serif" font-size="30" x="-25" y="-190" >10</text>
<line fill="none" stroke="black" stroke-width="6" x1="0.0" y1="300" x2="-20" y2="300" />
<text transform="scale(1,-1)" text-anchor="end" font-family="sans-serif" font-size="30" x="-25" y="-290" >15</text>
<line fill="none" stroke="black" stroke-width="6" x1="0.0" y1="400" x2="-20" y2="400" />
<text transform="scale(1,-1)" text-anchor="end" font-family="sans-serif" font-size="30" x="-25" y="-390" >20</text>
<line fill="none" stroke="black" stroke-width="6" x1="0.0" y1="500" x2="-20" y2="500" />
<text transform="scale(1,-1)" text-anchor="end" font-family="sans-serif" font-size="30" x="-25" y="-490" >25</text>
<line fill="none" stroke="black" stroke-width="6" x1="0.0" y1="600" x2="-20" y2="600" />
<text transform="scale(1,-1)" text-anchor="end" font-family="sans-serif" font-size="30" x="-25" y="-590" >30</text>

-->
</g>
</g>
<!-- Run Constants
PRINTDISTANCEDATA bool true
GLITCHESONLY bool false
PLOT 2doubles 3 4
PERTURBBY double 0.05
GLITCHLEVEL double 3
BOUNDARYWINDOW double 0.065
FRAMESPERPATH int 200
STEPSPERFRAME int 100
TRIALS int 30
ALLBLACK bool true
FILEPREFIX string POINT
GRAPHSIZE int 0
BORDER int 0
PLOTSIZE int 0
G6LINEWIDTH int 3
DELONELINEWIDTH int 10
AXISWIDTH int 6
TICLENGTH int 20
VECTOR g6 
FOLLOWERMODE FollowerMode point
FIXRANDOMSEED fixRandomSeed false
RANDOMSEED int 19191
TIMESTAMP bool true
END end 




-->
</svg>
