<?xml version="1.0" standalone="no"?>
<!-- the width and height set the total pixel output of the image in the browser -->
<!-- whatever is within the viewbox will be remapped to show in this size -->
<svg width="900" height="900" viewBox="1 0 900 900"  version="1.1" xmlns="http://www.w3.org/2000/svg" xmlns:xlink="http://www.w3.org/1999/xlink">
 <desc>ID (and file name) = POINT_2018-05-27.16_57_52.0_4.svg  mode = Single Point </desc> 
<text x = "-750" y="50" transform="rotate(-90)"  font-family="sans-serif" font-size="40" stroke ="lightgray" fill="none"> PointDistanceFollower   May 27 2018</text>
 <text x="560" y="30" font-family="sans-serif" font-size="20">Wall time passed: 30888 msec.</text>
<text x="300" y="60"   font-family="sans-serif" font-size="20" fill="lightblue">S6  lightblue</text>
<text x="300" y="85"   font-family="sans-serif" font-size="20" fill="slategrey">NCDist  slategrey</text>
<text x="300" y="110"  font-family="sans-serif" font-size="20" fill="violet">D7  violet</text>
<text x="300" y="135"  font-family="sans-serif" font-size="20" fill="olive">CS6Dist  olive</text>

 <text x="140"  y="30"  font-family="sans-serif" font-size="20" >POINT_2018-05-27.16_57_52.0_4.svg  </text> 


 <!--DISTANCE PLOT BEGINS   mode = Single Point-->


<!-- the following will scale and place the distance plot -->
<g  transform="translate(0, 50) ">
<g transform="translate(150,700) scale(1 -1)">
   <polyline fill="none" stroke=" lightblue " stroke-width=" 12 " points=" 5.94059,0 11.8812,10.5117 17.8218,20.2427 23.7624,29.6372 29.703,40.8196 35.6436,48.9166 41.5842,49.3158 47.5248,51.3494 53.4653,54.836 59.4059,59.5207 65.3465,65.1455 71.2871,71.489 77.2277,78.3767 83.1683,85.6776 89.1089,93.2947 95.0495,101.157 100.99,109.21 106.931,117.417 112.871,125.746 118.812,134.174 124.752,142.685 130.693,151.264 136.634,159.9 142.574,168.585 148.515,177.311 154.455,186.072 160.396,194.865 166.337,203.684 172.277,212.526 178.218,221.389 184.158,230.27 190.099,239.168 196.04,248.08 201.98,257.005 207.921,265.941 213.861,274.888 219.802,283.845 225.743,292.81 231.683,301.783 237.624,310.764 243.564,319.75 249.505,328.743 255.446,337.742 261.386,346.746 267.327,355.754 273.267,364.767 279.208,373.783 285.149,382.804 291.089,391.828 297.03,400.856 302.97,409.886 308.911,413.862 314.851,414.113 320.792,414.423 326.733,405.856 332.673,397.312 338.614,388.757 344.554,380.163 350.495,371.592 356.436,363.047 362.376,354.53 368.317,345.679 374.257,336.582 380.198,327.486 386.139,318.389 392.079,309.292 398.02,300.195 403.96,291.098 409.901,282.001 415.842,272.905 421.782,263.808 427.723,254.711 433.663,245.614 439.604,236.517 445.545,227.421 451.485,218.324 457.426,209.227 463.366,200.13 469.307,191.033 475.248,181.936 481.188,172.84 487.129,163.743 493.069,154.646 499.01,145.549 504.95,136.452 510.891,127.355 516.832,118.259 522.772,109.162 528.713,100.065 534.653,90.9682 540.594,81.8714 546.535,72.7746 552.475,63.6777 558.416,54.5809 564.356,45.4841 570.297,36.3873 576.238,27.2905 582.178,18.1936 588.119,9.09682 594.059,0 " />

   <polyline fill="none" stroke=" slategrey " stroke-width=" 9 " points=" 5.94059,0 11.8812,11.1282 17.8218,22.4158 23.7624,34.6172 29.703,46.3947 35.6436,57.3097 41.5842,68.3193 47.5248,78.9072 53.4653,83.4785 59.4059,89.2112 65.3465,95.8973 71.2871,103.352 77.2277,111.421 83.1683,119.981 89.1089,128.933 95.0495,138.202 100.99,147.728 106.931,157.464 112.871,167.373 118.812,177.428 124.752,187.603 130.693,197.882 136.634,208.247 142.574,218.688 148.515,228.489 154.455,238.287 160.396,248.181 166.337,258.161 172.277,268.217 178.218,278.34 184.158,288.525 190.099,298.763 196.04,309.05 201.98,319.382 207.921,329.754 213.861,340.162 219.802,350.603 225.743,361.075 231.683,371.574 237.624,382.099 243.564,392.647 249.505,403.217 255.446,413.807 261.386,424.415 267.327,435.04 273.267,445.681 279.208,456.336 285.149,467.006 291.089,477.688 297.03,488.382 302.97,499.088 308.911,502.418 314.851,495.861 320.792,489.489 326.733,483.357 332.673,477.474 338.614,471.851 344.554,466.421 350.495,460.321 356.436,454.255 362.376,448.58 368.317,443.312 374.257,438.463 380.198,434.05 386.139,430.084 392.079,426.578 398.02,423.544 403.96,420.991 409.901,418.929 415.842,415.031 421.782,410.948 427.723,399.188 433.663,384.931 439.604,370.675 445.545,356.418 451.485,342.161 457.426,327.905 463.366,313.648 469.307,299.391 475.248,285.134 481.188,270.878 487.129,256.621 493.069,242.364 499.01,228.108 504.95,213.851 510.891,199.594 516.832,185.337 522.772,171.081 528.713,156.824 534.653,142.567 540.594,128.31 546.535,114.054 552.475,99.797 558.416,85.5403 564.356,71.2836 570.297,57.0269 576.238,42.7702 582.178,28.5134 588.119,14.2567 594.059,0 " />

   <polyline fill="none" stroke=" violet " stroke-width=" 6 " points=" 5.94059,0 11.8812,20.6797 17.8218,40.3968 23.7624,59.6116 29.703,80.3504 35.6436,95.3684 41.5842,95.847 47.5248,97.2799 53.4653,100.517 59.4059,105.387 65.3465,111.647 71.2871,119.043 77.2277,127.35 83.1683,136.383 89.1089,145.997 95.0495,156.078 100.99,166.537 106.931,177.308 112.871,188.335 118.812,199.578 124.752,211.001 130.693,222.578 136.634,234.285 142.574,246.106 148.515,258.024 154.455,270.027 160.396,282.104 166.337,294.247 172.277,306.448 178.218,318.7 184.158,330.999 190.099,343.338 196.04,355.714 201.98,368.124 207.921,380.563 213.861,393.03 219.802,405.522 225.743,418.036 231.683,430.571 237.624,443.125 243.564,455.697 249.505,468.285 255.446,480.887 261.386,493.504 267.327,506.133 273.267,518.773 279.208,531.425 285.149,544.087 291.089,556.708 297.03,568.772 302.97,581.179 308.911,586.209 314.851,586.902 320.792,586.842 326.733,574.589 332.673,562.364 338.614,550.169 344.554,538.005 350.495,525.875 356.436,513.781 362.376,501.726 368.317,489.201 374.257,476.327 380.198,463.453 386.139,450.58 392.079,437.706 398.02,424.832 403.96,411.959 409.901,399.085 415.842,386.211 421.782,373.337 427.723,360.464 433.663,347.59 439.604,334.716 445.545,321.843 451.485,308.969 457.426,296.095 463.366,283.222 469.307,270.348 475.248,257.474 481.188,244.6 487.129,231.727 493.069,218.853 499.01,205.979 504.95,193.106 510.891,180.232 516.832,167.358 522.772,154.484 528.713,141.611 534.653,128.737 540.594,115.863 546.535,102.99 552.475,90.1159 558.416,77.2422 564.356,64.3685 570.297,51.4948 576.238,38.6211 582.178,25.7474 588.119,12.8737 594.059,0 " />

   <polyline fill="none" stroke=" olive " stroke-width=" 3 " points=" 5.94059,0 11.8812,10.5117 17.8218,20.8336 23.7624,33.2041 29.703,46.219 35.6436,56.375 41.5842,56.8244 47.5248,59.1599 53.4653,63.104 59.4059,68.3002 65.3465,74.421 71.2871,81.2111 77.2277,88.4856 83.1683,96.1148 89.1089,104.008 95.0495,112.1 100.99,120.346 106.931,128.713 112.871,137.175 118.812,145.715 124.752,154.317 130.693,162.972 136.634,171.67 142.574,180.404 148.515,189.17 154.455,197.963 160.396,206.778 166.337,215.613 172.277,224.466 178.218,233.334 184.158,242.216 190.099,251.11 196.04,260.014 201.98,268.928 207.921,277.85 213.861,286.781 219.802,295.718 225.743,304.662 231.683,313.611 237.624,322.566 243.564,331.526 249.505,340.49 255.446,349.458 261.386,358.43 267.327,367.405 273.267,376.384 279.208,385.366 285.149,394.35 291.089,403.337 297.03,412.327 302.97,420.208 308.911,422.661 314.851,422.908 320.792,414.669 326.733,406.012 332.673,397.374 338.614,388.757 344.554,380.163 350.495,371.592 356.436,363.047 362.376,354.53 368.317,345.679 374.257,336.582 380.198,327.486 386.139,318.389 392.079,309.292 398.02,300.195 403.96,291.098 409.901,282.001 415.842,272.905 421.782,263.808 427.723,254.711 433.663,245.614 439.604,236.517 445.545,227.421 451.485,218.324 457.426,209.227 463.366,200.13 469.307,191.033 475.248,181.936 481.188,172.84 487.129,163.743 493.069,154.646 499.01,145.549 504.95,136.452 510.891,127.355 516.832,118.259 522.772,109.162 528.713,100.065 534.653,90.9682 540.594,81.8714 546.535,72.7746 552.475,63.6777 558.416,54.5809 564.356,45.4841 570.297,36.3873 576.238,27.2905 582.178,18.1936 588.119,9.09682 594.059,0 " />


<!--Draw the X and Y axes -->
<polyline fill="none" stroke="black" stroke-width="6"  points=" 600,0 0,0 0, 600" />
<polyline fill="none" stroke="black" stroke-width="1"  points=" 0 600  600 600  600 0" />
<!-- -->


<!--Draw labels and tics for X axis -->

<line fill="none" stroke="black"  stroke-width="6"  x1="0.5" y1="0" x2="0.5" y2="-20" />
<text transform="scale(1,-1)" font-family="sans-serif" font-size="30" x="-24.5" y="45" >0</text>
<line fill="none" stroke="black"  stroke-width="6"  x1="119.312" y1="0" x2="119.312" y2="-20" />
<text transform="scale(1,-1)" font-family="sans-serif" font-size="30" x="94.3119" y="45" >20</text>
<line fill="none" stroke="black"  stroke-width="6"  x1="238.124" y1="0" x2="238.124" y2="-20" />
<text transform="scale(1,-1)" font-family="sans-serif" font-size="30" x="213.124" y="45" >40</text>
<line fill="none" stroke="black"  stroke-width="6"  x1="356.936" y1="0" x2="356.936" y2="-20" />
<text transform="scale(1,-1)" font-family="sans-serif" font-size="30" x="331.936" y="45" >60</text>
<line fill="none" stroke="black"  stroke-width="6"  x1="475.748" y1="0" x2="475.748" y2="-20" />
<text transform="scale(1,-1)" font-family="sans-serif" font-size="30" x="450.748" y="45" >80</text>
<line fill="none" stroke="black"  stroke-width="6"  x1="594.559" y1="0" x2="594.559" y2="-20" />
<text transform="scale(1,-1)" font-family="sans-serif" font-size="30" x="569.559" y="45" >100</text>


<!--Draw labels and tics for Y axis -->

<line fill="none" stroke="black" stroke-width="6" x1="0.0" y1="0" x2="-20" y2="0" />
<text transform="scale(1,-1)" text-anchor="end" font-family="sans-serif" font-size="30" x="-25" y="10" >0</text>
<line fill="none" stroke="black" stroke-width="6" x1="0.0" y1="54.5455" x2="-20" y2="54.5455" />
<text transform="scale(1,-1)" text-anchor="end" font-family="sans-serif" font-size="30" x="-25" y="-44.5455" >5</text>
<line fill="none" stroke="black" stroke-width="6" x1="0.0" y1="109.091" x2="-20" y2="109.091" />
<text transform="scale(1,-1)" text-anchor="end" font-family="sans-serif" font-size="30" x="-25" y="-99.0909" >10</text>
<line fill="none" stroke="black" stroke-width="6" x1="0.0" y1="163.636" x2="-20" y2="163.636" />
<text transform="scale(1,-1)" text-anchor="end" font-family="sans-serif" font-size="30" x="-25" y="-153.636" >15</text>
<line fill="none" stroke="black" stroke-width="6" x1="0.0" y1="218.182" x2="-20" y2="218.182" />
<text transform="scale(1,-1)" text-anchor="end" font-family="sans-serif" font-size="30" x="-25" y="-208.182" >20</text>
<line fill="none" stroke="black" stroke-width="6" x1="0.0" y1="272.727" x2="-20" y2="272.727" />
<text transform="scale(1,-1)" text-anchor="end" font-family="sans-serif" font-size="30" x="-25" y="-262.727" >25</text>
<line fill="none" stroke="black" stroke-width="6" x1="0.0" y1="327.273" x2="-20" y2="327.273" />
<text transform="scale(1,-1)" text-anchor="end" font-family="sans-serif" font-size="30" x="-25" y="-317.273" >30</text>
<line fill="none" stroke="black" stroke-width="6" x1="0.0" y1="381.818" x2="-20" y2="381.818" />
<text transform="scale(1,-1)" text-anchor="end" font-family="sans-serif" font-size="30" x="-25" y="-371.818" >35</text>
<line fill="none" stroke="black" stroke-width="6" x1="0.0" y1="436.364" x2="-20" y2="436.364" />
<text transform="scale(1,-1)" text-anchor="end" font-family="sans-serif" font-size="30" x="-25" y="-426.364" >40</text>
<line fill="none" stroke="black" stroke-width="6" x1="0.0" y1="490.909" x2="-20" y2="490.909" />
<text transform="scale(1,-1)" text-anchor="end" font-family="sans-serif" font-size="30" x="-25" y="-480.909" >45</text>
<line fill="none" stroke="black" stroke-width="6" x1="0.0" y1="545.455" x2="-20" y2="545.455" />
<text transform="scale(1,-1)" text-anchor="end" font-family="sans-serif" font-size="30" x="-25" y="-535.455" >50</text>
<line fill="none" stroke="black" stroke-width="6" x1="0.0" y1="600" x2="-20" y2="600" />
<text transform="scale(1,-1)" text-anchor="end" font-family="sans-serif" font-size="30" x="-25" y="-590" >55</text>

-->
</g>
</g>
<!-- Run Constants
PRINTDISTANCEDATA bool true
GLITCHESONLY bool false
PLOT 2doubles 3 4
PERTURBBY double 0.05
GLITCHLEVEL double 3
BOUNDARYWINDOW double 0.065
FRAMESPERPATH int 200
STEPSPERFRAME int 100
TRIALS int 30
ALLBLACK bool true
FILEPREFIX string POINT
GRAPHSIZE int 0
BORDER int 0
PLOTSIZE int 0
G6LINEWIDTH int 3
DELONELINEWIDTH int 10
AXISWIDTH int 6
TICLENGTH int 20
VECTOR g6 
FOLLOWERMODE FollowerMode point
FIXRANDOMSEED fixRandomSeed false
RANDOMSEED int 19191
TIMESTAMP bool true
END end 




-->
</svg>
