<?xml version="1.0" standalone="no"?>
<!-- the width and height set the total pixel output of the image in the browser -->
<!-- whatever is within the viewbox will be remapped to show in this size -->
<svg width="900" height="900" viewBox="1 0 900 900"  version="1.1" xmlns="http://www.w3.org/2000/svg" xmlns:xlink="http://www.w3.org/1999/xlink">
 <desc>ID (and file name) = POINT_2018-05-27.17_25_41.1_27.svg  mode = Single Point </desc> 
<text x = "-750" y="50" transform="rotate(-90)"  font-family="sans-serif" font-size="40" stroke ="lightgray" fill="none"> PointDistanceFollower   May 27 2018</text>
 <text x="560" y="30" font-family="sans-serif" font-size="20">Wall time passed: 30548 msec.</text>
<text x="300" y="60"   font-family="sans-serif" font-size="20" fill="lightblue">S6  lightblue</text>
<text x="300" y="85"   font-family="sans-serif" font-size="20" fill="slategrey">NCDist  slategrey</text>
<text x="300" y="110"  font-family="sans-serif" font-size="20" fill="violet">D7  violet</text>
<text x="300" y="135"  font-family="sans-serif" font-size="20" fill="olive">CS6Dist  olive</text>

 <text x="140"  y="30"  font-family="sans-serif" font-size="20" >POINT_2018-05-27.17_25_41.1_27.svg  </text> 


 <!--DISTANCE PLOT BEGINS   mode = Single Point-->


<!-- the following will scale and place the distance plot -->
<g  transform="translate(0, 50) ">
<g transform="translate(150,700) scale(1 -1)">
   <polyline fill="none" stroke=" lightblue " stroke-width=" 12 " points=" 5.94059,0 11.8812,36.4593 17.8218,72.9185 23.7624,103.762 29.703,126.401 35.6436,154.423 41.5842,185.403 47.5248,218.084 53.4653,234.172 59.4059,235.861 65.3465,239.113 71.2871,243.864 77.2277,250.029 83.1683,257.507 89.1089,266.187 95.0495,272.813 100.99,276.68 106.931,281.363 112.871,286.821 118.812,293.011 124.752,295.514 130.693,292.501 136.634,289.866 142.574,287.077 148.515,281.544 154.455,276.33 160.396,271.452 166.337,266.93 172.277,262.78 178.218,259.023 184.158,255.673 190.099,252.749 196.04,250.264 201.98,248.233 207.921,246.665 213.861,245.571 219.802,244.956 225.743,244.824 231.683,245.175 237.624,246.009 243.564,247.319 249.505,249.099 255.446,251.337 261.386,254.024 267.327,254.419 273.267,254.755 279.208,255.556 285.149,256.815 291.089,258.528 297.03,260.684 302.97,263.273 308.911,266.282 314.851,269.698 320.792,273.504 326.733,277.685 332.673,282.224 338.614,287.105 344.554,279 350.495,270.695 356.436,262.579 362.376,254.67 368.317,246.987 374.257,239.553 380.198,232.391 386.139,225.528 392.079,218.99 398.02,212.809 403.96,207.017 409.901,201.646 415.842,196.731 421.782,192.308 427.723,188.411 433.663,185.073 439.604,182.324 445.545,180.193 451.485,178.7 457.426,177.862 463.366,177.689 469.307,178.182 475.248,179.335 481.188,181.137 487.129,183.567 493.069,185.067 499.01,174.18 504.95,163.294 510.891,152.408 516.832,141.521 522.772,130.635 528.713,119.749 534.653,108.863 540.594,97.9764 546.535,87.0901 552.475,76.2039 558.416,65.3176 564.356,54.4313 570.297,43.5451 576.238,32.6588 582.178,21.7725 588.119,10.8863 594.059,0 " />

   <polyline fill="none" stroke=" slategrey " stroke-width=" 9 " points=" 5.94059,0 11.8812,50.1495 17.8218,100.299 23.7624,145.954 29.703,163.268 35.6436,176.628 41.5842,185.066 47.5248,196.812 53.4653,211.315 59.4059,228.049 65.3465,246.561 71.2871,266.48 77.2277,287.514 83.1683,309.435 89.1089,314.083 95.0495,323.337 100.99,340.602 106.931,359.034 112.871,378.463 118.812,391.299 124.752,406.102 130.693,411.608 136.634,414.905 142.574,418.974 148.515,423.794 154.455,429.339 160.396,435.582 166.337,442.492 172.277,450.04 178.218,458.194 184.158,465.792 190.099,473.257 196.04,481.302 201.98,489.897 207.921,499.015 213.861,508.626 219.802,518.705 225.743,529.223 231.683,540.155 237.624,551.478 243.564,559.935 249.505,567.166 255.446,571.041 261.386,573.16 267.327,575.521 273.267,578.12 279.208,580.956 285.149,584.023 291.089,587.319 297.03,590.84 302.97,594.581 308.911,590.581 314.851,581.868 320.792,569.892 326.733,556.168 332.673,542.47 338.614,533.093 344.554,525.081 350.495,517.222 356.436,509.525 362.376,501.995 368.317,494.642 374.257,487.472 380.198,480.494 386.139,473.107 392.079,465.585 398.02,458.253 403.96,451.12 409.901,444.196 415.842,438.277 421.782,436.836 427.723,434.932 433.663,431.2 439.604,426.595 445.545,416.493 451.485,406.493 457.426,396.603 463.366,386.8 469.307,371.937 475.248,354.226 481.188,336.514 487.129,318.803 493.069,301.092 499.01,283.38 504.95,265.669 510.891,247.958 516.832,230.247 522.772,212.535 528.713,194.824 534.653,177.113 540.594,159.401 546.535,141.69 552.475,123.979 558.416,106.268 564.356,88.5564 570.297,70.8451 576.238,53.1338 582.178,35.4226 588.119,17.7113 594.059,0 " />

   <polyline fill="none" stroke=" violet " stroke-width=" 6 " points=" 5.94059,0 11.8812,63.8381 17.8218,127.676 23.7624,187.386 29.703,240.087 35.6436,299.171 41.5842,355.549 47.5248,414.49 53.4653,443.568 59.4059,465.169 65.3465,480.991 71.2871,495.228 77.2277,512.109 83.1683,528.777 89.1089,542.182 95.0495,552.799 100.99,560.079 106.931,568.166 112.871,577.026 118.812,586.625 124.752,591.224 130.693,588.545 136.634,586.269 142.574,584.418 148.515,583.007 154.455,577.094 160.396,569.58 166.337,562.47 172.277,555.784 178.218,549.541 184.158,543.761 190.099,538.461 196.04,533.661 201.98,529.378 207.921,525.628 213.861,522.427 219.802,519.787 225.743,517.721 231.683,515.003 237.624,510.167 243.564,507.393 249.505,506.712 255.446,508.095 261.386,511.459 267.327,516.209 273.267,520.605 279.208,517.513 285.149,515.081 291.089,513.314 297.03,512.214 302.97,511.78 308.911,512.008 314.851,512.891 320.792,514.417 326.733,503.405 332.673,489.606 338.614,475.988 344.554,462.568 350.495,449.364 356.436,436.396 362.376,423.689 368.317,411.267 374.257,399.159 380.198,387.397 386.139,376.015 392.079,365.051 398.02,354.549 403.96,344.552 409.901,335.112 415.842,326.281 421.782,318.116 427.723,310.673 433.663,304.013 439.604,298.195 445.545,293.276 451.485,288.977 457.426,285.172 463.366,282.281 469.307,279.836 475.248,278.431 481.188,278.087 487.129,278.813 493.069,276.595 499.01,260.325 504.95,244.055 510.891,227.784 516.832,211.514 522.772,195.244 528.713,178.974 534.653,162.703 540.594,146.433 546.535,130.163 552.475,113.892 558.416,97.6219 564.356,81.3516 570.297,65.0813 576.238,48.811 582.178,32.5406 588.119,16.2703 594.059,0 " />

   <polyline fill="none" stroke=" olive " stroke-width=" 3 " points=" 5.94059,0 11.8812,36.4593 17.8218,72.9185 23.7624,109.378 29.703,133.518 35.6436,161.758 41.5842,192.942 47.5248,225.794 53.4653,258.878 59.4059,261.97 65.3465,266.654 71.2871,266.884 77.2277,267.018 83.1683,268.082 89.1089,269.978 95.0495,272.813 100.99,276.68 106.931,281.363 112.871,286.821 118.812,293.011 124.752,296.079 130.693,294.408 136.634,293.134 142.574,292.285 148.515,291.886 154.455,291.968 160.396,291.079 166.337,286.279 172.277,281.837 178.218,277.778 184.158,274.129 190.099,270.918 196.04,268.171 201.98,265.913 207.921,264.169 213.861,262.96 219.802,262.303 225.743,262.215 231.683,262.704 237.624,263.776 243.564,265.431 249.505,267.664 255.446,270.466 261.386,273.653 267.327,273.608 273.267,274.18 279.208,275.356 285.149,277.116 291.089,279.437 297.03,282.291 302.97,285.651 308.911,289.484 314.851,293.76 320.792,298.448 326.733,303.517 332.673,304.016 338.614,295.324 344.554,286.789 350.495,278.424 356.436,270.247 362.376,262.275 368.317,254.528 374.257,247.03 380.198,239.804 386.139,232.876 392.079,226.277 398.02,220.036 403.96,214.187 409.901,208.764 415.842,203.804 421.782,199.343 427.723,195.417 433.663,192.061 439.604,189.307 445.545,187.183 451.485,185.713 457.426,184.913 463.366,184.792 469.307,185.352 475.248,186.585 481.188,188.479 487.129,188.326 493.069,185.067 499.01,174.18 504.95,163.294 510.891,152.408 516.832,141.521 522.772,130.635 528.713,119.749 534.653,108.863 540.594,97.9764 546.535,87.0901 552.475,76.2039 558.416,65.3176 564.356,54.4313 570.297,43.5451 576.238,32.6588 582.178,21.7725 588.119,10.8863 594.059,0 " />


<!--Draw Glitches -->

<line fill="none" stroke="black" stroke-width="4" x1="29.703" y1="153.268" x2="29.703" y2="103.268"  stroke-dasharray = "10,5" />
<text transform="scale(1,-1)" font-family="sans-serif" font-size="30" stroke = "rgb(0,0,0)" line = "rgb(0,0,0)"  fill = "slategrey" x="34.703" y="-103.268" >4</text>

<!-- -->


<!--Draw Glitches -->

<line fill="none" stroke="black" stroke-width="4" x1="29.703" y1="123.518" x2="29.703" y2="73.518"  stroke-dasharray = "10,5" />
<text transform="scale(1,-1)" font-family="sans-serif" font-size="30" stroke = "rgb(0,0,0)" line = "rgb(0,0,0)"  fill = "olive" x="34.703" y="-73.518" >4</text>

<!-- -->


<!--Draw the X and Y axes -->
<polyline fill="none" stroke="black" stroke-width="6"  points=" 600,0 0,0 0, 600" />
<polyline fill="none" stroke="black" stroke-width="1"  points=" 0 600  600 600  600 0" />
<!-- -->


<!--Draw labels and tics for X axis -->

<line fill="none" stroke="black"  stroke-width="6"  x1="0.5" y1="0" x2="0.5" y2="-20" />
<text transform="scale(1,-1)" font-family="sans-serif" font-size="30" x="-24.5" y="45" >0</text>
<line fill="none" stroke="black"  stroke-width="6"  x1="119.312" y1="0" x2="119.312" y2="-20" />
<text transform="scale(1,-1)" font-family="sans-serif" font-size="30" x="94.3119" y="45" >20</text>
<line fill="none" stroke="black"  stroke-width="6"  x1="238.124" y1="0" x2="238.124" y2="-20" />
<text transform="scale(1,-1)" font-family="sans-serif" font-size="30" x="213.124" y="45" >40</text>
<line fill="none" stroke="black"  stroke-width="6"  x1="356.936" y1="0" x2="356.936" y2="-20" />
<text transform="scale(1,-1)" font-family="sans-serif" font-size="30" x="331.936" y="45" >60</text>
<line fill="none" stroke="black"  stroke-width="6"  x1="475.748" y1="0" x2="475.748" y2="-20" />
<text transform="scale(1,-1)" font-family="sans-serif" font-size="30" x="450.748" y="45" >80</text>
<line fill="none" stroke="black"  stroke-width="6"  x1="594.559" y1="0" x2="594.559" y2="-20" />
<text transform="scale(1,-1)" font-family="sans-serif" font-size="30" x="569.559" y="45" >100</text>


<!--Draw labels and tics for Y axis -->

<line fill="none" stroke="black" stroke-width="6" x1="0.0" y1="0" x2="-20" y2="0" />
<text transform="scale(1,-1)" text-anchor="end" font-family="sans-serif" font-size="30" x="-25" y="10" >0</text>
<line fill="none" stroke="black" stroke-width="6" x1="0.0" y1="120" x2="-20" y2="120" />
<text transform="scale(1,-1)" text-anchor="end" font-family="sans-serif" font-size="30" x="-25" y="-110" >10</text>
<line fill="none" stroke="black" stroke-width="6" x1="0.0" y1="240" x2="-20" y2="240" />
<text transform="scale(1,-1)" text-anchor="end" font-family="sans-serif" font-size="30" x="-25" y="-230" >20</text>
<line fill="none" stroke="black" stroke-width="6" x1="0.0" y1="360" x2="-20" y2="360" />
<text transform="scale(1,-1)" text-anchor="end" font-family="sans-serif" font-size="30" x="-25" y="-350" >30</text>
<line fill="none" stroke="black" stroke-width="6" x1="0.0" y1="480" x2="-20" y2="480" />
<text transform="scale(1,-1)" text-anchor="end" font-family="sans-serif" font-size="30" x="-25" y="-470" >40</text>
<line fill="none" stroke="black" stroke-width="6" x1="0.0" y1="600" x2="-20" y2="600" />
<text transform="scale(1,-1)" text-anchor="end" font-family="sans-serif" font-size="30" x="-25" y="-590" >50</text>

-->
</g>
</g>
<!-- Run Constants
PRINTDISTANCEDATA bool true
GLITCHESONLY bool false
PLOT 2doubles 3 4
PERTURBBY double 0.05
GLITCHLEVEL double 3
BOUNDARYWINDOW double 0.065
FRAMESPERPATH int 200
STEPSPERFRAME int 100
TRIALS int 30
ALLBLACK bool true
FILEPREFIX string POINT
GRAPHSIZE int 0
BORDER int 0
PLOTSIZE int 0
G6LINEWIDTH int 3
DELONELINEWIDTH int 10
AXISWIDTH int 6
TICLENGTH int 20
VECTOR g6 
FOLLOWERMODE FollowerMode point
FIXRANDOMSEED fixRandomSeed false
RANDOMSEED int 19191
TIMESTAMP bool true
END end 




-->
</svg>
