<?xml version="1.0" standalone="no"?>
<!-- the width and height set the total pixel output of the image in the browser -->
<!-- whatever is within the viewbox will be remapped to show in this size -->
<svg width="900" height="900" viewBox="1 0 900 900"  version="1.1" xmlns="http://www.w3.org/2000/svg" xmlns:xlink="http://www.w3.org/1999/xlink">
 <desc>ID (and file name) = POINT_2018-05-27.17_37_21.2_20.svg  mode = Single Point </desc> 
<text x = "-750" y="50" transform="rotate(-90)"  font-family="sans-serif" font-size="40" stroke ="lightgray" fill="none"> PointDistanceFollower   May 27 2018</text>
 <text x="560" y="30" font-family="sans-serif" font-size="20">Wall time passed: 30390 msec.</text>
<text x="300" y="60"   font-family="sans-serif" font-size="20" fill="lightblue">S6  lightblue</text>
<text x="300" y="85"   font-family="sans-serif" font-size="20" fill="slategrey">NCDist  slategrey</text>
<text x="300" y="110"  font-family="sans-serif" font-size="20" fill="violet">D7  violet</text>
<text x="300" y="135"  font-family="sans-serif" font-size="20" fill="olive">CS6Dist  olive</text>

 <text x="140"  y="30"  font-family="sans-serif" font-size="20" >POINT_2018-05-27.17_37_21.2_20.svg  </text> 


 <!--DISTANCE PLOT BEGINS   mode = Single Point-->


<!-- the following will scale and place the distance plot -->
<g  transform="translate(0, 50) ">
<g transform="translate(150,700) scale(1 -1)">
   <polyline fill="none" stroke=" lightblue " stroke-width=" 12 " points=" 5.94059,0 11.8812,11.6314 17.8218,23.2628 23.7624,34.8942 29.703,45.7323 35.6436,45.4826 41.5842,46.3816 47.5248,48.9612 53.4653,52.9763 59.4059,58.1304 65.3465,64.1494 71.2871,70.8131 77.2277,77.9564 83.1683,85.4592 89.1089,93.2346 95.0495,101.22 100.99,109.369 106.931,117.648 112.871,126.031 118.812,134.499 124.752,143.037 130.693,151.633 136.634,160.277 142.574,168.963 148.515,177.683 154.455,186.434 160.396,195.211 166.337,204.011 172.277,212.83 178.218,221.667 184.158,230.52 190.099,236.599 196.04,242.048 201.98,247.706 207.921,253.56 213.861,259.597 219.802,265.804 225.743,272.17 231.683,278.683 237.624,285.334 243.564,292.113 249.505,299.012 255.446,306.022 261.386,313.136 267.327,320.347 273.267,327.648 279.208,335.035 285.149,342.5 291.089,350.04 297.03,357.649 302.97,365.323 308.911,373.058 314.851,377.336 320.792,376.398 326.733,368.802 332.673,361.274 338.614,353.82 344.554,346.443 350.495,339.15 356.436,331.944 362.376,324.833 368.317,317.822 374.257,310.918 380.198,304.129 386.139,297.463 392.079,290.927 398.02,284.532 403.96,278.285 409.901,272.199 415.842,266.283 421.782,260.55 427.723,254.331 433.663,245.248 439.604,236.165 445.545,227.081 451.485,217.998 457.426,208.915 463.366,199.832 469.307,190.748 475.248,181.665 481.188,172.582 487.129,163.499 493.069,154.415 499.01,145.332 504.95,136.249 510.891,127.166 516.832,118.082 522.772,108.999 528.713,99.9158 534.653,90.8325 540.594,81.7493 546.535,72.666 552.475,63.5828 558.416,54.4995 564.356,45.4163 570.297,36.333 576.238,27.2498 582.178,18.1665 588.119,9.08325 594.059,0 " />

   <polyline fill="none" stroke=" slategrey " stroke-width=" 9 " points=" 5.94059,0 11.8812,16.1715 17.8218,28.9969 23.7624,33.8534 29.703,41.7655 35.6436,43.5205 41.5842,47.2148 47.5248,53.5523 53.4653,61.7243 59.4059,71.1008 65.3465,81.2662 71.2871,91.959 77.2277,103.015 83.1683,114.33 89.1089,125.832 95.0495,137.476 100.99,149.228 106.931,161.065 112.871,172.968 118.812,184.926 124.752,196.928 130.693,208.967 136.634,221.036 142.574,233.131 148.515,245.248 154.455,257.385 160.396,269.537 166.337,281.704 172.277,293.884 178.218,306.074 184.158,318.274 190.099,330.483 196.04,342.7 201.98,354.923 207.921,367.153 213.861,379.388 219.802,391.629 225.743,403.874 231.683,416.123 237.624,428.377 243.564,440.633 249.505,452.893 255.446,465.157 261.386,477.422 267.327,485.565 273.267,478.587 279.208,471.637 285.149,464.716 291.089,457.823 297.03,450.957 302.97,444.117 308.911,437.303 314.851,438.655 320.792,443.151 326.733,447.938 332.673,452.814 338.614,457.903 344.554,463.262 350.495,468.881 356.436,474.752 362.376,472.104 368.317,459.999 374.257,447.893 380.198,435.788 386.139,423.683 392.079,411.578 398.02,399.473 403.96,387.367 409.901,375.262 415.842,363.157 421.782,351.052 427.723,338.946 433.663,326.841 439.604,314.736 445.545,302.631 451.485,290.525 457.426,278.42 463.366,266.315 469.307,254.21 475.248,242.105 481.188,229.999 487.129,217.894 493.069,205.789 499.01,193.684 504.95,181.578 510.891,169.473 516.832,157.368 522.772,145.263 528.713,133.158 534.653,121.052 540.594,108.947 546.535,96.8418 552.475,84.7366 558.416,72.6314 564.356,60.5261 570.297,48.4209 576.238,36.3157 582.178,24.2105 588.119,12.1052 594.059,0 " />

   <polyline fill="none" stroke=" violet " stroke-width=" 6 " points=" 5.94059,5.72205e-05 11.8812,19.866 17.8218,39.732 23.7624,59.598 29.703,78.2312 35.6436,79.8209 41.5842,82.8937 47.5248,87.8717 53.4653,94.4541 59.4059,102.332 65.3465,111.23 71.2871,120.923 77.2277,131.236 83.1683,142.033 89.1089,153.212 95.0495,164.696 100.99,176.424 106.931,188.352 112.871,200.443 118.812,212.669 124.752,225.01 130.693,237.446 136.634,249.963 142.574,262.551 148.515,275.199 154.455,287.899 160.396,300.645 166.337,313.431 172.277,326.252 178.218,339.105 184.158,351.986 190.099,361.238 196.04,369.663 201.98,378.363 207.921,387.32 213.861,396.516 219.802,405.935 225.743,415.562 231.683,425.383 237.624,435.384 243.564,445.553 249.505,455.879 255.446,466.353 261.386,476.963 267.327,487.701 273.267,498.56 279.208,509.53 285.149,520.605 291.089,531.779 297.03,543.045 302.97,554.399 308.911,565.833 314.851,573.477 320.792,567.911 326.733,556.342 332.673,544.865 338.614,533.485 344.554,522.208 350.495,511.042 356.436,499.993 362.376,489.07 368.317,478.281 374.257,467.636 380.198,457.144 386.139,446.817 392.079,436.666 398.02,426.704 403.96,416.943 409.901,407.4 415.842,398.088 421.782,389.026 427.723,379.318 433.663,365.771 439.604,352.224 445.545,338.677 451.485,325.13 457.426,311.583 463.366,298.035 469.307,284.488 475.248,270.941 481.188,257.394 487.129,243.847 493.069,230.3 499.01,216.753 504.95,203.206 510.891,189.659 516.832,176.112 522.772,162.565 528.713,149.018 534.653,135.471 540.594,121.924 546.535,108.377 552.475,94.8295 558.416,81.2824 564.356,67.7353 570.297,54.1883 576.238,40.6412 582.178,27.0941 588.119,13.5471 594.059,5.72205e-05 " />

   <polyline fill="none" stroke=" olive " stroke-width=" 3 " points=" 5.94059,0 11.8812,11.6314 17.8218,23.2628 23.7624,34.8942 29.703,45.7343 35.6436,45.4826 41.5842,46.3816 47.5248,48.9612 53.4653,52.9763 59.4059,58.1304 65.3465,64.1494 71.2871,70.8131 77.2277,77.9564 83.1683,85.4592 89.1089,93.2346 95.0495,101.22 100.99,109.369 106.931,117.648 112.871,126.031 118.812,134.499 124.752,143.037 130.693,151.633 136.634,160.277 142.574,168.963 148.515,177.683 154.455,186.434 160.396,195.211 166.337,204.011 172.277,212.83 178.218,221.667 184.158,230.52 190.099,236.599 196.04,242.048 201.98,247.706 207.921,253.56 213.861,259.597 219.802,265.804 225.743,272.17 231.683,278.683 237.624,285.334 243.564,292.113 249.505,299.012 255.446,306.022 261.386,313.136 267.327,320.347 273.267,327.648 279.208,335.035 285.149,342.5 291.089,350.04 297.03,357.649 302.97,365.323 308.911,373.058 314.851,378.574 320.792,376.398 326.733,368.802 332.673,361.274 338.614,353.82 344.554,346.443 350.495,339.15 356.436,331.944 362.376,324.833 368.317,317.822 374.257,310.918 380.198,304.129 386.139,297.463 392.079,290.927 398.02,284.532 403.96,278.285 409.901,272.199 415.842,266.283 421.782,260.55 427.723,254.331 433.663,245.248 439.604,236.165 445.545,227.081 451.485,217.998 457.426,208.915 463.366,199.832 469.307,190.748 475.248,181.665 481.188,172.582 487.129,163.499 493.069,154.415 499.01,145.332 504.95,136.249 510.891,127.166 516.832,118.082 522.772,108.999 528.713,99.9158 534.653,90.8325 540.594,81.7493 546.535,72.666 552.475,63.5828 558.416,54.4995 564.356,45.4163 570.297,36.333 576.238,27.2498 582.178,18.1665 588.119,9.08325 594.059,0 " />


<!--Draw Glitches -->

<line fill="none" stroke="black" stroke-width="4" x1="29.703" y1="31.7655" x2="29.703" y2="-18.2345"  stroke-dasharray = "10,5" />
<text transform="scale(1,-1)" font-family="sans-serif" font-size="30" stroke = "rgb(0,0,0)" line = "rgb(0,0,0)"  fill = "slategrey" x="34.703" y="18.2345" >4</text>
<line fill="none" stroke="black" stroke-width="4" x1="41.5842" y1="37.2148" x2="41.5842" y2="-12.7852"  stroke-dasharray = "10,5" />
<text transform="scale(1,-1)" font-family="sans-serif" font-size="30" stroke = "rgb(0,0,0)" line = "rgb(0,0,0)"  fill = "slategrey" x="46.5842" y="12.7852" >6</text>

<!-- -->


<!--Draw the X and Y axes -->
<polyline fill="none" stroke="black" stroke-width="6"  points=" 600,0 0,0 0, 600" />
<polyline fill="none" stroke="black" stroke-width="1"  points=" 0 600  600 600  600 0" />
<!-- -->


<!--Draw labels and tics for X axis -->

<line fill="none" stroke="black"  stroke-width="6"  x1="0.5" y1="0" x2="0.5" y2="-20" />
<text transform="scale(1,-1)" font-family="sans-serif" font-size="30" x="-24.5" y="45" >0</text>
<line fill="none" stroke="black"  stroke-width="6"  x1="119.312" y1="0" x2="119.312" y2="-20" />
<text transform="scale(1,-1)" font-family="sans-serif" font-size="30" x="94.3119" y="45" >20</text>
<line fill="none" stroke="black"  stroke-width="6"  x1="238.124" y1="0" x2="238.124" y2="-20" />
<text transform="scale(1,-1)" font-family="sans-serif" font-size="30" x="213.124" y="45" >40</text>
<line fill="none" stroke="black"  stroke-width="6"  x1="356.936" y1="0" x2="356.936" y2="-20" />
<text transform="scale(1,-1)" font-family="sans-serif" font-size="30" x="331.936" y="45" >60</text>
<line fill="none" stroke="black"  stroke-width="6"  x1="475.748" y1="0" x2="475.748" y2="-20" />
<text transform="scale(1,-1)" font-family="sans-serif" font-size="30" x="450.748" y="45" >80</text>
<line fill="none" stroke="black"  stroke-width="6"  x1="594.559" y1="0" x2="594.559" y2="-20" />
<text transform="scale(1,-1)" font-family="sans-serif" font-size="30" x="569.559" y="45" >100</text>


<!--Draw labels and tics for Y axis -->

<line fill="none" stroke="black" stroke-width="6" x1="0.0" y1="0" x2="-20" y2="0" />
<text transform="scale(1,-1)" text-anchor="end" font-family="sans-serif" font-size="30" x="-25" y="10" >0</text>
<line fill="none" stroke="black" stroke-width="6" x1="0.0" y1="150" x2="-20" y2="150" />
<text transform="scale(1,-1)" text-anchor="end" font-family="sans-serif" font-size="30" x="-25" y="-140" >5</text>
<line fill="none" stroke="black" stroke-width="6" x1="0.0" y1="300" x2="-20" y2="300" />
<text transform="scale(1,-1)" text-anchor="end" font-family="sans-serif" font-size="30" x="-25" y="-290" >10</text>
<line fill="none" stroke="black" stroke-width="6" x1="0.0" y1="450" x2="-20" y2="450" />
<text transform="scale(1,-1)" text-anchor="end" font-family="sans-serif" font-size="30" x="-25" y="-440" >15</text>
<line fill="none" stroke="black" stroke-width="6" x1="0.0" y1="600" x2="-20" y2="600" />
<text transform="scale(1,-1)" text-anchor="end" font-family="sans-serif" font-size="30" x="-25" y="-590" >20</text>

-->
</g>
</g>
<!-- Run Constants
PRINTDISTANCEDATA bool true
GLITCHESONLY bool false
PLOT 2doubles 3 4
PERTURBBY double 0.05
GLITCHLEVEL double 3
BOUNDARYWINDOW double 0.065
FRAMESPERPATH int 200
STEPSPERFRAME int 100
TRIALS int 30
ALLBLACK bool true
FILEPREFIX string POINT
GRAPHSIZE int 0
BORDER int 0
PLOTSIZE int 0
G6LINEWIDTH int 3
DELONELINEWIDTH int 10
AXISWIDTH int 6
TICLENGTH int 20
VECTOR g6 
FOLLOWERMODE FollowerMode point
FIXRANDOMSEED fixRandomSeed false
RANDOMSEED int 19191
TIMESTAMP bool true
END end 




-->
</svg>
