<?xml version="1.0" standalone="no"?>
<!-- the width and height set the total pixel output of the image in the browser -->
<!-- whatever is within the viewbox will be remapped to show in this size -->
<svg width="900" height="900" viewBox="1 0 900 900"  version="1.1" xmlns="http://www.w3.org/2000/svg" xmlns:xlink="http://www.w3.org/1999/xlink">
 <desc>ID (and file name) = POINT_2018-05-27.17_40_55.2_27.svg  mode = Single Point </desc> 
<text x = "-750" y="50" transform="rotate(-90)"  font-family="sans-serif" font-size="40" stroke ="lightgray" fill="none"> PointDistanceFollower   May 27 2018</text>
 <text x="560" y="30" font-family="sans-serif" font-size="20">Wall time passed: 30856 msec.</text>
<text x="300" y="60"   font-family="sans-serif" font-size="20" fill="lightblue">S6  lightblue</text>
<text x="300" y="85"   font-family="sans-serif" font-size="20" fill="slategrey">NCDist  slategrey</text>
<text x="300" y="110"  font-family="sans-serif" font-size="20" fill="violet">D7  violet</text>
<text x="300" y="135"  font-family="sans-serif" font-size="20" fill="olive">CS6Dist  olive</text>

 <text x="140"  y="30"  font-family="sans-serif" font-size="20" >POINT_2018-05-27.17_40_55.2_27.svg  </text> 


 <!--DISTANCE PLOT BEGINS   mode = Single Point-->


<!-- the following will scale and place the distance plot -->
<g  transform="translate(0, 50) ">
<g transform="translate(150,700) scale(1 -1)">
   <polyline fill="none" stroke=" lightblue " stroke-width=" 12 " points=" 5.94059,0 11.8812,11.2278 17.8218,22.4556 23.7624,33.6834 29.703,44.9112 35.6436,56.139 41.5842,67.3668 47.5248,78.5947 53.4653,89.8225 59.4059,101.05 65.3465,112.278 71.2871,123.506 77.2277,134.734 83.1683,145.961 89.1089,157.189 95.0495,168.417 100.99,179.645 106.931,190.873 112.871,202.101 118.812,212.717 124.752,221.071 130.693,229.67 136.634,238.488 142.574,247.501 148.515,256.689 154.455,266.034 160.396,275.519 166.337,284.721 172.277,279.345 178.218,274.324 184.158,269.677 190.099,265.424 196.04,261.584 201.98,258.175 207.921,255.215 213.861,252.72 219.802,250.704 225.743,248.081 231.683,244.419 237.624,241.224 243.564,238.516 249.505,236.311 255.446,234.623 261.386,233.463 267.327,232.839 273.267,232.756 279.208,233.214 285.149,234.21 291.089,235.738 297.03,237.786 302.97,240.342 308.911,243.389 314.851,246.91 320.792,250.884 326.733,255.291 332.673,260.108 338.614,265.313 344.554,266.42 350.495,260.018 356.436,254.041 362.376,248.519 368.317,243.484 374.257,238.966 380.198,234.994 386.139,231.598 392.079,228.803 398.02,226.631 403.96,225.1 409.901,224.223 415.842,224.008 421.782,224.456 427.723,225.565 433.663,227.324 439.604,229.717 445.545,232.727 451.485,236.328 457.426,240.496 463.366,245.199 469.307,248.563 475.248,236.398 481.188,224.236 487.129,212.08 493.069,199.928 499.01,187.782 504.95,175.644 510.891,163.515 516.832,151.397 522.772,139.293 528.713,127.207 534.653,115.145 540.594,103.115 546.535,91.1306 552.475,79.2114 558.416,67.3922 564.356,55.7369 570.297,44.3749 576.238,33.6047 582.178,24.2292 588.119,15.4 594.059,0 " />

   <polyline fill="none" stroke=" slategrey " stroke-width=" 9 " points=" 5.94059,0 11.8812,32.1352 17.8218,64.2703 23.7624,96.4055 29.703,128.541 35.6436,159.35 41.5842,170.128 47.5248,181.625 53.4653,193.244 59.4059,206.438 65.3465,221.062 71.2871,234.392 77.2277,246.893 83.1683,260.675 89.1089,275.544 95.0495,291.696 100.99,312.065 106.931,329.961 112.871,347.898 118.812,366.316 124.752,385.142 130.693,404.316 136.634,423.79 142.574,443.521 148.515,463.477 154.455,483.627 160.396,503.948 166.337,524.419 172.277,545.024 178.218,565.745 184.158,570.631 190.099,559.608 196.04,549.254 201.98,539.092 207.921,528.538 213.861,518.739 219.802,509.739 225.743,501.583 231.683,494.315 237.624,487.975 243.564,482.602 249.505,478.23 255.446,474.886 261.386,472.595 267.327,471.372 273.267,470.719 279.208,472.156 285.149,474.157 291.089,477.216 297.03,471.848 302.97,476.663 308.911,477.305 314.851,478.996 320.792,481.725 326.733,475.802 332.673,467.975 338.614,461.117 344.554,460.133 350.495,467.155 356.436,462.876 362.376,459.705 368.317,457.667 374.257,456.776 380.198,457.041 386.139,458.46 392.079,461.02 398.02,464.703 403.96,469.48 409.901,475.319 415.842,482.178 421.782,490.013 427.723,498.777 433.663,508.419 439.604,518.89 445.545,530.138 451.485,542.113 457.426,525.02 463.366,502.5 469.307,479.981 475.248,457.462 481.188,434.945 487.129,412.429 493.069,389.915 499.01,367.402 504.95,344.892 510.891,322.385 516.832,299.881 522.772,277.381 528.713,254.887 534.653,232.401 540.594,209.924 546.535,187.462 552.475,165.02 558.416,142.609 564.356,120.25 570.297,97.9867 576.238,75.9283 582.178,49.7966 588.119,22.5291 594.059,0 " />

   <polyline fill="none" stroke=" violet " stroke-width=" 6 " points=" 5.94059,0 11.8812,16.4745 17.8218,32.949 23.7624,49.4235 29.703,65.898 35.6436,82.3725 41.5842,98.847 47.5248,115.322 53.4653,131.796 59.4059,148.271 65.3465,164.745 71.2871,181.22 77.2277,197.694 83.1683,214.169 89.1089,230.643 95.0495,247.118 100.99,263.592 106.931,280.067 112.871,296.541 118.812,313.016 124.752,327.788 130.693,340.83 136.634,354.176 142.574,367.793 148.515,381.648 154.455,395.716 160.396,409.973 166.337,424.019 172.277,417.99 178.218,412.351 184.158,407.289 190.099,402.847 196.04,399.047 201.98,395.909 207.921,393.449 213.861,391.682 219.802,390.114 225.743,386.633 231.683,383.828 237.624,381.715 243.564,380.304 249.505,379.603 255.446,379.617 261.386,380.344 267.327,381.782 273.267,383.923 279.208,386.753 285.149,390.26 291.089,394.424 297.03,399.224 302.97,404.639 308.911,410.644 314.851,417.214 320.792,424.321 326.733,431.941 332.673,440.045 338.614,448.608 344.554,452.672 350.495,446.079 356.436,435.798 362.376,426.066 368.317,416.923 374.257,408.298 380.198,400.355 386.139,393.148 392.079,386.721 398.02,381.115 403.96,376.371 409.901,372.523 415.842,369.602 421.782,367.633 427.723,366.465 433.663,366.209 439.604,366.887 445.545,368.491 451.485,371.01 457.426,374.421 463.366,378.631 469.307,381.876 475.248,363.806 481.188,345.743 487.129,327.687 493.069,309.641 499.01,291.605 504.95,273.583 510.891,255.576 516.832,237.59 522.772,219.628 528.713,201.699 534.653,183.812 540.594,165.983 546.535,148.233 552.475,130.599 558.416,113.143 564.356,95.9762 570.297,79.3242 576.238,63.6967 582.178,46.5889 588.119,26.7545 594.059,0 " />

   <polyline fill="none" stroke=" olive " stroke-width=" 3 " points=" 5.94059,0 11.8812,11.2278 17.8218,22.4556 23.7624,33.6834 29.703,44.9112 35.6436,56.139 41.5842,67.3668 47.5248,78.5947 53.4653,89.8225 59.4059,101.05 65.3465,112.278 71.2871,123.506 77.2277,134.734 83.1683,145.961 89.1089,157.189 95.0495,168.417 100.99,179.645 106.931,190.873 112.871,202.101 118.812,213.328 124.752,223.669 130.693,232.23 136.634,241.018 142.574,250.01 148.515,259.181 154.455,268.515 160.396,277.993 166.337,286.872 172.277,281.593 178.218,276.681 184.158,272.157 190.099,268.041 196.04,264.352 201.98,261.109 207.921,258.33 213.861,256.03 219.802,252.19 225.743,248.081 231.683,244.419 237.624,241.224 243.564,238.516 249.505,236.311 255.446,234.623 261.386,233.463 267.327,232.839 273.267,232.756 279.208,233.214 285.149,234.21 291.089,235.738 297.03,237.786 302.97,240.342 308.911,243.389 314.851,246.91 320.792,250.884 326.733,255.291 332.673,260.108 338.614,265.313 344.554,268.167 350.495,266.712 356.436,262.195 362.376,256.404 368.317,251.089 374.257,246.282 380.198,242.016 386.139,238.319 392.079,235.22 398.02,232.744 403.96,230.912 409.901,229.739 415.842,229.237 421.782,229.409 427.723,230.254 433.663,231.765 439.604,233.928 445.545,236.724 451.485,240.131 457.426,244.122 463.366,248.668 469.307,252.266 475.248,240.1 481.188,227.936 487.129,215.777 493.069,203.623 499.01,191.475 504.95,179.334 510.891,167.202 516.832,155.081 522.772,142.974 528.713,130.885 534.653,118.821 540.594,106.791 546.535,94.8074 552.475,82.8947 558.416,71.0931 564.356,59.4803 570.297,48.2239 576.238,37.7443 582.178,26.822 588.119,15.4 594.059,0 " />


<!--Draw the X and Y axes -->
<polyline fill="none" stroke="black" stroke-width="6"  points=" 600,0 0,0 0, 600" />
<polyline fill="none" stroke="black" stroke-width="1"  points=" 0 600  600 600  600 0" />
<!-- -->


<!--Draw labels and tics for X axis -->

<line fill="none" stroke="black"  stroke-width="6"  x1="0.5" y1="0" x2="0.5" y2="-20" />
<text transform="scale(1,-1)" font-family="sans-serif" font-size="30" x="-24.5" y="45" >0</text>
<line fill="none" stroke="black"  stroke-width="6"  x1="119.312" y1="0" x2="119.312" y2="-20" />
<text transform="scale(1,-1)" font-family="sans-serif" font-size="30" x="94.3119" y="45" >20</text>
<line fill="none" stroke="black"  stroke-width="6"  x1="238.124" y1="0" x2="238.124" y2="-20" />
<text transform="scale(1,-1)" font-family="sans-serif" font-size="30" x="213.124" y="45" >40</text>
<line fill="none" stroke="black"  stroke-width="6"  x1="356.936" y1="0" x2="356.936" y2="-20" />
<text transform="scale(1,-1)" font-family="sans-serif" font-size="30" x="331.936" y="45" >60</text>
<line fill="none" stroke="black"  stroke-width="6"  x1="475.748" y1="0" x2="475.748" y2="-20" />
<text transform="scale(1,-1)" font-family="sans-serif" font-size="30" x="450.748" y="45" >80</text>
<line fill="none" stroke="black"  stroke-width="6"  x1="594.559" y1="0" x2="594.559" y2="-20" />
<text transform="scale(1,-1)" font-family="sans-serif" font-size="30" x="569.559" y="45" >100</text>


<!--Draw labels and tics for Y axis -->

<line fill="none" stroke="black" stroke-width="6" x1="0.0" y1="0" x2="-20" y2="0" />
<text transform="scale(1,-1)" text-anchor="end" font-family="sans-serif" font-size="30" x="-25" y="10" >0</text>
<line fill="none" stroke="black" stroke-width="6" x1="0.0" y1="75" x2="-20" y2="75" />
<text transform="scale(1,-1)" text-anchor="end" font-family="sans-serif" font-size="30" x="-25" y="-65" >2</text>
<line fill="none" stroke="black" stroke-width="6" x1="0.0" y1="150" x2="-20" y2="150" />
<text transform="scale(1,-1)" text-anchor="end" font-family="sans-serif" font-size="30" x="-25" y="-140" >4</text>
<line fill="none" stroke="black" stroke-width="6" x1="0.0" y1="225" x2="-20" y2="225" />
<text transform="scale(1,-1)" text-anchor="end" font-family="sans-serif" font-size="30" x="-25" y="-215" >6</text>
<line fill="none" stroke="black" stroke-width="6" x1="0.0" y1="300" x2="-20" y2="300" />
<text transform="scale(1,-1)" text-anchor="end" font-family="sans-serif" font-size="30" x="-25" y="-290" >8</text>
<line fill="none" stroke="black" stroke-width="6" x1="0.0" y1="375" x2="-20" y2="375" />
<text transform="scale(1,-1)" text-anchor="end" font-family="sans-serif" font-size="30" x="-25" y="-365" >10</text>
<line fill="none" stroke="black" stroke-width="6" x1="0.0" y1="450" x2="-20" y2="450" />
<text transform="scale(1,-1)" text-anchor="end" font-family="sans-serif" font-size="30" x="-25" y="-440" >12</text>
<line fill="none" stroke="black" stroke-width="6" x1="0.0" y1="525" x2="-20" y2="525" />
<text transform="scale(1,-1)" text-anchor="end" font-family="sans-serif" font-size="30" x="-25" y="-515" >14</text>
<line fill="none" stroke="black" stroke-width="6" x1="0.0" y1="600" x2="-20" y2="600" />
<text transform="scale(1,-1)" text-anchor="end" font-family="sans-serif" font-size="30" x="-25" y="-590" >16</text>

-->
</g>
</g>
<!-- Run Constants
PRINTDISTANCEDATA bool true
GLITCHESONLY bool false
PLOT 2doubles 3 4
PERTURBBY double 0.05
GLITCHLEVEL double 3
BOUNDARYWINDOW double 0.065
FRAMESPERPATH int 200
STEPSPERFRAME int 100
TRIALS int 30
ALLBLACK bool true
FILEPREFIX string POINT
GRAPHSIZE int 0
BORDER int 0
PLOTSIZE int 0
G6LINEWIDTH int 3
DELONELINEWIDTH int 10
AXISWIDTH int 6
TICLENGTH int 20
VECTOR g6 
FOLLOWERMODE FollowerMode point
FIXRANDOMSEED fixRandomSeed false
RANDOMSEED int 19191
TIMESTAMP bool true
END end 




-->
</svg>
