<?xml version="1.0" standalone="no"?>
<!-- the width and height set the total pixel output of the image in the browser -->
<!-- whatever is within the viewbox will be remapped to show in this size -->
<svg width="900" height="900" viewBox="1 0 900 900"  version="1.1" xmlns="http://www.w3.org/2000/svg" xmlns:xlink="http://www.w3.org/1999/xlink">
 <desc>ID (and file name) = POINT_2018-05-27.17_16_12.1_9.svg  mode = Single Point </desc> 
<text x = "-750" y="50" transform="rotate(-90)"  font-family="sans-serif" font-size="40" stroke ="lightgray" fill="none"> PointDistanceFollower   May 27 2018</text>
 <text x="560" y="30" font-family="sans-serif" font-size="20">Wall time passed: 33610 msec.</text>
<text x="300" y="60"   font-family="sans-serif" font-size="20" fill="lightblue">S6  lightblue</text>
<text x="300" y="85"   font-family="sans-serif" font-size="20" fill="slategrey">NCDist  slategrey</text>
<text x="300" y="110"  font-family="sans-serif" font-size="20" fill="violet">D7  violet</text>
<text x="300" y="135"  font-family="sans-serif" font-size="20" fill="olive">CS6Dist  olive</text>

 <text x="140"  y="30"  font-family="sans-serif" font-size="20" >POINT_2018-05-27.17_16_12.1_9.svg  </text> 


 <!--DISTANCE PLOT BEGINS   mode = Single Point-->


<!-- the following will scale and place the distance plot -->
<g  transform="translate(0, 50) ">
<g transform="translate(150,700) scale(1 -1)">
   <polyline fill="none" stroke=" lightblue " stroke-width=" 12 " points=" 5.94059,0 11.8812,12.9297 17.8218,25.8593 23.7624,38.789 29.703,51.7186 35.6436,64.6483 41.5842,77.578 47.5248,90.5076 53.4653,103.437 59.4059,116.367 65.3465,129.297 71.2871,142.226 77.2277,155.156 83.1683,168.086 89.1089,181.015 95.0495,192.908 100.99,204.74 106.931,201.323 112.871,200.5 118.812,200.133 124.752,200.226 130.693,200.778 136.634,201.785 142.574,203.24 148.515,205.135 154.455,207.456 160.396,210.189 166.337,213.32 172.277,216.83 178.218,220.701 184.158,224.915 190.099,229.454 196.04,234.297 201.98,239.427 207.921,244.825 213.861,250.475 219.802,256.359 225.743,262.463 231.683,268.77 237.624,275.267 243.564,281.94 249.505,288.779 255.446,295.77 261.386,302.282 267.327,301.675 273.267,301.371 279.208,301.373 285.149,301.68 291.089,299.706 297.03,295.614 302.97,294.478 308.911,290.919 314.851,287.634 320.792,284.632 326.733,281.922 332.673,279.512 338.614,277.41 344.554,275.623 350.495,274.158 356.436,273.019 362.376,272.211 368.317,271.736 374.257,271.597 380.198,271.793 386.139,272.325 392.079,269.9 398.02,267.402 403.96,265.225 409.901,263.376 415.842,261.863 421.782,260.692 427.723,259.867 433.663,257.902 439.604,248.35 445.545,238.798 451.485,229.246 457.426,219.694 463.366,210.142 469.307,200.59 475.248,191.038 481.188,181.486 487.129,171.934 493.069,162.383 499.01,152.831 504.95,143.279 510.891,133.727 516.832,124.175 522.772,114.623 528.713,105.071 534.653,95.5192 540.594,85.9672 546.535,76.4153 552.475,66.8634 558.416,57.3115 564.356,47.7596 570.297,38.2077 576.238,28.6557 582.178,19.1038 588.119,9.55192 594.059,0 " />

   <polyline fill="none" stroke=" slategrey " stroke-width=" 9 " points=" 5.94059,0 11.8812,18.0623 17.8218,36.1246 23.7624,54.1869 29.703,72.2492 35.6436,90.3115 41.5842,108.374 47.5248,126.436 53.4653,144.498 59.4059,162.561 65.3465,180.623 71.2871,198.685 77.2277,216.748 83.1683,234.81 89.1089,252.872 95.0495,273.925 100.99,272.323 106.931,268.287 112.871,265.518 118.812,263.958 124.752,263.63 130.693,264.538 136.634,266.668 142.574,269.993 148.515,274.468 154.455,280.04 160.396,286.642 166.337,294.208 172.277,302.663 178.218,311.936 184.158,321.956 190.099,332.656 196.04,343.972 201.98,351.209 207.921,358.157 213.861,365.865 219.802,374.286 225.743,383.374 231.683,393.083 237.624,403.367 243.564,414.183 249.505,425.492 255.446,437.254 261.386,449.435 267.327,462.001 273.267,473.058 279.208,475.443 285.149,478.044 291.089,480.824 297.03,495 302.97,511.08 308.911,527.808 314.851,540.386 320.792,542.646 326.733,545.227 332.673,548.108 338.614,551.27 344.554,554.698 350.495,558.373 356.436,562.281 362.376,566.407 368.317,570.737 374.257,575.14 380.198,578.437 386.139,581.928 392.079,580.982 398.02,573.888 403.96,566.571 409.901,559.414 415.842,552.43 421.782,545.635 427.723,539.044 433.663,532.674 439.604,526.543 445.545,520.674 451.485,511.37 457.426,492.236 463.366,481.151 469.307,470.568 475.248,454.748 481.188,432.011 487.129,409.273 493.069,386.536 499.01,363.799 504.95,341.061 510.891,318.324 516.832,295.586 522.772,272.849 528.713,250.112 534.653,227.374 540.594,204.637 546.535,181.899 552.475,159.162 558.416,136.424 564.356,113.687 570.297,90.9496 576.238,68.2122 582.178,45.4748 588.119,22.7374 594.059,0 " />

   <polyline fill="none" stroke=" violet " stroke-width=" 6 " points=" 5.94059,0 11.8812,22.1453 17.8218,44.2906 23.7624,66.4358 29.703,88.5811 35.6436,110.726 41.5842,132.872 47.5248,155.017 53.4653,177.162 59.4059,199.308 65.3465,221.453 71.2871,243.598 77.2277,265.743 83.1683,287.889 89.1089,310.034 95.0495,331.93 100.99,354.317 106.931,351.461 112.871,349.019 118.812,347.125 124.752,345.786 130.693,345.008 136.634,344.791 142.574,345.136 148.515,346.039 154.455,347.493 160.396,349.491 166.337,352.019 172.277,355.066 178.218,358.616 184.158,362.652 190.099,367.157 196.04,372.112 201.98,377.497 207.921,383.294 213.861,389.481 219.802,396.04 225.743,402.95 231.683,410.194 237.624,417.753 243.564,425.608 249.505,433.743 255.446,442.143 261.386,448.676 267.327,446.798 273.267,445.305 279.208,444.136 285.149,443.394 291.089,441.587 297.03,435.467 302.97,430.63 308.911,425.813 314.851,421.383 320.792,417.353 326.733,413.736 332.673,410.543 338.614,407.785 344.554,405.452 350.495,403.531 356.436,402.078 362.376,401.101 368.317,400.605 374.257,400.019 380.198,398.796 386.139,395.551 392.079,391.02 398.02,386.941 403.96,383.328 409.901,380.197 415.842,377.558 421.782,375.422 427.723,373.799 433.663,370.499 439.604,356.776 445.545,343.054 451.485,329.332 457.426,315.61 463.366,301.888 469.307,288.166 475.248,274.443 481.188,260.721 487.129,246.999 493.069,233.277 499.01,219.555 504.95,205.833 510.891,192.11 516.832,178.388 522.772,164.666 528.713,150.944 534.653,137.222 540.594,123.5 546.535,109.777 552.475,96.0552 558.416,82.333 564.356,68.6108 570.297,54.8887 576.238,41.1665 582.178,27.4443 588.119,13.7222 594.059,0 " />

   <polyline fill="none" stroke=" olive " stroke-width=" 3 " points=" 5.94059,0 11.8812,12.9297 17.8218,25.8593 23.7624,38.789 29.703,51.7186 35.6436,64.6483 41.5842,77.578 47.5248,90.5076 53.4653,103.437 59.4059,116.367 65.3465,129.297 71.2871,142.226 77.2277,155.156 83.1683,168.086 89.1089,181.015 95.0495,194.945 100.99,209.942 106.931,208.838 112.871,207.786 118.812,207.192 124.752,207.059 130.693,207.385 136.634,208.167 142.574,209.399 148.515,211.069 154.455,213.166 160.396,215.676 166.337,218.583 172.277,221.868 178.218,225.515 184.158,229.503 190.099,233.815 196.04,238.431 201.98,243.332 207.921,248.501 213.861,253.921 219.802,259.573 225.743,265.444 231.683,271.518 237.624,277.78 243.564,284.218 249.505,290.82 255.446,297.574 261.386,304.47 267.327,310.435 273.267,310.2 279.208,309.874 285.149,305.299 291.089,300.962 297.03,296.873 302.97,303.121 308.911,300.043 314.851,296.783 320.792,293.81 326.733,291.132 332.673,288.76 338.614,286.699 344.554,284.958 350.495,283.543 356.436,282.458 362.376,281.708 368.317,281.295 374.257,280.575 380.198,277.176 386.139,274.069 392.079,271.265 398.02,268.773 403.96,266.603 409.901,264.761 415.842,263.256 421.782,262.092 427.723,261.276 433.663,257.902 439.604,248.35 445.545,238.798 451.485,229.246 457.426,219.694 463.366,210.142 469.307,200.59 475.248,191.038 481.188,181.486 487.129,171.934 493.069,162.383 499.01,152.831 504.95,143.279 510.891,133.727 516.832,124.175 522.772,114.623 528.713,105.071 534.653,95.5192 540.594,85.9672 546.535,76.4153 552.475,66.8634 558.416,57.3115 564.356,47.7596 570.297,38.2077 576.238,28.6557 582.178,19.1038 588.119,9.55192 594.059,0 " />


<!--Draw the X and Y axes -->
<polyline fill="none" stroke="black" stroke-width="6"  points=" 600,0 0,0 0, 600" />
<polyline fill="none" stroke="black" stroke-width="1"  points=" 0 600  600 600  600 0" />
<!-- -->


<!--Draw labels and tics for X axis -->

<line fill="none" stroke="black"  stroke-width="6"  x1="0.5" y1="0" x2="0.5" y2="-20" />
<text transform="scale(1,-1)" font-family="sans-serif" font-size="30" x="-24.5" y="45" >0</text>
<line fill="none" stroke="black"  stroke-width="6"  x1="119.312" y1="0" x2="119.312" y2="-20" />
<text transform="scale(1,-1)" font-family="sans-serif" font-size="30" x="94.3119" y="45" >20</text>
<line fill="none" stroke="black"  stroke-width="6"  x1="238.124" y1="0" x2="238.124" y2="-20" />
<text transform="scale(1,-1)" font-family="sans-serif" font-size="30" x="213.124" y="45" >40</text>
<line fill="none" stroke="black"  stroke-width="6"  x1="356.936" y1="0" x2="356.936" y2="-20" />
<text transform="scale(1,-1)" font-family="sans-serif" font-size="30" x="331.936" y="45" >60</text>
<line fill="none" stroke="black"  stroke-width="6"  x1="475.748" y1="0" x2="475.748" y2="-20" />
<text transform="scale(1,-1)" font-family="sans-serif" font-size="30" x="450.748" y="45" >80</text>
<line fill="none" stroke="black"  stroke-width="6"  x1="594.559" y1="0" x2="594.559" y2="-20" />
<text transform="scale(1,-1)" font-family="sans-serif" font-size="30" x="569.559" y="45" >100</text>


<!--Draw labels and tics for Y axis -->

<line fill="none" stroke="black" stroke-width="6" x1="0.0" y1="0" x2="-20" y2="0" />
<text transform="scale(1,-1)" text-anchor="end" font-family="sans-serif" font-size="30" x="-25" y="10" >0</text>
<line fill="none" stroke="black" stroke-width="6" x1="0.0" y1="54.5455" x2="-20" y2="54.5455" />
<text transform="scale(1,-1)" text-anchor="end" font-family="sans-serif" font-size="30" x="-25" y="-44.5455" >5</text>
<line fill="none" stroke="black" stroke-width="6" x1="0.0" y1="109.091" x2="-20" y2="109.091" />
<text transform="scale(1,-1)" text-anchor="end" font-family="sans-serif" font-size="30" x="-25" y="-99.0909" >10</text>
<line fill="none" stroke="black" stroke-width="6" x1="0.0" y1="163.636" x2="-20" y2="163.636" />
<text transform="scale(1,-1)" text-anchor="end" font-family="sans-serif" font-size="30" x="-25" y="-153.636" >15</text>
<line fill="none" stroke="black" stroke-width="6" x1="0.0" y1="218.182" x2="-20" y2="218.182" />
<text transform="scale(1,-1)" text-anchor="end" font-family="sans-serif" font-size="30" x="-25" y="-208.182" >20</text>
<line fill="none" stroke="black" stroke-width="6" x1="0.0" y1="272.727" x2="-20" y2="272.727" />
<text transform="scale(1,-1)" text-anchor="end" font-family="sans-serif" font-size="30" x="-25" y="-262.727" >25</text>
<line fill="none" stroke="black" stroke-width="6" x1="0.0" y1="327.273" x2="-20" y2="327.273" />
<text transform="scale(1,-1)" text-anchor="end" font-family="sans-serif" font-size="30" x="-25" y="-317.273" >30</text>
<line fill="none" stroke="black" stroke-width="6" x1="0.0" y1="381.818" x2="-20" y2="381.818" />
<text transform="scale(1,-1)" text-anchor="end" font-family="sans-serif" font-size="30" x="-25" y="-371.818" >35</text>
<line fill="none" stroke="black" stroke-width="6" x1="0.0" y1="436.364" x2="-20" y2="436.364" />
<text transform="scale(1,-1)" text-anchor="end" font-family="sans-serif" font-size="30" x="-25" y="-426.364" >40</text>
<line fill="none" stroke="black" stroke-width="6" x1="0.0" y1="490.909" x2="-20" y2="490.909" />
<text transform="scale(1,-1)" text-anchor="end" font-family="sans-serif" font-size="30" x="-25" y="-480.909" >45</text>
<line fill="none" stroke="black" stroke-width="6" x1="0.0" y1="545.455" x2="-20" y2="545.455" />
<text transform="scale(1,-1)" text-anchor="end" font-family="sans-serif" font-size="30" x="-25" y="-535.455" >50</text>
<line fill="none" stroke="black" stroke-width="6" x1="0.0" y1="600" x2="-20" y2="600" />
<text transform="scale(1,-1)" text-anchor="end" font-family="sans-serif" font-size="30" x="-25" y="-590" >55</text>

-->
</g>
</g>
<!-- Run Constants
PRINTDISTANCEDATA bool true
GLITCHESONLY bool false
PLOT 2doubles 3 4
PERTURBBY double 0.05
GLITCHLEVEL double 3
BOUNDARYWINDOW double 0.065
FRAMESPERPATH int 200
STEPSPERFRAME int 100
TRIALS int 30
ALLBLACK bool true
FILEPREFIX string POINT
GRAPHSIZE int 0
BORDER int 0
PLOTSIZE int 0
G6LINEWIDTH int 3
DELONELINEWIDTH int 10
AXISWIDTH int 6
TICLENGTH int 20
VECTOR g6 
FOLLOWERMODE FollowerMode point
FIXRANDOMSEED fixRandomSeed false
RANDOMSEED int 19191
TIMESTAMP bool true
END end 




-->
</svg>
