<?xml version="1.0" standalone="no"?>
<!-- the width and height set the total pixel output of the image in the browser -->
<!-- whatever is within the viewbox will be remapped to show in this size -->
<svg width="1000" height="1000" viewBox="1 0  1200 1200"  version="1.1" xmlns="http://www.w3.org/2000/svg" xmlns:xlink="http://www.w3.org/1999/xlink">
 <desc>ID (and file name) = Fol_.15_0.svg  mode = LINE3 </desc> 
<g transform = "scale(1 1)">

<text x = "-850" y="50" transform="rotate(-90)"  font-family="sans-serif" font-size="40" stroke ="lightgray" fill="none"> PointDistanceFollower   Feb 21 2020</text>
 <text x="200"  y="30"  font-family="sans-serif" font-size="20" >Fol_.15_0.svg</text>
<text x="300" y="60"   font-family="sans-serif" font-size="20" fill="lightblue">  S6  </text>
<text x="300" y="85"   font-family="sans-serif" font-size="20" fill="olive">  CS6Dist  </text>
<text x="300" y="110"   font-family="sans-serif" font-size="20" fill="black">  LM  </text>



 <!--DISTANCE PLOT BEGINS   mode = LINE3-->


<!-- the following will scale and place the distance plot -->
<g transform="translate(150,975) scale(1 -1)">
   <polyline fill="none" stroke=" lightblue " stroke-width=" 12 " stroke-dasharray = " 10,5 " points=" 7.92079,133.333 15.8416,169.708 23.7624,206.083 31.6832,242.458 39.604,278.832 47.5248,315.207 55.4455,351.582 63.3663,387.956 71.2871,417.992 79.2079,420.194 87.1287,412.895 95.0495,408.569 102.97,407.358 110.891,409.301 118.812,406.905 126.733,405.613 134.653,404.131 142.574,404.41 150.495,407.865 158.416,414.38 166.337,423.749 174.257,435.706 182.178,449.959 190.099,466.212 198.02,484.189 205.941,503.637 213.861,524.338 221.782,542.631 229.703,554.606 237.624,549.801 245.545,543.904 253.465,538.349 261.386,532.923 269.307,527.986 277.228,523.56 285.149,519.659 293.069,516.302 300.99,513.502 308.911,511.271 316.832,509.62 324.752,506.973 332.673,498.658 340.594,488.048 348.515,475.915 356.436,464.979 364.356,455.361 372.277,447.184 380.198,440.561 388.119,431.389 396.04,421.777 403.96,413.777 411.881,407.531 419.802,403.161 427.723,400.758 435.644,400.377 443.564,401.841 451.485,397.457 459.406,395.084 467.327,394.775 475.248,396.539 483.168,400.333 491.089,406.075 499.01,413.643 506.931,422.895 514.851,433.675 522.772,445.825 530.693,453.727 538.614,449.33 546.535,446.937 554.455,446.37 562.376,444.157 570.297,444.014 578.218,445.942 586.139,449.906 594.059,455.828 601.98,458.613 609.901,454.024 617.822,448.631 625.743,443.528 633.663,440.449 641.584,430.496 649.505,413.32 657.426,400.381 665.347,392.315 673.267,388.18 681.188,383.427 689.109,371.847 697.03,365.015 704.95,364.198 712.871,365.75 720.792,340.64 728.713,340.619 736.634,392.362 744.554,528.946 " />

<line fill="none" stroke-dasharray = "10, 10"  stroke="orange" stroke-width="6" x1="752.475" y1="400" x2="792.079" y2="400" />
   <polyline fill="none" stroke=" olive " stroke-width=" 3 " stroke-dasharray = " 5,10 " points=" 7.92079,133.333 15.8416,169.708 23.7624,206.083 31.6832,242.458 39.604,278.832 47.5248,315.207 55.4455,351.582 63.3663,387.956 71.2871,421.972 79.2079,420.194 87.1287,412.895 95.0495,408.569 102.97,407.358 110.891,409.301 118.812,406.905 126.733,405.613 134.653,407.497 142.574,412.492 150.495,417.031 158.416,422.853 166.337,431.667 174.257,443.2 182.178,457.146 190.099,473.19 198.02,491.035 205.941,510.413 213.861,531.088 221.782,552.861 229.703,575.562 237.624,574.389 245.545,568.847 253.465,563.612 261.386,558.857 269.307,554.599 277.228,550.855 285.149,547.639 293.069,544.964 300.99,542.84 308.911,534.502 316.832,525.331 324.752,510.487 332.673,501.259 340.594,488.048 348.515,475.915 356.436,464.979 364.356,455.361 372.277,447.184 380.198,440.561 388.119,431.389 396.04,421.777 403.96,413.777 411.881,407.531 419.802,403.161 427.723,400.758 435.644,400.377 443.564,402.025 451.485,401.75 459.406,400.501 467.327,401.283 475.248,404.077 483.168,408.821 491.089,415.419 499.01,423.511 506.931,432.694 514.851,443.455 522.772,455.625 530.693,466.9 538.614,465.831 546.535,465.892 554.455,467.216 562.376,469.942 570.297,474.205 578.218,478.798 586.139,487.825 594.059,497.37 601.98,492.456 609.901,481.658 617.822,472.218 625.743,464.064 633.663,457.114 641.584,440.106 649.505,423.199 657.426,410.697 665.347,402.318 673.267,397.722 681.188,384.204 689.109,371.847 697.03,365.015 704.95,364.198 712.871,367.719 720.792,345.1 728.713,340.619 736.634,399.283 744.554,528.946 " />

<line fill="none" stroke-dasharray = "10, 10"  stroke="orange" stroke-width="6" x1="752.475" y1="400" x2="792.079" y2="400" />
   <polyline fill="none" stroke=" black " stroke-width=" 3 " stroke-dasharray = "  " points=" 7.92079,133.333 15.8416,169.708 23.7624,206.083 31.6832,242.458 39.604,278.832 47.5248,315.207 55.4455,351.582 63.3663,446.797 71.2871,435.936 79.2079,460.706 87.1287,473.951 95.0495,408.569 102.97,407.358 110.891,409.301 118.812,556.391 126.733,577.965 134.653,601.375 142.574,626.359 150.495,652.691 158.416,680.176 166.337,708.648 174.257,618.995 182.178,615.504 190.099,612.453 198.02,606.41 205.941,600.407 213.861,594.808 221.782,589.63 229.703,584.887 237.624,607.516 245.545,692.003 253.465,672.417 261.386,653.137 269.307,634.201 277.228,615.648 285.149,597.524 293.069,579.882 300.99,562.78 308.911,546.287 316.832,530.477 324.752,569.859 332.673,563.802 340.594,558.184 348.515,553.022 356.436,548.333 364.356,544.134 372.277,540.44 380.198,537.264 388.119,534.619 396.04,421.777 403.96,413.777 411.881,407.531 419.802,403.161 427.723,400.758 435.644,400.377 443.564,540.101 451.485,538.404 459.406,537.252 467.327,401.283 475.248,404.077 483.168,408.821 491.089,415.419 499.01,748.97 506.931,732.832 514.851,717.273 522.772,702.341 530.693,471.366 538.614,486.129 546.535,501.777 554.455,518.202 562.376,535.307 570.297,553.011 578.218,571.24 586.139,589.931 594.059,604.482 601.98,573.807 609.901,544.292 617.822,516.207 625.743,489.889 633.663,465.759 641.584,641.996 649.505,640.13 657.426,411.971 665.347,296.844 673.267,291.564 681.188,384.204 689.109,371.847 697.03,365.015 704.95,364.198 712.871,369.46 720.792,345.1 728.713,340.619 736.634,377.392 744.554,511.205 " />

<line fill="none" stroke-dasharray = "10, 10"  stroke="orange" stroke-width="6" x1="752.475" y1="400" x2="792.079" y2="400" />

<!--Draw Glitches -->

<line fill="none" stroke="black" stroke-width="4" x1="63.3663" y1="436.797" x2="63.3663" y2="386.797"  stroke-dasharray = "10,5" />
<text transform="scale(1,-1)" font-family="sans-serif" font-size="30" stroke = "rgb(0,0,0)" line = "rgb(0,0,0)"  fill = "black" x="68.3663" y="-386.797" >7</text>
<line fill="none" stroke="black" stroke-width="4" x1="95.0495" y1="398.569" x2="95.0495" y2="348.569"  stroke-dasharray = "10,5" />
<text transform="scale(1,-1)" font-family="sans-serif" font-size="30" stroke = "rgb(0,0,0)" line = "rgb(0,0,0)"  fill = "black" x="100.05" y="-348.569" >11</text>
<line fill="none" stroke="black" stroke-width="4" x1="118.812" y1="546.391" x2="118.812" y2="496.391"  stroke-dasharray = "10,5" />
<text transform="scale(1,-1)" font-family="sans-serif" font-size="30" stroke = "rgb(0,0,0)" line = "rgb(0,0,0)"  fill = "black" x="123.812" y="-496.391" >14</text>
<line fill="none" stroke="black" stroke-width="4" x1="245.545" y1="682.003" x2="245.545" y2="632.003"  stroke-dasharray = "10,5" />
<text transform="scale(1,-1)" font-family="sans-serif" font-size="30" stroke = "rgb(0,0,0)" line = "rgb(0,0,0)"  fill = "black" x="250.545" y="-632.003" >30</text>
<line fill="none" stroke="black" stroke-width="4" x1="396.04" y1="411.777" x2="396.04" y2="361.777"  stroke-dasharray = "10,5" />
<text transform="scale(1,-1)" font-family="sans-serif" font-size="30" stroke = "rgb(0,0,0)" line = "rgb(0,0,0)"  fill = "black" x="401.04" y="-361.777" >49</text>
<line fill="none" stroke="black" stroke-width="4" x1="443.564" y1="530.101" x2="443.564" y2="480.101"  stroke-dasharray = "10,5" />
<text transform="scale(1,-1)" font-family="sans-serif" font-size="30" stroke = "rgb(0,0,0)" line = "rgb(0,0,0)"  fill = "black" x="448.564" y="-480.101" >55</text>
<line fill="none" stroke="black" stroke-width="4" x1="467.327" y1="391.283" x2="467.327" y2="341.283"  stroke-dasharray = "10,5" />
<text transform="scale(1,-1)" font-family="sans-serif" font-size="30" stroke = "rgb(0,0,0)" line = "rgb(0,0,0)"  fill = "black" x="472.327" y="-341.283" >58</text>
<line fill="none" stroke="black" stroke-width="4" x1="499.01" y1="738.97" x2="499.01" y2="688.97"  stroke-dasharray = "10,5" />
<text transform="scale(1,-1)" font-family="sans-serif" font-size="30" stroke = "rgb(0,0,0)" line = "rgb(0,0,0)"  fill = "black" x="504.01" y="-688.97" >62</text>
<line fill="none" stroke="black" stroke-width="4" x1="530.693" y1="461.366" x2="530.693" y2="411.366"  stroke-dasharray = "10,5" />
<text transform="scale(1,-1)" font-family="sans-serif" font-size="30" stroke = "rgb(0,0,0)" line = "rgb(0,0,0)"  fill = "black" x="535.693" y="-411.366" >66</text>
<line fill="none" stroke="black" stroke-width="4" x1="625.743" y1="479.889" x2="625.743" y2="429.889"  stroke-dasharray = "10,5" />
<text transform="scale(1,-1)" font-family="sans-serif" font-size="30" stroke = "rgb(0,0,0)" line = "rgb(0,0,0)"  fill = "black" x="630.743" y="-429.889" >78</text>
<line fill="none" stroke="black" stroke-width="4" x1="641.584" y1="631.996" x2="641.584" y2="581.996"  stroke-dasharray = "10,5" />
<text transform="scale(1,-1)" font-family="sans-serif" font-size="30" stroke = "rgb(0,0,0)" line = "rgb(0,0,0)"  fill = "black" x="646.584" y="-581.996" >80</text>
<line fill="none" stroke="black" stroke-width="4" x1="657.426" y1="401.971" x2="657.426" y2="351.971"  stroke-dasharray = "10,5" />
<text transform="scale(1,-1)" font-family="sans-serif" font-size="30" stroke = "rgb(0,0,0)" line = "rgb(0,0,0)"  fill = "black" x="662.426" y="-351.971" >82</text>
<line fill="none" stroke="black" stroke-width="4" x1="681.188" y1="374.204" x2="681.188" y2="324.204"  stroke-dasharray = "10,5" />
<text transform="scale(1,-1)" font-family="sans-serif" font-size="30" stroke = "rgb(0,0,0)" line = "rgb(0,0,0)"  fill = "black" x="686.188" y="-324.204" >85</text>

<!-- -->


<!--Draw the X and Y axes -->
<polyline fill="none" stroke="black" stroke-width="6"  points=" 800,0 0,0 0, 800" />
<polyline fill="none" stroke="black" stroke-width="1"  points=" 0 800  800 800  800 0" />
<!-- -->


<!--Draw labels and tics for X axis -->

<line fill="none" stroke="black"  stroke-width="6"  x1="0.5" y1="0" x2="0.5" y2="-20" />
<text transform="scale(1,-1)" font-family="sans-serif" font-size="30" x="-24.5" y="45" >0</text>
<line fill="none" stroke="black"  stroke-width="6"  x1="158.916" y1="0" x2="158.916" y2="-20" />
<text transform="scale(1,-1)" font-family="sans-serif" font-size="30" x="133.916" y="45" >20</text>
<line fill="none" stroke="black"  stroke-width="6"  x1="317.332" y1="0" x2="317.332" y2="-20" />
<text transform="scale(1,-1)" font-family="sans-serif" font-size="30" x="292.332" y="45" >40</text>
<line fill="none" stroke="black"  stroke-width="6"  x1="475.748" y1="0" x2="475.748" y2="-20" />
<text transform="scale(1,-1)" font-family="sans-serif" font-size="30" x="450.748" y="45" >60</text>
<line fill="none" stroke="black"  stroke-width="6"  x1="634.163" y1="0" x2="634.163" y2="-20" />
<text transform="scale(1,-1)" font-family="sans-serif" font-size="30" x="609.163" y="45" >80</text>
<line fill="none" stroke="black"  stroke-width="6"  x1="792.579" y1="0" x2="792.579" y2="-20" />
<text transform="scale(1,-1)" font-family="sans-serif" font-size="30" x="767.579" y="45" >100</text>


<!--Draw labels and tics for Y axis -->

<line fill="none" stroke="black" stroke-width="6" x1="0.0" y1="0" x2="-20" y2="0" />
<text transform="scale(1,-1)" text-anchor="end" font-family="sans-serif" font-size="30" x="-25" y="10" >-5</text>
<line fill="none" stroke="black" stroke-width="6" x1="0.0" y1="133.333" x2="-20" y2="133.333" />
<text transform="scale(1,-1)" text-anchor="end" font-family="sans-serif" font-size="30" x="-25" y="-123.333" >0</text>
<line fill="none" stroke="black" stroke-width="6" x1="0.0" y1="266.667" x2="-20" y2="266.667" />
<text transform="scale(1,-1)" text-anchor="end" font-family="sans-serif" font-size="30" x="-25" y="-256.667" >5</text>
<line fill="none" stroke="black" stroke-width="6" x1="0.0" y1="400" x2="-20" y2="400" />
<text transform="scale(1,-1)" text-anchor="end" font-family="sans-serif" font-size="30" x="-25" y="-390" >10</text>
<line fill="none" stroke="black" stroke-width="6" x1="0.0" y1="533.333" x2="-20" y2="533.333" />
<text transform="scale(1,-1)" text-anchor="end" font-family="sans-serif" font-size="30" x="-25" y="-523.333" >15</text>
<line fill="none" stroke="black" stroke-width="6" x1="0.0" y1="666.667" x2="-20" y2="666.667" />
<text transform="scale(1,-1)" text-anchor="end" font-family="sans-serif" font-size="30" x="-25" y="-656.667" >20</text>
<line fill="none" stroke="black" stroke-width="6" x1="0.0" y1="800" x2="-20" y2="800" />
<text transform="scale(1,-1)" text-anchor="end" font-family="sans-serif" font-size="30" x="-25" y="-790" >25</text>

-->
</g>
</g>
<!-- Run Constants
PRINTDISTANCEDATA bool true
GLITCHESONLY bool false
PERTURBBY double 0.05
GLITCHLEVEL double 3
BOUNDARYWINDOW double 0.065
STEPSPERFRAME int 100
TRIALS int 1
ALLBLACK bool true
FILEPREFIX string Fol
NIGGLISELLINGFIRST bool false
ENABLE DistanceEnableString 
DISABLE DistanceDisableString 
GRAPHSIZE int 0
BORDER int 0
PLOTSIZE int 0
AXISWIDTH int 6
TICLENGTH int 20
VECTOR g6 
FOLLOWERMODE FollowerMode line
FIXRANDOMSEED fixRandomSeed true
RANDOMSEED int 18
TIMESTAMP bool false
END end 


-->
</svg>
