<?xml version="1.0" standalone="no"?>
<!-- the width and height set the total pixel output of the image in the browser -->
<!-- whatever is within the viewbox will be remapped to show in this size -->
<svg width="1000" height="1000" viewBox="1 0  1200 1200"  version="1.1" xmlns="http://www.w3.org/2000/svg" xmlns:xlink="http://www.w3.org/1999/xlink">
 <desc>ID (and file name) = Fol_.31_0.svg  mode = LINE3 </desc> 
<g transform = "scale(1 1)">

<text x = "-850" y="50" transform="rotate(-90)"  font-family="sans-serif" font-size="40" stroke ="lightgray" fill="none"> PointDistanceFollower   Feb 21 2020</text>
 <text x="200"  y="30"  font-family="sans-serif" font-size="20" >Fol_.31_0.svg</text>
<text x="300" y="60"   font-family="sans-serif" font-size="20" fill="lightblue">  S6  </text>
<text x="300" y="85"   font-family="sans-serif" font-size="20" fill="olive">  CS6Dist  </text>
<text x="300" y="110"   font-family="sans-serif" font-size="20" fill="black">  LM  </text>



 <!--DISTANCE PLOT BEGINS   mode = LINE3-->


<!-- the following will scale and place the distance plot -->
<g transform="translate(150,975) scale(1 -1)">
   <polyline fill="none" stroke=" lightblue " stroke-width=" 12 " stroke-dasharray = " 10,5 " points=" 7.92079,0 15.8416,71.6103 23.7624,143.221 31.6832,168.53 39.604,198.465 47.5248,224.462 55.4455,241.185 63.3663,243.627 71.2871,245.614 79.2079,247.403 87.1287,251.014 95.0495,256.369 102.97,263.362 110.891,271.867 118.812,281.746 126.733,292.862 134.653,294.72 142.574,296.725 150.495,300.248 158.416,305.237 166.337,311.621 174.257,319.316 182.178,328.232 190.099,338.27 198.02,349.334 205.941,361.33 213.861,374.169 221.782,386.669 229.703,398.846 237.624,411.778 245.545,414.361 253.465,416.279 261.386,418.881 269.307,422.157 277.228,426.09 285.149,430.661 293.069,430.8 300.99,427.545 308.911,424.548 316.832,421.815 324.752,419.351 332.673,417.16 340.594,415.246 348.515,413.614 356.436,412.267 364.356,411.208 372.277,410.438 380.198,409.96 388.119,409.775 396.04,409.882 403.96,410.283 411.881,410.975 419.802,411.957 427.723,413.228 435.644,414.785 443.564,416.624 451.485,418.742 459.406,421.134 467.327,423.797 475.248,426.724 483.168,429.91 491.089,433.351 499.01,437.039 506.931,440.968 514.851,445.133 522.772,449.526 530.693,454.141 538.614,458.972 546.535,464.011 554.455,469.251 562.376,474.687 570.297,480.312 578.218,483.476 586.139,483.86 594.059,484.491 601.98,485.369 609.901,486.492 617.822,487.859 625.743,489.467 633.663,491.315 641.584,493.399 649.505,495.716 657.426,498.264 665.347,501.038 673.267,504.036 681.188,507.252 689.109,510.684 697.03,514.326 704.95,518.174 712.871,522.224 720.792,526.471 728.713,530.91 736.634,535.536 744.554,540.345 752.475,545.332 760.396,550.492 768.317,555.82 776.238,561.311 784.158,566.961 792.079,572.765 " />

   <polyline fill="none" stroke=" olive " stroke-width=" 3 " stroke-dasharray = " 5,10 " points=" 7.92079,0 15.8416,71.6103 23.7624,143.221 31.6832,184.217 39.604,228.909 47.5248,241.671 55.4455,247.616 63.3663,245.685 71.2871,245.614 79.2079,247.403 87.1287,251.014 95.0495,256.369 102.97,263.362 110.891,271.867 118.812,281.746 126.733,292.862 134.653,305.077 142.574,318.267 150.495,332.315 158.416,339.635 166.337,346.623 174.257,354.982 182.178,364.605 190.099,375.387 198.02,387.22 205.941,392.767 213.861,398.484 221.782,404.613 229.703,411.107 237.624,417.926 245.545,420.441 253.465,423.048 261.386,426.321 269.307,430.245 277.228,434.802 285.149,434.075 293.069,430.8 300.99,427.545 308.911,424.548 316.832,421.815 324.752,419.351 332.673,417.16 340.594,415.246 348.515,413.614 356.436,412.267 364.356,411.208 372.277,410.438 380.198,409.96 388.119,409.775 396.04,409.882 403.96,410.283 411.881,410.975 419.802,411.957 427.723,413.228 435.644,414.785 443.564,416.624 451.485,418.742 459.406,421.134 467.327,423.797 475.248,426.724 483.168,429.91 491.089,433.351 499.01,437.039 506.931,440.968 514.851,445.133 522.772,449.526 530.693,454.141 538.614,458.972 546.535,464.011 554.455,469.251 562.376,474.687 570.297,480.312 578.218,486.118 586.139,492.1 594.059,498.251 601.98,504.565 609.901,511.036 617.822,517.658 625.743,524.426 633.663,531.333 641.584,538.375 649.505,545.546 657.426,549.851 665.347,552.65 673.267,555.679 681.188,558.933 689.109,562.408 697.03,565.89 704.95,569.259 712.871,572.843 720.792,576.637 728.713,580.636 736.634,584.837 744.554,589.234 752.475,593.822 760.396,598.596 768.317,603.552 776.238,608.684 784.158,613.987 792.079,619.456 " />

   <polyline fill="none" stroke=" black " stroke-width=" 3 " stroke-dasharray = "  " points=" 7.92079,0 15.8416,71.6103 23.7624,270.654 31.6832,214.831 39.604,286.441 47.5248,251.364 55.4455,429.662 63.3663,501.272 71.2871,572.882 79.2079,247.403 87.1287,251.014 95.0495,256.369 102.97,263.362 110.891,429.729 118.812,427.831 126.733,426.987 134.653,427.203 142.574,428.479 150.495,430.804 158.416,434.162 166.337,438.53 174.257,443.876 182.178,450.167 190.099,457.363 198.02,465.423 205.941,474.302 213.861,475.67 221.782,474.412 229.703,505.404 237.624,552.483 245.545,455.404 253.465,450.731 261.386,446.278 269.307,442.052 277.228,438.059 285.149,434.306 293.069,430.8 300.99,427.545 308.911,424.548 316.832,421.815 324.752,419.351 332.673,417.16 340.594,415.246 348.515,413.614 356.436,412.267 364.356,411.208 372.277,410.438 380.198,409.96 388.119,409.775 396.04,409.882 403.96,410.283 411.881,410.975 419.802,411.957 427.723,413.228 435.644,414.785 443.564,416.624 451.485,418.742 459.406,421.134 467.327,423.797 475.248,426.724 483.168,429.91 491.089,433.351 499.01,609.721 506.931,613.032 514.851,616.538 522.772,620.235 530.693,624.119 538.614,628.187 546.535,632.435 554.455,636.86 562.376,641.459 570.297,646.227 578.218,651.16 586.139,656.256 594.059,661.51 601.98,666.918 609.901,672.477 617.822,617.4 625.743,620.798 633.663,624.387 641.584,628.163 649.505,632.124 657.426,636.265 665.347,640.583 673.267,645.075 681.188,649.737 689.109,654.566 697.03,659.557 704.95,664.707 712.871,670.013 720.792,675.47 728.713,681.076 736.634,686.826 744.554,692.716 752.475,698.745 760.396,704.907 768.317,711.199 776.238,717.618 784.158,724.161 792.079,730.823 " />


<!--Draw Glitches -->

<line fill="none" stroke="black" stroke-width="4" x1="39.604" y1="188.465" x2="39.604" y2="138.465"  stroke-dasharray = "10,5" />
<text transform="scale(1,-1)" font-family="sans-serif" font-size="30" stroke = "rgb(0,0,0)" line = "rgb(0,0,0)"  fill = "lightblue" x="44.604" y="-138.465" >4</text>

<!-- -->


<!--Draw Glitches -->

<line fill="none" stroke="black" stroke-width="4" x1="55.4455" y1="419.662" x2="55.4455" y2="369.662"  stroke-dasharray = "10,5" />
<text transform="scale(1,-1)" font-family="sans-serif" font-size="30" stroke = "rgb(0,0,0)" line = "rgb(0,0,0)"  fill = "black" x="60.4455" y="-369.662" >6</text>
<line fill="none" stroke="black" stroke-width="4" x1="79.2079" y1="237.403" x2="79.2079" y2="187.403"  stroke-dasharray = "10,5" />
<text transform="scale(1,-1)" font-family="sans-serif" font-size="30" stroke = "rgb(0,0,0)" line = "rgb(0,0,0)"  fill = "black" x="84.2079" y="-187.403" >9</text>
<line fill="none" stroke="black" stroke-width="4" x1="110.891" y1="419.729" x2="110.891" y2="369.729"  stroke-dasharray = "10,5" />
<text transform="scale(1,-1)" font-family="sans-serif" font-size="30" stroke = "rgb(0,0,0)" line = "rgb(0,0,0)"  fill = "black" x="115.891" y="-369.729" >13</text>
<line fill="none" stroke="black" stroke-width="4" x1="237.624" y1="542.483" x2="237.624" y2="492.483"  stroke-dasharray = "10,5" />
<text transform="scale(1,-1)" font-family="sans-serif" font-size="30" stroke = "rgb(0,0,0)" line = "rgb(0,0,0)"  fill = "black" x="242.624" y="-492.483" >29</text>
<line fill="none" stroke="black" stroke-width="4" x1="499.01" y1="599.721" x2="499.01" y2="549.721"  stroke-dasharray = "10,5" />
<text transform="scale(1,-1)" font-family="sans-serif" font-size="30" stroke = "rgb(0,0,0)" line = "rgb(0,0,0)"  fill = "black" x="504.01" y="-549.721" >62</text>

<!-- -->


<!--Draw the X and Y axes -->
<polyline fill="none" stroke="black" stroke-width="6"  points=" 800,0 0,0 0, 800" />
<polyline fill="none" stroke="black" stroke-width="1"  points=" 0 800  800 800  800 0" />
<!-- -->


<!--Draw labels and tics for X axis -->

<line fill="none" stroke="black"  stroke-width="6"  x1="0.5" y1="0" x2="0.5" y2="-20" />
<text transform="scale(1,-1)" font-family="sans-serif" font-size="30" x="-24.5" y="45" >0</text>
<line fill="none" stroke="black"  stroke-width="6"  x1="158.916" y1="0" x2="158.916" y2="-20" />
<text transform="scale(1,-1)" font-family="sans-serif" font-size="30" x="133.916" y="45" >20</text>
<line fill="none" stroke="black"  stroke-width="6"  x1="317.332" y1="0" x2="317.332" y2="-20" />
<text transform="scale(1,-1)" font-family="sans-serif" font-size="30" x="292.332" y="45" >40</text>
<line fill="none" stroke="black"  stroke-width="6"  x1="475.748" y1="0" x2="475.748" y2="-20" />
<text transform="scale(1,-1)" font-family="sans-serif" font-size="30" x="450.748" y="45" >60</text>
<line fill="none" stroke="black"  stroke-width="6"  x1="634.163" y1="0" x2="634.163" y2="-20" />
<text transform="scale(1,-1)" font-family="sans-serif" font-size="30" x="609.163" y="45" >80</text>
<line fill="none" stroke="black"  stroke-width="6"  x1="792.579" y1="0" x2="792.579" y2="-20" />
<text transform="scale(1,-1)" font-family="sans-serif" font-size="30" x="767.579" y="45" >100</text>


<!--Draw labels and tics for Y axis -->

<line fill="none" stroke="black" stroke-width="6" x1="0.0" y1="0" x2="-20" y2="0" />
<text transform="scale(1,-1)" text-anchor="end" font-family="sans-serif" font-size="30" x="-25" y="10" >0</text>
<line fill="none" stroke="black" stroke-width="6" x1="0.0" y1="114.286" x2="-20" y2="114.286" />
<text transform="scale(1,-1)" text-anchor="end" font-family="sans-serif" font-size="30" x="-25" y="-104.286" >10</text>
<line fill="none" stroke="black" stroke-width="6" x1="0.0" y1="228.571" x2="-20" y2="228.571" />
<text transform="scale(1,-1)" text-anchor="end" font-family="sans-serif" font-size="30" x="-25" y="-218.571" >20</text>
<line fill="none" stroke="black" stroke-width="6" x1="0.0" y1="342.857" x2="-20" y2="342.857" />
<text transform="scale(1,-1)" text-anchor="end" font-family="sans-serif" font-size="30" x="-25" y="-332.857" >30</text>
<line fill="none" stroke="black" stroke-width="6" x1="0.0" y1="457.143" x2="-20" y2="457.143" />
<text transform="scale(1,-1)" text-anchor="end" font-family="sans-serif" font-size="30" x="-25" y="-447.143" >40</text>
<line fill="none" stroke="black" stroke-width="6" x1="0.0" y1="571.429" x2="-20" y2="571.429" />
<text transform="scale(1,-1)" text-anchor="end" font-family="sans-serif" font-size="30" x="-25" y="-561.429" >50</text>
<line fill="none" stroke="black" stroke-width="6" x1="0.0" y1="685.714" x2="-20" y2="685.714" />
<text transform="scale(1,-1)" text-anchor="end" font-family="sans-serif" font-size="30" x="-25" y="-675.714" >60</text>
<line fill="none" stroke="black" stroke-width="6" x1="0.0" y1="800" x2="-20" y2="800" />
<text transform="scale(1,-1)" text-anchor="end" font-family="sans-serif" font-size="30" x="-25" y="-790" >70</text>

-->
</g>
</g>
<!-- Run Constants
PRINTDISTANCEDATA bool true
GLITCHESONLY bool false
PERTURBBY double 0.05
GLITCHLEVEL double 3
BOUNDARYWINDOW double 0.065
STEPSPERFRAME int 100
TRIALS int 1
ALLBLACK bool true
FILEPREFIX string Fol
NIGGLISELLINGFIRST bool false
ENABLE DistanceEnableString 
DISABLE DistanceDisableString 
GRAPHSIZE int 0
BORDER int 0
PLOTSIZE int 0
AXISWIDTH int 6
TICLENGTH int 20
VECTOR g6 
FOLLOWERMODE FollowerMode line
FIXRANDOMSEED fixRandomSeed true
RANDOMSEED int 18
TIMESTAMP bool false
END end 


-->
</svg>
