<?xml version="1.0" standalone="no"?>
<!-- the width and height set the total pixel output of the image in the browser -->
<!-- whatever is within the viewbox will be remapped to show in this size -->
<svg width="1000" height="1000" viewBox="1 0  1200 1200"  version="1.1" xmlns="http://www.w3.org/2000/svg" xmlns:xlink="http://www.w3.org/1999/xlink">
 <desc>ID (and file name) = Fol_.16_0.svg  mode = LINE3 </desc> 
<g transform = "scale(1 1)">

<text x = "-850" y="50" transform="rotate(-90)"  font-family="sans-serif" font-size="40" stroke ="lightgray" fill="none"> PointDistanceFollower   Feb 21 2020</text>
 <text x="200"  y="30"  font-family="sans-serif" font-size="20" >Fol_.16_0.svg</text>
<text x="300" y="60"   font-family="sans-serif" font-size="20" fill="lightblue">  S6  </text>
<text x="300" y="85"   font-family="sans-serif" font-size="20" fill="olive">  CS6Dist  </text>
<text x="300" y="110"   font-family="sans-serif" font-size="20" fill="black">  LM  </text>



 <!--DISTANCE PLOT BEGINS   mode = LINE3-->


<!-- the following will scale and place the distance plot -->
<g transform="translate(150,975) scale(1 -1)">
   <polyline fill="none" stroke=" lightblue " stroke-width=" 12 " stroke-dasharray = " 10,5 " points=" 7.92079,0 15.8416,8.85058 23.7624,17.7012 31.6832,26.5517 39.604,35.4023 47.5248,44.2529 55.4455,53.1035 63.3663,61.8053 71.2871,65.7017 79.2079,70.4996 87.1287,76.0285 95.0495,82.141 102.97,88.039 110.891,94.2371 118.812,100.689 126.733,107.349 134.653,114.18 142.574,121.154 150.495,128.247 158.416,135.441 166.337,142.72 174.257,150.072 182.178,157.487 190.099,164.956 198.02,172.472 205.941,179.32 213.861,185.139 221.782,191.115 229.703,197.235 237.624,203.485 245.545,209.853 253.465,216.329 261.386,222.904 269.307,228.732 277.228,232.891 285.149,237.247 293.069,241.789 300.99,246.515 308.911,251.579 316.832,256.959 324.752,262.637 332.673,268.594 340.594,274.811 348.515,280.992 356.436,287.156 364.356,293.555 372.277,300.175 380.198,307.001 388.119,314.02 396.04,321.218 403.96,328.585 411.881,336.108 419.802,343.779 427.723,352.544 435.644,362.325 443.564,371.412 451.485,380.759 459.406,390.346 467.327,400.157 475.248,410.174 483.168,420.384 491.089,430.773 499.01,441.328 506.931,451.615 514.851,461.807 522.772,472.127 530.693,482.602 538.614,493.222 546.535,503.977 554.455,514.073 562.376,523.726 570.297,533.543 578.218,543.517 586.139,550.453 594.059,557.28 601.98,564.243 609.901,571.337 617.822,578.558 625.743,585.901 633.663,593.361 641.584,601.033 649.505,612.394 657.426,624.128 665.347,609.665 673.267,595.018 681.188,581.221 689.109,569.456 697.03,558.157 704.95,545.027 712.871,531.143 720.792,517.222 728.713,502.663 736.634,488.486 744.554,474.725 752.475,461.418 760.396,448.603 768.317,436.326 776.238,424.633 784.158,413.572 792.079,403.197 " />

   <polyline fill="none" stroke=" olive " stroke-width=" 3 " stroke-dasharray = " 5,10 " points=" 7.92079,0 15.8416,8.85058 23.7624,17.7012 31.6832,26.5517 39.604,35.4023 47.5248,44.2529 55.4455,53.1035 63.3663,61.8053 71.2871,65.7017 79.2079,70.4996 87.1287,76.0285 95.0495,82.141 102.97,90.8734 110.891,99.9086 118.812,109.166 126.733,118.609 134.653,127.401 142.574,134.075 150.495,140.906 158.416,147.87 166.337,153.197 174.257,157.959 182.178,162.973 190.099,168.219 198.02,173.674 205.941,179.32 213.861,185.139 221.782,191.115 229.703,197.235 237.624,203.485 245.545,209.853 253.465,216.329 261.386,222.904 269.307,228.732 277.228,232.891 285.149,237.247 293.069,241.789 300.99,246.743 308.911,254.19 316.832,261.937 324.752,269.856 332.673,275.467 340.594,281.345 348.515,287.477 356.436,293.844 364.356,300.434 372.277,307.23 380.198,314.22 388.119,321.391 396.04,328.732 403.96,336.231 411.881,343.877 419.802,351.662 427.723,358.282 435.644,367.49 443.564,376.598 451.485,385.129 459.406,393.934 467.327,402.998 475.248,412.301 483.168,421.829 491.089,431.566 499.01,441.499 506.931,451.615 514.851,461.807 522.772,472.127 530.693,482.602 538.614,493.222 546.535,503.977 554.455,514.86 562.376,525.862 570.297,535.529 578.218,543.652 586.139,550.453 594.059,557.28 601.98,564.243 609.901,571.337 617.822,578.558 625.743,585.901 633.663,593.361 641.584,601.181 649.505,617.739 657.426,630.86 665.347,617.254 673.267,602.02 681.188,586.064 689.109,573.162 697.03,560.673 704.95,547.361 712.871,532.131 720.792,517.222 728.713,502.663 736.634,488.486 744.554,474.725 752.475,461.418 760.396,448.603 768.317,436.326 776.238,424.633 784.158,413.572 792.079,403.197 " />

   <polyline fill="none" stroke=" black " stroke-width=" 3 " stroke-dasharray = "  " points=" 7.92079,0 15.8416,8.85058 23.7624,17.7012 31.6832,26.5517 39.604,35.4023 47.5248,44.2529 55.4455,53.1035 63.3663,61.8053 71.2871,65.7017 79.2079,70.4996 87.1287,76.0285 95.0495,82.141 102.97,88.7165 110.891,95.6596 118.812,102.896 126.733,110.368 134.653,118.03 142.574,125.849 150.495,133.796 158.416,141.851 166.337,149.995 174.257,157.959 182.178,162.973 190.099,168.219 198.02,173.674 205.941,179.32 213.861,185.139 221.782,191.115 229.703,197.235 237.624,203.485 245.545,209.853 253.465,216.329 261.386,222.904 269.307,228.732 277.228,232.891 285.149,237.247 293.069,241.789 300.99,246.507 308.911,251.391 316.832,256.431 324.752,261.618 332.673,266.944 340.594,272.4 348.515,277.98 356.436,283.675 364.356,289.479 372.277,295.385 380.198,301.387 388.119,307.481 396.04,313.66 403.96,319.919 411.881,326.254 419.802,332.661 427.723,418.682 435.644,424.271 443.564,452.165 451.485,456.847 459.406,461.73 467.327,466.808 475.248,472.075 483.168,477.524 491.089,483.15 499.01,488.167 506.931,493.093 514.851,498.202 522.772,503.487 530.693,508.944 538.614,514.427 546.535,519.401 554.455,525.017 562.376,530.915 570.297,536.255 578.218,542.21 586.139,544.849 594.059,553.941 601.98,563.077 609.901,572.254 617.822,581.47 625.743,590.724 633.663,600.014 641.584,654.689 649.505,648.68 657.426,642.895 665.347,637.343 673.267,632.029 681.188,626.535 689.109,711.294 697.03,689.383 704.95,664.925 712.871,636.826 720.792,609.015 728.713,581.533 736.634,554.43 744.554,527.763 752.475,501.602 760.396,476.031 768.317,450.071 776.238,424.768 784.158,400.278 792.079,376.757 " />


<!--Draw Glitches -->

<line fill="none" stroke="black" stroke-width="4" x1="427.723" y1="408.682" x2="427.723" y2="358.682"  stroke-dasharray = "10,5" />
<text transform="scale(1,-1)" font-family="sans-serif" font-size="30" stroke = "rgb(0,0,0)" line = "rgb(0,0,0)"  fill = "black" x="432.723" y="-358.682" >53</text>

<!-- -->


<!--Draw the X and Y axes -->
<polyline fill="none" stroke="black" stroke-width="6"  points=" 800,0 0,0 0, 800" />
<polyline fill="none" stroke="black" stroke-width="1"  points=" 0 800  800 800  800 0" />
<!-- -->


<!--Draw labels and tics for X axis -->

<line fill="none" stroke="black"  stroke-width="6"  x1="0.5" y1="0" x2="0.5" y2="-20" />
<text transform="scale(1,-1)" font-family="sans-serif" font-size="30" x="-24.5" y="45" >0</text>
<line fill="none" stroke="black"  stroke-width="6"  x1="158.916" y1="0" x2="158.916" y2="-20" />
<text transform="scale(1,-1)" font-family="sans-serif" font-size="30" x="133.916" y="45" >20</text>
<line fill="none" stroke="black"  stroke-width="6"  x1="317.332" y1="0" x2="317.332" y2="-20" />
<text transform="scale(1,-1)" font-family="sans-serif" font-size="30" x="292.332" y="45" >40</text>
<line fill="none" stroke="black"  stroke-width="6"  x1="475.748" y1="0" x2="475.748" y2="-20" />
<text transform="scale(1,-1)" font-family="sans-serif" font-size="30" x="450.748" y="45" >60</text>
<line fill="none" stroke="black"  stroke-width="6"  x1="634.163" y1="0" x2="634.163" y2="-20" />
<text transform="scale(1,-1)" font-family="sans-serif" font-size="30" x="609.163" y="45" >80</text>
<line fill="none" stroke="black"  stroke-width="6"  x1="792.579" y1="0" x2="792.579" y2="-20" />
<text transform="scale(1,-1)" font-family="sans-serif" font-size="30" x="767.579" y="45" >100</text>


<!--Draw labels and tics for Y axis -->

<line fill="none" stroke="black" stroke-width="6" x1="0.0" y1="0" x2="-20" y2="0" />
<text transform="scale(1,-1)" text-anchor="end" font-family="sans-serif" font-size="30" x="-25" y="10" >0</text>
<line fill="none" stroke="black" stroke-width="6" x1="0.0" y1="88.8889" x2="-20" y2="88.8889" />
<text transform="scale(1,-1)" text-anchor="end" font-family="sans-serif" font-size="30" x="-25" y="-78.8889" >5</text>
<line fill="none" stroke="black" stroke-width="6" x1="0.0" y1="177.778" x2="-20" y2="177.778" />
<text transform="scale(1,-1)" text-anchor="end" font-family="sans-serif" font-size="30" x="-25" y="-167.778" >10</text>
<line fill="none" stroke="black" stroke-width="6" x1="0.0" y1="266.667" x2="-20" y2="266.667" />
<text transform="scale(1,-1)" text-anchor="end" font-family="sans-serif" font-size="30" x="-25" y="-256.667" >15</text>
<line fill="none" stroke="black" stroke-width="6" x1="0.0" y1="355.556" x2="-20" y2="355.556" />
<text transform="scale(1,-1)" text-anchor="end" font-family="sans-serif" font-size="30" x="-25" y="-345.556" >20</text>
<line fill="none" stroke="black" stroke-width="6" x1="0.0" y1="444.444" x2="-20" y2="444.444" />
<text transform="scale(1,-1)" text-anchor="end" font-family="sans-serif" font-size="30" x="-25" y="-434.444" >25</text>
<line fill="none" stroke="black" stroke-width="6" x1="0.0" y1="533.333" x2="-20" y2="533.333" />
<text transform="scale(1,-1)" text-anchor="end" font-family="sans-serif" font-size="30" x="-25" y="-523.333" >30</text>
<line fill="none" stroke="black" stroke-width="6" x1="0.0" y1="622.222" x2="-20" y2="622.222" />
<text transform="scale(1,-1)" text-anchor="end" font-family="sans-serif" font-size="30" x="-25" y="-612.222" >35</text>
<line fill="none" stroke="black" stroke-width="6" x1="0.0" y1="711.111" x2="-20" y2="711.111" />
<text transform="scale(1,-1)" text-anchor="end" font-family="sans-serif" font-size="30" x="-25" y="-701.111" >40</text>
<line fill="none" stroke="black" stroke-width="6" x1="0.0" y1="800" x2="-20" y2="800" />
<text transform="scale(1,-1)" text-anchor="end" font-family="sans-serif" font-size="30" x="-25" y="-790" >45</text>

-->
</g>
</g>
<!-- Run Constants
PRINTDISTANCEDATA bool true
GLITCHESONLY bool false
PERTURBBY double 0.05
GLITCHLEVEL double 3
BOUNDARYWINDOW double 0.065
STEPSPERFRAME int 100
TRIALS int 1
ALLBLACK bool true
FILEPREFIX string Fol
NIGGLISELLINGFIRST bool false
ENABLE DistanceEnableString 
DISABLE DistanceDisableString 
GRAPHSIZE int 0
BORDER int 0
PLOTSIZE int 0
AXISWIDTH int 6
TICLENGTH int 20
VECTOR g6 
FOLLOWERMODE FollowerMode line
FIXRANDOMSEED fixRandomSeed true
RANDOMSEED int 18
TIMESTAMP bool false
END end 


-->
</svg>
