<?xml version="1.0" standalone="no"?>
<!-- the width and height set the total pixel output of the image in the browser -->
<!-- whatever is within the viewbox will be remapped to show in this size -->
<svg width="1000" height="1000" viewBox="1 0  1200 1200"  version="1.1" xmlns="http://www.w3.org/2000/svg" xmlns:xlink="http://www.w3.org/1999/xlink">
 <desc>ID (and file name) = Fol_.14_0.svg  mode = LINE3 </desc> 
<g transform = "scale(1 1)">

<text x = "-850" y="50" transform="rotate(-90)"  font-family="sans-serif" font-size="40" stroke ="lightgray" fill="none"> PointDistanceFollower   Feb 21 2020</text>
 <text x="200"  y="30"  font-family="sans-serif" font-size="20" >Fol_.14_0.svg</text>
<text x="300" y="60"   font-family="sans-serif" font-size="20" fill="lightblue">  S6  </text>
<text x="300" y="85"   font-family="sans-serif" font-size="20" fill="olive">  CS6Dist  </text>
<text x="300" y="110"   font-family="sans-serif" font-size="20" fill="black">  LM  </text>



 <!--DISTANCE PLOT BEGINS   mode = LINE3-->


<!-- the following will scale and place the distance plot -->
<g transform="translate(150,975) scale(1 -1)">
   <polyline fill="none" stroke=" lightblue " stroke-width=" 12 " stroke-dasharray = " 10,5 " points=" 7.92079,0 15.8416,15.1417 23.7624,30.2834 31.6832,45.425 39.604,60.5667 47.5248,75.7084 55.4455,90.8501 63.3663,105.992 71.2871,121.133 79.2079,133.087 87.1287,129.534 95.0495,127.69 102.97,127.628 110.891,129.35 118.812,132.788 126.733,137.813 134.653,144.26 142.574,151.946 150.495,160.696 158.416,170.344 166.337,180.747 174.257,191.782 182.178,203.347 190.099,215.356 198.02,227.738 205.941,240.437 213.861,253.404 221.782,266.601 229.703,279.994 237.624,288.386 245.545,291.043 253.465,293.185 261.386,285.804 269.307,278.856 277.228,272.375 285.149,266.394 293.069,260.948 300.99,256.07 308.911,251.795 316.832,248.153 324.752,245.173 332.673,242.878 340.594,241.288 348.515,240.418 356.436,240.274 364.356,240.764 372.277,241.768 380.198,243.409 388.119,245.676 396.04,248.552 403.96,252.015 411.881,256.042 419.802,260.607 427.723,265.681 435.644,271.237 443.564,277.246 451.485,283.678 459.406,290.505 467.327,297.701 475.248,305.239 483.168,313.095 491.089,321.244 499.01,329.667 506.931,338.341 514.851,347.249 522.772,356.372 530.693,365.695 538.614,375.202 546.535,382.429 554.455,388.374 562.376,395.509 570.297,403.996 578.218,413.754 586.139,424.694 594.059,436.727 601.98,449.767 609.901,463.727 617.822,478.528 625.743,494.094 633.663,510.354 641.584,527.245 649.505,544.709 657.426,562.691 665.347,573.583 673.267,578.583 681.188,584.563 689.109,591.491 697.03,599.336 704.95,608.061 712.871,617.63 720.792,628.004 728.713,639.143 736.634,639.593 744.554,640.987 752.475,644.654 760.396,650.554 768.317,658.628 776.238,668.797 784.158,680.967 792.079,695.033 " />

   <polyline fill="none" stroke=" olive " stroke-width=" 3 " stroke-dasharray = " 5,10 " points=" 7.92079,2.15792e-05 15.8416,15.1417 23.7624,30.2834 31.6832,45.425 39.604,60.5667 47.5248,75.7084 55.4455,90.8501 63.3663,105.992 71.2871,121.133 79.2079,136.275 87.1287,144.815 95.0495,142.401 102.97,142.193 110.891,144.131 118.812,148.036 126.733,153.655 134.653,160.713 142.574,168.95 150.495,178.139 158.416,188.092 166.337,198.659 174.257,209.721 182.178,221.184 190.099,232.976 198.02,245.038 205.941,257.324 213.861,269.798 221.782,282.431 229.703,294.324 237.624,299.821 245.545,296.506 253.465,293.185 261.386,285.804 269.307,278.856 277.228,272.375 285.149,266.394 293.069,260.948 300.99,256.07 308.911,251.795 316.832,248.153 324.752,245.173 332.673,242.878 340.594,241.288 348.515,240.418 356.436,240.274 364.356,241.111 372.277,243.032 380.198,245.589 388.119,248.772 396.04,252.565 403.96,256.949 411.881,261.902 419.802,267.399 427.723,273.413 435.644,279.916 443.564,286.88 451.485,294.277 459.406,302.078 467.327,310.256 475.248,318.785 483.168,327.639 491.089,336.796 499.01,346.233 506.931,355.929 514.851,362.308 522.772,366.803 530.693,371.665 538.614,376.878 546.535,382.429 554.455,389.946 562.376,401.236 570.297,413.841 578.218,427.719 586.139,442.821 594.059,459.087 601.98,476.455 609.901,494.855 617.822,514.219 625.743,534.478 633.663,555.565 641.584,564.688 649.505,566.616 657.426,569.587 665.347,573.583 673.267,578.583 681.188,584.563 689.109,591.491 697.03,599.336 704.95,608.061 712.871,617.63 720.792,628.004 728.713,639.143 736.634,639.593 744.554,640.987 752.475,644.654 760.396,650.554 768.317,658.628 776.238,668.797 784.158,680.967 792.079,695.033 " />

   <polyline fill="none" stroke=" black " stroke-width=" 3 " stroke-dasharray = "  " points=" 7.92079,0 15.8416,15.1417 23.7624,30.2834 31.6832,45.425 39.604,60.5667 47.5248,75.7084 55.4455,90.8501 63.3663,105.992 71.2871,121.133 79.2079,136.275 87.1287,148.246 95.0495,144.266 102.97,141.913 110.891,141.267 118.812,142.352 126.733,145.129 134.653,149.504 142.574,155.342 150.495,162.485 158.416,170.77 166.337,180.039 174.257,190.148 182.178,374.416 190.099,364.363 198.02,354.519 205.941,344.902 213.861,335.532 221.782,326.429 229.703,317.617 237.624,309.121 245.545,300.968 253.465,293.185 261.386,285.804 269.307,278.856 277.228,272.375 285.149,266.394 293.069,260.948 300.99,256.07 308.911,251.795 316.832,248.153 324.752,245.173 332.673,242.878 340.594,241.288 348.515,240.418 356.436,240.274 364.356,240.859 372.277,242.168 380.198,244.187 388.119,246.901 396.04,250.286 403.96,254.316 411.881,258.961 419.802,264.187 427.723,269.962 435.644,276.251 443.564,283.019 451.485,290.234 459.406,297.863 467.327,305.874 475.248,314.238 483.168,322.929 491.089,331.92 499.01,341.188 506.931,350.71 514.851,360.467 522.772,370.44 530.693,380.612 538.614,390.968 546.535,401.493 554.455,388.303 562.376,394.486 570.297,400.963 578.218,407.72 586.139,414.743 594.059,422.02 601.98,429.538 609.901,437.283 617.822,445.245 625.743,453.411 633.663,784.963 641.584,784.444 649.505,784.233 657.426,569.587 665.347,573.583 673.267,578.583 681.188,584.563 689.109,591.491 697.03,666.388 704.95,656.672 712.871,649.069 720.792,664.577 728.713,638.71 736.634,637.563 744.554,639.252 752.475,641.21 760.396,650.554 768.317,658.628 776.238,668.797 784.158,680.967 792.079,695.033 " />


<!--Draw Glitches -->

<line fill="none" stroke="black" stroke-width="4" x1="182.178" y1="364.416" x2="182.178" y2="314.416"  stroke-dasharray = "10,5" />
<text transform="scale(1,-1)" font-family="sans-serif" font-size="30" stroke = "rgb(0,0,0)" line = "rgb(0,0,0)"  fill = "black" x="187.178" y="-314.416" >22</text>
<line fill="none" stroke="black" stroke-width="4" x1="633.663" y1="774.963" x2="633.663" y2="724.963"  stroke-dasharray = "10,5" />
<text transform="scale(1,-1)" font-family="sans-serif" font-size="30" stroke = "rgb(0,0,0)" line = "rgb(0,0,0)"  fill = "black" x="638.663" y="-724.963" >79</text>
<line fill="none" stroke="black" stroke-width="4" x1="657.426" y1="559.587" x2="657.426" y2="509.587"  stroke-dasharray = "10,5" />
<text transform="scale(1,-1)" font-family="sans-serif" font-size="30" stroke = "rgb(0,0,0)" line = "rgb(0,0,0)"  fill = "black" x="662.426" y="-509.587" >82</text>
<line fill="none" stroke="black" stroke-width="4" x1="697.03" y1="656.388" x2="697.03" y2="606.388"  stroke-dasharray = "10,5" />
<text transform="scale(1,-1)" font-family="sans-serif" font-size="30" stroke = "rgb(0,0,0)" line = "rgb(0,0,0)"  fill = "black" x="702.03" y="-606.388" >87</text>

<!-- -->


<!--Draw the X and Y axes -->
<polyline fill="none" stroke="black" stroke-width="6"  points=" 800,0 0,0 0, 800" />
<polyline fill="none" stroke="black" stroke-width="1"  points=" 0 800  800 800  800 0" />
<!-- -->


<!--Draw labels and tics for X axis -->

<line fill="none" stroke="black"  stroke-width="6"  x1="0.5" y1="0" x2="0.5" y2="-20" />
<text transform="scale(1,-1)" font-family="sans-serif" font-size="30" x="-24.5" y="45" >0</text>
<line fill="none" stroke="black"  stroke-width="6"  x1="158.916" y1="0" x2="158.916" y2="-20" />
<text transform="scale(1,-1)" font-family="sans-serif" font-size="30" x="133.916" y="45" >20</text>
<line fill="none" stroke="black"  stroke-width="6"  x1="317.332" y1="0" x2="317.332" y2="-20" />
<text transform="scale(1,-1)" font-family="sans-serif" font-size="30" x="292.332" y="45" >40</text>
<line fill="none" stroke="black"  stroke-width="6"  x1="475.748" y1="0" x2="475.748" y2="-20" />
<text transform="scale(1,-1)" font-family="sans-serif" font-size="30" x="450.748" y="45" >60</text>
<line fill="none" stroke="black"  stroke-width="6"  x1="634.163" y1="0" x2="634.163" y2="-20" />
<text transform="scale(1,-1)" font-family="sans-serif" font-size="30" x="609.163" y="45" >80</text>
<line fill="none" stroke="black"  stroke-width="6"  x1="792.579" y1="0" x2="792.579" y2="-20" />
<text transform="scale(1,-1)" font-family="sans-serif" font-size="30" x="767.579" y="45" >100</text>


<!--Draw labels and tics for Y axis -->

<line fill="none" stroke="black" stroke-width="6" x1="0.0" y1="0" x2="-20" y2="0" />
<text transform="scale(1,-1)" text-anchor="end" font-family="sans-serif" font-size="30" x="-25" y="10" >0</text>
<line fill="none" stroke="black" stroke-width="6" x1="0.0" y1="160" x2="-20" y2="160" />
<text transform="scale(1,-1)" text-anchor="end" font-family="sans-serif" font-size="30" x="-25" y="-150" >5</text>
<line fill="none" stroke="black" stroke-width="6" x1="0.0" y1="320" x2="-20" y2="320" />
<text transform="scale(1,-1)" text-anchor="end" font-family="sans-serif" font-size="30" x="-25" y="-310" >10</text>
<line fill="none" stroke="black" stroke-width="6" x1="0.0" y1="480" x2="-20" y2="480" />
<text transform="scale(1,-1)" text-anchor="end" font-family="sans-serif" font-size="30" x="-25" y="-470" >15</text>
<line fill="none" stroke="black" stroke-width="6" x1="0.0" y1="640" x2="-20" y2="640" />
<text transform="scale(1,-1)" text-anchor="end" font-family="sans-serif" font-size="30" x="-25" y="-630" >20</text>
<line fill="none" stroke="black" stroke-width="6" x1="0.0" y1="800" x2="-20" y2="800" />
<text transform="scale(1,-1)" text-anchor="end" font-family="sans-serif" font-size="30" x="-25" y="-790" >25</text>

-->
</g>
</g>
<!-- Run Constants
PRINTDISTANCEDATA bool true
GLITCHESONLY bool false
PERTURBBY double 0.05
GLITCHLEVEL double 3
BOUNDARYWINDOW double 0.065
STEPSPERFRAME int 100
TRIALS int 1
ALLBLACK bool true
FILEPREFIX string Fol
NIGGLISELLINGFIRST bool false
ENABLE DistanceEnableString 
DISABLE DistanceDisableString 
GRAPHSIZE int 0
BORDER int 0
PLOTSIZE int 0
AXISWIDTH int 6
TICLENGTH int 20
VECTOR g6 
FOLLOWERMODE FollowerMode line
FIXRANDOMSEED fixRandomSeed true
RANDOMSEED int 18
TIMESTAMP bool false
END end 


-->
</svg>
