<?xml version="1.0" standalone="no"?>
<!-- the width and height set the total pixel output of the image in the browser -->
<!-- whatever is within the viewbox will be remapped to show in this size -->
<svg width="900" height="900" viewBox="1 0900 900"  version="1.1" xmlns="http://www.w3.org/2000/svg" xmlns:xlink="http://www.w3.org/1999/xlink">
 <desc>ID (and file name) = LINE3_RAND_20%_.18_0.svg  mode = LINE3 </desc> 
<g transform = "scale(1 1)">

<text x = "-850" y="50" transform="rotate(-90)"  font-family="sans-serif" font-size="40" stroke ="lightgray" fill="none"> PointDistanceFollower   Jun 17 2018</text>
 <text x="140"  y="30"  font-family="sans-serif" font-size="20" >LINE3_RAND_20%_.18_0.svg  &#160;&#160;&#160;&#160;&#160; Wall time passed: 54 msec.</text>
<text x="300" y="60"   font-family="sans-serif" font-size="20" fill="lightblue">S6  lightblue     msec  53</text>
<text x="300" y="85"   font-family="sans-serif" font-size="20" fill="olive">CS6Dist  olive     msec  1</text>



 <!--DISTANCE PLOT BEGINS   mode = LINE3-->


<!-- the following will scale and place the distance plot -->
<g transform="translate(150,850) scale(1 -1)">
   <polyline fill="none" stroke=" lightblue " stroke-width=" 12 " points=" 6.93069,251.615 13.8614,232.081 20.7921,213.615 27.7228,196.244 34.6535,180 41.5842,164.908 48.5149,150.996 55.4455,138.29 62.3762,126.813 69.3069,116.587 76.2376,107.633 83.1683,99.9678 90.099,93.6079 97.0297,88.5663 103.96,84.8535 110.891,82.4774 117.822,81.4431 124.752,81.7527 131.683,83.4056 138.614,86.3984 145.545,90.7245 152.475,96.3749 159.406,103.338 166.337,111.599 173.267,121.141 180.198,131.946 187.129,143.993 194.059,157.257 200.99,171.716 207.921,187.342 214.851,204.109 221.782,221.988 228.713,240.95 235.644,260.965 242.574,277.693 249.505,288.331 256.436,300.119 263.366,313.04 270.297,327.071 277.228,342.191 284.158,358.377 291.089,375.606 298.02,393.852 304.95,413.091 311.881,433.297 318.812,454.444 325.743,476.505 332.673,499.456 339.604,523.268 346.535,547.916 353.465,573.374 360.396,599.615 367.327,626.616 374.257,643.982 381.188,654.819 388.119,634.308 395.05,600.095 401.98,566.456 408.911,533.417 415.842,501.002 422.772,469.238 429.703,438.154 436.634,407.778 443.564,378.14 450.495,349.27 457.426,321.199 464.356,293.96 471.287,267.586 478.218,242.11 485.149,217.566 492.079,193.988 " />

<line fill="none" stroke-dasharray = "10, 10"  stroke="orange" stroke-width="6" x1="499.01" y1="350" x2="693.069" y2="350" />
   <polyline fill="none" stroke=" olive " stroke-width=" 3 " points=" 6.93069,251.615 13.8614,232.081 20.7921,213.615 27.7228,196.244 34.6535,180 41.5842,164.908 48.5149,150.996 55.4455,138.29 62.3762,126.813 69.3069,116.587 76.2376,107.633 83.1683,99.9678 90.099,93.6079 97.0297,88.5663 103.96,84.8535 110.891,82.4774 117.822,81.4431 124.752,81.7527 131.683,83.4056 138.614,86.3984 145.545,90.7245 152.475,96.3749 159.406,103.338 166.337,111.599 173.267,121.141 180.198,131.946 187.129,143.993 194.059,157.257 200.99,171.716 207.921,187.342 214.851,204.109 221.782,221.988 228.713,240.95 235.644,260.965 242.574,277.693 249.505,288.331 256.436,300.119 263.366,313.04 270.297,327.071 277.228,342.191 284.158,358.377 291.089,375.606 298.02,393.852 304.95,413.091 311.881,433.297 318.812,454.444 325.743,476.505 332.673,499.456 339.604,523.268 346.535,547.916 353.465,573.374 360.396,599.615 367.327,626.616 374.257,643.982 381.188,654.819 388.119,634.308 395.05,600.095 401.98,566.456 408.911,533.417 415.842,501.002 422.772,469.238 429.703,438.154 436.634,407.778 443.564,378.14 450.495,349.27 457.426,321.199 464.356,293.96 471.287,267.586 478.218,242.11 485.149,217.566 492.079,193.988 " />

<line fill="none" stroke-dasharray = "10, 10"  stroke="orange" stroke-width="6" x1="499.01" y1="350" x2="693.069" y2="350" />

<!--Draw Glitches -->


<!-- -->


<!--Draw Glitches -->


<!-- -->


<!--Draw the X and Y axes -->
<polyline fill="none" stroke="black" stroke-width="6"  points=" 700,0 0,0 0, 700" />
<polyline fill="none" stroke="black" stroke-width="1"  points=" 0 700  700 700  700 0" />
<!-- -->


<!--Draw labels and tics for X axis -->

<line fill="none" stroke="black"  stroke-width="6"  x1="0.5" y1="0" x2="0.5" y2="-20" />
<text transform="scale(1,-1)" font-family="sans-serif" font-size="30" x="-24.5" y="45" >0</text>
<line fill="none" stroke="black"  stroke-width="6"  x1="139.114" y1="0" x2="139.114" y2="-20" />
<text transform="scale(1,-1)" font-family="sans-serif" font-size="30" x="114.114" y="45" >20</text>
<line fill="none" stroke="black"  stroke-width="6"  x1="277.728" y1="0" x2="277.728" y2="-20" />
<text transform="scale(1,-1)" font-family="sans-serif" font-size="30" x="252.728" y="45" >40</text>
<line fill="none" stroke="black"  stroke-width="6"  x1="416.342" y1="0" x2="416.342" y2="-20" />
<text transform="scale(1,-1)" font-family="sans-serif" font-size="30" x="391.342" y="45" >60</text>
<line fill="none" stroke="black"  stroke-width="6"  x1="554.955" y1="0" x2="554.955" y2="-20" />
<text transform="scale(1,-1)" font-family="sans-serif" font-size="30" x="529.955" y="45" >80</text>
<line fill="none" stroke="black"  stroke-width="6"  x1="693.569" y1="0" x2="693.569" y2="-20" />
<text transform="scale(1,-1)" font-family="sans-serif" font-size="30" x="668.569" y="45" >100</text>


<!--Draw labels and tics for Y axis -->

<line fill="none" stroke="black" stroke-width="6" x1="0.0" y1="0" x2="-20" y2="0" />
<text transform="scale(1,-1)" text-anchor="end" font-family="sans-serif" font-size="30" x="-25" y="10" >900</text>
<line fill="none" stroke="black" stroke-width="6" x1="0.0" y1="100" x2="-20" y2="100" />
<text transform="scale(1,-1)" text-anchor="end" font-family="sans-serif" font-size="30" x="-25" y="-90" >950</text>
<line fill="none" stroke="black" stroke-width="6" x1="0.0" y1="200" x2="-20" y2="200" />
<text transform="scale(1,-1)" text-anchor="end" font-family="sans-serif" font-size="30" x="-25" y="-190" >1000</text>
<line fill="none" stroke="black" stroke-width="6" x1="0.0" y1="300" x2="-20" y2="300" />
<text transform="scale(1,-1)" text-anchor="end" font-family="sans-serif" font-size="30" x="-25" y="-290" >1050</text>
<line fill="none" stroke="black" stroke-width="6" x1="0.0" y1="400" x2="-20" y2="400" />
<text transform="scale(1,-1)" text-anchor="end" font-family="sans-serif" font-size="30" x="-25" y="-390" >1100</text>
<line fill="none" stroke="black" stroke-width="6" x1="0.0" y1="500" x2="-20" y2="500" />
<text transform="scale(1,-1)" text-anchor="end" font-family="sans-serif" font-size="30" x="-25" y="-490" >1150</text>
<line fill="none" stroke="black" stroke-width="6" x1="0.0" y1="600" x2="-20" y2="600" />
<text transform="scale(1,-1)" text-anchor="end" font-family="sans-serif" font-size="30" x="-25" y="-590" >1200</text>
<line fill="none" stroke="black" stroke-width="6" x1="0.0" y1="700" x2="-20" y2="700" />
<text transform="scale(1,-1)" text-anchor="end" font-family="sans-serif" font-size="30" x="-25" y="-690" >1250</text>

-->
</g>
</g>
<!-- Run Constants
PRINTDISTANCEDATA bool true
GLITCHESONLY bool false
PERTURBBY double 20
GLITCHLEVEL double 3
BOUNDARYWINDOW double 0.065
STEPSPERFRAME int 100
TRIALS int 1
ALLBLACK bool true
FILEPREFIX string LINE3_RAND_20%
ENABLE DistanceEnableString 
DISABLE DistanceDisableString 
GRAPHSIZE int 0
BORDER int 0
PLOTSIZE int 0
AXISWIDTH int 6
TICLENGTH int 20
VECTOR g6 
FOLLOWERMODE FollowerMode line
FIXRANDOMSEED fixRandomSeed false
RANDOMSEED int 19191
TIMESTAMP bool false
END end 


-->
</svg>
