<?xml version="1.0" standalone="no"?>
<!-- the width and height set the total pixel output of the image in the browser -->
<!-- whatever is within the viewbox will be remapped to show in this size -->
<svg width="900" height="900" viewBox="1 0900 900"  version="1.1" xmlns="http://www.w3.org/2000/svg" xmlns:xlink="http://www.w3.org/1999/xlink">
 <desc>ID (and file name) = LINE3_RAND_20%_.49_0.svg  mode = LINE3 </desc> 
<g transform = "scale(1 1)">

<text x = "-850" y="50" transform="rotate(-90)"  font-family="sans-serif" font-size="40" stroke ="lightgray" fill="none"> PointDistanceFollower   Jun 17 2018</text>
 <text x="140"  y="30"  font-family="sans-serif" font-size="20" >LINE3_RAND_20%_.49_0.svg  &#160;&#160;&#160;&#160;&#160; Wall time passed: 58 msec.</text>
<text x="300" y="60"   font-family="sans-serif" font-size="20" fill="lightblue">S6  lightblue     msec  56</text>
<text x="300" y="85"   font-family="sans-serif" font-size="20" fill="olive">CS6Dist  olive     msec  2</text>



 <!--DISTANCE PLOT BEGINS   mode = LINE3-->


<!-- the following will scale and place the distance plot -->
<g transform="translate(150,850) scale(1 -1)">
   <polyline fill="none" stroke=" lightblue " stroke-width=" 12 " points=" 6.93069,594.194 13.8614,588.563 20.7921,583.119 27.7228,574.848 34.6535,567.508 41.5842,429.236 48.5149,425.425 55.4455,422.822 62.3762,421.439 69.3069,421.284 76.2376,422.359 83.1683,424.656 90.099,422.166 97.0297,413.834 103.96,406.656 110.891,400.669 117.822,395.906 124.752,392.393 131.683,390.152 138.614,389.194 145.545,389.526 152.475,391.146 159.406,394.044 166.337,398.203 173.267,403.6 180.198,410.205 187.129,417.982 194.059,426.893 200.99,436.893 207.921,445.268 214.851,452.315 221.782,460.456 228.713,464.522 235.644,448.459 242.574,433.853 249.505,420.797 256.436,409.381 263.366,399.691 270.297,391.804 277.228,385.784 284.158,381.685 291.089,379.542 298.02,379.377 304.95,381.19 311.881,384.964 318.812,390.666 325.743,398.246 332.673,407.64 339.604,418.773 346.535,431.561 353.465,445.915 360.396,461.741 367.327,474.242 374.257,484.731 381.188,496.751 388.119,510.23 395.05,525.095 401.98,649.787 408.911,663.289 415.842,631.042 422.772,589.604 429.703,548.996 436.634,415.386 443.564,387.348 450.495,361.883 457.426,339.32 464.356,319.994 471.287,304.238 478.218,292.355 485.149,276.16 492.079,252.881 499.01,233.344 505.941,218.004 512.871,207.274 519.802,201.473 526.733,200.786 533.663,205.236 540.594,214.679 547.525,227.948 554.455,205.255 561.386,173.957 568.317,146.126 575.248,122.513 582.178,103.936 589.109,91.1882 596.04,68.764 602.97,59.0933 609.901,64.8519 616.832,73.1008 623.762,83.5048 630.693,150.962 637.624,103.274 644.554,180.361 651.485,154.747 658.416,360.092 665.347,513.153 " />

<line fill="none" stroke-dasharray = "10, 10"  stroke="orange" stroke-width="6" x1="672.277" y1="350" x2="693.069" y2="350" />
   <polyline fill="none" stroke=" olive " stroke-width=" 3 " points=" 6.93069,473.567 13.8614,464.701 20.7921,456.959 27.7228,450.381 34.6535,445 41.5842,440.847 48.5149,437.943 55.4455,436.306 62.3762,435.945 69.3069,436.863 76.2376,439.053 83.1683,442.504 90.099,440.999 97.0297,433.469 103.96,427.149 110.891,422.075 117.822,418.276 124.752,415.776 131.683,414.588 138.614,414.722 145.545,416.175 152.475,418.94 159.406,422.999 166.337,427.509 173.267,427.46 180.198,428.629 187.129,431.01 194.059,434.59 200.99,439.351 207.921,445.268 214.851,452.315 221.782,460.456 228.713,467.682 235.644,467.653 242.574,461.952 249.505,454.47 256.436,444.619 263.366,433.763 270.297,424.695 277.228,417.49 284.158,412.213 291.089,408.911 298.02,407.616 304.95,408.34 311.881,411.076 318.812,415.798 325.743,422.463 332.673,431.011 339.604,441.369 346.535,453.454 353.465,467.175 360.396,482.436 367.327,499.14 374.257,517.188 381.188,530.942 388.119,543.357 395.05,557.285 401.98,572.644 408.911,589.347 415.842,527.553 422.772,492.682 429.703,459.537 436.634,428.382 443.564,399.517 450.495,373.274 457.426,350.016 464.356,330.12 471.287,313.96 478.218,301.884 485.149,276.16 492.079,252.881 499.01,233.344 505.941,218.004 512.871,207.274 519.802,201.473 526.733,200.786 533.663,205.236 540.594,214.679 547.525,227.948 554.455,226.677 561.386,227.533 568.317,200.158 575.248,159.878 582.178,123.874 589.109,92.5376 596.04,68.764 602.97,59.0933 609.901,64.8519 616.832,81.8969 623.762,113.894 630.693,167.022 637.624,111.361 644.554,192.817 651.485,171.889 658.416,360.092 665.347,521.354 " />

<line fill="none" stroke-dasharray = "10, 10"  stroke="orange" stroke-width="6" x1="672.277" y1="350" x2="693.069" y2="350" />

<!--Draw Glitches -->

<line fill="none" stroke="black" stroke-width="4" x1="41.5842" y1="419.236" x2="41.5842" y2="369.236"  stroke-dasharray = "10,5" />
<text transform="scale(1,-1)" font-family="sans-serif" font-size="30" stroke = "rgb(0,0,0)" line = "rgb(0,0,0)"  fill = "lightblue" x="46.5842" y="-369.236" >5</text>
<line fill="none" stroke="black" stroke-width="4" x1="401.98" y1="639.787" x2="401.98" y2="589.787"  stroke-dasharray = "10,5" />
<text transform="scale(1,-1)" font-family="sans-serif" font-size="30" stroke = "rgb(0,0,0)" line = "rgb(0,0,0)"  fill = "lightblue" x="406.98" y="-589.787" >57</text>
<line fill="none" stroke="black" stroke-width="4" x1="436.634" y1="405.386" x2="436.634" y2="355.386"  stroke-dasharray = "10,5" />
<text transform="scale(1,-1)" font-family="sans-serif" font-size="30" stroke = "rgb(0,0,0)" line = "rgb(0,0,0)"  fill = "lightblue" x="441.634" y="-355.386" >62</text>
<line fill="none" stroke="black" stroke-width="4" x1="630.693" y1="140.962" x2="630.693" y2="90.9624"  stroke-dasharray = "10,5" />
<text transform="scale(1,-1)" font-family="sans-serif" font-size="30" stroke = "rgb(0,0,0)" line = "rgb(0,0,0)"  fill = "lightblue" x="635.693" y="-90.9624" >90</text>

<!-- -->


<!--Draw Glitches -->

<line fill="none" stroke="black" stroke-width="4" x1="630.693" y1="157.022" x2="630.693" y2="107.022"  stroke-dasharray = "10,5" />
<text transform="scale(1,-1)" font-family="sans-serif" font-size="30" stroke = "rgb(0,0,0)" line = "rgb(0,0,0)"  fill = "olive" x="635.693" y="-107.022" >90</text>
<line fill="none" stroke="black" stroke-width="4" x1="658.416" y1="350.092" x2="658.416" y2="300.092"  stroke-dasharray = "10,5" />
<text transform="scale(1,-1)" font-family="sans-serif" font-size="30" stroke = "rgb(0,0,0)" line = "rgb(0,0,0)"  fill = "olive" x="663.416" y="-300.092" >94</text>

<!-- -->


<!--Draw the X and Y axes -->
<polyline fill="none" stroke="black" stroke-width="6"  points=" 700,0 0,0 0, 700" />
<polyline fill="none" stroke="black" stroke-width="1"  points=" 0 700  700 700  700 0" />
<!-- -->


<!--Draw labels and tics for X axis -->

<line fill="none" stroke="black"  stroke-width="6"  x1="0.5" y1="0" x2="0.5" y2="-20" />
<text transform="scale(1,-1)" font-family="sans-serif" font-size="30" x="-24.5" y="45" >0</text>
<line fill="none" stroke="black"  stroke-width="6"  x1="139.114" y1="0" x2="139.114" y2="-20" />
<text transform="scale(1,-1)" font-family="sans-serif" font-size="30" x="114.114" y="45" >20</text>
<line fill="none" stroke="black"  stroke-width="6"  x1="277.728" y1="0" x2="277.728" y2="-20" />
<text transform="scale(1,-1)" font-family="sans-serif" font-size="30" x="252.728" y="45" >40</text>
<line fill="none" stroke="black"  stroke-width="6"  x1="416.342" y1="0" x2="416.342" y2="-20" />
<text transform="scale(1,-1)" font-family="sans-serif" font-size="30" x="391.342" y="45" >60</text>
<line fill="none" stroke="black"  stroke-width="6"  x1="554.955" y1="0" x2="554.955" y2="-20" />
<text transform="scale(1,-1)" font-family="sans-serif" font-size="30" x="529.955" y="45" >80</text>
<line fill="none" stroke="black"  stroke-width="6"  x1="693.569" y1="0" x2="693.569" y2="-20" />
<text transform="scale(1,-1)" font-family="sans-serif" font-size="30" x="668.569" y="45" >100</text>


<!--Draw labels and tics for Y axis -->

<line fill="none" stroke="black" stroke-width="6" x1="0.0" y1="0" x2="-20" y2="0" />
<text transform="scale(1,-1)" text-anchor="end" font-family="sans-serif" font-size="30" x="-25" y="10" >600</text>
<line fill="none" stroke="black" stroke-width="6" x1="0.0" y1="87.5" x2="-20" y2="87.5" />
<text transform="scale(1,-1)" text-anchor="end" font-family="sans-serif" font-size="30" x="-25" y="-77.5" >800</text>
<line fill="none" stroke="black" stroke-width="6" x1="0.0" y1="175" x2="-20" y2="175" />
<text transform="scale(1,-1)" text-anchor="end" font-family="sans-serif" font-size="30" x="-25" y="-165" >1000</text>
<line fill="none" stroke="black" stroke-width="6" x1="0.0" y1="262.5" x2="-20" y2="262.5" />
<text transform="scale(1,-1)" text-anchor="end" font-family="sans-serif" font-size="30" x="-25" y="-252.5" >1200</text>
<line fill="none" stroke="black" stroke-width="6" x1="0.0" y1="350" x2="-20" y2="350" />
<text transform="scale(1,-1)" text-anchor="end" font-family="sans-serif" font-size="30" x="-25" y="-340" >1400</text>
<line fill="none" stroke="black" stroke-width="6" x1="0.0" y1="437.5" x2="-20" y2="437.5" />
<text transform="scale(1,-1)" text-anchor="end" font-family="sans-serif" font-size="30" x="-25" y="-427.5" >1600</text>
<line fill="none" stroke="black" stroke-width="6" x1="0.0" y1="525" x2="-20" y2="525" />
<text transform="scale(1,-1)" text-anchor="end" font-family="sans-serif" font-size="30" x="-25" y="-515" >1800</text>
<line fill="none" stroke="black" stroke-width="6" x1="0.0" y1="612.5" x2="-20" y2="612.5" />
<text transform="scale(1,-1)" text-anchor="end" font-family="sans-serif" font-size="30" x="-25" y="-602.5" >2000</text>
<line fill="none" stroke="black" stroke-width="6" x1="0.0" y1="700" x2="-20" y2="700" />
<text transform="scale(1,-1)" text-anchor="end" font-family="sans-serif" font-size="30" x="-25" y="-690" >2200</text>

-->
</g>
</g>
<!-- Run Constants
PRINTDISTANCEDATA bool true
GLITCHESONLY bool false
PERTURBBY double 20
GLITCHLEVEL double 3
BOUNDARYWINDOW double 0.065
STEPSPERFRAME int 100
TRIALS int 1
ALLBLACK bool true
FILEPREFIX string LINE3_RAND_20%
ENABLE DistanceEnableString 
DISABLE DistanceDisableString 
GRAPHSIZE int 0
BORDER int 0
PLOTSIZE int 0
AXISWIDTH int 6
TICLENGTH int 20
VECTOR g6 
FOLLOWERMODE FollowerMode line
FIXRANDOMSEED fixRandomSeed false
RANDOMSEED int 19191
TIMESTAMP bool false
END end 


-->
</svg>
