<?xml version="1.0" standalone="no"?>
<!-- the width and height set the total pixel output of the image in the browser -->
<!-- whatever is within the viewbox will be remapped to show in this size -->
<svg width="900" height="900" viewBox="1 0900 900"  version="1.1" xmlns="http://www.w3.org/2000/svg" xmlns:xlink="http://www.w3.org/1999/xlink">
 <desc>ID (and file name) = LINE3_RAND_20%_.34_0.svg  mode = LINE3 </desc> 
<g transform = "scale(1 1)">

<text x = "-850" y="50" transform="rotate(-90)"  font-family="sans-serif" font-size="40" stroke ="lightgray" fill="none"> PointDistanceFollower   Jun 17 2018</text>
 <text x="140"  y="30"  font-family="sans-serif" font-size="20" >LINE3_RAND_20%_.34_0.svg  &#160;&#160;&#160;&#160;&#160; Wall time passed: 51 msec.</text>
<text x="300" y="60"   font-family="sans-serif" font-size="20" fill="lightblue">S6  lightblue     msec  48</text>
<text x="300" y="85"   font-family="sans-serif" font-size="20" fill="olive">CS6Dist  olive     msec  3</text>



 <!--DISTANCE PLOT BEGINS   mode = LINE3-->


<!-- the following will scale and place the distance plot -->
<g transform="translate(150,850) scale(1 -1)">
   <polyline fill="none" stroke=" lightblue " stroke-width=" 12 " points=" 6.93069,79.1 13.8614,71.4863 20.7921,66.017 27.7228,62.412 34.6535,60.1015 41.5842,60.0524 48.5149,62.2655 55.4455,66.7143 62.3762,73.3466 69.3069,82.0878 76.2376,92.8447 83.1683,105.51 90.099,119.966 97.0297,136.092 103.96,153.763 110.891,172.859 117.822,193.26 124.752,214.856 131.683,237.542 138.614,261.219 145.545,285.799 152.475,311.2 159.406,337.346 166.337,364.17 173.267,391.611 180.198,419.614 187.129,448.129 194.059,479.347 200.99,499.187 207.921,508.557 214.851,519.087 221.782,530.74 228.713,543.48 235.644,557.267 242.574,572.061 249.505,587.82 256.436,604.504 263.366,622.07 270.297,637.986 277.228,649.336 284.158,661.601 291.089,674.755 298.02,688.766 304.95,689.769 311.881,677.684 318.812,664.213 325.743,651.386 332.673,638.769 339.604,626.386 346.535,614.245 353.465,602.352 360.396,590.716 367.327,579.346 374.257,568.25 381.188,557.437 388.119,546.915 395.05,536.693 401.98,526.781 408.911,517.186 415.842,507.92 422.772,498.989 429.703,490.405 436.634,482.175 443.564,474.308 450.495,466.814 457.426,459.702 464.356,452.806 471.287,442.715 478.218,432.968 485.149,423.575 492.079,414.547 499.01,405.895 505.941,397.629 512.871,389.761 519.802,382.302 526.733,375.261 533.663,368.648 540.594,362.475 547.525,356.749 554.455,351.481 561.386,346.679 568.317,342.35 575.248,338.502 582.178,335.142 589.109,332.275 596.04,329.907 602.97,328.043 609.901,326.684 616.832,325.835 623.762,325.495 630.693,325.667 637.624,326.35 644.554,327.542 651.485,329.242 658.416,331.445 665.347,334.149 672.277,337.349 679.208,336.169 686.139,333.929 693.069,332.19 " />

   <polyline fill="none" stroke=" olive " stroke-width=" 3 " points=" 6.93069,79.1 13.8614,71.4863 20.7921,66.017 27.7228,62.412 34.6535,60.1015 41.5842,60.0524 48.5149,62.2655 55.4455,66.7143 62.3762,73.3466 69.3069,82.0878 76.2376,92.8447 83.1683,105.51 90.099,119.966 97.0297,136.092 103.96,153.763 110.891,172.859 117.822,193.26 124.752,214.856 131.683,237.542 138.614,261.219 145.545,285.799 152.475,311.2 159.406,337.346 166.337,364.17 173.267,391.611 180.198,419.614 187.129,448.129 194.059,481.931 200.99,499.187 207.921,508.557 214.851,519.087 221.782,530.74 228.713,543.48 235.644,557.267 242.574,572.061 249.505,587.82 256.436,604.504 263.366,622.07 270.297,637.986 277.228,649.336 284.158,661.601 291.089,674.755 298.02,688.766 304.95,689.769 311.881,678.914 318.812,666.363 325.743,651.386 332.673,638.769 339.604,626.386 346.535,614.245 353.465,602.352 360.396,590.716 367.327,579.346 374.257,568.25 381.188,557.437 388.119,546.915 395.05,536.693 401.98,526.781 408.911,517.186 415.842,507.92 422.772,498.989 429.703,490.405 436.634,482.175 443.564,474.308 450.495,466.814 457.426,459.702 464.356,452.806 471.287,442.715 478.218,432.968 485.149,423.575 492.079,414.547 499.01,405.895 505.941,397.629 512.871,389.761 519.802,382.302 526.733,375.261 533.663,368.648 540.594,362.475 547.525,356.749 554.455,351.481 561.386,346.679 568.317,342.35 575.248,338.502 582.178,335.142 589.109,332.275 596.04,329.907 602.97,328.043 609.901,326.684 616.832,325.835 623.762,325.495 630.693,325.667 637.624,326.35 644.554,327.542 651.485,329.242 658.416,331.445 665.347,334.149 672.277,337.349 679.208,341.037 686.139,342.904 693.069,338.846 " />


<!--Draw the X and Y axes -->
<polyline fill="none" stroke="black" stroke-width="6"  points=" 700,0 0,0 0, 700" />
<polyline fill="none" stroke="black" stroke-width="1"  points=" 0 700  700 700  700 0" />
<!-- -->


<!--Draw labels and tics for X axis -->

<line fill="none" stroke="black"  stroke-width="6"  x1="0.5" y1="0" x2="0.5" y2="-20" />
<text transform="scale(1,-1)" font-family="sans-serif" font-size="30" x="-24.5" y="45" >0</text>
<line fill="none" stroke="black"  stroke-width="6"  x1="139.114" y1="0" x2="139.114" y2="-20" />
<text transform="scale(1,-1)" font-family="sans-serif" font-size="30" x="114.114" y="45" >20</text>
<line fill="none" stroke="black"  stroke-width="6"  x1="277.728" y1="0" x2="277.728" y2="-20" />
<text transform="scale(1,-1)" font-family="sans-serif" font-size="30" x="252.728" y="45" >40</text>
<line fill="none" stroke="black"  stroke-width="6"  x1="416.342" y1="0" x2="416.342" y2="-20" />
<text transform="scale(1,-1)" font-family="sans-serif" font-size="30" x="391.342" y="45" >60</text>
<line fill="none" stroke="black"  stroke-width="6"  x1="554.955" y1="0" x2="554.955" y2="-20" />
<text transform="scale(1,-1)" font-family="sans-serif" font-size="30" x="529.955" y="45" >80</text>
<line fill="none" stroke="black"  stroke-width="6"  x1="693.569" y1="0" x2="693.569" y2="-20" />
<text transform="scale(1,-1)" font-family="sans-serif" font-size="30" x="668.569" y="45" >100</text>


<!--Draw labels and tics for Y axis -->

<line fill="none" stroke="black" stroke-width="6" x1="0.0" y1="0" x2="-20" y2="0" />
<text transform="scale(1,-1)" text-anchor="end" font-family="sans-serif" font-size="30" x="-25" y="10" >1000</text>
<line fill="none" stroke="black" stroke-width="6" x1="0.0" y1="100" x2="-20" y2="100" />
<text transform="scale(1,-1)" text-anchor="end" font-family="sans-serif" font-size="30" x="-25" y="-90" >1200</text>
<line fill="none" stroke="black" stroke-width="6" x1="0.0" y1="200" x2="-20" y2="200" />
<text transform="scale(1,-1)" text-anchor="end" font-family="sans-serif" font-size="30" x="-25" y="-190" >1400</text>
<line fill="none" stroke="black" stroke-width="6" x1="0.0" y1="300" x2="-20" y2="300" />
<text transform="scale(1,-1)" text-anchor="end" font-family="sans-serif" font-size="30" x="-25" y="-290" >1600</text>
<line fill="none" stroke="black" stroke-width="6" x1="0.0" y1="400" x2="-20" y2="400" />
<text transform="scale(1,-1)" text-anchor="end" font-family="sans-serif" font-size="30" x="-25" y="-390" >1800</text>
<line fill="none" stroke="black" stroke-width="6" x1="0.0" y1="500" x2="-20" y2="500" />
<text transform="scale(1,-1)" text-anchor="end" font-family="sans-serif" font-size="30" x="-25" y="-490" >2000</text>
<line fill="none" stroke="black" stroke-width="6" x1="0.0" y1="600" x2="-20" y2="600" />
<text transform="scale(1,-1)" text-anchor="end" font-family="sans-serif" font-size="30" x="-25" y="-590" >2200</text>
<line fill="none" stroke="black" stroke-width="6" x1="0.0" y1="700" x2="-20" y2="700" />
<text transform="scale(1,-1)" text-anchor="end" font-family="sans-serif" font-size="30" x="-25" y="-690" >2400</text>

-->
</g>
</g>
<!-- Run Constants
PRINTDISTANCEDATA bool true
GLITCHESONLY bool false
PERTURBBY double 20
GLITCHLEVEL double 3
BOUNDARYWINDOW double 0.065
STEPSPERFRAME int 100
TRIALS int 1
ALLBLACK bool true
FILEPREFIX string LINE3_RAND_20%
ENABLE DistanceEnableString 
DISABLE DistanceDisableString 
GRAPHSIZE int 0
BORDER int 0
PLOTSIZE int 0
AXISWIDTH int 6
TICLENGTH int 20
VECTOR g6 
FOLLOWERMODE FollowerMode line
FIXRANDOMSEED fixRandomSeed false
RANDOMSEED int 19191
TIMESTAMP bool false
END end 


-->
</svg>
