<?xml version="1.0" standalone="no" ?>
<!--the width and height set the total pixel output of the image in the browser-->
<!--whatever is within the viewbox will be remapped to show in this size-->
<svg width="800" height="700" viewBox="1 800 700"  version="1.1" xmlns="http://www.w3.org/2000/svg" xmlns:xlink="http://www.w3.org/1999/xlink">

<g
   transform=" translate(-50 -100)   scale( .8 .8)">

   <line id="cP-tP" x1="250" y1="300" x2="250" y2="450" stroke-dasharray="10, 9" style="stroke:rgb(0,0,0);stroke-width:3" />
   <line id="tP-oP" x1="250" y1="450" x2="250" y2="600" style="stroke:rgb(0,0,0);stroke-width:3" />
   <line id="cF-hR" x1="400" y1="300" x2="400" y2="450" stroke-dasharray="10, 9" style="stroke:rgb(0,0,0);stroke-width:3" />
   <line id="cF-tI" x1="400" y1="300" x2="550" y2="450" stroke-dasharray="10, 9" style="stroke:rgb(0,0,0);stroke-width:3" />
   <line id="cI-tI" x1="550" y1="300" x2="550" y2="450" stroke-dasharray="10, 9" style="stroke:rgb(0,0,0);stroke-width:3" />
   <line id="tI-oI" x1="550" y1="450" x2="550" y2="600" style="stroke:rgb(0,0,0);stroke-width:3" />


   <line id="cI-hR" x1="250" y1="300" x2="400" y2="450" stroke-dasharray="10, 9" style="stroke:rgb(0,0,0);stroke-width:3" />
   <line id="cP-hR" x1="550" y1="300" x2="400" y2="450" stroke-dasharray="10, 9" style="stroke:rgb(0,0,0);stroke-width:3" />

   <line id="hP-oS" x1="325" y1="450" x2="325" y2="600" stroke-dasharray="10, 9" style="stroke:rgb(0,0,0);stroke-width:3" />
   <line id="oS-mP" x1="325" y1="600" x2="325" y2="700" style="stroke:rgb(0,0,0);stroke-width:3" />
   <line id="tP-oS" x1="250" y1="450" x2="325" y2="600" style="stroke:rgb(0,0,0);stroke-width:3" />
   <line id="oS-mS" x1="325" y1="600" x2="495" y2="700" style="stroke:rgb(0,0,0);stroke-width:6" />
   <line id="oS-mS" x1="325" y1="600" x2="495" y2="700" style="stroke:rgb(255,255,255);stroke-width:2" />
   <line id="oP-mP" x1="250" y1="600" x2="325" y2="700" style="stroke:rgb(0,0,0);stroke-width:10" />
   <line id="oP-mP" x1="250" y1="600" x2="325" y2="700" style="stroke:rgb(255,255,255); stroke-width:6" />
   <line id="oP-mP" x1="250" y1="600" x2="325" y2="700" style="stroke:rgb(0,0,0);stroke-width:2" />
   <line id="hR-mS" x1="400" y1="450" x2="495" y2="700" stroke-dasharray="10, 9" style="stroke:rgb(0,0,0);stroke-width:3" />
   <line id="tI-oF" x1="550" y1="450" x2="495" y2="600" style="stroke:rgb(0,0,0);stroke-width:3" />
   <line id="oI-mS" x1="550" y1="600" x2="495" y2="700" style="stroke:rgb(0,0,0);stroke-width:10" />
   <line id="oI-mS" x1="550" y1="600" x2="495" y2="700" style="stroke:rgb(255,255,255);stroke-width:6" />
   <line id="oI-mS" x1="550" y1="600" x2="495" y2="700" style="stroke:rgb(0,0,0);stroke-width:2" />
   <line id="oF-mS" x1="495" y1="600" x2="495" y2="700" style="stroke:rgb(0,0,0);stroke-width:10" />
   <line id="oF-mS" x1="495" y1="600" x2="495" y2="700" style="stroke:rgb(255,255,255);stroke-width:6" />
   <line id="oF-mS" x1="495" y1="600" x2="495" y2="700" style="stroke:rgb(0,0,0);stroke-width:2" />
   <line id="mp-aP" x1="323" y1="700" x2="405" y2="800" style="stroke:rgb(0,0,0);stroke-width:3" />
   <line id="mS-aP" x1="495" y1="700" x2="405" y2="800" style="stroke:rgb(0,0,0);stroke-width:3" />
<circle id="cP" cx="250" cy="300" r="20" fill="white" stroke="black" stroke-width="3"/>
<circle id="cF" cx="400" cy="300" r="20" fill="white" stroke="black" stroke-width="3"/>
<circle cx="550" cy="300" r="20" fill="white" stroke="black" stroke-width="3"/>
<circle id="tP" cx="250" cy="450" r="20" fill="white" stroke="black" stroke-width="3"/>
<circle id="hP" cx="325" cy="450" r="20" fill="white" stroke="black" stroke-width="3"/>
<circle id="hR" cx="400" cy="450" r="20" fill="white" stroke="black" stroke-width="3"/>
<circle id="tI" cx="550" cy="450" r="20" fill="white" stroke="black" stroke-width="3"/>
<circle id="oP" cx="250" cy="600" r="20" fill="white" stroke="black" stroke-width="3"/>
<circle id="oS" cx="325" cy="600" r="20" fill="white" stroke="black" stroke-width="3"/>
<circle id="oF" cx = "495" cy="600" r="20" fill="white" stroke="black" stroke-width="3"/>
<circle id="mI" cx="550" cy="600" r="20" fill="white" stroke="black" stroke-width="3"/>
<circle id="mP" cx="323" cy="700" r="20" fill="white" stroke="black" stroke-width="3"/>
<circle id="mS" cx="495" cy="700" r="20" fill="white" stroke="black" stroke-width="3"/>
<circle id="aP" cx="405" cy="800" r="20" fill="white" stroke="black" stroke-width="3"/>
<text x="239" y="307" font-size="25">cP</text>
<text x="386" y="308" font-size="25" >cF</text>
<text x="537" y="308" font-size="25" >cI</text>
<text x="238" y="458" font-size="25" >tP</text>
<text x="313" y="458" font-size="25" >hP</text>
<text x="386" y="458" font-size="25" >hR</text>
<text x="542" y="458" font-size="25" >tI</text>
<text x="236" y="608" font-size="25" >oP</text>
<text x="310" y="608" font-size="25" >oS</text>
<text x="480" y="608" font-size="25" >oF</text>
<text x="535" y="608" font-size="25" >oI</text>
<text x="307" y="708" font-size="25" >mP</text>
<text x="478" y="708" font-size="25" >mS</text>
<text x="392" y="808" font-size="25" >aP</text>
<text x="150" y="850" font-size="15" >Diagram based on:</text>
<text x="150" y="870" font-size="15" >Grimmer, Hans. "Partial order among the 14 Bravais  </text>
<text x="150" y="890" font-size="15" >types of lattices: basics and applications." Acta Crystallographica </text>
<text x="150" y="910" font-size="15" >Section A : Foundations and Advances 71, no. 2 (2015) : 143 - 149.</text>
<text x="150" y="940" font-size="20" >The dashed lines indicate "conjugate" relationships between the types.</text>
<text x="175" y="175" font-size="25" >SELLA RESULTS  (Angstroms)</text>
<text x="175" y="210" font-size="25" >      R 57.10	57.10	57.10	89.75	89.75	89.75	2OSN	HR		</text>
   <rect id="cF" x="365" y="230" width="80" height="30" stroke-width="2" stroke="orange" fill="white" />
   <text id="cF" x="370" y="250" font-size="18">      52.91</text>

   <rect id="cI" x="515" y="230" width="80" height="30" stroke-width="2" stroke="orange" fill="white" />
   <text id="cI" x="520" y="250" font-size="18">      63.01 </text>

   <rect id="cP" x="215" y="230" width="80" height="30" stroke-width="2" stroke="orange" fill="white" />
   <text id="cP" x="220" y="250" font-size="18">       3.77</text>

   <g transform=" translate(-10 10)  ">    <rect id="hP" x="285" y="380" width="80" height="30" stroke-width="2" stroke="orange" fill="white" />
   <text id="hP" x="300" y="400" font-size="18">      51.48 </text>
</g>
   <g transform=" translate(10 10)  ">    <rect id="hR" x="385" y="380" width="80" height="30" stroke-width="2" stroke="orange" fill="white" />
   <text id="hR" x="400" y="400" font-size="18">          0 </text>
</g>
   <g transform=" translate(90 20)  ">    <rect id="mS" x="435" y="650" width="80" height="30" stroke-width="2" stroke="orange" fill="white" />
   <text id="mS" x="450" y="670" font-size="18">          0 </text>
</g>
   <g transform=" translate(-70 30)  ">    <rect id="mP" x="285" y="650" width="80" height="30" stroke-width="2" stroke="orange" fill="white" />
   <text id="mP" x="300" y="670" font-size="18">       3.77 </text>
</g>
   <rect id="oS" x="285" y="530" width="80" height="30" stroke-width="2" stroke="orange" fill="white" />
   <text id="oS" x="300" y="550" font-size="18">       3.77 </text>

   <rect id="oF" x="460" y="530" width="80" height="30" stroke-width="2" stroke="orange" fill="white" />
   <text id="oF" x="470" y="550" font-size="18">      52.91 </text>

   <g transform=" translate(40 30)  ">    <rect id="oI" x="535" y="530" width="80" height="30" stroke-width="2" stroke="orange" fill="white" />
   <text id="oI" x="550" y="550" font-size="18">      47.81 </text>
</g>


   <g transform=" translate(20 30)  ">    <rect id="oP" x="125" y="530" width="80" height="30" stroke-width="2" stroke="orange" fill="white" />
   <text id="oP" x="135" y="550" font-size="18">       3.77 </text>
</g>
   <g transform=" translate(20 10)  ">    <rect id="tI" x="535" y="380" width="80" height="30" stroke-width="2" stroke="orange" fill="white" />
   <text id="tI" x="550" y="400" font-size="18">      52.91 </text>
</g>
   <g transform=" translate(20 30)  ">    <rect id="tP" x="125" y="380" width="80" height="30" stroke-width="2" stroke="orange" fill="white" />
   <text id="tP" x="135" y="400" font-size="18">       3.77 </text>
</g>
P    56.975    56.975    80.575    90.000   135.000    90.000  cP 14.2262P    57.100    57.100    80.575    90.000   134.875    90.250  hR 0P    56.975    56.975    80.575    90.000   135.000    90.000  mP 14.2262P    57.100    57.100    80.575    90.000   134.875    90.250  mC 0P    56.975    56.975    80.575    90.000   135.000    90.000  oP 14.2262P    56.975    56.975    80.575    90.000   135.000    90.000  oC 14.2262P    56.975    56.975    80.575    90.000   135.000    90.000  tP 14.2262<text x = "680" y = "300" font-size = "15" >Projected best fits ( reported distances (in A^2)) </text>
<text x = "700" y = "320" font-size = "15" >P    56.975    56.975    80.575    90.000   135.000    90.000  cP 14.2262 </text>
<text x = "700" y = "340" font-size = "15" >P    57.100    57.100    80.575    90.000   134.875    90.250  hR 0 </text>
<text x = "700" y = "360" font-size = "15" >P    56.975    56.975    80.575    90.000   135.000    90.000  mP 14.2262 </text>
<text x = "700" y = "380" font-size = "15" >P    57.100    57.100    80.575    90.000   134.875    90.250  mC 0 </text>
<text x = "700" y = "400" font-size = "15" >P    56.975    56.975    80.575    90.000   135.000    90.000  oP 14.2262 </text>
<text x = "700" y = "420" font-size = "15" >P    56.975    56.975    80.575    90.000   135.000    90.000  oC 14.2262 </text>
<text x = "700" y = "440" font-size = "15" >P    56.975    56.975    80.575    90.000   135.000    90.000  tP 14.2262 </text>

   </g>

   </svg>


