<?xml version="1.0" standalone="no"?>
<svg width="2000" height ="2000" viewBox = "0 0 2000 2000" 
version = "1.1" xmlns="http://www.w3.org/2000/svg" xmlns:xlink="http://www.w3.org/1999/xlink">
<!-- Creation date and time _2021-03-01.17_11_42.-->
<g transform="translate(50,90) scale(1 1)" >
  <polygon fill="NONE " stroke="LIGHTGRAY" stroke-width="1" points="-23.9752, -25.6937  -23.9752, 37.1106  -23.9752, 85.6937  -23.9752, 22.8894  " />
  <polygon fill="NONE " stroke="LIGHTGRAY" stroke-width="1" points="30, 59.0351  83.9752, 37.1106  83.9752, 85.6937  30, 107.618  " />
  <polygon fill="NONE " stroke="LIGHTGRAY" stroke-width="1" points="-23.9752, 37.1106  30, 59.0351  30, 107.618  -23.9752, 85.6937  " />
  <polygon fill="NONE " stroke="LIGHTGRAY" stroke-width="1" points="-23.9752, -25.6937  -23.9752, -25.6937  -23.9752, -25.6937  -23.9752, -25.6937  " />
  <polygon fill="NONE " stroke="LIGHTGRAY" stroke-width="1" points="83.9752, -25.6937  83.9752, -25.6937  83.9752, -25.6937  83.9752, -25.6937  " />
  <polygon fill="NONE " stroke="LIGHTGRAY" stroke-width="1" points="-23.9752, -25.6937  30, -47.6181  83.9752, -25.6937  30, -3.76919  " />
  <polygon fill="NONE " stroke="LIGHTGRAY" stroke-width="1" points="-23.9752, -25.6937  30, -3.76919  30, 59.0351  -23.9752, 37.1106  " />
  <polygon fill="NONE " stroke="LIGHTGRAY" stroke-width="1" points="30, 59.0351  30, -3.76919  83.9752, -25.6937  83.9752, 37.1106  " />
  <polygon fill="NONE " stroke="LIGHTGRAY" stroke-width="1" points="30, 59.0351  30, 59.0351  30, 59.0351  30, 59.0351  " />
  <polygon fill="NONE " stroke="black" stroke-width="2" points="30, 0.964903  30, 0.964903  30, 0.964903  30, 0.964903  " />
  <polygon fill="NONE " stroke="black" stroke-width="2" points="30, 0.964903  30, 63.7692  83.9752, 85.6937  83.9752, 22.8894  " />
  <polygon fill="NONE " stroke="black" stroke-width="2" points="-23.9752, 85.6937  30, 63.7692  30, 0.964903  -23.9752, 22.8894  " />
  <polygon fill="NONE " stroke="black" stroke-width="2" points="-23.9752, 85.6937  30, 107.618  83.9752, 85.6937  30, 63.7692  " />
  <polygon fill="NONE " stroke="black" stroke-width="2" points="-23.9752, 85.6937  -23.9752, 85.6937  -23.9752, 85.6937  -23.9752, 85.6937  " />
  <polygon fill="NONE " stroke="black" stroke-width="2" points="30, -47.6181  30, 0.964903  83.9752, 22.8894  83.9752, -25.6937  " />
  <polygon fill="NONE " stroke="black" stroke-width="2" points="-23.9752, -25.6937  -23.9752, 22.8894  30, 0.964903  30, -47.6181  " />
  <polygon fill="NONE " stroke="black" stroke-width="2" points="83.9752, -25.6937  83.9752, 22.8894  83.9752, 85.6937  83.9752, 37.1106  " />
</g>
<g transform="translate(250,90) scale(1 1)" >
  <polygon fill="NONE " stroke="LIGHTGRAY" stroke-width="1" points="52.7429, 59.9428  99.3771, 37.3329  71.5686, 87.4348  24.9344, 110.045  " />
  <polygon fill="NONE " stroke="LIGHTGRAY" stroke-width="1" points="-11.5686, -27.4348  -8.15484, 37.3329  -35.9633, 87.4348  -39.3771, 22.6671  " />
  <polygon fill="NONE " stroke="LIGHTGRAY" stroke-width="1" points="95.9633, -27.4348  95.9633, -27.4348  95.9633, -27.4348  95.9633, -27.4348  " />
  <polygon fill="NONE " stroke="LIGHTGRAY" stroke-width="1" points="-8.15484, 37.3329  52.7429, 59.9428  24.9344, 110.045  -35.9633, 87.4348  " />
  <polygon fill="NONE " stroke="LIGHTGRAY" stroke-width="1" points="-11.5686, -27.4348  35.0656, -50.0446  95.9633, -27.4348  49.3292, -4.82488  " />
  <polygon fill="NONE " stroke="LIGHTGRAY" stroke-width="1" points="-11.5686, -27.4348  -11.5686, -27.4348  -11.5686, -27.4348  -11.5686, -27.4348  " />
  <polygon fill="NONE " stroke="LIGHTGRAY" stroke-width="1" points="52.7429, 59.9428  49.3292, -4.82488  95.9633, -27.4348  99.3771, 37.3329  " />
  <polygon fill="NONE " stroke="LIGHTGRAY" stroke-width="1" points="52.7429, 59.9428  52.7429, 59.9428  52.7429, 59.9428  52.7429, 59.9428  " />
  <polygon fill="NONE " stroke="LIGHTGRAY" stroke-width="1" points="-11.5686, -27.4348  49.3292, -4.82488  52.7429, 59.9428  -8.15484, 37.3329  " />
  <polygon fill="NONE " stroke="black" stroke-width="2" points="7.25709, 0.057204  10.6708, 64.8249  71.5686, 87.4348  68.1548, 22.6671  " />
  <polygon fill="NONE " stroke="black" stroke-width="2" points="7.25709, 0.057204  7.25709, 0.057204  7.25709, 0.057204  7.25709, 0.057204  " />
  <polygon fill="NONE " stroke="black" stroke-width="2" points="-35.9633, 87.4348  10.6708, 64.8249  7.25709, 0.057204  -39.3771, 22.6671  " />
  <polygon fill="NONE " stroke="black" stroke-width="2" points="-35.9633, 87.4348  24.9344, 110.045  71.5686, 87.4348  10.6708, 64.8249  " />
  <polygon fill="NONE " stroke="black" stroke-width="2" points="35.0656, -50.0446  7.25709, 0.057204  68.1548, 22.6671  95.9633, -27.4348  " />
  <polygon fill="NONE " stroke="black" stroke-width="2" points="-35.9633, 87.4348  -35.9633, 87.4348  -35.9633, 87.4348  -35.9633, 87.4348  " />
  <polygon fill="NONE " stroke="black" stroke-width="2" points="95.9633, -27.4348  68.1548, 22.6671  71.5686, 87.4348  99.3771, 37.3329  " />
  <polygon fill="NONE " stroke="black" stroke-width="2" points="-11.5686, -27.4348  -39.3771, 22.6671  7.25709, 0.057204  35.0656, -50.0446  " />
</g>
<g transform="translate(450,90) scale(1 1)" >
  <polygon fill="NONE " stroke="LIGHTGRAY" stroke-width="1" points="78.3693, 62.9642  116.271, 38.0728  57.1282, 93.2302  19.2266, 118.122  " />
  <polygon fill="NONE " stroke="LIGHTGRAY" stroke-width="1" points="109.011, -33.2302  109.011, -33.2302  109.011, -33.2302  109.011, -33.2302  " />
  <polygon fill="NONE " stroke="LIGHTGRAY" stroke-width="1" points="2.87183, -33.2302  10.1321, 38.0728  -49.0105, 93.2302  -56.2708, 21.9272  " />
  <polygon fill="NONE " stroke="LIGHTGRAY" stroke-width="1" points="2.87183, -33.2302  40.7734, -58.1215  109.011, -33.2302  71.109, -8.33887  " />
  <polygon fill="NONE " stroke="LIGHTGRAY" stroke-width="1" points="10.1321, 38.0728  78.3693, 62.9642  19.2266, 118.122  -49.0105, 93.2302  " />
  <polygon fill="NONE " stroke="LIGHTGRAY" stroke-width="1" points="78.3693, 62.9642  71.109, -8.33887  109.011, -33.2302  116.271, 38.0728  " />
  <polygon fill="NONE " stroke="LIGHTGRAY" stroke-width="1" points="2.87183, -33.2302  2.87183, -33.2302  2.87183, -33.2302  2.87183, -33.2302  " />
  <polygon fill="NONE " stroke="LIGHTGRAY" stroke-width="1" points="78.3693, 62.9642  78.3693, 62.9642  78.3693, 62.9642  78.3693, 62.9642  " />
  <polygon fill="NONE " stroke="LIGHTGRAY" stroke-width="1" points="2.87183, -33.2302  71.109, -8.33887  78.3693, 62.9642  10.1321, 38.0728  " />
  <polygon fill="NONE " stroke="black" stroke-width="2" points="-18.3693, -2.96416  -11.109, 68.3389  57.1282, 93.2302  49.8679, 21.9272  " />
  <polygon fill="NONE " stroke="black" stroke-width="2" points="-18.3693, -2.96416  -18.3693, -2.96416  -18.3693, -2.96416  -18.3693, -2.96416  " />
  <polygon fill="NONE " stroke="black" stroke-width="2" points="-49.0105, 93.2302  -11.109, 68.3389  -18.3693, -2.96416  -56.2708, 21.9272  " />
  <polygon fill="NONE " stroke="black" stroke-width="2" points="40.7734, -58.1215  -18.3693, -2.96416  49.8679, 21.9272  109.011, -33.2302  " />
  <polygon fill="NONE " stroke="black" stroke-width="2" points="-49.0105, 93.2302  19.2266, 118.122  57.1282, 93.2302  -11.109, 68.3389  " />
  <polygon fill="NONE " stroke="black" stroke-width="2" points="109.011, -33.2302  49.8679, 21.9272  57.1282, 93.2302  116.271, 38.0728  " />
  <polygon fill="NONE " stroke="black" stroke-width="2" points="-49.0105, 93.2302  -49.0105, 93.2302  -49.0105, 93.2302  -49.0105, 93.2302  " />
  <polygon fill="NONE " stroke="black" stroke-width="2" points="2.87183, -33.2302  -56.2708, 21.9272  -18.3693, -2.96416  40.7734, -58.1215  " />
</g>
<g transform="translate(650,90) scale(1 1)" >
  <polygon fill="NONE " stroke="LIGHTGRAY" stroke-width="1" points="-49.7648, 93.0306  -49.7648, 93.0306  -49.7648, 93.0306  -49.7648, 93.0306  " />
  <polygon fill="NONE " stroke="LIGHTGRAY" stroke-width="1" points="23.3764, -33.0306  -60, 21.9526  -38.1886, -2.86013  45.1878, -57.8434  " />
  <polygon fill="NONE " stroke="LIGHTGRAY" stroke-width="1" points="98.1886, 62.8601  87.9534, -8.21788  109.765, -33.0306  120, 38.0474  " />
  <polygon fill="NONE " stroke="LIGHTGRAY" stroke-width="1" points="23.3764, -33.0306  45.1878, -57.8434  109.765, -33.0306  87.9534, -8.21788  " />
  <polygon fill="NONE " stroke="LIGHTGRAY" stroke-width="1" points="33.6116, 38.0474  98.1886, 62.8601  14.8122, 117.843  -49.7648, 93.0306  " />
  <polygon fill="NONE " stroke="LIGHTGRAY" stroke-width="1" points="98.1886, 62.8601  98.1886, 62.8601  98.1886, 62.8601  98.1886, 62.8601  " />
  <polygon fill="NONE " stroke="LIGHTGRAY" stroke-width="1" points="23.3764, -33.0306  33.6116, 38.0474  -49.7648, 93.0306  -60, 21.9526  " />
  <polygon fill="NONE " stroke="LIGHTGRAY" stroke-width="1" points="23.3764, -33.0306  23.3764, -33.0306  23.3764, -33.0306  23.3764, -33.0306  " />
  <polygon fill="NONE " stroke="LIGHTGRAY" stroke-width="1" points="23.3764, -33.0306  87.9534, -8.21788  98.1886, 62.8601  33.6116, 38.0474  " />
  <polygon fill="NONE " stroke="black" stroke-width="2" points="-38.1886, -2.86013  -27.9534, 68.2179  36.6236, 93.0306  26.3884, 21.9526  " />
  <polygon fill="NONE " stroke="black" stroke-width="2" points="109.765, -33.0306  26.3884, 21.9526  36.6236, 93.0306  120, 38.0474  " />
  <polygon fill="NONE " stroke="black" stroke-width="2" points="-38.1886, -2.86013  -38.1886, -2.86013  -38.1886, -2.86013  -38.1886, -2.86013  " />
  <polygon fill="NONE " stroke="black" stroke-width="2" points="45.1878, -57.8434  -38.1886, -2.86013  26.3884, 21.9526  109.765, -33.0306  " />
  <polygon fill="NONE " stroke="black" stroke-width="2" points="-49.7648, 93.0306  14.8122, 117.843  36.6236, 93.0306  -27.9534, 68.2179  " />
  <polygon fill="NONE " stroke="black" stroke-width="2" points="-49.7648, 93.0306  -27.9534, 68.2179  -38.1886, -2.86013  -60, 21.9526  " />
  <polygon fill="NONE " stroke="black" stroke-width="2" points="98.1886, 62.8601  120, 38.0474  36.6236, 93.0306  14.8122, 117.843  " />
  <polygon fill="NONE " stroke="black" stroke-width="2" points="109.765, -33.0306  109.765, -33.0306  109.765, -33.0306  109.765, -33.0306  " />
</g>
<g transform="translate(850,90) scale(1 1)" >
  <polygon fill="NONE " stroke="LIGHTGRAY" stroke-width="1" points="115.54, 63.6574  102.7, -9.14515  107.16, -34.5599  120, 38.2426  " />
  <polygon fill="NONE " stroke="LIGHTGRAY" stroke-width="1" points="44.5924, -34.5599  -60, 21.7574  -55.5399, -3.65741  49.0525, -59.9747  " />
  <polygon fill="NONE " stroke="LIGHTGRAY" stroke-width="1" points="-47.1604, 94.5599  -47.1604, 94.5599  -47.1604, 94.5599  -47.1604, 94.5599  " />
  <polygon fill="NONE " stroke="LIGHTGRAY" stroke-width="1" points="44.5924, -34.5599  49.0525, -59.9747  107.16, -34.5599  102.7, -9.14515  " />
  <polygon fill="NONE " stroke="LIGHTGRAY" stroke-width="1" points="115.54, 63.6574  115.54, 63.6574  115.54, 63.6574  115.54, 63.6574  " />
  <polygon fill="NONE " stroke="LIGHTGRAY" stroke-width="1" points="57.4321, 38.2426  115.54, 63.6574  10.9475, 119.975  -47.1604, 94.5599  " />
  <polygon fill="NONE " stroke="LIGHTGRAY" stroke-width="1" points="44.5924, -34.5599  44.5924, -34.5599  44.5924, -34.5599  44.5924, -34.5599  " />
  <polygon fill="NONE " stroke="LIGHTGRAY" stroke-width="1" points="44.5924, -34.5599  102.7, -9.14515  115.54, 63.6574  57.4321, 38.2426  " />
  <polygon fill="NONE " stroke="LIGHTGRAY" stroke-width="1" points="44.5924, -34.5599  57.4321, 38.2426  -47.1604, 94.5599  -60, 21.7574  " />
  <polygon fill="NONE " stroke="black" stroke-width="2" points="107.16, -34.5599  2.56795, 21.7574  15.4076, 94.5599  120, 38.2426  " />
  <polygon fill="NONE " stroke="black" stroke-width="2" points="-55.5399, -3.65741  -42.7003, 69.1452  15.4076, 94.5599  2.56795, 21.7574  " />
  <polygon fill="NONE " stroke="black" stroke-width="2" points="49.0525, -59.9747  -55.5399, -3.65741  2.56795, 21.7574  107.16, -34.5599  " />
  <polygon fill="NONE " stroke="black" stroke-width="2" points="-55.5399, -3.65741  -55.5399, -3.65741  -55.5399, -3.65741  -55.5399, -3.65741  " />
  <polygon fill="NONE " stroke="black" stroke-width="2" points="-47.1604, 94.5599  10.9475, 119.975  15.4076, 94.5599  -42.7003, 69.1452  " />
  <polygon fill="NONE " stroke="black" stroke-width="2" points="107.16, -34.5599  107.16, -34.5599  107.16, -34.5599  107.16, -34.5599  " />
  <polygon fill="NONE " stroke="black" stroke-width="2" points="115.54, 63.6574  120, 38.2426  15.4076, 94.5599  10.9475, 119.975  " />
  <polygon fill="NONE " stroke="black" stroke-width="2" points="-47.1604, 94.5599  -42.7003, 69.1452  -55.5399, -3.65741  -60, 21.7574  " />
</g>
<g transform="translate(1050,90) scale(1 1)" >
  <polygon fill="NONE " stroke="LIGHTGRAY" stroke-width="1" points="-33.5444, 90.9009  -46.4909, 66.9265  -60, -1.74981  -47.0535, 22.2246  " />
  <polygon fill="NONE " stroke="LIGHTGRAY" stroke-width="1" points="62.9924, -30.9009  50.0459, -54.8753  93.5444, -30.9009  106.491, -6.92653  " />
  <polygon fill="NONE " stroke="LIGHTGRAY" stroke-width="1" points="120, 61.7498  120, 61.7498  120, 61.7498  120, 61.7498  " />
  <polygon fill="NONE " stroke="LIGHTGRAY" stroke-width="1" points="62.9924, -30.9009  -47.0535, 22.2246  -60, -1.74981  50.0459, -54.8753  " />
  <polygon fill="NONE " stroke="LIGHTGRAY" stroke-width="1" points="-33.5444, 90.9009  -33.5444, 90.9009  -33.5444, 90.9009  -33.5444, 90.9009  " />
  <polygon fill="NONE " stroke="LIGHTGRAY" stroke-width="1" points="76.5015, 37.7754  120, 61.7498  9.95411, 114.875  -33.5444, 90.9009  " />
  <polygon fill="NONE " stroke="LIGHTGRAY" stroke-width="1" points="62.9924, -30.9009  106.491, -6.92653  120, 61.7498  76.5015, 37.7754  " />
  <polygon fill="NONE " stroke="LIGHTGRAY" stroke-width="1" points="62.9924, -30.9009  62.9924, -30.9009  62.9924, -30.9009  62.9924, -30.9009  " />
  <polygon fill="NONE " stroke="LIGHTGRAY" stroke-width="1" points="62.9924, -30.9009  76.5015, 37.7754  -33.5444, 90.9009  -47.0535, 22.2246  " />
  <polygon fill="NONE " stroke="black" stroke-width="2" points="93.5444, -30.9009  -16.5015, 22.2246  -2.99243, 90.9009  107.053, 37.7754  " />
  <polygon fill="NONE " stroke="black" stroke-width="2" points="-60, -1.74981  -46.4909, 66.9265  -2.99243, 90.9009  -16.5015, 22.2246  " />
  <polygon fill="NONE " stroke="black" stroke-width="2" points="50.0459, -54.8753  -60, -1.74981  -16.5015, 22.2246  93.5444, -30.9009  " />
  <polygon fill="NONE " stroke="black" stroke-width="2" points="93.5444, -30.9009  93.5444, -30.9009  93.5444, -30.9009  93.5444, -30.9009  " />
  <polygon fill="NONE " stroke="black" stroke-width="2" points="120, 61.7498  107.053, 37.7754  -2.99243, 90.9009  9.95411, 114.875  " />
  <polygon fill="NONE " stroke="black" stroke-width="2" points="-60, -1.74981  -60, -1.74981  -60, -1.74981  -60, -1.74981  " />
  <polygon fill="NONE " stroke="black" stroke-width="2" points="-33.5444, 90.9009  9.95411, 114.875  -2.99243, 90.9009  -46.4909, 66.9265  " />
  <polygon fill="NONE " stroke="black" stroke-width="2" points="120, 61.7498  106.491, -6.92653  93.5444, -30.9009  107.053, 37.7754  " />
</g>
<g transform="translate(1250,90) scale(1 1)" >
  <polygon fill="NONE " stroke="LIGHTGRAY" stroke-width="1" points="120, 60.668  120, 60.668  120, 60.668  120, 60.668  " />
  <polygon fill="NONE " stroke="LIGHTGRAY" stroke-width="1" points="78.2684, -28.8257  50.0459, -51.9832  78.2684, -28.8257  106.491, -5.66829  " />
  <polygon fill="NONE " stroke="LIGHTGRAY" stroke-width="1" points="-18.2684, 88.8257  -46.4909, 65.6683  -60, -0.667966  -31.7775, 22.4895  " />
  <polygon fill="NONE " stroke="LIGHTGRAY" stroke-width="1" points="78.2684, -28.8257  106.491, -5.66829  120, 60.668  91.7775, 37.5105  " />
  <polygon fill="NONE " stroke="LIGHTGRAY" stroke-width="1" points="91.7775, 37.5105  120, 60.668  9.95411, 111.983  -18.2684, 88.8257  " />
  <polygon fill="NONE " stroke="LIGHTGRAY" stroke-width="1" points="78.2684, -28.8257  -31.7775, 22.4895  -60, -0.667966  50.0459, -51.9832  " />
  <polygon fill="NONE " stroke="LIGHTGRAY" stroke-width="1" points="-18.2684, 88.8257  -18.2684, 88.8257  -18.2684, 88.8257  -18.2684, 88.8257  " />
  <polygon fill="NONE " stroke="LIGHTGRAY" stroke-width="1" points="78.2684, -28.8257  78.2684, -28.8257  78.2684, -28.8257  78.2684, -28.8257  " />
  <polygon fill="NONE " stroke="LIGHTGRAY" stroke-width="1" points="78.2684, -28.8257  91.7775, 37.5105  -18.2684, 88.8257  -31.7775, 22.4895  " />
  <polygon fill="NONE " stroke="black" stroke-width="2" points="78.2684, -28.8257  -31.7775, 22.4895  -18.2684, 88.8257  91.7775, 37.5105  " />
  <polygon fill="NONE " stroke="black" stroke-width="2" points="78.2684, -28.8257  78.2684, -28.8257  78.2684, -28.8257  78.2684, -28.8257  " />
  <polygon fill="NONE " stroke="black" stroke-width="2" points="120, 60.668  91.7775, 37.5105  -18.2684, 88.8257  9.95411, 111.983  " />
  <polygon fill="NONE " stroke="black" stroke-width="2" points="50.0459, -51.9832  -60, -0.667966  -31.7775, 22.4895  78.2684, -28.8257  " />
  <polygon fill="NONE " stroke="black" stroke-width="2" points="-60, -0.667966  -46.4909, 65.6683  -18.2684, 88.8257  -31.7775, 22.4895  " />
  <polygon fill="NONE " stroke="black" stroke-width="2" points="120, 60.668  106.491, -5.66829  78.2684, -28.8257  91.7775, 37.5105  " />
  <polygon fill="NONE " stroke="black" stroke-width="2" points="-18.2684, 88.8257  9.95411, 111.983  -18.2684, 88.8257  -46.4909, 65.6683  " />
  <polygon fill="NONE " stroke="black" stroke-width="2" points="-60, -0.667966  -60, -0.667966  -60, -0.667966  -60, -0.667966  " />
</g>
<g transform="translate(1450,90) scale(1 1)" >
  <polygon fill="NONE " stroke="LIGHTGRAY" stroke-width="1" points="93.5444, -30.9009  106.491, -6.92653  120, 61.7498  107.053, 37.7754  " />
  <polygon fill="NONE " stroke="LIGHTGRAY" stroke-width="1" points="-2.99243, 90.9009  9.95411, 114.875  -33.5444, 90.9009  -46.4909, 66.9265  " />
  <polygon fill="NONE " stroke="LIGHTGRAY" stroke-width="1" points="-60, -1.74981  -60, -1.74981  -60, -1.74981  -60, -1.74981  " />
  <polygon fill="NONE " stroke="LIGHTGRAY" stroke-width="1" points="107.053, 37.7754  120, 61.7498  9.95411, 114.875  -2.99243, 90.9009  " />
  <polygon fill="NONE " stroke="LIGHTGRAY" stroke-width="1" points="93.5444, -30.9009  93.5444, -30.9009  93.5444, -30.9009  93.5444, -30.9009  " />
  <polygon fill="NONE " stroke="LIGHTGRAY" stroke-width="1" points="93.5444, -30.9009  -16.5015, 22.2246  -60, -1.74981  50.0459, -54.8753  " />
  <polygon fill="NONE " stroke="LIGHTGRAY" stroke-width="1" points="-2.99243, 90.9009  -46.4909, 66.9265  -60, -1.74981  -16.5015, 22.2246  " />
  <polygon fill="NONE " stroke="LIGHTGRAY" stroke-width="1" points="-2.99243, 90.9009  -2.99243, 90.9009  -2.99243, 90.9009  -2.99243, 90.9009  " />
  <polygon fill="NONE " stroke="LIGHTGRAY" stroke-width="1" points="93.5444, -30.9009  107.053, 37.7754  -2.99243, 90.9009  -16.5015, 22.2246  " />
  <polygon fill="NONE " stroke="black" stroke-width="2" points="62.9924, -30.9009  -47.0535, 22.2246  -33.5444, 90.9009  76.5015, 37.7754  " />
  <polygon fill="NONE " stroke="black" stroke-width="2" points="62.9924, -30.9009  62.9924, -30.9009  62.9924, -30.9009  62.9924, -30.9009  " />
  <polygon fill="NONE " stroke="black" stroke-width="2" points="120, 61.7498  106.491, -6.92653  62.9924, -30.9009  76.5015, 37.7754  " />
  <polygon fill="NONE " stroke="black" stroke-width="2" points="120, 61.7498  76.5015, 37.7754  -33.5444, 90.9009  9.95411, 114.875  " />
  <polygon fill="NONE " stroke="black" stroke-width="2" points="50.0459, -54.8753  -60, -1.74981  -47.0535, 22.2246  62.9924, -30.9009  " />
  <polygon fill="NONE " stroke="black" stroke-width="2" points="120, 61.7498  120, 61.7498  120, 61.7498  120, 61.7498  " />
  <polygon fill="NONE " stroke="black" stroke-width="2" points="93.5444, -30.9009  50.0459, -54.8753  62.9924, -30.9009  106.491, -6.92653  " />
  <polygon fill="NONE " stroke="black" stroke-width="2" points="-60, -1.74981  -46.4909, 66.9265  -33.5444, 90.9009  -47.0535, 22.2246  " />
</g>
<g transform="translate(1650,90) scale(1 1)" >
  <polygon fill="NONE " stroke="LIGHTGRAY" stroke-width="1" points="-48.6471, -0.945278  -36.8421, 65.9908  -40.9427, 89.3577  -52.7478, 22.4216  " />
  <polygon fill="NONE " stroke="LIGHTGRAY" stroke-width="1" points="112.748, 37.5784  108.647, 60.9453  12.4828, 112.725  16.5835, 89.3577  " />
  <polygon fill="NONE " stroke="LIGHTGRAY" stroke-width="1" points="100.943, -29.3577  100.943, -29.3577  100.943, -29.3577  100.943, -29.3577  " />
  <polygon fill="NONE " stroke="LIGHTGRAY" stroke-width="1" points="16.5835, 89.3577  12.4828, 112.725  -40.9427, 89.3577  -36.8421, 65.9908  " />
  <polygon fill="NONE " stroke="LIGHTGRAY" stroke-width="1" points="-48.6471, -0.945278  -48.6471, -0.945278  -48.6471, -0.945278  -48.6471, -0.945278  " />
  <polygon fill="NONE " stroke="LIGHTGRAY" stroke-width="1" points="100.943, -29.3577  4.77844, 22.4216  -48.6471, -0.945278  47.5172, -52.7245  " />
  <polygon fill="NONE " stroke="LIGHTGRAY" stroke-width="1" points="16.5835, 89.3577  16.5835, 89.3577  16.5835, 89.3577  16.5835, 89.3577  " />
  <polygon fill="NONE " stroke="LIGHTGRAY" stroke-width="1" points="16.5835, 89.3577  -36.8421, 65.9908  -48.6471, -0.945278  4.77844, 22.4216  " />
  <polygon fill="NONE " stroke="LIGHTGRAY" stroke-width="1" points="100.943, -29.3577  112.748, 37.5784  16.5835, 89.3577  4.77844, 22.4216  " />
  <polygon fill="NONE " stroke="black" stroke-width="2" points="43.4165, -29.3577  -52.7478, 22.4216  -40.9427, 89.3577  55.2216, 37.5784  " />
  <polygon fill="NONE " stroke="black" stroke-width="2" points="108.647, 60.9453  96.8421, -5.99082  43.4165, -29.3577  55.2216, 37.5784  " />
  <polygon fill="NONE " stroke="black" stroke-width="2" points="43.4165, -29.3577  43.4165, -29.3577  43.4165, -29.3577  43.4165, -29.3577  " />
  <polygon fill="NONE " stroke="black" stroke-width="2" points="108.647, 60.9453  55.2216, 37.5784  -40.9427, 89.3577  12.4828, 112.725  " />
  <polygon fill="NONE " stroke="black" stroke-width="2" points="108.647, 60.9453  108.647, 60.9453  108.647, 60.9453  108.647, 60.9453  " />
  <polygon fill="NONE " stroke="black" stroke-width="2" points="100.943, -29.3577  47.5172, -52.7245  43.4165, -29.3577  96.8421, -5.99082  " />
  <polygon fill="NONE " stroke="black" stroke-width="2" points="47.5172, -52.7245  -48.6471, -0.945278  -52.7478, 22.4216  43.4165, -29.3577  " />
  <polygon fill="NONE " stroke="black" stroke-width="2" points="100.943, -29.3577  96.8421, -5.99082  108.647, 60.9453  112.748, 37.5784  " />
</g>
<g transform="translate(1850,90) scale(1 1)" >
  <polygon fill="NONE " stroke="LIGHTGRAY" stroke-width="1" points="104.383, -28.7777  104.383, -28.7777  104.383, -28.7777  104.383, -28.7777  " />
  <polygon fill="NONE " stroke="LIGHTGRAY" stroke-width="1" points="113.927, 37.5044  93.5876, 60.6429  15.837, 111.916  36.1767, 88.7777  " />
  <polygon fill="NONE " stroke="LIGHTGRAY" stroke-width="1" points="-33.5876, -0.642892  -24.043, 65.6391  -44.3827, 88.7777  -53.9273, 22.4956  " />
  <polygon fill="NONE " stroke="LIGHTGRAY" stroke-width="1" points="36.1767, 88.7777  15.837, 111.916  -44.3827, 88.7777  -24.043, 65.6391  " />
  <polygon fill="NONE " stroke="LIGHTGRAY" stroke-width="1" points="104.383, -28.7777  26.6321, 22.4956  -33.5876, -0.642892  44.163, -51.9162  " />
  <polygon fill="NONE " stroke="LIGHTGRAY" stroke-width="1" points="-33.5876, -0.642892  -33.5876, -0.642892  -33.5876, -0.642892  -33.5876, -0.642892  " />
  <polygon fill="NONE " stroke="LIGHTGRAY" stroke-width="1" points="104.383, -28.7777  113.927, 37.5044  36.1767, 88.7777  26.6321, 22.4956  " />
  <polygon fill="NONE " stroke="LIGHTGRAY" stroke-width="1" points="36.1767, 88.7777  36.1767, 88.7777  36.1767, 88.7777  36.1767, 88.7777  " />
  <polygon fill="NONE " stroke="LIGHTGRAY" stroke-width="1" points="36.1767, 88.7777  -24.043, 65.6391  -33.5876, -0.642892  26.6321, 22.4956  " />
  <polygon fill="NONE " stroke="black" stroke-width="2" points="93.5876, 60.6429  84.043, -5.63913  23.8233, -28.7777  33.3679, 37.5044  " />
  <polygon fill="NONE " stroke="black" stroke-width="2" points="23.8233, -28.7777  23.8233, -28.7777  23.8233, -28.7777  23.8233, -28.7777  " />
  <polygon fill="NONE " stroke="black" stroke-width="2" points="23.8233, -28.7777  -53.9273, 22.4956  -44.3827, 88.7777  33.3679, 37.5044  " />
  <polygon fill="NONE " stroke="black" stroke-width="2" points="93.5876, 60.6429  93.5876, 60.6429  93.5876, 60.6429  93.5876, 60.6429  " />
  <polygon fill="NONE " stroke="black" stroke-width="2" points="93.5876, 60.6429  33.3679, 37.5044  -44.3827, 88.7777  15.837, 111.916  " />
  <polygon fill="NONE " stroke="black" stroke-width="2" points="104.383, -28.7777  44.163, -51.9162  23.8233, -28.7777  84.043, -5.63913  " />
  <polygon fill="NONE " stroke="black" stroke-width="2" points="104.383, -28.7777  84.043, -5.63913  93.5876, 60.6429  113.927, 37.5044  " />
  <polygon fill="NONE " stroke="black" stroke-width="2" points="44.163, -51.9162  -33.5876, -0.642892  -53.9273, 22.4956  23.8233, -28.7777  " />
</g>
<g transform="translate(2050,90) scale(1 1)" >
  <polygon fill="NONE " stroke="LIGHTGRAY" stroke-width="1" points="40.4664, -55.6107  -16.9911, -2.02491  -53.8127, 22.1572  3.64479, -31.4286  " />
  <polygon fill="NONE " stroke="LIGHTGRAY" stroke-width="1" points="106.759, -31.4286  113.813, 37.8428  56.3552, 91.4286  49.3018, 22.1572  " />
  <polygon fill="NONE " stroke="LIGHTGRAY" stroke-width="1" points="56.3552, 91.4286  19.5336, 115.611  -46.7593, 91.4286  -9.93767, 67.2465  " />
  <polygon fill="NONE " stroke="LIGHTGRAY" stroke-width="1" points="106.759, -31.4286  49.3018, 22.1572  -16.9911, -2.02491  40.4664, -55.6107  " />
  <polygon fill="NONE " stroke="LIGHTGRAY" stroke-width="1" points="-16.9911, -2.02491  -9.93767, 67.2465  -46.7593, 91.4286  -53.8127, 22.1572  " />
  <polygon fill="NONE " stroke="LIGHTGRAY" stroke-width="1" points="56.3552, 91.4286  56.3552, 91.4286  56.3552, 91.4286  56.3552, 91.4286  " />
  <polygon fill="NONE " stroke="LIGHTGRAY" stroke-width="1" points="-16.9911, -2.02491  -16.9911, -2.02491  -16.9911, -2.02491  -16.9911, -2.02491  " />
  <polygon fill="NONE " stroke="LIGHTGRAY" stroke-width="1" points="56.3552, 91.4286  -9.93767, 67.2465  -16.9911, -2.02491  49.3018, 22.1572  " />
  <polygon fill="NONE " stroke="black" stroke-width="2" points="76.9911, 62.0249  69.9377, -7.24648  3.64479, -31.4286  10.6982, 37.8428  " />
  <polygon fill="NONE " stroke="black" stroke-width="2" points="76.9911, 62.0249  76.9911, 62.0249  76.9911, 62.0249  76.9911, 62.0249  " />
  <polygon fill="NONE " stroke="black" stroke-width="2" points="3.64479, -31.4286  3.64479, -31.4286  3.64479, -31.4286  3.64479, -31.4286  " />
  <polygon fill="NONE " stroke="black" stroke-width="2" points="106.759, -31.4286  69.9377, -7.24648  76.9911, 62.0249  113.813, 37.8428  " />
  <polygon fill="NONE " stroke="black" stroke-width="2" points="76.9911, 62.0249  10.6982, 37.8428  -46.7593, 91.4286  19.5336, 115.611  " />
  <polygon fill="NONE " stroke="black" stroke-width="2" points="106.759, -31.4286  40.4664, -55.6107  3.64479, -31.4286  69.9377, -7.24648  " />
  <polygon fill="NONE " stroke="black" stroke-width="2" points="3.64479, -31.4286  -53.8127, 22.1572  -46.7593, 91.4286  10.6982, 37.8428  " />
  <polygon fill="NONE " stroke="black" stroke-width="2" points="106.759, -31.4286  106.759, -31.4286  106.759, -31.4286  106.759, -31.4286  " />
  <polygon fill="NONE " stroke="black" stroke-width="2" points="113.813, 37.8428  76.9911, 62.0249  19.5336, 115.611  56.3552, 91.4286  " />
</g>
<g transform="translate(2250,90) scale(1 1)" >
  <polygon fill="NONE " stroke="LIGHTGRAY" stroke-width="1" points="35.7204, -60.3916  4.31722, -3.81335  -48.3451, 21.7192  -16.9419, -34.8591  " />
  <polygon fill="NONE " stroke="LIGHTGRAY" stroke-width="1" points="104.49, -34.8591  108.345, 38.2808  76.9419, 94.8591  73.0869, 21.7192  " />
  <polygon fill="NONE " stroke="LIGHTGRAY" stroke-width="1" points="104.49, -34.8591  73.0869, 21.7192  4.31722, -3.81335  35.7204, -60.3916  " />
  <polygon fill="NONE " stroke="LIGHTGRAY" stroke-width="1" points="76.9419, 94.8591  24.2796, 120.392  -44.4901, 94.8591  8.17224, 69.3265  " />
  <polygon fill="NONE " stroke="LIGHTGRAY" stroke-width="1" points="76.9419, 94.8591  76.9419, 94.8591  76.9419, 94.8591  76.9419, 94.8591  " />
  <polygon fill="NONE " stroke="LIGHTGRAY" stroke-width="1" points="4.31722, -3.81335  8.17224, 69.3265  -44.4901, 94.8591  -48.3451, 21.7192  " />
  <polygon fill="NONE " stroke="LIGHTGRAY" stroke-width="1" points="4.31722, -3.81335  4.31722, -3.81335  4.31722, -3.81335  4.31722, -3.81335  " />
  <polygon fill="NONE " stroke="LIGHTGRAY" stroke-width="1" points="76.9419, 94.8591  8.17224, 69.3265  4.31722, -3.81335  73.0869, 21.7192  " />
  <polygon fill="NONE " stroke="black" stroke-width="2" points="55.6828, 63.8133  51.8278, -9.32652  -16.9419, -34.8591  -13.0869, 38.2808  " />
  <polygon fill="NONE " stroke="black" stroke-width="2" points="55.6828, 63.8133  55.6828, 63.8133  55.6828, 63.8133  55.6828, 63.8133  " />
  <polygon fill="NONE " stroke="black" stroke-width="2" points="104.49, -34.8591  51.8278, -9.32652  55.6828, 63.8133  108.345, 38.2808  " />
  <polygon fill="NONE " stroke="black" stroke-width="2" points="-16.9419, -34.8591  -16.9419, -34.8591  -16.9419, -34.8591  -16.9419, -34.8591  " />
  <polygon fill="NONE " stroke="black" stroke-width="2" points="104.49, -34.8591  35.7204, -60.3916  -16.9419, -34.8591  51.8278, -9.32652  " />
  <polygon fill="NONE " stroke="black" stroke-width="2" points="55.6828, 63.8133  -13.0869, 38.2808  -44.4901, 94.8591  24.2796, 120.392  " />
  <polygon fill="NONE " stroke="black" stroke-width="2" points="104.49, -34.8591  104.49, -34.8591  104.49, -34.8591  104.49, -34.8591  " />
  <polygon fill="NONE " stroke="black" stroke-width="2" points="-16.9419, -34.8591  -48.3451, 21.7192  -44.4901, 94.8591  -13.0869, 38.2808  " />
  <polygon fill="NONE " stroke="black" stroke-width="2" points="108.345, 38.2808  55.6828, 63.8133  24.2796, 120.392  76.9419, 94.8591  " />
</g>
<!--

Reduced Cell 
   7.49213   7.49213  10.00000  68.00000  68.00000  60.00000  
  S6    28.06602  28.06602  28.06602 -112.26408 -112.26408 -156.13204  
  G6      56.132    56.132   100.000    56.132    56.132    56.132  
  D7      56.132    56.132   100.000   380.660   212.264   212.264   168.396  

FACE  1 vertex count= 4   area= 2.95823e-31    index -1 -1 1  Center of mass -3.74607 -2.16279 4.50803
   Edge lengths 9.93014e-16 9.93014e-16 6.28037e-16 1.25607e-15 
FACE  17 vertex count= 4   area= 34.5114    index 1 0 0  Center of mass 3.74607 0 0
   Edge lengths 7.97843 4.4483 7.97843 4.4483 

FACE  2 vertex count= 4   area= 34.5114    index -1 0 0  Center of mass -3.74607 0 0
   Edge lengths 4.4483 7.97843 4.4483 7.97843 
FACE  16 vertex count= 4   area= 17.9723    index 1 0 -1  Center of mass 1.87303 -1.0814 -4.50803
   Edge lengths 4.4483 4.4483 4.4483 4.4483 

FACE  3 vertex count= 4   area= 17.9723    index -1 0 1  Center of mass -1.87303 1.0814 4.50803
   Edge lengths 4.4483 4.4483 4.4483 4.4483 
FACE  15 vertex count= 4   area= 1.42817e-30    index 1 -1 1  Center of mass 3.74607 -2.16279 4.50803
   Edge lengths 2.22045e-15 6.28037e-16 9.93014e-16 2.17558e-15 

FACE  4 vertex count= 4   area= 3.22984e-30    index -1 1 -1  Center of mass -3.74607 2.16279 -4.50803
   Edge lengths 2.03507e-15 2.97904e-15 1.98603e-15 1.08779e-15 
FACE  14 vertex count= 4   area= 34.5114    index 1 -1 0  Center of mass 1.87303 -3.24419 0
   Edge lengths 7.97843 4.4483 7.97843 4.4483 

FACE  5 vertex count= 4   area= 34.5114    index -1 1 0  Center of mass -1.87303 3.24419 0
   Edge lengths 4.4483 7.97843 4.4483 7.97843 
FACE  13 vertex count= 4   area= 1.91356e-30    index 1 -1 -1  Center of mass 0 -4.32558 -4.50803
   Edge lengths 2.35526e-15 2.01125e-15 9.19484e-16 1.1375e-15 

FACE  6 vertex count= 4   area= 1.02131e-30    index -1 1 1  Center of mass 0 4.32558 4.50803
   Edge lengths 1.30001e-15 2.80211e-15 2.35526e-15 1.88265e-15 
FACE  12 vertex count= 4   area= 34.5114    index 0 1 0  Center of mass 1.87303 3.24419 0
   Edge lengths 4.4483 7.97843 4.4483 7.97843 

FACE  7 vertex count= 4   area= 34.5114    index 0 -1 0  Center of mass -1.87303 -3.24419 0
   Edge lengths 7.97843 4.4483 7.97843 4.4483 
FACE  11 vertex count= 4   area= 17.9723    index 0 1 -1  Center of mass 0 2.16279 -4.50803
   Edge lengths 4.4483 4.4483 4.4483 4.4483 

FACE  8 vertex count= 4   area= 17.9723    index 0 -1 1  Center of mass 0 -2.16279 4.50803
   Edge lengths 4.4483 4.4483 4.4483 4.4483 
FACE  10 vertex count= 4   area= 17.9723    index 0 0 1  Center of mass 1.87303 1.0814 4.50803
   Edge lengths 4.4483 4.4483 4.4483 4.4483 



Global Constants
IMAGES int 12
XSIZE int 2000
YSIZE int 2000
LATTICELIMIT int 1
IMAGEHEIGHT int 90
XROTATE double 25
YROTATE double 15
ZROTATE double 0
SCALE double 1
HIDDENCOLOR string LIGHTGRAY
FACECOLOR string NONE
NOTE vectorStr
FILEPREFIX string DC
INPUTERRORS vectorStr
TIMESTAMP bool 1
YPOSITION int 90
SELLING string NIGGLI
CELL INPUT  vectorStr P 10 10 10  44 44 44
	
XSIZE int 2000
--><!-- Run Constants--></svg>
