<?xml version="1.0" standalone="no"?>
<svg width="2000" height ="2000" viewBox = "0 0 2000 2000" 
version = "1.1" xmlns="http://www.w3.org/2000/svg" xmlns:xlink="http://www.w3.org/1999/xlink">
<!-- Creation date and time _2021-03-08.14_32_48.-->
<g transform="translate(50,90) scale(1 1)" >
  <polygon fill="NONE " stroke="LIGHTGRAY" stroke-width="1" points="93.6396, -0.781813  93.6396, 114.572  93.6396, 60.7818  93.6396, -54.5723  " />
  <polygon fill="NONE " stroke="LIGHTGRAY" stroke-width="1" points="-33.6396, -0.781813  -33.6396, -54.5723  -33.6396, 60.7818  -33.6396, 114.572  " />
  <polygon fill="NONE " stroke="LIGHTGRAY" stroke-width="1" points="-33.6396, -54.5723  -33.6396, -54.5723  -33.6396, -54.5723  -33.6396, -54.5723  -33.6396, -54.5723  " />
  <polygon fill="NONE " stroke="LIGHTGRAY" stroke-width="1" points="93.6396, -54.5723  93.6396, -54.5723  93.6396, -54.5723  93.6396, -54.5723  " />
  <polygon fill="NONE " stroke="LIGHTGRAY" stroke-width="1" points="-33.6396, 114.572  -33.6396, 60.7818  93.6396, 60.7818  93.6396, 114.572  " />
  <polygon fill="NONE " stroke="LIGHTGRAY" stroke-width="1" points="-33.6396, 60.7818  -33.6396, 60.7818  -33.6396, 60.7818  -33.6396, 60.7818  -33.6396, 60.7818  -33.6396, 60.7818  -33.6396, 60.7818  -33.6396, 60.7818  " />
  <polygon fill="NONE " stroke="LIGHTGRAY" stroke-width="1" points="93.6396, 60.7818  93.6396, 60.7818  93.6396, 60.7818  93.6396, 60.7818  93.6396, 60.7818  93.6396, 60.7818  93.6396, 60.7818  93.6396, 60.7818  93.6396, 60.7818  93.6396, 60.7818  93.6396, 60.7818  " />
  <polygon fill="NONE " stroke="LIGHTGRAY" stroke-width="1" points="-33.6396, -54.5723  93.6396, -54.5723  93.6396, 60.7818  -33.6396, 60.7818  " />
  <polygon fill="NONE " stroke="black" stroke-width="2" points="-33.6396, -0.781813  -33.6396, 114.572  93.6396, 114.572  93.6396, -0.781813  " />
  <polygon fill="NONE " stroke="black" stroke-width="2" points="-33.6396, -0.781813  -33.6396, -0.781813  -33.6396, -0.781813  -33.6396, -0.781813  -33.6396, -0.781813  -33.6396, -0.781813  -33.6396, -0.781813  " />
  <polygon fill="NONE " stroke="black" stroke-width="2" points="93.6396, -0.781813  93.6396, -0.781813  93.6396, -0.781813  93.6396, -0.781813  93.6396, -0.781813  93.6396, -0.781813  " />
  <polygon fill="NONE " stroke="black" stroke-width="2" points="-33.6396, -0.781813  93.6396, -0.781813  93.6396, -54.5723  -33.6396, -54.5723  " />
  <polygon fill="NONE " stroke="black" stroke-width="2" points="-33.6396, 114.572  -33.6396, 114.572  -33.6396, 114.572  -33.6396, 114.572  -33.6396, 114.572  " />
  <polygon fill="NONE " stroke="black" stroke-width="2" points="93.6396, 114.572  93.6396, 114.572  93.6396, 114.572  93.6396, 114.572  93.6396, 114.572  93.6396, 114.572  93.6396, 114.572  93.6396, 114.572  " />
</g>
<g transform="translate(250,90) scale(1 1)" >
  <polygon fill="NONE " stroke="LIGHTGRAY" stroke-width="1" points="90.8099, -44.0636  90.8099, -44.0636  90.8099, -44.0636  90.8099, -44.0636  " />
  <polygon fill="NONE " stroke="LIGHTGRAY" stroke-width="1" points="-43.002, 3.04304  -16.856, -44.0636  -4.66385, 56.957  -30.8099, 104.064  " />
  <polygon fill="NONE " stroke="LIGHTGRAY" stroke-width="1" points="-30.8099, 104.064  -4.66385, 56.957  103.002, 56.957  76.856, 104.064  " />
  <polygon fill="NONE " stroke="LIGHTGRAY" stroke-width="1" points="-16.856, -44.0636  -16.856, -44.0636  -16.856, -44.0636  -16.856, -44.0636  -16.856, -44.0636  " />
  <polygon fill="NONE " stroke="LIGHTGRAY" stroke-width="1" points="103.002, 56.957  103.002, 56.957  103.002, 56.957  103.002, 56.957  103.002, 56.957  103.002, 56.957  103.002, 56.957  103.002, 56.957  103.002, 56.957  103.002, 56.957  103.002, 56.957  " />
  <polygon fill="NONE " stroke="LIGHTGRAY" stroke-width="1" points="-16.856, -44.0636  90.8099, -44.0636  103.002, 56.957  -4.66385, 56.957  " />
  <polygon fill="NONE " stroke="LIGHTGRAY" stroke-width="1" points="-4.66385, 56.957  -4.66385, 56.957  -4.66385, 56.957  -4.66385, 56.957  -4.66385, 56.957  -4.66385, 56.957  -4.66385, 56.957  -4.66385, 56.957  " />
  <polygon fill="NONE " stroke="black" stroke-width="2" points="64.6638, 3.04304  64.6638, 3.04304  64.6638, 3.04304  64.6638, 3.04304  64.6638, 3.04304  64.6638, 3.04304  " />
  <polygon fill="NONE " stroke="black" stroke-width="2" points="-43.002, 3.04304  -30.8099, 104.064  76.856, 104.064  64.6638, 3.04304  " />
  <polygon fill="NONE " stroke="black" stroke-width="2" points="-43.002, 3.04304  -43.002, 3.04304  -43.002, 3.04304  -43.002, 3.04304  -43.002, 3.04304  -43.002, 3.04304  -43.002, 3.04304  " />
  <polygon fill="NONE " stroke="black" stroke-width="2" points="76.856, 104.064  76.856, 104.064  76.856, 104.064  76.856, 104.064  76.856, 104.064  76.856, 104.064  76.856, 104.064  76.856, 104.064  " />
  <polygon fill="NONE " stroke="black" stroke-width="2" points="-43.002, 3.04304  64.6638, 3.04304  90.8099, -44.0636  -16.856, -44.0636  " />
  <polygon fill="NONE " stroke="black" stroke-width="2" points="64.6638, 3.04304  76.856, 104.064  103.002, 56.957  90.8099, -44.0636  " />
  <polygon fill="NONE " stroke="black" stroke-width="2" points="-30.8099, 104.064  -30.8099, 104.064  -30.8099, 104.064  -30.8099, 104.064  -30.8099, 104.064  " />
</g>
<g transform="translate(450,90) scale(1 1)" >
  <polygon fill="NONE " stroke="LIGHTGRAY" stroke-width="1" points="-28.0795, 99.6683  -28.0795, 99.6683  -28.0795, 99.6683  -28.0795, 99.6683  -28.0795, 99.6683  " />
  <polygon fill="NONE " stroke="LIGHTGRAY" stroke-width="1" points="-28.0795, 99.6683  19.4332, 55.3572  110.235, 55.3572  62.7224, 99.6683  " />
  <polygon fill="NONE " stroke="LIGHTGRAY" stroke-width="1" points="110.235, 55.3572  110.235, 55.3572  110.235, 55.3572  110.235, 55.3572  110.235, 55.3572  110.235, 55.3572  110.235, 55.3572  110.235, 55.3572  110.235, 55.3572  110.235, 55.3572  110.235, 55.3572  " />
  <polygon fill="NONE " stroke="LIGHTGRAY" stroke-width="1" points="-50.2351, 4.64282  -2.72235, -39.6683  19.4332, 55.3572  -28.0795, 99.6683  " />
  <polygon fill="NONE " stroke="LIGHTGRAY" stroke-width="1" points="-2.72235, -39.6683  -2.72235, -39.6683  -2.72235, -39.6683  -2.72235, -39.6683  -2.72235, -39.6683  " />
  <polygon fill="NONE " stroke="LIGHTGRAY" stroke-width="1" points="-2.72235, -39.6683  88.0795, -39.6683  110.235, 55.3572  19.4332, 55.3572  " />
  <polygon fill="NONE " stroke="LIGHTGRAY" stroke-width="1" points="19.4332, 55.3572  19.4332, 55.3572  19.4332, 55.3572  19.4332, 55.3572  19.4332, 55.3572  19.4332, 55.3572  19.4332, 55.3572  19.4332, 55.3572  " />
  <polygon fill="NONE " stroke="black" stroke-width="2" points="40.5668, 4.64282  40.5668, 4.64282  40.5668, 4.64282  40.5668, 4.64282  40.5668, 4.64282  40.5668, 4.64282  " />
  <polygon fill="NONE " stroke="black" stroke-width="2" points="-50.2351, 4.64282  -28.0795, 99.6683  62.7224, 99.6683  40.5668, 4.64282  " />
  <polygon fill="NONE " stroke="black" stroke-width="2" points="62.7224, 99.6683  62.7224, 99.6683  62.7224, 99.6683  62.7224, 99.6683  62.7224, 99.6683  62.7224, 99.6683  62.7224, 99.6683  62.7224, 99.6683  " />
  <polygon fill="NONE " stroke="black" stroke-width="2" points="40.5668, 4.64282  62.7224, 99.6683  110.235, 55.3572  88.0795, -39.6683  " />
  <polygon fill="NONE " stroke="black" stroke-width="2" points="-50.2351, 4.64282  -50.2351, 4.64282  -50.2351, 4.64282  -50.2351, 4.64282  -50.2351, 4.64282  -50.2351, 4.64282  -50.2351, 4.64282  " />
  <polygon fill="NONE " stroke="black" stroke-width="2" points="-50.2351, 4.64282  40.5668, 4.64282  88.0795, -39.6683  -2.72235, -39.6683  " />
  <polygon fill="NONE " stroke="black" stroke-width="2" points="88.0795, -39.6683  88.0795, -39.6683  88.0795, -39.6683  88.0795, -39.6683  " />
</g>
<g transform="translate(650,90) scale(1 1)" >
  <polygon fill="NONE " stroke="LIGHTGRAY" stroke-width="1" points="116.526, 55.414  116.526, 55.414  116.526, 55.414  116.526, 55.414  116.526, 55.414  116.526, 55.414  116.526, 55.414  116.526, 55.414  116.526, 55.414  116.526, 55.414  116.526, 55.414  " />
  <polygon fill="NONE " stroke="LIGHTGRAY" stroke-width="1" points="-25.1232, 99.8244  -25.1232, 99.8244  -25.1232, 99.8244  -25.1232, 99.8244  -25.1232, 99.8244  " />
  <polygon fill="NONE " stroke="LIGHTGRAY" stroke-width="1" points="-25.1232, 99.8244  42.2205, 55.414  116.526, 55.414  49.1824, 99.8244  " />
  <polygon fill="NONE " stroke="LIGHTGRAY" stroke-width="1" points="10.8176, -39.8244  10.8176, -39.8244  10.8176, -39.8244  10.8176, -39.8244  10.8176, -39.8244  " />
  <polygon fill="NONE " stroke="LIGHTGRAY" stroke-width="1" points="10.8176, -39.8244  85.1232, -39.8244  116.526, 55.414  42.2205, 55.414  " />
  <polygon fill="NONE " stroke="LIGHTGRAY" stroke-width="1" points="-56.5261, 4.58601  10.8176, -39.8244  42.2205, 55.414  -25.1232, 99.8244  " />
  <polygon fill="NONE " stroke="LIGHTGRAY" stroke-width="1" points="42.2205, 55.414  42.2205, 55.414  42.2205, 55.414  42.2205, 55.414  42.2205, 55.414  42.2205, 55.414  42.2205, 55.414  42.2205, 55.414  " />
  <polygon fill="NONE " stroke="black" stroke-width="2" points="17.7795, 4.58601  17.7795, 4.58601  17.7795, 4.58601  17.7795, 4.58601  17.7795, 4.58601  17.7795, 4.58601  " />
  <polygon fill="NONE " stroke="black" stroke-width="2" points="17.7795, 4.58601  49.1824, 99.8244  116.526, 55.414  85.1232, -39.8244  " />
  <polygon fill="NONE " stroke="black" stroke-width="2" points="-56.5261, 4.58601  -25.1232, 99.8244  49.1824, 99.8244  17.7795, 4.58601  " />
  <polygon fill="NONE " stroke="black" stroke-width="2" points="49.1824, 99.8244  49.1824, 99.8244  49.1824, 99.8244  49.1824, 99.8244  49.1824, 99.8244  49.1824, 99.8244  49.1824, 99.8244  49.1824, 99.8244  " />
  <polygon fill="NONE " stroke="black" stroke-width="2" points="-56.5261, 4.58601  17.7795, 4.58601  85.1232, -39.8244  10.8176, -39.8244  " />
  <polygon fill="NONE " stroke="black" stroke-width="2" points="85.1232, -39.8244  85.1232, -39.8244  85.1232, -39.8244  85.1232, -39.8244  " />
  <polygon fill="NONE " stroke="black" stroke-width="2" points="-56.5261, 4.58601  -56.5261, 4.58601  -56.5261, 4.58601  -56.5261, 4.58601  -56.5261, 4.58601  -56.5261, 4.58601  -56.5261, 4.58601  " />
</g>
<g transform="translate(850,90) scale(1 1)" >
  <polygon fill="NONE " stroke="LIGHTGRAY" stroke-width="1" points="-60, 3.63106  -60, 3.63106  -60, 3.63106  -60, 3.63106  -60, 3.63106  -60, 3.63106  -60, 3.63106  " />
  <polygon fill="NONE " stroke="LIGHTGRAY" stroke-width="1" points="-20.0943, 102.448  65.4837, 56.3689  120, 56.3689  34.422, 102.448  " />
  <polygon fill="NONE " stroke="LIGHTGRAY" stroke-width="1" points="-20.0943, 102.448  -20.0943, 102.448  -20.0943, 102.448  -20.0943, 102.448  -20.0943, 102.448  " />
  <polygon fill="NONE " stroke="LIGHTGRAY" stroke-width="1" points="25.578, -42.4481  80.0943, -42.4481  120, 56.3689  65.4837, 56.3689  " />
  <polygon fill="NONE " stroke="LIGHTGRAY" stroke-width="1" points="25.578, -42.4481  25.578, -42.4481  25.578, -42.4481  25.578, -42.4481  25.578, -42.4481  " />
  <polygon fill="NONE " stroke="LIGHTGRAY" stroke-width="1" points="-60, 3.63106  25.578, -42.4481  65.4837, 56.3689  -20.0943, 102.448  " />
  <polygon fill="NONE " stroke="LIGHTGRAY" stroke-width="1" points="65.4837, 56.3689  65.4837, 56.3689  65.4837, 56.3689  65.4837, 56.3689  65.4837, 56.3689  65.4837, 56.3689  65.4837, 56.3689  65.4837, 56.3689  " />
  <polygon fill="NONE " stroke="black" stroke-width="2" points="-5.48374, 3.63106  -5.48374, 3.63106  -5.48374, 3.63106  -5.48374, 3.63106  -5.48374, 3.63106  -5.48374, 3.63106  " />
  <polygon fill="NONE " stroke="black" stroke-width="2" points="-5.48374, 3.63106  34.422, 102.448  120, 56.3689  80.0943, -42.4481  " />
  <polygon fill="NONE " stroke="black" stroke-width="2" points="34.422, 102.448  34.422, 102.448  34.422, 102.448  34.422, 102.448  34.422, 102.448  34.422, 102.448  34.422, 102.448  34.422, 102.448  " />
  <polygon fill="NONE " stroke="black" stroke-width="2" points="-60, 3.63106  -20.0943, 102.448  34.422, 102.448  -5.48374, 3.63106  " />
  <polygon fill="NONE " stroke="black" stroke-width="2" points="80.0943, -42.4481  80.0943, -42.4481  80.0943, -42.4481  80.0943, -42.4481  " />
  <polygon fill="NONE " stroke="black" stroke-width="2" points="-60, 3.63106  -5.48374, 3.63106  80.0943, -42.4481  25.578, -42.4481  " />
  <polygon fill="NONE " stroke="black" stroke-width="2" points="120, 56.3689  120, 56.3689  120, 56.3689  120, 56.3689  120, 56.3689  120, 56.3689  120, 56.3689  120, 56.3689  120, 56.3689  120, 56.3689  120, 56.3689  " />
</g>
<g transform="translate(1050,90) scale(1 1)" >
  <polygon fill="NONE " stroke="LIGHTGRAY" stroke-width="1" points="-10.286, 103.74  86.8657, 56.8391  115.589, 56.8391  18.4368, 103.74  " />
  <polygon fill="NONE " stroke="LIGHTGRAY" stroke-width="1" points="41.5632, -43.7398  70.286, -43.7398  115.589, 56.8391  86.8657, 56.8391  " />
  <polygon fill="NONE " stroke="LIGHTGRAY" stroke-width="1" points="-55.5886, 3.16091  -55.5886, 3.16091  -55.5886, 3.16091  -55.5886, 3.16091  -55.5886, 3.16091  -55.5886, 3.16091  -55.5886, 3.16091  " />
  <polygon fill="NONE " stroke="LIGHTGRAY" stroke-width="1" points="-10.286, 103.74  -10.286, 103.74  -10.286, 103.74  -10.286, 103.74  -10.286, 103.74  " />
  <polygon fill="NONE " stroke="LIGHTGRAY" stroke-width="1" points="41.5632, -43.7398  41.5632, -43.7398  41.5632, -43.7398  41.5632, -43.7398  41.5632, -43.7398  " />
  <polygon fill="NONE " stroke="LIGHTGRAY" stroke-width="1" points="86.8657, 56.8391  86.8657, 56.8391  86.8657, 56.8391  86.8657, 56.8391  86.8657, 56.8391  86.8657, 56.8391  86.8657, 56.8391  86.8657, 56.8391  " />
  <polygon fill="NONE " stroke="LIGHTGRAY" stroke-width="1" points="-55.5886, 3.16091  41.5632, -43.7398  86.8657, 56.8391  -10.286, 103.74  " />
  <polygon fill="NONE " stroke="black" stroke-width="2" points="-26.8657, 3.16091  18.4368, 103.74  115.589, 56.8391  70.286, -43.7398  " />
  <polygon fill="NONE " stroke="black" stroke-width="2" points="-26.8657, 3.16091  -26.8657, 3.16091  -26.8657, 3.16091  -26.8657, 3.16091  -26.8657, 3.16091  -26.8657, 3.16091  " />
  <polygon fill="NONE " stroke="black" stroke-width="2" points="18.4368, 103.74  18.4368, 103.74  18.4368, 103.74  18.4368, 103.74  18.4368, 103.74  18.4368, 103.74  18.4368, 103.74  18.4368, 103.74  " />
  <polygon fill="NONE " stroke="black" stroke-width="2" points="70.286, -43.7398  70.286, -43.7398  70.286, -43.7398  70.286, -43.7398  " />
  <polygon fill="NONE " stroke="black" stroke-width="2" points="115.589, 56.8391  115.589, 56.8391  115.589, 56.8391  115.589, 56.8391  115.589, 56.8391  115.589, 56.8391  115.589, 56.8391  115.589, 56.8391  115.589, 56.8391  115.589, 56.8391  115.589, 56.8391  " />
  <polygon fill="NONE " stroke="black" stroke-width="2" points="-55.5886, 3.16091  -10.286, 103.74  18.4368, 103.74  -26.8657, 3.16091  " />
  <polygon fill="NONE " stroke="black" stroke-width="2" points="-55.5886, 3.16091  -26.8657, 3.16091  70.286, -43.7398  41.5632, -43.7398  " />
</g>
<g transform="translate(1250,90) scale(1 1)" >
  <polygon fill="NONE " stroke="LIGHTGRAY" stroke-width="1" points="2.63515, 105.184  105.184, 57.3648  105.184, 57.3648  2.63515, 105.184  " />
  <polygon fill="NONE " stroke="LIGHTGRAY" stroke-width="1" points="57.3648, -45.1843  57.3648, -45.1843  105.184, 57.3648  105.184, 57.3648  " />
  <polygon fill="NONE " stroke="LIGHTGRAY" stroke-width="1" points="-45.1843, 2.63515  -45.1843, 2.63515  -45.1843, 2.63515  -45.1843, 2.63515  -45.1843, 2.63515  -45.1843, 2.63515  -45.1843, 2.63515  " />
  <polygon fill="NONE " stroke="LIGHTGRAY" stroke-width="1" points="2.63515, 105.184  2.63515, 105.184  2.63515, 105.184  2.63515, 105.184  2.63515, 105.184  " />
  <polygon fill="NONE " stroke="LIGHTGRAY" stroke-width="1" points="57.3648, -45.1843  57.3648, -45.1843  57.3648, -45.1843  57.3648, -45.1843  57.3648, -45.1843  " />
  <polygon fill="NONE " stroke="LIGHTGRAY" stroke-width="1" points="105.184, 57.3648  105.184, 57.3648  105.184, 57.3648  105.184, 57.3648  105.184, 57.3648  105.184, 57.3648  105.184, 57.3648  105.184, 57.3648  " />
  <polygon fill="NONE " stroke="LIGHTGRAY" stroke-width="1" points="-45.1843, 2.63515  57.3648, -45.1843  105.184, 57.3648  2.63515, 105.184  " />
  <polygon fill="NONE " stroke="black" stroke-width="2" points="-45.1843, 2.63515  2.63515, 105.184  105.184, 57.3648  57.3648, -45.1843  " />
  <polygon fill="NONE " stroke="black" stroke-width="2" points="-45.1843, 2.63515  -45.1843, 2.63515  -45.1843, 2.63515  -45.1843, 2.63515  -45.1843, 2.63515  -45.1843, 2.63515  " />
  <polygon fill="NONE " stroke="black" stroke-width="2" points="2.63515, 105.184  2.63515, 105.184  2.63515, 105.184  2.63515, 105.184  2.63515, 105.184  2.63515, 105.184  2.63515, 105.184  2.63515, 105.184  " />
  <polygon fill="NONE " stroke="black" stroke-width="2" points="57.3648, -45.1843  57.3648, -45.1843  57.3648, -45.1843  57.3648, -45.1843  " />
  <polygon fill="NONE " stroke="black" stroke-width="2" points="105.184, 57.3648  105.184, 57.3648  105.184, 57.3648  105.184, 57.3648  105.184, 57.3648  105.184, 57.3648  105.184, 57.3648  105.184, 57.3648  105.184, 57.3648  105.184, 57.3648  105.184, 57.3648  " />
  <polygon fill="NONE " stroke="black" stroke-width="2" points="-45.1843, 2.63515  2.63515, 105.184  2.63515, 105.184  -45.1843, 2.63515  " />
  <polygon fill="NONE " stroke="black" stroke-width="2" points="-45.1843, 2.63515  -45.1843, 2.63515  57.3648, -45.1843  57.3648, -45.1843  " />
</g>
<g transform="translate(1450,90) scale(1 1)" >
  <polygon fill="NONE " stroke="LIGHTGRAY" stroke-width="1" points="-29.7967, 1.77757  -60, 1.77757  42.1591, -47.5405  72.3624, -47.5405  " />
  <polygon fill="NONE " stroke="LIGHTGRAY" stroke-width="1" points="-29.7967, 1.77757  17.8409, 107.54  -12.3624, 107.54  -60, 1.77757  " />
  <polygon fill="NONE " stroke="LIGHTGRAY" stroke-width="1" points="120, 58.2224  120, 58.2224  120, 58.2224  120, 58.2224  120, 58.2224  120, 58.2224  120, 58.2224  120, 58.2224  " />
  <polygon fill="NONE " stroke="LIGHTGRAY" stroke-width="1" points="72.3624, -47.5405  72.3624, -47.5405  72.3624, -47.5405  72.3624, -47.5405  72.3624, -47.5405  " />
  <polygon fill="NONE " stroke="LIGHTGRAY" stroke-width="1" points="17.8409, 107.54  17.8409, 107.54  17.8409, 107.54  17.8409, 107.54  17.8409, 107.54  " />
  <polygon fill="NONE " stroke="LIGHTGRAY" stroke-width="1" points="-29.7967, 1.77757  -29.7967, 1.77757  -29.7967, 1.77757  -29.7967, 1.77757  -29.7967, 1.77757  -29.7967, 1.77757  -29.7967, 1.77757  " />
  <polygon fill="NONE " stroke="LIGHTGRAY" stroke-width="1" points="-29.7967, 1.77757  72.3624, -47.5405  120, 58.2224  17.8409, 107.54  " />
  <polygon fill="NONE " stroke="black" stroke-width="2" points="-60, 1.77757  -12.3624, 107.54  89.7967, 58.2224  42.1591, -47.5405  " />
  <polygon fill="NONE " stroke="black" stroke-width="2" points="89.7967, 58.2224  89.7967, 58.2224  89.7967, 58.2224  89.7967, 58.2224  89.7967, 58.2224  89.7967, 58.2224  89.7967, 58.2224  89.7967, 58.2224  89.7967, 58.2224  89.7967, 58.2224  89.7967, 58.2224  " />
  <polygon fill="NONE " stroke="black" stroke-width="2" points="42.1591, -47.5405  42.1591, -47.5405  42.1591, -47.5405  42.1591, -47.5405  " />
  <polygon fill="NONE " stroke="black" stroke-width="2" points="-12.3624, 107.54  -12.3624, 107.54  -12.3624, 107.54  -12.3624, 107.54  -12.3624, 107.54  -12.3624, 107.54  -12.3624, 107.54  -12.3624, 107.54  " />
  <polygon fill="NONE " stroke="black" stroke-width="2" points="-60, 1.77757  -60, 1.77757  -60, 1.77757  -60, 1.77757  -60, 1.77757  -60, 1.77757  " />
  <polygon fill="NONE " stroke="black" stroke-width="2" points="72.3624, -47.5405  42.1591, -47.5405  89.7967, 58.2224  120, 58.2224  " />
  <polygon fill="NONE " stroke="black" stroke-width="2" points="17.8409, 107.54  120, 58.2224  89.7967, 58.2224  -12.3624, 107.54  " />
</g>
<g transform="translate(1650,90) scale(1 1)" >
  <polygon fill="NONE " stroke="LIGHTGRAY" stroke-width="1" points="120, 56.3689  120, 56.3689  120, 56.3689  120, 56.3689  120, 56.3689  120, 56.3689  120, 56.3689  120, 56.3689  " />
  <polygon fill="NONE " stroke="LIGHTGRAY" stroke-width="1" points="-5.48374, 3.63106  -60, 3.63106  25.578, -42.4481  80.0943, -42.4481  " />
  <polygon fill="NONE " stroke="LIGHTGRAY" stroke-width="1" points="80.0943, -42.4481  80.0943, -42.4481  80.0943, -42.4481  80.0943, -42.4481  80.0943, -42.4481  " />
  <polygon fill="NONE " stroke="LIGHTGRAY" stroke-width="1" points="-5.48374, 3.63106  34.422, 102.448  -20.0943, 102.448  -60, 3.63106  " />
  <polygon fill="NONE " stroke="LIGHTGRAY" stroke-width="1" points="34.422, 102.448  34.422, 102.448  34.422, 102.448  34.422, 102.448  34.422, 102.448  " />
  <polygon fill="NONE " stroke="LIGHTGRAY" stroke-width="1" points="-5.48374, 3.63106  80.0943, -42.4481  120, 56.3689  34.422, 102.448  " />
  <polygon fill="NONE " stroke="LIGHTGRAY" stroke-width="1" points="-5.48374, 3.63106  -5.48374, 3.63106  -5.48374, 3.63106  -5.48374, 3.63106  -5.48374, 3.63106  -5.48374, 3.63106  -5.48374, 3.63106  " />
  <polygon fill="NONE " stroke="black" stroke-width="2" points="65.4837, 56.3689  65.4837, 56.3689  65.4837, 56.3689  65.4837, 56.3689  65.4837, 56.3689  65.4837, 56.3689  65.4837, 56.3689  65.4837, 56.3689  65.4837, 56.3689  65.4837, 56.3689  65.4837, 56.3689  " />
  <polygon fill="NONE " stroke="black" stroke-width="2" points="-60, 3.63106  -20.0943, 102.448  65.4837, 56.3689  25.578, -42.4481  " />
  <polygon fill="NONE " stroke="black" stroke-width="2" points="25.578, -42.4481  25.578, -42.4481  25.578, -42.4481  25.578, -42.4481  " />
  <polygon fill="NONE " stroke="black" stroke-width="2" points="80.0943, -42.4481  25.578, -42.4481  65.4837, 56.3689  120, 56.3689  " />
  <polygon fill="NONE " stroke="black" stroke-width="2" points="-20.0943, 102.448  -20.0943, 102.448  -20.0943, 102.448  -20.0943, 102.448  -20.0943, 102.448  -20.0943, 102.448  -20.0943, 102.448  -20.0943, 102.448  " />
  <polygon fill="NONE " stroke="black" stroke-width="2" points="34.422, 102.448  120, 56.3689  65.4837, 56.3689  -20.0943, 102.448  " />
  <polygon fill="NONE " stroke="black" stroke-width="2" points="-60, 3.63106  -60, 3.63106  -60, 3.63106  -60, 3.63106  -60, 3.63106  -60, 3.63106  " />
</g>
<g transform="translate(1850,90) scale(1 1)" >
  <polygon fill="NONE " stroke="LIGHTGRAY" stroke-width="1" points="-60, 3.56566  -60, 3.56566  -60, 3.56566  -60, 3.56566  -60, 3.56566  -60, 3.56566  " />
  <polygon fill="NONE " stroke="LIGHTGRAY" stroke-width="1" points="87.3363, -42.6278  87.3363, -42.6278  87.3363, -42.6278  87.3363, -42.6278  87.3363, -42.6278  " />
  <polygon fill="NONE " stroke="LIGHTGRAY" stroke-width="1" points="17.2888, 3.56566  -60, 3.56566  10.0475, -42.6278  87.3363, -42.6278  " />
  <polygon fill="NONE " stroke="LIGHTGRAY" stroke-width="1" points="49.9525, 102.628  49.9525, 102.628  49.9525, 102.628  49.9525, 102.628  49.9525, 102.628  " />
  <polygon fill="NONE " stroke="LIGHTGRAY" stroke-width="1" points="17.2888, 3.56566  49.9525, 102.628  -27.3363, 102.628  -60, 3.56566  " />
  <polygon fill="NONE " stroke="LIGHTGRAY" stroke-width="1" points="17.2888, 3.56566  87.3363, -42.6278  120, 56.4343  49.9525, 102.628  " />
  <polygon fill="NONE " stroke="LIGHTGRAY" stroke-width="1" points="17.2888, 3.56566  17.2888, 3.56566  17.2888, 3.56566  17.2888, 3.56566  17.2888, 3.56566  17.2888, 3.56566  17.2888, 3.56566  " />
  <polygon fill="NONE " stroke="black" stroke-width="2" points="42.7112, 56.4343  42.7112, 56.4343  42.7112, 56.4343  42.7112, 56.4343  42.7112, 56.4343  42.7112, 56.4343  42.7112, 56.4343  42.7112, 56.4343  42.7112, 56.4343  42.7112, 56.4343  42.7112, 56.4343  " />
  <polygon fill="NONE " stroke="black" stroke-width="2" points="-60, 3.56566  -27.3363, 102.628  42.7112, 56.4343  10.0475, -42.6278  " />
  <polygon fill="NONE " stroke="black" stroke-width="2" points="87.3363, -42.6278  10.0475, -42.6278  42.7112, 56.4343  120, 56.4343  " />
  <polygon fill="NONE " stroke="black" stroke-width="2" points="10.0475, -42.6278  10.0475, -42.6278  10.0475, -42.6278  10.0475, -42.6278  " />
  <polygon fill="NONE " stroke="black" stroke-width="2" points="49.9525, 102.628  120, 56.4343  42.7112, 56.4343  -27.3363, 102.628  " />
  <polygon fill="NONE " stroke="black" stroke-width="2" points="-27.3363, 102.628  -27.3363, 102.628  -27.3363, 102.628  -27.3363, 102.628  -27.3363, 102.628  -27.3363, 102.628  -27.3363, 102.628  -27.3363, 102.628  " />
  <polygon fill="NONE " stroke="black" stroke-width="2" points="120, 56.4343  120, 56.4343  120, 56.4343  120, 56.4343  120, 56.4343  120, 56.4343  120, 56.4343  120, 56.4343  " />
</g>
<g transform="translate(2050,90) scale(1 1)" >
  <polygon fill="NONE " stroke="LIGHTGRAY" stroke-width="1" points="95.148, -48.1472  95.148, -48.1472  95.148, -48.1472  95.148, -48.1472  95.148, -48.1472  " />
  <polygon fill="NONE " stroke="LIGHTGRAY" stroke-width="1" points="41.8528, 1.55676  -60, 1.55676  -6.70479, -48.1472  95.148, -48.1472  " />
  <polygon fill="NONE " stroke="LIGHTGRAY" stroke-width="1" points="-60, 1.55676  -60, 1.55676  -60, 1.55676  -60, 1.55676  -60, 1.55676  -60, 1.55676  " />
  <polygon fill="NONE " stroke="LIGHTGRAY" stroke-width="1" points="41.8528, 1.55676  95.148, -48.1472  120, 58.4432  66.7048, 108.147  " />
  <polygon fill="NONE " stroke="LIGHTGRAY" stroke-width="1" points="66.7048, 108.147  66.7048, 108.147  66.7048, 108.147  66.7048, 108.147  66.7048, 108.147  " />
  <polygon fill="NONE " stroke="LIGHTGRAY" stroke-width="1" points="41.8528, 1.55676  66.7048, 108.147  -35.148, 108.147  -60, 1.55676  " />
  <polygon fill="NONE " stroke="LIGHTGRAY" stroke-width="1" points="41.8528, 1.55676  41.8528, 1.55676  41.8528, 1.55676  41.8528, 1.55676  41.8528, 1.55676  41.8528, 1.55676  41.8528, 1.55676  " />
  <polygon fill="NONE " stroke="black" stroke-width="2" points="18.1472, 58.4432  18.1472, 58.4432  18.1472, 58.4432  18.1472, 58.4432  18.1472, 58.4432  18.1472, 58.4432  18.1472, 58.4432  18.1472, 58.4432  18.1472, 58.4432  18.1472, 58.4432  18.1472, 58.4432  " />
  <polygon fill="NONE " stroke="black" stroke-width="2" points="95.148, -48.1472  -6.70479, -48.1472  18.1472, 58.4432  120, 58.4432  " />
  <polygon fill="NONE " stroke="black" stroke-width="2" points="-6.70479, -48.1472  -6.70479, -48.1472  -6.70479, -48.1472  -6.70479, -48.1472  " />
  <polygon fill="NONE " stroke="black" stroke-width="2" points="-60, 1.55676  -35.148, 108.147  18.1472, 58.4432  -6.70479, -48.1472  " />
  <polygon fill="NONE " stroke="black" stroke-width="2" points="120, 58.4432  120, 58.4432  120, 58.4432  120, 58.4432  120, 58.4432  120, 58.4432  120, 58.4432  120, 58.4432  " />
  <polygon fill="NONE " stroke="black" stroke-width="2" points="66.7048, 108.147  120, 58.4432  18.1472, 58.4432  -35.148, 108.147  " />
  <polygon fill="NONE " stroke="black" stroke-width="2" points="-35.148, 108.147  -35.148, 108.147  -35.148, 108.147  -35.148, 108.147  -35.148, 108.147  -35.148, 108.147  -35.148, 108.147  -35.148, 108.147  " />
</g>
<g transform="translate(2250,90) scale(1 1)" >
  <polygon fill="NONE " stroke="LIGHTGRAY" stroke-width="1" points="-44.9691, 121.309  -44.9691, 121.309  -44.9691, 121.309  -44.9691, 121.309  -44.9691, 121.309  -44.9691, 121.309  -44.9691, 121.309  -44.9691, 121.309  " />
  <polygon fill="NONE " stroke="LIGHTGRAY" stroke-width="1" points="72.7351, -3.23369  104.969, -61.3088  120, 63.2337  87.766, 121.309  " />
  <polygon fill="NONE " stroke="LIGHTGRAY" stroke-width="1" points="72.7351, -3.23369  -60, -3.23369  -27.766, -61.3088  104.969, -61.3088  " />
  <polygon fill="NONE " stroke="LIGHTGRAY" stroke-width="1" points="87.766, 121.309  87.766, 121.309  87.766, 121.309  87.766, 121.309  87.766, 121.309  " />
  <polygon fill="NONE " stroke="LIGHTGRAY" stroke-width="1" points="-60, -3.23369  -60, -3.23369  -60, -3.23369  -60, -3.23369  -60, -3.23369  -60, -3.23369  " />
  <polygon fill="NONE " stroke="LIGHTGRAY" stroke-width="1" points="72.7351, -3.23369  87.766, 121.309  -44.9691, 121.309  -60, -3.23369  " />
  <polygon fill="NONE " stroke="LIGHTGRAY" stroke-width="1" points="72.7351, -3.23369  72.7351, -3.23369  72.7351, -3.23369  72.7351, -3.23369  72.7351, -3.23369  72.7351, -3.23369  72.7351, -3.23369  " />
  <polygon fill="NONE " stroke="black" stroke-width="2" points="-12.7351, 63.2337  -12.7351, 63.2337  -12.7351, 63.2337  -12.7351, 63.2337  -12.7351, 63.2337  -12.7351, 63.2337  -12.7351, 63.2337  -12.7351, 63.2337  -12.7351, 63.2337  -12.7351, 63.2337  -12.7351, 63.2337  " />
  <polygon fill="NONE " stroke="black" stroke-width="2" points="104.969, -61.3088  -27.766, -61.3088  -12.7351, 63.2337  120, 63.2337  " />
  <polygon fill="NONE " stroke="black" stroke-width="2" points="120, 63.2337  120, 63.2337  120, 63.2337  120, 63.2337  120, 63.2337  120, 63.2337  120, 63.2337  120, 63.2337  " />
  <polygon fill="NONE " stroke="black" stroke-width="2" points="-27.766, -61.3088  -27.766, -61.3088  -27.766, -61.3088  -27.766, -61.3088  " />
  <polygon fill="NONE " stroke="black" stroke-width="2" points="87.766, 121.309  120, 63.2337  -12.7351, 63.2337  -44.9691, 121.309  " />
  <polygon fill="NONE " stroke="black" stroke-width="2" points="-60, -3.23369  -44.9691, 121.309  -12.7351, 63.2337  -27.766, -61.3088  " />
  <polygon fill="NONE " stroke="black" stroke-width="2" points="104.969, -61.3088  104.969, -61.3088  104.969, -61.3088  104.969, -61.3088  104.969, -61.3088  " />
</g>
<!--

Reduced Cell 
  10.00000  10.00000  10.00000  90.00000  90.00000  90.00000  
  S6     0.00000   0.00000   0.00000 -100.00000 -100.00000 -100.00000  
  G6     100.000   100.000   100.000     0.000     0.000     0.000  
  D7     100.000   100.000   100.000   300.000   200.000   200.000   200.000  

FACE  1 vertex count= 7   area= 1.56729e-29    index -1 -1 -1  Center of mass -5 -5 -5
   Edge lengths 2.80867e-15 2.80867e-15 3.76822e-15 3.55271e-15 3.97205e-15 8.88178e-16 2.66454e-15 
FACE  14 vertex count= 11   area= 2.47496e-29    index 1 1 1  Center of mass 5 5 5
   Edge lengths 2.66454e-15 3.87148e-15 2.80867e-15 8.88178e-16 1.77636e-15 3.76822e-15 3.87148e-15 2.80867e-15 8.88178e-16 5.0243e-15 4.44089e-15 

FACE  2 vertex count= 5   area= 1.14999e-29    index -1 -1 1  Center of mass -5 -5 5
   Edge lengths 3.76822e-15 2.80867e-15 4.44089e-15 8.88178e-16 1.77636e-15 
FACE  13 vertex count= 8   area= 1.27279e-29    index 1 1 -1  Center of mass 5 5 -5
   Edge lengths 4.44089e-15 8.88178e-16 2.80867e-15 8.88178e-16 8.88178e-16 1.98603e-15 2.80867e-15 2.66454e-15 

FACE  3 vertex count= 4   area= 100    index -1 0 0  Center of mass -5 0 0
   Edge lengths 10 10 10 10 
FACE  12 vertex count= 4   area= 100    index 1 0 0  Center of mass 5 0 0
   Edge lengths 10 10 10 10 

FACE  4 vertex count= 5   area= 7.09975e-30    index -1 1 -1  Center of mass -5 5 -5
   Edge lengths 8.88178e-16 1.77636e-15 3.20237e-15 4.44089e-15 2.66454e-15 
FACE  11 vertex count= 4   area= 4.73317e-30    index 1 -1 1  Center of mass 5 -5 5
   Edge lengths 8.88178e-16 1.77636e-15 3.97205e-15 3.66205e-15 

FACE  5 vertex count= 8   area= 1.02552e-29    index -1 1 1  Center of mass -5 5 5
   Edge lengths 8.88178e-16 1.98603e-15 2.80867e-15 2.66454e-15 8.88178e-16 2.80867e-15 2.66454e-15 2.66454e-15 
FACE  10 vertex count= 6   area= 8.66376e-30    index 1 -1 -1  Center of mass 5 -5 -5
   Edge lengths 3.76822e-15 2.80867e-15 8.88178e-16 1.77636e-15 8.88178e-16 3.76822e-15 

FACE  6 vertex count= 4   area= 100    index 0 -1 0  Center of mass 0 -5 0
   Edge lengths 10 10 10 10 
FACE  9 vertex count= 4   area= 100    index 0 1 0  Center of mass 0 5 0
   Edge lengths 10 10 10 10 

FACE  7 vertex count= 4   area= 100    index 0 0 -1  Center of mass 0 0 -5
   Edge lengths 10 10 10 10 
FACE  8 vertex count= 4   area= 100    index 0 0 1  Center of mass 0 0 5
   Edge lengths 10 10 10 10 



Global Constants
IMAGES int 12
XSIZE int 2000
YSIZE int 2000
LATTICELIMIT int 1
IMAGEHEIGHT int 90
XROTATE double 25
YROTATE double 15
ZROTATE double 0
SCALE double 1
HIDDENCOLOR string LIGHTGRAY
FACECOLOR string NONE
NOTE vectorStr
FILEPREFIX string DC
INPUTERRORS vectorStr
TIMESTAMP bool 1
YPOSITION int 90
SELLING string NIGGLI
CELL INPUT  vectorStr P 10 10 10  90 90 090
	P 10 10 10  91 91 91
	P 10 10 10 89 89 89
	
XSIZE int 2000
--><!-- Run Constants--></svg>
